<?xml version="1.0" encoding="UTF-8" standalone="no"?>
<svg viewBox="0 0 200 200" version="1.1" id="svg12"
   xmlns="http://www.w3.org/2000/svg"
   xmlns:svg="http://www.w3.org/2000/svg">
   <defs id="defs16" />
   <g id="Page-1" stroke="none" stroke-width="1" fill="none" fill-rule="evenodd">
      <g id="card" fill-rule="nonzero">
         <g fill="#FFFFFF" id="Oval">
            <circle cx="100" cy="100" r="100" id="circle2" />
         </g>
         <g id="g164" transform="matrix(0.45090519,0,0,0.45090519,9.8507504,80.822495)">
            <g id="a" data-name="appuio_managed_rgb_safe_area" />
            <g id="b" data-name="appuio_managed_rgb">
               <g id="g130">
                  <path d="m 2.243,76.794 c 1.444,3.655 4.249,5.949 8.329,5.949 5.27,0 6.757,-3.356 6.757,-5.906 0,-3.867 -2.465,-5.312 -7.097,-7.352 -4.505,-1.955 -7.649,-3.698 -7.649,-8.287 0,-4.08 3.229,-7.055 7.606,-7.055 3.527,0 6.035,1.487 7.564,4.335 l -1.912,0.978 c -1.19,-2.21 -2.975,-3.272 -5.652,-3.272 -3.06,0 -5.396,1.997 -5.396,4.93 0,3.569 2.635,4.802 6.502,6.502 5.396,2.422 8.244,4.249 8.244,9.222 0,4.632 -3.229,7.946 -8.967,7.946 -4.675,0 -8.457,-2.337 -10.241,-7.097 z" fill="#0d3047" id="path106" />
                  <path d="m 24.874,54.653 h 16.148 v 2.04 H 27.084 v 10.879 h 13.132 v 2.083 H 27.084 V 82.233 H 41.32 v 2.04 H 24.874 Z" fill="#0d3047" id="path108" />
                  <path d="m 46.265,54.653 h 2.21 v 27.58 h 12.749 v 2.04 H 46.265 Z" fill="#0d3047" id="path110" />
                  <path d="m 65.825,54.653 h 14.618 v 2.04 H 68.034 V 67.7 h 11.347 v 2.04 H 68.034 v 14.533 h -2.209 z" fill="#0d3047" id="path112" />
                  <path d="m 83.492,72.12 h 11.092 v 1.997 H 83.492 Z" fill="#0d3047" id="path114" />
                  <path d="m 100.718,53.974 13.769,21.631 13.769,-21.631 v 30.3 h -2.168 V 61.241 L 114.487,79.345 102.885,61.241 v 23.033 h -2.167 z" fill="#0d3047" id="path116" />
                  <path d="m 145.533,53.847 12.791,30.427 h -2.252 L 152.673,76.2 h -14.278 l -3.4,8.074 h -2.252 l 12.791,-30.427 z m 6.247,20.312 -6.247,-15.043 -6.247,15.043 z" fill="#0d3047" id="path118" />
                  <path d="m 162.79,53.847 20.781,25.285 V 54.653 h 2.209 V 85.081 L 165,59.796 v 24.478 h -2.21 z" fill="#0d3047" id="path120" />
                  <path d="m 203.037,53.847 12.791,30.427 h -2.252 L 210.177,76.2 h -14.278 l -3.4,8.074 h -2.252 l 12.791,-30.427 z m 6.247,20.312 -6.247,-15.043 -6.247,15.043 z" fill="#0d3047" id="path122" />
                  <path d="m 232.408,54.187 c 3.697,0 6.927,1.147 9.477,3.187 l -1.317,1.572 c -2.167,-1.699 -4.929,-2.72 -8.159,-2.72 -7.521,0 -13.088,5.737 -13.088,13.26 0,7.606 5.566,13.301 13.088,13.301 3.485,0 6.63,-1.147 8.967,-3.272 v -8.967 h -9.731 v -2.04 h 11.941 v 11.814 c -2.89,2.848 -6.799,4.505 -11.177,4.505 -8.541,0 -15.298,-6.545 -15.298,-15.341 0,-8.796 6.757,-15.299 15.298,-15.299 z" fill="#0d3047" id="path124" />
                  <path d="m 250.011,54.653 h 16.147 v 2.04 H 252.22 v 10.879 h 13.132 v 2.083 H 252.22 v 12.578 h 14.236 v 2.04 h -16.445 z" fill="#0d3047" id="path126" />
                  <path d="m 271.401,54.653 h 8.966 c 9.477,0 15.299,6.035 15.299,14.832 0,8.797 -5.779,14.788 -15.256,14.788 h -9.009 z m 8.839,27.58 c 8.541,0 13.174,-5.185 13.174,-12.748 0,-7.607 -4.633,-12.792 -13.217,-12.792 h -6.587 v 25.54 z" fill="#0d3047" id="path128" />
               </g>
               <path id="c" data-name="APPUiO" d="m 131.194,0.672 -14.817,35.487 h 6.721 L 126,29.082 h 15.784 l 2.902,7.077 h 6.72 L 136.591,0.672 Z m -3.208,23.166 5.906,-14.46 5.906,14.46 z M 168.569,0.672 H 155.026 V 36.16 h 6.364 V 23.737 h 7.179 c 5.906,0 11.558,-4.735 11.558,-11.507 0,-7.179 -5.907,-11.557 -11.558,-11.557 z m -0.305,17.311 H 161.39 V 6.425 h 6.874 c 2.546,0 5.549,1.782 5.549,5.804 0,3.92 -3.004,5.754 -5.549,5.754 z m 22.253,5.753 h 7.179 c 5.906,0 11.558,-4.735 11.558,-11.507 0,-7.179 -5.907,-11.557 -11.558,-11.557 H 184.153 V 36.16 h 6.364 V 23.737 Z m 0,-17.311 h 6.874 c 2.546,0 5.549,1.782 5.549,5.804 0,3.92 -3.004,5.754 -5.549,5.754 h -6.874 z m 51.235,16.14 c 0,9.47 -6.364,14.154 -14.358,14.154 -8.045,0 -14.409,-4.684 -14.409,-14.154 V 0.672 h 6.364 v 21.232 c 0,6.313 3.208,9.063 8.045,9.063 4.786,0 7.994,-2.749 7.994,-9.063 V 0.672 h 6.364 v 21.894 z m 11.759,13.594 h -6.109 v -25.66 h 6.109 V 36.16 Z m 0.561,-32.28 c 0,2.037 -1.681,3.615 -3.615,3.615 -1.986,0 -3.666,-1.578 -3.666,-3.615 0,-2.037 1.68,-3.615 3.666,-3.615 1.935,0 3.615,1.578 3.615,3.615 z m 22.468,32.993 c 10.438,0 18.787,-7.943 18.787,-18.38 0,-10.437 -8.349,-18.431 -18.787,-18.431 -10.438,0 -18.736,7.993 -18.736,18.431 0,10.438 8.35,18.38 18.736,18.38 z m 0,-31.058 c 7.077,0 12.474,5.601 12.474,12.678 0,7.128 -5.397,12.627 -12.474,12.627 -7.077,0 -12.474,-5.448 -12.474,-12.627 0,-7.128 5.397,-12.678 12.474,-12.678 z" fill="#0d3047" />
               <path id="d" data-name="Bildmarke" d="m 395.277,0.7 h -77.953 c -2.348,0 -4.252,1.904 -4.252,4.252 v 56.944 c 0,2.348 1.904,4.252 4.252,4.252 h 38.979 v 17.654 l 17.654,-17.654 h 21.319 c 2.348,0 4.252,-1.904 4.252,-4.252 V 4.952 c 0,-2.348 -1.904,-4.252 -4.252,-4.252 z" fill="#ffd200" />
            </g>
            <g id="e" data-name="appuio_managed_bg_rgb" />
            <g id="f" data-name="appuio_managed_bg_sw" />
            <g id="g" data-name="appuio_cloud_sw" />
         </g>
      </g>
   </g>
</svg>
