<svg xmlns="http://www.w3.org/2000/svg" xmlns:xlink="http://www.w3.org/1999/xlink" viewBox="0 0 275 564">
  <defs>
    <style>
      .cls-1, .cls-18, .cls-19, .cls-2, .cls-20, .cls-21, .cls-25, .cls-26, .cls-27, .cls-28, .cls-29, .cls-34, .cls-35, .cls-36, .cls-4, .cls-5, .cls-6 {
        fill: none;
      }

      .cls-2, .cls-3 {
        opacity: 0.3;
      }

      .cls-4 {
        stroke: #2c5871;
      }

      .cls-21, .cls-25, .cls-26, .cls-27, .cls-28, .cls-29, .cls-34, .cls-35, .cls-36, .cls-4, .cls-5, .cls-6 {
        stroke-miterlimit: 10;
      }

      .cls-4, .cls-5, .cls-6 {
        stroke-width: 9.747px;
      }

      .cls-28, .cls-29, .cls-5, .cls-6 {
        stroke: #1d1e1c;
      }

      .cls-18, .cls-19, .cls-25, .cls-28, .cls-34, .cls-36, .cls-5 {
        stroke-linecap: round;
      }

      .cls-10, .cls-7 {
        opacity: 0.2;
      }

      .cls-8 {
        fill: #dc9161;
      }

      .cls-9 {
        fill: #ef9e69;
      }

      .cls-11 {
        fill: #15b0bf;
      }

      .cls-12 {
        fill: #2c5871;
      }

      .cls-13 {
        fill: #002f47;
      }

      .cls-14 {
        fill: #bf292e;
      }

      .cls-15 {
        clip-path: url(#clip-path);
      }

      .cls-16 {
        fill: gold;
      }

      .cls-17 {
        fill: #0b2f46;
      }

      .cls-18, .cls-25 {
        stroke: #ef9e69;
      }

      .cls-18, .cls-19, .cls-20 {
        stroke-linejoin: round;
        stroke-width: 8.1225px;
      }

      .cls-19, .cls-20 {
        stroke: #002f47;
      }

      .cls-20, .cls-26 {
        stroke-linecap: square;
      }

      .cls-21 {
        stroke: #ffd301;
        stroke-width: 0.882px;
      }

      .cls-22 {
        fill: #e0b50a;
      }

      .cls-23 {
        fill: #ffd301;
      }

      .cls-24 {
        fill: #be9b07;
      }

      .cls-25, .cls-26, .cls-34, .cls-35, .cls-36 {
        stroke-width: 8.82px;
      }

      .cls-26, .cls-34 {
        stroke: #989898;
      }

      .cls-27 {
        stroke: #676767;
      }

      .cls-27, .cls-28, .cls-29 {
        stroke-width: 10.584px;
      }

      .cls-30 {
        fill: #dd9362;
      }

      .cls-31 {
        fill: gray;
      }

      .cls-32 {
        fill: #ef9f69;
      }

      .cls-33 {
        fill: #736358;
      }

      .cls-35, .cls-36 {
        stroke: #ef9f69;
      }
    </style>
    <clipPath id="clip-path">
      <path class="cls-1" d="M90.30624,294.64813c-3.34161-5.783-11.53924-7.322-17.448-3.90736-.32353.18687-.6337.39258-.938.605,5.72087-2.37929.81984,4.86325,3.88311,10.16521l1.74347,3.017,14.50289-6.86289Z"/>
    </clipPath>
    <symbol id="karte_angebot_OnPremises_people" data-name="karte angebot OnPremises people" viewBox="0 0 275 564">
      <g id="karte_OnPremises" data-name="karte OnPremises">
        <rect class="cls-2" width="275" height="564"/>
      </g>
      <g id="On-Premises">
        <g>
          <ellipse class="cls-3" cx="83.6837" cy="422.86336" rx="26.24378" ry="4.36634"/>
          <g>
            <line class="cls-4" x1="90.77491" y1="372.67729" x2="78.07446" y2="414.83414"/>
            <g>
              <line class="cls-5" x1="79.79758" y1="409.11456" x2="76.66559" y2="419.51063"/>
              <line class="cls-6" x1="81.26965" y1="404.22829" x2="78.13766" y2="414.62436"/>
            </g>
          </g>
          <g>
            <line class="cls-4" x1="90.77491" y1="372.67729" x2="90.77491" y2="416.7057"/>
            <g>
              <line class="cls-5" x1="90.77491" y1="410.7322" x2="90.77491" y2="421.58981"/>
              <line class="cls-6" x1="90.77491" y1="405.629" x2="90.77491" y2="416.48661"/>
            </g>
          </g>
          <g class="cls-7">
            <polygon points="86.309 402.98 82.35 416.123 80.828 421.155 85.99 376.664 86.309 372.018 86.309 372.677 86.309 402.98"/>
          </g>
          <g id="kopf">
            <g>
              <polygon class="cls-8" points="86.768 327.9 93.172 327.9 93.172 319.18 86.768 319.18 86.768 327.9"/>
              <path class="cls-9" d="M94.47329,311.11506a9.31006,9.31006,0,0,1-16.87555,7.86921l-4.83763-10.37433,16.87556-7.8692Z"/>
              <path class="cls-10" d="M90.00076,323.28437a14.31582,14.31582,0,0,0,3.21809-2.47489v1.938a8.98583,8.98583,0,0,1-2.58444,1.89578,11.64025,11.64025,0,0,1-3.8358.85269l.05584-1.38137A9.27364,9.27364,0,0,0,90.00076,323.28437Z"/>
              <circle cx="89.50994" cy="304.62788" r="0.91574"/>
              <path d="M88.2935,294.43779l-1.70462-1.81656-9.42239,5.66386-1.11129.51817-4.89214,2.28128a3.04617,3.04617,0,0,0-1.58444,4.00275c1.1922,2.55663,3.03166,6.50157,4.59072,9.84516a3.04666,3.04666,0,0,0,4.08465,1.35917l.00912-.00416a9.41785,9.41785,0,0,0,5.54734-8.61211c-.0008-.04194.00158-.08488.00158-.12692a3.07441,3.07441,0,0,1,2.3967,2.29774l.97651-2.08034s-2.21591-1.51866-2.68787-3.2319a6.87725,6.87725,0,0,1,.51757-.88374,8.33359,8.33359,0,0,1,2.49148-2.0693C90.91248,299.52528,89.88429,297.84979,88.2935,294.43779Z"/>
            </g>
          </g>
          <path class="cls-11" d="M105.64872,376.79116H75.9011V339.20547a14.8738,14.8738,0,0,1,14.8738-14.8738h0a14.8738,14.8738,0,0,1,14.87379,14.8738Z"/>
          <g id="helm">
            <g>
              <path class="cls-12" d="M90.33007,294.74723c-3.27238-5.82249-11.45107-7.45912-17.40017-4.11522-5.94885,3.34354-8.82183,11.14711-5.54954,16.96942l1.40906,2.5064,23.248-12.323Z"/>
              <path class="cls-13" d="M90.33007,294.74723c-3.27238-5.82249-11.45107-7.45912-17.40017-4.11522-.32574.183-.63834.385-.94513.5938,5.74885-2.31088,12.8688-.5039,15.86861,4.83423l1.70736,3.03761,2.47669-1.31282Z"/>
              <polygon class="cls-14" points="92.037 297.785 92.763 299.076 92.07 297.768 92.037 297.785"/>
              <polygon class="cls-14" points="68.785 310.11 69.478 311.419 69.515 311.399 68.789 310.108 68.785 310.11"/>
              <polygon class="cls-13" points="68.417 309.405 67.405 312.518 92.763 299.076 91.665 297.082 68.417 309.405"/>
            </g>
            <path class="cls-13" d="M89.81346,294.48244l2.94979,4.59369,6.20232-3.28765S94.4268,292.21331,89.81346,294.48244Z"/>
            <g id="helm-2" data-name="helm">
              <g class="cls-15">
                <g>
                  <path class="cls-16" d="M97.30846,282.80078a59.90548,59.90548,0,0,0-15.34961,8.16406.66187.66187,0,0,0-.11426,1.00293q1.60254,1.82081,3.03515,3.72412a.73307.73307,0,0,0,1.00684.1753,53.62473,53.62473,0,0,1,10.80859-5.94336q.30762.58448.6001,1.16992c.11817-.51807.24024-1.03662.36279-1.55518q1.33594-.51855,2.7212-.97851a.70383.70383,0,0,0,.47314-.9502q-1.06568-2.23974-2.31689-4.44043A1.04659,1.04659,0,0,0,97.30846,282.80078Z"/>
                  <g>
                    <path class="cls-17" d="M83.974,290.79639q.41822,1.54541.81153,3.09472c.15625-.11084.31543-.22216.47314-.33349q-.07838-.30835-.15771-.61621.56469-.39113,1.14257-.77.28565.17066.56739.34326c.165-.10547.3291-.21094.49463-.31641q-1.42311-.87231-2.93262-1.67529Q84.173,290.65918,83.974,290.79639Zm.99805,1.69629q-.16407-.62842-.33154-1.25684.60132.33252,1.18945.67676Q85.39781,292.20043,84.972,292.49268Z"/>
                    <path class="cls-17" d="M86.80894,288.959q-.52881.3208-1.04687.65088.93969,1.19678,1.812,2.42041c.1582-.09765.31543-.19531.47559-.293q-.304-.43065-.61426-.85888.27246-.167.54736-.33155a.91054.91054,0,0,0,.32276-1.32714A1.13824,1.13824,0,0,0,86.80894,288.959Zm.8628,1.20362c-.17578.10791-.35157.21338-.52637.32031-.19483-.26318-.39307-.52783-.59375-.79.17627-.1084.354-.21777.53125-.32519a.54349.54349,0,0,1,.72851.1416A.43309.43309,0,0,1,87.67174,290.1626Z"/>
                    <path class="cls-17" d="M89.69273,289.564c.189-.10449.38037-.208.57129-.311a.89962.89962,0,0,0,.38037-1.313,1.17956,1.17956,0,0,0-1.51513-.31738c-.3667.20068-.73.40283-1.09082.61133q.9104,1.23046,1.75,2.48681c.16455-.09277.33056-.18359.49658-.27539Q89.99206,290.00366,89.69273,289.564Zm-.85351-1.21777q.27686-.15454.5542-.30517a.559.559,0,0,1,.73681.16894.43124.43124,0,0,1-.168.64795c-.18408.09912-.36767.19971-.54931.30029C89.22447,288.88623,89.03306,288.61475,88.83922,288.34619Z"/>
                    <path class="cls-17" d="M92.82115,285.77246c-.18213.084-.36475.16895-.54639.2544q.50978.77124.99659,1.55078a.60073.60073,0,0,1-.25489.97705.77774.77774,0,0,1-1.081-.33838q-.49586-.769-1.01807-1.5293c-.17724.09033-.355.18018-.53076.26953q.54273.78,1.05713,1.56885a1.35266,1.35266,0,0,0,1.83105.45117,1.04459,1.04459,0,0,0,.56446-1.59521C93.5106,286.84277,93.16978,286.30664,92.82115,285.77246Z"/>
                    <path class="cls-17" d="M94.2982,286.04248q-.26586.115-.52832.23193.59253.94629,1.15039,1.90381.25782-.11133.51807-.22168Q94.88682,286.99487,94.2982,286.04248Z"/>
                    <path class="cls-17" d="M93.557,285.40234a.27489.27489,0,0,0-.14844.40821.40087.40087,0,0,0,.48633.12549.2759.2759,0,0,0,.14649-.4043A.3966.3966,0,0,0,93.557,285.40234Z"/>
                    <path class="cls-17" d="M97.45689,287.21289a1.41963,1.41963,0,0,0,.90479-2.02148,2.02507,2.02507,0,0,0-2.50489-.769,1.39551,1.39551,0,0,0-.82421,2.05664A2.01324,2.01324,0,0,0,97.45689,287.21289Zm-1.33984-2.35742a1.36538,1.36538,0,0,1,1.67432.54053.94547.94547,0,0,1-.5752,1.37793,1.34879,1.34879,0,0,1-1.63818-.522A.9396.9396,0,0,1,96.11705,284.85547Z"/>
                  </g>
                  <g>
                    <path class="cls-17" d="M85.43638,294.66846a.20407.20407,0,0,0,.21143-.01709c.08106-.0586.07031-.11328.04443-.14453-.03515-.05127-.10156-.03858-.19189-.0127-.11768.02686-.22217.04736-.29736-.05225a.1983.1983,0,0,1,.06738-.28222.25627.25627,0,0,1,.25195-.03613c-.01318.03466-.02685.06787-.03906.10253a.15031.15031,0,0,0-.14258.02393c-.04931.03857-.063.08252-.03515.1167.04.04541.09668.03076.20507.001.1377-.03614.22168-.02539.28614.063.07129.09717.05371.21827-.082.313a.29617.29617,0,0,1-.32129.0293C85.40758,294.73779,85.42222,294.70361,85.43638,294.66846Z"/>
                    <path class="cls-17" d="M85.53209,293.99121c.03418-.02392.06836-.04834.10351-.07226.13623.10009.271.1997.4043.30029-.05273-.15528-.10644-.3125-.15918-.46875.02637-.01856.05274-.03711.08106-.05518.13574.10059.27148.20117.40527.30078q-.07983-.23437-.15869-.46826c.03467-.02392.06982-.04736.105-.07129q.12012.34791.23828.69727c-.02832.019-.05664.0376-.08545.05664q-.20216-.15162-.40674-.29981c.05127.15772.104.314.15479.47168l-.0835.05713C85.931,294.28857,85.73277,294.14014,85.53209,293.99121Z"/>
                    <path class="cls-17" d="M86.40269,293.398c.03565-.0249.07276-.04834.10889-.07324q.20948.28783.41553.57812c-.03614.02442-.07227.04688-.10791.07178C86.682,293.78125,86.54332,293.58984,86.40269,293.398Z"/>
                    <path class="cls-17" d="M86.98375,293.61377a.21992.21992,0,0,0,.21533-.01123c.0835-.05322.07275-.11475.0498-.14307-.0371-.05517-.10058-.03662-.19482-.01855-.12305.02881-.2334.03857-.30029-.06055a.19642.19642,0,0,1,.07617-.27978.26519.26519,0,0,1,.25781-.02979c-.01367.03467-.02832.06885-.04248.10156a.1462.1462,0,0,0-.14648.01953.085.085,0,0,0-.03907.11573c.04053.05175.0962.03027.2085.00683.1416-.02929.22559-.0166.28857.0708.07129.09864.05079.21582-.09228.311a.30667.30667,0,0,1-.32813.02C86.9525,293.68164,86.96812,293.64844,86.98375,293.61377Z"/>
                    <path class="cls-17" d="M87.50084,293.27881a.2213.2213,0,0,0,.21631-.00928c.084-.0542.07226-.11377.05127-.14307-.03028-.05419-.1045-.0415-.19532-.02-.12548.02929-.22607.03515-.30078-.06348a.19654.19654,0,0,1,.07959-.27881.25656.25656,0,0,1,.25781-.02686c-.01464.03418-.02832.06739-.043.10108a.15216.15216,0,0,0-.147.01807.08074.08074,0,0,0-.04052.11523c.04.05469.08984.0332.20947.0083.14258-.02734.22558-.0166.28955.07373.07031.09912.042.21338-.09668.30957a.30778.30778,0,0,1-.3291.01807C87.4691,293.34668,87.48472,293.31348,87.50084,293.27881Z"/>
                    <path class="cls-17" d="M88.36607,292.13379a.39992.39992,0,0,1,.32373-.04541q-.0183.05419-.03515.1084a.29764.29764,0,0,0-.22364.03222.23307.23307,0,0,0-.07763.34522.26835.26835,0,0,0,.36474.07422.24863.24863,0,0,0,.124-.17871c.04052.00488.07861.01074.11767.01611a.37819.37819,0,0,1-.17724.25879.39546.39546,0,0,1-.54053-.10156A.35064.35064,0,0,1,88.36607,292.13379Z"/>
                    <path class="cls-17" d="M89.00767,291.75049a.40069.40069,0,0,1,.54688.11133.35076.35076,0,0,1-.13379.50586.40183.40183,0,0,1-.5415-.10987A.34888.34888,0,0,1,89.00767,291.75049Zm.34912.52051a.235.235,0,0,0,.0835-.34278.27612.27612,0,0,0-.36816-.08154.23559.23559,0,0,0-.08106.34473A.27189.27189,0,0,0,89.35679,292.271Z"/>
                    <path class="cls-17" d="M89.47447,291.49268c.03418-.02.06836-.03858.10205-.0586q.31055.10914.61768.22217c-.08985-.13916-.18164-.27783-.27344-.417.03711-.02149.0752-.043.11328-.064q.19776.29956.3916.60254c-.03174.01856-.063.03516-.09521.05274-.20752-.07764-.41651-.15284-.627-.22705.09424.14209.186.28173.27832.42382-.0371.021-.07421.04248-.11181.06348C89.73912,291.8916,89.60826,291.69238,89.47447,291.49268Z"/>
                    <path class="cls-17" d="M90.369,291.12256l-.17773.09814c-.021-.03222-.04248-.06543-.064-.09716q.23658-.13111.4751-.26124c.021.0337.0415.06592.0625.09766-.05908.03272-.11963.06494-.17773.09766q.16552.25341.32568.50634c-.03906.02149-.07813.043-.11768.06446C90.58726,291.45947,90.47887,291.28955,90.369,291.12256Z"/>
                    <path class="cls-17" d="M90.85679,290.72461c.03223-.01856.06641-.03613.10059-.0542.22266.15186.44336.30713.66162.46191-.042.021-.083.04444-.125.06641-.04346-.03125-.0874-.06152-.13086-.09326-.09863.05224-.19531.104-.29394.15674.0083.05029.01611.10009.02392.15039-.0415.02295-.08349.04443-.12549.06689Q90.91344,291.1023,90.85679,290.72461Zm.41309.31055c-.08887-.06348-.17871-.126-.26758-.189.0166.10254.03223.20508.04785.30664C91.12242,291.11328,91.19664,291.07422,91.26988,291.03516Z"/>
                    <path class="cls-17" d="M91.33482,290.47021c.04053-.0205.08155-.041.12061-.0625.12793.20362.25586.40674.38183.61084-.03955.021-.07959.04151-.11963.062C91.59117,290.87646,91.46422,290.67432,91.33482,290.47021Z"/>
                    <path class="cls-17" d="M91.62,290.32178c.03613-.01856.07031-.03711.106-.05518.20849.08057.41552.16162.62158.24512-.0874-.14209-.17432-.28369-.26367-.42676.03955-.02051.07861-.03906.11767-.05957.12744.2041.25342.41016.37744.61572-.03271.0166-.06592.03321-.09863.04932-.21045-.084-.42041-.167-.63135-.24951.08936.144.1792.28857.26758.43359-.03809.01856-.07715.04-.11523.05957C91.87486,290.729,91.74791,290.52588,91.62,290.32178Z"/>
                    <path class="cls-17" d="M92.368,289.94189c.14453-.07177.28906-.14306.435-.21484.02051.03418.04.06641.06153.10059-.10449.05273-.209.10254-.31348.15332.02979.04883.06006.09863.08984.147q.14576-.071.29249-.14307c.0205.03272.041.06592.061.1001-.09766.04785-.19531.09473-.29248.14356.03516.05664.06836.11328.103.16992.105-.05274.21142-.10352.31787-.15576.01953.03369.04.06689.05957.10107-.147.0708-.29346.14307-.439.21484Q92.55675,290.24951,92.368,289.94189Z"/>
                    <path class="cls-17" d="M92.95054,289.65576c.08985-.043.17872-.08594.26807-.12939a.268.268,0,0,1,.34229.09082.19045.19045,0,0,1-.021.23633q.15673.08641.314.17041c-.0459.02246-.09278.043-.13965.06543-.09082-.05079-.18457-.10157-.27735-.15186l-.00244.001c-.04.01855-.08008.03808-.11963.05761.04395.07373.08692.147.13037.22071-.041.021-.082.04052-.12255.05908C93.19957,290.06934,93.07554,289.86133,92.95054,289.65576Zm.43555.17774a.10325.10325,0,0,0,.05322-.15625.12193.12193,0,0,0-.16308-.04834c-.04736.022-.09424.04443-.14111.06738q.06.09962.11962.19971C93.29771,289.87451,93.34166,289.854,93.38609,289.8335Z"/>
                    <path class="cls-17" d="M94.014,289.15381c.08936-.041.17822-.082.26758-.12158a.28366.28366,0,0,1,.34766.10156.217.217,0,0,1-.11036.30664c-.04687.02051-.09375.042-.1416.064q.06372.10987.12647.21973c-.04151.019-.08252.0376-.12451.05615Q94.19982,289.4668,94.014,289.15381Zm.43945.1875a.104.104,0,0,0,.05079-.15186.12933.12933,0,0,0-.16895-.05273c-.0459.02051-.08984.041-.13623.06152.04053.06836.07959.13672.11865.2041C94.36314,289.38232,94.40709,289.36182,94.45347,289.34131Z"/>
                    <path class="cls-17" d="M94.62144,288.87939l.127-.05615c.10254.17578.20214.35254.30273.52881.09326-.041.186-.08105.27979-.12256.01953.03418.03808.06836.0581.103-.13476.05859-.27051.11719-.40625.17773C94.86265,289.29883,94.74351,289.08984,94.62144,288.87939Z"/>
                    <path class="cls-17" d="M95.40806,288.53711c.03663-.01514.07276-.03076.10889-.04639q.32813.25269.65234.51123c-.04492.01807-.08984.03662-.13525.05567l-.12842-.102c-.10547.04492-.21093.08886-.31591.13379.00439.05029.0083.10205.0122.15087-.04394.01954-.08887.03907-.1333.05811Q95.43932,288.91821,95.40806,288.53711Zm.40577.34131c-.08741-.06983-.1753-.13916-.26416-.209.00927.10254.019.207.02734.30957C95.65562,288.94482,95.73472,288.91162,95.81383,288.87842Z"/>
                    <path class="cls-17" d="M96.04576,288.396c-.06494.02734-.13037.05273-.19482.08105-.01954-.03418-.03907-.06836-.05762-.103q.25928-.10912.51953-.21484c.01953.03467.04.06787.05762.10352-.06592.02636-.13037.05371-.1958.08007.09912.17871.19775.35645.29394.53614-.04346.0166-.08642.03515-.1289.05175C96.24205,288.752,96.14439,288.57422,96.04576,288.396Z"/>
                    <path class="cls-17" d="M96.41588,288.11816c.146-.06054.29345-.11816.44043-.17675.01855.03418.03711.06933.05664.10449q-.15528.06079-.31006.123c.03076.05322.06006.10693.08838.16064.09375-.0376.18847-.07471.28174-.11182l.05615.1045q-.14136.05493-.28125.11181.074.13623.14648.27246c-.04345.01709-.08545.03565-.1289.05225Q96.59263,288.43725,96.41588,288.11816Z"/>
                    <path class="cls-17" d="M97.31969,287.74707a.44785.44785,0,0,1,.56738.18848.33891.33891,0,0,1-.21143.48144.45737.45737,0,0,1-.562-.18506A.34067.34067,0,0,1,97.31969,287.74707Zm.30078.56543a.22853.22853,0,0,0,.13525-.32813.30836.30836,0,0,0-.37988-.13281.23024.23024,0,0,0-.13379.33057A.3035.3035,0,0,0,97.62047,288.3125Z"/>
                    <path class="cls-17" d="M97.85191,287.55811c.09571-.03565.19238-.07081.28809-.10645a.28782.28782,0,0,1,.34814.11816.177.177,0,0,1-.03906.23389c.104.06543.2085.12988.313.19531-.05029.01905-.1001.03565-.1499.05371-.0918-.05908-.18457-.11572-.27637-.17382l-.00293.001c-.043.01514-.085.03076-.12842.04737.04.07812.0791.15429.11914.23144-.04346.01758-.0874.0332-.13183.04834Q98.024,287.8833,97.85191,287.55811Zm.43848.2124a.10493.10493,0,0,0,.06689-.15088.1284.1284,0,0,0-.16552-.062c-.04981.019-.10157.03759-.15186.05664.03711.06885.07324.13818.10986.20849C98.19664,287.80566,98.24351,287.78809,98.29039,287.77051Z"/>
                    <path class="cls-17" d="M98.54088,287.30518c.03808-.01319.07617-.02686.11474-.041.15284.09033.30518.18115.45557.272.02637-.15478.05469-.30713.08105-.46093.03809-.0127.07618-.02637.11426-.03956q.16626.32886.33057.65674c-.04248.01416-.08447.02881-.12695.04346-.07422-.14746-.14844-.29688-.22315-.44434-.02685.14454-.05225.29-.0791.43457-.14356-.08593-.28711-.16992-.43115-.25439q.11205.22046.22509.44189c-.0415.01465-.08349.0293-.12548.04444Q98.71007,287.63208,98.54088,287.30518Z"/>
                  </g>
                </g>
              </g>
            </g>
          </g>
          <g id="arm">
            <polyline class="cls-18" points="89.294 333.047 109.503 322.853 126.491 293.453"/>
            <line class="cls-19" x1="89.29376" y1="333.04724" x2="103.86094" y2="325.69919"/>
            <line class="cls-20" x1="98.22003" y1="328.54461" x2="103.86094" y2="325.69919"/>
          </g>
          <path class="cls-9" d="M84.83185,310.84947a2.35958,2.35958,0,1,1-3.52387-.73969A2.56367,2.56367,0,0,1,84.83185,310.84947Z"/>
        </g>
        <g>
          <ellipse class="cls-3" cx="152.69092" cy="435.55742" rx="28.4974" ry="4.74129"/>
          <g>
            <path id="kabel" class="cls-21" d="M195.21977,361.7684s3.8119,78.69309-36.84845,79.96372H.18075"/>
            <g>
              <polygon class="cls-22" points="223.015 346.142 205.561 362.471 201.164 357.525 218.617 341.197 223.015 346.142"/>
              <polygon class="cls-23" points="203.152 342.491 185.699 358.819 201.164 357.525 218.617 341.197 203.152 342.491"/>
              <polygon class="cls-24" points="190.096 363.765 185.699 358.819 201.164 357.525 205.561 362.471 190.096 363.765"/>
              <g>
                <path class="cls-11" d="M201.32815,346.6712a6.17188,6.17188,0,0,1,3.303-2.07939c.92641-.08413.96911.7181.06463,1.81679a6.1184,6.1184,0,0,1-3.41725,2.17036C200.3457,348.63887,200.38242,347.77343,201.32815,346.6712Z"/>
                <path class="cls-11" d="M205.671,346.71467a6.03307,6.03307,0,0,1,3.38433-2.15887c.99187-.0876,1.10729.74519.22558,1.887a5.97613,5.97613,0,0,1-3.50439,2.25709C204.77533,348.76135,204.74334,347.86032,205.671,346.71467Z"/>
                <path class="cls-11" d="M196.0783,351.39307a6.47048,6.47048,0,0,1,3.493-2.2135c.93053-.05643.89475.853-.11436,2.05936a6.42173,6.42173,0,0,1-3.62108,2.31588C194.90125,353.58234,195.026,352.60179,196.0783,351.39307Z"/>
              </g>
            </g>
          </g>
          <g>
            <line class="cls-25" x1="200.45553" y1="344.24477" x2="191.65592" y2="342.52035"/>
            <path class="cls-26" d="M160.76614,335.941l10.06735,10.32548a9.404,9.404,0,0,0,11.39892,1.6l7.27554-4.15745"/>
          </g>
          <g>
            <g>
              <line class="cls-27" x1="160.06152" y1="379.21456" x2="145.87116" y2="426.31688"/>
              <g>
                <line class="cls-28" x1="147.79642" y1="419.92633" x2="144.29701" y2="431.54198"/>
                <line class="cls-29" x1="149.44118" y1="413.16523" x2="145.94177" y2="426.08249"/>
              </g>
            </g>
            <g>
              <line class="cls-27" x1="160.06152" y1="379.21456" x2="160.06152" y2="428.408"/>
              <g>
                <line class="cls-28" x1="160.06152" y1="421.73374" x2="160.06152" y2="433.86507"/>
                <line class="cls-29" x1="160.06152" y1="414.64685" x2="160.06152" y2="428.16321"/>
              </g>
            </g>
            <g class="cls-7">
              <polygon points="155.072 413.072 150.648 427.757 148.947 433.379 154.716 383.669 155.072 378.478 155.072 379.215 155.072 413.072"/>
            </g>
            <polygon class="cls-30" points="156.484 325.842 163.639 325.842 163.639 318.687 156.484 318.687 156.484 325.842"/>
            <path class="cls-31" d="M176.6802,383.811H143.44284V341.81611a16.61866,16.61866,0,0,1,16.61866-16.61866h0a16.61866,16.61866,0,0,1,16.61866,16.61866Z"/>
            <g>
              <path class="cls-10" d="M160.06152,321.8563a14.10645,14.10645,0,0,0,3.56447-2.32459l.02591,2.09855a9.50866,9.50866,0,0,1-2.98506,1.78809,14.114,14.114,0,0,1-4.19148.725l.01679-1.59561A10.36128,10.36128,0,0,0,160.06152,321.8563Z"/>
              <path class="cls-32" d="M166.00229,308.3982a10.40223,10.40223,0,1,1-19.39886,7.51732L141.98212,303.99l19.39886-7.51732Z"/>
              <path class="cls-32" d="M166.00229,308.3982a10.40223,10.40223,0,1,1-19.39886,7.51732L141.98212,303.99l19.39886-7.51732Z"/>
              <path class="cls-1" d="M165.93991,315.89775a6.94852,6.94852,0,0,1-5.32693-.12337"/>
              <circle cx="159.89474" cy="303.12951" r="1.02317"/>
              <path class="cls-33" d="M162.16078,289.11228l-15.55509,6.02781-1.27722.49494-5.624,2.17936a3.40325,3.40325,0,0,0-2.064,4.34451l4.38551,11.317a3.40385,3.40385,0,0,0,4.45264,1.81922l.01026-.004a10.52254,10.52254,0,0,0,6.82515-9.18833,7.44872,7.44872,0,0,1,1.64224-4.39763,9.3153,9.3153,0,0,1,2.9314-2.12159,8.45576,8.45576,0,0,0,4.27532-10.46558Z"/>
              <path class="cls-32" d="M155.27346,307.3848A2.63638,2.63638,0,1,1,151.4,306.298,2.86443,2.86443,0,0,1,155.27346,307.3848Z"/>
            </g>
            <g>
              <g class="cls-7">
                <path d="M158.27923,330.94316a3.56317,3.56317,0,0,1,3.56344,3.56344V353.571a4.99487,4.99487,0,0,0,4.98882,4.98881h9.84887v7.12688h-9.84887a12.13013,12.13013,0,0,1-12.1157-12.11569V334.5066A3.56316,3.56316,0,0,1,158.27923,330.94316Z"/>
              </g>
              <path class="cls-34" d="M160.06152,331.64262V350.707a8.55226,8.55226,0,0,0,8.55226,8.55226H195.094"/>
              <g>
                <line class="cls-35" x1="185.65118" y1="359.25929" x2="193.60037" y2="359.25929"/>
                <line class="cls-36" x1="191.35304" y1="359.25929" x2="196.4513" y2="359.25929"/>
              </g>
            </g>
          </g>
        </g>
      </g>
    </symbol>
  </defs>
  <title>karte angebot OnPremises people</title>
  <g id="Ebene_2" data-name="Ebene 2">
    <g id="Karte_V1" data-name="Karte V1">
      <use width="275" height="564" xlink:href="#karte_angebot_OnPremises_people"/>
    </g>
  </g>
</svg>
