<svg xmlns="http://www.w3.org/2000/svg" xmlns:xlink="http://www.w3.org/1999/xlink" width="200" height="200" viewBox="0 0 200 200">
  <defs>
    <clipPath id="a">
      <path d="M60.061,20.6c-2.763-4.782-9.543-6.055-14.429-3.231-.268.154-.524.324-.776.5,4.731-1.967.678,4.022,3.212,8.407l1.441,2.5L61.5,23.091Z" fill="none"/>
    </clipPath>
    <symbol id="b" data-name="shatten" viewBox="0 0 75.929 11.334">
      <ellipse cx="37.965" cy="5.667" rx="37.965" ry="5.667" opacity="0.3"/>
    </symbol>
    <symbol id="c" data-name="schuhe_black_seite" viewBox="0 0 16 12.81">
      <g>
        <g>
          <rect x="7" width="9" height="12" fill="#c7d1db"/>
          <rect y="11.981" width="16" height="0.828" fill="#c7d1db"/>
        </g>
        <g>
          <rect x="7" width="9" height="12"/>
          <rect y="11.981" width="16" height="0.828" fill="#c7d1db"/>
        </g>
      </g>
      <rect x="6.014" y="6" width="9.986" height="6"/>
      <path d="M6.014,6a6,6,0,0,0-6,6h12A6,6,0,0,0,6.014,6Z"/>
    </symbol>
    <symbol id="d" data-name="M_Bein_jeans 2" viewBox="0 0 11 50.194">
      <line x1="5.5" x2="5.5" y2="24.34" fill="none" stroke="#25485c" stroke-miterlimit="10" stroke-width="9"/>
      <line x1="5.5" y1="24.34" x2="5.5" y2="45.694" fill="none" stroke="#25485c" stroke-linecap="round" stroke-miterlimit="10" stroke-width="9"/>
      <line x1="5.5" y1="45.024" x2="5.5" y2="50.194" fill="none" stroke="#466977" stroke-miterlimit="10" stroke-width="11"/>
    </symbol>
    <symbol id="f" data-name="M_Bein_jeans" viewBox="0 0 11 50.194">
      <line x1="5.5" x2="5.5" y2="24.34" fill="none" stroke="#2d5972" stroke-miterlimit="10" stroke-width="9"/>
      <line x1="5.5" y1="24.34" x2="5.5" y2="45.694" fill="none" stroke="#2d5972" stroke-linecap="round" stroke-miterlimit="10" stroke-width="9"/>
      <line x1="5.5" y1="45.024" x2="5.5" y2="50.194" fill="none" stroke="#537e8e" stroke-miterlimit="10" stroke-width="11"/>
    </symbol>
    <symbol id="g" data-name="m_huefte_front" viewBox="0 0 26.986 15.649">
      <path d="M0,0H26.986a0,0,0,0,1,0,0V2.156A13.493,13.493,0,0,1,13.493,15.649h0A13.493,13.493,0,0,1,0,2.156V0A0,0,0,0,1,0,0Z" fill="#2c5972"/>
      <g>
        <rect width="4.597" height="2.156" fill="#1e1e1c"/>
        <rect x="5.597" width="4.597" height="2.156" fill="#1e1e1c"/>
        <rect x="11.194" width="4.597" height="2.156" fill="#1e1e1c"/>
        <rect x="16.792" width="4.597" height="2.156" fill="#1e1e1c"/>
        <rect x="22.389" width="4.597" height="2.156" fill="#1e1e1c"/>
      </g>
    </symbol>
    <symbol id="i" data-name="L_hemd_blau_front 5" viewBox="0 0 45 45.991">
      <path d="M30.211.155c-.2-.034-4.148-.049-4.148-.049V.135L15.239.083A17.854,17.854,0,0,0,0,17.735v4.632H45V17.735A17.855,17.855,0,0,0,30.211.155Z" fill="#585e61"/>
      <g>
        <g>
          <path d="M22.388.056A13.377,13.377,0,0,0,9.011,13.433V45.991h13.5V.056Z" fill="#474e51"/>
          <path d="M36.011,13.433A13.377,13.377,0,0,0,22.635.056h-.124V45.991h13.5Z" fill="#474e51"/>
        </g>
        <polygon points="22.583 8.98 22.583 9.04 22.648 9.078 22.583 8.98" fill="#075d79"/>
      </g>
      <g>
        <polygon points="26.064 0.135 26.063 0.106 26.058 0.135 26.064 0.135" fill="none"/>
        <path d="M23.23.49l.188-.451L15.322,0c-.355.053-.7.131-1.051.2l.1.236,1.944,4.675,2.5,3.782.066.1,2.429-3.881Z" fill="#dc9161"/>
        <polygon points="18.879 8.996 22.573 6.757 21.308 5.115 18.879 8.996" fill="#4a4f52"/>
        <polygon points="23.23 0.49 21.308 5.115 22.573 6.757 24.519 9.282 25.846 1.732 26.141 0.052 23.418 0.039 23.23 0.49" fill="#585e61"/>
        <polygon points="15.057 6.744 18.813 8.957 18.813 8.897 16.313 5.115 15.057 6.744" fill="#4a4f52"/>
        <path d="M13.1,9.282l1.956-2.538,1.256-1.629L14.369.44,14.271.2a17.717,17.717,0,0,0-2.63.768l.118.673Z" fill="#6a6e70"/>
      </g>
      <polygon points="22.795 45.862 18.796 45.862 18.731 9.04 22.573 6.757 22.795 45.862" fill="#4a4f52"/>
    </symbol>
    <symbol id="k" data-name="M_Bein_dunkel_jeans" viewBox="0 0 9 50.194">
      <line x1="4.5" x2="4.5" y2="24.34" fill="none" stroke="#888" stroke-miterlimit="10" stroke-width="9"/>
      <line x1="4.5" y1="24.34" x2="4.5" y2="45.694" fill="none" stroke="#888" stroke-linecap="round" stroke-miterlimit="10" stroke-width="9"/>
      <line x1="4.5" y1="45.024" x2="4.5" y2="50.194" fill="none" stroke="#888" stroke-miterlimit="10" stroke-width="9"/>
    </symbol>
    <symbol id="n" data-name="m_huefte_front 2" viewBox="0 0 26.986 15.649">
      <path d="M0,0H26.986a0,0,0,0,1,0,0V2.156A13.493,13.493,0,0,1,13.493,15.649h0A13.493,13.493,0,0,1,0,2.156V0A0,0,0,0,1,0,0Z" fill="#888"/>
      <g>
        <rect width="4.597" height="2.156" fill="#1e1e1c"/>
        <rect x="5.597" width="4.597" height="2.156" fill="#1e1e1c"/>
        <rect x="11.194" width="4.597" height="2.156" fill="#1e1e1c"/>
        <rect x="16.792" width="4.597" height="2.156" fill="#1e1e1c"/>
        <rect x="22.389" width="4.597" height="2.156" fill="#1e1e1c"/>
      </g>
    </symbol>
  </defs>
  <g>
    <circle cx="100" cy="100" r="100" fill="#fff"/>
    <g>
      <use width="75.929" height="11.334" transform="translate(28.088 143.964) scale(0.907 0.943)" xlink:href="#b"/>
      <g>
        <g>
          <path d="M58.77,50.7a10.283,10.283,0,0,0,3.244-.759v5.94H54.663V50.155a10.612,10.612,0,0,0,3.4.565C58.3,50.72,58.532,50.713,58.77,50.7Z" fill="#dc9161"/>
          <path d="M58.651,48.863a8.43,8.43,0,0,0,3.363-.944v2.019a10.283,10.283,0,0,1-3.244.759c-.238.016-.472.023-.706.023a10.612,10.612,0,0,1-3.4-.565V48.192A8.816,8.816,0,0,0,58.651,48.863Z" fill="#c98559"/>
        </g>
        <path d="M47.542,52.662H72.351a0,0,0,0,1,0,0V81.575a12.4,12.4,0,0,1-12.4,12.4h0a12.4,12.4,0,0,1-12.4-12.4V52.662A0,0,0,0,1,47.542,52.662Z" transform="translate(119.894 146.641) rotate(-180)" fill="#1ab0be"/>
        <g>
          <g>
            <use width="16" height="12.81" transform="matrix(-0.919, 0, 0, 0.919, 74.089, 139.954)" xlink:href="#c"/>
            <use width="11" height="50.194" transform="matrix(-0.919, 0, 0, 0.919, 68.73, 97.843)" xlink:href="#d"/>
          </g>
          <g>
            <use width="16" height="12.81" transform="matrix(-0.919, 0, 0, 0.919, 67.701, 139.954)" xlink:href="#c"/>
            <use width="11" height="50.194" transform="matrix(-0.919, 0, 0, 0.919, 62.393, 97.843)" xlink:href="#f"/>
          </g>
          <use width="26.986" height="15.649" transform="matrix(-0.919, 0, 0, 0.919, 72.405, 94.011)" xlink:href="#g"/>
        </g>
      </g>
      <g>
        <g>
          <path d="M65.977,36.583a8.641,8.641,0,1,1-15.663,7.3l-4.49-9.629,15.663-7.3Z" fill="#ef9e69"/>
          <circle cx="61.37" cy="30.562" r="0.85"/>
          <path d="M60.641,22.172l-1.582-1.686-8.745,5.257-1.032.481-4.54,2.117a2.827,2.827,0,0,0-1.471,3.715c1.107,2.373,2.814,6.034,4.261,9.138a2.827,2.827,0,0,0,3.791,1.261l.009,0a8.74,8.74,0,0,0,5.148-7.993c0-.039,0-.079,0-.118a2.853,2.853,0,0,1,2.224,2.133l.907-1.931s-2.057-1.409-2.495-3a6.424,6.424,0,0,1,.48-.82,7.73,7.73,0,0,1,2.313-1.92C63.072,26.894,62.118,25.339,60.641,22.172Z"/>
        </g>
        <path d="M57.028,36.337a2.19,2.19,0,1,1-3.41,2.652,2.19,2.19,0,1,1,3.41-2.652Z" fill="#ef9e69"/>
      </g>
      <g>
        <g>
          <path d="M60.081,20.678c-2.706-4.815-9.47-6.168-14.39-3.4S38.4,26.493,41.1,31.308l1.165,2.073L61.493,23.19Z" fill="#2c5871"/>
          <path d="M60.081,20.678c-2.706-4.815-9.47-6.168-14.39-3.4-.269.151-.528.318-.781.491,4.754-1.911,10.642-.417,13.123,4l1.412,2.512,2.048-1.086Z" fill="#0c3148"/>
          <polygon points="61.493 23.19 62.093 24.258 61.52 23.176 61.493 23.19" fill="#bf292e"/>
          <polygon points="42.263 33.383 42.837 34.465 42.867 34.449 42.267 33.381 42.263 33.383" fill="#bf292e"/>
          <polygon points="41.959 32.799 41.123 35.374 62.093 24.258 61.185 22.608 41.959 32.799" fill="#0c3148"/>
        </g>
        <path d="M59.654,20.459l2.439,3.8,5.129-2.719S63.469,18.583,59.654,20.459Z" fill="#0c3148"/>
        <g clip-path="url(#a)">
          <g>
            <path d="M65.852,10.8A49.551,49.551,0,0,0,53.159,17.55a.548.548,0,0,0-.095.83q1.327,1.506,2.509,3.079a.606.606,0,0,0,.833.145,44.379,44.379,0,0,1,8.939-4.915q.255.483.5.967c.1-.428.2-.857.3-1.285q1.1-.429,2.25-.809a.58.58,0,0,0,.392-.786Q67.9,12.924,66.867,11.1A.881.881,0,0,0,65.852,10.8Z" fill="gold"/>
            <g>
              <path d="M54.824,17.411q.345,1.276.672,2.559c.13-.092.259-.184.391-.275q-.064-.256-.13-.511c.311-.216.626-.427.944-.636l.47.284c.136-.088.272-.174.409-.261q-1.177-.725-2.425-1.387C55.044,17.26,54.933,17.335,54.824,17.411Zm.826,1.4c-.09-.346-.181-.694-.274-1.04.331.183.66.369.984.56C56.12,18.493,55.884,18.653,55.65,18.814Z" fill="#0b2f46"/>
              <path d="M57.169,15.892c-.292.177-.58.355-.865.538q.777.988,1.5,2c.13-.081.261-.163.393-.243q-.249-.355-.508-.71l.453-.274a.756.756,0,0,0,.267-1.1A.948.948,0,0,0,57.169,15.892Zm.714,1c-.146.087-.292.175-.435.265-.161-.22-.325-.437-.491-.654.145-.09.292-.18.439-.269a.447.447,0,0,1,.6.118A.358.358,0,0,1,57.883,16.887Z" fill="#0b2f46"/>
              <path d="M59.554,16.392c.157-.087.314-.172.472-.257a.748.748,0,0,0,.316-1.086.979.979,0,0,0-1.254-.263q-.455.249-.9.505.752,1.018,1.447,2.057l.411-.228Q59.8,16.755,59.554,16.392Zm-.706-1.007c.151-.085.3-.169.459-.253a.461.461,0,0,1,.608.14.353.353,0,0,1-.138.536c-.153.081-.3.165-.455.248C59.166,15.831,59.008,15.608,58.848,15.385Z" fill="#0b2f46"/>
              <path d="M62.141,13.256l-.452.211c.282.424.556.853.825,1.282a.5.5,0,0,1-.211.808.643.643,0,0,1-.895-.28q-.411-.636-.841-1.264-.22.11-.44.222.45.645.875,1.3a1.122,1.122,0,0,0,1.514.373.865.865,0,0,0,.467-1.32C62.709,14.14,62.43,13.7,62.141,13.256Z" fill="#0b2f46"/>
              <path d="M63.363,13.48l-.437.191q.49.783.951,1.574l.429-.183Q63.849,14.267,63.363,13.48Z" fill="#0b2f46"/>
              <path d="M62.749,12.951a.229.229,0,0,0-.122.337.328.328,0,0,0,.4.1.23.23,0,0,0,.121-.335A.331.331,0,0,0,62.749,12.951Z" fill="#0b2f46"/>
              <path d="M65.974,14.447a1.171,1.171,0,0,0,.749-1.671,1.683,1.683,0,0,0-2.072-.637,1.154,1.154,0,0,0-.681,1.7A1.657,1.657,0,0,0,65.974,14.447ZM64.867,12.5a1.129,1.129,0,0,1,1.384.447.783.783,0,0,1-.475,1.139,1.109,1.109,0,0,1-1.355-.431A.777.777,0,0,1,64.867,12.5Z" fill="#0b2f46"/>
            </g>
            <g>
              <path d="M56.035,20.614a.168.168,0,0,0,.175-.016c.067-.045.052-.1.036-.119-.029-.038-.084-.028-.159-.01-.1.025-.18.039-.246-.044a.161.161,0,0,1,.056-.233.219.219,0,0,1,.208-.03l-.032.085a.127.127,0,0,0-.119.019c-.036.028-.05.067-.028.1.032.046.077.023.17,0,.109-.027.182-.023.236.052s.046.178-.067.258A.246.246,0,0,1,56,20.7C56.011,20.67,56.022,20.642,56.035,20.614Z" fill="#0b2f46"/>
              <path d="M56.113,20.054l.086-.061c.112.082.223.166.334.248-.043-.129-.088-.258-.132-.387l.067-.046.336.249c-.043-.129-.086-.258-.131-.388.028-.02.058-.038.086-.058.067.192.132.384.2.576-.024.015-.047.031-.07.047l-.337-.247c.043.129.086.26.128.389l-.069.048C56.445,20.3,56.28,20.175,56.113,20.054Z" fill="#0b2f46"/>
              <path d="M56.833,19.562l.09-.06c.115.158.23.318.344.478l-.09.059Z" fill="#0b2f46"/>
              <path d="M57.314,19.741a.163.163,0,0,0,.177-.01c.071-.043.059-.1.042-.118-.031-.044-.084-.033-.161-.015-.1.021-.187.036-.249-.05a.162.162,0,0,1,.064-.232.218.218,0,0,1,.212-.024l-.034.084a.126.126,0,0,0-.121.016c-.04.029-.054.066-.033.1s.081.027.173,0c.119-.022.187-.012.238.06s.037.179-.077.256a.256.256,0,0,1-.27.017C57.288,19.8,57.3,19.769,57.314,19.741Z" fill="#0b2f46"/>
              <path d="M57.741,19.464a.163.163,0,0,0,.179-.009c.068-.041.061-.094.043-.117-.031-.042-.086-.033-.162-.017-.1.025-.191.035-.249-.052a.16.16,0,0,1,.066-.231.233.233,0,0,1,.214-.023c-.013.028-.024.056-.036.084a.133.133,0,0,0-.121.016c-.041.025-.059.063-.034.1s.077.025.173.008c.115-.022.19-.013.239.06a.173.173,0,0,1-.079.256.249.249,0,0,1-.272.015Z" fill="#0b2f46"/>
              <path d="M58.456,18.517a.335.335,0,0,1,.268-.038c-.009.03-.019.06-.028.09a.223.223,0,0,0-.185.026.2.2,0,0,0-.064.286.221.221,0,0,0,.3.061.2.2,0,0,0,.1-.147l.1.013a.307.307,0,0,1-.147.214.333.333,0,0,1-.447-.085A.292.292,0,0,1,58.456,18.517Z" fill="#0b2f46"/>
              <path d="M58.987,18.2a.338.338,0,0,1,.453.092.286.286,0,0,1-.112.418.329.329,0,0,1-.447-.091A.29.29,0,0,1,58.987,18.2Zm.289.43a.2.2,0,0,0,.069-.283.228.228,0,0,0-.3-.067.191.191,0,0,0-.067.285A.224.224,0,0,0,59.276,18.63Z" fill="#0b2f46"/>
              <path d="M59.373,17.987l.085-.049c.171.061.341.121.511.184-.076-.115-.151-.23-.226-.345l.093-.053c.11.166.217.332.324.5l-.078.044c-.172-.063-.345-.127-.519-.187.078.117.154.234.23.35l-.092.052C59.592,18.317,59.483,18.151,59.373,17.987Z" fill="#0b2f46"/>
              <path d="M60.113,17.68l-.147.082c-.018-.027-.034-.053-.053-.081l.394-.216c.016.028.035.054.051.081l-.147.081c.091.14.18.279.268.419l-.1.053Q60.25,17.889,60.113,17.68Z" fill="#0b2f46"/>
              <path d="M60.516,17.351c.029-.014.055-.029.084-.044.185.125.367.253.548.382l-.1.054-.109-.076-.242.129c.007.043.012.083.019.124l-.1.056C60.578,17.768,60.549,17.56,60.516,17.351Zm.343.257-.222-.156.039.253Z" fill="#0b2f46"/>
              <path d="M60.912,17.141l.1-.051c.108.169.213.336.316.5l-.1.051C61.124,17.478,61.019,17.308,60.912,17.141Z" fill="#0b2f46"/>
              <path d="M61.147,17.019l.089-.046.513.2c-.073-.118-.144-.235-.218-.353l.1-.049c.1.17.209.339.312.51-.027.014-.055.026-.082.041q-.26-.105-.522-.207l.222.358-.1.05Q61.307,17.27,61.147,17.019Z" fill="#0b2f46"/>
              <path d="M61.766,16.7c.12-.06.24-.118.36-.177.017.028.035.055.05.083l-.258.127c.025.04.05.081.074.122.081-.041.161-.079.242-.119.016.028.034.055.051.083l-.242.118c.028.047.056.1.085.141l.263-.129c.017.027.033.056.05.083l-.364.178Z" fill="#0b2f46"/>
              <path d="M62.248,16.467l.222-.106a.223.223,0,0,1,.283.075.159.159,0,0,1-.017.2c.086.047.174.093.259.141l-.116.054c-.076-.042-.152-.084-.229-.125h0l-.1.048c.037.061.073.122.109.183l-.1.048C62.454,16.809,62.352,16.638,62.248,16.467Zm.361.147a.088.088,0,0,0,.044-.128.106.106,0,0,0-.135-.041L62.4,16.5l.1.165Z" fill="#0b2f46"/>
              <path d="M63.128,16.053l.221-.1a.233.233,0,0,1,.288.084.18.18,0,0,1-.092.253l-.117.054.105.181-.1.047C63.33,16.4,63.23,16.225,63.128,16.053Zm.364.154a.083.083,0,0,0,.041-.125.109.109,0,0,0-.14-.043l-.112.05c.032.057.066.113.1.17Z" fill="#0b2f46"/>
              <path d="M63.63,15.826l.1-.047c.084.145.168.292.25.438.077-.034.154-.069.232-.1l.048.085-.336.147C63.83,16.172,63.731,16,63.63,15.826Z" fill="#0b2f46"/>
              <path d="M64.28,15.542l.09-.038c.181.141.361.281.54.423l-.111.046-.107-.084-.261.11c0,.042.006.084.01.125-.036.015-.073.033-.111.048C64.313,15.962,64.3,15.752,64.28,15.542Zm.336.282-.218-.172c.008.085.014.169.022.256Z" fill="#0b2f46"/>
              <path d="M64.808,15.426l-.161.067c-.016-.028-.033-.057-.048-.085.142-.06.286-.12.43-.178l.048.086-.163.066c.082.148.164.294.244.443l-.106.043C64.971,15.72,64.889,15.573,64.808,15.426Z" fill="#0b2f46"/>
              <path d="M65.114,15.2c.12-.05.242-.1.364-.146.016.029.032.057.047.086-.085.034-.172.067-.256.1.023.045.049.089.073.133l.233-.092.046.086-.232.092.121.226-.107.042C65.308,15.549,65.212,15.372,65.114,15.2Z" fill="#0b2f46"/>
              <path d="M65.862,14.889a.377.377,0,0,1,.468.156.281.281,0,0,1-.174.4.379.379,0,0,1-.465-.154A.281.281,0,0,1,65.862,14.889Zm.248.468a.192.192,0,0,0,.113-.272.254.254,0,0,0-.315-.11.188.188,0,0,0-.11.274A.252.252,0,0,0,66.11,15.357Z" fill="#0b2f46"/>
              <path d="M66.3,14.733l.238-.089a.233.233,0,0,1,.288.1.151.151,0,0,1-.033.193l.26.161-.124.045c-.077-.047-.152-.1-.229-.144h0l-.107.04c.032.064.066.127.1.191l-.11.04C66.49,15.091,66.4,14.912,66.3,14.733Zm.363.176a.088.088,0,0,0,.055-.125.112.112,0,0,0-.138-.051l-.125.046c.031.057.059.114.09.172Z" fill="#0b2f46"/>
              <path d="M66.871,14.524l.095-.034c.127.074.252.149.377.225.023-.127.045-.254.067-.381L67.5,14.3c.093.181.183.361.274.543l-.105.036c-.062-.122-.123-.246-.185-.368l-.066.359-.356-.21q.095.183.186.366l-.1.036C67.057,14.883,66.965,14.7,66.871,14.524Z" fill="#0b2f46"/>
            </g>
          </g>
        </g>
      </g>
      <g>
        <polyline points="56.61 64.883 75.179 55.516 90.789 28.502" fill="none" stroke="#ef9e69" stroke-linecap="round" stroke-linejoin="round" stroke-width="7"/>
        <line x1="56.61" y1="64.883" x2="69.995" y2="58.131" fill="none" stroke="#2d5972" stroke-linecap="round" stroke-linejoin="round" stroke-width="10.153"/>
        <line x1="64.812" y1="60.746" x2="69.995" y2="58.131" fill="none" stroke="#2d5972" stroke-linecap="square" stroke-linejoin="round" stroke-width="10.153"/>
      </g>
      <use width="75.929" height="11.334" transform="translate(101.873 157.961) scale(0.907 0.943)" xlink:href="#b"/>
      <g>
        <g>
          <g>
            <g>
              <path d="M137.378,48.49a11.993,11.993,0,0,0,3.784-.884v6.927h-8.574V47.858a12.369,12.369,0,0,0,3.966.659C136.827,48.517,137.1,48.509,137.378,48.49Z" fill="#dc9161"/>
              <path d="M137.239,46.351a9.84,9.84,0,0,0,3.923-1.1v2.356a11.993,11.993,0,0,1-3.784.884c-.277.019-.551.027-.824.027a12.369,12.369,0,0,1-3.966-.659V45.569A10.28,10.28,0,0,0,137.239,46.351Z" fill="#c98559"/>
            </g>
            <g>
              <g>
                <line x1="148.366" y1="71.272" x2="152.877" y2="82.628" fill="none" stroke="#585e61" stroke-miterlimit="10" stroke-width="11.25"/>
                <line x1="152.877" y1="82.628" x2="169.539" y2="88.224" fill="none" stroke="#ef9e69" stroke-linecap="round" stroke-miterlimit="10" stroke-width="7.5"/>
                <line x1="170.461" y1="88.804" x2="178.657" y2="82.05" fill="none" stroke="#ef9e69" stroke-linecap="round" stroke-miterlimit="10" stroke-width="7.5"/>
              </g>
              <use width="45" height="45.991" transform="matrix(-1.072, 0, 0, 1.072, 157.218, 50.326)" xlink:href="#i"/>
            </g>
            <g>
              <g>
                <use width="16" height="12.81" transform="matrix(-1.018, 0, 0, 1.018, 154.35, 152.907)" xlink:href="#c"/>
                <use width="9" height="50.194" transform="matrix(-1.072, 0, 0, 1.072, 147.435, 103.479)" xlink:href="#k"/>
              </g>
              <g>
                <use width="16" height="12.81" transform="matrix(-1.018, 0, 0, 1.018, 135.745, 152.909)" xlink:href="#c"/>
                <use width="9" height="50.194" transform="matrix(-1.072, 0, 0, 1.072, 128.833, 103.479)" xlink:href="#k"/>
              </g>
              <use width="26.986" height="15.649" transform="matrix(-1.072, 0, 0, 1.072, 147.675, 99.01)" xlink:href="#n"/>
            </g>
          </g>
          <g>
            <path d="M149.963,92.387s16.424,82.807-34.454,82.807H61.271" fill="none" stroke="#ffd300" stroke-miterlimit="10" stroke-width="1.25"/>
            <g>
              <polygon points="183.737 73.4 162.529 93.241 157.185 87.231 178.393 67.391 183.737 73.4" fill="#e0b50a"/>
              <polygon points="159.602 68.964 138.394 88.804 157.185 87.231 178.393 67.391 159.602 68.964" fill="#ffd300"/>
              <polygon points="143.737 94.814 138.394 88.804 157.185 87.231 162.529 93.241 143.737 94.814" fill="#be9b07"/>
              <g>
                <path d="M157.385,74.043a7.5,7.5,0,0,1,4.014-2.527c1.125-.1,1.177.873.078,2.208a7.435,7.435,0,0,1-4.152,2.637C156.191,76.434,156.236,75.382,157.385,74.043Z" fill="#1ab0be"/>
                <path d="M162.662,74.1a7.333,7.333,0,0,1,4.112-2.623c1.206-.106,1.346.906.275,2.293a7.265,7.265,0,0,1-4.259,2.743C161.574,76.582,161.535,75.488,162.662,74.1Z" fill="#1ab0be"/>
                <path d="M151.006,79.78c1.247-1.432,3.129-2.622,4.244-2.689,1.131-.069,1.088,1.036-.138,2.5-1.259,1.5-3.249,2.78-4.4,2.814C149.576,82.44,149.727,81.249,151.006,79.78Z" fill="#1ab0be"/>
              </g>
            </g>
          </g>
        </g>
        <line x1="113.81" y1="73.988" x2="113.81" y2="86.314" fill="none" stroke="#585e61" stroke-miterlimit="10" stroke-width="9.7"/>
        <line x1="136.864" y1="78.641" x2="147.389" y2="80.063" fill="none" stroke="#ef9e69" stroke-linecap="round" stroke-miterlimit="10" stroke-width="7.5"/>
        <line x1="113.748" y1="85.694" x2="136.864" y2="78.641" fill="none" stroke="#585e61" stroke-linecap="round" stroke-miterlimit="10" stroke-width="9.7"/>
      </g>
      <g>
        <g>
          <ellipse cx="126.428" cy="39.709" rx="2.163" ry="3.094" transform="translate(-5.208 54.967) rotate(-24.048)" fill="#dc9161"/>
          <ellipse cx="144.406" cy="30.81" rx="2.163" ry="3.094" transform="translate(-0.021 61.521) rotate(-24.048)" fill="#dc9161"/>
          <path d="M122.535,30.878a10.5,10.5,0,0,1,4.786-12.771,10.3,10.3,0,0,1,13.97,4.411l.033,0,4.581,10.267.144.322.223.5-.02.026a10.291,10.291,0,0,1-3.1,11.648c-.08.067-.163.132-.246.2-.148.113-.3.224-.452.329s-.29.191-.439.282c-.127.078-.255.155-.386.228-.059.032-.112.07-.171.1-.1.053-.2.092-.307.142s-.2.11-.31.157c-.061.028-.124.046-.185.072-.161.068-.323.129-.486.188s-.337.122-.507.174-.321.092-.482.133-.35.088-.526.123c-.156.031-.312.056-.468.08-.183.027-.366.053-.549.071-.147.014-.294.023-.442.03-.194.011-.387.018-.58.018-.134,0-.266-.006-.4-.012-.208-.009-.414-.022-.619-.043-.116-.012-.231-.028-.346-.044-.222-.03-.443-.066-.662-.111-.094-.019-.188-.041-.281-.063-.238-.056-.474-.118-.707-.191-.072-.022-.142-.046-.212-.069-.253-.085-.5-.177-.747-.28l-.145-.064c-.264-.116-.522-.242-.775-.38l-.084-.046c-.27-.151-.534-.312-.79-.487l-.03-.02a10.236,10.236,0,0,1-3.332-3.789h-.032l-.222-.5-4.242-9.518Z" fill="#ef9e69"/>
          <circle cx="132.696" cy="31.824" r="1.013" fill="#010100"/>
          <circle cx="141.347" cy="27.964" r="1.013" fill="#010100"/>
        </g>
        <path d="M143.928,28.353l-.189.084-2.675-6a3.268,3.268,0,0,0-4.339-1.643l-12.532,5.7a3.268,3.268,0,0,0-1.631,4.307l2.634,5.9-.149.066L122.2,33.194a25.32,25.32,0,0,1-3.285-5.417h0a5.736,5.736,0,0,1,2.984-7.543l10.665-4.759a3.842,3.842,0,0,1,5.095,1.887h0a2.512,2.512,0,0,1,3.429,1.569Z" fill="#736358"/>
        <path d="M137.805,40.371c2.224,0,4.026-1.166,4.026-2.6h-8.052C133.779,39.205,135.582,40.371,137.805,40.371Z" fill="#ca875a"/>
      </g>
    </g>
  </g>
</svg>
