
<svg xmlns="http://www.w3.org/2000/svg" class="header_image" id="angebot_unmanaged_image" xmlns:xlink="http://www.w3.org/1999/xlink" viewBox="0 0 1280 564">
    <defs>
      <clipPath id="a">
        <rect x="606.534" width="673.466" height="316.484" fill="none"/>
      </clipPath>
      <clipPath id="b">
        <rect x="345.423" width="506.311" height="296.256" fill="none"/>
      </clipPath>
      <clipPath id="c">
        <path d="M169.272,276.177c-2.764-4.782-9.543-6.055-14.43-3.231-.267.154-.524.324-.775.5,4.731-1.968.678,4.022,3.211,8.407l1.442,2.5,11.993-5.676Z" fill="none"/>
      </clipPath>
      <symbol id="e" data-name="schuhe_black_seite" viewBox="0 0 16 12.81">
        <g>
          <g>
            <rect x="7" width="9" height="12" fill="#c7d1db"/>
            <rect y="11.981" width="16" height="0.828" fill="#c7d1db"/>
          </g>
          <g>
            <rect x="7" width="9" height="12"/>
            <rect y="11.981" width="16" height="0.828" fill="#c7d1db"/>
          </g>
        </g>
        <rect x="6.014" y="6" width="9.986" height="6"/>
        <path d="M6.014,6a6,6,0,0,0-6,6h12A6,6,0,0,0,6.014,6Z"/>
      </symbol>
      <symbol id="f" data-name="M_Bein_jeans 6" viewBox="0 0 11 50.194">
        <line x1="5.5" x2="5.5" y2="24.34" fill="none" stroke="#010202" stroke-miterlimit="10" stroke-width="9"/>
        <line x1="5.5" y1="24.34" x2="5.5" y2="47.803" fill="none" stroke="#010202" stroke-miterlimit="10" stroke-width="9"/>
        <line x1="5.5" y1="46.317" x2="5.5" y2="50.194" fill="none" stroke="#838383" stroke-miterlimit="10" stroke-width="11"/>
      </symbol>
      <symbol id="h" data-name="M_Bein_jeans 5" viewBox="0 0 11 50.194">
        <line x1="5.5" x2="5.5" y2="24.34" fill="none" stroke="#585e61" stroke-miterlimit="10" stroke-width="9"/>
        <line x1="5.5" y1="24.34" x2="5.5" y2="47.803" fill="none" stroke="#585e61" stroke-miterlimit="10" stroke-width="9"/>
        <line x1="5.5" y1="46.317" x2="5.5" y2="50.194" fill="none" stroke="#9b9b9a" stroke-miterlimit="10" stroke-width="11"/>
      </symbol>
      <symbol id="i" data-name="m_huefte_grayjeans_front" viewBox="0 0 26.986 15.649">
        <path d="M0,0H26.986a0,0,0,0,1,0,0V2.156A13.493,13.493,0,0,1,13.493,15.649h0A13.493,13.493,0,0,1,0,2.156V0A0,0,0,0,1,0,0Z" fill="#585e61"/>
        <polygon points="23.221 0 22.389 0 4.597 0 3.387 0 0 0 0 2.156 3.387 2.156 4.597 2.156 22.389 2.156 23.221 2.156 26.986 2.156 26.986 0 23.221 0" fill="#313638"/>
      </symbol>
      <symbol id="j" data-name="shatten" viewBox="0 0 75.929 11.334">
        <ellipse cx="37.965" cy="5.667" rx="37.965" ry="5.667" opacity="0.3"/>
      </symbol>
      <symbol id="d" data-name="kunde 3" viewBox="0 0 68.887 188.182">
        <g>
          <g>
            <g>
              <path d="M30.917,47.284a13.967,13.967,0,0,0,4.414-1.032v8.081h-10V46.547a14.431,14.431,0,0,0,4.626.768C30.275,47.315,30.594,47.306,30.917,47.284Z" fill="#dc9161"/>
              <path d="M30.756,44.789a11.471,11.471,0,0,0,4.575-1.284v2.747a13.967,13.967,0,0,1-4.414,1.032c-.323.022-.642.031-.96.031a14.431,14.431,0,0,1-4.626-.768v-2.67A11.983,11.983,0,0,0,30.756,44.789Z" fill="#c98559"/>
            </g>
            <path d="M15.643,106.165h33.75V66.678a16.72,16.72,0,0,0-16.72-16.72h-.309a16.72,16.72,0,0,0-16.721,16.72Z" fill="#9c6f84"/>
            <g>
              <g>
                <use width="16" height="12.81" transform="matrix(-1.25, 0, 0, 1.25, 51.757, 168.708)" xlink:href="#e"/>
                <use width="11" height="50.194" transform="matrix(-1.25, 0, 0, 1.25, 44.466, 111.42)" xlink:href="#f"/>
              </g>
              <g>
                <use width="16" height="12.81" transform="matrix(-1.25, 0, 0, 1.25, 43.068, 168.708)" xlink:href="#e"/>
                <use width="11" height="50.194" transform="matrix(-1.25, 0, 0, 1.25, 35.847, 111.42)" xlink:href="#h"/>
              </g>
              <use width="26.986" height="15.649" transform="matrix(-1.25, 0, 0, 1.25, 49.466, 106.207)" xlink:href="#i"/>
            </g>
          </g>
          <g>
            <path d="M40.721,28.084A11.755,11.755,0,1,1,19.414,38.02l-6.108-13.1,21.307-9.935Z" fill="#ef9e69"/>
            <circle cx="34.454" cy="19.893" r="1.156"/>
            <path d="M28.572,21.086c-1.206,2.344,1.22,4.4.072,7.056a7.918,7.918,0,0,1-3.856,4.008,7.6,7.6,0,0,1-3.671.7c-1.334-.08,2.131-.392,1.281.861-1.535,2.262-2.08,6.436-.141,8.393a9.618,9.618,0,0,0-1.855-.859,19.419,19.419,0,0,1-2.14-1.321,20.363,20.363,0,0,1-3.613-3.3c-2.232-2.588-3.312-5.6-4.759-8.641-1-2.105-2.717-3.846-3.782-5.923a10.605,10.605,0,0,1-.083-9.535c2.054-4.064,6.069-4.386,9.52-6.559,2.746-1.728,4.853-4.758,8.1-5.585,8.419-2.143,20.969,5.073,15.716,13.2-.351.544-1.9,1.135-3.416,1.552a10.635,10.635,0,0,0-5.408,3.54Z" fill="#4f2b13"/>
          </g>
          <path d="M25.09,29.555A3.236,3.236,0,0,1,24.9,34.1a3.236,3.236,0,0,1-4.449-.933,3.238,3.238,0,0,1,.19-4.543A3.237,3.237,0,0,1,25.09,29.555Z" fill="#ef9e69"/>
          <g>
            <polyline points="31.297 59.994 34.721 92.08 62.096 120.516" fill="none" stroke="#ef9e69" stroke-linecap="round" stroke-linejoin="round" stroke-width="10.153"/>
            <line x1="31.297" y1="59.994" x2="34.721" y2="92.08" fill="none" stroke="#af7c95" stroke-linecap="round" stroke-linejoin="round" stroke-width="10.153"/>
            <polyline points="32.518 71.442 34.721 92.08 57.473 115.713" fill="none" stroke="#af7c95" stroke-linejoin="round" stroke-width="10.153"/>
          </g>
        </g>
        <use width="75.929" height="11.334" transform="translate(0 177.494) scale(0.907 0.943)" xlink:href="#j"/>
        <path d="M36.1,27.714c.532,1.167,2.582,1.375,4.577.465.02-.009.037-.02.057-.03l-.963-2.11Z" fill="#ca875a"/>
      </symbol>
      <symbol id="k" data-name="container_Zeilen" viewBox="0 0 136.991 123.475">
        <path d="M56.986,120.532,67.254,19.656a.268.268,0,0,1,.5,0L78.826,120.532" fill="none" stroke="#4d4d4d" stroke-miterlimit="10"/>
        <g>
          <g>
            <rect y="51.848" width="136.991" height="68.063" fill="#81d4dc"/>
            <g>
              <rect x="4.033" y="55.881" width="128.925" height="59.997" fill="#1d1d1b" opacity="0.05"/>
              <path d="M131.344,57.494v56.77H5.646V57.494h125.7m1.614-1.613H4.033v60H132.958v-60Z" fill="#1d1d1b" opacity="0.1"/>
            </g>
          </g>
          <g>
            <g>
              <path d="M68.871,60.609a2.143,2.143,0,0,0-2.143,2.144V109.72a2.144,2.144,0,0,0,4.287,0V62.753a2.143,2.143,0,0,0-2.144-2.144Z" fill="#7dadba"/>
              <path d="M58.192,60.609a2.143,2.143,0,0,0-2.143,2.144V109.72a2.143,2.143,0,0,0,4.286,0V62.753a2.143,2.143,0,0,0-2.143-2.144Z" fill="#7dadba"/>
              <path d="M47.55,60.609a2.143,2.143,0,0,0-2.143,2.144V109.72a2.143,2.143,0,0,0,4.286,0V62.753a2.192,2.192,0,0,0-2.143-2.144Z" fill="#7dadba"/>
              <path d="M36.871,60.609a2.143,2.143,0,0,0-2.144,2.144V109.72a2.144,2.144,0,0,0,4.287,0V62.753a2.167,2.167,0,0,0-2.143-2.144Z" fill="#7dadba"/>
              <path d="M111.589,60.609a2.143,2.143,0,0,0-2.143,2.144V109.72a2.144,2.144,0,0,0,4.287,0V62.753a2.193,2.193,0,0,0-2.144-2.144Z" fill="#7dadba"/>
              <path d="M122.231,60.609a2.143,2.143,0,0,0-2.143,2.144V109.72a2.143,2.143,0,0,0,4.286,0V62.753a2.143,2.143,0,0,0-2.143-2.144Z" fill="#7dadba"/>
              <path d="M26.191,60.609a2.143,2.143,0,0,0-2.143,2.144V109.72a2.144,2.144,0,0,0,4.287,0V62.753a2.168,2.168,0,0,0-2.144-2.144Z" fill="#7dadba"/>
              <path d="M15.512,60.609a2.143,2.143,0,0,0-2.144,2.144V109.72a2.144,2.144,0,0,0,4.287,0V62.753a2.143,2.143,0,0,0-2.143-2.144Z" fill="#7dadba"/>
              <path d="M100.91,60.609a2.143,2.143,0,0,0-2.144,2.144V109.72a2.144,2.144,0,0,0,4.287,0V62.753a2.167,2.167,0,0,0-2.143-2.144Z" fill="#7dadba"/>
              <path d="M90.23,60.609a2.143,2.143,0,0,0-2.143,2.144V109.72a2.144,2.144,0,0,0,4.287,0V62.753a2.168,2.168,0,0,0-2.144-2.144Z" fill="#7dadba"/>
              <path d="M79.551,60.609a2.143,2.143,0,0,0-2.144,2.144V109.72a2.143,2.143,0,0,0,2.144,2.143,2.119,2.119,0,0,0,2.143-2.143V62.753a2.167,2.167,0,0,0-2.143-2.144Z" fill="#7dadba"/>
            </g>
            <g>
              <path d="M68.5,60.233a2.143,2.143,0,0,0-2.143,2.144v46.967a2.144,2.144,0,0,0,4.287,0V62.377A2.143,2.143,0,0,0,68.5,60.233Z" fill="#91eaf3"/>
              <path d="M57.816,60.233a2.143,2.143,0,0,0-2.144,2.144v46.967a2.144,2.144,0,0,0,4.287,0V62.377a2.143,2.143,0,0,0-2.143-2.144Z" fill="#91eaf3"/>
              <path d="M47.174,60.233a2.143,2.143,0,0,0-2.143,2.144v46.967a2.143,2.143,0,0,0,4.286,0V62.377a2.192,2.192,0,0,0-2.143-2.144Z" fill="#91eaf3"/>
              <path d="M36.495,60.233a2.143,2.143,0,0,0-2.144,2.144v46.967a2.144,2.144,0,0,0,4.287,0V62.377a2.167,2.167,0,0,0-2.143-2.144Z" fill="#91eaf3"/>
              <path d="M111.213,60.233a2.143,2.143,0,0,0-2.143,2.144v46.967a2.144,2.144,0,0,0,4.287,0V62.377a2.193,2.193,0,0,0-2.144-2.144Z" fill="#91eaf3"/>
              <path d="M121.855,60.233a2.143,2.143,0,0,0-2.143,2.144v46.967a2.143,2.143,0,0,0,4.286,0V62.377a2.143,2.143,0,0,0-2.143-2.144Z" fill="#91eaf3"/>
              <path d="M25.815,60.233a2.143,2.143,0,0,0-2.143,2.144v46.967a2.143,2.143,0,1,0,4.286,0V62.377a2.166,2.166,0,0,0-2.143-2.144Z" fill="#91eaf3"/>
              <path d="M15.136,60.233a2.143,2.143,0,0,0-2.144,2.144v46.967a2.144,2.144,0,0,0,4.287,0V62.377a2.143,2.143,0,0,0-2.143-2.144Z" fill="#91eaf3"/>
              <path d="M100.534,60.233a2.143,2.143,0,0,0-2.144,2.144v46.967a2.144,2.144,0,0,0,4.287,0V62.377a2.167,2.167,0,0,0-2.143-2.144Z" fill="#91eaf3"/>
              <path d="M89.854,60.233a2.143,2.143,0,0,0-2.143,2.144v46.967a2.144,2.144,0,0,0,4.287,0V62.377a2.168,2.168,0,0,0-2.144-2.144Z" fill="#91eaf3"/>
              <path d="M79.175,60.233a2.143,2.143,0,0,0-2.144,2.144v46.967a2.142,2.142,0,0,0,2.144,2.143,2.119,2.119,0,0,0,2.143-2.143V62.377a2.167,2.167,0,0,0-2.143-2.144Z" fill="#91eaf3"/>
            </g>
          </g>
        </g>
        <path d="M26.3,120.532,66.564,19.656a.267.267,0,0,1,.5,0l41.075,100.878" fill="none" stroke="#4d4d4d" stroke-miterlimit="10"/>
        <polygon points="61.135 0 72.486 0 66.814 9.275 61.135 0" fill="#ffd301"/>
        <path d="M70.983,14.867a4.172,4.172,0,1,1-4.173-4.174V8.626" fill="none" stroke="#4d4d4d" stroke-miterlimit="10"/>
        <polygon points="18.103 120 18.103 123.475 117.708 123.475 117.708 123.475 117.708 120 18.103 120" fill="#367089"/>
      </symbol>
      <symbol id="n" data-name="M_Bein_jeans 2" viewBox="0 0 11 50.194">
        <line x1="5.5" x2="5.5" y2="24.34" fill="none" stroke="#25485c" stroke-miterlimit="10" stroke-width="9"/>
        <line x1="5.5" y1="24.34" x2="5.5" y2="45.694" fill="none" stroke="#25485c" stroke-linecap="round" stroke-miterlimit="10" stroke-width="9"/>
        <line x1="5.5" y1="45.024" x2="5.5" y2="50.194" fill="none" stroke="#466977" stroke-miterlimit="10" stroke-width="11"/>
      </symbol>
      <symbol id="p" data-name="M_Bein_jeans" viewBox="0 0 11 50.194">
        <line x1="5.5" x2="5.5" y2="24.34" fill="none" stroke="#2d5972" stroke-miterlimit="10" stroke-width="9"/>
        <line x1="5.5" y1="24.34" x2="5.5" y2="45.694" fill="none" stroke="#2d5972" stroke-linecap="round" stroke-miterlimit="10" stroke-width="9"/>
        <line x1="5.5" y1="45.024" x2="5.5" y2="50.194" fill="none" stroke="#537e8e" stroke-miterlimit="10" stroke-width="11"/>
      </symbol>
      <symbol id="q" data-name="m_huefte_front" viewBox="0 0 26.986 15.649">
        <path d="M0,0H26.986a0,0,0,0,1,0,0V2.156A13.493,13.493,0,0,1,13.493,15.649h0A13.493,13.493,0,0,1,0,2.156V0A0,0,0,0,1,0,0Z" fill="#2c5972"/>
        <g>
          <rect width="4.597" height="2.156" fill="#1e1e1c"/>
          <rect x="5.597" width="4.597" height="2.156" fill="#1e1e1c"/>
          <rect x="11.194" width="4.597" height="2.156" fill="#1e1e1c"/>
          <rect x="16.792" width="4.597" height="2.156" fill="#1e1e1c"/>
          <rect x="22.389" width="4.597" height="2.156" fill="#1e1e1c"/>
        </g>
      </symbol>
      <symbol id="s" data-name="L_hemd_blau_front 5" viewBox="0 0 45 45.991">
        <path d="M30.211.155c-.2-.034-4.148-.049-4.148-.049V.135L15.239.083A17.854,17.854,0,0,0,0,17.735v4.632H45V17.735A17.855,17.855,0,0,0,30.211.155Z" fill="#585e61"/>
        <g>
          <g>
            <path d="M22.388.056A13.377,13.377,0,0,0,9.011,13.433V45.991h13.5V.056Z" fill="#474e51"/>
            <path d="M36.011,13.433A13.377,13.377,0,0,0,22.635.056h-.124V45.991h13.5Z" fill="#474e51"/>
          </g>
          <polygon points="22.583 8.98 22.583 9.04 22.648 9.078 22.583 8.98" fill="#075d79"/>
        </g>
        <g>
          <polygon points="26.064 0.135 26.063 0.106 26.058 0.135 26.064 0.135" fill="none"/>
          <path d="M23.23.49l.188-.451L15.322,0c-.355.053-.7.131-1.051.2l.1.236,1.944,4.675,2.5,3.782.066.1,2.429-3.881Z" fill="#dc9161"/>
          <polygon points="18.879 8.996 22.573 6.757 21.308 5.115 18.879 8.996" fill="#4a4f52"/>
          <polygon points="23.23 0.49 21.308 5.115 22.573 6.757 24.519 9.282 25.846 1.732 26.141 0.052 23.418 0.039 23.23 0.49" fill="#585e61"/>
          <polygon points="15.057 6.744 18.813 8.957 18.813 8.897 16.313 5.115 15.057 6.744" fill="#4a4f52"/>
          <path d="M13.1,9.282l1.956-2.538,1.256-1.629L14.369.44,14.271.2a17.717,17.717,0,0,0-2.63.768l.118.673Z" fill="#6a6e70"/>
        </g>
        <polygon points="22.795 45.862 18.796 45.862 18.731 9.04 22.573 6.757 22.795 45.862" fill="#4a4f52"/>
      </symbol>
      <symbol id="u" data-name="M_Bein_dunkel_jeans" viewBox="0 0 9 50.194">
        <line x1="4.5" x2="4.5" y2="24.34" fill="none" stroke="#888" stroke-miterlimit="10" stroke-width="9"/>
        <line x1="4.5" y1="24.34" x2="4.5" y2="45.694" fill="none" stroke="#888" stroke-linecap="round" stroke-miterlimit="10" stroke-width="9"/>
        <line x1="4.5" y1="45.024" x2="4.5" y2="50.194" fill="none" stroke="#888" stroke-miterlimit="10" stroke-width="9"/>
      </symbol>
      <symbol id="x" data-name="m_huefte_front 2" viewBox="0 0 26.986 15.649">
        <path d="M0,0H26.986a0,0,0,0,1,0,0V2.156A13.493,13.493,0,0,1,13.493,15.649h0A13.493,13.493,0,0,1,0,2.156V0A0,0,0,0,1,0,0Z" fill="#888"/>
        <g>
          <rect width="4.597" height="2.156" fill="#1e1e1c"/>
          <rect x="5.597" width="4.597" height="2.156" fill="#1e1e1c"/>
          <rect x="11.194" width="4.597" height="2.156" fill="#1e1e1c"/>
          <rect x="16.792" width="4.597" height="2.156" fill="#1e1e1c"/>
          <rect x="22.389" width="4.597" height="2.156" fill="#1e1e1c"/>
        </g>
      </symbol>
    </defs>
    <use width="68.887" height="188.182" transform="translate(44.226 -220.064) scale(0.653)" xlink:href="#d"/>
    <g>
      <rect width="1280" height="564" fill="#a7e4f2"/>
      <rect y="346" width="1280" height="218" fill="#002f47"/>
      <g>
        <polygon points="1280 346.966 596.018 346.966 775.878 314.142 833.029 328.147 1033.248 291.323 1206.832 312.984 1280 287.575 1280 346.966" fill="#81b4c4"/>
        <polygon points="1256.575 297.795 1265.938 277 1275.301 297.795 1256.575 297.795" fill="#a7ced1"/>
        <polygon points="1249.892 302.196 1257.417 286.21 1264.941 302.196 1249.892 302.196" fill="#c0e1e3"/>
        <polygon points="687.451 347 0 347 0 327.355 176.632 300.08 687.451 347" fill="#81b4c4"/>
        <polygon points="92.198 303.205 85.127 321.673 99.268 321.673 92.198 303.205" fill="#a7ced1"/>
        <g>
          <polygon points="489.926 319.006 484.222 333.905 495.63 333.905 489.926 319.006" fill="#c0e1e3"/>
          <polygon points="481.944 316.695 473.482 338.798 490.407 338.798 481.944 316.695" fill="#a7ced1"/>
        </g>
        <polygon points="334.914 298.92 326.103 321.933 343.726 321.933 334.914 298.92" fill="#c0e1e3"/>
        <polygon points="1159.028 310.531 1153.324 325.429 1164.732 325.429 1159.028 310.531" fill="#c0e1e3"/>
        <polygon points="1151.113 299.375 1142.65 321.478 1159.575 321.478 1151.113 299.375" fill="#a7ced1"/>
        <g>
          <circle cx="782.685" cy="319.585" r="11.375" fill="#c2d64c"/>
          <g>
            <line x1="782.58" y1="320.38" x2="777.114" y2="315.29" fill="none" stroke="#002f47" stroke-linecap="round" stroke-miterlimit="10" stroke-width="0.75"/>
            <line x1="789.307" y1="317.126" x2="782.685" y2="325.162" fill="none" stroke="#002f47" stroke-linecap="round" stroke-miterlimit="10" stroke-width="0.75"/>
            <line x1="782.685" y1="347" x2="782.685" y2="315.007" fill="none" stroke="#002f47" stroke-linecap="round" stroke-miterlimit="10" stroke-width="0.75"/>
          </g>
        </g>
        <g>
          <circle cx="1253.916" cy="319.585" r="11.375" fill="#b8c445"/>
          <g>
            <line x1="1254.021" y1="320.38" x2="1259.487" y2="315.29" fill="none" stroke="#002f47" stroke-linecap="round" stroke-miterlimit="10" stroke-width="0.75"/>
            <line x1="1247.294" y1="317.126" x2="1253.916" y2="325.162" fill="none" stroke="#002f47" stroke-linecap="round" stroke-miterlimit="10" stroke-width="0.75"/>
            <line x1="1253.916" y1="347" x2="1253.916" y2="315.007" fill="none" stroke="#002f47" stroke-linecap="round" stroke-miterlimit="10" stroke-width="0.75"/>
          </g>
        </g>
        <g>
          <circle cx="1240.937" cy="325.416" r="8.955" fill="#c2d64c"/>
          <g>
            <line x1="1240.854" y1="326.042" x2="1236.551" y2="322.034" fill="none" stroke="#002f47" stroke-linecap="round" stroke-miterlimit="10" stroke-width="0.75"/>
            <line x1="1246.151" y1="323.48" x2="1240.937" y2="327.952" fill="none" stroke="#002f47" stroke-linecap="round" stroke-miterlimit="10" stroke-width="0.75"/>
            <line x1="1240.937" y1="347" x2="1240.937" y2="321.811" fill="none" stroke="#002f47" stroke-linecap="round" stroke-miterlimit="10" stroke-width="0.75"/>
          </g>
        </g>
      </g>
      <g clip-path="url(#a)">
        <g>
          <path d="M1212.939,104.759a85.806,85.806,0,1,0,54.586-98.151,65.024,65.024,0,0,0-112.2.3,79.16,79.16,0,1,0-132.842,74.714,79.137,79.137,0,0,0,127.253-21.655,65.071,65.071,0,0,0,63.2,44.791Z" fill="#fff" fill-rule="evenodd" opacity="0.3"/>
          <path d="M916.436,18.787A37.083,37.083,0,1,0,901,45.49a43.821,43.821,0,0,0,86.158,15.98A51.463,51.463,0,0,0,1036.89,66.6a80.96,80.96,0,1,0,20.264-80.686q-.39.39-.772.784-1.593-1.938-3.4-3.75a51.405,51.405,0,0,0-87.513,31.375,43.6,43.6,0,0,0-21.239-5.486q-1.683,0-3.335.125a27.007,27.007,0,0,0-21.6,7.662Q917.82,17.651,916.436,18.787Z" fill="#fff" fill-rule="evenodd" opacity="0.3"/>
        </g>
      </g>
      <g clip-path="url(#b)">
        <g>
          <g id="container-3">
            <polyline points="445.72 86.936 445.72 121.912 437.9 121.912 437.9 86.936" fill="none" stroke="#4d4d4d" stroke-miterlimit="10"/>
            <use width="136.991" height="123.475" transform="translate(375.114 120.862)" xlink:href="#k"/>
          </g>
          <path d="M700.9-62.814a64.99,64.99,0,0,0-91.893,0q-.312.312-.62.628-1.278-1.554-2.73-3.008-.753-.753-1.534-1.458A43.11,43.11,0,0,0,573.007-79.88,43.255,43.255,0,0,0,530.88-46.4a23.669,23.669,0,0,0-21.916,23.6A23.672,23.672,0,0,0,532.636.875a23.556,23.556,0,0,0,13.1-3.953,43.06,43.06,0,0,0,27.276,9.693,43.045,43.045,0,0,0,19.129-4.46c.2-.082.4-.161.6-.247a64.687,64.687,0,0,0,16.268,27.146,64.992,64.992,0,0,0,91.893,0A64.949,64.949,0,0,0,700.9-62.814Z" fill="#fff" fill-rule="evenodd" opacity="0.3"/>
          <path id="cloud-3" d="M531.069,55.7a49.914,49.914,0,1,0,8.994-64.671,37.837,37.837,0,0,0-60.8,23.747,46,46,0,1,0,8.113,29.932A37.844,37.844,0,0,0,531.069,55.7Z" fill="#c2ecf5" fill-rule="evenodd" />
        </g>
      </g>
      <g>
        <use width="75.929" height="11.334" transform="translate(137.299 399.545) scale(0.907 0.943)" xlink:href="#j"/>
        <g>
          <g>
            <path d="M167.98,306.278a10.289,10.289,0,0,0,3.245-.759v5.94h-7.351v-5.723a10.6,10.6,0,0,0,3.4.565C167.508,306.3,167.743,306.294,167.98,306.278Z" fill="#dc9161"/>
            <path d="M167.862,304.444a8.451,8.451,0,0,0,3.363-.944v2.019a10.289,10.289,0,0,1-3.245.759c-.237.016-.472.023-.706.023a10.6,10.6,0,0,1-3.4-.565v-1.963A8.813,8.813,0,0,0,167.862,304.444Z" fill="#c98559"/>
          </g>
          <path d="M156.753,308.243h24.809a0,0,0,0,1,0,0v28.913a12.4,12.4,0,0,1-12.4,12.4h0a12.4,12.4,0,0,1-12.4-12.4V308.243a0,0,0,0,1,0,0Z" transform="translate(338.314 657.803) rotate(-180)" fill="#1ab0be"/>
          <g>
            <g>
              <use width="16" height="12.81" transform="matrix(-0.919, 0, 0, 0.919, 183.299, 395.535)" xlink:href="#e"/>
              <use width="11" height="50.194" transform="matrix(-0.919, 0, 0, 0.919, 177.94, 353.423)" xlink:href="#n"/>
            </g>
            <g>
              <use width="16" height="12.81" transform="matrix(-0.919, 0, 0, 0.919, 176.912, 395.535)" xlink:href="#e"/>
              <use width="11" height="50.194" transform="matrix(-0.919, 0, 0, 0.919, 171.604, 353.423)" xlink:href="#p"/>
            </g>
            <use width="26.986" height="15.649" transform="matrix(-0.919, 0, 0, 0.919, 181.616, 349.592)" xlink:href="#q"/>
          </g>
        </g>
        <g>
          <g>
            <path d="M175.187,292.164a8.641,8.641,0,0,1-15.663,7.3l-4.49-9.629,15.663-7.3Z" fill="#ef9e69"/>
            <circle cx="170.58" cy="286.143" r="0.85"/>
            <path d="M169.852,277.753l-1.582-1.686-8.746,5.257-1.031.48-4.541,2.118a2.827,2.827,0,0,0-1.47,3.715l4.26,9.138a2.828,2.828,0,0,0,3.792,1.261l.008,0a8.742,8.742,0,0,0,5.149-7.993c0-.039,0-.079,0-.118a2.855,2.855,0,0,1,2.225,2.133l.906-1.931s-2.057-1.41-2.5-3a6.317,6.317,0,0,1,.481-.82,7.712,7.712,0,0,1,2.312-1.92C172.282,282.475,171.328,280.92,169.852,277.753Z"/>
          </g>
          <path d="M166.238,291.918a2.19,2.19,0,1,1-3.27-.687A2.38,2.38,0,0,1,166.238,291.918Z" fill="#ef9e69"/>
          <path d="M170.492,291.642c.533,1.167,2.582,1.375,4.578.465.02-.009.036-.02.056-.03l-.962-2.11Z" fill="#ca875a"/>
        </g>
        <g>
          <g>
            <path d="M169.291,276.259c-2.706-4.815-9.469-6.169-14.389-3.4s-7.3,9.218-4.59,14.033l1.166,2.073L170.7,278.771Z" fill="#2c5871"/>
            <path d="M169.291,276.259c-2.706-4.815-9.469-6.169-14.389-3.4-.27.151-.528.318-.782.491,4.754-1.911,10.642-.417,13.123,4l1.412,2.512,2.048-1.086Z" fill="#0c3148"/>
            <polygon points="170.703 278.771 171.303 279.839 170.73 278.757 170.703 278.771" fill="#bf292e"/>
            <polygon points="151.474 288.964 152.047 290.046 152.078 290.03 151.478 288.962 151.474 288.964" fill="#bf292e"/>
            <polygon points="151.169 288.38 150.333 290.955 171.303 279.839 170.395 278.189 151.169 288.38" fill="#0c3148"/>
          </g>
          <path d="M168.864,276.04l2.439,3.8,5.13-2.719S172.679,274.164,168.864,276.04Z" fill="#0c3148"/>
          <g clip-path="url(#c)">
            <g>
              <path d="M175.063,266.379a49.527,49.527,0,0,0-12.694,6.752.555.555,0,0,0-.094.83q1.326,1.506,2.509,3.079a.6.6,0,0,0,.832.145,44.311,44.311,0,0,1,8.94-4.915q.253.482.5.967c.1-.428.2-.857.3-1.285q1.1-.43,2.25-.81a.582.582,0,0,0,.391-.786q-.882-1.851-1.916-3.672A.871.871,0,0,0,175.063,266.379Z" fill="gold"/>
              <g>
                <path d="M164.035,272.992q.345,1.278.671,2.559c.131-.093.26-.184.391-.275l-.129-.51q.467-.324.943-.637c.158.094.314.189.47.284.136-.088.273-.175.409-.261q-1.176-.723-2.425-1.386C164.254,272.841,164.144,272.916,164.035,272.992Zm.826,1.4c-.091-.347-.181-.693-.275-1.04q.5.274.984.56Q165.21,274.152,164.861,274.4Z" fill="#0b2f46"/>
                <path d="M166.38,271.472q-.438.266-.866.538.777.99,1.5,2l.393-.243c-.166-.237-.336-.473-.507-.71l.452-.274a.757.757,0,0,0,.268-1.1A.943.943,0,0,0,166.38,271.472Zm.713,1q-.219.13-.435.265-.241-.329-.491-.654.219-.135.439-.269a.45.45,0,0,1,.6.117A.362.362,0,0,1,167.093,272.468Z" fill="#0b2f46"/>
                <path d="M168.765,271.973c.156-.087.313-.172.472-.257a.75.75,0,0,0,.315-1.086.974.974,0,0,0-1.253-.263q-.456.249-.9.5.752,1.018,1.447,2.057c.136-.077.273-.152.41-.227Q169.013,272.336,168.765,271.973Zm-.707-1.008q.228-.127.459-.252a.46.46,0,0,1,.609.14.354.354,0,0,1-.139.536c-.153.082-.3.164-.454.248Q168.3,271.3,168.058,270.965Z" fill="#0b2f46"/>
                <path d="M171.352,268.837c-.152.069-.3.139-.452.21q.423.637.824,1.283a.5.5,0,0,1-.211.808.645.645,0,0,1-.894-.28q-.411-.636-.842-1.265l-.439.223q.448.645.874,1.3a1.124,1.124,0,0,0,1.515.374.866.866,0,0,0,.467-1.32C171.919,269.722,171.64,269.278,171.352,268.837Z" fill="#0b2f46"/>
                <path d="M172.573,269.06l-.437.192q.49.783.951,1.575c.143-.062.285-.124.429-.184Q173.06,269.848,172.573,269.06Z" fill="#0b2f46"/>
                <path d="M171.959,268.531a.228.228,0,0,0-.121.337.328.328,0,0,0,.4.1.231.231,0,0,0,.121-.335A.331.331,0,0,0,171.959,268.531Z" fill="#0b2f46"/>
                <path d="M175.185,270.028a1.174,1.174,0,0,0,.748-1.672,1.682,1.682,0,0,0-2.071-.636,1.156,1.156,0,0,0-.682,1.7A1.66,1.66,0,0,0,175.185,270.028Zm-1.107-1.949a1.127,1.127,0,0,1,1.384.447.783.783,0,0,1-.476,1.139,1.11,1.11,0,0,1-1.354-.431A.779.779,0,0,1,174.078,268.079Z" fill="#0b2f46"/>
              </g>
              <g>
                <path d="M165.245,276.194a.161.161,0,0,0,.175-.014c.064-.049.052-.1.036-.12-.03-.043-.087-.029-.159-.01-.1.026-.184.039-.245-.044a.162.162,0,0,1,.055-.233.21.21,0,0,1,.208-.03c-.01.029-.021.057-.031.085a.122.122,0,0,0-.119.02.067.067,0,0,0-.029.1c.033.045.078.023.17,0,.113-.027.184-.022.236.052s.047.179-.067.259a.246.246,0,0,1-.267.024C165.222,276.252,165.232,276.223,165.245,276.194Z" fill="#0b2f46"/>
                <path d="M165.324,275.634l.086-.06.334.248c-.044-.129-.089-.257-.132-.387l.067-.046.336.249c-.044-.129-.087-.258-.131-.388l.086-.058q.1.288.2.576c-.023.016-.047.031-.069.047l-.337-.248c.043.13.086.26.128.39l-.069.048C165.655,275.88,165.49,275.757,165.324,275.634Z" fill="#0b2f46"/>
                <path d="M166.044,275.143l.09-.06c.115.158.229.318.343.477l-.089.06Q166.217,275.38,166.044,275.143Z" fill="#0b2f46"/>
                <path d="M166.524,275.321a.171.171,0,0,0,.178-.009c.07-.046.058-.092.041-.118-.028-.045-.084-.032-.161-.015-.1.025-.188.031-.248-.05a.16.16,0,0,1,.063-.232.22.22,0,0,1,.213-.024c-.012.028-.024.056-.035.084a.129.129,0,0,0-.121.016.071.071,0,0,0-.032.1c.033.044.075.024.172,0,.118-.024.189-.014.239.059s.039.179-.077.257a.258.258,0,0,1-.271.017C166.5,275.378,166.51,275.35,166.524,275.321Z" fill="#0b2f46"/>
                <path d="M166.951,275.045a.179.179,0,0,0,.18-.008c.067-.046.064-.092.042-.118-.03-.044-.087-.034-.162-.017-.1.023-.184.033-.248-.052a.161.161,0,0,1,.065-.231.221.221,0,0,1,.214-.022c-.012.027-.023.055-.036.083a.125.125,0,0,0-.121.015c-.043.026-.054.066-.034.1s.079.025.173.007c.116-.024.185-.013.239.061s.039.178-.079.256a.247.247,0,0,1-.272.014Z" fill="#0b2f46"/>
                <path d="M167.667,274.1a.347.347,0,0,1,.268-.038c-.01.03-.02.06-.029.09a.239.239,0,0,0-.184.026.2.2,0,0,0-.065.286.219.219,0,0,0,.3.061.215.215,0,0,0,.1-.148l.1.014a.3.3,0,0,1-.147.214.331.331,0,0,1-.448-.084A.288.288,0,0,1,167.667,274.1Z" fill="#0b2f46"/>
                <path d="M168.2,273.781a.335.335,0,0,1,.452.092.289.289,0,0,1-.111.418.337.337,0,0,1-.448-.09A.29.29,0,0,1,168.2,273.781Zm.289.43a.2.2,0,0,0,.069-.284.23.23,0,0,0-.305-.067.2.2,0,0,0-.067.285A.221.221,0,0,0,168.487,274.211Z" fill="#0b2f46"/>
                <path d="M168.584,273.568l.085-.049q.256.091.51.184c-.075-.116-.15-.231-.226-.345.031-.018.062-.036.094-.053.109.165.217.332.323.5l-.078.044q-.258-.094-.519-.188c.078.117.154.234.23.351l-.092.052C168.8,273.9,168.693,273.732,168.584,273.568Z" fill="#0b2f46"/>
                <path d="M169.324,273.261l-.147.082-.053-.081c.13-.073.262-.144.393-.216l.052.081-.147.081q.135.208.268.419l-.1.053Z" fill="#0b2f46"/>
                <path d="M169.727,272.932c.028-.015.055-.03.084-.044.184.126.367.253.547.382l-.1.054c-.035-.026-.072-.051-.108-.077l-.243.13c.007.041.013.083.019.124l-.1.056C169.788,273.349,169.759,273.14,169.727,272.932Zm.342.257-.221-.156c.013.084.025.169.039.254Z" fill="#0b2f46"/>
                <path d="M170.122,272.722l.1-.052q.16.252.315.506l-.1.051C170.335,273.059,170.229,272.89,170.122,272.722Z" fill="#0b2f46"/>
                <path d="M170.358,272.6l.088-.046c.171.067.343.134.513.2-.072-.118-.144-.236-.217-.353l.1-.049q.157.254.313.509l-.082.041c-.174-.07-.347-.138-.522-.206.073.119.148.239.221.359l-.1.049C170.569,272.937,170.465,272.768,170.358,272.6Z" fill="#0b2f46"/>
                <path d="M170.976,272.285c.12-.06.24-.119.361-.177.016.027.034.055.05.083l-.258.127.074.121.242-.119c.016.028.033.056.05.083l-.242.119c.029.047.057.094.085.141l.263-.129.05.083-.364.179C171.184,272.625,171.081,272.455,170.976,272.285Z" fill="#0b2f46"/>
                <path d="M171.459,272.048l.222-.106a.222.222,0,0,1,.283.075.164.164,0,0,1-.018.195l.26.141-.116.054-.229-.126h0l-.1.048.108.182-.1.049C171.664,272.39,171.563,272.219,171.459,272.048Zm.36.147a.089.089,0,0,0,.044-.129.1.1,0,0,0-.135-.04l-.117.056c.033.055.067.11.1.165Z" fill="#0b2f46"/>
                <path d="M172.338,271.633l.222-.1a.229.229,0,0,1,.287.084.179.179,0,0,1-.092.253l-.116.053.1.182-.1.047Q172.492,271.893,172.338,271.633Zm.364.155a.085.085,0,0,0,.042-.125.109.109,0,0,0-.141-.044l-.112.051.1.169Z" fill="#0b2f46"/>
                <path d="M172.841,271.406l.1-.046c.084.146.168.292.25.437l.232-.1.047.085c-.112.048-.224.1-.335.147C173.04,271.754,172.942,271.58,172.841,271.406Z" fill="#0b2f46"/>
                <path d="M173.491,271.123l.089-.038c.182.14.361.281.54.423l-.111.046-.106-.085c-.088.037-.175.073-.262.111,0,.041.007.084.01.125l-.11.048C173.524,271.543,173.508,271.333,173.491,271.123Zm.336.282-.219-.172c.008.085.015.17.022.255Z" fill="#0b2f46"/>
                <path d="M174.019,271.007l-.162.067-.048-.086q.215-.09.43-.177c.017.028.032.057.048.086l-.162.066c.081.148.163.294.243.443l-.106.043C174.182,271.3,174.1,271.154,174.019,271.007Z" fill="#0b2f46"/>
                <path d="M174.324,270.776l.365-.145.046.086-.256.1.073.133.233-.093.047.086c-.078.031-.156.061-.233.093l.122.226-.108.042C174.519,271.129,174.422,270.953,174.324,270.776Z" fill="#0b2f46"/>
                <path d="M175.072,270.47a.374.374,0,0,1,.468.156.278.278,0,0,1-.174.4.374.374,0,0,1-.464-.153A.281.281,0,0,1,175.072,270.47Zm.249.468a.185.185,0,0,0,.112-.272.252.252,0,0,0-.315-.109.187.187,0,0,0-.11.272A.251.251,0,0,0,175.321,270.938Z" fill="#0b2f46"/>
                <path d="M175.512,270.314l.238-.089a.235.235,0,0,1,.288.1.16.16,0,0,1-.032.194c.087.053.173.107.259.161l-.124.045-.229-.144h0l-.107.04.1.191-.109.04C175.7,270.672,175.607,270.492,175.512,270.314Zm.363.176a.086.086,0,0,0,.055-.126.112.112,0,0,0-.137-.051l-.125.047c.031.057.059.115.09.172Z" fill="#0b2f46"/>
                <path d="M176.082,270.105l.095-.034.377.224c.023-.126.044-.253.066-.381.032-.011.063-.021.094-.033.093.181.184.363.274.544-.035.011-.069.024-.1.036l-.185-.368c-.022.12-.045.24-.066.36-.118-.071-.237-.142-.356-.211.063.122.124.244.186.366l-.1.036C176.268,270.465,176.175,270.284,176.082,270.105Z" fill="#0b2f46"/>
              </g>
            </g>
          </g>
        </g>
        <g id="arm">
          <polyline points="165.82 320.464 184.39 311.097 199.999 284.082" fill="none" stroke="#ef9e69" stroke-linecap="round" stroke-linejoin="round" stroke-width="7"/>
          <line x1="165.82" y1="320.464" x2="179.205" y2="313.712" fill="none" stroke="#2d5972" stroke-linecap="round" stroke-linejoin="round" stroke-width="10.153"/>
          <line x1="174.022" y1="316.327" x2="179.205" y2="313.712" fill="none" stroke="#2d5972" stroke-linecap="square" stroke-linejoin="round" stroke-width="10.153"/>
        </g>
      </g>
      <g>
        <use width="75.929" height="11.334" transform="translate(211.083 413.542) scale(0.907 0.943)" xlink:href="#j"/>
        <g>
          <g>
            <g>
              <path d="M246.588,304.071a11.987,11.987,0,0,0,3.784-.884v6.927H241.8v-6.675a12.379,12.379,0,0,0,3.966.659C246.038,304.1,246.311,304.09,246.588,304.071Z" fill="#dc9161"/>
              <path d="M246.45,301.932a9.835,9.835,0,0,0,3.922-1.1v2.356a11.987,11.987,0,0,1-3.784.884c-.277.019-.55.027-.824.027a12.379,12.379,0,0,1-3.966-.659V301.15A10.284,10.284,0,0,0,246.45,301.932Z" fill="#c98559"/>
            </g>
            <g>
              <g>
                <line x1="257.577" y1="326.853" x2="262.087" y2="338.208" fill="none" stroke="#585e61" stroke-miterlimit="10" stroke-width="11.25"/>
                <line x1="262.087" y1="338.208" x2="278.75" y2="343.805" fill="none" stroke="#ef9e69" stroke-linecap="round" stroke-miterlimit="10" stroke-width="7.5"/>
                <line x1="279.671" y1="344.385" x2="287.867" y2="337.631" fill="none" stroke="#ef9e69" stroke-linecap="round" stroke-miterlimit="10" stroke-width="7.5"/>
              </g>
              <use width="45" height="45.991" transform="matrix(-1.072, 0, 0, 1.072, 266.428, 305.907)" xlink:href="#s"/>
            </g>
            <g>
              <g>
                <use width="16" height="12.81" transform="matrix(-1.018, 0, 0, 1.018, 263.56, 408.488)" xlink:href="#e"/>
                <use width="9" height="50.194" transform="matrix(-1.072, 0, 0, 1.072, 256.645, 359.06)" xlink:href="#u"/>
              </g>
              <g>
                <use width="16" height="12.81" transform="matrix(-1.018, 0, 0, 1.018, 244.955, 408.49)" xlink:href="#e"/>
                <use width="9" height="50.194" transform="matrix(-1.072, 0, 0, 1.072, 238.044, 359.06)" xlink:href="#u"/>
              </g>
              <use width="26.986" height="15.649" transform="matrix(-1.072, 0, 0, 1.072, 256.885, 354.591)" xlink:href="#x"/>
            </g>
          </g>
          <g>
            <path d="M259.173,347.968s16.424,82.807-34.454,82.807H1.607" fill="none" stroke="#ffd300" stroke-miterlimit="10" stroke-width="1.25"/>
            <g>
              <polygon points="292.947 328.981 271.739 348.822 266.396 342.812 287.604 322.972 292.947 328.981" fill="#e0b50a"/>
              <polygon points="268.812 324.545 247.604 344.385 266.396 342.812 287.604 322.972 268.812 324.545" fill="#ffd300"/>
              <polygon points="252.947 350.395 247.604 344.385 266.396 342.812 271.739 348.822 252.947 350.395" fill="#be9b07"/>
              <g>
                <path d="M266.6,329.624a7.494,7.494,0,0,1,4.013-2.527c1.126-.1,1.178.873.079,2.208a7.44,7.44,0,0,1-4.153,2.637C265.4,332.015,265.446,330.963,266.6,329.624Z" fill="#1ab0be"/>
                <path d="M271.873,329.676a7.333,7.333,0,0,1,4.112-2.623c1.2-.106,1.345.906.274,2.293A7.26,7.26,0,0,1,272,332.089C270.784,332.163,270.745,331.069,271.873,329.676Z" fill="#1ab0be"/>
                <path d="M260.217,335.361c1.247-1.432,3.128-2.622,4.244-2.689s1.087,1.036-.139,2.5c-1.258,1.5-3.248,2.78-4.4,2.814C258.786,338.021,258.938,336.83,260.217,335.361Z" fill="#1ab0be"/>
              </g>
            </g>
          </g>
        </g>
        <line x1="223.021" y1="329.569" x2="223.021" y2="341.895" fill="none" stroke="#585e61" stroke-miterlimit="10" stroke-width="9.7"/>
        <line class="cls-41" x1="246.075" y1="334.222" x2="256.599" y2="335.644" fill="none" stroke="#ef9e69" stroke-linecap="round" stroke-miterlimit="10" stroke-width="7.5"/>
        <line x1="222.959" y1="341.275" x2="246.075" y2="334.222" fill="none" stroke="#585e61" stroke-linecap="round" stroke-miterlimit="10" stroke-width="9.7"/>
        <g class="head">
          <g>
            <ellipse cx="235.639" cy="295.29" rx="2.163" ry="3.094" transform="translate(-99.879 121.655) rotate(-24.048)" fill="#dc9161"/>
            <ellipse cx="253.617" cy="286.391" rx="2.163" ry="3.094" transform="translate(-94.693 128.208) rotate(-24.048)" fill="#dc9161"/>
            <path d="M231.746,286.459a10.5,10.5,0,0,1,4.785-12.771A10.3,10.3,0,0,1,250.5,278.1h.033l4.582,10.268.144.322.222.5-.019.026a10.292,10.292,0,0,1-3.1,11.648c-.081.067-.164.132-.247.2-.148.113-.3.224-.452.329s-.29.191-.439.282c-.127.078-.254.155-.386.228-.058.032-.112.07-.171.1-.1.053-.2.092-.306.142s-.2.11-.311.157c-.061.028-.123.046-.185.072-.161.068-.323.129-.485.188s-.337.122-.507.174-.321.092-.483.133-.349.088-.525.123c-.156.031-.312.056-.469.079-.183.028-.365.054-.548.072-.148.014-.3.023-.442.03-.194.011-.387.018-.581.017-.133,0-.266,0-.4-.011-.207-.009-.413-.022-.619-.043-.116-.012-.23-.028-.345-.044-.223-.03-.443-.066-.663-.111-.094-.019-.187-.041-.281-.063-.238-.056-.474-.118-.707-.191-.071-.022-.141-.046-.212-.069-.252-.085-.5-.177-.746-.281-.049-.02-.1-.042-.146-.063-.263-.116-.522-.242-.775-.38l-.084-.046c-.27-.151-.533-.312-.79-.487l-.03-.02a10.236,10.236,0,0,1-3.332-3.789h-.031l-.223-.5L232.2,287.57Z" fill="#ef9e69"/>
            <circle cx="241.906" cy="287.405" r="1.013" fill="#010100"/>
            <circle cx="250.557" cy="283.545" r="1.013" fill="#010100"/>
            <path d="M247.684,295.407c2.223,0,4.026-1.166,4.026-2.6h-8.052C243.658,294.241,245.46,295.407,247.684,295.407Z" fill="#ca875a"/>
          </g>
          <path d="M253.138,283.934l-.188.084-2.675-5.995a3.269,3.269,0,0,0-4.339-1.643l-12.533,5.7a3.269,3.269,0,0,0-1.631,4.307l2.634,5.9-.148.066-2.843-3.584a25.308,25.308,0,0,1-3.286-5.417h0a5.738,5.738,0,0,1,2.984-7.543l10.665-4.759a3.843,3.843,0,0,1,5.1,1.887h0a2.511,2.511,0,0,1,3.428,1.569Z" fill="#736358"/>
        </g>
      </g>
    </g>
  </svg>
