<svg xmlns="http://www.w3.org/2000/svg" viewBox="0 0 24 24">
  <defs>
    <style>
      .cls-1, .cls-2, .cls-3 {
        fill: none;
        stroke: #fff;
      }

      .cls-1 {
        stroke-linejoin: round;
        stroke-width: 0.66667px;
      }

      .cls-2, .cls-3 {
        stroke-miterlimit: 10;
      }

      .cls-2 {
        stroke-width: 0.79051px;
      }
    </style>
  </defs>
  <title>Learning Organisation</title>
  <g stroke-width="0.5">
    <g id="m3-2" data-name="m3">
      <g>
        <path class="cls-1" d="M8.68988,17.19432l.55507-.96143-.55507-.32018a1.81136,1.81136,0,0,0-.00044-.80352L9.245,14.789l-.55507-.96142-.53451.32062a2.59339,2.59339,0,0,0-.67142-.402V13.105H6.37337v.6408a1.32869,1.32869,0,0,0-.716.40242l-.56819-.32106-.56032.96142.552.32019a1.81706,1.81706,0,0,0-.00088.80351l-.55638.32106.55507.96142.57825-.321a1.338,1.338,0,0,0,.71691.40285v.64036H7.48438v-.64036a2.61961,2.61961,0,0,0,.67186-.40285Z"/>
        <circle class="cls-1" cx="6.88426" cy="15.51073" r="0.74009"/>
      </g>
      <g>
        <path class="cls-1" d="M19.14183,7.63632l.55507-.96142-.55507-.32018a1.81151,1.81151,0,0,0-.00044-.80352L19.6969,5.231l-.55507-.96142-.53452.32062a2.59306,2.59306,0,0,0-.67142-.402V3.547H16.82532v.6408a1.32865,1.32865,0,0,0-.716.40242l-.56819-.32106-.56032.96142.552.32018a1.817,1.817,0,0,0-.00088.80352l-.55638.32106.55507.96142.57825-.32106a1.338,1.338,0,0,0,.71691.40286v.64036h1.11058V7.71856a2.61967,2.61967,0,0,0,.67186-.40286Z"/>
        <circle class="cls-1" cx="17.33621" cy="5.95274" r="0.74009"/>
      </g>
    </g>
    <g id="Layer_1" data-name="Layer 1">
      <path class="cls-2" d="M9.19957,21.99484V20.27225h.43065a1.85246,1.85246,0,0,0,1.72258-1.72259v-.94742s.47371-.1292.7321-.21533c.34452-.08612.38758-.43064.25839-.73209l-1.16275-2.3255a4.034,4.034,0,0,0-4.1342-3.10065,4.31913,4.31913,0,0,0-4.30647,4.30646c0,1.63646,1.29194,2.84227,1.29194,4.34954v2.11017"/>
      <path class="cls-2" d="M15.27856,12.57741V10.85482h-.43064a1.85245,1.85245,0,0,1-1.72259-1.72258V8.18481s-.47371-.12919-.7321-.21532c-.34452-.08613-.38758-.43065-.25839-.7321L13.29759,4.9119A4.034,4.034,0,0,1,17.4318,1.81124a4.31913,4.31913,0,0,1,4.30646,4.30647c0,1.63646-1.29194,2.84227-1.29194,4.34953v2.11017"/>
    </g>
    <g id="Outline_Icons" data-name="Outline Icons">
      <path class="cls-3" d="M3.73721,10.05578V7.57561A4.13229,4.13229,0,0,1,7.87082,3.442h2.929"/>
      <polyline class="cls-3" points="8.479 1.237 10.683 3.442 8.479 5.647"/>
    </g>
  </g>
</svg>
