<?xml version="1.0" encoding="UTF-8"?>
<svg xmlns="http://www.w3.org/2000/svg" viewBox="0 0 399.685 85.039">
  <g id="a" data-name="appuio_managed_rgb_safe_area"/>
  <g id="b" data-name="appuio_managed_rgb"/>
  <g id="c" data-name="appuio_managed_bg_rgb">
    <path id="d" data-name="Bildmarke" d="M395.277,.7h-77.953c-2.348,0-4.252,1.904-4.252,4.252V61.896c0,2.348,1.904,4.252,4.252,4.252h38.979v17.654l17.654-17.654h21.319c2.348,0,4.252-1.904,4.252-4.252V4.952c0-2.348-1.904-4.252-4.252-4.252Z" fill="#ffd200"/>
    <g>
      <path d="M2.243,76.794c1.444,3.655,4.249,5.949,8.329,5.949,5.27,0,6.757-3.356,6.757-5.906,0-3.867-2.465-5.312-7.097-7.352-4.505-1.955-7.649-3.698-7.649-8.287,0-4.08,3.229-7.055,7.606-7.055,3.527,0,6.035,1.487,7.564,4.335l-1.912,.978c-1.19-2.21-2.975-3.272-5.652-3.272-3.06,0-5.396,1.997-5.396,4.93,0,3.569,2.635,4.802,6.502,6.502,5.396,2.422,8.244,4.249,8.244,9.222,0,4.632-3.229,7.946-8.967,7.946-4.675,0-8.457-2.337-10.241-7.097l1.912-.893Z" fill="#fff"/>
      <path d="M24.874,54.653h16.148v2.04h-13.938v10.879h13.132v2.083h-13.132v12.578h14.236v2.04H24.874v-29.62Z" fill="#fff"/>
      <path d="M46.265,54.653h2.21v27.58h12.749v2.04h-14.959v-29.62Z" fill="#fff"/>
      <path d="M65.825,54.653h14.618v2.04h-12.409v11.007h11.347v2.04h-11.347v14.533h-2.209v-29.62Z" fill="#fff"/>
      <path d="M83.492,72.12h11.092v1.997h-11.092v-1.997Z" fill="#fff"/>
      <path d="M100.718,53.974l13.769,21.631,13.769-21.631v30.3h-2.168v-23.033l-11.601,18.104-11.602-18.104v23.033h-2.167v-30.3Z" fill="#fff"/>
      <path d="M145.533,53.847l12.791,30.427h-2.252l-3.399-8.074h-14.278l-3.4,8.074h-2.252l12.791-30.427Zm6.247,20.312l-6.247-15.043-6.247,15.043h12.494Z" fill="#fff"/>
      <path d="M162.79,53.847l20.781,25.285v-24.479h2.209v30.428l-20.78-25.285v24.478h-2.21v-30.427Z" fill="#fff"/>
      <path d="M203.037,53.847l12.791,30.427h-2.252l-3.399-8.074h-14.278l-3.4,8.074h-2.252l12.791-30.427Zm6.247,20.312l-6.247-15.043-6.247,15.043h12.494Z" fill="#fff"/>
      <path d="M232.408,54.187c3.697,0,6.927,1.147,9.477,3.187l-1.317,1.572c-2.167-1.699-4.929-2.72-8.159-2.72-7.521,0-13.088,5.737-13.088,13.26,0,7.606,5.566,13.301,13.088,13.301,3.485,0,6.63-1.147,8.967-3.272v-8.967h-9.731v-2.04h11.941v11.814c-2.89,2.848-6.799,4.505-11.177,4.505-8.541,0-15.298-6.545-15.298-15.341s6.757-15.299,15.298-15.299Z" fill="#fff"/>
      <path d="M250.011,54.653h16.147v2.04h-13.938v10.879h13.132v2.083h-13.132v12.578h14.236v2.04h-16.445v-29.62Z" fill="#fff"/>
      <path d="M271.401,54.653h8.966c9.477,0,15.299,6.035,15.299,14.832s-5.779,14.788-15.256,14.788h-9.009v-29.62Zm8.839,27.58c8.541,0,13.174-5.185,13.174-12.748,0-7.607-4.633-12.792-13.217-12.792h-6.587v25.54h6.63Z" fill="#fff"/>
    </g>
    <path id="e" data-name="APPUiO" d="M131.194,.672l-14.817,35.487h6.721l2.902-7.077h15.784l2.902,7.077h6.72L136.591,.672h-5.397Zm-3.208,23.166l5.906-14.46,5.906,14.46h-11.812ZM168.569,.672h-13.543V36.16h6.364v-12.423h7.179c5.906,0,11.558-4.735,11.558-11.507,0-7.179-5.907-11.557-11.558-11.557Zm-.305,17.311h-6.874V6.425h6.874c2.546,0,5.549,1.782,5.549,5.804,0,3.92-3.004,5.754-5.549,5.754Zm22.253,5.753h7.179c5.906,0,11.558-4.735,11.558-11.507,0-7.179-5.907-11.557-11.558-11.557h-13.543V36.16h6.364v-12.423Zm0-17.311h6.874c2.546,0,5.549,1.782,5.549,5.804,0,3.92-3.004,5.754-5.549,5.754h-6.874V6.425Zm51.235,16.14c0,9.47-6.364,14.154-14.358,14.154-8.045,0-14.409-4.684-14.409-14.154V.672h6.364V21.904c0,6.313,3.208,9.063,8.045,9.063,4.786,0,7.994-2.749,7.994-9.063V.672h6.364V22.566Zm11.759,13.594h-6.109V10.499h6.109v25.661Zm.561-32.28c0,2.037-1.681,3.615-3.615,3.615-1.986,0-3.666-1.578-3.666-3.615s1.68-3.615,3.666-3.615c1.935,0,3.615,1.578,3.615,3.615Zm22.468,32.993c10.438,0,18.787-7.943,18.787-18.38S286.978,.061,276.54,.061s-18.736,7.993-18.736,18.431,8.35,18.38,18.736,18.38Zm0-31.058c7.077,0,12.474,5.601,12.474,12.678,0,7.128-5.397,12.627-12.474,12.627s-12.474-5.448-12.474-12.627c0-7.128,5.397-12.678,12.474-12.678Z" fill="#fff"/>
  </g>
  <g id="f" data-name="appuio_managed_bg_sw"/>
  <g id="g" data-name="appuio_cloud_sw"/>
</svg>