<?xml version="1.0" encoding="UTF-8" standalone="no"?>
<svg viewBox="0 0 200 200" version="1.1" id="svg12"
    xmlns="http://www.w3.org/2000/svg"
    xmlns:svg="http://www.w3.org/2000/svg">
    <defs id="defs16" />
    <g id="Page-1" stroke="none" stroke-width="1" fill="none" fill-rule="evenodd">
        <g id="card" fill-rule="nonzero">
            <g fill="#FFFFFF" id="Oval">
                <circle cx="100" cy="100" r="100" id="circle2" />
            </g>
            <g id="g62" transform="matrix(0.59985886,0,0,0.59985886,9.9472124,74.963409)">
                <g id="a" data-name="appuio_managed_rgb_safe_area" />
                <g id="b" data-name="appuio_managed_rgb">
                    <g id="g33">
                        <path d="M 0.088,53.974 13.857,75.605 27.626,53.974 v 30.3 H 25.458 V 61.241 L 13.857,79.345 2.255,61.24 V 84.273 H 0.088 v -30.3 z" fill="#0d3047" id="path19" />
                        <path d="M 44.904,53.847 57.695,84.274 H 55.443 L 52.044,76.2 H 37.766 l -3.4,8.074 H 32.114 L 44.905,53.847 Z m 6.247,20.312 -6.247,-15.043 -6.247,15.043 z" fill="#0d3047" id="path21" />
                        <path d="M 62.16,53.847 82.941,79.132 V 54.653 H 85.15 V 85.081 L 64.37,59.796 v 24.478 h -2.21 z" fill="#0d3047" id="path23" />
                        <path d="m 102.407,53.847 12.791,30.427 h -2.252 L 109.547,76.2 H 95.269 l -3.4,8.074 h -2.252 l 12.791,-30.427 z m 6.247,20.312 -6.247,-15.043 -6.247,15.043 z" fill="#0d3047" id="path25" />
                        <path d="m 131.779,54.187 c 3.697,0 6.927,1.147 9.477,3.187 l -1.317,1.572 c -2.167,-1.699 -4.929,-2.72 -8.159,-2.72 -7.521,0 -13.088,5.737 -13.088,13.26 0,7.606 5.566,13.301 13.088,13.301 3.485,0 6.63,-1.147 8.967,-3.272 v -8.967 h -9.731 v -2.04 h 11.941 v 11.814 c -2.89,2.848 -6.799,4.505 -11.177,4.505 -8.541,0 -15.298,-6.545 -15.298,-15.341 0,-8.796 6.757,-15.299 15.298,-15.299 z" fill="#0d3047" id="path27" />
                        <path d="m 149.381,54.654 h 16.147 v 2.04 H 151.59 v 10.879 h 13.132 v 2.083 H 151.59 v 12.578 h 14.236 v 2.04 h -16.445 z" fill="#0d3047" id="path29" />
                        <path d="m 170.772,54.654 h 8.966 c 9.477,0 15.299,6.035 15.299,14.832 0,8.797 -5.779,14.788 -15.256,14.788 h -9.009 z m 8.839,27.58 c 8.541,0 13.174,-5.185 13.174,-12.748 0,-7.607 -4.633,-12.792 -13.217,-12.792 h -6.587 v 25.54 z" fill="#0d3047" id="path31" />
                    </g>
                    <path id="c" data-name="APPUiO" d="M 30.564,0.672 15.748,36.16 h 6.721 l 2.902,-7.077 h 15.784 l 2.902,7.077 h 6.72 L 35.961,0.672 Z m -3.208,23.166 5.906,-14.46 5.906,14.46 z M 67.94,0.672 H 54.397 V 36.16 h 6.364 V 23.737 h 7.179 c 5.906,0 11.558,-4.735 11.558,-11.507 C 79.498,5.051 73.591,0.673 67.94,0.673 Z M 67.635,17.983 H 60.761 V 6.425 h 6.874 c 2.546,0 5.549,1.782 5.549,5.804 0,3.92 -3.004,5.754 -5.549,5.754 z m 22.253,5.753 h 7.179 c 5.906,0 11.558,-4.735 11.558,-11.507 0,-7.179 -5.907,-11.557 -11.558,-11.557 H 83.524 V 36.16 h 6.364 V 23.737 Z m 0,-17.311 h 6.874 c 2.546,0 5.549,1.782 5.549,5.804 0,3.92 -3.004,5.754 -5.549,5.754 h -6.874 z m 51.235,16.14 c 0,9.47 -6.364,14.154 -14.358,14.154 -8.045,0 -14.409,-4.684 -14.409,-14.154 V 0.672 h 6.364 v 21.232 c 0,6.313 3.208,9.063 8.045,9.063 4.786,0 7.994,-2.749 7.994,-9.063 V 0.672 h 6.364 v 21.894 z m 11.759,13.594 h -6.109 v -25.66 h 6.109 V 36.16 Z m 0.561,-32.28 c 0,2.037 -1.681,3.615 -3.615,3.615 -1.986,0 -3.666,-1.578 -3.666,-3.615 0,-2.037 1.68,-3.615 3.666,-3.615 1.935,0 3.615,1.578 3.615,3.615 z m 22.468,32.993 c 10.438,0 18.787,-7.943 18.787,-18.38 0,-10.437 -8.35,-18.431 -18.788,-18.431 -10.438,0 -18.736,7.993 -18.736,18.431 0,10.438 8.35,18.38 18.736,18.38 z m 0,-31.058 c 7.077,0 12.474,5.601 12.474,12.678 0,7.128 -5.397,12.627 -12.474,12.627 -7.077,0 -12.474,-5.448 -12.474,-12.627 0,-7.128 5.397,-12.678 12.474,-12.678 z" fill="#0d3047" />
                    <path id="d" data-name="Bildmarke" d="m 294.647,0.7 h -77.953 c -2.348,0 -4.252,1.904 -4.252,4.252 v 56.944 c 0,2.348 1.904,4.252 4.252,4.252 h 38.979 v 17.654 l 17.654,-17.654 h 21.319 c 2.348,0 4.252,-1.904 4.252,-4.252 V 4.952 c 0,-2.348 -1.904,-4.252 -4.252,-4.252 z" fill="#ffd200" />
                </g>
                <g id="e" data-name="appuio_managed_bg_rgb" />
                <g id="f" data-name="appuio_managed_bg_sw" />
                <g id="g" data-name="appuio_cloud_sw" />
            </g>
        </g>
    </g>
</svg>
