<svg xmlns="http://www.w3.org/2000/svg" xmlns:xlink="http://www.w3.org/1999/xlink" width="200" height="200" viewBox="0 0 200 200">
  <defs>
    <clipPath id="a">
      <path d="M46.31,13.4C42.551,6.894,33.329,5.162,26.681,9c-.364.21-.713.441-1.055.68,6.436-2.676.922,5.472,4.369,11.436l1.961,3.394,16.316-7.72Z" fill="none"/>
    </clipPath>
    <symbol id="c" data-name="shatten" viewBox="0 0 75.929 11.334">
      <ellipse cx="37.965" cy="5.667" rx="37.965" ry="5.667" opacity="0.3"/>
    </symbol>
    <symbol id="d" data-name="m_tshirt_main_seite" viewBox="0 0 40.5 44.966">
      <path d="M13,.038H27.5a13,13,0,0,1,13,13v9a0,0,0,0,1,0,0H0a0,0,0,0,1,0,0v-9A13,13,0,0,1,13,.038Z" fill="#2c5871"/>
      <path d="M18.376,0h.247A13.376,13.376,0,0,1,32,13.376V44.966a0,0,0,0,1,0,0H5a0,0,0,0,1,0,0V13.376A13.376,13.376,0,0,1,18.376,0Z" fill="#1ab0be"/>
    </symbol>
    <symbol id="e" data-name="schuhe_black_seite" viewBox="0 0 16 12.81">
      <g>
        <g>
          <rect x="7" width="9" height="12" fill="#c7d1db"/>
          <rect y="11.981" width="16" height="0.828" fill="#c7d1db"/>
        </g>
        <g>
          <rect x="7" width="9" height="12"/>
          <rect y="11.981" width="16" height="0.828" fill="#c7d1db"/>
        </g>
      </g>
      <rect x="6.014" y="6" width="9.986" height="6"/>
      <path d="M6.014,6a6,6,0,0,0-6,6h12A6,6,0,0,0,6.014,6Z"/>
    </symbol>
    <symbol id="f" data-name="M_Bein_jeans" viewBox="0 0 11 50.194">
      <line x1="5.5" x2="5.5" y2="24.34" fill="none" stroke="#2d5972" stroke-miterlimit="10" stroke-width="9"/>
      <line x1="5.5" y1="24.34" x2="5.5" y2="45.694" fill="none" stroke="#2d5972" stroke-linecap="round" stroke-miterlimit="10" stroke-width="9"/>
      <line x1="5.5" y1="45.024" x2="5.5" y2="50.194" fill="none" stroke="#537e8e" stroke-miterlimit="10" stroke-width="11"/>
    </symbol>
    <symbol id="i" data-name="m_huefte_front" viewBox="0 0 26.986 15.649">
      <path d="M0,0H26.986a0,0,0,0,1,0,0V2.156A13.493,13.493,0,0,1,13.493,15.649h0A13.493,13.493,0,0,1,0,2.156V0A0,0,0,0,1,0,0Z" fill="#2c5972"/>
      <g>
        <rect width="4.597" height="2.156" fill="#1e1e1c"/>
        <rect x="5.597" width="4.597" height="2.156" fill="#1e1e1c"/>
        <rect x="11.194" width="4.597" height="2.156" fill="#1e1e1c"/>
        <rect x="16.792" width="4.597" height="2.156" fill="#1e1e1c"/>
        <rect x="22.389" width="4.597" height="2.156" fill="#1e1e1c"/>
      </g>
    </symbol>
    <symbol id="b" data-name="Kunde managed 2" viewBox="0 0 105.164 202.754">
      <use width="75.929" height="11.334" transform="translate(15.673 186.122) scale(0.907 0.943)" xlink:href="#c"/>
      <g>
        <g>
          <g>
            <g>
              <g>
                <path d="M44.554,54.348a14,14,0,0,0,4.413-1.032V61.4h-10V53.61a14.432,14.432,0,0,0,4.626.769C43.912,54.379,44.231,54.369,44.554,54.348Z" fill="#dc9161"/>
                <path d="M44.392,51.853a11.467,11.467,0,0,0,4.575-1.285v2.748a14,14,0,0,1-4.413,1.032c-.323.021-.642.031-.961.031a14.432,14.432,0,0,1-4.626-.769V50.94A12,12,0,0,0,44.392,51.853Z" fill="#c98559"/>
              </g>
              <g>
                <g>
                  <line x1="63.91" y1="80.92" x2="69.171" y2="94.164" fill="#e89a66" stroke="#e89a66" stroke-linecap="round" stroke-miterlimit="10" stroke-width="7.5"/>
                  <line x1="69.171" y1="94.164" x2="88.604" y2="100.691" fill="none" stroke="#ef9e69" stroke-linecap="round" stroke-miterlimit="10" stroke-width="7.5"/>
                  <line x1="89.68" y1="101.368" x2="99.239" y2="93.49" fill="none" stroke="#ef9e69" stroke-linecap="round" stroke-miterlimit="10" stroke-width="7.5"/>
                </g>
                <use width="40.5" height="44.966" transform="matrix(-1.25, 0, 0, 1.25, 69.28, 57.021)" xlink:href="#d"/>
              </g>
              <g>
                <g>
                  <use width="16" height="12.81" transform="matrix(-1.25, 0, 0, 1.25, 71.643, 175.771)" xlink:href="#e"/>
                  <use width="11" height="50.194" transform="matrix(-1.25, 0, 0, 1.25, 64.353, 118.484)" xlink:href="#f"/>
                </g>
                <g>
                  <use width="16" height="12.81" transform="matrix(-1.25, 0, 0, 1.25, 49.204, 175.771)" xlink:href="#e"/>
                  <use width="11" height="50.194" transform="matrix(-1.25, 0, 0, 1.25, 41.983, 118.484)" xlink:href="#f"/>
                </g>
                <use width="26.986" height="15.649" transform="matrix(-1.25, 0, 0, 1.25, 63.103, 113.271)" xlink:href="#i"/>
              </g>
            </g>
            <g>
              <path d="M65.772,105.547s19.156,96.582-40.186,96.582H0" fill="none" stroke="#ffd300" stroke-miterlimit="10" stroke-width="1.25"/>
              <g>
                <polygon points="105.164 83.401 80.428 106.542 74.196 99.533 98.932 76.392 105.164 83.401" fill="#e0b50a"/>
                <polygon points="77.014 78.227 52.278 101.368 74.196 99.533 98.932 76.392 77.014 78.227" fill="#ffd300"/>
                <polygon points="58.51 108.377 52.278 101.368 74.196 99.533 80.428 106.542 58.51 108.377" fill="#be9b07"/>
                <g>
                  <path d="M74.429,84.151A8.741,8.741,0,0,1,79.11,81.2c1.313-.119,1.373,1.017.091,2.575-1.313,1.6-3.5,2.989-4.843,3.075C73.036,86.939,73.088,85.713,74.429,84.151Z" fill="#1ab0be"/>
                  <path d="M80.583,84.212a8.553,8.553,0,0,1,4.8-3.059c1.406-.124,1.569,1.056.32,2.674-1.282,1.66-3.528,3.111-4.967,3.2C79.314,87.113,79.269,85.836,80.583,84.212Z" fill="#1ab0be"/>
                  <path d="M65.146,93.528c1.455-1.67,3.65-3.058,4.951-3.137,1.319-.08,1.268,1.209-.162,2.919-1.468,1.754-3.789,3.242-5.132,3.282C63.478,96.631,63.655,95.241,65.146,93.528Z" fill="#1ab0be"/>
                </g>
              </g>
            </g>
          </g>
          <line x1="25.098" y1="84.549" x2="25.098" y2="97.272" fill="#e89a66" stroke="#e89a66" stroke-miterlimit="10" stroke-width="7.5"/>
          <line x1="25.098" y1="97.272" x2="50.116" y2="91.693" fill="none" stroke="#ef9e69" stroke-linecap="round" stroke-miterlimit="10" stroke-width="7.5"/>
          <line x1="50.116" y1="91.693" x2="62.392" y2="93.351" fill="none" stroke="#ef9e69" stroke-linecap="round" stroke-miterlimit="10" stroke-width="7.5"/>
        </g>
        <g>
          <path d="M54.358,35.148A11.755,11.755,0,0,1,33.05,45.084l-6.108-13.1L48.25,22.049Z" fill="#ef9e69"/>
          <circle cx="48.091" cy="26.957" r="1.156"/>
          <path d="M47.1,15.543l-2.152-2.294L33.05,20.4l-1.4.654-6.177,2.88a3.846,3.846,0,0,0-2,5.054c1.505,3.228,3.827,8.209,5.8,12.431a3.846,3.846,0,0,0,5.157,1.716l.012-.005a11.894,11.894,0,0,0,7-10.874c0-.053,0-.107,0-.16A3.88,3.88,0,0,1,44.467,35L45.7,32.371s-2.8-1.917-3.394-4.08a8.636,8.636,0,0,1,.654-1.116,10.5,10.5,0,0,1,3.146-2.613C50.406,21.967,49.108,19.851,47.1,15.543Z"/>
        </g>
        <path d="M42.184,34.813a3.237,3.237,0,0,1-.19,4.542,3.237,3.237,0,0,1-4.449-.934,3.237,3.237,0,0,1,.19-4.542A3.235,3.235,0,0,1,42.184,34.813Z" fill="#ef9e69"/>
        <g>
          <g>
            <path d="M46.337,13.511c-3.681-6.55-12.882-8.392-19.575-4.63s-9.925,12.541-6.243,19.091l1.585,2.82L48.258,16.928Z" fill="#2c5871"/>
            <path d="M46.337,13.511c-3.681-6.55-12.882-8.392-19.575-4.63-.367.206-.718.433-1.063.668,6.467-2.6,14.477-.566,17.852,5.439l1.921,3.417,2.786-1.477Z" fill="#23475c"/>
            <polygon points="48.258 16.928 49.074 18.381 48.294 16.909 48.258 16.928" fill="#bf292e"/>
            <polygon points="22.099 30.795 22.879 32.266 22.92 32.244 22.104 30.792 22.099 30.795" fill="#bf292e"/>
            <polygon points="21.685 30 20.547 33.503 49.074 18.381 47.839 16.137 21.685 30" fill="#23475c"/>
          </g>
          <path d="M45.756,13.213l3.318,5.168,6.978-3.7S50.946,10.66,45.756,13.213Z" fill="#23475c"/>
          <g clip-path="url(#a)">
            <g>
              <path d="M54.188.071A67.4,67.4,0,0,0,36.921,9.255a.752.752,0,0,0-.13,1.13q1.8,2.048,3.414,4.188a.826.826,0,0,0,1.133.2A60.387,60.387,0,0,1,53.5,8.084c.229.439.456.877.676,1.316q.2-.874.407-1.748,1.5-.583,3.062-1.1a.794.794,0,0,0,.532-1.069q-1.2-2.518-2.606-5A1.186,1.186,0,0,0,54.188.071Z" fill="gold"/>
              <g>
                <path d="M39.186,9.066q.47,1.738.915,3.482c.176-.125.352-.251.531-.374-.059-.232-.119-.463-.177-.694q.635-.441,1.284-.867c.215.128.427.257.64.387q.276-.178.555-.356-1.6-.982-3.3-1.885C39.485,8.861,39.336,8.964,39.186,9.066Zm1.123,1.909c-.123-.472-.246-.942-.373-1.414q.678.373,1.338.761Q40.787,10.645,40.309,10.975Z" fill="#0b2f46"/>
                <path d="M42.375,7c-.4.24-.788.485-1.176.731q1.056,1.347,2.037,2.723c.177-.11.357-.22.535-.329-.226-.323-.456-.646-.69-.966.2-.125.409-.249.616-.373a1.032,1.032,0,0,0,.363-1.493A1.287,1.287,0,0,0,42.375,7Zm.972,1.353c-.2.12-.4.24-.592.361-.22-.3-.443-.594-.668-.888q.3-.186.6-.367a.609.609,0,0,1,.819.159A.488.488,0,0,1,43.347,8.353Z" fill="#0b2f46"/>
                <path d="M45.621,7.681c.212-.12.426-.236.642-.35a1.019,1.019,0,0,0,.429-1.478,1.32,1.32,0,0,0-1.7-.357q-.62.337-1.228.687,1.023,1.385,1.969,2.8l.559-.309Q45.959,8.176,45.621,7.681Zm-.96-1.371c.207-.116.413-.229.623-.343a.633.633,0,0,1,.828.19.486.486,0,0,1-.189.729c-.207.111-.413.223-.618.338C45.093,6.918,44.877,6.613,44.661,6.31Z" fill="#0b2f46"/>
                <path d="M49.14,3.415c-.206.095-.411.189-.615.285q.575.87,1.121,1.746a.676.676,0,0,1-.286,1.1.877.877,0,0,1-1.217-.381Q47.584,5.3,47,4.443c-.2.1-.4.2-.6.3.4.587.8,1.174,1.189,1.766a1.522,1.522,0,0,0,2.06.507,1.176,1.176,0,0,0,.635-1.795Q49.727,4.317,49.14,3.415Z" fill="#0b2f46"/>
                <path d="M50.8,3.718l-.595.261q.667,1.065,1.294,2.142l.583-.25Q51.465,4.791,50.8,3.718Z" fill="#0b2f46"/>
                <path d="M49.967,3a.313.313,0,0,0-.166.459.439.439,0,0,0,.547.142.313.313,0,0,0,.165-.456A.449.449,0,0,0,49.967,3Z" fill="#0b2f46"/>
                <path d="M54.354,5.035a1.6,1.6,0,0,0,1.019-2.274A2.292,2.292,0,0,0,52.555,1.9a1.57,1.57,0,0,0-.927,2.314A2.252,2.252,0,0,0,54.354,5.035ZM52.848,2.383a1.542,1.542,0,0,1,1.883.608,1.061,1.061,0,0,1-.647,1.55,1.507,1.507,0,0,1-1.842-.587A1.057,1.057,0,0,1,52.848,2.383Z" fill="#0b2f46"/>
              </g>
              <g>
                <path d="M40.832,13.423a.229.229,0,0,0,.237-.02c.088-.063.073-.132.051-.162-.046-.054-.115-.039-.216-.014-.13.037-.253.056-.334-.059a.22.22,0,0,1,.075-.318.289.289,0,0,1,.284-.041c-.016.039-.03.078-.044.116a.175.175,0,0,0-.161.027c-.052.04-.07.085-.04.131.043.062.1.032.231,0,.159-.037.247-.027.322.071s.062.242-.092.352a.334.334,0,0,1-.362.033Z" fill="#0b2f46"/>
                <path d="M40.939,12.661l.117-.082c.151.112.3.224.455.338-.06-.175-.119-.351-.18-.526.03-.022.061-.042.092-.063l.456.338c-.059-.175-.119-.351-.178-.527l.117-.079c.091.26.179.523.268.783-.032.023-.064.043-.095.065l-.458-.338.174.531-.094.064C41.391,13,41.165,12.828,40.939,12.661Z" fill="#0b2f46"/>
                <path d="M41.919,11.993l.122-.082c.159.216.314.432.468.65-.041.027-.081.053-.121.081C42.233,12.426,42.077,12.209,41.919,11.993Z" fill="#0b2f46"/>
                <path d="M42.573,12.237a.234.234,0,0,0,.242-.014c.1-.056.076-.131.056-.161-.043-.057-.116-.04-.219-.02-.139.036-.258.048-.338-.068a.216.216,0,0,1,.086-.315.294.294,0,0,1,.289-.033c-.015.039-.031.076-.047.114a.166.166,0,0,0-.165.022.094.094,0,0,0-.044.13c.041.06.1.032.235.008.157-.036.252-.023.324.079s.052.248-.1.35a.334.334,0,0,1-.369.023C42.538,12.313,42.554,12.275,42.573,12.237Z" fill="#0b2f46"/>
                <path d="M43.154,11.86a.236.236,0,0,0,.244-.011c.094-.062.08-.132.057-.161-.04-.06-.115-.044-.219-.023-.136.032-.255.045-.34-.071a.219.219,0,0,1,.091-.314.319.319,0,0,1,.29-.03c-.016.037-.032.076-.049.114a.173.173,0,0,0-.165.02c-.05.035-.075.092-.046.13.042.066.1.034.236.01.159-.036.257-.016.326.082s.056.247-.109.349a.353.353,0,0,1-.37.019C43.118,11.936,43.137,11.9,43.154,11.86Z" fill="#0b2f46"/>
                <path d="M44.127,10.571a.465.465,0,0,1,.365-.052c-.014.041-.027.082-.04.123a.32.32,0,0,0-.25.036.263.263,0,0,0-.088.388.3.3,0,0,0,.409.084.261.261,0,0,0,.14-.2l.133.019a.42.42,0,0,1-.2.29.449.449,0,0,1-.608-.115A.4.4,0,0,1,44.127,10.571Z" fill="#0b2f46"/>
                <path d="M44.85,10.14a.452.452,0,0,1,.615.125.393.393,0,0,1-.151.57.456.456,0,0,1-.609-.124A.394.394,0,0,1,44.85,10.14Zm.392.585a.27.27,0,0,0,.1-.386.306.306,0,0,0-.415-.091.267.267,0,0,0-.091.388A.3.3,0,0,0,45.242,10.725Z" fill="#0b2f46"/>
                <path d="M45.375,9.85c.038-.023.076-.044.115-.066.232.082.464.165.694.25-.1-.158-.2-.315-.307-.469.041-.024.084-.049.128-.072.147.226.294.45.44.678-.036.019-.071.038-.107.059q-.351-.13-.706-.256c.105.16.21.318.313.478l-.125.071C45.673,10.3,45.524,10.074,45.375,9.85Z" fill="#0b2f46"/>
                <path d="M46.381,9.433l-.2.111c-.025-.036-.048-.073-.073-.11.177-.1.354-.2.534-.294.025.037.048.074.072.111l-.2.11q.184.285.366.57L46.748,10Q46.567,9.717,46.381,9.433Z" fill="#0b2f46"/>
                <path d="M46.93,8.986l.113-.061q.375.256.745.52l-.142.074L47.5,9.414l-.331.177c.009.055.017.113.026.169-.047.025-.094.049-.139.075Q46.995,9.41,46.93,8.986Zm.465.349-.3-.212.053.345Z" fill="#0b2f46"/>
                <path d="M47.468,8.7l.135-.071q.217.345.43.688c-.044.023-.09.046-.134.07C47.757,9.158,47.613,8.928,47.468,8.7Z" fill="#0b2f46"/>
                <path d="M47.788,8.533l.12-.061c.234.09.467.182.7.274-.1-.16-.2-.32-.3-.48l.133-.066c.142.23.284.46.424.692l-.111.055c-.237-.095-.472-.188-.71-.281.1.163.2.325.3.489-.043.021-.088.044-.131.067C48.076,8.991,47.932,8.763,47.788,8.533Z" fill="#0b2f46"/>
                <path d="M48.629,8.105l.491-.241.068.113-.352.172.1.166.33-.161c.022.038.044.075.067.112l-.329.162c.039.063.077.128.116.191.119-.06.237-.117.359-.175.022.036.044.075.067.114l-.494.242Q48.843,8.451,48.629,8.105Z" fill="#0b2f46"/>
                <path d="M49.286,7.783c.1-.049.2-.1.3-.145a.3.3,0,0,1,.386.1.225.225,0,0,1-.024.266L50.3,8.2l-.157.073c-.105-.057-.209-.113-.312-.171h0c-.045.023-.09.043-.135.065.05.082.1.166.148.249-.047.021-.092.044-.138.066C49.567,8.248,49.427,8.016,49.286,7.783Zm.49.2a.115.115,0,0,0,.059-.175.134.134,0,0,0-.182-.055l-.16.076.135.225Z" fill="#0b2f46"/>
                <path d="M50.482,7.219c.1-.047.2-.092.3-.138a.3.3,0,0,1,.391.116.241.241,0,0,1-.124.344c-.054.023-.1.048-.159.072.047.083.095.165.143.248l-.141.063C50.757,7.689,50.621,7.454,50.482,7.219Zm.495.211a.117.117,0,0,0,.057-.171.154.154,0,0,0-.191-.06l-.152.069c.044.077.089.153.134.23Z" fill="#0b2f46"/>
                <path d="M51.166,6.91l.143-.063c.115.2.227.395.34.594l.315-.137c.022.038.043.078.065.115l-.457.2C51.438,7.382,51.3,7.146,51.166,6.91Z" fill="#0b2f46"/>
                <path d="M52.05,6.524c.041-.016.081-.035.122-.051q.37.285.734.575c-.051.02-.1.043-.151.063-.049-.038-.1-.076-.145-.116-.118.051-.238.1-.356.151.006.058.01.114.015.171-.05.021-.1.044-.151.064C52.1,7.1,52.074,6.81,52.05,6.524Zm.456.385-.3-.236c.011.117.02.233.03.348C52.329,6.983,52.417,6.945,52.506,6.909Z" fill="#0b2f46"/>
                <path d="M52.768,6.367l-.22.09c-.021-.039-.042-.077-.065-.116q.291-.122.586-.241c.021.039.042.079.064.116l-.22.09.331.6-.145.06C52.989,6.767,52.88,6.567,52.768,6.367Z" fill="#0b2f46"/>
                <path d="M53.184,6.053l.5-.2c.022.039.041.078.063.117l-.349.139c.034.06.067.121.1.181l.317-.127.063.118-.316.126.164.307c-.048.019-.1.038-.144.058Q53.382,6.413,53.184,6.053Z" fill="#0b2f46"/>
                <path d="M54.2,5.636a.517.517,0,0,1,.64.212.384.384,0,0,1-.239.543.515.515,0,0,1-.632-.209A.38.38,0,0,1,54.2,5.636Zm.339.636a.256.256,0,0,0,.153-.369.347.347,0,0,0-.428-.149.258.258,0,0,0-.15.371A.339.339,0,0,0,54.539,6.272Z" fill="#0b2f46"/>
                <path d="M54.8,5.423l.323-.12a.317.317,0,0,1,.393.133.219.219,0,0,1-.044.264l.352.219-.169.061-.311-.2h0l-.145.053c.045.087.09.174.134.261l-.148.055C55.057,5.91,54.929,5.667,54.8,5.423Zm.493.239a.116.116,0,0,0,.076-.169.15.15,0,0,0-.186-.07l-.171.063.123.235Z" fill="#0b2f46"/>
                <path d="M55.575,5.139c.042-.015.087-.03.129-.046.171.1.342.2.513.306.029-.174.06-.346.09-.519.044-.014.086-.03.129-.045.126.247.249.493.372.739l-.143.049-.251-.5c-.03.163-.06.327-.089.489-.162-.095-.323-.192-.485-.286.085.166.169.332.254.5l-.142.05C55.828,5.628,55.7,5.382,55.575,5.139Z" fill="#0b2f46"/>
              </g>
            </g>
          </g>
        </g>
      </g>
      <path d="M50,35.368c.533,1.168,2.582,1.376,4.578.466.02-.009.036-.021.056-.03l-.962-2.11Z" fill="#ca875a"/>
    </symbol>
  </defs>
  <g>
    <circle cx="100" cy="100" r="100" fill="#fff"/>
    <use width="105.164" height="202.754" transform="translate(50.52 9.763) scale(0.863)" xlink:href="#b"/>
  </g>
</svg>
