<svg xmlns="http://www.w3.org/2000/svg" class="header_image" id="angebot_managed_image" xmlns:xlink="http://www.w3.org/1999/xlink" viewBox="0 0 1280 564">
  <defs>
    <clipPath id="a">
      <rect x="-693.466" width="673.466" height="316.484" fill="none"/>
    </clipPath>
    <clipPath id="b">
      <rect x="345.423" width="506.311" height="296.256" fill="none"/>
    </clipPath>
    <clipPath id="c">
      <rect x="606.534" width="673.466" height="316.484" fill="none"/>
    </clipPath>
    <clipPath id="d">
      <path d="M204.715,276.909c-3.245-5.615-11.205-7.109-16.942-3.794-.314.182-.616.382-.911.588,5.555-2.31.8,4.722,3.77,9.87l1.693,2.93,14.083-6.664Z" fill="none"/>
    </clipPath>
    <clipPath id="e">
      <rect x="-693.466" y="584" width="673.466" height="316.484" fill="none"/>
    </clipPath>
    <symbol id="g" data-name="schuhe_black_seite" viewBox="0 0 16 12.81">
      <g>
        <g>
          <rect x="7" width="9" height="12" fill="#c7d1db"/>
          <rect y="11.981" width="16" height="0.828" fill="#c7d1db"/>
        </g>
        <g>
          <rect x="7" width="9" height="12"/>
          <rect y="11.981" width="16" height="0.828" fill="#c7d1db"/>
        </g>
      </g>
      <rect x="6.014" y="6" width="9.986" height="6"/>
      <path d="M6.014,6a6,6,0,0,0-6,6h12A6,6,0,0,0,6.014,6Z"/>
    </symbol>
    <symbol id="h" data-name="M_Bein_jeans 6" viewBox="0 0 11 50.194">
      <line x1="5.5" x2="5.5" y2="24.34" fill="none" stroke="#010202" stroke-miterlimit="10" stroke-width="9"/>
      <line x1="5.5" y1="24.34" x2="5.5" y2="47.803" fill="none" stroke="#010202" stroke-miterlimit="10" stroke-width="9"/>
      <line x1="5.5" y1="46.317" x2="5.5" y2="50.194" fill="none" stroke="#838383" stroke-miterlimit="10" stroke-width="11"/>
    </symbol>
    <symbol id="j" data-name="M_Bein_jeans 5" viewBox="0 0 11 50.194">
      <line x1="5.5" x2="5.5" y2="24.34" fill="none" stroke="#585e61" stroke-miterlimit="10" stroke-width="9"/>
      <line x1="5.5" y1="24.34" x2="5.5" y2="47.803" fill="none" stroke="#585e61" stroke-miterlimit="10" stroke-width="9"/>
      <line x1="5.5" y1="46.317" x2="5.5" y2="50.194" fill="none" stroke="#9b9b9a" stroke-miterlimit="10" stroke-width="11"/>
    </symbol>
    <symbol id="k" data-name="m_huefte_grayjeans_front" viewBox="0 0 26.986 15.649">
      <path d="M0,0H26.986a0,0,0,0,1,0,0V2.156A13.493,13.493,0,0,1,13.493,15.649h0A13.493,13.493,0,0,1,0,2.156V0A0,0,0,0,1,0,0Z" fill="#585e61"/>
      <polygon points="23.221 0 22.389 0 4.597 0 3.387 0 0 0 0 2.156 3.387 2.156 4.597 2.156 22.389 2.156 23.221 2.156 26.986 2.156 26.986 0 23.221 0" fill="#313638"/>
    </symbol>
    <symbol id="l" data-name="shatten" viewBox="0 0 75.929 11.334">
      <ellipse cx="37.965" cy="5.667" rx="37.965" ry="5.667" opacity="0.3"/>
    </symbol>
    <symbol id="f" data-name="kunde 3" viewBox="0 0 68.887 188.182">
      <g>
        <g>
          <g>
            <path d="M30.917,47.284a13.967,13.967,0,0,0,4.414-1.032v8.081h-10V46.547a14.431,14.431,0,0,0,4.626.768C30.275,47.315,30.594,47.306,30.917,47.284Z" fill="#dc9161"/>
            <path d="M30.756,44.789a11.471,11.471,0,0,0,4.575-1.284v2.747a13.967,13.967,0,0,1-4.414,1.032c-.323.022-.642.031-.96.031a14.431,14.431,0,0,1-4.626-.768v-2.67A11.983,11.983,0,0,0,30.756,44.789Z" fill="#c98559"/>
          </g>
          <path d="M15.643,106.165h33.75V66.678a16.72,16.72,0,0,0-16.72-16.72h-.309a16.72,16.72,0,0,0-16.721,16.72Z" fill="#9c6f84"/>
          <g>
            <g>
              <use width="16" height="12.81" transform="matrix(-1.25, 0, 0, 1.25, 51.757, 168.708)" xlink:href="#g"/>
              <use width="11" height="50.194" transform="matrix(-1.25, 0, 0, 1.25, 44.466, 111.42)" xlink:href="#h"/>
            </g>
            <g>
              <use width="16" height="12.81" transform="matrix(-1.25, 0, 0, 1.25, 43.068, 168.708)" xlink:href="#g"/>
              <use width="11" height="50.194" transform="matrix(-1.25, 0, 0, 1.25, 35.847, 111.42)" xlink:href="#j"/>
            </g>
            <use width="26.986" height="15.649" transform="matrix(-1.25, 0, 0, 1.25, 49.466, 106.207)" xlink:href="#k"/>
          </g>
        </g>
        <g>
          <path d="M40.721,28.084A11.755,11.755,0,1,1,19.414,38.02l-6.108-13.1,21.307-9.935Z" fill="#ef9e69"/>
          <circle cx="34.454" cy="19.893" r="1.156"/>
          <path d="M28.572,21.086c-1.206,2.344,1.22,4.4.072,7.056a7.918,7.918,0,0,1-3.856,4.008,7.6,7.6,0,0,1-3.671.7c-1.334-.08,2.131-.392,1.281.861-1.535,2.262-2.08,6.436-.141,8.393a9.618,9.618,0,0,0-1.855-.859,19.419,19.419,0,0,1-2.14-1.321,20.363,20.363,0,0,1-3.613-3.3c-2.232-2.588-3.312-5.6-4.759-8.641-1-2.105-2.717-3.846-3.782-5.923a10.605,10.605,0,0,1-.083-9.535c2.054-4.064,6.069-4.386,9.52-6.559,2.746-1.728,4.853-4.758,8.1-5.585,8.419-2.143,20.969,5.073,15.716,13.2-.351.544-1.9,1.135-3.416,1.552a10.635,10.635,0,0,0-5.408,3.54Z" fill="#4f2b13"/>
        </g>
        <path d="M25.09,29.555A3.236,3.236,0,0,1,24.9,34.1a3.236,3.236,0,0,1-4.449-.933,3.238,3.238,0,0,1,.19-4.543A3.237,3.237,0,0,1,25.09,29.555Z" fill="#ef9e69"/>
        <g>
          <polyline points="31.297 59.994 34.721 92.08 62.096 120.516" fill="none" stroke="#ef9e69" stroke-linecap="round" stroke-linejoin="round" stroke-width="10.153"/>
          <line x1="31.297" y1="59.994" x2="34.721" y2="92.08" fill="none" stroke="#af7c95" stroke-linecap="round" stroke-linejoin="round" stroke-width="10.153"/>
          <polyline points="32.518 71.442 34.721 92.08 57.473 115.713" fill="none" stroke="#af7c95" stroke-linejoin="round" stroke-width="10.153"/>
        </g>
      </g>
      <use width="75.929" height="11.334" transform="translate(0 177.494) scale(0.907 0.943)" xlink:href="#l"/>
      <path d="M36.1,27.714c.532,1.167,2.582,1.375,4.577.465.02-.009.037-.02.057-.03l-.963-2.11Z" fill="#ca875a"/>
    </symbol>
    <symbol id="m" data-name="container_Zeilen" viewBox="0 0 136.991 123.475">
      <path d="M56.986,120.532,67.254,19.656a.268.268,0,0,1,.5,0L78.826,120.532" fill="none" stroke="#4d4d4d" stroke-miterlimit="10"/>
      <g>
        <g>
          <rect y="51.848" width="136.991" height="68.063" fill="#81d4dc"/>
          <g>
            <rect x="4.033" y="55.881" width="128.925" height="59.997" fill="#1d1d1b" opacity="0.05"/>
            <path d="M131.344,57.494v56.77H5.646V57.494h125.7m1.614-1.613H4.033v60H132.958v-60Z" fill="#1d1d1b" opacity="0.1"/>
          </g>
        </g>
        <g>
          <g>
            <path d="M68.871,60.609a2.143,2.143,0,0,0-2.143,2.144V109.72a2.144,2.144,0,0,0,4.287,0V62.753a2.143,2.143,0,0,0-2.144-2.144Z" fill="#7dadba"/>
            <path d="M58.192,60.609a2.143,2.143,0,0,0-2.143,2.144V109.72a2.143,2.143,0,0,0,4.286,0V62.753a2.143,2.143,0,0,0-2.143-2.144Z" fill="#7dadba"/>
            <path d="M47.55,60.609a2.143,2.143,0,0,0-2.143,2.144V109.72a2.143,2.143,0,0,0,4.286,0V62.753a2.192,2.192,0,0,0-2.143-2.144Z" fill="#7dadba"/>
            <path d="M36.871,60.609a2.143,2.143,0,0,0-2.144,2.144V109.72a2.144,2.144,0,0,0,4.287,0V62.753a2.167,2.167,0,0,0-2.143-2.144Z" fill="#7dadba"/>
            <path d="M111.589,60.609a2.143,2.143,0,0,0-2.143,2.144V109.72a2.144,2.144,0,0,0,4.287,0V62.753a2.193,2.193,0,0,0-2.144-2.144Z" fill="#7dadba"/>
            <path d="M122.231,60.609a2.143,2.143,0,0,0-2.143,2.144V109.72a2.143,2.143,0,0,0,4.286,0V62.753a2.143,2.143,0,0,0-2.143-2.144Z" fill="#7dadba"/>
            <path d="M26.191,60.609a2.143,2.143,0,0,0-2.143,2.144V109.72a2.144,2.144,0,0,0,4.287,0V62.753a2.168,2.168,0,0,0-2.144-2.144Z" fill="#7dadba"/>
            <path d="M15.512,60.609a2.143,2.143,0,0,0-2.144,2.144V109.72a2.144,2.144,0,0,0,4.287,0V62.753a2.143,2.143,0,0,0-2.143-2.144Z" fill="#7dadba"/>
            <path d="M100.91,60.609a2.143,2.143,0,0,0-2.144,2.144V109.72a2.144,2.144,0,0,0,4.287,0V62.753a2.167,2.167,0,0,0-2.143-2.144Z" fill="#7dadba"/>
            <path d="M90.23,60.609a2.143,2.143,0,0,0-2.143,2.144V109.72a2.144,2.144,0,0,0,4.287,0V62.753a2.168,2.168,0,0,0-2.144-2.144Z" fill="#7dadba"/>
            <path d="M79.551,60.609a2.143,2.143,0,0,0-2.144,2.144V109.72a2.143,2.143,0,0,0,2.144,2.143,2.119,2.119,0,0,0,2.143-2.143V62.753a2.167,2.167,0,0,0-2.143-2.144Z" fill="#7dadba"/>
          </g>
          <g>
            <path d="M68.5,60.233a2.143,2.143,0,0,0-2.143,2.144v46.967a2.144,2.144,0,0,0,4.287,0V62.377A2.143,2.143,0,0,0,68.5,60.233Z" fill="#91eaf3"/>
            <path d="M57.816,60.233a2.143,2.143,0,0,0-2.144,2.144v46.967a2.144,2.144,0,0,0,4.287,0V62.377a2.143,2.143,0,0,0-2.143-2.144Z" fill="#91eaf3"/>
            <path d="M47.174,60.233a2.143,2.143,0,0,0-2.143,2.144v46.967a2.143,2.143,0,0,0,4.286,0V62.377a2.192,2.192,0,0,0-2.143-2.144Z" fill="#91eaf3"/>
            <path d="M36.495,60.233a2.143,2.143,0,0,0-2.144,2.144v46.967a2.144,2.144,0,0,0,4.287,0V62.377a2.167,2.167,0,0,0-2.143-2.144Z" fill="#91eaf3"/>
            <path d="M111.213,60.233a2.143,2.143,0,0,0-2.143,2.144v46.967a2.144,2.144,0,0,0,4.287,0V62.377a2.193,2.193,0,0,0-2.144-2.144Z" fill="#91eaf3"/>
            <path d="M121.855,60.233a2.143,2.143,0,0,0-2.143,2.144v46.967a2.143,2.143,0,0,0,4.286,0V62.377a2.143,2.143,0,0,0-2.143-2.144Z" fill="#91eaf3"/>
            <path d="M25.815,60.233a2.143,2.143,0,0,0-2.143,2.144v46.967a2.143,2.143,0,1,0,4.286,0V62.377a2.166,2.166,0,0,0-2.143-2.144Z" fill="#91eaf3"/>
            <path d="M15.136,60.233a2.143,2.143,0,0,0-2.144,2.144v46.967a2.144,2.144,0,0,0,4.287,0V62.377a2.143,2.143,0,0,0-2.143-2.144Z" fill="#91eaf3"/>
            <path d="M100.534,60.233a2.143,2.143,0,0,0-2.144,2.144v46.967a2.144,2.144,0,0,0,4.287,0V62.377a2.167,2.167,0,0,0-2.143-2.144Z" fill="#91eaf3"/>
            <path d="M89.854,60.233a2.143,2.143,0,0,0-2.143,2.144v46.967a2.144,2.144,0,0,0,4.287,0V62.377a2.168,2.168,0,0,0-2.144-2.144Z" fill="#91eaf3"/>
            <path d="M79.175,60.233a2.143,2.143,0,0,0-2.144,2.144v46.967a2.142,2.142,0,0,0,2.144,2.143,2.119,2.119,0,0,0,2.143-2.143V62.377a2.167,2.167,0,0,0-2.143-2.144Z" fill="#91eaf3"/>
          </g>
        </g>
      </g>
      <path d="M26.3,120.532,66.564,19.656a.267.267,0,0,1,.5,0l41.075,100.878" fill="none" stroke="#4d4d4d" stroke-miterlimit="10"/>
      <polygon points="61.135 0 72.486 0 66.814 9.275 61.135 0" fill="#ffd301"/>
      <path d="M70.983,14.867a4.172,4.172,0,1,1-4.173-4.174V8.626" fill="none" stroke="#4d4d4d" stroke-miterlimit="10"/>
      <polygon points="18.103 120 18.103 123.475 117.708 123.475 117.708 123.475 117.708 120 18.103 120" fill="#367089"/>
    </symbol>
    <symbol id="o" data-name="m_tshirt_main_seite" viewBox="0 0 40.5 44.966">
      <path d="M13,.038H27.5a13,13,0,0,1,13,13v9a0,0,0,0,1,0,0H0a0,0,0,0,1,0,0v-9A13,13,0,0,1,13,.038Z" fill="#2c5871"/>
      <path d="M18.376,0h.247A13.376,13.376,0,0,1,32,13.376V44.966a0,0,0,0,1,0,0H5a0,0,0,0,1,0,0V13.376A13.376,13.376,0,0,1,18.376,0Z" fill="#1ab0be"/>
    </symbol>
    <symbol id="q" data-name="M_Bein_jeans" viewBox="0 0 11 50.194">
      <line x1="5.5" x2="5.5" y2="24.34" fill="none" stroke="#2d5972" stroke-miterlimit="10" stroke-width="9"/>
      <line x1="5.5" y1="24.34" x2="5.5" y2="45.694" fill="none" stroke="#2d5972" stroke-linecap="round" stroke-miterlimit="10" stroke-width="9"/>
      <line x1="5.5" y1="45.024" x2="5.5" y2="50.194" fill="none" stroke="#537e8e" stroke-miterlimit="10" stroke-width="11"/>
    </symbol>
    <symbol id="t" data-name="m_huefte_front" viewBox="0 0 26.986 15.649">
      <path d="M0,0H26.986a0,0,0,0,1,0,0V2.156A13.493,13.493,0,0,1,13.493,15.649h0A13.493,13.493,0,0,1,0,2.156V0A0,0,0,0,1,0,0Z" fill="#2c5972"/>
      <g>
        <rect width="4.597" height="2.156" fill="#1e1e1c"/>
        <rect x="5.597" width="4.597" height="2.156" fill="#1e1e1c"/>
        <rect x="11.194" width="4.597" height="2.156" fill="#1e1e1c"/>
        <rect x="16.792" width="4.597" height="2.156" fill="#1e1e1c"/>
        <rect x="22.389" width="4.597" height="2.156" fill="#1e1e1c"/>
      </g>
    </symbol>
  </defs>
  <g>
    <g clip-path="url(#a)">
      <path d="M-87.061,104.759A85.57,85.57,0,0,0-63.7,148.111a85.711,85.711,0,0,0,121.344,0,86.026,86.026,0,0,0,0-121.53A85.72,85.72,0,0,0-32.475,6.608,65.18,65.18,0,0,0-42.524-6.361a64.929,64.929,0,0,0-91.926,0,65.176,65.176,0,0,0-10.226,13.27A78.9,78.9,0,0,0-165.63-30.437a79.03,79.03,0,0,0-111.888,0,79.323,79.323,0,0,0,0,112.06,79.032,79.032,0,0,0,111.888,0,79.128,79.128,0,0,0,15.365-21.655A64.846,64.846,0,0,0-134.45,85.707,64.762,64.762,0,0,0-87.061,104.759Z" fill="#fff" fill-rule="evenodd" opacity="0.3"/>
    </g>
    <use width="68.887" height="188.182" transform="translate(-1255.774 363.936) scale(0.653)" xlink:href="#f"/>
  </g>
  <g>
    <rect width="1280" height="564" fill="#a7e4f2"/>
    <rect y="346" width="1280" height="218" fill="#002f47"/>
    <g>
      <polygon points="1280 346.966 596.018 346.966 775.878 314.142 833.029 328.147 1033.248 291.323 1206.832 312.984 1280 287.575 1280 346.966" fill="#81b4c4"/>
      <polygon points="1256.575 297.795 1265.938 277 1275.301 297.795 1256.575 297.795" fill="#a7ced1"/>
      <polygon points="1249.892 302.196 1257.417 286.21 1264.941 302.196 1249.892 302.196" fill="#c0e1e3"/>
      <polygon points="687.451 347 0 347 0 327.355 176.632 300.08 687.451 347" fill="#81b4c4"/>
      <polygon points="92.198 303.205 85.127 321.673 99.268 321.673 92.198 303.205" fill="#a7ced1"/>
      <g>
        <polygon points="489.926 319.006 484.222 333.905 495.63 333.905 489.926 319.006" fill="#c0e1e3"/>
        <polygon points="481.944 316.695 473.482 338.798 490.407 338.798 481.944 316.695" fill="#a7ced1"/>
      </g>
      <polygon points="334.914 298.92 326.103 321.933 343.726 321.933 334.914 298.92" fill="#c0e1e3"/>
      <polygon points="1159.028 310.531 1153.324 325.429 1164.732 325.429 1159.028 310.531" fill="#c0e1e3"/>
      <polygon points="1151.113 299.375 1142.65 321.478 1159.575 321.478 1151.113 299.375" fill="#a7ced1"/>
      <g>
        <circle cx="782.685" cy="319.585" r="11.375" fill="#c2d64c"/>
        <g>
          <line x1="782.58" y1="320.38" x2="777.114" y2="315.29" fill="none" stroke="#002f47" stroke-linecap="round" stroke-miterlimit="10" stroke-width="0.75"/>
          <line x1="789.307" y1="317.126" x2="782.685" y2="325.162" fill="none" stroke="#002f47" stroke-linecap="round" stroke-miterlimit="10" stroke-width="0.75"/>
          <line x1="782.685" y1="347" x2="782.685" y2="315.007" fill="none" stroke="#002f47" stroke-linecap="round" stroke-miterlimit="10" stroke-width="0.75"/>
        </g>
      </g>
      <g>
        <circle cx="1253.916" cy="319.585" r="11.375" fill="#b8c445"/>
        <g>
          <line x1="1254.021" y1="320.38" x2="1259.487" y2="315.29" fill="none" stroke="#002f47" stroke-linecap="round" stroke-miterlimit="10" stroke-width="0.75"/>
          <line x1="1247.294" y1="317.126" x2="1253.916" y2="325.162" fill="none" stroke="#002f47" stroke-linecap="round" stroke-miterlimit="10" stroke-width="0.75"/>
          <line x1="1253.916" y1="347" x2="1253.916" y2="315.007" fill="none" stroke="#002f47" stroke-linecap="round" stroke-miterlimit="10" stroke-width="0.75"/>
        </g>
      </g>
      <g>
        <circle cx="1240.937" cy="325.416" r="8.955" fill="#c2d64c"/>
        <g>
          <line x1="1240.854" y1="326.042" x2="1236.551" y2="322.034" fill="none" stroke="#002f47" stroke-linecap="round" stroke-miterlimit="10" stroke-width="0.75"/>
          <line x1="1246.151" y1="323.48" x2="1240.937" y2="327.952" fill="none" stroke="#002f47" stroke-linecap="round" stroke-miterlimit="10" stroke-width="0.75"/>
          <line x1="1240.937" y1="347" x2="1240.937" y2="321.811" fill="none" stroke="#002f47" stroke-linecap="round" stroke-miterlimit="10" stroke-width="0.75"/>
        </g>
      </g>
    </g>
    <g clip-path="url(#b)">
      <g>
        <g id="container-2">
          <polyline points="445.72 86.936 445.72 121.912 437.9 121.912 437.9 86.936" fill="none" stroke="#4d4d4d" stroke-miterlimit="10"/>
          <use width="136.991" height="123.475" transform="translate(375.114 120.862)" xlink:href="#m"/>
        </g>
        <path d="M700.9-62.814a64.99,64.99,0,0,0-91.893,0q-.312.312-.62.628-1.278-1.554-2.73-3.008-.753-.753-1.534-1.458A43.11,43.11,0,0,0,573.007-79.88,43.255,43.255,0,0,0,530.88-46.4a23.669,23.669,0,0,0-21.916,23.6A23.672,23.672,0,0,0,532.636.875a23.556,23.556,0,0,0,13.1-3.953,43.06,43.06,0,0,0,27.276,9.693,43.045,43.045,0,0,0,19.129-4.46c.2-.082.4-.161.6-.247a64.687,64.687,0,0,0,16.268,27.146,64.992,64.992,0,0,0,91.893,0A64.949,64.949,0,0,0,700.9-62.814Z" fill="#c2ecf5" fill-rule="evenodd"/>
        <path id="cloud-2" d="M531.069,55.7a49.914,49.914,0,1,0,8.994-64.671,37.837,37.837,0,0,0-60.8,23.747,46,46,0,1,0,8.113,29.932A37.844,37.844,0,0,0,531.069,55.7Z" fill="#c2ecf5" fill-rule="evenodd" />
      </g>
    </g>
    <g clip-path="url(#c)">
      <g>
        <path d="M1212.939,104.759a85.806,85.806,0,1,0,54.586-98.151,65.024,65.024,0,0,0-112.2.3,79.16,79.16,0,1,0-132.842,74.714,79.137,79.137,0,0,0,127.253-21.655,65.071,65.071,0,0,0,63.2,44.791Z" fill="#fff" fill-rule="evenodd" opacity="0.3"/>
        <path d="M916.436,18.787A37.083,37.083,0,1,0,901,45.49a43.821,43.821,0,0,0,86.158,15.98A51.463,51.463,0,0,0,1036.89,66.6a80.96,80.96,0,1,0,20.264-80.686q-.39.39-.772.784-1.593-1.938-3.4-3.75a51.405,51.405,0,0,0-87.513,31.375,43.6,43.6,0,0,0-21.239-5.486q-1.683,0-3.335.125a27.007,27.007,0,0,0-21.6,7.662Q917.82,17.651,916.436,18.787Z" fill="#fff" fill-rule="evenodd" opacity="0.3"/>
      </g>
    </g>
    <use width="75.929" height="11.334" transform="translate(178.271 425.989) scale(0.783 0.814)" xlink:href="#l"/>
    <g>
      <g>
        <g>
          <g>
            <g>
              <path d="M203.2,312.253a12.091,12.091,0,0,0,3.809-.891v6.974h-8.631v-6.72a12.448,12.448,0,0,0,3.992.663C202.644,312.279,202.92,312.271,203.2,312.253Z" fill="#dc9161"/>
              <path d="M203.059,310.1a9.9,9.9,0,0,0,3.949-1.109v2.372a12.091,12.091,0,0,1-3.809.891c-.279.018-.555.026-.83.026a12.448,12.448,0,0,1-3.992-.663v-2.305A10.345,10.345,0,0,0,203.059,310.1Z" fill="#c98559"/>
            </g>
            <g>
              <g>
                <line x1="219.905" y1="335.187" x2="224.446" y2="346.618" fill="#e89a66" stroke="#e89a66" stroke-linecap="round" stroke-miterlimit="10" stroke-width="6.473"/>
                <line x1="224.446" y1="346.618" x2="241.219" y2="352.252" fill="none" stroke="#ef9e69" stroke-linecap="round" stroke-miterlimit="10" stroke-width="6.473"/>
                <line x1="242.148" y1="352.836" x2="250.398" y2="346.037" fill="none" stroke="#ef9e69" stroke-linecap="round" stroke-miterlimit="10" stroke-width="6.473"/>
              </g>
              <use width="40.5" height="44.966" transform="matrix(-1.079, 0, 0, 1.079, 224.54, 314.56)" xlink:href="#o"/>
            </g>
            <g>
              <g>
                <use width="16" height="12.81" transform="matrix(-1.079, 0, 0, 1.079, 226.58, 417.055)" xlink:href="#g"/>
                <use width="11" height="50.194" transform="matrix(-1.079, 0, 0, 1.079, 220.288, 367.609)" xlink:href="#q"/>
              </g>
              <g>
                <use width="16" height="12.81" transform="matrix(-1.079, 0, 0, 1.079, 207.212, 417.055)" xlink:href="#g"/>
                <use width="11" height="50.194" transform="matrix(-1.079, 0, 0, 1.079, 200.98, 367.609)" xlink:href="#q"/>
              </g>
              <use width="26.986" height="15.649" transform="matrix(-1.079, 0, 0, 1.079, 219.209, 363.11)" xlink:href="#t"/>
            </g>
          </g>
          <g>
            <path d="M221.512,356.443s16.534,83.362-34.684,83.362H-.178" fill="none" stroke="#ffd300" stroke-miterlimit="10" stroke-width="1.079"/>
            <g>
              <polygon points="255.512 337.329 234.162 357.302 228.783 351.253 250.133 331.279 255.512 337.329" fill="#e0b50a"/>
              <polygon points="231.216 332.863 209.866 352.836 228.783 351.253 250.133 331.279 231.216 332.863" fill="#ffd300"/>
              <polygon points="215.245 358.886 209.866 352.836 228.783 351.253 234.162 357.302 215.245 358.886" fill="#be9b07"/>
              <g>
                <path d="M228.984,337.976a7.557,7.557,0,0,1,4.041-2.544c1.133-.1,1.185.879.079,2.223a7.492,7.492,0,0,1-4.181,2.655C227.782,340.383,227.827,339.324,228.984,337.976Z" fill="#1ab0be"/>
                <path d="M234.3,338.029a7.382,7.382,0,0,1,4.14-2.641c1.214-.107,1.355.912.276,2.309a7.309,7.309,0,0,1-4.286,2.76C233.2,340.533,233.162,339.43,234.3,338.029Z" fill="#1ab0be"/>
                <path d="M220.973,346.07c1.255-1.442,3.149-2.64,4.272-2.708,1.139-.069,1.095,1.044-.14,2.519-1.266,1.514-3.269,2.8-4.429,2.833C219.533,348.748,219.685,347.548,220.973,346.07Z" fill="#1ab0be"/>
              </g>
            </g>
          </g>
        </g>
        <line x1="186.406" y1="338.32" x2="186.406" y2="349.301" fill="#e89a66" stroke="#e89a66" stroke-miterlimit="10" stroke-width="6.473"/>
        <line x1="186.406" y1="349.301" x2="208" y2="344.486" fill="none" stroke="#ef9e69" stroke-linecap="round" stroke-miterlimit="10" stroke-width="6.473"/>
        <line id="hand" x1="208" y1="344.486" x2="218.595" y2="345.917" fill="none" stroke="#ef9e69" stroke-linecap="round" stroke-miterlimit="10" stroke-width="6.473"/>
      </g>
      <g>
        <g>
          <g>
            <path d="M211.661,295.681a10.146,10.146,0,0,1-18.391,8.576L188,292.951l18.391-8.576Z" fill="#ef9e69"/>
            <circle cx="206.252" cy="288.611" r="0.998"/>
            <path d="M205.4,278.759l-1.858-1.979-10.268,6.172-1.211.565L186.727,286A3.319,3.319,0,0,0,185,290.365l5,10.729a3.318,3.318,0,0,0,4.451,1.481l.01,0a10.262,10.262,0,0,0,6.045-9.385c0-.046,0-.093,0-.139a3.352,3.352,0,0,1,2.612,2.5l1.064-2.267s-2.415-1.655-2.929-3.522a7.485,7.485,0,0,1,.564-.963,9.074,9.074,0,0,1,2.715-2.255C208.25,284.3,207.13,282.478,205.4,278.759Z"/>
          </g>
          <path d="M207.9,295.871c.459,1.008,2.228,1.187,3.951.4.017-.008.031-.018.048-.026l-.83-1.821Z" fill="#ca875a"/>
        </g>
        <path d="M201.153,295.391a2.571,2.571,0,1,1-3.84-.806A2.793,2.793,0,0,1,201.153,295.391Z" fill="#ef9e69"/>
      </g>
      <g>
        <g>
          <path d="M204.738,277.006c-3.178-5.654-11.119-7.243-16.9-4s-8.566,10.824-5.388,16.477l1.368,2.434L206.4,279.955Z" fill="#2c5871"/>
          <path d="M204.738,277.006c-3.178-5.654-11.119-7.243-16.9-4-.316.177-.62.374-.917.576,5.582-2.244,12.495-.489,15.408,4.694l1.658,2.95,2.4-1.275Z" fill="#23475c"/>
          <polygon points="206.396 279.955 207.101 281.209 206.427 279.939 206.396 279.955" fill="#bf292e"/>
          <polygon points="183.817 291.923 184.491 293.194 184.527 293.175 183.822 291.921 183.817 291.923" fill="#bf292e"/>
          <polygon points="183.46 291.238 182.478 294.261 207.101 281.209 206.034 279.272 183.46 291.238" fill="#23475c"/>
        </g>
        <path d="M204.236,276.749l2.865,4.46,6.022-3.192S208.716,274.545,204.236,276.749Z" fill="#23475c"/>
        <g clip-path="url(#d)">
          <g>
            <path d="M211.514,265.406a58.109,58.109,0,0,0-14.9,7.927.647.647,0,0,0-.111.974q1.557,1.768,2.947,3.615a.708.708,0,0,0,.977.171,52.023,52.023,0,0,1,10.5-5.771q.3.566.584,1.136.174-.756.352-1.51,1.3-.5,2.642-.95a.683.683,0,0,0,.459-.923q-1.035-2.175-2.249-4.312A1.028,1.028,0,0,0,211.514,265.406Z" fill="gold"/>
            <g>
              <path d="M198.566,273.169q.406,1.5.788,3c.153-.108.3-.216.459-.323-.05-.2-.1-.4-.152-.6q.548-.379,1.108-.747c.186.11.369.221.552.333l.48-.307q-1.383-.849-2.847-1.627Zm.969,1.648q-.157-.611-.322-1.221.585.322,1.156.657Q199.948,274.532,199.535,274.817Z" fill="#0b2f46"/>
              <path d="M201.319,271.385q-.513.312-1.016.632.912,1.161,1.759,2.35l.462-.284q-.294-.419-.6-.834c.176-.108.354-.215.532-.322a.89.89,0,0,0,.313-1.288A1.106,1.106,0,0,0,201.319,271.385Zm.838,1.169q-.257.154-.511.311c-.189-.257-.382-.512-.576-.767.17-.106.343-.212.515-.316a.525.525,0,0,1,.707.137A.42.42,0,0,1,202.157,272.554Z" fill="#0b2f46"/>
              <path d="M204.119,271.973c.185-.1.369-.2.555-.3a.877.877,0,0,0,.37-1.275,1.146,1.146,0,0,0-1.472-.308q-.534.291-1.06.593.885,1.194,1.7,2.415.24-.135.482-.267Q204.411,272.4,204.119,271.973Zm-.829-1.183c.179-.1.359-.2.539-.3a.541.541,0,0,1,.714.164.416.416,0,0,1-.162.629c-.178.1-.357.194-.533.292Q203.572,271.183,203.29,270.79Z" fill="#0b2f46"/>
              <path d="M207.157,268.291c-.178.081-.354.164-.531.247q.5.748.968,1.506a.584.584,0,0,1-.248.949.755.755,0,0,1-1.049-.329c-.321-.5-.652-.993-.988-1.485-.173.086-.345.174-.516.262q.525.758,1.026,1.523a1.318,1.318,0,0,0,1.778.438,1.015,1.015,0,0,0,.548-1.549Q207.665,269.069,207.157,268.291Z" fill="#0b2f46"/>
              <path d="M208.591,268.554q-.258.111-.512.225.574.919,1.116,1.848l.5-.216Q209.161,269.478,208.591,268.554Z" fill="#0b2f46"/>
              <path d="M207.871,267.932a.266.266,0,0,0-.144.4.386.386,0,0,0,.473.122.269.269,0,0,0,.142-.393A.385.385,0,0,0,207.871,267.932Z" fill="#0b2f46"/>
              <path d="M211.657,269.69a1.375,1.375,0,0,0,.879-1.963,1.972,1.972,0,0,0-2.432-.747,1.353,1.353,0,0,0-.8,2A1.945,1.945,0,0,0,211.657,269.69Zm-1.3-2.289a1.327,1.327,0,0,1,1.626.524.921.921,0,0,1-.558,1.339,1.306,1.306,0,0,1-1.591-.507A.914.914,0,0,1,210.357,267.4Z" fill="#0b2f46"/>
            </g>
            <g>
              <path d="M199.986,276.929a.193.193,0,0,0,.205-.017c.079-.055.065-.111.044-.14-.037-.05-.1-.036-.187-.012-.114.03-.213.047-.288-.051a.19.19,0,0,1,.065-.274.254.254,0,0,1,.244-.035l-.037.1a.142.142,0,0,0-.139.022c-.044.033-.058.081-.034.114.037.052.091.025.2,0,.137-.033.215-.023.278.061s.055.21-.08.3a.287.287,0,0,1-.312.029Q199.967,276.98,199.986,276.929Z" fill="#0b2f46"/>
              <path d="M200.079,276.272l.1-.071q.2.145.392.292-.077-.228-.155-.455l.079-.054.395.292c-.051-.151-.1-.3-.155-.455l.1-.068.231.676-.083.055-.395-.29c.051.152.1.305.15.457-.026.019-.055.037-.081.056C200.467,276.561,200.275,276.416,200.079,276.272Z" fill="#0b2f46"/>
              <path d="M200.924,275.7l.106-.07q.2.279.4.56l-.1.07C201.2,276.068,201.06,275.881,200.924,275.7Z" fill="#0b2f46"/>
              <path d="M201.489,275.9a.2.2,0,0,0,.208-.011c.081-.055.071-.111.049-.139-.035-.05-.1-.039-.189-.018-.12.028-.222.041-.292-.059a.187.187,0,0,1,.075-.272.268.268,0,0,1,.249-.028c-.013.033-.027.066-.041.1a.15.15,0,0,0-.142.019c-.049.03-.064.078-.037.112.039.052.088.029.2.007.136-.03.221-.018.281.069s.049.21-.09.3a.29.29,0,0,1-.318.02Z" fill="#0b2f46"/>
              <path d="M201.99,275.58a.206.206,0,0,0,.211-.009c.083-.052.071-.112.05-.139-.037-.051-.1-.04-.19-.019-.125.026-.223.038-.293-.062a.189.189,0,0,1,.078-.271.263.263,0,0,1,.251-.026c-.015.033-.028.065-.042.1a.146.146,0,0,0-.142.018c-.05.029-.065.076-.04.112.037.052.09.03.2.008.141-.028.219-.015.281.072s.048.21-.094.3a.3.3,0,0,1-.319.017C201.959,275.646,201.976,275.613,201.99,275.58Z" fill="#0b2f46"/>
              <path d="M202.831,274.468a.4.4,0,0,1,.314-.044c-.011.035-.023.07-.035.105a.277.277,0,0,0-.216.032.231.231,0,0,0-.076.335.261.261,0,0,0,.354.072.238.238,0,0,0,.121-.174l.114.016a.349.349,0,0,1-.172.251.388.388,0,0,1-.525-.1A.342.342,0,0,1,202.831,274.468Z" fill="#0b2f46"/>
              <path d="M203.454,274.1a.394.394,0,0,1,.531.108.34.34,0,0,1-.131.491.392.392,0,0,1-.525-.107A.339.339,0,0,1,203.454,274.1Zm.339.5a.23.23,0,0,0,.081-.333.266.266,0,0,0-.357-.079.231.231,0,0,0-.079.335A.264.264,0,0,0,203.793,274.6Z" fill="#0b2f46"/>
              <path d="M203.907,273.846l.1-.057c.2.07.4.143.6.215q-.132-.2-.265-.405l.11-.062q.192.293.38.585l-.092.051q-.3-.111-.61-.22.137.206.271.412c-.037.02-.073.041-.109.062C204.165,274.232,204.037,274.039,203.907,273.846Z" fill="#0b2f46"/>
              <path d="M204.776,273.486l-.173.1c-.021-.032-.041-.064-.062-.095.153-.086.306-.17.461-.254.02.032.042.064.062.095l-.173.1q.159.246.315.492l-.113.062C204.989,273.813,204.883,273.65,204.776,273.486Z" fill="#0b2f46"/>
              <path d="M205.249,273.1l.1-.053c.216.149.43.3.643.449-.041.021-.082.042-.122.064l-.126-.09c-.1.05-.191.1-.286.152.007.048.015.1.022.145l-.121.066C205.322,273.588,205.285,273.344,205.249,273.1Zm.4.3-.26-.183c.015.1.031.2.045.3Z" fill="#0b2f46"/>
              <path d="M205.713,272.853l.118-.061c.124.2.248.4.37.593-.039.021-.076.041-.116.061C205.962,273.248,205.839,273.05,205.713,272.853Z" fill="#0b2f46"/>
              <path d="M205.99,272.709l.1-.053q.3.117.6.237l-.255-.415.115-.057c.123.2.244.4.366.6l-.1.048q-.3-.123-.614-.243.132.211.261.421l-.113.058Q206.177,273,205.99,272.709Z" fill="#0b2f46"/>
              <path d="M206.716,272.34c.139-.07.282-.14.423-.209.02.033.04.065.059.1l-.3.149.088.143.284-.14.059.1-.285.139c.034.055.068.11.1.165l.31-.151.057.1q-.215.1-.426.209Q206.9,272.639,206.716,272.34Z" fill="#0b2f46"/>
              <path d="M207.283,272.062l.26-.126a.258.258,0,0,1,.332.089.184.184,0,0,1-.02.229l.3.165-.135.064-.27-.148h0l-.117.056.127.215-.119.057C207.525,272.463,207.406,272.262,207.283,272.062Zm.423.172a.1.1,0,0,0,.051-.151.119.119,0,0,0-.158-.047l-.137.065c.038.065.078.129.117.194Z" fill="#0b2f46"/>
              <path d="M208.315,271.575l.26-.119a.267.267,0,0,1,.338.1.21.21,0,0,1-.108.3l-.137.062.123.213-.121.055Q208.495,271.879,208.315,271.575Zm.427.181a.1.1,0,0,0,.049-.147.128.128,0,0,0-.164-.051l-.132.06.116.2Z" fill="#0b2f46"/>
              <path d="M208.905,271.308l.124-.055q.147.257.293.514l.273-.119c.018.033.036.067.055.1l-.394.172C209.141,271.716,209.023,271.512,208.905,271.308Z" fill="#0b2f46"/>
              <path d="M209.668,270.975l.106-.045c.214.165.425.33.634.5l-.131.055-.125-.1-.307.13c0,.049.008.1.012.147l-.129.056Zm.394.332c-.084-.068-.169-.135-.255-.2.009.1.017.2.025.3Z" fill="#0b2f46"/>
              <path d="M210.288,270.839l-.189.078-.056-.1c.168-.07.336-.14.5-.208l.055.1-.19.078c.1.173.191.347.285.52l-.124.051Q210.432,271.1,210.288,270.839Z" fill="#0b2f46"/>
              <path d="M210.647,270.568l.428-.171.055.1-.3.12.086.156.273-.108c.019.033.037.067.055.1l-.274.108c.048.089.1.177.143.265l-.125.051Q210.819,270.879,210.647,270.568Z" fill="#0b2f46"/>
              <path d="M211.524,270.209a.443.443,0,0,1,.552.182.331.331,0,0,1-.2.468.441.441,0,0,1-.546-.18A.33.33,0,0,1,211.524,270.209Zm.293.548a.22.22,0,0,0,.132-.318.3.3,0,0,0-.37-.129.22.22,0,0,0-.129.32A.3.3,0,0,0,211.817,270.757Z" fill="#0b2f46"/>
              <path d="M212.041,270.025l.28-.1a.28.28,0,0,1,.339.115.185.185,0,0,1-.037.228l.3.189-.145.053-.27-.17h0l-.125.046.116.225-.128.047C212.262,270.445,212.154,270.235,212.041,270.025Zm.427.207a.1.1,0,0,0,.064-.147.126.126,0,0,0-.16-.06l-.147.054.106.2Z" fill="#0b2f46"/>
              <path d="M212.71,269.78l.112-.04q.222.13.444.264c.025-.15.051-.3.077-.448.037-.013.073-.026.111-.038.108.212.215.425.32.637l-.122.043c-.071-.144-.145-.288-.217-.432-.026.141-.051.281-.077.422-.138-.083-.279-.165-.418-.247q.111.215.219.429l-.122.043C212.929,270.2,212.821,269.991,212.71,269.78Z" fill="#0b2f46"/>
            </g>
          </g>
        </g>
      </g>
    </g>
  </g>
  <g clip-path="url(#e)">
    <path d="M-87.061,688.759A85.57,85.57,0,0,0-63.7,732.111a85.711,85.711,0,0,0,121.344,0,86.026,86.026,0,0,0,0-121.53,85.72,85.72,0,0,0-90.119-19.973,65.18,65.18,0,0,0-10.049-12.969,64.929,64.929,0,0,0-91.926,0,65.176,65.176,0,0,0-10.226,13.27,78.9,78.9,0,0,0-20.954-37.346,79.03,79.03,0,0,0-111.888,0,79.323,79.323,0,0,0,0,112.06,79.032,79.032,0,0,0,111.888,0,79.128,79.128,0,0,0,15.365-21.655,64.846,64.846,0,0,0,15.815,25.739A64.762,64.762,0,0,0-87.061,688.759Z" fill="#fff" fill-rule="evenodd" opacity="0.3"/>
  </g>
</svg>
