<!-- Generated by IcoMoon.io -->
<svg version="1.1" xmlns="http://www.w3.org/2000/svg" width="32" height="32" viewBox="0 0 32 32" fill="#002F47">
<title>openjdk</title>
<path d="M24.565 2.451c0.95-1.974-0.543-1.962-1.199-1.482s-0.82 1.651-1.091 2.573c-0.893-0.973-0.396-3.359-1.544-3.518s-1.091 0.458-1.12 1.267c-0.028 0.809 0.108 1.386 0.475 2.777-1.25-0.944-1.159-3.009-2.251-2.607s-0.803 1.34-0.413 2.364c0.39 1.024 0.91 2.008 1.798 2.896-0.995 0.164-2.33 0.599-1.968 1.629s1.193 0.255 1.968 0.311c0.775 0.056 1.329 0.831 2.104 0.888s0.95 1.561 0.882 2.754c-0.062 1.095-1.415 1.87-2.122 1.173-3.209-5.35-7.381-9.085-9.121-10.057 0.527 1.103 0.351 7.454-0.133 11.713-0.679 3.491-2.519 3.998-2.616 5.575-0.102 1.657 0.537 1.815 0.498 3.348s-1.403 2.155-1.567 2.986c-0.164 0.831 0.701 1.097 1.205 1.097 0.147 0 0.294-0.189 0.434-0.491-0.048 0.538-0.086 1.067-0.111 1.582-0.079 1.55 0.158 2.16 1.171 2.16 1.787 0 4.055-3.766 6.899-3.681 2.85 0.085 3.755 4.321 5.090 4.292s2.409-0.492 2.421-4.615c0.012-3.654-0.89-7.103-2.242-10.191-0.353-1.202-0.193-2.62 0.478-3.568 0.724-1.024 0.113-3.303 0.498-4.304s1.278-0.718 1.567-2.273c0.288-1.555-0.939-2.624 0.011-4.598zM12.92 13.116c0.332-0.485 0.867-0.864 1.396-1.105 1.094-0.497 2.657-0.552 3.419 0.556 0.079 0.115 0.139 0.235 0.186 0.359 0 0 0 0 0 0 0.035 0.094 0.063 0.191 0.083 0.289 0 0.001 0 0.001 0 0.002 0.010 0.048 0.018 0.097 0.025 0.146 0 0.002 0.001 0.004 0.001 0.007 0.013 0.096 0.021 0.192 0.025 0.29 0 0.005 0 0.011 0.001 0.017 0.002 0.046 0.002 0.092 0.002 0.138 0 0.008-0 0.016-0 0.023-0 0.046-0.001 0.093-0.003 0.139-0.117 1.227-1.095 2.214-2.273 2.5-0.067 0.016-0.134 0.030-0.201 0.041-0.007 0.001-0.014 0.003-0.021 0.004-0.064 0.011-0.128 0.019-0.192 0.026-0.010 0.001-0.020 0.002-0.029 0.003-0.063 0.006-0.126 0.010-0.189 0.012-0.010 0-0.020 0.001-0.030 0.001-0.064 0.001-0.127 0.001-0.19-0.002-0.008-0-0.017-0.001-0.025-0.001-0.065-0.003-0.13-0.008-0.195-0.016-0.004-0-0.007-0.001-0.011-0.002-0.137-0.017-0.271-0.043-0.402-0.079-0.003-0.001-0.005-0.001-0.008-0.002-0.064-0.018-0.127-0.038-0.189-0.060-0.004-0.002-0.009-0.003-0.014-0.005-0.061-0.023-0.122-0.048-0.181-0.075-0.004-0.002-0.008-0.004-0.012-0.006-0.060-0.028-0.119-0.058-0.176-0.091-0.002-0.001-0.003-0.002-0.005-0.003-0.238-0.136-0.451-0.314-0.628-0.532-0.001-0.001-0.002-0.002-0.002-0.003-0.043-0.054-0.085-0.11-0.123-0.169-0.001-0.002-0.002-0.003-0.003-0.005-0.039-0.059-0.075-0.121-0.109-0.186-0-0-0-0-0-0v0c-0.051-0.098-0.096-0.201-0.135-0.31-0.229-0.655-0.186-1.326 0.207-1.901zM8.895 21.34c0-0.931 1.182-2.608 1.047-1.315-0.195 0.963-0.382 1.966-0.551 2.981-0.206-0.602-0.496-1.112-0.496-1.667zM23.35 26.508c-0.085 4.875-0.611 4.564-1.408 4.592s-2.087-4.298-5.361-4.326c-3.269-0.028-5.265 3.857-6.668 3.704s1.352-12.215 1.793-14.376c0.204-0.137 0.413-0.28 0.626-0.425 0.031 0.060 0.064 0.12 0.099 0.179 0.68 1.151 2.187 1.532 3.422 1.244 1.689-0.394 2.937-1.871 2.828-3.628-0.028-0.286-0.095-0.55-0.195-0.79 0.072-0.008 0.145-0.014 0.217-0.019 1.759 2.743 4.733 8.969 4.649 13.844z"></path>
</svg>
