<!-- Generated by IcoMoon.io -->
<svg version="1.1" xmlns="http://www.w3.org/2000/svg" width="32" height="32" viewBox="0 0 32 32" fill="#002F47">
<title>wildfly</title>
<path d="M20.199 20.596c-0.062-0.062-0.155-0.153-0.273-0.267-0.234-0.232-0.569-0.563-0.965-0.967-0.198-0.204-0.415-0.422-0.639-0.659-0.229-0.233-0.465-0.484-0.712-0.742-0.247-0.26-0.502-0.529-0.762-0.803s-0.525-0.554-0.788-0.837c-0.292-0.312-0.583-0.625-0.87-0.933 0.194-0.107 0.387-0.214 0.576-0.318 0.161-0.087 0.319-0.173 0.474-0.258 0.156-0.084 0.308-0.165 0.457-0.245 0.298-0.164 0.577-0.325 0.828-0.488 0.252-0.162 0.475-0.323 0.66-0.481 0.187-0.158 0.335-0.315 0.441-0.456s0.169-0.269 0.203-0.359c0.018-0.045 0.028-0.080 0.034-0.104s0.010-0.036 0.010-0.036-0.004 0.012-0.012 0.035c-0.008 0.024-0.020 0.059-0.041 0.101-0.039 0.086-0.11 0.206-0.223 0.337s-0.269 0.274-0.462 0.416c-0.193 0.143-0.422 0.286-0.681 0.427-0.259 0.14-0.547 0.278-0.855 0.416-0.153 0.072-0.313 0.141-0.472 0.222-0.158 0.081-0.319 0.164-0.483 0.248-0.211 0.11-0.426 0.223-0.643 0.338-0.168-0.18-0.335-0.359-0.5-0.532-0.127-0.133-0.252-0.264-0.375-0.392-0.125-0.129-0.253-0.247-0.373-0.364-0.246-0.232-0.473-0.456-0.671-0.673s-0.369-0.429-0.504-0.627c-0.136-0.198-0.236-0.383-0.301-0.544s-0.092-0.298-0.101-0.392c-0.005-0.047-0.005-0.084-0.005-0.108s0-0.037 0-0.037-0.001 0.013-0.003 0.037c-0.002 0.025-0.005 0.061-0.002 0.109 0.003 0.096 0.021 0.236 0.075 0.405s0.142 0.365 0.267 0.575c0.124 0.211 0.282 0.436 0.467 0.671 0.184 0.236 0.395 0.48 0.622 0.732 0.114 0.124 0.232 0.251 0.351 0.381 0.119 0.13 0.24 0.264 0.363 0.399 0.145 0.161 0.293 0.325 0.443 0.491-0.373 0.198-0.751 0.399-1.13 0.598-0.341 0.181-0.682 0.36-1.018 0.533-0.117 0.061-0.783 0.406-0.983 0.509-0.318 0.163-0.624 0.323-0.916 0.468-0.289 0.151-0.566 0.285-0.819 0.413-0.507 0.253-0.931 0.457-1.228 0.599-0.15 0.068-0.266 0.124-0.346 0.162s-0.122 0.059-0.122 0.059 0.045-0.015 0.13-0.041c0.084-0.027 0.208-0.067 0.365-0.119s0.345-0.125 0.562-0.204c0.217-0.081 0.457-0.181 0.722-0.287 0.262-0.113 0.547-0.233 0.845-0.369 0.299-0.136 0.612-0.284 0.935-0.439 0.137-0.068 0.277-0.138 0.418-0.208 0.002 0.078 0.011 0.157 0.029 0.233 0.042 0.19 0.123 0.368 0.217 0.535 0.092 0.168 0.207 0.325 0.305 0.483 0.092 0.159 0.141 0.342 0.162 0.525 0.041 0.369-0.020 0.74-0.027 1.117 0 0.010-0 0.020 0 0.030-0.027 0.018-0.050 0.037-0.069 0.056-0.035 0.034-0.055 0.068-0.061 0.094s-0.005 0.039-0.005 0.039 0.002-0.014 0.014-0.035c0.012-0.021 0.036-0.047 0.073-0.071 0.014-0.009 0.031-0.017 0.048-0.024 0.001 0.159-0.001 0.314-0.008 0.473l-0.020 0.561c-0.027 0.749-0.048 1.5-0.018 2.252 0.017 0.376 0.048 0.753 0.112 1.127 0.032 0.187 0.074 0.373 0.134 0.555 0.061 0.18 0.139 0.361 0.271 0.511l0.008 0.009 0.012 0.003 0.004 0.001 0.014 0.004 0.012-0.005c0.182-0.080 0.319-0.223 0.436-0.371 0.117-0.15 0.216-0.311 0.306-0.477 0.18-0.332 0.326-0.68 0.461-1.032 0.21-0.55 0.386-1.111 0.555-1.672l0.009-0.003c0 0-0.001-0.008-0.003-0.019 0.045-0.15 0.090-0.3 0.134-0.45 0.054-0.179 0.107-0.359 0.164-0.537 0.028-0.089 0.060-0.175 0.090-0.265s0.054-0.182 0.077-0.273c0.008-0.030 0.014-0.061 0.021-0.092 0.020 0.015 0.039 0.029 0.056 0.041 0.075 0.055 0.119 0.087 0.119 0.087s-0.040-0.035-0.111-0.098c-0.018-0.016-0.038-0.033-0.059-0.053 0.034-0.145 0.068-0.29 0.106-0.433 0.049-0.179 0.106-0.356 0.187-0.519 0.081-0.162 0.189-0.31 0.333-0.41 0.148-0.103 0.302-0.199 0.45-0.306s0.29-0.225 0.405-0.372c0.054-0.068 0.099-0.145 0.134-0.228 0.054 0.055 0.109 0.111 0.163 0.166 0.255 0.252 0.502 0.494 0.74 0.72 0.237 0.226 0.467 0.433 0.677 0.625 0.215 0.187 0.41 0.361 0.588 0.508 0.179 0.146 0.332 0.275 0.464 0.376s0.235 0.179 0.306 0.232c0.071 0.053 0.109 0.081 0.109 0.081s-0.032-0.033-0.095-0.095z"></path>
<path d="M31.829 11.673c-0.354-0.085-0.714-0.142-1.075-0.181-0.36-0.038-0.721-0.057-1.082-0.069s-0.718-0.010-1.077-0.001c-0.357 0.011-0.713 0.026-1.069 0.049-0.177 0.009-0.355 0.027-0.532 0.040-0.177 0.015-0.353 0.035-0.53 0.053l-0.528 0.067c-0.175 0.028-0.35 0.051-0.525 0.082l-0.263 0.047c-0.088 0.015-0.175 0.032-0.26 0.050l-0.321 0.067-0.067 0.015-0.128 0.029c-0.341 0.077-0.68 0.162-1.017 0.251s-0.671 0.182-1.005 0.28c-0.332 0.1-0.664 0.199-0.992 0.309-0.329 0.106-0.654 0.224-0.975 0.348s-0.64 0.257-0.953 0.4c-0.316 0.147-0.618 0.303-0.914 0.462l-0.45 0.236c-0.149 0.081-0.298 0.164-0.445 0.25s-0.292 0.176-0.435 0.27c-0.143 0.094-0.282 0.194-0.415 0.301s-0.261 0.223-0.375 0.35c-0.057 0.064-0.109 0.132-0.156 0.203-0.046 0.071-0.085 0.149-0.112 0.225l0.007 0.003c-0.001 0.003-0.032 0.101-0.029 0.18 0.003 0.080 0.16 0.143 0.297 0.221 0.002 0.001 0.004 0.003 0.006 0.004l0.009 0.033c-0-0-0-0-0.001-0 0.6 0.501 0.948 0.89 1.589 1.322 1.187 0.798 2.698 1.598 4.054 1.793 0.174 0.025 1.062 0.154 1.157-0.016-0 0 0 0-0 0-0.095 0.171-0.984 0.041-1.157 0.016-1.357-0.195-2.868-0.996-4.054-1.793-0.642-0.431-0.989-0.821-1.59-1.322 0.156 0.192 0.318 0.374 0.484 0.556s0.343 0.36 0.534 0.526c0.098 0.081 0.199 0.167 0.3 0.238l0.076 0.056 0.038 0.027 0.022 0.016 0.020 0.013 0.157 0.107c0.211 0.142 0.426 0.279 0.645 0.413s0.443 0.262 0.672 0.383c0.114 0.061 0.23 0.12 0.347 0.179 0.118 0.056 0.236 0.113 0.356 0.166 0.24 0.107 0.486 0.207 0.737 0.293 0.252 0.086 0.51 0.162 0.775 0.22 0.066 0.013 0.131 0.028 0.2 0.039 0.070 0.013 0.135 0.023 0.199 0.032 0.136 0.019 0.266 0.035 0.402 0.047 0.134 0.013 0.27 0.022 0.412 0.022 0.071 0 0.143-0.002 0.221-0.011 0.039-0.005 0.080-0.011 0.126-0.024 0.046-0.014 0.099-0.027 0.168-0.086 0.008-0.008 0.016-0.015 0.029-0.031 0.004-0.006 0.012-0.017 0.013-0.019l0.003-0.005 0.008-0.013 0.004-0.009 0.007-0.018c0.005-0.012 0.009-0.023 0.012-0.035 0.013-0.050 0.008-0.092 0-0.129-0.018-0.070-0.047-0.113-0.073-0.151-0.031-0.043-0.062-0.077-0.094-0.109 0.048 0.017 0.098 0.033 0.146 0.051 0.179 0.065 0.366 0.132 0.541 0.199 0.174 0.070 0.346 0.153 0.518 0.239 0.346 0.172 0.689 0.359 1.055 0.522 0.184 0.081 0.374 0.155 0.578 0.21l0.078 0.019c0.027 0.006 0.057 0.012 0.082 0.017l0.144 0.025c0.092 0.018 0.187 0.039 0.283 0.061 0.193 0.043 0.391 0.086 0.601 0.111 0.105 0.012 0.213 0.020 0.326 0.016s0.234-0.022 0.353-0.073l0.243-0.104-0.203-0.181c-0.212-0.189-0.433-0.352-0.657-0.51-0.224-0.157-0.45-0.306-0.679-0.451s-0.458-0.285-0.688-0.423c-0.23-0.137-0.46-0.273-0.692-0.403-0.231-0.132-0.465-0.261-0.699-0.386s-0.471-0.247-0.71-0.364c-0.12-0.056-0.24-0.114-0.361-0.17l-0.366-0.159-0.373-0.148-0.369-0.133c-0.254-0.087-0.499-0.167-0.749-0.245-0.035-0.012-0.071-0.022-0.107-0.033l0.042-0.006c0.364-0.049 0.73-0.099 1.097-0.168 0.366-0.066 0.733-0.145 1.098-0.245s0.726-0.227 1.074-0.393c0.346-0.168 0.682-0.382 0.944-0.677l0.136-0.153-0.199-0.035c-0.047-0.008-0.093-0.014-0.141-0.020l0.089-0.016c0.099-0.019 0.199-0.037 0.298-0.060 0.198-0.044 0.395-0.096 0.588-0.157s0.386-0.127 0.576-0.199c0.189-0.073 0.376-0.152 0.561-0.233 0.186-0.080 0.368-0.167 0.55-0.253l0.543-0.258c0.361-0.169 0.733-0.33 1.098-0.515 0.183-0.092 0.366-0.19 0.543-0.296 0.089-0.053 0.176-0.108 0.263-0.166 0.043-0.030 0.087-0.059 0.129-0.089l0.123-0.091c0.157-0.121 0.323-0.235 0.486-0.359s0.327-0.255 0.47-0.405l0.12-0.125-0.171-0.042z"></path>
<path d="M9.050 17.144c0.131-0.013 0.261-0.029 0.39-0.045 0.129-0.019 0.258-0.038 0.386-0.061 0.256-0.044 0.508-0.095 0.758-0.152s0.497-0.12 0.742-0.188l0.183-0.052 0.023-0.007 0.026-0.008 0.045-0.014 0.090-0.029c0.117-0.036 0.24-0.085 0.359-0.132 0.234-0.098 0.458-0.21 0.673-0.331 0.214-0.12 0.424-0.241 0.631-0.373 0.001-0.001 0.003-0.001 0.004-0.002-0.001 0-0.001 0-0.002 0 0.001-0 0.001-0 0.001-0l0.020-0.031c0 0 0 0 0-0s0-0 0-0c0.154-0.030 0.322-0.041 0.351-0.116s0.030-0.18 0.030-0.181l0.002-0-0.010 0.001c0-0 0-0-0-0l0.010-0.001 0.005-0.001c-0.001-0.081-0.014-0.167-0.035-0.249-0.023-0.082-0.051-0.163-0.085-0.241-0.068-0.157-0.152-0.307-0.246-0.451s-0.192-0.283-0.298-0.417c-0.105-0.134-0.214-0.266-0.327-0.394s-0.228-0.253-0.344-0.377l-0.353-0.366c-0.231-0.245-0.469-0.487-0.722-0.727-0.252-0.235-0.511-0.463-0.778-0.68-0.267-0.219-0.538-0.433-0.816-0.638-0.277-0.208-0.56-0.406-0.844-0.606-0.286-0.197-0.573-0.392-0.865-0.582s-0.587-0.378-0.886-0.559l-0.112-0.068-0.059-0.035-0.283-0.165c-0.075-0.044-0.152-0.088-0.231-0.13l-0.235-0.128c-0.157-0.085-0.315-0.162-0.473-0.243l-0.48-0.23c-0.162-0.072-0.323-0.147-0.486-0.217-0.164-0.068-0.327-0.141-0.492-0.206-0.331-0.134-0.664-0.261-0.998-0.384-0.338-0.122-0.678-0.236-1.023-0.339s-0.694-0.199-1.048-0.276c-0.355-0.077-0.714-0.137-1.077-0.168l-0.175-0.015 0.074 0.157c0.089 0.188 0.202 0.364 0.319 0.533 0.116 0.169 0.238 0.33 0.348 0.494l0.088 0.125c0.030 0.042 0.063 0.084 0.094 0.125 0.064 0.082 0.129 0.163 0.197 0.241 0.135 0.157 0.277 0.307 0.422 0.452 0.288 0.291 0.59 0.561 0.88 0.836l0.434 0.416c0.146 0.139 0.291 0.279 0.442 0.414s0.303 0.269 0.459 0.398c0.157 0.128 0.319 0.252 0.484 0.37s0.335 0.23 0.509 0.334c0.086 0.053 0.175 0.101 0.263 0.15l0.079 0.043c-0.046-0.009-0.093-0.018-0.14-0.025l-0.199-0.030 0.080 0.188c0.155 0.363 0.406 0.672 0.682 0.941 0.277 0.267 0.58 0.502 0.894 0.712s0.638 0.4 0.965 0.579c0.326 0.18 0.658 0.344 0.988 0.505l0.040 0.019c-0.036-0.001-0.072-0.002-0.109-0.003-0.263-0.005-0.52-0.006-0.788-0.004l-0.392 0.009-0.401 0.023-0.397 0.035c-0.132 0.014-0.263 0.032-0.396 0.047-0.264 0.036-0.527 0.076-0.789 0.121s-0.524 0.094-0.785 0.145c-0.262 0.050-0.523 0.107-0.784 0.164s-0.524 0.119-0.786 0.184c-0.262 0.066-0.525 0.135-0.786 0.214s-0.523 0.165-0.784 0.276l-0.25 0.107 0.197 0.175c0.097 0.086 0.206 0.14 0.312 0.18s0.211 0.067 0.315 0.088c0.207 0.042 0.409 0.064 0.606 0.084 0.098 0.010 0.195 0.019 0.288 0.032l0.144 0.022c0.025 0.004 0.055 0.007 0.083 0.010l0.080 0.006c0.211 0.013 0.414 0.003 0.615-0.017 0.399-0.039 0.784-0.107 1.166-0.162 0.191-0.027 0.38-0.052 0.568-0.063 0.187-0.008 0.385-0.013 0.576-0.018 0.052-0.001 0.103-0.001 0.154-0.002-0.040 0.020-0.081 0.042-0.123 0.073-0.037 0.028-0.078 0.060-0.117 0.12-0.019 0.032-0.037 0.071-0.041 0.122-0.001 0.012-0.001 0.025-0 0.038l0.002 0.019 0.001 0.009 0.003 0.015 0.002 0.006c0.001 0.003 0.005 0.015 0.007 0.022 0.007 0.019 0.012 0.028 0.017 0.038 0.046 0.078 0.093 0.106 0.132 0.135 0.040 0.027 0.077 0.045 0.113 0.063 0.072 0.033 0.139 0.058 0.207 0.081 0.134 0.044 0.266 0.078 0.398 0.109 0.133 0.031 0.261 0.057 0.396 0.082 0.064 0.011 0.128 0.023 0.199 0.032 0.069 0.011 0.135 0.018 0.203 0.026 0.269 0.029 0.538 0.038 0.805 0.035 0.265-0.002 0.53-0.020 0.791-0.045zM13.357 15.752c0 0 0 0 0 0-0.042 0.008-0.084 0.018-0.125 0.027 0.042-0.009 0.083-0.019 0.125-0.027z"></path>
</svg>
