<!-- Generated by IcoMoon.io -->
<svg version="1.1" xmlns="http://www.w3.org/2000/svg" width="32" height="32" viewBox="0 0 32 32" fill="#002F47">
<title>ruby</title>
<path d="M7.583 30.212l0.027-0.027q-2.406-0.109-3.773-1.477-1.367-1.34-1.477-3.746h-0.027v-8.75h0.027q0-1.969 1.272-4.43t3.541-4.731 4.73-3.541 4.43-1.272v-0.027h8.75v0.027q2.406 0.109 3.746 1.477 1.367 1.367 1.477 3.773l0.027-0.027v22.75h-22.75zM28.583 28.462l-6.125-6.125-7.875 6.125h14zM20.79 21.708l-9.707-3.746-1.477 10.281q2.598-0.52 5.537-2.215t5.646-4.32zM4.083 25.837q0.055 0.137 0.232 0.533t0.342 0.738 0.301 0.479q0.793 0.793 1.449 0.916t2.106-0.096q-4.32-8.832-4.43-9.078v6.508zM17.331 4.714q-1.299-1.299-4.047-0.383t-5.332 3.5-3.5 5.332 0.383 4.047 4.047 0.383 5.332-3.5 3.5-5.332-0.383-4.047zM21.829 20.669q2.598-2.707 4.293-5.646t2.215-5.537l-10.254 1.477zM27.654 4.837q-0.137-0.137-0.465-0.301t-0.738-0.342-0.52-0.232h-6.48l9.023 4.375q0.219-1.422 0.096-2.078t-0.916-1.422z"></path>
</svg>
