<!-- Generated by IcoMoon.io -->
<svg version="1.1" xmlns="http://www.w3.org/2000/svg" width="26" height="32" viewBox="0 0 26 32" fill="#002F47">
<title>rails</title>
<path d="M3.191 24.279l1.536-0c1.214 0 2.266 0.18 2.266 1.574-0.080 1.519-1.13 1.536-1.13 1.536l1.46 1.46h-1.841l-1.092-1.092v1.225h-1.2v-4.703zM4.448 25.554v0.838h1.034v-0.838h-1.034zM9.64 24.298c0.094 0.001 0.18-0 0.26-0 0.64 0 1.834 0.042 1.834 1.117v3.427h-1.238v-0.781h-1.193v0.8h-1.231v-3.268c0-1.238 0.911-1.298 1.568-1.295zM9.322 25.478v1.288h1.155v-1.288h-1.155zM12.967 24.301h1.274v4.499h-1.274v-4.499zM15.575 24.361l1.254-0.020v3.325h1.811v1.194h-3.066v-4.499zM22.702 24.321v1.214h-2.050v0.438h0.876c0.458 0 1.413-0.020 1.413 1.413s-0.657 1.513-1.991 1.513h-1.612v-1.095h1.851c0.557 0 0.588-0.181 0.588-0.34s-0.285-0.232-0.865-0.232-1.654-0.285-1.654-1.4 0.557-1.533 1.672-1.533 1.772 0.020 1.772 0.020zM4.308 22.947l-0 0s-0.279-1.752 0.398-5.096c0.677-3.344 1.672-5.574 3.384-8.759s4.459-5.813 8.44-6.171c3.982-0.358 7.127 2.827 7.127 2.827l-0.478 0.717s-1.194-1.354-3.384-1.115c-2.19 0.239-6.052 2.469-6.649 7.365s1.752 10.232 1.752 10.232h-10.59zM2.198 17.612l2.070 0.159-0.358 2.070-1.951-0.239zM5.463 13.233l-1.871-0.597 0.597-1.672 1.831 0.717zM8.050 7.898l-1.433-0.955 1.115-1.234 1.393 0.916zM10.877 2.961l1.314-0.677 0.956 1.075-1.314 0.756zM15.535 1.647l1.712 0.080 0.159 1.035-1.632 0.040zM21.069 2.881l1.314 0.956-0.239 0.358-1.115-0.597zM20.831 5.947l1.075 0.239v0.478l-1.075-0.119v-0.597zM17.407 6.465l1.115-0.279 0.159 0.637-0.756 0.597zM15.774 7.699l0.796 1.194-0.478 0.836-1.155-1.274zM14.182 11.003l1.155 0.876-0.319 1.314-1.354-1.155zM13.624 14.626l1.513 0.796 0.080 1.314-1.672-0.717zM14.102 19.563l1.752 0 0.756 1.553-2.11-0.119zM6.374 0l0-0h18.94l-0 0.3v21.53c0 3.529 0.281 6.002-0.41 7.71-0.346 0.854-0.97 1.494-1.94 1.89s-2.278 0.57-4.080 0.57c-7.131 0-18-0.070-18-0.070h-0.31l0.010-0.31s0.040-7.576 0.040-15.28c0-7.454-0.33-11.434 0.22-13.69 0.275-1.128 0.836-1.85 1.74-2.22s2.107-0.43 3.79-0.43zM6.374 0.61l-0 0c-1.666 0-2.817 0.076-3.56 0.38s-1.132 0.794-1.38 1.81c-0.495 2.031-0.2 6.069-0.2 13.54 0 7.551-0.048 14.682-0.050 14.98 0.352 0.002 10.692 0.070 17.7 0.070 1.762 0 3.003-0.174 3.85-0.52s1.316-0.834 1.61-1.56c0.588-1.452 0.36-3.922 0.36-7.48v-21.22h-18.33z"></path>
</svg>
