<!-- Generated by IcoMoon.io -->
<svg version="1.1" xmlns="http://www.w3.org/2000/svg" width="32" height="32" viewBox="0 0 32 32" fill="#002F47">
<title>php</title>
<path d="M15.185 7.158c3.857-0.085 7.794 0.487 11.304 2.125 3.105 1.339 6.387 4.481 5.298 8.206-1.541 4.291-6.373 6.038-10.516 6.885-6.337 1.066-13.544 0.522-18.74-3.513-2.469-1.804-3.469-5.602-1.454-8.131 3.267-4.166 9.026-5.343 14.108-5.572v0zM15.629 9.321v0c-2.602 0.043-5.147 0.403-7.621 1.256-2.557 0.941-6.056 2.676-5.827 5.892 0.841 3.317 4.64 4.648 7.592 5.487 5.934 1.34 12.723 1.058 17.914-2.446 1.936-1.199 2.966-4.026 1.218-5.846-3.366-3.568-8.615-4.296-13.277-4.344v0zM7.878 19.616l1.277-6.463h2.952c1.277 0.080 1.915 0.718 1.915 1.835 0 1.915-1.516 3.032-2.872 2.952h-1.436l-0.319 1.676-1.516-0zM10.033 16.744l0.957-0c0.718-0.080 1.356-0.319 1.436-1.675 0-0.479-0.399-0.718-0.957-0.718h-1.037l-0.399 2.394zM13.543 17.941l1.277-6.463h1.516l-0.319 1.676h1.436c1.277 0.080 1.755 0.718 1.596 1.516l-0.558 3.271h-1.596l0.559-2.952c0.080-0.399 0.080-0.638-0.479-0.638h-1.197l-0.718 3.59h-1.516zM18.57 19.616l1.277-6.463h2.952c1.277 0.080 1.915 0.718 1.915 1.835 0 1.915-1.516 3.032-2.872 2.952h-1.436l-0.319 1.676-1.516-0zM20.724 16.744l0.957-0c0.718-0.080 1.356-0.319 1.436-1.675 0-0.479-0.399-0.718-0.957-0.718h-1.037l-0.399 2.394z"></path>
</svg>
