<!-- Generated by IcoMoon.io -->
<svg version="1.1" xmlns="http://www.w3.org/2000/svg" width="32" height="32" viewBox="0 0 32 32" fill="#002F47">
<title>perl</title>
<path d="M32 18q0 1.25-0.156 1.766t-0.844 1.234q-0.375 0.375-0.75-0.719-0.25-0.719-0.25-1.281v-4q0-0.594-0.438-0.094-0.344 0.406-0.563 1.094-0.188 0.625-0.438 2.047t-0.125 1.953q0.031 0.094 0.125 0.516t0.141 0.641 0.094 0.563 0.016 0.563-0.156 0.344q-0.156 0.188-0.172 0.297t0.031 0.172 0.203 0.219 0.25 0.313q0.094 0.094 0.125 0.219t0 0.25-0.063 0.219-0.109 0.234-0.125 0.234-0.172 0.25-0.156 0.219q-0.156 0.219-0.266 0.797t-0.203 1.266-0.125 0.844q-0.094 0.406 0.125 1.141t0.5 1.078q0.094 0.156 0 0.344t-0.313 0.422-0.438 0.422-0.391 0.313l-0.172 0.125h-1.594q-0.063-1.156 0.188-1.625 0.031-0.063 0.875-1.594 0.469-0.813 0.594-2.875 0.063-0.313 0.016-0.625t-0.328-0.688q-0.188-0.375-0.141-0.75t0.172-0.875 0.125-0.656q-0.094-0.875-0.719-1.313-0.313-0.25-0.469-1.25t-0.188-1.094q-0.219-0.563-0.25-2-1.563 2.438-2.219 3.656-0.219 0.406-0.234 1.281t0.109 1.031q0 0.031 0.063 0.141t0.078 0.156 0.047 0.156 0.016 0.172-0.078 0.172-0.188 0.203q-0.375 0.281-3.156 3.5 1.219 0.844 1.313 1.031 0.219 0.344 0.188 0.797t-0.281 0.797q-0.25 0.313-0.703 0.172t-0.453-0.484q0.031-0.531-0.844-1.406-0.313 0.438-0.422 0.844t0.109 0.563q0.156 0.094 0.063 0.25t-0.281 0.25l-0.219 0.125h-1.938q-0.563 0.125-0.75-0.313-0.094-0.188 0.156-0.344t0.75-0.328 0.688-0.266q0.469-0.281 1.313-1.25-0.469-0.406-2.031-1.719t-1.844-1.563q-0.375-0.406-0.328-1.172t0.422-1.141q0.125-0.094 0.219-0.25t0.141-0.266 0.078-0.297 0.031-0.281v-0.531q0.031-0.188 0.188-0.5l0.266-0.531t0.016-0.313q-0.188-0.125-0.906 0t-1.094 0.344q-0.219 0.125-0.234 0.438t0.078 0.719 0.094 0.5q-0.031 0.469-0.844 1.313-0.281 0.25-0.453 0.969t-0.016 1q0.125 0.219 0.188 0.484t0.016 0.5-0.266 0.297q-0.313 0.094-0.797 1.359t-0.484 1.891q-0.063 1.75-0.469 1.906-0.281 0.094-0.328 0.313t0.328 0.313q0.344 0.094 0.344 0.625h-3.875q-0.031 0.031-0.109 0.031t-0.172-0.063-0.094-0.281q0-0.281 0.75-0.578t1.219-0.359q0.281-0.063 0.859-1.188t0.797-2q0.094-0.844 0.063-1.422t-0.172-1.563-0.141-1.234q-0.188-3.469 0.125-3.969 0.25-0.281 0.188-0.734t-0.531-0.609q-0.406-0.094-0.922 0.453t-0.703 0.547q-0.219 0-0.422-0.078t-0.297-0.172l-0.094-0.063q-0.219 0.063-0.781 0-0.25-0.031-0.453-0.203t-0.266-0.328l-0.063-0.156q-0.781-0.406-1.188-0.656-0.188-0.125-0.281-0.297t-0.094-0.266v-0.125q-0.719-0.313-1.188-0.656-0.25-0.188-0.406-0.641t-0.375-0.703-0.266-0.938-0.016-1.563 0-1.156q-0.063-0.938 0.172-1.969t0.828-1.031v0 0h-3v-0.203t0.063-0.484 0.156-0.609 0.297-0.484 0.484-0.219h3q0.156-0.219 0.375-0.531t0.75-0.875 0.875-0.594q0.5-0.063 1.531-0.016t1.469 0.297q0.281 0.156 0.375 0.5t0.063 0.625l-0.063 0.281q0.469 0.281 0.781 1.031 0.094 0.531 0.047 0.781t-0.25 0.813-0.266 0.844q-0.094 0.406-0.5 1.609t-0.406 1.484q-0.031 0.25 0.281 0.422t0.594 0.234l0.313 0.031q-0.125-1.375 0.063-2.063 0.063-0.281 0.453-0.719t0.922-0.953 0.719-0.734q0.656-0.75 2.938-2.094 0.219-0.125 0.375-0.234t0.234-0.203 0.188-0.266 0.156-0.25 0.172-0.359 0.188-0.438q0.563-1.25 5.031-2.469 2.375-0.656 4.438 1.406 0.438 0.438 0.75 1.781t0.688 1.75q0.531 0.563 1.172 1.734t1.016 2.047q0.219 0.594 1.125 1.5t1.094 1.25q0.313 0.531 0.313 4.375zM19.719 19q-0.156 0.219-0.234 0.859t-0.234 0.797q-0.094 0.094-0.156 0.203t-0.109 0.266-0.078 0.25-0.063 0.297-0.063 0.297q-0.063 0.375-0.766 0.891t-1.297 0.766q-0.125 0.031-0.203 0.094t-0.109 0.141-0.047 0.125 0.031 0.141 0.078 0.141 0.109 0.172 0.109 0.156q0.406 0.625 2.594 2.125 0.344-0.531 0.797-1.391t0.734-1.453l0.281-0.594q-0.219-1.75-0.281-2.281 0-0.188-0.031-1.172t-0.063-1.547q-0.75 0.406-1 0.719z"></path>
</svg>
