<!-- Generated by IcoMoon.io -->
<svg version="1.1" xmlns="http://www.w3.org/2000/svg" width="26" height="32" viewBox="0 0 26 32" fill="#002F47">
<title>nodejs</title>
<path d="M12.802 29.84c-0.373 0-0.743-0.098-1.070-0.286l-3.407-2.015c-0.508-0.285-0.26-0.385-0.093-0.444 0.679-0.235 0.816-0.29 1.541-0.7 0.075-0.042 0.175-0.026 0.253 0.019l2.616 1.554c0.095 0.053 0.229 0.053 0.317 0l10.202-5.888c0.095-0.054 0.156-0.164 0.156-0.276v-11.773c0-0.115-0.061-0.223-0.158-0.281l-10.198-5.884c-0.095-0.055-0.219-0.055-0.315 0l-10.195 5.885c-0.099 0.057-0.161 0.168-0.161 0.28v11.773c0 0.113 0.062 0.219 0.16 0.273l2.795 1.615c1.516 0.758 2.445-0.135 2.445-1.032v-11.624c0-0.164 0.132-0.294 0.296-0.294h1.294c0.161 0 0.295 0.13 0.295 0.294v11.624c0 2.024-1.102 3.184-3.021 3.184-0.59 0-1.054 0-2.35-0.639l-2.675-1.54c-0.661-0.382-1.070-1.096-1.070-1.861v-11.773c0-0.765 0.409-1.479 1.070-1.86l10.202-5.895c0.645-0.365 1.503-0.365 2.143 0l10.201 5.895c0.661 0.382 1.071 1.095 1.071 1.86v11.773c0 0.765-0.41 1.476-1.071 1.861l-10.193 5.891c-0.326 0.189-0.696 0.286-1.074 0.286zM15.951 21.729c-4.465 0-5.4-2.049-5.4-3.768 0-0.163 0.132-0.294 0.295-0.294h1.319c0.147 0 0.27 0.106 0.293 0.25 0.199 1.343 0.793 2.021 3.492 2.021 2.149 0 3.064-0.486 3.064-1.627 0-0.657-0.259-1.145-3.599-1.472-2.791-0.276-4.518-0.893-4.518-3.126 0-2.059 1.735-3.286 4.644-3.286 3.269 0 4.886 1.134 5.090 3.568 0.008 0.084-0.022 0.164-0.077 0.227-0.056 0.059-0.134 0.094-0.216 0.094h-1.325c-0.137 0-0.259-0.098-0.286-0.23-0.317-1.413-1.090-1.865-3.186-1.865-2.347 0-2.619 0.818-2.619 1.43 0 0.742 0.322 0.958 3.49 1.377 3.135 0.414 4.625 1.001 4.625 3.205 0 2.223-1.854 3.496-5.086 3.496z"></path>
</svg>
