<!-- Generated by IcoMoon.io -->
<svg version="1.1" xmlns="http://www.w3.org/2000/svg" width="32" height="32" viewBox="0 0 32 32" fill="#002F47">
<title>jboss</title>
<path d="M2.664 14.625l-0.796-1.644h-0.545v1.644h-1.323v-4.875h2.18c0.283 0 0.542 0.029 0.777 0.087s0.435 0.15 0.602 0.275c0.167 0.125 0.296 0.289 0.387 0.491s0.136 0.447 0.136 0.735c0 0.367-0.079 0.666-0.237 0.898s-0.372 0.409-0.642 0.529l0.977 1.859h-1.515zM2.6 10.997c-0.091-0.098-0.244-0.146-0.458-0.146h-0.819v1.066h0.798c0.224 0 0.382-0.046 0.476-0.139s0.14-0.227 0.14-0.404c-0-0.153-0.046-0.279-0.137-0.376zM5.195 14.625v-4.875h3.733v1.135h-2.396v0.655h1.442v1.114h-1.442v0.836h2.444v1.135h-3.782zM14.095 13.319c-0.111 0.313-0.279 0.566-0.501 0.759s-0.498 0.332-0.825 0.418c-0.327 0.086-0.707 0.129-1.139 0.129h-1.581v-4.875h1.706c0.381 0 0.727 0.039 1.038 0.118s0.575 0.212 0.79 0.4c0.216 0.188 0.383 0.435 0.501 0.742s0.178 0.689 0.178 1.149c0 0.46-0.056 0.846-0.167 1.16zM12.817 11.602c-0.039-0.162-0.103-0.295-0.192-0.397s-0.204-0.178-0.348-0.226c-0.144-0.049-0.32-0.073-0.529-0.073h-0.334v2.563h0.293c0.209 0 0.388-0.022 0.536-0.066s0.27-0.116 0.366-0.216c0.095-0.1 0.164-0.232 0.205-0.397s0.063-0.368 0.063-0.609c0-0.223-0.020-0.416-0.059-0.578zM20.691 14.625v-1.922h-1.518v1.922h-1.379v-4.875h1.379v1.776h1.518v-1.776h1.379v4.875h-1.379zM26.415 14.625l-0.265-0.857h-1.462l-0.264 0.857h-1.449l1.769-4.875h1.365l1.769 4.875h-1.463zM25.732 12.376c-0.042-0.158-0.079-0.295-0.111-0.411s-0.062-0.221-0.087-0.313c-0.026-0.093-0.048-0.178-0.066-0.254s-0.035-0.157-0.049-0.24c-0.014 0.084-0.030 0.165-0.049 0.244s-0.041 0.165-0.066 0.258c-0.026 0.093-0.055 0.197-0.087 0.313s-0.070 0.251-0.111 0.404l-0.091 0.32h0.808l-0.090-0.32zM30.636 10.927v3.698h-1.351v-3.698h-1.365v-1.177h4.081v1.177h-1.365zM7.98 21.045c-0.084 0.253-0.21 0.469-0.38 0.648s-0.383 0.316-0.641 0.411c-0.258 0.095-0.559 0.143-0.902 0.143-0.325 0-0.606-0.039-0.843-0.118s-0.44-0.192-0.609-0.338-0.309-0.324-0.418-0.533c-0.109-0.209-0.194-0.441-0.254-0.696l1.323-0.348c0.084 0.279 0.183 0.489 0.299 0.63s0.29 0.212 0.523 0.212c0.218 0 0.381-0.068 0.487-0.205s0.16-0.324 0.16-0.561v-2.995h1.379v2.89c-0 0.32-0.042 0.607-0.126 0.86zM13.001 21.76c-0.302 0.273-0.761 0.41-1.379 0.41h-2.34v-4.875h2.354c0.603 0 1.039 0.109 1.306 0.328s0.4 0.533 0.4 0.942c0 0.265-0.057 0.467-0.171 0.607s-0.252 0.256-0.415 0.349c0.223 0.093 0.395 0.226 0.515 0.4s0.181 0.4 0.181 0.678c0 0.501-0.151 0.888-0.453 1.162zM11.928 18.473c-0.060-0.075-0.172-0.113-0.334-0.113h-1.017v0.773h1.017c0.158 0 0.268-0.035 0.331-0.105s0.094-0.164 0.094-0.281c0-0.108-0.030-0.199-0.091-0.274zM12.012 20.282c-0.079-0.084-0.2-0.125-0.362-0.125h-1.072v0.947h1.066c0.167 0 0.29-0.045 0.369-0.136s0.118-0.205 0.118-0.345c0-0.144-0.039-0.258-0.118-0.341zM18.579 20.801c-0.112 0.313-0.267 0.577-0.467 0.79s-0.439 0.376-0.717 0.488-0.583 0.167-0.913 0.167c-0.33 0-0.633-0.055-0.909-0.164s-0.514-0.269-0.714-0.481c-0.2-0.211-0.354-0.474-0.463-0.787s-0.164-0.672-0.164-1.076 0.056-0.763 0.167-1.076c0.111-0.313 0.267-0.577 0.467-0.79s0.439-0.376 0.717-0.488c0.279-0.111 0.583-0.167 0.912-0.167s0.633 0.055 0.909 0.164c0.276 0.109 0.513 0.269 0.71 0.481s0.352 0.474 0.463 0.787c0.111 0.313 0.167 0.672 0.167 1.076s-0.055 0.763-0.167 1.076zM17.12 18.736c-0.151-0.227-0.363-0.341-0.637-0.341s-0.484 0.111-0.63 0.334c-0.146 0.223-0.219 0.555-0.219 0.996s0.075 0.775 0.226 1.003c0.151 0.227 0.363 0.341 0.637 0.341s0.484-0.111 0.631-0.334c0.146-0.223 0.219-0.555 0.219-0.996s-0.075-0.775-0.226-1.003zM23.367 21.39c-0.1 0.2-0.239 0.362-0.418 0.488s-0.391 0.218-0.637 0.279c-0.246 0.060-0.515 0.091-0.808 0.091-0.395 0-0.772-0.057-1.131-0.171s-0.668-0.254-0.923-0.421l0.655-1.059c0.088 0.060 0.192 0.12 0.31 0.178s0.241 0.11 0.369 0.157c0.127 0.046 0.257 0.084 0.387 0.111s0.25 0.042 0.362 0.042c0.241 0 0.407-0.023 0.498-0.070s0.136-0.128 0.136-0.244c0-0.046-0.013-0.088-0.038-0.125s-0.070-0.073-0.132-0.108c-0.063-0.035-0.147-0.070-0.254-0.104s-0.241-0.071-0.404-0.108c-0.293-0.070-0.548-0.144-0.766-0.223s-0.399-0.178-0.543-0.296c-0.144-0.118-0.252-0.261-0.324-0.428s-0.108-0.374-0.108-0.62c0-0.227 0.045-0.436 0.136-0.627s0.219-0.353 0.387-0.488c0.167-0.135 0.369-0.239 0.606-0.313s0.501-0.111 0.794-0.111c0.418 0 0.781 0.049 1.090 0.146s0.593 0.237 0.853 0.418l-0.655 1.059c-0.218-0.149-0.436-0.262-0.655-0.341s-0.453-0.118-0.703-0.118c-0.204 0-0.339 0.028-0.404 0.084s-0.098 0.128-0.098 0.216c0 0.046 0.013 0.087 0.038 0.122s0.068 0.067 0.129 0.098c0.060 0.030 0.142 0.060 0.244 0.091s0.232 0.064 0.39 0.101c0.307 0.074 0.571 0.156 0.794 0.244s0.406 0.193 0.55 0.313c0.144 0.121 0.25 0.265 0.32 0.432s0.104 0.364 0.104 0.592c0.001 0.279-0.050 0.518-0.149 0.717zM28.2 21.39c-0.1 0.2-0.239 0.362-0.418 0.488s-0.391 0.218-0.637 0.279c-0.246 0.060-0.515 0.091-0.808 0.091-0.395 0-0.772-0.057-1.131-0.171s-0.668-0.254-0.923-0.421l0.655-1.059c0.088 0.060 0.192 0.12 0.31 0.178s0.241 0.11 0.369 0.157c0.127 0.046 0.257 0.084 0.387 0.111s0.25 0.042 0.362 0.042c0.241 0 0.407-0.023 0.498-0.070s0.136-0.128 0.136-0.244c0-0.046-0.013-0.088-0.038-0.125s-0.070-0.073-0.132-0.108c-0.063-0.035-0.147-0.070-0.254-0.104s-0.241-0.071-0.404-0.108c-0.293-0.070-0.548-0.144-0.766-0.223s-0.399-0.178-0.543-0.296c-0.144-0.118-0.252-0.261-0.324-0.428s-0.108-0.374-0.108-0.62c0-0.227 0.045-0.436 0.136-0.627s0.219-0.353 0.387-0.488c0.167-0.135 0.369-0.239 0.606-0.313s0.501-0.111 0.794-0.111c0.418 0 0.781 0.049 1.090 0.146s0.593 0.237 0.853 0.418l-0.655 1.059c-0.218-0.149-0.436-0.262-0.655-0.341s-0.453-0.118-0.703-0.118c-0.204 0-0.339 0.028-0.404 0.084s-0.098 0.128-0.098 0.216c0 0.046 0.013 0.087 0.038 0.122s0.068 0.067 0.129 0.098c0.060 0.030 0.142 0.060 0.244 0.091s0.232 0.064 0.39 0.101c0.307 0.074 0.571 0.156 0.794 0.244s0.406 0.193 0.55 0.313c0.144 0.121 0.25 0.265 0.32 0.432s0.104 0.364 0.104 0.592c0 0.279-0.050 0.518-0.149 0.717z"></path>
</svg>
