<!-- Generated by IcoMoon.io -->
<svg version="1.1" xmlns="http://www.w3.org/2000/svg" width="32" height="32" viewBox="0 0 32 32" fill="#002F47">
<title>dotnet</title>
<path d="M32 9.563h-8.718v1.292h3.596v11.146h1.526v-11.146h3.596v-1.292zM21.811 10.855v-1.292h-6.663v12.439h6.663v-1.293h-5.137v-4.343h4.577v-1.292h-4.577v-4.218h5.137zM2.148 21.394c0 0.593-0.481 1.074-1.074 1.074s-1.074-0.481-1.074-1.074c0-0.594 0.481-1.074 1.074-1.074s1.074 0.48 1.074 1.074v0zM13.415 9.563h-1.526v9.82l-7.016-9.82h-1.526v12.439h1.526v-9.81l7.021 9.81h1.521v-12.439z"></path>
</svg>
