<!-- Generated by IcoMoon.io -->
<svg version="1.1" xmlns="http://www.w3.org/2000/svg" width="31" height="32" viewBox="0 0 31 32" fill="#002F47">
<title>postgresql</title>
<path d="M22.285 1.501l0.001-0.001c2.29 0.025 5.244 0.713 7.349 3.213 0.674 0.8 0.768 1.731 0.75 2.777s-0.22 2.239-0.58 3.537c-0.61 2.196-1.683 4.678-3.175 7.016 0.379-0.007 0.875-0.049 1.559-0.181 0.518-0.099 1.001-0.305 1.768 0.238 0.384 0.271 0.609 0.852 0.57 1.226s-0.184 0.598-0.314 0.78c-0.517 0.726-1.228 1.135-2.168 1.54-1.061 0.458-2.328 0.61-3.499 0.561h-0.057l-0.19-0.019c-0.025 0.121-0.046 0.257-0.067 0.409-0.081 2.82-0.5 4.558-1.417 5.771-0.926 1.226-2.317 1.616-3.413 1.835-1.556 0.31-2.925-0.155-3.622-0.903s-0.876-1.596-0.941-1.759c-0.401-1.008-0.431-2.161-0.485-3.404-0.017-0.393-0.033-0.781-0.048-1.179-0.383 0.159-0.767 0.275-1.131 0.333-1.069 0.17-1.977 0-2.51-0.124-0.297-0.069-0.589-0.164-0.884-0.314-0.234-0.119-0.482-0.248-0.723-0.542-0.494 0.378-1.070 0.631-1.702 0.656-0.902 0.036-1.669-0.382-2.225-0.884-1.111-1.004-1.822-2.483-2.472-4.126s-1.169-3.453-1.54-4.991c-0.371-1.538-0.588-2.722-0.627-3.451-0.142-2.64 0.53-4.583 1.806-5.837s3.005-1.698 4.582-1.778c2.27-0.115 4.418 0.463 5.457 0.799 1.052-0.573 2.367-0.917 3.888-0.894 0.8 0.012 1.524 0.089 2.206 0.2 0.029-0.008 0.043-0.019 0.076-0.029 0.221-0.061 0.526-0.136 0.894-0.209 0.735-0.146 1.736-0.279 2.88-0.266zM22.010 2.261l0.001-0c-1.083 0.009-2.020 0.163-2.671 0.304-0.326 0.071-0.579 0.142-0.742 0.19-0.082 0.024-0.139 0.042-0.181 0.057-0.010 0.004-0.026 0.005-0.038 0.010-0.006 0.002-0.007 0.004-0.019 0.010-0.673-0.156-1.393-0.254-2.177-0.266-1.542-0.023-2.769 0.363-3.727 0.97-0.469-0.169-2.313-0.799-4.468-0.894-0.354-0.015-0.714-0.010-1.074 0.010-1.441 0.077-2.924 0.478-4.002 1.54s-1.703 2.749-1.569 5.248c0.032 0.587 0.244 1.806 0.608 3.318s0.872 3.283 1.502 4.877c0.63 1.594 1.365 3.002 2.272 3.822 0.454 0.41 0.987 0.689 1.578 0.666s1.149-0.348 1.654-0.913c1.206-1.349 2.201-2.321 2.396-2.51 0.521 0.261 1.099 0.414 1.711 0.428 0.001 0.016 0.008 0.032 0.009 0.047-0.357 0.39-0.532 0.624-0.704 0.751-0.199 0.147-0.518 0.269-1.445 0.447-0.511 0.098-0.847 0.205-1.103 0.399-0.128 0.097-0.244 0.233-0.285 0.399s0.006 0.335 0.076 0.456c0.141 0.243 0.353 0.365 0.57 0.475s0.444 0.186 0.665 0.238c0.474 0.11 1.269 0.255 2.158 0.114 0.654-0.104 1.366-0.375 1.996-0.903-0.009 1.079 0.006 2.115 0.047 3.014 0.030 0.659 0.074 1.243 0.133 1.721s0.119 0.835 0.238 1.112c0.172 0.401 0.464 1.056 1.093 1.55s1.608 0.78 2.947 0.513c1.083-0.216 1.883-0.552 2.453-1.103s0.865-1.281 1.036-2.206c0.203-1.092 0.54-3.585 0.694-4.925 0.003 0.001 0.007-0.001 0.009 0 0.368 0.106 0.805 0.147 1.274 0.143 0.938-0.010 1.991-0.176 2.729-0.494 0.832-0.359 1.488-0.795 1.816-1.255 0.082-0.115 0.154-0.242 0.171-0.409s-0.075-0.398-0.238-0.513c-0.326-0.23-0.646-0.168-1.074-0.086-1.703 0.327-2.555 0.201-2.928 0.057-0.093-0.036-0.155-0.073-0.2-0.105 1.791-2.535 3.062-5.361 3.736-7.786 0.347-1.25 0.535-2.392 0.551-3.346s-0.114-1.732-0.561-2.263c-1.986-2.36-4.755-2.928-6.921-2.909zM22.020 3.069l-0-0c2.002-0.017 4.438 0.47 6.227 2.596 0.22 0.261 0.395 0.895 0.38 1.759s-0.189 1.953-0.523 3.156c-0.621 2.235-1.796 4.855-3.413 7.225-0.047-0.054-0.094-0.106-0.143-0.162 0.614-0.946 0.722-1.908 0.675-2.786-0.049-0.933-0.244-1.792-0.219-2.519 0.034-1 0.312-1.71 0.276-2.757 0.003-0.009 0.008-0.021 0.009-0.028 0.021-0.080 0.012-0.124 0.009-0.171-0.005-0.094-0.020-0.181-0.047-0.285-0.054-0.208-0.152-0.471-0.295-0.789-0.285-0.636-0.75-1.473-1.455-2.31-0.855-1.017-2.068-2.047-3.679-2.71 0.581-0.112 1.342-0.211 2.196-0.219zM16.173 3.373l-0-0c3.245 0.050 5.339 1.586 6.636 3.128 0.648 0.771 1.094 1.538 1.35 2.111 0.076 0.169 0.098 0.272 0.143 0.399-1.531-0.144-2.546 0.113-3.128 0.732-0.657 0.698-0.618 1.687-0.361 2.643s0.753 1.938 1.207 2.748c0.227 0.405 0.437 0.769 0.608 1.055s0.305 0.517 0.333 0.58c0.262 0.591 0.602 1.013 0.865 1.322 0.136 0.159 0.24 0.29 0.314 0.39-0.095 0.026-0.211 0.054-0.333 0.105-0.246 0.103-0.529 0.295-0.713 0.608-0.176 0.3-0.259 0.691-0.238 1.198l-0 0.009 0 0.010c0.001 0.017-0.001 0.031 0 0.047-0.064 0.743-0.529 4.315-0.761 5.562-0.156 0.842-0.4 1.393-0.808 1.787s-1.014 0.667-2.006 0.865c-1.144 0.228-1.769-0-2.206-0.342s-0.681-0.843-0.846-1.226c-0.050-0.115-0.125-0.455-0.181-0.903s-0.103-1.018-0.133-1.664c-0.060-1.292-0.067-2.893-0.019-4.487l0-0.005c0-0.033-0.009-0.086-0.019-0.118-0.001-0.010-0.008-0.019-0.010-0.029l0-0.009-0-0.009c-0.019-0.111-0.045-0.221-0.086-0.323-0.163-0.409-0.471-0.762-0.913-0.932-0.144-0.056-0.384-0.158-0.694-0.133-0.056 0.005-0.114 0.024-0.171 0.038 0.088-0.343 0.243-0.754 0.428-1.217 0-0.001-0-0.009 0-0.010 0.439-1.098 1.631-2.549 0.723-6.455-0.189-0.814-0.707-1.351-1.341-1.578-0.317-0.114-0.654-0.162-0.989-0.162s-0.665 0.045-0.989 0.114c-0.648 0.139-1.26 0.379-1.721 0.618-0.007 0.004-0.012 0.006-0.019 0.010 0.062-0.728 0.225-1.814 0.665-2.9 0.378-0.931 0.95-1.837 1.806-2.5 0.066-0.051 0.139-0.104 0.209-0.152 0.831-0.578 1.914-0.945 3.394-0.922zM7.644 3.439l-0-0c1.605 0.032 3.163 0.437 4.012 0.694-0.804 0.735-1.34 1.637-1.702 2.529-0.822 2.026-0.771 4.033-0.77 4.060 0 0-0.001-0.012 0 0.009s0.005 0.055 0.009 0.076c0.006 0.269 0.042 0.671 0.057 1.274 0.016 0.656 0 1.491-0.133 2.377-0.229 1.522 0.422 2.92 1.512 3.784-0.295 0.288-1.194 1.172-2.339 2.453-0.411 0.46-0.747 0.607-1.027 0.618s-0.589-0.11-0.941-0.428c-0.704-0.636-1.443-1.982-2.054-3.527s-1.116-3.296-1.474-4.782c-0.358-1.486-0.566-2.739-0.589-3.185-0.127-2.358 0.449-3.78 1.331-4.649s2.118-1.223 3.422-1.293c0.23-0.012 0.455-0.014 0.684-0.010zM23.283 9.78c0.11-0.005 0.228-0.002 0.352 0 0.232 0.004 0.496 0.025 0.78 0.057-0.016 0.795-0.241 1.445-0.276 2.472-0.031 0.874 0.174 1.743 0.219 2.586 0.036 0.683-0.020 1.338-0.361 2.006-0.080-0.133-0.156-0.274-0.228-0.437-0.077-0.174-0.208-0.378-0.38-0.665s-0.379-0.644-0.599-1.036c-0.439-0.784-0.905-1.724-1.131-2.567s-0.195-1.531 0.171-1.92c0.24-0.255 0.685-0.46 1.455-0.494zM12.826 9.913c0.251 0 0.482 0.035 0.675 0.105 0.387 0.139 0.666 0.388 0.808 0.998 0.869 3.739-0.16 4.695-0.684 6.008-0.18 0.451-0.356 0.881-0.466 1.302-1.882-0.003-3.484-1.703-3.175-3.755 0.142-0.944 0.159-1.825 0.143-2.51-0.015-0.625-0.060-1.041-0.067-1.217 0.012-0.010 0.012-0.016 0.029-0.029 0.094-0.071 0.259-0.174 0.456-0.276 0.394-0.204 0.937-0.415 1.483-0.532 0.273-0.059 0.547-0.095 0.799-0.095zM23.113 10.161c-0.085-0.002-0.181 0.007-0.276 0.019-0.19 0.025-0.361 0.069-0.485 0.133-0.062 0.032-0.105 0.072-0.143 0.114s-0.065 0.096-0.057 0.152c0.008 0.054 0.033 0.103 0.076 0.152s0.102 0.099 0.171 0.143c0.138 0.087 0.328 0.15 0.532 0.124s0.373-0.138 0.494-0.257c0.061-0.059 0.11-0.121 0.143-0.181 0.031-0.056 0.053-0.106 0.047-0.162-0-0.003 0-0.007 0-0.009-0.008-0.056-0.047-0.102-0.095-0.133s-0.112-0.051-0.181-0.067c-0.069-0.015-0.143-0.027-0.228-0.028zM12.883 10.36c-0.089 0.002-0.172 0.012-0.247 0.029s-0.14 0.038-0.2 0.076c-0.025 0.016-0.055 0.043-0.076 0.066h-0.038l-0.019 0.114c-0.013 0.084 0.020 0.143 0.057 0.209s0.087 0.136 0.152 0.2c0.13 0.127 0.316 0.247 0.542 0.276s0.431-0.039 0.58-0.133c0.075-0.047 0.133-0.106 0.181-0.162s0.084-0.106 0.095-0.181c0.012-0.079-0.021-0.148-0.067-0.2s-0.104-0.098-0.171-0.133c-0.135-0.070-0.306-0.117-0.504-0.143-0.099-0.013-0.196-0.021-0.285-0.019zM24.643 19.183c0.114 0.087 0.248 0.169 0.428 0.238 0.622 0.239 1.645 0.326 3.442-0.019-0.266 0.223-0.705 0.52-1.217 0.742-0.539 0.233-1.553 0.41-2.377 0.418-0.412 0.004-0.786-0.041-1.008-0.105-0.106-0.031-0.168-0.059-0.19-0.076-0.020-0.416 0.052-0.66 0.133-0.799 0.084-0.143 0.183-0.202 0.314-0.257s0.285-0.080 0.475-0.143zM14.252 19.287l0 0c0.068-0.006 0.149 0.024 0.285 0.076 0.14 0.054 0.338 0.242 0.428 0.466s0.080 0.439-0.029 0.58c-0.629 0.819-1.364 1.133-2.072 1.245s-1.392 0.001-1.806-0.095c-0.145-0.034-0.326-0.1-0.466-0.171-0.058-0.029-0.049-0.029-0.086-0.057 0.116-0.051 0.285-0.113 0.589-0.171 0.962-0.184 1.445-0.334 1.816-0.608s0.529-0.569 0.979-1.036c0.191-0.199 0.293-0.223 0.361-0.228z"></path>
</svg>
