<!-- Generated by IcoMoon.io -->
<svg version="1.1" xmlns="http://www.w3.org/2000/svg" width="31" height="32" viewBox="0 0 31 32" fill="#002F47">
<title>mysql-database</title>
<path d="M16.629 2c5.866 0 12.18 1.769 12.18 5.655v16.53c0 3.885-6.314 5.655-12.18 5.655s-12.18-1.77-12.18-5.655v-16.53c0-3.886 6.313-5.655 12.18-5.655zM27.069 24.185v-3.25c-1.797 1.852-6.134 2.815-10.44 2.815s-8.643-0.963-10.44-2.815v3.25c0 2.161 4.674 3.915 10.44 3.915s10.44-1.754 10.44-3.915zM27.069 18.965v-3.25c-1.797 1.852-6.134 2.815-10.44 2.815s-8.643-0.963-10.44-2.815l0.003 3.25c0 0.009-0.003 0.018-0.003 0.027 0 2.148 4.675 3.888 10.44 3.888s10.44-1.74 10.44-3.888c0-0.009-0.003-0.018-0.003-0.027h0.003zM27.069 13.745v-2.989c-2.28 1.737-6.46 2.554-10.44 2.554s-8.16-0.817-10.44-2.554l0.003 2.989c0 0.009-0.003 0.018-0.003 0.027 0 2.148 4.675 3.888 10.44 3.888s10.44-1.74 10.44-3.888c0-0.009-0.003-0.018-0.003-0.027h0.003zM16.629 11.57c5.765 0 10.44-1.754 10.44-3.915 0-2.163-4.675-3.915-10.44-3.915s-10.44 1.752-10.44 3.915c0 2.161 4.674 3.915 10.44 3.915zM23.589 24.62c0-0.58 0.29-0.87 0.87-0.87s0.87 0.29 0.87 0.87-0.29 0.87-0.87 0.87-0.87-0.29-0.87-0.87zM23.589 19.4c0-0.58 0.29-0.87 0.87-0.87s0.87 0.29 0.87 0.87-0.29 0.87-0.87 0.87-0.87-0.29-0.87-0.87zM23.589 14.18c0-0.58 0.29-0.87 0.87-0.87s0.87 0.29 0.87 0.87-0.29 0.87-0.87 0.87-0.87-0.29-0.87-0.87z"></path>
</svg>
