<svg xmlns="http://www.w3.org/2000/svg" width="505.952" height="355.024" viewBox="0 0 505.952 355.024"><defs><style>.cls-2{opacity:.3}.cls-14,.cls-15,.cls-16,.cls-21,.cls-24,.cls-25,.cls-26,.cls-27,.cls-3{fill:none}.cls-3{stroke:#4d4d4d}.cls-14,.cls-15,.cls-16,.cls-24,.cls-25,.cls-26,.cls-27,.cls-3{stroke-miterlimit:10}.cls-6{fill:#2c5871}.cls-7{fill:#367089}.cls-8{fill:#81d4dc}.cls-10,.cls-9{fill:#1d1d1b}.cls-9{opacity:.05}.cls-10{opacity:.1}.cls-11{fill:#7dadba}.cls-12{fill:#91eaf3}.cls-13{opacity:.5}.cls-14{stroke:#666}.cls-14,.cls-15,.cls-16,.cls-26{stroke-width:13.09881px}.cls-15,.cls-16{stroke:#1d1d1b}.cls-15,.cls-25,.cls-27{stroke-linecap:round}.cls-17{opacity:.2}.cls-18{fill:#de9462}.cls-20{fill:#ef9f6a}.cls-24,.cls-25,.cls-27{stroke-width:9.3563px}.cls-24,.cls-25{stroke:#ef9f6a}.cls-26,.cls-27{stroke:#2c5871}.cls-36{fill:#0c2f46}</style></defs><g style="isolation:isolate"><g id="kran"><path class="cls-2" d="M504.916 248.031h-27.413v-8.236l27.413 8.236z"/><path class="cls-3" d="M251.887 97.472l56.264-19.353 56.391 19.353M304.125 21.548h8.937v36.543h-8.937z"/><path fill="#ffd301" d="M302.109 57.35h12.972l-6.481 9.892-6.491-9.892z"/><path class="cls-3" d="M313.364 74.375a4.768 4.768 0 1 1-4.77-4.77v-2.363M471.999 45.781v165.558M449.708 45.781v165.558M449.708 45.781h22.291v22.291h-22.291z"/><path class="cls-3" d="M449.708 68.071h22.291v22.291h-22.291zM449.708 90.362h22.291v22.291h-22.291zM449.708 112.653h22.291v22.291h-22.291z"/><path class="cls-3" d="M449.708 134.944h22.291v22.291h-22.291z"/><path class="cls-3" d="M449.708 157.234h22.291v22.291h-22.291zM449.708 179.525h22.291v22.289h-22.291z"/><path class="cls-3" d="M449.708 201.814h22.291v22.292h-22.291zM449.708 45.781l22.291 22.29M471.999 68.071l-22.291 22.291M449.708 90.362l22.291 22.291M471.999 112.653l-22.291 22.291M449.708 134.944l22.291 22.29M471.999 157.234l-22.291 22.291M449.708 179.525l22.291 22.289M471.999 201.814l-22.291 22.293"/><path d="M486.688 2.657l16.998 18.634h-16.998V2.657m-1-2.58V22.29h20.264L485.688.076z" fill="#4d4d4d"/><path class="cls-6" d="M266.615 22.291h221.882"/><path class="cls-7" d="M266.614 0v22.291h220.135V0H266.614z"/><path class="cls-6" d="M443.803 22.231h33.699v24.587h-33.699zM443.803 223.45h33.699v24.587h-33.699z"/></g><g id="containers"><g id="_3" data-name="3"><path class="cls-2" d="M253.335 248.031h-27.413v-8.236l27.413 8.236z"/><path class="cls-8" d="M88.639 179.968H225.63v68.063H88.639z"/><path class="cls-9" d="M92.671 184.001h128.925v59.997H92.671z"/><path class="cls-10" d="M219.983 185.614v56.77H94.285v-56.77h125.698m1.613-1.613H92.671v59.997h128.925V184z"/><path class="cls-11" d="M157.51 188.73a2.142 2.142 0 0 0-2.143 2.143v46.967a2.143 2.143 0 1 0 4.286 0v-46.967a2.142 2.142 0 0 0-2.143-2.143zM146.83 188.73a2.142 2.142 0 0 0-2.143 2.143v46.967a2.143 2.143 0 1 0 4.287 0v-46.967a2.142 2.142 0 0 0-2.143-2.143zM136.189 188.73a2.142 2.142 0 0 0-2.144 2.143v46.967a2.143 2.143 0 1 0 4.287 0v-46.967a2.192 2.192 0 0 0-2.143-2.143zM125.51 188.73a2.142 2.142 0 0 0-2.144 2.143v46.967a2.143 2.143 0 1 0 4.287 0v-46.967a2.167 2.167 0 0 0-2.144-2.143zM200.228 188.73a2.142 2.142 0 0 0-2.144 2.143v46.967a2.143 2.143 0 1 0 4.287 0v-46.967a2.192 2.192 0 0 0-2.143-2.143zM210.87 188.73a2.142 2.142 0 0 0-2.144 2.143v46.967a2.143 2.143 0 1 0 4.287 0v-46.967a2.142 2.142 0 0 0-2.143-2.143zM114.83 188.73a2.142 2.142 0 0 0-2.144 2.143v46.967a2.143 2.143 0 1 0 4.287 0v-46.967a2.167 2.167 0 0 0-2.143-2.143zM104.15 188.73a2.142 2.142 0 0 0-2.143 2.143v46.967a2.143 2.143 0 1 0 4.287 0v-46.967a2.142 2.142 0 0 0-2.144-2.143zM189.548 188.73a2.142 2.142 0 0 0-2.143 2.143v46.967a2.143 2.143 0 1 0 4.287 0v-46.967a2.167 2.167 0 0 0-2.144-2.143zM178.869 188.73a2.142 2.142 0 0 0-2.144 2.143v46.967a2.143 2.143 0 1 0 4.287 0v-46.967a2.167 2.167 0 0 0-2.143-2.143zM168.19 188.73a2.142 2.142 0 0 0-2.144 2.143v46.967a2.142 2.142 0 0 0 2.143 2.144 2.119 2.119 0 0 0 2.144-2.144v-46.967a2.167 2.167 0 0 0-2.144-2.143z"/><path class="cls-12" d="M157.134 188.354a2.142 2.142 0 0 0-2.143 2.143v46.967a2.143 2.143 0 1 0 4.286 0v-46.967a2.142 2.142 0 0 0-2.143-2.143zM146.455 188.354a2.142 2.142 0 0 0-2.144 2.143v46.967a2.143 2.143 0 1 0 4.287 0v-46.967a2.142 2.142 0 0 0-2.143-2.143zM135.813 188.354a2.142 2.142 0 0 0-2.144 2.143v46.967a2.143 2.143 0 1 0 4.287 0v-46.967a2.192 2.192 0 0 0-2.143-2.143zM125.133 188.354a2.142 2.142 0 0 0-2.143 2.143v46.967a2.143 2.143 0 1 0 4.287 0v-46.967a2.167 2.167 0 0 0-2.144-2.143zM199.852 188.354a2.142 2.142 0 0 0-2.144 2.143v46.967a2.143 2.143 0 1 0 4.287 0v-46.967a2.192 2.192 0 0 0-2.143-2.143zM210.494 188.354a2.142 2.142 0 0 0-2.144 2.143v46.967a2.143 2.143 0 1 0 4.287 0v-46.967a2.142 2.142 0 0 0-2.143-2.143zM114.454 188.354a2.142 2.142 0 0 0-2.144 2.143v46.967a2.143 2.143 0 1 0 4.287 0v-46.967a2.167 2.167 0 0 0-2.143-2.143zM103.774 188.354a2.142 2.142 0 0 0-2.143 2.143v46.967a2.143 2.143 0 1 0 4.287 0v-46.967a2.142 2.142 0 0 0-2.144-2.143zM189.172 188.354a2.142 2.142 0 0 0-2.143 2.143v46.967a2.143 2.143 0 1 0 4.287 0v-46.967a2.167 2.167 0 0 0-2.144-2.143zM178.493 188.354a2.142 2.142 0 0 0-2.144 2.143v46.967a2.143 2.143 0 1 0 4.287 0v-46.967a2.167 2.167 0 0 0-2.143-2.143zM167.813 188.354a2.142 2.142 0 0 0-2.143 2.143v46.967a2.142 2.142 0 0 0 2.143 2.143 2.119 2.119 0 0 0 2.144-2.143v-46.967a2.167 2.167 0 0 0-2.144-2.143z"/><path class="cls-7" d="M88.459 246.031H225.45v2H88.459z"/><g class="cls-13"><path d="M185.331 229.095a5.756 5.756 0 0 1 1.757.238 3.382 3.382 0 0 1 1.226.664 2.649 2.649 0 0 1 .716 1.023 3.523 3.523 0 0 1 .235 1.302 3.6 3.6 0 0 1-.244 1.347 2.812 2.812 0 0 1-.736 1.054 3.42 3.42 0 0 1-1.228.686 5.465 5.465 0 0 1-1.726.245h-1.407v3.563h-1.883v-10.122zm0 5.089a2.821 2.821 0 0 0 .904-.13 1.715 1.715 0 0 0 .64-.371 1.496 1.496 0 0 0 .381-.588 2.247 2.247 0 0 0 .126-.773 2.036 2.036 0 0 0-.126-.735 1.454 1.454 0 0 0-.378-.56 1.68 1.68 0 0 0-.637-.354 3.038 3.038 0 0 0-.91-.122h-1.407v3.633zM196.469 237.662v1.555h-5.929v-10.122h1.883v8.567zM206.928 239.217h-1.456a.618.618 0 0 1-.399-.123.764.764 0 0 1-.231-.304l-.756-2.065h-4.193l-.756 2.065a.674.674 0 0 1-.217.294.61.61 0 0 1-.4.133h-1.47l3.984-10.122h1.918zm-3.325-3.822l-1.232-3.367a7.364 7.364 0 0 1-.19-.533q-.097-.307-.195-.665c-.061.239-.124.461-.189.67s-.128.388-.188.542l-1.226 3.353zM216.504 229.095v10.122h-.966a.841.841 0 0 1-.375-.074.857.857 0 0 1-.29-.248l-5.285-6.748q.043.461.042.854v6.216h-1.66v-10.122h.988a1.594 1.594 0 0 1 .206.01.459.459 0 0 1 .283.134 1.337 1.337 0 0 1 .141.157l5.306 6.776a22.15 22.15 0 0 1-.035-.483 8.035 8.035 0 0 1-.014-.442v-6.152z"/></g><path class="cls-10" d="M152.682 248.031l-21.719-68.063h94.682v68.063h-72.963z"/></g><g id="_2" data-name="2"><path class="cls-2" d="M434.236 248.031h-27.413v-8.236l27.413 8.236z"/><path class="cls-8" d="M269.504 179.968h136.991v68.063H269.504z"/><path class="cls-7" d="M269.504 246.031h136.991v2H269.504z"/><path class="cls-9" d="M273.537 184.001h128.925v59.997H273.537z"/><path class="cls-10" d="M400.848 185.614v56.77H275.15v-56.77h125.698m1.613-1.613H273.537v59.997H402.46V184z"/><path class="cls-11" d="M338.375 188.73a2.142 2.142 0 0 0-2.143 2.143v46.967a2.143 2.143 0 1 0 4.287 0v-46.967a2.142 2.142 0 0 0-2.144-2.143zM327.696 188.73a2.142 2.142 0 0 0-2.144 2.143v46.967a2.143 2.143 0 1 0 4.287 0v-46.967a2.142 2.142 0 0 0-2.143-2.143zM317.054 188.73a2.142 2.142 0 0 0-2.144 2.143v46.967a2.143 2.143 0 1 0 4.287 0v-46.967a2.192 2.192 0 0 0-2.143-2.143zM306.374 188.73a2.142 2.142 0 0 0-2.143 2.143v46.967a2.143 2.143 0 1 0 4.287 0v-46.967a2.167 2.167 0 0 0-2.144-2.143zM381.093 188.73a2.142 2.142 0 0 0-2.143 2.143v46.967a2.143 2.143 0 1 0 4.286 0v-46.967a2.192 2.192 0 0 0-2.143-2.143zM391.735 188.73a2.142 2.142 0 0 0-2.144 2.143v46.967a2.143 2.143 0 1 0 4.287 0v-46.967a2.142 2.142 0 0 0-2.143-2.143zM295.695 188.73a2.142 2.142 0 0 0-2.143 2.143v46.967a2.143 2.143 0 1 0 4.286 0v-46.967a2.167 2.167 0 0 0-2.143-2.143zM285.016 188.73a2.142 2.142 0 0 0-2.144 2.143v46.967a2.143 2.143 0 1 0 4.287 0v-46.967a2.142 2.142 0 0 0-2.143-2.143zM370.414 188.73a2.142 2.142 0 0 0-2.144 2.143v46.967a2.143 2.143 0 1 0 4.287 0v-46.967a2.167 2.167 0 0 0-2.143-2.143zM359.734 188.73a2.142 2.142 0 0 0-2.143 2.143v46.967a2.143 2.143 0 1 0 4.286 0v-46.967a2.167 2.167 0 0 0-2.143-2.143zM349.055 188.73a2.142 2.142 0 0 0-2.144 2.143v46.967a2.142 2.142 0 0 0 2.144 2.144 2.119 2.119 0 0 0 2.143-2.144v-46.967a2.167 2.167 0 0 0-2.143-2.143z"/><path class="cls-12" d="M338 188.354a2.142 2.142 0 0 0-2.144 2.143v46.967a2.143 2.143 0 1 0 4.287 0v-46.967a2.142 2.142 0 0 0-2.144-2.143zM327.32 188.354a2.142 2.142 0 0 0-2.144 2.143v46.967a2.143 2.143 0 1 0 4.287 0v-46.967a2.142 2.142 0 0 0-2.143-2.143zM316.678 188.354a2.142 2.142 0 0 0-2.144 2.143v46.967a2.143 2.143 0 1 0 4.287 0v-46.967a2.192 2.192 0 0 0-2.143-2.143zM305.998 188.354a2.142 2.142 0 0 0-2.143 2.143v46.967a2.143 2.143 0 1 0 4.287 0v-46.967a2.167 2.167 0 0 0-2.144-2.143zM380.717 188.354a2.142 2.142 0 0 0-2.143 2.143v46.967a2.143 2.143 0 1 0 4.286 0v-46.967a2.192 2.192 0 0 0-2.143-2.143zM391.359 188.354a2.142 2.142 0 0 0-2.144 2.143v46.967a2.143 2.143 0 1 0 4.287 0v-46.967a2.142 2.142 0 0 0-2.143-2.143zM295.319 188.354a2.142 2.142 0 0 0-2.143 2.143v46.967a2.143 2.143 0 1 0 4.286 0v-46.967a2.167 2.167 0 0 0-2.143-2.143zM284.64 188.354a2.142 2.142 0 0 0-2.144 2.143v46.967a2.143 2.143 0 1 0 4.287 0v-46.967a2.142 2.142 0 0 0-2.143-2.143zM370.038 188.354a2.142 2.142 0 0 0-2.144 2.143v46.967a2.143 2.143 0 1 0 4.287 0v-46.967a2.167 2.167 0 0 0-2.143-2.143zM359.358 188.354a2.142 2.142 0 0 0-2.143 2.143v46.967a2.143 2.143 0 1 0 4.286 0v-46.967a2.167 2.167 0 0 0-2.143-2.143zM348.679 188.354a2.142 2.142 0 0 0-2.144 2.143v46.967a2.142 2.142 0 0 0 2.144 2.143 2.119 2.119 0 0 0 2.143-2.143v-46.967a2.167 2.167 0 0 0-2.143-2.143z"/><path class="cls-10" d="M270.017 184.001l21.718 64.03h-21.718v-64.03z"/><g class="cls-13"><path d="M346.349 234.156a5.653 5.653 0 0 1-.368 2.061 4.817 4.817 0 0 1-1.04 1.642 4.74 4.74 0 0 1-1.617 1.082 5.86 5.86 0 0 1-4.192 0 4.766 4.766 0 0 1-1.621-1.082 4.848 4.848 0 0 1-1.046-1.642 5.912 5.912 0 0 1 0-4.123 4.867 4.867 0 0 1 1.046-1.642 4.75 4.75 0 0 1 1.621-1.08 5.456 5.456 0 0 1 2.093-.39 5.682 5.682 0 0 1 1.449.18 5.102 5.102 0 0 1 1.245.503 4.591 4.591 0 0 1 1.019.791 4.805 4.805 0 0 1 .766 1.04 5.1 5.1 0 0 1 .48 1.246 5.948 5.948 0 0 1 .165 1.414zm-1.925 0a4.645 4.645 0 0 0-.225-1.495 3.207 3.207 0 0 0-.636-1.124 2.74 2.74 0 0 0-1.005-.707 3.764 3.764 0 0 0-2.667 0 2.768 2.768 0 0 0-1.008.707 3.184 3.184 0 0 0-.64 1.124 5.106 5.106 0 0 0 0 2.99 3.15 3.15 0 0 0 .64 1.12 2.77 2.77 0 0 0 1.008.703 3.75 3.75 0 0 0 2.667 0 2.743 2.743 0 0 0 1.005-.703 3.172 3.172 0 0 0 .636-1.12 4.647 4.647 0 0 0 .225-1.495zM351.297 229.095a5.756 5.756 0 0 1 1.757.238 3.382 3.382 0 0 1 1.225.664 2.649 2.649 0 0 1 .717 1.023 3.523 3.523 0 0 1 .235 1.302 3.6 3.6 0 0 1-.245 1.347 2.812 2.812 0 0 1-.735 1.054 3.42 3.42 0 0 1-1.228.686 5.465 5.465 0 0 1-1.726.245h-1.407v3.563h-1.883v-10.122zm0 5.089a2.821 2.821 0 0 0 .903-.13 1.715 1.715 0 0 0 .641-.371 1.496 1.496 0 0 0 .38-.588 2.247 2.247 0 0 0 .127-.773 2.036 2.036 0 0 0-.126-.735 1.454 1.454 0 0 0-.378-.56 1.68 1.68 0 0 0-.637-.354 3.038 3.038 0 0 0-.91-.122h-1.407v3.633zM358.396 230.593v2.807h3.542v1.449h-3.542v2.863h4.494v1.505h-6.384v-10.122h6.384v1.498zM372.39 239.217h-1.7a.746.746 0 0 1-.7-.378l-2.129-3.241a.742.742 0 0 0-.262-.259.911.911 0 0 0-.423-.077h-.806v3.955h-1.883v-10.122h3.087a6.445 6.445 0 0 1 1.768.213 3.395 3.395 0 0 1 1.21.599 2.337 2.337 0 0 1 .697.92 3.023 3.023 0 0 1 .225 1.18 3.077 3.077 0 0 1-.15.966 2.798 2.798 0 0 1-.435.826 2.904 2.904 0 0 1-.7.65 3.486 3.486 0 0 1-.949.442 1.902 1.902 0 0 1 .336.248 1.769 1.769 0 0 1 .28.34zm-4.844-5.307a2.907 2.907 0 0 0 .928-.132 1.803 1.803 0 0 0 .651-.368 1.491 1.491 0 0 0 .382-.556 1.925 1.925 0 0 0 .126-.707 1.438 1.438 0 0 0-.508-1.183 2.43 2.43 0 0 0-1.55-.413h-1.205v3.36zM382.735 239.217h-1.457a.618.618 0 0 1-.398-.123.764.764 0 0 1-.231-.304l-.756-2.065h-4.194l-.755 2.065a.674.674 0 0 1-.217.294.61.61 0 0 1-.4.133h-1.47l3.984-10.122h1.918zm-3.326-3.822l-1.231-3.367a7.364 7.364 0 0 1-.19-.533q-.098-.307-.195-.665c-.061.239-.124.461-.19.67s-.127.388-.188.542l-1.225 3.353zM389.773 230.642h-3.053v8.575h-1.883v-8.575h-3.052v-1.547h7.988zM392.84 230.593v2.807h3.542v1.449h-3.542v2.863h4.494v1.505h-6.384v-10.122h6.384v1.498z"/></g></g><g id="_1" data-name="1"><path class="cls-8" d="M239.719 96.35H376.71v68.063H239.719z"/><path class="cls-9" d="M243.752 100.382h128.925v59.997H243.752z"/><path class="cls-10" d="M371.064 101.996v56.77H245.365v-56.77h125.699m1.613-1.614H243.752v59.997h128.925v-59.997z"/><path class="cls-11" d="M308.59 105.111a2.142 2.142 0 0 0-2.143 2.144v46.967a2.143 2.143 0 1 0 4.287 0v-46.967a2.142 2.142 0 0 0-2.143-2.144zM297.911 105.111a2.142 2.142 0 0 0-2.143 2.144v46.967a2.143 2.143 0 1 0 4.287 0v-46.967a2.142 2.142 0 0 0-2.144-2.144zM287.27 105.111a2.142 2.142 0 0 0-2.144 2.144v46.967a2.143 2.143 0 1 0 4.287 0v-46.967a2.192 2.192 0 0 0-2.144-2.144zM276.59 105.111a2.142 2.142 0 0 0-2.143 2.144v46.967a2.143 2.143 0 1 0 4.286 0v-46.967a2.167 2.167 0 0 0-2.143-2.144zM351.308 105.111a2.142 2.142 0 0 0-2.143 2.144v46.967a2.143 2.143 0 1 0 4.287 0v-46.967a2.192 2.192 0 0 0-2.144-2.144zM361.95 105.111a2.142 2.142 0 0 0-2.143 2.144v46.967a2.143 2.143 0 1 0 4.287 0v-46.967a2.142 2.142 0 0 0-2.144-2.144zM265.91 105.111a2.142 2.142 0 0 0-2.143 2.144v46.967a2.143 2.143 0 1 0 4.287 0v-46.967a2.167 2.167 0 0 0-2.144-2.144zM255.231 105.111a2.142 2.142 0 0 0-2.143 2.144v46.967a2.143 2.143 0 1 0 4.286 0v-46.967a2.142 2.142 0 0 0-2.143-2.144zM340.63 105.111a2.142 2.142 0 0 0-2.144 2.144v46.967a2.143 2.143 0 1 0 4.286 0v-46.967a2.167 2.167 0 0 0-2.143-2.144zM329.95 105.111a2.142 2.142 0 0 0-2.144 2.144v46.967a2.143 2.143 0 1 0 4.287 0v-46.967a2.167 2.167 0 0 0-2.143-2.144zM319.27 105.111a2.142 2.142 0 0 0-2.143 2.144v46.967a2.142 2.142 0 0 0 2.143 2.143 2.119 2.119 0 0 0 2.144-2.143v-46.967a2.167 2.167 0 0 0-2.144-2.144z"/><path class="cls-12" d="M308.215 104.735a2.142 2.142 0 0 0-2.144 2.144v46.967a2.143 2.143 0 1 0 4.287 0v-46.967a2.142 2.142 0 0 0-2.143-2.144zM297.535 104.735a2.142 2.142 0 0 0-2.143 2.144v46.967a2.143 2.143 0 1 0 4.287 0v-46.967a2.142 2.142 0 0 0-2.144-2.144zM286.893 104.735a2.142 2.142 0 0 0-2.143 2.144v46.967a2.143 2.143 0 1 0 4.287 0v-46.967a2.192 2.192 0 0 0-2.144-2.144zM276.214 104.735a2.142 2.142 0 0 0-2.143 2.144v46.967a2.143 2.143 0 1 0 4.286 0v-46.967a2.167 2.167 0 0 0-2.143-2.144zM350.932 104.735a2.142 2.142 0 0 0-2.143 2.144v46.967a2.143 2.143 0 1 0 4.287 0v-46.967a2.192 2.192 0 0 0-2.144-2.144zM361.574 104.735a2.142 2.142 0 0 0-2.143 2.144v46.967a2.143 2.143 0 1 0 4.287 0v-46.967a2.142 2.142 0 0 0-2.144-2.144zM265.534 104.735a2.142 2.142 0 0 0-2.143 2.144v46.967a2.143 2.143 0 1 0 4.287 0v-46.967a2.167 2.167 0 0 0-2.144-2.144zM254.855 104.735a2.142 2.142 0 0 0-2.143 2.144v46.967a2.143 2.143 0 1 0 4.286 0v-46.967a2.142 2.142 0 0 0-2.143-2.144zM340.253 104.735a2.142 2.142 0 0 0-2.143 2.144v46.967a2.143 2.143 0 1 0 4.286 0v-46.967a2.167 2.167 0 0 0-2.143-2.144zM329.574 104.735a2.142 2.142 0 0 0-2.144 2.144v46.967a2.143 2.143 0 1 0 4.287 0v-46.967a2.167 2.167 0 0 0-2.143-2.144zM318.894 104.735a2.142 2.142 0 0 0-2.143 2.144v46.967a2.142 2.142 0 0 0 2.143 2.143 2.119 2.119 0 0 0 2.143-2.143v-46.967a2.167 2.167 0 0 0-2.143-2.144z"/><g class="cls-13"><path d="M332.508 145.476a6.665 6.665 0 0 1 1.701.19 3.236 3.236 0 0 1 1.158.538 2.09 2.09 0 0 1 .662.847 2.842 2.842 0 0 1 .21 1.12 2.227 2.227 0 0 1-.105.683 1.967 1.967 0 0 1-.326.608 2.397 2.397 0 0 1-.56.515 3.386 3.386 0 0 1-.808.392q2.086.47 2.086 2.254a2.87 2.87 0 0 1-.246 1.19 2.624 2.624 0 0 1-.713.942 3.405 3.405 0 0 1-1.156.62 5.04 5.04 0 0 1-1.567.223h-3.822v-10.122zm-1.604 1.456v2.926h1.498a2.519 2.519 0 0 0 1.46-.35 1.27 1.27 0 0 0 .494-1.113 1.32 1.32 0 0 0-.449-1.127 2.343 2.343 0 0 0-1.399-.336zm1.905 7.196a2.675 2.675 0 0 0 .882-.126 1.525 1.525 0 0 0 .57-.336 1.234 1.234 0 0 0 .309-.49 1.86 1.86 0 0 0 .093-.595 1.574 1.574 0 0 0-.104-.591 1.116 1.116 0 0 0-.33-.449 1.55 1.55 0 0 0-.576-.283 3.22 3.22 0 0 0-.851-.098h-1.898v2.968zM342.283 154.08a2.473 2.473 0 0 0 .977-.183 1.995 1.995 0 0 0 .725-.51 2.273 2.273 0 0 0 .45-.799 3.27 3.27 0 0 0 .158-1.05v-6.062h1.883v6.062a4.678 4.678 0 0 1-.29 1.67 3.709 3.709 0 0 1-2.153 2.19 5.09 5.09 0 0 1-3.506 0 3.707 3.707 0 0 1-2.154-2.19 4.678 4.678 0 0 1-.29-1.67v-6.062h1.883v6.056a3.301 3.301 0 0 0 .157 1.05 2.28 2.28 0 0 0 .455.801 2.01 2.01 0 0 0 .729.514 2.473 2.473 0 0 0 .976.182zM350.503 155.598h-1.89v-10.122h1.89zM358.662 154.044v1.554h-5.928v-10.122h1.882v8.568zM368.831 150.537a5.48 5.48 0 0 1-.37 2.044 4.59 4.59 0 0 1-2.661 2.646 5.687 5.687 0 0 1-2.1.371h-3.857v-10.122h3.857a5.647 5.647 0 0 1 2.1.375 4.748 4.748 0 0 1 1.617 1.043 4.644 4.644 0 0 1 1.043 1.6 5.476 5.476 0 0 1 .371 2.043zm-1.932 0a4.733 4.733 0 0 0-.22-1.495 3.096 3.096 0 0 0-.638-1.119 2.773 2.773 0 0 0-1.008-.704 3.46 3.46 0 0 0-1.333-.245h-1.967v7.126h1.967a3.442 3.442 0 0 0 1.333-.245 2.77 2.77 0 0 0 1.008-.703 3.093 3.093 0 0 0 .638-1.12 4.722 4.722 0 0 0 .22-1.495z"/></g></g></g><g id="kunde"><ellipse class="cls-2" cx="96.105" cy="351.397" rx="18.725" ry="3.627"/><path class="cls-14" d="M89.154 297.612l13.115 43.533"/><path class="cls-15" d="M100.49 335.239l3.234 10.735"/><path class="cls-16" d="M98.969 328.99l3.235 11.938"/><path class="cls-14" d="M89.154 297.612v45.466"/><path class="cls-15" d="M89.154 336.909v11.212"/><path class="cls-16" d="M89.154 330.359v12.492"/><g class="cls-17"><path d="M93.765 328.904l4.089 13.572 1.572 5.196-5.332-45.943-.329-4.798V328.904z"/></g><path class="cls-18" d="M85.847 242.544h6.613v6.613h-6.613z"/><path d="M73.794 263.047a15.36 15.36 0 0 1 15.36-15.359 15.36 15.36 0 0 1 15.36 15.36v38.812h-30.72z" fill="gray"/><path id="_Pfad_" data-name="&lt;Pfad&gt;" class="cls-20" d="M79.54 234.986a9.614 9.614 0 0 0 19.228 0v-11.82H79.54z"/><path id="_Pfad_2" data-name="&lt;Pfad&gt;" class="cls-20" d="M79.54 234.986a9.614 9.614 0 0 0 19.228 0v-11.82H79.54z"/><path class="cls-21" d="M82.098 241.428a6.422 6.422 0 0 0 4.55-1.885"/><path class="cls-17" d="M89.154 244.6a9.575 9.575 0 0 1-3.307-.596v1.548a9.47 9.47 0 0 0 6.614 0v-1.548a9.576 9.576 0 0 1-3.307.596z"/><circle id="_Pfad_3" data-name="&lt;Pfad&gt;" cx="83.044" cy="228.406" r=".946"/><path id="_Pfad_4" data-name="&lt;Pfad&gt;" d="M76.41 217.083h22.258a3.145 3.145 0 0 1 3.23 3.055v11.217a3.146 3.146 0 0 1-3.23 3.055h-.01a9.725 9.725 0 0 1-8.95-5.64 6.884 6.884 0 0 0-2.884-3.24 8.61 8.61 0 0 0-3.235-.85 7.815 7.815 0 0 1-7.18-7.591z" fill="#736357"/><path id="_Pfad_5" data-name="&lt;Pfad&gt;" class="cls-20" d="M88.447 230.53a2.437 2.437 0 1 0 2.975-2.23 2.647 2.647 0 0 0-2.975 2.23z"/><g class="cls-17"><path d="M90.801 252.998a3.293 3.293 0 0 0-3.293 3.294v17.62a4.616 4.616 0 0 1-4.611 4.61h-9.103v6.587h9.103a11.211 11.211 0 0 0 11.197-11.197v-17.62a3.293 3.293 0 0 0-3.293-3.294z"/></g><path d="M89.154 253.645v17.62a7.904 7.904 0 0 1-7.904 7.904H56.776" stroke-width="9.356" stroke="#999" stroke-linecap="round" stroke-miterlimit="10" fill="none"/><path class="cls-24" d="M65.503 279.169h-7.347"/><path class="cls-25" d="M60.233 279.169h-4.711"/></g><g id="berater"><ellipse class="cls-2" cx="23.232" cy="351.397" rx="18.725" ry="3.627"/><path class="cls-26" d="M15.804 297.612v45.466"/><path class="cls-15" d="M15.804 336.909v11.212"/><path class="cls-16" d="M15.804 330.359v12.492"/><path class="cls-26" d="M30.575 297.612v45.466"/><path class="cls-15" d="M30.575 336.909v11.212"/><path class="cls-16" d="M30.575 330.359v12.492"/><path class="cls-18" d="M19.883 242.544h6.613v6.613h-6.613z"/><path class="cls-17" d="M23.19 244.302a9.575 9.575 0 0 1-3.308-.596v1.548a9.47 9.47 0 0 0 6.614 0v-1.548a9.576 9.576 0 0 1-3.307.596z"/><path class="cls-27" d="M4.678 305.862v-43.518c0-6.54 8.904-12.066 19.444-12.066"/><path class="cls-25" d="M4.678 309.029v-6.333"/><path class="cls-24" d="M4.678 305.076v-35.753"/><path class="cls-27" d="M41.786 305.862v-43.518c0-6.54-8.904-12.066-19.444-12.066"/><path class="cls-25" d="M41.786 309.029v-6.333"/><path class="cls-24" d="M41.786 305.076v-35.753"/><path d="M38.548 301.154H7.83v-38.813a15.36 15.36 0 0 1 15.359-15.359 15.36 15.36 0 0 1 15.36 15.36z" fill="#15b0bf"/><path d="M12.11 222.356v10.84a2.789 2.789 0 0 0 2.79 2.79h16.579a2.789 2.789 0 0 0 2.789-2.79v-10.84z"/><path id="_Pfad_6" data-name="&lt;Pfad&gt;" class="cls-20" d="M32.803 234.986a9.614 9.614 0 0 1-19.228 0v-11.82h19.228z"/><path id="_Pfad_7" data-name="&lt;Pfad&gt;" class="cls-20" d="M32.803 234.986a9.614 9.614 0 0 1-19.228 0v-11.82h19.228z"/><path class="cls-21" d="M23.189 241.428a6.45 6.45 0 0 1-6.442-6.442"/><path d="M12.11 220.343v3.519c2.03 1.61 6.226 2.718 11.08 2.718 4.76 0 8.888-1.066 10.96-2.627v-3.61z" fill="#232323" opacity=".2"/><ellipse class="cls-20" cx="32.803" cy="233.149" rx="2.018" ry="2.887"/><ellipse class="cls-20" cx="12.975" cy="233.149" rx="2.018" ry="2.887"/><circle id="_Pfad_8" data-name="&lt;Pfad&gt;" cx="28.508" cy="228.406" r=".946"/><circle id="_Pfad_9" data-name="&lt;Pfad&gt;" cx="18.669" cy="228.406" r=".946"/><path d="M34.268 222.72v-.6a2.789 2.789 0 0 0-2.402-2.763l-8.677-1.215-8.676 1.215a2.789 2.789 0 0 0-2.403 2.762v.602z"/><path d="M23.06 221.714H12.11v2.646s6.028-1.585 10.823-.04v.04l.064-.02.063.02v-.04c4.794-1.545 11.208.422 11.208.422v-2.646z"/><path fill="#1a3842" d="M8.271 218.925h29.836v3.363H8.271z"/><path d="M23.19 225.112c6.837 0 12.38-2.197 12.38-4.907H10.809c0 2.71 5.543 4.907 12.381 4.907z" fill="#244959"/><path d="M23.19 206.402A14.308 14.308 0 0 0 8.88 220.709h28.616a14.307 14.307 0 0 0-14.308-14.307z" fill="#002f47"/><path class="cls-6" d="M8.271 218.875h29.836v1.834H8.271z"/><g style="mix-blend-mode:screen"><path d="M11.942 217.427a.717.717 0 0 1-.223-.036.733.733 0 0 1-.477-.92 12.213 12.213 0 0 1 7.547-7.776.734.734 0 0 1 .487 1.384 10.74 10.74 0 0 0-6.636 6.836.734.734 0 0 1-.698.512z" fill="#fff" opacity=".3"/></g><path d="M29.88 212.287H17.744a.554.554 0 0 0-.553.566v3.738a.563.563 0 0 0 .553.577h9.321v1.008l.75-1.008h2.063a.597.597 0 0 0 .592-.577v-3.738a.588.588 0 0 0-.592-.566z" fill="#ffd800"/><path class="cls-36" d="M18.948 213.084l-.97 2.323h.44l.19-.463h1.033l.19.463h.44l-.97-2.323zm-.21 1.517l.386-.947.387.947zM21.394 213.084h-.886v2.323h.416v-.813h.47a.755.755 0 1 0 0-1.51zm-.02 1.133h-.45v-.756h.45a.379.379 0 0 1 0 .756zM22.831 214.594h.47a.755.755 0 1 0 0-1.51h-.886v2.323h.416zm0-1.133h.45a.379.379 0 0 1 0 .756h-.45zM26.186 213.084h-.417v1.39c0 .413-.21.593-.523.593-.317 0-.527-.18-.527-.593v-1.39h-.417v1.433a.942.942 0 0 0 1.884 0zM26.556 213.727h.4v1.68h-.4zM26.756 213.057a.237.237 0 1 0 .236.237.238.238 0 0 0-.236-.237zM28.463 215.454a1.205 1.205 0 1 0-1.226-1.203 1.203 1.203 0 0 0 1.226 1.203zm0-2.033a.828.828 0 1 1-.816.83.813.813 0 0 1 .816-.83zM18.014 216.197a.15.15 0 0 0 .14.084c.077 0 .093-.045.093-.072 0-.05-.045-.07-.113-.095-.089-.033-.159-.07-.159-.168a.157.157 0 0 1 .172-.15.192.192 0 0 1 .171.09l-.07.05a.108.108 0 0 0-.1-.05c-.043 0-.075.025-.075.059 0 .05.045.06.126.093.1.04.148.083.148.168 0 .094-.064.164-.194.164a.219.219 0 0 1-.213-.126zM18.385 215.806h.097l.112.372.114-.372h.075l.114.372.113-.372h.097l-.166.555h-.078l-.117-.372-.118.372h-.078zM19.188 215.806h.1v.555h-.1zM19.45 216.197a.15.15 0 0 0 .14.084c.077 0 .093-.045.093-.072 0-.05-.045-.07-.112-.095-.09-.033-.16-.07-.16-.168a.157.157 0 0 1 .172-.15.192.192 0 0 1 .171.09l-.07.05a.108.108 0 0 0-.1-.05c-.043 0-.075.025-.075.059 0 .05.045.06.126.093.1.04.148.083.148.168 0 .094-.064.164-.194.164a.219.219 0 0 1-.213-.126zM19.92 216.197a.15.15 0 0 0 .138.084c.077 0 .094-.045.094-.072 0-.05-.045-.07-.113-.095-.089-.033-.159-.07-.159-.168a.157.157 0 0 1 .172-.15.192.192 0 0 1 .17.09l-.07.05a.108.108 0 0 0-.099-.05c-.043 0-.075.025-.075.059 0 .05.044.06.126.093.1.04.147.083.147.168 0 .094-.063.164-.194.164a.219.219 0 0 1-.213-.126zM20.949 215.797a.29.29 0 0 1 .22.1l-.068.057a.2.2 0 0 0-.152-.067.197.197 0 0 0 0 .393.2.2 0 0 0 .153-.069l.067.058a.29.29 0 1 1-.22-.472zM21.507 215.797a.287.287 0 1 1-.293.288.287.287 0 0 1 .293-.288zm0 .485a.198.198 0 1 0-.195-.197.193.193 0 0 0 .195.197zM21.903 215.806h.088l.293.385v-.385h.096v.555H22.3l-.3-.392v.392h-.096zM22.61 215.896h-.15v-.09h.399v.09h-.15v.465h-.1zM23.072 215.806h.084l.231.555h-.105l-.045-.111h-.246l-.046.11h-.104zm.134.362l-.092-.226-.092.226zM23.47 215.806h.099v.555h-.1zM23.705 215.806h.087l.294.385v-.385h.096v.555H24.1l-.3-.392v.392h-.096zM24.317 215.806h.353v.09h-.254v.132h.238v.09h-.238v.153h.26v.09h-.36zM24.79 215.806h.215a.176.176 0 0 1 .18.176.167.167 0 0 1-.102.158l.135.22h-.113l-.118-.197h-.099v.198h-.099zm.204.268a.087.087 0 0 0 .092-.09.083.083 0 0 0-.084-.088h-.114v.178zM25.638 215.806h.212a.18.18 0 1 1 0 .36h-.112v.195h-.1zm.207.27a.09.09 0 0 0 0-.18h-.107v.18zM26.118 215.806h.099v.465h.22v.09h-.32zM26.73 215.806h.085l.231.555h-.105l-.045-.111h-.246l-.046.11H26.5zm.135.362l-.092-.226-.092.226zM27.179 215.896h-.15v-.09h.4v.09h-.15v.465h-.1zM27.507 215.806h.336v.09h-.237v.14h.216v.09h-.216v.235h-.099zM28.198 215.797a.287.287 0 1 1-.293.288.287.287 0 0 1 .293-.288zm0 .485a.198.198 0 1 0-.195-.197.193.193 0 0 0 .195.197zM28.594 215.806h.215a.176.176 0 0 1 .18.176.167.167 0 0 1-.1.158l.133.22h-.112l-.118-.197h-.099v.198h-.099zm.205.268a.087.087 0 0 0 .092-.09.083.083 0 0 0-.084-.088h-.114v.178zM29.108 215.806h.085l.199.311.198-.31h.084v.554h-.094v-.376l-.188.293-.19-.292v.375h-.094z"/></g></g></svg>