<svg xmlns="http://www.w3.org/2000/svg" xmlns:xlink="http://www.w3.org/1999/xlink" width="505.952" height="355.024" viewBox="0 0 505.952 355.024">
  <defs>
    <symbol id="a" data-name="shatten" viewBox="0 0 75.929 11.334">
      <ellipse cx="37.965" cy="5.667" rx="37.965" ry="5.667" opacity="0.3"/>
    </symbol>
    <symbol id="c" data-name="m_arm" viewBox="0 0 6 42.711">
      <g>
        <line x1="3" y1="3" x2="3" y2="14.401" fill="#e89a66" stroke="#e89a66" stroke-linecap="round" stroke-miterlimit="10" stroke-width="6"/>
        <line x1="3" y1="14.401" x2="3" y2="30.801" fill="none" stroke="#ef9e69" stroke-linecap="round" stroke-miterlimit="10" stroke-width="6"/>
        <line x1="3" y1="29.801" x2="3" y2="39.711" fill="none" stroke="#ef9e69" stroke-linecap="round" stroke-miterlimit="10" stroke-width="6"/>
      </g>
    </symbol>
    <symbol id="d" data-name="m_arm_gebeugter 2" viewBox="0 0 22.765 36.363">
      <g>
        <line x1="19.765" y1="3" x2="19.765" y2="14.401" fill="#e89a66" stroke="#e89a66" stroke-linecap="round" stroke-miterlimit="10" stroke-width="6"/>
        <line x1="19.765" y1="14.401" x2="8.901" y2="26.688" fill="none" stroke="#ef9e69" stroke-linecap="round" stroke-miterlimit="10" stroke-width="6"/>
        <line x1="9.564" y1="25.939" x2="3" y2="33.363" fill="none" stroke="#ef9e69" stroke-linecap="round" stroke-miterlimit="10" stroke-width="6"/>
      </g>
    </symbol>
    <symbol id="e" data-name="L_hemd_blau_front 5" viewBox="0 0 45 45.991">
      <path d="M30.211.155c-.2-.034-4.148-.049-4.148-.049V.135L15.239.083A17.854,17.854,0,0,0,0,17.735v4.632H45V17.735A17.855,17.855,0,0,0,30.211.155Z" fill="#585e61"/>
      <g>
        <g>
          <path d="M22.388.056A13.377,13.377,0,0,0,9.011,13.433V45.991h13.5V.056Z" fill="#474e51"/>
          <path d="M36.011,13.433A13.377,13.377,0,0,0,22.635.056h-.124V45.991h13.5Z" fill="#474e51"/>
        </g>
        <polygon points="22.583 8.98 22.583 9.04 22.648 9.078 22.583 8.98" fill="#075d79"/>
      </g>
      <g>
        <polygon points="26.064 0.135 26.063 0.106 26.058 0.135 26.064 0.135" fill="none"/>
        <path d="M23.23.49l.188-.451L15.322,0c-.355.053-.7.131-1.051.2l.1.236,1.944,4.675,2.5,3.782.066.1,2.429-3.881Z" fill="#dc9161"/>
        <polygon points="18.879 8.996 22.573 6.757 21.308 5.115 18.879 8.996" fill="#4a4f52"/>
        <polygon points="23.23 0.49 21.308 5.115 22.573 6.757 24.519 9.282 25.846 1.732 26.141 0.052 23.418 0.039 23.23 0.49" fill="#585e61"/>
        <polygon points="15.057 6.744 18.813 8.957 18.813 8.897 16.313 5.115 15.057 6.744" fill="#4a4f52"/>
        <path d="M13.1,9.282l1.956-2.538,1.256-1.629L14.369.44,14.271.2a17.717,17.717,0,0,0-2.63.768l.118.673Z" fill="#6a6e70"/>
      </g>
      <polygon points="22.795 45.862 18.796 45.862 18.731 9.04 22.573 6.757 22.795 45.862" fill="#4a4f52"/>
    </symbol>
    <symbol id="f" data-name="schuhe_black_seite" viewBox="0 0 16 12.81">
      <g>
        <g>
          <rect x="7" width="9" height="12" fill="#c7d1db"/>
          <rect y="11.981" width="16" height="0.828" fill="#c7d1db"/>
        </g>
        <g>
          <rect x="7" width="9" height="12"/>
          <rect y="11.981" width="16" height="0.828" fill="#c7d1db"/>
        </g>
      </g>
      <rect x="6.014" y="6" width="9.986" height="6"/>
      <path d="M6.014,6a6,6,0,0,0-6,6h12A6,6,0,0,0,6.014,6Z"/>
    </symbol>
    <symbol id="g" data-name="M_Bein_dunkel_jeans" viewBox="0 0 9 50.194">
      <line x1="4.5" x2="4.5" y2="24.34" fill="none" stroke="#888" stroke-miterlimit="10" stroke-width="9"/>
      <line x1="4.5" y1="24.34" x2="4.5" y2="45.694" fill="none" stroke="#888" stroke-linecap="round" stroke-miterlimit="10" stroke-width="9"/>
      <line x1="4.5" y1="45.024" x2="4.5" y2="50.194" fill="none" stroke="#888" stroke-miterlimit="10" stroke-width="9"/>
    </symbol>
    <symbol id="j" data-name="m_huefte_front 2" viewBox="0 0 26.986 15.649">
      <path d="M0,0H26.986a0,0,0,0,1,0,0V2.156A13.493,13.493,0,0,1,13.493,15.649h0A13.493,13.493,0,0,1,0,2.156V0A0,0,0,0,1,0,0Z" fill="#888"/>
      <g>
        <rect width="4.597" height="2.156" fill="#1e1e1c"/>
        <rect x="5.597" width="4.597" height="2.156" fill="#1e1e1c"/>
        <rect x="11.194" width="4.597" height="2.156" fill="#1e1e1c"/>
        <rect x="16.792" width="4.597" height="2.156" fill="#1e1e1c"/>
        <rect x="22.389" width="4.597" height="2.156" fill="#1e1e1c"/>
      </g>
    </symbol>
    <symbol id="b" data-name="Kunde" viewBox="0 0 71.318 175.944">
      <g>
        <use width="6" height="42.711" transform="matrix(-1.25, 0, 0, 1.25, 12.733, 62.408)" xlink:href="#c"/>
        <g>
          <g>
            <path d="M33.711,39.758a13.94,13.94,0,0,0,4.414-1.032v8.081h-10V39.021a14.432,14.432,0,0,0,4.626.769C33.069,39.79,33.389,39.78,33.711,39.758Z" fill="#dc9161"/>
            <path d="M33.55,37.264a11.484,11.484,0,0,0,4.575-1.285v2.747a13.94,13.94,0,0,1-4.414,1.032c-.322.022-.642.032-.96.032a14.432,14.432,0,0,1-4.626-.769v-2.67A12,12,0,0,0,33.55,37.264Z" fill="#c98559"/>
          </g>
          <g>
            <use width="22.765" height="36.363" transform="matrix(-1.25, 0, 0, 1.25, 72.068, 59.488)" xlink:href="#d"/>
            <use width="45" height="45.991" transform="matrix(-1.25, 0, 0, 1.25, 56.25, 41.9)" xlink:href="#e"/>
          </g>
          <g>
            <g>
              <use width="16" height="12.81" transform="matrix(-1.25, 0, 0, 1.25, 53.301, 159.932)" xlink:href="#f"/>
              <use width="9" height="50.194" transform="matrix(-1.25, 0, 0, 1.25, 44.761, 102.644)" xlink:href="#g"/>
            </g>
            <g>
              <use width="16" height="12.81" transform="matrix(-1.25, 0, 0, 1.25, 30.834, 159.932)" xlink:href="#f"/>
              <use width="9" height="50.194" transform="matrix(-1.25, 0, 0, 1.25, 22.293, 102.644)" xlink:href="#g"/>
            </g>
            <use width="26.986" height="15.649" transform="matrix(-1.25, 0, 0, 1.25, 44.761, 98.682)" xlink:href="#j"/>
          </g>
        </g>
      </g>
      <g>
        <ellipse cx="20.863" cy="23.062" rx="2.523" ry="3.608" transform="translate(-0.214 0.196) rotate(-0.535)" fill="#dc9161"/>
        <path d="M20.808,11.806A12.244,12.244,0,0,1,31.869.374,12.009,12.009,0,0,1,44.758,11.592l.034.017.123,13.113,0,.412.005.637-.032.018A12.005,12.005,0,0,1,36.154,36.8c-.118.034-.236.065-.355.095-.211.052-.422.1-.637.141-.2.039-.4.07-.6.1-.173.024-.345.047-.52.064-.077.007-.151.022-.229.028-.132.01-.262,0-.394.009s-.268.023-.4.024c-.078,0-.154-.009-.231-.009-.2,0-.406-.013-.607-.025s-.417-.027-.623-.05-.386-.051-.578-.082c-.208-.034-.415-.069-.619-.113-.182-.039-.36-.086-.539-.133-.208-.056-.415-.113-.619-.179-.165-.054-.326-.113-.487-.173-.213-.079-.423-.161-.629-.252-.143-.063-.282-.13-.421-.2-.218-.106-.433-.216-.643-.334-.118-.067-.233-.137-.349-.207-.223-.136-.443-.277-.656-.427-.092-.065-.182-.132-.272-.2-.228-.171-.451-.347-.667-.533-.066-.057-.13-.115-.2-.173-.231-.208-.453-.422-.668-.647l-.126-.136q-.34-.369-.652-.766c-.023-.03-.045-.06-.068-.089-.219-.287-.425-.582-.619-.888l-.022-.036a11.923,11.923,0,0,1-1.8-5.6L20.89,26l0-.637-.109-12.153Z" fill="#ef9e69"/>
        <circle cx="30.089" cy="17.047" r="1.182" fill="#010100"/>
        <circle cx="41.137" cy="16.944" r="1.182" fill="#010100"/>
      </g>
      <path d="M44.863,19.059l-.24,0-.072-7.657a3.813,3.813,0,0,0-3.876-3.776L24.618,7.9a3.812,3.812,0,0,0-3.749,3.847l.07,7.539-.189,0-1.373-5.156a29.489,29.489,0,0,1-.993-7.322h0a6.691,6.691,0,0,1,6.7-6.68L38.706,0a4.482,4.482,0,0,1,4.571,4.389h0a2.93,2.93,0,0,1,2.937,3.275Z" fill="#736358"/>
      <path d="M35.606,29.106c2.224,0,4.026-1.165,4.026-2.6H31.58C31.58,27.941,33.382,29.106,35.606,29.106Z" fill="#ca875a"/>
    </symbol>
    <symbol id="m" data-name="m_Kopf_Main_seite" viewBox="0 0 22.432 37.38">
      <g>
        <ellipse cx="20.414" cy="18.315" rx="2.018" ry="2.887" fill="#dc9161"/>
        <path d="M20.374,9.31A9.794,9.794,0,0,0,11.44.248,9.606,9.606,0,0,0,1.214,9.319l-.028.013v11.33l.027.014a9.6,9.6,0,0,0,7.072,8.747c.094.026.189.05.285.073.168.04.338.077.51.108s.319.053.481.074c.138.018.276.035.416.047.061,0,.121.017.183.021.106.007.21,0,.316,0s.215.017.324.017c.063,0,.123-.009.185-.01.163,0,.324-.013.485-.024s.334-.024.5-.044.309-.045.462-.071.331-.058.494-.095c.145-.033.288-.071.43-.11.167-.046.332-.094.494-.148.132-.044.26-.093.389-.142.169-.065.336-.132.5-.206.113-.051.224-.106.335-.162.174-.086.345-.175.512-.272.094-.054.185-.111.277-.168.178-.111.353-.225.523-.347.072-.052.144-.106.215-.161.182-.138.359-.281.53-.431.052-.046.1-.093.154-.14.183-.168.36-.341.53-.522l.1-.11c.18-.2.352-.4.516-.618l.053-.072c.174-.231.336-.468.489-.715l.017-.029a9.547,9.547,0,0,0,1.4-4.5l.026-.013v-.509l0-9.724Z" fill="#ef9e69"/>
        <circle cx="12.989" cy="13.572" r="0.946" fill="#010100"/>
        <circle cx="4.15" cy="13.572" r="0.946" fill="#010100"/>
      </g>
      <g>
        <path d="M10.031,31.742A11.2,11.2,0,0,1,6.5,30.916V37.38h8V31.152a11.563,11.563,0,0,1-3.7.615Q10.418,31.767,10.031,31.742Z" fill="#dc9161"/>
        <path d="M10.16,29.746A9.191,9.191,0,0,1,6.5,28.718v2.2a11.2,11.2,0,0,0,3.531.826q.387.025.769.025a11.563,11.563,0,0,0,3.7-.615V29.016A9.606,9.606,0,0,1,10.16,29.746Z" fill="#c98559"/>
      </g>
      <path d="M1.185,15.293h.192V9.167A3.051,3.051,0,0,1,4.45,6.117L17.3,6.212a3.05,3.05,0,0,1,3.028,3.05v6.031h.152l1.059-4.135a23.583,23.583,0,0,0,.74-5.865h0A5.353,5.353,0,0,0,16.865,0H5.968A3.585,3.585,0,0,0,2.344,3.545h0A2.345,2.345,0,0,0,.019,6.187Z"/>
      <path d="M8.886,22.459c1.382,0,2.5-.655,2.5-1.464H6.382C6.382,21.8,7.5,22.459,8.886,22.459Z" fill="#ca875a"/>
    </symbol>
    <symbol id="o" data-name="m_tshirt_main_seite" viewBox="0 0 40.5 44.966">
      <path d="M13,.038H27.5a13,13,0,0,1,13,13v9a0,0,0,0,1,0,0H0a0,0,0,0,1,0,0v-9A13,13,0,0,1,13,.038Z" fill="#2c5871"/>
      <path d="M18.376,0h.247A13.376,13.376,0,0,1,32,13.376V44.966a0,0,0,0,1,0,0H5a0,0,0,0,1,0,0V13.376A13.376,13.376,0,0,1,18.376,0Z" fill="#1ab0be"/>
    </symbol>
    <symbol id="q" data-name="M_Bein_jeans" viewBox="0 0 11 50.194">
      <line x1="5.5" x2="5.5" y2="24.34" fill="none" stroke="#2d5972" stroke-miterlimit="10" stroke-width="9"/>
      <line x1="5.5" y1="24.34" x2="5.5" y2="45.694" fill="none" stroke="#2d5972" stroke-linecap="round" stroke-miterlimit="10" stroke-width="9"/>
      <line x1="5.5" y1="45.024" x2="5.5" y2="50.194" fill="none" stroke="#537e8e" stroke-miterlimit="10" stroke-width="11"/>
    </symbol>
    <symbol id="t" data-name="m_huefte_front" viewBox="0 0 26.986 15.649">
      <path d="M0,0H26.986a0,0,0,0,1,0,0V2.156A13.493,13.493,0,0,1,13.493,15.649h0A13.493,13.493,0,0,1,0,2.156V0A0,0,0,0,1,0,0Z" fill="#2c5972"/>
      <g>
        <rect width="4.597" height="2.156" fill="#1e1e1c"/>
        <rect x="5.597" width="4.597" height="2.156" fill="#1e1e1c"/>
        <rect x="11.194" width="4.597" height="2.156" fill="#1e1e1c"/>
        <rect x="16.792" width="4.597" height="2.156" fill="#1e1e1c"/>
        <rect x="22.389" width="4.597" height="2.156" fill="#1e1e1c"/>
      </g>
    </symbol>
    <symbol id="u" data-name="m_arm_gebeugter" viewBox="0 0 31.31 17.733">
      <g>
        <line x1="28.31" y1="3.333" x2="28.31" y2="14.733" fill="#e89a66" stroke="#e89a66" stroke-linecap="round" stroke-miterlimit="10" stroke-width="6"/>
        <line x1="28.31" x2="28.31" y2="4.733" fill="#e89a66" stroke="#e89a66" stroke-miterlimit="10" stroke-width="6"/>
        <line x1="28.31" y1="14.733" x2="11.909" y2="14.618" fill="none" stroke="#ef9e69" stroke-linecap="round" stroke-miterlimit="10" stroke-width="6"/>
        <line x1="12.909" y1="14.625" x2="3" y2="14.555" fill="none" stroke="#ef9e69" stroke-linecap="round" stroke-miterlimit="10" stroke-width="6"/>
      </g>
    </symbol>
    <symbol id="v" data-name="helm_front 2" viewBox="0 0 29.836 18.71">
      <g>
        <rect y="12.524" width="29.836" height="3.363" fill="#1c3741"/>
        <path d="M9.343,18.71c6.838,0,14.877-2.2,17.957-4.907H2.537C-.543,16.513,2.505,18.71,9.343,18.71Z" fill="#234a59"/>
        <path d="M14.918,0A14.308,14.308,0,0,0,.61,14.307H29.226A14.308,14.308,0,0,0,14.918,0Z" fill="#0c3148"/>
        <rect y="12.473" width="29.836" height="1.834" fill="#2c5871"/>
      </g>
      <g>
        <path d="M6.545,5.885H18.68a.554.554,0,0,1,.552.567v3.737a.563.563,0,0,1-.552.577H9.358v1.008l-.749-1.008H6.545a.6.6,0,0,1-.592-.577V6.452A.588.588,0,0,1,6.545,5.885Z" fill="#ffd804"/>
        <g>
          <path d="M17.124,6.682l-.97,2.323h.44l.19-.463h1.033l.19.463h.44l-.97-2.323ZM16.914,8.2l.386-.947.387.947Z" fill="#093046"/>
          <path d="M14.273,7.439a.757.757,0,0,0,.757.753h.47v.813h.417V6.682H15.03A.753.753,0,0,0,14.273,7.439Zm.414,0a.358.358,0,0,1,.363-.38h.45v.756h-.45A.359.359,0,0,1,14.687,7.439Z" fill="#093046"/>
          <path d="M13.593,9.005h.417V6.682h-.887a.755.755,0,1,0,0,1.51h.47Zm0-1.19h-.45a.378.378,0,0,1,0-.756h.45Z" fill="#093046"/>
          <path d="M10.239,6.682h.417v1.39c0,.413.21.593.523.593s.527-.18.527-.593V6.682h.416V8.115a.87.87,0,0,1-.943.927.869.869,0,0,1-.94-.927Z" fill="#093046"/>
          <rect x="9.469" y="7.325" width="0.4" height="1.68" fill="#093046"/>
          <path d="M9.669,6.655a.237.237,0,1,1-.237.237A.239.239,0,0,1,9.669,6.655Z" fill="#093046"/>
          <path d="M9.188,7.849a1.229,1.229,0,1,0-1.227,1.2A1.2,1.2,0,0,0,9.188,7.849Zm-.41,0a.817.817,0,1,1-.817-.83A.805.805,0,0,1,8.778,7.849Z" fill="#093046"/>
        </g>
        <g>
          <path d="M18.485,9.842a.218.218,0,0,1-.213.126c-.13,0-.194-.07-.194-.164s.047-.128.148-.168c.081-.033.125-.042.125-.093,0-.034-.031-.059-.075-.059a.108.108,0,0,0-.1.049l-.07-.048a.19.19,0,0,1,.17-.09.157.157,0,0,1,.172.149c0,.1-.07.135-.159.168-.067.026-.113.045-.113.1,0,.027.017.072.094.072A.148.148,0,0,0,18.41,9.8Z" fill="#093046"/>
          <path d="M17.874,9.959H17.8l-.118-.372-.117.372h-.079L17.318,9.4h.1l.113.372.115-.372h.074l.115.372.112-.372h.1Z" fill="#093046"/>
          <path d="M17.237,9.959h-.1V9.4h.1Z" fill="#093046"/>
          <path d="M17.049,9.842a.218.218,0,0,1-.213.126c-.131,0-.194-.07-.194-.164s.047-.128.148-.168c.081-.033.125-.042.125-.093,0-.034-.032-.059-.075-.059a.108.108,0,0,0-.1.049l-.071-.048a.193.193,0,0,1,.171-.09.157.157,0,0,1,.172.149c0,.1-.07.135-.159.168-.068.026-.113.045-.113.1,0,.027.017.072.094.072a.148.148,0,0,0,.139-.084Z" fill="#093046"/>
          <path d="M16.58,9.842a.218.218,0,0,1-.213.126c-.13,0-.194-.07-.194-.164s.047-.128.148-.168c.081-.033.126-.042.126-.093,0-.034-.032-.059-.076-.059a.105.105,0,0,0-.1.049L16.2,9.485a.19.19,0,0,1,.171-.09.156.156,0,0,1,.171.149c0,.1-.07.135-.159.168-.067.026-.112.045-.112.1,0,.027.016.072.093.072a.148.148,0,0,0,.139-.084Z" fill="#093046"/>
          <path d="M15.77,9.682a.294.294,0,0,1-.515.185l.067-.058a.2.2,0,0,0,.154.069.2.2,0,0,0,0-.393.2.2,0,0,0-.152.067l-.068-.058a.29.29,0,0,1,.22-.1A.286.286,0,0,1,15.77,9.682Z" fill="#093046"/>
          <path d="M15.21,9.683a.293.293,0,1,1-.292-.288A.286.286,0,0,1,15.21,9.683Zm-.1,0a.195.195,0,1,0-.194.2A.193.193,0,0,0,15.112,9.683Z" fill="#093046"/>
          <path d="M14.521,9.959h-.1V9.567l-.3.392h-.081V9.4h.1v.384l.293-.384h.087Z" fill="#093046"/>
          <path d="M13.815,9.959h-.1V9.494h-.15V9.4h.4v.089h-.15Z" fill="#093046"/>
          <path d="M13.584,9.959h-.105l-.045-.111h-.247l-.045.111h-.1l.231-.554h.085ZM13.4,9.766l-.092-.226-.093.226Z" fill="#093046"/>
          <path d="M12.955,9.959h-.1V9.4h.1Z" fill="#093046"/>
          <path d="M12.72,9.959h-.1V9.567l-.3.392h-.081V9.4h.1v.384l.293-.384h.088Z" fill="#093046"/>
          <path d="M12.108,9.959h-.359v-.09h.259V9.716h-.237v-.09h.237V9.494h-.253V9.4h.353Z" fill="#093046"/>
          <path d="M11.635,9.959h-.1v-.2h-.1l-.119.2h-.112l.134-.221a.169.169,0,0,1-.1-.158.176.176,0,0,1,.18-.175h.215Zm-.1-.287V9.494h-.114a.083.083,0,0,0-.083.088.086.086,0,0,0,.091.09Z" fill="#093046"/>
          <path d="M10.786,9.959h-.1V9.765h-.112a.18.18,0,1,1,0-.36h.211Zm-.1-.284V9.494H10.58a.091.091,0,0,0,0,.181Z" fill="#093046"/>
          <path d="M10.307,9.959h-.32v-.09h.221V9.4h.1Z" fill="#093046"/>
          <path d="M9.925,9.959H9.82l-.045-.111H9.529l-.046.111H9.378L9.61,9.4h.084Zm-.181-.193L9.652,9.54l-.092.226Z" fill="#093046"/>
          <path d="M9.246,9.959h-.1V9.494H9V9.4h.4v.089h-.15Z" fill="#093046"/>
          <path d="M8.918,9.959h-.1V9.723H8.6v-.09h.215V9.494H8.582V9.4h.336Z" fill="#093046"/>
          <path d="M8.519,9.683A.293.293,0,1,1,8.227,9.4.286.286,0,0,1,8.519,9.683Zm-.1,0a.2.2,0,1,0-.2.2A.194.194,0,0,0,8.422,9.683Z" fill="#093046"/>
          <path d="M7.831,9.959h-.1v-.2h-.1l-.119.2H7.4l.134-.221a.168.168,0,0,1-.1-.158A.175.175,0,0,1,7.615,9.4h.216Zm-.1-.287V9.494H7.618a.084.084,0,0,0-.084.088.087.087,0,0,0,.092.09Z" fill="#093046"/>
          <path d="M7.317,9.959H7.223V9.584l-.19.292-.189-.293v.376H6.751V9.4h.084l.2.31.2-.31h.085Z" fill="#093046"/>
        </g>
      </g>
      <g style="mix-blend-mode: screen">
        <path d="M3.671,11.025a.717.717,0,0,1-.223-.036.733.733,0,0,1-.477-.921,12.216,12.216,0,0,1,7.547-7.775.734.734,0,0,1,.487,1.384,10.743,10.743,0,0,0-6.636,6.836A.734.734,0,0,1,3.671,11.025Z" fill="#fff" opacity="0.3"/>
      </g>
    </symbol>
    <symbol id="l" data-name="Berater 2" viewBox="0 0 52.988 187.306">
      <g>
        <g>
          <use width="22.432" height="37.38" transform="matrix(-1.25, 0, 0, 1.25, 38.438, 10.193)" xlink:href="#m"/>
          <g>
            <use width="6" height="42.711" transform="matrix(-1.25, 0, 0, 1.25, 50.125, 72.52)" xlink:href="#c"/>
            <use width="40.5" height="44.966" transform="matrix(-1.25, 0, 0, 1.25, 50.625, 52.544)" xlink:href="#o"/>
          </g>
          <g>
            <g>
              <use width="16" height="12.81" transform="matrix(-1.25, 0, 0, 1.25, 52.988, 171.294)" xlink:href="#f"/>
              <use width="11" height="50.194" transform="matrix(-1.25, 0, 0, 1.25, 45.698, 114.006)" xlink:href="#q"/>
            </g>
            <g>
              <use width="16" height="12.81" transform="matrix(-1.25, 0, 0, 1.25, 30.549, 171.294)" xlink:href="#f"/>
              <use width="11" height="50.194" transform="matrix(-1.25, 0, 0, 1.25, 23.328, 114.006)" xlink:href="#q"/>
            </g>
            <use width="26.986" height="15.649" transform="matrix(-1.25, 0, 0, 1.25, 44.448, 108.794)" xlink:href="#t"/>
          </g>
        </g>
        <use width="31.31" height="17.733" transform="matrix(-1.297, 0, 0, 1.297, 42.579, 79.915)" xlink:href="#u"/>
      </g>
      <use width="29.836" height="18.71" transform="matrix(-1.25, 0, 0, 1.25, 43.96, 0)" xlink:href="#v"/>
    </symbol>
    <symbol id="y" data-name="M_Bein_jeans 6" viewBox="0 0 11 50.194">
      <line x1="5.5" x2="5.5" y2="24.34" fill="none" stroke="#010202" stroke-miterlimit="10" stroke-width="9"/>
      <line x1="5.5" y1="24.34" x2="5.5" y2="47.803" fill="none" stroke="#010202" stroke-miterlimit="10" stroke-width="9"/>
      <line x1="5.5" y1="46.317" x2="5.5" y2="50.194" fill="none" stroke="#838383" stroke-miterlimit="10" stroke-width="11"/>
    </symbol>
    <symbol id="aa" data-name="M_Bein_jeans 5" viewBox="0 0 11 50.194">
      <line x1="5.5" x2="5.5" y2="24.34" fill="none" stroke="#585e61" stroke-miterlimit="10" stroke-width="9"/>
      <line x1="5.5" y1="24.34" x2="5.5" y2="47.803" fill="none" stroke="#585e61" stroke-miterlimit="10" stroke-width="9"/>
      <line x1="5.5" y1="46.317" x2="5.5" y2="50.194" fill="none" stroke="#9b9b9a" stroke-miterlimit="10" stroke-width="11"/>
    </symbol>
    <symbol id="ab" data-name="m_huefte_grayjeans_front" viewBox="0 0 26.986 15.649">
      <path d="M0,0H26.986a0,0,0,0,1,0,0V2.156A13.493,13.493,0,0,1,13.493,15.649h0A13.493,13.493,0,0,1,0,2.156V0A0,0,0,0,1,0,0Z" fill="#585e61"/>
      <polygon points="23.221 0 22.389 0 4.597 0 3.387 0 0 0 0 2.156 3.387 2.156 4.597 2.156 22.389 2.156 23.221 2.156 26.986 2.156 26.986 0 23.221 0" fill="#313638"/>
    </symbol>
    <symbol id="w" data-name="kunde 3" viewBox="0 0 68.887 188.182">
      <g>
        <g>
          <g>
            <path d="M30.917,47.284a13.967,13.967,0,0,0,4.414-1.032v8.081h-10V46.547a14.431,14.431,0,0,0,4.626.768C30.275,47.315,30.594,47.306,30.917,47.284Z" fill="#dc9161"/>
            <path d="M30.756,44.789a11.471,11.471,0,0,0,4.575-1.284v2.747a13.967,13.967,0,0,1-4.414,1.032c-.323.022-.642.031-.96.031a14.431,14.431,0,0,1-4.626-.768v-2.67A11.983,11.983,0,0,0,30.756,44.789Z" fill="#c98559"/>
          </g>
          <path d="M15.643,106.165h33.75V66.678a16.72,16.72,0,0,0-16.72-16.72h-.309a16.72,16.72,0,0,0-16.721,16.72Z" fill="#9c6f84"/>
          <g>
            <g>
              <use width="16" height="12.81" transform="matrix(-1.25, 0, 0, 1.25, 51.757, 168.708)" xlink:href="#f"/>
              <use width="11" height="50.194" transform="matrix(-1.25, 0, 0, 1.25, 44.466, 111.42)" xlink:href="#y"/>
            </g>
            <g>
              <use width="16" height="12.81" transform="matrix(-1.25, 0, 0, 1.25, 43.068, 168.708)" xlink:href="#f"/>
              <use width="11" height="50.194" transform="matrix(-1.25, 0, 0, 1.25, 35.847, 111.42)" xlink:href="#aa"/>
            </g>
            <use width="26.986" height="15.649" transform="matrix(-1.25, 0, 0, 1.25, 49.466, 106.207)" xlink:href="#ab"/>
          </g>
        </g>
        <g>
          <path d="M40.721,28.084A11.755,11.755,0,1,1,19.414,38.02l-6.108-13.1,21.307-9.935Z" fill="#ef9e69"/>
          <circle cx="34.454" cy="19.893" r="1.156"/>
          <path d="M28.572,21.086c-1.206,2.344,1.22,4.4.072,7.056a7.918,7.918,0,0,1-3.856,4.008,7.6,7.6,0,0,1-3.671.7c-1.334-.08,2.131-.392,1.281.861-1.535,2.262-2.08,6.436-.141,8.393a9.618,9.618,0,0,0-1.855-.859,19.419,19.419,0,0,1-2.14-1.321,20.363,20.363,0,0,1-3.613-3.3c-2.232-2.588-3.312-5.6-4.759-8.641-1-2.105-2.717-3.846-3.782-5.923a10.605,10.605,0,0,1-.083-9.535c2.054-4.064,6.069-4.386,9.52-6.559,2.746-1.728,4.853-4.758,8.1-5.585,8.419-2.143,20.969,5.073,15.716,13.2-.351.544-1.9,1.135-3.416,1.552a10.635,10.635,0,0,0-5.408,3.54Z" fill="#4f2b13"/>
        </g>
        <path d="M25.09,29.555A3.236,3.236,0,0,1,24.9,34.1a3.236,3.236,0,0,1-4.449-.933,3.238,3.238,0,0,1,.19-4.543A3.237,3.237,0,0,1,25.09,29.555Z" fill="#ef9e69"/>
        <g>
          <polyline points="31.297 59.994 34.721 92.08 62.096 120.516" fill="none" stroke="#ef9e69" stroke-linecap="round" stroke-linejoin="round" stroke-width="10.153"/>
          <line x1="31.297" y1="59.994" x2="34.721" y2="92.08" fill="none" stroke="#af7c95" stroke-linecap="round" stroke-linejoin="round" stroke-width="10.153"/>
          <polyline points="32.518 71.442 34.721 92.08 57.473 115.713" fill="none" stroke="#af7c95" stroke-linejoin="round" stroke-width="10.153"/>
        </g>
      </g>
      <use width="75.929" height="11.334" transform="translate(0 177.494) scale(0.907 0.943)" xlink:href="#a"/>
      <path d="M36.1,27.714c.532,1.167,2.582,1.375,4.577.465.02-.009.037-.02.057-.03l-.963-2.11Z" fill="#ca875a"/>
    </symbol>
  </defs>
  <g>
    <g>
      <polygon points="504.916 248.031 477.503 248.031 477.503 239.795 504.916 248.031" fill="#d9d9d9" opacity="0.3"/>
      <g>
        <polyline points="251.887 97.472 308.151 78.119 364.542 97.472" fill="none" stroke="#4d4d4d" stroke-miterlimit="10"/>
        <rect x="304.125" y="21.548" width="8.937" height="36.543" fill="none" stroke="#4d4d4d" stroke-miterlimit="10"/>
        <polygon points="302.109 57.35 315.081 57.35 308.6 67.242 302.109 57.35" fill="#ffd301"/>
        <path d="M313.364,74.375a4.768,4.768,0,1,1-4.77-4.77V67.242" fill="none" stroke="#4d4d4d" stroke-miterlimit="10"/>
        <g>
          <g>
            <line x1="471.999" y1="45.781" x2="471.999" y2="211.339" fill="none" stroke="#4d4d4d" stroke-miterlimit="10"/>
            <line x1="449.708" y1="45.781" x2="449.708" y2="211.339" fill="none" stroke="#4d4d4d" stroke-miterlimit="10"/>
            <rect x="449.708" y="45.781" width="22.291" height="22.291" fill="none" stroke="#4d4d4d" stroke-miterlimit="10"/>
            <rect x="449.708" y="68.071" width="22.291" height="22.291" fill="none" stroke="#4d4d4d" stroke-miterlimit="10"/>
            <rect x="449.708" y="90.362" width="22.291" height="22.291" fill="none" stroke="#4d4d4d" stroke-miterlimit="10"/>
            <rect x="449.708" y="112.653" width="22.291" height="22.291" fill="none" stroke="#4d4d4d" stroke-miterlimit="10"/>
            <rect x="449.708" y="134.944" width="22.291" height="22.291" fill="none" stroke="#4d4d4d" stroke-miterlimit="10"/>
            <rect x="449.708" y="157.234" width="22.291" height="22.291" fill="none" stroke="#4d4d4d" stroke-miterlimit="10"/>
            <rect x="449.708" y="179.525" width="22.291" height="22.289" fill="none" stroke="#4d4d4d" stroke-miterlimit="10"/>
            <rect x="449.708" y="201.814" width="22.291" height="22.292" fill="none" stroke="#4d4d4d" stroke-miterlimit="10"/>
            <line x1="449.708" y1="45.781" x2="471.999" y2="68.071" fill="none" stroke="#4d4d4d" stroke-miterlimit="10"/>
            <line x1="471.999" y1="68.071" x2="449.708" y2="90.362" fill="none" stroke="#4d4d4d" stroke-miterlimit="10"/>
            <line x1="449.708" y1="90.362" x2="471.999" y2="112.653" fill="none" stroke="#4d4d4d" stroke-miterlimit="10"/>
            <line x1="471.999" y1="112.653" x2="449.708" y2="134.944" fill="none" stroke="#4d4d4d" stroke-miterlimit="10"/>
            <line x1="449.708" y1="134.944" x2="471.999" y2="157.234" fill="none" stroke="#4d4d4d" stroke-miterlimit="10"/>
            <line x1="471.999" y1="157.234" x2="449.708" y2="179.525" fill="none" stroke="#4d4d4d" stroke-miterlimit="10"/>
            <line x1="449.708" y1="179.525" x2="471.999" y2="201.814" fill="none" stroke="#4d4d4d" stroke-miterlimit="10"/>
            <line x1="471.999" y1="201.814" x2="449.708" y2="224.107" fill="none" stroke="#4d4d4d" stroke-miterlimit="10"/>
          </g>
          <g>
            <path d="M486.688,2.657l17,18.634h-17V2.657m-1-2.581V22.291h20.264L485.688.076Z" fill="#4d4d4d"/>
            <line x1="266.615" y1="22.291" x2="488.497" y2="22.291" fill="#2c5871"/>
            <polygon points="266.614 0 266.614 22.291 456.683 22.291 486.749 22.291 486.749 0 266.614 0" fill="#367089"/>
          </g>
        </g>
        <rect x="443.803" y="22.231" width="33.699" height="24.587" fill="#2c5871"/>
        <rect x="443.803" y="223.45" width="33.699" height="24.587" fill="#2c5871"/>
      </g>
    </g>
    <g>
      <polygon points="253.335 248.031 225.922 248.031 225.922 239.795 253.335 248.031" fill="#d9d9d9" opacity="0.3"/>
      <g>
        <g>
          <g>
            <rect x="88.639" y="179.968" width="136.991" height="68.063" fill="#81d4dc"/>
            <g>
              <rect x="92.671" y="184.001" width="128.925" height="59.997" fill="#1d1d1b" opacity="0.05"/>
              <path d="M219.983,185.614v56.771H94.285V185.614h125.7M221.6,184H92.671v60H221.6V184Z" fill="#1d1d1b" opacity="0.1"/>
            </g>
          </g>
          <g>
            <g>
              <path d="M157.51,188.73a2.142,2.142,0,0,0-2.143,2.143V237.84a2.143,2.143,0,1,0,4.286,0V190.873a2.142,2.142,0,0,0-2.143-2.143Z" fill="#7dadba"/>
              <path d="M146.831,188.73a2.143,2.143,0,0,0-2.144,2.143V237.84a2.144,2.144,0,1,0,4.287,0V190.873a2.142,2.142,0,0,0-2.143-2.143Z" fill="#7dadba"/>
              <path d="M136.189,188.73a2.143,2.143,0,0,0-2.144,2.143V237.84a2.144,2.144,0,1,0,4.287,0V190.873a2.192,2.192,0,0,0-2.143-2.143Z" fill="#7dadba"/>
              <path d="M125.509,188.73a2.142,2.142,0,0,0-2.143,2.143V237.84a2.144,2.144,0,1,0,4.287,0V190.873a2.167,2.167,0,0,0-2.144-2.143Z" fill="#7dadba"/>
              <path d="M200.228,188.73a2.143,2.143,0,0,0-2.144,2.143V237.84a2.144,2.144,0,1,0,4.287,0V190.873a2.191,2.191,0,0,0-2.143-2.143Z" fill="#7dadba"/>
              <path d="M210.87,188.73a2.143,2.143,0,0,0-2.144,2.143V237.84a2.144,2.144,0,1,0,4.287,0V190.873a2.142,2.142,0,0,0-2.143-2.143Z" fill="#7dadba"/>
              <path d="M114.83,188.73a2.143,2.143,0,0,0-2.144,2.143V237.84a2.144,2.144,0,1,0,4.287,0V190.873a2.166,2.166,0,0,0-2.143-2.143Z" fill="#7dadba"/>
              <path d="M104.15,188.73a2.142,2.142,0,0,0-2.143,2.143V237.84a2.144,2.144,0,1,0,4.287,0V190.873a2.142,2.142,0,0,0-2.144-2.143Z" fill="#7dadba"/>
              <path d="M189.548,188.73a2.142,2.142,0,0,0-2.143,2.143V237.84a2.144,2.144,0,1,0,4.287,0V190.873a2.167,2.167,0,0,0-2.144-2.143Z" fill="#7dadba"/>
              <path d="M178.869,188.73a2.143,2.143,0,0,0-2.144,2.143V237.84a2.144,2.144,0,1,0,4.287,0V190.873a2.166,2.166,0,0,0-2.143-2.143Z" fill="#7dadba"/>
              <path d="M168.189,188.73a2.142,2.142,0,0,0-2.143,2.143V237.84a2.143,2.143,0,0,0,2.143,2.144,2.12,2.12,0,0,0,2.144-2.144V190.873a2.167,2.167,0,0,0-2.144-2.143Z" fill="#7dadba"/>
            </g>
            <g>
              <path d="M157.134,188.354a2.142,2.142,0,0,0-2.143,2.143v46.967a2.143,2.143,0,1,0,4.286,0V190.5a2.142,2.142,0,0,0-2.143-2.143Z" fill="#91eaf3"/>
              <path d="M146.455,188.354a2.143,2.143,0,0,0-2.144,2.143v46.967a2.144,2.144,0,1,0,4.287,0V190.5a2.142,2.142,0,0,0-2.143-2.143Z" fill="#91eaf3"/>
              <path d="M135.813,188.354a2.143,2.143,0,0,0-2.144,2.143v46.967a2.144,2.144,0,1,0,4.287,0V190.5a2.192,2.192,0,0,0-2.143-2.143Z" fill="#91eaf3"/>
              <path d="M125.133,188.354a2.142,2.142,0,0,0-2.143,2.143v46.967a2.144,2.144,0,1,0,4.287,0V190.5a2.167,2.167,0,0,0-2.144-2.143Z" fill="#91eaf3"/>
              <path d="M199.852,188.354a2.143,2.143,0,0,0-2.144,2.143v46.967a2.144,2.144,0,1,0,4.287,0V190.5a2.191,2.191,0,0,0-2.143-2.143Z" fill="#91eaf3"/>
              <path d="M210.494,188.354a2.143,2.143,0,0,0-2.144,2.143v46.967a2.144,2.144,0,1,0,4.287,0V190.5a2.142,2.142,0,0,0-2.143-2.143Z" fill="#91eaf3"/>
              <path d="M114.454,188.354a2.143,2.143,0,0,0-2.144,2.143v46.967a2.144,2.144,0,1,0,4.287,0V190.5a2.167,2.167,0,0,0-2.143-2.143Z" fill="#91eaf3"/>
              <path d="M103.774,188.354a2.142,2.142,0,0,0-2.143,2.143v46.967a2.144,2.144,0,1,0,4.287,0V190.5a2.142,2.142,0,0,0-2.144-2.143Z" fill="#91eaf3"/>
              <path d="M189.172,188.354a2.142,2.142,0,0,0-2.143,2.143v46.967a2.144,2.144,0,1,0,4.287,0V190.5a2.167,2.167,0,0,0-2.144-2.143Z" fill="#91eaf3"/>
              <path d="M178.493,188.354a2.143,2.143,0,0,0-2.144,2.143v46.967a2.144,2.144,0,1,0,4.287,0V190.5a2.166,2.166,0,0,0-2.143-2.143Z" fill="#91eaf3"/>
              <path d="M167.813,188.354a2.142,2.142,0,0,0-2.143,2.143v46.967a2.143,2.143,0,0,0,2.143,2.144,2.12,2.12,0,0,0,2.144-2.144V190.5a2.167,2.167,0,0,0-2.144-2.143Z" fill="#91eaf3"/>
            </g>
          </g>
        </g>
        <rect x="88.459" y="246.031" width="136.991" height="2" fill="#367089"/>
      </g>
      <g opacity="0.5">
        <g>
          <path d="M185.331,229.1a5.762,5.762,0,0,1,1.757.238,3.406,3.406,0,0,1,1.226.664,2.651,2.651,0,0,1,.716,1.023,3.506,3.506,0,0,1,.235,1.3,3.6,3.6,0,0,1-.244,1.347,2.818,2.818,0,0,1-.736,1.054,3.431,3.431,0,0,1-1.228.686,5.47,5.47,0,0,1-1.726.245h-1.407v3.563h-1.883V229.1Zm0,5.089a2.822,2.822,0,0,0,.9-.13,1.723,1.723,0,0,0,.64-.371,1.5,1.5,0,0,0,.381-.588,2.242,2.242,0,0,0,.126-.773,2.039,2.039,0,0,0-.126-.735,1.455,1.455,0,0,0-.378-.56,1.671,1.671,0,0,0-.637-.354,3.033,3.033,0,0,0-.91-.122h-1.407v3.633Z"/>
          <path d="M196.469,237.662v1.555H190.54V229.1h1.883v8.567Z"/>
          <path d="M206.928,239.217h-1.456a.621.621,0,0,1-.4-.123.771.771,0,0,1-.231-.3l-.756-2.065h-4.193l-.756,2.065a.675.675,0,0,1-.217.294.608.608,0,0,1-.4.133h-1.47l3.983-10.122h1.918ZM203.6,235.4l-1.232-3.367c-.06-.15-.124-.327-.189-.533s-.131-.426-.2-.665c-.061.239-.124.461-.189.669s-.128.389-.188.543l-1.226,3.353Z"/>
          <path d="M216.5,229.1v10.122h-.966a.841.841,0,0,1-.375-.074.869.869,0,0,1-.29-.248l-5.285-6.748c.028.307.042.593.042.854v6.216h-1.659V229.1h.987a1.55,1.55,0,0,1,.206.011.476.476,0,0,1,.155.042.489.489,0,0,1,.128.091,1.3,1.3,0,0,1,.141.157l5.306,6.776c-.014-.164-.026-.324-.035-.483s-.014-.306-.014-.442V229.1Z"/>
        </g>
      </g>
      <polygon points="152.682 248.031 130.963 179.968 225.645 179.968 225.645 248.031 152.682 248.031" fill="#1d1d1b" opacity="0.1"/>
    </g>
    <g>
      <polygon points="434.236 248.031 406.823 248.031 406.823 239.795 434.236 248.031" fill="#d9d9d9" opacity="0.3"/>
      <g>
        <g>
          <g>
            <rect x="269.504" y="179.968" width="136.991" height="68.063" fill="#81d4dc"/>
            <rect x="269.504" y="246.031" width="136.991" height="2" fill="#367089"/>
            <g>
              <rect x="273.537" y="184.001" width="128.925" height="59.997" fill="#1d1d1b" opacity="0.05"/>
              <path d="M400.848,185.614v56.771H275.15V185.614h125.7M402.461,184H273.537v60H402.461V184Z" fill="#1d1d1b" opacity="0.1"/>
            </g>
          </g>
          <g>
            <g>
              <path d="M338.375,188.73a2.142,2.142,0,0,0-2.143,2.143V237.84a2.144,2.144,0,1,0,4.287,0V190.873a2.142,2.142,0,0,0-2.144-2.143Z" fill="#7dadba"/>
              <path d="M327.7,188.73a2.143,2.143,0,0,0-2.144,2.143V237.84a2.144,2.144,0,1,0,4.287,0V190.873a2.142,2.142,0,0,0-2.143-2.143Z" fill="#7dadba"/>
              <path d="M317.054,188.73a2.143,2.143,0,0,0-2.144,2.143V237.84a2.144,2.144,0,1,0,4.287,0V190.873a2.191,2.191,0,0,0-2.143-2.143Z" fill="#7dadba"/>
              <path d="M306.374,188.73a2.142,2.142,0,0,0-2.143,2.143V237.84a2.144,2.144,0,1,0,4.287,0V190.873a2.167,2.167,0,0,0-2.144-2.143Z" fill="#7dadba"/>
              <path d="M381.093,188.73a2.142,2.142,0,0,0-2.143,2.143V237.84a2.143,2.143,0,1,0,4.286,0V190.873a2.191,2.191,0,0,0-2.143-2.143Z" fill="#7dadba"/>
              <path d="M391.735,188.73a2.143,2.143,0,0,0-2.144,2.143V237.84a2.144,2.144,0,1,0,4.287,0V190.873a2.142,2.142,0,0,0-2.143-2.143Z" fill="#7dadba"/>
              <path d="M295.7,188.73a2.142,2.142,0,0,0-2.143,2.143V237.84a2.143,2.143,0,1,0,4.286,0V190.873a2.166,2.166,0,0,0-2.143-2.143Z" fill="#7dadba"/>
              <path d="M285.016,188.73a2.143,2.143,0,0,0-2.144,2.143V237.84a2.144,2.144,0,1,0,4.287,0V190.873a2.142,2.142,0,0,0-2.143-2.143Z" fill="#7dadba"/>
              <path d="M370.414,188.73a2.143,2.143,0,0,0-2.144,2.143V237.84a2.144,2.144,0,1,0,4.287,0V190.873a2.167,2.167,0,0,0-2.143-2.143Z" fill="#7dadba"/>
              <path d="M359.734,188.73a2.142,2.142,0,0,0-2.143,2.143V237.84a2.143,2.143,0,1,0,4.286,0V190.873a2.166,2.166,0,0,0-2.143-2.143Z" fill="#7dadba"/>
              <path d="M349.055,188.73a2.143,2.143,0,0,0-2.144,2.143V237.84a2.143,2.143,0,0,0,2.144,2.144,2.119,2.119,0,0,0,2.143-2.144V190.873a2.167,2.167,0,0,0-2.143-2.143Z" fill="#7dadba"/>
            </g>
            <g>
              <path d="M338,188.354a2.142,2.142,0,0,0-2.143,2.143v46.967a2.144,2.144,0,1,0,4.287,0V190.5A2.142,2.142,0,0,0,338,188.354Z" fill="#91eaf3"/>
              <path d="M327.32,188.354a2.143,2.143,0,0,0-2.144,2.143v46.967a2.144,2.144,0,1,0,4.287,0V190.5a2.142,2.142,0,0,0-2.143-2.143Z" fill="#91eaf3"/>
              <path d="M316.678,188.354a2.143,2.143,0,0,0-2.144,2.143v46.967a2.144,2.144,0,1,0,4.287,0V190.5a2.191,2.191,0,0,0-2.143-2.143Z" fill="#91eaf3"/>
              <path d="M306,188.354a2.142,2.142,0,0,0-2.143,2.143v46.967a2.144,2.144,0,1,0,4.287,0V190.5A2.167,2.167,0,0,0,306,188.354Z" fill="#91eaf3"/>
              <path d="M380.717,188.354a2.142,2.142,0,0,0-2.143,2.143v46.967a2.143,2.143,0,1,0,4.286,0V190.5a2.191,2.191,0,0,0-2.143-2.143Z" fill="#91eaf3"/>
              <path d="M391.359,188.354a2.143,2.143,0,0,0-2.144,2.143v46.967a2.144,2.144,0,1,0,4.287,0V190.5a2.142,2.142,0,0,0-2.143-2.143Z" fill="#91eaf3"/>
              <path d="M295.319,188.354a2.142,2.142,0,0,0-2.143,2.143v46.967a2.143,2.143,0,1,0,4.286,0V190.5a2.166,2.166,0,0,0-2.143-2.143Z" fill="#91eaf3"/>
              <path d="M284.64,188.354A2.143,2.143,0,0,0,282.5,190.5v46.967a2.144,2.144,0,1,0,4.287,0V190.5a2.142,2.142,0,0,0-2.143-2.143Z" fill="#91eaf3"/>
              <path d="M370.038,188.354a2.143,2.143,0,0,0-2.144,2.143v46.967a2.144,2.144,0,1,0,4.287,0V190.5a2.167,2.167,0,0,0-2.143-2.143Z" fill="#91eaf3"/>
              <path d="M359.358,188.354a2.142,2.142,0,0,0-2.143,2.143v46.967a2.143,2.143,0,1,0,4.286,0V190.5a2.166,2.166,0,0,0-2.143-2.143Z" fill="#91eaf3"/>
              <path d="M348.679,188.354a2.143,2.143,0,0,0-2.144,2.143v46.967a2.143,2.143,0,0,0,2.144,2.144,2.119,2.119,0,0,0,2.143-2.144V190.5a2.167,2.167,0,0,0-2.143-2.143Z" fill="#91eaf3"/>
            </g>
          </g>
        </g>
        <polygon points="270.017 184.001 291.735 248.031 270.017 248.031 270.017 184.001" fill="#1d1d1b" opacity="0.1"/>
      </g>
      <g opacity="0.5">
        <g>
          <path d="M346.349,234.156a5.654,5.654,0,0,1-.368,2.061,4.834,4.834,0,0,1-1.039,1.642,4.752,4.752,0,0,1-1.618,1.082,5.869,5.869,0,0,1-4.192,0,4.765,4.765,0,0,1-1.621-1.082,4.851,4.851,0,0,1-1.046-1.642,5.913,5.913,0,0,1,0-4.123,4.87,4.87,0,0,1,1.046-1.642,4.763,4.763,0,0,1,1.621-1.081,5.471,5.471,0,0,1,2.093-.388,5.69,5.69,0,0,1,1.449.178,5.171,5.171,0,0,1,1.245.5,4.619,4.619,0,0,1,1.019.791,4.86,4.86,0,0,1,.766,1.039,5.122,5.122,0,0,1,.48,1.247A5.96,5.96,0,0,1,346.349,234.156Zm-1.925,0a4.635,4.635,0,0,0-.225-1.5,3.213,3.213,0,0,0-.636-1.124,2.757,2.757,0,0,0-1-.707,3.766,3.766,0,0,0-2.667,0,2.768,2.768,0,0,0-1.008.707,3.206,3.206,0,0,0-.641,1.124,5.123,5.123,0,0,0,0,2.99,3.17,3.17,0,0,0,.641,1.12,2.771,2.771,0,0,0,1.008.7,3.752,3.752,0,0,0,2.667,0,2.759,2.759,0,0,0,1-.7,3.176,3.176,0,0,0,.636-1.12A4.635,4.635,0,0,0,344.424,234.156Z"/>
          <path d="M351.3,229.1a5.762,5.762,0,0,1,1.757.238,3.393,3.393,0,0,1,1.225.664A2.643,2.643,0,0,1,355,231.02a3.526,3.526,0,0,1,.235,1.3,3.58,3.58,0,0,1-.245,1.347,2.816,2.816,0,0,1-.735,1.054,3.431,3.431,0,0,1-1.228.686,5.474,5.474,0,0,1-1.726.245H349.89v3.563h-1.883V229.1Zm0,5.089a2.812,2.812,0,0,0,.9-.13,1.719,1.719,0,0,0,.641-.371,1.5,1.5,0,0,0,.381-.588,2.242,2.242,0,0,0,.126-.773,2.039,2.039,0,0,0-.126-.735,1.455,1.455,0,0,0-.378-.56,1.671,1.671,0,0,0-.637-.354,3.037,3.037,0,0,0-.91-.122H349.89v3.633Z"/>
          <path d="M358.4,230.593V233.4h3.542v1.449H358.4v2.863h4.494v1.505h-6.384V229.1h6.384v1.5Z"/>
          <path d="M372.391,239.217h-1.7a.747.747,0,0,1-.7-.378l-2.128-3.241a.748.748,0,0,0-.262-.259.912.912,0,0,0-.423-.077h-.806v3.955h-1.883V229.1h3.087a6.429,6.429,0,0,1,1.768.213,3.406,3.406,0,0,1,1.211.6,2.331,2.331,0,0,1,.7.92,3.015,3.015,0,0,1,.225,1.18,3.068,3.068,0,0,1-.151.966,2.788,2.788,0,0,1-.434.826,2.932,2.932,0,0,1-.7.651,3.494,3.494,0,0,1-.949.441,1.857,1.857,0,0,1,.336.248,1.761,1.761,0,0,1,.281.34Zm-4.845-5.307a2.905,2.905,0,0,0,.928-.132,1.8,1.8,0,0,0,.651-.368,1.485,1.485,0,0,0,.382-.556,1.924,1.924,0,0,0,.126-.707,1.439,1.439,0,0,0-.508-1.183,2.431,2.431,0,0,0-1.551-.413h-1.2v3.359Z"/>
          <path d="M382.735,239.217h-1.457a.618.618,0,0,1-.4-.123.753.753,0,0,1-.231-.3l-.756-2.065H375.7l-.755,2.065a.683.683,0,0,1-.217.294.613.613,0,0,1-.4.133h-1.469l3.983-10.122h1.918Zm-3.326-3.822-1.231-3.367c-.061-.15-.124-.327-.19-.533s-.13-.426-.195-.665c-.061.239-.124.461-.189.669s-.128.389-.189.543L376.19,235.4Z"/>
          <path d="M389.773,230.642H386.72v8.575h-1.883v-8.575h-3.052V229.1h7.988Z"/>
          <path d="M392.84,230.593V233.4h3.542v1.449H392.84v2.863h4.494v1.505H390.95V229.1h6.384v1.5Z"/>
        </g>
      </g>
    </g>
    <g>
      <g>
        <g>
          <rect x="239.719" y="96.35" width="136.991" height="68.063" fill="#81d4dc"/>
          <g>
            <rect x="243.752" y="100.382" width="128.925" height="59.997" fill="#1d1d1b" opacity="0.05"/>
            <path d="M371.064,102v56.77h-125.7V102h125.7m1.613-1.614H243.752v60H372.677v-60Z" fill="#1d1d1b" opacity="0.1"/>
          </g>
        </g>
        <g>
          <g>
            <path d="M308.591,105.111a2.143,2.143,0,0,0-2.144,2.144v46.967a2.144,2.144,0,0,0,4.287,0V107.255a2.143,2.143,0,0,0-2.143-2.144Z" fill="#7dadba"/>
            <path d="M297.911,105.111a2.142,2.142,0,0,0-2.143,2.144v46.967a2.144,2.144,0,0,0,4.287,0V107.255a2.143,2.143,0,0,0-2.144-2.144Z" fill="#7dadba"/>
            <path d="M287.269,105.111a2.143,2.143,0,0,0-2.143,2.144v46.967a2.144,2.144,0,0,0,4.287,0V107.255a2.193,2.193,0,0,0-2.144-2.144Z" fill="#7dadba"/>
            <path d="M276.59,105.111a2.142,2.142,0,0,0-2.143,2.144v46.967a2.143,2.143,0,0,0,4.286,0V107.255a2.167,2.167,0,0,0-2.143-2.144Z" fill="#7dadba"/>
            <path d="M351.308,105.111a2.143,2.143,0,0,0-2.143,2.144v46.967a2.144,2.144,0,0,0,4.287,0V107.255a2.193,2.193,0,0,0-2.144-2.144Z" fill="#7dadba"/>
            <path d="M361.95,105.111a2.143,2.143,0,0,0-2.143,2.144v46.967a2.144,2.144,0,0,0,4.287,0V107.255a2.143,2.143,0,0,0-2.144-2.144Z" fill="#7dadba"/>
            <path d="M265.91,105.111a2.143,2.143,0,0,0-2.143,2.144v46.967a2.144,2.144,0,0,0,4.287,0V107.255a2.168,2.168,0,0,0-2.144-2.144Z" fill="#7dadba"/>
            <path d="M255.231,105.111a2.142,2.142,0,0,0-2.143,2.144v46.967a2.143,2.143,0,1,0,4.286,0V107.255a2.143,2.143,0,0,0-2.143-2.144Z" fill="#7dadba"/>
            <path d="M340.629,105.111a2.142,2.142,0,0,0-2.143,2.144v46.967a2.143,2.143,0,1,0,4.286,0V107.255a2.167,2.167,0,0,0-2.143-2.144Z" fill="#7dadba"/>
            <path d="M329.95,105.111a2.143,2.143,0,0,0-2.144,2.144v46.967a2.144,2.144,0,0,0,4.287,0V107.255a2.167,2.167,0,0,0-2.143-2.144Z" fill="#7dadba"/>
            <path d="M319.27,105.111a2.142,2.142,0,0,0-2.143,2.144v46.967a2.142,2.142,0,0,0,2.143,2.143,2.119,2.119,0,0,0,2.144-2.143V107.255a2.168,2.168,0,0,0-2.144-2.144Z" fill="#7dadba"/>
          </g>
          <g>
            <path d="M308.215,104.735a2.143,2.143,0,0,0-2.144,2.144v46.967a2.144,2.144,0,0,0,4.287,0V106.879a2.143,2.143,0,0,0-2.143-2.144Z" fill="#91eaf3"/>
            <path d="M297.535,104.735a2.142,2.142,0,0,0-2.143,2.144v46.967a2.144,2.144,0,0,0,4.287,0V106.879a2.143,2.143,0,0,0-2.144-2.144Z" fill="#91eaf3"/>
            <path d="M286.893,104.735a2.143,2.143,0,0,0-2.143,2.144v46.967a2.144,2.144,0,0,0,4.287,0V106.879a2.193,2.193,0,0,0-2.144-2.144Z" fill="#91eaf3"/>
            <path d="M276.214,104.735a2.142,2.142,0,0,0-2.143,2.144v46.967a2.143,2.143,0,0,0,4.286,0V106.879a2.167,2.167,0,0,0-2.143-2.144Z" fill="#91eaf3"/>
            <path d="M350.932,104.735a2.143,2.143,0,0,0-2.143,2.144v46.967a2.144,2.144,0,0,0,4.287,0V106.879a2.193,2.193,0,0,0-2.144-2.144Z" fill="#91eaf3"/>
            <path d="M361.574,104.735a2.143,2.143,0,0,0-2.143,2.144v46.967a2.144,2.144,0,0,0,4.287,0V106.879a2.143,2.143,0,0,0-2.144-2.144Z" fill="#91eaf3"/>
            <path d="M265.534,104.735a2.143,2.143,0,0,0-2.143,2.144v46.967a2.144,2.144,0,0,0,4.287,0V106.879a2.168,2.168,0,0,0-2.144-2.144Z" fill="#91eaf3"/>
            <path d="M254.855,104.735a2.142,2.142,0,0,0-2.143,2.144v46.967a2.143,2.143,0,1,0,4.286,0V106.879a2.143,2.143,0,0,0-2.143-2.144Z" fill="#91eaf3"/>
            <path d="M340.253,104.735a2.142,2.142,0,0,0-2.143,2.144v46.967a2.143,2.143,0,0,0,4.286,0V106.879a2.167,2.167,0,0,0-2.143-2.144Z" fill="#91eaf3"/>
            <path d="M329.574,104.735a2.143,2.143,0,0,0-2.144,2.144v46.967a2.144,2.144,0,0,0,4.287,0V106.879a2.167,2.167,0,0,0-2.143-2.144Z" fill="#91eaf3"/>
            <path d="M318.894,104.735a2.142,2.142,0,0,0-2.143,2.144v46.967a2.142,2.142,0,0,0,2.143,2.143,2.119,2.119,0,0,0,2.143-2.143V106.879a2.167,2.167,0,0,0-2.143-2.144Z" fill="#91eaf3"/>
          </g>
        </g>
      </g>
      <g opacity="0.5">
        <g>
          <path d="M332.508,145.476a6.666,6.666,0,0,1,1.7.189,3.233,3.233,0,0,1,1.158.539,2.088,2.088,0,0,1,.661.847,2.834,2.834,0,0,1,.21,1.12,2.237,2.237,0,0,1-.1.683,1.96,1.96,0,0,1-.326.608,2.383,2.383,0,0,1-.56.515,3.375,3.375,0,0,1-.808.392q2.085.469,2.086,2.254a2.858,2.858,0,0,1-.246,1.19,2.622,2.622,0,0,1-.713.942,3.4,3.4,0,0,1-1.156.619,5.019,5.019,0,0,1-1.567.224h-3.822V145.476Zm-1.6,1.456v2.926h1.5a2.513,2.513,0,0,0,1.46-.35,1.267,1.267,0,0,0,.494-1.113,1.32,1.32,0,0,0-.449-1.127,2.337,2.337,0,0,0-1.4-.336Zm1.905,7.2a2.681,2.681,0,0,0,.882-.126,1.525,1.525,0,0,0,.57-.336,1.225,1.225,0,0,0,.308-.49,1.845,1.845,0,0,0,.094-.595,1.576,1.576,0,0,0-.1-.591,1.127,1.127,0,0,0-.329-.449,1.562,1.562,0,0,0-.578-.283,3.23,3.23,0,0,0-.85-.1h-1.9v2.968Z"/>
          <path d="M342.283,154.079a2.474,2.474,0,0,0,.977-.182,2,2,0,0,0,.725-.511,2.285,2.285,0,0,0,.451-.8,3.281,3.281,0,0,0,.157-1.05v-6.062h1.883v6.062a4.681,4.681,0,0,1-.29,1.669,3.705,3.705,0,0,1-2.153,2.192,5.1,5.1,0,0,1-3.506,0,3.7,3.7,0,0,1-2.154-2.192,4.681,4.681,0,0,1-.29-1.669v-6.062h1.883v6.056a3.311,3.311,0,0,0,.157,1.049,2.29,2.29,0,0,0,.455.8,2.015,2.015,0,0,0,.729.514A2.472,2.472,0,0,0,342.283,154.079Z"/>
          <path d="M350.5,155.6h-1.89V145.476h1.89Z"/>
          <path d="M358.662,154.044V155.6h-5.928V145.476h1.882v8.568Z"/>
          <path d="M368.831,150.537a5.478,5.478,0,0,1-.371,2.044,4.589,4.589,0,0,1-2.66,2.646,5.688,5.688,0,0,1-2.1.371h-3.857V145.476H363.7a5.648,5.648,0,0,1,2.1.375,4.749,4.749,0,0,1,1.617,1.043,4.642,4.642,0,0,1,1.043,1.6A5.482,5.482,0,0,1,368.831,150.537Zm-1.932,0a4.751,4.751,0,0,0-.22-1.5,3.115,3.115,0,0,0-.638-1.119,2.773,2.773,0,0,0-1.008-.7,3.461,3.461,0,0,0-1.333-.245h-1.967V154.1H363.7a3.442,3.442,0,0,0,1.333-.245,2.771,2.771,0,0,0,1.008-.7,3.111,3.111,0,0,0,.638-1.12A4.742,4.742,0,0,0,366.9,150.537Z"/>
        </g>
      </g>
    </g>
    <g>
      <use width="75.929" height="11.334" transform="translate(63.81 345.534) scale(0.583)" xlink:href="#a"/>
      <use width="71.318" height="175.944" transform="matrix(-0.729, 0, 0, 0.729, 108.89, 220.49)" xlink:href="#b"/>
    </g>
    <g>
      <use width="75.929" height="11.334" transform="translate(5.962 346.357) scale(0.583)" xlink:href="#a"/>
      <use width="52.988" height="187.306" transform="translate(5.913 212.96) scale(0.726)" xlink:href="#l"/>
    </g>
  </g>
  <use width="68.887" height="188.182" transform="translate(44.226 -804.064) scale(0.653)" xlink:href="#w"/>
</svg>
