<svg xmlns="http://www.w3.org/2000/svg" xmlns:xlink="http://www.w3.org/1999/xlink" width="666.172" height="380.361" viewBox="0 0 666.172 380.361">
  <defs>
    <symbol id="b" data-name="schuhe_black_seite" viewBox="0 0 16 12.81">
      <g>
        <g>
          <rect x="7" width="9" height="12" fill="#c7d1db"/>
          <rect y="11.981" width="16" height="0.828" fill="#c7d1db"/>
        </g>
        <g>
          <rect x="7" width="9" height="12"/>
          <rect y="11.981" width="16" height="0.828" fill="#c7d1db"/>
        </g>
      </g>
      <rect x="6.014" y="6" width="9.986" height="6"/>
      <path d="M6.014,6a6,6,0,0,0-6,6h12A6,6,0,0,0,6.014,6Z"/>
    </symbol>
    <symbol id="c" data-name="M_Bein_jeans 6" viewBox="0 0 11 50.194">
      <line x1="5.5" x2="5.5" y2="24.34" fill="none" stroke="#010202" stroke-miterlimit="10" stroke-width="9"/>
      <line x1="5.5" y1="24.34" x2="5.5" y2="47.803" fill="none" stroke="#010202" stroke-miterlimit="10" stroke-width="9"/>
      <line x1="5.5" y1="46.317" x2="5.5" y2="50.194" fill="none" stroke="#838383" stroke-miterlimit="10" stroke-width="11"/>
    </symbol>
    <symbol id="e" data-name="M_Bein_jeans 5" viewBox="0 0 11 50.194">
      <line x1="5.5" x2="5.5" y2="24.34" fill="none" stroke="#585e61" stroke-miterlimit="10" stroke-width="9"/>
      <line x1="5.5" y1="24.34" x2="5.5" y2="47.803" fill="none" stroke="#585e61" stroke-miterlimit="10" stroke-width="9"/>
      <line x1="5.5" y1="46.317" x2="5.5" y2="50.194" fill="none" stroke="#9b9b9a" stroke-miterlimit="10" stroke-width="11"/>
    </symbol>
    <symbol id="f" data-name="m_huefte_grayjeans_front" viewBox="0 0 26.986 15.649">
      <path d="M0,0H26.986a0,0,0,0,1,0,0V2.156A13.493,13.493,0,0,1,13.493,15.649h0A13.493,13.493,0,0,1,0,2.156V0A0,0,0,0,1,0,0Z" fill="#585e61"/>
      <polygon points="23.221 0 22.389 0 4.597 0 3.387 0 0 0 0 2.156 3.387 2.156 4.597 2.156 22.389 2.156 23.221 2.156 26.986 2.156 26.986 0 23.221 0" fill="#313638"/>
    </symbol>
    <symbol id="g" data-name="shatten" viewBox="0 0 75.929 11.334">
      <ellipse cx="37.965" cy="5.667" rx="37.965" ry="5.667" opacity="0.3"/>
    </symbol>
    <symbol id="a" data-name="kunde 3" viewBox="0 0 68.887 188.182">
      <g>
        <g>
          <g>
            <path d="M30.917,47.284a13.967,13.967,0,0,0,4.414-1.032v8.081h-10V46.547a14.431,14.431,0,0,0,4.626.768C30.275,47.315,30.594,47.306,30.917,47.284Z" fill="#dc9161"/>
            <path d="M30.756,44.789a11.471,11.471,0,0,0,4.575-1.284v2.747a13.967,13.967,0,0,1-4.414,1.032c-.323.022-.642.031-.96.031a14.431,14.431,0,0,1-4.626-.768v-2.67A11.983,11.983,0,0,0,30.756,44.789Z" fill="#c98559"/>
          </g>
          <path d="M15.643,106.165h33.75V66.678a16.72,16.72,0,0,0-16.72-16.72h-.309a16.72,16.72,0,0,0-16.721,16.72Z" fill="#9c6f84"/>
          <g>
            <g>
              <use width="16" height="12.81" transform="matrix(-1.25, 0, 0, 1.25, 51.757, 168.708)" xlink:href="#b"/>
              <use width="11" height="50.194" transform="matrix(-1.25, 0, 0, 1.25, 44.466, 111.42)" xlink:href="#c"/>
            </g>
            <g>
              <use width="16" height="12.81" transform="matrix(-1.25, 0, 0, 1.25, 43.068, 168.708)" xlink:href="#b"/>
              <use width="11" height="50.194" transform="matrix(-1.25, 0, 0, 1.25, 35.847, 111.42)" xlink:href="#e"/>
            </g>
            <use width="26.986" height="15.649" transform="matrix(-1.25, 0, 0, 1.25, 49.466, 106.207)" xlink:href="#f"/>
          </g>
        </g>
        <g>
          <path d="M40.721,28.084A11.755,11.755,0,1,1,19.414,38.02l-6.108-13.1,21.307-9.935Z" fill="#ef9e69"/>
          <circle cx="34.454" cy="19.893" r="1.156"/>
          <path d="M28.572,21.086c-1.206,2.344,1.22,4.4.072,7.056a7.918,7.918,0,0,1-3.856,4.008,7.6,7.6,0,0,1-3.671.7c-1.334-.08,2.131-.392,1.281.861-1.535,2.262-2.08,6.436-.141,8.393a9.618,9.618,0,0,0-1.855-.859,19.419,19.419,0,0,1-2.14-1.321,20.363,20.363,0,0,1-3.613-3.3c-2.232-2.588-3.312-5.6-4.759-8.641-1-2.105-2.717-3.846-3.782-5.923a10.605,10.605,0,0,1-.083-9.535c2.054-4.064,6.069-4.386,9.52-6.559,2.746-1.728,4.853-4.758,8.1-5.585,8.419-2.143,20.969,5.073,15.716,13.2-.351.544-1.9,1.135-3.416,1.552a10.635,10.635,0,0,0-5.408,3.54Z" fill="#4f2b13"/>
        </g>
        <path d="M25.09,29.555A3.236,3.236,0,0,1,24.9,34.1a3.236,3.236,0,0,1-4.449-.933,3.238,3.238,0,0,1,.19-4.543A3.237,3.237,0,0,1,25.09,29.555Z" fill="#ef9e69"/>
        <g>
          <polyline points="31.297 59.994 34.721 92.08 62.096 120.516" fill="none" stroke="#ef9e69" stroke-linecap="round" stroke-linejoin="round" stroke-width="10.153"/>
          <line x1="31.297" y1="59.994" x2="34.721" y2="92.08" fill="none" stroke="#af7c95" stroke-linecap="round" stroke-linejoin="round" stroke-width="10.153"/>
          <polyline points="32.518 71.442 34.721 92.08 57.473 115.713" fill="none" stroke="#af7c95" stroke-linejoin="round" stroke-width="10.153"/>
        </g>
      </g>
      <use width="75.929" height="11.334" transform="translate(0 177.494) scale(0.907 0.943)" xlink:href="#g"/>
      <path d="M36.1,27.714c.532,1.167,2.582,1.375,4.577.465.02-.009.037-.02.057-.03l-.963-2.11Z" fill="#ca875a"/>
    </symbol>
  </defs>
  <g>
    <path d="M632.31,33.853a115.634,115.634,0,0,0-163.5,0q-.556.556-1.1,1.118-2.274-2.766-4.858-5.353-1.339-1.338-2.73-2.594A76.919,76.919,0,0,0,329.8,63.062a42.113,42.113,0,1,0,26.423,77.078,76.937,76.937,0,0,0,82.567,9.31c.357-.146.717-.287,1.073-.439A115.611,115.611,0,1,0,632.31,33.853Z" fill="#d1ecfb" fill-rule="evenodd" opacity="0.3"/>
    <path d="M221.113,170.269a88.809,88.809,0,1,0,56.5-101.51,67.32,67.32,0,0,0-116.131.311,81.85,81.85,0,1,0-5.785,54.875,67.34,67.34,0,0,0,65.418,46.324Z" fill="#d1ecfb" fill-rule="evenodd" opacity="0.3"/>
    <g>
      <g>
        <g>
          <rect x="230.838" y="260.769" width="240.704" height="119.592" fill="#81d4dc"/>
          <g>
            <rect x="237.924" y="267.855" width="226.532" height="105.42" fill="#1d1d1b" opacity="0.05"/>
            <path d="M461.621,270.69v99.75H240.758V270.69H461.621m2.835-2.835H237.924v105.42H464.456V267.855Z" fill="#1d1d1b" opacity="0.1"/>
          </g>
        </g>
        <g>
          <g>
            <path d="M351.851,276.164a3.764,3.764,0,0,0-3.766,3.766v82.525a3.766,3.766,0,1,0,7.532,0V279.93a3.765,3.765,0,0,0-3.766-3.766Z" fill="#7dadba"/>
            <path d="M333.086,276.164a3.765,3.765,0,0,0-3.766,3.766v82.525a3.766,3.766,0,1,0,7.532,0V279.93a3.765,3.765,0,0,0-3.766-3.766Z" fill="#7dadba"/>
            <path d="M314.387,276.164a3.765,3.765,0,0,0-3.766,3.766v82.525a3.767,3.767,0,1,0,7.533,0V279.93a3.852,3.852,0,0,0-3.767-3.766Z" fill="#7dadba"/>
            <path d="M295.623,276.164a3.764,3.764,0,0,0-3.766,3.766v82.525a3.766,3.766,0,1,0,7.532,0V279.93a3.808,3.808,0,0,0-3.766-3.766Z" fill="#7dadba"/>
            <path d="M426.91,276.164a3.764,3.764,0,0,0-3.766,3.766v82.525a3.766,3.766,0,1,0,7.532,0V279.93a3.852,3.852,0,0,0-3.766-3.766Z" fill="#7dadba"/>
            <path d="M445.608,276.164a3.765,3.765,0,0,0-3.766,3.766v82.525a3.767,3.767,0,1,0,7.533,0V279.93a3.765,3.765,0,0,0-3.767-3.766Z" fill="#7dadba"/>
            <path d="M276.858,276.164a3.765,3.765,0,0,0-3.766,3.766v82.525a3.766,3.766,0,1,0,7.532,0V279.93a3.808,3.808,0,0,0-3.766-3.766Z" fill="#7dadba"/>
            <path d="M258.093,276.164a3.765,3.765,0,0,0-3.766,3.766v82.525a3.766,3.766,0,1,0,7.532,0V279.93a3.764,3.764,0,0,0-3.766-3.766Z" fill="#7dadba"/>
            <path d="M408.145,276.164a3.765,3.765,0,0,0-3.766,3.766v82.525a3.766,3.766,0,1,0,7.532,0V279.93a3.808,3.808,0,0,0-3.766-3.766Z" fill="#7dadba"/>
            <path d="M389.38,276.164a3.765,3.765,0,0,0-3.766,3.766v82.525a3.766,3.766,0,1,0,7.532,0V279.93a3.807,3.807,0,0,0-3.766-3.766Z" fill="#7dadba"/>
            <path d="M370.616,276.164a3.765,3.765,0,0,0-3.767,3.766v82.525a3.765,3.765,0,0,0,3.767,3.767,3.723,3.723,0,0,0,3.766-3.767V279.93a3.808,3.808,0,0,0-3.766-3.766Z" fill="#7dadba"/>
          </g>
          <g>
            <path d="M351.19,275.5a3.765,3.765,0,0,0-3.766,3.767V361.8a3.766,3.766,0,1,0,7.532,0V279.27a3.765,3.765,0,0,0-3.766-3.767Z" fill="#91eaf3"/>
            <path d="M332.425,275.5a3.765,3.765,0,0,0-3.766,3.767V361.8a3.766,3.766,0,1,0,7.532,0V279.27a3.764,3.764,0,0,0-3.766-3.767Z" fill="#91eaf3"/>
            <path d="M313.727,275.5a3.764,3.764,0,0,0-3.766,3.767V361.8a3.766,3.766,0,0,0,7.532,0V279.27a3.852,3.852,0,0,0-3.766-3.767Z" fill="#91eaf3"/>
            <path d="M294.962,275.5a3.765,3.765,0,0,0-3.766,3.767V361.8a3.766,3.766,0,0,0,7.532,0V279.27a3.808,3.808,0,0,0-3.766-3.767Z" fill="#91eaf3"/>
            <path d="M426.249,275.5a3.765,3.765,0,0,0-3.766,3.767V361.8a3.766,3.766,0,1,0,7.532,0V279.27a3.852,3.852,0,0,0-3.766-3.767Z" fill="#91eaf3"/>
            <path d="M444.948,275.5a3.764,3.764,0,0,0-3.766,3.767V361.8a3.766,3.766,0,0,0,7.532,0V279.27a3.765,3.765,0,0,0-3.766-3.767Z" fill="#91eaf3"/>
            <path d="M276.2,275.5a3.765,3.765,0,0,0-3.766,3.767V361.8a3.766,3.766,0,1,0,7.532,0V279.27A3.807,3.807,0,0,0,276.2,275.5Z" fill="#91eaf3"/>
            <path d="M257.433,275.5a3.765,3.765,0,0,0-3.767,3.767V361.8a3.767,3.767,0,0,0,7.533,0V279.27a3.765,3.765,0,0,0-3.766-3.767Z" fill="#91eaf3"/>
            <path d="M407.484,275.5a3.765,3.765,0,0,0-3.766,3.767V361.8a3.766,3.766,0,0,0,7.532,0V279.27a3.808,3.808,0,0,0-3.766-3.767Z" fill="#91eaf3"/>
            <path d="M388.719,275.5a3.765,3.765,0,0,0-3.766,3.767V361.8a3.767,3.767,0,0,0,7.533,0V279.27a3.808,3.808,0,0,0-3.767-3.767Z" fill="#91eaf3"/>
            <path d="M369.955,275.5a3.764,3.764,0,0,0-3.766,3.767V361.8a3.765,3.765,0,0,0,3.766,3.766,3.723,3.723,0,0,0,3.766-3.766V279.27a3.808,3.808,0,0,0-3.766-3.767Z" fill="#91eaf3"/>
          </g>
        </g>
      </g>
      <g>
        <g>
          <path d="M251.13,250.843a3.233,3.233,0,1,1,3.234,3.234v1.6" fill="none" stroke="#000" stroke-linecap="round" stroke-linejoin="round" stroke-width="1.265"/>
          <g>
            <g>
              <path d="M312.742,100.91A30.806,30.806,0,1,1,281.937,70.1,30.806,30.806,0,0,1,312.742,100.91Z" fill="#c2d64c"/>
              <path d="M280.561,85.371a9.627,9.627,0,1,1-9.628-9.627A9.628,9.628,0,0,1,280.561,85.371Z" fill="#fff" opacity="0.4"/>
              <polygon points="288.675 138.703 273.821 138.703 278.773 129.543 283.723 129.543 288.675 138.703" fill="#c2d64c"/>
              <path d="M287.025,132.448a1.109,1.109,0,0,1-1.109,1.108h-9.128a1.11,1.11,0,0,1-1.11-1.108h0a1.109,1.109,0,0,1,1.11-1.11h9.128a1.108,1.108,0,0,1,1.109,1.11Z"/>
            </g>
            <line x1="281.248" y1="133.556" x2="254.364" y2="247.61" fill="none" stroke="#000" stroke-linecap="round" stroke-linejoin="round" stroke-width="1.265"/>
          </g>
          <g>
            <g>
              <path d="M249.32,87.355a30.806,30.806,0,1,1-30.805-30.806A30.8,30.8,0,0,1,249.32,87.355Z" fill="#002f47"/>
              <path d="M217.139,71.816a9.627,9.627,0,1,1-9.627-9.628A9.628,9.628,0,0,1,217.139,71.816Z" fill="#fff" opacity="0.4"/>
              <polygon points="225.253 125.147 210.399 125.147 215.352 115.988 220.302 115.988 225.253 125.147" fill="#002f47"/>
              <path d="M223.6,118.892A1.11,1.11,0,0,1,222.5,120h-9.129a1.11,1.11,0,0,1-1.11-1.109h0a1.109,1.109,0,0,1,1.11-1.11H222.5a1.109,1.109,0,0,1,1.109,1.11Z"/>
            </g>
            <line x1="217.826" y1="120.001" x2="254.363" y2="250.103" fill="none" stroke="#000" stroke-linecap="round" stroke-linejoin="round" stroke-width="1.265"/>
          </g>
          <g>
            <g>
              <path d="M287.891,163.229a33.887,33.887,0,1,1-33.886-33.886A33.886,33.886,0,0,1,287.891,163.229Z" fill="#ffd301"/>
              <path d="M252.492,146.136a10.59,10.59,0,1,1-10.59-10.59A10.591,10.591,0,0,1,252.492,146.136Z" fill="#fff" opacity="0.4"/>
              <polygon points="261.417 204.801 245.078 204.801 250.525 194.725 255.971 194.725 261.417 204.801" fill="#ffd301"/>
              <path d="M259.6,197.92a1.221,1.221,0,0,1-1.22,1.219H248.342a1.221,1.221,0,0,1-1.222-1.219h0a1.221,1.221,0,0,1,1.222-1.221h10.041a1.221,1.221,0,0,1,1.22,1.221Z"/>
            </g>
            <line x1="253.247" y1="199.139" x2="253.247" y2="247.61" fill="none" stroke="#000" stroke-linecap="round" stroke-linejoin="round" stroke-width="1.265"/>
          </g>
        </g>
        <g>
          <path d="M432.671,250.843a3.233,3.233,0,1,1,3.233,3.234v1.6" fill="none" stroke="#000" stroke-linecap="round" stroke-linejoin="round" stroke-width="1.265"/>
          <g>
            <g>
              <path d="M466.232,103.091a30.806,30.806,0,1,1-30.805-30.806A30.8,30.8,0,0,1,466.232,103.091Z" fill="#ffd301"/>
              <path d="M434.051,87.552a9.627,9.627,0,1,1-9.627-9.627A9.627,9.627,0,0,1,434.051,87.552Z" fill="#fff" opacity="0.4"/>
              <polygon points="442.165 140.884 427.311 140.884 432.264 131.724 437.214 131.724 442.165 140.884" fill="#ffd301"/>
              <path d="M440.516,134.629a1.11,1.11,0,0,1-1.109,1.108h-9.129a1.11,1.11,0,0,1-1.11-1.108h0a1.109,1.109,0,0,1,1.11-1.11h9.129a1.109,1.109,0,0,1,1.109,1.11Z"/>
            </g>
            <line x1="434.738" y1="135.737" x2="434.738" y2="251.644" fill="none" stroke="#000" stroke-linecap="round" stroke-linejoin="round" stroke-width="1.265"/>
          </g>
          <g>
            <g>
              <path d="M485.369,154.826a30.806,30.806,0,1,1-30.805-30.8A30.8,30.8,0,0,1,485.369,154.826Z" fill="#15b0bf"/>
              <path d="M453.188,139.287a9.627,9.627,0,1,1-9.628-9.627A9.629,9.629,0,0,1,453.188,139.287Z" fill="#fff" opacity="0.4"/>
              <polygon points="461.302 192.619 446.448 192.619 451.4 183.459 456.35 183.459 461.302 192.619" fill="#15b0bf"/>
              <path d="M459.652,186.364a1.109,1.109,0,0,1-1.109,1.108h-9.128a1.11,1.11,0,0,1-1.11-1.108h0a1.109,1.109,0,0,1,1.11-1.11h9.128a1.109,1.109,0,0,1,1.109,1.11Z"/>
            </g>
            <line x1="453.875" y1="187.472" x2="432.671" y2="254.244" fill="none" stroke="#000" stroke-linecap="round" stroke-linejoin="round" stroke-width="1.265"/>
          </g>
          <g>
            <g>
              <path d="M434.6,139.573a30.806,30.806,0,1,1-30.805-30.805A30.8,30.8,0,0,1,434.6,139.573Z" fill="#ff931e"/>
              <path d="M402.417,124.034a9.627,9.627,0,1,1-9.627-9.627A9.627,9.627,0,0,1,402.417,124.034Z" fill="#fff" opacity="0.4"/>
              <polygon points="410.531 177.366 395.677 177.366 400.629 168.206 405.58 168.206 410.531 177.366" fill="#ff931e"/>
              <path d="M408.882,171.111a1.11,1.11,0,0,1-1.109,1.108h-9.129a1.11,1.11,0,0,1-1.11-1.108h0a1.109,1.109,0,0,1,1.11-1.11h9.129a1.109,1.109,0,0,1,1.109,1.11Z"/>
            </g>
            <line x1="403.104" y1="172.219" x2="436.589" y2="250.103" fill="none" stroke="#000" stroke-linecap="round" stroke-linejoin="round" stroke-width="1.265"/>
          </g>
        </g>
      </g>
    </g>
  </g>
  <use width="68.887" height="188.182" transform="translate(44.226 -1257.727) scale(0.653)" xlink:href="#a"/>
</svg>
