<svg xmlns="http://www.w3.org/2000/svg" xmlns:xlink="http://www.w3.org/1999/xlink" width="474.252" height="433.663" viewBox="0 0 474.252 433.663">
  <defs>
    <symbol id="a" data-name="Appuio Sprechblase" viewBox="0 0 60.339 26.757">
      <path d="M57.65,0H2.511A2.517,2.517,0,0,0,0,2.573V19.554a2.559,2.559,0,0,0,2.511,2.622H44.867v4.581l3.405-4.581H57.65a2.712,2.712,0,0,0,2.689-2.622V2.573A2.671,2.671,0,0,0,57.65,0Z" fill="#ffd804"/>
    </symbol>
    <symbol id="b" data-name="shatten" viewBox="0 0 75.929 11.334">
      <ellipse cx="37.965" cy="5.667" rx="37.965" ry="5.667" opacity="0.3"/>
    </symbol>
    <symbol id="d" data-name="m_arm" viewBox="0 0 6 42.711">
      <g>
        <line x1="3" y1="3" x2="3" y2="14.401" fill="#e89a66" stroke="#e89a66" stroke-linecap="round" stroke-miterlimit="10" stroke-width="6"/>
        <line x1="3" y1="14.401" x2="3" y2="30.801" fill="none" stroke="#ef9e69" stroke-linecap="round" stroke-miterlimit="10" stroke-width="6"/>
        <line x1="3" y1="29.801" x2="3" y2="39.711" fill="none" stroke="#ef9e69" stroke-linecap="round" stroke-miterlimit="10" stroke-width="6"/>
      </g>
    </symbol>
    <symbol id="e" data-name="m_Tobi_kopf_front_2 2" viewBox="0 0 23.32 38.499">
      <g>
        <g>
          <ellipse cx="21.096" cy="19.701" rx="2.018" ry="2.887" fill="#dc9161"/>
          <circle cx="21.964" cy="20.938" r="0.468" fill="#010100"/>
          <path d="M21.041,10.436a9.787,9.787,0,0,0-8.92-9.062,9.667,9.667,0,0,0-10.306,9.05l-.027.014.094,10.511v.839l.026.015A9.6,9.6,0,0,0,8.97,30.549c.094.026.189.05.284.073.169.04.338.077.51.109s.319.052.48.073c.138.018.276.035.416.047.061.005.121.017.183.021.106.007.209,0,.315,0s.214.017.324.017c.062,0,.122-.008.184-.01.163,0,.324-.013.485-.024s.333-.024.5-.044.308-.044.461-.071.331-.058.494-.095c.145-.032.287-.071.429-.11.166-.046.331-.093.494-.148.131-.044.259-.093.387-.142.169-.065.336-.132.5-.206.113-.051.224-.106.335-.162.173-.086.344-.175.511-.271.093-.055.185-.112.277-.169.177-.111.351-.225.521-.347.073-.052.144-.106.215-.161.182-.138.358-.28.53-.431.052-.046.1-.093.153-.14.183-.168.36-.341.529-.522.034-.036.067-.073.1-.11.18-.2.352-.4.515-.618l.054-.072q.26-.345.487-.714l.018-.03a9.541,9.541,0,0,0,1.4-4.5l.027-.013v-.509l0-9.723Z" fill="#ef9e69"/>
          <circle cx="13.801" cy="15.958" r="0.946" fill="#010100"/>
          <circle cx="4.962" cy="15.958" r="0.946" fill="#010100"/>
        </g>
        <g>
          <path d="M10.713,32.86a11.194,11.194,0,0,1-3.531-.825V38.5h8V32.27a11.542,11.542,0,0,1-3.7.615C11.226,32.885,10.971,32.877,10.713,32.86Z" fill="#dc9161"/>
          <path d="M10.842,30.864a9.19,9.19,0,0,1-3.66-1.027v2.2a11.194,11.194,0,0,0,3.531.825c.258.017.513.025.768.025a11.542,11.542,0,0,0,3.7-.615V30.134A9.592,9.592,0,0,1,10.842,30.864Z" fill="#c98559"/>
        </g>
        <path d="M21.049,16.606v2.433c0,2.757-3.758,4.024-6.112,4.782l-.3-.438a3.22,3.22,0,0,0-2.65-1.372H6.957a3.22,3.22,0,0,0-2.65,1.372l-.3.438C1.65,23.063,2,21.657,2,18.9V16.606H1.8l.029.136v8.982A5.371,5.371,0,0,0,7.216,31.08h8.5a5.37,5.37,0,0,0,5.385-5.3c.03-2.84.06-5.849.06-6.29V16.742l0-.262ZM9.47,26.75a3.379,3.379,0,0,1-3.237-2.339h6.475A3.379,3.379,0,0,1,9.47,26.75Z" fill="#a27d5a"/>
      </g>
      <path d="M2,16.606c-.056-2.3-.165-3.535-.162-5.841a4.5,4.5,0,0,1,.846-2.687q.681-.96,1.4-1.908A8.106,8.106,0,0,1,7.5,4c.865-.046,4.1-.043,4.965-.012a5.824,5.824,0,0,1,4.424,2.151q.723.945,1.408,1.9a4.5,4.5,0,0,1,.856,2.683c.012,2.307,1.893,5.9,1.893,5.9s.112-.005.118-.061c.1-.892,1.359-5.253,1.988-7.45a4.45,4.45,0,0,0-.884-4.094Q21.024,3.51,19.684,2.039A6.4,6.4,0,0,0,15.245.08q-3.5-.155-7-.01A6.359,6.359,0,0,0,3.705,2.129Q2.27,3.79.959,5.5A4.451,4.451,0,0,0,.135,9.338c.525,2.083,1.175,5.15,1.666,7.24Z" fill="#a27d5a"/>
    </symbol>
    <symbol id="f" data-name="m_arm_gebeugter" viewBox="0 0 31.31 17.733">
      <g>
        <line x1="28.31" y1="3.333" x2="28.31" y2="14.733" fill="#e89a66" stroke="#e89a66" stroke-linecap="round" stroke-miterlimit="10" stroke-width="6"/>
        <line x1="28.31" x2="28.31" y2="4.733" fill="#e89a66" stroke="#e89a66" stroke-miterlimit="10" stroke-width="6"/>
        <line x1="28.31" y1="14.733" x2="11.909" y2="14.618" fill="none" stroke="#ef9e69" stroke-linecap="round" stroke-miterlimit="10" stroke-width="6"/>
        <line x1="12.909" y1="14.625" x2="3" y2="14.555" fill="none" stroke="#ef9e69" stroke-linecap="round" stroke-miterlimit="10" stroke-width="6"/>
      </g>
    </symbol>
    <symbol id="g" data-name="m_tshirt_black_seite" viewBox="0 0 40.5 44.966">
      <path d="M13,.038H27.5a13,13,0,0,1,13,13v9a0,0,0,0,1,0,0H0a0,0,0,0,1,0,0v-9A13,13,0,0,1,13,.038Z"/>
      <path d="M18.376,0h.247A13.376,13.376,0,0,1,32,13.376V44.966a0,0,0,0,1,0,0H5a0,0,0,0,1,0,0V13.376A13.376,13.376,0,0,1,18.376,0Z"/>
      <path d="M21.769,12.077H8.689a.685.685,0,0,0-.6.759v5a.7.7,0,0,0,.6.773H18.736v1.35l.808-1.35h2.225a.73.73,0,0,0,.637-.773v-5A.716.716,0,0,0,21.769,12.077Z" fill="#ffd804"/>
    </symbol>
    <symbol id="h" data-name="schuhe_sport_seite" viewBox="0 0 16 12.135">
      <line x1="12.681" x2="12.681" y2="11.325" fill="none" stroke="#ef9e69" stroke-miterlimit="10" stroke-width="6"/>
      <g>
        <g>
          <path d="M6.014,5.325a6,6,0,0,0-6,6h12A6,6,0,0,0,6.014,5.325Z" fill="#c7d1db"/>
          <rect y="11.306" width="16" height="0.828" fill="#c7d1db"/>
        </g>
        <g>
          <path d="M6.014,5.325a6,6,0,0,0-6,6h12A6,6,0,0,0,6.014,5.325Z" fill="#ecf0f2"/>
          <rect y="11.306" width="16" height="0.828" fill="#c7d1db"/>
        </g>
      </g>
      <rect x="6.014" y="5.325" width="9.986" height="6" fill="#ecf0f2"/>
    </symbol>
    <symbol id="i" data-name="M_Bein_jeans" viewBox="0 0 11 50.194">
      <line x1="5.5" x2="5.5" y2="24.34" fill="none" stroke="#2d5972" stroke-miterlimit="10" stroke-width="9"/>
      <line x1="5.5" y1="24.34" x2="5.5" y2="45.694" fill="none" stroke="#2d5972" stroke-linecap="round" stroke-miterlimit="10" stroke-width="9"/>
      <line x1="5.5" y1="45.024" x2="5.5" y2="50.194" fill="none" stroke="#537e8e" stroke-miterlimit="10" stroke-width="11"/>
    </symbol>
    <symbol id="l" data-name="m_huefte_front" viewBox="0 0 26.986 15.649">
      <path d="M0,0H26.986a0,0,0,0,1,0,0V2.156A13.493,13.493,0,0,1,13.493,15.649h0A13.493,13.493,0,0,1,0,2.156V0A0,0,0,0,1,0,0Z" fill="#2c5972"/>
      <g>
        <rect width="4.597" height="2.156" fill="#1e1e1c"/>
        <rect x="5.597" width="4.597" height="2.156" fill="#1e1e1c"/>
        <rect x="11.194" width="4.597" height="2.156" fill="#1e1e1c"/>
        <rect x="16.792" width="4.597" height="2.156" fill="#1e1e1c"/>
        <rect x="22.389" width="4.597" height="2.156" fill="#1e1e1c"/>
      </g>
    </symbol>
    <symbol id="c" data-name="Tobi" viewBox="0 0 79.457 177.812">
      <use width="6" height="42.711" transform="translate(69.537 63.025) scale(1.25)" xlink:href="#d"/>
      <g>
        <use width="23.32" height="38.499" transform="translate(40.039) scale(1.25)" xlink:href="#e"/>
        <g>
          <use width="31.31" height="17.733" transform="translate(0 63.77) scale(1.25)" xlink:href="#f"/>
          <use width="40.5" height="44.966" transform="translate(28.832 43.049) scale(1.25)" xlink:href="#g"/>
        </g>
        <g>
          <g>
            <use width="16" height="12.135" transform="translate(27.719 162.643) scale(1.25)" xlink:href="#h"/>
            <use width="11" height="50.194" transform="translate(35.009 104.512) scale(1.25)" xlink:href="#i"/>
          </g>
          <g>
            <use width="16" height="12.135" transform="translate(47.658 162.643) scale(1.25)" xlink:href="#h"/>
            <use width="11" height="50.194" transform="translate(54.879 104.512) scale(1.25)" xlink:href="#i"/>
          </g>
          <use width="26.986" height="15.649" transform="translate(35.009 99.299) scale(1.25)" xlink:href="#l"/>
        </g>
      </g>
    </symbol>
    <symbol id="o" data-name="Neues Symbol 14" viewBox="0 0 36.602 45.883">
      <rect x="10.158" y="35.106" width="10" height="10.777" fill="#ef9e69"/>
      <path d="M10.158,35.106v5.377a13.61,13.61,0,0,0,10,.6V35.106Z" fill="#dc9161"/>
      <rect x="4.153" y="5.79" width="23.517" height="33.971" rx="11.759" fill="#ef9e69"/>
      <circle cx="23.017" cy="17.846" r="1.156"/>
      <path d="M25.17,11.959A4.113,4.113,0,0,0,29.5,5.544l-.155-.209C23.191-2.9,9.605,1.6,8.227,2.334c-1.291.688-9.5,3.531-8.058,13.789C1.988,29.068,4.892,32.115,4.892,32.115s5.934-9.6,3.726-11.841c-2-2.028,5.682,3.948,5.682,3.948S12.7,12.911,17.372,11.4C19.184,10.81,22.18,11.182,25.17,11.959Z" fill="#936c50"/>
      <path d="M5.657,21.776A4.874,4.874,0,0,1,10.531,16.9c2.692,0,2.692,9.748,0,9.748A4.874,4.874,0,0,1,5.657,21.776Z" fill="#ef9e69"/>
      <path d="M13.98,18.01s-.5-7.88,6.178-5.291c9.188,3.563,13.563-6.4,15.163-8.856a7.72,7.72,0,0,1-3.948.619C29.026,4.268,23.9,0,15.794,0S0,4.161,0,13.44Z" fill="#936c50"/>
      <path d="M1.031,21.22s1.959,8.124.251,10.151l1.6-.96s.32,3.841-.214,4.7L5.852,30.46,2.99,21.22Z" fill="#936c50"/>
      <path d="M25.184,12.911c-2.123.854,6.4.641,11.418-4.161l-3.308.255S36.388,6.3,36.6,5.655L26.465,8.216Z" fill="#936c50"/>
      <path d="M23.635,25.683c0,1.283,1.778,2.323,3.972,2.323.021,0,.042,0,.063,0V25.683Z" fill="#ca875a"/>
    </symbol>
    <symbol id="p" data-name="Neues Symbol 13" viewBox="0 0 33.75 56.207">
      <path d="M0,56.207H33.75V16.721A16.721,16.721,0,0,0,17.029,0h-.308A16.721,16.721,0,0,0,0,16.721Z" fill="#34697f"/>
    </symbol>
    <symbol id="q" data-name="schuhe_black_seite" viewBox="0 0 16 12.81">
      <g>
        <g>
          <rect x="7" width="9" height="12" fill="#c7d1db"/>
          <rect y="11.981" width="16" height="0.828" fill="#c7d1db"/>
        </g>
        <g>
          <rect x="7" width="9" height="12"/>
          <rect y="11.981" width="16" height="0.828" fill="#c7d1db"/>
        </g>
      </g>
      <rect x="6.014" y="6" width="9.986" height="6"/>
      <path d="M6.014,6a6,6,0,0,0-6,6h12A6,6,0,0,0,6.014,6Z"/>
    </symbol>
    <symbol id="r" data-name="M_Bein_jeans 4" viewBox="0 0 9 51.194">
      <line x1="4.5" x2="4.5" y2="24.34" fill="none" stroke="#727474" stroke-miterlimit="10" stroke-width="9"/>
      <line x1="4.5" y1="24.34" x2="4.5" y2="45.694" fill="none" stroke="#727474" stroke-linecap="round" stroke-miterlimit="10" stroke-width="9"/>
      <line x1="4.5" y1="45.024" x2="4.5" y2="51.194" fill="none" stroke="#727474" stroke-miterlimit="10" stroke-width="9"/>
    </symbol>
    <symbol id="t" data-name="M_Bein_jeans 3" viewBox="0 0 9 51.194">
      <line x1="4.5" x2="4.5" y2="24.34" fill="none" stroke="#878888" stroke-miterlimit="10" stroke-width="9"/>
      <line x1="4.5" y1="24.34" x2="4.5" y2="45.694" fill="none" stroke="#878888" stroke-linecap="round" stroke-miterlimit="10" stroke-width="9"/>
      <line x1="4.5" y1="45.024" x2="4.5" y2="51.194" fill="none" stroke="#878888" stroke-miterlimit="10" stroke-width="9"/>
    </symbol>
    <symbol id="u" data-name="m_huefte_front 2" viewBox="0 0 26.986 15.649">
      <path d="M0,0H26.986a0,0,0,0,1,0,0V2.156A13.493,13.493,0,0,1,13.493,15.649h0A13.493,13.493,0,0,1,0,2.156V0A0,0,0,0,1,0,0Z" fill="#888"/>
      <g>
        <rect width="4.597" height="2.156" fill="#1e1e1c"/>
        <rect x="5.597" width="4.597" height="2.156" fill="#1e1e1c"/>
        <rect x="11.194" width="4.597" height="2.156" fill="#1e1e1c"/>
        <rect x="16.792" width="4.597" height="2.156" fill="#1e1e1c"/>
        <rect x="22.389" width="4.597" height="2.156" fill="#1e1e1c"/>
      </g>
    </symbol>
    <symbol id="v" data-name="Neues Symbol 12" viewBox="0 0 49.52 55.45">
      <polyline points="5.077 5.077 16.016 31.17 44.443 50.373" fill="none" stroke="#ef9e69" stroke-linecap="round" stroke-linejoin="round" stroke-width="10.153"/>
      <polyline points="5.077 5.077 16.016 31.17 38.932 46.65" fill="none" stroke="#39728b" stroke-linejoin="round" stroke-width="10.153"/>
      <line x1="5.077" y1="5.077" x2="16.016" y2="31.17" fill="none" stroke="#39728b" stroke-linecap="round" stroke-linejoin="round" stroke-width="10.153"/>
    </symbol>
    <symbol id="n" data-name="Neues Symbol 15" viewBox="0 0 59.762 178.757">
      <use width="36.602" height="45.883" transform="translate(2.276)" xlink:href="#o"/>
      <g>
        <use width="33.75" height="56.207" transform="translate(0 43.995)" xlink:href="#p"/>
        <g>
          <g>
            <use width="16" height="12.81" transform="matrix(-1.25, 0, 0, 1.25, 36.113, 162.745)" xlink:href="#q"/>
            <use width="9" height="51.194" transform="matrix(-1.25, 0, 0, 1.25, 27.573, 105.457)" xlink:href="#r"/>
          </g>
          <g>
            <use width="16" height="12.81" transform="matrix(-1.25, 0, 0, 1.25, 27.424, 162.745)" xlink:href="#q"/>
            <use width="9" height="51.194" transform="matrix(-1.25, 0, 0, 1.25, 18.953, 105.457)" xlink:href="#t"/>
          </g>
          <use width="26.986" height="15.649" transform="matrix(-1.25, 0, 0, 1.25, 33.823, 100.245)" xlink:href="#u"/>
        </g>
      </g>
      <use width="49.52" height="55.45" transform="translate(10.242 48.186)" xlink:href="#v"/>
      <path d="M25.906,25.983c0,1.283,1.779,2.323,3.972,2.323.022,0,.042,0,.063,0V25.983Z" fill="#ca875a"/>
    </symbol>
    <symbol id="z" data-name="m_arm 8" viewBox="0 0 6 42.711">
      <g>
        <line x1="3" y1="29.801" x2="3" y2="39.711" fill="none" stroke="#ef9e69" stroke-linecap="round" stroke-miterlimit="10" stroke-width="6"/>
        <line x1="3" y1="3" x2="3" y2="14.401" fill="#e89a66" stroke="#000" stroke-linecap="round" stroke-miterlimit="10" stroke-width="6"/>
        <line x1="3" y1="14.401" x2="3" y2="34.069" fill="none" stroke="#000" stroke-miterlimit="10" stroke-width="6"/>
      </g>
    </symbol>
    <symbol id="aa" data-name="m_arm_gebeugter 3" viewBox="0 0 22.765 36.363">
      <g>
        <line x1="9.564" y1="25.939" x2="3" y2="33.363" fill="none" stroke="#ef9e69" stroke-linecap="round" stroke-miterlimit="10" stroke-width="6"/>
        <line x1="19.765" y1="3" x2="19.765" y2="14.401" fill="#e89a66" stroke="#010202" stroke-linecap="round" stroke-miterlimit="10" stroke-width="6"/>
        <line x1="19.765" y1="14.401" x2="5.758" y2="30.243" fill="none" stroke="#010202" stroke-miterlimit="10" stroke-width="6"/>
      </g>
    </symbol>
    <symbol id="ab" data-name="m_tshirt_black_seite 3" viewBox="0 0 40.5 50.765">
      <path d="M13,5.838H27.5a13,13,0,0,1,13,13v9a0,0,0,0,1,0,0H0a0,0,0,0,1,0,0v-9A13,13,0,0,1,13,5.838Z"/>
      <path d="M18.376,5.8h.247A13.376,13.376,0,0,1,32,19.176V50.765a0,0,0,0,1,0,0H5a0,0,0,0,1,0,0V19.176A13.376,13.376,0,0,1,18.376,5.8Z"/>
      <g>
        <path d="M10.581,42.07v2.7c3.759.893,3.115,1.008,6.063,1.008a77.721,77.721,0,0,0,10.489-.946L27.1,42.07a12.766,12.766,0,0,1-3.183-1.349c-2.24-1.113-3.633-2.584-3.755-4.27l-5.325-.127C14.765,38.514,12.758,40.934,10.581,42.07Z" fill="#272829"/>
        <path d="M19.829,5.727H16.415c-.32,0-.614,0-.948.007l-2.9.106.218.4.483.873a14.736,14.736,0,0,0,2.007,1.6q1.173.386,2.418.765c.829-.254,1.641-.508,2.424-.765a14.736,14.736,0,0,0,2.007-1.6l.481-.871.22-.4Z" fill="#dc9161"/>
        <g>
          <path d="M13.97,10.481a.616.616,0,0,1-.711.516.664.664,0,0,1-.684-.6.615.615,0,0,1,.71-.516A.667.667,0,0,1,13.97,10.481Z" fill="#959495"/>
          <path d="M12.565,22.468l1.2.056s-.124-9.492-.138-10.739-.058-1.482-.35-1.5-.263.31-.3,1.376S12.565,22.468,12.565,22.468Z" fill="#ffd405"/>
        </g>
        <g>
          <path d="M21.875,10.481a.616.616,0,0,0,.711.516.664.664,0,0,0,.684-.6.615.615,0,0,0-.71-.516A.667.667,0,0,0,21.875,10.481Z" fill="#959495"/>
          <path d="M23.28,22.468l-1.2.056s.124-9.492.138-10.739.057-1.482.35-1.5.263.31.3,1.376S23.28,22.468,23.28,22.468Z" fill="#ffd405"/>
        </g>
      </g>
      <g>
        <path d="M21.93,5.942V2.17a8.009,8.009,0,0,1-3.192.662H16.852a8,8,0,0,1-3.919-1.023V5.967l.648,1.269a13.452,13.452,0,0,0,1.858,1.446c.632.225,1.284.448,1.95.67.693-.231,1.378-.462,2.035-.694a13.441,13.441,0,0,0,1.857-1.447Z" fill="none"/>
        <path d="M12.933,5.967V1.809A8.082,8.082,0,0,1,11.159.469,12.32,12.32,0,0,0,6.115,3.455c1.055,1.871,4.678,3.581,9.324,5.227a13.452,13.452,0,0,1-1.858-1.446Z" fill="#bbb6b2"/>
        <path d="M17.389,9.352c-.666-.222-1.318-.446-1.95-.67C10.793,7.036,7.17,5.326,6.115,3.455A12.32,12.32,0,0,1,11.159.469c-.06-.06-.114-.126-.172-.188C10.9.189,10.814.1,10.732,0a11.94,11.94,0,0,0-5.5,3.185l-.6,2.288L5.28,6.617l6.614,2.449,3.6.843,2.019-.325.391-.062Z" fill="#272829"/>
        <path d="M22.4,6.068V1.91A8.082,8.082,0,0,0,24.169.57a12.32,12.32,0,0,1,5.044,2.986c-1.055,1.871-4.678,3.581-9.324,5.227a13.438,13.438,0,0,0,1.858-1.447Z" fill="#bbb6b2"/>
        <path d="M17.429,9.622l.391.063,2.019.325,3.594-.843,6.615-2.449.641-1.144-.6-2.288A11.913,11.913,0,0,0,24.6.1c-.082.1-.168.188-.255.281-.058.062-.111.128-.171.188a12.318,12.318,0,0,1,5.044,2.985c-1.055,1.872-4.679,3.582-9.324,5.228q-.949.336-1.951.67C17.768,9.509,17.6,9.566,17.429,9.622Z" fill="#272829"/>
      </g>
    </symbol>
    <symbol id="ac" data-name="schuhe_sport_seite 2" viewBox="0 0 16 12.135">
      <line x1="12.681" x2="12.681" y2="11.325" fill="none" stroke="#666361" stroke-miterlimit="10" stroke-width="6"/>
      <g>
        <g>
          <path d="M6.014,5.325a6,6,0,0,0-6,6h12A6,6,0,0,0,6.014,5.325Z" fill="#c7d1db"/>
          <rect y="11.306" width="16" height="0.828" fill="#c7d1db"/>
        </g>
        <g>
          <path d="M6.014,5.325a6,6,0,0,0-6,6h12A6,6,0,0,0,6.014,5.325Z" fill="#010202"/>
          <rect y="11.306" width="16" height="0.828" fill="#414242"/>
        </g>
      </g>
      <rect x="6.014" y="5.325" width="9.986" height="6" fill="#010202"/>
    </symbol>
    <symbol id="ad" data-name="M_bein_jeans_seite_gebeuter 2" viewBox="0 0 33.84 30.354">
      <g>
        <line x1="33.84" y1="4.632" x2="4.5" y2="4.632" fill="none" stroke="#2d5972" stroke-miterlimit="10" stroke-width="9"/>
        <line x1="4.5" y1="4.5" x2="4.5" y2="25.854" fill="none" stroke="#2d5972" stroke-linecap="round" stroke-miterlimit="10" stroke-width="9"/>
        <line x1="4.5" y1="24.787" x2="4.5" y2="30.354" fill="none" stroke="#2d5972" stroke-miterlimit="10" stroke-width="9"/>
      </g>
    </symbol>
    <symbol id="ah" data-name="m_Kopf_Main_seite 2" viewBox="0 0 21.457 29.103">
      <g>
        <path d="M8.556,28.025A15.322,15.322,0,0,1,4.37,27.2v1.9h9.484V27.435a16,16,0,0,1-4.387.615C9.165,28.05,8.862,28.042,8.556,28.025Z" fill="#dc9161"/>
        <path d="M8.709,26.03A12.479,12.479,0,0,1,4.37,25v2.2a15.322,15.322,0,0,0,4.186.825c.306.017.609.025.911.025a16,16,0,0,0,4.387-.615V25.3A13.269,13.269,0,0,1,8.709,26.03Z" fill="#c98559"/>
      </g>
      <g>
        <ellipse cx="19.439" cy="15.737" rx="2.018" ry="2.887" fill="#dc9161"/>
        <path d="M2.371,1.616H17.418a2.021,2.021,0,0,1,2.021,2.021V18.042A8.042,8.042,0,0,1,11.4,26.084h-3A8.042,8.042,0,0,1,.351,18.042V3.637A2.021,2.021,0,0,1,2.371,1.616Z" fill="#ef9e69"/>
        <circle cx="12.144" cy="11.994" r="0.946" fill="#010100"/>
        <circle cx="3.305" cy="11.994" r="0.946" fill="#010100"/>
        <path d="M0,4.715l.123,8.676H.351V5.233a3.08,3.08,0,0,1,3.1-3.08l12.927.1a3.081,3.081,0,0,1,3.058,3.08v8.063h.168s.518-6.678.518-8.676h0A4.715,4.715,0,0,0,15.41,0H4.717A4.715,4.715,0,0,0,0,4.591Z" fill="#9f908b"/>
        <path d="M13.133,2.235s-4.45,1.607-6.907,1.47A7.72,7.72,0,0,1,2.64,2.142a12.208,12.208,0,0,0,3.972.746,21.84,21.84,0,0,0,3.11-.678Z" fill="#9f908b"/>
        <path d="M3.338,2.14a4.552,4.552,0,0,0,2.5,1.2c1.574.14,4.437-1.123,4.437-1.123L7.7,2.195A5.212,5.212,0,0,1,3.338,2.14Z" fill="#c0b6b3"/>
      </g>
      <path d="M8.034,20.158c1.382,0,2.5-.655,2.5-1.464H5.53C5.53,19.5,6.651,20.158,8.034,20.158Z" fill="#ca875a"/>
    </symbol>
    <symbol id="y" data-name="Neues Symbol 10" viewBox="0 0 87.131 148.215">
      <g>
        <use width="6" height="42.711" transform="translate(78.076 55.582) scale(1.509 1.25)" xlink:href="#z"/>
        <g>
          <g>
            <use width="22.765" height="36.363" transform="translate(11.604 53.287) scale(1.484 1.25)" xlink:href="#aa"/>
            <use width="40.5" height="50.765" transform="translate(36.506 28.982) scale(1.25)" xlink:href="#ab"/>
          </g>
          <g>
            <g>
              <use width="16" height="12.135" transform="translate(0 131.542) scale(1.25)" xlink:href="#ac"/>
              <use width="33.84" height="30.354" transform="translate(8.75 99.185) scale(1.25)" xlink:href="#ad"/>
            </g>
            <g>
              <use width="16" height="12.135" transform="translate(8.299 133.047) scale(1.25)" xlink:href="#ac"/>
              <use width="33.84" height="30.354" transform="translate(17.049 100.689) scale(1.25)" xlink:href="#ad"/>
            </g>
            <use width="26.986" height="15.649" transform="translate(42.683 92.481) scale(1.25)" xlink:href="#l"/>
          </g>
        </g>
      </g>
      <use width="21.457" height="29.103" transform="translate(47.17) scale(1.25)" xlink:href="#ah"/>
    </symbol>
    <symbol id="aj" data-name="f_arm" viewBox="0 0 5 41.711">
      <g>
        <line x1="2.5" y1="2.5" x2="2.5" y2="13.901" fill="#e89a66" stroke="#e89a66" stroke-linecap="round" stroke-miterlimit="10" stroke-width="5"/>
        <line x1="2.5" y1="13.901" x2="2.5" y2="30.301" fill="none" stroke="#ef9e69" stroke-linecap="round" stroke-miterlimit="10" stroke-width="5"/>
        <line x1="2.5" y1="29.301" x2="2.5" y2="39.211" fill="none" stroke="#ef9e69" stroke-linecap="round" stroke-miterlimit="10" stroke-width="5"/>
      </g>
    </symbol>
    <symbol id="al" data-name="m_schuhe_sport_front 2" viewBox="0 0 12 12.229">
      <g>
        <line x1="6.035" x2="6.035" y2="11.325" fill="none" stroke="#ef9e69" stroke-miterlimit="10" stroke-width="6"/>
        <line x1="6.035" y1="3" x2="6.035" y2="11.325" fill="none" stroke="#888785" stroke-miterlimit="10" stroke-width="6"/>
      </g>
      <g>
        <g>
          <rect x="1.5" y="8.4" width="9" height="3.019" fill="#c7d1db"/>
          <path d="M6,5.4a6,6,0,0,0-6,6H12A6,6,0,0,0,6,5.4Z" fill="#c7d1db"/>
          <rect y="11.4" width="12" height="0.828" fill="#c7d1db"/>
        </g>
        <g>
          <rect x="1.5" y="8.4" width="9" height="3.019" fill="#ecf0f2"/>
          <path d="M6,5.4a6,6,0,0,0-6,6H12A6,6,0,0,0,6,5.4Z"/>
          <rect y="11.4" width="12" height="0.828" fill="#c7d1db"/>
        </g>
      </g>
    </symbol>
    <symbol id="an" data-name="f_Kopf_Anna_front" viewBox="0 0 27.523 37.81">
      <path d="M11.923,3.492S24.2-1.242,24.2,19.51c0,5.353,3.3,0,3.3,0l.021,1.212a6.584,6.584,0,0,1-2.431,5.336,5.649,5.649,0,0,1-3.755,1.214c-1.3-.048-2.988-.291-5.45-2.753C7.354,15.987,11.923,3.492,11.923,3.492Z" fill="#5b432d"/>
      <g>
        <path d="M11.3,28.748h0A11.019,11.019,0,0,1,.279,17.729V10.787H22.317v6.942A11.019,11.019,0,0,1,11.3,28.748Z" fill="#745738"/>
        <g>
          <ellipse cx="20.412" cy="18.092" rx="2.018" ry="2.887" fill="#dc9161"/>
          <ellipse cx="2.184" cy="18.092" rx="2.018" ry="2.887" fill="#dc9161"/>
          <path d="M20.872,9.74A9.793,9.793,0,0,0,11.938.678,9.6,9.6,0,0,0,1.712,9.748l-.028.013v11.33l.027.015a9.6,9.6,0,0,0,7.072,8.746c.094.026.189.05.285.073.169.04.338.077.51.109s.319.052.481.073c.138.018.276.035.416.047.062,0,.121.017.183.021.107.007.21,0,.316,0s.215.017.324.017c.063,0,.123-.008.185-.01.163,0,.324-.013.485-.024s.334-.024.5-.044.309-.044.462-.071.331-.058.495-.095c.145-.032.287-.071.429-.11.167-.046.332-.093.495-.148.131-.044.259-.092.388-.142.169-.065.337-.132.5-.206.113-.051.224-.106.336-.162.173-.086.344-.175.511-.271.094-.055.186-.112.278-.169.177-.111.352-.225.522-.347.073-.052.144-.106.215-.161.182-.138.359-.28.53-.431.052-.046.1-.093.154-.14.184-.167.36-.341.53-.522.034-.036.066-.073.1-.11.18-.2.352-.4.516-.618l.053-.072q.261-.345.489-.714l.018-.03a9.554,9.554,0,0,0,1.4-4.5l.026-.013v-.509l0-9.723Z" fill="#ef9e69"/>
          <circle cx="15.618" cy="14.002" r="0.946" fill="#010100"/>
          <circle cx="6.778" cy="14.002" r="0.946" fill="#010100"/>
        </g>
        <g>
          <path d="M10.529,32.171A11.2,11.2,0,0,1,7,31.345V37.81h8V31.581a11.536,11.536,0,0,1-3.7.615C11.043,32.2,10.788,32.188,10.529,32.171Z" fill="#dc9161"/>
          <path d="M10.658,30.175A9.18,9.18,0,0,1,7,29.147v2.2a11.2,11.2,0,0,0,3.531.826c.259.017.514.025.769.025a11.536,11.536,0,0,0,3.7-.615V29.445A9.592,9.592,0,0,1,10.658,30.175Z" fill="#c98559"/>
        </g>
        <path d="M20.635,3.114C18.841,1.32,17.412,0,11.743,0h-.889C5.907,0,3.293,1.783,1.961,3.114A7.1,7.1,0,0,0,.279,8.188v7.118H1.685V10.212A5.332,5.332,0,0,1,7.017,4.881H15.58a5.331,5.331,0,0,1,5.331,5.331v5.094h1.406V8.188A7.1,7.1,0,0,0,20.635,3.114Z" fill="#745738"/>
      </g>
      <circle cx="21.744" cy="20.564" r="0.777" fill="#fff"/>
      <circle cx="0.777" cy="20.564" r="0.777" fill="#fff"/>
      <path d="M11.3,23.506c1.9,0,3.438-.777,3.438-1.736H7.86C7.86,22.729,9.4,23.506,11.3,23.506Z" fill="#ca875a"/>
    </symbol>
    <symbol id="ao" data-name="m_tshirt_black_up_front" viewBox="0 0 45.042 52.261">
      <path d="M42.5,15.322a12.485,12.485,0,0,0,2.541-7.277L45.028,0H35.042V4.839a2.494,2.494,0,0,1-2.5,2.494H22.521V26.545H36.056s-.166-3.429,4.167-8.708a15.976,15.976,0,0,0,2.257-2.485l.029-.03Z" fill="#0c3148"/>
      <path d="M2.54,15.322A12.491,12.491,0,0,1,0,8.045L.014,0H10V4.839a2.494,2.494,0,0,0,2.494,2.494H22.521V26.545H8.986s.166-3.429-4.167-8.708a16.033,16.033,0,0,1-2.258-2.485l-.029-.03Z" fill="#0c3148"/>
      <path d="M22.4,7.295h.247A13.376,13.376,0,0,1,36.021,20.671V52.261a0,0,0,0,1,0,0h-27a0,0,0,0,1,0,0V20.671A13.376,13.376,0,0,1,22.4,7.295Z" fill="#0c3148"/>
      <path d="M29.039,15.725H15.96a.685.685,0,0,0-.6.758v5a.7.7,0,0,0,.6.772H26.007v1.35l.808-1.35h2.224a.73.73,0,0,0,.638-.772v-5A.715.715,0,0,0,29.039,15.725Z" fill="#ffd804"/>
    </symbol>
    <symbol id="ap" data-name="f_huefte_front" viewBox="0 0 24 13">
      <path d="M0,0H24a0,0,0,0,1,0,0V1.4A11.6,11.6,0,0,1,12.4,13h-.8A11.6,11.6,0,0,1,0,1.4V0A0,0,0,0,1,0,0Z" fill="#2c5972"/>
      <g>
        <rect width="4.089" height="1.791" fill="#c1d44f"/>
        <rect x="4.978" width="4.089" height="1.791" fill="#c1d44f"/>
        <rect x="9.956" width="4.089" height="1.791" fill="#c1d44f"/>
        <rect x="14.934" width="4.089" height="1.791" fill="#c1d44f"/>
        <rect x="19.911" width="4.089" height="1.791" fill="#c1d44f"/>
      </g>
    </symbol>
    <symbol id="aq" data-name="S_halbe_bein_jeans_front" viewBox="0 0 11 41.854">
      <g>
        <line x1="5.5" y1="4" x2="5.5" y2="37.354" fill="none" stroke="#2d5972" stroke-linecap="round" stroke-miterlimit="10" stroke-width="8"/>
        <line x1="5.5" y1="30.853" x2="5.5" y2="37.354" fill="none" stroke="#2d5972" stroke-linecap="square" stroke-miterlimit="10" stroke-width="8"/>
        <line x1="5.5" y1="39.684" x2="5.5" y2="41.854" fill="none" stroke="#537e8e" stroke-miterlimit="10" stroke-width="11"/>
      </g>
    </symbol>
    <symbol id="ai" data-name="Neues Symbol 11" viewBox="0 0 50 159.819">
      <g>
        <use width="5" height="41.711" transform="translate(1.666) scale(1.25)" xlink:href="#aj"/>
        <use width="5" height="41.711" transform="translate(41.851) scale(1.25)" xlink:href="#aj"/>
        <use width="12" height="12.229" transform="translate(9.287 146.572) scale(1.083)" xlink:href="#al"/>
        <use width="12" height="12.229" transform="translate(28.121 146.572) scale(1.083)" xlink:href="#al"/>
        <g>
          <use width="27.523" height="37.81" transform="translate(11.099 10.468) scale(1.25)" xlink:href="#an"/>
          <use width="45.042" height="52.261" transform="translate(0 49.684) scale(1.11)" xlink:href="#ao"/>
          <use width="24" height="13" transform="translate(9.976 105.247) scale(1.25)" xlink:href="#ap"/>
        </g>
        <use width="11" height="41.854" transform="translate(8.912 99.001) scale(1.25)" xlink:href="#aq"/>
        <use width="11" height="41.854" transform="translate(27.37 99.001) scale(1.25)" xlink:href="#aq"/>
      </g>
    </symbol>
    <symbol id="av" data-name="m_Janine_kopf_front" viewBox="0 0 22.264 41.85">
      <g>
        <path d="M11.132,32.789h0A11.019,11.019,0,0,1,.113,21.77V14.827H22.151V21.77A11.019,11.019,0,0,1,11.132,32.789Z" fill="#754648"/>
        <g>
          <ellipse cx="20.246" cy="22.133" rx="2.018" ry="2.887" fill="#dc9161"/>
          <ellipse cx="2.018" cy="22.133" rx="2.018" ry="2.887" fill="#dc9161"/>
          <path d="M20.706,13.78a9.794,9.794,0,0,0-8.934-9.062,9.606,9.606,0,0,0-10.226,9.07l-.028.014v11.33l.026.014a9.6,9.6,0,0,0,7.073,8.746c.094.027.189.05.284.074.169.04.339.077.511.108s.319.053.481.074c.138.017.276.035.416.047.061.005.121.017.183.021.106.007.21,0,.315,0s.216.016.325.016c.062,0,.123-.008.185-.009.163,0,.324-.013.485-.024s.334-.025.5-.045.309-.044.462-.07.331-.058.494-.095c.145-.033.288-.071.43-.11.166-.046.332-.094.494-.148.132-.044.26-.093.389-.142.169-.065.336-.132.5-.206.113-.052.224-.107.335-.162.174-.086.345-.176.512-.272.094-.054.185-.111.277-.168.178-.111.353-.225.522-.347.073-.052.144-.107.216-.161.182-.138.359-.281.53-.431.052-.046.1-.093.154-.14.183-.168.36-.341.53-.523l.1-.109q.271-.3.517-.618l.053-.072c.174-.231.336-.469.489-.715l.017-.029a9.547,9.547,0,0,0,1.4-4.5l.026-.013v-.51l0-9.723Z" fill="#ef9e69"/>
          <circle cx="15.451" cy="18.042" r="0.946" fill="#010100"/>
          <circle cx="6.612" cy="18.042" r="0.946" fill="#010100"/>
        </g>
        <g>
          <path d="M10.363,36.211a11.173,11.173,0,0,1-3.531-.825V41.85h8V35.621a11.536,11.536,0,0,1-3.7.615C10.877,36.236,10.621,36.229,10.363,36.211Z" fill="#dc9161"/>
          <path d="M10.492,34.216a9.191,9.191,0,0,1-3.66-1.028v2.2a11.173,11.173,0,0,0,3.531.825c.258.018.514.025.769.025a11.536,11.536,0,0,0,3.7-.615V33.485A9.592,9.592,0,0,1,10.492,34.216Z" fill="#c98559"/>
        </g>
        <path d="M20.469,7.155c-1.8-1.795-3.223-3.114-8.892-3.114h-.89c-4.946,0-7.561,1.782-8.892,3.114A7.1,7.1,0,0,0,.113,12.229v7.118H1.519V14.253A5.332,5.332,0,0,1,6.851,8.921h8.562a5.332,5.332,0,0,1,5.332,5.332v5.094h1.406V12.229A7.1,7.1,0,0,0,20.469,7.155Z" fill="#754648"/>
      </g>
      <ellipse cx="11.046" cy="2.996" rx="4.507" ry="2.996" fill="#754648"/>
      <path d="M11.132,28.166c1.694,0,3.068-.8,3.068-1.794H8.064C8.064,27.363,9.438,28.166,11.132,28.166Z" fill="#ca875a"/>
    </symbol>
    <symbol id="aw" data-name="f_schuhe_sport_seite" viewBox="0 0 12.25 11.856">
      <line x1="9.156" x2="9.156" y2="11.325" fill="none" stroke="#ef9e69" stroke-miterlimit="10" stroke-width="5"/>
      <g>
        <g>
          <rect x="4.75" y="8.27" width="7.5" height="2.828" fill="#c7d1db"/>
          <path d="M5,5.459c-2.761,0-5,2.517-5,5.621H10C10,7.976,7.762,5.459,5,5.459Z" fill="#c7d1db"/>
          <rect y="11.08" width="12.25" height="0.776" fill="#c7d1db"/>
        </g>
        <g>
          <rect x="4.75" y="8.27" width="7.5" height="2.828" fill="#ecf0f2"/>
          <path d="M5,5.459c-2.761,0-5,2.517-5,5.621H10C10,7.976,7.762,5.459,5,5.459Z" fill="#ecf0f2"/>
          <rect y="11.08" width="12.25" height="0.776" fill="#c7d1db"/>
        </g>
      </g>
      <path d="M.722,9.286l1.169-.849,1.169.849L2.614,7.912l1.169-.849H2.338l-.193-.594a5.375,5.375,0,0,0-1.177,1.3l.2.146Z" fill="#fff"/>
    </symbol>
    <symbol id="ax" data-name="S_bein_jeans 2" viewBox="0 0 9 48">
      <g>
        <line x1="4.5" x2="4.5" y2="23.243" fill="none" stroke="#2c5871" stroke-miterlimit="10" stroke-width="8"/>
        <line x1="4.5" y1="23.243" x2="4.5" y2="46.09" fill="none" stroke="#2c5871" stroke-miterlimit="10" stroke-width="8"/>
        <line x1="4.5" y1="46.09" x2="4.5" y2="48" fill="none" stroke="#5088a3" stroke-miterlimit="10" stroke-width="9"/>
      </g>
    </symbol>
    <symbol id="ba" data-name="f_huefte_front 2" viewBox="0 0 24 13">
      <path d="M0,0H24a0,0,0,0,1,0,0V1.4A11.6,11.6,0,0,1,12.4,13h-.8A11.6,11.6,0,0,1,0,1.4V0A0,0,0,0,1,0,0Z" fill="#2c5871"/>
      <polygon points="21.412 0 19.911 0 19.022 0 14.934 0 14.044 0 9.956 0 9.066 0 4.978 0 0 0 0 1.791 4.978 1.791 9.066 1.791 9.956 1.791 14.044 1.791 14.934 1.791 19.022 1.791 19.911 1.791 21.412 1.791 24 1.791 24 0 21.412 0" fill="#272829"/>
    </symbol>
    <symbol id="bb" data-name="f_arm_gebeugter 2" viewBox="0 0 26.065 30.449">
      <g>
        <line x1="23.565" y1="2.5" x2="23.565" y2="13.901" fill="#e89a66" stroke="#e89a66" stroke-linecap="round" stroke-miterlimit="10" stroke-width="5"/>
        <line x1="23.554" y1="13.901" x2="9.911" y2="23.004" fill="none" stroke="#ef9e69" stroke-linecap="round" stroke-miterlimit="10" stroke-width="5"/>
        <line x1="10.743" y1="22.449" x2="2.5" y2="27.949" fill="none" stroke="#ef9e69" stroke-linecap="round" stroke-miterlimit="10" stroke-width="5"/>
      </g>
    </symbol>
    <symbol id="au" data-name="Neues Symbol 8" viewBox="0 0 43.082 166.502">
      <g>
        <use width="22.264" height="41.85" transform="translate(1.484) scale(1.25)" xlink:href="#av"/>
        <g>
          <use width="12.25" height="11.856" transform="matrix(-1.25, 0, 0, 1.184, 23.121, 152.469)" xlink:href="#aw"/>
          <g>
            <path d="M14.62,47h.808a14.6,14.6,0,0,1,14.6,14.6V97.262a0,0,0,0,1,0,0h-30a0,0,0,0,1,0,0V61.6A14.6,14.6,0,0,1,14.62,47Z" fill="#abdced"/>
            <g>
              <use width="9" height="48" transform="translate(6.983 99.037) scale(1.25 1.184)" xlink:href="#ax"/>
              <use width="12.25" height="11.856" transform="matrix(-1.25, 0, 0, 1.184, 29.313, 152.469)" xlink:href="#aw"/>
              <use width="9" height="48" transform="translate(13.176 99.037) scale(1.25 1.184)" xlink:href="#ax"/>
              <use width="24" height="13" transform="translate(0 97.277) scale(1.25 1.184)" xlink:href="#ba"/>
            </g>
          </g>
        </g>
      </g>
      <use width="26.065" height="30.449" transform="matrix(-1.25, 0, 0, 1.25, 43.707, 70.452)" xlink:href="#bb"/>
      <g>
        <line x1="14.251" y1="59.755" x2="14.251" y2="66.908" fill="#e89a66" stroke="#39728b" stroke-linecap="round" stroke-miterlimit="10" stroke-width="12.5"/>
        <line x1="14.251" y1="65.664" x2="14.251" y2="68.158" fill="none" stroke="#39728b" stroke-linecap="square" stroke-miterlimit="10" stroke-width="12.5"/>
      </g>
    </symbol>
    <symbol id="be" data-name="m_Kopf_Markus_front" viewBox="0 0 23.264 37.38">
      <g>
        <ellipse cx="21.246" cy="16.829" rx="2.018" ry="2.887" fill="#dc9161"/>
        <ellipse cx="2.018" cy="16.829" rx="2.018" ry="2.887" fill="#dc9161"/>
        <path d="M21.206,8.361c-.4-4.752-4.113-7.8-8.934-8.113C6.852-.1,2.33,3.1,2.046,8.369l-.028.963V20.153l.026.523a9.605,9.605,0,0,0,7.073,8.747c.094.026.189.05.284.073.169.04.339.077.511.108s.319.053.481.074c.138.018.276.035.416.047.061,0,.121.017.183.021.106.007.21,0,.315,0s.216.017.325.017c.062,0,.123-.009.185-.01.163,0,.324-.013.485-.024s.334-.024.5-.044.309-.045.462-.071.331-.058.494-.095c.145-.033.288-.071.43-.11.166-.046.332-.094.494-.148.132-.044.26-.093.389-.142.169-.065.336-.132.5-.206.113-.051.224-.106.335-.162.174-.086.345-.175.512-.272.094-.054.185-.111.277-.168.178-.111.353-.225.522-.347.073-.052.144-.106.216-.161.182-.138.359-.281.53-.431.052-.046.1-.093.154-.14.183-.168.36-.341.53-.522l.1-.11c.181-.2.353-.4.517-.618l.053-.072c.174-.231.336-.468.489-.715l.017-.029a9.547,9.547,0,0,0,1.4-4.5l.026-.522,0-9.724Z" fill="#ef9e69"/>
        <circle cx="15.951" cy="14.573" r="0.946" fill="#010100"/>
        <circle cx="7.112" cy="14.573" r="0.946" fill="#010100"/>
      </g>
      <g>
        <path d="M10.863,31.742a11.2,11.2,0,0,1-3.531-.826V37.38h8V31.152a11.563,11.563,0,0,1-3.7.615Q11.25,31.767,10.863,31.742Z" fill="#dc9161"/>
        <path d="M10.992,29.746a9.191,9.191,0,0,1-3.66-1.028v2.2a11.2,11.2,0,0,0,3.531.826q.387.025.769.025a11.563,11.563,0,0,0,3.7-.615V29.016A9.606,9.606,0,0,1,10.992,29.746Z" fill="#c98559"/>
      </g>
      <path d="M20.3,3.545A3.585,3.585,0,0,0,16.671,0H8.433A6.865,6.865,0,0,0,1.662,6.8L1.6,14.39l.717,1.988V9.262a3.05,3.05,0,0,1,3.028-3.05l12.643-.095a3.051,3.051,0,0,1,3.073,3.05v7.039l.4-.778.245-10.02A1.872,1.872,0,0,0,20.3,3.545Z" fill="#4c3a2d"/>
      <path d="M17.711,26.546c-.027-1.065-.108-1.965-.141-2.147A2.48,2.48,0,0,0,16.2,22.415a4.3,4.3,0,0,0-2.173-.52c-1.09.03-2.315.189-2.315.189a5.735,5.735,0,0,0-3.172-.108,4.821,4.821,0,0,0-2.828,2.14,5.634,5.634,0,0,0-.088,2.457v0c-1.681-.3-3.535-5.367-3.535-5.367a8.93,8.93,0,0,0,4.242,6.957l-.007-.015a9.573,9.573,0,0,0,2.8,1.279c.094.026.189.05.285.073.168.04.338.077.51.108s.319.053.481.074c.138.018.276.035.416.047.061,0,.121.017.183.021.106.007.21,0,.316,0s.215.016.324.016c.062,0,.123-.008.185-.009.163,0,.324-.013.485-.024s.334-.024.5-.044.309-.045.462-.071.331-.058.494-.095c.145-.033.288-.071.43-.11.166-.046.332-.094.494-.148.132-.044.26-.093.389-.142.169-.065.336-.132.5-.206.113-.051.224-.106.335-.162.174-.086.345-.175.512-.272.094-.054.185-.111.277-.168s.163-.108.244-.162l0,.006s3.546-1.625,4.24-6.946C21.176,21.213,19.375,26.127,17.711,26.546Zm-4.346,1.633c-1.229.425-.286-1.512-.567-1.512-.231,0-1.523-.014-1.748-.047-.359-.053,1.086,2.126-.9,1.38-1.793-.673-3.162-2.217-3.162-3.318,0-1.172,1.628-1.124,3.539-1.447a7.029,7.029,0,0,0,1.28-.49,8.444,8.444,0,0,0,1.331.475c1.958.306,3.63.46,3.63,1.651C16.766,26.15,15.257,27.524,13.365,28.179Z" fill="#4c3a2d"/>
      <path d="M11.851,25.6c1.383,0,2.5-.656,2.5-1.465H9.348C9.348,24.945,10.469,25.6,11.851,25.6Z" fill="#ca875a"/>
    </symbol>
    <symbol id="bi" data-name="M_bein_greyjeans" viewBox="0 0 9 50.194">
      <line x1="4.5" x2="4.5" y2="24.34" fill="none" stroke="#585e61" stroke-miterlimit="10" stroke-width="9"/>
      <line x1="4.5" y1="24.34" x2="4.5" y2="45.694" fill="none" stroke="#585e61" stroke-linecap="round" stroke-miterlimit="10" stroke-width="9"/>
      <line x1="4.5" y1="40.102" x2="4.5" y2="45.694" fill="none" stroke="#585e61" stroke-linecap="square" stroke-miterlimit="10" stroke-width="9"/>
    </symbol>
    <symbol id="bl" data-name="m_huefte_grayjeans_front" viewBox="0 0 26.986 15.649">
      <path d="M0,0H26.986a0,0,0,0,1,0,0V2.156A13.493,13.493,0,0,1,13.493,15.649h0A13.493,13.493,0,0,1,0,2.156V0A0,0,0,0,1,0,0Z" fill="#585e61"/>
      <polygon points="23.221 0 22.389 0 4.597 0 3.387 0 0 0 0 2.156 3.387 2.156 4.597 2.156 22.389 2.156 23.221 2.156 26.986 2.156 26.986 0 23.221 0" fill="#313638"/>
    </symbol>
    <symbol id="bn" data-name="appuio signet" viewBox="0 0 73.01 32.376">
      <path d="M69.756,0H3.038A3.045,3.045,0,0,0,0,3.113V23.661a3.1,3.1,0,0,0,3.038,3.172H54.289v5.543l4.12-5.543H69.756a3.282,3.282,0,0,0,3.254-3.172V3.113A3.231,3.231,0,0,0,69.756,0Z" fill="#ffd804"/>
    </symbol>
    <symbol id="bm" data-name="L_hemd_blau_front 3" viewBox="0 0 45 45.935">
      <g>
        <g>
          <path d="M22.511,0A13.414,13.414,0,0,0,9.061,13.376V45.935H22.635V0Z" fill="#2d5972"/>
          <path d="M36.21,13.376A13.414,13.414,0,0,0,22.76,0h-.125V45.935H36.21Z" fill="#2d5972"/>
        </g>
        <g>
          <path d="M29.676,0H22.635V22.285H45V17.652A17.887,17.887,0,0,0,29.676,0Z" fill="#2d5972"/>
          <path d="M15.324,0A17.887,17.887,0,0,0,0,17.652v4.633H22.635V0Z" fill="#2d5972"/>
        </g>
        <polygon points="23.753 45.805 22.773 45.805 22.707 11.236 23.753 10.082 23.753 45.805" fill="none"/>
        <polygon points="18.237 0.002 22.618 11.217 22.787 11.215 27.219 0 18.237 0.002" fill="#dc9161"/>
        <g>
          <path d="M20.032,7.273c.245,0,1.62.231,1.62.231l.966,3.713L19.162,9.523Z" fill="#446b77" fill-rule="evenodd"/>
          <path d="M18.228,0l3.424,7.5s-3.8,3.952-3.741,3.779S16.155.37,16.286,0Z" fill="#537e8e" fill-rule="evenodd"/>
          <path d="M25.373,7.271c-.245,0-1.62.231-1.62.231l-.966,3.713,3.456-1.694Z" fill="#446b77" fill-rule="evenodd"/>
          <path d="M27.219,0,23.753,7.5s3.795,3.952,3.741,3.779S29.221.37,29.09,0Z" fill="#537e8e" fill-rule="evenodd"/>
        </g>
      </g>
      <use width="73.01" height="32.376" transform="translate(23.753 15.873) scale(0.122)" xlink:href="#bn"/>
    </symbol>
    <symbol id="bd" data-name="Markus" viewBox="0 0 45 140.69">
      <use width="23.264" height="37.38" transform="translate(11.168)" xlink:href="#be"/>
      <g>
        <g>
          <use width="6" height="42.711" transform="translate(1.5 48.832)" xlink:href="#d"/>
          <use width="6" height="42.711" transform="translate(37.511 48.832)" xlink:href="#d"/>
        </g>
        <g>
          <g>
            <use width="12" height="12.229" transform="translate(8.5 128.461)" xlink:href="#al"/>
            <use width="9" height="50.194" transform="translate(10 82.965)" xlink:href="#bi"/>
          </g>
          <g>
            <use width="12" height="12.229" transform="translate(24.395 128.461)" xlink:href="#al"/>
            <use width="9" height="50.194" transform="translate(25.896 82.965)" xlink:href="#bi"/>
          </g>
          <use width="26.986" height="15.649" transform="translate(9 77.88)" xlink:href="#bl"/>
        </g>
      </g>
      <use width="45" height="45.935" transform="translate(0 32.714)" xlink:href="#bm"/>
    </symbol>
    <symbol id="br" data-name="f_schuhe_sport_front" viewBox="0 0 10 11.856">
      <line x1="5" x2="5" y2="11.325" fill="none" stroke="#ef9e69" stroke-miterlimit="10" stroke-width="5"/>
      <g>
        <g>
          <rect x="1.25" y="8.27" width="7.5" height="2.828" fill="#c7d1db"/>
          <path d="M5,5.459c-2.761,0-5,2.517-5,5.621H10C10,7.976,7.762,5.459,5,5.459Z" fill="#c7d1db"/>
          <rect y="11.08" width="10" height="0.776" fill="#c7d1db"/>
        </g>
        <g>
          <rect x="1.25" y="8.27" width="7.5" height="2.828" fill="#ecf0f2"/>
          <path d="M5,5.459c-2.761,0-5,2.517-5,5.621H10C10,7.976,7.762,5.459,5,5.459Z" fill="#ecf0f2"/>
          <rect y="11.08" width="10" height="0.776" fill="#c7d1db"/>
        </g>
      </g>
      <polygon points="5 6.281 5.446 7.655 6.891 7.655 5.722 8.505 6.169 9.879 5 9.029 3.831 9.879 4.278 8.505 3.109 7.655 4.554 7.655 5 6.281" fill="#fff"/>
    </symbol>
    <symbol id="bs" data-name="m_Kopf_Valentina_front" viewBox="0 0 22.264 54.561">
      <path d="M.113,11H22.151a0,0,0,0,1,0,0V43.542A11.019,11.019,0,0,1,11.132,54.561h0A11.019,11.019,0,0,1,.113,43.542V11A0,0,0,0,1,.113,11Z" fill="#ffe036"/>
      <g>
        <ellipse cx="20.246" cy="18.958" rx="2.018" ry="2.887" fill="#dc9161"/>
        <ellipse cx="2.018" cy="18.958" rx="2.018" ry="2.887" fill="#dc9161"/>
        <path d="M20.706,9.953A9.794,9.794,0,0,0,11.772.891,9.6,9.6,0,0,0,1.546,9.961l-.028.014v11.33l.026.014a9.6,9.6,0,0,0,7.073,8.746c.094.026.189.05.284.073.169.041.339.078.511.109s.319.052.481.073c.138.018.276.036.416.048.061.005.121.016.183.02.106.007.21,0,.315,0s.216.016.325.016c.062,0,.123-.008.185-.009.163,0,.324-.014.485-.025s.334-.024.5-.044.309-.044.462-.07.331-.058.494-.095c.145-.033.288-.071.43-.111.166-.046.332-.093.494-.148.132-.043.26-.092.389-.142.169-.064.336-.132.5-.206.113-.051.224-.106.335-.161.174-.087.345-.176.512-.272.094-.054.185-.111.277-.169.178-.11.353-.225.522-.346.073-.053.144-.107.216-.161.182-.138.359-.281.53-.431.052-.046.1-.093.154-.14q.274-.252.53-.523l.1-.11q.271-.3.517-.617l.053-.072c.174-.231.336-.469.489-.715l.017-.029a9.551,9.551,0,0,0,1.4-4.495l.026-.013V20.8l0-9.723Z" fill="#ef9e69"/>
        <circle cx="15.451" cy="14.215" r="0.946" fill="#010100"/>
        <circle cx="6.612" cy="14.215" r="0.946" fill="#010100"/>
      </g>
      <g>
        <path d="M10.363,32.384a11.173,11.173,0,0,1-3.531-.825v6.464h8V31.794a11.536,11.536,0,0,1-3.7.615Q10.75,32.409,10.363,32.384Z" fill="#dc9161"/>
        <path d="M10.492,30.388a9.174,9.174,0,0,1-3.66-1.027v2.2a11.173,11.173,0,0,0,3.531.825q.387.026.769.025a11.536,11.536,0,0,0,3.7-.615V29.658A9.592,9.592,0,0,1,10.492,30.388Z" fill="#c98559"/>
      </g>
      <g>
        <path d="M20.469,3.328A8.753,8.753,0,0,0,11.577.213l-.445.1-.445-.1A8.753,8.753,0,0,0,1.8,3.328,8.472,8.472,0,0,0,.113,8.4V15.52H1.519V9.7a2.8,2.8,0,0,1,2.8-2.8H17.948a2.8,2.8,0,0,1,2.8,2.8V15.52h1.406V8.4A8.466,8.466,0,0,0,20.469,3.328Z" fill="#ffe036"/>
        <g>
          <path d="M.82,10.075S9.266,8.9,11.331,6.835H.82Z" fill="#ffe036"/>
          <path d="M21.842,10.075S13.4,8.9,11.331,6.835H21.842Z" fill="#ffe036"/>
        </g>
      </g>
      <path d="M11.138,24.826c2.119,0,3.836-.848,3.836-1.893H7.3C7.3,23.978,9.019,24.826,11.138,24.826Z" fill="#d18c5c"/>
    </symbol>
    <symbol id="bt" data-name="f_tshirt_black_up_front" viewBox="0 0 39.029 50.383">
      <path d="M39.029,8.375,39.017,0H31.1V5.438a2.334,2.334,0,0,1-2.13,2.5H10.143A2.335,2.335,0,0,1,8.012,5.438V.33h-8L0,8.375a13.9,13.9,0,0,0,2.17,7.276H2.163l.025.031a15.381,15.381,0,0,0,1.928,2.485c3.127,4.774,2.891,8.708,2.891,8.708h24s.2-3.429,3.906-8.708a15.443,15.443,0,0,0,1.929-2.485l.024-.031h-.007A13.9,13.9,0,0,0,39.029,8.375Z"/>
      <path d="M19.007,7.917h0a12,12,0,0,1,12,12V50.383a0,0,0,0,1,0,0h-24a0,0,0,0,1,0,0V19.917A12,12,0,0,1,19.007,7.917Z"/>
      <polyline points="21.321 23.455 19.515 25.191 17.709 23.455" fill="none" stroke="#1db1bf" stroke-linecap="round" stroke-miterlimit="10" stroke-width="3.182"/>
    </symbol>
    <symbol id="bu" data-name="S_bein_jeans" viewBox="0 0 9 48">
      <g>
        <line x1="4.5" x2="4.5" y2="23.243" fill="none" stroke="#2d5972" stroke-miterlimit="10" stroke-width="8"/>
        <line x1="4.5" y1="23.243" x2="4.5" y2="46.09" fill="none" stroke="#2d5972" stroke-miterlimit="10" stroke-width="8"/>
        <line x1="4.5" y1="46.09" x2="4.5" y2="48" fill="none" stroke="#537e8e" stroke-miterlimit="10" stroke-width="9"/>
      </g>
    </symbol>
    <symbol id="by" data-name="valentina_haare" viewBox="0 0 11.019 24.112">
      <path d="M3.7,0V8.3A39.092,39.092,0,0,1,0,24.112H0A11.019,11.019,0,0,0,11.019,13.093V0Z" fill="#ffe036"/>
    </symbol>
    <symbol id="bo" data-name="Valentina4" viewBox="0 0 48.787 177.917">
      <g>
        <use width="5" height="41.711" transform="matrix(1.25, 0, 0, -1.25, 1.89, 51.926)" xlink:href="#aj"/>
        <use width="5" height="41.711" transform="matrix(1.25, 0, 0, -1.25, 40.634, 51.514)" xlink:href="#aj"/>
        <use width="10" height="11.856" transform="translate(8.317 163.097) scale(1.25)" xlink:href="#br"/>
        <g>
          <use width="22.264" height="54.561" transform="translate(10.241 9.314) scale(1.25)" xlink:href="#bs"/>
          <use width="39.029" height="50.383" transform="translate(0 42.858) scale(1.25)" xlink:href="#bt"/>
          <g>
            <use width="9" height="48" transform="translate(8.942 106.667) scale(1.25)" xlink:href="#bu"/>
            <use width="10" height="11.856" transform="translate(26.776 163.097) scale(1.25)" xlink:href="#br"/>
            <use width="9" height="48" transform="translate(27.401 106.667) scale(1.25)" xlink:href="#bu"/>
            <use width="24" height="13" transform="translate(8.757 104.628) scale(1.25)" xlink:href="#ap"/>
          </g>
        </g>
      </g>
      <use width="11.019" height="24.112" transform="translate(24.156 51.643) scale(1.25)" xlink:href="#by"/>
    </symbol>
    <symbol id="cb" data-name="M_Bein_jeans 6" viewBox="0 0 11 50.194">
      <line x1="5.5" x2="5.5" y2="24.34" fill="none" stroke="#010202" stroke-miterlimit="10" stroke-width="9"/>
      <line x1="5.5" y1="24.34" x2="5.5" y2="47.803" fill="none" stroke="#010202" stroke-miterlimit="10" stroke-width="9"/>
      <line x1="5.5" y1="46.317" x2="5.5" y2="50.194" fill="none" stroke="#838383" stroke-miterlimit="10" stroke-width="11"/>
    </symbol>
    <symbol id="cd" data-name="M_Bein_jeans 5" viewBox="0 0 11 50.194">
      <line x1="5.5" x2="5.5" y2="24.34" fill="none" stroke="#585e61" stroke-miterlimit="10" stroke-width="9"/>
      <line x1="5.5" y1="24.34" x2="5.5" y2="47.803" fill="none" stroke="#585e61" stroke-miterlimit="10" stroke-width="9"/>
      <line x1="5.5" y1="46.317" x2="5.5" y2="50.194" fill="none" stroke="#9b9b9a" stroke-miterlimit="10" stroke-width="11"/>
    </symbol>
    <symbol id="bz" data-name="kunde 3" viewBox="0 0 68.887 188.182">
      <g>
        <g>
          <g>
            <path d="M30.917,47.284a13.967,13.967,0,0,0,4.414-1.032v8.081h-10V46.547a14.431,14.431,0,0,0,4.626.768C30.275,47.315,30.594,47.306,30.917,47.284Z" fill="#dc9161"/>
            <path d="M30.756,44.789a11.471,11.471,0,0,0,4.575-1.284v2.747a13.967,13.967,0,0,1-4.414,1.032c-.323.022-.642.031-.96.031a14.431,14.431,0,0,1-4.626-.768v-2.67A11.983,11.983,0,0,0,30.756,44.789Z" fill="#c98559"/>
          </g>
          <path d="M15.643,106.165h33.75V66.678a16.72,16.72,0,0,0-16.72-16.72h-.309a16.72,16.72,0,0,0-16.721,16.72Z" fill="#9c6f84"/>
          <g>
            <g>
              <use width="16" height="12.81" transform="matrix(-1.25, 0, 0, 1.25, 51.757, 168.708)" xlink:href="#q"/>
              <use width="11" height="50.194" transform="matrix(-1.25, 0, 0, 1.25, 44.466, 111.42)" xlink:href="#cb"/>
            </g>
            <g>
              <use width="16" height="12.81" transform="matrix(-1.25, 0, 0, 1.25, 43.068, 168.708)" xlink:href="#q"/>
              <use width="11" height="50.194" transform="matrix(-1.25, 0, 0, 1.25, 35.847, 111.42)" xlink:href="#cd"/>
            </g>
            <use width="26.986" height="15.649" transform="matrix(-1.25, 0, 0, 1.25, 49.466, 106.207)" xlink:href="#bl"/>
          </g>
        </g>
        <g>
          <path d="M40.721,28.084A11.755,11.755,0,1,1,19.414,38.02l-6.108-13.1,21.307-9.935Z" fill="#ef9e69"/>
          <circle cx="34.454" cy="19.893" r="1.156"/>
          <path d="M28.572,21.086c-1.206,2.344,1.22,4.4.072,7.056a7.918,7.918,0,0,1-3.856,4.008,7.6,7.6,0,0,1-3.671.7c-1.334-.08,2.131-.392,1.281.861-1.535,2.262-2.08,6.436-.141,8.393a9.618,9.618,0,0,0-1.855-.859,19.419,19.419,0,0,1-2.14-1.321,20.363,20.363,0,0,1-3.613-3.3c-2.232-2.588-3.312-5.6-4.759-8.641-1-2.105-2.717-3.846-3.782-5.923a10.605,10.605,0,0,1-.083-9.535c2.054-4.064,6.069-4.386,9.52-6.559,2.746-1.728,4.853-4.758,8.1-5.585,8.419-2.143,20.969,5.073,15.716,13.2-.351.544-1.9,1.135-3.416,1.552a10.635,10.635,0,0,0-5.408,3.54Z" fill="#4f2b13"/>
        </g>
        <path d="M25.09,29.555A3.236,3.236,0,0,1,24.9,34.1a3.236,3.236,0,0,1-4.449-.933,3.238,3.238,0,0,1,.19-4.543A3.237,3.237,0,0,1,25.09,29.555Z" fill="#ef9e69"/>
        <g>
          <polyline points="31.297 59.994 34.721 92.08 62.096 120.516" fill="none" stroke="#ef9e69" stroke-linecap="round" stroke-linejoin="round" stroke-width="10.153"/>
          <line x1="31.297" y1="59.994" x2="34.721" y2="92.08" fill="none" stroke="#af7c95" stroke-linecap="round" stroke-linejoin="round" stroke-width="10.153"/>
          <polyline points="32.518 71.442 34.721 92.08 57.473 115.713" fill="none" stroke="#af7c95" stroke-linejoin="round" stroke-width="10.153"/>
        </g>
      </g>
      <use width="75.929" height="11.334" transform="translate(0 177.494) scale(0.907 0.943)" xlink:href="#b"/>
      <path d="M36.1,27.714c.532,1.167,2.582,1.375,4.577.465.02-.009.037-.02.057-.03l-.963-2.11Z" fill="#ca875a"/>
    </symbol>
  </defs>
  <g>
    <polygon points="378.769 333.8 334.822 333.8 334.822 320.597 378.769 333.8" fill="#d9d9d9" opacity="0.1"/>
    <g>
      <g>
        <g>
          <rect x="169.614" y="115.252" width="219.614" height="109.114" fill="#81d4dc"/>
          <g>
            <rect x="176.079" y="121.718" width="206.684" height="96.183" fill="#1d1d1b" opacity="0.05"/>
            <path d="M380.177,124.3v91.011H178.665V124.3H380.177m2.586-2.586H176.079V217.9H382.763V121.718Z" fill="#1d1d1b" opacity="0.1"/>
          </g>
        </g>
        <g>
          <g>
            <path d="M280.024,129.3a3.434,3.434,0,0,0-3.436,3.436v75.294a3.436,3.436,0,0,0,6.872,0V132.735a3.434,3.434,0,0,0-3.436-3.436Z" fill="#7dadba"/>
            <path d="M262.9,129.3a3.434,3.434,0,0,0-3.436,3.436v75.294a3.436,3.436,0,0,0,6.872,0V132.735A3.434,3.434,0,0,0,262.9,129.3Z" fill="#7dadba"/>
            <path d="M245.843,129.3a3.434,3.434,0,0,0-3.436,3.436v75.294a3.436,3.436,0,0,0,6.872,0V132.735a3.514,3.514,0,0,0-3.436-3.436Z" fill="#7dadba"/>
            <path d="M228.723,129.3a3.434,3.434,0,0,0-3.436,3.436v75.294a3.436,3.436,0,1,0,6.872,0V132.735a3.474,3.474,0,0,0-3.436-3.436Z" fill="#7dadba"/>
            <path d="M348.507,129.3a3.434,3.434,0,0,0-3.436,3.436v75.294a3.436,3.436,0,0,0,6.872,0V132.735a3.514,3.514,0,0,0-3.436-3.436Z" fill="#7dadba"/>
            <path d="M365.567,129.3a3.434,3.434,0,0,0-3.436,3.436v75.294a3.436,3.436,0,1,0,6.872,0V132.735a3.434,3.434,0,0,0-3.436-3.436Z" fill="#7dadba"/>
            <path d="M211.6,129.3a3.434,3.434,0,0,0-3.436,3.436v75.294a3.436,3.436,0,1,0,6.872,0V132.735A3.473,3.473,0,0,0,211.6,129.3Z" fill="#7dadba"/>
            <path d="M194.482,129.3a3.435,3.435,0,0,0-3.437,3.436v75.294a3.437,3.437,0,0,0,6.873,0V132.735a3.434,3.434,0,0,0-3.436-3.436Z" fill="#7dadba"/>
            <path d="M331.386,129.3a3.434,3.434,0,0,0-3.436,3.436v75.294a3.436,3.436,0,1,0,6.872,0V132.735a3.473,3.473,0,0,0-3.436-3.436Z" fill="#7dadba"/>
            <path d="M314.265,129.3a3.435,3.435,0,0,0-3.436,3.436v75.294a3.437,3.437,0,0,0,6.873,0V132.735a3.474,3.474,0,0,0-3.437-3.436Z" fill="#7dadba"/>
            <path d="M297.145,129.3a3.434,3.434,0,0,0-3.436,3.436v75.294a3.434,3.434,0,0,0,3.436,3.436,3.4,3.4,0,0,0,3.436-3.436V132.735a3.473,3.473,0,0,0-3.436-3.436Z" fill="#7dadba"/>
          </g>
          <g>
            <path d="M279.421,128.7a3.435,3.435,0,0,0-3.436,3.436v75.294a3.437,3.437,0,1,0,6.873,0V132.132a3.434,3.434,0,0,0-3.437-3.436Z" fill="#91eaf3"/>
            <path d="M262.3,128.7a3.434,3.434,0,0,0-3.436,3.436v75.294a3.436,3.436,0,1,0,6.872,0V132.132A3.434,3.434,0,0,0,262.3,128.7Z" fill="#91eaf3"/>
            <path d="M245.24,128.7a3.435,3.435,0,0,0-3.436,3.436v75.294a3.437,3.437,0,1,0,6.873,0V132.132a3.515,3.515,0,0,0-3.437-3.436Z" fill="#91eaf3"/>
            <path d="M228.12,128.7a3.434,3.434,0,0,0-3.436,3.436v75.294a3.436,3.436,0,1,0,6.872,0V132.132a3.473,3.473,0,0,0-3.436-3.436Z" fill="#91eaf3"/>
            <path d="M347.9,128.7a3.434,3.434,0,0,0-3.436,3.436v75.294a3.436,3.436,0,1,0,6.872,0V132.132A3.514,3.514,0,0,0,347.9,128.7Z" fill="#91eaf3"/>
            <path d="M364.964,128.7a3.434,3.434,0,0,0-3.436,3.436v75.294a3.436,3.436,0,1,0,6.872,0V132.132a3.434,3.434,0,0,0-3.436-3.436Z" fill="#91eaf3"/>
            <path d="M211,128.7a3.434,3.434,0,0,0-3.436,3.436v75.294a3.436,3.436,0,1,0,6.872,0V132.132A3.473,3.473,0,0,0,211,128.7Z" fill="#91eaf3"/>
            <path d="M193.879,128.7a3.434,3.434,0,0,0-3.436,3.436v75.294a3.436,3.436,0,1,0,6.872,0V132.132a3.434,3.434,0,0,0-3.436-3.436Z" fill="#91eaf3"/>
            <path d="M330.783,128.7a3.434,3.434,0,0,0-3.436,3.436v75.294a3.436,3.436,0,1,0,6.872,0V132.132a3.473,3.473,0,0,0-3.436-3.436Z" fill="#91eaf3"/>
            <path d="M313.663,128.7a3.435,3.435,0,0,0-3.437,3.436v75.294a3.437,3.437,0,1,0,6.873,0V132.132a3.474,3.474,0,0,0-3.436-3.436Z" fill="#91eaf3"/>
            <path d="M296.542,128.7a3.434,3.434,0,0,0-3.436,3.436v75.294a3.435,3.435,0,0,0,3.436,3.437,3.4,3.4,0,0,0,3.436-3.437V132.132a3.473,3.473,0,0,0-3.436-3.436Z" fill="#91eaf3"/>
          </g>
        </g>
      </g>
      <rect x="169.614" y="221.16" width="219.614" height="3.206" fill="#6aa0aa"/>
    </g>
    <g>
      <g>
        <g>
          <rect x="113.821" y="224.687" width="219.614" height="109.114" fill="#81d4dc"/>
          <g>
            <rect x="120.286" y="231.152" width="206.684" height="96.183" fill="#1d1d1b" opacity="0.05"/>
            <path d="M324.384,233.738v91.011H122.872V233.738H324.384m2.586-2.586H120.286v96.183H326.97V231.152Z" fill="#1d1d1b" opacity="0.1"/>
          </g>
        </g>
        <g>
          <g>
            <path d="M224.231,238.733a3.434,3.434,0,0,0-3.436,3.436v75.295a3.436,3.436,0,1,0,6.872,0V242.169a3.434,3.434,0,0,0-3.436-3.436Z" fill="#7dadba"/>
            <path d="M207.111,238.733a3.435,3.435,0,0,0-3.437,3.436v75.295a3.437,3.437,0,0,0,6.873,0V242.169a3.434,3.434,0,0,0-3.436-3.436Z" fill="#7dadba"/>
            <path d="M190.05,238.733a3.434,3.434,0,0,0-3.436,3.436v75.295a3.436,3.436,0,1,0,6.872,0V242.169a3.514,3.514,0,0,0-3.436-3.436Z" fill="#7dadba"/>
            <path d="M172.93,238.733a3.434,3.434,0,0,0-3.436,3.436v75.295a3.436,3.436,0,0,0,6.872,0V242.169a3.474,3.474,0,0,0-3.436-3.436Z" fill="#7dadba"/>
            <path d="M292.714,238.733a3.435,3.435,0,0,0-3.437,3.436v75.295a3.437,3.437,0,0,0,6.873,0V242.169a3.515,3.515,0,0,0-3.436-3.436Z" fill="#7dadba"/>
            <path d="M309.774,238.733a3.434,3.434,0,0,0-3.436,3.436v75.295a3.436,3.436,0,1,0,6.872,0V242.169a3.434,3.434,0,0,0-3.436-3.436Z" fill="#7dadba"/>
            <path d="M155.809,238.733a3.434,3.434,0,0,0-3.436,3.436v75.295a3.436,3.436,0,0,0,6.872,0V242.169a3.473,3.473,0,0,0-3.436-3.436Z" fill="#7dadba"/>
            <path d="M138.688,238.733a3.435,3.435,0,0,0-3.436,3.436v75.295a3.437,3.437,0,0,0,6.873,0V242.169a3.435,3.435,0,0,0-3.437-3.436Z" fill="#7dadba"/>
            <path d="M275.593,238.733a3.434,3.434,0,0,0-3.436,3.436v75.295a3.436,3.436,0,1,0,6.872,0V242.169a3.473,3.473,0,0,0-3.436-3.436Z" fill="#7dadba"/>
            <path d="M258.472,238.733a3.435,3.435,0,0,0-3.436,3.436v75.295a3.437,3.437,0,0,0,6.873,0V242.169a3.474,3.474,0,0,0-3.437-3.436Z" fill="#7dadba"/>
            <path d="M241.352,238.733a3.434,3.434,0,0,0-3.436,3.436v75.295a3.435,3.435,0,0,0,3.436,3.436,3.4,3.4,0,0,0,3.436-3.436V242.169a3.473,3.473,0,0,0-3.436-3.436Z" fill="#7dadba"/>
          </g>
          <g>
            <path d="M223.628,238.13a3.434,3.434,0,0,0-3.436,3.436v75.295a3.436,3.436,0,0,0,6.872,0V241.566a3.434,3.434,0,0,0-3.436-3.436Z" fill="#91eaf3"/>
            <path d="M206.508,238.13a3.434,3.434,0,0,0-3.436,3.436v75.295a3.436,3.436,0,0,0,6.872,0V241.566a3.434,3.434,0,0,0-3.436-3.436Z" fill="#91eaf3"/>
            <path d="M189.447,238.13a3.435,3.435,0,0,0-3.436,3.436v75.295a3.437,3.437,0,0,0,6.873,0V241.566a3.515,3.515,0,0,0-3.437-3.436Z" fill="#91eaf3"/>
            <path d="M172.327,238.13a3.434,3.434,0,0,0-3.436,3.436v75.295a3.436,3.436,0,0,0,6.872,0V241.566a3.473,3.473,0,0,0-3.436-3.436Z" fill="#91eaf3"/>
            <path d="M292.111,238.13a3.434,3.434,0,0,0-3.436,3.436v75.295a3.436,3.436,0,0,0,6.872,0V241.566a3.514,3.514,0,0,0-3.436-3.436Z" fill="#91eaf3"/>
            <path d="M309.171,238.13a3.434,3.434,0,0,0-3.436,3.436v75.295a3.436,3.436,0,0,0,6.872,0V241.566a3.434,3.434,0,0,0-3.436-3.436Z" fill="#91eaf3"/>
            <path d="M155.206,238.13a3.434,3.434,0,0,0-3.436,3.436v75.295a3.436,3.436,0,0,0,6.872,0V241.566a3.473,3.473,0,0,0-3.436-3.436Z" fill="#91eaf3"/>
            <path d="M138.086,238.13a3.435,3.435,0,0,0-3.437,3.436v75.295a3.437,3.437,0,0,0,6.873,0V241.566a3.434,3.434,0,0,0-3.436-3.436Z" fill="#91eaf3"/>
            <path d="M274.99,238.13a3.434,3.434,0,0,0-3.436,3.436v75.295a3.436,3.436,0,1,0,6.872,0V241.566a3.473,3.473,0,0,0-3.436-3.436Z" fill="#91eaf3"/>
            <path d="M257.87,238.13a3.435,3.435,0,0,0-3.437,3.436v75.295a3.437,3.437,0,0,0,6.873,0V241.566a3.474,3.474,0,0,0-3.436-3.436Z" fill="#91eaf3"/>
            <path d="M240.749,238.13a3.434,3.434,0,0,0-3.436,3.436v75.295a3.435,3.435,0,0,0,3.436,3.436,3.4,3.4,0,0,0,3.436-3.436V241.566a3.473,3.473,0,0,0-3.436-3.436Z" fill="#91eaf3"/>
          </g>
        </g>
      </g>
      <rect x="113.821" y="330.594" width="219.614" height="3.206" fill="#367089"/>
      <polygon points="204.432 333.8 169.614 224.687 334.367 224.687 334.367 333.8 204.432 333.8" fill="#1d1d1b" opacity="0.1"/>
    </g>
    <g>
      <g>
        <g>
          <use width="60.339" height="26.757" transform="translate(310.67 182.381) scale(1.323)" xlink:href="#a"/>
          <g>
            <use width="75.929" height="11.334" transform="translate(365.875 396.52) scale(1.071)" xlink:href="#b"/>
            <use width="79.457" height="177.812" transform="translate(352.861 218.585) scale(1.035)" xlink:href="#c"/>
          </g>
          <g>
            <use width="75.929" height="11.334" transform="translate(262.138 396.52) scale(1.071)" xlink:href="#b"/>
            <use width="59.762" height="178.757" transform="translate(277.733 217.025) scale(1.033)" xlink:href="#n"/>
          </g>
        </g>
        <use width="60.339" height="26.757" transform="translate(353.881 23.307) scale(0.658)" xlink:href="#a"/>
        <use width="60.339" height="26.757" transform="translate(106.473 160.982) scale(0.658)" xlink:href="#a"/>
        <use width="87.131" height="148.215" transform="translate(103.607 182.693) scale(0.375)" xlink:href="#y"/>
        <use width="50" height="159.819" transform="translate(139.043 180.705) scale(0.364)" xlink:href="#ai"/>
        <g>
          <use width="60.339" height="26.757" transform="translate(61.068 245.739) scale(0.637)" xlink:href="#a"/>
          <g>
            <use width="75.929" height="11.334" transform="translate(57.889 344.045) scale(0.516)" xlink:href="#b"/>
            <use width="43.082" height="166.502" transform="translate(69.546 263.391) scale(0.497)" xlink:href="#au"/>
          </g>
          <g>
            <use width="75.929" height="11.334" transform="translate(107.844 344.045) scale(0.516)" xlink:href="#b"/>
            <use width="45" height="140.69" transform="translate(113.826 253.056) scale(0.665)" xlink:href="#bd"/>
          </g>
        </g>
      </g>
      <use width="48.787" height="177.917" transform="translate(365.196 47.731) scale(0.38)" xlink:href="#bo"/>
    </g>
  </g>
  <use width="68.887" height="188.182" transform="translate(-481.726 -804.064) scale(0.653)" xlink:href="#bz"/>
</svg>
