<svg xmlns="http://www.w3.org/2000/svg" xmlns:xlink="http://www.w3.org/1999/xlink" viewBox="0 0 1280 700"><defs><style>.cls-1,.cls-103,.cls-104,.cls-105,.cls-106,.cls-107,.cls-108,.cls-114,.cls-115,.cls-116,.cls-17,.cls-23,.cls-31,.cls-32,.cls-33,.cls-36,.cls-37,.cls-38,.cls-43,.cls-44,.cls-45,.cls-46,.cls-47,.cls-48,.cls-49,.cls-50,.cls-51,.cls-54,.cls-55,.cls-56,.cls-57,.cls-58,.cls-59,.cls-60,.cls-61,.cls-62,.cls-63,.cls-64,.cls-65,.cls-66,.cls-67,.cls-68,.cls-69,.cls-70,.cls-75,.cls-76,.cls-77,.cls-78,.cls-79,.cls-80,.cls-82,.cls-83,.cls-84,.cls-85,.cls-86,.cls-87,.cls-88,.cls-89,.cls-9,.cls-90{fill:none;}.cls-2{isolation:isolate;}.cls-3{fill:#A7E4F2;}.cls-4{fill:#002f47;}.cls-5{fill:#7eadba;}.cls-6{fill:#a7cdd1;}.cls-7{fill:#c0e0e2;}.cls-8{fill:#c2d64c;}.cls-9{stroke:#0c3148;stroke-width:0.76px;}.cls-104,.cls-106,.cls-107,.cls-115,.cls-116,.cls-17,.cls-32,.cls-36,.cls-37,.cls-44,.cls-46,.cls-47,.cls-50,.cls-54,.cls-56,.cls-58,.cls-61,.cls-62,.cls-66,.cls-68,.cls-70,.cls-76,.cls-78,.cls-79,.cls-83,.cls-87,.cls-88,.cls-9{stroke-linecap:round;}.cls-103,.cls-104,.cls-105,.cls-106,.cls-107,.cls-108,.cls-114,.cls-115,.cls-119,.cls-23,.cls-31,.cls-32,.cls-33,.cls-36,.cls-37,.cls-38,.cls-43,.cls-44,.cls-45,.cls-46,.cls-47,.cls-48,.cls-49,.cls-50,.cls-51,.cls-54,.cls-55,.cls-56,.cls-57,.cls-58,.cls-59,.cls-60,.cls-61,.cls-62,.cls-63,.cls-64,.cls-65,.cls-66,.cls-67,.cls-68,.cls-69,.cls-70,.cls-75,.cls-76,.cls-77,.cls-78,.cls-79,.cls-80,.cls-81,.cls-82,.cls-83,.cls-84,.cls-85,.cls-86,.cls-87,.cls-88,.cls-89,.cls-9,.cls-90{stroke-miterlimit:10;}.cls-10{fill:#b6c344;}.cls-11{fill:url(#Unbenannter_Verlauf_6);}.cls-12{fill:#81d4dc;}.cls-13,.cls-14{fill:#1d1e1c;}.cls-13{opacity:0.05;}.cls-14,.cls-28{opacity:0.1;}.cls-15{fill:#7dacb9;}.cls-16{fill:#9cd5e4;}.cls-116,.cls-17{stroke:#000;stroke-linejoin:round;}.cls-17{stroke-width:0.57px;}.cls-100,.cls-112,.cls-117,.cls-18,.cls-91{fill:#fff;}.cls-18{opacity:0.4;}.cls-19{fill:#ffd301;}.cls-20{fill:#15b0bf;}.cls-21{fill:#f2902a;}.cls-100,.cls-112,.cls-22{opacity:0.3;}.cls-23{stroke:#4e4d4d;stroke-width:0.9px;}.cls-24{fill:#4e4d4d;}.cls-25{fill:#2c5871;}.cls-26{fill:#39728b;}.cls-27{opacity:0.5;}.cls-29{fill:#6aa0a9;}.cls-30{fill:#402415;}.cls-31,.cls-75{stroke:#f0a06a;}.cls-31,.cls-32,.cls-33{stroke-width:6.48px;}.cls-104,.cls-105,.cls-32,.cls-33,.cls-44,.cls-45,.cls-50,.cls-51,.cls-58,.cls-59,.cls-66,.cls-67,.cls-76,.cls-77,.cls-83,.cls-84{stroke:#1d1e1c;}.cls-34{fill:#dd9362;}.cls-35,.cls-40,.cls-52{opacity:0.2;}.cls-36{stroke:#c1d44e;}.cls-36,.cls-37,.cls-38{stroke-width:4.63px;}.cls-107,.cls-108,.cls-37,.cls-38,.cls-47,.cls-48,.cls-55,.cls-56,.cls-61,.cls-64,.cls-69,.cls-70,.cls-79,.cls-80,.cls-87,.cls-90{stroke:#ef9f69;}.cls-39{fill:#ef9f69;}.cls-40{fill:#222323;}.cls-41{fill:#413127;}.cls-42{fill:#7b5122;}.cls-114,.cls-43,.cls-49,.cls-65{stroke:#676767;}.cls-43,.cls-44,.cls-45{stroke-width:3.18px;}.cls-103,.cls-106,.cls-46,.cls-60,.cls-78,.cls-85{stroke:#2c5871;}.cls-46,.cls-47,.cls-48{stroke-width:2.27px;}.cls-49,.cls-50,.cls-51{stroke-width:3.55px;}.cls-53{fill:#736358;}.cls-54,.cls-68{stroke:#b3b3b2;}.cls-54,.cls-55,.cls-56{stroke-width:2.54px;}.cls-57{stroke:#234959;}.cls-57,.cls-58,.cls-59,.cls-60{stroke-width:3.04px;}.cls-61,.cls-62,.cls-63,.cls-64{stroke-width:2.17px;}.cls-62,.cls-63,.cls-88,.cls-89{stroke:#fff;}.cls-65,.cls-66,.cls-67{stroke-width:7.13px;}.cls-68,.cls-69,.cls-70{stroke-width:5.09px;}.cls-71{fill:#6f491e;}.cls-72{fill:#7b5222;}.cls-73{fill:#dc9161;}.cls-74{fill:#ef9e69;}.cls-75,.cls-76,.cls-77{stroke-width:2.57px;}.cls-78,.cls-79,.cls-80,.cls-81{stroke-width:1.83px;}.cls-119,.cls-81{fill:#ef9f6a;stroke:#ef9f6a;}.cls-82{stroke:#dd9362;}.cls-82,.cls-83,.cls-84,.cls-85,.cls-86{stroke-width:2.53px;}.cls-86{stroke:#eea37b;}.cls-87,.cls-88,.cls-89,.cls-90{stroke-width:1.81px;}.cls-92{fill:#f1f1f1;}.cls-93{fill:#cccbcb;}.cls-94{fill:#878788;}.cls-95{fill:#b3b3b2;}.cls-96{fill:gray;}.cls-97{fill:#da242f;}.cls-98{fill:#251e21;}.cls-99{clip-path:url(#clip-path);}.cls-100{fill-rule:evenodd;}.cls-101{clip-path:url(#clip-path-2);}.cls-102{clip-path:url(#clip-path-3);}.cls-103,.cls-104,.cls-105,.cls-114{stroke-width:13.1px;}.cls-106,.cls-107,.cls-108,.cls-115{stroke-width:9.36px;}.cls-109{fill:#1a3842;}.cls-110{fill:#244959;}.cls-111{mix-blend-mode:screen;}.cls-113{fill:#0b2f46;}.cls-115{stroke:#989898;}.cls-117{font-size:12px;font-family:HurmeGeometricSans3-SemiBold, "Hurme Geometric Sans 3";font-weight:600;}.cls-118{letter-spacing:-0.04em;}.cls-120{fill:#869337;}.cls-121{fill:#1a3849;}.cls-122{fill:#1879a8;}.cls-123{fill:#5d5d5f;}.cls-124{fill:#626c70;}.cls-125{fill:#758280;}</style><linearGradient id="Unbenannter_Verlauf_6" x1="781.04" y1="222.15" x2="781.04" y2="336.19" gradientUnits="userSpaceOnUse"><stop offset="0" stop-color="#fff" stop-opacity="0.2"/><stop offset="1" stop-color="#fff" stop-opacity="0"/></linearGradient><clipPath id="clip-path"><rect class="cls-1" x="0.21" y="66.96" width="257.95" height="192.02"/></clipPath><clipPath id="clip-path-2"><rect class="cls-1" x="606.53" y="1.39" width="673.47" height="316.48"/></clipPath><clipPath id="clip-path-3"><rect class="cls-1" x="-800.81" y="-114.53" width="673.47" height="316.48"/></clipPath></defs><g class="cls-2"><g id="bg"><rect class="cls-3" width="1280" height="700"/><rect class="cls-4" y="350" width="1280" height="350"/></g><g id="landschaft"><polygon class="cls-5" points="1280 349.96 596.02 349.96 775.88 316.44 833.03 330.74 1033.25 296.19 1206.83 318.32 1280 289.3 1280 349.96"/><polygon class="cls-6" points="1256.58 299.74 1265.94 278.5 1275.3 299.74 1256.58 299.74"/><polygon class="cls-7" points="1249.89 304.24 1257.42 287.91 1264.94 304.24 1249.89 304.24"/><polygon class="cls-5" points="687.45 350 0 350 0 329.93 176.63 302.07 687.45 350"/><g id="baume"><polygon class="cls-6" points="41.94 310.05 34.87 328.92 49.01 328.92 41.94 310.05"/></g><polygon class="cls-7" points="489.93 321.41 484.22 336.62 495.63 336.62 489.93 321.41"/><polygon class="cls-6" points="481.94 319.05 473.48 341.62 490.41 341.62 481.94 319.05"/><polygon class="cls-7" points="334.91 300.89 326.1 324.4 343.73 324.4 334.91 300.89"/><polygon class="cls-7" points="1159.03 312.75 1153.32 327.97 1164.73 327.97 1159.03 312.75"/><polygon class="cls-6" points="1151.11 301.35 1142.65 323.93 1159.58 323.93 1151.11 301.35"/><ellipse class="cls-8" cx="782.68" cy="322" rx="11.37" ry="11.62"/><line class="cls-9" x1="782.58" y1="322.81" x2="777.11" y2="317.61"/><line class="cls-9" x1="789.31" y1="319.49" x2="782.68" y2="327.69"/><line class="cls-9" x1="782.68" y1="350" x2="782.68" y2="317.32"/><ellipse class="cls-10" cx="1187.53" cy="322" rx="11.37" ry="11.62"/><line class="cls-9" x1="1187.64" y1="322.81" x2="1193.1" y2="317.61"/><line class="cls-9" x1="1180.91" y1="319.49" x2="1187.53" y2="327.69"/><line class="cls-9" x1="1187.53" y1="350" x2="1187.53" y2="317.32"/><ellipse class="cls-8" cx="1171.95" cy="327.95" rx="8.96" ry="9.15"/><line class="cls-9" x1="1171.87" y1="328.59" x2="1167.57" y2="324.5"/><line class="cls-9" x1="1177.17" y1="325.98" x2="1171.95" y2="330.54"/><line class="cls-9" x1="1171.95" y1="350" x2="1171.95" y2="324.27"/></g><g id="ad_ons" data-name="ad ons"><rect class="cls-11" x="726.88" y="237.44" width="108.32" height="86.72"/><rect class="cls-12" x="726.88" y="183.62" width="108.32" height="53.82"/><rect class="cls-13" x="730.07" y="186.81" width="101.94" height="47.44"/><path class="cls-14" d="M830.74,188.09V233H731.35V188.09h99.39m1.27-1.28H730.07v47.44H832V186.81Z"/><path class="cls-15" d="M781.34,190.55a1.7,1.7,0,0,0-1.69,1.7v37.13a1.7,1.7,0,1,0,3.39,0V192.25a1.7,1.7,0,0,0-1.7-1.7Z"/><path class="cls-15" d="M772.9,190.55a1.7,1.7,0,0,0-1.7,1.7v37.13a1.7,1.7,0,1,0,3.39,0V192.25a1.7,1.7,0,0,0-1.69-1.7Z"/><path class="cls-15" d="M764.48,190.55a1.7,1.7,0,0,0-1.69,1.7v37.13a1.7,1.7,0,1,0,3.39,0V192.25a1.75,1.75,0,0,0-1.7-1.7Z"/><path class="cls-15" d="M756,190.55a1.7,1.7,0,0,0-1.7,1.7v37.13a1.7,1.7,0,1,0,3.39,0V192.25a1.72,1.72,0,0,0-1.69-1.7Z"/><path class="cls-15" d="M815.12,190.55a1.7,1.7,0,0,0-1.7,1.7v37.13a1.7,1.7,0,1,0,3.39,0V192.25a1.74,1.74,0,0,0-1.69-1.7Z"/><path class="cls-15" d="M823.53,190.55a1.7,1.7,0,0,0-1.69,1.7v37.13a1.7,1.7,0,1,0,3.39,0V192.25a1.7,1.7,0,0,0-1.7-1.7Z"/><path class="cls-15" d="M747.59,190.55a1.7,1.7,0,0,0-1.69,1.7v37.13a1.7,1.7,0,1,0,3.39,0V192.25a1.72,1.72,0,0,0-1.7-1.7Z"/><path class="cls-15" d="M739.15,190.55a1.7,1.7,0,0,0-1.7,1.7v37.13a1.7,1.7,0,1,0,3.39,0V192.25a1.7,1.7,0,0,0-1.69-1.7Z"/><path class="cls-15" d="M806.67,190.55a1.7,1.7,0,0,0-1.69,1.7v37.13a1.7,1.7,0,1,0,3.39,0V192.25a1.72,1.72,0,0,0-1.7-1.7Z"/><path class="cls-15" d="M798.23,190.55a1.7,1.7,0,0,0-1.7,1.7v37.13a1.7,1.7,0,1,0,3.39,0V192.25a1.72,1.72,0,0,0-1.69-1.7Z"/><path class="cls-15" d="M789.78,190.55a1.7,1.7,0,0,0-1.69,1.7v37.13a1.7,1.7,0,1,0,3.39,0V192.25a1.72,1.72,0,0,0-1.7-1.7Z"/><path class="cls-16" d="M781,190.26a1.69,1.69,0,0,0-1.69,1.69v37.14a1.7,1.7,0,0,0,3.39,0V192a1.7,1.7,0,0,0-1.7-1.69Z"/><path class="cls-16" d="M772.6,190.26a1.7,1.7,0,0,0-1.7,1.69v37.14a1.7,1.7,0,0,0,3.39,0V192a1.69,1.69,0,0,0-1.69-1.69Z"/><path class="cls-16" d="M764.18,190.26a1.69,1.69,0,0,0-1.69,1.69v37.14a1.7,1.7,0,0,0,3.39,0V192a1.73,1.73,0,0,0-1.7-1.69Z"/><path class="cls-16" d="M755.74,190.26a1.69,1.69,0,0,0-1.69,1.69v37.14a1.7,1.7,0,0,0,3.39,0V192a1.72,1.72,0,0,0-1.7-1.69Z"/><path class="cls-16" d="M814.82,190.26a1.69,1.69,0,0,0-1.69,1.69v37.14a1.69,1.69,0,1,0,3.38,0V192a1.73,1.73,0,0,0-1.69-1.69Z"/><path class="cls-16" d="M823.23,190.26a1.69,1.69,0,0,0-1.69,1.69v37.14a1.7,1.7,0,0,0,3.39,0V192a1.69,1.69,0,0,0-1.7-1.69Z"/><path class="cls-16" d="M747.3,190.26a1.69,1.69,0,0,0-1.7,1.69v37.14a1.7,1.7,0,0,0,3.39,0V192a1.71,1.71,0,0,0-1.69-1.69Z"/><path class="cls-16" d="M738.85,190.26a1.69,1.69,0,0,0-1.69,1.69v37.14a1.7,1.7,0,0,0,3.39,0V192a1.7,1.7,0,0,0-1.7-1.69Z"/><path class="cls-16" d="M806.38,190.26a1.69,1.69,0,0,0-1.7,1.69v37.14a1.7,1.7,0,0,0,3.39,0V192a1.71,1.71,0,0,0-1.69-1.69Z"/><path class="cls-16" d="M797.93,190.26a1.69,1.69,0,0,0-1.69,1.69v37.14a1.7,1.7,0,0,0,3.39,0V192a1.72,1.72,0,0,0-1.7-1.69Z"/><path class="cls-16" d="M789.49,190.26a1.7,1.7,0,0,0-1.7,1.69v37.14a1.7,1.7,0,0,0,1.7,1.69,1.67,1.67,0,0,0,1.69-1.69V192a1.71,1.71,0,0,0-1.69-1.69Z"/><path class="cls-17" d="M736,179.16a1.46,1.46,0,1,1,1.45,1.45v.72"/><path class="cls-8" d="M763.74,111.69a13.86,13.86,0,1,1-13.86-13.86A13.86,13.86,0,0,1,763.74,111.69Z"/><path class="cls-18" d="M749.26,104.7a4.33,4.33,0,1,1-4.33-4.34A4.33,4.33,0,0,1,749.26,104.7Z"/><polygon class="cls-8" points="752.91 128.69 746.23 128.69 748.46 124.57 750.68 124.57 752.91 128.69"/><path d="M752.17,125.88a.5.5,0,0,1-.5.5h-4.11a.51.51,0,0,1-.5-.5h0a.5.5,0,0,1,.5-.5h4.11a.5.5,0,0,1,.5.5Z"/><line class="cls-17" x1="749.57" y1="126.38" x2="737.47" y2="177.7"/><path class="cls-4" d="M735.2,105.59a13.86,13.86,0,1,1-13.86-13.86A13.85,13.85,0,0,1,735.2,105.59Z"/><path class="cls-18" d="M720.72,98.6a4.33,4.33,0,1,1-4.33-4.34A4.33,4.33,0,0,1,720.72,98.6Z"/><polygon class="cls-4" points="724.37 122.59 717.69 122.59 719.92 118.47 722.14 118.47 724.37 122.59"/><path d="M723.63,119.78a.5.5,0,0,1-.5.5H719a.51.51,0,0,1-.5-.5h0a.5.5,0,0,1,.5-.5h4.11a.5.5,0,0,1,.5.5Z"/><line class="cls-17" x1="721.03" y1="120.28" x2="737.47" y2="178.83"/><path class="cls-19" d="M752.56,139.73a15.25,15.25,0,1,1-15.25-15.25A15.25,15.25,0,0,1,752.56,139.73Z"/><path class="cls-18" d="M736.63,132a4.77,4.77,0,1,1-4.77-4.77A4.77,4.77,0,0,1,736.63,132Z"/><polygon class="cls-19" points="740.64 158.44 733.29 158.44 735.74 153.91 738.19 153.91 740.64 158.44"/><path d="M739.83,155.34a.55.55,0,0,1-.55.55h-4.52a.55.55,0,0,1-.55-.55h0a.55.55,0,0,1,.55-.55h4.52a.55.55,0,0,1,.55.55Z"/><line class="cls-17" x1="736.97" y1="155.89" x2="736.97" y2="177.7"/><path class="cls-17" d="M817.71,179.16a1.46,1.46,0,1,1,1.45,1.45v.72"/><path class="cls-19" d="M832.81,112.67A13.86,13.86,0,1,1,819,98.81,13.85,13.85,0,0,1,832.81,112.67Z"/><path class="cls-18" d="M818.33,105.68a4.33,4.33,0,1,1-4.33-4.34A4.33,4.33,0,0,1,818.33,105.68Z"/><polygon class="cls-19" points="821.98 129.68 815.3 129.68 817.53 125.56 819.75 125.56 821.98 129.68"/><path d="M821.24,126.86a.5.5,0,0,1-.5.5h-4.11a.5.5,0,0,1-.5-.5h0a.51.51,0,0,1,.5-.5h4.11a.5.5,0,0,1,.5.5Z"/><line class="cls-17" x1="818.64" y1="127.36" x2="818.64" y2="179.52"/><path class="cls-20" d="M841.42,136a13.86,13.86,0,1,1-13.86-13.86A13.85,13.85,0,0,1,841.42,136Z"/><path class="cls-18" d="M826.94,129a4.33,4.33,0,1,1-4.33-4.33A4.33,4.33,0,0,1,826.94,129Z"/><polygon class="cls-20" points="830.59 152.96 823.91 152.96 826.14 148.84 828.37 148.84 830.59 152.96"/><path d="M829.85,150.14a.5.5,0,0,1-.5.5h-4.11a.5.5,0,0,1-.5-.5h0a.51.51,0,0,1,.5-.5h4.11a.5.5,0,0,1,.5.5Z"/><line class="cls-17" x1="827.25" y1="150.64" x2="817.71" y2="180.69"/><path class="cls-21" d="M818.58,129.09a13.87,13.87,0,1,1-13.87-13.87A13.87,13.87,0,0,1,818.58,129.09Z"/><path class="cls-18" d="M804.1,122.09a4.34,4.34,0,1,1-4.34-4.33A4.34,4.34,0,0,1,804.1,122.09Z"/><polygon class="cls-21" points="807.75 146.09 801.06 146.09 803.29 141.97 805.52 141.97 807.75 146.09"/><path d="M807,143.28a.5.5,0,0,1-.49.5H802.4a.5.5,0,0,1-.5-.5h0a.5.5,0,0,1,.5-.5h4.11a.49.49,0,0,1,.49.5Z"/><line class="cls-17" x1="804.4" y1="143.78" x2="819.47" y2="178.83"/></g><g id="kran"><polygon class="cls-22" points="1168.59 405.76 1143.92 405.76 1143.92 398.35 1168.59 405.76"/><g id="kran_haken"><polyline class="cls-23" points="940.86 270.26 991.5 252.84 1042.25 270.26"/><rect class="cls-23" x="987.88" y="201.93" width="8.04" height="32.89"/><polygon class="cls-19" points="986.06 234.15 997.74 234.15 991.91 243.06 986.06 234.15"/><path class="cls-23" d="M996.19,249.48a4.29,4.29,0,1,1-4.29-4.3v-2.12"/></g><line class="cls-23" x1="1138.96" y1="223.74" x2="1138.96" y2="372.74"/><line class="cls-23" x1="1118.9" y1="223.74" x2="1118.9" y2="372.74"/><rect class="cls-23" x="1118.9" y="223.74" width="20.06" height="20.06"/><rect class="cls-23" x="1118.9" y="243.8" width="20.06" height="20.06"/><rect class="cls-23" x="1118.9" y="263.86" width="20.06" height="20.06"/><rect class="cls-23" x="1118.9" y="283.93" width="20.06" height="20.06"/><rect class="cls-23" x="1118.9" y="303.99" width="20.06" height="20.06"/><rect class="cls-23" x="1118.9" y="324.05" width="20.06" height="20.06"/><rect class="cls-23" x="1118.9" y="344.11" width="20.06" height="20.06"/><rect class="cls-23" x="1118.9" y="364.17" width="20.06" height="20.06"/><line class="cls-23" x1="1118.9" y1="223.74" x2="1138.96" y2="243.8"/><line class="cls-23" x1="1138.96" y1="243.8" x2="1118.9" y2="263.86"/><line class="cls-23" x1="1118.9" y1="263.86" x2="1138.96" y2="283.93"/><line class="cls-23" x1="1138.96" y1="283.93" x2="1118.9" y2="303.99"/><line class="cls-23" x1="1118.9" y1="303.99" x2="1138.96" y2="324.05"/><line class="cls-23" x1="1138.96" y1="324.05" x2="1118.9" y2="344.11"/><line class="cls-23" x1="1118.9" y1="344.11" x2="1138.96" y2="364.17"/><line class="cls-23" x1="1138.96" y1="364.17" x2="1118.9" y2="384.23"/><path class="cls-24" d="M1152.18,184.93l15.3,16.77h-15.3V184.93m-.9-2.32v20h18.24l-18.24-20Z"/><line class="cls-25" x1="954.12" y1="202.6" x2="1153.81" y2="202.6"/><polygon class="cls-26" points="954.12 182.54 954.12 202.6 1125.18 202.6 1152.24 202.6 1152.24 182.54 954.12 182.54"/><rect class="cls-25" x="1113.59" y="202.55" width="30.33" height="22.13"/><rect class="cls-25" x="1113.59" y="383.64" width="30.33" height="22.13"/></g><g id="containers"><g id="_3" data-name="3"><polygon class="cls-22" points="942.17 405.76 917.5 405.76 917.5 398.35 942.17 405.76"/><rect class="cls-12" x="793.94" y="344.51" width="123.29" height="61.26"/><rect class="cls-13" x="797.57" y="348.14" width="116.03" height="54"/><path class="cls-14" d="M912.15,349.59v51.09H799V349.59H912.15m1.45-1.45h-116v54h116v-54Z"/><path class="cls-15" d="M855.92,352.39a1.93,1.93,0,0,0-1.92,1.93v42.27a1.93,1.93,0,1,0,3.85,0V354.32a1.92,1.92,0,0,0-1.93-1.93Z"/><path class="cls-15" d="M846.31,352.39a1.93,1.93,0,0,0-1.93,1.93v42.27a1.93,1.93,0,0,0,3.86,0V354.32a1.92,1.92,0,0,0-1.93-1.93Z"/><path class="cls-15" d="M836.74,352.39a1.93,1.93,0,0,0-1.93,1.93v42.27a1.93,1.93,0,1,0,3.85,0V354.32a2,2,0,0,0-1.92-1.93Z"/><path class="cls-15" d="M827.12,352.39a1.93,1.93,0,0,0-1.93,1.93v42.27a1.93,1.93,0,0,0,3.86,0V354.32a2,2,0,0,0-1.93-1.93Z"/><path class="cls-15" d="M894.37,352.39a1.93,1.93,0,0,0-1.93,1.93v42.27a1.93,1.93,0,0,0,3.86,0V354.32a2,2,0,0,0-1.93-1.93Z"/><path class="cls-15" d="M904,352.39a1.93,1.93,0,0,0-1.93,1.93v42.27a1.93,1.93,0,1,0,3.86,0V354.32a1.93,1.93,0,0,0-1.93-1.93Z"/><path class="cls-15" d="M817.51,352.39a1.93,1.93,0,0,0-1.93,1.93v42.27a1.93,1.93,0,0,0,3.86,0V354.32a2,2,0,0,0-1.93-1.93Z"/><path class="cls-15" d="M807.9,352.39a1.93,1.93,0,0,0-1.93,1.93v42.27a1.93,1.93,0,0,0,3.86,0V354.32a1.93,1.93,0,0,0-1.93-1.93Z"/><path class="cls-15" d="M884.76,352.39a1.93,1.93,0,0,0-1.93,1.93v42.27a1.93,1.93,0,0,0,3.86,0V354.32a2,2,0,0,0-1.93-1.93Z"/><path class="cls-15" d="M875.15,352.39a1.93,1.93,0,0,0-1.93,1.93v42.27a1.93,1.93,0,0,0,3.86,0V354.32a2,2,0,0,0-1.93-1.93Z"/><path class="cls-15" d="M865.54,352.39a1.93,1.93,0,0,0-1.93,1.93v42.27a1.93,1.93,0,0,0,3.86,0V354.32a2,2,0,0,0-1.93-1.93Z"/><path class="cls-16" d="M855.59,352.06a1.92,1.92,0,0,0-1.93,1.93v42.27a1.93,1.93,0,0,0,3.86,0V354a1.93,1.93,0,0,0-1.93-1.93Z"/><path class="cls-16" d="M846,352.06a1.92,1.92,0,0,0-1.92,1.93v42.27a1.93,1.93,0,0,0,3.85,0V354a1.92,1.92,0,0,0-1.93-1.93Z"/><path class="cls-16" d="M836.4,352.06a1.92,1.92,0,0,0-1.93,1.93v42.27a1.93,1.93,0,0,0,3.86,0V354a2,2,0,0,0-1.93-1.93Z"/><path class="cls-16" d="M826.79,352.06a1.92,1.92,0,0,0-1.93,1.93v42.27a1.93,1.93,0,0,0,3.85,0V354a2,2,0,0,0-1.92-1.93Z"/><path class="cls-16" d="M894,352.06A1.92,1.92,0,0,0,892.1,354v42.27a1.93,1.93,0,0,0,3.86,0V354a2,2,0,0,0-1.93-1.93Z"/><path class="cls-16" d="M903.61,352.06a1.92,1.92,0,0,0-1.93,1.93v42.27a1.93,1.93,0,0,0,3.86,0V354a1.93,1.93,0,0,0-1.93-1.93Z"/><path class="cls-16" d="M817.17,352.06a1.92,1.92,0,0,0-1.93,1.93v42.27a1.93,1.93,0,0,0,3.86,0V354a2,2,0,0,0-1.93-1.93Z"/><path class="cls-16" d="M807.56,352.06a1.92,1.92,0,0,0-1.93,1.93v42.27a1.93,1.93,0,0,0,3.86,0V354a1.92,1.92,0,0,0-1.93-1.93Z"/><path class="cls-16" d="M884.42,352.06a1.92,1.92,0,0,0-1.93,1.93v42.27a1.93,1.93,0,0,0,3.86,0V354a2,2,0,0,0-1.93-1.93Z"/><path class="cls-16" d="M874.81,352.06a1.92,1.92,0,0,0-1.93,1.93v42.27a1.93,1.93,0,0,0,3.86,0V354a2,2,0,0,0-1.93-1.93Z"/><path class="cls-16" d="M865.2,352.06a1.92,1.92,0,0,0-1.93,1.93v42.27a1.93,1.93,0,0,0,3.86,0V354a2,2,0,0,0-1.93-1.93Z"/><rect class="cls-26" x="793.78" y="403.97" width="123.29" height="1.8"/><g class="cls-27"><path d="M881,388.72a4.94,4.94,0,0,1,1.58.22,3,3,0,0,1,1.11.6,2.29,2.29,0,0,1,.64.92,3.13,3.13,0,0,1,.21,1.17,3.18,3.18,0,0,1-.22,1.21,2.4,2.4,0,0,1-.66,1,3.16,3.16,0,0,1-1.1.62,5.2,5.2,0,0,1-1.56.22H879.7v3.2H878v-9.11Zm0,4.58a2.86,2.86,0,0,0,.82-.11,1.47,1.47,0,0,0,.57-.34,1.3,1.3,0,0,0,.35-.53,2.12,2.12,0,0,0,.11-.69,1.9,1.9,0,0,0-.11-.66,1.39,1.39,0,0,0-.34-.51,1.71,1.71,0,0,0-.58-.32A2.81,2.81,0,0,0,881,390H879.7v3.27Z"/><path d="M891,396.43v1.4h-5.34v-9.11h1.7v7.71Z"/><path d="M900.4,397.83h-1.31a.52.52,0,0,1-.36-.11.71.71,0,0,1-.21-.27l-.68-1.86h-3.77l-.68,1.86a.59.59,0,0,1-.2.26.52.52,0,0,1-.36.12h-1.32l3.59-9.11h1.72Zm-3-3.44-1.11-3c0-.13-.11-.29-.17-.48s-.12-.38-.18-.59c-.05.21-.11.41-.17.6s-.11.35-.17.49l-1.1,3Z"/><path d="M909,388.72v9.11h-.87a.86.86,0,0,1-.34-.06.9.9,0,0,1-.26-.23l-4.75-6.07c0,.28,0,.53,0,.77v5.59h-1.49v-9.11h1.07l.14,0,.12.08.13.14,4.77,6.1,0-.43c0-.15,0-.28,0-.4v-5.54Z"/></g><polygon class="cls-14" points="851.58 405.76 832.03 344.51 917.25 344.51 917.25 405.76 851.58 405.76"/></g><g id="_2" data-name="2"><polygon class="cls-22" points="1104.98 405.76 1080.31 405.76 1080.31 398.35 1104.98 405.76"/><rect class="cls-12" x="956.72" y="344.51" width="123.29" height="61.26"/><rect class="cls-26" x="956.72" y="403.97" width="123.29" height="1.8"/><rect class="cls-13" x="960.35" y="348.14" width="116.03" height="54"/><path class="cls-14" d="M1074.93,349.59v51.09H961.8V349.59h113.13m1.45-1.45h-116v54h116v-54Z"/><path class="cls-15" d="M1018.7,352.39a1.93,1.93,0,0,0-1.93,1.93v42.27a1.93,1.93,0,1,0,3.86,0V354.32a1.92,1.92,0,0,0-1.93-1.93Z"/><path class="cls-15" d="M1009.09,352.39a1.93,1.93,0,0,0-1.93,1.93v42.27a1.93,1.93,0,1,0,3.86,0V354.32a1.93,1.93,0,0,0-1.93-1.93Z"/><path class="cls-15" d="M999.51,352.39a1.92,1.92,0,0,0-1.92,1.93v42.27a1.93,1.93,0,1,0,3.85,0V354.32a2,2,0,0,0-1.93-1.93Z"/><path class="cls-15" d="M989.9,352.39a1.93,1.93,0,0,0-1.93,1.93v42.27a1.93,1.93,0,0,0,3.86,0V354.32a2,2,0,0,0-1.93-1.93Z"/><path class="cls-15" d="M1057.15,352.39a1.93,1.93,0,0,0-1.93,1.93v42.27a1.93,1.93,0,1,0,3.86,0V354.32a2,2,0,0,0-1.93-1.93Z"/><path class="cls-15" d="M1066.73,352.39a1.93,1.93,0,0,0-1.93,1.93v42.27a1.93,1.93,0,0,0,3.86,0V354.32a1.93,1.93,0,0,0-1.93-1.93Z"/><path class="cls-15" d="M980.29,352.39a1.93,1.93,0,0,0-1.93,1.93v42.27a1.93,1.93,0,0,0,3.86,0V354.32a2,2,0,0,0-1.93-1.93Z"/><path class="cls-15" d="M970.68,352.39a1.93,1.93,0,0,0-1.93,1.93v42.27a1.93,1.93,0,0,0,3.86,0V354.32a1.93,1.93,0,0,0-1.93-1.93Z"/><path class="cls-15" d="M1047.54,352.39a1.93,1.93,0,0,0-1.93,1.93v42.27a1.93,1.93,0,0,0,3.86,0V354.32a2,2,0,0,0-1.93-1.93Z"/><path class="cls-15" d="M1037.93,352.39a1.93,1.93,0,0,0-1.93,1.93v42.27a1.93,1.93,0,1,0,3.86,0V354.32a2,2,0,0,0-1.93-1.93Z"/><path class="cls-15" d="M1028.31,352.39a1.93,1.93,0,0,0-1.92,1.93v42.27a1.92,1.92,0,0,0,1.92,1.93,1.9,1.9,0,0,0,1.93-1.93V354.32a2,2,0,0,0-1.93-1.93Z"/><path class="cls-16" d="M1018.36,352.06a1.92,1.92,0,0,0-1.92,1.93v42.27a1.93,1.93,0,0,0,3.85,0V354a1.92,1.92,0,0,0-1.93-1.93Z"/><path class="cls-16" d="M1008.75,352.06a1.92,1.92,0,0,0-1.93,1.93v42.27a1.93,1.93,0,0,0,3.86,0V354a1.92,1.92,0,0,0-1.93-1.93Z"/><path class="cls-16" d="M999.18,352.06a1.92,1.92,0,0,0-1.93,1.93v42.27a1.93,1.93,0,0,0,3.85,0V354a2,2,0,0,0-1.92-1.93Z"/><path class="cls-16" d="M989.56,352.06a1.92,1.92,0,0,0-1.92,1.93v42.27a1.93,1.93,0,0,0,3.85,0V354a2,2,0,0,0-1.93-1.93Z"/><path class="cls-16" d="M1056.81,352.06a1.92,1.92,0,0,0-1.93,1.93v42.27a1.93,1.93,0,0,0,3.86,0V354a2,2,0,0,0-1.93-1.93Z"/><path class="cls-16" d="M1066.39,352.06a1.92,1.92,0,0,0-1.93,1.93v42.27a1.93,1.93,0,0,0,3.86,0V354a1.93,1.93,0,0,0-1.93-1.93Z"/><path class="cls-16" d="M980,352.06A1.92,1.92,0,0,0,978,354v42.27a1.93,1.93,0,0,0,3.86,0V354a2,2,0,0,0-1.93-1.93Z"/><path class="cls-16" d="M970.34,352.06a1.92,1.92,0,0,0-1.93,1.93v42.27a1.93,1.93,0,0,0,3.86,0V354a1.93,1.93,0,0,0-1.93-1.93Z"/><path class="cls-16" d="M1047.2,352.06a1.92,1.92,0,0,0-1.93,1.93v42.27a1.93,1.93,0,0,0,3.86,0V354a2,2,0,0,0-1.93-1.93Z"/><path class="cls-16" d="M1037.59,352.06a1.92,1.92,0,0,0-1.93,1.93v42.27a1.93,1.93,0,0,0,3.86,0V354a2,2,0,0,0-1.93-1.93Z"/><path class="cls-16" d="M1028,352.06a1.92,1.92,0,0,0-1.93,1.93v42.27a1.93,1.93,0,0,0,3.86,0V354a2,2,0,0,0-1.93-1.93Z"/><polygon class="cls-14" points="957.18 348.14 976.73 405.76 957.18 405.76 957.18 348.14"/><g class="cls-27"><path d="M1025.88,393.28a5.07,5.07,0,0,1-.33,1.85,4.3,4.3,0,0,1-.94,1.48,4.15,4.15,0,0,1-1.45,1,5.28,5.28,0,0,1-3.78,0,4.15,4.15,0,0,1-1.45-1,4.48,4.48,0,0,1-.95-1.48,5.07,5.07,0,0,1-.33-1.85,5.12,5.12,0,0,1,.33-1.86,4.48,4.48,0,0,1,.95-1.48,4.3,4.3,0,0,1,1.45-1,5,5,0,0,1,1.89-.35,5.45,5.45,0,0,1,1.3.16,4.47,4.47,0,0,1,1.12.46,4,4,0,0,1,.92.71,4.49,4.49,0,0,1,.69.93,4.64,4.64,0,0,1,.43,1.13A5.2,5.2,0,0,1,1025.88,393.28Zm-1.73,0a4.35,4.35,0,0,0-.2-1.35,3,3,0,0,0-.58-1,2.37,2.37,0,0,0-.9-.63,3.09,3.09,0,0,0-1.2-.23,3,3,0,0,0-1.2.23,2.33,2.33,0,0,0-.91.63,3,3,0,0,0-.58,1,4.35,4.35,0,0,0-.2,1.35,4.24,4.24,0,0,0,.2,1.34,2.85,2.85,0,0,0,.58,1,2.33,2.33,0,0,0,.91.63,3,3,0,0,0,1.2.22,3.09,3.09,0,0,0,1.2-.22,2.37,2.37,0,0,0,.9-.63,2.85,2.85,0,0,0,.58-1A4.24,4.24,0,0,0,1024.15,393.28Z"/><path d="M1030.33,388.72a4.94,4.94,0,0,1,1.58.22,3,3,0,0,1,1.11.6,2.29,2.29,0,0,1,.64.92,3.13,3.13,0,0,1,.21,1.17,3.18,3.18,0,0,1-.22,1.21,2.4,2.4,0,0,1-.66,1,3.16,3.16,0,0,1-1.1.62,5.2,5.2,0,0,1-1.56.22h-1.26v3.2h-1.7v-9.11Zm0,4.58a2.91,2.91,0,0,0,.82-.11,1.47,1.47,0,0,0,.57-.34,1.3,1.3,0,0,0,.35-.53,2.12,2.12,0,0,0,.11-.69,1.9,1.9,0,0,0-.11-.66,1.39,1.39,0,0,0-.34-.51,1.71,1.71,0,0,0-.58-.32,2.81,2.81,0,0,0-.82-.11h-1.26v3.27Z"/><path d="M1036.72,390.07v2.53h3.19v1.3h-3.19v2.58h4v1.35H1035v-9.11h5.75v1.35Z"/><path d="M1049.32,397.83h-1.53a.67.67,0,0,1-.63-.34l-1.92-2.91a.76.76,0,0,0-.23-.24,1,1,0,0,0-.39-.07h-.72v3.56h-1.69v-9.11H1045a6.07,6.07,0,0,1,1.59.19,3,3,0,0,1,1.09.54,2,2,0,0,1,.63.83,2.63,2.63,0,0,1,.2,1.06,2.73,2.73,0,0,1-.13.87,2.55,2.55,0,0,1-.39.75,2.7,2.7,0,0,1-.63.58,3.24,3.24,0,0,1-.86.4,2.18,2.18,0,0,1,.31.22,2,2,0,0,1,.25.31Zm-4.36-4.77a2.55,2.55,0,0,0,.83-.12,1.6,1.6,0,0,0,.59-.33,1.31,1.31,0,0,0,.34-.5,1.69,1.69,0,0,0,.12-.64,1.29,1.29,0,0,0-.46-1.06,2.19,2.19,0,0,0-1.4-.38h-1.08v3Z"/><path d="M1058.63,397.83h-1.31a.52.52,0,0,1-.36-.11.71.71,0,0,1-.21-.27l-.68-1.86h-3.77l-.68,1.86a.68.68,0,0,1-.2.26.56.56,0,0,1-.36.12h-1.32l3.58-9.11h1.73Zm-3-3.44-1.11-3a4.29,4.29,0,0,1-.17-.48c-.06-.18-.12-.38-.18-.59,0,.21-.11.41-.17.6l-.17.49-1.1,3Z"/><path d="M1065,390.12h-2.75v7.71h-1.69v-7.71h-2.75v-1.4H1065Z"/><path d="M1067.72,390.07v2.53h3.19v1.3h-3.19v2.58h4v1.35H1066v-9.11h5.75v1.35Z"/></g></g><polygon class="cls-28" points="416.31 408.42 391.64 408.42 391.64 401 416.31 408.42"/><g id="kran_container" data-name="1"><rect class="cls-12" x="929.91" y="269.25" width="123.29" height="61.26"/><rect class="cls-13" x="933.54" y="272.88" width="116.03" height="54"/><path class="cls-14" d="M1048.12,274.33v51.1H935v-51.1h113.13m1.45-1.45h-116v54h116v-54Z"/><path class="cls-15" d="M991.9,277.14a1.92,1.92,0,0,0-1.93,1.93v42.27a1.93,1.93,0,0,0,3.86,0V279.07a1.93,1.93,0,0,0-1.93-1.93Z"/><path class="cls-15" d="M982.29,277.14a1.92,1.92,0,0,0-1.93,1.93v42.27a1.93,1.93,0,1,0,3.85,0V279.07a1.92,1.92,0,0,0-1.92-1.93Z"/><path class="cls-15" d="M972.71,277.14a1.92,1.92,0,0,0-1.93,1.93v42.27a1.93,1.93,0,1,0,3.86,0V279.07a2,2,0,0,0-1.93-1.93Z"/><path class="cls-15" d="M963.1,277.14a1.92,1.92,0,0,0-1.93,1.93v42.27a1.93,1.93,0,1,0,3.86,0V279.07a2,2,0,0,0-1.93-1.93Z"/><path class="cls-15" d="M1030.34,277.14a1.92,1.92,0,0,0-1.93,1.93v42.27a1.93,1.93,0,0,0,3.86,0V279.07a2,2,0,0,0-1.93-1.93Z"/><path class="cls-15" d="M1039.92,277.14a1.92,1.92,0,0,0-1.93,1.93v42.27a1.93,1.93,0,1,0,3.86,0V279.07a1.93,1.93,0,0,0-1.93-1.93Z"/><path class="cls-15" d="M953.49,277.14a1.92,1.92,0,0,0-1.93,1.93v42.27a1.93,1.93,0,1,0,3.85,0V279.07a2,2,0,0,0-1.92-1.93Z"/><path class="cls-15" d="M943.87,277.14a1.92,1.92,0,0,0-1.93,1.93v42.27a1.93,1.93,0,1,0,3.86,0V279.07a1.92,1.92,0,0,0-1.93-1.93Z"/><path class="cls-15" d="M1020.73,277.14a1.92,1.92,0,0,0-1.93,1.93v42.27a1.93,1.93,0,1,0,3.86,0V279.07a2,2,0,0,0-1.93-1.93Z"/><path class="cls-15" d="M1011.12,277.14a1.92,1.92,0,0,0-1.93,1.93v42.27a1.93,1.93,0,0,0,3.86,0V279.07a2,2,0,0,0-1.93-1.93Z"/><path class="cls-15" d="M1001.51,277.14a1.92,1.92,0,0,0-1.93,1.93v42.27a1.93,1.93,0,0,0,3.86,0V279.07a2,2,0,0,0-1.93-1.93Z"/><path class="cls-16" d="M991.56,276.8a1.93,1.93,0,0,0-1.93,1.93V321a1.93,1.93,0,0,0,3.86,0V278.73a1.93,1.93,0,0,0-1.93-1.93Z"/><path class="cls-16" d="M982,276.8a1.93,1.93,0,0,0-1.93,1.93V321a1.93,1.93,0,1,0,3.86,0V278.73A1.93,1.93,0,0,0,982,276.8Z"/><path class="cls-16" d="M972.37,276.8a1.93,1.93,0,0,0-1.93,1.93V321a1.93,1.93,0,1,0,3.86,0V278.73a2,2,0,0,0-1.93-1.93Z"/><path class="cls-16" d="M962.76,276.8a1.93,1.93,0,0,0-1.93,1.93V321a1.93,1.93,0,0,0,3.86,0V278.73a2,2,0,0,0-1.93-1.93Z"/><path class="cls-16" d="M1030,276.8a1.93,1.93,0,0,0-1.92,1.93V321a1.93,1.93,0,1,0,3.85,0V278.73a2,2,0,0,0-1.93-1.93Z"/><path class="cls-16" d="M1039.58,276.8a1.93,1.93,0,0,0-1.93,1.93V321a1.93,1.93,0,0,0,3.86,0V278.73a1.92,1.92,0,0,0-1.93-1.93Z"/><path class="cls-16" d="M953.15,276.8a1.93,1.93,0,0,0-1.93,1.93V321a1.93,1.93,0,0,0,3.86,0V278.73a2,2,0,0,0-1.93-1.93Z"/><path class="cls-16" d="M943.54,276.8a1.93,1.93,0,0,0-1.93,1.93V321a1.93,1.93,0,1,0,3.85,0V278.73a1.92,1.92,0,0,0-1.92-1.93Z"/><path class="cls-16" d="M1020.39,276.8a1.93,1.93,0,0,0-1.93,1.93V321a1.93,1.93,0,0,0,3.86,0V278.73a2,2,0,0,0-1.93-1.93Z"/><path class="cls-16" d="M1010.78,276.8a1.93,1.93,0,0,0-1.93,1.93V321a1.93,1.93,0,0,0,3.86,0V278.73a2,2,0,0,0-1.93-1.93Z"/><path class="cls-16" d="M1001.17,276.8a1.93,1.93,0,0,0-1.93,1.93V321a1.93,1.93,0,0,0,3.86,0V278.73a2,2,0,0,0-1.93-1.93Z"/><g class="cls-27"><path d="M1013.42,313.47a5.67,5.67,0,0,1,1.53.17,2.84,2.84,0,0,1,1,.48,1.87,1.87,0,0,1,.59.76,2.53,2.53,0,0,1,.19,1,2.11,2.11,0,0,1-.09.62,1.81,1.81,0,0,1-.3.54,2.26,2.26,0,0,1-.5.47,3.1,3.1,0,0,1-.73.35c1.25.28,1.88,1,1.88,2a2.69,2.69,0,0,1-.22,1.07,2.42,2.42,0,0,1-.64.85,3.22,3.22,0,0,1-1,.55,4.44,4.44,0,0,1-1.41.21h-3.44v-9.11Zm-1.44,1.31v2.63h1.35a2.24,2.24,0,0,0,1.31-.31,1.15,1.15,0,0,0,.45-1,1.18,1.18,0,0,0-.41-1,2.13,2.13,0,0,0-1.26-.3Zm1.71,6.47a2.62,2.62,0,0,0,.8-.11,1.56,1.56,0,0,0,.51-.3,1.22,1.22,0,0,0,.28-.44,1.91,1.91,0,0,0,.08-.54,1.47,1.47,0,0,0-.09-.53.9.9,0,0,0-.3-.4,1.27,1.27,0,0,0-.52-.26,2.78,2.78,0,0,0-.76-.09H1012v2.67Z"/><path d="M1022.22,321.21a2.42,2.42,0,0,0,.88-.16,1.82,1.82,0,0,0,.65-.46,2.12,2.12,0,0,0,.41-.72,3.11,3.11,0,0,0,.14-.95v-5.45H1026v5.45a4,4,0,0,1-.26,1.5,3.39,3.39,0,0,1-.75,1.2,3.47,3.47,0,0,1-1.18.78,4.6,4.6,0,0,1-3.16,0,3.52,3.52,0,0,1-1.19-.78,3.69,3.69,0,0,1-.75-1.2,4.26,4.26,0,0,1-.26-1.5v-5.45h1.7v5.45a2.81,2.81,0,0,0,.14.94,2,2,0,0,0,.41.72,1.81,1.81,0,0,0,.65.47A2.42,2.42,0,0,0,1022.22,321.21Z"/><path d="M1029.62,322.58h-1.7v-9.11h1.7Z"/><path d="M1037,321.18v1.4h-5.33v-9.11h1.69v7.71Z"/><path d="M1046.11,318a5,5,0,0,1-.33,1.84,4.16,4.16,0,0,1-2.39,2.38,5.21,5.21,0,0,1-1.89.34H1038v-9.11h3.47a5.21,5.21,0,0,1,1.89.33,4.38,4.38,0,0,1,1.45.94,4,4,0,0,1,.94,1.44A5,5,0,0,1,1046.11,318Zm-1.73,0a4.24,4.24,0,0,0-.2-1.34,2.85,2.85,0,0,0-.58-1,2.37,2.37,0,0,0-.9-.63,3.09,3.09,0,0,0-1.2-.23h-1.77v6.42h1.77a3.29,3.29,0,0,0,1.2-.22,2.51,2.51,0,0,0,.9-.64,2.89,2.89,0,0,0,.58-1A4.35,4.35,0,0,0,1044.38,318Z"/></g></g><polygon class="cls-28" points="416.31 394.48 391.64 394.48 391.64 387.07 416.31 394.48"/></g><g id="community"><g id="container"><rect class="cls-12" x="298.89" y="271.79" width="123.29" height="61.26"/><rect class="cls-13" x="302.52" y="275.42" width="116.03" height="54"/><path class="cls-14" d="M417.1,276.87V328H304v-51.1H417.1m1.46-1.45h-116v54h116v-54Z"/><path class="cls-15" d="M360.88,279.68a1.92,1.92,0,0,0-1.93,1.93v42.27a1.93,1.93,0,0,0,3.86,0V281.61a1.93,1.93,0,0,0-1.93-1.93Z"/><path class="cls-15" d="M351.27,279.68a1.92,1.92,0,0,0-1.93,1.93v42.27a1.93,1.93,0,0,0,3.86,0V281.61a1.93,1.93,0,0,0-1.93-1.93Z"/><path class="cls-15" d="M341.69,279.68a1.92,1.92,0,0,0-1.93,1.93v42.27a1.93,1.93,0,1,0,3.86,0V281.61a2,2,0,0,0-1.93-1.93Z"/><path class="cls-15" d="M332.08,279.68a1.92,1.92,0,0,0-1.93,1.93v42.27a1.93,1.93,0,1,0,3.86,0V281.61a2,2,0,0,0-1.93-1.93Z"/><path class="cls-15" d="M399.32,279.68a1.92,1.92,0,0,0-1.92,1.93v42.27a1.93,1.93,0,1,0,3.85,0V281.61a2,2,0,0,0-1.93-1.93Z"/><path class="cls-15" d="M408.9,279.68a1.92,1.92,0,0,0-1.93,1.93v42.27a1.93,1.93,0,0,0,3.86,0V281.61a1.92,1.92,0,0,0-1.93-1.93Z"/><path class="cls-15" d="M322.47,279.68a1.92,1.92,0,0,0-1.93,1.93v42.27a1.93,1.93,0,1,0,3.86,0V281.61a2,2,0,0,0-1.93-1.93Z"/><path class="cls-15" d="M312.85,279.68a1.92,1.92,0,0,0-1.92,1.93v42.27a1.93,1.93,0,1,0,3.85,0V281.61a1.92,1.92,0,0,0-1.93-1.93Z"/><path class="cls-15" d="M389.71,279.68a1.92,1.92,0,0,0-1.93,1.93v42.27a1.93,1.93,0,1,0,3.86,0V281.61a2,2,0,0,0-1.93-1.93Z"/><path class="cls-15" d="M380.1,279.68a1.92,1.92,0,0,0-1.93,1.93v42.27a1.93,1.93,0,1,0,3.86,0V281.61a2,2,0,0,0-1.93-1.93Z"/><path class="cls-15" d="M370.49,279.68a1.92,1.92,0,0,0-1.93,1.93v42.27a1.93,1.93,0,0,0,3.86,0V281.61a2,2,0,0,0-1.93-1.93Z"/><path class="cls-16" d="M360.54,279.34a1.92,1.92,0,0,0-1.93,1.93v42.27a1.93,1.93,0,0,0,3.86,0V281.27a1.93,1.93,0,0,0-1.93-1.93Z"/><path class="cls-16" d="M350.93,279.34a1.92,1.92,0,0,0-1.93,1.93v42.27a1.93,1.93,0,0,0,3.86,0V281.27a1.93,1.93,0,0,0-1.93-1.93Z"/><path class="cls-16" d="M341.35,279.34a1.92,1.92,0,0,0-1.93,1.93v42.27a1.93,1.93,0,1,0,3.86,0V281.27a2,2,0,0,0-1.93-1.93Z"/><path class="cls-16" d="M331.74,279.34a1.92,1.92,0,0,0-1.93,1.93v42.27a1.93,1.93,0,0,0,3.86,0V281.27a2,2,0,0,0-1.93-1.93Z"/><path class="cls-16" d="M399,279.34a1.92,1.92,0,0,0-1.93,1.93v42.27a1.93,1.93,0,0,0,3.86,0V281.27a2,2,0,0,0-1.93-1.93Z"/><path class="cls-16" d="M408.56,279.34a1.92,1.92,0,0,0-1.93,1.93v42.27a1.93,1.93,0,0,0,3.86,0V281.27a1.92,1.92,0,0,0-1.93-1.93Z"/><path class="cls-16" d="M322.13,279.34a1.92,1.92,0,0,0-1.93,1.93v42.27a1.93,1.93,0,0,0,3.86,0V281.27a2,2,0,0,0-1.93-1.93Z"/><path class="cls-16" d="M312.52,279.34a1.92,1.92,0,0,0-1.93,1.93v42.27a1.93,1.93,0,0,0,3.86,0V281.27a1.93,1.93,0,0,0-1.93-1.93Z"/><path class="cls-16" d="M389.37,279.34a1.92,1.92,0,0,0-1.92,1.93v42.27a1.93,1.93,0,1,0,3.85,0V281.27a2,2,0,0,0-1.93-1.93Z"/><path class="cls-16" d="M379.76,279.34a1.92,1.92,0,0,0-1.93,1.93v42.27a1.93,1.93,0,0,0,3.86,0V281.27a2,2,0,0,0-1.93-1.93Z"/><path class="cls-16" d="M370.15,279.34a1.92,1.92,0,0,0-1.93,1.93v42.27a1.93,1.93,0,0,0,3.86,0V281.27a2,2,0,0,0-1.93-1.93Z"/><rect class="cls-29" x="298.89" y="331.25" width="123.29" height="1.8"/></g><g id="container_unten" data-name="container unten"><rect class="cls-12" x="267.57" y="333.23" width="123.29" height="61.26"/><rect class="cls-13" x="271.2" y="336.86" width="116.03" height="54"/><path class="cls-14" d="M385.78,338.31V389.4H272.65V338.31H385.78m1.45-1.45h-116v54h116v-54Z"/><path class="cls-15" d="M329.56,341.11a1.93,1.93,0,0,0-1.93,1.93v42.27a1.93,1.93,0,0,0,3.86,0V343a1.93,1.93,0,0,0-1.93-1.93Z"/><path class="cls-15" d="M319.94,341.11A1.93,1.93,0,0,0,318,343v42.27a1.93,1.93,0,1,0,3.85,0V343a1.92,1.92,0,0,0-1.93-1.93Z"/><path class="cls-15" d="M310.37,341.11a1.93,1.93,0,0,0-1.93,1.93v42.27a1.93,1.93,0,0,0,3.86,0V343a2,2,0,0,0-1.93-1.93Z"/><path class="cls-15" d="M300.76,341.11a1.93,1.93,0,0,0-1.93,1.93v42.27a1.93,1.93,0,1,0,3.85,0V343a2,2,0,0,0-1.92-1.93Z"/><path class="cls-15" d="M368,341.11a1.93,1.93,0,0,0-1.93,1.93v42.27a1.93,1.93,0,0,0,3.86,0V343a2,2,0,0,0-1.93-1.93Z"/><path class="cls-15" d="M377.58,341.11a1.93,1.93,0,0,0-1.93,1.93v42.27a1.93,1.93,0,0,0,3.86,0V343a1.93,1.93,0,0,0-1.93-1.93Z"/><path class="cls-15" d="M291.14,341.11a1.92,1.92,0,0,0-1.92,1.93v42.27a1.93,1.93,0,1,0,3.85,0V343a2,2,0,0,0-1.93-1.93Z"/><path class="cls-15" d="M281.53,341.11A1.93,1.93,0,0,0,279.6,343v42.27a1.93,1.93,0,0,0,3.86,0V343a1.92,1.92,0,0,0-1.93-1.93Z"/><path class="cls-15" d="M358.39,341.11a1.93,1.93,0,0,0-1.93,1.93v42.27a1.93,1.93,0,0,0,3.86,0V343a2,2,0,0,0-1.93-1.93Z"/><path class="cls-15" d="M348.78,341.11a1.93,1.93,0,0,0-1.93,1.93v42.27a1.93,1.93,0,0,0,3.86,0V343a2,2,0,0,0-1.93-1.93Z"/><path class="cls-15" d="M339.17,341.11a1.93,1.93,0,0,0-1.93,1.93v42.27a1.93,1.93,0,0,0,3.86,0V343a2,2,0,0,0-1.93-1.93Z"/><path class="cls-16" d="M329.22,340.77a1.93,1.93,0,0,0-1.93,1.93V385a1.93,1.93,0,1,0,3.86,0V342.7a1.93,1.93,0,0,0-1.93-1.93Z"/><path class="cls-16" d="M319.61,340.77a1.93,1.93,0,0,0-1.93,1.93V385a1.93,1.93,0,1,0,3.86,0V342.7a1.93,1.93,0,0,0-1.93-1.93Z"/><path class="cls-16" d="M310,340.77a1.93,1.93,0,0,0-1.93,1.93V385a1.93,1.93,0,0,0,3.86,0V342.7a2,2,0,0,0-1.93-1.93Z"/><path class="cls-16" d="M300.42,340.77a1.93,1.93,0,0,0-1.93,1.93V385a1.93,1.93,0,1,0,3.86,0V342.7a2,2,0,0,0-1.93-1.93Z"/><path class="cls-16" d="M367.66,340.77a1.93,1.93,0,0,0-1.93,1.93V385a1.93,1.93,0,1,0,3.86,0V342.7a2,2,0,0,0-1.93-1.93Z"/><path class="cls-16" d="M377.24,340.77a1.93,1.93,0,0,0-1.93,1.93V385a1.93,1.93,0,1,0,3.86,0V342.7a1.93,1.93,0,0,0-1.93-1.93Z"/><path class="cls-16" d="M290.81,340.77a1.93,1.93,0,0,0-1.93,1.93V385a1.93,1.93,0,1,0,3.85,0V342.7a2,2,0,0,0-1.92-1.93Z"/><path class="cls-16" d="M281.19,340.77a1.92,1.92,0,0,0-1.92,1.93V385a1.93,1.93,0,1,0,3.85,0V342.7a1.92,1.92,0,0,0-1.93-1.93Z"/><path class="cls-16" d="M358.05,340.77a1.93,1.93,0,0,0-1.93,1.93V385a1.93,1.93,0,1,0,3.86,0V342.7a2,2,0,0,0-1.93-1.93Z"/><path class="cls-16" d="M348.44,340.77a1.93,1.93,0,0,0-1.93,1.93V385a1.93,1.93,0,1,0,3.86,0V342.7a2,2,0,0,0-1.93-1.93Z"/><path class="cls-16" d="M338.83,340.77a1.93,1.93,0,0,0-1.93,1.93V385a1.93,1.93,0,0,0,1.93,1.93,1.91,1.91,0,0,0,1.93-1.93V342.7a2,2,0,0,0-1.93-1.93Z"/><rect class="cls-26" x="267.57" y="392.68" width="123.29" height="1.8"/><polygon class="cls-14" points="318.44 394.48 298.89 333.23 391.39 333.23 391.39 394.48 318.44 394.48"/></g><g id="frau"><path class="cls-19" d="M396.15,344.36H346.53a2.27,2.27,0,0,0-2.26,2.32V362a2.31,2.31,0,0,0,2.26,2.36h38.12v4.12l3.06-4.12h8.44a2.44,2.44,0,0,0,2.42-2.36V346.68A2.4,2.4,0,0,0,396.15,344.36Z"/><ellipse class="cls-22" cx="364.31" cy="480.34" rx="20.93" ry="4.05"/><path class="cls-30" d="M345.41,385.54c0-1.08,1.5-2,1.68-3s-.91-2.44-.55-3.43,2.1-1.36,2.62-2.27,0-2.6.67-3.41,2.43-.56,3.24-1.24.87-2.45,1.78-3,2.47.3,3.48-.06,1.64-2,2.69-2.19,2.21,1.14,3.29,1.14,2.25-1.32,3.28-1.14,1.71,1.83,2.7,2.19,2.56-.47,3.47.06,1,2.3,1.78,3,2.57.43,3.25,1.24.13,2.49.66,3.41,2.26,1.27,2.62,2.27-.73,2.38-.54,3.43,1.68,2,1.68,3-1.5,2-1.68,3,.9,2.44.54,3.43-2.09,1.36-2.62,2.27,0,2.6-.66,3.41-2.44.56-3.25,1.24-.86,2.45-1.78,3-2.47-.3-3.47.06-1.65,2-2.7,2.19-2.21-1.14-3.28-1.14-2.26,1.32-3.29,1.14-1.71-1.83-2.69-2.19-2.57.47-3.48-.06-1-2.3-1.78-3-2.56-.43-3.24-1.24-.13-2.49-.67-3.41-2.25-1.27-2.62-2.27.73-2.38.55-3.43S345.41,386.62,345.41,385.54Z"/><path class="cls-30" d="M374.47,397.66l-20.38-.19a3.06,3.06,0,0,1-2.93-3.86l4.46-16.51,16.47-2,5.35,18.65A3.06,3.06,0,0,1,374.47,397.66Z"/><line class="cls-31" x1="359.76" y1="438.55" x2="359.76" y2="473.7"/><line class="cls-32" x1="359.76" y1="468.93" x2="359.76" y2="477.6"/><line class="cls-33" x1="359.76" y1="464.86" x2="359.76" y2="473.53"/><line class="cls-31" x1="368.21" y1="438.55" x2="368.21" y2="473.7"/><line class="cls-32" x1="368.21" y1="468.93" x2="368.21" y2="477.6"/><line class="cls-33" x1="368.21" y1="464.86" x2="368.21" y2="473.53"/><rect class="cls-34" x="361.43" y="395.97" width="5.11" height="5.11"/><path class="cls-35" d="M364,397.33a7.5,7.5,0,0,1-2.56-.46v1.19a7.18,7.18,0,0,0,5.11,0v-1.19A7.44,7.44,0,0,1,364,397.33Z"/><path class="cls-36" d="M349.67,444.93V411.28c0-5.06,6.89-9.33,15-9.33"/><line class="cls-37" x1="349.67" y1="447.38" x2="349.67" y2="442.48"/><line class="cls-38" x1="349.67" y1="444.32" x2="349.67" y2="416.67"/><path class="cls-36" d="M407,402H373.32c-5.06,0-9.33,6.88-9.33,15"/><line class="cls-37" x1="409.41" y1="401.95" x2="404.52" y2="401.95"/><line class="cls-38" x1="406.36" y1="401.95" x2="378.71" y2="401.95"/><path class="cls-39" d="M371.42,390.12a7.44,7.44,0,1,1-14.87,0V381h14.87Z"/><path class="cls-40" d="M355.42,378.8v2.72c1.57,1.25,4.81,2.11,8.57,2.11s6.87-.83,8.47-2V378.8Z"/><ellipse class="cls-39" cx="371.42" cy="388.7" rx="1.56" ry="2.23"/><ellipse class="cls-39" cx="356.09" cy="388.7" rx="1.56" ry="2.23"/><circle class="cls-41" cx="368.1" cy="385.04" r="0.73"/><circle class="cls-41" cx="360.49" cy="385.04" r="0.73"/><path class="cls-30" d="M372.55,380.64v-.46a2.16,2.16,0,0,0-1.86-2.14l-6.7-.94-6.71.94a2.16,2.16,0,0,0-1.86,2.14v.46Z"/><path class="cls-30" d="M373.54,376.14s-2,5.93-11,5.93a9.33,9.33,0,0,1-9.13-6.32s3.31,3.5,8.24-1.23C362.81,372.62,371.93,371.68,373.54,376.14Z"/><path class="cls-8" d="M375.86,452.61H352.11V411.28A11.88,11.88,0,0,1,364,399.4h0a11.88,11.88,0,0,1,11.87,11.88Z"/></g><g id="paar2"><path class="cls-19" d="M241.63,336.67h-36.3a1.66,1.66,0,0,0-1.66,1.7v11.18a1.68,1.68,0,0,0,1.66,1.72h27.89v3l2.24-3h6.17a1.78,1.78,0,0,0,1.77-1.72V338.37A1.76,1.76,0,0,0,241.63,336.67Z"/><g id="frau-2" data-name="frau"><ellipse class="cls-22" cx="243.99" cy="407.54" rx="10.44" ry="1.74"/><path class="cls-42" d="M247.86,362.1h-2.52a3.46,3.46,0,0,0,2.52,3Z"/><path class="cls-42" d="M247.9,364c0,1.67-1.8,3-4,3h-.17c-2.23,0-4-1.36-4-3v-1.48c0-1.69,1.82-3.06,4.08-3.06h.07c2.25,0,4.08,1.37,4.08,3.06Z"/><path class="cls-42" d="M248.52,367.39a4.55,4.55,0,1,1-4.51-4A4.28,4.28,0,0,1,248.52,367.39Z"/><line class="cls-43" x1="241.98" y1="389.47" x2="241.98" y2="405.14"/><line class="cls-44" x1="241.98" y1="403.02" x2="241.98" y2="406.88"/><line class="cls-45" x1="241.98" y1="401.2" x2="241.98" y2="405.07"/><line class="cls-43" x1="245.75" y1="389.47" x2="245.75" y2="405.14"/><line class="cls-44" x1="245.75" y1="403.02" x2="245.75" y2="406.88"/><line class="cls-45" x1="245.75" y1="401.2" x2="245.75" y2="405.07"/><rect class="cls-34" x="242.72" y="370.48" width="2.28" height="2.28"/><path class="cls-35" d="M243.86,371.09a3.33,3.33,0,0,1-1.14-.2v.53a3.33,3.33,0,0,0,1.14.2,3.29,3.29,0,0,0,1.14-.2v-.53A3.29,3.29,0,0,1,243.86,371.09Z"/><path class="cls-46" d="M237.48,392.3v-15c0-2.26,3.07-4.16,6.71-4.16"/><line class="cls-47" x1="237.48" y1="393.39" x2="237.48" y2="391.21"/><line class="cls-48" x1="237.48" y1="392.03" x2="237.48" y2="379.7"/><path class="cls-46" d="M250.27,392.48v-15c0-2.25-3.06-4.16-6.7-4.16"/><line class="cls-47" x1="250.27" y1="393.57" x2="250.27" y2="391.38"/><line class="cls-48" x1="250.27" y1="392.2" x2="250.27" y2="379.88"/><path class="cls-20" d="M249.16,387.12H238.57v-9.81a5.3,5.3,0,0,1,5.29-5.3h0a5.3,5.3,0,0,1,5.3,5.3Z"/><path class="cls-39" d="M247.18,367.88a3.32,3.32,0,0,1-6.63,0V363.8h6.63Z"/><path class="cls-40" d="M240,362.83V364a6.65,6.65,0,0,0,3.82.94,6.87,6.87,0,0,0,3.78-.9v-1.25Z"/><ellipse class="cls-39" cx="247.18" cy="367.25" rx="0.7" ry="1"/><ellipse class="cls-39" cx="240.34" cy="367.25" rx="0.7" ry="1"/><circle cx="245.7" cy="365.61" r="0.33"/><circle cx="242.31" cy="365.61" r="0.33"/><path class="cls-42" d="M247.73,362.59s-5.25-.37-6,3c-1.83-3.07.78-4.16,2.3-3.92A30.27,30.27,0,0,1,247.73,362.59Z"/><path class="cls-42" d="M247,361.85s-5.6-.36-6.31,3c-1.61-4.36,1.14-4.17,2.65-3.93A31.93,31.93,0,0,1,247,361.85Z"/><rect class="cls-19" x="239.64" y="387.12" width="8.73" height="4.85"/></g><g id="mann"><ellipse class="cls-22" cx="218" cy="407.54" rx="10.44" ry="1.74"/><line class="cls-49" x1="220.82" y1="387.56" x2="215.76" y2="404.34"/><line class="cls-50" x1="216.45" y1="402.07" x2="215.2" y2="406.2"/><line class="cls-51" x1="217.04" y1="400.12" x2="215.79" y2="404.26"/><line class="cls-49" x1="220.82" y1="387.56" x2="220.82" y2="405.09"/><line class="cls-50" x1="220.82" y1="402.71" x2="220.82" y2="407.03"/><line class="cls-51" x1="220.82" y1="400.68" x2="220.82" y2="405"/><g class="cls-52"><polygon points="219.04 399.62 217.47 404.86 216.86 406.86 218.91 389.15 219.04 387.3 219.04 387.56 219.04 399.62"/></g><rect class="cls-34" x="219.54" y="366.34" width="2.55" height="2.55" transform="translate(441.64 735.23) rotate(-180)"/><path class="cls-5" d="M226.74,389.2H214.9v-15a5.92,5.92,0,0,1,5.92-5.92h0a5.92,5.92,0,0,1,5.92,5.92Z"/><path class="cls-39" d="M224.52,363.43a3.71,3.71,0,0,1-7.41,0v-4.56h7.41Z"/><path class="cls-35" d="M220.82,367.13a3.58,3.58,0,0,0,1.27-.23v.6a3.58,3.58,0,0,1-1.27.23,3.63,3.63,0,0,1-1.28-.23v-.6A3.63,3.63,0,0,0,220.82,367.13Z"/><circle cx="223.17" cy="360.89" r="0.36"/><path class="cls-53" d="M225.73,356.53h-8.58a1.2,1.2,0,0,0-1.24,1.17V362a1.21,1.21,0,0,0,1.24,1.18h0A3.74,3.74,0,0,0,220.6,361a2.71,2.71,0,0,1,1.12-1.25,3.34,3.34,0,0,1,1.24-.32,3,3,0,0,0,2.77-2.93Z"/><path class="cls-39" d="M221.09,361.71a.94.94,0,1,1-1.15-.86A1,1,0,0,1,221.09,361.71Z"/><g class="cls-52"><path d="M220.18,370.37a1.27,1.27,0,0,1,1.27,1.27v6.79a1.78,1.78,0,0,0,1.78,1.78h3.51v2.54h-3.51a4.33,4.33,0,0,1-4.32-4.32v-6.79A1.27,1.27,0,0,1,220.18,370.37Z"/></g><path class="cls-54" d="M220.82,370.62v6.79a3,3,0,0,0,3,3h9.44"/><line class="cls-55" x1="229.93" y1="380.46" x2="232.76" y2="380.46"/><line class="cls-56" x1="231.96" y1="380.46" x2="233.78" y2="380.46"/></g></g><g id="mann-2" data-name="mann"><path class="cls-57" d="M276.83,341.32v-8.91a2.06,2.06,0,0,1,2.06-2.06h10.85"/><line class="cls-58" x1="276.83" y1="339.29" x2="276.83" y2="342.98"/><line class="cls-59" x1="276.83" y1="337.56" x2="276.83" y2="341.25"/><path class="cls-60" d="M275.94,342.16v-8.91a2.06,2.06,0,0,1,2.06-2.06h10.84"/><line class="cls-58" x1="275.94" y1="340.13" x2="275.94" y2="343.82"/><line class="cls-59" x1="275.94" y1="338.4" x2="275.94" y2="342.09"/><path class="cls-60" d="M275.94,342.16v-8.91a2.06,2.06,0,0,1,2.06-2.06h10.84"/><line class="cls-58" x1="275.94" y1="340.13" x2="275.94" y2="343.82"/><line class="cls-59" x1="275.94" y1="338.4" x2="275.94" y2="342.09"/><rect class="cls-34" x="287.34" y="307.22" width="2.18" height="2.18"/><path class="cls-8" d="M283.37,314a5,5,0,0,1,5.05-5.05h0a5.05,5.05,0,0,1,5.06,5.05v12.78H283.37Z"/><path class="cls-39" d="M285.26,304.74a3.17,3.17,0,0,0,6.33,0v-3.9h-6.33Z"/><path class="cls-35" d="M288.42,307.9a3,3,0,0,1-1.08-.2v.51a3,3,0,0,0,2.17,0v-.51A3,3,0,0,1,288.42,307.9Z"/><circle cx="286.41" cy="302.57" r="0.31"/><path d="M284.23,298.84h7.33a1,1,0,0,1,1.06,1v3.69a1,1,0,0,1-1.06,1h0a3.2,3.2,0,0,1-2.94-1.86,2.29,2.29,0,0,0-.95-1.07,3,3,0,0,0-1.07-.28,2.57,2.57,0,0,1-2.36-2.5Z"/><path class="cls-39" d="M288.19,303.27a.8.8,0,1,0,1.54.35.87.87,0,0,0-.56-1.09A.89.89,0,0,0,288.19,303.27Z"/><g class="cls-52"><path d="M289,310.66a1.09,1.09,0,0,0-1.09,1.09v5.8a1.52,1.52,0,0,1-1.52,1.52h-3v2.16h3a3.69,3.69,0,0,0,3.69-3.68v-5.8A1.08,1.08,0,0,0,289,310.66Z"/></g><path class="cls-61" d="M288.42,310.88v5.8a2.6,2.6,0,0,1-2.6,2.6h-8.05"/><line class="cls-62" x1="288.42" y1="310.88" x2="288.42" y2="313.21"/><line class="cls-63" x1="288.42" y1="312.77" x2="288.42" y2="315.1"/><line class="cls-64" x1="280.64" y1="319.28" x2="278.22" y2="319.28"/><line class="cls-61" x1="278.91" y1="319.28" x2="277.35" y2="319.28"/><path class="cls-25" d="M282,325.84h11.79a0,0,0,0,1,0,0v2.71a4.29,4.29,0,0,1-4.29,4.29h-3.22a4.29,4.29,0,0,1-4.29-4.29v-2.71A0,0,0,0,1,282,325.84Z"/></g><polygon points="287.95 301.34 287.95 304.45 288.57 303.55 288.57 302.22 287.95 301.34"/><circle class="cls-53" cx="223.99" cy="356.65" r="1.74"/><ellipse class="cls-22" cx="445.7" cy="480.34" rx="20.93" ry="4.05"/><line class="cls-65" x1="438.01" y1="435.06" x2="449.16" y2="472.07"/><line class="cls-66" x1="447.65" y1="467.05" x2="450.4" y2="476.18"/><line class="cls-67" x1="446.35" y1="462.76" x2="449.1" y2="471.89"/><line class="cls-65" x1="438.01" y1="435.06" x2="438.01" y2="473.71"/><line class="cls-66" x1="438.01" y1="468.47" x2="438.01" y2="478"/><line class="cls-67" x1="438.01" y1="463.99" x2="438.01" y2="473.52"/><g class="cls-52"><polygon points="441.93 461.66 445.4 473.2 446.74 477.62 442.21 438.56 441.93 434.48 441.93 435.06 441.93 461.66"/></g><rect class="cls-34" x="435.2" y="388.24" width="5.62" height="5.62"/><path class="cls-25" d="M425,405.67A13.06,13.06,0,0,1,438,392.61h0a13.06,13.06,0,0,1,13.06,13.06v33H425Z"/><path class="cls-39" d="M429.83,381.81a8.18,8.18,0,0,0,16.35,0V371.76H429.83Z"/><path class="cls-35" d="M438,390a8.14,8.14,0,0,1-2.81-.5v1.31a8,8,0,0,0,5.62,0v-1.31A8.18,8.18,0,0,1,438,390Z"/><circle cx="432.81" cy="376.22" r="0.8"/><path class="cls-39" d="M437.41,378a2.07,2.07,0,1,0,2.53-1.89A2.25,2.25,0,0,0,437.41,378Z"/><path d="M446.1,366.59h-10a6,6,0,0,1-6-3.47v2.36c-2.18-.93-3-3.72-3-3.72V365a7.89,7.89,0,0,0,.36,3.43h0a6.79,6.79,0,0,0,5.82,4.6,7.16,7.16,0,0,1,2.75.72,5.89,5.89,0,0,1,2.45,2.76,8.26,8.26,0,0,0,7.61,4.79h0a2.67,2.67,0,0,0,2.74-2.6v-9.53A2.67,2.67,0,0,0,446.1,366.59Z"/><g class="cls-52"><path d="M439.41,397.12a2.8,2.8,0,0,0-2.8,2.8v15a3.93,3.93,0,0,1-3.92,3.92H425v5.6h7.74a9.54,9.54,0,0,0,9.52-9.52v-15A2.8,2.8,0,0,0,439.41,397.12Z"/></g><path class="cls-68" d="M438,397.67v15a6.72,6.72,0,0,1-6.72,6.72H410.48"/><line class="cls-69" x1="417.9" y1="419.38" x2="411.65" y2="419.38"/><line class="cls-70" x1="413.42" y1="419.38" x2="409.41" y2="419.38"/><g id="paar3"><path class="cls-19" d="M420.55,206.89h-36.3a1.66,1.66,0,0,0-1.66,1.69v11.18a1.69,1.69,0,0,0,1.66,1.73h27.88v3l2.25-3h6.17a1.79,1.79,0,0,0,1.77-1.73V208.58A1.75,1.75,0,0,0,420.55,206.89Z"/><g id="frau-3" data-name="frau"><g id="frau-4" data-name="frau"><path class="cls-71" d="M398.42,234.43a1.24,1.24,0,1,1-1.23-1.37A1.3,1.3,0,0,1,398.42,234.43Z"/><path class="cls-71" d="M403.53,234.43a1.24,1.24,0,1,1-1.23-1.37A1.3,1.3,0,0,1,403.53,234.43Z"/><path class="cls-72" d="M402.77,238a3.27,3.27,0,0,1-3.09,3.43h-.13a3.27,3.27,0,0,1-3.09-3.43v-1.68a3.32,3.32,0,0,1,3.13-3.47h.05a3.32,3.32,0,0,1,3.13,3.47Z"/><rect class="cls-73" x="398.69" y="241.33" width="1.82" height="1.82"/><path class="cls-35" d="M399.6,241.82a2.49,2.49,0,0,1-.91-.17v.43a2.67,2.67,0,0,0,1.82,0v-.43A2.49,2.49,0,0,1,399.6,241.82Z"/><ellipse class="cls-74" cx="402.25" cy="238.75" rx="0.56" ry="0.8"/><ellipse class="cls-74" cx="396.79" cy="238.75" rx="0.56" ry="0.8"/><path class="cls-74" d="M402.25,239.25a2.65,2.65,0,1,1-5.3,0V236h5.3Z"/><path class="cls-72" d="M402.25,236s-5.72.11-5.16,2.47c-1.2-3.48,1.29-3.38,2.24-3.21A21.94,21.94,0,0,1,402.25,236Z"/><path class="cls-72" d="M402.25,236s-5.05.19-4.92,2.08c-.63-2.26,1.06-3.46,2.27-3.27A6.85,6.85,0,0,1,402.25,236Z"/><circle cx="401.07" cy="237.44" r="0.26"/><circle cx="398.35" cy="237.44" r="0.26"/></g><line class="cls-75" x1="398.26" y1="256.54" x2="398.26" y2="269.19"/><line class="cls-76" x1="398.26" y1="267.48" x2="398.26" y2="270.59"/><line class="cls-77" x1="398.26" y1="266.01" x2="398.26" y2="269.13"/><line class="cls-75" x1="401.3" y1="256.54" x2="401.3" y2="269.19"/><line class="cls-76" x1="401.3" y1="267.48" x2="401.3" y2="270.59"/><line class="cls-77" x1="401.3" y1="266.01" x2="401.3" y2="269.13"/><path class="cls-78" d="M394.63,229.53v12.1c0,1.82,2.48,3.36,5.41,3.36"/><line class="cls-79" x1="394.63" y1="228.64" x2="394.63" y2="230.41"/><line class="cls-80" x1="394.63" y1="229.74" x2="394.63" y2="239.69"/><path class="cls-78" d="M405,229.31v12.11c0,1.82-2.48,3.35-5.41,3.35"/><line class="cls-79" x1="404.96" y1="228.43" x2="404.96" y2="230.19"/><line class="cls-81" x1="404.96" y1="229.53" x2="404.96" y2="239.47"/><path class="cls-20" d="M404.06,254.64h-8.55v-7.91a4.28,4.28,0,0,1,4.27-4.28h0a4.28,4.28,0,0,1,4.28,4.28Z"/><polygon class="cls-19" points="406.12 262.87 393.67 262.87 396.37 254.65 403.42 254.65 406.12 262.87"/></g></g><g id="mann-3" data-name="mann"><path class="cls-82" d="M425.19,278.82v-7.45a1.72,1.72,0,0,0-1.72-1.72h-9.05"/><line class="cls-83" x1="425.19" y1="277.12" x2="425.19" y2="280.2"/><line class="cls-84" x1="425.19" y1="275.67" x2="425.19" y2="278.76"/><path class="cls-85" d="M425.94,279.52v-7.45a1.72,1.72,0,0,0-1.72-1.72h-9.05"/><line class="cls-83" x1="425.94" y1="277.82" x2="425.94" y2="280.9"/><line class="cls-84" x1="425.94" y1="276.37" x2="425.94" y2="279.46"/><path class="cls-86" d="M425.94,279.52v-7.45a1.72,1.72,0,0,0-1.72-1.72h-9.05"/><line class="cls-83" x1="425.94" y1="277.82" x2="425.94" y2="280.9"/><line class="cls-84" x1="425.94" y1="276.37" x2="425.94" y2="279.46"/><rect class="cls-34" x="414.61" y="250.35" width="1.82" height="1.82" transform="translate(831.03 502.52) rotate(-180)"/><path class="cls-19" d="M419.74,266.65H411.3V256a4.21,4.21,0,0,1,4.22-4.22h0a4.22,4.22,0,0,1,4.22,4.22Z"/><path class="cls-39" d="M418.16,248.27a2.65,2.65,0,0,1-5.29,0V245h5.29Z"/><path class="cls-35" d="M415.52,250.91a2.66,2.66,0,0,0,.9-.16v.43a2.66,2.66,0,0,1-.9.16,2.72,2.72,0,0,1-.91-.16v-.43A2.72,2.72,0,0,0,415.52,250.91Z"/><circle cx="417.19" cy="246.46" r="0.26"/><g class="cls-52"><path d="M415.06,253.22a.91.91,0,0,1,.91.91V259a1.27,1.27,0,0,0,1.27,1.27h2.5v1.81h-2.5a3.08,3.08,0,0,1-3.08-3.08v-4.84A.9.9,0,0,1,415.06,253.22Z"/></g><path class="cls-87" d="M415.52,253.4v4.84a2.17,2.17,0,0,0,2.17,2.17h6.72"/><line class="cls-88" x1="415.52" y1="253.4" x2="415.52" y2="255.35"/><line class="cls-89" x1="415.52" y1="254.98" x2="415.52" y2="256.92"/><line class="cls-90" x1="422.02" y1="260.41" x2="424.03" y2="260.41"/><line class="cls-87" x1="423.46" y1="260.41" x2="424.76" y2="260.41"/><path class="cls-25" d="M411.3,266.65h5.51a2.94,2.94,0,0,1,2.94,2.94v2.08a0,0,0,0,1,0,0H411.3a0,0,0,0,1,0,0v-5A0,0,0,0,1,411.3,266.65Z" transform="translate(831.03 538.31) rotate(-180)"/><path class="cls-25" d="M418.85,266.65h1.57a3.75,3.75,0,0,1,3.75,3.75v1.26a0,0,0,0,1,0,0h-5.32a0,0,0,0,1,0,0v-5A0,0,0,0,1,418.85,266.65Z"/></g><path d="M419,243.35c0-.72-1.57-1.31-3.5-1.31a6.31,6.31,0,0,0-2.51.61,1.69,1.69,0,0,0-1,1.54h0v3.08a.86.86,0,0,0,.89.84h0a2.66,2.66,0,0,0,2.46-1.55,2,2,0,0,1,.8-.89,2.45,2.45,0,0,1,.89-.23,2.15,2.15,0,0,0,2-2.09h0Z"/></g><g id="openshift"><rect class="cls-91" x="178.35" y="265.92" width="46.2" height="46.2"/><rect class="cls-92" x="178.35" y="265.92" width="10.14" height="46.2"/><polygon class="cls-22" points="212.86 464.53 177.04 464.53 177.04 453.77 212.86 464.53"/><rect class="cls-93" x="172.68" y="260.67" width="4.86" height="203.86"/><rect class="cls-94" x="175.11" y="260.67" width="2.43" height="203.86"/><rect class="cls-95" x="171.87" y="262.88" width="6.48" height="52.27"/><rect class="cls-96" x="175.11" y="262.88" width="3.24" height="52.27"/><path class="cls-97" d="M195.18,284.09l-4.7,1.71a13.9,13.9,0,0,0,.37,2.22l4.46-1.62a8.9,8.9,0,0,1-.13-2.31"/><path class="cls-97" d="M215.92,278.9a13.56,13.56,0,0,0-1.15-1.94l-4.69,1.71a8.26,8.26,0,0,1,1.38,1.85Z"/><path class="cls-97" d="M205.59,277.57a8.81,8.81,0,0,1,2.54,1.81l4.69-1.71a13.41,13.41,0,0,0-24.29,8.84l4.69-1.71a8.7,8.7,0,0,1,12.37-7.23"/><path class="cls-97" d="M191.15,287.92l-4.46,1.62a13.74,13.74,0,0,0,2.09,4.55l4.69-1.71a8.71,8.71,0,0,1-2.32-4.46"/><path class="cls-97" d="M210.6,286.15a8.72,8.72,0,0,1-12.38,7.23,8.5,8.5,0,0,1-2.54-1.81L191,293.28a13.25,13.25,0,0,0,5.23,4.36,13.44,13.44,0,0,0,17.84-6.49,13.22,13.22,0,0,0,1.21-6.71Z"/><path class="cls-97" d="M211.75,280.42,207.29,282a8.71,8.71,0,0,1,1.09,4.91l4.69-1.7a13.73,13.73,0,0,0-1.32-4.83"/><path class="cls-98" d="M186.76,304c-.58,0-1,.47-1,1.32s.41,1.33,1,1.33,1-.47,1-1.32-.41-1.33-1-1.33m0,3.47c-1.09,0-1.84-.79-1.84-2.14s.76-2.16,1.85-2.16,1.83.8,1.83,2.15-.76,2.15-1.84,2.15"/><path class="cls-98" d="M191.31,304h-1v1.07h1c.39,0,.6-.18.6-.54s-.24-.53-.61-.53m0,1.88h-.92v1.48h-.83v-4.17h1.82a1.29,1.29,0,0,1,1.43,1.32c0,1-.64,1.37-1.5,1.37"/><polygon class="cls-98" points="193.63 307.38 193.63 303.21 196.53 303.21 196.53 304.03 194.47 304.03 194.47 304.75 195.66 304.75 195.66 305.56 194.47 305.56 194.47 306.56 196.62 306.56 196.62 307.38 193.63 307.38"/><path class="cls-98" d="M200.21,307.38l-1.53-2.28c-.1-.15-.24-.36-.3-.47,0,.16,0,.68,0,.91v1.84h-.82v-4.17h.79l1.48,2.2c.1.16.24.37.29.47,0-.15,0-.68,0-.91v-1.76H201v4.17Z"/><path class="cls-98" d="M203.49,307.44a2,2,0,0,1-1.4-.57l.31-.35a1.59,1.59,0,0,0,1.11.5c.55,0,.89-.27.89-.71s-.23-.61-1-.89-1.2-.61-1.2-1.21.52-1.07,1.3-1.07a1.87,1.87,0,0,1,1.27.45l-.3.36a1.43,1.43,0,0,0-1-.38c-.57,0-.81.28-.81.61s.16.54,1,.84,1.21.64,1.21,1.26-.51,1.16-1.38,1.16"/><polygon class="cls-98" points="208.44 307.38 208.44 305.41 206.37 305.41 206.37 307.38 205.9 307.38 205.9 303.21 206.37 303.21 206.37 304.99 208.44 304.99 208.44 303.21 208.9 303.21 208.9 307.38 208.44 307.38"/><rect class="cls-98" x="210.1" y="303.21" width="0.46" height="4.17"/><polygon class="cls-98" points="212.22 303.63 212.22 305.01 213.37 305.01 213.37 305.44 212.22 305.44 212.22 307.38 211.76 307.38 211.76 303.21 214.21 303.21 214.21 303.63 212.22 303.63"/><polygon class="cls-98" points="215.04 303.21 215.04 303.63 216.26 303.63 216.26 307.38 216.73 307.38 216.73 303.63 217.96 303.63 217.96 303.21 215.04 303.21"/></g><g id="clouds_left" data-name="clouds left"><g class="cls-99"><path class="cls-100" d="M89.9,109.9a46,46,0,0,1,65,0l.44.44a27.36,27.36,0,0,1,1.93-2.12c.35-.36.72-.7,1.08-1a30.6,30.6,0,0,1,51.82,14.33,16.75,16.75,0,1,1-10.5,30.65,30.58,30.58,0,0,1-32.84,3.7l-.42-.17A46,46,0,1,1,89.9,109.9"/><path class="cls-100" d="M67.25,187.37a40.28,40.28,0,1,0,25.63-46,30.93,30.93,0,0,0-4.72-6.09,30.52,30.52,0,0,0-47.95,6.23A37,37,0,0,0,30.37,124a37.15,37.15,0,1,0,0,52.56,36.94,36.94,0,0,0,7.21-10.15,30.57,30.57,0,0,0,29.67,21"/></g></g><g id="clouds_right" data-name="clouds right"><g class="cls-101"><path class="cls-100" d="M1196.94,132a85.81,85.81,0,1,0,54.59-98.15,65,65,0,0,0-112.2.3,79.18,79.18,0,1,0-5.59,53.06,65,65,0,0,0,63.2,44.79Z"/><path class="cls-100" d="M1010.61,38.06A67,67,0,0,0,1119,57.73a67.14,67.14,0,0,0,12.17-16.64,32.75,32.75,0,0,0,46.25-10,62.09,62.09,0,0,0,7.79,9.48,62.18,62.18,0,0,0,88,0,62.14,62.14,0,0,0,11.21-15.28,97.83,97.83,0,0,0,20,28.83,97.91,97.91,0,0,0,138.5,0,98,98,0,0,0,0-138.57,97.91,97.91,0,0,0-138.5,0A97.55,97.55,0,0,0,1279-40.63a63,63,0,0,0-5.86-6.76,62.18,62.18,0,0,0-88,0,62,62,0,0,0-17.44,34.12,32.78,32.78,0,0,0-34-1.51A67,67,0,0,0,1024.25-37c-1,1-2,2-2.9,3.08a52.94,52.94,0,0,0-43.5-22.71,53,53,0,0,0-53,53,53,53,0,0,0,53,53,52.69,52.69,0,0,0,32.76-11.34Z"/><path class="cls-100" d="M754.38,2.16a44.83,44.83,0,0,0-12.94-36,44.86,44.86,0,0,0-63.46,0,44.91,44.91,0,0,0,0,63.5,44.86,44.86,0,0,0,57.72,4.86,54.11,54.11,0,0,0-.71,8.69A53,53,0,0,0,840,53.8,62.27,62.27,0,0,0,900.12,60a98,98,0,1,0,163-97.62,97.9,97.9,0,0,0-138.49,0l-.94,1c-1.28-1.56-2.65-3.08-4.11-4.54a62.18,62.18,0,0,0-88,0,62,62,0,0,0-17.93,38A52.72,52.72,0,0,0,788-9.87c-1.35,0-2.7,0-4,.15A32.65,32.65,0,0,0,757.84-.45C756.65.37,755.49,1.24,754.38,2.16Z"/></g></g><g id="Karte_V2" data-name="Karte V2"><ellipse class="cls-22" cx="1106.01" cy="532.04" rx="18.73" ry="3.63"/><line class="cls-103" x1="1098.58" y1="478.26" x2="1098.58" y2="523.72"/><line class="cls-104" x1="1098.58" y1="517.55" x2="1098.58" y2="528.77"/><line class="cls-105" x1="1098.58" y1="511" x2="1098.58" y2="523.5"/><line class="cls-103" x1="1113.35" y1="478.26" x2="1113.35" y2="523.72"/><line class="cls-104" x1="1113.35" y1="517.55" x2="1113.35" y2="528.77"/><line class="cls-105" x1="1113.35" y1="511" x2="1113.35" y2="523.5"/><rect class="cls-34" x="1102.66" y="423.19" width="6.61" height="6.61"/><path class="cls-35" d="M1106,425a9.53,9.53,0,0,1-3.31-.6v1.55a9.4,9.4,0,0,0,6.61,0v-1.55A9.52,9.52,0,0,1,1106,425Z"/><path class="cls-106" d="M1087.46,486.51V443c0-6.54,8.9-12.07,19.44-12.07"/><line class="cls-107" x1="1087.46" y1="489.67" x2="1087.46" y2="483.34"/><line class="cls-108" x1="1087.46" y1="485.72" x2="1087.46" y2="449.97"/><path class="cls-106" d="M1124.56,486.51V443c0-6.54-8.9-12.07-19.44-12.07"/><line class="cls-107" x1="1124.56" y1="489.67" x2="1124.56" y2="483.34"/><line class="cls-108" x1="1124.56" y1="485.72" x2="1124.56" y2="449.97"/><path class="cls-20" d="M1121.33,481.8h-30.72V443A15.35,15.35,0,0,1,1106,427.63h0A15.36,15.36,0,0,1,1121.33,443Z"/><path d="M1094.89,403v10.84a2.79,2.79,0,0,0,2.79,2.79h16.58a2.79,2.79,0,0,0,2.79-2.79V403Z"/><path class="cls-39" d="M1115.58,415.63a9.62,9.62,0,1,1-19.23,0V403.81h19.23Z"/><path class="cls-39" d="M1115.58,415.63a9.62,9.62,0,1,1-19.23,0V403.81h19.23Z"/><path class="cls-1" d="M1106,422.07a6.44,6.44,0,0,1-6.44-6.44"/><path class="cls-40" d="M1094.89,401v3.52c2,1.61,6.22,2.72,11.08,2.72s8.89-1.07,11-2.63V401Z"/><ellipse class="cls-39" cx="1115.58" cy="413.79" rx="2.02" ry="2.89"/><ellipse class="cls-39" cx="1095.75" cy="413.79" rx="2.02" ry="2.89"/><circle cx="1111.29" cy="409.05" r="0.95"/><circle cx="1101.45" cy="409.05" r="0.95"/><path d="M1117.05,403.37v-.61a2.79,2.79,0,0,0-2.41-2.76l-8.67-1.21-8.68,1.21a2.78,2.78,0,0,0-2.4,2.76v.61Z"/><path d="M1105.84,402.36h-10.95V405s6-1.59,10.82,0v0l.06,0,.07,0v0c4.79-1.55,11.21.42,11.21.42v-2.65Z"/><rect class="cls-109" x="1091.05" y="399.57" width="29.84" height="3.36"/><path class="cls-110" d="M1106,405.76c6.84,0,12.38-2.2,12.38-4.91h-24.76C1093.59,403.56,1099.13,405.76,1106,405.76Z"/><path class="cls-4" d="M1106,387.05a14.31,14.31,0,0,0-14.31,14.3h28.62A14.31,14.31,0,0,0,1106,387.05Z"/><rect class="cls-25" x="1091.05" y="399.52" width="29.84" height="1.83"/><g class="cls-111"><path class="cls-112" d="M1094.72,398.07a.83.83,0,0,1-.22,0,.74.74,0,0,1-.48-.92,12.22,12.22,0,0,1,7.55-7.78.73.73,0,0,1,.93.45.72.72,0,0,1-.45.93,10.76,10.76,0,0,0-6.63,6.84A.74.74,0,0,1,1094.72,398.07Z"/></g><path class="cls-19" d="M1112.66,392.93h-12.14a.56.56,0,0,0-.55.57v3.74a.56.56,0,0,0,.55.57h9.32v1l.75-1h2.07a.59.59,0,0,0,.59-.57V393.5A.59.59,0,0,0,1112.66,392.93Z"/><path class="cls-113" d="M1101.73,393.73l-1,2.32h.44l.19-.46h1l.19.46h.44l-1-2.32Zm-.21,1.52.38-.95.39.95Z"/><path class="cls-113" d="M1104.17,393.73h-.88v2.32h.41v-.81h.47a.76.76,0,1,0,0-1.51Zm0,1.13h-.45v-.75h.45a.38.38,0,0,1,0,.75Z"/><path class="cls-113" d="M1105.61,395.24h.47a.76.76,0,1,0,0-1.51h-.89v2.32h.42Zm0-1.13h.45a.38.38,0,0,1,0,.75h-.45Z"/><path class="cls-113" d="M1109,393.73h-.41v1.39c0,.41-.21.59-.53.59s-.52-.18-.52-.59v-1.39h-.42v1.43a.94.94,0,0,0,1.88,0Z"/><rect class="cls-113" x="1109.33" y="394.37" width="0.4" height="1.68"/><path class="cls-113" d="M1109.53,393.7a.24.24,0,1,0,.24.24A.24.24,0,0,0,1109.53,393.7Z"/><path class="cls-113" d="M1111.24,396.1a1.21,1.21,0,1,0-1.23-1.2A1.2,1.2,0,0,0,1111.24,396.1Zm0-2a.83.83,0,0,1,0,1.65.8.8,0,0,1-.82-.82A.81.81,0,0,1,1111.24,394.07Z"/><path class="cls-113" d="M1100.79,396.84a.17.17,0,0,0,.14.09c.08,0,.1-.05.1-.08s0-.06-.12-.09-.16-.07-.16-.17a.16.16,0,0,1,.18-.15.21.21,0,0,1,.17.09l-.07.05a.12.12,0,0,0-.1-.05s-.08,0-.08.06.05.06.13.09.15.09.15.17-.07.17-.2.17a.21.21,0,0,1-.21-.13Z"/><path class="cls-113" d="M1101.16,396.45h.1l.11.37.12-.37h.07l.12.37.11-.37h.09l-.16.56h-.08l-.12-.38-.11.38h-.08Z"/><path class="cls-113" d="M1102,396.45h.1V397h-.1Z"/><path class="cls-113" d="M1102.23,396.84a.15.15,0,0,0,.14.09c.08,0,.09-.05.09-.08s0-.06-.11-.09-.16-.07-.16-.17a.16.16,0,0,1,.17-.15.18.18,0,0,1,.17.09l-.07.05a.11.11,0,0,0-.1-.05.07.07,0,0,0-.07.06c0,.05,0,.06.12.09s.15.09.15.17-.06.17-.19.17a.23.23,0,0,1-.22-.13Z"/><path class="cls-113" d="M1102.7,396.84a.15.15,0,0,0,.14.09.08.08,0,0,0,.09-.08c0-.05,0-.06-.11-.09s-.16-.07-.16-.17a.16.16,0,0,1,.17-.15.19.19,0,0,1,.17.09l-.07.05a.11.11,0,0,0-.1-.05.07.07,0,0,0-.07.06c0,.05,0,.06.12.09s.15.09.15.17-.06.17-.19.17a.23.23,0,0,1-.22-.13Z"/><path class="cls-113" d="M1103.73,396.44a.3.3,0,0,1,.22.1l-.07.06a.21.21,0,0,0-.15-.07.2.2,0,0,0,0,.4.21.21,0,0,0,.15-.07l.07.05a.28.28,0,0,1-.22.11.29.29,0,0,1-.3-.29A.29.29,0,0,1,1103.73,396.44Z"/><path class="cls-113" d="M1104.29,396.44a.29.29,0,1,1-.3.29A.29.29,0,0,1,1104.29,396.44Zm0,.49a.2.2,0,0,0,0-.4.2.2,0,0,0,0,.4Z"/><path class="cls-113" d="M1104.68,396.45h.09l.29.39v-.39h.1V397h-.08l-.3-.4v.4h-.1Z"/><path class="cls-113" d="M1105.39,396.54h-.15v-.09h.4v.09h-.15V397h-.1Z"/><path class="cls-113" d="M1105.85,396.45h.08l.24.56h-.11l0-.11h-.25l0,.11h-.1Zm.13.36-.09-.22-.09.22Z"/><path class="cls-113" d="M1106.25,396.45h.1V397h-.1Z"/><path class="cls-113" d="M1106.48,396.45h.09l.29.39v-.39h.1V397h-.08l-.3-.4v.4h-.1Z"/><path class="cls-113" d="M1107.1,396.45h.35v.09h-.26v.13h.24v.09h-.24v.16h.26V397h-.35Z"/><path class="cls-113" d="M1107.57,396.45h.21a.18.18,0,0,1,.08.34l.14.22h-.12l-.11-.2h-.1v.2h-.1Zm.2.27a.08.08,0,0,0,.09-.09.08.08,0,0,0-.08-.09h-.11v.18Z"/><path class="cls-113" d="M1108.42,396.45h.21a.18.18,0,0,1,0,.36h-.11v.2h-.1Zm.2.27a.09.09,0,1,0,0-.18h-.1v.18Z"/><path class="cls-113" d="M1108.9,396.45h.1v.47h.22V397h-.32Z"/><path class="cls-113" d="M1109.51,396.45h.08l.23.56h-.1l0-.11h-.24l0,.11h-.1Zm.13.36-.09-.22-.09.22Z"/><path class="cls-113" d="M1110,396.54h-.15v-.09h.4v.09h-.15V397h-.1Z"/><path class="cls-113" d="M1110.29,396.45h.33v.09h-.24v.14h.22v.09h-.22V397h-.09Z"/><path class="cls-113" d="M1111,396.44a.29.29,0,1,1-.3.29A.29.29,0,0,1,1111,396.44Zm0,.49a.2.2,0,0,0,0-.4.2.2,0,0,0,0,.4Z"/><path class="cls-113" d="M1111.37,396.45h.22a.18.18,0,0,1,.08.34l.13.22h-.11l-.12-.2h-.1v.2h-.1Zm.21.27a.09.09,0,0,0,.09-.09.09.09,0,0,0-.08-.09h-.12v.18Z"/><path class="cls-113" d="M1111.89,396.45h.08l.2.31.2-.31h.08V397h-.09v-.38l-.19.29-.19-.29V397h-.09Z"/><ellipse class="cls-22" cx="1186.65" cy="530.2" rx="18.73" ry="3.63"/><line class="cls-114" x1="1179.7" y1="476.42" x2="1192.81" y2="519.95"/><line class="cls-104" x1="1191.03" y1="514.05" x2="1194.27" y2="524.78"/><line class="cls-105" x1="1189.51" y1="507.8" x2="1192.75" y2="519.73"/><line class="cls-114" x1="1179.7" y1="476.42" x2="1179.7" y2="521.88"/><line class="cls-104" x1="1179.7" y1="515.72" x2="1179.7" y2="526.93"/><line class="cls-105" x1="1179.7" y1="509.17" x2="1179.7" y2="521.66"/><g class="cls-52"><polygon points="1184.31 507.71 1188.4 521.28 1189.97 526.48 1184.64 480.54 1184.31 475.74 1184.31 476.42 1184.31 507.71"/></g><rect class="cls-34" x="1176.39" y="421.35" width="6.61" height="6.61"/><path class="cls-96" d="M1164.34,441.85a15.36,15.36,0,0,1,15.36-15.36h0a15.36,15.36,0,0,1,15.36,15.36v38.82h-30.72Z"/><path class="cls-39" d="M1170.09,413.79a9.61,9.61,0,1,0,19.22,0V402h-19.22Z"/><path class="cls-39" d="M1170.09,413.79a9.61,9.61,0,1,0,19.22,0V402h-19.22Z"/><path class="cls-1" d="M1172.64,420.23a6.42,6.42,0,0,0,4.55-1.88"/><path class="cls-35" d="M1179.7,423.41a9.57,9.57,0,0,1-3.31-.6v1.55a9.58,9.58,0,0,0,6.62,0v-1.55A9.61,9.61,0,0,1,1179.7,423.41Z"/><circle cx="1173.59" cy="407.21" r="0.95"/><path class="cls-53" d="M1167,395.89h22.25a3.14,3.14,0,0,1,3.23,3.05v11.22a3.14,3.14,0,0,1-3.23,3.06h0a9.74,9.74,0,0,1-9-5.64,6.87,6.87,0,0,0-2.88-3.24,8.35,8.35,0,0,0-3.24-.85,7.82,7.82,0,0,1-7.17-7.59Z"/><path class="cls-39" d="M1179,409.34a2.44,2.44,0,1,0,3-2.23A2.65,2.65,0,0,0,1179,409.34Z"/><g class="cls-52"><path d="M1181.35,431.8a3.3,3.3,0,0,0-3.3,3.3v17.62a4.62,4.62,0,0,1-4.61,4.61h-9.1v6.59h9.1a11.21,11.21,0,0,0,11.2-11.2V435.1A3.29,3.29,0,0,0,1181.35,431.8Z"/></g><path class="cls-115" d="M1179.7,432.45v17.62a7.91,7.91,0,0,1-7.91,7.91h-24.47"/><line class="cls-108" x1="1156.05" y1="457.98" x2="1148.7" y2="457.98"/><line class="cls-107" x1="1150.78" y1="457.98" x2="1146.07" y2="457.98"/></g><g id="rancherhero"><rect class="cls-91" x="106.79" y="269.57" width="51.33" height="51.33"/><polygon class="cls-22" points="145.14 490.25 105.34 490.25 105.34 478.29 145.14 490.25"/><rect class="cls-93" x="100.49" y="263.74" width="5.4" height="226.51"/><rect class="cls-94" x="103.19" y="263.74" width="2.7" height="226.51"/><rect class="cls-95" x="99.59" y="266.19" width="7.2" height="58.08"/><rect class="cls-96" x="103.19" y="266.19" width="3.6" height="58.08"/><rect class="cls-92" x="106.79" y="269.57" width="11.27" height="51.33"/><path class="cls-122" d="M138.28,290.08a1.11,1.11,0,0,0-.43.85c0,.65,0,1.3,0,1.94a1.07,1.07,0,0,0,1,1.05h1.78c.16,0,.21.05.21.21,0,.88,0,1.76,0,2.64a.68.68,0,0,1-.78.76c-1.14,0-2.29,0-3.44,0a.66.66,0,0,1-.74-.75c0-.85,0-1.7,0-2.56a.67.67,0,0,0-.74-.74h-9a.64.64,0,0,0-.7.71v2.56a.71.71,0,0,1-.79.79h-3.42a.69.69,0,0,1-.77-.78q0-3.72,0-7.46c0-.06,0-.15,0-.18s-.12.05-.17.09L119,290.26c-.17.13-.25.11-.39-.05a4.39,4.39,0,0,0-.33-.4.22.22,0,0,1,0-.32l1.49-2.26.93-1.44a.69.69,0,0,1,.59-.28h12.68a.67.67,0,0,1,.7.87c-.09.49-.18,1-.25,1.46a.66.66,0,0,0,.63.78h2.66a.58.58,0,0,0,.56-.38c0-.07.05-.16-.08-.14a10.39,10.39,0,0,1-1.58,0,3.09,3.09,0,0,1-.91,0A.88.88,0,0,1,135,287c.11-.61.19-1.22.31-1.83a2.09,2.09,0,0,1,.3-.9c.05-.08.1-.17.21-.16s.15.1.19.18a2.2,2.2,0,0,1,.13.8.43.43,0,0,1,0,.16c0,.17,0,.22.21.22h5.92a1.14,1.14,0,0,1,1,.46,1,1,0,0,1,.19.62c0,1.92,0,3.83,0,5.75a1.07,1.07,0,0,1-1.09,1.09h-3a1.11,1.11,0,0,1-1.06-1.13c0-.7,0-1.39,0-2.08C138.3,290.18,138.29,290.16,138.28,290.08Z"/><path class="cls-123" d="M109.18,304.37c0-1.25,0-2.5,0-3.76,0-.16,0-.22.22-.22,1.17,0,2.34,0,3.51,0a2.19,2.19,0,0,1,1.88,1,2.28,2.28,0,0,1,.17,1.84,2.17,2.17,0,0,1-1.3,1.39c-.09,0-.21.06-.08.18a3.57,3.57,0,0,1,.66,1.13,2.11,2.11,0,0,0,.54.78.89.89,0,0,0,.69.14c.07,0,.1-.06.13-.13.28-.85.56-1.69.85-2.54l.54-1.6c.24-.7.48-1.4.71-2.1a.2.2,0,0,1,.22-.16h1.64c.1,0,.18,0,.23.13.25.79.52,1.57.78,2.35.34,1,.67,2,1,3l.75,2.2c.09.25.08.27-.19.27h-1.44a.3.3,0,0,1-.35-.25c-.1-.37-.23-.72-.34-1.09a.2.2,0,0,0-.23-.16h-2.34c-.13,0-.19,0-.22.16-.12.39-.25.77-.37,1.16,0,.13-.09.18-.23.18-.63,0-1.27,0-1.9,0a1.78,1.78,0,0,1-1.76-.93,13.52,13.52,0,0,1-.62-1.34,3,3,0,0,0-.37-.68.71.71,0,0,0-.72-.23c-.12,0-.1.13-.1.21v2.52c0,.43,0,.43-.43.43h-1.32c-.16,0-.22,0-.22-.21C109.18,306.88,109.18,305.62,109.18,304.37Zm2-1.58c0,.27,0,.54,0,.8s.06.21.2.2.48,0,.72,0a1,1,0,0,0,1-1.37.74.74,0,0,0-.68-.58,9.74,9.74,0,0,0-1.08,0c-.13,0-.16.06-.15.17Zm7.44,2.58h.68c.18,0,.19-.05.14-.21a11.48,11.48,0,0,1-.73-2.7s0-.09-.06-.09-.06.06-.06.1a7.75,7.75,0,0,1-.37,1.51l-.41,1.23c0,.13,0,.17.13.16Z"/><path class="cls-123" d="M127.33,305.73c0-.21,0-.37,0-.53-.09-1.54,0-3.09,0-4.64,0-.13,0-.17.18-.17h1.2c.17,0,.22.05.22.22v7.48c0,.19,0,.26-.24.25H127a.22.22,0,0,1-.23-.14l-1.9-3.44a9.44,9.44,0,0,1-.71-1.51.75.75,0,0,0-.08-.14,1.28,1.28,0,0,0,0,.48,9.59,9.59,0,0,1,.06,1.07v3.48c0,.16,0,.21-.2.2h-1.2c-.16,0-.22,0-.22-.21,0-1.43,0-2.85,0-4.28,0-1.07,0-2.14,0-3.22,0-.18,0-.24.24-.24h1.68a.3.3,0,0,1,.29.18c.64,1.21,1.28,2.41,1.91,3.62a9.81,9.81,0,0,1,.51,1.15A1.21,1.21,0,0,0,127.33,305.73Z"/><path class="cls-123" d="M142.77,304.37c0,1.25,0,2.5,0,3.76,0,.16,0,.21-.22.21H141c-.15,0-.2,0-.2-.19,0-1,0-2,0-3,0-.15,0-.21-.2-.21q-1,0-2,0c-.18,0-.21.07-.21.22,0,1,0,2,0,2.94,0,.17,0,.22-.21.22h-1.54c-.16,0-.22,0-.22-.21v-7.51c0-.18,0-.23.23-.23h1.52c.16,0,.22.05.22.22,0,.85,0,1.7,0,2.55,0,.2.05.26.25.25.67,0,1.33,0,2,0,.16,0,.2-.06.2-.21,0-.86,0-1.73,0-2.6,0-.17,0-.21.22-.21h1.48c.18,0,.25,0,.25.24C142.77,301.88,142.77,303.12,142.77,304.37Z"/><path class="cls-123" d="M149.36,304.36c0-1.24,0-2.49,0-3.74,0-.19.06-.23.24-.23,1.17,0,2.33,0,3.5,0a2.27,2.27,0,0,1,1.68.8,2.07,2.07,0,0,1,.44,1.53,2.16,2.16,0,0,1-1.44,1.95c-.11,0-.13.09-.05.17a5,5,0,0,1,.8,1.37c.24.45.52.78,1.09.68.1,0,.12,0,.11.12,0,.37-.07.74-.11,1.12a.15.15,0,0,1-.11.14,2.08,2.08,0,0,1-2.17-.57,4.51,4.51,0,0,1-.69-1.3,5.69,5.69,0,0,0-.47-1,.72.72,0,0,0-.78-.29c-.11,0-.09.13-.09.21,0,.9,0,1.8,0,2.7,0,.19,0,.26-.24.25h-1.5c-.17,0-.21-.06-.21-.22C149.37,306.87,149.36,305.61,149.36,304.36Zm1.94-1.57h0c0,.28,0,.56,0,.84,0,.09,0,.16.13.16a4.25,4.25,0,0,0,1.07-.06,1,1,0,0,0,.68-1.44.81.81,0,0,0-.65-.47c-.35,0-.71,0-1.07,0-.12,0-.16.06-.16.17Z"/><path class="cls-123" d="M129.31,304.3a5.81,5.81,0,0,1,.39-2.16,2.94,2.94,0,0,1,2.27-1.8,4.79,4.79,0,0,1,2.32.09,2.15,2.15,0,0,1,1.67,2c0,.2,0,.4,0,.6s0,.16-.15.17l-1.51.14c-.14,0-.18,0-.16-.16a2,2,0,0,0-.06-.87.88.88,0,0,0-.58-.62,1.43,1.43,0,0,0-1.62.37,2.2,2.2,0,0,0-.42,1,6.59,6.59,0,0,0,0,2.58,1.88,1.88,0,0,0,.55,1.07,1.49,1.49,0,0,0,2.11-.23,1.39,1.39,0,0,0,.19-.82c0-.13,0-.16.15-.15l1.41.15c.12,0,.14.05.15.15a2.39,2.39,0,0,1-1.45,2.31,4.28,4.28,0,0,1-3.47,0,2.74,2.74,0,0,1-1.38-1.48A6.07,6.07,0,0,1,129.31,304.3Z"/><path class="cls-123" d="M143.59,304.37v-3.73c0-.2.06-.25.25-.25h4.71c.29,0,.29,0,.29.28s0,.63,0,.94,0,.23-.22.23h-2.84c-.2,0-.27.05-.26.26,0,.41,0,.83,0,1.25,0,.19.06.24.24.24h2.34c.15,0,.21,0,.2.2,0,.35,0,.7,0,1,0,.16-.05.21-.21.2h-2.35c-.18,0-.22.05-.22.21,0,.5,0,1,0,1.48,0,.16.06.21.21.21h3c.21,0,.26.06.25.26s0,.66,0,1c0,.15-.05.18-.19.18h-5c-.12,0-.17,0-.17-.15,0-1.27,0-2.54,0-3.82Z"/><path class="cls-122" d="M145,288.15h-.89c-.11,0-.18,0-.17-.16v-1c0-.11,0-.16.14-.15h.42a1.09,1.09,0,0,0,1.13-1.12,4.61,4.61,0,0,1,.07-1.11l.06-.21c0-.11.08-.21.2-.22s.19.09.24.18a2.35,2.35,0,0,1,.24.72c.12.67.24,1.35.35,2a.91.91,0,0,1-1,1.08Z"/><g id="erde"><path class="cls-124" d="M97.8,483.17h0l.13,0Z"/><path class="cls-125" d="M81.15,489.93a2.61,2.61,0,0,0,1.33.4h.07A13.41,13.41,0,0,0,88.12,489c.73-.42,1.21-1.14,1.47-1s-1.38,1.39-1.06,1.78a1.68,1.68,0,0,0,2.21-.53c.55-.87.67-.39.67,0s.29.36,1.25-1.25,1.92-1.86,1.92-1.31-.72,1.15-.32,1.38,1.67-.7,1.95-1.47,3.61.4,4.4-.06c-.06-.22-1.06-1.79-1.06-2.06,0-.52-2.2-1.11-1.75-1.31a5.47,5.47,0,0,0-1.07,0C95.06,483.33,82.59,489.24,81.15,489.93Z"/><path class="cls-124" d="M81.15,489.93,81,490a3.16,3.16,0,0,0,1.47.33A2.61,2.61,0,0,1,81.15,489.93Z"/><path class="cls-124" d="M116.47,490.28a2.38,2.38,0,0,0-1.06-.49,69.76,69.76,0,0,1-7.66-2.6c-2.28-1.07-7.19-3.84-10-4A1.26,1.26,0,0,0,97,485c.54-.32,2,3.31,2.92,5.6h16.84A1.42,1.42,0,0,0,116.47,490.28Z"/><path class="cls-124" d="M100,483.64l.11,0Z"/><path class="cls-124" d="M97,485h0c-.8.45-.48.87-.77,1.64s-1.55,1.7-1.95,1.47.32-.83.32-1.38-1-.31-1.92,1.31-1.25,1.61-1.25,1.25-.12-.85-.67,0a1.68,1.68,0,0,1-2.21.53c-.32-.39,1.32-1.64,1.06-1.78s-.74.57-1.47,1a13.41,13.41,0,0,1-5.57,1.32h-.07A3.16,3.16,0,0,1,81,490l-1.13.56h20C99,488.27,97.52,484.64,97,485Z"/></g><path class="cls-116" d="M105.37,326c.61.16,1,.39,1,.64,0,.49-1.42.88-3.17.88s-3.17-.39-3.17-.88c0-.25.38-.48,1-.64"/><rect class="cls-93" x="100.49" y="325.07" width="1.87" height="1.59"/><rect class="cls-94" x="104.52" y="325.07" width="1.37" height="1.59"/></g></g></svg>