<svg xmlns="http://www.w3.org/2000/svg" class="header_image" id="angebot_public_image" xmlns:xlink="http://www.w3.org/1999/xlink" viewBox="0 0 1280 564">
  <defs>
    <clipPath id="a">
      <rect x="606.534" width="673.466" height="316.484" fill="none"/>
    </clipPath>
    <clipPath id="b">
      <rect x="312.798" width="918.752" height="296.256" fill="none"/>
    </clipPath>
    <clipPath id="c">
      <rect x="606.534" y="584" width="673.466" height="316.484" fill="none"/>
    </clipPath>
    <clipPath id="d">
      <rect x="345.423" y="584" width="506.311" height="296.256" fill="none"/>
    </clipPath>
    <symbol id="f" data-name="m_Tobi_kopf_front_2" viewBox="0 0 23.47 38.499">
      <g>
        <g>
          <ellipse cx="21.246" cy="19.701" rx="2.018" ry="2.887" fill="#dc9161"/>
          <circle cx="22.114" cy="20.938" r="0.468" fill="#010100"/>
          <ellipse cx="2.018" cy="19.701" rx="2.018" ry="2.887" fill="#dc9161"/>
          <path d="M21.291,10.436a9.837,9.837,0,0,0-9.013-9.062A9.662,9.662,0,0,0,1.96,10.445l-.028.013v11.33l.027.015a9.623,9.623,0,0,0,7.135,8.746c.1.026.191.05.288.073.17.04.341.077.514.109s.323.052.486.073c.139.018.278.035.419.047.063.005.123.017.185.021.108.007.212,0,.319,0s.217.017.327.017c.063,0,.124-.008.187-.01.164,0,.327-.013.489-.024s.337-.024.5-.044.311-.044.465-.071.335-.058.5-.095c.147-.032.29-.071.434-.11.168-.046.335-.093.5-.148.132-.044.262-.093.391-.142.171-.065.34-.132.506-.206.115-.051.226-.106.339-.162.174-.086.347-.175.516-.271.094-.055.187-.112.28-.169.179-.111.355-.225.526-.347.074-.052.146-.106.218-.161.183-.138.362-.28.535-.431l.155-.14c.185-.168.363-.341.534-.522.034-.036.068-.073.1-.11.182-.2.356-.4.521-.618l.054-.072q.263-.345.493-.714l.018-.03a9.477,9.477,0,0,0,1.41-4.5l.027-.013v-.509l0-9.723Z" fill="#ef9e69"/>
          <circle cx="15.951" cy="15.958" r="0.946" fill="#010100"/>
          <circle cx="7.112" cy="15.958" r="0.946" fill="#010100"/>
        </g>
        <g>
          <path d="M10.863,32.86a11.2,11.2,0,0,1-3.531-.825V38.5h8V32.27a11.536,11.536,0,0,1-3.7.615Q11.25,32.885,10.863,32.86Z" fill="#dc9161"/>
          <path d="M10.992,30.864a9.19,9.19,0,0,1-3.66-1.027v2.2a11.2,11.2,0,0,0,3.531.825q.387.026.769.025a11.536,11.536,0,0,0,3.7-.615V30.134A9.592,9.592,0,0,1,10.992,30.864Z" fill="#c98559"/>
        </g>
        <path d="M21.2,16.606v2.433c0,2.757-1.758,4.024-4.112,4.782l-.3-.438a3.218,3.218,0,0,0-2.65-1.372H9.107a3.22,3.22,0,0,0-2.65,1.372l-.3.438C3.8,23.063,2.145,21.657,2.145,18.9V16.606H1.952l.028.136v8.982A5.371,5.371,0,0,0,7.366,31.08h8.505a5.37,5.37,0,0,0,5.385-5.3c.03-2.84.061-5.849.061-6.29V16.742l.035-.136ZM11.621,26.75a3.379,3.379,0,0,1-3.238-2.339h6.475A3.379,3.379,0,0,1,11.621,26.75Z" fill="#a27d5a"/>
      </g>
      <path d="M2.062,16.678c-.055-2.3-.082-3.607-.078-5.913A4.491,4.491,0,0,1,2.83,8.078q.681-.96,1.4-1.908A5.821,5.821,0,0,1,8.646,4q1.3-.051,2.6-.061c.257,0,.515,0,.772,0q1.3,0,2.6.05a5.825,5.825,0,0,1,4.424,2.151q.721.945,1.407,1.9a4.5,4.5,0,0,1,.857,2.683c.012,2.307-.006,3.611-.052,5.914q.977-3.772,2.051-7.523a4.453,4.453,0,0,0-.885-4.094Q21.174,3.51,19.834,2.039A6.4,6.4,0,0,0,15.4.08q-3.5-.155-7-.01A6.362,6.362,0,0,0,3.855,2.129Q2.421,3.79,1.11,5.5A4.455,4.455,0,0,0,.285,9.338Q1.208,13,2.062,16.678Z" fill="#a27d5a"/>
    </symbol>
    <symbol id="g" data-name="m_arm" viewBox="0 0 6 42.711">
      <g>
        <line x1="3" y1="3" x2="3" y2="14.401" fill="#e89a66" stroke="#e89a66" stroke-linecap="round" stroke-miterlimit="10" stroke-width="6"/>
        <line x1="3" y1="14.401" x2="3" y2="30.801" fill="none" stroke="#ef9e69" stroke-linecap="round" stroke-miterlimit="10" stroke-width="6"/>
        <line x1="3" y1="29.801" x2="3" y2="39.711" fill="none" stroke="#ef9e69" stroke-linecap="round" stroke-miterlimit="10" stroke-width="6"/>
      </g>
    </symbol>
    <symbol id="i" data-name="m_tshirt_black_up_front 2" viewBox="0 0 45.042 52.261">
      <path d="M42.5,15.322a12.485,12.485,0,0,0,2.541-7.277L45.028,0H35.042V4.839a2.494,2.494,0,0,1-2.5,2.494H22.521V26.545H36.056s-.166-3.429,4.167-8.708a15.976,15.976,0,0,0,2.257-2.485l.029-.03Z"/>
      <path d="M2.54,15.322A12.491,12.491,0,0,1,0,8.045L.014,0H10V4.839a2.494,2.494,0,0,0,2.494,2.494H22.521V26.545H8.986s.166-3.429-4.167-8.708a16.033,16.033,0,0,1-2.258-2.485l-.029-.03Z"/>
      <path d="M22.4,7.295h.247A13.376,13.376,0,0,1,36.021,20.671V52.261a0,0,0,0,1,0,0h-27a0,0,0,0,1,0,0V20.671A13.376,13.376,0,0,1,22.4,7.295Z"/>
      <path d="M29.039,15.725H15.96a.685.685,0,0,0-.6.758v5a.7.7,0,0,0,.6.772H26.007v1.35l.808-1.35h2.224a.73.73,0,0,0,.638-.772v-5A.715.715,0,0,0,29.039,15.725Z" fill="#ffd804"/>
    </symbol>
    <symbol id="j" data-name="m_schuhe_sport_front" viewBox="0 0 12 12.229">
      <line x1="6.035" x2="6.035" y2="11.325" fill="none" stroke="#ef9e69" stroke-miterlimit="10" stroke-width="6"/>
      <g>
        <g>
          <rect x="1.5" y="8.4" width="9" height="3.019" fill="#c7d1db"/>
          <path d="M6,5.4a6,6,0,0,0-6,6H12A6,6,0,0,0,6,5.4Z" fill="#c7d1db"/>
          <rect y="11.4" width="12" height="0.828" fill="#c7d1db"/>
        </g>
        <g>
          <rect x="1.5" y="8.4" width="9" height="3.019" fill="#ecf0f2"/>
          <path d="M6,5.4a6,6,0,0,0-6,6H12A6,6,0,0,0,6,5.4Z" fill="#ecf0f2"/>
          <rect y="11.4" width="12" height="0.828" fill="#c7d1db"/>
        </g>
      </g>
    </symbol>
    <symbol id="k" data-name="M_Bein_jeans" viewBox="0 0 11 50.194">
      <line x1="5.5" x2="5.5" y2="24.34" fill="none" stroke="#2d5972" stroke-miterlimit="10" stroke-width="9"/>
      <line x1="5.5" y1="24.34" x2="5.5" y2="45.694" fill="none" stroke="#2d5972" stroke-linecap="round" stroke-miterlimit="10" stroke-width="9"/>
      <line x1="5.5" y1="45.024" x2="5.5" y2="50.194" fill="none" stroke="#537e8e" stroke-miterlimit="10" stroke-width="11"/>
    </symbol>
    <symbol id="n" data-name="m_huefte_front" viewBox="0 0 26.986 15.649">
      <path d="M0,0H26.986a0,0,0,0,1,0,0V2.156A13.493,13.493,0,0,1,13.493,15.649h0A13.493,13.493,0,0,1,0,2.156V0A0,0,0,0,1,0,0Z" fill="#2c5972"/>
      <g>
        <rect width="4.597" height="2.156" fill="#1e1e1c"/>
        <rect x="5.597" width="4.597" height="2.156" fill="#1e1e1c"/>
        <rect x="11.194" width="4.597" height="2.156" fill="#1e1e1c"/>
        <rect x="16.792" width="4.597" height="2.156" fill="#1e1e1c"/>
        <rect x="22.389" width="4.597" height="2.156" fill="#1e1e1c"/>
      </g>
    </symbol>
    <symbol id="o" data-name="shatten" viewBox="0 0 75.929 11.334">
      <ellipse cx="37.965" cy="5.667" rx="37.965" ry="5.667" opacity="0.3"/>
    </symbol>
    <symbol id="e" data-name="Tobi arms up" viewBox="0 0 68.887 189.404">
      <use width="23.47" height="38.499" transform="translate(19.368 8.429) scale(1.25)" xlink:href="#f"/>
      <g>
        <use width="6" height="42.711" transform="translate(15.511 52.639) rotate(180) scale(1.25)" xlink:href="#g"/>
        <use width="6" height="42.711" transform="translate(59.313 52.639) rotate(180) scale(1.25)" xlink:href="#g"/>
        <use width="45.042" height="52.261" transform="translate(5.511 44.739) scale(1.25)" xlink:href="#i"/>
      </g>
      <g>
        <g>
          <use width="12" height="12.229" transform="translate(16.162 168.775) scale(1.25)" xlink:href="#j"/>
          <use width="11" height="50.194" transform="translate(16.787 110.76) scale(1.25)" xlink:href="#k"/>
        </g>
        <g>
          <use width="12" height="12.229" transform="translate(36.246 168.775) scale(1.25)" xlink:href="#j"/>
          <use width="11" height="50.194" transform="translate(36.872 110.76) scale(1.25)" xlink:href="#k"/>
        </g>
        <use width="26.986" height="15.649" transform="translate(16.787 105.548) scale(1.25)" xlink:href="#n"/>
      </g>
      <use width="75.929" height="11.334" transform="translate(0 178.716) scale(0.907 0.943)" xlink:href="#o"/>
    </symbol>
    <symbol id="p" data-name="container_Zeilen" viewBox="0 0 136.991 123.475">
      <path d="M56.986,120.532,67.254,19.656a.268.268,0,0,1,.5,0L78.826,120.532" fill="none" stroke="#4d4d4d" stroke-miterlimit="10"/>
      <g>
        <g>
          <rect y="51.848" width="136.991" height="68.063" fill="#81d4dc"/>
          <g>
            <rect x="4.033" y="55.881" width="128.925" height="59.997" fill="#1d1d1b" opacity="0.05"/>
            <path d="M131.344,57.494v56.77H5.646V57.494h125.7m1.614-1.613H4.033v60H132.958v-60Z" fill="#1d1d1b" opacity="0.1"/>
          </g>
        </g>
        <g>
          <g>
            <path d="M68.871,60.609a2.143,2.143,0,0,0-2.143,2.144V109.72a2.144,2.144,0,0,0,4.287,0V62.753a2.143,2.143,0,0,0-2.144-2.144Z" fill="#7dadba"/>
            <path d="M58.192,60.609a2.143,2.143,0,0,0-2.143,2.144V109.72a2.143,2.143,0,0,0,4.286,0V62.753a2.143,2.143,0,0,0-2.143-2.144Z" fill="#7dadba"/>
            <path d="M47.55,60.609a2.143,2.143,0,0,0-2.143,2.144V109.72a2.143,2.143,0,0,0,4.286,0V62.753a2.192,2.192,0,0,0-2.143-2.144Z" fill="#7dadba"/>
            <path d="M36.871,60.609a2.143,2.143,0,0,0-2.144,2.144V109.72a2.144,2.144,0,0,0,4.287,0V62.753a2.167,2.167,0,0,0-2.143-2.144Z" fill="#7dadba"/>
            <path d="M111.589,60.609a2.143,2.143,0,0,0-2.143,2.144V109.72a2.144,2.144,0,0,0,4.287,0V62.753a2.193,2.193,0,0,0-2.144-2.144Z" fill="#7dadba"/>
            <path d="M122.231,60.609a2.143,2.143,0,0,0-2.143,2.144V109.72a2.143,2.143,0,0,0,4.286,0V62.753a2.143,2.143,0,0,0-2.143-2.144Z" fill="#7dadba"/>
            <path d="M26.191,60.609a2.143,2.143,0,0,0-2.143,2.144V109.72a2.144,2.144,0,0,0,4.287,0V62.753a2.168,2.168,0,0,0-2.144-2.144Z" fill="#7dadba"/>
            <path d="M15.512,60.609a2.143,2.143,0,0,0-2.144,2.144V109.72a2.144,2.144,0,0,0,4.287,0V62.753a2.143,2.143,0,0,0-2.143-2.144Z" fill="#7dadba"/>
            <path d="M100.91,60.609a2.143,2.143,0,0,0-2.144,2.144V109.72a2.144,2.144,0,0,0,4.287,0V62.753a2.167,2.167,0,0,0-2.143-2.144Z" fill="#7dadba"/>
            <path d="M90.23,60.609a2.143,2.143,0,0,0-2.143,2.144V109.72a2.144,2.144,0,0,0,4.287,0V62.753a2.168,2.168,0,0,0-2.144-2.144Z" fill="#7dadba"/>
            <path d="M79.551,60.609a2.143,2.143,0,0,0-2.144,2.144V109.72a2.143,2.143,0,0,0,2.144,2.143,2.119,2.119,0,0,0,2.143-2.143V62.753a2.167,2.167,0,0,0-2.143-2.144Z" fill="#7dadba"/>
          </g>
          <g>
            <path d="M68.5,60.233a2.143,2.143,0,0,0-2.143,2.144v46.967a2.144,2.144,0,0,0,4.287,0V62.377A2.143,2.143,0,0,0,68.5,60.233Z" fill="#91eaf3"/>
            <path d="M57.816,60.233a2.143,2.143,0,0,0-2.144,2.144v46.967a2.144,2.144,0,0,0,4.287,0V62.377a2.143,2.143,0,0,0-2.143-2.144Z" fill="#91eaf3"/>
            <path d="M47.174,60.233a2.143,2.143,0,0,0-2.143,2.144v46.967a2.143,2.143,0,0,0,4.286,0V62.377a2.192,2.192,0,0,0-2.143-2.144Z" fill="#91eaf3"/>
            <path d="M36.495,60.233a2.143,2.143,0,0,0-2.144,2.144v46.967a2.144,2.144,0,0,0,4.287,0V62.377a2.167,2.167,0,0,0-2.143-2.144Z" fill="#91eaf3"/>
            <path d="M111.213,60.233a2.143,2.143,0,0,0-2.143,2.144v46.967a2.144,2.144,0,0,0,4.287,0V62.377a2.193,2.193,0,0,0-2.144-2.144Z" fill="#91eaf3"/>
            <path d="M121.855,60.233a2.143,2.143,0,0,0-2.143,2.144v46.967a2.143,2.143,0,0,0,4.286,0V62.377a2.143,2.143,0,0,0-2.143-2.144Z" fill="#91eaf3"/>
            <path d="M25.815,60.233a2.143,2.143,0,0,0-2.143,2.144v46.967a2.143,2.143,0,1,0,4.286,0V62.377a2.166,2.166,0,0,0-2.143-2.144Z" fill="#91eaf3"/>
            <path d="M15.136,60.233a2.143,2.143,0,0,0-2.144,2.144v46.967a2.144,2.144,0,0,0,4.287,0V62.377a2.143,2.143,0,0,0-2.143-2.144Z" fill="#91eaf3"/>
            <path d="M100.534,60.233a2.143,2.143,0,0,0-2.144,2.144v46.967a2.144,2.144,0,0,0,4.287,0V62.377a2.167,2.167,0,0,0-2.143-2.144Z" fill="#91eaf3"/>
            <path d="M89.854,60.233a2.143,2.143,0,0,0-2.143,2.144v46.967a2.144,2.144,0,0,0,4.287,0V62.377a2.168,2.168,0,0,0-2.144-2.144Z" fill="#91eaf3"/>
            <path d="M79.175,60.233a2.143,2.143,0,0,0-2.144,2.144v46.967a2.142,2.142,0,0,0,2.144,2.143,2.119,2.119,0,0,0,2.143-2.143V62.377a2.167,2.167,0,0,0-2.143-2.144Z" fill="#91eaf3"/>
          </g>
        </g>
      </g>
      <path d="M26.3,120.532,66.564,19.656a.267.267,0,0,1,.5,0l41.075,100.878" fill="none" stroke="#4d4d4d" stroke-miterlimit="10"/>
      <polygon points="61.135 0 72.486 0 66.814 9.275 61.135 0" fill="#ffd301"/>
      <path d="M70.983,14.867a4.172,4.172,0,1,1-4.173-4.174V8.626" fill="none" stroke="#4d4d4d" stroke-miterlimit="10"/>
      <polygon points="18.103 120 18.103 123.475 117.708 123.475 117.708 123.475 117.708 120 18.103 120" fill="#367089"/>
    </symbol>
    <symbol id="u" data-name="f_Kopf_Anna_front" viewBox="0 0 27.523 37.81">
      <path d="M11.923,3.492S24.2-1.242,24.2,19.51c0,5.353,3.3,0,3.3,0l.021,1.212a6.584,6.584,0,0,1-2.431,5.336,5.649,5.649,0,0,1-3.755,1.214c-1.3-.048-2.988-.291-5.45-2.753C7.354,15.987,11.923,3.492,11.923,3.492Z" fill="#5b432d"/>
      <g>
        <path d="M11.3,28.748h0A11.019,11.019,0,0,1,.279,17.729V10.787H22.317v6.942A11.019,11.019,0,0,1,11.3,28.748Z" fill="#745738"/>
        <g>
          <ellipse cx="20.412" cy="18.092" rx="2.018" ry="2.887" fill="#dc9161"/>
          <ellipse cx="2.184" cy="18.092" rx="2.018" ry="2.887" fill="#dc9161"/>
          <path d="M20.872,9.74A9.793,9.793,0,0,0,11.938.678,9.6,9.6,0,0,0,1.712,9.748l-.028.013v11.33l.027.015a9.6,9.6,0,0,0,7.072,8.746c.094.026.189.05.285.073.169.04.338.077.51.109s.319.052.481.073c.138.018.276.035.416.047.062,0,.121.017.183.021.107.007.21,0,.316,0s.215.017.324.017c.063,0,.123-.008.185-.01.163,0,.324-.013.485-.024s.334-.024.5-.044.309-.044.462-.071.331-.058.495-.095c.145-.032.287-.071.429-.11.167-.046.332-.093.495-.148.131-.044.259-.092.388-.142.169-.065.337-.132.5-.206.113-.051.224-.106.336-.162.173-.086.344-.175.511-.271.094-.055.186-.112.278-.169.177-.111.352-.225.522-.347.073-.052.144-.106.215-.161.182-.138.359-.28.53-.431.052-.046.1-.093.154-.14.184-.167.36-.341.53-.522.034-.036.066-.073.1-.11.18-.2.352-.4.516-.618l.053-.072q.261-.345.489-.714l.018-.03a9.554,9.554,0,0,0,1.4-4.5l.026-.013v-.509l0-9.723Z" fill="#ef9e69"/>
          <circle cx="15.618" cy="14.002" r="0.946" fill="#010100"/>
          <circle cx="6.778" cy="14.002" r="0.946" fill="#010100"/>
        </g>
        <g>
          <path d="M10.529,32.171A11.2,11.2,0,0,1,7,31.345V37.81h8V31.581a11.536,11.536,0,0,1-3.7.615C11.043,32.2,10.788,32.188,10.529,32.171Z" fill="#dc9161"/>
          <path d="M10.658,30.175A9.18,9.18,0,0,1,7,29.147v2.2a11.2,11.2,0,0,0,3.531.826c.259.017.514.025.769.025a11.536,11.536,0,0,0,3.7-.615V29.445A9.592,9.592,0,0,1,10.658,30.175Z" fill="#c98559"/>
        </g>
        <path d="M20.635,3.114C18.841,1.32,17.412,0,11.743,0h-.889C5.907,0,3.293,1.783,1.961,3.114A7.1,7.1,0,0,0,.279,8.188v7.118H1.685V10.212A5.332,5.332,0,0,1,7.017,4.881H15.58a5.331,5.331,0,0,1,5.331,5.331v5.094h1.406V8.188A7.1,7.1,0,0,0,20.635,3.114Z" fill="#745738"/>
      </g>
      <circle cx="21.744" cy="20.564" r="0.777" fill="#fff"/>
      <circle cx="0.777" cy="20.564" r="0.777" fill="#fff"/>
      <path d="M11.3,23.506c1.9,0,3.438-.777,3.438-1.736H7.86C7.86,22.729,9.4,23.506,11.3,23.506Z" fill="#ca875a"/>
    </symbol>
    <symbol id="v" data-name="f_arm" viewBox="0 0 5 41.711">
      <g>
        <line x1="2.5" y1="2.5" x2="2.5" y2="13.901" fill="#e89a66" stroke="#e89a66" stroke-linecap="round" stroke-miterlimit="10" stroke-width="5"/>
        <line x1="2.5" y1="13.901" x2="2.5" y2="30.301" fill="none" stroke="#ef9e69" stroke-linecap="round" stroke-miterlimit="10" stroke-width="5"/>
        <line x1="2.5" y1="29.301" x2="2.5" y2="39.211" fill="none" stroke="#ef9e69" stroke-linecap="round" stroke-miterlimit="10" stroke-width="5"/>
      </g>
    </symbol>
    <symbol id="x" data-name="f_schuhe_sport_front 3" viewBox="0 0 10 11.856">
      <line x1="5" x2="5" y2="11.325" fill="none" stroke="#4f2b13" stroke-miterlimit="10" stroke-width="5"/>
      <g>
        <g>
          <rect x="1.25" y="8.27" width="7.5" height="2.828" fill="#c7d1db"/>
          <path d="M5,5.459c-2.761,0-5,2.517-5,5.621H10C10,7.976,7.762,5.459,5,5.459Z" fill="#c7d1db"/>
          <rect y="11.08" width="10" height="0.776" fill="#c7d1db"/>
        </g>
        <g>
          <rect x="1.25" y="8.27" width="7.5" height="2.828" fill="#ecf0f2"/>
          <path d="M5,5.459c-2.761,0-5,2.517-5,5.621H10C10,7.976,7.762,5.459,5,5.459Z" fill="#4f2b13"/>
          <rect y="11.08" width="10" height="0.776" fill="#272829"/>
        </g>
      </g>
    </symbol>
    <symbol id="y" data-name="f_tshirt_blue_front" viewBox="0 0 40 42.466">
      <path d="M16.028.038h7.944A16.028,16.028,0,0,1,40,16.066v5.972a0,0,0,0,1,0,0H0a0,0,0,0,1,0,0V16.066A16.028,16.028,0,0,1,16.028.038Z" fill="#0b3046"/>
      <path d="M20,0h0A12,12,0,0,1,32,12V42.466a0,0,0,0,1,0,0H8a0,0,0,0,1,0,0V12A12,12,0,0,1,20,0Z" fill="#0b3046"/>
      <path d="M26.519,13.29H13.439a.685.685,0,0,0-.6.758v5.005a.7.7,0,0,0,.6.773H23.486v1.35l.808-1.35h2.225a.73.73,0,0,0,.637-.773V14.048A.716.716,0,0,0,26.519,13.29Z" fill="#ffd804"/>
    </symbol>
    <symbol id="z" data-name="S_bein_jeans 4" viewBox="0 0 8 48.09">
      <g>
        <line x1="4" x2="4" y2="23.243" fill="none" stroke="#39728b" stroke-miterlimit="10" stroke-width="8"/>
        <line x1="4" y1="23.243" x2="4" y2="48.09" fill="none" stroke="#39728b" stroke-miterlimit="10" stroke-width="8"/>
      </g>
    </symbol>
    <symbol id="ac" data-name="f_huefte_front 3" viewBox="0 0 24 13">
      <path d="M0,0H24a0,0,0,0,1,0,0V1.4A11.6,11.6,0,0,1,12.4,13h-.8A11.6,11.6,0,0,1,0,1.4V0A0,0,0,0,1,0,0Z" fill="#39728b"/>
      <polygon points="21.412 0 19.911 0 19.022 0 14.934 0 14.044 0 9.956 0 9.066 0 4.978 0 0 0 0 1.791 4.978 1.791 9.066 1.791 9.956 1.791 14.044 1.791 14.934 1.791 19.022 1.791 19.911 1.791 21.412 1.791 24 1.791 24 0 21.412 0" fill="#4f2b13"/>
    </symbol>
    <symbol id="s" data-name="Anna_Pfeifhofer" viewBox="0 0 49.641 132.781">
      <use width="75.929" height="11.334" transform="translate(0 125.079) scale(0.654 0.68)" xlink:href="#o"/>
      <use width="27.523" height="37.81" transform="translate(13.822)" xlink:href="#u"/>
      <g>
        <use width="5" height="41.711" transform="translate(6.153 48.292) scale(1 0.947)" xlink:href="#v"/>
        <use width="5" height="41.711" transform="translate(38.302 48.292) scale(1 0.947)" xlink:href="#v"/>
        <use width="10" height="11.856" transform="translate(12.888 117.934) scale(1 0.947)" xlink:href="#x"/>
        <g>
          <use width="40" height="42.466" transform="translate(4.821 33.56) scale(1 0.947)" xlink:href="#y"/>
          <g>
            <use width="8" height="48.09" transform="translate(13.888 75.189) scale(1 0.947)" xlink:href="#z"/>
            <use width="10" height="11.856" transform="translate(26.788 118.071) scale(1 0.947)" xlink:href="#x"/>
            <use width="8" height="48.09" transform="translate(27.788 75.325) scale(1 0.947)" xlink:href="#z"/>
            <use width="24" height="13" transform="translate(12.802 73.781) scale(1 0.947)" xlink:href="#ac"/>
          </g>
        </g>
      </g>
    </symbol>
    <symbol id="ag" data-name="m_arm_gebeugter 2" viewBox="0 0 22.765 36.363">
      <g>
        <line x1="19.765" y1="3" x2="19.765" y2="14.401" fill="#e89a66" stroke="#e89a66" stroke-linecap="round" stroke-miterlimit="10" stroke-width="6"/>
        <line x1="19.765" y1="14.401" x2="8.901" y2="26.688" fill="none" stroke="#ef9e69" stroke-linecap="round" stroke-miterlimit="10" stroke-width="6"/>
        <line x1="9.564" y1="25.939" x2="3" y2="33.363" fill="none" stroke="#ef9e69" stroke-linecap="round" stroke-miterlimit="10" stroke-width="6"/>
      </g>
    </symbol>
    <symbol id="ah" data-name="L_hemd_blau_front 5" viewBox="0 0 45 45.991">
      <path d="M30.211.155c-.2-.034-4.148-.049-4.148-.049V.135L15.239.083A17.854,17.854,0,0,0,0,17.735v4.632H45V17.735A17.855,17.855,0,0,0,30.211.155Z" fill="#585e61"/>
      <g>
        <g>
          <path d="M22.388.056A13.377,13.377,0,0,0,9.011,13.433V45.991h13.5V.056Z" fill="#474e51"/>
          <path d="M36.011,13.433A13.377,13.377,0,0,0,22.635.056h-.124V45.991h13.5Z" fill="#474e51"/>
        </g>
        <polygon points="22.583 8.98 22.583 9.04 22.648 9.078 22.583 8.98" fill="#075d79"/>
      </g>
      <g>
        <polygon points="26.064 0.135 26.063 0.106 26.058 0.135 26.064 0.135" fill="none"/>
        <path d="M23.23.49l.188-.451L15.322,0c-.355.053-.7.131-1.051.2l.1.236,1.944,4.675,2.5,3.782.066.1,2.429-3.881Z" fill="#dc9161"/>
        <polygon points="18.879 8.996 22.573 6.757 21.308 5.115 18.879 8.996" fill="#4a4f52"/>
        <polygon points="23.23 0.49 21.308 5.115 22.573 6.757 24.519 9.282 25.846 1.732 26.141 0.052 23.418 0.039 23.23 0.49" fill="#585e61"/>
        <polygon points="15.057 6.744 18.813 8.957 18.813 8.897 16.313 5.115 15.057 6.744" fill="#4a4f52"/>
        <path d="M13.1,9.282l1.956-2.538,1.256-1.629L14.369.44,14.271.2a17.717,17.717,0,0,0-2.63.768l.118.673Z" fill="#6a6e70"/>
      </g>
      <polygon points="22.795 45.862 18.796 45.862 18.731 9.04 22.573 6.757 22.795 45.862" fill="#4a4f52"/>
    </symbol>
    <symbol id="ai" data-name="schuhe_black_seite" viewBox="0 0 16 12.81">
      <g>
        <g>
          <rect x="7" width="9" height="12" fill="#c7d1db"/>
          <rect y="11.981" width="16" height="0.828" fill="#c7d1db"/>
        </g>
        <g>
          <rect x="7" width="9" height="12"/>
          <rect y="11.981" width="16" height="0.828" fill="#c7d1db"/>
        </g>
      </g>
      <rect x="6.014" y="6" width="9.986" height="6"/>
      <path d="M6.014,6a6,6,0,0,0-6,6h12A6,6,0,0,0,6.014,6Z"/>
    </symbol>
    <symbol id="aj" data-name="M_Bein_dunkel_jeans" viewBox="0 0 9 50.194">
      <line x1="4.5" x2="4.5" y2="24.34" fill="none" stroke="#888" stroke-miterlimit="10" stroke-width="9"/>
      <line x1="4.5" y1="24.34" x2="4.5" y2="45.694" fill="none" stroke="#888" stroke-linecap="round" stroke-miterlimit="10" stroke-width="9"/>
      <line x1="4.5" y1="45.024" x2="4.5" y2="50.194" fill="none" stroke="#888" stroke-miterlimit="10" stroke-width="9"/>
    </symbol>
    <symbol id="am" data-name="m_huefte_front 2" viewBox="0 0 26.986 15.649">
      <path d="M0,0H26.986a0,0,0,0,1,0,0V2.156A13.493,13.493,0,0,1,13.493,15.649h0A13.493,13.493,0,0,1,0,2.156V0A0,0,0,0,1,0,0Z" fill="#888"/>
      <g>
        <rect width="4.597" height="2.156" fill="#1e1e1c"/>
        <rect x="5.597" width="4.597" height="2.156" fill="#1e1e1c"/>
        <rect x="11.194" width="4.597" height="2.156" fill="#1e1e1c"/>
        <rect x="16.792" width="4.597" height="2.156" fill="#1e1e1c"/>
        <rect x="22.389" width="4.597" height="2.156" fill="#1e1e1c"/>
      </g>
    </symbol>
    <symbol id="ae" data-name="Kunde 2" viewBox="0 0 71.318 175.413">
      <g>
        <use width="6" height="42.711" transform="matrix(-1.25, 0, 0, 1.25, 12.733, 62.081)" xlink:href="#g"/>
        <g>
          <g>
            <g>
              <path d="M33.55,36.937a11.467,11.467,0,0,0,4.575-1.285V38.4a14,14,0,0,1-4.414,1.032q-.483.032-.96.031a14.432,14.432,0,0,1-4.626-.769v-2.67A11.985,11.985,0,0,0,33.55,36.937Z" fill="#c98559"/>
              <path d="M33.711,39.432A14,14,0,0,0,38.125,38.4v8.08h-10V38.694a14.432,14.432,0,0,0,4.626.769Q33.228,39.463,33.711,39.432Z" fill="#dc9161"/>
            </g>
            <g>
              <ellipse cx="19.009" cy="27.968" rx="2.523" ry="3.608" transform="translate(-8.417 8.185) rotate(-19.994)" fill="#dc9161"/>
              <path d="M15.208,17.373A12.242,12.242,0,0,1,21.829,2.91,12.008,12.008,0,0,1,37.718,9.194l.038,0L42.24,21.522l.141.386.218.6-.025.028A12.005,12.005,0,0,1,38,35.832c-.1.071-.2.139-.3.207-.181.12-.364.236-.553.346s-.353.2-.533.292c-.155.08-.31.159-.469.233-.07.033-.135.072-.207.1-.122.053-.246.091-.368.14s-.246.111-.374.158c-.074.026-.148.043-.222.068-.193.066-.386.123-.58.178s-.4.115-.6.162-.381.079-.572.114c-.208.038-.414.073-.622.1-.184.023-.368.039-.552.054-.215.017-.429.032-.644.037-.173.005-.344,0-.516,0-.227,0-.452-.011-.677-.027-.155-.012-.309-.029-.463-.047-.241-.027-.48-.059-.717-.1-.134-.023-.266-.051-.4-.079-.257-.054-.51-.114-.762-.184-.108-.03-.215-.064-.322-.1q-.408-.126-.807-.28c-.081-.031-.16-.065-.241-.1-.286-.119-.568-.247-.845-.388l-.164-.086c-.3-.157-.587-.324-.87-.505-.032-.02-.063-.041-.094-.062-.3-.2-.595-.406-.879-.63l-.034-.027a11.935,11.935,0,0,1-3.563-4.683l-.037,0-.218-.6L15.644,18.7Z" fill="#ef9e69"/>
              <circle cx="25.704" cy="19.224" r="1.182" fill="#010100"/>
              <circle cx="36.087" cy="15.446" r="1.182" fill="#010100"/>
            </g>
            <path d="M40.305,16.2l-.226.083-2.618-7.2a3.813,3.813,0,0,0-4.913-2.269L17.5,12.419A3.812,3.812,0,0,0,15.244,17.3l2.578,7.085-.178.065-3.012-4.4a29.541,29.541,0,0,1-3.376-6.573h0A6.692,6.692,0,0,1,15.35,4.937L28.15.28A4.482,4.482,0,0,1,33.923,2.9h0a2.928,2.928,0,0,1,3.859,2.109Z" fill="#736358"/>
          </g>
          <g>
            <use width="22.765" height="36.363" transform="matrix(-1.25, 0, 0, 1.25, 72.068, 59.161)" xlink:href="#ag"/>
            <use width="45" height="45.991" transform="matrix(-1.25, 0, 0, 1.25, 56.25, 41.573)" xlink:href="#ah"/>
          </g>
          <g>
            <g>
              <use width="16" height="12.81" transform="matrix(-1.187, 0, 0, 1.187, 52.783, 160.201)" xlink:href="#ai"/>
              <use width="9" height="50.194" transform="matrix(-1.25, 0, 0, 1.25, 44.761, 102.318)" xlink:href="#aj"/>
            </g>
            <g>
              <use width="16" height="12.81" transform="matrix(-1.187, 0, 0, 1.187, 30.316, 160.133)" xlink:href="#ai"/>
              <use width="9" height="50.194" transform="matrix(-1.25, 0, 0, 1.25, 22.293, 102.318)" xlink:href="#aj"/>
            </g>
            <use width="26.986" height="15.649" transform="matrix(-1.25, 0, 0, 1.25, 44.761, 98.355)" xlink:href="#am"/>
          </g>
        </g>
      </g>
      <path d="M33,29.742c2.223,0,4.026-1.165,4.026-2.6H28.969C28.969,28.577,30.772,29.742,33,29.742Z" fill="#ca875a"/>
    </symbol>
    <symbol id="ar" data-name="f_schuhe_sport_seite" viewBox="0 0 12.25 11.856">
      <line x1="9.156" x2="9.156" y2="11.325" fill="none" stroke="#ef9e69" stroke-miterlimit="10" stroke-width="5"/>
      <g>
        <g>
          <rect x="4.75" y="8.27" width="7.5" height="2.828" fill="#c7d1db"/>
          <path d="M5,5.459c-2.761,0-5,2.517-5,5.621H10C10,7.976,7.762,5.459,5,5.459Z" fill="#c7d1db"/>
          <rect y="11.08" width="12.25" height="0.776" fill="#c7d1db"/>
        </g>
        <g>
          <rect x="4.75" y="8.27" width="7.5" height="2.828" fill="#ecf0f2"/>
          <path d="M5,5.459c-2.761,0-5,2.517-5,5.621H10C10,7.976,7.762,5.459,5,5.459Z" fill="#ecf0f2"/>
          <rect y="11.08" width="12.25" height="0.776" fill="#c7d1db"/>
        </g>
      </g>
      <path d="M.722,9.286l1.169-.849,1.169.849L2.614,7.912l1.169-.849H2.338l-.193-.594a5.375,5.375,0,0,0-1.177,1.3l.2.146Z" fill="#fff"/>
    </symbol>
    <symbol id="as" data-name="S_bein_jeans" viewBox="0 0 9 48">
      <g>
        <line x1="4.5" x2="4.5" y2="23.243" fill="none" stroke="#2d5972" stroke-miterlimit="10" stroke-width="8"/>
        <line x1="4.5" y1="23.243" x2="4.5" y2="46.09" fill="none" stroke="#2d5972" stroke-miterlimit="10" stroke-width="8"/>
        <line x1="4.5" y1="46.09" x2="4.5" y2="48" fill="none" stroke="#537e8e" stroke-miterlimit="10" stroke-width="9"/>
      </g>
    </symbol>
    <symbol id="av" data-name="f_huefte_front" viewBox="0 0 24 13">
      <path d="M0,0H24a0,0,0,0,1,0,0V1.4A11.6,11.6,0,0,1,12.4,13h-.8A11.6,11.6,0,0,1,0,1.4V0A0,0,0,0,1,0,0Z" fill="#2c5972"/>
      <g>
        <rect width="4.089" height="1.791" fill="#c1d44f"/>
        <rect x="4.978" width="4.089" height="1.791" fill="#c1d44f"/>
        <rect x="9.956" width="4.089" height="1.791" fill="#c1d44f"/>
        <rect x="14.934" width="4.089" height="1.791" fill="#c1d44f"/>
        <rect x="19.911" width="4.089" height="1.791" fill="#c1d44f"/>
      </g>
    </symbol>
    <symbol id="aw" data-name="m_Kopf_Valentina_Seite" viewBox="0 0 22.151 54.634">
      <path d="M0,11.073H22.038a0,0,0,0,1,0,0V43.615A11.019,11.019,0,0,1,11.019,54.634h0A11.019,11.019,0,0,1,0,43.615V11.073A0,0,0,0,1,0,11.073Z" fill="#ffe036"/>
      <g>
        <ellipse cx="20.133" cy="19.03" rx="2.018" ry="2.887" fill="#dc9161"/>
        <path d="M20.593,10.026A9.793,9.793,0,0,0,11.659.964a9.606,9.606,0,0,0-10.227,9.07l-.027.013v11.33l.026.015A9.6,9.6,0,0,0,8.5,30.138c.094.026.189.05.284.073.169.04.339.078.511.109s.319.052.481.073c.138.018.276.035.416.047.061.006.121.017.183.021.106.007.21,0,.315.005s.215.016.325.016c.062,0,.123-.008.185-.009.163,0,.324-.014.485-.025s.334-.024.5-.044.309-.044.462-.07.331-.059.494-.095c.145-.033.288-.072.43-.111.166-.046.332-.093.494-.148.132-.044.26-.092.389-.142.169-.065.336-.132.5-.206.113-.051.224-.106.335-.161.174-.087.345-.176.512-.272.094-.055.185-.112.277-.169.178-.11.353-.225.522-.346.073-.053.144-.107.216-.161.182-.138.359-.281.53-.432.052-.045.1-.093.154-.14q.274-.251.53-.522l.1-.11c.181-.2.353-.4.516-.618.019-.023.036-.048.054-.071q.259-.346.489-.715l.017-.029a9.551,9.551,0,0,0,1.4-4.5l.026-.013v-.509l0-9.723Z" fill="#ef9e69"/>
        <circle cx="13.838" cy="14.288" r="0.946" fill="#010100"/>
        <circle cx="4.999" cy="14.288" r="0.946" fill="#010100"/>
      </g>
      <g>
        <path d="M10.25,32.457a11.174,11.174,0,0,1-3.531-.826V38.1h8V31.867a11.54,11.54,0,0,1-3.7.615Q10.636,32.482,10.25,32.457Z" fill="#dc9161"/>
        <path d="M10.379,30.461a9.175,9.175,0,0,1-3.66-1.028v2.2a11.174,11.174,0,0,0,3.531.826q.387.025.769.025a11.54,11.54,0,0,0,3.7-.615V29.731A9.592,9.592,0,0,1,10.379,30.461Z" fill="#c98559"/>
      </g>
      <g>
        <path d="M20.356,3.4C18.115.073,12.407-.436,9.083.286l-.445.1-.445-.1C4.869-.436,2.3,2.6,1.682,3.4A8.321,8.321,0,0,0,0,8.474v7.118H1.406V9.777a2.8,2.8,0,0,1,2.8-2.8H17.835a2.8,2.8,0,0,1,2.8,2.8v5.815h1.406V8.474A9.065,9.065,0,0,0,20.356,3.4Z" fill="#ffe036"/>
        <g>
          <path d="M.707,10.148a16.7,16.7,0,0,0,5.511-3.24H.707Z" fill="#ffe036"/>
          <path d="M21.729,10.148S8.283,8.973,6.218,6.908H21.729Z" fill="#ffe036"/>
        </g>
      </g>
      <path d="M10.084,24.9c2.119,0,3.837-.847,3.837-1.892H6.248C6.248,24.051,7.965,24.9,10.084,24.9Z" fill="#d18c5c"/>
    </symbol>
    <symbol id="ax" data-name="m_tshirt_black_seite 2" viewBox="0 0 36.022 42.466">
      <g>
        <path d="M16.028.038h3.967A16.028,16.028,0,0,1,36.022,16.066v5.972a0,0,0,0,1,0,0H0a0,0,0,0,1,0,0V16.066A16.028,16.028,0,0,1,16.028.038Z"/>
        <path d="M16,0h0A12,12,0,0,1,28,12V42.466a0,0,0,0,1,0,0H4a0,0,0,0,1,0,0V12A12,12,0,0,1,16,0Z"/>
      </g>
      <polyline points="14.761 17.848 12.955 19.584 11.149 17.848" fill="none" stroke="#1db1bf" stroke-linecap="round" stroke-miterlimit="10" stroke-width="3.182"/>
    </symbol>
    <symbol id="ay" data-name="valentina_haare" viewBox="0 0 11.019 24.112">
      <path d="M3.7,0V8.3A39.092,39.092,0,0,1,0,24.112H0A11.019,11.019,0,0,0,11.019,13.093V0Z" fill="#ffe036"/>
    </symbol>
    <symbol id="bb" data-name="m_Janine_kopf_front" viewBox="0 0 22.264 41.85">
      <g>
        <path d="M11.132,32.789h0A11.019,11.019,0,0,1,.113,21.77V14.827H22.151V21.77A11.019,11.019,0,0,1,11.132,32.789Z" fill="#754648"/>
        <g>
          <ellipse cx="20.246" cy="22.133" rx="2.018" ry="2.887" fill="#dc9161"/>
          <ellipse cx="2.018" cy="22.133" rx="2.018" ry="2.887" fill="#dc9161"/>
          <path d="M20.706,13.78a9.794,9.794,0,0,0-8.934-9.062,9.606,9.606,0,0,0-10.226,9.07l-.028.014v11.33l.026.014a9.6,9.6,0,0,0,7.073,8.746c.094.027.189.05.284.074.169.04.339.077.511.108s.319.053.481.074c.138.017.276.035.416.047.061.005.121.017.183.021.106.007.21,0,.315,0s.216.016.325.016c.062,0,.123-.008.185-.009.163,0,.324-.013.485-.024s.334-.025.5-.045.309-.044.462-.07.331-.058.494-.095c.145-.033.288-.071.43-.11.166-.046.332-.094.494-.148.132-.044.26-.093.389-.142.169-.065.336-.132.5-.206.113-.052.224-.107.335-.162.174-.086.345-.176.512-.272.094-.054.185-.111.277-.168.178-.111.353-.225.522-.347.073-.052.144-.107.216-.161.182-.138.359-.281.53-.431.052-.046.1-.093.154-.14.183-.168.36-.341.53-.523l.1-.109q.271-.3.517-.618l.053-.072c.174-.231.336-.469.489-.715l.017-.029a9.547,9.547,0,0,0,1.4-4.5l.026-.013v-.51l0-9.723Z" fill="#ef9e69"/>
          <circle cx="15.451" cy="18.042" r="0.946" fill="#010100"/>
          <circle cx="6.612" cy="18.042" r="0.946" fill="#010100"/>
        </g>
        <g>
          <path d="M10.363,36.211a11.173,11.173,0,0,1-3.531-.825V41.85h8V35.621a11.536,11.536,0,0,1-3.7.615C10.877,36.236,10.621,36.229,10.363,36.211Z" fill="#dc9161"/>
          <path d="M10.492,34.216a9.191,9.191,0,0,1-3.66-1.028v2.2a11.173,11.173,0,0,0,3.531.825c.258.018.514.025.769.025a11.536,11.536,0,0,0,3.7-.615V33.485A9.592,9.592,0,0,1,10.492,34.216Z" fill="#c98559"/>
        </g>
        <path d="M20.469,7.155c-1.8-1.795-3.223-3.114-8.892-3.114h-.89c-4.946,0-7.561,1.782-8.892,3.114A7.1,7.1,0,0,0,.113,12.229v7.118H1.519V14.253A5.332,5.332,0,0,1,6.851,8.921h8.562a5.332,5.332,0,0,1,5.332,5.332v5.094h1.406V12.229A7.1,7.1,0,0,0,20.469,7.155Z" fill="#754648"/>
      </g>
      <ellipse cx="11.046" cy="2.996" rx="4.507" ry="2.996" fill="#754648"/>
      <path d="M11.132,28.166c1.694,0,3.068-.8,3.068-1.794H8.064C8.064,27.363,9.438,28.166,11.132,28.166Z" fill="#ca875a"/>
    </symbol>
    <symbol id="bd" data-name="S_bein_jeans 3" viewBox="0 0 9 48">
      <g>
        <line x1="4.5" x2="4.5" y2="23.243" fill="none" stroke="#23475c" stroke-miterlimit="10" stroke-width="8"/>
        <line x1="4.5" y1="23.243" x2="4.5" y2="46.09" fill="none" stroke="#23475c" stroke-miterlimit="10" stroke-width="8"/>
        <line x1="4.5" y1="46.09" x2="4.5" y2="48" fill="none" stroke="#43748a" stroke-miterlimit="10" stroke-width="9"/>
      </g>
    </symbol>
    <symbol id="be" data-name="f_huefte_front 2" viewBox="0 0 24 13">
      <path d="M0,0H24a0,0,0,0,1,0,0V1.4A11.6,11.6,0,0,1,12.4,13h-.8A11.6,11.6,0,0,1,0,1.4V0A0,0,0,0,1,0,0Z" fill="#2c5871"/>
      <polygon points="21.412 0 19.911 0 19.022 0 14.934 0 14.044 0 9.956 0 9.066 0 4.978 0 0 0 0 1.791 4.978 1.791 9.066 1.791 9.956 1.791 14.044 1.791 14.934 1.791 19.022 1.791 19.911 1.791 21.412 1.791 24 1.791 24 0 21.412 0" fill="#272829"/>
    </symbol>
    <symbol id="bf" data-name="f_arm_gebeugter 2" viewBox="0 0 26.065 30.449">
      <g>
        <line x1="23.565" y1="2.5" x2="23.565" y2="13.901" fill="#e89a66" stroke="#e89a66" stroke-linecap="round" stroke-miterlimit="10" stroke-width="5"/>
        <line x1="23.554" y1="13.901" x2="9.911" y2="23.004" fill="none" stroke="#ef9e69" stroke-linecap="round" stroke-miterlimit="10" stroke-width="5"/>
        <line x1="10.743" y1="22.449" x2="2.5" y2="27.949" fill="none" stroke="#ef9e69" stroke-linecap="round" stroke-miterlimit="10" stroke-width="5"/>
      </g>
    </symbol>
    <symbol id="bh" data-name="S_bein_jeans 2" viewBox="0 0 9 48">
      <g>
        <line x1="4.5" x2="4.5" y2="23.243" fill="none" stroke="#2c5871" stroke-miterlimit="10" stroke-width="8"/>
        <line x1="4.5" y1="23.243" x2="4.5" y2="46.09" fill="none" stroke="#2c5871" stroke-miterlimit="10" stroke-width="8"/>
        <line x1="4.5" y1="46.09" x2="4.5" y2="48" fill="none" stroke="#5088a3" stroke-miterlimit="10" stroke-width="9"/>
      </g>
    </symbol>
    <symbol id="ba" data-name="Neues Symbol 16" viewBox="0 0 43.082 167.502">
      <g>
        <use width="22.264" height="41.85" transform="translate(1.484) scale(1.25)" xlink:href="#bb"/>
        <g>
          <path d="M14.62,47h.808a14.6,14.6,0,0,1,14.6,14.6V97.262a0,0,0,0,1,0,0h-30a0,0,0,0,1,0,0V61.6A14.6,14.6,0,0,1,14.62,47Z" fill="#92bbca"/>
          <g>
            <use width="12.25" height="11.856" transform="matrix(-1.25, 0, 0, 1.184, 29.313, 153.469)" xlink:href="#ar"/>
            <use width="9" height="48" transform="translate(13.176 100.037) scale(1.25 1.184)" xlink:href="#bd"/>
            <use width="24" height="13" transform="translate(0 97.277) scale(1.25 1.184)" xlink:href="#be"/>
          </g>
        </g>
      </g>
      <use width="26.065" height="30.449" transform="matrix(-1.25, 0, 0, 1.25, 43.707, 70.452)" xlink:href="#bf"/>
      <g>
        <line x1="14.251" y1="58.288" x2="14.251" y2="66.908" fill="none" stroke="#abdced" stroke-linecap="round" stroke-miterlimit="10" stroke-width="12.5"/>
        <line x1="14.251" y1="63.927" x2="14.251" y2="68.158" fill="none" stroke="#abdced" stroke-linecap="square" stroke-miterlimit="10" stroke-width="12.5"/>
      </g>
      <use width="12.25" height="11.856" transform="matrix(-1.25, 0, 0, 1.184, 23.121, 153.469)" xlink:href="#ar"/>
      <use width="9" height="48" transform="translate(6.983 100.037) scale(1.25 1.184)" xlink:href="#bh"/>
    </symbol>
    <symbol id="ad" data-name="Angebot Public" viewBox="0 0 130.169 143.637">
      <use width="71.318" height="175.413" transform="translate(83.979 25.188) scale(0.648)" xlink:href="#ae"/>
      <use width="75.929" height="11.334" transform="translate(75.499 134.225) scale(0.682 0.83)" xlink:href="#o"/>
      <g>
        <use width="75.929" height="11.334" transform="translate(47.189 104.034) scale(0.464 0.83)" xlink:href="#o"/>
        <g>
          <use width="5" height="41.711" transform="matrix(-0.81, 0, 0, 0.81, 53.168, 39.638)" xlink:href="#v"/>
          <use width="5" height="41.711" transform="matrix(-0.81, 0, 0, 0.81, 75.855, 39.638)" xlink:href="#v"/>
          <use width="12.25" height="11.856" transform="matrix(-0.81, 0, 0, 0.81, 76.949, 99.66)" xlink:href="#ar"/>
          <use width="9" height="48" transform="matrix(-0.81, 0, 0, 0.81, 73.711, 63.112)" xlink:href="#as"/>
          <use width="12.25" height="11.856" transform="matrix(-0.81, 0, 0, 0.81, 64.666, 99.66)" xlink:href="#ar"/>
          <use width="9" height="48" transform="matrix(-0.81, 0, 0, 0.81, 61.427, 63.112)" xlink:href="#as"/>
          <use width="24" height="13" transform="matrix(-0.81, 0, 0, 0.81, 73.831, 61.791)" xlink:href="#av"/>
          <g>
            <use width="22.151" height="54.634" transform="matrix(-0.81, 0, 0, 0.81, 72.785, 0)" xlink:href="#aw"/>
            <use width="36.022" height="42.466" transform="matrix(-0.81, 0, 0, 0.81, 77.069, 27.401)" xlink:href="#ax"/>
          </g>
          <use width="11.019" height="24.112" transform="matrix(-0.81, 0, 0, 0.81, 63.864, 26.883)" xlink:href="#ay"/>
        </g>
      </g>
      <g>
        <use width="75.929" height="11.334" transform="translate(0 104.034) scale(0.464 0.83)" xlink:href="#o"/>
        <use width="43.082" height="167.502" transform="translate(5.444 0.71) scale(0.648)" xlink:href="#ba"/>
      </g>
    </symbol>
    <symbol id="bk" data-name="M_Bein_jeans 6" viewBox="0 0 11 50.194">
      <line x1="5.5" x2="5.5" y2="24.34" fill="none" stroke="#010202" stroke-miterlimit="10" stroke-width="9"/>
      <line x1="5.5" y1="24.34" x2="5.5" y2="47.803" fill="none" stroke="#010202" stroke-miterlimit="10" stroke-width="9"/>
      <line x1="5.5" y1="46.317" x2="5.5" y2="50.194" fill="none" stroke="#838383" stroke-miterlimit="10" stroke-width="11"/>
    </symbol>
    <symbol id="bm" data-name="M_Bein_jeans 5" viewBox="0 0 11 50.194">
      <line x1="5.5" x2="5.5" y2="24.34" fill="none" stroke="#585e61" stroke-miterlimit="10" stroke-width="9"/>
      <line x1="5.5" y1="24.34" x2="5.5" y2="47.803" fill="none" stroke="#585e61" stroke-miterlimit="10" stroke-width="9"/>
      <line x1="5.5" y1="46.317" x2="5.5" y2="50.194" fill="none" stroke="#9b9b9a" stroke-miterlimit="10" stroke-width="11"/>
    </symbol>
    <symbol id="bn" data-name="m_huefte_grayjeans_front" viewBox="0 0 26.986 15.649">
      <path d="M0,0H26.986a0,0,0,0,1,0,0V2.156A13.493,13.493,0,0,1,13.493,15.649h0A13.493,13.493,0,0,1,0,2.156V0A0,0,0,0,1,0,0Z" fill="#585e61"/>
      <polygon points="23.221 0 22.389 0 4.597 0 3.387 0 0 0 0 2.156 3.387 2.156 4.597 2.156 22.389 2.156 23.221 2.156 26.986 2.156 26.986 0 23.221 0" fill="#313638"/>
    </symbol>
    <symbol id="bi" data-name="kunde 3" viewBox="0 0 68.887 188.182">
      <g>
        <g>
          <g>
            <path d="M30.917,47.284a13.967,13.967,0,0,0,4.414-1.032v8.081h-10V46.547a14.431,14.431,0,0,0,4.626.768C30.275,47.315,30.594,47.306,30.917,47.284Z" fill="#dc9161"/>
            <path d="M30.756,44.789a11.471,11.471,0,0,0,4.575-1.284v2.747a13.967,13.967,0,0,1-4.414,1.032c-.323.022-.642.031-.96.031a14.431,14.431,0,0,1-4.626-.768v-2.67A11.983,11.983,0,0,0,30.756,44.789Z" fill="#c98559"/>
          </g>
          <path d="M15.643,106.165h33.75V66.678a16.72,16.72,0,0,0-16.72-16.72h-.309a16.72,16.72,0,0,0-16.721,16.72Z" fill="#9c6f84"/>
          <g>
            <g>
              <use width="16" height="12.81" transform="matrix(-1.25, 0, 0, 1.25, 51.757, 168.708)" xlink:href="#ai"/>
              <use width="11" height="50.194" transform="matrix(-1.25, 0, 0, 1.25, 44.466, 111.42)" xlink:href="#bk"/>
            </g>
            <g>
              <use width="16" height="12.81" transform="matrix(-1.25, 0, 0, 1.25, 43.068, 168.708)" xlink:href="#ai"/>
              <use width="11" height="50.194" transform="matrix(-1.25, 0, 0, 1.25, 35.847, 111.42)" xlink:href="#bm"/>
            </g>
            <use width="26.986" height="15.649" transform="matrix(-1.25, 0, 0, 1.25, 49.466, 106.207)" xlink:href="#bn"/>
          </g>
        </g>
        <g>
          <path d="M40.721,28.084A11.755,11.755,0,1,1,19.414,38.02l-6.108-13.1,21.307-9.935Z" fill="#ef9e69"/>
          <circle cx="34.454" cy="19.893" r="1.156"/>
          <path d="M28.572,21.086c-1.206,2.344,1.22,4.4.072,7.056a7.918,7.918,0,0,1-3.856,4.008,7.6,7.6,0,0,1-3.671.7c-1.334-.08,2.131-.392,1.281.861-1.535,2.262-2.08,6.436-.141,8.393a9.618,9.618,0,0,0-1.855-.859,19.419,19.419,0,0,1-2.14-1.321,20.363,20.363,0,0,1-3.613-3.3c-2.232-2.588-3.312-5.6-4.759-8.641-1-2.105-2.717-3.846-3.782-5.923a10.605,10.605,0,0,1-.083-9.535c2.054-4.064,6.069-4.386,9.52-6.559,2.746-1.728,4.853-4.758,8.1-5.585,8.419-2.143,20.969,5.073,15.716,13.2-.351.544-1.9,1.135-3.416,1.552a10.635,10.635,0,0,0-5.408,3.54Z" fill="#4f2b13"/>
        </g>
        <path d="M25.09,29.555A3.236,3.236,0,0,1,24.9,34.1a3.236,3.236,0,0,1-4.449-.933,3.238,3.238,0,0,1,.19-4.543A3.237,3.237,0,0,1,25.09,29.555Z" fill="#ef9e69"/>
        <g>
          <polyline points="31.297 59.994 34.721 92.08 62.096 120.516" fill="none" stroke="#ef9e69" stroke-linecap="round" stroke-linejoin="round" stroke-width="10.153"/>
          <line x1="31.297" y1="59.994" x2="34.721" y2="92.08" fill="none" stroke="#af7c95" stroke-linecap="round" stroke-linejoin="round" stroke-width="10.153"/>
          <polyline points="32.518 71.442 34.721 92.08 57.473 115.713" fill="none" stroke="#af7c95" stroke-linejoin="round" stroke-width="10.153"/>
        </g>
      </g>
      <use width="75.929" height="11.334" transform="translate(0 177.494) scale(0.907 0.943)" xlink:href="#o"/>
      <path d="M36.1,27.714c.532,1.167,2.582,1.375,4.577.465.02-.009.037-.02.057-.03l-.963-2.11Z" fill="#ca875a"/>
    </symbol>
  </defs>
  <g>
    <rect width="1280" height="564" fill="#a7e4f2"/>
    <rect y="346" width="1280" height="218" fill="#002f47"/>
    <g>
      <polygon points="1280 346.966 596.018 346.966 775.878 314.142 833.029 328.147 1033.248 291.323 1206.832 312.984 1280 287.575 1280 346.966" fill="#81b4c4"/>
      <polygon points="1256.575 297.795 1265.938 277 1275.301 297.795 1256.575 297.795" fill="#a7ced1"/>
      <polygon points="1249.892 302.196 1257.417 286.21 1264.941 302.196 1249.892 302.196" fill="#c0e1e3"/>
      <polygon points="687.451 347 0 347 0 327.355 176.632 300.08 687.451 347" fill="#81b4c4"/>
      <polygon points="92.198 303.205 85.127 321.673 99.268 321.673 92.198 303.205" fill="#a7ced1"/>
      <g>
        <polygon points="489.926 319.006 484.222 333.905 495.63 333.905 489.926 319.006" fill="#c0e1e3"/>
        <polygon points="481.944 316.695 473.482 338.798 490.407 338.798 481.944 316.695" fill="#a7ced1"/>
      </g>
      <polygon points="334.914 298.92 326.103 321.933 343.726 321.933 334.914 298.92" fill="#c0e1e3"/>
      <polygon points="1159.028 310.531 1153.324 325.429 1164.732 325.429 1159.028 310.531" fill="#c0e1e3"/>
      <polygon points="1151.113 299.375 1142.65 321.478 1159.575 321.478 1151.113 299.375" fill="#a7ced1"/>
      <g>
        <circle cx="782.685" cy="319.585" r="11.375" fill="#c2d64c"/>
        <g>
          <line x1="782.58" y1="320.38" x2="777.114" y2="315.29" fill="none" stroke="#002f47" stroke-linecap="round" stroke-miterlimit="10" stroke-width="0.75"/>
          <line x1="789.307" y1="317.126" x2="782.685" y2="325.162" fill="none" stroke="#002f47" stroke-linecap="round" stroke-miterlimit="10" stroke-width="0.75"/>
          <line x1="782.685" y1="347" x2="782.685" y2="315.007" fill="none" stroke="#002f47" stroke-linecap="round" stroke-miterlimit="10" stroke-width="0.75"/>
        </g>
      </g>
      <g>
        <circle cx="1253.916" cy="319.585" r="11.375" fill="#b8c445"/>
        <g>
          <line x1="1254.021" y1="320.38" x2="1259.487" y2="315.29" fill="none" stroke="#002f47" stroke-linecap="round" stroke-miterlimit="10" stroke-width="0.75"/>
          <line x1="1247.294" y1="317.126" x2="1253.916" y2="325.162" fill="none" stroke="#002f47" stroke-linecap="round" stroke-miterlimit="10" stroke-width="0.75"/>
          <line x1="1253.916" y1="347" x2="1253.916" y2="315.007" fill="none" stroke="#002f47" stroke-linecap="round" stroke-miterlimit="10" stroke-width="0.75"/>
        </g>
      </g>
      <g>
        <circle cx="1240.937" cy="325.416" r="8.955" fill="#c2d64c"/>
        <g>
          <line x1="1240.854" y1="326.042" x2="1236.551" y2="322.034" fill="none" stroke="#002f47" stroke-linecap="round" stroke-miterlimit="10" stroke-width="0.75"/>
          <line x1="1246.151" y1="323.48" x2="1240.937" y2="327.952" fill="none" stroke="#002f47" stroke-linecap="round" stroke-miterlimit="10" stroke-width="0.75"/>
          <line x1="1240.937" y1="347" x2="1240.937" y2="321.811" fill="none" stroke="#002f47" stroke-linecap="round" stroke-miterlimit="10" stroke-width="0.75"/>
        </g>
      </g>
    </g>
    <g clip-path="url(#a)">
      <g>
        <path d="M1212.939,104.759a85.806,85.806,0,1,0,54.586-98.151,65.024,65.024,0,0,0-112.2.3,79.16,79.16,0,1,0-132.842,74.714,79.137,79.137,0,0,0,127.253-21.655,65.071,65.071,0,0,0,63.2,44.791Z" fill="#fff" fill-rule="evenodd" opacity="0.3"/>
        <path d="M939.225-2.194a37.045,37.045,0,0,0-10.694-29.793,37.075,37.075,0,0,0-52.452,0,37.12,37.12,0,0,0,0,52.479,37.085,37.085,0,0,0,47.711,4.016,43.821,43.821,0,0,0,86.158,15.98,51.46,51.46,0,0,0,49.731,5.134A80.96,80.96,0,1,0,1194.41-35.063a80.91,80.91,0,0,0-114.467,0q-.39.39-.773.783-1.592-1.936-3.4-3.75a51.385,51.385,0,0,0-72.7,0A51.226,51.226,0,0,0,988.256-6.655a43.6,43.6,0,0,0-21.239-5.485q-1.683,0-3.335.125a27,27,0,0,0-21.6,7.662Q940.609-3.331,939.225-2.194Z" fill="#fff" fill-rule="evenodd" opacity="0.3"/>
      </g>
    </g>
    <use width="68.887" height="189.404" transform="translate(363.591 303.685) scale(0.652)" xlink:href="#e"/>
    <g clip-path="url(#b)">
      <g id="container">
        <polyline points="435.436 87.936 435.436 122.912 427.615 122.912 427.615 87.936" fill="none" stroke="#4d4d4d" stroke-miterlimit="10"/>
        <use width="136.991" height="123.475" transform="translate(364.717 122.293)" xlink:href="#p"/>
      </g>
      <g id="container-2">
        <polyline points="594.664 78.914 594.664 173.89 586.843 173.89 586.843 78.914" fill="none" stroke="#4d4d4d" stroke-miterlimit="10"/>
        <use width="136.991" height="123.475" transform="translate(523.918 172.625)" xlink:href="#p"/>
      </g>
      <g id="container-3">
        <polyline points="742.351 48.199 742.351 83.175 734.531 83.175 734.531 48.199" fill="none" stroke="#4d4d4d" stroke-miterlimit="10"/>
        <use width="136.991" height="123.475" transform="translate(671.927 81.909)" xlink:href="#p"/>
      </g>
      <path d="M788.092-62.814a64.989,64.989,0,0,0-91.892,0q-.314.312-.621.628-1.276-1.554-2.73-3.008-.753-.753-1.534-1.458A43.107,43.107,0,0,0,660.2-79.88,43.254,43.254,0,0,0,618.073-46.4a23.669,23.669,0,0,0-21.916,23.6A23.672,23.672,0,0,0,619.829.875a23.551,23.551,0,0,0,13.094-3.953A43.06,43.06,0,0,0,660.2,6.615a43.053,43.053,0,0,0,19.13-4.46c.2-.082.4-.161.6-.247A64.667,64.667,0,0,0,696.2,29.054a64.991,64.991,0,0,0,91.892,0A64.947,64.947,0,0,0,788.092-62.814Z" fill="#fff" fill-rule="evenodd" opacity="0.3"/>
      <path id="cloud-53" d="M536.8,48.919a62.645,62.645,0,0,0,109.934-8.685,62.688,62.688,0,0,0-98.647-72.478,47.575,47.575,0,0,0-10.259-6.171,47.429,47.429,0,0,0-62.578,24.25,47.58,47.58,0,0,0-3.464,11.724,57.733,57.733,0,1,0,10.181,37.566,47.307,47.307,0,0,0,17.551,13.336A47.3,47.3,0,0,0,536.8,48.919Z" fill="#fff" fill-rule="evenodd" opacity="0.3"/>
    </g>
    <use width="49.641" height="132.781" transform="translate(419.556 317.498) scale(0.828)" xlink:href="#s"/>
    <use width="130.169" height="143.637" transform="translate(147.778 281.863)" xlink:href="#ad"/>
    <use width="68.887" height="188.182" transform="translate(44.226 363.936) scale(0.653)" xlink:href="#bi"/>
  </g>
  <g>
    <g clip-path="url(#c)">
      <g>
        <path d="M1212.939,688.759a85.806,85.806,0,1,0,54.586-98.151,65.024,65.024,0,0,0-112.2.3,79.172,79.172,0,1,0-5.589,53.059,65.071,65.071,0,0,0,63.2,44.791Z" fill="#fff" fill-rule="evenodd" opacity="0.3"/>
        <path d="M916.436,602.787A37.083,37.083,0,1,0,901,629.49a43.821,43.821,0,0,0,86.158,15.98,51.463,51.463,0,0,0,49.731,5.134,80.96,80.96,0,1,0,20.264-80.686q-.39.39-.772.784-1.593-1.938-3.4-3.75a51.405,51.405,0,0,0-87.513,31.375,43.6,43.6,0,0,0-21.239-5.486q-1.683,0-3.335.125a27.007,27.007,0,0,0-21.6,7.662Q917.82,601.651,916.436,602.787Z" fill="#fff" fill-rule="evenodd" opacity="0.3"/>
      </g>
    </g>
    <g clip-path="url(#d)">
      <g>
        <path d="M700.9,521.186a64.99,64.99,0,0,0-91.893,0q-.312.312-.62.628-1.278-1.554-2.73-3.008-.753-.753-1.534-1.458A43.232,43.232,0,0,0,530.88,537.6a23.669,23.669,0,1,0,14.851,43.32,43.235,43.235,0,0,0,46.4,5.233c.2-.082.4-.161.6-.247A64.978,64.978,0,1,0,700.9,521.186Z" fill="#fff" fill-rule="evenodd" opacity="0.3"/>
        <path d="M531.069,639.7a49.914,49.914,0,1,0,8.994-64.671,37.837,37.837,0,0,0-60.8,23.747,46,46,0,1,0,8.113,29.932,37.844,37.844,0,0,0,43.69,10.992Z" fill="#fff" fill-rule="evenodd" opacity="0.3"/>
      </g>
    </g>
  </g>
</svg>
