<svg xmlns="http://www.w3.org/2000/svg" xmlns:xlink="http://www.w3.org/1999/xlink" width="200" height="200" viewBox="0 0 200 200">
  <defs>
    <symbol id="c" data-name="m_arm" viewBox="0 0 6 42.711">
      <g>
        <line x1="3" y1="3" x2="3" y2="14.401" fill="#e89a66" stroke="#e89a66" stroke-linecap="round" stroke-miterlimit="10" stroke-width="6"/>
        <line x1="3" y1="14.401" x2="3" y2="30.801" fill="none" stroke="#ef9e69" stroke-linecap="round" stroke-miterlimit="10" stroke-width="6"/>
        <line x1="3" y1="29.801" x2="3" y2="39.711" fill="none" stroke="#ef9e69" stroke-linecap="round" stroke-miterlimit="10" stroke-width="6"/>
      </g>
    </symbol>
    <symbol id="d" data-name="m_arm_gebeugter 2" viewBox="0 0 22.765 36.363">
      <g>
        <line x1="19.765" y1="3" x2="19.765" y2="14.401" fill="#e89a66" stroke="#e89a66" stroke-linecap="round" stroke-miterlimit="10" stroke-width="6"/>
        <line x1="19.765" y1="14.401" x2="8.901" y2="26.688" fill="none" stroke="#ef9e69" stroke-linecap="round" stroke-miterlimit="10" stroke-width="6"/>
        <line x1="9.564" y1="25.939" x2="3" y2="33.363" fill="none" stroke="#ef9e69" stroke-linecap="round" stroke-miterlimit="10" stroke-width="6"/>
      </g>
    </symbol>
    <symbol id="e" data-name="L_hemd_blau_front 5" viewBox="0 0 45 45.991">
      <path d="M30.211.155c-.2-.034-4.148-.049-4.148-.049V.135L15.239.083A17.854,17.854,0,0,0,0,17.735v4.632H45V17.735A17.855,17.855,0,0,0,30.211.155Z" fill="#585e61"/>
      <g>
        <g>
          <path d="M22.388.056A13.377,13.377,0,0,0,9.011,13.433V45.991h13.5V.056Z" fill="#474e51"/>
          <path d="M36.011,13.433A13.377,13.377,0,0,0,22.635.056h-.124V45.991h13.5Z" fill="#474e51"/>
        </g>
        <polygon points="22.583 8.98 22.583 9.04 22.648 9.078 22.583 8.98" fill="#075d79"/>
      </g>
      <g>
        <polygon points="26.064 0.135 26.063 0.106 26.058 0.135 26.064 0.135" fill="none"/>
        <path d="M23.23.49l.188-.451L15.322,0c-.355.053-.7.131-1.051.2l.1.236,1.944,4.675,2.5,3.782.066.1,2.429-3.881Z" fill="#dc9161"/>
        <polygon points="18.879 8.996 22.573 6.757 21.308 5.115 18.879 8.996" fill="#4a4f52"/>
        <polygon points="23.23 0.49 21.308 5.115 22.573 6.757 24.519 9.282 25.846 1.732 26.141 0.052 23.418 0.039 23.23 0.49" fill="#585e61"/>
        <polygon points="15.057 6.744 18.813 8.957 18.813 8.897 16.313 5.115 15.057 6.744" fill="#4a4f52"/>
        <path d="M13.1,9.282l1.956-2.538,1.256-1.629L14.369.44,14.271.2a17.717,17.717,0,0,0-2.63.768l.118.673Z" fill="#6a6e70"/>
      </g>
      <polygon points="22.795 45.862 18.796 45.862 18.731 9.04 22.573 6.757 22.795 45.862" fill="#4a4f52"/>
    </symbol>
    <symbol id="f" data-name="schuhe_black_seite" viewBox="0 0 16 12.81">
      <g>
        <g>
          <rect x="7" width="9" height="12" fill="#c7d1db"/>
          <rect y="11.981" width="16" height="0.828" fill="#c7d1db"/>
        </g>
        <g>
          <rect x="7" width="9" height="12"/>
          <rect y="11.981" width="16" height="0.828" fill="#c7d1db"/>
        </g>
      </g>
      <rect x="6.014" y="6" width="9.986" height="6"/>
      <path d="M6.014,6a6,6,0,0,0-6,6h12A6,6,0,0,0,6.014,6Z"/>
    </symbol>
    <symbol id="g" data-name="M_Bein_dunkel_jeans" viewBox="0 0 9 50.194">
      <line x1="4.5" x2="4.5" y2="24.34" fill="none" stroke="#888" stroke-miterlimit="10" stroke-width="9"/>
      <line x1="4.5" y1="24.34" x2="4.5" y2="45.694" fill="none" stroke="#888" stroke-linecap="round" stroke-miterlimit="10" stroke-width="9"/>
      <line x1="4.5" y1="45.024" x2="4.5" y2="50.194" fill="none" stroke="#888" stroke-miterlimit="10" stroke-width="9"/>
    </symbol>
    <symbol id="j" data-name="m_huefte_front 2" viewBox="0 0 26.986 15.649">
      <path d="M0,0H26.986a0,0,0,0,1,0,0V2.156A13.493,13.493,0,0,1,13.493,15.649h0A13.493,13.493,0,0,1,0,2.156V0A0,0,0,0,1,0,0Z" fill="#888"/>
      <g>
        <rect width="4.597" height="2.156" fill="#1e1e1c"/>
        <rect x="5.597" width="4.597" height="2.156" fill="#1e1e1c"/>
        <rect x="11.194" width="4.597" height="2.156" fill="#1e1e1c"/>
        <rect x="16.792" width="4.597" height="2.156" fill="#1e1e1c"/>
        <rect x="22.389" width="4.597" height="2.156" fill="#1e1e1c"/>
      </g>
    </symbol>
    <symbol id="b" data-name="Kunde 2" viewBox="0 0 71.318 175.413">
      <g>
        <use width="6" height="42.711" transform="matrix(-1.25, 0, 0, 1.25, 12.733, 62.081)" xlink:href="#c"/>
        <g>
          <g>
            <g>
              <path d="M33.55,36.937a11.467,11.467,0,0,0,4.575-1.285V38.4a14,14,0,0,1-4.414,1.032q-.483.032-.96.031a14.432,14.432,0,0,1-4.626-.769v-2.67A11.985,11.985,0,0,0,33.55,36.937Z" fill="#c98559"/>
              <path d="M33.711,39.432A14,14,0,0,0,38.125,38.4v8.08h-10V38.694a14.432,14.432,0,0,0,4.626.769Q33.228,39.463,33.711,39.432Z" fill="#dc9161"/>
            </g>
            <g>
              <ellipse cx="19.009" cy="27.968" rx="2.523" ry="3.608" transform="translate(-8.417 8.185) rotate(-19.994)" fill="#dc9161"/>
              <path d="M15.208,17.373A12.242,12.242,0,0,1,21.829,2.91,12.008,12.008,0,0,1,37.718,9.194l.038,0L42.24,21.522l.141.386.218.6-.025.028A12.005,12.005,0,0,1,38,35.832c-.1.071-.2.139-.3.207-.181.12-.364.236-.553.346s-.353.2-.533.292c-.155.08-.31.159-.469.233-.07.033-.135.072-.207.1-.122.053-.246.091-.368.14s-.246.111-.374.158c-.074.026-.148.043-.222.068-.193.066-.386.123-.58.178s-.4.115-.6.162-.381.079-.572.114c-.208.038-.414.073-.622.1-.184.023-.368.039-.552.054-.215.017-.429.032-.644.037-.173.005-.344,0-.516,0-.227,0-.452-.011-.677-.027-.155-.012-.309-.029-.463-.047-.241-.027-.48-.059-.717-.1-.134-.023-.266-.051-.4-.079-.257-.054-.51-.114-.762-.184-.108-.03-.215-.064-.322-.1q-.408-.126-.807-.28c-.081-.031-.16-.065-.241-.1-.286-.119-.568-.247-.845-.388l-.164-.086c-.3-.157-.587-.324-.87-.505-.032-.02-.063-.041-.094-.062-.3-.2-.595-.406-.879-.63l-.034-.027a11.935,11.935,0,0,1-3.563-4.683l-.037,0-.218-.6L15.644,18.7Z" fill="#ef9e69"/>
              <circle cx="25.704" cy="19.224" r="1.182" fill="#010100"/>
              <circle cx="36.087" cy="15.446" r="1.182" fill="#010100"/>
            </g>
            <path d="M40.305,16.2l-.226.083-2.618-7.2a3.813,3.813,0,0,0-4.913-2.269L17.5,12.419A3.812,3.812,0,0,0,15.244,17.3l2.578,7.085-.178.065-3.012-4.4a29.541,29.541,0,0,1-3.376-6.573h0A6.692,6.692,0,0,1,15.35,4.937L28.15.28A4.482,4.482,0,0,1,33.923,2.9h0a2.928,2.928,0,0,1,3.859,2.109Z" fill="#736358"/>
          </g>
          <g>
            <use width="22.765" height="36.363" transform="matrix(-1.25, 0, 0, 1.25, 72.068, 59.161)" xlink:href="#d"/>
            <use width="45" height="45.991" transform="matrix(-1.25, 0, 0, 1.25, 56.25, 41.573)" xlink:href="#e"/>
          </g>
          <g>
            <g>
              <use width="16" height="12.81" transform="matrix(-1.187, 0, 0, 1.187, 52.783, 160.201)" xlink:href="#f"/>
              <use width="9" height="50.194" transform="matrix(-1.25, 0, 0, 1.25, 44.761, 102.318)" xlink:href="#g"/>
            </g>
            <g>
              <use width="16" height="12.81" transform="matrix(-1.187, 0, 0, 1.187, 30.316, 160.133)" xlink:href="#f"/>
              <use width="9" height="50.194" transform="matrix(-1.25, 0, 0, 1.25, 22.293, 102.318)" xlink:href="#g"/>
            </g>
            <use width="26.986" height="15.649" transform="matrix(-1.25, 0, 0, 1.25, 44.761, 98.355)" xlink:href="#j"/>
          </g>
        </g>
      </g>
      <path d="M33,29.742c2.223,0,4.026-1.165,4.026-2.6H28.969C28.969,28.577,30.772,29.742,33,29.742Z" fill="#ca875a"/>
    </symbol>
    <symbol id="k" data-name="shatten" viewBox="0 0 75.929 11.334">
      <ellipse cx="37.965" cy="5.667" rx="37.965" ry="5.667" opacity="0.3"/>
    </symbol>
    <symbol id="m" data-name="f_arm" viewBox="0 0 5 41.711">
      <g>
        <line x1="2.5" y1="2.5" x2="2.5" y2="13.901" fill="#e89a66" stroke="#e89a66" stroke-linecap="round" stroke-miterlimit="10" stroke-width="5"/>
        <line x1="2.5" y1="13.901" x2="2.5" y2="30.301" fill="none" stroke="#ef9e69" stroke-linecap="round" stroke-miterlimit="10" stroke-width="5"/>
        <line x1="2.5" y1="29.301" x2="2.5" y2="39.211" fill="none" stroke="#ef9e69" stroke-linecap="round" stroke-miterlimit="10" stroke-width="5"/>
      </g>
    </symbol>
    <symbol id="o" data-name="f_schuhe_sport_seite" viewBox="0 0 12.25 11.856">
      <line x1="9.156" x2="9.156" y2="11.325" fill="none" stroke="#ef9e69" stroke-miterlimit="10" stroke-width="5"/>
      <g>
        <g>
          <rect x="4.75" y="8.27" width="7.5" height="2.828" fill="#c7d1db"/>
          <path d="M5,5.459c-2.761,0-5,2.517-5,5.621H10C10,7.976,7.762,5.459,5,5.459Z" fill="#c7d1db"/>
          <rect y="11.08" width="12.25" height="0.776" fill="#c7d1db"/>
        </g>
        <g>
          <rect x="4.75" y="8.27" width="7.5" height="2.828" fill="#ecf0f2"/>
          <path d="M5,5.459c-2.761,0-5,2.517-5,5.621H10C10,7.976,7.762,5.459,5,5.459Z" fill="#ecf0f2"/>
          <rect y="11.08" width="12.25" height="0.776" fill="#c7d1db"/>
        </g>
      </g>
      <path d="M.722,9.286l1.169-.849,1.169.849L2.614,7.912l1.169-.849H2.338l-.193-.594a5.375,5.375,0,0,0-1.177,1.3l.2.146Z" fill="#fff"/>
    </symbol>
    <symbol id="p" data-name="S_bein_jeans" viewBox="0 0 9 48">
      <g>
        <line x1="4.5" x2="4.5" y2="23.243" fill="none" stroke="#2d5972" stroke-miterlimit="10" stroke-width="8"/>
        <line x1="4.5" y1="23.243" x2="4.5" y2="46.09" fill="none" stroke="#2d5972" stroke-miterlimit="10" stroke-width="8"/>
        <line x1="4.5" y1="46.09" x2="4.5" y2="48" fill="none" stroke="#537e8e" stroke-miterlimit="10" stroke-width="9"/>
      </g>
    </symbol>
    <symbol id="s" data-name="f_huefte_front" viewBox="0 0 24 13">
      <path d="M0,0H24a0,0,0,0,1,0,0V1.4A11.6,11.6,0,0,1,12.4,13h-.8A11.6,11.6,0,0,1,0,1.4V0A0,0,0,0,1,0,0Z" fill="#2c5972"/>
      <g>
        <rect width="4.089" height="1.791" fill="#c1d44f"/>
        <rect x="4.978" width="4.089" height="1.791" fill="#c1d44f"/>
        <rect x="9.956" width="4.089" height="1.791" fill="#c1d44f"/>
        <rect x="14.934" width="4.089" height="1.791" fill="#c1d44f"/>
        <rect x="19.911" width="4.089" height="1.791" fill="#c1d44f"/>
      </g>
    </symbol>
    <symbol id="t" data-name="m_Kopf_Valentina_Seite" viewBox="0 0 22.151 54.634">
      <path d="M0,11.073H22.038a0,0,0,0,1,0,0V43.615A11.019,11.019,0,0,1,11.019,54.634h0A11.019,11.019,0,0,1,0,43.615V11.073A0,0,0,0,1,0,11.073Z" fill="#ffe036"/>
      <g>
        <ellipse cx="20.133" cy="19.03" rx="2.018" ry="2.887" fill="#dc9161"/>
        <path d="M20.593,10.026A9.793,9.793,0,0,0,11.659.964a9.606,9.606,0,0,0-10.227,9.07l-.027.013v11.33l.026.015A9.6,9.6,0,0,0,8.5,30.138c.094.026.189.05.284.073.169.04.339.078.511.109s.319.052.481.073c.138.018.276.035.416.047.061.006.121.017.183.021.106.007.21,0,.315.005s.215.016.325.016c.062,0,.123-.008.185-.009.163,0,.324-.014.485-.025s.334-.024.5-.044.309-.044.462-.07.331-.059.494-.095c.145-.033.288-.072.43-.111.166-.046.332-.093.494-.148.132-.044.26-.092.389-.142.169-.065.336-.132.5-.206.113-.051.224-.106.335-.161.174-.087.345-.176.512-.272.094-.055.185-.112.277-.169.178-.11.353-.225.522-.346.073-.053.144-.107.216-.161.182-.138.359-.281.53-.432.052-.045.1-.093.154-.14q.274-.251.53-.522l.1-.11c.181-.2.353-.4.516-.618.019-.023.036-.048.054-.071q.259-.346.489-.715l.017-.029a9.551,9.551,0,0,0,1.4-4.5l.026-.013v-.509l0-9.723Z" fill="#ef9e69"/>
        <circle cx="13.838" cy="14.288" r="0.946" fill="#010100"/>
        <circle cx="4.999" cy="14.288" r="0.946" fill="#010100"/>
      </g>
      <g>
        <path d="M10.25,32.457a11.174,11.174,0,0,1-3.531-.826V38.1h8V31.867a11.54,11.54,0,0,1-3.7.615Q10.636,32.482,10.25,32.457Z" fill="#dc9161"/>
        <path d="M10.379,30.461a9.175,9.175,0,0,1-3.66-1.028v2.2a11.174,11.174,0,0,0,3.531.826q.387.025.769.025a11.54,11.54,0,0,0,3.7-.615V29.731A9.592,9.592,0,0,1,10.379,30.461Z" fill="#c98559"/>
      </g>
      <g>
        <path d="M20.356,3.4C18.115.073,12.407-.436,9.083.286l-.445.1-.445-.1C4.869-.436,2.3,2.6,1.682,3.4A8.321,8.321,0,0,0,0,8.474v7.118H1.406V9.777a2.8,2.8,0,0,1,2.8-2.8H17.835a2.8,2.8,0,0,1,2.8,2.8v5.815h1.406V8.474A9.065,9.065,0,0,0,20.356,3.4Z" fill="#ffe036"/>
        <g>
          <path d="M.707,10.148a16.7,16.7,0,0,0,5.511-3.24H.707Z" fill="#ffe036"/>
          <path d="M21.729,10.148S8.283,8.973,6.218,6.908H21.729Z" fill="#ffe036"/>
        </g>
      </g>
      <path d="M10.084,24.9c2.119,0,3.837-.847,3.837-1.892H6.248C6.248,24.051,7.965,24.9,10.084,24.9Z" fill="#d18c5c"/>
    </symbol>
    <symbol id="u" data-name="m_tshirt_black_seite 2" viewBox="0 0 36.022 42.466">
      <g>
        <path d="M16.028.038h3.967A16.028,16.028,0,0,1,36.022,16.066v5.972a0,0,0,0,1,0,0H0a0,0,0,0,1,0,0V16.066A16.028,16.028,0,0,1,16.028.038Z"/>
        <path d="M16,0h0A12,12,0,0,1,28,12V42.466a0,0,0,0,1,0,0H4a0,0,0,0,1,0,0V12A12,12,0,0,1,16,0Z"/>
      </g>
      <polyline points="14.761 17.848 12.955 19.584 11.149 17.848" fill="none" stroke="#1db1bf" stroke-linecap="round" stroke-miterlimit="10" stroke-width="3.182"/>
    </symbol>
    <symbol id="v" data-name="valentina_haare" viewBox="0 0 11.019 24.112">
      <path d="M3.7,0V8.3A39.092,39.092,0,0,1,0,24.112H0A11.019,11.019,0,0,0,11.019,13.093V0Z" fill="#ffe036"/>
    </symbol>
    <symbol id="y" data-name="m_Janine_kopf_front" viewBox="0 0 22.264 41.85">
      <g>
        <path d="M11.132,32.789h0A11.019,11.019,0,0,1,.113,21.77V14.827H22.151V21.77A11.019,11.019,0,0,1,11.132,32.789Z" fill="#754648"/>
        <g>
          <ellipse cx="20.246" cy="22.133" rx="2.018" ry="2.887" fill="#dc9161"/>
          <ellipse cx="2.018" cy="22.133" rx="2.018" ry="2.887" fill="#dc9161"/>
          <path d="M20.706,13.78a9.794,9.794,0,0,0-8.934-9.062,9.606,9.606,0,0,0-10.226,9.07l-.028.014v11.33l.026.014a9.6,9.6,0,0,0,7.073,8.746c.094.027.189.05.284.074.169.04.339.077.511.108s.319.053.481.074c.138.017.276.035.416.047.061.005.121.017.183.021.106.007.21,0,.315,0s.216.016.325.016c.062,0,.123-.008.185-.009.163,0,.324-.013.485-.024s.334-.025.5-.045.309-.044.462-.07.331-.058.494-.095c.145-.033.288-.071.43-.11.166-.046.332-.094.494-.148.132-.044.26-.093.389-.142.169-.065.336-.132.5-.206.113-.052.224-.107.335-.162.174-.086.345-.176.512-.272.094-.054.185-.111.277-.168.178-.111.353-.225.522-.347.073-.052.144-.107.216-.161.182-.138.359-.281.53-.431.052-.046.1-.093.154-.14.183-.168.36-.341.53-.523l.1-.109q.271-.3.517-.618l.053-.072c.174-.231.336-.469.489-.715l.017-.029a9.547,9.547,0,0,0,1.4-4.5l.026-.013v-.51l0-9.723Z" fill="#ef9e69"/>
          <circle cx="15.451" cy="18.042" r="0.946" fill="#010100"/>
          <circle cx="6.612" cy="18.042" r="0.946" fill="#010100"/>
        </g>
        <g>
          <path d="M10.363,36.211a11.173,11.173,0,0,1-3.531-.825V41.85h8V35.621a11.536,11.536,0,0,1-3.7.615C10.877,36.236,10.621,36.229,10.363,36.211Z" fill="#dc9161"/>
          <path d="M10.492,34.216a9.191,9.191,0,0,1-3.66-1.028v2.2a11.173,11.173,0,0,0,3.531.825c.258.018.514.025.769.025a11.536,11.536,0,0,0,3.7-.615V33.485A9.592,9.592,0,0,1,10.492,34.216Z" fill="#c98559"/>
        </g>
        <path d="M20.469,7.155c-1.8-1.795-3.223-3.114-8.892-3.114h-.89c-4.946,0-7.561,1.782-8.892,3.114A7.1,7.1,0,0,0,.113,12.229v7.118H1.519V14.253A5.332,5.332,0,0,1,6.851,8.921h8.562a5.332,5.332,0,0,1,5.332,5.332v5.094h1.406V12.229A7.1,7.1,0,0,0,20.469,7.155Z" fill="#754648"/>
      </g>
      <ellipse cx="11.046" cy="2.996" rx="4.507" ry="2.996" fill="#754648"/>
      <path d="M11.132,28.166c1.694,0,3.068-.8,3.068-1.794H8.064C8.064,27.363,9.438,28.166,11.132,28.166Z" fill="#ca875a"/>
    </symbol>
    <symbol id="aa" data-name="S_bein_jeans 3" viewBox="0 0 9 48">
      <g>
        <line x1="4.5" x2="4.5" y2="23.243" fill="none" stroke="#23475c" stroke-miterlimit="10" stroke-width="8"/>
        <line x1="4.5" y1="23.243" x2="4.5" y2="46.09" fill="none" stroke="#23475c" stroke-miterlimit="10" stroke-width="8"/>
        <line x1="4.5" y1="46.09" x2="4.5" y2="48" fill="none" stroke="#43748a" stroke-miterlimit="10" stroke-width="9"/>
      </g>
    </symbol>
    <symbol id="ab" data-name="f_huefte_front 2" viewBox="0 0 24 13">
      <path d="M0,0H24a0,0,0,0,1,0,0V1.4A11.6,11.6,0,0,1,12.4,13h-.8A11.6,11.6,0,0,1,0,1.4V0A0,0,0,0,1,0,0Z" fill="#2c5871"/>
      <polygon points="21.412 0 19.911 0 19.022 0 14.934 0 14.044 0 9.956 0 9.066 0 4.978 0 0 0 0 1.791 4.978 1.791 9.066 1.791 9.956 1.791 14.044 1.791 14.934 1.791 19.022 1.791 19.911 1.791 21.412 1.791 24 1.791 24 0 21.412 0" fill="#272829"/>
    </symbol>
    <symbol id="ac" data-name="f_arm_gebeugter 2" viewBox="0 0 26.065 30.449">
      <g>
        <line x1="23.565" y1="2.5" x2="23.565" y2="13.901" fill="#e89a66" stroke="#e89a66" stroke-linecap="round" stroke-miterlimit="10" stroke-width="5"/>
        <line x1="23.554" y1="13.901" x2="9.911" y2="23.004" fill="none" stroke="#ef9e69" stroke-linecap="round" stroke-miterlimit="10" stroke-width="5"/>
        <line x1="10.743" y1="22.449" x2="2.5" y2="27.949" fill="none" stroke="#ef9e69" stroke-linecap="round" stroke-miterlimit="10" stroke-width="5"/>
      </g>
    </symbol>
    <symbol id="ae" data-name="S_bein_jeans 2" viewBox="0 0 9 48">
      <g>
        <line x1="4.5" x2="4.5" y2="23.243" fill="none" stroke="#2c5871" stroke-miterlimit="10" stroke-width="8"/>
        <line x1="4.5" y1="23.243" x2="4.5" y2="46.09" fill="none" stroke="#2c5871" stroke-miterlimit="10" stroke-width="8"/>
        <line x1="4.5" y1="46.09" x2="4.5" y2="48" fill="none" stroke="#5088a3" stroke-miterlimit="10" stroke-width="9"/>
      </g>
    </symbol>
    <symbol id="x" data-name="Neues Symbol 16" viewBox="0 0 43.082 167.502">
      <g>
        <use width="22.264" height="41.85" transform="translate(1.484) scale(1.25)" xlink:href="#y"/>
        <g>
          <path d="M14.62,47h.808a14.6,14.6,0,0,1,14.6,14.6V97.262a0,0,0,0,1,0,0h-30a0,0,0,0,1,0,0V61.6A14.6,14.6,0,0,1,14.62,47Z" fill="#92bbca"/>
          <g>
            <use width="12.25" height="11.856" transform="matrix(-1.25, 0, 0, 1.184, 29.313, 153.469)" xlink:href="#o"/>
            <use width="9" height="48" transform="translate(13.176 100.037) scale(1.25 1.184)" xlink:href="#aa"/>
            <use width="24" height="13" transform="translate(0 97.277) scale(1.25 1.184)" xlink:href="#ab"/>
          </g>
        </g>
      </g>
      <use width="26.065" height="30.449" transform="matrix(-1.25, 0, 0, 1.25, 43.707, 70.452)" xlink:href="#ac"/>
      <g>
        <line x1="14.251" y1="58.288" x2="14.251" y2="66.908" fill="none" stroke="#abdced" stroke-linecap="round" stroke-miterlimit="10" stroke-width="12.5"/>
        <line x1="14.251" y1="63.927" x2="14.251" y2="68.158" fill="none" stroke="#abdced" stroke-linecap="square" stroke-miterlimit="10" stroke-width="12.5"/>
      </g>
      <use width="12.25" height="11.856" transform="matrix(-1.25, 0, 0, 1.184, 23.121, 153.469)" xlink:href="#o"/>
      <use width="9" height="48" transform="translate(6.983 100.037) scale(1.25 1.184)" xlink:href="#ae"/>
    </symbol>
    <symbol id="a" data-name="Angebot Public" viewBox="0 0 130.169 143.637">
      <use width="71.318" height="175.413" transform="translate(83.979 25.188) scale(0.648)" xlink:href="#b"/>
      <use width="75.929" height="11.334" transform="translate(75.499 134.225) scale(0.682 0.83)" xlink:href="#k"/>
      <g>
        <use width="75.929" height="11.334" transform="translate(47.189 104.034) scale(0.464 0.83)" xlink:href="#k"/>
        <g>
          <use width="5" height="41.711" transform="matrix(-0.81, 0, 0, 0.81, 53.168, 39.638)" xlink:href="#m"/>
          <use width="5" height="41.711" transform="matrix(-0.81, 0, 0, 0.81, 75.855, 39.638)" xlink:href="#m"/>
          <use width="12.25" height="11.856" transform="matrix(-0.81, 0, 0, 0.81, 76.949, 99.66)" xlink:href="#o"/>
          <use width="9" height="48" transform="matrix(-0.81, 0, 0, 0.81, 73.711, 63.112)" xlink:href="#p"/>
          <use width="12.25" height="11.856" transform="matrix(-0.81, 0, 0, 0.81, 64.666, 99.66)" xlink:href="#o"/>
          <use width="9" height="48" transform="matrix(-0.81, 0, 0, 0.81, 61.427, 63.112)" xlink:href="#p"/>
          <use width="24" height="13" transform="matrix(-0.81, 0, 0, 0.81, 73.831, 61.791)" xlink:href="#s"/>
          <g>
            <use width="22.151" height="54.634" transform="matrix(-0.81, 0, 0, 0.81, 72.785, 0)" xlink:href="#t"/>
            <use width="36.022" height="42.466" transform="matrix(-0.81, 0, 0, 0.81, 77.069, 27.401)" xlink:href="#u"/>
          </g>
          <use width="11.019" height="24.112" transform="matrix(-0.81, 0, 0, 0.81, 63.864, 26.883)" xlink:href="#v"/>
        </g>
      </g>
      <g>
        <use width="75.929" height="11.334" transform="translate(0 104.034) scale(0.464 0.83)" xlink:href="#k"/>
        <use width="43.082" height="167.502" transform="translate(5.444 0.71) scale(0.648)" xlink:href="#x"/>
      </g>
    </symbol>
  </defs>
  <g>
    <circle cx="100" cy="100" r="100" fill="#fff"/>
    <use width="130.169" height="143.637" transform="translate(37.5 28.269)" xlink:href="#a"/>
  </g>
</svg>
