<svg viewBox="0 0 200 200" version="1.1" xmlns="http://www.w3.org/2000/svg" xmlns:xlink="http://www.w3.org/1999/xlink">
  <g id="Page-1" stroke="none" stroke-width="1" fill="none" fill-rule="evenodd">
      <g id="card" fill-rule="nonzero">
          <g fill="#FFFFFF" id="Oval">
              <circle cx="100" cy="100" r="100"></circle>
          </g>
          <g id="appuio_cloud_rgb" transform="translate(17.000000, 75.000000)">
              <path d="M34.0083205,32.00124 C36.5411245,31.9710516 38.9630571,33.0948718 40.6528388,35.0844156 L39.7784672,35.9523918 C38.3264197,34.1998391 36.2125706,33.2156489 34.0059685,33.2647654 C31.9289232,33.2230489 29.9266508,34.0819071 28.467114,35.6406111 C27.0075771,37.1993151 26.218681,39.3212694 26.2848031,41.5105397 C26.2230231,43.6967896 27.0143933,45.8140779 28.4741593,47.368099 C29.9339252,48.9221202 31.9343172,49.7768546 34.0083205,49.7327547 C36.2323515,49.7810426 38.3597964,48.7756303 39.8055157,46.9930497 L40.7051717,47.8610259 C39.0144468,49.8874013 36.5678033,51.0328425 34.0083205,50.9962801 C30.7899576,50.9962802 27.8160676,49.1859449 26.2068861,46.2472101 C24.5977046,43.3084753 24.5977046,39.6878048 26.2068861,36.74907 C27.8160676,33.8103352 30.7899576,32 34.0083205,32 L34.0083205,32.00124 Z M43.5252699,32.3174313 L44.824773,32.3174313 L44.824773,49.4165633 L52.3230825,49.4165633 L52.3230825,50.6813287 L43.5252699,50.6813287 L43.5252699,32.3174313 Z M61.7535943,32.00124 C66.7285927,31.9943975 70.7669481,36.2410534 70.7736657,41.4865628 C70.7803666,46.7320722 66.7528893,50.9901971 61.7778915,50.9975122 C56.8028936,51.0048084 52.7641827,46.7585284 52.7570342,41.5130196 C52.7161936,38.9814849 53.6504349,36.5406326 55.3463253,34.7480897 C57.0422157,32.9555468 59.3548692,31.9644568 61.7559464,32.00124 L61.7535943,32.00124 Z M61.7535943,49.7067154 C63.816533,49.7450463 65.8042918,48.890575 67.2537618,47.3423766 C68.7032317,45.7941781 69.4878366,43.6874503 69.4247788,41.5130196 C69.4668281,38.584656 68.0092114,35.8595629 65.6107211,34.3824329 C63.2122308,32.9053028 60.2449769,32.9053028 57.8464866,34.3824329 C55.4479963,35.8595629 53.9903796,38.584656 54.0324289,41.5130196 C53.9764892,43.6949083 54.7706465,45.8057247 56.2299391,47.3538535 C57.6892316,48.9019823 59.6862731,49.752282 61.7559464,49.7067154 L61.7535943,49.7067154 Z M73.9877401,32.3174313 L75.2872432,32.3174313 L75.2872432,44.4635189 C75.2872432,47.8883052 77.185929,49.7333747 80.1847823,49.7333747 C83.1836357,49.7333747 85.0823215,47.8889251 85.0823215,44.4635189 L85.0823215,32.3174313 L86.3818246,32.3174313 L86.3818246,44.5980552 C86.3818246,48.7606213 83.8081028,51 80.1847823,51 C76.5614619,51 73.9900921,48.7581414 73.9900921,44.5980552 L73.9877401,32.3174313 Z M90.7313381,32.3174313 L96.0034399,32.3174313 C101.576015,32.3174313 105,36.0590289 105,41.5130196 C105,46.9670104 101.601888,50.6813287 96.0293123,50.6813287 L90.7319261,50.6813287 L90.7313381,32.3174313 Z M95.9287626,49.4165633 C100.95096,49.4165633 103.675212,46.2025713 103.675212,41.5130196 C103.675212,36.7968087 100.95096,33.5821967 95.9034781,33.5821967 L92.0302532,33.5821967 L92.0302532,49.4165633 L95.9287626,49.4165633 Z" id="Shape" fill="#0D3047"></path>
              <path d="M8.69377066,0.744426918 L0,20.6010656 L3.94349954,20.6010656 L5.64505416,16.6413758 L14.9073788,16.6413758 L16.6089334,20.6010656 L20.5536064,20.6010656 L11.8604225,0.744426918 L8.69377066,0.744426918 Z M6.8114992,13.7061585 L10.2768032,5.61556717 L13.7421072,13.7061585 L6.8114992,13.7061585 Z M30.6232894,0.744426918 L22.6770292,0.744426918 L22.6770292,20.6010656 L26.4110615,20.6010656 L26.4110615,13.6490879 L30.6232894,13.6490879 C34.3602247,13.6490879 37.3896093,10.7602812 37.3896093,7.19675742 C37.3896093,3.63323368 34.3602247,0.744426918 30.6232894,0.744426918 L30.6232894,0.744426918 Z M30.4472665,10.4301964 L26.4110615,10.4301964 L26.4110615,3.96331847 L30.4443327,3.96331847 C31.337494,3.95163581 32.1955416,4.29458966 32.8130411,4.91006972 C33.4305407,5.52554978 33.7518966,6.35814227 33.7001695,7.20850724 C33.7418593,8.05416217 33.4163708,8.87884427 32.8003198,9.48843401 C32.1842688,10.0980238 31.3320746,10.4386727 30.4443327,10.4301964 L30.4472665,10.4301964 Z M43.5011242,13.6490879 L47.713352,13.6490879 C51.4502873,13.6490879 54.479672,10.7602812 54.479672,7.19675742 C54.479672,3.63323368 51.4502873,0.744426918 47.713352,0.744426918 L39.7670919,0.744426918 L39.7670919,20.6010656 L43.5011242,20.6010656 L43.5011242,13.6490879 Z M43.5011242,3.96331847 L47.5343954,3.96331847 C48.4276105,3.95146813 49.2857636,4.29436986 49.9033021,4.90988874 C50.5208406,5.52540763 50.8421372,6.35809831 50.7902321,7.20850724 C50.8312562,8.05378371 50.5054714,8.87787189 49.8894952,9.48696419 C49.273519,10.0960565 48.4217101,10.4364018 47.5343954,10.4279583 L43.5011242,10.4279583 L43.5011242,3.96331847 Z M73.5629005,12.9916574 C73.5629005,18.2902674 69.8288682,20.9110371 65.1384449,20.9110371 C60.4180976,20.9110371 56.6840653,18.2902674 56.6840653,12.9916574 L56.6840653,0.744426918 L60.4180976,0.744426918 L60.4180976,12.6234964 C60.4180976,16.156276 62.3003691,17.6943836 65.1384449,17.6943836 C67.9465967,17.6943836 69.8288682,16.156276 69.8288682,12.6234964 L69.8288682,0.744426918 L73.5629005,0.744426918 L73.5629005,12.9916574 Z M80.4624111,20.6010656 L76.8779983,20.6010656 L76.8779983,6.24222431 L80.4624111,6.24222431 L80.4624111,20.6010656 Z M80.7915739,2.53991153 C80.77225,3.65170835 79.8215964,4.54334637 78.6555361,4.54334637 C77.4894759,4.54334637 76.5388223,3.65170835 76.5194983,2.53991153 C76.5388223,1.42811472 77.4894759,0.536476692 78.6555361,0.536476692 C79.8215964,0.536476692 80.77225,1.42811472 80.7915739,2.53991153 L80.7915739,2.53991153 Z M93.9745151,21 C100.098352,21 104.997655,16.5557699 104.997655,10.7161087 C105.089652,6.45182258 102.467405,2.55817665 98.3626143,0.864062743 C94.2578241,-0.830051164 89.4862126,0.0120285664 86.2890624,2.99476706 C83.0919122,5.97750555 82.1045749,10.5081602 83.7908146,14.4586285 C85.4770542,18.4090968 89.501774,20.9943248 93.9745151,21 L93.9745151,21 Z M93.9745151,3.62257365 C95.9396445,3.61278195 97.8255184,4.36072863 99.2037779,5.69652447 C100.582037,7.03232031 101.335689,8.84257603 101.293547,10.7161087 C101.326937,13.2306661 99.9392862,15.5679587 97.6610462,16.8345189 C95.3828061,18.101079 92.5662242,18.101079 90.2879841,16.8345189 C88.009744,15.5679587 86.6220931,13.2306661 86.6554832,10.7161087 C86.6079217,8.84098477 87.3597719,7.02761622 88.7391776,5.69049862 C90.1185833,4.35338101 92.0076269,3.60681706 93.9745151,3.62145462 L93.9745151,3.62257365 Z" id="Shape" fill="#0D3047"></path>
              <path d="M163.491823,1 L117.508177,1 C116.122949,1 115,2.12248294 115,3.50713581 L115,37.0834156 C115,38.4680684 116.122949,39.5905514 117.508177,39.5905514 L140.50118,39.5905514 L140.50118,50 L150.914953,39.5905514 L163.491823,39.5905514 C164.157033,39.5905514 164.794997,39.3264075 165.265372,38.8562283 C165.735746,38.3860491 166,37.7483493 166,37.0834156 L166,3.50713581 C166,2.84220205 165.735746,2.20450225 165.265372,1.73432308 C164.794997,1.26414391 164.157033,1 163.491823,1 Z" id="Path" fill="#FFD200"></path>
          </g>
      </g>
  </g>
</svg>