<?xml version="1.0" encoding="UTF-8" standalone="no"?>
<svg
   viewBox="0 0 1920 250"
   version="1.1"
   id="svg217"
   sodipodi:docname="header.svg"
   inkscape:version="1.2.2 (b0a8486541, 2022-12-01)"
   width="1920"
   height="250"
   xmlns:inkscape="http://www.inkscape.org/namespaces/inkscape"
   xmlns:sodipodi="http://sodipodi.sourceforge.net/DTD/sodipodi-0.dtd"
   xmlns="http://www.w3.org/2000/svg"
   xmlns:svg="http://www.w3.org/2000/svg">
  <defs
     id="defs221" />
  <sodipodi:namedview
     id="namedview219"
     pagecolor="#a7e4f2"
     bordercolor="#000000"
     borderopacity="0.25"
     inkscape:showpageshadow="2"
     inkscape:pageopacity="1"
     inkscape:pagecheckerboard="0"
     inkscape:deskcolor="#d1d1d1"
     showgrid="false"
     inkscape:zoom="0.72424541"
     inkscape:cx="938.90826"
     inkscape:cy="278.22061"
     inkscape:window-width="1920"
     inkscape:window-height="1016"
     inkscape:window-x="0"
     inkscape:window-y="0"
     inkscape:window-maximized="1"
     inkscape:current-layer="svg217" />
  <g
     id="g2893"
     transform="translate(126.66721)">
    <g
       id="containers"
       transform="translate(539.21433,-17.46664)"
       style="fill:none;fill-rule:evenodd;stroke:none;stroke-width:1">
      <g
         id="container_1"
         transform="translate(0,40)">
        <g
           id="container">
          <polyline
             id="Path"
             stroke="#4c4d4d"
             points="70.89 0.08 70.89 35.06 63.07 35.06 63.07 0.08" />
          <g
             id="container_Zeilen_2-link"
             transform="translate(0.17,34.44)">
            <g
               id="container_Zeilen_2">
              <path
                 d="M 57,120.53 67.25,19.66 c 0.04145,-0.101606 0.140266,-0.16802 0.25,-0.16802 0.109734,0 0.208553,0.06641 0.25,0.16802 l 11.08,100.87"
                 id="path4"
                 stroke="#4c4d4d" />
              <rect
                 id="Rectangle"
                 fill="#81d4dc"
                 fill-rule="nonzero"
                 x="0"
                 y="51.849998"
                 width="136.99001"
                 height="68.059998" />
              <rect
                 id="rect7"
                 fill="#1d1d1b"
                 fill-rule="nonzero"
                 opacity="0.05"
                 x="4.0300002"
                 y="55.880001"
                 width="128.92"
                 height="60" />
              <path
                 d="m 131.34,57.49 v 56.77 H 5.65 V 57.49 H 131.34 M 133,55.88 H 4 v 60 h 129 z"
                 id="Shape"
                 fill="#1d1d1b"
                 fill-rule="nonzero"
                 opacity="0.1" />
              <path
                 d="m 68.87,60.61 c -1.181889,0 -2.14,0.958111 -2.14,2.14 v 47 c 0,1.18189 0.958111,2.14 2.14,2.14 1.181889,0 2.14,-0.95811 2.14,-2.14 v -47 c 0,-1.181889 -0.958111,-2.14 -2.14,-2.14 z"
                 id="path10"
                 fill="#7dacb9"
                 fill-rule="nonzero" />
              <path
                 d="m 58.19,60.609977 c -0.567563,0 -1.111881,0.225487 -1.513209,0.626815 C 56.275464,61.638119 56.05,62.182437 56.05,62.75 v 47 c 0.07706,1.12791 1.014465,2.00346 2.145,2.00346 1.130535,0 2.067943,-0.87555 2.145,-2.00346 v -47 c 0,-0.5693 -0.22683,-1.115139 -0.630323,-1.516755 C 59.306184,60.831628 58.759294,60.60734 58.19,60.609977 Z"
                 id="path12"
                 fill="#7dacb9"
                 fill-rule="nonzero" />
              <path
                 d="m 47.55,60.61 c -1.181889,0 -2.14,0.958111 -2.14,2.14 v 47 c 0,1.18189 0.958111,2.14 2.14,2.14 1.181889,0 2.14,-0.95811 2.14,-2.14 v -47 c -0.02133,-1.17294 -0.96706,-2.118669 -2.14,-2.14 z"
                 id="path14"
                 fill="#7dacb9"
                 fill-rule="nonzero" />
              <path
                 d="m 36.87,60.61 c -1.181889,0 -2.14,0.958111 -2.14,2.14 v 47 c 0,1.18189 0.958111,2.14 2.14,2.14 1.181889,0 2.14,-0.95811 2.14,-2.14 v -47 c -0.01085,-1.177365 -0.962635,-2.129148 -2.14,-2.14 z"
                 id="path16"
                 fill="#7dacb9"
                 fill-rule="nonzero" />
              <path
                 d="m 111.59,60.61 c -1.18189,0 -2.14,0.958111 -2.14,2.14 v 47 c 0,1.18189 0.95811,2.14 2.14,2.14 1.18189,0 2.14,-0.95811 2.14,-2.14 v -47 c -0.0264,-1.170764 -0.96924,-2.113562 -2.14,-2.14 z"
                 id="path18"
                 fill="#7dacb9"
                 fill-rule="nonzero" />
              <path
                 d="m 122.23,60.61 c -1.18189,0 -2.14,0.958111 -2.14,2.14 v 47 c 0,1.18189 0.95811,2.14 2.14,2.14 1.18189,0 2.14,-0.95811 2.14,-2.14 v -47 c 0,-1.181889 -0.95811,-2.14 -2.14,-2.14 z"
                 id="path20"
                 fill="#7dacb9"
                 fill-rule="nonzero" />
              <path
                 d="m 26.19,60.61 c -1.181889,0 -2.14,0.958111 -2.14,2.14 v 47 c 0,1.18189 0.958111,2.14 2.14,2.14 1.181889,0 2.14,-0.95811 2.14,-2.14 v -47 c -0.01085,-1.177365 -0.962635,-2.129148 -2.14,-2.14 z"
                 id="path22"
                 fill="#7dacb9"
                 fill-rule="nonzero" />
              <path
                 d="m 15.51,60.609977 c -1.181889,0 -2.14,0.958134 -2.14,2.140023 v 47 c 0.07706,1.12791 1.014465,2.00346 2.145,2.00346 1.130535,0 2.067943,-0.87555 2.145,-2.00346 v -47 c 0,-0.5693 -0.22683,-1.115139 -0.630323,-1.516755 C 16.626184,60.831628 16.079294,60.60734 15.51,60.609977 Z"
                 id="path24"
                 fill="#7dacb9"
                 fill-rule="nonzero" />
              <path
                 d="m 100.91,60.61 c -1.181889,0 -2.14,0.958111 -2.14,2.14 v 47 c 0,1.18189 0.958111,2.14 2.14,2.14 1.18189,0 2.14,-0.95811 2.14,-2.14 v -47 c -0.0108,-1.177365 -0.96263,-2.129148 -2.14,-2.14 z"
                 id="path26"
                 fill="#7dacb9"
                 fill-rule="nonzero" />
              <path
                 d="m 90.23,60.61 c -0.567563,0 -1.111881,0.225464 -1.513209,0.626792 C 88.315464,61.638119 88.09,62.182437 88.09,62.75 v 47 c 0,1.18189 0.958111,2.14 2.14,2.14 1.181889,0 2.14,-0.95811 2.14,-2.14 v -47 c -0.01085,-1.177365 -0.962635,-2.129148 -2.14,-2.14 z"
                 id="path28"
                 fill="#7dacb9"
                 fill-rule="nonzero" />
              <path
                 d="m 79.55,60.61 c -1.181889,0 -2.14,0.958111 -2.14,2.14 v 47 c 0,1.18189 0.958111,2.14 2.14,2.14 1.181889,0 2.14,-0.95811 2.14,-2.14 v -47 c -0.01085,-1.177365 -0.962635,-2.129148 -2.14,-2.14 z"
                 id="path30"
                 fill="#7dacb9"
                 fill-rule="nonzero" />
              <path
                 d="m 68.5,60.23 c -0.570216,0 -1.117076,0.226517 -1.52028,0.62972 C 66.576517,61.262924 66.35,61.809784 66.35,62.38 v 47 c -0.05474,0.80129 0.341698,1.56629 1.027945,1.98358 0.686247,0.41729 1.547863,0.41729 2.23411,0 0.686246,-0.41729 1.082688,-1.18229 1.027945,-1.98358 v -47 C 70.64266,61.810706 70.418372,61.263816 70.016755,60.860323 69.615138,60.45683 69.0693,60.23 68.5,60.23 Z"
                 id="path32"
                 fill="#a3d7df"
                 fill-rule="nonzero" />
              <path
                 d="m 57.82,60.23 c -1.187412,0 -2.15,0.962588 -2.15,2.15 v 47 c -0.05474,0.80129 0.341699,1.56629 1.027945,1.98358 0.686247,0.41729 1.547863,0.41729 2.23411,0 0.686246,-0.41729 1.082688,-1.18229 1.027945,-1.98358 v -47 C 59.96266,61.810706 59.738372,61.263816 59.336755,60.860323 58.935138,60.45683 58.3893,60.23 57.82,60.23 Z"
                 id="path34"
                 fill="#a3d7df"
                 fill-rule="nonzero" />
              <path
                 d="m 47.17,60.229789 c -0.574481,-0.0078 -1.128075,0.215428 -1.536211,0.619803 C 45.225653,61.253966 44.997259,61.805469 45,62.38 v 47 c -0.05474,0.80129 0.341698,1.56629 1.027945,1.98358 0.686247,0.41729 1.547863,0.41729 2.23411,0 0.686246,-0.41729 1.082688,-1.18229 1.027945,-1.98358 v -47 c -0.02644,-1.176285 -0.973715,-2.123557 -2.15,-2.150211 z"
                 id="path36"
                 fill="#a3d7df"
                 fill-rule="nonzero" />
              <path
                 d="m 36.49,60.23 c -0.5693,0 -1.115138,0.22683 -1.516755,0.630323 C 34.571628,61.263816 34.34734,61.810706 34.35,62.38 v 47 c -0.05474,0.80129 0.341698,1.56629 1.027945,1.98358 0.686247,0.41729 1.547863,0.41729 2.23411,0 0.686246,-0.41729 1.082688,-1.18229 1.027945,-1.98358 v -47 c -0.01085,-1.182888 -0.967112,-2.139147 -2.15,-2.15 z"
                 id="path38"
                 fill="#a3d7df"
                 fill-rule="nonzero" />
              <path
                 d="m 111.21,60.23 c -0.5693,0 -1.11514,0.22683 -1.51675,0.630323 -0.40162,0.403493 -0.62591,0.950383 -0.62325,1.519677 v 47 c -0.0547,0.80129 0.3417,1.56629 1.02794,1.98358 0.68625,0.41729 1.54787,0.41729 2.23411,0 0.68625,-0.41729 1.08269,-1.18229 1.02795,-1.98358 v -47 c -0.0264,-1.176285 -0.97371,-2.123557 -2.15,-2.15 z"
                 id="path40"
                 fill="#a3d7df"
                 fill-rule="nonzero" />
              <path
                 d="m 121.85,60.23 c -0.5693,0 -1.11514,0.22683 -1.51675,0.630323 -0.40162,0.403493 -0.62591,0.950383 -0.62325,1.519677 v 47 c -0.0547,0.80129 0.3417,1.56629 1.02794,1.98358 0.68625,0.41729 1.54787,0.41729 2.23411,0 0.68625,-0.41729 1.08269,-1.18229 1.02795,-1.98358 v -47 c 0,-1.187412 -0.96259,-2.15 -2.15,-2.15 z"
                 id="path42"
                 fill="#a3d7df"
                 fill-rule="nonzero" />
              <path
                 d="m 25.82,60.23 c -1.187412,0 -2.15,0.962588 -2.15,2.15 v 47 c -0.05474,0.80129 0.341699,1.56629 1.027945,1.98358 0.686247,0.41729 1.547863,0.41729 2.23411,0 0.686246,-0.41729 1.082688,-1.18229 1.027945,-1.98358 v -47 c -0.01075,-1.179044 -0.961019,-2.133748 -2.14,-2.15 z"
                 id="path44"
                 fill="#a3d7df"
                 fill-rule="nonzero" />
              <path
                 d="m 15.14,60.23 c -1.183505,0.0055 -2.140013,0.966482 -2.14,2.15 v 47 c -0.05474,0.80129 0.341699,1.56629 1.027945,1.98358 0.686247,0.41729 1.547863,0.41729 2.23411,0 0.686246,-0.41729 1.082688,-1.18229 1.027945,-1.98358 v -47 C 17.29266,61.810706 17.068372,61.263816 16.666755,60.860323 16.265138,60.45683 15.7193,60.23 15.15,60.23 Z"
                 id="path46"
                 fill="#a3d7df"
                 fill-rule="nonzero" />
              <path
                 d="m 100.53,60.23 c -0.5693,0 -1.115139,0.22683 -1.516755,0.630323 C 98.611628,61.263816 98.38734,61.810706 98.39,62.38 v 47 c -0.05474,0.80129 0.341698,1.56629 1.027945,1.98358 0.686245,0.41729 1.547865,0.41729 2.234115,0 0.68624,-0.41729 1.08268,-1.18229 1.02794,-1.98358 v -47 c -0.0109,-1.182888 -0.96711,-2.139147 -2.15,-2.15 z"
                 id="path48"
                 fill="#a3d7df"
                 fill-rule="nonzero" />
              <path
                 d="m 89.85,60.23 c -0.5693,0 -1.115139,0.22683 -1.516755,0.630323 C 87.931628,61.263816 87.70734,61.810706 87.71,62.38 v 47 c -0.05474,0.80129 0.341698,1.56629 1.027945,1.98358 0.686247,0.41729 1.547863,0.41729 2.23411,0 C 91.658301,110.94629 92.054743,110.18129 92,109.38 v -47 c -0.01085,-1.182888 -0.967112,-2.139147 -2.15,-2.15 z"
                 id="path50"
                 fill="#a3d7df"
                 fill-rule="nonzero" />
              <path
                 d="m 79.17,60.229789 c -0.574481,-0.0078 -1.128075,0.215428 -1.536211,0.619803 -0.408136,0.404374 -0.63653,0.955877 -0.633813,1.530408 v 47 c -0.0026,0.56929 0.221652,1.11618 0.623269,1.51968 0.401616,0.40349 0.947455,0.63054 1.516755,0.63054 0.572679,0.008 1.124295,-0.21595 1.529282,-0.62094 0.404986,-0.40498 0.628881,-0.9566 0.620718,-1.52928 v -47 c -0.01085,-1.182888 -0.967112,-2.139147 -2.15,-2.150211 z"
                 id="path52"
                 fill="#a3d7df"
                 fill-rule="nonzero" />
              <path
                 d="M 26.29,120.53 66.56,19.66 c 0.04145,-0.101606 0.140266,-0.16802 0.25,-0.16802 0.109734,0 0.208553,0.06641 0.25,0.16802 l 41.08,100.88"
                 id="path54"
                 stroke="#4c4d4d" />
              <polygon
                 id="polygon56"
                 fill="#ffd301"
                 fill-rule="nonzero"
                 points="66.81,9.28 61.13,0 72.49,0 " />
              <path
                 d="m 71,14.87 c -0.0055,2.301718 -1.874929,4.163672 -4.176651,4.16 C 64.521628,19.0263 62.658178,17.158398 62.660012,14.856675 62.661849,12.554951 64.528276,10.690007 66.83,10.69 V 8.63"
                 id="path58"
                 stroke="#4c4d4d" />
              <polygon
                 id="polygon60"
                 fill="#367088"
                 fill-rule="nonzero"
                 points="117.71,123.47 117.71,120 18.1,120 18.1,123.47 " />
            </g>
          </g>
        </g>
      </g>
      <g
         id="container_2"
         transform="translate(159,31)">
        <g
           id="container-2"
           transform="translate(63)"
           stroke="#4c4d4d">
          <polyline
             id="polyline66"
             points="8.12 0.06 8.12 95.03 0.3 95.03 0.3 0.06" />
        </g>
        <g
           id="g131"
           transform="translate(0.37,93.77)">
          <g
             id="g129">
            <path
               d="M 57,120.53 67.25,19.66 c 0.04145,-0.101606 0.140266,-0.16802 0.25,-0.16802 0.109734,0 0.208553,0.06641 0.25,0.16802 l 11.08,100.87"
               id="path69"
               stroke="#4c4d4d" />
            <rect
               id="rect71"
               fill="#81d4dc"
               fill-rule="nonzero"
               x="0"
               y="51.849998"
               width="136.99001"
               height="68.059998" />
            <rect
               id="rect73"
               fill="#1d1d1b"
               fill-rule="nonzero"
               opacity="0.05"
               x="4.0300002"
               y="55.880001"
               width="128.92"
               height="60" />
            <path
               d="m 131.34,57.49 v 56.77 H 5.65 V 57.49 H 131.34 M 133,55.88 H 4 v 60 h 129 z"
               id="path75"
               fill="#1d1d1b"
               fill-rule="nonzero"
               opacity="0.1" />
            <path
               d="m 68.87,60.61 c -1.181889,0 -2.14,0.958111 -2.14,2.14 v 47 c 0,1.18189 0.958111,2.14 2.14,2.14 1.181889,0 2.14,-0.95811 2.14,-2.14 v -47 c 0,-1.181889 -0.958111,-2.14 -2.14,-2.14 z"
               id="path77"
               fill="#7dacb9"
               fill-rule="nonzero" />
            <path
               d="m 58.19,60.609977 c -0.567563,0 -1.111881,0.225487 -1.513209,0.626815 C 56.275464,61.638119 56.05,62.182437 56.05,62.75 v 47 c 0.07706,1.12791 1.014465,2.00346 2.145,2.00346 1.130535,0 2.067943,-0.87555 2.145,-2.00346 v -47 c 0,-0.5693 -0.22683,-1.115139 -0.630323,-1.516755 C 59.306184,60.831628 58.759294,60.60734 58.19,60.609977 Z"
               id="path79"
               fill="#7dacb9"
               fill-rule="nonzero" />
            <path
               d="m 47.55,60.61 c -1.181889,0 -2.14,0.958111 -2.14,2.14 v 47 c 0,1.18189 0.958111,2.14 2.14,2.14 1.181889,0 2.14,-0.95811 2.14,-2.14 v -47 c -0.02133,-1.17294 -0.96706,-2.118669 -2.14,-2.14 z"
               id="path81"
               fill="#7dacb9"
               fill-rule="nonzero" />
            <path
               d="m 36.87,60.61 c -1.181889,0 -2.14,0.958111 -2.14,2.14 v 47 c 0,1.18189 0.958111,2.14 2.14,2.14 1.181889,0 2.14,-0.95811 2.14,-2.14 v -47 c -0.01085,-1.177365 -0.962635,-2.129148 -2.14,-2.14 z"
               id="path83"
               fill="#7dacb9"
               fill-rule="nonzero" />
            <path
               d="m 111.59,60.61 c -1.18189,0 -2.14,0.958111 -2.14,2.14 v 47 c 0,1.18189 0.95811,2.14 2.14,2.14 1.18189,0 2.14,-0.95811 2.14,-2.14 v -47 c -0.0264,-1.170764 -0.96924,-2.113562 -2.14,-2.14 z"
               id="path85"
               fill="#7dacb9"
               fill-rule="nonzero" />
            <path
               d="m 122.23,60.61 c -1.18189,0 -2.14,0.958111 -2.14,2.14 v 47 c 0,1.18189 0.95811,2.14 2.14,2.14 1.18189,0 2.14,-0.95811 2.14,-2.14 v -47 c 0,-1.181889 -0.95811,-2.14 -2.14,-2.14 z"
               id="path87"
               fill="#7dacb9"
               fill-rule="nonzero" />
            <path
               d="m 26.19,60.61 c -1.181889,0 -2.14,0.958111 -2.14,2.14 v 47 c 0,1.18189 0.958111,2.14 2.14,2.14 1.181889,0 2.14,-0.95811 2.14,-2.14 v -47 c -0.01085,-1.177365 -0.962635,-2.129148 -2.14,-2.14 z"
               id="path89"
               fill="#7dacb9"
               fill-rule="nonzero" />
            <path
               d="m 15.51,60.609977 c -1.181889,0 -2.14,0.958134 -2.14,2.140023 v 47 c 0.07706,1.12791 1.014465,2.00346 2.145,2.00346 1.130535,0 2.067943,-0.87555 2.145,-2.00346 v -47 c 0,-0.5693 -0.22683,-1.115139 -0.630323,-1.516755 C 16.626184,60.831628 16.079294,60.60734 15.51,60.609977 Z"
               id="path91"
               fill="#7dacb9"
               fill-rule="nonzero" />
            <path
               d="m 100.91,60.61 c -1.181889,0 -2.14,0.958111 -2.14,2.14 v 47 c 0,1.18189 0.958111,2.14 2.14,2.14 1.18189,0 2.14,-0.95811 2.14,-2.14 v -47 c -0.0108,-1.177365 -0.96263,-2.129148 -2.14,-2.14 z"
               id="path93"
               fill="#7dacb9"
               fill-rule="nonzero" />
            <path
               d="m 90.23,60.61 c -0.567563,0 -1.111881,0.225464 -1.513209,0.626792 C 88.315464,61.638119 88.09,62.182437 88.09,62.75 v 47 c 0,1.18189 0.958111,2.14 2.14,2.14 1.181889,0 2.14,-0.95811 2.14,-2.14 v -47 c -0.01085,-1.177365 -0.962635,-2.129148 -2.14,-2.14 z"
               id="path95"
               fill="#7dacb9"
               fill-rule="nonzero" />
            <path
               d="m 79.55,60.61 c -1.181889,0 -2.14,0.958111 -2.14,2.14 v 47 c 0,1.18189 0.958111,2.14 2.14,2.14 1.181889,0 2.14,-0.95811 2.14,-2.14 v -47 c -0.01085,-1.177365 -0.962635,-2.129148 -2.14,-2.14 z"
               id="path97"
               fill="#7dacb9"
               fill-rule="nonzero" />
            <path
               d="m 68.5,60.23 c -0.570216,0 -1.117076,0.226517 -1.52028,0.62972 C 66.576517,61.262924 66.35,61.809784 66.35,62.38 v 47 c -0.05474,0.80129 0.341698,1.56629 1.027945,1.98358 0.686247,0.41729 1.547863,0.41729 2.23411,0 0.686246,-0.41729 1.082688,-1.18229 1.027945,-1.98358 v -47 C 70.64266,61.810706 70.418372,61.263816 70.016755,60.860323 69.615138,60.45683 69.0693,60.23 68.5,60.23 Z"
               id="path99"
               fill="#a3d7df"
               fill-rule="nonzero" />
            <path
               d="m 57.82,60.23 c -1.187412,0 -2.15,0.962588 -2.15,2.15 v 47 c -0.05474,0.80129 0.341699,1.56629 1.027945,1.98358 0.686247,0.41729 1.547863,0.41729 2.23411,0 0.686246,-0.41729 1.082688,-1.18229 1.027945,-1.98358 v -47 C 59.96266,61.810706 59.738372,61.263816 59.336755,60.860323 58.935138,60.45683 58.3893,60.23 57.82,60.23 Z"
               id="path101"
               fill="#a3d7df"
               fill-rule="nonzero" />
            <path
               d="m 47.17,60.229789 c -0.574481,-0.0078 -1.128075,0.215428 -1.536211,0.619803 C 45.225653,61.253966 44.997259,61.805469 45,62.38 v 47 c -0.05474,0.80129 0.341698,1.56629 1.027945,1.98358 0.686247,0.41729 1.547863,0.41729 2.23411,0 0.686246,-0.41729 1.082688,-1.18229 1.027945,-1.98358 v -47 c -0.02644,-1.176285 -0.973715,-2.123557 -2.15,-2.150211 z"
               id="path103"
               fill="#a3d7df"
               fill-rule="nonzero" />
            <path
               d="m 36.49,60.23 c -0.5693,0 -1.115138,0.22683 -1.516755,0.630323 C 34.571628,61.263816 34.34734,61.810706 34.35,62.38 v 47 c -0.05474,0.80129 0.341698,1.56629 1.027945,1.98358 0.686247,0.41729 1.547863,0.41729 2.23411,0 0.686246,-0.41729 1.082688,-1.18229 1.027945,-1.98358 v -47 c -0.01085,-1.182888 -0.967112,-2.139147 -2.15,-2.15 z"
               id="path105"
               fill="#a3d7df"
               fill-rule="nonzero" />
            <path
               d="m 111.21,60.23 c -0.5693,0 -1.11514,0.22683 -1.51675,0.630323 -0.40162,0.403493 -0.62591,0.950383 -0.62325,1.519677 v 47 c -0.0547,0.80129 0.3417,1.56629 1.02794,1.98358 0.68625,0.41729 1.54787,0.41729 2.23411,0 0.68625,-0.41729 1.08269,-1.18229 1.02795,-1.98358 v -47 c -0.0264,-1.176285 -0.97371,-2.123557 -2.15,-2.15 z"
               id="path107"
               fill="#a3d7df"
               fill-rule="nonzero" />
            <path
               d="m 121.85,60.23 c -0.5693,0 -1.11514,0.22683 -1.51675,0.630323 -0.40162,0.403493 -0.62591,0.950383 -0.62325,1.519677 v 47 c -0.0547,0.80129 0.3417,1.56629 1.02794,1.98358 0.68625,0.41729 1.54787,0.41729 2.23411,0 0.68625,-0.41729 1.08269,-1.18229 1.02795,-1.98358 v -47 c 0,-1.187412 -0.96259,-2.15 -2.15,-2.15 z"
               id="path109"
               fill="#a3d7df"
               fill-rule="nonzero" />
            <path
               d="m 25.82,60.23 c -1.187412,0 -2.15,0.962588 -2.15,2.15 v 47 c -0.05474,0.80129 0.341699,1.56629 1.027945,1.98358 0.686247,0.41729 1.547863,0.41729 2.23411,0 0.686246,-0.41729 1.082688,-1.18229 1.027945,-1.98358 v -47 c -0.01075,-1.179044 -0.961019,-2.133748 -2.14,-2.15 z"
               id="path111"
               fill="#a3d7df"
               fill-rule="nonzero" />
            <path
               d="m 15.14,60.23 c -1.183505,0.0055 -2.140013,0.966482 -2.14,2.15 v 47 c -0.05474,0.80129 0.341699,1.56629 1.027945,1.98358 0.686247,0.41729 1.547863,0.41729 2.23411,0 0.686246,-0.41729 1.082688,-1.18229 1.027945,-1.98358 v -47 C 17.29266,61.810706 17.068372,61.263816 16.666755,60.860323 16.265138,60.45683 15.7193,60.23 15.15,60.23 Z"
               id="path113"
               fill="#a3d7df"
               fill-rule="nonzero" />
            <path
               d="m 100.53,60.23 c -0.5693,0 -1.115139,0.22683 -1.516755,0.630323 C 98.611628,61.263816 98.38734,61.810706 98.39,62.38 v 47 c -0.05474,0.80129 0.341698,1.56629 1.027945,1.98358 0.686245,0.41729 1.547865,0.41729 2.234115,0 0.68624,-0.41729 1.08268,-1.18229 1.02794,-1.98358 v -47 c -0.0109,-1.182888 -0.96711,-2.139147 -2.15,-2.15 z"
               id="path115"
               fill="#a3d7df"
               fill-rule="nonzero" />
            <path
               d="m 89.85,60.23 c -0.5693,0 -1.115139,0.22683 -1.516755,0.630323 C 87.931628,61.263816 87.70734,61.810706 87.71,62.38 v 47 c -0.05474,0.80129 0.341698,1.56629 1.027945,1.98358 0.686247,0.41729 1.547863,0.41729 2.23411,0 C 91.658301,110.94629 92.054743,110.18129 92,109.38 v -47 c -0.01085,-1.182888 -0.967112,-2.139147 -2.15,-2.15 z"
               id="path117"
               fill="#a3d7df"
               fill-rule="nonzero" />
            <path
               d="m 79.17,60.229789 c -0.574481,-0.0078 -1.128075,0.215428 -1.536211,0.619803 -0.408136,0.404374 -0.63653,0.955877 -0.633813,1.530408 v 47 c -0.0026,0.56929 0.221652,1.11618 0.623269,1.51968 0.401616,0.40349 0.947455,0.63054 1.516755,0.63054 0.572679,0.008 1.124295,-0.21595 1.529282,-0.62094 0.404986,-0.40498 0.628881,-0.9566 0.620718,-1.52928 v -47 c -0.01085,-1.182888 -0.967112,-2.139147 -2.15,-2.150211 z"
               id="path119"
               fill="#a3d7df"
               fill-rule="nonzero" />
            <path
               d="M 26.29,120.53 66.56,19.66 c 0.04145,-0.101606 0.140266,-0.16802 0.25,-0.16802 0.109734,0 0.208553,0.06641 0.25,0.16802 l 41.08,100.88"
               id="path121"
               stroke="#4c4d4d" />
            <polygon
               id="polygon123"
               fill="#ffd301"
               fill-rule="nonzero"
               points="66.81,9.28 61.13,0 72.49,0 " />
            <path
               d="m 71,14.87 c -0.0055,2.301718 -1.874929,4.163672 -4.176651,4.16 C 64.521628,19.0263 62.658178,17.158398 62.660012,14.856675 62.661849,12.554951 64.528276,10.690007 66.83,10.69 V 8.63"
               id="path125"
               stroke="#4c4d4d" />
            <polygon
               id="polygon127"
               fill="#367088"
               fill-rule="nonzero"
               points="117.71,123.47 117.71,120 18.1,120 18.1,123.47 " />
          </g>
        </g>
      </g>
      <g
         id="container_3"
         transform="translate(307)">
        <g
           id="container-3"
           transform="translate(62)"
           stroke="#4c4d4d">
          <polyline
             id="polyline134"
             points="8.8 0.34 8.8 35.32 0.98 35.32 0.98 0.34" />
        </g>
        <g
           id="g199"
           transform="translate(0.38,34.05)">
          <g
             id="g197">
            <path
               d="M 57,120.53 67.25,19.66 c 0.04145,-0.101606 0.140266,-0.16802 0.25,-0.16802 0.109734,0 0.208553,0.06641 0.25,0.16802 l 11.08,100.87"
               id="path137"
               stroke="#4c4d4d" />
            <rect
               id="rect139"
               fill="#81d4dc"
               fill-rule="nonzero"
               x="0"
               y="51.849998"
               width="136.99001"
               height="68.059998" />
            <rect
               id="rect141"
               fill="#1d1d1b"
               fill-rule="nonzero"
               opacity="0.05"
               x="4.0300002"
               y="55.880001"
               width="128.92"
               height="60" />
            <path
               d="m 131.34,57.49 v 56.77 H 5.65 V 57.49 H 131.34 M 133,55.88 H 4 v 60 h 129 z"
               id="path143"
               fill="#1d1d1b"
               fill-rule="nonzero"
               opacity="0.1" />
            <path
               d="m 68.87,60.61 c -1.181889,0 -2.14,0.958111 -2.14,2.14 v 47 c 0,1.18189 0.958111,2.14 2.14,2.14 1.181889,0 2.14,-0.95811 2.14,-2.14 v -47 c 0,-1.181889 -0.958111,-2.14 -2.14,-2.14 z"
               id="path145"
               fill="#7dacb9"
               fill-rule="nonzero" />
            <path
               d="m 58.19,60.609977 c -0.567563,0 -1.111881,0.225487 -1.513209,0.626815 C 56.275464,61.638119 56.05,62.182437 56.05,62.75 v 47 c 0.07706,1.12791 1.014465,2.00346 2.145,2.00346 1.130535,0 2.067943,-0.87555 2.145,-2.00346 v -47 c 0,-0.5693 -0.22683,-1.115139 -0.630323,-1.516755 C 59.306184,60.831628 58.759294,60.60734 58.19,60.609977 Z"
               id="path147"
               fill="#7dacb9"
               fill-rule="nonzero" />
            <path
               d="m 47.55,60.61 c -1.181889,0 -2.14,0.958111 -2.14,2.14 v 47 c 0,1.18189 0.958111,2.14 2.14,2.14 1.181889,0 2.14,-0.95811 2.14,-2.14 v -47 c -0.02133,-1.17294 -0.96706,-2.118669 -2.14,-2.14 z"
               id="path149"
               fill="#7dacb9"
               fill-rule="nonzero" />
            <path
               d="m 36.87,60.61 c -1.181889,0 -2.14,0.958111 -2.14,2.14 v 47 c 0,1.18189 0.958111,2.14 2.14,2.14 1.181889,0 2.14,-0.95811 2.14,-2.14 v -47 c -0.01085,-1.177365 -0.962635,-2.129148 -2.14,-2.14 z"
               id="path151"
               fill="#7dacb9"
               fill-rule="nonzero" />
            <path
               d="m 111.59,60.61 c -1.18189,0 -2.14,0.958111 -2.14,2.14 v 47 c 0,1.18189 0.95811,2.14 2.14,2.14 1.18189,0 2.14,-0.95811 2.14,-2.14 v -47 c -0.0264,-1.170764 -0.96924,-2.113562 -2.14,-2.14 z"
               id="path153"
               fill="#7dacb9"
               fill-rule="nonzero" />
            <path
               d="m 122.23,60.61 c -1.18189,0 -2.14,0.958111 -2.14,2.14 v 47 c 0,1.18189 0.95811,2.14 2.14,2.14 1.18189,0 2.14,-0.95811 2.14,-2.14 v -47 c 0,-1.181889 -0.95811,-2.14 -2.14,-2.14 z"
               id="path155"
               fill="#7dacb9"
               fill-rule="nonzero" />
            <path
               d="m 26.19,60.61 c -1.181889,0 -2.14,0.958111 -2.14,2.14 v 47 c 0,1.18189 0.958111,2.14 2.14,2.14 1.181889,0 2.14,-0.95811 2.14,-2.14 v -47 c -0.01085,-1.177365 -0.962635,-2.129148 -2.14,-2.14 z"
               id="path157"
               fill="#7dacb9"
               fill-rule="nonzero" />
            <path
               d="m 15.51,60.609977 c -1.181889,0 -2.14,0.958134 -2.14,2.140023 v 47 c 0.07706,1.12791 1.014465,2.00346 2.145,2.00346 1.130535,0 2.067943,-0.87555 2.145,-2.00346 v -47 c 0,-0.5693 -0.22683,-1.115139 -0.630323,-1.516755 C 16.626184,60.831628 16.079294,60.60734 15.51,60.609977 Z"
               id="path159"
               fill="#7dacb9"
               fill-rule="nonzero" />
            <path
               d="m 100.91,60.61 c -1.181889,0 -2.14,0.958111 -2.14,2.14 v 47 c 0,1.18189 0.958111,2.14 2.14,2.14 1.18189,0 2.14,-0.95811 2.14,-2.14 v -47 c -0.0108,-1.177365 -0.96263,-2.129148 -2.14,-2.14 z"
               id="path161"
               fill="#7dacb9"
               fill-rule="nonzero" />
            <path
               d="m 90.23,60.61 c -0.567563,0 -1.111881,0.225464 -1.513209,0.626792 C 88.315464,61.638119 88.09,62.182437 88.09,62.75 v 47 c 0,1.18189 0.958111,2.14 2.14,2.14 1.181889,0 2.14,-0.95811 2.14,-2.14 v -47 c -0.01085,-1.177365 -0.962635,-2.129148 -2.14,-2.14 z"
               id="path163"
               fill="#7dacb9"
               fill-rule="nonzero" />
            <path
               d="m 79.55,60.61 c -1.181889,0 -2.14,0.958111 -2.14,2.14 v 47 c 0,1.18189 0.958111,2.14 2.14,2.14 1.181889,0 2.14,-0.95811 2.14,-2.14 v -47 c -0.01085,-1.177365 -0.962635,-2.129148 -2.14,-2.14 z"
               id="path165"
               fill="#7dacb9"
               fill-rule="nonzero" />
            <path
               d="m 68.5,60.23 c -0.570216,0 -1.117076,0.226517 -1.52028,0.62972 C 66.576517,61.262924 66.35,61.809784 66.35,62.38 v 47 c -0.05474,0.80129 0.341698,1.56629 1.027945,1.98358 0.686247,0.41729 1.547863,0.41729 2.23411,0 0.686246,-0.41729 1.082688,-1.18229 1.027945,-1.98358 v -47 C 70.64266,61.810706 70.418372,61.263816 70.016755,60.860323 69.615138,60.45683 69.0693,60.23 68.5,60.23 Z"
               id="path167"
               fill="#a3d7df"
               fill-rule="nonzero" />
            <path
               d="m 57.82,60.23 c -1.187412,0 -2.15,0.962588 -2.15,2.15 v 47 c -0.05474,0.80129 0.341699,1.56629 1.027945,1.98358 0.686247,0.41729 1.547863,0.41729 2.23411,0 0.686246,-0.41729 1.082688,-1.18229 1.027945,-1.98358 v -47 C 59.96266,61.810706 59.738372,61.263816 59.336755,60.860323 58.935138,60.45683 58.3893,60.23 57.82,60.23 Z"
               id="path169"
               fill="#a3d7df"
               fill-rule="nonzero" />
            <path
               d="m 47.17,60.229789 c -0.574481,-0.0078 -1.128075,0.215428 -1.536211,0.619803 C 45.225653,61.253966 44.997259,61.805469 45,62.38 v 47 c -0.05474,0.80129 0.341698,1.56629 1.027945,1.98358 0.686247,0.41729 1.547863,0.41729 2.23411,0 0.686246,-0.41729 1.082688,-1.18229 1.027945,-1.98358 v -47 c -0.02644,-1.176285 -0.973715,-2.123557 -2.15,-2.150211 z"
               id="path171"
               fill="#a3d7df"
               fill-rule="nonzero" />
            <path
               d="m 36.49,60.23 c -0.5693,0 -1.115138,0.22683 -1.516755,0.630323 C 34.571628,61.263816 34.34734,61.810706 34.35,62.38 v 47 c -0.05474,0.80129 0.341698,1.56629 1.027945,1.98358 0.686247,0.41729 1.547863,0.41729 2.23411,0 0.686246,-0.41729 1.082688,-1.18229 1.027945,-1.98358 v -47 c -0.01085,-1.182888 -0.967112,-2.139147 -2.15,-2.15 z"
               id="path173"
               fill="#a3d7df"
               fill-rule="nonzero" />
            <path
               d="m 111.21,60.23 c -0.5693,0 -1.11514,0.22683 -1.51675,0.630323 -0.40162,0.403493 -0.62591,0.950383 -0.62325,1.519677 v 47 c -0.0547,0.80129 0.3417,1.56629 1.02794,1.98358 0.68625,0.41729 1.54787,0.41729 2.23411,0 0.68625,-0.41729 1.08269,-1.18229 1.02795,-1.98358 v -47 c -0.0264,-1.176285 -0.97371,-2.123557 -2.15,-2.15 z"
               id="path175"
               fill="#a3d7df"
               fill-rule="nonzero" />
            <path
               d="m 121.85,60.23 c -0.5693,0 -1.11514,0.22683 -1.51675,0.630323 -0.40162,0.403493 -0.62591,0.950383 -0.62325,1.519677 v 47 c -0.0547,0.80129 0.3417,1.56629 1.02794,1.98358 0.68625,0.41729 1.54787,0.41729 2.23411,0 0.68625,-0.41729 1.08269,-1.18229 1.02795,-1.98358 v -47 c 0,-1.187412 -0.96259,-2.15 -2.15,-2.15 z"
               id="path177"
               fill="#a3d7df"
               fill-rule="nonzero" />
            <path
               d="m 25.82,60.23 c -1.187412,0 -2.15,0.962588 -2.15,2.15 v 47 c -0.05474,0.80129 0.341699,1.56629 1.027945,1.98358 0.686247,0.41729 1.547863,0.41729 2.23411,0 0.686246,-0.41729 1.082688,-1.18229 1.027945,-1.98358 v -47 c -0.01075,-1.179044 -0.961019,-2.133748 -2.14,-2.15 z"
               id="path179"
               fill="#a3d7df"
               fill-rule="nonzero" />
            <path
               d="m 15.14,60.23 c -1.183505,0.0055 -2.140013,0.966482 -2.14,2.15 v 47 c -0.05474,0.80129 0.341699,1.56629 1.027945,1.98358 0.686247,0.41729 1.547863,0.41729 2.23411,0 0.686246,-0.41729 1.082688,-1.18229 1.027945,-1.98358 v -47 C 17.29266,61.810706 17.068372,61.263816 16.666755,60.860323 16.265138,60.45683 15.7193,60.23 15.15,60.23 Z"
               id="path181"
               fill="#a3d7df"
               fill-rule="nonzero" />
            <path
               d="m 100.53,60.23 c -0.5693,0 -1.115139,0.22683 -1.516755,0.630323 C 98.611628,61.263816 98.38734,61.810706 98.39,62.38 v 47 c -0.05474,0.80129 0.341698,1.56629 1.027945,1.98358 0.686245,0.41729 1.547865,0.41729 2.234115,0 0.68624,-0.41729 1.08268,-1.18229 1.02794,-1.98358 v -47 c -0.0109,-1.182888 -0.96711,-2.139147 -2.15,-2.15 z"
               id="path183"
               fill="#a3d7df"
               fill-rule="nonzero" />
            <path
               d="m 89.85,60.23 c -0.5693,0 -1.115139,0.22683 -1.516755,0.630323 C 87.931628,61.263816 87.70734,61.810706 87.71,62.38 v 47 c -0.05474,0.80129 0.341698,1.56629 1.027945,1.98358 0.686247,0.41729 1.547863,0.41729 2.23411,0 C 91.658301,110.94629 92.054743,110.18129 92,109.38 v -47 c -0.01085,-1.182888 -0.967112,-2.139147 -2.15,-2.15 z"
               id="path185"
               fill="#a3d7df"
               fill-rule="nonzero" />
            <path
               d="m 79.17,60.229789 c -0.574481,-0.0078 -1.128075,0.215428 -1.536211,0.619803 -0.408136,0.404374 -0.63653,0.955877 -0.633813,1.530408 v 47 c -0.0026,0.56929 0.221652,1.11618 0.623269,1.51968 0.401616,0.40349 0.947455,0.63054 1.516755,0.63054 0.572679,0.008 1.124295,-0.21595 1.529282,-0.62094 0.404986,-0.40498 0.628881,-0.9566 0.620718,-1.52928 v -47 c -0.01085,-1.182888 -0.967112,-2.139147 -2.15,-2.150211 z"
               id="path187"
               fill="#a3d7df"
               fill-rule="nonzero" />
            <path
               d="M 26.29,120.53 66.56,19.66 c 0.04145,-0.101606 0.140266,-0.16802 0.25,-0.16802 0.109734,0 0.208553,0.06641 0.25,0.16802 l 41.08,100.88"
               id="path189"
               stroke="#4c4d4d" />
            <polygon
               id="polygon191"
               fill="#ffd301"
               fill-rule="nonzero"
               points="66.81,9.28 61.13,0 72.49,0 " />
            <path
               d="m 71,14.87 c -0.0055,2.301718 -1.874929,4.163672 -4.176651,4.16 C 64.521628,19.0263 62.658178,17.158398 62.660012,14.856675 62.661849,12.554951 64.528276,10.690007 66.83,10.69 V 8.63"
               id="path193"
               stroke="#4c4d4d" />
            <polygon
               id="polygon195"
               fill="#367088"
               fill-rule="nonzero"
               points="117.71,123.47 117.71,120 18.1,120 18.1,123.47 " />
          </g>
        </g>
      </g>
    </g>
    <g
       id="clouds_mitte"
       transform="translate(541.21433,-193.46664)"
       fill="#ffffff"
       opacity="0.3"
       style="fill-rule:evenodd;stroke:none;stroke-width:1">
      <g
         id="Group">
        <path
           d="m 435.72,26.53 c -34.07437,-34.0609692 -89.30563,-34.0609692 -123.38,0 l -0.83,0.84 c -1.14667,-1.393333 -2.37,-2.726667 -3.67,-4 -0.67,-0.68 -1.36,-1.33 -2.06,-2 C 294.85433,10.005492 279.76458,3.5910873 264,3.61 c -27.0271,0.013023 -50.47332,18.667199 -56.56,45 -13.27636,0.990788 -24.52798,10.151811 -28.18941,22.951702 -3.66143,12.799891 1.04349,26.525309 11.78753,34.387168 10.74404,7.86187 25.24967,8.19361 36.34188,0.83113 10.34178,8.42753 23.27926,13.0203 36.62,13 8.9114,0.007 17.70382,-2.04601 25.69,-6 l 0.81,-0.33 c 10.51984,34.77363 41.48848,59.38785 77.73916,61.78794 36.25068,2.4001 70.1941,-17.91641 85.20662,-50.99958 C 468.4583,91.15518 461.39695,52.231489 435.72,26.53 Z"
           id="cloud_mitte_links" />
        <path
           d="m 170.25,177.06 c 14.22279,21.96033 40.59628,32.76762 66.13939,27.10252 25.54311,-5.66511 44.8746,-26.60913 48.47948,-52.52339 3.60488,-25.91426 -9.2763,-51.33932 -32.30341,-63.760925 C 229.53836,75.456597 201.21652,78.655337 181.54,95.9 168.31408,85.463603 150.5481,82.817542 134.85491,88.946731 119.16172,95.075922 107.89178,109.06235 105.24,125.7 89.191519,102.66018 58.895215,94.505285 33.449784,106.37614 8.0043529,118.24699 -5.2127073,146.70183 2.1305973,173.8028 9.4739018,200.90378 35.248497,218.7934 63.206157,216.19411 91.163818,213.59481 113.19867,191.26023 115.42,163.27 c 13.25514,16.15458 35.50951,21.75166 54.83,13.79 z"
           id="cloud_mitte_rechts" />
      </g>
    </g>
    <g
       id="clouds_rechts"
       transform="translate(1007.2143,-204.46664)"
       fill="#ffffff"
       opacity="0.3"
       style="fill-rule:evenodd;stroke:none;stroke-width:1">
      <g
         id="clouds_rechts-2">
        <path
           d="m 380.54,227.28 c 10.50867,50.32902 51.18511,88.82889 102.01546,96.55667 50.83035,7.72777 101.1108,-16.94386 126.10206,-61.8758 24.99126,-44.93195 19.4307,-100.66249 -13.94575,-139.77075 C 561.33533,83.08187 507.17138,68.831272 458.87,86.45 454.86048,79.668059 450.01599,73.415909 444.45,67.84 423.98796,47.378482 395.18914,37.570872 366.49192,41.290917 337.79471,45.010962 312.44849,61.837443 297.88,86.84 286.52745,40.11208 246.97882,5.5972235 199.14455,0.67165888 151.31027,-4.2539058 105.55801,21.477393 84.921362,64.911339 64.284715,108.34529 73.236495,160.06796 107.27,194.04 c 26.02816,26.00906 63.04495,37.79482 99.3194,31.62226 36.27446,-6.17256 67.30978,-29.53825 83.2706,-62.69226 12.79522,39.0402 49.60549,65.12969 90.68,64.27 z"
           id="path207" />
        <path
           d="M 74.46,69.1 C 75.530703,58.071051 71.608799,47.141817 63.77,39.31 56.815706,32.352798 47.381914,28.444038 37.545,28.444038 c -9.836914,0 -19.270706,3.90876 -26.225,10.865962 -14.4913796,14.492189 -14.4913796,37.987811 0,52.48 12.796263,12.79753 32.961468,14.48817 47.71,4 -4.081193,23.6356 11.598163,46.16032 35.18036,50.53956 23.5822,4.37924 46.30305,-11.01452 50.97964,-34.53956 14.57408,10.19344 33.37914,12.1371 49.73,5.14 8.25406,27.22906 30.18945,48.13078 57.78493,55.06191 27.59549,6.93113 56.80414,-1.12479 76.94507,-21.22191 21.44145,-20.24325 30.18798,-50.5394 22.835,-79.095635 C 345.13201,43.118128 322.84132,20.813799 294.28958,13.44336 265.73784,6.0729203 235.43636,14.800929 215.18,36.23 l -0.77,0.78 c -1.06,-1.29 -2.2,-2.54 -3.4,-3.75 -9.63975,-9.642252 -22.71556,-15.059424 -36.35,-15.059424 -13.63444,0 -26.71025,5.417172 -36.35,15.059424 -8.43821,8.418776 -13.67871,19.515069 -14.82,31.38 -6.49536,-3.612903 -13.80746,-5.502896 -21.24,-5.49 -1.12,0 -2.23,0.05 -3.33,0.13 -7.980228,-0.780664 -15.8946,2.026007 -21.6,7.66 -0.98,0.68 -1.94,1.43 -2.86,2.16 z"
           id="path209" />
      </g>
    </g>
    <g
       id="cloud_links"
       transform="translate(35.21433,-12.46664)"
       fill="#ffffff"
       opacity="0.3"
       style="fill-rule:evenodd;stroke:none;stroke-width:1">
      <path
         d="m 402.52,152.83 c -2.39355,25.05509 12.99417,48.39251 36.96589,56.06344 23.97172,7.67092 50.04932,-2.39764 62.64617,-24.18769 12.59684,-21.79004 8.30875,-49.41303 -10.30128,-66.35864 C 473.22076,101.4015 445.31798,99.712654 424.8,114.29 430.33488,80.342097 407.72653,48.194018 373.90699,41.922376 340.08745,35.650733 307.45544,57.554802 300.45,91.23 279.42303,76.541211 252.3057,73.73988 228.72,83.82 223.16642,65.370593 213.11922,48.588615 199.48,34.98 177.57844,13.05926 147.86204,0.74270185 116.875,0.74270185 85.887955,0.74270185 56.171555,13.05926 34.27,34.98 c -45.620215,45.653246 -45.620215,119.63675 0,165.29 21.901555,21.92074 51.617955,34.2373 82.605,34.2373 30.98704,0 60.70344,-12.31656 82.605,-34.2373 l 1.11,-1.13 c 1.53333,1.87333 3.17,3.67667 4.91,5.41 20.30178,20.2441 50.45082,26.97868 77.43718,17.29763 26.98635,-9.68105 45.97923,-34.04474 48.78282,-62.57763 9.37373,5.21149 19.92498,7.93795 30.65,7.92 1.62,0 3.23,-0.06 4.81,-0.18 11.51959,1.12267 22.94273,-2.92928 31.18,-11.06 1.44667,-0.98 2.83333,-2.02 4.16,-3.12 z"
         id="path213" />
    </g>
  </g>
</svg>
