<?xml version="1.0" encoding="UTF-8"?>
<svg viewBox="0 0 1279 450" version="1.1" xmlns="http://www.w3.org/2000/svg" xmlns:xlink="http://www.w3.org/1999/xlink">
    <g id="header" stroke="none" stroke-width="1" fill="none" fill-rule="evenodd">
        <rect id="himmel" fill="#A7E4F2" fill-rule="nonzero" x="-0.55" y="-0.15" width="1280" height="450"></rect>
        <g id="containers" transform="translate(354.000000, 112.000000)">
            <g id="container_1" transform="translate(0.000000, 40.000000)">
                <g id="container">
                    <polyline id="Path" stroke="#4C4D4D" points="70.89 0.08 70.89 35.06 63.07 35.06 63.07 0.08"></polyline>
                    <g id="container_Zeilen_2-link" transform="translate(0.170000, 34.440000)">
                        <g id="container_Zeilen_2">
                            <path d="M57,120.53 L67.25,19.66 C67.2914471,19.5583944 67.390266,19.4919804 67.5,19.4919804 C67.609734,19.4919804 67.7085529,19.5583944 67.75,19.66 L78.83,120.53" id="Path" stroke="#4C4D4D"></path>
                            <rect id="Rectangle" fill="#81D4DC" fill-rule="nonzero" x="0" y="51.85" width="136.99" height="68.06"></rect>
                            <rect id="Rectangle" fill="#1D1D1B" fill-rule="nonzero" opacity="0.05" x="4.03" y="55.88" width="128.92" height="60"></rect>
                            <path d="M131.34,57.49 L131.34,114.26 L5.65,114.26 L5.65,57.49 L131.34,57.49 M133,55.88 L4,55.88 L4,115.88 L133,115.88 L133,55.88 Z" id="Shape" fill="#1D1D1B" fill-rule="nonzero" opacity="0.1"></path>
                            <path d="M68.87,60.61 C67.6881106,60.61 66.73,61.5681106 66.73,62.75 L66.73,109.75 C66.73,110.931889 67.6881106,111.89 68.87,111.89 C70.0518894,111.89 71.01,110.931889 71.01,109.75 L71.01,62.75 C71.01,61.5681106 70.0518894,60.61 68.87,60.61 L68.87,60.61 Z" id="Path" fill="#7DACB9" fill-rule="nonzero"></path>
                            <path d="M58.19,60.6099766 C57.6224367,60.6099766 57.0781193,60.8354636 56.6767915,61.2367915 C56.2754636,61.6381193 56.05,62.1824367 56.05,62.75 L56.05,109.75 C56.127057,110.877906 57.0644647,111.753456 58.195,111.753456 C59.3255353,111.753456 60.262943,110.877906 60.34,109.75 L60.34,62.75 C60.34,62.1806998 60.1131704,61.6348615 59.7096771,61.233245 C59.3061839,60.8316284 58.7592939,60.6073397 58.19,60.6099766 L58.19,60.6099766 Z" id="Path" fill="#7DACB9" fill-rule="nonzero"></path>
                            <path d="M47.55,60.61 C46.3681106,60.61 45.41,61.5681106 45.41,62.75 L45.41,109.75 C45.41,110.931889 46.3681106,111.89 47.55,111.89 C48.7318894,111.89 49.69,110.931889 49.69,109.75 L49.69,62.75 C49.6686686,61.57706 48.72294,60.6313314 47.55,60.61 L47.55,60.61 Z" id="Path" fill="#7DACB9" fill-rule="nonzero"></path>
                            <path d="M36.87,60.61 C35.6881106,60.61 34.73,61.5681106 34.73,62.75 L34.73,109.75 C34.73,110.931889 35.6881106,111.89 36.87,111.89 C38.0518894,111.89 39.01,110.931889 39.01,109.75 L39.01,62.75 C38.999148,61.572635 38.047365,60.620852 36.87,60.61 Z" id="Path" fill="#7DACB9" fill-rule="nonzero"></path>
                            <path d="M111.59,60.61 C110.408111,60.61 109.45,61.5681106 109.45,62.75 L109.45,109.75 C109.45,110.931889 110.408111,111.89 111.59,111.89 C112.771889,111.89 113.73,110.931889 113.73,109.75 L113.73,62.75 C113.703562,61.5792365 112.760764,60.6364381 111.59,60.61 L111.59,60.61 Z" id="Path" fill="#7DACB9" fill-rule="nonzero"></path>
                            <path d="M122.23,60.61 C121.048111,60.61 120.09,61.5681106 120.09,62.75 L120.09,109.75 C120.09,110.931889 121.048111,111.89 122.23,111.89 C123.411889,111.89 124.37,110.931889 124.37,109.75 L124.37,62.75 C124.37,61.5681106 123.411889,60.61 122.23,60.61 Z" id="Path" fill="#7DACB9" fill-rule="nonzero"></path>
                            <path d="M26.19,60.61 C25.0081106,60.61 24.05,61.5681106 24.05,62.75 L24.05,109.75 C24.05,110.931889 25.0081106,111.89 26.19,111.89 C27.3718894,111.89 28.33,110.931889 28.33,109.75 L28.33,62.75 C28.319148,61.572635 27.367365,60.620852 26.19,60.61 Z" id="Path" fill="#7DACB9" fill-rule="nonzero"></path>
                            <path d="M15.51,60.6099766 C14.3281106,60.6099766 13.37,61.5681106 13.37,62.75 L13.37,109.75 C13.447057,110.877906 14.3844647,111.753456 15.515,111.753456 C16.6455353,111.753456 17.582943,110.877906 17.66,109.75 L17.66,62.75 C17.66,62.1806998 17.4331704,61.6348615 17.0296771,61.233245 C16.6261839,60.8316284 16.0792939,60.6073397 15.51,60.6099766 L15.51,60.6099766 Z" id="Path" fill="#7DACB9" fill-rule="nonzero"></path>
                            <path d="M100.91,60.61 C99.7281106,60.61 98.77,61.5681106 98.77,62.75 L98.77,109.75 C98.77,110.931889 99.7281106,111.89 100.91,111.89 C102.091889,111.89 103.05,110.931889 103.05,109.75 L103.05,62.75 C103.039148,61.572635 102.087365,60.620852 100.91,60.61 Z" id="Path" fill="#7DACB9" fill-rule="nonzero"></path>
                            <path d="M90.23,60.61 C89.6624367,60.61 89.1181193,60.8354636 88.7167915,61.2367915 C88.3154636,61.6381193 88.09,62.1824367 88.09,62.75 L88.09,109.75 C88.09,110.931889 89.0481106,111.89 90.23,111.89 C91.4118894,111.89 92.37,110.931889 92.37,109.75 L92.37,62.75 C92.359148,61.572635 91.407365,60.620852 90.23,60.61 Z" id="Path" fill="#7DACB9" fill-rule="nonzero"></path>
                            <path d="M79.55,60.61 C78.3681106,60.61 77.41,61.5681106 77.41,62.75 L77.41,109.75 C77.41,110.931889 78.3681106,111.89 79.55,111.89 C80.7318894,111.89 81.69,110.931889 81.69,109.75 L81.69,62.75 C81.679148,61.572635 80.727365,60.620852 79.55,60.61 L79.55,60.61 Z" id="Path" fill="#7DACB9" fill-rule="nonzero"></path>
                            <path d="M68.5,60.23 C67.9297845,60.23 67.3829236,60.4565172 66.9797204,60.8597204 C66.5765172,61.2629236 66.35,61.8097845 66.35,62.38 L66.35,109.38 C66.2952568,110.181292 66.6916985,110.946286 67.3779452,111.363576 C68.0641919,111.780866 68.9258081,111.780866 69.6120548,111.363576 C70.2983015,110.946286 70.6947432,110.181292 70.64,109.38 L70.64,62.38 C70.6426603,61.8107061 70.4183716,61.2638161 70.016755,60.8603229 C69.6151385,60.4568296 69.0693002,60.23 68.5,60.23 Z" id="Path" fill="#A3D7DF" fill-rule="nonzero"></path>
                            <path d="M57.82,60.23 C56.6325878,60.23 55.67,61.1925878 55.67,62.38 L55.67,109.38 C55.6152568,110.181292 56.0116985,110.946286 56.6979452,111.363576 C57.3841919,111.780866 58.2458081,111.780866 58.9320548,111.363576 C59.6183015,110.946286 60.0147432,110.181292 59.96,109.38 L59.96,62.38 C59.9626603,61.8107061 59.7383716,61.2638161 59.336755,60.8603229 C58.9351385,60.4568296 58.3893002,60.23 57.82,60.23 Z" id="Path" fill="#A3D7DF" fill-rule="nonzero"></path>
                            <path d="M47.17,60.2297891 C46.5955187,60.2219392 46.041925,60.4452171 45.6337889,60.8495916 C45.2256528,61.253966 44.9972587,61.8054686 45,62.38 L45,109.38 C44.9452568,110.181292 45.3416985,110.946286 46.0279452,111.363576 C46.7141919,111.780866 47.5758081,111.780866 48.2620548,111.363576 C48.9483015,110.946286 49.3447432,110.181292 49.29,109.38 L49.29,62.38 C49.2635567,61.2037151 48.3162849,60.2564433 47.14,60.2297891 L47.17,60.2297891 Z" id="Path" fill="#A3D7DF" fill-rule="nonzero"></path>
                            <path d="M36.49,60.23 C35.9206998,60.23 35.3748615,60.4568296 34.973245,60.8603229 C34.5716284,61.2638161 34.3473397,61.8107061 34.35,62.38 L34.35,109.38 C34.2952568,110.181292 34.6916985,110.946286 35.3779452,111.363576 C36.0641919,111.780866 36.9258081,111.780866 37.6120548,111.363576 C38.2983015,110.946286 38.6947432,110.181292 38.64,109.38 L38.64,62.38 C38.6291471,61.1971124 37.6728876,60.2408529 36.49,60.23 Z" id="Path" fill="#A3D7DF" fill-rule="nonzero"></path>
                            <path d="M111.21,60.23 C110.6407,60.23 110.094862,60.4568296 109.693245,60.8603229 C109.291628,61.2638161 109.06734,61.8107061 109.07,62.38 L109.07,109.38 C109.015257,110.181292 109.411699,110.946286 110.097945,111.363576 C110.784192,111.780866 111.645808,111.780866 112.332055,111.363576 C113.018301,110.946286 113.414743,110.181292 113.36,109.38 L113.36,62.38 C113.333557,61.2037151 112.386285,60.2564433 111.21,60.23 L111.21,60.23 Z" id="Path" fill="#A3D7DF" fill-rule="nonzero"></path>
                            <path d="M121.85,60.23 C121.2807,60.23 120.734862,60.4568296 120.333245,60.8603229 C119.931628,61.2638161 119.70734,61.8107061 119.71,62.38 L119.71,109.38 C119.655257,110.181292 120.051699,110.946286 120.737945,111.363576 C121.424192,111.780866 122.285808,111.780866 122.972055,111.363576 C123.658301,110.946286 124.054743,110.181292 124,109.38 L124,62.38 C124,61.1925878 123.037412,60.23 121.85,60.23 L121.85,60.23 Z" id="Path" fill="#A3D7DF" fill-rule="nonzero"></path>
                            <path d="M25.82,60.23 C24.6325878,60.23 23.67,61.1925878 23.67,62.38 L23.67,109.38 C23.6152568,110.181292 24.0116985,110.946286 24.6979452,111.363576 C25.3841919,111.780866 26.2458081,111.780866 26.9320548,111.363576 C27.6183015,110.946286 28.0147432,110.181292 27.96,109.38 L27.96,62.38 C27.9492448,61.2009564 26.9989807,60.2462518 25.82,60.23 L25.82,60.23 Z" id="Path" fill="#A3D7DF" fill-rule="nonzero"></path>
                            <path d="M15.14,60.23 C13.9564949,60.2355047 12.9999872,61.1964821 13,62.38 L13,109.38 C12.9452568,110.181292 13.3416985,110.946286 14.0279452,111.363576 C14.7141919,111.780866 15.5758081,111.780866 16.2620548,111.363576 C16.9483015,110.946286 17.3447432,110.181292 17.29,109.38 L17.29,62.38 C17.2926603,61.8107061 17.0683716,61.2638161 16.666755,60.8603229 C16.2651385,60.4568296 15.7193002,60.23 15.15,60.23 L15.14,60.23 Z" id="Path" fill="#A3D7DF" fill-rule="nonzero"></path>
                            <path d="M100.53,60.23 C99.9606998,60.23 99.4148615,60.4568296 99.013245,60.8603229 C98.6116284,61.2638161 98.3873397,61.8107061 98.39,62.38 L98.39,109.38 C98.3352568,110.181292 98.7316985,110.946286 99.4179452,111.363576 C100.104192,111.780866 100.965808,111.780866 101.652055,111.363576 C102.338301,110.946286 102.734743,110.181292 102.68,109.38 L102.68,62.38 C102.669147,61.1971124 101.712888,60.2408529 100.53,60.23 L100.53,60.23 Z" id="Path" fill="#A3D7DF" fill-rule="nonzero"></path>
                            <path d="M89.85,60.23 C89.2806998,60.23 88.7348615,60.4568296 88.333245,60.8603229 C87.9316284,61.2638161 87.7073397,61.8107061 87.71,62.38 L87.71,109.38 C87.6552568,110.181292 88.0516985,110.946286 88.7379452,111.363576 C89.4241919,111.780866 90.2858081,111.780866 90.9720548,111.363576 C91.6583015,110.946286 92.0547432,110.181292 92,109.38 L92,62.38 C91.9891471,61.1971124 91.0328876,60.2408529 89.85,60.23 L89.85,60.23 Z" id="Path" fill="#A3D7DF" fill-rule="nonzero"></path>
                            <path d="M79.17,60.2297891 C78.5955187,60.2219392 78.041925,60.4452171 77.6337889,60.8495916 C77.2256528,61.253966 76.9972587,61.8054686 76.9999756,62.38 L76.9999756,109.38 C76.9973397,109.949294 77.2216284,110.496184 77.623245,110.899677 C78.0248615,111.30317 78.5706998,111.530216 79.14,111.530216 C79.7126789,111.538163 80.2642954,111.314268 80.6692817,110.909282 C81.074268,110.504295 81.2981629,109.952679 81.29,109.38 L81.29,62.38 C81.2791471,61.1971124 80.3228876,60.2408529 79.14,60.2297891 L79.17,60.2297891 Z" id="Path" fill="#A3D7DF" fill-rule="nonzero"></path>
                            <path d="M26.29,120.53 L66.56,19.66 C66.6014471,19.5583944 66.700266,19.4919804 66.81,19.4919804 C66.919734,19.4919804 67.0185529,19.5583944 67.06,19.66 L108.14,120.54" id="Path" stroke="#4C4D4D"></path>
                            <polygon id="Path" fill="#FFD301" fill-rule="nonzero" points="61.13 0 72.49 0 66.81 9.28"></polygon>
                            <path d="M71,14.87 C70.9944803,17.1717176 69.1250706,19.0336723 66.8233493,19.0300001 C64.521628,19.0263171 62.6581778,17.1583981 62.660012,14.8566747 C62.6618488,12.5549512 64.5282758,10.6900066 66.83,10.69 L66.83,8.63" id="Path" stroke="#4C4D4D"></path>
                            <polygon id="Path" fill="#367088" fill-rule="nonzero" points="18.1 120 18.1 123.47 117.71 123.47 117.71 123.47 117.71 120"></polygon>
                        </g>
                    </g>
                </g>
            </g>
            <g id="container_2" transform="translate(159.000000, 31.000000)">
                <g id="container-2" transform="translate(63.000000, 0.000000)" stroke="#4C4D4D">
                    <polyline id="Path" points="8.12 0.06 8.12 95.03 0.3 95.03 0.3 0.06"></polyline>
                </g>
                <g id="container_Zeilen_2-link" transform="translate(0.370000, 93.770000)">
                    <g id="container_Zeilen_2">
                        <path d="M57,120.53 L67.25,19.66 C67.2914471,19.5583944 67.390266,19.4919804 67.5,19.4919804 C67.609734,19.4919804 67.7085529,19.5583944 67.75,19.66 L78.83,120.53" id="Path" stroke="#4C4D4D"></path>
                        <rect id="Rectangle" fill="#81D4DC" fill-rule="nonzero" x="0" y="51.85" width="136.99" height="68.06"></rect>
                        <rect id="Rectangle" fill="#1D1D1B" fill-rule="nonzero" opacity="0.05" x="4.03" y="55.88" width="128.92" height="60"></rect>
                        <path d="M131.34,57.49 L131.34,114.26 L5.65,114.26 L5.65,57.49 L131.34,57.49 M133,55.88 L4,55.88 L4,115.88 L133,115.88 L133,55.88 Z" id="Shape" fill="#1D1D1B" fill-rule="nonzero" opacity="0.1"></path>
                        <path d="M68.87,60.61 C67.6881106,60.61 66.73,61.5681106 66.73,62.75 L66.73,109.75 C66.73,110.931889 67.6881106,111.89 68.87,111.89 C70.0518894,111.89 71.01,110.931889 71.01,109.75 L71.01,62.75 C71.01,61.5681106 70.0518894,60.61 68.87,60.61 L68.87,60.61 Z" id="Path" fill="#7DACB9" fill-rule="nonzero"></path>
                        <path d="M58.19,60.6099766 C57.6224367,60.6099766 57.0781193,60.8354636 56.6767915,61.2367915 C56.2754636,61.6381193 56.05,62.1824367 56.05,62.75 L56.05,109.75 C56.127057,110.877906 57.0644647,111.753456 58.195,111.753456 C59.3255353,111.753456 60.262943,110.877906 60.34,109.75 L60.34,62.75 C60.34,62.1806998 60.1131704,61.6348615 59.7096771,61.233245 C59.3061839,60.8316284 58.7592939,60.6073397 58.19,60.6099766 L58.19,60.6099766 Z" id="Path" fill="#7DACB9" fill-rule="nonzero"></path>
                        <path d="M47.55,60.61 C46.3681106,60.61 45.41,61.5681106 45.41,62.75 L45.41,109.75 C45.41,110.931889 46.3681106,111.89 47.55,111.89 C48.7318894,111.89 49.69,110.931889 49.69,109.75 L49.69,62.75 C49.6686686,61.57706 48.72294,60.6313314 47.55,60.61 L47.55,60.61 Z" id="Path" fill="#7DACB9" fill-rule="nonzero"></path>
                        <path d="M36.87,60.61 C35.6881106,60.61 34.73,61.5681106 34.73,62.75 L34.73,109.75 C34.73,110.931889 35.6881106,111.89 36.87,111.89 C38.0518894,111.89 39.01,110.931889 39.01,109.75 L39.01,62.75 C38.999148,61.572635 38.047365,60.620852 36.87,60.61 Z" id="Path" fill="#7DACB9" fill-rule="nonzero"></path>
                        <path d="M111.59,60.61 C110.408111,60.61 109.45,61.5681106 109.45,62.75 L109.45,109.75 C109.45,110.931889 110.408111,111.89 111.59,111.89 C112.771889,111.89 113.73,110.931889 113.73,109.75 L113.73,62.75 C113.703562,61.5792365 112.760764,60.6364381 111.59,60.61 L111.59,60.61 Z" id="Path" fill="#7DACB9" fill-rule="nonzero"></path>
                        <path d="M122.23,60.61 C121.048111,60.61 120.09,61.5681106 120.09,62.75 L120.09,109.75 C120.09,110.931889 121.048111,111.89 122.23,111.89 C123.411889,111.89 124.37,110.931889 124.37,109.75 L124.37,62.75 C124.37,61.5681106 123.411889,60.61 122.23,60.61 Z" id="Path" fill="#7DACB9" fill-rule="nonzero"></path>
                        <path d="M26.19,60.61 C25.0081106,60.61 24.05,61.5681106 24.05,62.75 L24.05,109.75 C24.05,110.931889 25.0081106,111.89 26.19,111.89 C27.3718894,111.89 28.33,110.931889 28.33,109.75 L28.33,62.75 C28.319148,61.572635 27.367365,60.620852 26.19,60.61 Z" id="Path" fill="#7DACB9" fill-rule="nonzero"></path>
                        <path d="M15.51,60.6099766 C14.3281106,60.6099766 13.37,61.5681106 13.37,62.75 L13.37,109.75 C13.447057,110.877906 14.3844647,111.753456 15.515,111.753456 C16.6455353,111.753456 17.582943,110.877906 17.66,109.75 L17.66,62.75 C17.66,62.1806998 17.4331704,61.6348615 17.0296771,61.233245 C16.6261839,60.8316284 16.0792939,60.6073397 15.51,60.6099766 L15.51,60.6099766 Z" id="Path" fill="#7DACB9" fill-rule="nonzero"></path>
                        <path d="M100.91,60.61 C99.7281106,60.61 98.77,61.5681106 98.77,62.75 L98.77,109.75 C98.77,110.931889 99.7281106,111.89 100.91,111.89 C102.091889,111.89 103.05,110.931889 103.05,109.75 L103.05,62.75 C103.039148,61.572635 102.087365,60.620852 100.91,60.61 Z" id="Path" fill="#7DACB9" fill-rule="nonzero"></path>
                        <path d="M90.23,60.61 C89.6624367,60.61 89.1181193,60.8354636 88.7167915,61.2367915 C88.3154636,61.6381193 88.09,62.1824367 88.09,62.75 L88.09,109.75 C88.09,110.931889 89.0481106,111.89 90.23,111.89 C91.4118894,111.89 92.37,110.931889 92.37,109.75 L92.37,62.75 C92.359148,61.572635 91.407365,60.620852 90.23,60.61 Z" id="Path" fill="#7DACB9" fill-rule="nonzero"></path>
                        <path d="M79.55,60.61 C78.3681106,60.61 77.41,61.5681106 77.41,62.75 L77.41,109.75 C77.41,110.931889 78.3681106,111.89 79.55,111.89 C80.7318894,111.89 81.69,110.931889 81.69,109.75 L81.69,62.75 C81.679148,61.572635 80.727365,60.620852 79.55,60.61 L79.55,60.61 Z" id="Path" fill="#7DACB9" fill-rule="nonzero"></path>
                        <path d="M68.5,60.23 C67.9297845,60.23 67.3829236,60.4565172 66.9797204,60.8597204 C66.5765172,61.2629236 66.35,61.8097845 66.35,62.38 L66.35,109.38 C66.2952568,110.181292 66.6916985,110.946286 67.3779452,111.363576 C68.0641919,111.780866 68.9258081,111.780866 69.6120548,111.363576 C70.2983015,110.946286 70.6947432,110.181292 70.64,109.38 L70.64,62.38 C70.6426603,61.8107061 70.4183716,61.2638161 70.016755,60.8603229 C69.6151385,60.4568296 69.0693002,60.23 68.5,60.23 Z" id="Path" fill="#A3D7DF" fill-rule="nonzero"></path>
                        <path d="M57.82,60.23 C56.6325878,60.23 55.67,61.1925878 55.67,62.38 L55.67,109.38 C55.6152568,110.181292 56.0116985,110.946286 56.6979452,111.363576 C57.3841919,111.780866 58.2458081,111.780866 58.9320548,111.363576 C59.6183015,110.946286 60.0147432,110.181292 59.96,109.38 L59.96,62.38 C59.9626603,61.8107061 59.7383716,61.2638161 59.336755,60.8603229 C58.9351385,60.4568296 58.3893002,60.23 57.82,60.23 Z" id="Path" fill="#A3D7DF" fill-rule="nonzero"></path>
                        <path d="M47.17,60.2297891 C46.5955187,60.2219392 46.041925,60.4452171 45.6337889,60.8495916 C45.2256528,61.253966 44.9972587,61.8054686 45,62.38 L45,109.38 C44.9452568,110.181292 45.3416985,110.946286 46.0279452,111.363576 C46.7141919,111.780866 47.5758081,111.780866 48.2620548,111.363576 C48.9483015,110.946286 49.3447432,110.181292 49.29,109.38 L49.29,62.38 C49.2635567,61.2037151 48.3162849,60.2564433 47.14,60.2297891 L47.17,60.2297891 Z" id="Path" fill="#A3D7DF" fill-rule="nonzero"></path>
                        <path d="M36.49,60.23 C35.9206998,60.23 35.3748615,60.4568296 34.973245,60.8603229 C34.5716284,61.2638161 34.3473397,61.8107061 34.35,62.38 L34.35,109.38 C34.2952568,110.181292 34.6916985,110.946286 35.3779452,111.363576 C36.0641919,111.780866 36.9258081,111.780866 37.6120548,111.363576 C38.2983015,110.946286 38.6947432,110.181292 38.64,109.38 L38.64,62.38 C38.6291471,61.1971124 37.6728876,60.2408529 36.49,60.23 Z" id="Path" fill="#A3D7DF" fill-rule="nonzero"></path>
                        <path d="M111.21,60.23 C110.6407,60.23 110.094862,60.4568296 109.693245,60.8603229 C109.291628,61.2638161 109.06734,61.8107061 109.07,62.38 L109.07,109.38 C109.015257,110.181292 109.411699,110.946286 110.097945,111.363576 C110.784192,111.780866 111.645808,111.780866 112.332055,111.363576 C113.018301,110.946286 113.414743,110.181292 113.36,109.38 L113.36,62.38 C113.333557,61.2037151 112.386285,60.2564433 111.21,60.23 L111.21,60.23 Z" id="Path" fill="#A3D7DF" fill-rule="nonzero"></path>
                        <path d="M121.85,60.23 C121.2807,60.23 120.734862,60.4568296 120.333245,60.8603229 C119.931628,61.2638161 119.70734,61.8107061 119.71,62.38 L119.71,109.38 C119.655257,110.181292 120.051699,110.946286 120.737945,111.363576 C121.424192,111.780866 122.285808,111.780866 122.972055,111.363576 C123.658301,110.946286 124.054743,110.181292 124,109.38 L124,62.38 C124,61.1925878 123.037412,60.23 121.85,60.23 L121.85,60.23 Z" id="Path" fill="#A3D7DF" fill-rule="nonzero"></path>
                        <path d="M25.82,60.23 C24.6325878,60.23 23.67,61.1925878 23.67,62.38 L23.67,109.38 C23.6152568,110.181292 24.0116985,110.946286 24.6979452,111.363576 C25.3841919,111.780866 26.2458081,111.780866 26.9320548,111.363576 C27.6183015,110.946286 28.0147432,110.181292 27.96,109.38 L27.96,62.38 C27.9492448,61.2009564 26.9989807,60.2462518 25.82,60.23 L25.82,60.23 Z" id="Path" fill="#A3D7DF" fill-rule="nonzero"></path>
                        <path d="M15.14,60.23 C13.9564949,60.2355047 12.9999872,61.1964821 13,62.38 L13,109.38 C12.9452568,110.181292 13.3416985,110.946286 14.0279452,111.363576 C14.7141919,111.780866 15.5758081,111.780866 16.2620548,111.363576 C16.9483015,110.946286 17.3447432,110.181292 17.29,109.38 L17.29,62.38 C17.2926603,61.8107061 17.0683716,61.2638161 16.666755,60.8603229 C16.2651385,60.4568296 15.7193002,60.23 15.15,60.23 L15.14,60.23 Z" id="Path" fill="#A3D7DF" fill-rule="nonzero"></path>
                        <path d="M100.53,60.23 C99.9606998,60.23 99.4148615,60.4568296 99.013245,60.8603229 C98.6116284,61.2638161 98.3873397,61.8107061 98.39,62.38 L98.39,109.38 C98.3352568,110.181292 98.7316985,110.946286 99.4179452,111.363576 C100.104192,111.780866 100.965808,111.780866 101.652055,111.363576 C102.338301,110.946286 102.734743,110.181292 102.68,109.38 L102.68,62.38 C102.669147,61.1971124 101.712888,60.2408529 100.53,60.23 L100.53,60.23 Z" id="Path" fill="#A3D7DF" fill-rule="nonzero"></path>
                        <path d="M89.85,60.23 C89.2806998,60.23 88.7348615,60.4568296 88.333245,60.8603229 C87.9316284,61.2638161 87.7073397,61.8107061 87.71,62.38 L87.71,109.38 C87.6552568,110.181292 88.0516985,110.946286 88.7379452,111.363576 C89.4241919,111.780866 90.2858081,111.780866 90.9720548,111.363576 C91.6583015,110.946286 92.0547432,110.181292 92,109.38 L92,62.38 C91.9891471,61.1971124 91.0328876,60.2408529 89.85,60.23 L89.85,60.23 Z" id="Path" fill="#A3D7DF" fill-rule="nonzero"></path>
                        <path d="M79.17,60.2297891 C78.5955187,60.2219392 78.041925,60.4452171 77.6337889,60.8495916 C77.2256528,61.253966 76.9972587,61.8054686 76.9999756,62.38 L76.9999756,109.38 C76.9973397,109.949294 77.2216284,110.496184 77.623245,110.899677 C78.0248615,111.30317 78.5706998,111.530216 79.14,111.530216 C79.7126789,111.538163 80.2642954,111.314268 80.6692817,110.909282 C81.074268,110.504295 81.2981629,109.952679 81.29,109.38 L81.29,62.38 C81.2791471,61.1971124 80.3228876,60.2408529 79.14,60.2297891 L79.17,60.2297891 Z" id="Path" fill="#A3D7DF" fill-rule="nonzero"></path>
                        <path d="M26.29,120.53 L66.56,19.66 C66.6014471,19.5583944 66.700266,19.4919804 66.81,19.4919804 C66.919734,19.4919804 67.0185529,19.5583944 67.06,19.66 L108.14,120.54" id="Path" stroke="#4C4D4D"></path>
                        <polygon id="Path" fill="#FFD301" fill-rule="nonzero" points="61.13 0 72.49 0 66.81 9.28"></polygon>
                        <path d="M71,14.87 C70.9944803,17.1717176 69.1250706,19.0336723 66.8233493,19.0300001 C64.521628,19.0263171 62.6581778,17.1583981 62.660012,14.8566747 C62.6618488,12.5549512 64.5282758,10.6900066 66.83,10.69 L66.83,8.63" id="Path" stroke="#4C4D4D"></path>
                        <polygon id="Path" fill="#367088" fill-rule="nonzero" points="18.1 120 18.1 123.47 117.71 123.47 117.71 123.47 117.71 120"></polygon>
                    </g>
                </g>
            </g>
            <g id="container_3" transform="translate(307.000000, 0.000000)">
                <g id="container-3" transform="translate(62.000000, 0.000000)" stroke="#4C4D4D">
                    <polyline id="Path" points="8.8 0.34 8.8 35.32 0.98 35.32 0.98 0.34"></polyline>
                </g>
                <g id="container_Zeilen_2-link" transform="translate(0.380000, 34.050000)">
                    <g id="container_Zeilen_2">
                        <path d="M57,120.53 L67.25,19.66 C67.2914471,19.5583944 67.390266,19.4919804 67.5,19.4919804 C67.609734,19.4919804 67.7085529,19.5583944 67.75,19.66 L78.83,120.53" id="Path" stroke="#4C4D4D"></path>
                        <rect id="Rectangle" fill="#81D4DC" fill-rule="nonzero" x="0" y="51.85" width="136.99" height="68.06"></rect>
                        <rect id="Rectangle" fill="#1D1D1B" fill-rule="nonzero" opacity="0.05" x="4.03" y="55.88" width="128.92" height="60"></rect>
                        <path d="M131.34,57.49 L131.34,114.26 L5.65,114.26 L5.65,57.49 L131.34,57.49 M133,55.88 L4,55.88 L4,115.88 L133,115.88 L133,55.88 Z" id="Shape" fill="#1D1D1B" fill-rule="nonzero" opacity="0.1"></path>
                        <path d="M68.87,60.61 C67.6881106,60.61 66.73,61.5681106 66.73,62.75 L66.73,109.75 C66.73,110.931889 67.6881106,111.89 68.87,111.89 C70.0518894,111.89 71.01,110.931889 71.01,109.75 L71.01,62.75 C71.01,61.5681106 70.0518894,60.61 68.87,60.61 L68.87,60.61 Z" id="Path" fill="#7DACB9" fill-rule="nonzero"></path>
                        <path d="M58.19,60.6099766 C57.6224367,60.6099766 57.0781193,60.8354636 56.6767915,61.2367915 C56.2754636,61.6381193 56.05,62.1824367 56.05,62.75 L56.05,109.75 C56.127057,110.877906 57.0644647,111.753456 58.195,111.753456 C59.3255353,111.753456 60.262943,110.877906 60.34,109.75 L60.34,62.75 C60.34,62.1806998 60.1131704,61.6348615 59.7096771,61.233245 C59.3061839,60.8316284 58.7592939,60.6073397 58.19,60.6099766 L58.19,60.6099766 Z" id="Path" fill="#7DACB9" fill-rule="nonzero"></path>
                        <path d="M47.55,60.61 C46.3681106,60.61 45.41,61.5681106 45.41,62.75 L45.41,109.75 C45.41,110.931889 46.3681106,111.89 47.55,111.89 C48.7318894,111.89 49.69,110.931889 49.69,109.75 L49.69,62.75 C49.6686686,61.57706 48.72294,60.6313314 47.55,60.61 L47.55,60.61 Z" id="Path" fill="#7DACB9" fill-rule="nonzero"></path>
                        <path d="M36.87,60.61 C35.6881106,60.61 34.73,61.5681106 34.73,62.75 L34.73,109.75 C34.73,110.931889 35.6881106,111.89 36.87,111.89 C38.0518894,111.89 39.01,110.931889 39.01,109.75 L39.01,62.75 C38.999148,61.572635 38.047365,60.620852 36.87,60.61 Z" id="Path" fill="#7DACB9" fill-rule="nonzero"></path>
                        <path d="M111.59,60.61 C110.408111,60.61 109.45,61.5681106 109.45,62.75 L109.45,109.75 C109.45,110.931889 110.408111,111.89 111.59,111.89 C112.771889,111.89 113.73,110.931889 113.73,109.75 L113.73,62.75 C113.703562,61.5792365 112.760764,60.6364381 111.59,60.61 L111.59,60.61 Z" id="Path" fill="#7DACB9" fill-rule="nonzero"></path>
                        <path d="M122.23,60.61 C121.048111,60.61 120.09,61.5681106 120.09,62.75 L120.09,109.75 C120.09,110.931889 121.048111,111.89 122.23,111.89 C123.411889,111.89 124.37,110.931889 124.37,109.75 L124.37,62.75 C124.37,61.5681106 123.411889,60.61 122.23,60.61 Z" id="Path" fill="#7DACB9" fill-rule="nonzero"></path>
                        <path d="M26.19,60.61 C25.0081106,60.61 24.05,61.5681106 24.05,62.75 L24.05,109.75 C24.05,110.931889 25.0081106,111.89 26.19,111.89 C27.3718894,111.89 28.33,110.931889 28.33,109.75 L28.33,62.75 C28.319148,61.572635 27.367365,60.620852 26.19,60.61 Z" id="Path" fill="#7DACB9" fill-rule="nonzero"></path>
                        <path d="M15.51,60.6099766 C14.3281106,60.6099766 13.37,61.5681106 13.37,62.75 L13.37,109.75 C13.447057,110.877906 14.3844647,111.753456 15.515,111.753456 C16.6455353,111.753456 17.582943,110.877906 17.66,109.75 L17.66,62.75 C17.66,62.1806998 17.4331704,61.6348615 17.0296771,61.233245 C16.6261839,60.8316284 16.0792939,60.6073397 15.51,60.6099766 L15.51,60.6099766 Z" id="Path" fill="#7DACB9" fill-rule="nonzero"></path>
                        <path d="M100.91,60.61 C99.7281106,60.61 98.77,61.5681106 98.77,62.75 L98.77,109.75 C98.77,110.931889 99.7281106,111.89 100.91,111.89 C102.091889,111.89 103.05,110.931889 103.05,109.75 L103.05,62.75 C103.039148,61.572635 102.087365,60.620852 100.91,60.61 Z" id="Path" fill="#7DACB9" fill-rule="nonzero"></path>
                        <path d="M90.23,60.61 C89.6624367,60.61 89.1181193,60.8354636 88.7167915,61.2367915 C88.3154636,61.6381193 88.09,62.1824367 88.09,62.75 L88.09,109.75 C88.09,110.931889 89.0481106,111.89 90.23,111.89 C91.4118894,111.89 92.37,110.931889 92.37,109.75 L92.37,62.75 C92.359148,61.572635 91.407365,60.620852 90.23,60.61 Z" id="Path" fill="#7DACB9" fill-rule="nonzero"></path>
                        <path d="M79.55,60.61 C78.3681106,60.61 77.41,61.5681106 77.41,62.75 L77.41,109.75 C77.41,110.931889 78.3681106,111.89 79.55,111.89 C80.7318894,111.89 81.69,110.931889 81.69,109.75 L81.69,62.75 C81.679148,61.572635 80.727365,60.620852 79.55,60.61 L79.55,60.61 Z" id="Path" fill="#7DACB9" fill-rule="nonzero"></path>
                        <path d="M68.5,60.23 C67.9297845,60.23 67.3829236,60.4565172 66.9797204,60.8597204 C66.5765172,61.2629236 66.35,61.8097845 66.35,62.38 L66.35,109.38 C66.2952568,110.181292 66.6916985,110.946286 67.3779452,111.363576 C68.0641919,111.780866 68.9258081,111.780866 69.6120548,111.363576 C70.2983015,110.946286 70.6947432,110.181292 70.64,109.38 L70.64,62.38 C70.6426603,61.8107061 70.4183716,61.2638161 70.016755,60.8603229 C69.6151385,60.4568296 69.0693002,60.23 68.5,60.23 Z" id="Path" fill="#A3D7DF" fill-rule="nonzero"></path>
                        <path d="M57.82,60.23 C56.6325878,60.23 55.67,61.1925878 55.67,62.38 L55.67,109.38 C55.6152568,110.181292 56.0116985,110.946286 56.6979452,111.363576 C57.3841919,111.780866 58.2458081,111.780866 58.9320548,111.363576 C59.6183015,110.946286 60.0147432,110.181292 59.96,109.38 L59.96,62.38 C59.9626603,61.8107061 59.7383716,61.2638161 59.336755,60.8603229 C58.9351385,60.4568296 58.3893002,60.23 57.82,60.23 Z" id="Path" fill="#A3D7DF" fill-rule="nonzero"></path>
                        <path d="M47.17,60.2297891 C46.5955187,60.2219392 46.041925,60.4452171 45.6337889,60.8495916 C45.2256528,61.253966 44.9972587,61.8054686 45,62.38 L45,109.38 C44.9452568,110.181292 45.3416985,110.946286 46.0279452,111.363576 C46.7141919,111.780866 47.5758081,111.780866 48.2620548,111.363576 C48.9483015,110.946286 49.3447432,110.181292 49.29,109.38 L49.29,62.38 C49.2635567,61.2037151 48.3162849,60.2564433 47.14,60.2297891 L47.17,60.2297891 Z" id="Path" fill="#A3D7DF" fill-rule="nonzero"></path>
                        <path d="M36.49,60.23 C35.9206998,60.23 35.3748615,60.4568296 34.973245,60.8603229 C34.5716284,61.2638161 34.3473397,61.8107061 34.35,62.38 L34.35,109.38 C34.2952568,110.181292 34.6916985,110.946286 35.3779452,111.363576 C36.0641919,111.780866 36.9258081,111.780866 37.6120548,111.363576 C38.2983015,110.946286 38.6947432,110.181292 38.64,109.38 L38.64,62.38 C38.6291471,61.1971124 37.6728876,60.2408529 36.49,60.23 Z" id="Path" fill="#A3D7DF" fill-rule="nonzero"></path>
                        <path d="M111.21,60.23 C110.6407,60.23 110.094862,60.4568296 109.693245,60.8603229 C109.291628,61.2638161 109.06734,61.8107061 109.07,62.38 L109.07,109.38 C109.015257,110.181292 109.411699,110.946286 110.097945,111.363576 C110.784192,111.780866 111.645808,111.780866 112.332055,111.363576 C113.018301,110.946286 113.414743,110.181292 113.36,109.38 L113.36,62.38 C113.333557,61.2037151 112.386285,60.2564433 111.21,60.23 L111.21,60.23 Z" id="Path" fill="#A3D7DF" fill-rule="nonzero"></path>
                        <path d="M121.85,60.23 C121.2807,60.23 120.734862,60.4568296 120.333245,60.8603229 C119.931628,61.2638161 119.70734,61.8107061 119.71,62.38 L119.71,109.38 C119.655257,110.181292 120.051699,110.946286 120.737945,111.363576 C121.424192,111.780866 122.285808,111.780866 122.972055,111.363576 C123.658301,110.946286 124.054743,110.181292 124,109.38 L124,62.38 C124,61.1925878 123.037412,60.23 121.85,60.23 L121.85,60.23 Z" id="Path" fill="#A3D7DF" fill-rule="nonzero"></path>
                        <path d="M25.82,60.23 C24.6325878,60.23 23.67,61.1925878 23.67,62.38 L23.67,109.38 C23.6152568,110.181292 24.0116985,110.946286 24.6979452,111.363576 C25.3841919,111.780866 26.2458081,111.780866 26.9320548,111.363576 C27.6183015,110.946286 28.0147432,110.181292 27.96,109.38 L27.96,62.38 C27.9492448,61.2009564 26.9989807,60.2462518 25.82,60.23 L25.82,60.23 Z" id="Path" fill="#A3D7DF" fill-rule="nonzero"></path>
                        <path d="M15.14,60.23 C13.9564949,60.2355047 12.9999872,61.1964821 13,62.38 L13,109.38 C12.9452568,110.181292 13.3416985,110.946286 14.0279452,111.363576 C14.7141919,111.780866 15.5758081,111.780866 16.2620548,111.363576 C16.9483015,110.946286 17.3447432,110.181292 17.29,109.38 L17.29,62.38 C17.2926603,61.8107061 17.0683716,61.2638161 16.666755,60.8603229 C16.2651385,60.4568296 15.7193002,60.23 15.15,60.23 L15.14,60.23 Z" id="Path" fill="#A3D7DF" fill-rule="nonzero"></path>
                        <path d="M100.53,60.23 C99.9606998,60.23 99.4148615,60.4568296 99.013245,60.8603229 C98.6116284,61.2638161 98.3873397,61.8107061 98.39,62.38 L98.39,109.38 C98.3352568,110.181292 98.7316985,110.946286 99.4179452,111.363576 C100.104192,111.780866 100.965808,111.780866 101.652055,111.363576 C102.338301,110.946286 102.734743,110.181292 102.68,109.38 L102.68,62.38 C102.669147,61.1971124 101.712888,60.2408529 100.53,60.23 L100.53,60.23 Z" id="Path" fill="#A3D7DF" fill-rule="nonzero"></path>
                        <path d="M89.85,60.23 C89.2806998,60.23 88.7348615,60.4568296 88.333245,60.8603229 C87.9316284,61.2638161 87.7073397,61.8107061 87.71,62.38 L87.71,109.38 C87.6552568,110.181292 88.0516985,110.946286 88.7379452,111.363576 C89.4241919,111.780866 90.2858081,111.780866 90.9720548,111.363576 C91.6583015,110.946286 92.0547432,110.181292 92,109.38 L92,62.38 C91.9891471,61.1971124 91.0328876,60.2408529 89.85,60.23 L89.85,60.23 Z" id="Path" fill="#A3D7DF" fill-rule="nonzero"></path>
                        <path d="M79.17,60.2297891 C78.5955187,60.2219392 78.041925,60.4452171 77.6337889,60.8495916 C77.2256528,61.253966 76.9972587,61.8054686 76.9999756,62.38 L76.9999756,109.38 C76.9973397,109.949294 77.2216284,110.496184 77.623245,110.899677 C78.0248615,111.30317 78.5706998,111.530216 79.14,111.530216 C79.7126789,111.538163 80.2642954,111.314268 80.6692817,110.909282 C81.074268,110.504295 81.2981629,109.952679 81.29,109.38 L81.29,62.38 C81.2791471,61.1971124 80.3228876,60.2408529 79.14,60.2297891 L79.17,60.2297891 Z" id="Path" fill="#A3D7DF" fill-rule="nonzero"></path>
                        <path d="M26.29,120.53 L66.56,19.66 C66.6014471,19.5583944 66.700266,19.4919804 66.81,19.4919804 C66.919734,19.4919804 67.0185529,19.5583944 67.06,19.66 L108.14,120.54" id="Path" stroke="#4C4D4D"></path>
                        <polygon id="Path" fill="#FFD301" fill-rule="nonzero" points="61.13 0 72.49 0 66.81 9.28"></polygon>
                        <path d="M71,14.87 C70.9944803,17.1717176 69.1250706,19.0336723 66.8233493,19.0300001 C64.521628,19.0263171 62.6581778,17.1583981 62.660012,14.8566747 C62.6618488,12.5549512 64.5282758,10.6900066 66.83,10.69 L66.83,8.63" id="Path" stroke="#4C4D4D"></path>
                        <polygon id="Path" fill="#367088" fill-rule="nonzero" points="18.1 120 18.1 123.47 117.71 123.47 117.71 123.47 117.71 120"></polygon>
                    </g>
                </g>
            </g>
        </g>
        <g id="clouds_mitte" transform="translate(356.000000, -64.000000)" fill="#FFFFFF" opacity="0.3">
            <g id="Group">
                <path d="M435.72,26.53 C401.645629,-7.53096925 346.414371,-7.53096925 312.34,26.53 L311.51,27.37 C310.363333,25.9766667 309.14,24.6433333 307.84,23.37 C307.17,22.69 306.48,22.04 305.78,21.37 C294.854325,10.0054923 279.764582,3.59108725 264,3.61 C236.972904,3.62302315 213.526678,22.2771988 207.44,48.61 C194.163644,49.6007877 182.912025,58.7618114 179.250594,71.5617023 C175.589164,84.3615932 180.294077,98.0870106 191.038117,105.948874 C201.782157,113.810737 216.287785,114.142475 227.38,106.78 C237.721782,115.207535 250.659258,119.800304 264,119.78 C272.911404,119.787492 281.703815,117.73399 289.69,113.78 L290.5,113.45 C301.019837,148.223629 331.988477,172.837847 368.239157,175.237941 C404.489837,177.638036 438.433263,157.321533 453.44578,124.238357 C468.458298,91.1551804 461.396949,52.2314889 435.72,26.53 L435.72,26.53 Z" id="cloud_mitte_links"></path>
                <path d="M170.25,177.06 C184.472795,199.020327 210.846283,209.827621 236.389393,204.162515 C261.932503,198.497408 281.263991,177.553387 284.868869,151.63913 C288.473748,125.724873 275.592567,100.299814 252.565463,87.8782052 C229.538359,75.4565968 201.216521,78.6553366 181.54,95.9 C168.314081,85.4636027 150.548104,82.8175415 134.85491,88.9467315 C119.161715,95.0759216 107.891783,109.062351 105.24,125.7 C89.1915189,102.660179 58.8952145,94.5052848 33.4497837,106.376138 C8.00435287,118.246991 -5.21270726,146.701827 2.13059728,173.802805 C9.47390182,200.903782 35.2484969,218.793405 63.2061572,216.19411 C91.1638176,213.594815 113.198665,191.260226 115.42,163.27 C128.675144,179.42458 150.929511,185.021657 170.25,177.06 L170.25,177.06 Z" id="cloud_mitte_rechts"></path>
            </g>
        </g>
        <g id="clouds_rechts" transform="translate(822.000000, -75.000000)" fill="#FFFFFF" opacity="0.3">
            <g id="clouds_rechts-2">
                <path d="M380.54,227.28 C391.048668,277.609023 431.725114,316.108893 482.555461,323.836667 C533.385808,331.56444 583.666261,306.892811 608.657522,261.960867 C633.648782,217.028923 628.088218,161.298381 594.711774,122.190125 C561.33533,83.0818699 507.171378,68.8312724 458.87,86.45 C454.860479,79.668059 450.015987,73.4159094 444.45,67.84 C423.987962,47.3784817 395.189137,37.5708715 366.491925,41.2909167 C337.794713,45.0109619 312.448489,61.8374433 297.88,86.84 C286.527452,40.11208 246.97882,5.59722353 199.144547,0.671658876 C151.310274,-4.25390578 105.558008,21.4773932 84.9213617,64.9113393 C64.2847151,108.345285 73.2364952,160.067961 107.27,194.04 C133.298161,220.049058 170.314954,231.834818 206.589405,225.662261 C242.863856,219.489704 273.899185,196.124014 289.86,162.97 C302.655225,202.010196 339.465487,228.099692 380.54,227.24 L380.54,227.28 Z" id="Path"></path>
                <path d="M74.46,69.1 C75.5307025,58.0710513 71.6087985,47.1418166 63.77,39.31 C56.815706,32.3527978 47.3819135,28.4440377 37.545,28.4440377 C27.7080865,28.4440377 18.274294,32.3527978 11.32,39.31 C-3.17137963,53.8021888 -3.17137963,77.2978112 11.32,91.79 C24.1162627,104.587525 44.2814676,106.278173 59.03,95.79 C54.9488065,119.425601 70.6281627,141.95032 94.2103605,146.329559 C117.792558,150.708797 140.513415,135.315036 145.19,111.79 C159.764079,121.983443 178.569139,123.927099 194.92,116.93 C203.174059,144.159062 225.10945,165.060783 252.704934,171.991914 C280.300417,178.923044 309.509071,170.867121 329.65,150.77 C351.09145,130.526748 359.837981,100.230602 352.484998,71.6743649 C345.132014,43.118128 322.841316,20.8137991 294.28958,13.4433597 C265.737844,6.07292032 235.436356,14.800929 215.18,36.23 L214.41,37.01 C213.35,35.72 212.21,34.47 211.01,33.26 C201.370247,23.6177476 188.294437,18.2005765 174.66,18.2005765 C161.025563,18.2005765 147.949753,23.6177476 138.31,33.26 C129.871794,41.6787762 124.631288,52.7750694 123.49,64.64 C116.994641,61.0270969 109.682536,59.1371037 102.25,59.15 C101.13,59.15 100.02,59.2 98.92,59.28 C90.9397723,58.4993362 83.0254004,61.306007 77.32,66.94 C76.34,67.62 75.38,68.37 74.46,69.1 Z" id="Path"></path>
            </g>
        </g>
        <g id="cloud_links" transform="translate(-150.000000, 205.000000)" fill="#FFFFFF" opacity="0.3">
            <path d="M402.52,152.83 C400.126446,177.885091 415.514166,201.222511 439.48589,208.893438 C463.457614,216.564365 489.535214,206.495804 502.132056,184.705755 C514.728898,162.915706 510.440807,135.29272 491.830783,118.347109 C473.22076,101.401499 445.317984,99.7126542 424.8,114.29 C430.334884,80.3420972 407.726535,48.1940176 373.906991,41.9223756 C340.087447,35.6507335 307.455435,57.5548025 300.45,91.23 C279.423031,76.5412108 252.305697,73.7398802 228.72,83.82 C223.16642,65.3705934 213.119224,48.5886152 199.48,34.98 C177.578445,13.0592596 147.862045,0.742701852 116.875,0.742701852 C85.887955,0.742701852 56.1715547,13.0592596 34.27,34.98 C-11.3502148,80.633246 -11.3502148,154.616754 34.27,200.27 C56.1715547,222.19074 85.887955,234.507298 116.875,234.507298 C147.862045,234.507298 177.578445,222.19074 199.48,200.27 L200.59,199.14 C202.123333,201.013333 203.76,202.816667 205.5,204.55 C225.801782,224.794099 255.950823,231.528682 282.937175,221.847633 C309.923527,212.166584 328.916412,187.802889 331.72,159.27 C341.093726,164.481489 351.644981,167.207947 362.37,167.19 C363.99,167.19 365.6,167.13 367.18,167.01 C378.699585,168.132675 390.122729,164.08072 398.36,155.95 C399.806667,154.97 401.193333,153.93 402.52,152.83 Z" id="Path"></path>
        </g>
    </g>
</svg>