<svg id="Layer_1" data-name="Layer 1" xmlns="http://www.w3.org/2000/svg" xmlns:xlink="http://www.w3.org/1999/xlink" viewBox="0 0 146.85 84.2"><defs><style>.cls-1{fill:none;}.cls-2{clip-path:url(#clip-path);}.cls-3,.cls-4{fill:#1d1d1b;}.cls-3{fill-rule:evenodd;}</style><clipPath id="clip-path" transform="translate(-32.46 -23.19)"><rect class="cls-1" x="32.28" y="23.14" width="147.32" height="84.45"/></clipPath></defs><title>adcubum</title><g class="cls-2"><path class="cls-3" d="M50.55,55.37a9.16,9.16,0,0,1-7,3.72c-3.77,0-5.6-1.94-5.6-4.83,0-2.66,2.33-4.33,6-4.33a14.39,14.39,0,0,1,6.66,1.28Zm5.6,8.27v-20c0-6.6-4.44-9.77-10.93-9.77a18.06,18.06,0,0,0-10,2.61l2.22,4.33A14.7,14.7,0,0,1,45.06,39c3.55,0,5.49,1.78,5.49,4.94V46.1A16.08,16.08,0,0,0,44.06,45c-6.6,0-11.6,2.94-11.6,9.43,0,7.16,5.38,9.82,10.1,9.82a11.46,11.46,0,0,0,8-3.49v2.88Z" transform="translate(-32.46 -23.19)"/><path class="cls-3" d="M78.54,55.26C77,57.14,74.66,59,71.94,59c-4.22,0-6.55-3.22-6.55-10.54,0-6.16,2.22-9.27,6.32-9.27,2.89,0,5.55,2.11,6.82,3.83Zm5.6,8.38V23.19l-5.66,2.94v11.1a10.34,10.34,0,0,0-7.32-3.33c-6,0-11.48,4.72-11.48,14.7,0,11.1,4.94,15.65,11.21,15.65a11.1,11.1,0,0,0,7.6-3.38v2.77Z" transform="translate(-32.46 -23.19)"/><path d="M101.44,23.41h27.8a6.29,6.29,0,0,1,6.29,6.29V57.5a6.29,6.29,0,0,1-6.29,6.29h-27.8a6.29,6.29,0,0,1-6.29-6.29V29.7a6.29,6.29,0,0,1,6.29-6.29" transform="translate(-32.46 -23.19)"/><path class="cls-4" d="M81.82,106.78V77.65H76.11v17c0,4.71-2.16,7.43-6,7.43s-6-2.11-6-8V77.65H58.41v16.7c0,8.6,3.61,13,10.37,13A8.92,8.92,0,0,0,76.11,104v2.77Z" transform="translate(-32.46 -23.19)"/><path class="cls-3" d="M105,92.86c0,6.16-2.22,9.27-6.33,9.27-2.88,0-5.55-2.11-6.82-3.83V86c1.5-1.89,3.88-3.72,6.6-3.72,4.22,0,6.55,3.22,6.55,10.54m5.71-.17c0-11.1-4.94-15.65-11.21-15.65a11.1,11.1,0,0,0-7.6,3.38V66.34l-5.66,2.94v37.5h5.66v-2.72a10.34,10.34,0,0,0,7.32,3.33c6,0,11.48-4.72,11.48-14.7" transform="translate(-32.46 -23.19)"/><path class="cls-4" d="M136,106.78V77.65h-5.71v17c0,4.71-2.16,7.43-6,7.43s-6-2.11-6-8V77.65h-5.71v16.7c0,8.6,3.61,13,10.37,13a8.92,8.92,0,0,0,7.32-3.38v2.77Z" transform="translate(-32.46 -23.19)"/><path class="cls-4" d="M179.31,106.78V90.08c0-8.6-3.22-13-10-13a10.18,10.18,0,0,0-8.93,4.27c-1.55-2.77-4.05-4.27-8-4.27a8.17,8.17,0,0,0-6.93,3.38V77.65h-5.72v29.13h5.72v-17c0-4.72,1.77-7.43,5.6-7.43s5.6,2.11,5.6,8v16.48h5.71v-17c0-4.72,1.77-7.43,5.6-7.43s5.6,2.11,5.6,8v16.48Z" transform="translate(-32.46 -23.19)"/><path class="cls-4" d="M55.54,82A12.88,12.88,0,0,0,45.22,77c-7.1,0-12.76,5.6-12.76,15.26,0,9.1,5.49,15.09,12.59,15.09,5.27,0,8.16-2.55,10.43-5.44l-3.66-3.61c-2.28,2.39-3.88,3.61-6.6,3.61-4.55,0-7-4.11-7-9.82,0-5.94,2.66-9.65,6.82-9.65,2.61,0,4.72,1.11,7.1,3.55Z" transform="translate(-32.46 -23.19)"/></g></svg>