<svg width="199" height="258" viewBox="0 0 199 258" xmlns="http://www.w3.org/2000/svg" xmlns:xlink="http://www.w3.org/1999/xlink"><title>Page 1</title><defs><path id="a" d="M198.425 198.63V.205H0V198.63h198.425z"/><path id="c" d="M.682 30h18.476V.166H.682z"/><path id="e" d="M.424 30H18.9V.166H.424V30z"/><path id="g" d="M0 258.795h198.425V1H0z"/></defs><g transform="translate(0 -1)" fill="none" fill-rule="evenodd"><g transform="translate(0 .795)"><mask id="b" fill="#fff"><use xlink:href="#a"/></mask><path d="M154.93 110.51c0 15.564-10.28 17.748-16.27 17.748h-1.301c-5.988 0-16.27-2.184-16.27-17.748V88.325c0-15.565 10.282-17.748 16.27-17.748h1.302c5.989 0 16.27 2.183 16.27 17.748v22.185zm-44.285-53.964l-23.43 87.438a3.275 3.275 0 0 1-3.163 2.428h-2.11a3.275 3.275 0 0 1-3.163-4.123l23.429-87.439a3.276 3.276 0 0 1 3.164-2.428h2.109a3.276 3.276 0 0 1 3.164 4.124zm-45.817 65.122a5.214 5.214 0 0 1-5.214 5.215h-1.288a5.214 5.214 0 0 1-5.214-5.215v-44.5a5.214 5.214 0 0 1 5.214-5.215h1.288a5.214 5.214 0 0 1 5.214 5.215v44.5zM99.213.205C44.419.205 0 44.623 0 99.417c0 54.794 44.419 99.213 99.213 99.213 54.793 0 99.213-44.419 99.213-99.213S154.006.205 99.213.205z" fill="#000" mask="url(#b)"/></g><path d="M138.01 82.781c-3.155 0-5.207 2.837-5.207 5.705v23.453c0 2.867 2.052 5.704 5.207 5.704 3.154 0 5.206-2.707 5.206-5.704V88.486c0-2.998-2.052-5.705-5.206-5.705" fill="#000"/><g transform="translate(6 228.795)"><mask id="d" fill="#fff"><use xlink:href="#c"/></mask><path d="M13.264 16.096h-1.39c-3.377 0-5.563 1.182-5.563 5.01v.45c0 2.308.927 3.997 3.245 3.997 2.648 0 3.708-1.632 3.708-5.742v-3.715zm5.76 7.938c0 1.857 0 4.502.134 5.516h-5.431c-.132-.62-.396-1.802-.396-2.195C12.204 29.268 10.218 30 7.7 30 2.668 30 .68 26.116.68 21.67v-.508c0-6.867 5.299-8.95 11.392-8.95h1.059V8.16c0-2.42-.397-3.828-2.715-3.828-2.252 0-2.848 1.464-2.848 3.49v.563H1.742v-.506c0-4.109 1.854-7.712 8.874-7.712 6.29 0 8.409 3.096 8.409 7.6v16.268z" fill="#000" mask="url(#d)"/></g><path d="M31.052 237.799c0-5.573 0-7.037-.066-8.388h5.628c.2.845.2 1.633.266 2.59 1.06-1.914 3.046-3.04 5.893-3.04 2.715 0 4.57.957 5.364 3.209 1.126-1.69 2.913-3.21 6.423-3.21 3.577 0 6.622 1.465 6.622 7.094v22.29h-5.959v-21.333c0-2.14-.597-3.49-2.782-3.49-2.715 0-3.377 1.914-3.377 4.898v19.926h-5.96v-21.166c0-2.87-.926-3.658-2.847-3.658-2.715 0-3.31 1.97-3.31 4.953v19.87h-5.895V237.8z" fill="#000"/><g transform="translate(65 228.795)"><mask id="f" fill="#fff"><use xlink:href="#e"/></mask><path d="M13.006 16.096h-1.39c-3.378 0-5.563 1.182-5.563 5.01v.45c0 2.308.927 3.997 3.245 3.997 2.648 0 3.708-1.632 3.708-5.742v-3.715zm5.761 7.938c0 1.857 0 4.502.133 5.516h-5.431c-.132-.62-.397-1.802-.397-2.195C11.946 29.268 9.96 30 7.444 30c-5.033 0-7.02-3.884-7.02-8.33v-.508c0-6.867 5.298-8.95 11.391-8.95h1.059V8.16c0-2.42-.397-3.828-2.715-3.828-2.252 0-2.848 1.464-2.848 3.49v.563H1.484v-.506c0-4.109 1.854-7.712 8.874-7.712 6.29 0 8.409 3.096 8.409 7.6v16.268z" fill="#000" mask="url(#f)"/></g><path d="M87.543 254.911c1.258-2.308 7.285-14.129 10.86-20.884h-9.866v-4.616h16.422v3.547c-.728 1.576-7.813 15.649-10.53 20.771h10.663l-.53 4.616h-17.02v-3.434zm33.177-13.791v-3.265c0-2.645-.596-4.616-3.442-4.616-2.65 0-3.577 1.688-3.577 4.672v3.209h7.02zm-7.085 3.997v4.446c0 2.534.596 4.954 3.51 4.954 2.913 0 3.377-2.14 3.377-4.503v-.17h5.761v.17c0 3.152-.794 8.78-9.005 8.78-8.014 0-9.47-4.333-9.47-10.187v-10.02c0-4.11 1.655-9.626 9.47-9.626 6.953 0 9.137 4.166 9.137 9.626v6.53h-12.78zm29.867-3.997v-3.265c0-2.645-.595-4.616-3.443-4.616-2.65 0-3.576 1.688-3.576 4.672v3.209h7.019zm-7.085 3.997v4.446c0 2.534.596 4.954 3.509 4.954 2.914 0 3.377-2.14 3.377-4.503v-.17h5.762v.17c0 3.152-.795 8.78-9.006 8.78-8.013 0-9.47-4.333-9.47-10.187v-10.02c0-4.11 1.656-9.626 9.47-9.626 6.953 0 9.138 4.166 9.138 9.626v6.53h-12.78z" fill="#000"/><mask id="h" fill="#fff"><use xlink:href="#g"/></mask><path d="M162.305 258.345h5.894v-28.934h-5.894v28.934zm0-33.212h5.96v-6.023h-5.96v6.023zm16.326 12.61v12.046c0 2.702.994 4.504 3.643 4.504 2.384 0 3.51-1.464 3.51-4.561v-11.99c0-2.476-.862-4.334-3.577-4.334-2.45 0-3.576 1.576-3.576 4.335m13.112.28v11.54c0 6.193-3.575 9.232-9.602 9.232-6.158 0-9.47-3.04-9.47-9.175v-11.765c0-6.023 3.908-8.894 9.67-8.894 5.96 0 9.402 3.209 9.402 9.063m-33.405 17.341a2.98 2.98 0 1 1-5.96 0 2.98 2.98 0 0 1 5.96 0" fill="#000" mask="url(#h)"/></g></svg>