<?xml version="1.0" encoding="utf-8"?>
<!-- Generator: Adobe Illustrator 20.1.0, SVG Export Plug-In . SVG Version: 6.00 Build 0)  -->
<svg version="1.1" id="Ebene_1" xmlns:sketch="http://www.bohemiancoding.com/sketch/ns"
	 xmlns="http://www.w3.org/2000/svg" xmlns:xlink="http://www.w3.org/1999/xlink" x="0px" y="0px" viewBox="0 0 228 30"
	 style="enable-background:new 0 0 228 30;" xml:space="preserve">
<title>HITOBITO Logo</title>
<desc>Created with Sketch.</desc>
<g id="Page-1" sketch:type="MSPage">
	<g id="HITOBITO-Logo" sketch:type="MSLayerGroup">
		<path id="Rectangle-5-copy-2" sketch:type="MSShapeGroup" d="M5,0C2.2,0,0,2.2,0,5v20c0,2.8,2.2,5,5,5h34c2.8,0,5-2.2,5-5V5
			c0-2.8-2.2-5-5-5H5z M13.1,17.3c-0.9,2.2-2.5,3.9-4.7,5.3c-0.2,0.1-0.5,0.2-0.7,0.2c-0.5,0-1-0.3-1.2-0.7
			c-0.1-0.2-0.2-0.5-0.2-0.7c0-0.5,0.3-1,0.7-1.2c1.6-0.8,2.8-2.2,3.5-3.7c0.8-1.8,1.1-3.2,1.1-5.9c0-0.8,0.6-1.3,1.4-1.3
			c0.7,0,1.4,0.5,1.4,1.3c0,2.7,0.3,4,1.1,5.7c0.7,1.5,2.1,2.9,3.7,3.8c0.5,0.2,0.7,0.7,0.7,1.2c0,0.3-0.1,0.5-0.2,0.8l0,0.1
			c-0.3,0.4-0.7,0.6-1.2,0.6c-0.3,0-0.5-0.1-0.8-0.2C15.7,21.2,14.1,19.5,13.1,17.3z M30.9,17.3c-0.9,2.2-2.5,3.9-4.7,5.3
			c-0.2,0.1-0.5,0.2-0.7,0.2c-0.5,0-1-0.3-1.2-0.7c-0.1-0.2-0.2-0.5-0.2-0.7c0-0.5,0.3-1,0.7-1.2c1.6-0.8,2.8-2.2,3.5-3.7
			c0.8-1.8,1.1-3.2,1.1-5.9c0-0.8,0.6-1.3,1.4-1.3c0.7,0,1.4,0.5,1.4,1.3c0,2.7,0.3,4,1.1,5.7c0.7,1.5,2.1,2.9,3.7,3.8
			c0.5,0.2,0.7,0.7,0.7,1.2c0,0.3-0.1,0.5-0.2,0.8l0,0.1c-0.3,0.4-0.7,0.6-1.2,0.6c-0.3,0-0.5-0.1-0.8-0.2
			C33.5,21.2,31.9,19.5,30.9,17.3z"/>
		<path id="HITOBITO-copy-2" sketch:type="MSShapeGroup" d="M60.6,26v-8.7H70V26c0,1.1,0.9,2,2,2s2-0.9,2-2V4.7c0-1.1-0.9-2-2-2
			s-2,0.9-2,2v8.7h-9.4V4.7c0-1.1-0.9-2-2-2s-2,0.9-2,2V26c0,1.1,0.9,2,2,2S60.6,27.1,60.6,26z M82.6,26c0,1.1,0.9,2,2,2
			c1.1,0,2-0.9,2-2V4.7c0-1.1-0.9-2-2-2c-1.1,0-2,0.9-2,2c0,0,0-1.1,0,0V26z M108.9,2.7H93.4c-1.1,0-2,0.9-2,2c0,1.1,0.9,2,2,2h5.7
			V26c0,1.1,0.9,2,2,2c1.1,0,2-0.9,2-2V6.7h5.8c1.1,0,2-0.9,2-2C110.9,3.6,110,2.7,108.9,2.7z M128.3,2c-3.5,0-6.7,1.5-8.9,3.9
			c-2.2,2.4-3.6,5.6-3.6,9.1s1.3,6.8,3.6,9.1c2.2,2.3,5.4,3.9,8.9,3.9c3.3,0,6.5-1.5,8.7-3.9c2.2-2.3,3.7-5.6,3.7-9.1
			s-1.4-6.8-3.7-9.1C134.8,3.5,131.6,2,128.3,2z M134,21.3c-1.5,1.6-3.6,2.6-5.7,2.6c-2.3,0-4.4-1-5.9-2.6c-1.5-1.6-2.5-3.8-2.5-6.3
			s0.9-4.7,2.5-6.3c1.5-1.6,3.6-2.6,5.9-2.6c2.2,0,4.2,0.9,5.7,2.6c1.5,1.6,2.5,3.9,2.5,6.3S135.5,19.7,134,21.3
			C134,21.3,135.5,19.7,134,21.3z M149.7,28c0,0,0,0,0.1,0c0,0,0,0,0,0h6.4c4.3,0,7.8-3.5,7.8-7.8c0-2.7-1.5-5.2-3.7-6.5
			c0.9-1.2,1.4-2.6,1.4-4.1c0-3.8-3.1-6.9-6.9-6.9h-5h0h-0.1c-1.1,0-2,0.9-2,2V26C147.8,27.1,148.7,28,149.7,28
			C149.7,28,148.7,28,149.7,28z M151.8,6.7h3.1c1.6,0,2.9,1.3,2.9,2.9s-1.3,2.9-2.9,2.9h-3.1V6.7z M151.8,16.5h4.5
			c2.1,0,3.7,1.7,3.7,3.7c0,2.1-1.7,3.7-3.7,3.8h-4.5V16.5z M169.6,26c0,1.1,0.9,2,2,2c1.1,0,2-0.9,2-2V4.7c0-1.1-0.9-2-2-2
			c-1.1,0-2,0.9-2,2c0,0,0-1.1,0,0V26z M197.9,4.7c0-1.1-0.9-2-2-2h-15.5c-1.1,0-2,0.9-2,2c0,1.1,0.9,2,2,2h5.7V26c0,1.1,0.9,2,2,2
			c1.1,0,2-0.9,2-2V6.7h5.8C197,6.7,197.9,5.8,197.9,4.7C197.9,4.7,197.9,5.8,197.9,4.7z M215.3,2c-3.5,0-6.7,1.5-8.9,3.9
			c-2.2,2.4-3.6,5.6-3.6,9.1s1.3,6.8,3.6,9.1c2.2,2.3,5.4,3.9,8.9,3.9c3.3,0,6.5-1.5,8.7-3.9c2.2-2.3,3.7-5.6,3.7-9.1
			s-1.4-6.8-3.7-9.1C221.8,3.5,218.6,2,215.3,2z M221,21.3c-1.5,1.6-3.6,2.6-5.7,2.6c-2.3,0-4.4-1-5.9-2.6c-1.5-1.6-2.5-3.8-2.5-6.3
			s0.9-4.7,2.5-6.3c1.5-1.6,3.6-2.6,5.9-2.6c2.2,0,4.2,0.9,5.7,2.6c1.5,1.6,2.5,3.9,2.5,6.3S222.5,19.7,221,21.3
			C221,21.3,222.5,19.7,221,21.3z"/>
	</g>
</g>
</svg>
