<?xml version="1.0" encoding="utf-8"?>
<!-- Generator: Adobe Illustrator 20.1.0, SVG Export Plug-In . SVG Version: 6.00 Build 0)  -->
<svg version="1.1" id="Ebene_1" xmlns="http://www.w3.org/2000/svg" xmlns:xlink="http://www.w3.org/1999/xlink" x="0px" y="0px"
	 viewBox="0 0 580 53.3" style="enable-background:new 0 0 580 53.3;" xml:space="preserve">
<style type="text/css">
	.st0{clip-path:url(#SVGID_2_);}
	.st1{clip-path:url(#SVGID_4_);}
</style>
<title>Asset 2</title>
<g id="Layer_2">
	<g id="Layer_1-2">
		<path d="M199.9,52.6c0,0.4-0.1,0.4-0.4,0.4h-4.7c-0.2,0-0.4,0-0.4-0.4v-0.9c0-0.4,0.1-0.4,0.4-0.4h1.1v-8.5h-1.3v1.6
			c0,0.2-0.1,0.2-0.2,0.2h-1c-0.2,0-0.2,0-0.2-0.2v-3.3c0-0.2,0-0.2,0.2-0.2h7.6c0.2,0,0.2,0,0.2,0.2v3.3c0,0.2-0.1,0.2-0.2,0.2h-1
			c-0.2,0-0.2,0-0.2-0.2v-1.6h-1.3v8.5h1.1c0.2,0,0.4,0,0.4,0.4v0.9"/>
		<path d="M218,52.6c0,0.4,0,0.4-0.4,0.4h-7.1c-0.2,0-0.4,0-0.4-0.4v-0.9c0-0.4,0.1-0.4,0.4-0.4h0.9v-8.7h-0.9c-0.2,0-0.4,0-0.4-0.4
			v-1c0-0.4,0.1-0.4,0.4-0.4h7.1c0.2,0,0.4,0,0.4,0.2v2.7c0,0.4-0.1,0.4-0.4,0.4h-1.1c-0.2,0-0.4,0-0.4-0.4v-0.9h-2.3v2.9h3
			c0.4,0,0.4,0,0.4,0.4v1.1c0,0.4-0.1,0.4-0.4,0.4h-3v3.4h2.3v-1.3c0-0.2,0-0.4,0.4-0.4h1.1c0.4,0,0.4,0,0.4,0.4V52.6"/>
		<path d="M235.4,52.2c0,0.5-1.5,1-3,1c-3.3,0-4.8-2-4.8-6.2s1.5-6.4,4.8-6.4c1.3,0,2.9,0.5,2.9,1.1v2.4c0,0.2-0.1,0.2-0.2,0.2h-1.3
			c-0.2,0-0.2,0-0.2-0.2v-1.5c-0.3-0.1-0.6-0.1-0.9-0.1c-1.6,0-2.4,1-2.4,4s0.4,4.8,2.5,4.8c0.3,0,0.6,0,0.9-0.1v-1.6
			c0-0.2,0-0.2,0.2-0.2h1.3c0.2,0,0.2,0.1,0.2,0.2L235.4,52.2"/>
		<path d="M255.3,52.6c0,0.4-0.1,0.4-0.4,0.4h-4.2c-0.2,0-0.4,0-0.4-0.4v-0.9c0-0.4,0.1-0.4,0.4-0.4h0.9v-3.5h-3.4v3.5h0.9
			c0.2,0,0.4,0,0.4,0.4v1c0,0.4-0.1,0.4-0.4,0.4H245c-0.2,0-0.4,0-0.4-0.4v-1c0-0.4,0.1-0.4,0.4-0.4h0.9v-8.7H245
			c-0.2,0-0.4,0-0.4-0.4v-1c0-0.4,0.1-0.4,0.4-0.4h4.2c0.2,0,0.4,0,0.4,0.4v1c0,0.4-0.1,0.4-0.4,0.4h-0.9v3.2h3.4v-3.2h-0.9
			c-0.2,0-0.4,0-0.4-0.4v-1c0-0.4,0.1-0.4,0.4-0.4h4.2c0.2,0,0.4,0,0.4,0.4v1c0,0.4-0.1,0.4-0.4,0.4h-0.9v8.7h0.9
			c0.2,0,0.4,0,0.4,0.4L255.3,52.6"/>
		<path d="M274.1,52.6c0,0.4,0,0.4-0.4,0.4h-1.1c-0.2,0-0.2,0-0.4-0.2l-3.3-6c-0.4-0.8-0.8-1.6-1-2.4l0,0c0,0.6,0.1,1.1,0.1,1.9v5
			h0.9c0.2,0,0.4,0,0.4,0.4v1c0,0.4-0.1,0.4-0.4,0.4h-3.8c-0.2,0-0.4,0-0.4-0.4v-0.8c0-0.4,0.1-0.4,0.4-0.4h0.8v-8.7h-0.9
			c-0.2,0-0.4,0-0.4-0.4v-1c0-0.4,0.1-0.4,0.4-0.4h2.6c0.2,0,0.2,0,0.4,0.2l2.9,5.4c0.5,0.8,0.8,1.6,1,2.5l0,0
			c0-0.5-0.1-1.8-0.1-2.3v-4.3H271c-0.2,0-0.4,0-0.4-0.4v-1c0-0.4,0.1-0.4,0.4-0.4h3.8c0.2,0,0.4,0,0.4,0.4v1c0,0.4-0.1,0.4-0.4,0.4
			H274v10.1"/>
		<path d="M290.6,47c0-2.8-0.5-4.5-1.9-4.5s-1.9,1.8-1.9,4.5s0.5,4.4,1.9,4.4S290.6,49.6,290.6,47z M288.7,53.3
			c-2.8,0-4.4-2-4.4-6.3s1.6-6.3,4.4-6.3s4.4,2,4.4,6.3S291.5,53.3,288.7,53.3"/>
		<path d="M303.9,42.6H303c-0.2,0-0.4,0-0.4-0.4v-1c0-0.4,0.1-0.4,0.4-0.4h4.2c0.2,0,0.4,0,0.4,0.4v1c0,0.4-0.1,0.4-0.4,0.4h-1v8.5
			h2.5l0.4-1.4c0-0.2,0.1-0.4,0.2-0.4h0.2l1.1,0.2c0.2,0,0.4,0.1,0.4,0.2v0.2l-0.5,2.5c0,0.2-0.1,0.3-0.3,0.4c0,0-0.1,0-0.1,0h-7.1
			c-0.2,0-0.4,0-0.4-0.4v-0.9c0-0.4,0.1-0.4,0.4-0.4h0.9v-8.7"/>
		<path d="M326.3,47c0-2.8-0.5-4.5-1.9-4.5s-1.9,1.8-1.9,4.5s0.5,4.4,1.9,4.4S326.3,49.6,326.3,47z M324.4,53.3
			c-2.8,0-4.4-2-4.4-6.3s1.6-6.3,4.4-6.3s4.4,2,4.4,6.3S327.2,53.3,324.4,53.3"/>
		<path d="M346.6,52c0,0.8-2,1.4-3.5,1.4c-3.1,0-4.7-2-4.7-6.3s1.6-6.4,4.7-6.4c1.4,0,3.3,0.5,3.3,1.3v2.3c0,0.2,0,0.2-0.2,0.2h-1.3
			c-0.2,0-0.2,0-0.2-0.2v-1.4c-0.4-0.1-0.7-0.2-1.1-0.2c-1.8,0-2.4,1.6-2.4,4.4s0.5,4.5,2.4,4.5c0.4,0,0.9-0.1,1.3-0.2v-2.8h-1.3
			c-0.2,0-0.4,0-0.4-0.4v-1c0-0.4,0.1-0.4,0.4-0.4h4.3c0.2,0,0.4,0,0.4,0.4v1c0,0.4-0.1,0.4-0.4,0.4h-0.9v3.5"/>
		<path d="M363.9,52.6c0,0.4-0.1,0.4-0.4,0.4h-4.8c-0.2,0-0.4,0-0.4-0.4v-0.9c0-0.4,0.1-0.4,0.4-0.4h1.1V48l-2.8-5.4h-0.5
			c-0.2,0-0.2,0-0.2-0.2v-1.1c0-0.2,0-0.2,0.2-0.2h2c0.2,0,0.2,0,0.4,0.2l1.4,2.8c0.3,0.6,0.6,1.3,0.8,2l0,0c0.1-0.7,0.4-1.4,0.8-2
			l1.4-2.8c0.1-0.2,0.1-0.2,0.4-0.2h1.9c0.2,0,0.2,0,0.2,0.2v1.1c0,0.2,0,0.2-0.2,0.2H365l-2.6,5.4v3.3h1.1c0.2,0,0.4,0,0.4,0.4
			L363.9,52.6"/>
		<path d="M399.7,52.6c0,0.4-0.1,0.4-0.4,0.4h-3.7c-0.2,0-0.4,0-0.4-0.4v-0.9c0-0.4,0.1-0.4,0.4-0.4h0.8l-0.1-4.7v-2.8l0,0
			c-0.2,0.9-0.4,1.9-0.6,2.8l-1,3.4c-0.1,0.2-0.1,0.2-0.4,0.2h-1.1c-0.2,0-0.2,0-0.4-0.2l-1-3.4c-0.3-0.9-0.5-1.8-0.6-2.8l0,0v2.8
			l-0.1,4.7h0.8c0.2,0,0.4,0,0.4,0.4v1c0,0.4-0.1,0.4-0.4,0.4h-3.7c-0.2,0-0.4,0-0.4-0.4v-1c0-0.4,0.1-0.4,0.4-0.4h0.8l0.4-8.7h-0.9
			c-0.2,0-0.4,0-0.4-0.4v-1c0-0.4,0.1-0.4,0.4-0.4h3c0.2,0,0.2,0,0.4,0.2l1.4,4.4c0.2,0.7,0.4,1.4,0.5,2.1l0,0
			c0.1-0.6,0.2-1.3,0.5-2.1l1.4-4.4c0.1-0.2,0.1-0.2,0.4-0.2h3c0.2,0,0.4,0,0.4,0.4v1c0,0.4-0.1,0.4-0.4,0.4H398l0.4,8.7h0.8
			c0.2,0,0.4,0,0.4,0.4v0.9"/>
		<path d="M416.7,52.6c0,0.4,0,0.4-0.4,0.4h-7.1c-0.2,0-0.4,0-0.4-0.4v-0.9c0-0.4,0.1-0.4,0.4-0.4h0.9v-8.7h-0.9
			c-0.2,0-0.4,0-0.4-0.4v-1c0-0.4,0.1-0.4,0.4-0.4h7.1c0.2,0,0.4,0,0.4,0.2v2.7c0,0.4-0.1,0.4-0.4,0.4h-1.1c-0.2,0-0.4,0-0.4-0.4
			v-0.9h-2.3v2.9h3c0.4,0,0.4,0,0.4,0.4v1.1c0,0.4-0.1,0.4-0.4,0.4h-3v3.4h2.3v-1.3c0-0.2,0-0.4,0.4-0.4h1.1c0.4,0,0.4,0,0.4,0.4
			L416.7,52.6"/>
		<path d="M434.1,52.6c0,0.4,0,0.4-0.4,0.4h-7.1c-0.2,0-0.4,0-0.4-0.4v-0.9c0-0.4,0.1-0.4,0.4-0.4h0.9v-8.7h-0.9
			c-0.2,0-0.4,0-0.4-0.4v-1c0-0.4,0.1-0.4,0.4-0.4h7.1c0.2,0,0.4,0,0.4,0.2v2.7c0,0.4-0.1,0.4-0.4,0.4h-1.3c-0.2,0-0.4,0-0.4-0.4
			v-0.9H430v2.9h3c0.4,0,0.4,0,0.4,0.4v1.1c0,0.4-0.1,0.4-0.4,0.4h-3v3.4h2.3v-1.3c0-0.2,0-0.4,0.4-0.4h1.1c0.4,0,0.4,0,0.4,0.4
			L434.1,52.6"/>
		<path d="M450.3,52.6c0,0.4-0.1,0.4-0.4,0.4h-4.7c-0.2,0-0.4,0-0.4-0.4v-0.9c0-0.4,0.1-0.4,0.4-0.4h1.1v-8.5h-1.3v1.6
			c0,0.2-0.1,0.2-0.2,0.2h-1c-0.2,0-0.2,0-0.2-0.2v-3.3c0-0.2,0-0.2,0.2-0.2h7.6c0.2,0,0.2,0,0.2,0.2v3.3c0,0.2-0.1,0.2-0.2,0.2h-1
			c-0.2,0-0.2,0-0.2-0.2v-1.6h-1.3v8.5h1.1c0.2,0,0.4,0,0.4,0.4v0.9"/>
		<path d="M465.6,42.7c-0.4-0.2-0.7-0.3-1.1-0.2c-0.8-0.1-1.5,0.5-1.6,1.3c0,0,0,0.1,0,0.1c0,1.4,2,1.6,3.7,2.8
			c1.6,1.2,2,3.4,0.8,5.1c-0.7,1-1.9,1.6-3.1,1.5c-1.3,0-3.7-0.4-3.7-1.1v-2.7c0-0.2,0-0.2,0.2-0.2h1.3c0.2,0,0.2,0,0.2,0.2v1.6
			c0.5,0.2,1.1,0.4,1.6,0.4c0.8,0.1,1.5-0.5,1.6-1.3c0-0.1,0-0.2,0-0.4c0-1.5-1.8-1.8-3.5-2.8c-1-0.5-1.6-1.6-1.5-2.8
			c0-2.5,1.8-3.5,3.9-3.5c1.3,0,3.1,0.5,3.1,1.1v2.4c0,0.2-0.1,0.2-0.2,0.2h-1.3c-0.2,0-0.2,0-0.2-0.2v-1.5"/>
		<path d="M495.4,42.7c-0.4-0.2-0.7-0.3-1.1-0.2c-0.8-0.1-1.5,0.5-1.6,1.3c0,0,0,0.1,0,0.1c0,1.4,2,1.6,3.7,2.8
			c1.6,1.2,2,3.4,0.8,5.1c-0.7,1-1.9,1.6-3.1,1.5c-1.3,0-3.7-0.4-3.7-1.1v-2.6c0-0.2,0-0.2,0.2-0.2h1.3c0.2,0,0.2,0,0.2,0.2v1.6
			c0.5,0.2,1.1,0.4,1.6,0.4c0.8,0.1,1.5-0.5,1.6-1.3c0-0.1,0-0.2,0-0.4c0-1.5-1.8-1.8-3.5-2.8c-1-0.5-1.6-1.6-1.5-2.8
			c0-2.5,1.8-3.5,3.9-3.5c1.3,0,3.1,0.5,3.1,1.1v2.4c0,0.2-0.1,0.2-0.2,0.2h-1.3c-0.2,0-0.2,0-0.2-0.2v-1.5"/>
		<path d="M511,46.3c1,0,2-0.1,2-1.9c0-1.5-0.9-1.6-1.9-1.6h-0.8v3.5H511z M512,52.6c0,0.4-0.1,0.4-0.4,0.4h-4.4
			c-0.2,0-0.4,0-0.4-0.4v-0.9c0-0.4,0.1-0.4,0.4-0.4h0.9v-8.7h-0.9c-0.2,0-0.4,0-0.4-0.4v-1c0-0.4,0.1-0.4,0.4-0.4h4.2
			c1.4,0,4,0,4,3.3c0.1,2.1-1.5,3.8-3.5,3.9c-0.2,0-0.3,0-0.5,0h-0.9v3.2h1.1c0.2,0,0.4,0,0.4,0.4V52.6"/>
		<path d="M529.6,52.6c0,0.4-0.1,0.4-0.4,0.4H525c-0.2,0-0.4,0-0.4-0.4v-0.9c0-0.4,0.1-0.4,0.4-0.4h0.9v-8.7H525
			c-0.2,0-0.4,0-0.4-0.4v-1c0-0.4,0.1-0.4,0.4-0.4h4.2c0.2,0,0.4,0,0.4,0.4v1c0,0.4-0.1,0.4-0.4,0.4h-0.9v8.7h0.9
			c0.2,0,0.4,0,0.4,0.4L529.6,52.6"/>
		<path d="M543.1,46.2c1.1,0,2.1-0.1,2.1-1.8s-1-1.6-1.9-1.6h-0.6v3.4L543.1,46.2L543.1,46.2z M548.9,52.6c0,0.4-0.1,0.4-0.4,0.4
			h-2.3c-0.2,0-0.2,0-0.4-0.2l-2.4-4.7h-0.9v3.3h0.9c0.2,0,0.4,0,0.4,0.4v1c0,0.4-0.1,0.4-0.4,0.4h-4c-0.2,0-0.4,0-0.4-0.4v-1
			c0-0.4,0.1-0.4,0.4-0.4h0.9v-8.7h-0.9c-0.2,0-0.4,0-0.4-0.4v-1c0-0.4,0.1-0.4,0.4-0.4h4.2c1.4,0,4,0.1,4,3.4
			c0.1,1.4-0.7,2.7-2,3.3l2.1,3.7h0.8c0.2,0,0.4,0,0.4,0.4L548.9,52.6"/>
		<path d="M562.6,52.6c0,0.4-0.1,0.4-0.4,0.4h-4.2c-0.2,0-0.4,0-0.4-0.4v-0.9c0-0.4,0.1-0.4,0.4-0.4h0.9v-8.7h-0.9
			c-0.2,0-0.4,0-0.4-0.4v-1c0-0.4,0.1-0.4,0.4-0.4h4.2c0.2,0,0.4,0,0.4,0.4v1c0,0.4-0.1,0.4-0.4,0.4h-0.9v8.7h0.9
			c0.2,0,0.4,0,0.4,0.4V52.6"/>
		<path d="M578.6,52.6c0,0.4-0.1,0.4-0.4,0.4h-4.7c-0.2,0-0.4,0-0.4-0.4v-0.9c0-0.4,0.1-0.4,0.4-0.4h1.1v-8.5h-1.3v1.6
			c0,0.2-0.1,0.2-0.2,0.2h-1c-0.2,0-0.2,0-0.2-0.2v-3.3c0-0.2,0-0.2,0.2-0.2h7.6c0.2,0,0.2,0,0.2,0.2v3.3c0,0.2-0.1,0.2-0.2,0.2h-1
			c-0.2,0-0.2,0-0.2-0.2v-1.6h-1.3v8.5h1.1c0.2,0,0.4,0,0.4,0.4v0.9"/>
		<path d="M75.5,17.3c-2.8,0-5-2.2-5-5s2.2-5,5-5s5,2.2,5,5C80.5,15,78.3,17.2,75.5,17.3z M75.5,0c-6.7,0-12.2,5.4-12.2,12.1
			c0,0,0,0.1,0,0.1c0,6.8,5.5,12.2,12.2,12.2c6.8,0,12.2-5.5,12.2-12.2c0,0,0,0,0,0C87.8,5.5,82.4,0,75.7,0C75.6,0,75.6,0,75.5,0"/>
		<path d="M122.1,14.5c-1.3,2.4-4.3,3.4-6.7,2.1c-2.4-1.3-3.4-4.3-2.1-6.7c0.9-1.7,2.6-2.7,4.5-2.7c1.9,0,3.6,1.1,4.4,2.8h7.6
			c-1.3-6.6-7.7-11-14.3-9.7c-6.6,1.3-11,7.7-9.7,14.3s7.7,11,14.3,9.7c4.9-0.9,8.8-4.8,9.7-9.7L122.1,14.5"/>
		<path d="M242.5,17.3c-2.8,0-5-2.2-5-5s2.2-5,5-5s5,2.2,5,5C247.4,15,245.2,17.2,242.5,17.3z M242.5,0c-6.7,0-12.2,5.4-12.2,12.1
			c0,0,0,0.1,0,0.1c0,6.8,5.5,12.2,12.2,12.2c6.8,0,12.2-5.5,12.2-12.2c0-6.7-5.4-12.2-12.1-12.2C242.6,0,242.5,0,242.5,0"/>
		<g>
			<defs>
				<rect id="SVGID_1_" y="0" width="580" height="53.3"/>
			</defs>
			<clipPath id="SVGID_2_">
				<use xlink:href="#SVGID_1_"  style="overflow:visible;"/>
			</clipPath>
			<g class="st0">
				<path d="M148.5,14.5c-1.3,2.4-4.3,3.4-6.7,2.1s-3.4-4.3-2.1-6.7c0.9-1.7,2.6-2.7,4.5-2.7c1.9,0,3.6,1.1,4.4,2.8h7.6
					c-1.3-6.6-7.7-11-14.3-9.7c-6.6,1.3-11,7.7-9.7,14.3s7.7,11,14.3,9.7c4.9-0.9,8.8-4.8,9.7-9.7L148.5,14.5"/>
			</g>
		</g>
		<g>
			<defs>
				<rect id="SVGID_3_" y="0" width="580" height="53.3"/>
			</defs>
			<clipPath id="SVGID_4_">
				<use xlink:href="#SVGID_3_"  style="overflow:visible;"/>
			</clipPath>
			<g class="st1">
				<polyline points="23.5,0.4 0,0.4 0,7.6 8.1,7.6 8.1,24 15.4,24 15.4,7.6 23.5,7.6 23.5,0.4 				"/>
			</g>
		</g>
	</g>
</g>
</svg>
