<?xml version="1.0" encoding="UTF-8"?>
<svg width="169px" height="169px" viewBox="0 0 169 169" version="1.1" xmlns="http://www.w3.org/2000/svg" xmlns:xlink="http://www.w3.org/1999/xlink">
    <!-- Generator: Sketch 47.1 (45422) - http://www.bohemiancoding.com/sketch -->
    <title>Abacus</title>
    <desc>Created with Sketch.</desc>
    <defs></defs>
    <g id="Page-1" stroke="none" stroke-width="1" fill="none" fill-rule="evenodd">
        <g id="Kundenlogos-sw" transform="translate(-772.000000, 0.000000)">
            <g id="Abacus" transform="translate(782.000000, 64.000000)">
                <g>
                    <path d="M42.4949258,32.8498846 C42.6823668,32.7825385 42.8360175,32.6923077 42.9552402,32.5765769 C43.0751004,32.4615 43.1637205,32.3281154 43.2223755,32.1777308 C43.2797555,32.0266923 43.309083,31.8638846 43.309083,31.6886538 C43.309083,31.5140769 43.2797555,31.3512692 43.2223755,31.2002308 C43.1637205,31.0505 43.0751004,30.9171154 42.9552402,30.8013846 C42.8360175,30.6856538 42.6823668,30.5954231 42.4949258,30.5287308 C42.3062096,30.4620385 42.0868908,30.4286923 41.8344192,30.4286923 L40.4515633,30.4286923 L40.4515633,32.9492692 L41.8344192,32.9492692 C42.0868908,32.9492692 42.3062096,32.9165769 42.4949258,32.8498846 Z M42.5765328,29.2942692 C42.8054148,29.0837308 42.9195371,28.8006154 42.9195371,28.4436154 C42.9195371,28.0866154 42.8054148,27.8021923 42.5765328,27.5929615 C42.3476507,27.3830769 42.0282358,27.2771538 41.6182882,27.2771538 L40.4515633,27.2771538 L40.4515633,29.6094231 L41.6182882,29.6094231 C42.0282358,29.6094231 42.3476507,29.5048077 42.5765328,29.2942692 Z M41.475476,26.4369615 C41.8439825,26.4369615 42.1716856,26.4846923 42.4585852,26.5788462 C42.7454847,26.6736538 42.9864803,26.8083462 43.1809345,26.9829231 C43.3753886,27.1581538 43.5239389,27.3647692 43.6265852,27.6034231 C43.7285939,27.8407692 43.7802358,28.1075385 43.7802358,28.4011154 C43.7802358,28.6744231 43.7426201,28.9039231 43.6673886,29.0889615 C43.5921572,29.2746538 43.5048122,29.4256923 43.4059913,29.5407692 C43.3071703,29.6565 43.2153624,29.7401923 43.1292926,29.7925 C43.0438603,29.8454615 42.9915808,29.8755385 42.9705415,29.8827308 C42.9979563,29.8899231 43.0751004,29.9193462 43.2013362,29.9716538 C43.3275721,30.0246154 43.4627336,30.1168077 43.6055459,30.2495385 C43.7496332,30.3829231 43.8790568,30.5633846 43.9950917,30.7909231 C44.1111266,31.0184615 44.1691441,31.3107308 44.1691441,31.6677308 C44.1691441,31.9972692 44.1143144,32.2928077 44.004655,32.5556538 C43.8962707,32.8185 43.7387948,33.0408077 43.5341397,33.2225769 C43.3294847,33.405 43.0833886,33.5449231 42.7964891,33.643 C42.5095895,33.7410769 42.1888996,33.7894615 41.8344192,33.7894615 L39.5908646,33.7894615 L39.5908646,26.4369615 L41.475476,26.4369615 L41.475476,26.4369615 Z" id="Fill-1" fill="#6D6E6D"></path>
                    <path d="M47.9141397,33.7946923 C47.7024716,33.7149231 47.5150306,33.5959231 47.351179,33.4376923 C47.18669,33.2801154 47.0559913,33.0859231 46.9571703,32.8551154 C46.8577118,32.6236538 46.8086201,32.3575385 46.8086201,32.0567692 L46.8086201,28.9379231 L47.6686812,28.9379231 L47.6686812,31.909 C47.6686812,32.1201923 47.6992838,32.2986923 47.7604891,32.4451538 C47.8223319,32.5916154 47.9045764,32.7151923 48.0065852,32.8132692 C48.1092314,32.9113462 48.2265415,32.9832692 48.3597904,33.0283846 C48.4930393,33.0741538 48.6313886,33.0963846 48.7748384,33.0963846 C49.0821397,33.0963846 49.3326987,33.0146538 49.5277904,32.8498846 C49.7222445,32.6851154 49.8739825,32.5013846 49.9830044,32.2986923 L49.9830044,28.9379231 L50.8437031,28.9379231 L50.8437031,33.7894615 L50.0448472,33.7894615 L50.0448472,33.0440769 C49.9900175,33.1415 49.9198865,33.2421923 49.8344541,33.3435385 C49.7496594,33.4448846 49.6451004,33.5383846 49.52269,33.6220769 C49.3996419,33.7064231 49.2593799,33.7757308 49.103179,33.8319615 C48.9457031,33.8881923 48.7716507,33.9163077 48.5803843,33.9163077 C48.3483144,33.9163077 48.1258079,33.8757692 47.9141397,33.7946923" id="Fill-2" fill="#6D6E6D"></path>
                    <path d="M54.3081747,32.6027308 C54.3999825,32.6942692 54.5077293,32.7779615 54.6301397,32.8551154 C54.7531878,32.9316154 54.8883493,32.9956923 55.0349869,33.0440769 C55.1816245,33.0931154 55.3442009,33.1173077 55.521441,33.1173077 C55.6311004,33.1173077 55.7452227,33.1075 55.8644454,33.0859231 C55.9843057,33.065 56.0933275,33.0283846 56.192786,32.9754231 C56.2909694,32.9231154 56.373214,32.8570769 56.4382445,32.776 C56.5032751,32.6962308 56.5357904,32.5955385 56.5357904,32.4771923 C56.5357904,32.3647308 56.5032751,32.266 56.4382445,32.1823077 C56.373214,32.0986154 56.2884192,32.0286538 56.1819476,31.9724231 C56.0767511,31.9161923 55.9600786,31.8710769 55.8338428,31.8357692 C55.7082445,31.8011154 55.5826463,31.7703846 55.4602358,31.7416154 C55.3027598,31.7063077 55.1255197,31.6579231 54.9272402,31.5945 C54.7289607,31.5310769 54.5415197,31.4454231 54.3642795,31.3368846 C54.1870393,31.2283462 54.0359389,31.0871154 53.9135284,30.9118846 C53.7904803,30.7373077 53.7292751,30.5235 53.7292751,30.2711154 C53.7292751,30.0749615 53.7700786,29.8879615 53.8516856,29.7088077 C53.9339301,29.5309615 54.0518777,29.3746923 54.2055284,29.2413077 C54.359179,29.1079231 54.5415197,29.0033077 54.7531878,28.9261538 C54.9648559,28.8496538 55.2039389,28.8110769 55.4704367,28.8110769 C55.8733712,28.8110769 56.2233886,28.8875769 56.5198515,29.0418846 C56.816952,29.1961923 57.0509345,29.3642308 57.2217991,29.546 L56.6582009,30.1442692 C56.5357904,30.0193846 56.3751266,29.8977692 56.1768472,29.7826923 C55.9792052,29.6676154 55.7362969,29.6094231 55.4500349,29.6094231 C55.1624978,29.6094231 54.9450917,29.6748077 54.7939913,29.8036154 C54.6441659,29.9330769 54.5689345,30.0788846 54.5689345,30.2397308 C54.5689345,30.3521923 54.6020873,30.4456923 54.6658428,30.5235 C54.7308734,30.6006538 54.8182183,30.6647308 54.9272402,30.7176923 C55.0368996,30.77 55.1599476,30.8157692 55.2957467,30.8536923 C55.432821,30.8929231 55.5724454,30.9288846 55.7158952,30.9641923 C55.8937729,31.0060385 56.0799389,31.059 56.274393,31.1217692 C56.4688472,31.1845385 56.6486376,31.2728077 56.8118515,31.3846154 C56.9757031,31.4964231 57.1127773,31.6383077 57.2217991,31.8096154 C57.3314585,31.9815769 57.3856507,32.1934231 57.3856507,32.4451538 C57.3856507,32.6975385 57.3314585,32.9165769 57.2217991,33.1016154 C57.1127773,33.2873077 56.9706026,33.4396538 56.7971878,33.5586538 C56.6224978,33.6776538 56.4229432,33.7665769 56.1972489,33.8260769 C55.9721921,33.8862308 55.7471354,33.9163077 55.521441,33.9163077 C55.2829956,33.9163077 55.059214,33.8862308 54.8507336,33.8260769 C54.6422533,33.7665769 54.4528996,33.6887692 54.2826725,33.5906923 C54.1118079,33.4919615 53.9581572,33.3834231 53.8217205,33.2644231 C53.6852838,33.1454231 53.5717991,33.0231538 53.483179,32.8969615 L54.0773799,32.3300769 C54.1385852,32.4209615 54.2157293,32.5118462 54.3081747,32.6027308" id="Fill-3" fill="#6D6E6D"></path>
                    <path d="M60.2406201,33.7901154 L61.1013188,33.7901154 L61.1013188,28.9379231 L60.2406201,28.9379231 L60.2406201,33.7901154 Z M60.2616594,26.962 C60.3770568,26.843 60.5134934,26.7835 60.6703319,26.7835 C60.8278079,26.7835 60.9642445,26.843 61.0802795,26.962 C61.196952,27.0816538 61.2549694,27.2215769 61.2549694,27.3830769 C61.2549694,27.5439231 61.196952,27.6838462 61.0802795,27.8021923 C60.9642445,27.9218462 60.8278079,27.9813462 60.6703319,27.9813462 C60.5134934,27.9813462 60.3770568,27.9218462 60.2616594,27.8021923 C60.1449869,27.6838462 60.0869694,27.5439231 60.0869694,27.3830769 C60.0869694,27.2215769 60.1449869,27.0816538 60.2616594,26.962 L60.2616594,26.962 Z" id="Fill-4" fill="#6D6E6D"></path>
                    <path d="M67.137048,28.9313846 C67.3519039,29.0124615 67.5412576,29.1314615 67.7051092,29.2896923 C67.8689607,29.4459615 67.9983843,29.6414615 68.094655,29.8716154 C68.1896507,30.1030769 68.2374672,30.3691923 68.2374672,30.6699615 L68.2374672,33.7894615 L67.3774061,33.7894615 L67.3774061,30.8170769 C67.3774061,30.6071923 67.3468035,30.4286923 67.2855983,30.2815769 C67.2237555,30.1344615 67.1434236,30.0121923 67.0446026,29.9141154 C66.9457817,29.8160385 66.8291092,29.7441154 66.6964978,29.699 C66.5632489,29.6532308 66.4255371,29.6296923 66.2814498,29.6296923 C66.1246114,29.6296923 65.9824367,29.6551923 65.8562009,29.7035769 C65.7299651,29.7532692 65.6177555,29.818 65.5182969,29.8977692 C65.419476,29.9781923 65.332131,30.0677692 65.2568996,30.1651923 C65.1823057,30.2639231 65.1172751,30.3587308 65.063083,30.4496154 L65.063083,33.7894615 L64.2023843,33.7894615 L64.2023843,28.9379231 L65.0012402,28.9379231 L65.0012402,29.6198846 C65.1236507,29.4165385 65.3066288,29.2308462 65.5488996,29.0628077 C65.7911703,28.8947692 66.0971965,28.8110769 66.4657031,28.8110769 C66.6984105,28.8110769 66.9215546,28.8516154 67.137048,28.9313846" id="Fill-5" fill="#6D6E6D"></path>
                    <path d="M74.5811354,30.5123846 C74.5154672,30.3587308 74.4230218,30.2155385 74.3037991,30.0815 C74.1845764,29.9481154 74.0341135,29.8402308 73.8536856,29.7565385 C73.6726201,29.6728462 73.4590393,29.6296923 73.2129432,29.6296923 C72.9604716,29.6296923 72.7437031,29.6754615 72.5626376,29.7663462 C72.3809345,29.8578846 72.2317467,29.9683846 72.1112489,30.0978462 C71.9920262,30.2273077 71.9002183,30.3691923 71.8351878,30.5235 C71.7701572,30.6771538 71.7312664,30.8170769 71.7172402,30.9432692 L74.687607,30.9432692 C74.6812314,30.8105385 74.6448908,30.6666923 74.5811354,30.5123846 Z M74.1399476,28.9948077 C74.4230218,29.1177308 74.6672052,29.291 74.8731354,29.5146154 C75.0771528,29.7388846 75.2378166,30.0102308 75.353214,30.3286538 C75.4698865,30.6470769 75.5279039,31.0027692 75.5279039,31.3944231 L75.5279039,31.5310769 C75.5279039,31.5735769 75.5240786,31.6226154 75.5170655,31.6781923 L71.697476,31.6781923 C71.7108646,31.8606154 71.761869,32.0378077 71.8498515,32.2084615 C71.9391092,32.3804231 72.0557817,32.5334231 72.1985939,32.6661538 C72.3420437,32.7988846 72.509083,32.9041538 72.7003493,32.9806538 C72.8916157,33.0578077 73.1000961,33.0963846 73.3264279,33.0963846 C73.6528559,33.0963846 73.9384803,33.0231538 74.1807511,32.8760385 C74.4230218,32.7289231 74.6123755,32.5641538 74.7494498,32.3823846 L75.2926463,32.9597308 C75.19,33.0793846 75.0720524,33.1964231 74.9388035,33.3115 C74.8055546,33.4278846 74.6557293,33.5311923 74.4880524,33.6220769 C74.3203755,33.7129615 74.1380349,33.7848846 73.940393,33.8371923 C73.7421135,33.8901538 73.5272576,33.9163077 73.2945502,33.9163077 C72.9464454,33.9163077 72.6219301,33.8509231 72.3216419,33.7214615 C72.0213537,33.592 71.7637817,33.4115385 71.5489258,33.1807308 C71.3334323,32.9492692 71.1638428,32.6766154 71.0420699,32.3614615 C70.9183843,32.0456538 70.8578166,31.7063077 70.8578166,31.3421154 C70.8578166,30.9995 70.9139214,30.6732308 71.026131,30.3659231 C71.1383406,30.0573077 71.2970917,29.7872692 71.5017467,29.5571154 C71.7076769,29.3256538 71.9544105,29.1438846 72.2444978,29.0105 C72.5352227,28.8777692 72.8571878,28.8110769 73.2129432,28.8110769 C73.5476594,28.8110769 73.8568734,28.8718846 74.1399476,28.9948077 L74.1399476,28.9948077 Z" id="Fill-6" fill="#6D6E6D"></path>
                    <path d="M78.6646725,32.6027308 C78.7558428,32.6942692 78.8635895,32.7779615 78.9872751,32.8551154 C79.1096856,32.9316154 79.2448472,32.9956923 79.3908472,33.0440769 C79.5381223,33.0931154 79.7006987,33.1173077 79.8779389,33.1173077 C79.9869607,33.1173077 80.1017205,33.1075 80.2209432,33.0859231 C80.3401659,33.065 80.4498253,33.0283846 80.5492838,32.9754231 C80.6474672,32.9231154 80.7297118,32.8570769 80.7947424,32.776 C80.8591354,32.6962308 80.8922882,32.5955385 80.8922882,32.4771923 C80.8922882,32.3647308 80.8591354,32.266 80.7947424,32.1823077 C80.7297118,32.0986154 80.6442795,32.0286538 80.5384454,31.9724231 C80.4326114,31.9161923 80.3165764,31.8710769 80.1903406,31.8357692 C80.0641048,31.8011154 79.9391441,31.7703846 79.8160961,31.7416154 C79.6586201,31.7063077 79.4813799,31.6579231 79.2831004,31.5945 C79.0854585,31.5310769 78.8980175,31.4454231 78.7207773,31.3368846 C78.5428996,31.2283462 78.3924367,31.0871154 78.2700262,30.9118846 C78.1469782,30.7373077 78.0857729,30.5235 78.0857729,30.2711154 C78.0857729,30.0749615 78.1259389,29.8879615 78.2081834,29.7088077 C78.2897904,29.5309615 78.407738,29.3746923 78.5620262,29.2413077 C78.7156769,29.1079231 78.8980175,29.0033077 79.1096856,28.9261538 C79.3207162,28.8496538 79.5604367,28.8110769 79.8262969,28.8110769 C80.229869,28.8110769 80.5798865,28.8875769 80.8769869,29.0418846 C81.1728122,29.1961923 81.4080699,29.3642308 81.5782969,29.546 L81.0140611,30.1442692 C80.8922882,30.0193846 80.7316245,29.8977692 80.533345,29.7826923 C80.3350655,29.6676154 80.0927948,29.6094231 79.8058952,29.6094231 C79.5196332,29.6094231 79.300952,29.6748077 79.1498515,29.8036154 C79.0006638,29.9330769 78.9254323,30.0788846 78.9254323,30.2397308 C78.9254323,30.3521923 78.9579476,30.4456923 79.0223406,30.5235 C79.0873712,30.6006538 79.1753537,30.6647308 79.2831004,30.7176923 C79.3927598,30.77 79.5164454,30.8157692 79.6522445,30.8536923 C79.7886812,30.8929231 79.9289432,30.9288846 80.072393,30.9641923 C80.2502707,31.0060385 80.4357991,31.059 80.6308908,31.1217692 C80.8247074,31.1845385 81.0044978,31.2728077 81.1683493,31.3846154 C81.3315633,31.4964231 81.4686376,31.6383077 81.5782969,31.8096154 C81.6873188,31.9815769 81.7421485,32.1934231 81.7421485,32.4451538 C81.7421485,32.6975385 81.6873188,32.9165769 81.5782969,33.1016154 C81.4686376,33.2873077 81.3271004,33.4396538 81.153048,33.5586538 C80.9789956,33.6776538 80.7788035,33.7665769 80.5543843,33.8260769 C80.3280524,33.8862308 80.1036332,33.9163077 79.8779389,33.9163077 C79.6388559,33.9163077 79.4157118,33.8862308 79.2065939,33.8260769 C78.9987511,33.7665769 78.8087598,33.6887692 78.6385328,33.5906923 C78.4676681,33.4919615 78.314655,33.3834231 78.1775808,33.2644231 C78.0411441,33.1454231 77.9282969,33.0231538 77.8396769,32.8969615 L78.4332402,32.3300769 C78.495083,32.4209615 78.5715895,32.5118462 78.6646725,32.6027308" id="Fill-7" fill="#6D6E6D"></path>
                    <path d="M84.960524,32.6027308 C85.0523319,32.6942692 85.159441,32.7779615 85.2831266,32.8551154 C85.4061747,32.9316154 85.5413362,32.9956923 85.6873362,33.0440769 C85.8339738,33.0931154 85.9965502,33.1173077 86.1737904,33.1173077 C86.2834498,33.1173077 86.3982096,33.1075 86.5167948,33.0859231 C86.636655,33.065 86.7463144,33.0283846 86.8451354,32.9754231 C86.9439563,32.9231154 87.0255633,32.8570769 87.0912314,32.776 C87.1556245,32.6962308 87.1881397,32.5955385 87.1881397,32.4771923 C87.1881397,32.3647308 87.1556245,32.266 87.0912314,32.1823077 C87.0255633,32.0986154 86.9407686,32.0286538 86.8342969,31.9724231 C86.7291004,31.9161923 86.6130655,31.8710769 86.4861921,31.8357692 C86.3599563,31.8011154 86.2356332,31.7703846 86.1125852,31.7416154 C85.9551092,31.7063077 85.777869,31.6579231 85.5795895,31.5945 C85.3819476,31.5310769 85.1945066,31.4454231 85.0172664,31.3368846 C84.8393886,31.2283462 84.6889258,31.0871154 84.5665153,30.9118846 C84.4428297,30.7373077 84.382262,30.5235 84.382262,30.2711154 C84.382262,30.0749615 84.4224279,29.8879615 84.5046725,29.7088077 C84.5862795,29.5309615 84.7042271,29.3746923 84.8585153,29.2413077 C85.0121659,29.1079231 85.1945066,29.0033077 85.4061747,28.9261538 C85.6172052,28.8496538 85.8569258,28.8110769 86.122786,28.8110769 C86.5257205,28.8110769 86.875738,28.8875769 87.1728384,29.0418846 C87.4693013,29.1961923 87.7039214,29.3642308 87.8741485,29.546 L87.3105502,30.1442692 C87.1881397,30.0193846 87.027476,29.8977692 86.8291965,29.7826923 C86.6315546,29.6676154 86.3892838,29.6094231 86.1023843,29.6094231 C85.8154847,29.6094231 85.597441,29.6748077 85.4463406,29.8036154 C85.2965153,29.9330769 85.2219214,30.0788846 85.2219214,30.2397308 C85.2219214,30.3521923 85.2544367,30.4456923 85.3181921,30.5235 C85.3838603,30.6006538 85.4712052,30.6647308 85.5795895,30.7176923 C85.6892489,30.77 85.8122969,30.8157692 85.9487336,30.8536923 C86.0851703,30.8929231 86.2254323,30.9288846 86.3688821,30.9641923 C86.5467598,31.0060385 86.7322882,31.059 86.9273799,31.1217692 C87.1211965,31.1845385 87.3009869,31.2728077 87.4648384,31.3846154 C87.6280524,31.4964231 87.7651266,31.6383077 87.8741485,31.8096154 C87.9838079,31.9815769 88.038,32.1934231 88.038,32.4451538 C88.038,32.6975385 87.9838079,32.9165769 87.8741485,33.1016154 C87.7651266,33.2873077 87.6235895,33.4396538 87.4495371,33.5586538 C87.2754847,33.6776538 87.0752926,33.7665769 86.8502358,33.8260769 C86.6245415,33.8862308 86.4001223,33.9163077 86.1737904,33.9163077 C85.935345,33.9163077 85.7115633,33.8862308 85.5024454,33.8260769 C85.2946026,33.7665769 85.1052489,33.6887692 84.9350218,33.5906923 C84.7641572,33.4919615 84.6105066,33.3834231 84.4734323,33.2644231 C84.3376332,33.1454231 84.2241485,33.0231538 84.1361659,32.8969615 L84.7297293,32.3300769 C84.7909345,32.4209615 84.8680786,32.5118462 84.960524,32.6027308" id="Fill-8" fill="#6D6E6D"></path>
                    <path d="M98.6194934,31.4212308 C98.5474498,31.2845769 98.4499039,31.1623077 98.3274934,31.0537692 C98.2044454,30.9452308 98.0578079,30.8465 97.8869432,30.7595385 L97.3335459,30.481 C97.101476,30.3691923 96.868131,30.2495385 96.6315983,30.124 C96.3963406,29.9984615 96.1846725,29.8513462 95.9972314,29.6826538 C95.8091528,29.5146154 95.6574148,29.3204231 95.5407424,29.1000769 C95.425345,28.8790769 95.3673275,28.6221154 95.3673275,28.3278846 C95.3673275,28.0826923 95.4113188,27.8394615 95.5005764,27.5981923 C95.5891965,27.3569231 95.7186201,27.1411538 95.8894847,26.9515385 C96.0603493,26.7625769 96.2732926,26.6082692 96.5295895,26.4899231 C96.7858865,26.3709231 97.084262,26.3114231 97.4259913,26.3114231 C97.6784629,26.3114231 97.9124454,26.3447692 98.1273013,26.4108077 C98.3421572,26.4775 98.5353362,26.5631538 98.7055633,26.6684231 C98.8764279,26.7730385 99.0268908,26.8887692 99.1563144,27.0149615 C99.2863755,27.1411538 99.3922096,27.2634231 99.4738166,27.3830769 L98.8292489,27.9185769 C98.7674061,27.8270385 98.690262,27.7368077 98.5984541,27.6446154 C98.5060087,27.5537308 98.4008122,27.4713462 98.280952,27.3981154 C98.1617293,27.3248846 98.030393,27.2653846 97.8869432,27.2202692 C97.7434934,27.1738462 97.5892052,27.1509615 97.4259913,27.1509615 C97.2277118,27.1509615 97.0549345,27.183 96.9082969,27.2464231 C96.7622969,27.3085385 96.6366987,27.3928846 96.53469,27.4975 C96.4320437,27.6034231 96.3555371,27.7237308 96.3038952,27.8597308 C96.2528908,27.9970385 96.2280262,28.135 96.2280262,28.2755769 C96.2280262,28.4501538 96.2650044,28.6031538 96.3402358,28.7319615 C96.4154672,28.8614231 96.5213013,28.9830385 96.657738,29.0941923 C96.7935371,29.2066538 96.961214,29.3158462 97.1594934,29.4204615 C97.3577729,29.5250769 97.5796419,29.6336154 97.8251004,29.7460769 C98.0986114,29.8716154 98.3459825,30.0030385 98.5684891,30.1390385 C98.7897205,30.2756923 98.9771616,30.4254231 99.1308122,30.5862692 C99.2851004,30.7471154 99.403048,30.9288846 99.484655,31.1322308 C99.566262,31.3355769 99.6070655,31.5735769 99.6070655,31.8468846 C99.6070655,32.1685769 99.5509607,32.4575769 99.4387511,32.7132308 C99.3259039,32.9688846 99.1703406,33.1866154 98.9720611,33.3644615 C98.7744192,33.5436154 98.5404367,33.6796154 98.2707511,33.7737692 C98.0010655,33.8685769 97.7128908,33.9163077 97.404952,33.9163077 C97.0982882,33.9163077 96.820952,33.8718462 96.576131,33.7848846 C96.3300349,33.6972692 96.1113537,33.5815385 95.9200873,33.4376923 C95.728821,33.2945 95.565607,33.1297308 95.4285328,32.9440385 C95.2920961,32.7583462 95.1830742,32.5713462 95.1008297,32.3823846 L95.8180786,31.9410385 C95.8792838,32.0881538 95.9596157,32.2300385 96.0584367,32.3666923 C96.1578952,32.5033462 96.2720175,32.6236538 96.401441,32.7289231 C96.5315022,32.8341923 96.6800524,32.9178846 96.8470917,32.9806538 C97.0147686,33.0440769 97.1971092,33.0754615 97.3953886,33.0754615 C97.5656157,33.0754615 97.7313799,33.0512692 97.8920437,33.0022308 C98.0527074,32.9525385 98.193607,32.8793077 98.316655,32.7805769 C98.4397031,32.6838077 98.538524,32.5628462 98.614393,32.419 C98.6889869,32.2751538 98.7272402,32.1058077 98.7272402,31.909 C98.7272402,31.7200385 98.690262,31.5572308 98.6194934,31.4212308" id="Fill-9" fill="#6D6E6D"></path>
                    <path d="M105.190769,32.9597308 C105.38586,32.8688462 105.551624,32.7446154 105.688061,32.5870385 C105.824498,32.4288077 105.930332,32.2457308 106.005563,32.0358462 C106.080795,31.8259615 106.11841,31.6016923 106.11841,31.3636923 C106.11841,31.1250385 106.080795,30.9014231 106.005563,30.6908846 C105.930332,30.481 105.824498,30.2972692 105.688061,30.1390385 C105.551624,29.9814615 105.38586,29.8578846 105.190769,29.7663462 C104.996952,29.6754615 104.780183,29.6296923 104.540463,29.6296923 C104.302017,29.6296923 104.085249,29.6754615 103.890795,29.7663462 C103.695703,29.8578846 103.530576,29.9814615 103.39414,30.1390385 C103.257066,30.2972692 103.151231,30.481 103.076638,30.6908846 C103.000769,30.9014231 102.963153,31.1250385 102.963153,31.3636923 C102.963153,31.6016923 103.000769,31.8259615 103.076638,32.0358462 C103.151231,32.2457308 103.257066,32.4288077 103.39414,32.5870385 C103.530576,32.7446154 103.695703,32.8688462 103.890795,32.9597308 C104.085249,33.0512692 104.302017,33.0963846 104.540463,33.0963846 C104.780183,33.0963846 104.996952,33.0512692 105.190769,32.9597308 Z M105.508271,29.0105 C105.806009,29.1438846 106.062943,29.3236923 106.282262,29.5512308 C106.500943,29.7794231 106.67117,30.0488077 106.794218,30.3600385 C106.916629,30.6719231 106.978472,31.0060385 106.978472,31.3636923 C106.978472,31.7200385 106.916629,32.0548077 106.794218,32.3666923 C106.67117,32.6779231 106.500943,32.9473077 106.282262,33.1755 C106.062943,33.4030385 105.806009,33.5835 105.508271,33.7162308 C105.21117,33.8489615 104.889205,33.9163077 104.540463,33.9163077 C104.192358,33.9163077 103.870393,33.8489615 103.573293,33.7162308 C103.275555,33.5835 103.01862,33.4030385 102.799301,33.1755 C102.58062,32.9473077 102.410393,32.6779231 102.287983,32.3666923 C102.164934,32.0548077 102.102454,31.7200385 102.102454,31.3636923 C102.102454,31.0060385 102.164934,30.6719231 102.287983,30.3600385 C102.410393,30.0488077 102.58062,29.7794231 102.799301,29.5512308 C103.01862,29.3236923 103.275555,29.1438846 103.573293,29.0105 C103.870393,28.8777692 104.192358,28.8110769 104.540463,28.8110769 C104.889205,28.8110769 105.21117,28.8777692 105.508271,29.0105 L105.508271,29.0105 Z" id="Fill-10" fill="#6D6E6D"></path>
                    <path d="M110.129904,28.9379231 L110.129904,27.2666923 C110.129904,27.0077692 110.174533,26.7821923 110.263153,26.5893077 C110.351773,26.3970769 110.466533,26.2355769 110.606157,26.1061154 C110.746419,25.9766538 110.905808,25.8805385 111.083048,25.8177692 C111.260926,25.7536923 111.438166,25.7229615 111.615406,25.7229615 C111.731441,25.7229615 111.86979,25.7399615 112.030454,25.7759231 C112.191118,25.8105769 112.373459,25.8877308 112.578114,26.0067308 L112.260611,26.7318462 C112.055956,26.605 111.860865,26.5415769 111.676611,26.5415769 C111.465581,26.5415769 111.297904,26.6121923 111.174856,26.7521154 C111.051808,26.8926923 110.990603,27.0816538 110.990603,27.319 L110.990603,28.9379231 L112.219808,28.9379231 L112.219808,29.7349615 L110.990603,29.7349615 L110.990603,33.7894615 L110.129904,33.7894615 L110.129904,29.7349615 L109.146795,29.7349615 L109.146795,28.9379231 L110.129904,28.9379231" id="Fill-11" fill="#6D6E6D"></path>
                    <path d="M115.259668,28.9379231 L115.259668,27.4556538 L116.119729,27.4556538 L116.119729,28.9379231 L117.595031,28.9379231 L117.595031,29.7349615 L116.119729,29.7349615 L116.119729,32.3503462 C116.119729,32.589 116.177747,32.7727308 116.293782,32.9021923 C116.410454,33.0316538 116.571118,33.0963846 116.775135,33.0963846 C116.89117,33.0963846 116.993817,33.0774231 117.083074,33.0388462 C117.171057,33.0002692 117.260314,32.9525385 117.348934,32.8969615 L117.666437,33.6220769 C117.461782,33.7410769 117.282629,33.8188846 117.128978,33.8581154 C116.975328,33.8973462 116.833153,33.9163077 116.703729,33.9163077 C116.526489,33.9163077 116.351799,33.8862308 116.181572,33.8260769 C116.010707,33.7665769 115.857057,33.6756923 115.72062,33.5534231 C115.584183,33.4311538 115.472611,33.2729231 115.387179,33.0806923 C115.302384,32.8878077 115.259668,32.6589615 115.259668,32.3928462 L115.259668,29.7349615 L114.337764,29.7349615 L114.337764,28.9379231 L115.259668,28.9379231" id="Fill-12" fill="#6D6E6D"></path>
                    <polyline id="Fill-13" fill="#6D6E6D" points="121.862821 32.0770385 123.113066 28.9379231 123.696428 28.9379231 124.955598 32.0770385 126.216044 28.9379231 127.097144 28.9379231 124.935197 34 123.378926 30.3554615 121.822017 34 119.661345 28.9379231 120.592812 28.9379231 121.862821 32.0770385"></polyline>
                    <path d="M132.005039,32.8969615 C132.233284,32.7354615 132.412437,32.5713462 132.542498,32.4026538 L132.542498,31.7200385 C132.406061,31.6226154 132.228183,31.5402308 132.01014,31.4735385 C131.790821,31.4075 131.559389,31.3735 131.313293,31.3735 C130.930122,31.3735 130.633659,31.4578462 130.421354,31.6265385 C130.210323,31.7945769 130.103852,32.0116538 130.103852,32.2771154 C130.103852,32.4242308 130.135092,32.5523846 130.196934,32.6609231 C130.25814,32.7688077 130.340384,32.8590385 130.442393,32.9283462 C130.545039,32.9983077 130.659162,33.0512692 130.785397,33.0859231 C130.911633,33.1205769 131.043607,33.1382308 131.180044,33.1382308 C131.501371,33.1382308 131.77552,33.0578077 132.005039,32.8969615 Z M132.254961,28.9634231 C132.515083,29.0647692 132.728664,29.1994615 132.895703,29.3681538 C133.062742,29.5361923 133.188978,29.7271154 133.27441,29.9402692 C133.359843,30.1534231 133.402559,30.3731154 133.402559,30.5967308 L133.402559,33.7894615 L132.613904,33.7894615 L132.613904,33.0859231 C132.436664,33.3383077 132.205869,33.5396923 131.922795,33.6900769 C131.639083,33.8404615 131.33752,33.9163077 131.016192,33.9163077 C130.796873,33.9163077 130.58393,33.8790385 130.376087,33.8058077 C130.167607,33.7325769 129.978253,33.6253462 129.808026,33.4854231 C129.637162,33.3455 129.500087,33.1735385 129.397441,32.9708462 C129.295432,32.7675 129.24379,32.5360385 129.24379,32.2771154 C129.24379,32.0319231 129.292245,31.8096154 129.38724,31.6101923 C129.483511,31.4114231 129.614847,31.2394615 129.782524,31.0956154 C129.949563,30.9524231 130.149118,30.8399615 130.381188,30.7595385 C130.61262,30.6791154 130.862541,30.6385769 131.128402,30.6385769 C131.429328,30.6385769 131.702201,30.6804231 131.948297,30.7647692 C132.194393,30.8484615 132.392035,30.94 132.542498,31.0374231 L132.542498,30.7752308 C132.542498,30.5235 132.497231,30.3214615 132.409249,30.1710769 C132.319991,30.0206923 132.212882,29.9049615 132.086646,29.8251923 C131.96041,29.7441154 131.827799,29.6918077 131.687537,29.6676154 C131.547275,29.6427692 131.429328,29.6296923 131.333694,29.6296923 C131.114376,29.6296923 130.881031,29.6689231 130.632384,29.7460769 C130.382463,29.8232308 130.149118,29.9206538 129.930437,30.0403077 L129.571493,29.3047308 C129.77041,29.1850769 130.022245,29.0739231 130.330183,28.9686538 C130.637485,28.8633846 130.975389,28.8110769 131.343895,28.8110769 C131.692638,28.8110769 131.995476,28.8614231 132.254961,28.9634231 L132.254961,28.9634231 Z" id="Fill-14" fill="#6D6E6D"></path>
                    <path d="M138.812847,28.8424615 C138.93207,28.8633846 139.04683,28.8947692 139.155852,28.9379231 L138.838349,29.7349615 C138.763118,29.7003077 138.675773,29.6748077 138.576952,29.6565 C138.478131,29.6388462 138.390786,29.6296923 138.315555,29.6296923 C138.165729,29.6296923 138.033118,29.6565 137.916445,29.7088077 C137.80041,29.7611154 137.696489,29.8265 137.604044,29.903 C137.512236,29.9801538 137.433179,30.0677692 137.368786,30.1651923 C137.303118,30.2639231 137.250201,30.3587308 137.210035,30.4496154 L137.210035,33.7894615 L136.349336,33.7894615 L136.349336,28.9379231 L137.148192,28.9379231 L137.148192,29.6826538 C137.210035,29.5701923 137.282716,29.4616538 137.368786,29.3570385 C137.453581,29.2517692 137.551127,29.1589231 137.660786,29.0785 C137.769808,28.9980769 137.892856,28.9333462 138.029293,28.8849615 C138.165729,28.8352692 138.315555,28.8110769 138.479406,28.8110769 C138.582052,28.8110769 138.693624,28.8215385 138.812847,28.8424615" id="Fill-15" fill="#6D6E6D"></path>
                    <path d="M144.86324,30.5123846 C144.798847,30.3587308 144.707039,30.2155385 144.587179,30.0815 C144.467956,29.9481154 144.316856,29.8402308 144.136428,29.7565385 C143.955362,29.6728462 143.742419,29.6296923 143.496323,29.6296923 C143.243852,29.6296923 143.027083,29.6754615 142.846655,29.7663462 C142.66559,29.8578846 142.515127,29.9683846 142.395266,30.0978462 C142.275406,30.2273077 142.184236,30.3691923 142.118568,30.5235 C142.054175,30.6771538 142.014646,30.8170769 142.001258,30.9432692 L144.971624,30.9432692 C144.964611,30.8105385 144.928271,30.6666923 144.86324,30.5123846 Z M144.423328,28.9948077 C144.707039,29.1177308 144.951223,29.291 145.155878,29.5146154 C145.359895,29.7388846 145.520559,30.0102308 145.637231,30.3286538 C145.753266,30.6470769 145.811284,31.0027692 145.811284,31.3944231 L145.811284,31.5310769 C145.811284,31.5735769 145.807459,31.6226154 145.801083,31.6781923 L141.980856,31.6781923 C141.994245,31.8606154 142.045249,32.0378077 142.134507,32.2084615 C142.222489,32.3804231 142.339162,32.5334231 142.482611,32.6661538 C142.625424,32.7988846 142.7931,32.9041538 142.985004,32.9806538 C143.175633,33.0578077 143.383476,33.0963846 143.60917,33.0963846 C143.936873,33.0963846 144.22186,33.0231538 144.464131,32.8760385 C144.707039,32.7289231 144.896393,32.5641538 145.032192,32.3823846 L145.576026,32.9597308 C145.47338,33.0793846 145.354795,33.1964231 145.222183,33.3115 C145.088934,33.4278846 144.939109,33.5311923 144.771432,33.6220769 C144.604393,33.7129615 144.421415,33.7848846 144.223773,33.8371923 C144.025493,33.8901538 143.81,33.9163077 143.57793,33.9163077 C143.229825,33.9163077 142.90531,33.8509231 142.605022,33.7214615 C142.305371,33.592 142.047162,33.4115385 141.832306,33.1807308 C141.61745,32.9492692 141.44786,32.6766154 141.32545,32.3614615 C141.202402,32.0456538 141.140559,31.7063077 141.140559,31.3421154 C141.140559,30.9995 141.197301,30.6732308 141.310148,30.3659231 C141.421721,30.0573077 141.580472,29.7872692 141.786402,29.5571154 C141.991057,29.3256538 142.238428,29.1438846 142.528515,29.0105 C142.81924,28.8777692 143.141205,28.8110769 143.496323,28.8110769 C143.831039,28.8110769 144.139616,28.8718846 144.423328,28.9948077 L144.423328,28.9948077 Z" id="Fill-16" fill="#6D6E6D"></path>
                    <path d="M8.84033188,8.85765385 C8.31434934,8.31823077 7.46576419,8.31823077 6.9391441,8.85503846 C6.41571179,9.39446154 6.41571179,10.2666923 6.9391441,10.8048077 C7.46576419,11.3448846 8.31626201,11.3448846 8.84224454,10.8048077 C9.36758952,10.2666923 9.36758952,9.39446154 8.84033188,8.85765385" id="Fill-17" fill="#1D1D1B"></path>
                    <path d="M12.4673799,12.4838846 C11.9439476,11.9438077 11.0921747,11.9438077 10.5668297,12.4838846 C10.0433974,13.022 10.0433974,13.8935769 10.5668297,14.4310385 C11.0921747,14.9691538 11.9439476,14.9691538 12.4673799,14.4310385 C12.9920873,13.8935769 12.9920873,13.022 12.4673799,12.4838846" id="Fill-18" fill="#1D1D1B"></path>
                    <path d="M12.6254934,4.91038462 C11.9866638,4.25784615 10.9576507,4.25784615 10.3181834,4.91038462 C9.67999127,5.56423077 9.67999127,6.62476923 10.3181834,7.27796154 C10.9576507,7.92984615 11.989214,7.92984615 12.6254934,7.27796154 C13.2643231,6.62476923 13.2643231,5.56423077 12.6254934,4.91038462" id="Fill-19" fill="#1D1D1B"></path>
                    <path d="M16.2538166,8.58565385 C15.6149869,7.93115385 14.5821485,7.93115385 13.9471441,8.58565385 C13.3076769,9.24015385 13.3076769,10.2993846 13.9445939,10.9525769 C14.5821485,11.6057692 15.6168996,11.6057692 16.2538166,10.9512692 C16.8920087,10.2980769 16.8920087,9.24015385 16.2538166,8.58565385" id="Fill-20" fill="#1D1D1B"></path>
                    <path d="M19.8349607,12.2589615 C19.1974061,11.6057692 18.1645677,11.6057692 17.5295633,12.2576538 C16.8894585,12.9147692 16.8894585,13.9726923 17.5295633,14.6239231 C18.1645677,15.2803846 19.1974061,15.2803846 19.8349607,14.6239231 C20.4718777,13.9726923 20.4718777,12.9128077 19.8349607,12.2589615" id="Fill-21" fill="#1D1D1B"></path>
                    <path d="M24.510786,19.4264231 C23.7610218,20.196 23.7597467,21.4402692 24.510786,22.2105 C25.2599127,22.9820385 26.4757293,22.9820385 27.2242183,22.2105 C27.9758952,21.4415769 27.9758952,20.1953462 27.2242183,19.4251154 C26.4776419,18.6568462 25.2599127,18.6568462 24.510786,19.4264231" id="Fill-22" fill="#1D1D1B"></path>
                    <path d="M20.9086026,23.1232692 C20.1569258,23.8928462 20.1556507,25.1377692 20.90669,25.9073462 C21.6577293,26.6769231 22.8729083,26.6769231 23.6220349,25.9073462 C24.3724367,25.1377692 24.3724367,23.8928462 23.6220349,23.1232692 C22.8729083,22.3536923 21.6577293,22.3536923 20.9086026,23.1232692" id="Fill-23" fill="#1D1D1B"></path>
                    <path d="M17.3223581,26.7978846 C16.5732314,27.5661538 16.5732314,28.8136923 17.3223581,29.5832692 C18.0740349,30.3528462 19.2873013,30.3528462 20.0370655,29.5832692 C20.7900175,28.8136923 20.7900175,27.5661538 20.0370655,26.7978846 C19.2879389,26.027 18.0740349,26.027 17.3223581,26.7978846" id="Fill-24" fill="#1D1D1B"></path>
                    <path d="M13.7208122,30.4947308 C12.9691354,31.2610385 12.9691354,32.5085769 13.7188996,33.2788077 C14.4699389,34.0483846 15.6844803,34.0483846 16.4342445,33.2788077 C17.186559,32.5085769 17.186559,31.2610385 16.4342445,30.4947308 C15.6844803,29.7231923 14.4699389,29.7231923 13.7208122,30.4947308" id="Fill-26" fill="#1D1D1B"></path>
                    <path d="M30.7951616,15.8021538 C30.0460349,15.0332308 28.8302183,15.0332308 28.0817293,15.8021538 C27.3319651,16.5723846 27.33069,17.8192692 28.0817293,18.5868846 C28.8302183,19.3551538 30.0460349,19.3558077 30.7951616,18.5868846 C31.5455633,17.8179615 31.5455633,16.5723846 30.7951616,15.8021538" id="Fill-28" fill="#1D1D1B"></path>
                    <path d="M27.2140175,12.1759231 C26.4604279,11.4076538 25.2477991,11.4037308 24.4980349,12.1746154 C23.7463581,12.9455 23.7463581,14.1897692 24.4980349,14.96 C25.2471616,15.7276154 26.4610655,15.7276154 27.2140175,14.96 C27.9612314,14.1917308 27.9612314,12.9455 27.2140175,12.1759231" id="Fill-29" fill="#1D1D1B"></path>
                    <path d="M23.6092838,8.47711538 C22.857607,7.71015385 21.6437031,7.71015385 20.8933013,8.47711538 C20.1416245,9.24865385 20.1416245,10.4948846 20.8933013,11.2644615 C21.6437031,12.0320769 22.857607,12.0320769 23.610559,11.2644615 C24.3603231,10.4948846 24.3603231,9.24865385 23.6092838,8.47711538" id="Fill-30" fill="#1D1D1B"></path>
                    <path d="M20.0262271,4.80511538 C19.2758253,4.03619231 18.0612838,4.03619231 17.3102445,4.80511538 C16.5617555,5.57338462 16.5617555,6.82092308 17.3102445,7.58984615 C18.0612838,8.35942308 19.2771004,8.35942308 20.0262271,7.58984615 C20.7772664,6.82092308 20.7772664,5.57338462 20.0262271,4.80511538" id="Fill-31" fill="#1D1D1B"></path>
                    <path d="M16.4208559,1.10826923 C15.6723668,0.339346154 14.4559127,0.336730769 13.7061485,1.10826923 C12.9576594,1.8785 12.9576594,3.12407692 13.7061485,3.89169231 C14.4559127,4.66126923 15.6723668,4.66126923 16.4208559,3.89169231 C17.1718952,3.12407692 17.1718952,1.8785 16.4208559,1.10826923" id="Fill-33" fill="#1D1D1B"></path>
                    <path d="M10.3169083,27.0443846 C9.67999127,27.7001923 9.67999127,28.7587692 10.3169083,29.4106538 C10.955738,30.0658077 11.9879389,30.0658077 12.6254934,29.4106538 C13.2636856,28.7587692 13.2636856,27.7001923 12.6254934,27.0443846 C11.9866638,26.3918462 10.955738,26.3918462 10.3169083,27.0443846" id="Fill-35" fill="#1D1D1B"></path>
                    <path d="M6.98441048,23.5430385 C6.4590655,24.0805 6.4590655,24.9520769 6.98441048,25.4901923 C7.50975546,26.0296154 8.36089083,26.0296154 8.88623581,25.4934615 C9.4128559,24.9520769 9.4128559,24.0791923 8.88623581,23.5417308 C8.36089083,23.0023077 7.5091179,23.0023077 6.98441048,23.5430385" id="Fill-36" fill="#1D1D1B"></path>
                    <path d="M10.5222009,19.8239615 C9.99621834,20.3607692 9.99621834,21.233 10.5222009,21.7711154 C11.0456332,22.3105385 11.8967686,22.3105385 12.4221135,21.7711154 C12.9480961,21.233 12.9480961,20.3601154 12.4221135,19.8239615 C11.8967686,19.2845385 11.0456332,19.2845385 10.5222009,19.8239615" id="Fill-37" fill="#1D1D1B"></path>
                    <path d="M14.1250218,16.1715769 C13.6022271,16.7123077 13.6022271,17.5832308 14.1250218,18.1213462 C14.6535546,18.6594615 15.5034148,18.6594615 16.0281223,18.1213462 C16.5515546,17.5832308 16.5515546,16.7103462 16.0281223,16.1715769 C15.5034148,15.6315 14.6535546,15.6315 14.1250218,16.1715769" id="Fill-38" fill="#1D1D1B"></path>
                    <path d="M7.1890655,16.3062692 C6.77656769,16.7299615 6.77656769,17.4138846 7.1890655,17.8375769 C7.5990131,18.2599615 8.27035808,18.2599615 8.68349345,17.8375769 C9.09280349,17.4138846 9.09280349,16.7299615 8.68349345,16.3049615 C8.27035808,15.8825769 7.5990131,15.8825769 7.1890655,16.3062692" id="Fill-39" fill="#1D1D1B"></path>
                    <path d="M3.5390655,19.9560385 C3.12529258,20.3797308 3.12529258,21.0636538 3.5390655,21.4899615 C3.94965066,21.9116923 4.62035808,21.9116923 5.0328559,21.4899615 C5.4440786,21.0636538 5.4440786,20.3797308 5.0328559,19.9560385 C4.62035808,19.5343077 3.95156332,19.5343077 3.5390655,19.9560385" id="Fill-40" fill="#1D1D1B"></path>
                    <path d="M3.83935371,12.8376154 C3.42749345,13.2626154 3.42621834,13.9471923 3.83935371,14.3676154 C4.25312664,14.7926154 4.92000873,14.7926154 5.3331441,14.3676154 C5.74564192,13.9471923 5.74564192,13.2626154 5.3331441,12.8376154 C4.92000873,12.4152308 4.25312664,12.4152308 3.83935371,12.8376154" id="Fill-41" fill="#1D1D1B"></path>
                    <path d="M0.274148472,16.4514231 C-0.0911703057,16.8273846 -0.0911703057,17.4354615 0.273510917,17.8107692 C0.640104803,18.1854231 1.23239301,18.1854231 1.59643668,17.8107692 C1.96303057,17.4354615 1.96303057,16.8273846 1.59643668,16.4514231 C1.23239301,16.0767692 0.640104803,16.0767692 0.274148472,16.4514231" id="Fill-43" fill="#1D1D1B"></path>
                    <path d="M13.8999651,23.3259615 C13.2624105,23.9811154 13.2624105,25.0403462 13.8999651,25.6928846 C14.5394323,26.3480385 15.5709956,26.3480385 16.2079127,25.6928846 C16.8467424,25.0403462 16.8467424,23.9791538 16.2066376,23.3259615 C15.5697205,22.6714615 14.5368821,22.6714615 13.8999651,23.3259615" id="Fill-45" fill="#1D1D1B"></path>
                    <path d="M17.4804716,19.6513462 C16.8454672,20.3071538 16.8454672,21.3650769 17.4804716,22.0176154 C18.1205764,22.6734231 19.1527773,22.6734231 19.7890568,22.0176154 C20.428524,21.3650769 20.428524,20.3071538 19.7890568,19.6513462 C19.1527773,18.9988077 18.1205764,18.9988077 17.4804716,19.6513462" id="Fill-46" fill="#1D1D1B"></path>
                    <path d="M21.1094323,15.9793462 C20.4718777,16.6331923 20.4718777,17.6898077 21.1094323,18.3449615 C21.748262,19.0001154 22.7798253,18.9988077 23.4167424,18.3449615 C24.0549345,17.6898077 24.0549345,16.6331923 23.4167424,15.9793462 C22.7798253,15.3241923 21.748262,15.3241923 21.1094323,15.9793462" id="Fill-47" fill="#1D1D1B"></path>
                    <path d="M106.235083,19.8775769 C106.96317,19.4695769 107.536332,19.0125385 107.95648,18.5051538 L109.756297,20.3280769 C109.471948,20.6818077 109.126393,21.0198462 108.720908,21.3428462 C108.316699,21.6658462 107.858934,21.9587692 107.348891,22.2196538 C106.838847,22.4811923 106.276524,22.6891154 105.661921,22.8427692 C105.046681,22.9970769 104.393825,23.0735769 103.703354,23.0735769 C102.563406,23.0735769 101.506341,22.8617308 100.53152,22.4393462 C99.5560611,22.0163077 98.7119389,21.4311154 97.9997904,20.6850769 C97.2870044,19.9390385 96.7285066,19.0583077 96.3230218,18.0428846 C95.9175371,17.0274615 95.7160699,15.9198462 95.7160699,14.7200385 C95.7160699,13.5195769 95.9175371,12.4119615 96.3230218,11.3965385 C96.7285066,10.3817692 97.2870044,9.50103846 97.9997904,8.75434615 C98.7119389,8.00830769 99.5560611,7.42376923 100.53152,7.00073077 C101.506341,6.57769231 102.555755,6.3665 103.681039,6.3665 C104.386812,6.3665 105.039031,6.443 105.638969,6.59730769 C106.238908,6.75030769 106.78593,6.95103846 107.281948,7.19688462 C107.776052,7.44273077 108.21214,7.71603846 108.586384,8.01615385 C108.961266,8.31561538 109.276218,8.61246154 109.531878,8.90473077 L107.708472,10.7276538 C107.334227,10.2967692 106.804419,9.89334615 106.122236,9.51607692 C105.440052,9.13946154 104.633546,8.9505 103.703354,8.9505 C102.923624,8.9505 102.210838,9.10415385 101.566271,9.41211538 C100.921066,9.72007692 100.369581,10.1391923 99.9124541,10.6701154 C99.4540524,11.2010385 99.0982969,11.8123846 98.8432751,12.5048077 C98.5882533,13.1965769 98.4607424,13.9354231 98.4607424,14.7200385 C98.4607424,15.5046538 98.5882533,16.2428462 98.8432751,16.9352692 C99.0982969,17.6276923 99.4578777,18.2390385 99.9239301,18.7699615 C100.38807,19.3002308 100.94338,19.72 101.588585,20.0279615 C102.23379,20.3352692 102.945939,20.4895769 103.726306,20.4895769 C104.671799,20.4895769 105.506996,20.2849231 106.235083,19.8775769" id="Fill-48" fill="#1A1919"></path>
                    <path d="M142.851755,17.6276923 C142.709581,17.3968846 142.510026,17.1889615 142.255642,17.0045769 C142.001258,16.8195385 141.697144,16.6541154 141.344576,16.5083077 C140.992009,16.3625 140.605013,16.2121154 140.185502,16.0584615 C139.614891,15.8426923 139.037904,15.5968462 138.453266,15.3196154 C137.867991,15.0430385 137.338821,14.7082692 136.867031,14.3159615 C136.393965,13.9236538 136.007607,13.4659615 135.707319,12.9428846 C135.407668,12.4198077 135.257843,11.7966923 135.257843,11.0735385 C135.257843,10.4582692 135.377703,9.86588462 135.618061,9.29638462 C135.857782,8.72753846 136.198873,8.22734615 136.641336,7.79646154 C137.083799,7.36623077 137.619983,7.02034615 138.250524,6.75880769 C138.880428,6.49661538 139.584926,6.3665 140.36593,6.3665 C140.980533,6.3665 141.550507,6.443 142.075852,6.59730769 C142.600559,6.75030769 143.080638,6.95103846 143.51545,7.19688462 C143.9509,7.44273077 144.337258,7.71996154 144.674524,8.02792308 C145.01179,8.33523077 145.300603,8.63534615 145.540961,8.92761538 L143.673563,10.8198462 C143.492498,10.5890385 143.291031,10.3660769 143.065336,10.1509615 C142.840279,9.93519231 142.585895,9.74296154 142.300908,9.57361538 C142.015921,9.40426923 141.715633,9.26630769 141.400681,9.15842308 C141.085729,9.05053846 140.748463,8.99692308 140.388245,8.99692308 C139.713074,8.99692308 139.146926,9.18130769 138.689162,9.55073077 C138.231397,9.92015385 138.002515,10.3968077 138.002515,10.9813462 C138.002515,11.3507692 138.100061,11.6659231 138.295153,11.9274615 C138.490882,12.189 138.749092,12.4158846 139.071694,12.6081154 C139.394297,12.8003462 139.758341,12.9736154 140.163188,13.1272692 L141.400681,13.6124231 C141.985956,13.8432308 142.544454,14.093 143.076812,14.3623846 C143.609808,14.6311154 144.077773,14.9501923 144.48262,15.3196154 C144.888742,15.6890385 145.211345,16.1277692 145.451703,16.6351538 C145.690786,17.1425385 145.811284,17.7427692 145.811284,18.4351923 C145.811284,19.2047692 145.664646,19.8815 145.372009,20.4666923 C145.079371,21.0505769 144.685362,21.5350769 144.191258,21.9195385 C143.695878,22.3046538 143.125266,22.593 142.480699,22.7852308 C141.835493,22.9774615 141.152672,23.0735769 140.433511,23.0735769 C139.683109,23.0735769 139.003476,22.9774615 138.396524,22.7852308 C137.788934,22.593 137.241913,22.3432308 136.753546,22.0352692 C136.266454,21.7273077 135.84248,21.3735769 135.482262,20.9740769 C135.122044,20.5732692 134.814742,20.1737692 134.560358,19.7736154 L136.585231,18.02 C136.765022,18.3122692 136.97924,18.6006154 137.226611,18.8856923 C137.473983,19.1701154 137.755144,19.4277308 138.070734,19.6585385 C138.385686,19.8893462 138.737616,20.0776538 139.128437,20.2234615 C139.517983,20.3699231 139.952795,20.4425 140.433511,20.4425 C140.748463,20.4425 141.05959,20.4085 141.366891,20.3391923 C141.67483,20.2698846 141.955354,20.1587308 142.211013,20.0044231 C142.465397,19.8507692 142.671965,19.6474231 142.828803,19.3930769 C142.986917,19.1387308 143.065336,18.8353462 143.065336,18.4809615 C143.065336,18.1429231 142.994568,17.8585 142.851755,17.6276923" id="Fill-49" fill="#1A1919"></path>
                    <polyline id="Fill-50" fill="#1A1919" points="42.3406376 22.797 46.953345 12.4583846 51.6004803 22.797 54.3604541 22.797 46.9450568 6.29980769 39.5844891 22.797 42.3406376 22.797"></polyline>
                    <path d="M128.135083,6.64307692 L128.135083,16.9352692 C128.135083,17.8271154 127.992271,18.6463846 127.707284,19.3930769 C127.422297,20.1397692 127.01745,20.7851154 126.492105,21.3317308 C125.96676,21.8776923 125.329205,22.3046538 124.579441,22.6126154 C123.829677,22.9192692 122.98938,23.0735769 122.059188,23.0735769 C121.128996,23.0735769 120.289336,22.9192692 119.538934,22.6126154 C118.78917,22.3046538 118.151616,21.8776923 117.626271,21.3317308 C117.101563,20.7851154 116.696079,20.1397692 116.411092,19.3930769 C116.126742,18.6463846 115.98393,17.8271154 115.98393,16.9352692 L115.98393,6.64307692 L118.683974,6.64307692 L118.683974,16.5887308 C118.683974,17.7427692 118.965135,18.6738462 119.528096,19.3813077 C120.090419,20.0887692 120.934541,20.4425 122.059188,20.4425 C123.184472,20.4425 124.027956,20.0887692 124.590917,19.3813077 C125.15324,18.6738462 125.434402,17.7427692 125.434402,16.5887308 L125.434402,6.64307692 L128.135083,6.64307692" id="Fill-51" fill="#1A1919"></path>
                    <polyline id="Fill-52" fill="#1A1919" points="78.8725153 22.797 83.4845852 12.4583846 88.1317205 22.797 90.8916943 22.797 83.4769345 6.29980769 76.1157293 22.797 78.8725153 22.797"></polyline>
                    <path d="M67.7765153,19.6703077 C67.2811354,20.0011538 66.6582445,20.1665769 65.9084803,20.1665769 L63.0280087,20.1665769 L63.0280087,9.2735 L65.3461572,9.2735 C66.02069,9.2735 66.5836507,9.42780769 67.0337642,9.73511538 C67.4838777,10.0430769 67.7082969,10.5661538 67.7082969,11.3043462 C67.7082969,11.9967692 67.5023668,12.4930385 67.089869,12.7931538 C66.6773712,13.0932692 66.0959214,13.243 65.3461572,13.243 L65.9084803,15.8740769 C66.6582445,15.8740769 67.2811354,16.0395 67.7765153,16.3696923 C68.2712576,16.7005385 68.5186288,17.2504231 68.5186288,18.02 C68.5186288,18.7889231 68.2712576,19.3394615 67.7765153,19.6703077 Z M70.9151965,16.2199615 C70.6824891,15.7426538 70.4198166,15.3581923 70.127179,15.0659231 C69.835179,14.7736538 69.5578428,14.5663846 69.2945328,14.4428077 C69.0324978,14.3198846 68.8711965,14.2505769 68.8112664,14.2355385 C68.9011616,14.1891154 69.0363231,14.1008462 69.2161135,13.9694231 C69.3965415,13.8393077 69.5801572,13.651 69.7675983,13.4045 C69.9550393,13.1586538 70.1163406,12.8428462 70.2508646,12.4583846 C70.3860262,12.0732692 70.453607,11.6044615 70.453607,11.0506538 C70.453607,10.2810769 70.3114323,9.62003846 70.0264454,9.06623077 C69.7414585,8.51242308 69.3665764,8.05473077 68.9011616,7.69315385 C68.4363843,7.33157692 67.9033886,7.06611538 67.3034498,6.89676923 C66.7035109,6.72742308 66.0806201,6.64307692 65.4360524,6.64307692 L60.3279651,6.64307692 L60.3279651,22.797 L65.9983755,22.797 C66.733476,22.797 67.42331,22.6812692 68.0691528,22.4511154 C68.7137205,22.2196538 69.2722183,21.8966538 69.7452838,21.4814615 C70.2177118,21.0656154 70.5887686,20.5621538 70.8590917,19.9704231 C71.1287773,19.3773846 71.2633013,18.7202692 71.2633013,17.9964615 C71.2633013,17.289 71.1479039,16.6966154 70.9151965,16.2199615 L70.9151965,16.2199615 Z" id="Fill-53" fill="#1A1919"></path>
                </g>
            </g>
        </g>
    </g>
</svg>