<?xml version="1.0" encoding="UTF-8"?>
<svg width="154px" height="21px" viewBox="0 0 154 21" version="1.1" xmlns="http://www.w3.org/2000/svg" xmlns:xlink="http://www.w3.org/1999/xlink">
    <!-- Generator: Sketch 47.1 (45422) - http://www.bohemiancoding.com/sketch -->
    <title>HITOBITO</title>
    <desc>Created with Sketch.</desc>
    <defs></defs>
    <g id="Page-1" stroke="none" stroke-width="1" fill="none" fill-rule="evenodd">
        <g id="Kundenlogos-sw" transform="translate(-392.000000, -266.000000)">
            <g id="HITOBITO" transform="translate(384.000000, 183.000000)">
                <rect id="Rectangle-Copy-10" style="mix-blend-mode: color;" x="0" y="0" width="169" height="169"></rect>
                <g id="HITOBITO-Logo-black" transform="translate(8.000000, 83.000000)" fill-rule="nonzero" fill="#000000">
                    <path d="M3.38024682,0 C1.51338805,0 0,1.56125662 0,3.50310488 L0,17.4968951 C0,19.4316065 1.5146426,21 3.38024682,21 L26.3390514,21 C28.2059102,21 29.7192982,19.4387434 29.7192982,17.4968951 L29.7192982,3.50310488 C29.7192982,1.56839348 28.2046556,0 26.3390514,0 L3.38024682,0 Z M8.85726036,12.1081535 C8.22716807,13.6561078 7.18173252,14.8278509 5.68871355,15.7859005 C5.52946713,15.8781384 5.36342377,15.9310345 5.18606508,15.9310345 C4.84311365,15.9310345 4.53477545,15.741935 4.38481974,15.4280657 C4.29743203,15.264069 4.24561404,15.0921721 4.24561404,14.9133156 C4.24561404,14.5536465 4.43867654,14.2328496 4.74652995,14.0725375 C5.81514516,13.4827073 6.66416982,12.5528195 7.13541391,11.5000285 C7.69427201,10.269973 7.88672959,9.27527965 7.88672959,7.39539493 C7.88672959,6.84064842 8.31830784,6.51724138 8.82718064,6.51724138 C9.31603736,6.51724138 9.74085879,6.8512414 9.74085879,7.39539493 C9.74085879,9.25939553 9.93269038,10.2027339 10.5139302,11.4055435 C11.0040008,12.4274254 11.9397074,13.4311214 12.985934,14.0386472 C13.291457,14.1979143 13.4444444,14.5235655 13.4444444,14.8667938 C13.4444444,15.0503119 13.3930825,15.2353 13.3052387,15.4001526 L13.2825491,15.4389493 C13.0985236,15.7267431 12.8182917,15.8845127 12.5039934,15.8845127 C12.3279715,15.8845127 12.1505395,15.8309635 11.9741847,15.7283237 C10.6033277,14.8594127 9.51086992,13.6186738 8.85726036,12.1081535 Z M20.8865001,12.1081535 C20.2564079,13.6561078 19.2109723,14.8278509 17.7179533,15.7859005 C17.5587069,15.8781384 17.3926635,15.9310345 17.2153049,15.9310345 C16.8723534,15.9310345 16.5640152,15.741935 16.4140595,15.4280657 C16.3266718,15.264069 16.2748538,15.0921721 16.2748538,14.9133156 C16.2748538,14.5536465 16.4679163,14.2328496 16.7757697,14.0725375 C17.8443849,13.4827073 18.6934096,12.5528195 19.1646537,11.5000285 C19.7235118,10.269973 19.9159694,9.27527965 19.9159694,7.39539493 C19.9159694,6.84064842 20.3475476,6.51724138 20.8564204,6.51724138 C21.3452771,6.51724138 21.7700986,6.8512414 21.7700986,7.39539493 C21.7700986,9.25939553 21.9619301,10.2027339 22.54317,11.4055435 C23.0332406,12.4274254 23.9689472,13.4311214 25.0151737,14.0386472 C25.3206968,14.1979143 25.4736842,14.5235655 25.4736842,14.8667938 C25.4736842,15.0503119 25.4223223,15.2353 25.3344785,15.4001526 L25.3117889,15.4389493 C25.1277633,15.7267431 24.8475315,15.8845127 24.5332332,15.8845127 C24.3572112,15.8845127 24.1797792,15.8309635 24.0034245,15.7283237 C22.6325674,14.8594127 21.5401097,13.6186738 20.8865001,12.1081535 Z" id="Rectangle-5-copy-2"></path>
                    <path d="M40.9449889,18.2097222 L40.9449889,12.1430555 L47.293567,12.1430555 L47.293567,18.2097222 C47.293567,18.9933333 47.8818522,19.6 48.6417207,19.6 C49.4015891,19.6 50.0143862,18.9933333 50.0143862,18.2097222 L50.0143862,3.29583333 C50.0143862,2.51222222 49.4015891,1.90555555 48.6417207,1.90555555 C47.8818522,1.90555555 47.293567,2.51222222 47.293567,3.29583333 L47.293567,9.3625 L40.9449889,9.3625 L40.9449889,3.29583333 C40.9449889,2.51222222 40.3321918,1.90555555 39.5723233,1.90555555 C38.8124549,1.90555555 38.2241697,2.51222222 38.2241697,3.29583333 L38.2241697,18.2097222 C38.2241697,18.9933333 38.8124549,19.6 39.5723233,19.6 C40.3321918,19.6 40.9449889,18.9933333 40.9449889,18.2097222 Z M55.7746791,18.2097222 C55.7746791,18.9933333 56.3629643,19.6 57.1228327,19.6 C57.8581893,19.6 58.4954983,18.9933333 58.4954983,18.2097222 L58.4954983,3.29583333 C58.4954983,2.51222222 57.8581893,1.90555555 57.1228327,1.90555555 C56.3629643,1.90555555 55.7746791,2.51222222 55.7746791,3.29583333 C55.7746791,3.29583333 55.7746791,2.51222222 55.7746791,3.29583333 L55.7746791,18.2097222 Z M73.5703072,1.90555555 L63.1037325,1.90555555 C62.3438641,1.90555555 61.7555789,2.51222222 61.7555789,3.29583333 C61.7555789,4.05416667 62.3438641,4.71138889 63.1037325,4.71138889 L66.9766103,4.71138889 L66.9766103,18.2097222 C66.9766103,18.9933333 67.5894072,19.6 68.3247639,19.6 C69.0846324,19.6 69.6729178,18.9933333 69.6729178,18.2097222 L69.6729178,4.71138889 L73.5703072,4.71138889 C74.305664,4.71138889 74.918461,4.05416667 74.918461,3.29583333 C74.918461,2.51222222 74.305664,1.90555555 73.5703072,1.90555555 Z M86.6351417,1.4 C84.2820008,1.4 82.1249552,2.43638889 80.62973,4.10472222 C79.1099932,5.77305555 78.2030534,7.9975 78.2030534,10.5 C78.2030534,13.0025 79.1099932,15.2522222 80.62973,16.8952778 C82.1249552,18.5383333 84.2820008,19.6 86.6351417,19.6 C88.8902353,19.6 91.0472809,18.5383333 92.4934821,16.8952778 C94.0132189,15.2522222 94.9691827,13.0025 94.9691827,10.5 C94.9691827,7.9975 94.0132189,5.77305555 92.4934821,4.10472222 C91.0472809,2.43638889 88.8902353,1.4 86.6351417,1.4 Z M90.5080195,14.8983333 C89.47852,16.0358333 88.1058545,16.7183333 86.6351417,16.7183333 C85.0663809,16.7183333 83.6937154,16.0358333 82.6642166,14.8983333 C81.6347171,13.8113889 80.9974084,12.2188889 80.9974084,10.5 C80.9974084,8.78111108 81.6347171,7.18861108 82.6642166,6.07638889 C83.6937154,4.93888889 85.0663809,4.28166667 86.6351417,4.28166667 C88.1058545,4.28166667 89.47852,4.93888889 90.5080195,6.07638889 C91.5130066,7.18861108 92.1748277,8.78111108 92.1748277,10.5 C92.1748277,12.2188889 91.5130066,13.8113889 90.5080195,14.8983333 C90.5080195,14.8983333 91.5130066,13.8113889 90.5080195,14.8983333 Z M101.146177,19.6 C101.170689,19.6 101.170689,19.5747222 101.219713,19.5747222 C101.219713,19.5747222 101.219713,19.6 101.244225,19.6 L105.582828,19.6 C108.475231,19.6 110.828372,17.1733333 110.828372,14.1652778 C110.828372,12.2441667 109.823384,10.5505555 108.352672,9.59 C108.940957,8.78111108 109.284123,7.79527777 109.284123,6.70833333 C109.284123,4.05416667 107.200613,1.90555555 104.626865,1.90555555 L101.244225,1.90555555 L101.219713,1.90555555 L101.146177,1.90555555 C100.410821,1.90555555 99.7980236,2.51222222 99.7980236,3.29583333 L99.7980236,18.2097222 C99.7980236,18.9680555 100.410821,19.6 101.146177,19.6 C101.146177,19.6 100.410821,19.6 101.146177,19.6 Z M102.518843,4.71138889 L104.626865,4.71138889 C105.705388,4.71138889 106.563304,5.59611111 106.563304,6.70833333 C106.563304,7.82055554 105.705388,8.75583331 104.626865,8.75583331 L102.518843,8.75583331 L102.518843,4.71138889 Z M102.518843,11.5616667 L105.582828,11.5616667 C106.980006,11.5869445 108.107553,12.7244445 108.107553,14.1652778 C108.107553,15.6313889 106.980006,16.7688889 105.582828,16.7941667 L102.518843,16.7941667 L102.518843,11.5616667 Z M114.529666,18.2097222 C114.529666,18.9933333 115.117952,19.6 115.87782,19.6 C116.613177,19.6 117.250486,18.9933333 117.250486,18.2097222 L117.250486,3.29583333 C117.250486,2.51222222 116.613177,1.90555555 115.87782,1.90555555 C115.117952,1.90555555 114.529666,2.51222222 114.529666,3.29583333 C114.529666,3.29583333 114.529666,2.51222222 114.529666,3.29583333 L114.529666,18.2097222 Z M133.673448,3.29583333 C133.673448,2.51222222 133.060651,1.90555555 132.325294,1.90555555 L121.85872,1.90555555 C121.098852,1.90555555 120.510566,2.51222222 120.510566,3.29583333 C120.510566,4.05416667 121.098852,4.71138889 121.85872,4.71138889 L125.731598,4.71138889 L125.731598,18.2097222 C125.731598,18.9933333 126.344395,19.6 127.079751,19.6 C127.839619,19.6 128.427905,18.9933333 128.427905,18.2097222 L128.427905,4.71138889 L132.325294,4.71138889 C133.060651,4.71138889 133.673448,4.05416667 133.673448,3.29583333 C133.673448,3.29583333 133.673448,4.05416667 133.673448,3.29583333 Z M145.390129,1.4 C143.036988,1.4 140.879942,2.43638889 139.384717,4.10472222 C137.86498,5.77305555 136.958041,7.9975 136.958041,10.5 C136.958041,13.0025 137.86498,15.2522222 139.384717,16.8952778 C140.879942,18.5383333 143.036988,19.6 145.390129,19.6 C147.645222,19.6 149.802268,18.5383333 151.248469,16.8952778 C152.768206,15.2522222 153.72417,13.0025 153.72417,10.5 C153.72417,7.9975 152.768206,5.77305555 151.248469,4.10472222 C149.802268,2.43638889 147.645222,1.4 145.390129,1.4 Z M149.263007,14.8983333 C148.233508,16.0358333 146.860842,16.7183333 145.390129,16.7183333 C143.821369,16.7183333 142.448703,16.0358333 141.419204,14.8983333 C140.389704,13.8113889 139.752396,12.2188889 139.752396,10.5 C139.752396,8.78111108 140.389704,7.18861108 141.419204,6.07638889 C142.448703,4.93888889 143.821369,4.28166667 145.390129,4.28166667 C146.860842,4.28166667 148.233508,4.93888889 149.263007,6.07638889 C150.267994,7.18861108 150.929815,8.78111108 150.929815,10.5 C150.929815,12.2188889 150.267994,13.8113889 149.263007,14.8983333 C149.263007,14.8983333 150.267994,13.8113889 149.263007,14.8983333 Z" id="HITOBITO-copy-2"></path>
                </g>
            </g>
        </g>
    </g>
</svg>