<?xml version="1.0" encoding="UTF-8"?>
<svg width="134px" height="24px" viewBox="0 0 134 24" version="1.1" xmlns="http://www.w3.org/2000/svg" xmlns:xlink="http://www.w3.org/1999/xlink">
    <!-- Generator: Sketch 47.1 (45422) - http://www.bohemiancoding.com/sketch -->
    <title>HRM</title>
    <desc>Created with Sketch.</desc>
    <defs>
        <polygon id="path-1" points="0.0270707071 19.7266415 0.0270707071 0.325132075 15.607165 0.325132075 15.607165 19.7266415"></polygon>
        <polygon id="path-3" points="57.8135556 19.8973585 0.18362963 19.8973585 0.18362963 0.325132075 57.8135556 0.325132075 57.8135556 19.8973585"></polygon>
        <polygon id="path-5" points="19.2720875 4.91411321 19.2720875 9.48226415 0.0216565657 9.48226415 0.0216565657 0.345962264 19.2720875 0.345962264 19.2720875 4.91411321"></polygon>
    </defs>
    <g id="Page-1" stroke="none" stroke-width="1" fill="none" fill-rule="evenodd">
        <g id="Kundenlogos-sw" transform="translate(-593.000000, -72.000000)">
            <g id="HRM" transform="translate(576.000000, 0.000000)">
                <rect id="Rectangle-Copy-3" style="mix-blend-mode: color;" x="0" y="0" width="169" height="169"></rect>
                <g transform="translate(17.000000, 72.000000)">
                    <g id="Group-3" transform="translate(0.000000, 4.075472)">
                        <mask id="mask-2" fill="white">
                            <use xlink:href="#path-1"></use>
                        </mask>
                        <g id="Clip-2"></g>
                        <polyline id="Fill-1" fill="#1A1919" mask="url(#mask-2)" points="4.2167138 0.325132075 4.2167138 7.96437736 11.3904512 7.96437736 11.3904512 0.325132075 15.607165 0.325132075 15.607165 19.7266415 11.3904512 19.7266415 11.3904512 11.7296604 4.2167138 11.7296604 4.2167138 19.7266415 0 19.7266415 0 0.325132075 4.2167138 0.325132075"></polyline>
                    </g>
                    <path d="M24.0942828,12.8925283 L25.6003165,12.8925283 C26.7228485,12.8649057 27.8458316,12.7824906 28.4761279,11.6830189 C28.6123838,11.4357736 28.8312054,10.9960755 28.8312054,10.3091321 C28.8312054,10.0342642 28.8045859,9.31969811 28.2834747,8.71516981 C27.5715152,7.89101887 26.5315488,7.80815094 25.5186532,7.78098113 L24.0942828,7.78098113 L24.0942828,12.8925283 Z M25.1622222,4.40060377 C25.682431,4.40060377 26.175569,4.40060377 26.6953266,4.42822642 C28.7766128,4.51018868 30.8028552,4.97796226 32.0345724,6.90158491 C32.8841414,8.19260377 32.9382828,9.62218868 32.9382828,10.1438491 C32.9382828,11.9030943 32.2538451,13.7990943 30.7202896,14.7885283 C30.1734613,15.1453585 29.7904108,15.2830189 28.5844108,15.5578868 L34.1709024,23.8021132 L29.1876364,23.8021132 L24.0672121,15.6131321 L24.0672121,23.8021132 L19.9876566,23.8021132 L19.9876566,4.40060377 L25.1622222,4.40060377 L25.1622222,4.40060377 Z" id="Fill-4" fill="#1A1919"></path>
                    <g id="Group-10" transform="translate(35.191919, 4.075472)">
                        <mask id="mask-4" fill="white">
                            <use xlink:href="#path-3"></use>
                        </mask>
                        <g id="Clip-6"></g>
                        <path d="M10.0951178,8.5965283 C10.4786195,9.75124528 10.8891919,10.8778868 11.2447205,12.0597736 C11.4094007,12.6090566 11.5465589,13.1587925 11.683266,13.7085283 C11.9571313,12.7738868 12.2309966,11.8673208 12.5044108,10.9331321 C12.8333199,9.94369811 13.1892997,8.95426415 13.5173064,7.96437736 L16.2009158,0.325132075 L20.4997441,0.325132075 L23.2374949,19.7266415 L19.1579394,19.7266415 L18.0083367,10.3833962 C17.9253199,9.47637736 17.8165859,8.56935849 17.7619933,7.66233962 C17.7340202,7.00301887 17.7340202,6.34369811 17.7340202,5.68392453 C17.2693064,7.33267925 16.7486465,8.98188679 16.2009158,10.6034717 L12.9975488,19.7266415 L10.3689832,19.7266415 L6.86377778,9.99849057 C6.56284175,9.20150943 6.28852525,8.4045283 6.07060606,7.57992453 C5.87885522,7.00301887 5.74169697,6.42611321 5.57701684,5.82158491 C5.57701684,6.56332075 5.54994613,7.27743396 5.52242424,8.02007547 C5.44030976,8.95426415 5.33022222,9.88845283 5.22148822,10.8226415 L4.20859259,19.7266415 L0.18362963,19.7266415 L2.89430976,0.325132075 L7.22020875,0.325132075 L10.0951178,8.5965283" id="Fill-5" fill="#1A1919" mask="url(#mask-4)"></path>
                        <path d="M37.833569,13.296 C37.7356633,13.1601509 37.2795219,12.4677736 36.5531246,12.4677736 C36.083899,12.4677736 35.6539259,12.7766038 35.6539259,13.2715472 C35.6647542,13.9516981 36.4791313,14.2605283 36.8982761,14.4588679 C37.7239327,14.8175094 37.9702761,14.9655849 38.3145253,15.2499623 C38.6479461,15.5343396 39.1528148,16.0664151 39.1528148,17.1047547 C39.1528148,18.1933585 38.6217778,18.8114717 38.3145253,19.0963019 C38.2288013,19.1827925 38.0072727,19.3929057 37.6986667,19.5536604 C37.0579933,19.8996226 36.3433266,19.9245283 36.109165,19.9245283 C35.924633,19.9245283 35.2347811,19.8996226 34.6432862,19.677283 C33.9520808,19.4173585 33.3984848,18.8363774 33.2504983,18.6878491 L34.5083838,17.3026415 C34.9144444,17.7604528 35.406229,18.3165283 36.1208956,18.3165283 C36.6880269,18.3165283 37.1820673,17.8963019 37.1820673,17.3026415 C37.1820673,17.117434 37.1315354,16.9562264 37.0331785,16.8081509 C36.799468,16.4490566 36.2318855,16.2144906 35.899367,16.0664151 C35.4563098,15.8440755 35.0249832,15.6090566 34.6432862,15.312 C34.3346801,15.0647547 33.6818249,14.4461887 33.6818249,13.3580377 C33.6818249,12.6285283 33.9773468,12.1458113 34.1248822,11.9239245 C34.8896296,10.8226415 36.0969832,10.7610566 36.5278586,10.7610566 C36.7245724,10.7610566 37.3665993,10.7981887 37.9571919,11.0698868 C38.5238721,11.3424906 38.9064714,11.7876226 39.0413737,11.9356981 L37.833569,13.296" id="Fill-7" fill="#1A1919" mask="url(#mask-4)"></path>
                        <polyline id="Fill-8" fill="#1A1919" mask="url(#mask-4)" points="44.1933805 10.9960755 45.8316094 14.3343396 47.5564646 10.9960755 49.6751987 10.9960755 46.7808889 15.7453585 46.7808889 19.7266415 44.8827811 19.7266415 44.8827811 15.8191698 41.9997508 10.9960755 44.1933805 10.9960755"></polyline>
                        <path d="M56.4952121,13.296 C56.3973064,13.1601509 55.941165,12.4677736 55.2134141,12.4677736 C54.7455421,12.4677736 54.3142155,12.7766038 54.3142155,13.2715472 C54.3268485,13.9516981 55.1407744,14.2605283 55.5599192,14.4588679 C56.3842222,14.8175094 56.6310168,14.9655849 56.9761684,15.2499623 C57.3095892,15.5343396 57.8135556,16.0664151 57.8135556,17.1047547 C57.8135556,18.1933585 57.2843232,18.8114717 56.9761684,19.0963019 C56.8899933,19.1827925 56.6675623,19.3929057 56.3603098,19.5536604 C55.718734,19.8996226 55.0045185,19.9245283 54.7694545,19.9245283 C54.5849226,19.9245283 53.8955219,19.8996226 53.3044781,19.677283 C52.6141751,19.4173585 52.0601279,18.8363774 51.9112391,18.6878491 L53.1686734,17.3026415 C53.5751852,17.7604528 54.0678721,18.3165283 54.7825387,18.3165283 C55.3492189,18.3165283 55.8423569,17.8963019 55.8423569,17.3026415 C55.8423569,17.117434 55.7936296,16.9562264 55.6948215,16.8081509 C55.4611111,16.4490566 54.8939798,16.2144906 54.5610101,16.0664151 C54.1170505,15.8440755 53.6861751,15.6090566 53.3044781,15.312 C52.9958721,15.0647547 52.343468,14.4461887 52.343468,13.3580377 C52.343468,12.6285283 52.6389899,12.1458113 52.7869764,11.9239245 C53.5503704,10.8226415 54.7577239,10.7610566 55.1890505,10.7610566 C55.3871178,10.7610566 56.0268889,10.7981887 56.618835,11.0698868 C57.1859663,11.3424906 57.5667609,11.7876226 57.703468,11.9356981 L56.4952121,13.296" id="Fill-9" fill="#1A1919" mask="url(#mask-4)"></path>
                    </g>
                    <polyline id="Fill-11" fill="#1A1919" points="101.557562 15.0715472 101.557562 16.7533585 99.6973535 16.7533585 99.6973535 23.8021132 97.81233 23.8021132 97.81233 16.7782642 95.9521212 16.7782642 95.9521212 15.0715472 101.557562 15.0715472"></polyline>
                    <polyline id="Fill-12" fill="#1A1919" points="110.516613 15.0715472 110.516613 16.7651321 107.460781 16.7651321 107.460781 18.4972075 110.44262 18.4972075 110.44262 20.1912453 107.460781 20.1912453 107.460781 22.0582642 110.504431 22.0582642 110.504431 23.8021132 105.575758 23.8021132 105.575758 15.0715472 110.516613 15.0715472"></polyline>
                    <g id="Group-16" transform="translate(114.599327, 14.490566)">
                        <mask id="mask-6" fill="white">
                            <use xlink:href="#path-5"></use>
                        </mask>
                        <g id="Clip-14"></g>
                        <path d="M4.48155556,4.30324528 C4.6543569,4.82218868 4.83888889,5.33026415 4.99950842,5.86143396 C5.07259933,6.10867925 5.1339596,6.35592453 5.19622222,6.60362264 C5.31894276,6.1829434 5.4416633,5.77449057 5.56618855,5.35426415 C5.71327273,4.90913208 5.87389226,4.464 6.02142761,4.01886792 L7.22878114,0.580981132 L9.16388552,0.580981132 L10.3956027,9.31154717 L8.56020875,9.31154717 L8.04315825,5.10701887 C8.00571044,4.69901887 7.95608081,4.29056604 7.93171717,3.88256604 C7.918633,3.58596226 7.918633,3.28935849 7.918633,2.99184906 C7.70973737,3.73403774 7.47557576,4.47667925 7.22878114,5.20618868 L5.78726599,9.31154717 L4.60472727,9.31154717 L3.02740741,4.93403774 C2.89295623,4.57539623 2.76888215,4.21720755 2.67007407,3.84543396 C2.58344781,3.58596226 2.52253872,3.32603774 2.44809428,3.05433962 C2.44809428,3.38762264 2.43591246,3.70958491 2.42282828,4.04377358 C2.38718519,4.464 2.33710438,4.88467925 2.28927946,5.30490566 L1.83268687,9.31154717 L0.0216565657,9.31154717 L1.24074074,0.580981132 L3.18712458,0.580981132 L4.48155556,4.30324528" id="Fill-13" fill="#1A1919" mask="url(#mask-6)"></path>
                        <path d="M17.9546465,2.88090566 C17.8562896,2.7450566 17.4001481,2.05267925 16.6728485,2.05267925 C16.2049764,2.05267925 15.7731987,2.36150943 15.7731987,2.85645283 C15.7862828,3.53660377 16.5997576,3.84543396 17.0175488,4.04377358 C17.8427542,4.40241509 18.0895488,4.55049057 18.4351515,4.83486792 C18.7672189,5.11924528 19.2720875,5.65132075 19.2720875,6.68966038 C19.2720875,7.77826415 18.742404,8.39637736 18.4351515,8.68120755 C18.3480741,8.76769811 18.1265455,8.97781132 17.8192929,9.13856604 C17.1786195,9.4845283 16.4639529,9.50943396 16.2293401,9.50943396 C16.0439057,9.50943396 15.3545051,9.4845283 14.7621077,9.26218868 C14.0727071,9.00226415 13.5186599,8.42128302 13.3711246,8.27275472 L14.6276566,6.88754717 C15.0350707,7.34535849 15.5268552,7.90143396 16.2415219,7.90143396 C16.8091044,7.90143396 17.3013401,7.48120755 17.3013401,6.88754717 C17.3013401,6.70233962 17.2521616,6.54113208 17.1524512,6.3930566 C16.9191919,6.03396226 16.3525118,5.79939623 16.0195421,5.65132075 C15.576936,5.42898113 15.1456094,5.19396226 14.7621077,4.89690566 C14.4553064,4.64966038 13.8010976,4.03109434 13.8010976,2.9429434 C13.8010976,2.21343396 14.0979731,1.73071698 14.2455084,1.50883019 C15.0098047,0.40754717 16.2167071,0.345962264 16.6484848,0.345962264 C16.8447475,0.345962264 17.4867744,0.38309434 18.0778182,0.654792453 C18.6444983,0.927396226 19.0266465,1.3725283 19.1615488,1.52060377 L17.9546465,2.88090566" id="Fill-15" fill="#1A1919" mask="url(#mask-6)"></path>
                    </g>
                    <polygon id="Fill-17" fill="#C0C0C0" points="61.7009091 9.96860377 71.4797508 9.96860377 71.4797508 0.154415094 61.7009091 0.154415094"></polygon>
                </g>
            </g>
        </g>
    </g>
</svg>