<?xml version="1.0" encoding="UTF-8"?>
<svg width="169px" height="96px" viewBox="0 0 169 96" version="1.1" xmlns="http://www.w3.org/2000/svg" xmlns:xlink="http://www.w3.org/1999/xlink">
    <!-- Generator: Sketch 47.1 (45422) - http://www.bohemiancoding.com/sketch -->
    <title>Mobiliar</title>
    <desc>Created with Sketch.</desc>
    <defs></defs>
    <g id="Page-1" stroke="none" stroke-width="1" fill="none" fill-rule="evenodd">
        <g id="Kundenlogos-sw" transform="translate(-192.000000, -220.000000)">
            <g id="Mobiliar" transform="translate(192.000000, 183.000000)">
                <rect id="Rectangle-Copy-9" style="mix-blend-mode: color;" x="0" y="0" width="169" height="169"></rect>
                <g id="logo-mobiliar" transform="translate(0.000000, 37.000000)" fill-rule="nonzero">
                    <g id="Label" fill="#292525">
                        <rect id="Rectangle-path" x="0" y="0" width="168.772835" height="95.7000574"></rect>
                    </g>
                    <g id="Logo_deutsch" transform="translate(19.235772, 56.497608)" fill="#FFFFFF">
                        <g id="Group">
                            <g id="Shape">
                                <path d="M31.008523,6.83896651 C30.420458,6.26939713 29.5988157,5.98047847 28.5655799,5.98047847 C27.5424201,5.98047847 26.5934553,6.20738756 25.7475393,6.65523445 C24.9039133,7.10124402 24.1876098,7.67632536 23.6174065,8.36256459 C22.8232439,9.31062201 22.2612846,10.4419522 21.9480163,11.7239426 C21.635664,13.005933 21.4785718,14.2860861 21.4785718,15.5276555 C21.4785718,17.0682488 21.8124499,18.2808804 22.4715041,19.1315598 C23.1328482,19.9882105 24.1179946,20.4227368 25.3994634,20.4227368 C26.4638428,20.4227368 27.4306694,20.2344115 28.2710894,19.8628134 C29.1101355,19.49489 29.8159051,19.0663349 30.3677886,18.5890909 L30.3796965,18.5785263 L30.3870244,18.5642871 C30.4836612,18.3516172 30.5665583,18.099445 30.6320515,17.814201 C30.6989187,17.5252823 30.7328103,17.2437129 30.7328103,16.9745455 L30.7328103,16.8335311 L30.6164797,16.9134545 C30.3224472,17.1169378 29.9890271,17.3002105 29.6258374,17.4595981 C29.2635637,17.6185263 28.900832,17.7521914 28.5179485,17.8688612 C28.1213252,17.9864498 27.7581355,18.0732632 27.4068537,18.1352727 C27.0468699,18.2000383 26.7134499,18.23311 26.4180434,18.23311 C24.8883415,18.23311 24.1445583,17.1252057 24.1445583,14.8464689 L24.1445583,14.068823 C25.7012818,14.0068134 26.9914526,13.8258373 27.9793469,13.5286507 C28.9905989,13.2254928 29.7930054,12.8451675 30.3654986,12.3964019 C30.9361599,11.9467177 31.3391951,11.4354833 31.5626965,10.8751005 C31.7807019,10.3197703 31.8906206,9.74836364 31.8906206,9.17603828 C31.8901626,8.19307177 31.5933821,7.40715789 31.008523,6.83896651 Z M29.2882954,10.3431962 C29.1779187,10.6697799 28.9434255,10.9720191 28.5926016,11.2425646 C28.2326179,11.52 27.7036341,11.753799 27.0198482,11.9379904 C26.3452222,12.1217225 25.4635827,12.2315024 24.3250081,12.2733014 C24.3982873,11.7836555 24.503168,11.2926316 24.6359864,10.8112536 C24.7733848,10.3133397 24.9744444,9.84160766 25.2359593,9.41075598 C25.5501436,8.87425837 25.9609648,8.44432536 26.4569729,8.13152153 C26.951607,7.81825837 27.4902087,7.66070813 28.058122,7.66070813 C28.562374,7.66070813 28.9127398,7.81228708 29.1289133,8.12371292 C29.3450867,8.44111005 29.4536314,8.84210526 29.4536314,9.31705263 C29.4536314,9.67211483 29.3995881,10.0078852 29.2882954,10.3431962 Z"></path>
                                <path d="M18.169103,4.3824689 C18.6206856,4.3824689 19.0044851,4.22721531 19.3104255,3.92084211 C19.6154499,3.61400957 19.769794,3.18086124 19.769794,2.63379904 C19.769794,2.12486124 19.6200298,1.72065072 19.3237073,1.43311005 C19.0283008,1.14602871 18.6412954,1.00133971 18.169103,1.00133971 C17.7175203,1.00133971 17.3282249,1.15613397 17.0144986,1.46112919 C16.6993984,1.76796172 16.5395583,2.16252632 16.5395583,2.63425837 C16.5395583,3.79360766 17.0886938,4.3824689 18.169103,4.3824689 Z"></path>
                                <path d="M17.5709621,18.0608612 C17.5361545,17.9235215 17.5315745,17.8706986 17.5306585,17.861512 L18.9527317,6.28685167 L18.8954824,6.2689378 C18.7754878,6.22943541 18.589542,6.20003828 18.3257371,6.18028708 C18.0518564,6.16053589 17.8572087,6.15088995 17.7111084,6.15088995 C17.1253333,6.15088995 16.5858157,6.21887081 16.1081274,6.35207656 C15.632271,6.48574163 15.2191599,6.64099522 14.8591762,6.82472727 C14.7176558,6.96757895 14.5926233,7.21607656 14.4877425,7.56470813 C14.3805718,7.91563636 14.3274444,8.16413397 14.3274444,8.32352153 L14.3274444,8.40620096 L16.3778862,8.18112919 L14.9214634,18.2491866 C14.9214634,18.5073301 15.0208482,18.8431005 15.2255718,19.2744115 C15.4234255,19.6896459 15.6592927,20.066756 15.9276775,20.3947177 L15.9501192,20.4218182 L15.9849268,20.4218182 C16.1951463,20.4218182 16.4511653,20.402067 16.7442818,20.3634833 C17.0250325,20.3294928 17.323187,20.2835598 17.6529431,20.2233876 C17.9552195,20.1659713 18.2574959,20.1012057 18.5762602,20.0231196 C18.8803686,19.9468708 19.1505854,19.8600574 19.3795827,19.7640574 L19.4020244,19.7548708 L19.4139322,19.7332823 C19.5298049,19.539445 19.6365176,19.2711962 19.7322385,18.9349665 C19.8284173,18.5996555 19.8769648,18.3203828 19.8769648,18.1067943 L19.8769648,18.0250335 L17.6364553,18.2556172 C17.6130976,18.2083062 17.5906558,18.142622 17.5709621,18.0608612 Z"></path>
                                <path d="M10.649748,17.993799 C10.6364661,17.9239809 10.6080705,17.7792919 10.6080705,17.7489761 L12.7363713,0.48091866 L12.678206,0.461626794 C12.5582114,0.421205742 12.3658537,0.391808612 12.1084607,0.372976077 C11.8551897,0.354143541 11.6495501,0.344497608 11.4970379,0.344497608 C10.9268347,0.344497608 10.396019,0.412478469 9.9201626,0.546143541 C9.43972629,0.681645933 9.02615718,0.836899522 8.67258537,1.01925359 C8.53152304,1.16072727 8.40649051,1.40968421 8.30160976,1.75877512 C8.19398103,2.10786603 8.14268564,2.35590431 8.14268564,2.51666986 L8.14268564,2.59934928 L10.1651897,2.37519617 L9.5991084,6.49033493 C9.26523035,6.35207656 8.92127642,6.23448804 8.57549051,6.1394067 C8.19169106,6.0342201 7.79460976,5.98047847 7.39523848,5.98047847 C6.27406775,5.98047847 5.24953388,6.24597129 4.34957453,6.77098565 C3.44869919,7.29324402 2.68384824,8.00199043 2.07608943,8.87655502 C1.47199458,9.72861244 1.00667209,10.7281148 0.693403794,11.8484211 C0.382425474,12.9696459 0.224875339,14.1404785 0.224875339,15.3283062 C0.224875339,16.2386986 0.321054201,17.0236938 0.511121951,17.6617033 C0.701647696,18.3015502 0.967284553,18.8297799 1.30253659,19.2335311 C1.63870461,19.638201 2.04265583,19.9413589 2.50477236,20.1342775 C2.96185095,20.3253589 3.47572087,20.4222775 4.03264228,20.4222775 C4.73474797,20.4222775 5.48127913,20.2592153 6.25162602,19.9349282 C7.01281301,19.6147751 7.68606504,19.0718469 8.25260434,18.3235981 L8.29611382,18.3235981 C8.35336314,18.6501818 8.44633604,19.005244 8.57182656,19.3786794 C8.70189702,19.773244 8.8475393,20.112689 9.00234146,20.3850718 L9.02386721,20.4218182 L9.0664607,20.4218182 C9.25790244,20.4218182 9.50247154,20.402067 9.7937561,20.3634833 C10.0740488,20.3304115 10.3726612,20.2835598 10.7047073,20.2233876 C11.0101897,20.1659713 11.32071,20.0989091 11.6280244,20.0231196 C11.9293848,19.9477895 12.2005176,19.8600574 12.4295149,19.7640574 L12.4510407,19.7548708 L12.4643225,19.734201 C12.5797371,19.5431196 12.6869079,19.2794641 12.7835447,18.9501244 C12.8783496,18.6262967 12.927355,18.3525359 12.927355,18.13711 L12.927355,18.0562679 L10.7230271,18.2565359 C10.6964634,18.1917703 10.6717317,18.1058756 10.649748,17.993799 Z M2.87483198,13.6912536 C2.92246341,13.2355981 2.99345257,12.770756 3.08505149,12.3095885 C3.1771084,11.8484211 3.30488889,11.3881722 3.46518699,10.944 C3.61907317,10.5145263 3.8109729,10.123177 4.03768022,9.78143541 C4.40407588,9.21002871 4.88268022,8.71027751 5.4588374,8.29825837 C6.02995664,7.89358852 6.71007859,7.68826794 7.48225745,7.68826794 C7.79689973,7.68826794 8.1376477,7.73603828 8.49671545,7.82836364 C8.83334146,7.91517703 9.12142005,8.02771292 9.35224932,8.16367464 L8.29473984,16.3112727 C7.9265122,16.9589282 7.46347967,17.4550048 6.91846612,17.7889378 C6.37711653,18.1210335 5.8050813,18.2896077 5.21839024,18.2896077 C4.49155285,18.2896077 3.90257182,18.0305455 3.46701897,17.520689 C3.02688618,17.0076172 2.80430081,16.1463732 2.80430081,14.9603828 C2.80384282,14.5745455 2.82720054,14.1478278 2.87483198,13.6912536 Z"></path>
                            </g>
                            <g transform="translate(36.181572, 0.459330)" id="Shape">
                                <path d="M89.8947182,19.6515215 L85.9069593,19.6515215 L85.9069593,5.90147368 L89.1422331,5.90147368 L89.7055664,7.247311 C90.2198943,6.34932057 91.1216856,5.62909091 93.2083089,5.62909091 L93.8682791,5.62909091 L93.3644851,9.03180861 C93.3644851,9.03180861 92.8794688,8.98955024 92.5423848,8.98955024 C91.3570949,8.98955024 90.4699593,9.64914833 89.8938022,10.6619713 L89.8938022,19.6515215 L89.8947182,19.6515215 Z"></path>
                                <path d="M28.5284824,9.0864689 C27.126103,9.0864689 26.3534661,10.4006124 26.3534661,12.7886699 C26.3534661,15.1597321 27.125645,16.4651483 28.5284824,16.4651483 C29.9546775,16.4651483 30.7062466,15.1937225 30.7062466,12.7886699 C30.7062466,10.3675407 29.9546775,9.0864689 28.5284824,9.0864689 M28.5284824,19.9771866 C23.9183089,19.9771866 22.2841843,16.1050335 22.2841843,12.7886699 C22.2841843,7.47054545 25.5093821,5.57443062 28.5284824,5.57443062 C31.5507886,5.57443062 34.7764444,7.47100478 34.7764444,12.7886699 C34.7764444,18.0888804 31.5507886,19.9771866 28.5284824,19.9771866"></path>
                                <path d="M40.8205989,16.218488 C41.1114255,16.3879809 41.5208726,16.5459904 42.2660298,16.5459904 C43.3752927,16.5459904 44.8514092,16.1376459 44.8514092,12.5985072 C44.8514092,10.2347943 44.1286938,9.0864689 42.6466233,9.0864689 C41.9577995,9.0864689 41.3431707,9.37722488 40.8210569,9.95230622 L40.8210569,16.218488 L40.8205989,16.218488 Z M42.0512304,19.9771866 C39.0687696,19.9771866 37.5564715,18.9266986 36.9111572,18.477933 L36.8323821,18.4241914 L36.8323821,0.553492823 L40.8201409,0.00643062201 L40.8201409,6.91797129 C41.405,6.31762679 42.4551816,5.57397129 44.0824363,5.57397129 C47.1560379,5.57397129 48.9206911,7.95743541 48.9206911,12.1102392 C48.9211491,17.330067 46.6082764,19.9771866 42.0512304,19.9771866 L42.0512304,19.9771866 Z"></path>
                                <path d="M53.1612629,4.64428708 C51.8875799,4.64428708 51.126393,3.90017225 51.126393,2.6544689 L51.126393,2.52999043 C51.126393,1.28015311 51.8669702,0.564976077 53.1612629,0.564976077 C54.4537236,0.564976077 55.1961328,1.28061244 55.1961328,2.52999043 L55.1961328,2.6544689 C55.1965908,3.90017225 54.4349458,4.64428708 53.1612629,4.64428708 L53.1612629,4.64428708 Z M55.1562873,19.6506029 L51.1666965,19.6506029 L51.1666965,5.89963636 L55.1562873,5.89963636 L55.1562873,19.6506029 Z"></path>
                                <polygon points="58.051729 19.6506029 62.0655935 19.6506029 62.0655935 0.00643062201 58.051729 0.564976077"></polygon>
                                <path d="M66.9574336,4.64428708 C65.6855827,4.64428708 64.9234797,3.90017225 64.9234797,2.6544689 L64.9234797,2.52999043 C64.9234797,1.28015311 65.6658889,0.564976077 66.9574336,0.564976077 C68.2489783,0.564976077 68.9923035,1.28061244 68.9923035,2.52999043 L68.9923035,2.6544689 C68.9923035,3.90017225 68.2329485,4.64428708 66.9574336,4.64428708 L66.9574336,4.64428708 Z M68.952,19.6506029 L64.9651572,19.6506029 L64.9651572,5.89963636 L68.952,5.89963636 L68.952,19.6506029 Z"></path>
                                <path d="M79.2697019,15.6888804 C78.8707886,16.2028708 78.2758537,16.464689 77.5004688,16.464689 C76.4232656,16.464689 75.1889702,16.0531292 75.1889702,12.8419522 C75.1889702,10.3142584 76.1292331,9.03134928 77.9868591,9.03134928 C78.5126369,9.03134928 78.9161301,9.09795215 79.2697019,9.24126316 L79.2697019,15.6888804 L79.2697019,15.6888804 Z M83.1892195,6.68095694 C82.6093984,6.37779904 81.0664146,5.57397129 78.3926423,5.57397129 C73.769645,5.57397129 71.1183144,8.27253589 71.1183144,12.9788325 C71.1183144,17.4912919 72.9896802,19.9771866 76.388916,19.9771866 C77.5000108,19.9771866 78.7127805,19.638201 79.3507669,18.8242679 C79.4409919,18.7075981 79.4973252,18.6042488 79.4973252,18.6042488 L79.9319621,19.6423349 L83.2766965,19.6423349 L83.2766965,14.832689 L83.2766965,6.72551196 L83.1892195,6.68095694 Z"></path>
                                <polygon points="15.2154959 0.553492823 10.5673089 13.0794258 5.94431165 0.553492823 1.6648103 0.553492823 0.427308943 19.6478469 4.44254743 19.6478469 5.05122222 9.29362679 9.03485908 19.6478469 12.0718211 19.6478469 16.0279783 9.29316746 16.6366531 19.6478469 20.6802873 19.6478469 19.4418699 0.553492823"></polygon>
                            </g>
                        </g>
                    </g>
                </g>
            </g>
        </g>
    </g>
</svg>