<?xml version="1.0" encoding="UTF-8"?>
<svg width="95px" height="105px" viewBox="0 0 95 105" version="1.1" xmlns="http://www.w3.org/2000/svg" xmlns:xlink="http://www.w3.org/1999/xlink">
    <!-- Generator: Sketch 47.1 (45422) - http://www.bohemiancoding.com/sketch -->
    <title>PEAX</title>
    <desc>Created with Sketch.</desc>
    <defs></defs>
    <g id="Page-1" stroke="none" stroke-width="1" fill="none" fill-rule="evenodd">
        <g id="Kundenlogos-sw" transform="translate(-37.000000, -225.000000)">
            <g id="PEAX" transform="translate(0.000000, 183.000000)">
                <rect id="Rectangle-Copy-8" style="mix-blend-mode: color;" x="0" y="0" width="169" height="169"></rect>
                <g id="PEAX_oClaim" transform="translate(37.000000, 42.000000)" fill-rule="nonzero">
                    <path d="M0.730769231,9.27465231 C0.730769231,9.27465231 -2.19230769,51.0396842 10.8153846,72.9444212 C22.2153846,92.2205898 47.6461538,104.779306 47.6461538,104.779306 C47.6461538,104.779306 72.0538462,94.7031266 83.1615385,73.2364844 C97.4846154,45.6365157 93.8307692,9.12862073 93.8307692,9.12862073 C93.8307692,9.12862073 66.2076923,0.658789083 48.6692308,0.512757503 C21.4846154,0.366725923 0.730769231,9.27465231 0.730769231,9.27465231 Z" id="Shape" fill="#DCDBDB"></path>
                    <path d="M77.9,63.1603053 L77.9,57.3190421 L74.3923077,53.8142842 L77.9,50.3095263 L77.9,44.4682631 L73.2230769,44.4682631 L73.2230769,47.973021 L70.8846154,50.3095263 L68.5461538,47.973021 L68.5461538,44.4682631 L63.8692308,44.4682631 L63.8692308,50.3095263 L67.3769231,53.8142842 L63.8692308,57.3190421 L63.8692308,63.1603053 L68.5461538,63.1603053 L68.5461538,59.6555474 L70.8846154,57.3190421 L73.2230769,59.6555474 L73.2230769,63.1603053 L77.9,63.1603053 Z M56.8538462,56.1507895 L52.1769231,56.1507895 L52.1769231,51.4777789 L54.5153846,49.1412737 L56.8538462,51.4777789 L56.8538462,56.1507895 L56.8538462,56.1507895 Z M61.5307692,63.1603053 L61.5307692,48.9952421 L56.8538462,44.3222315 L56.8538462,43.1539789 L52.1769231,43.1539789 L52.1769231,44.3222315 L47.5,48.9952421 L47.5,63.1603053 L52.1769231,63.1603053 L52.1769231,60.8238001 L56.8538462,60.8238001 L56.8538462,63.1603053 L61.5307692,63.1603053 Z M45.8923077,63.1603053 L45.8923077,58.4872948 L36.5384615,58.4872948 L36.5384615,56.1507895 L41.2153846,56.1507895 L41.2153846,51.4777789 L36.5384615,51.4777789 L36.5384615,49.1412737 L45.8923077,49.1412737 L45.8923077,44.4682631 L31.7153846,44.4682631 L31.7153846,63.3063369 L45.8923077,63.1603053 L45.8923077,63.1603053 Z M25.2846154,53.8142842 L20.6076923,53.8142842 L20.6076923,49.1412737 L25.2846154,49.1412737 L25.2846154,53.8142842 Z M29.9615385,56.1507895 L29.9615385,46.8047684 L27.6230769,44.4682631 L15.9307692,44.4682631 L15.9307692,63.3063369 L20.6076923,63.3063369 L20.6076923,58.6333264 L27.6230769,58.6333264 L29.9615385,56.1507895 Z" id="Shape" fill="#000000"></path>
                    <polygon id="Shape" fill="#000000" points="62.1153846 38.6269999 65.4769231 34.1000209 64.1615385 31.4714525 58.7538462 38.6269999"></polygon>
                    <polygon id="Shape" fill="#000000" points="67.8153846 38.6269999 66.5 35.9984315 64.4538462 38.6269999"></polygon>
                    <polygon id="Shape" fill="#000000" points="56.2692308 38.6269999 63.1384615 29.5730419 61.8230769 26.9444735 53.0538462 38.6269999"></polygon>
                    <polygon id="Shape" fill="#000000" points="45.0153846 37.6047788 58.0230769 20.2270208 54.0769231 21.1032103 43.4076923 35.4143051"></polygon>
                    <polygon id="Shape" fill="#000000" points="50.1307692 38.6269999 60.5076923 24.6079682 59.1923077 21.9793998 46.7692308 38.6269999"></polygon>
                    <polygon id="Shape" fill="#000000" points="49.6923077 18.4746418 40.0461538 31.3254209 41.8 33.369863 51.0076923 21.1032103"></polygon>
                    <polygon id="Shape" fill="#000000" points="47.2076923 13.6555997 26.7461538 40.9635052 29.9615385 40.9635052 31.7153846 38.6269999 31.7153846 38.6269999 48.5230769 16.2841681"></polygon>
                </g>
            </g>
        </g>
    </g>
</svg>