<?xml version="1.0" encoding="UTF-8"?>
<svg width="322px" height="30px" viewBox="0 0 322 30" version="1.1" xmlns="http://www.w3.org/2000/svg" xmlns:xlink="http://www.w3.org/1999/xlink">
    <!-- Generator: Sketch 47.1 (45422) - http://www.bohemiancoding.com/sketch -->
    <title>tocco</title>
    <desc>Created with Sketch.</desc>
    <defs></defs>
    <g id="Page-1" stroke="none" stroke-width="1" fill="none" fill-rule="evenodd">
        <g id="Kundenlogos-sw" transform="translate(-600.000000, -266.000000)">
            <g id="tocco" transform="translate(584.000000, 183.000000)">
                <rect id="Rectangle-Copy-11" style="mix-blend-mode: color;" x="0" y="0" width="352" height="169"></rect>
                <g id="tocco_red" transform="translate(16.000000, 83.000000)" fill-rule="nonzero" fill="#000000">
                    <path d="M110.951207,29.2111111 C110.951207,29.4222222 110.879034,29.4222222 110.740241,29.4222222 L108.147586,29.4222222 C108.008793,29.4222222 107.936621,29.4222222 107.936621,29.2111111 L107.936621,28.7222222 C107.936621,28.5111111 108.008793,28.5111111 108.147586,28.5111111 L108.774931,28.5111111 L108.774931,23.8166667 L108.075414,23.8166667 L108.075414,24.7277778 C108.075414,24.8666667 108.003241,24.8666667 107.936621,24.8666667 L107.381448,24.8666667 C107.242655,24.8666667 107.242655,24.8666667 107.242655,24.7277778 L107.242655,22.9055556 C107.242655,22.7666667 107.242655,22.7666667 107.381448,22.7666667 L111.589655,22.7666667 C111.728448,22.7666667 111.728448,22.7666667 111.728448,22.9055556 L111.728448,24.7277778 C111.728448,24.8666667 111.656276,24.8666667 111.589655,24.8666667 L111.034483,24.8666667 C110.89569,24.8666667 110.89569,24.8666667 110.89569,24.7277778 L110.89569,23.8166667 L110.196172,23.8166667 L110.196172,28.5111111 L110.823517,28.5111111 C110.96231,28.5111111 111.034483,28.5111111 111.034483,28.7222222 L111.034483,29.2111111" id="Shape"></path>
                    <path d="M121.027586,29.2111111 C121.027586,29.4222222 121.027586,29.4222222 120.816621,29.4222222 L116.897103,29.4222222 C116.75831,29.4222222 116.686138,29.4222222 116.686138,29.2111111 L116.686138,28.7222222 C116.686138,28.5111111 116.75831,28.5111111 116.897103,28.5111111 L117.385655,28.5111111 L117.385655,23.6777778 L116.897103,23.6777778 C116.75831,23.6777778 116.686138,23.6777778 116.686138,23.4666667 L116.686138,22.9111111 C116.686138,22.7 116.75831,22.7 116.897103,22.7 L120.816621,22.7 C120.955414,22.7 121.027586,22.7 121.027586,22.8388889 L121.027586,24.3111111 C121.027586,24.5222222 120.955414,24.5222222 120.816621,24.5222222 L120.189276,24.5222222 C120.050483,24.5222222 119.97831,24.5222222 119.97831,24.3111111 L119.97831,23.8222222 L118.718069,23.8222222 L118.718069,25.4333333 L120.383586,25.4333333 C120.594552,25.4333333 120.594552,25.4333333 120.594552,25.6444444 L120.594552,26.2722222 C120.594552,26.4833333 120.522379,26.4833333 120.383586,26.4833333 L118.718069,26.4833333 L118.718069,28.3722222 L119.97831,28.3722222 L119.97831,27.6666667 C119.97831,27.5277778 119.97831,27.4555556 120.189276,27.4555556 L120.816621,27.4555556 C121.027586,27.4555556 121.027586,27.4555556 121.027586,27.6666667 L121.027586,29.2055556" id="Shape"></path>
                    <path d="M130.687586,29 C130.687586,29.2777778 129.849276,29.5555556 129.022069,29.5555556 C127.201103,29.5555556 126.362793,28.4444444 126.362793,26.1222222 C126.362793,23.8 127.201103,22.55 129.022069,22.55 C129.721586,22.55 130.632069,22.8277778 130.632069,23.1777778 L130.632069,24.5111111 C130.632069,24.65 130.559897,24.65 130.493276,24.65 L129.793759,24.65 C129.654966,24.65 129.654966,24.65 129.654966,24.5111111 L129.654966,23.6777778 C129.498927,23.6198858 129.332515,23.5952853 129.166414,23.6055556 C128.255931,23.6055556 127.834,24.1611111 127.834,25.8277778 C127.834,27.4944444 128.044966,28.4888889 129.233034,28.4888889 C129.39932,28.5044899 129.566912,28.4797149 129.721586,28.4166667 L129.721586,27.5277778 C129.721586,27.3888889 129.721586,27.3888889 129.860379,27.3888889 L130.559897,27.3888889 C130.69869,27.3888889 130.69869,27.4611111 130.69869,27.5277778 L130.69869,29" id="Shape"></path>
                    <path d="M141.752172,29.2111111 C141.752172,29.4222222 141.68,29.4222222 141.541207,29.4222222 L139.23169,29.4222222 C139.092897,29.4222222 139.020724,29.4222222 139.020724,29.2111111 L139.020724,28.7222222 C139.020724,28.5111111 139.092897,28.5111111 139.23169,28.5111111 L139.720241,28.5111111 L139.720241,26.55 L137.832655,26.55 L137.832655,28.5111111 L138.321207,28.5111111 C138.46,28.5111111 138.532172,28.5111111 138.532172,28.7222222 L138.532172,29.2777778 C138.532172,29.4888889 138.46,29.4888889 138.321207,29.4888889 L136.017241,29.4888889 C135.878448,29.4888889 135.806276,29.4888889 135.806276,29.2777778 L135.806276,28.7222222 C135.806276,28.5111111 135.878448,28.5111111 136.017241,28.5111111 L136.505793,28.5111111 L136.505793,23.6777778 L136.017241,23.6777778 C135.878448,23.6777778 135.806276,23.6777778 135.806276,23.4666667 L135.806276,22.9111111 C135.806276,22.7 135.878448,22.7 136.017241,22.7 L138.326759,22.7 C138.465552,22.7 138.537724,22.7 138.537724,22.9111111 L138.537724,23.4666667 C138.537724,23.6777778 138.465552,23.6777778 138.326759,23.6777778 L137.838207,23.6777778 L137.838207,25.4277778 L139.725793,25.4277778 L139.725793,23.6777778 L139.237241,23.6777778 C139.098448,23.6777778 139.026276,23.6777778 139.026276,23.4666667 L139.026276,22.9111111 C139.026276,22.7 139.098448,22.7 139.237241,22.7 L141.546759,22.7 C141.685552,22.7 141.757724,22.7 141.757724,22.9111111 L141.757724,23.4666667 C141.757724,23.6777778 141.685552,23.6777778 141.546759,23.6777778 L141.058207,23.6777778 L141.058207,28.5111111 L141.546759,28.5111111 C141.685552,28.5111111 141.757724,28.5111111 141.757724,28.7222222 L141.757724,29.2111111" id="Shape"></path>
                    <path d="M152.17831,29.2111111 C152.17831,29.4222222 152.17831,29.4222222 151.967345,29.4222222 L151.34,29.4222222 C151.201207,29.4222222 151.201207,29.4222222 151.129034,29.2833333 L149.308069,25.9222222 C149.064237,25.5046326 148.877513,25.0561855 148.752897,24.5888889 L148.752897,24.5888889 C148.752897,24.9388889 148.825069,25.2166667 148.825069,25.6388889 L148.825069,28.4166667 L149.313621,28.4166667 C149.452414,28.4166667 149.524586,28.4166667 149.524586,28.6277778 L149.524586,29.1833333 C149.524586,29.3944444 149.452414,29.3944444 149.313621,29.3944444 L147.215069,29.3944444 C147.076276,29.3944444 147.004103,29.3944444 147.004103,29.1833333 L147.004103,28.7222222 C147.004103,28.5111111 147.076276,28.5111111 147.215069,28.5111111 L147.675862,28.5111111 L147.675862,23.6777778 L147.18731,23.6777778 C147.048517,23.6777778 146.976345,23.6777778 146.976345,23.4666667 L146.976345,22.9111111 C146.976345,22.7 147.048517,22.7 147.18731,22.7 L148.658517,22.7 C148.79731,22.7 148.79731,22.7 148.869483,22.8388889 L150.479483,25.85 C150.741921,26.2820932 150.929614,26.7554048 151.034655,27.25 L151.034655,27.25 C151.034655,26.9722222 150.962483,26.2666667 150.962483,25.9888889 L150.962483,23.6055556 L150.473931,23.6055556 C150.335138,23.6055556 150.262966,23.6055556 150.262966,23.3944444 L150.262966,22.8388889 C150.262966,22.6277778 150.335138,22.6277778 150.473931,22.6277778 L152.572483,22.6277778 C152.711276,22.6277778 152.783448,22.6277778 152.783448,22.8388889 L152.783448,23.3944444 C152.783448,23.6055556 152.711276,23.6055556 152.572483,23.6055556 L152.117241,23.6055556 L152.117241,29.2111111" id="Shape"></path>
                    <path d="M161.349759,26.1111111 C161.349759,24.5722222 161.072172,23.5888889 160.300483,23.5888889 C159.528793,23.5888889 159.251207,24.5722222 159.251207,26.1111111 C159.251207,27.65 159.528793,28.5611111 160.300483,28.5611111 C161.072172,28.5611111 161.349759,27.5777778 161.349759,26.1111111 Z M160.300483,29.6111111 C158.762655,29.6111111 157.852172,28.5 157.852172,26.1111111 C157.852172,23.7222222 158.762655,22.6111111 160.300483,22.6111111 C161.83831,22.6111111 162.748793,23.7222222 162.748793,26.1111111 C162.748793,28.5 161.83831,29.6111111 160.300483,29.6111111 L160.300483,29.6111111 Z" id="Shape"></path>
                    <path d="M168.700241,23.6777778 L168.217241,23.6777778 C168.078448,23.6777778 168.006276,23.6777778 168.006276,23.4666667 L168.006276,22.9111111 C168.006276,22.7 168.078448,22.7 168.217241,22.7 L170.526759,22.7 C170.665552,22.7 170.737724,22.7 170.737724,22.9111111 L170.737724,23.4666667 C170.737724,23.6777778 170.665552,23.6777778 170.526759,23.6777778 L169.971586,23.6777778 L169.971586,28.3722222 L171.370621,28.3722222 L171.581586,27.6 C171.581586,27.4611111 171.653759,27.3888889 171.720379,27.3888889 L171.859172,27.3888889 L172.486517,27.5277778 C172.62531,27.5277778 172.697483,27.6 172.697483,27.6666667 L172.697483,27.8055556 L172.419897,29.2055556 C172.429684,29.2640052 172.410633,29.3235842 172.368756,29.3654906 C172.326878,29.407397 172.26734,29.4264611 172.208931,29.4166667 L168.289414,29.4166667 C168.150621,29.4166667 168.078448,29.4166667 168.078448,29.2055556 L168.078448,28.7222222 C168.078448,28.5111111 168.150621,28.5111111 168.289414,28.5111111 L168.772414,28.5111111 L168.772414,23.6777778" id="Shape"></path>
                    <path d="M181.15831,26.1111111 C181.15831,24.5722222 180.880724,23.5888889 180.109034,23.5888889 C179.337345,23.5888889 179.059759,24.5722222 179.059759,26.1111111 C179.059759,27.65 179.337345,28.5611111 180.109034,28.5611111 C180.880724,28.5611111 181.15831,27.5777778 181.15831,26.1111111 Z M180.109034,29.6111111 C178.571207,29.6111111 177.660724,28.5 177.660724,26.1111111 C177.660724,23.7222222 178.571207,22.6111111 180.109034,22.6111111 C181.646862,22.6111111 182.557345,23.7222222 182.557345,26.1111111 C182.557345,28.5 181.646862,29.6111111 180.109034,29.6111111 L180.109034,29.6111111 Z" id="Shape"></path>
                    <path d="M192.42831,28.8611111 C192.42831,29.2833333 191.317966,29.6333333 190.468552,29.6333333 C188.719759,29.6333333 187.875897,28.5222222 187.875897,26.1333333 C187.875897,23.7444444 188.786379,22.5611111 190.468552,22.5611111 C191.240241,22.5611111 192.289517,22.8388889 192.289517,23.2611111 L192.289517,24.5222222 C192.289517,24.6611111 192.289517,24.6611111 192.150724,24.6611111 L191.451207,24.6611111 C191.312414,24.6611111 191.312414,24.6611111 191.312414,24.5222222 L191.312414,23.7444444 C191.111928,23.665327 190.900195,23.6184511 190.685069,23.6055556 C189.702414,23.6055556 189.352655,24.5166667 189.352655,26.0555556 C189.352655,27.5944444 189.630241,28.5777778 190.685069,28.5777778 C190.923136,28.5609933 191.15815,28.5143313 191.384586,28.4388889 L191.384586,26.9 L190.685069,26.9 C190.546276,26.9 190.474103,26.9 190.474103,26.6888889 L190.474103,26.1111111 C190.474103,25.9 190.546276,25.9 190.685069,25.9 L193.066759,25.9 C193.205552,25.9 193.277724,25.9 193.277724,26.1111111 L193.277724,26.6666667 C193.277724,26.8777778 193.205552,26.8777778 193.066759,26.8777778 L192.578207,26.8777778 L192.578207,28.8388889" id="Shape"></path>
                    <path d="M202.02169,29.2111111 C202.02169,29.4222222 201.949517,29.4222222 201.810724,29.4222222 L199.151448,29.4222222 C199.012655,29.4222222 198.940483,29.4222222 198.940483,29.2111111 L198.940483,28.7222222 C198.940483,28.5111111 199.012655,28.5111111 199.151448,28.5111111 L199.778793,28.5111111 L199.778793,26.6666667 L198.240966,23.6555556 L197.963379,23.6555556 C197.824586,23.6555556 197.824586,23.6555556 197.824586,23.5166667 L197.824586,22.9055556 C197.824586,22.7666667 197.824586,22.7666667 197.963379,22.7666667 L199.073724,22.7666667 C199.212517,22.7666667 199.212517,22.7666667 199.28469,22.9055556 L200.061931,24.4444444 C200.232569,24.8027025 200.373681,25.1743081 200.483862,25.5555556 L200.483862,25.5555556 C200.563084,25.1646586 200.705606,24.7893429 200.905793,24.4444444 L201.677483,22.9055556 C201.749655,22.7666667 201.749655,22.7666667 201.888448,22.7666667 L202.937724,22.7666667 C203.076517,22.7666667 203.076517,22.7666667 203.076517,22.9055556 L203.076517,23.5333333 C203.076517,23.6722222 203.076517,23.6722222 202.937724,23.6722222 L202.637931,23.6722222 L201.177828,26.6666667 L201.177828,28.4888889 L201.805172,28.4888889 C201.943966,28.4888889 202.016138,28.4888889 202.016138,28.7 L202.016138,29.1888889" id="Shape"></path>
                    <path d="M221.902414,29.2111111 C221.902414,29.4222222 221.830241,29.4222222 221.691448,29.4222222 L219.659517,29.4222222 C219.520724,29.4222222 219.448552,29.4222222 219.448552,29.2111111 L219.448552,28.7222222 C219.448552,28.5111111 219.520724,28.5111111 219.659517,28.5111111 L220.081448,28.5111111 L220.009276,25.9166667 L220.009276,24.3777778 L220.009276,24.3777778 C219.925941,24.8977452 219.809111,25.4117795 219.659517,25.9166667 L219.104345,27.8055556 C219.032172,27.9444444 219.032172,27.9444444 218.893379,27.9444444 L218.266034,27.9444444 C218.127241,27.9444444 218.127241,27.9444444 218.055069,27.8055556 L217.499897,25.9166667 C217.350302,25.4117795 217.233473,24.8977452 217.150138,24.3777778 L217.150138,24.3777778 L217.150138,25.9166667 L217.072414,28.5111111 L217.494345,28.5111111 C217.633138,28.5111111 217.70531,28.5111111 217.70531,28.7222222 L217.70531,29.2777778 C217.70531,29.4888889 217.633138,29.4888889 217.494345,29.4888889 L215.462414,29.4888889 C215.323621,29.4888889 215.251448,29.4888889 215.251448,29.2777778 L215.251448,28.7222222 C215.251448,28.5111111 215.323621,28.5111111 215.462414,28.5111111 L215.884345,28.5111111 L216.09531,23.6777778 L215.606759,23.6777778 C215.467966,23.6777778 215.395793,23.6777778 215.395793,23.4666667 L215.395793,22.9111111 C215.395793,22.7 215.467966,22.7 215.606759,22.7 L217.272276,22.7 C217.411069,22.7 217.411069,22.7 217.483241,22.8388889 L218.254931,25.2888889 C218.372691,25.6788587 218.465409,26.0759654 218.532517,26.4777778 L218.532517,26.4777778 C218.60469,26.1277778 218.67131,25.7777778 218.810103,25.2888889 L219.581793,22.8388889 C219.653966,22.7 219.653966,22.7 219.792759,22.7 L221.458276,22.7 C221.597069,22.7 221.669241,22.7 221.669241,22.9111111 L221.669241,23.4666667 C221.669241,23.6777778 221.597069,23.6777778 221.458276,23.6777778 L220.969724,23.6777778 L221.18069,28.5111111 L221.602621,28.5111111 C221.741414,28.5111111 221.813586,28.5111111 221.813586,28.7222222 L221.813586,29.2111111" id="Shape"></path>
                    <path d="M231.351448,29.2111111 C231.351448,29.4222222 231.351448,29.4222222 231.140483,29.4222222 L227.220966,29.4222222 C227.082172,29.4222222 227.01,29.4222222 227.01,29.2111111 L227.01,28.7222222 C227.01,28.5111111 227.082172,28.5111111 227.220966,28.5111111 L227.709517,28.5111111 L227.709517,23.6777778 L227.220966,23.6777778 C227.082172,23.6777778 227.01,23.6777778 227.01,23.4666667 L227.01,22.9111111 C227.01,22.7 227.082172,22.7 227.220966,22.7 L231.140483,22.7 C231.279276,22.7 231.351448,22.7 231.351448,22.8388889 L231.351448,24.3111111 C231.351448,24.5222222 231.279276,24.5222222 231.140483,24.5222222 L230.507586,24.5222222 C230.368793,24.5222222 230.296621,24.5222222 230.296621,24.3111111 L230.296621,23.8222222 L229.036379,23.8222222 L229.036379,25.4333333 L230.701897,25.4333333 C230.912862,25.4333333 230.912862,25.4333333 230.912862,25.6444444 L230.912862,26.2722222 C230.912862,26.4833333 230.84069,26.4833333 230.701897,26.4833333 L229.036379,26.4833333 L229.036379,28.3722222 L230.296621,28.3722222 L230.296621,27.6666667 C230.296621,27.5277778 230.296621,27.4555556 230.507586,27.4555556 L231.134931,27.4555556 C231.345897,27.4555556 231.345897,27.4555556 231.345897,27.6666667 L231.345897,29.2055556" id="Shape"></path>
                    <path d="M241.011448,29.2111111 C241.011448,29.4222222 241.011448,29.4222222 240.800483,29.4222222 L236.880966,29.4222222 C236.742172,29.4222222 236.67,29.4222222 236.67,29.2111111 L236.67,28.7222222 C236.67,28.5111111 236.742172,28.5111111 236.880966,28.5111111 L237.369517,28.5111111 L237.369517,23.6777778 L236.880966,23.6777778 C236.742172,23.6777778 236.67,23.6777778 236.67,23.4666667 L236.67,22.9111111 C236.67,22.7 236.742172,22.7 236.880966,22.7 L240.800483,22.7 C240.939276,22.7 241.011448,22.7 241.011448,22.8388889 L241.011448,24.3111111 C241.011448,24.5222222 240.939276,24.5222222 240.800483,24.5222222 L240.100966,24.5222222 C239.962172,24.5222222 239.89,24.5222222 239.89,24.3111111 L239.89,23.8222222 L238.724138,23.8222222 L238.724138,25.4333333 L240.389655,25.4333333 C240.600621,25.4333333 240.600621,25.4333333 240.600621,25.6444444 L240.600621,26.2722222 C240.600621,26.4833333 240.528448,26.4833333 240.389655,26.4833333 L238.724138,26.4833333 L238.724138,28.3722222 L239.984379,28.3722222 L239.984379,27.6666667 C239.984379,27.5277778 239.984379,27.4555556 240.195345,27.4555556 L240.82269,27.4555556 C241.033655,27.4555556 241.033655,27.4555556 241.033655,27.6666667 L241.033655,29.2055556" id="Shape"></path>
                    <path d="M249.971931,29.2111111 C249.971931,29.4222222 249.899759,29.4222222 249.760966,29.4222222 L247.16831,29.4222222 C247.029517,29.4222222 246.957345,29.4222222 246.957345,29.2111111 L246.957345,28.7222222 C246.957345,28.5111111 247.029517,28.5111111 247.16831,28.5111111 L247.795655,28.5111111 L247.795655,23.8166667 L247.096138,23.8166667 L247.096138,24.7277778 C247.096138,24.8666667 247.023966,24.8666667 246.957345,24.8666667 L246.402172,24.8666667 C246.263379,24.8666667 246.263379,24.8666667 246.263379,24.7277778 L246.263379,22.9055556 C246.263379,22.7666667 246.263379,22.7666667 246.402172,22.7666667 L250.604828,22.7666667 C250.743621,22.7666667 250.743621,22.7666667 250.743621,22.9055556 L250.743621,24.7277778 C250.743621,24.8666667 250.671448,24.8666667 250.604828,24.8666667 L250.049655,24.8666667 C249.910862,24.8666667 249.910862,24.8666667 249.910862,24.7277778 L249.910862,23.8166667 L249.211345,23.8166667 L249.211345,28.5111111 L249.827586,28.5111111 C249.966379,28.5111111 250.038552,28.5111111 250.038552,28.7222222 L250.038552,29.2111111" id="Shape"></path>
                    <path d="M258.510483,23.7444444 C258.314967,23.6500726 258.100189,23.6025225 257.883138,23.6055556 C257.658071,23.5773885 257.431506,23.6448794 257.258475,23.7916353 C257.085443,23.9383913 256.981777,24.1509844 256.972655,24.3777778 C256.972655,25.15 258.083,25.2888889 259.004586,25.9166667 C259.728325,26.4350409 260.025151,27.3680284 259.734103,28.2096981 C259.443056,29.0513677 258.633464,29.60123 257.744345,29.5611111 C257.044828,29.5611111 255.712414,29.35 255.712414,28.9333333 L255.712414,27.4611111 C255.712414,27.3222222 255.712414,27.3222222 255.851207,27.3222222 L256.550724,27.3222222 C256.689517,27.3222222 256.689517,27.3222222 256.689517,27.4611111 L256.689517,28.3722222 C256.973854,28.5085958 257.284702,28.5806713 257.6,28.5833333 C257.849703,28.6143731 258.099753,28.5284125 258.277676,28.3503661 C258.4556,28.1723198 258.541501,27.9220972 258.510483,27.6722222 C258.510483,26.8333333 257.527828,26.6888889 256.550724,26.1333333 C255.987178,25.83603 255.656778,25.2295134 255.712414,24.5944444 C255.712414,23.1944444 256.695069,22.6333333 257.883138,22.6333333 C258.582655,22.6333333 259.631931,22.9111111 259.631931,23.2611111 L259.631931,24.5944444 C259.631931,24.7333333 259.559759,24.7333333 259.493138,24.7333333 L258.793621,24.7333333 C258.654828,24.7333333 258.654828,24.7333333 258.654828,24.5944444 L258.654828,23.7444444" id="Shape"></path>
                    <path d="M275.032414,23.7444444 C274.836898,23.6500726 274.62212,23.6025225 274.405069,23.6055556 C274.180002,23.5773885 273.953437,23.6448794 273.780406,23.7916353 C273.607374,23.9383913 273.503708,24.1509844 273.494586,24.3777778 C273.494586,25.15 274.604931,25.2888889 275.526517,25.9166667 C276.252452,26.4360763 276.549161,27.3723076 276.255039,28.2154379 C275.960918,29.0585682 275.146423,29.6066269 274.255172,29.5611111 C273.555655,29.5611111 272.223241,29.35 272.223241,28.9333333 L272.223241,27.4611111 C272.223241,27.3222222 272.223241,27.3222222 272.362034,27.3222222 L273.061552,27.3222222 C273.200345,27.3222222 273.200345,27.3222222 273.200345,27.4611111 L273.200345,28.3722222 C273.484682,28.5085958 273.79553,28.5806713 274.110828,28.5833333 C274.36053,28.6143731 274.61058,28.5284125 274.788504,28.3503661 C274.966427,28.1723198 275.052329,27.9220972 275.02131,27.6722222 C275.02131,26.8333333 274.038655,26.6888889 273.061552,26.1333333 C272.498005,25.83603 272.167605,25.2295134 272.223241,24.5944444 C272.223241,23.1944444 273.205897,22.6333333 274.393966,22.6333333 C275.093483,22.6333333 276.142759,22.9111111 276.142759,23.2611111 L276.142759,24.5944444 C276.142759,24.7333333 276.070586,24.7333333 276.003966,24.7333333 L275.31,24.7333333 C275.171207,24.7333333 275.171207,24.7333333 275.171207,24.5944444 L275.171207,23.7444444" id="Shape"></path>
                    <path d="M283.693103,25.7055556 C284.248276,25.7055556 284.803448,25.6333333 284.803448,24.6555556 C284.803448,23.8166667 284.314897,23.7444444 283.754172,23.7444444 L283.332241,23.7444444 L283.332241,25.7055556 L283.693103,25.7055556 Z M284.248276,29.2055556 C284.248276,29.4166667 284.176103,29.4166667 284.03731,29.4166667 L281.589,29.4166667 C281.450207,29.4166667 281.378034,29.4166667 281.378034,29.2055556 L281.378034,28.7222222 C281.378034,28.5111111 281.450207,28.5111111 281.589,28.5111111 L282.077552,28.5111111 L282.077552,23.6777778 L281.589,23.6777778 C281.450207,23.6777778 281.378034,23.6777778 281.378034,23.4666667 L281.378034,22.9111111 C281.378034,22.7 281.450207,22.7 281.589,22.7 L283.898517,22.7 C284.670207,22.7 286.119207,22.7 286.119207,24.5222222 C286.151335,25.1164797 285.925903,25.695753 285.500618,26.111756 C285.075333,26.527759 284.49148,26.740108 283.898517,26.6944444 L283.409966,26.6944444 L283.409966,28.4444444 L284.03731,28.4444444 C284.176103,28.4444444 284.248276,28.4444444 284.248276,28.6555556 L284.248276,29.2111111 L284.248276,29.2055556 Z" id="Shape"></path>
                    <path d="M294.002655,29.2111111 C294.002655,29.4222222 293.930483,29.4222222 293.79169,29.4222222 L291.465517,29.4222222 C291.326724,29.4222222 291.254552,29.4222222 291.254552,29.2111111 L291.254552,28.7222222 C291.254552,28.5111111 291.326724,28.5111111 291.465517,28.5111111 L291.954069,28.5111111 L291.954069,23.6777778 L291.465517,23.6777778 C291.326724,23.6777778 291.254552,23.6777778 291.254552,23.4666667 L291.254552,22.9111111 C291.254552,22.7 291.326724,22.7 291.465517,22.7 L293.775034,22.7 C293.913828,22.7 293.986,22.7 293.986,22.9111111 L293.986,23.4666667 C293.986,23.6777778 293.913828,23.6777778 293.775034,23.6777778 L293.286483,23.6777778 L293.286483,28.5111111 L293.775034,28.5111111 C293.913828,28.5111111 293.986,28.5111111 293.986,28.7222222 L293.986,29.2111111" id="Shape"></path>
                    <path d="M301.491931,25.6388889 C302.119276,25.6388889 302.68,25.5666667 302.68,24.6555556 C302.68,23.7444444 302.124828,23.7444444 301.630724,23.7444444 L301.280966,23.7444444 L301.280966,25.6333333 L301.491931,25.6333333 L301.491931,25.6388889 Z M304.711931,29.2111111 C304.711931,29.4222222 304.639759,29.4222222 304.500966,29.4222222 L303.240724,29.4222222 C303.101931,29.4222222 303.101931,29.4222222 303.029759,29.2833333 L301.697345,26.6666667 L301.208793,26.6666667 L301.208793,28.4888889 L301.697345,28.4888889 C301.836138,28.4888889 301.90831,28.4888889 301.90831,28.7 L301.90831,29.2555556 C301.90831,29.4666667 301.836138,29.4666667 301.697345,29.4666667 L299.476655,29.4666667 C299.337862,29.4666667 299.26569,29.4666667 299.26569,29.2555556 L299.26569,28.7 C299.26569,28.4888889 299.337862,28.4888889 299.476655,28.4888889 L299.965207,28.4888889 L299.965207,23.6555556 L299.476655,23.6555556 C299.337862,23.6555556 299.26569,23.6555556 299.26569,23.4444444 L299.26569,22.8888889 C299.26569,22.6777778 299.337862,22.6777778 299.476655,22.6777778 L301.786172,22.6777778 C302.557862,22.6777778 304.006862,22.75 304.006862,24.5666667 C304.056119,25.3471979 303.612476,26.0752747 302.896517,26.3888889 L304.084586,28.4222222 L304.506517,28.4222222 C304.64531,28.4222222 304.717483,28.4222222 304.717483,28.6333333 L304.717483,29.1888889 L304.711931,29.2111111 Z" id="Shape"></path>
                    <path d="M312.34,29.2111111 C312.34,29.4222222 312.267828,29.4222222 312.129034,29.4222222 L309.819517,29.4222222 C309.680724,29.4222222 309.608552,29.4222222 309.608552,29.2111111 L309.608552,28.7222222 C309.608552,28.5111111 309.680724,28.5111111 309.819517,28.5111111 L310.308069,28.5111111 L310.308069,23.6777778 L309.819517,23.6777778 C309.680724,23.6777778 309.608552,23.6777778 309.608552,23.4666667 L309.608552,22.9111111 C309.608552,22.7 309.680724,22.7 309.819517,22.7 L312.129034,22.7 C312.267828,22.7 312.34,22.7 312.34,22.9111111 L312.34,23.4666667 C312.34,23.6777778 312.267828,23.6777778 312.129034,23.6777778 L311.640483,23.6777778 L311.640483,28.5111111 L312.129034,28.5111111 C312.267828,28.5111111 312.34,28.5111111 312.34,28.7222222 L312.34,29.2111111" id="Shape"></path>
                    <path d="M321.22831,29.2111111 C321.22831,29.4222222 321.156138,29.4222222 321.017345,29.4222222 L318.42469,29.4222222 C318.285897,29.4222222 318.213724,29.4222222 318.213724,29.2111111 L318.213724,28.7222222 C318.213724,28.5111111 318.285897,28.5111111 318.42469,28.5111111 L319.052034,28.5111111 L319.052034,23.8166667 L318.352517,23.8166667 L318.352517,24.7277778 C318.352517,24.8666667 318.280345,24.8666667 318.213724,24.8666667 L317.658552,24.8666667 C317.519759,24.8666667 317.519759,24.8666667 317.519759,24.7277778 L317.519759,22.9055556 C317.519759,22.7666667 317.519759,22.7666667 317.658552,22.7666667 L321.861207,22.7666667 C322,22.7666667 322,22.7666667 322,22.9055556 L322,24.7277778 C322,24.8666667 321.927828,24.8666667 321.861207,24.8666667 L321.306034,24.8666667 C321.167241,24.8666667 321.167241,24.8666667 321.167241,24.7277778 L321.167241,23.8166667 L320.467724,23.8166667 L320.467724,28.5111111 L321.095069,28.5111111 C321.233862,28.5111111 321.306034,28.5111111 321.306034,28.7222222 L321.306034,29.2111111" id="Shape"></path>
                    <path d="M41.9321724,9.59444444 C40.3991061,9.59444444 39.1563103,8.35079097 39.1563103,6.81666667 C39.1563103,5.28254236 40.3991061,4.03888889 41.9321724,4.03888889 C43.4652387,4.03888889 44.7080345,5.28254236 44.7080345,6.81666667 C44.6900497,8.34327413 43.457727,9.5764472 41.9321724,9.59444444 L41.9321724,9.59444444 Z M41.9321724,-4.93447514e-16 C40.1282439,-0.0104218811 38.3951845,0.702072145 37.1195931,1.97854383 C35.8440017,3.25501551 35.1319991,4.98927096 35.1424138,6.79444444 C35.1424138,10.5469125 38.1822923,13.5888889 41.9321724,13.5888889 C45.6820526,13.5888889 48.721931,10.5469125 48.721931,6.79444444 C48.7323457,4.98927096 48.0203431,3.25501551 46.7447517,1.97854383 C45.4691604,0.702072145 43.7361009,-0.0104218811 41.9321724,-4.93447514e-16 L41.9321724,-4.93447514e-16 Z" id="Shape"></path>
                    <path d="M67.7587931,8.05555556 C67.1286217,9.26606152 65.7129769,9.83906455 64.4190204,9.40737762 C63.1250639,8.97569069 62.3362407,7.66723792 62.558038,6.32049111 C62.7798354,4.97374431 63.9465267,3.98779221 65.3104828,3.99444444 C66.3582528,4.00182646 67.3094594,4.60834234 67.7587931,5.55555556 L71.9614483,5.55555556 C71.3109452,2.1093847 68.14623,-0.275096926 64.6567949,0.0518022701 C61.1673599,0.378701467 58.4999122,3.30955502 58.4999122,6.81666667 C58.4999122,10.3237783 61.1673599,13.2546319 64.6567949,13.5815311 C68.14623,13.9084303 71.3109452,11.5239486 71.9614483,8.07777778 L67.7587931,8.07777778" id="Shape"></path>
                    <path d="M134.612655,9.59444444 C133.079589,9.59444444 131.836793,8.35079097 131.836793,6.81666667 C131.836793,5.28254236 133.079589,4.03888889 134.612655,4.03888889 C136.145721,4.03888889 137.388517,5.28254236 137.388517,6.81666667 C137.370532,8.34327413 136.13821,9.5764472 134.612655,9.59444444 L134.612655,9.59444444 Z M134.612655,4.93461066e-16 C132.808727,-0.0104218811 131.075667,0.702072145 129.800076,1.97854383 C128.524485,3.25501551 127.812482,4.98927096 127.822897,6.79444444 C127.822897,10.5469125 130.862775,13.5888889 134.612655,13.5888889 C138.362535,13.5888889 141.402414,10.5469125 141.402414,6.79444444 C141.412828,4.98927096 140.700826,3.25501551 139.425234,1.97854383 C138.149643,0.702072145 136.416584,-0.0104218811 134.612655,4.93461066e-16 L134.612655,4.93461066e-16 Z" id="Shape"></path>
                    <path d="M82.4597586,8.05555556 C81.8295873,9.26606152 80.4139425,9.83906455 79.1199859,9.40737762 C77.8260294,8.97569069 77.0372062,7.66723792 77.2590035,6.32049111 C77.4808009,4.97374431 78.6474923,3.98779221 80.0114483,3.99444444 C81.0592184,4.00182646 82.0104249,4.60834234 82.4597586,5.55555556 L86.6624138,5.55555556 C86.0119107,2.1093847 82.8471955,-0.275096926 79.3577604,0.0518022701 C75.8683254,0.378701467 73.2008778,3.30955502 73.2008778,6.81666667 C73.2008778,10.3237783 75.8683254,13.2546319 79.3577604,13.5815311 C82.8471955,13.9084303 86.0119107,11.5239486 86.6624138,8.07777778 L82.4597586,8.07777778" id="Shape"></path>
                    <polyline id="Shape" points="13.0187931 0.211111111 0 0.211111111 0 4.20555556 4.48024138 4.20555556 4.48024138 13.3111111 8.53855172 13.3111111 8.53855172 4.20555556 13.0187931 4.20555556 13.0187931 0.211111111"></polyline>
                </g>
            </g>
        </g>
    </g>
</svg>