<?xml version="1.0" encoding="UTF-8"?>
<svg width="142px" height="14px" viewBox="0 0 142 14" version="1.1" xmlns="http://www.w3.org/2000/svg" xmlns:xlink="http://www.w3.org/1999/xlink">
    <!-- Generator: Sketch 47.1 (45422) - http://www.bohemiancoding.com/sketch -->
    <title>tocco v2</title>
    <desc>Created with Sketch.</desc>
    <defs></defs>
    <g id="Page-1" stroke="none" stroke-width="1" fill="none" fill-rule="evenodd">
        <g id="Kundenlogos-sw" transform="translate(-16.000000, -467.000000)">
            <g id="tocco-v2" transform="translate(0.000000, 384.000000)">
                <rect id="Rectangle-Copy-11" style="mix-blend-mode: color;" x="0" y="0" width="169" height="169"></rect>
                <g id="tocco_red" transform="translate(16.000000, 83.000000)" fill-rule="nonzero" fill="#000000">
                    <path d="M41.9321724,9.59444444 C40.3991061,9.59444444 39.1563103,8.35079097 39.1563103,6.81666667 C39.1563103,5.28254236 40.3991061,4.03888889 41.9321724,4.03888889 C43.4652387,4.03888889 44.7080345,5.28254236 44.7080345,6.81666667 C44.6900497,8.34327413 43.457727,9.5764472 41.9321724,9.59444444 L41.9321724,9.59444444 Z M41.9321724,-4.93447514e-16 C40.1282439,-0.0104218811 38.3951845,0.702072145 37.1195931,1.97854383 C35.8440017,3.25501551 35.1319991,4.98927096 35.1424138,6.79444444 C35.1424138,10.5469125 38.1822923,13.5888889 41.9321724,13.5888889 C45.6820526,13.5888889 48.721931,10.5469125 48.721931,6.79444444 C48.7323457,4.98927096 48.0203431,3.25501551 46.7447517,1.97854383 C45.4691604,0.702072145 43.7361009,-0.0104218811 41.9321724,-4.93447514e-16 L41.9321724,-4.93447514e-16 Z" id="Shape"></path>
                    <path d="M67.7587931,8.05555556 C67.1286217,9.26606152 65.7129769,9.83906455 64.4190204,9.40737762 C63.1250639,8.97569069 62.3362407,7.66723792 62.558038,6.32049111 C62.7798354,4.97374431 63.9465267,3.98779221 65.3104828,3.99444444 C66.3582528,4.00182646 67.3094594,4.60834234 67.7587931,5.55555556 L71.9614483,5.55555556 C71.3109452,2.1093847 68.14623,-0.275096926 64.6567949,0.0518022701 C61.1673599,0.378701467 58.4999122,3.30955502 58.4999122,6.81666667 C58.4999122,10.3237783 61.1673599,13.2546319 64.6567949,13.5815311 C68.14623,13.9084303 71.3109452,11.5239486 71.9614483,8.07777778 L67.7587931,8.07777778" id="Shape"></path>
                    <path d="M134.612655,9.59444444 C133.079589,9.59444444 131.836793,8.35079097 131.836793,6.81666667 C131.836793,5.28254236 133.079589,4.03888889 134.612655,4.03888889 C136.145721,4.03888889 137.388517,5.28254236 137.388517,6.81666667 C137.370532,8.34327413 136.13821,9.5764472 134.612655,9.59444444 L134.612655,9.59444444 Z M134.612655,4.93461066e-16 C132.808727,-0.0104218811 131.075667,0.702072145 129.800076,1.97854383 C128.524485,3.25501551 127.812482,4.98927096 127.822897,6.79444444 C127.822897,10.5469125 130.862775,13.5888889 134.612655,13.5888889 C138.362535,13.5888889 141.402414,10.5469125 141.402414,6.79444444 C141.412828,4.98927096 140.700826,3.25501551 139.425234,1.97854383 C138.149643,0.702072145 136.416584,-0.0104218811 134.612655,4.93461066e-16 L134.612655,4.93461066e-16 Z" id="Shape"></path>
                    <path d="M82.4597586,8.05555556 C81.8295873,9.26606152 80.4139425,9.83906455 79.1199859,9.40737762 C77.8260294,8.97569069 77.0372062,7.66723792 77.2590035,6.32049111 C77.4808009,4.97374431 78.6474923,3.98779221 80.0114483,3.99444444 C81.0592184,4.00182646 82.0104249,4.60834234 82.4597586,5.55555556 L86.6624138,5.55555556 C86.0119107,2.1093847 82.8471955,-0.275096926 79.3577604,0.0518022701 C75.8683254,0.378701467 73.2008778,3.30955502 73.2008778,6.81666667 C73.2008778,10.3237783 75.8683254,13.2546319 79.3577604,13.5815311 C82.8471955,13.9084303 86.0119107,11.5239486 86.6624138,8.07777778 L82.4597586,8.07777778" id="Shape"></path>
                    <polyline id="Shape" points="13.0187931 0.211111111 0 0.211111111 0 4.20555556 4.48024138 4.20555556 4.48024138 13.3111111 8.53855172 13.3111111 8.53855172 4.20555556 13.0187931 4.20555556 13.0187931 0.211111111"></polyline>
                </g>
            </g>
        </g>
    </g>
</svg>