<svg xmlns="http://www.w3.org/2000/svg" viewBox="0 0 169 169"><g fill="none" fill-rule="evenodd"><path fill="#6D6E6D" d="M52.495 96.85c.187-.067.34-.158.46-.273.12-.116.21-.25.267-.4.058-.15.087-.313.087-.488 0-.18-.03-.34-.09-.49-.06-.15-.15-.29-.27-.4-.12-.12-.28-.21-.46-.27-.19-.07-.41-.1-.66-.1h-1.38v2.52h1.38c.25 0 .47-.04.66-.1zm.082-3.556c.228-.21.343-.493.343-.85s-.115-.642-.343-.85c-.23-.21-.55-.317-.96-.317h-1.165v2.332h1.166c.41 0 .73-.11.96-.32zm-1.102-2.857c.37 0 .697.048.984.142.28.09.52.22.72.4.19.17.34.38.44.62.1.24.15.5.15.8 0 .27-.04.5-.12.69-.08.18-.16.33-.26.45-.1.11-.19.2-.28.25-.09.05-.14.08-.16.09.02.01.1.03.23.09.12.05.26.14.4.28.14.13.27.31.39.54.11.22.17.52.17.87 0 .33-.06.62-.17.89-.11.26-.27.48-.47.66-.21.18-.46.32-.74.42-.29.1-.61.14-.96.14h-2.24v-7.35h1.88zm6.44 7.358c-.213-.08-.4-.2-.564-.357-.16-.158-.29-.352-.39-.583-.1-.23-.15-.497-.15-.798v-3.12h.86v2.972c0 .21.03.39.09.53.07.14.15.27.25.37.1.1.22.17.36.21.14.04.27.07.42.07.31 0 .56-.08.76-.25.2-.17.35-.35.46-.55v-3.36h.86v4.85h-.79v-.75c-.05.1-.12.2-.21.3-.08.1-.19.19-.31.28-.12.08-.26.15-.42.21-.16.05-.33.08-.52.08-.23 0-.45-.04-.66-.12m6.39-1.19c.09.09.2.17.32.25.13.08.26.14.41.19.15.05.31.07.49.07.11 0 .23-.01.35-.03.12-.02.23-.06.33-.11s.18-.12.25-.2c.07-.08.1-.18.1-.3s-.03-.21-.1-.3c-.06-.08-.15-.15-.25-.21s-.22-.1-.35-.14c-.13-.04-.25-.07-.37-.1-.16-.03-.33-.08-.53-.14-.2-.07-.39-.15-.57-.26-.18-.11-.33-.25-.45-.43-.12-.17-.18-.39-.18-.64 0-.2.04-.38.13-.56.08-.18.2-.34.36-.47.16-.13.34-.24.55-.32.22-.08.45-.12.72-.12.41 0 .76.08 1.05.23.3.15.53.32.71.5l-.56.59c-.12-.12-.29-.25-.48-.36-.2-.12-.44-.17-.73-.17s-.51.07-.66.2c-.15.13-.23.27-.23.43 0 .11.03.2.1.28.07.08.15.14.26.2.11.05.24.1.37.13.14.04.28.07.42.11.18.04.37.09.56.16.2.06.38.15.54.26.17.11.3.25.41.42.11.17.17.38.17.63s-.05.47-.16.66c-.11.19-.25.34-.42.46s-.37.21-.6.27c-.22.06-.45.09-.67.09-.24 0-.46-.03-.67-.09-.21-.06-.4-.13-.57-.23-.17-.1-.32-.21-.46-.33-.14-.12-.25-.24-.34-.37l.6-.57c.06.09.14.18.23.27m5.93 1.182h.86V92.9h-.86v4.85zm.02-6.83c.11-.12.25-.18.4-.18.15 0 .29.06.41.18.11.12.17.26.17.42 0 .16-.05.3-.17.42-.12.12-.26.18-.41.18-.16 0-.3-.06-.41-.18-.12-.12-.18-.26-.18-.42 0-.16.06-.3.18-.42zm6.87 1.964c.21.08.4.2.568.36.17.156.3.35.39.58.1.23.148.496.148.797v3.12h-.86V94.8c0-.21-.03-.39-.09-.536-.06-.15-.142-.27-.24-.37-.1-.1-.22-.17-.35-.218-.13-.046-.27-.07-.42-.07-.15 0-.292.026-.42.075-.13.05-.24.12-.34.2-.1.08-.19.17-.26.27-.08.1-.14.2-.2.29v3.34h-.86v-4.86h.7v.68c.125-.2.308-.39.55-.56.24-.17.548-.25.917-.25.23 0 .456.05.67.12m7.444 1.59c-.064-.15-.156-.29-.275-.43-.12-.13-.27-.24-.45-.32-.18-.09-.393-.13-.64-.13-.252 0-.47.04-.65.13-.18.09-.33.2-.45.33-.11.13-.21.27-.27.43-.06.15-.1.29-.12.42h2.97c0-.13-.04-.28-.1-.43zm-.44-1.51c.284.13.528.3.734.52.205.23.366.5.48.82.118.32.176.68.176 1.07v.14c0 .05-.004.1-.01.15H81.7c.013.18.064.36.152.53.09.17.206.33.35.46.142.14.31.24.5.32.192.08.4.12.626.12.327 0 .612-.07.855-.22.25-.14.44-.31.57-.49l.55.58c-.1.12-.22.24-.35.35-.13.12-.28.22-.45.32-.17.09-.35.16-.55.22-.19.06-.41.08-.64.08-.35 0-.67-.06-.97-.19-.3-.13-.56-.31-.77-.54-.22-.23-.38-.5-.51-.82-.12-.31-.18-.65-.18-1.02 0-.34.06-.67.17-.97.12-.31.27-.58.48-.81.21-.23.46-.41.75-.54.29-.13.61-.2.97-.2.34 0 .64.06.93.19zm4.526 3.61c.09.09.2.18.32.26.12.08.256.14.402.19.15.05.31.08.49.08.11 0 .23-.01.35-.03.12-.03.23-.06.33-.12.1-.05.18-.12.25-.2.07-.08.1-.18.1-.3 0-.11-.03-.21-.09-.3-.06-.08-.15-.15-.26-.21-.1-.05-.22-.1-.34-.13l-.37-.09c-.16-.03-.33-.08-.53-.14-.2-.06-.38-.15-.56-.25-.17-.11-.33-.25-.45-.42-.12-.17-.18-.38-.18-.64 0-.19.04-.38.12-.56.09-.18.2-.33.36-.47.16-.13.34-.24.55-.31.21-.07.45-.11.72-.11.41 0 .76.08 1.05.23.3.158.53.326.7.508l-.56.6c-.12-.13-.28-.25-.48-.36-.2-.12-.44-.18-.73-.18s-.5.06-.65.19c-.15.13-.22.27-.22.43 0 .11.03.205.1.28.07.078.16.14.26.19.11.057.24.1.37.14.14.04.28.07.42.11.18.04.37.09.56.156.2.07.38.15.54.27.16.11.3.256.41.43.11.17.16.38.16.635s-.05.47-.16.652c-.11.19-.25.34-.42.46s-.37.21-.6.27c-.22.06-.45.09-.67.09-.24 0-.46-.03-.67-.09-.21-.06-.4-.14-.57-.24-.17-.1-.32-.21-.46-.322-.13-.12-.25-.24-.33-.37l.59-.57c.06.09.14.18.23.27m6.29 0c.09.09.2.18.32.26.13.08.26.14.41.19.146.05.31.07.486.07.11 0 .223-.01.34-.03.12-.02.23-.06.33-.11s.18-.12.25-.2c.07-.08.1-.18.1-.3 0-.11-.03-.21-.096-.29-.07-.09-.15-.16-.26-.21-.1-.06-.22-.1-.35-.14-.13-.04-.25-.07-.37-.1-.16-.04-.33-.09-.53-.15-.2-.07-.38-.15-.56-.26-.18-.11-.33-.25-.45-.42-.12-.18-.182-.39-.182-.64 0-.2.04-.39.12-.57.08-.18.2-.337.36-.47.15-.13.336-.24.55-.316.21-.07.45-.11.72-.11.405 0 .755.08 1.05.23.3.15.53.32.7.5l-.56.6c-.12-.12-.28-.242-.48-.36-.2-.112-.44-.17-.73-.17s-.5.06-.655.19c-.15.13-.22.27-.22.43 0 .11.03.21.092.28.065.08.15.14.26.2.11.05.23.1.37.136.136.04.276.07.42.11.18.04.36.09.56.16.2.06.38.15.54.26.16.11.3.256.41.428.11.17.16.38.16.63s-.05.47-.16.65c-.11.18-.25.34-.43.45s-.38.21-.6.268c-.23.06-.45.09-.68.09-.24 0-.46-.03-.67-.09-.21-.06-.4-.14-.57-.24-.17-.1-.33-.21-.46-.33-.14-.12-.25-.24-.34-.37l.59-.563c.06.09.14.18.23.27m13.66-1.18c-.07-.13-.17-.26-.29-.36-.127-.11-.27-.21-.44-.3l-.557-.28c-.23-.11-.46-.23-.7-.35-.24-.13-.45-.27-.635-.44-.19-.17-.34-.36-.46-.58-.12-.22-.17-.48-.17-.775 0-.25.04-.49.13-.73s.22-.46.39-.65.38-.342.64-.46c.25-.12.55-.18.89-.18.25 0 .48.03.7.1.21.068.41.15.58.258.17.11.32.22.45.35.13.13.23.25.31.37l-.645.54c-.06-.1-.14-.19-.23-.28-.09-.09-.2-.17-.32-.244-.12-.076-.25-.136-.39-.18-.14-.05-.3-.07-.46-.07-.2 0-.37.03-.52.093-.14.065-.27.15-.37.25-.1.11-.18.23-.23.36-.05.14-.073.28-.073.42 0 .18.037.33.11.46.076.13.18.25.32.36.14.114.31.22.5.33.2.1.43.21.67.323.277.126.52.257.74.393.23.13.41.28.57.44.153.16.27.34.353.54.08.21.12.45.12.72 0 .32-.056.61-.17.87-.11.255-.27.473-.464.65-.2.18-.43.32-.7.41-.27.095-.56.14-.87.14-.31 0-.58-.04-.83-.13-.24-.09-.46-.2-.65-.35-.19-.145-.355-.31-.49-.496s-.25-.373-.33-.56l.72-.44c.06.14.14.286.24.42.1.137.21.258.34.36.13.1.28.19.45.25.17.06.35.096.55.096.17 0 .335-.03.496-.08.16-.05.306-.12.43-.22s.225-.22.3-.36c.074-.15.11-.32.11-.51s-.035-.35-.106-.49m6.57 1.54c.2-.09.37-.22.5-.37s.24-.34.32-.55c.08-.21.11-.44.11-.68 0-.24-.032-.46-.11-.67-.072-.21-.18-.39-.32-.55-.14-.16-.3-.28-.5-.37-.19-.09-.41-.14-.65-.14-.24 0-.45.043-.65.134-.19.09-.36.217-.49.375-.132.154-.24.34-.312.55-.07.21-.11.432-.11.67 0 .24.036.47.11.68.074.21.18.39.32.55.13.16.3.28.49.38.2.09.414.13.65.13.24 0 .46-.04.65-.13zm.32-3.95c.3.13.56.31.78.54.22.23.39.5.516.81.12.31.18.64.18 1s-.06.69-.18 1c-.122.31-.292.58-.51.81-.22.23-.48.41-.773.54-.3.133-.62.2-.97.2s-.67-.067-.97-.2c-.293-.13-.55-.31-.77-.54-.22-.23-.39-.5-.513-.81-.12-.31-.185-.64-.185-1s.062-.69.185-1c.12-.31.29-.58.51-.81.22-.227.48-.407.78-.54.3-.13.62-.2.97-.2s.67.07.97.2zm4.62-.07v-1.7c0-.26.05-.49.14-.68.09-.19.2-.355.34-.485s.3-.23.47-.29c.18-.067.35-.098.53-.098.12 0 .258.01.418.05.16.03.34.11.54.23l-.32.73c-.2-.13-.4-.19-.58-.19-.21 0-.38.07-.5.21-.124.14-.185.33-.185.56v1.61h1.23v.79H121v4.06h-.86v-4h-.982v-.8h.983m5.13 0v-1.48h.86v1.48h1.48v.79h-1.47v2.61c0 .24.06.42.18.55.12.13.28.19.48.19.12 0 .22-.02.31-.06.09-.04.18-.09.27-.15l.32.73c-.2.12-.38.19-.53.23-.16.04-.3.06-.43.06-.17 0-.35-.03-.52-.09-.17-.06-.32-.15-.46-.27-.14-.12-.25-.28-.33-.47-.08-.19-.12-.42-.12-.69V93.7h-.92v-.796h.92m6.6 3.14l1.25-3.14h.58l1.26 3.14 1.26-3.14h.88L134.94 98l-1.557-3.645L131.82 98l-2.16-5.062h.93l1.27 3.14m10.145.82c.228-.163.407-.327.537-.495v-.683c-.136-.097-.314-.18-.532-.246-.22-.067-.45-.1-.697-.1-.383 0-.68.084-.892.253-.21.168-.31.385-.31.65 0 .147.03.275.1.384.06.11.15.2.25.27.11.07.22.13.35.16.13.04.26.05.4.05.32 0 .6-.08.83-.24zm.25-3.935c.26.102.474.236.64.405.168.168.294.36.38.572.085.213.128.433.128.657v3.192h-.79v-.71c-.176.25-.407.45-.69.6-.284.15-.585.22-.907.22-.22 0-.432-.04-.64-.11-.208-.08-.398-.18-.568-.32-.17-.14-.308-.31-.41-.52-.103-.21-.154-.44-.154-.7 0-.25.048-.47.143-.67.097-.2.228-.37.396-.52.167-.15.366-.26.598-.34.24-.08.49-.12.75-.12.3 0 .58.04.82.12.25.08.45.17.6.27v-.26c0-.25-.04-.45-.13-.6-.09-.15-.19-.27-.32-.35-.12-.08-.26-.14-.4-.16-.14-.03-.25-.04-.35-.04-.22 0-.45.04-.7.11-.25.08-.48.18-.7.29l-.36-.74c.2-.12.46-.23.76-.34.31-.11.65-.16 1.02-.16.35 0 .65.05.91.15zm6.558-.12c.12.02.234.052.343.095l-.318.797c-.075-.035-.162-.06-.26-.078-.1-.018-.187-.027-.262-.027-.15 0-.283.027-.4.08-.116.05-.22.117-.312.193-.092.077-.17.165-.235.262-.07.1-.12.194-.16.285v3.34h-.86v-4.852h.79v.745c.06-.113.13-.22.22-.326.08-.105.18-.198.29-.278.11-.09.23-.15.37-.2.13-.05.28-.08.45-.08.1 0 .21.01.33.03m6.05 1.67c-.07-.15-.16-.3-.28-.43-.12-.14-.27-.24-.45-.33-.18-.09-.4-.13-.64-.13-.26 0-.47.04-.65.13-.18.09-.33.2-.45.33s-.21.27-.28.42c-.07.15-.11.29-.12.42h2.97c-.01-.14-.05-.28-.11-.43zm-.44-1.52c.28.12.52.29.73.52.2.22.36.49.48.81.11.31.17.67.17 1.06v.13c0 .04 0 .09-.01.15h-3.82c.01.18.06.36.15.53.09.17.2.32.35.46.14.13.31.24.5.31.19.08.39.11.62.11.33 0 .61-.07.85-.22s.43-.31.57-.49l.54.57c-.11.12-.22.23-.36.35-.14.12-.29.22-.45.31-.17.09-.35.16-.55.21-.2.05-.42.08-.65.08-.35 0-.68-.07-.98-.2-.3-.13-.56-.31-.78-.54-.22-.23-.39-.51-.51-.82-.13-.32-.19-.66-.19-1.02 0-.34.06-.67.17-.98.11-.31.27-.58.48-.81.2-.23.45-.41.74-.55.29-.13.61-.2.96-.2.34 0 .65.06.93.18z"/><path fill="#1D1D1B" d="M18.84 72.858c-.526-.54-1.374-.54-1.9-.003-.524.54-.524 1.412 0 1.95.526.54 1.376.54 1.902 0 .526-.538.526-1.41-.002-1.947m3.627 3.626c-.523-.54-1.375-.54-1.9 0-.524.538-.524 1.41 0 1.947.525.54 1.377.54 1.9 0 .525-.53.525-1.4 0-1.94m.158-7.57c-.638-.65-1.667-.65-2.307 0-.638.66-.638 1.72 0 2.37.64.65 1.67.65 2.307 0 .64-.65.64-1.71 0-2.37m3.63 3.68c-.64-.65-1.673-.65-2.308 0-.64.66-.64 1.72-.002 2.37.637.66 1.672.66 2.31 0 .637-.65.637-1.71 0-2.36m3.58 3.68c-.638-.65-1.67-.65-2.305 0-.64.66-.64 1.72 0 2.37.635.66 1.667.66 2.305 0 .637-.65.637-1.71 0-2.36m4.675 7.17c-.75.77-.75 2.02 0 2.79s1.966.77 2.714 0c.752-.77.752-2.01 0-2.78-.746-.77-1.964-.77-2.713 0m-3.6 3.7c-.75.77-.75 2.02 0 2.79s1.97.77 2.72 0c.75-.77.75-2.01 0-2.78s-1.96-.77-2.71 0m-3.59 3.67c-.75.77-.75 2.02 0 2.79.76.77 1.97.77 2.72 0 .76-.77.76-2.01 0-2.78-.75-.77-1.96-.77-2.71 0m-3.61 3.69c-.75.77-.75 2.01 0 2.78s1.97.77 2.72 0c.76-.77.76-2.02 0-2.78-.75-.77-1.96-.77-2.71 0m17.08-14.7c-.75-.77-1.96-.77-2.71 0s-.75 2.02 0 2.79 1.97.77 2.72 0c.75-.77.75-2.02 0-2.79m-3.58-3.62c-.75-.77-1.96-.77-2.71 0s-.75 2.02 0 2.79 1.97.77 2.72 0c.75-.77.75-2.01 0-2.78m-3.6-3.7c-.75-.77-1.96-.77-2.71 0s-.75 2.02 0 2.79 1.96.77 2.72 0c.75-.77.75-2.01 0-2.78m-3.58-3.67c-.75-.77-1.96-.77-2.71 0s-.75 2.01 0 2.78 1.97.77 2.72 0c.75-.77.75-2.02 0-2.78m-3.61-3.7c-.75-.77-1.96-.77-2.71 0s-.75 2.02 0 2.79 1.97.77 2.72 0c.75-.76.75-2.01 0-2.78m-6.11 25.93c-.64.66-.64 1.72 0 2.37.64.66 1.67.66 2.31 0 .64-.65.64-1.71 0-2.36-.64-.65-1.67-.65-2.31 0M17 87.56c-.527.536-.527 1.41 0 1.946.524.54 1.375.54 1.9.008.52-.54.52-1.418 0-1.95-.53-.54-1.38-.54-1.91 0m3.54-3.72c-.528.534-.528 1.41 0 1.944.522.54 1.373.54 1.9 0 .524-.534.524-1.41 0-1.943-.527-.54-1.378-.54-1.9 0m3.6-3.653c-.52.54-.52 1.41 0 1.95.53.538 1.38.538 1.904 0 .524-.54.524-1.41 0-1.95-.525-.54-1.374-.54-1.903 0m-6.93.135c-.41.42-.41 1.11 0 1.53.41.42 1.08.42 1.49 0 .41-.43.41-1.11 0-1.54-.41-.42-1.08-.42-1.49 0m-3.65 3.65c-.41.424-.41 1.11 0 1.534.41.42 1.08.42 1.5 0 .41-.42.41-1.11 0-1.53-.41-.42-1.08-.42-1.49 0m.3-7.12c-.41.43-.41 1.11 0 1.53.42.43 1.08.43 1.5 0 .42-.42.42-1.1 0-1.53-.41-.42-1.08-.42-1.49 0m-3.57 3.61c-.36.38-.36.99 0 1.36.37.38.96.38 1.32 0 .37-.37.37-.98 0-1.36-.36-.37-.95-.37-1.32 0m13.61 6.88c-.63.66-.63 1.71 0 2.37.64.66 1.67.66 2.31 0 .64-.65.64-1.71 0-2.36-.64-.66-1.67-.66-2.31 0m3.58-3.68c-.63.66-.63 1.72 0 2.37.64.65 1.68.65 2.31 0 .64-.65.64-1.71 0-2.37-.63-.65-1.67-.65-2.31 0M31.12 80c-.63.66-.63 1.71 0 2.37.64.66 1.67.655 2.31 0 .64-.65.64-1.71 0-2.365-.63-.66-1.67-.66-2.31 0"/><path fill="#1A1919" d="M116.235 83.878c.728-.408 1.3-.865 1.72-1.373l1.8 1.823c-.283.354-.63.692-1.034 1.015-.4.323-.86.616-1.37.877-.51.26-1.07.47-1.68.623-.61.154-1.27.23-1.96.23-1.14 0-2.19-.21-3.17-.634-.97-.43-1.82-1.01-2.53-1.76s-1.27-1.63-1.67-2.64c-.4-1.02-.6-2.13-.6-3.33 0-1.2.2-2.31.61-3.33s.96-1.9 1.68-2.65 1.56-1.33 2.54-1.75c.98-.43 2.03-.64 3.15-.64.71 0 1.36.07 1.96.23.6.15 1.15.35 1.64.6.5.24.93.52 1.31.82.37.3.69.59.95.88l-1.82 1.82c-.37-.43-.9-.84-1.58-1.22s-1.49-.57-2.42-.57c-.78 0-1.49.15-2.13.46-.65.31-1.2.73-1.65 1.26-.46.53-.81 1.14-1.07 1.83-.25.69-.38 1.43-.38 2.21 0 .79.13 1.52.38 2.22.26.69.62 1.3 1.08 1.83.47.53 1.02.95 1.67 1.26.65.3 1.36.46 2.14.46.95 0 1.78-.21 2.51-.61m36.62-2.25c-.14-.23-.34-.44-.6-.63-.25-.19-.56-.35-.91-.5-.35-.15-.74-.3-1.16-.45-.57-.22-1.15-.46-1.73-.74-.58-.27-1.11-.61-1.58-1-.47-.4-.86-.85-1.16-1.38-.3-.52-.45-1.14-.45-1.87 0-.61.12-1.21.36-1.78.24-.57.58-1.07 1.02-1.5.45-.43.98-.78 1.61-1.04.63-.26 1.34-.39 2.12-.39.62 0 1.19.07 1.71.23.53.15 1.01.35 1.44.6.44.24.82.52 1.16.83.34.3.63.6.87.9l-1.86 1.89c-.19-.23-.39-.46-.61-.67-.23-.22-.48-.41-.77-.58-.28-.17-.58-.31-.9-.42-.31-.1-.65-.16-1.01-.16-.67 0-1.24.19-1.7.56-.45.37-.68.84-.68 1.43 0 .37.1.68.29.94.2.26.46.49.78.68.32.19.69.37 1.09.52l1.24.48c.58.23 1.14.48 1.68.75s1 .59 1.407.96.73.81.97 1.32.36 1.11.36 1.8c0 .77-.146 1.446-.44 2.03-.292.584-.69 1.07-1.18 1.45-.495.39-1.07.676-1.71.87-.65.19-1.33.29-2.05.29-.75 0-1.43-.1-2.035-.29-.604-.19-1.15-.44-1.64-.75s-.91-.66-1.27-1.06-.67-.8-.92-1.2l2.02-1.75c.18.29.397.58.64.865.25.29.53.547.85.78.313.23.665.42 1.055.56.39.15.82.22 1.3.22.31 0 .622-.03.93-.1.31-.07.59-.18.843-.34.252-.15.46-.357.62-.61.16-.25.232-.56.232-.91 0-.34-.07-.626-.21-.856m-100.54 5.2L57 76.434l4.644 10.34h2.76l-7.43-16.49-7.364 16.5h2.755m85.8-16.15v10.29c0 .9-.14 1.71-.43 2.46-.28.75-.69 1.4-1.21 1.94-.52.55-1.16.98-1.91 1.28-.75.31-1.59.46-2.52.46-.93 0-1.77-.15-2.52-.46-.75-.3-1.39-.73-1.91-1.28-.52-.54-.93-1.19-1.21-1.94-.28-.74-.42-1.56-.42-2.45V70.64h2.7v9.947c0 1.15.28 2.08.84 2.79.56.71 1.41 1.06 2.53 1.06 1.13 0 1.97-.36 2.54-1.06.57-.71.85-1.64.85-2.79v-9.95h2.7m-49.3 16.15l4.62-10.34 4.65 10.34h2.76L93.48 70.3l-7.36 16.497h2.756m-11.1-3.127c-.495.33-1.12.497-1.87.497h-2.88V73.273h2.32c.675 0 1.238.155 1.688.462.45.308.674.83.674 1.57 0 .692-.206 1.188-.618 1.488-.413.3-.994.45-1.744.45l.562 2.63c.75 0 1.373.166 1.87.497.493.33.74.88.74 1.65 0 .77-.247 1.32-.74 1.65zm3.14-3.45c-.234-.477-.496-.862-.79-1.154-.29-.292-.57-.5-.83-.623-.264-.123-.425-.192-.485-.207.09-.047.23-.135.41-.267.18-.13.37-.32.55-.57.19-.25.35-.56.49-.95.14-.39.21-.86.21-1.41 0-.77-.14-1.43-.43-1.99-.28-.56-.66-1.01-1.12-1.38-.46-.36-.99-.63-1.59-.8-.6-.17-1.22-.25-1.86-.25h-5.11v16.16H76c.736 0 1.426-.12 2.07-.35.647-.23 1.205-.56 1.678-.97.473-.42.844-.92 1.114-1.51.27-.6.403-1.25.403-1.98 0-.7-.115-1.3-.348-1.77z"/></g></svg>
