<?xml version="1.0" encoding="UTF-8"?>
<svg width="169px" height="169px" viewBox="0 0 169 169" version="1.1" xmlns="http://www.w3.org/2000/svg" xmlns:xlink="http://www.w3.org/1999/xlink">
    <!-- Generator: Sketch 47.1 (45422) - http://www.bohemiancoding.com/sketch -->
    <title>Adcubum</title>
    <desc>Created with Sketch.</desc>
    <defs></defs>
    <g id="Page-1" stroke="none" stroke-width="1" fill="none" fill-rule="evenodd">
        <g id="Kundenlogos-sw">
            <g id="Adcubum" transform="translate(26.000000, 51.000000)">
                <g id="Page-1">
                    <g>
                        <path d="M19.0175864,32.35584 L19.0175864,16.37824 C19.0175864,11.09664 15.4559129,8.56624 10.2446476,8.56624 C6.94947755,8.56624 4.45462041,9.27664 2.22787211,10.65264 L4.00991293,14.11424 C5.83530068,13.09344 7.70564082,12.64944 10.1105932,12.64944 C12.9610558,12.64944 14.5199401,14.07024 14.5199401,16.59984 L14.5199401,18.33104 C13.2283619,17.75424 11.4912735,17.44304 9.30947755,17.44304 C4.00991293,17.44304 0.00192653061,19.79504 0.00192653061,24.98864 C0.00192653061,30.71344 4.32136871,32.84384 8.10700136,32.84384 C10.6452054,32.84384 12.9161034,31.64544 14.5199401,30.04784 L14.5199401,32.35584 L19.0175864,32.35584 Z M14.5199401,25.74304 C13.4507156,27.20784 11.3130694,28.71664 8.86477007,28.71664 C5.83530068,28.71664 4.36551837,27.16304 4.36551837,24.85504 C4.36551837,22.72464 6.2358585,21.39344 9.17542313,21.39344 C11.6702803,21.39344 13.2733143,21.79264 14.5199401,22.41424 L14.5199401,25.74304 Z" id="Fill-1" fill="#1D1D1B"></path>
                        <path d="M41.4890408,32.35544 L41.4890408,0.00024 L36.9464422,2.35224 L36.9464422,11.22904 C35.6540612,9.80904 33.4281156,8.56584 31.0681156,8.56584 C26.2140612,8.56584 21.8488639,12.33864 21.8488639,20.32744 C21.8488639,29.20424 25.8127007,32.84344 30.8441565,32.84344 C33.2948639,32.84344 35.2535034,31.68984 36.9464422,30.13624 L36.9464422,32.35544 L41.4890408,32.35544 Z M36.9905918,25.65384 C35.7881156,27.16264 33.8736259,28.62744 31.6918299,28.62744 C28.3059524,28.62744 26.436415,26.05304 26.436415,20.19464 C26.436415,15.26824 28.2176531,12.78264 31.5128231,12.78264 C33.8294762,12.78264 35.9671224,14.46904 36.9905918,15.84504 L36.9905918,25.65384 Z" id="Fill-3" fill="#1D1D1B"></path>
                        <path d="M55.3728245,0.17416 L77.6916816,0.17416 C80.479532,0.17416 82.7407973,2.42696 82.7407973,5.20616 L82.7407973,27.44936 C82.7407973,30.22856 80.479532,32.48136 77.6916816,32.48136 L55.3728245,32.48136 C52.5833687,32.48136 50.3237088,30.22856 50.3237088,27.44936 L50.3237088,5.20616 C50.3237088,2.42696 52.5833687,0.17416 55.3728245,0.17416" id="Fill-5" fill="#C0C0C0"></path>
                        <path d="M39.6241592,66.87336 L39.6241592,43.57176 L35.0374109,43.57176 L35.0374109,57.19816 C35.0374109,60.97016 33.3003224,63.14536 30.2275061,63.14536 C27.1988395,63.14536 25.4176014,61.45896 25.4176014,56.75416 L25.4176014,43.57176 L20.8308531,43.57176 L20.8308531,56.93176 C20.8308531,63.81096 23.7254653,67.36136 29.1582816,67.36136 C31.563234,67.36136 33.8790844,66.34056 35.0374109,64.65416 L35.0374109,66.87336 L39.6241592,66.87336 Z" id="Fill-7" fill="#1D1D1B"></path>
                        <path d="M62.7987973,55.59992 C62.7987973,46.72312 58.8349605,43.08392 53.802702,43.08392 C51.3536,43.08392 49.3941578,44.23752 47.701219,45.79112 L47.701219,34.51832 L43.1594231,36.87032 L43.1594231,66.87352 L47.701219,66.87352 L47.701219,64.69832 C48.9927973,66.11912 51.2195456,67.36152 53.5803483,67.36152 C58.4344027,67.36152 62.7987973,63.58872 62.7987973,55.59992 M58.212049,55.73272 C58.212049,60.65992 56.4292054,63.14552 53.1348381,63.14552 C50.8189878,63.14552 48.6813415,61.45832 47.6570694,60.08312 L47.6570694,50.27432 C48.8595456,48.76472 50.7748381,47.30072 52.9558313,47.30072 C56.3417088,47.30072 58.212049,49.87432 58.212049,55.73272" id="Fill-9" fill="#1D1D1B"></path>
                        <path d="M83.0831578,66.87336 L83.0831578,43.57176 L78.4964095,43.57176 L78.4964095,57.19816 C78.4964095,60.97016 76.7593211,63.14536 73.6865048,63.14536 C70.6578381,63.14536 68.8766,61.45896 68.8766,56.75416 L68.8766,43.57176 L64.2898517,43.57176 L64.2898517,56.93176 C64.2898517,63.81096 67.1844639,67.36136 72.6172803,67.36136 C75.0222327,67.36136 77.338083,66.34056 78.4964095,64.65416 L78.4964095,66.87336 L83.0831578,66.87336 Z" id="Fill-11" fill="#1D1D1B"></path>
                        <path d="M117.87614,66.87336 L117.87614,53.51416 C117.87614,46.63416 115.292181,43.08376 109.860167,43.08376 C106.208589,43.08376 104.381596,44.41576 102.690263,46.50136 C101.442031,44.28216 99.4384395,43.08376 96.2773238,43.08376 C93.8723714,43.08376 91.8679769,44.10456 90.7104531,45.79096 L90.7104531,43.57176 L86.1220993,43.57176 L86.1220993,66.87336 L90.7104531,66.87336 L90.7104531,53.24776 C90.7104531,49.47496 92.135283,47.30056 95.2080993,47.30056 C98.236766,47.30056 99.7065483,48.98696 99.7065483,53.69176 L99.7065483,66.87336 L104.293297,66.87336 L104.293297,53.24776 C104.293297,49.47496 105.718127,47.30056 108.790943,47.30056 C111.81961,47.30056 113.289392,48.98696 113.289392,53.69176 L113.289392,66.87336 L117.87614,66.87336 Z" id="Fill-13" fill="#1D1D1B"></path>
                        <path d="M18.5260803,47.03432 C16.3442844,44.45992 13.6720259,43.08392 10.2436041,43.08392 C4.54267891,43.08392 8.02721088e-05,47.56712 8.02721088e-05,55.28952 C8.02721088e-05,62.56872 4.40862449,67.36152 10.1095497,67.36152 C14.3398898,67.36152 16.6557401,65.31992 18.4819306,63.01272 L15.542366,60.12712 C13.7161755,62.03592 12.4245973,63.01272 10.2436041,63.01272 C6.59122313,63.01272 4.63178095,59.72792 4.63178095,55.15672 C4.63178095,50.40712 6.76942721,47.43352 10.1095497,47.43352 C12.2022435,47.43352 13.8943796,48.32152 15.8096721,50.27432 L18.5260803,47.03432 Z" id="Fill-15" fill="#1D1D1B"></path>
                    </g>
                </g>
            </g>
        </g>
    </g>
</svg>