<?xml version="1.0" encoding="UTF-8"?>
<svg width="169px" height="169px" viewBox="0 0 169 169" version="1.1" xmlns="http://www.w3.org/2000/svg" xmlns:xlink="http://www.w3.org/1999/xlink">
    <!-- Generator: Sketch 47.1 (45422) - http://www.bohemiancoding.com/sketch -->
    <title>DiePost</title>
    <desc>Created with Sketch.</desc>
    <defs></defs>
    <g id="Page-1" stroke="none" stroke-width="1" fill="none" fill-rule="evenodd">
        <g id="Kundenlogos-sw" transform="translate(-384.000000, 0.000000)">
            <g id="DiePost" transform="translate(384.000000, 0.000000)">
                <g transform="translate(13.000000, 66.000000)">
                    <polyline id="Fill-1" fill="#BFC0BF" points="110.274936 37 112.210349 27.90725 1.93409174 27.90725 0 37 110.274936 37"></polyline>
                    <polyline id="Fill-2" fill="#1A1919" points="30.0880734 11.9800714 25.9873761 11.9800714 21.9104587 30.9399286 26.0137982 30.9399286 30.0880734 11.9800714"></polyline>
                    <polyline id="Fill-3" fill="#1A1919" points="44.4603303 11.9800714 32.9944954 11.9800714 28.9426789 30.9399286 40.5366606 30.9399286 41.275156 27.5028929 33.7818716 27.5028929 34.8017615 22.7853929 41.3002569 22.7853929 42.0387523 19.3708214 35.5402569 19.3708214 36.3817982 15.4210714 43.7205138 15.4210714 44.4603303 11.9800714"></polyline>
                    <path d="M17.5125138,21.7982857 C17.0289908,24.0381071 15.6775046,26.7695 12.7222018,27.35225 C12.1118532,27.4553214 11.5503853,27.48175 11.0668624,27.48175 L9.12880734,27.48175 L11.677211,15.503 L13.4355963,15.503 C13.8702385,15.503 14.4554862,15.5254643 14.9152294,15.6034286 C17.6155596,16.0632857 18.1757064,18.8158214 17.5125138,21.7982857 Z M15.9219083,12.10825 C15.1318899,12.0038571 14.0882202,11.9800714 13.4501284,11.9800714 L8.27801835,11.9800714 L4.22752294,30.9399286 L11.0576147,30.9399286 C11.6666422,30.9399286 12.4315596,30.9161429 12.9679266,30.8421429 C18.3170642,30.1787857 20.9156697,26.3043571 21.6805872,22.3519643 C22.752,16.8482143 20.8165872,12.8218214 15.9219083,12.10825 L15.9219083,12.10825 Z" id="Fill-4" fill="#1A1919"></path>
                    <polyline id="Fill-5" fill="#1A1919" points="112.59611 11.9800714 98.2264954 11.9800714 97.4602569 15.4963929 102.607266 15.4963929 99.2952661 30.9399286 103.397284 30.9399286 106.709284 15.4963929 111.831193 15.4963929 112.59611 11.9800714"></polyline>
                    <path d="M78.0559266,21.4903929 C77.3927339,24.5495 76.1456147,27.7341429 72.680367,27.7341429 C69.3406239,27.7341429 68.8835229,24.6010357 69.5718165,21.4903929 C70.232367,18.4339286 71.4808073,15.2479643 74.9447339,15.2479643 C78.2844771,15.2479643 78.7442202,18.3810714 78.0559266,21.4903929 Z M75.2433028,11.7765714 C68.6681835,11.7765714 66.1699817,16.2377143 65.1249908,21.4613214 C64.0562202,26.6836071 66.2730275,31.1460714 72.261578,31.1460714 C78.8353761,31.1460714 81.3322569,26.6836071 82.3759266,21.4613214 C83.4460183,16.2377143 81.2305321,11.7765714 75.2433028,11.7765714 L75.2433028,11.7765714 Z" id="Fill-6" fill="#1A1919"></path>
                    <path d="M84.4672294,17.5604643 C84.4672294,19.8029286 85.8438165,20.9010357 87.1411376,21.89475 L89.3077431,23.5002857 C89.7410642,23.8319643 90.1479633,24.1107857 90.4544587,24.4675714 C90.7345321,24.7741429 90.9630826,25.0807143 90.9630826,25.5617143 C90.9630826,26.2501786 90.6328073,26.6836071 90.1730642,26.9888571 C89.3077431,27.5517857 87.957578,27.5517857 87.1411376,27.5517857 C85.8438165,27.5517857 83.8291376,27.1685714 83.0642202,26.862 L81.8408807,30.3281071 C83.3178716,30.8646071 85.6879266,31.0918929 87.3961101,31.0918929 C89.4609908,31.0918929 90.9379817,30.8130714 92.186422,30.2792143 C94.4283303,29.3343929 95.5486239,27.5768929 95.5486239,25.5154643 C95.5486239,24.2891786 95.1430459,23.4738571 94.5828991,22.7351786 C94.1218349,22.1484643 93.3846606,21.5115357 92.5431193,20.8732857 L90.5826055,19.3959286 C89.5878165,18.65725 88.848,18.0969643 88.848,17.2301071 C88.848,16.4147857 89.4094679,15.7012143 90.4544587,15.5743571 C91.0899083,15.4963929 91.6777982,15.4963929 92.6461651,15.4963929 L95.7520734,15.4963929 L96.5183119,11.9800714 L93.0530642,11.9800714 C92.0595963,11.9800714 90.7583119,11.9800714 89.6393394,12.10825 C86.9641101,12.4135 84.4672294,14.3242857 84.4672294,17.5604643" id="Fill-7" fill="#1A1919"></path>
                    <path d="M60.1048073,18.65725 C59.851156,20.2376786 58.7797431,21.2062857 57.403156,21.5379643 C57.0715596,21.6132857 56.4598899,21.6648214 56.1058349,21.6648214 L54.4465321,21.6648214 L55.7742385,15.4712857 L57.5564037,15.4712857 C58.0650275,15.4712857 58.4468257,15.5215 58.7533211,15.62325 C59.773211,15.95625 60.3848807,16.9512857 60.1048073,18.65725 Z M59.4931376,12.10825 C59.0096147,12.0302857 58.3213211,11.9800714 57.6317064,11.9800714 L52.4609174,11.9800714 L48.384,30.9399286 L52.4609174,30.9399286 L53.7093578,25.1560357 L56.0780917,25.1560357 C57.3278532,25.1560357 58.1429725,25.0265357 58.9329908,24.7979286 C61.8631927,23.9072857 63.7484037,21.4613214 64.1817248,18.86075 C64.8198165,15.318 63.0363303,12.6936429 59.4931376,12.10825 L59.4931376,12.10825 Z" id="Fill-8" fill="#1A1919"></path>
                    <path d="M131.80756,11.9655357 C131.80756,11.9655357 134.226495,0.566892857 134.238385,0.504785714 C134.176294,0.504785714 118.879266,0.504785714 118.836991,0.504785714 C118.829064,0.54575 115.634642,15.4527857 115.622752,15.5148929 C115.684844,15.5148929 119.395817,15.5148929 119.43545,15.5148929 C119.444697,15.4726071 121.892697,4.05414286 121.892697,4.05414286 L129.668697,4.05414286 C129.668697,4.05414286 127.227303,15.4527857 127.212771,15.5148929 C127.274862,15.5148929 138.764477,15.5148929 138.764477,15.5148929 L137.230679,22.6823214 C137.230679,22.6823214 125.780697,22.6823214 125.739743,22.6823214 C125.731817,22.7232857 123.44367,33.40175 123.44367,33.40175 C123.44367,33.40175 114.77989,33.40175 114.738936,33.40175 C114.731009,33.4413929 113.993835,36.9405357 113.980624,37 C114.044037,37 126.461064,37 126.502018,37 C126.509945,36.9616786 128.808661,26.2554643 128.808661,26.2554643 C128.808661,26.2554643 140.215046,26.2554643 140.257321,26.2554643 C140.266569,26.2171429 143.309064,12.025 143.320954,11.9655357 C143.257541,11.9655357 131.80756,11.9655357 131.80756,11.9655357" id="Fill-9" fill="#1A1919"></path>
                </g>
                <rect x="0" y="0" width="169" height="169"></rect>
            </g>
        </g>
    </g>
</svg>