<?xml version="1.0" encoding="UTF-8"?>
<svg width="169px" height="169px" viewBox="0 0 169 169" version="1.1" xmlns="http://www.w3.org/2000/svg" xmlns:xlink="http://www.w3.org/1999/xlink">
    <!-- Generator: Sketch 47.1 (45422) - http://www.bohemiancoding.com/sketch -->
    <title>PEAX</title>
    <desc>Created with Sketch.</desc>
    <defs></defs>
    <g id="Page-1" stroke="none" stroke-width="1" fill="none" fill-rule="evenodd">
        <g id="Kundenlogos-sw" transform="translate(0.000000, -183.000000)">
            <g id="PEAX" transform="translate(0.000000, 183.000000)">
                <rect id="Rectangle-Copy-8" style="mix-blend-mode: color;" x="0" y="0" width="169" height="169"></rect>
                <g id="PEAX_oClaim" transform="translate(42.000000, 37.000000)" fill-rule="nonzero">
                    <path d="M0.661538462,8.39135209 C0.661538462,8.39135209 -1.98461538,46.1787619 9.79076923,65.9973335 C20.1107692,83.4376765 43.1323077,94.8003242 43.1323077,94.8003242 C43.1323077,94.8003242 65.2276923,85.6837812 75.2830769,66.2615811 C88.2492308,41.2901809 84.9415385,8.25922828 84.9415385,8.25922828 C84.9415385,8.25922828 59.9353846,0.596047266 44.0584615,0.463923455 C19.4492308,0.331799644 0.661538462,8.39135209 0.661538462,8.39135209 Z" id="Shape" fill="#DCDBDB"></path>
                    <path d="M70.52,57.1450382 L70.52,51.8600857 L67.3446154,48.6891143 L70.52,45.5181428 L70.52,40.2331904 L66.2861538,40.2331904 L66.2861538,43.4041619 L64.1692308,45.5181428 L62.0523077,43.4041619 L62.0523077,40.2331904 L57.8184615,40.2331904 L57.8184615,45.5181428 L60.9938462,48.6891143 L57.8184615,51.8600857 L57.8184615,57.1450382 L62.0523077,57.1450382 L62.0523077,53.9740667 L64.1692308,51.8600857 L66.2861538,53.9740667 L66.2861538,57.1450382 L70.52,57.1450382 Z M51.4676923,50.8030953 L47.2338462,50.8030953 L47.2338462,46.5751333 L49.3507692,44.4611524 L51.4676923,46.5751333 L51.4676923,50.8030953 L51.4676923,50.8030953 Z M55.7015385,57.1450382 L55.7015385,44.3290285 L51.4676923,40.1010666 L51.4676923,39.0440761 L47.2338462,39.0440761 L47.2338462,40.1010666 L43,44.3290285 L43,57.1450382 L47.2338462,57.1450382 L47.2338462,55.0310572 L51.4676923,55.0310572 L51.4676923,57.1450382 L55.7015385,57.1450382 Z M41.5446154,57.1450382 L41.5446154,52.9170762 L33.0769231,52.9170762 L33.0769231,50.8030953 L37.3107692,50.8030953 L37.3107692,46.5751333 L33.0769231,46.5751333 L33.0769231,44.4611524 L41.5446154,44.4611524 L41.5446154,40.2331904 L28.7107692,40.2331904 L28.7107692,57.277162 L41.5446154,57.1450382 L41.5446154,57.1450382 Z M22.8892308,48.6891143 L18.6553846,48.6891143 L18.6553846,44.4611524 L22.8892308,44.4611524 L22.8892308,48.6891143 Z M27.1230769,50.8030953 L27.1230769,42.3471714 L25.0061538,40.2331904 L14.4215385,40.2331904 L14.4215385,57.277162 L18.6553846,57.277162 L18.6553846,53.0492 L25.0061538,53.0492 L27.1230769,50.8030953 Z" id="Shape" fill="#000000"></path>
                    <polygon id="Shape" fill="#000000" points="56.2307692 34.948238 59.2738462 30.8523999 58.0830769 28.4741713 53.1876923 34.948238"></polygon>
                    <polygon id="Shape" fill="#000000" points="61.3907692 34.948238 60.2 32.5700094 58.3476923 34.948238"></polygon>
                    <polygon id="Shape" fill="#000000" points="50.9384615 34.948238 57.1569231 26.7565617 55.9661538 24.3783332 48.0276923 34.948238"></polygon>
                    <polygon id="Shape" fill="#000000" points="40.7507692 34.0233713 52.5261538 18.3006379 48.9538462 19.0933807 39.2953846 32.0415142"></polygon>
                    <polygon id="Shape" fill="#000000" points="45.3815385 34.948238 54.7753846 22.2643522 53.5846154 19.8861236 42.3384615 34.948238"></polygon>
                    <polygon id="Shape" fill="#000000" points="44.9846154 16.7151521 36.2523077 28.3420475 37.84 30.1917808 46.1753846 19.0933807"></polygon>
                    <polygon id="Shape" fill="#000000" points="42.7353846 12.3550664 24.2123077 37.062219 27.1230769 37.062219 28.7107692 34.948238 28.7107692 34.948238 43.9261538 14.733295"></polygon>
                </g>
            </g>
        </g>
    </g>
</svg>