<svg xmlns="http://www.w3.org/2000/svg" viewBox="0 0 24 24">
    <defs>
        <style>
            .cls-1, .cls-2 {
            fill: none;
            stroke: #fff;
            stroke-linejoin: round;
            }

            .cls-2 {
            stroke-linecap: round;
            }
        </style>
    </defs>
    <title>KnowHow sharing</title>
    <g id="KnowHow_sharing">
        <g>
            <path class="cls-1" d="M19.5,13.563h4v8h-4Z"/>
            <path class="cls-2"
                  d="M19.5,20.126c-10.5,3.5-7,3.5-19-2.5a2.76,2.76,0,0,1,3-1l4.317,1.367M19.5,14.563h-3c-2.353,0-4,2-4.5,2H8.5c-1,0-1,2,0,2H14"/>
        </g>
        <g>
            <path class="cls-2" d="M8.82785,13.04064h2.43m-2.43,1.62h2.43"/>
            <path class="cls-2"
                  d="M14.79674,6.19128a4.628,4.628,0,0,0-4.75389-4.49064A4.62749,4.62749,0,0,0,5.289,6.19128a4.63689,4.63689,0,0,0,3.53889,4.31163v.91773h2.43v-.91773A4.63687,4.63687,0,0,0,14.79674,6.19128Z"/>
        </g>
    </g>
</svg>
