<?xml version="1.0" encoding="UTF-8" standalone="no"?>
<svg width="124px" height="124px" viewBox="0 0 124 124" version="1.1" xmlns="http://www.w3.org/2000/svg" xmlns:xlink="http://www.w3.org/1999/xlink">
    <!-- Generator: Sketch 46.2 (44496) - http://www.bohemiancoding.com/sketch -->
    <title>icon einheitlich</title>
    <desc>Created with Sketch.</desc>
    <defs></defs>
    <g id="Pages" stroke="none" stroke-width="1" fill="none" fill-rule="evenodd">
        <g id="Startseite-V2-Copy-5" transform="translate(-909.000000, -1300.000000)">
            <g id="Group-4" transform="translate(169.000000, 1105.000000)">
                <g id="Service-Automation" transform="translate(659.000000, 150.000000)">
                    <g id="Group-Copy">
                        <g id="icon-einheitlich" transform="translate(81.000000, 45.000000)">
                            <path d="M62,0 C96.2416142,0 124,27.7583858 124,62 C124,96.2416142 96.2416142,124 62,124 C27.7583858,124 0,96.2416142 0,62 C0,27.7583858 27.7583858,0 62,0 Z" id="Fill-26-Copy" fill="#FFFFFF"></path>
                            <g id="Group" transform="translate(21.000000, 20.000000)" stroke-linecap="round" stroke-width="2" stroke="#002F47" stroke-linejoin="round">
                                <polygon id="Stroke-17" points="33.2494046 56 25 70 33.2494046 84 49.7482139 84 58 70 49.7482139 56"></polygon>
                                <polygon id="Stroke-17-Copy" points="33.2494046 28 25 42 33.2494046 56 49.7482139 56 58 42 49.7482139 28"></polygon>
                                <polygon id="Stroke-17-Copy-2" points="33.2494046 0 25 14 33.2494046 28 49.7482139 28 58 14 49.7482139 0"></polygon>
                                <polygon id="Stroke-17-Copy-3" points="8.24940463 14 0 28 8.24940463 42 24.7482139 42 33 28 24.7482139 14"></polygon>
                                <polygon id="Stroke-17-Copy-5" points="8.24940463 42 0 56 8.24940463 70 24.7482139 70 33 56 24.7482139 42"></polygon>
                                <polygon id="Stroke-17-Copy-4" points="58.2494046 14 50 28 58.2494046 42 74.7482139 42 83 28 74.7482139 14"></polygon>
                                <polygon id="Stroke-17-Copy-6" points="58.2494046 42 50 56 58.2494046 70 74.7482139 70 83 56 74.7482139 42"></polygon>
                            </g>
                        </g>
                    </g>
                </g>
            </g>
        </g>
    </g>
</svg>