<svg xmlns="http://www.w3.org/2000/svg" viewBox="0 0 1280 564">
  <defs>
    <style>
      .cls-1 {
        fill: #a7e4f2;
      }

      .cls-2 {
        fill: #002f47;
      }

      .cls-3 {
        fill: #81b4c4;
      }

      .cls-4 {
        fill: #a7ced1;
      }

      .cls-5 {
        fill: #c0e1e3;
      }

      .cls-6 {
        fill: #c2d64c;
      }

      .cls-7 {
        fill: none;
        stroke: #002f47;
        stroke-linecap: round;
        stroke-miterlimit: 10;
        stroke-width: 0.75009px;
      }

      .cls-8 {
        fill: #b8c445;
      }
    </style>
  </defs>
  <title>Angebot_Karten_Visualisierung</title>
  <g id="bg">
    <rect class="cls-1" width="1280" height="564"/>
  </g>
  <g id="landschaft">
    <g>
      <rect class="cls-2" y="346" width="1280" height="218"/>
      <g>
        <polygon class="cls-3" points="1280 346.966 596.018 346.966 775.878 314.142 833.029 328.147 1033.248 291.323 1206.832 312.984 1280 287.575 1280 346.966"/>
        <polygon class="cls-4" points="1256.575 297.795 1265.938 277 1275.301 297.795 1256.575 297.795"/>
        <polygon class="cls-5" points="1249.892 302.196 1257.417 286.21 1264.941 302.196 1249.892 302.196"/>
        <polygon class="cls-3" points="687.451 347 0 347 0 327.355 176.632 300.08 687.451 347"/>
        <g id="baume">
          <polygon class="cls-4" points="92.198 303.205 85.127 321.673 99.268 321.673 92.198 303.205"/>
        </g>
        <g>
          <polygon class="cls-5" points="489.926 319.006 484.222 333.905 495.63 333.905 489.926 319.006"/>
          <polygon class="cls-4" points="481.944 316.695 473.482 338.798 490.407 338.798 481.944 316.695"/>
        </g>
        <polygon class="cls-5" points="334.914 298.92 326.103 321.933 343.726 321.933 334.914 298.92"/>
        <polygon class="cls-5" points="1159.028 310.531 1153.324 325.429 1164.732 325.429 1159.028 310.531"/>
        <polygon class="cls-4" points="1151.113 299.375 1142.65 321.478 1159.575 321.478 1151.113 299.375"/>
        <g>
          <circle class="cls-6" cx="782.68489" cy="319.58545" r="11.37451"/>
          <g>
            <line class="cls-7" x1="782.57961" y1="320.37996" x2="777.11363" y2="315.28961"/>
            <line class="cls-7" x1="789.30688" y1="317.12603" x2="782.68489" y2="325.16185"/>
            <line class="cls-7" x1="782.68489" y1="347" x2="782.68489" y2="315.00716"/>
          </g>
        </g>
        <g>
          <circle class="cls-8" cx="1253.91573" cy="319.58545" r="11.37451"/>
          <g>
            <line class="cls-7" x1="1254.02101" y1="320.37996" x2="1259.48699" y2="315.28961"/>
            <line class="cls-7" x1="1247.29373" y1="317.12603" x2="1253.91573" y2="325.16185"/>
            <line class="cls-7" x1="1253.91573" y1="347" x2="1253.91573" y2="315.00716"/>
          </g>
        </g>
        <g>
          <circle class="cls-6" cx="1240.93708" cy="325.41598" r="8.95538"/>
          <g>
            <line class="cls-7" x1="1240.85419" y1="326.04151" x2="1236.55071" y2="322.03377"/>
            <line class="cls-7" x1="1246.15071" y1="323.47963" x2="1240.93708" y2="327.9525"/>
            <line class="cls-7" x1="1240.93708" y1="347" x2="1240.93708" y2="321.8114"/>
          </g>
        </g>
      </g>
    </g>
  </g>
</svg>
