<svg xmlns="http://www.w3.org/2000/svg" xmlns:xlink="http://www.w3.org/1999/xlink" viewBox="0 0 1280 564">
  <defs>
    <style>
      .cls-1, .cls-20, .cls-26, .cls-27, .cls-28, .cls-29, .cls-3, .cls-30, .cls-31, .cls-32, .cls-35, .cls-36, .cls-37, .cls-4, .cls-43, .cls-44, .cls-45, .cls-47, .cls-48, .cls-49, .cls-5, .cls-50, .cls-51, .cls-52, .cls-58, .cls-59, .cls-6, .cls-60, .cls-61, .cls-62, .cls-63, .cls-69, .cls-70, .cls-71 {
        fill: none;
      }

      .cls-2, .cls-38 {
        opacity: 0.2;
      }

      .cls-3 {
        stroke: #b3b3b3;
      }

      .cls-20, .cls-28, .cls-3, .cls-30, .cls-31, .cls-36, .cls-43, .cls-45, .cls-48, .cls-5, .cls-50, .cls-51, .cls-59, .cls-61, .cls-62, .cls-69, .cls-71 {
        stroke-linecap: round;
      }

      .cls-20, .cls-26, .cls-27, .cls-28, .cls-29, .cls-3, .cls-30, .cls-31, .cls-32, .cls-33, .cls-35, .cls-36, .cls-37, .cls-4, .cls-43, .cls-44, .cls-45, .cls-47, .cls-48, .cls-49, .cls-5, .cls-50, .cls-51, .cls-52, .cls-58, .cls-59, .cls-6, .cls-60, .cls-61, .cls-62, .cls-63, .cls-64, .cls-69, .cls-70, .cls-71 {
        stroke-miterlimit: 10;
      }

      .cls-3, .cls-4, .cls-5, .cls-71 {
        stroke-width: 4.71036px;
      }

      .cls-26, .cls-31, .cls-32, .cls-33, .cls-4, .cls-44, .cls-45, .cls-47, .cls-5, .cls-51, .cls-52, .cls-58, .cls-62, .cls-63, .cls-64 {
        stroke: #ef9f6a;
      }

      .cls-6 {
        stroke: #4d4d4d;
      }

      .cls-7 {
        fill: #81d4dc;
      }

      .cls-8, .cls-9 {
        fill: #1d1d1b;
      }

      .cls-8 {
        opacity: 0.05;
      }

      .cls-9 {
        opacity: 0.1;
      }

      .cls-10 {
        fill: #7dadba;
      }

      .cls-11 {
        fill: #91eaf3;
      }

      .cls-12 {
        fill: #ffd301;
      }

      .cls-13 {
        fill: #367089;
      }

      .cls-14 {
        fill: #a7e4f2;
      }

      .cls-15 {
        fill: #002f47;
      }

      .cls-16 {
        fill: #81b4c4;
      }

      .cls-17 {
        fill: #a7ced1;
      }

      .cls-18 {
        fill: #c0e1e3;
      }

      .cls-19 {
        fill: #c2d64c;
      }

      .cls-20 {
        stroke: #002f47;
        stroke-width: 0.75009px;
      }

      .cls-21 {
        fill: #b8c445;
      }

      .cls-22 {
        fill: #6f491e;
      }

      .cls-23 {
        fill: #7b5122;
      }

      .cls-24 {
        fill: #dd9362;
      }

      .cls-25 {
        fill: #ef9f69;
      }

      .cls-26, .cls-27, .cls-28, .cls-29 {
        stroke-width: 7.12693px;
      }

      .cls-27, .cls-43 {
        stroke: #15b0bf;
      }

      .cls-28, .cls-29, .cls-36, .cls-37, .cls-48, .cls-49, .cls-59, .cls-60, .cls-69, .cls-70 {
        stroke: #1d1d1b;
      }

      .cls-30 {
        stroke: #ffd301;
      }

      .cls-30, .cls-31, .cls-32, .cls-33 {
        stroke-width: 5.09066px;
      }

      .cls-33, .cls-41, .cls-64 {
        fill: #ef9f6a;
      }

      .cls-34, .cls-55 {
        opacity: 0.3;
      }

      .cls-35 {
        stroke: #666;
      }

      .cls-35, .cls-36, .cls-37 {
        stroke-width: 7.71287px;
      }

      .cls-39 {
        fill: #de9462;
      }

      .cls-40 {
        fill: #15b0bf;
      }

      .cls-42 {
        fill: #736357;
      }

      .cls-43, .cls-44, .cls-45 {
        stroke-width: 5.50919px;
      }

      .cls-46 {
        fill: #402313;
      }

      .cls-47, .cls-48, .cls-49 {
        stroke-width: 5.93073px;
      }

      .cls-50 {
        stroke: #b0bc3f;
      }

      .cls-50, .cls-51, .cls-52 {
        stroke-width: 4.23623px;
      }

      .cls-53 {
        fill: #423228;
      }

      .cls-54 {
        clip-path: url(#clip-path);
      }

      .cls-55 {
        fill: #fff;
        fill-rule: evenodd;
      }

      .cls-56 {
        clip-path: url(#clip-path-2);
      }

      .cls-57 {
        fill: gray;
      }

      .cls-58, .cls-59, .cls-60 {
        stroke-width: 6.0649px;
      }

      .cls-61 {
        stroke: #2c5871;
      }

      .cls-61, .cls-62, .cls-63, .cls-64 {
        stroke-width: 4.33207px;
      }

      .cls-65 {
        fill: #7192a6;
      }

      .cls-66 {
        fill: #86aabc;
      }

      .cls-67 {
        fill: #2c5871;
      }

      .cls-68 {
        fill: #5e3f37;
      }

      .cls-69, .cls-70 {
        stroke-width: 6.5945px;
      }

      .cls-71 {
        stroke: #d1ecfb;
      }
    </style>
    <clipPath id="clip-path">
      <rect class="cls-1" x="312.79794" width="918.75159" height="296.25628"/>
    </clipPath>
    <clipPath id="clip-path-2">
      <rect class="cls-1" x="606.53367" width="673.46633" height="316.48418"/>
    </clipPath>
    <symbol id="container_Zeilen" data-name="container_Zeilen" viewBox="0 0 136.991 123.475">
      <path class="cls-6" d="M56.98568,120.532,67.2543,19.6556a.26753.26753,0,0,1,.49625-.00171L78.8257,120.532"/>
      <g>
        <g>
          <rect class="cls-7" y="51.8478" width="136.99057" height="68.0627"/>
          <g>
            <rect class="cls-8" x="4.03284" y="55.88065" width="128.92477" height="59.99685"/>
            <path class="cls-9" d="M131.34442,57.49384v56.77049H5.646V57.49384h125.6984m1.61319-1.61318H4.03284v59.99685H132.95761V55.88066Z"/>
          </g>
        </g>
        <g>
          <g>
            <path class="cls-10" d="M68.87132,60.60947a2.14237,2.14237,0,0,0-2.14339,2.14342v46.967a2.14339,2.14339,0,1,0,4.28678,0v-46.967a2.14228,2.14228,0,0,0-2.14339-2.14341Z"/>
            <path class="cls-10" d="M58.19191,60.60947a2.14238,2.14238,0,0,0-2.1434,2.14342v46.967a2.1434,2.1434,0,1,0,4.28679,0v-46.967a2.14239,2.14239,0,0,0-2.14339-2.14341Z"/>
            <path class="cls-10" d="M47.55,60.60947a2.14237,2.14237,0,0,0-2.14339,2.14342v46.967a2.14339,2.14339,0,1,0,4.28678,0v-46.967A2.19229,2.19229,0,0,0,47.55,60.60947Z"/>
            <path class="cls-10" d="M36.87063,60.60947a2.14238,2.14238,0,0,0-2.1434,2.14342v46.967a2.1434,2.1434,0,1,0,4.28679,0v-46.967a2.167,2.167,0,0,0-2.14339-2.14341Z"/>
            <path class="cls-10" d="M111.58916,60.60947a2.14237,2.14237,0,0,0-2.14339,2.14342v46.967a2.14339,2.14339,0,1,0,4.28678,0v-46.967a2.19229,2.19229,0,0,0-2.14339-2.14341Z"/>
            <path class="cls-10" d="M122.231,60.60947a2.14237,2.14237,0,0,0-2.14339,2.14342v46.967a2.1434,2.1434,0,1,0,4.28679,0v-46.967a2.1424,2.1424,0,0,0-2.1434-2.14341Z"/>
            <path class="cls-10" d="M26.19112,60.60947a2.14237,2.14237,0,0,0-2.14339,2.14342v46.967a2.14339,2.14339,0,1,0,4.28678,0v-46.967a2.16685,2.16685,0,0,0-2.14339-2.14341Z"/>
            <path class="cls-10" d="M15.51171,60.60947a2.14237,2.14237,0,0,0-2.14339,2.14342v46.967a2.14339,2.14339,0,1,0,4.28678,0v-46.967a2.14239,2.14239,0,0,0-2.14339-2.14341Z"/>
            <path class="cls-10" d="M100.90975,60.60947a2.14237,2.14237,0,0,0-2.1434,2.14342v46.967a2.1434,2.1434,0,1,0,4.28679,0v-46.967a2.167,2.167,0,0,0-2.14339-2.14341Z"/>
            <path class="cls-10" d="M90.23024,60.60947a2.14237,2.14237,0,0,0-2.14339,2.14342v46.967a2.14339,2.14339,0,1,0,4.28678,0v-46.967a2.16692,2.16692,0,0,0-2.14339-2.14341Z"/>
            <path class="cls-10" d="M79.55083,60.60947a2.14237,2.14237,0,0,0-2.1434,2.14342v46.967a2.14241,2.14241,0,0,0,2.1434,2.14341,2.11887,2.11887,0,0,0,2.14339-2.14341v-46.967a2.167,2.167,0,0,0-2.14339-2.14341Z"/>
          </g>
          <g>
            <path class="cls-11" d="M68.49528,60.23344a2.14236,2.14236,0,0,0-2.14339,2.14341v46.967a2.1434,2.1434,0,1,0,4.28679,0v-46.967a2.14227,2.14227,0,0,0-2.1434-2.1434Z"/>
            <path class="cls-11" d="M57.81587,60.23344a2.14236,2.14236,0,0,0-2.14339,2.14341v46.967a2.14339,2.14339,0,1,0,4.28678,0v-46.967a2.14239,2.14239,0,0,0-2.14339-2.1434Z"/>
            <path class="cls-11" d="M47.174,60.23344a2.14236,2.14236,0,0,0-2.14339,2.14341v46.967a2.1434,2.1434,0,1,0,4.28679,0v-46.967a2.19229,2.19229,0,0,0-2.1434-2.1434Z"/>
            <path class="cls-11" d="M36.49459,60.23344a2.14236,2.14236,0,0,0-2.14339,2.14341v46.967a2.14339,2.14339,0,1,0,4.28678,0v-46.967a2.167,2.167,0,0,0-2.14339-2.1434Z"/>
            <path class="cls-11" d="M111.21312,60.23344a2.14236,2.14236,0,0,0-2.14339,2.14341v46.967a2.14339,2.14339,0,1,0,4.28678,0v-46.967a2.19228,2.19228,0,0,0-2.14339-2.1434Z"/>
            <path class="cls-11" d="M121.855,60.23344a2.14236,2.14236,0,0,0-2.14339,2.14341v46.967a2.14339,2.14339,0,1,0,4.28678,0v-46.967a2.14239,2.14239,0,0,0-2.14339-2.1434Z"/>
            <path class="cls-11" d="M25.81508,60.23344a2.14236,2.14236,0,0,0-2.14339,2.14341v46.967a2.1434,2.1434,0,1,0,4.28679,0v-46.967a2.16685,2.16685,0,0,0-2.1434-2.1434Z"/>
            <path class="cls-11" d="M15.13567,60.23344a2.14236,2.14236,0,0,0-2.14339,2.14341v46.967a2.14339,2.14339,0,1,0,4.28678,0v-46.967a2.14239,2.14239,0,0,0-2.14339-2.1434Z"/>
            <path class="cls-11" d="M100.53371,60.23344a2.14236,2.14236,0,0,0-2.14339,2.14341v46.967a2.14339,2.14339,0,1,0,4.28678,0v-46.967a2.167,2.167,0,0,0-2.14339-2.1434Z"/>
            <path class="cls-11" d="M89.8542,60.23344a2.14236,2.14236,0,0,0-2.14339,2.14341v46.967a2.1434,2.1434,0,1,0,4.28679,0v-46.967a2.16692,2.16692,0,0,0-2.1434-2.1434Z"/>
            <path class="cls-11" d="M79.17479,60.23344a2.14236,2.14236,0,0,0-2.14339,2.14341v46.967a2.14239,2.14239,0,0,0,2.14339,2.14341,2.11887,2.11887,0,0,0,2.14339-2.14341v-46.967a2.167,2.167,0,0,0-2.14339-2.1434Z"/>
          </g>
        </g>
      </g>
      <path class="cls-6" d="M26.295,120.532,66.5636,19.6556a.26753.26753,0,0,1,.49625-.00171L108.135,120.532"/>
      <polygon class="cls-12" points="61.135 0 72.486 0 66.814 9.275 61.135 0"/>
      <path class="cls-6" d="M70.98285,14.867a4.172,4.172,0,1,1-4.17324-4.174V8.62583"/>
      <polygon class="cls-13" points="18.103 120 18.103 123.475 117.708 123.475 117.708 123.475 117.708 120 18.103 120"/>
    </symbol>
    <symbol id="Neues_Symbol_5" data-name="Neues Symbol 5" viewBox="0 0 5.843 38.434">
      <path class="cls-2" d="M2.35547,38.43428A2.35561,2.35561,0,0,1,0,36.07881V3.19112a2.35547,2.35547,0,0,1,4.71094,0V36.07881A2.35561,2.35561,0,0,1,2.35547,38.43428Z"/>
      <line class="cls-3" x1="3.48734" y1="2.35518" x2="3.48734" y2="35.24255"/>
      <line class="cls-4" x1="3.48734" y1="28.72256" x2="3.48734" y2="35.24255"/>
      <line class="cls-5" x1="3.48734" y1="31.72256" x2="3.48734" y2="35.24255"/>
    </symbol>
  </defs>
  <title>Angebot_Public</title>
  <g id="bg">
    <rect class="cls-14" width="1280" height="564"/>
  </g>
  <g id="landschaft">
    <g>
      <rect class="cls-15" y="346" width="1280" height="218"/>
      <g>
        <polygon class="cls-16" points="1280 346.966 596.018 346.966 775.878 314.142 833.029 328.147 1033.248 291.323 1206.832 312.984 1280 287.575 1280 346.966"/>
        <polygon class="cls-17" points="1256.575 297.795 1265.938 277 1275.301 297.795 1256.575 297.795"/>
        <polygon class="cls-18" points="1249.892 302.196 1257.417 286.21 1264.941 302.196 1249.892 302.196"/>
        <polygon class="cls-16" points="687.451 347 0 347 0 327.355 176.632 300.08 687.451 347"/>
        <g id="baume">
          <polygon class="cls-17" points="92.198 303.205 85.127 321.673 99.268 321.673 92.198 303.205"/>
        </g>
        <g>
          <polygon class="cls-18" points="489.926 319.006 484.222 333.905 495.63 333.905 489.926 319.006"/>
          <polygon class="cls-17" points="481.944 316.695 473.482 338.798 490.407 338.798 481.944 316.695"/>
        </g>
        <polygon class="cls-18" points="334.914 298.92 326.103 321.933 343.726 321.933 334.914 298.92"/>
        <polygon class="cls-18" points="1159.028 310.531 1153.324 325.429 1164.732 325.429 1159.028 310.531"/>
        <polygon class="cls-17" points="1151.113 299.375 1142.65 321.478 1159.575 321.478 1151.113 299.375"/>
        <g>
          <circle class="cls-19" cx="782.68489" cy="319.58545" r="11.37451"/>
          <g>
            <line class="cls-20" x1="782.57961" y1="320.37996" x2="777.11363" y2="315.28961"/>
            <line class="cls-20" x1="789.30688" y1="317.12603" x2="782.68489" y2="325.16185"/>
            <line class="cls-20" x1="782.68489" y1="347" x2="782.68489" y2="315.00716"/>
          </g>
        </g>
        <g>
          <circle class="cls-21" cx="1253.91573" cy="319.58545" r="11.37451"/>
          <g>
            <line class="cls-20" x1="1254.02101" y1="320.37996" x2="1259.48699" y2="315.28961"/>
            <line class="cls-20" x1="1247.29373" y1="317.12603" x2="1253.91573" y2="325.16185"/>
            <line class="cls-20" x1="1253.91573" y1="347" x2="1253.91573" y2="315.00716"/>
          </g>
        </g>
        <g>
          <circle class="cls-19" cx="1240.93708" cy="325.41598" r="8.95538"/>
          <g>
            <line class="cls-20" x1="1240.85419" y1="326.04151" x2="1236.55071" y2="322.03377"/>
            <line class="cls-20" x1="1246.15071" y1="323.47963" x2="1240.93708" y2="327.9525"/>
            <line class="cls-20" x1="1240.93708" y1="347" x2="1240.93708" y2="321.8114"/>
          </g>
        </g>
      </g>
    </g>
  </g>
  <g id="Public_detail" data-name="Public detail">
    <g id="frau">
      <g id="paar3">
        <g id="frau-2" data-name="frau">
          <g>
            <g id="frau-3" data-name="frau">
              <g>
                <path class="cls-22" d="M380.03079,325.155a3.443,3.443,0,1,1-3.423-3.81367A3.63439,3.63439,0,0,1,380.03079,325.155Z"/>
                <path class="cls-22" d="M389.98459,325.155a3.4431,3.4431,0,1,1-3.42334-3.81373A3.63455,3.63455,0,0,1,389.98459,325.155Z"/>
                <path class="cls-23" d="M373.04565,328.11545s-5.27477,18.76458-8.72672,29.90388a5.191,5.191,0,0,0,4.96595,6.726h22.40194a5.19259,5.19259,0,0,0,5.04888-6.4262c-2.28533-9.33565-5.4154-23.462-6.88624-29.96191Z"/>
                <path class="cls-23" d="M390.178,335.88989c0,5.25134-3.8418,9.509-8.58057,9.509h-.37353c-4.73877,0-8.58008-4.25769-8.58008-9.509v-4.67456c0-5.3197,3.8916-9.63318,8.69287-9.63318h.14844c4.80029,0,8.69287,4.31348,8.69287,9.63318Z"/>
              </g>
              <g>
                <rect class="cls-24" x="378.83422" y="345.05318" width="5.06107" height="5.06107"/>
                <path class="cls-2" d="M381.36457,346.39883a7.32775,7.32775,0,0,1-2.53072-.4562v1.18488a7.24752,7.24752,0,0,0,5.06143,0v-1.18488A7.32843,7.32843,0,0,1,381.36457,346.39883Z"/>
                <ellipse class="cls-25" cx="388.72195" cy="337.86333" rx="1.54438" ry="2.20913"/>
                <ellipse class="cls-25" cx="373.54822" cy="337.86333" rx="1.54438" ry="2.20913"/>
                <g>
                  <path class="cls-25" d="M388.722,339.26955a7.35738,7.35738,0,0,1-14.71477,0v-9.046H388.722Z"/>
                  <path class="cls-23" d="M388.722,330.22358s-15.8942.28265-14.321,6.83779c-3.3493-9.65857,3.56528-9.37259,6.21242-8.89467A58.71013,58.71013,0,0,1,388.722,330.22358Z"/>
                  <path class="cls-23" d="M388.722,330.22358s-14.01843.52468-13.67554,5.7688c-1.73459-6.27277,2.95916-9.62042,6.32231-9.07859A18.737,18.737,0,0,1,388.722,330.22358Z"/>
                </g>
                <circle cx="385.43526" cy="334.23395" r="0.72367"/>
                <circle cx="377.90566" cy="334.23395" r="0.72367"/>
              </g>
            </g>
            <g>
              <g>
                <line class="cls-26" x1="377.64548" y1="377.29737" x2="377.64548" y2="416.43578"/>
                <line class="cls-27" x1="377.64548" y1="377.29737" x2="377.64548" y2="396.43578"/>
                <g>
                  <line class="cls-28" x1="377.64548" y1="411.66842" x2="377.64548" y2="420.33372"/>
                  <line class="cls-29" x1="377.64548" y1="407.59564" x2="377.64548" y2="416.26093"/>
                </g>
              </g>
              <g>
                <line class="cls-26" x1="386.09344" y1="377.29737" x2="386.09344" y2="416.43578"/>
                <line class="cls-27" x1="386.09344" y1="377.29737" x2="386.09344" y2="396.43578"/>
                <g>
                  <line class="cls-28" x1="386.09344" y1="411.66842" x2="386.09344" y2="420.33372"/>
                  <line class="cls-29" x1="386.09344" y1="407.59564" x2="386.09344" y2="416.26093"/>
                </g>
              </g>
              <g>
                <path class="cls-30" d="M367.56321,312.25258v33.633c0,5.05487,6.88135,9.32526,15.02741,9.32526"/>
                <g>
                  <line class="cls-31" x1="367.56321" y1="309.80528" x2="367.56321" y2="314.69989"/>
                  <line class="cls-32" x1="367.56321" y1="312.85987" x2="367.56321" y2="340.49224"/>
                </g>
              </g>
              <g>
                <path class="cls-30" d="M396.24206,311.64833v33.633c0,5.05487-6.88134,9.32526-15.0274,9.32526"/>
                <g>
                  <line class="cls-31" x1="396.24206" y1="309.20102" x2="396.24206" y2="314.09564"/>
                  <line class="cls-33" x1="396.24206" y1="312.25561" x2="396.24206" y2="339.88799"/>
                </g>
              </g>
              <path class="cls-12" d="M393.74,383.76566H369.9989V360.0383a11.87055,11.87055,0,0,1,11.87055-11.87055h0A11.87056,11.87056,0,0,1,393.74,360.0383Z"/>
            </g>
          </g>
        </g>
      </g>
    </g>
    <g id="kunde-2" data-name="kunde">
      <ellipse class="cls-34" cx="29.00915" cy="484.16913" rx="22.66673" ry="3.7712"/>
      <g>
        <g>
          <line class="cls-35" x1="35.13383" y1="440.82347" x2="24.16446" y2="477.2343"/>
          <g>
            <line class="cls-36" x1="25.65271" y1="472.29431" x2="22.94762" y2="481.27338"/>
            <line class="cls-37" x1="26.92414" y1="468.07404" x2="24.21904" y2="477.05311"/>
          </g>
        </g>
        <g>
          <line class="cls-35" x1="35.13383" y1="440.82347" x2="35.13383" y2="478.85077"/>
          <g>
            <line class="cls-36" x1="35.13383" y1="473.69146" x2="35.13383" y2="483.06917"/>
            <line class="cls-37" x1="35.13383" y1="469.28383" x2="35.13383" y2="478.66154"/>
          </g>
        </g>
        <g class="cls-38">
          <polygon points="31.277 466.996 27.857 478.347 26.542 482.693 31.001 444.267 31.277 440.254 31.277 440.823 31.277 466.996"/>
        </g>
        <rect class="cls-39" x="32.36813" y="392.76463" width="5.53139" height="7.53139" transform="translate(70.26766 793.06066) rotate(-180)"/>
        <path class="cls-40" d="M47.98033,444.37661h-25.693V411.91388A12.84649,12.84649,0,0,1,35.13382,399.0674h0a12.84649,12.84649,0,0,1,12.84649,12.84648Z"/>
        <g>
          <path class="cls-2" d="M35.13383,396.48464a12.36451,12.36451,0,0,0,2.77946-2.13756v1.67383a7.76124,7.76124,0,0,1-2.23217,1.63739,10.05365,10.05365,0,0,1-3.313.73646l.04823-1.19309A8.00951,8.00951,0,0,0,35.13383,396.48464Z"/>
          <g>
            <path class="cls-41" d="M39.02322,385.79862a8.04109,8.04109,0,1,1-14.57541,6.79662L20.26956,383.635,34.845,376.83833Z"/>
            <circle cx="34.04127" cy="382.04925" r="0.79092"/>
            <path class="cls-42" d="M35.06756,371.12112,23.38019,376.571l-.95964.44748L18.195,378.989a2.63076,2.63076,0,0,0-1.36835,3.45716l3.96506,8.5031a2.63123,2.63123,0,0,0,3.528,1.174l.00771-.0036a8.13406,8.13406,0,0,0,4.79129-7.43826,5.758,5.758,0,0,1,1.0403-3.47643,7.20109,7.20109,0,0,1,2.15179-1.78727,6.53642,6.53642,0,0,0,2.75886-8.29216Z"/>
            <path class="cls-41" d="M30.69591,385.56923a2.21423,2.21423,0,0,1-.13013,3.10714,2.40549,2.40549,0,0,1-2.91343-3.746A2.21422,2.21422,0,0,1,30.69591,385.56923Z"/>
          </g>
        </g>
        <g>
          <g class="cls-38">
            <path d="M33.75609,403.50892a2.75439,2.75439,0,0,1,2.75459,2.7546V421.0006a3.86112,3.86112,0,0,0,3.85644,3.85644h7.61333v5.50919H40.36712a9.3768,9.3768,0,0,1-9.36563-9.36563V406.26352A2.7544,2.7544,0,0,1,33.75609,403.50892Z"/>
          </g>
          <path class="cls-43" d="M35.13383,404.04962v14.73709a6.611,6.611,0,0,0,6.611,6.611H62.2145"/>
          <g>
            <line class="cls-44" x1="54.91503" y1="425.39773" x2="61.05988" y2="425.39773"/>
            <line class="cls-45" x1="59.32266" y1="425.39773" x2="63.2637" y2="425.39773"/>
          </g>
        </g>
      </g>
    </g>
    <g id="frau-4" data-name="frau">
      <g>
        <ellipse class="cls-34" cx="432.35818" cy="423.45256" rx="19.15357" ry="3.70971"/>
        <g>
          <g id="haare">
            <path class="cls-46" d="M415.0652,336.71348c0-.98627,1.37457-1.84047,1.53909-2.77961.16914-.96555-.82809-2.23662-.50018-3.13722.33375-.91663,1.9178-1.24834,2.4-2.08167.48671-.84113-.01417-2.3785.60723-3.11822.62314-.7418,2.22453-.51365,2.96638-1.13673.73972-.6213.79159-2.23855,1.6327-2.72517.83325-.48207,2.25941.2781,3.17593-.05556.90058-.32786,1.50336-1.82978,2.46887-1.99887.93892-.16444,2.01693,1.0386,3.003,1.0386.98626,0,2.06453-1.203,3.00367-1.03848.96554.16914,1.56829,1.6711,2.4689,1.999.91662.33375,2.34294-.42627,3.17627.05592.84113.48671.89293,2.104,1.63266,2.72542.74179.62314,2.3432.39513,2.96628,1.137.62129.73972.12025,2.277.60687,3.1181.48207.83325,2.066,1.16494,2.3997,2.08146.32786.90058-.66944,2.17157-.50035,3.13708.16444.93892,1.539,1.79292,1.539,2.779,0,.98627-1.37457,1.84047-1.53908,2.77961-.16915.96555.82809,2.23662.50017,3.13723-.33375.91662-1.9178,1.24833-2.4,2.08166-.48671.84113.01417,2.3785-.60723,3.11823-.62314.74179-2.22453.51365-2.96638,1.13673-.73972.62129-.79159,2.23855-1.6327,2.72516-.83325.48207-2.25941-.27809-3.17593.05556-.90058.32786-1.50335,1.82978-2.46886,1.99888-.93893.16444-2.01694-1.0386-3.003-1.0386-.98627,0-2.06454,1.203-3.00368,1.03847-.96554-.16914-1.56829-1.6711-2.46889-1.999-.91663-.33375-2.34295.42628-3.17628-.05592-.84113-.48671-.89293-2.104-1.63266-2.72541-.74179-.62314-2.3432-.39514-2.96628-1.137-.62129-.73972-.12025-2.277-.60686-3.11809-.48208-.83326-2.06605-1.165-2.39971-2.08147-.32786-.90058.66945-2.17157.50035-3.13708C416.43973,338.55351,415.0652,337.69951,415.0652,336.71348Z"/>
          </g>
          <path id="haare-2" data-name="haare" class="cls-46" d="M441.65434,347.80248l-18.64328-.16871a2.80264,2.80264,0,0,1-2.68028-3.5335l4.08162-15.10752,15.06714-1.83129,4.8942,17.06589A2.80263,2.80263,0,0,1,441.65434,347.80248Z"/>
          <g>
            <g id="bein_links" data-name="bein links">
              <line class="cls-47" x1="428.19794" y1="385.21377" x2="428.19794" y2="417.37853"/>
              <g>
                <line class="cls-48" x1="428.19794" y1="413.01462" x2="428.19794" y2="420.9466"/>
                <line class="cls-49" x1="428.19794" y1="409.2865" x2="428.19794" y2="417.21848"/>
              </g>
            </g>
            <g id="bein_rechts" data-name="bein rechts">
              <line class="cls-47" x1="435.93097" y1="385.21377" x2="435.93097" y2="417.37853"/>
              <g>
                <line class="cls-48" x1="435.93097" y1="413.01462" x2="435.93097" y2="420.9466"/>
                <line class="cls-49" x1="435.93097" y1="409.2865" x2="435.93097" y2="417.21848"/>
              </g>
            </g>
            <g id="nacken">
              <rect class="cls-39" x="429.72532" y="346.25567" width="4.67863" height="4.67863"/>
              <path class="cls-2" d="M432.06446,347.49964a6.77394,6.77394,0,0,1-2.33949-.42173v1.09535a6.69984,6.69984,0,0,0,4.679,0v-1.09535A6.77468,6.77468,0,0,1,432.06446,347.49964Z"/>
            </g>
            <g id="arm_links" data-name="arm links">
              <g>
                <path class="cls-50" d="M418.9689,391.05042V360.26365c0-4.62709,6.299-8.53609,13.75568-8.53609"/>
                <g>
                  <line class="cls-51" x1="418.9689" y1="393.29062" x2="418.9689" y2="388.81022"/>
                  <line class="cls-52" x1="418.9689" y1="390.49453" x2="418.9689" y2="365.2006"/>
                </g>
              </g>
            </g>
            <g id="arm_links-2" data-name="arm links">
              <g>
                <path class="cls-50" d="M445.16119,391.05042V360.26365c0-4.62709-6.299-8.53609-13.75569-8.53609"/>
                <g>
                  <line class="cls-51" x1="445.16119" y1="393.29062" x2="445.16119" y2="388.81022"/>
                  <line class="cls-52" x1="445.16119" y1="390.49453" x2="445.16119" y2="365.2006"/>
                </g>
              </g>
            </g>
            <g id="gesicht">
              <path class="cls-41" d="M438.86588,340.90908a6.80142,6.80142,0,0,1-13.60285,0v-8.3624h13.60285Z"/>
            </g>
            <ellipse id="ohr_r" data-name="ohr r" class="cls-41" cx="438.86588" cy="339.60913" rx="1.42768" ry="2.0422"/>
            <ellipse id="ohr_l" data-name="ohr l" class="cls-41" cx="424.83875" cy="339.60913" rx="1.42768" ry="2.0422"/>
            <circle id="auge_r" data-name="auge r" class="cls-53" cx="435.82754" cy="336.254" r="0.66899"/>
            <circle id="auge_l" data-name="auge l" class="cls-53" cx="428.86693" cy="336.254" r="0.66899"/>
            <g id="haare-3" data-name="haare">
              <path class="cls-46" d="M439.90217,332.23207v-.42564a1.97293,1.97293,0,0,0-1.69939-1.95442l-6.1382-.85926-6.13817.85926a1.97294,1.97294,0,0,0-1.69967,1.95442v.42564Z"/>
            </g>
          </g>
          <path class="cls-46" d="M440.80272,329.20451s-1.82015,5.4242-10.01369,5.4242a8.53973,8.53973,0,0,1-8.35037-5.78612s3.02777,3.20616,7.5344-1.12692C430.993,325.98026,439.33126,325.12079,440.80272,329.20451Z"/>
        </g>
      </g>
      <g id="kleid">
        <path class="cls-19" d="M442.93045,398.07785h-21.732v-37.8163a10.866,10.866,0,0,1,10.866-10.866h0a10.866,10.866,0,0,1,10.866,10.866Z"/>
      </g>
    </g>
    <g id="containers-2" data-name="containers">
      <g class="cls-54">
        <g id="container">
          <g>
            <polyline class="cls-6" points="435.436 87.936 435.436 122.912 427.615 122.912 427.615 87.936"/>
            <use width="136.99057" height="123.47516" transform="translate(364.71659 122.29335)" xlink:href="#container_Zeilen"/>
          </g>
        </g>
        <g>
          <g id="container-2" data-name="container">
            <polyline class="cls-6" points="594.664 78.914 594.664 173.89 586.843 173.89 586.843 78.914"/>
          </g>
          <use width="136.99057" height="123.47516" transform="translate(523.91798 172.62471)" xlink:href="#container_Zeilen"/>
        </g>
        <g>
          <g id="container-3" data-name="container">
            <polyline class="cls-6" points="742.351 48.199 742.351 83.175 734.531 83.175 734.531 48.199"/>
          </g>
          <use width="136.99057" height="123.47516" transform="translate(671.9268 81.9093)" xlink:href="#container_Zeilen"/>
        </g>
        <path id="cloud" class="cls-55" d="M788.09222-62.8143a64.99025,64.99025,0,0,0-91.8927,0q-.31261.3125-.62.62815-1.27785-1.55388-2.73034-3.00807-.75273-.75255-1.53406-1.458a43.10874,43.10874,0,0,0-31.11571-13.22813,43.25426,43.25426,0,0,0-42.12668,33.48246,23.669,23.669,0,0,0-21.91615,23.60059A23.6723,23.6723,0,0,0,619.82882.875a23.55755,23.55755,0,0,0,13.09462-3.95262,43.06107,43.06107,0,0,0,27.27593,9.69214A43.05751,43.05751,0,0,0,679.32884,2.1553c.201-.0823.40305-.16137.603-.247a64.67035,64.67035,0,0,0,16.26766,27.14528,64.99025,64.99025,0,0,0,91.8927,0A64.94791,64.94791,0,0,0,788.09222-62.8143Z"/>
        <path id="cloud-2" data-name="cloud" class="cls-55" d="M536.79759,48.919a62.64547,62.64547,0,0,0,109.93419-8.68455A62.688,62.688,0,0,0,548.085-32.244a47.57042,47.57042,0,0,0-10.259-6.17065,47.42911,47.42911,0,0,0-62.57835,24.25,47.55855,47.55855,0,0,0-3.46316,11.72345,57.73231,57.73231,0,1,0,10.181,37.56592A47.49861,47.49861,0,0,0,536.79759,48.919Z"/>
      </g>
    </g>
    <g id="cloud-3" data-name="cloud">
      <g class="cls-56">
        <g>
          <path class="cls-55" d="M1212.9388,104.75881A85.80627,85.80627,0,1,0,1267.525,6.60788a65.02337,65.02337,0,0,0-112.20092.30074,79.15973,79.15973,0,1,0-132.84207,74.71394,79.13574,79.13574,0,0,0,127.25254-21.65471,65.07083,65.07083,0,0,0,63.20421,44.791Z"/>
          <path class="cls-55" d="M939.22529-2.19437a37.04409,37.04409,0,0,0-10.69392-29.79229,37.07515,37.07515,0,0,0-52.45228,0,37.12074,37.12074,0,0,0,0,52.479,37.08542,37.08542,0,0,0,47.71067,4.01609,43.82119,43.82119,0,0,0,86.15834,15.97964,51.46082,51.46082,0,0,0,49.73074,5.134A80.9606,80.9606,0,1,0,1194.4101-35.06317a80.91137,80.91137,0,0,0-114.46727,0q-.38935.38959-.77234.78309-1.59188-1.93707-3.40109-3.75a51.38689,51.38689,0,0,0-72.69861,0A51.23092,51.23092,0,0,0,988.25555-6.6547a43.59744,43.59744,0,0,0-21.23872-5.48574q-1.68275,0-3.33439.12507a27.006,27.006,0,0,0-21.60077,7.66205Q940.60852-3.3314,939.22529-2.19437Z"/>
        </g>
      </g>
    </g>
  </g>
  <g id="Public-2" data-name="Public">
    <g>
      <g id="mann">
        <ellipse class="cls-34" cx="257.00853" cy="422.52864" rx="22.66673" ry="3.7712"/>
        <g>
          <g>
            <line class="cls-35" x1="263.1332" y1="379.18298" x2="252.16383" y2="415.59381"/>
            <g>
              <line class="cls-36" x1="253.65209" y1="410.65381" x2="250.94699" y2="419.63289"/>
              <line class="cls-37" x1="254.92352" y1="406.43354" x2="252.21842" y2="415.41262"/>
            </g>
          </g>
          <g>
            <line class="cls-35" x1="263.1332" y1="379.18298" x2="263.1332" y2="417.21028"/>
            <g>
              <line class="cls-36" x1="263.1332" y1="412.05097" x2="263.1332" y2="421.42868"/>
              <line class="cls-37" x1="263.1332" y1="407.64334" x2="263.1332" y2="417.02105"/>
            </g>
          </g>
          <g class="cls-38">
            <polygon points="259.276 405.356 255.857 416.707 254.542 421.053 259.001 382.626 259.276 378.613 259.276 379.183 259.276 405.356"/>
          </g>
          <rect class="cls-39" x="260.36751" y="331.12414" width="5.53139" height="7.53139" transform="translate(526.26641 669.77967) rotate(-180)"/>
          <path class="cls-57" d="M275.9797,382.73612h-25.693V350.27339a12.84647,12.84647,0,0,1,12.84648-12.84648h0a12.84648,12.84648,0,0,1,12.84648,12.84648Z"/>
          <g>
            <path class="cls-2" d="M263.13321,334.84415a12.365,12.365,0,0,0,2.77946-2.13756v1.67383a7.76126,7.76126,0,0,1-2.23218,1.63738,10.05383,10.05383,0,0,1-3.313.73647l.04823-1.19309A8.00951,8.00951,0,0,0,263.13321,334.84415Z"/>
            <g>
              <path class="cls-41" d="M267.0226,324.15813a8.04109,8.04109,0,0,1-14.57541,6.79662l-4.17825-8.96029,14.5754-6.79662Z"/>
              <circle cx="262.04065" cy="320.40876" r="0.79092"/>
              <path class="cls-42" d="M263.06694,309.48063l-11.68737,5.44991-.95964.44749-4.22559,1.97042a2.63075,2.63075,0,0,0-1.36834,3.45716l3.96506,8.5031a2.63123,2.63123,0,0,0,3.528,1.174l.00771-.0036a8.13411,8.13411,0,0,0,4.79129-7.43827,5.75793,5.75793,0,0,1,1.0403-3.47642,7.20074,7.20074,0,0,1,2.15178-1.78727A6.53643,6.53643,0,0,0,263.069,309.485Z"/>
              <path class="cls-41" d="M258.69529,323.92873a2.038,2.038,0,1,1-3.04357-.63886A2.21426,2.21426,0,0,1,258.69529,323.92873Z"/>
            </g>
          </g>
          <use width="5.84252" height="38.43428" transform="translate(259.14302 340.6809) scale(1.21275)" xlink:href="#Neues_Symbol_5"/>
        </g>
      </g>
      <g id="frau-5" data-name="frau">
        <g>
          <g id="paar3-2" data-name="paar3">
            <g id="frau-6" data-name="frau">
              <g>
                <g id="frau-7" data-name="frau">
                  <g>
                    <path class="cls-22" d="M216.5397,305.90756a2.93,2.93,0,1,1-2.9129-3.24538A3.09281,3.09281,0,0,1,216.5397,305.90756Z"/>
                    <path class="cls-22" d="M228.6107,305.90756a2.93,2.93,0,1,1-2.91289-3.24538A3.09281,3.09281,0,0,1,228.6107,305.90756Z"/>
                    <path class="cls-23" d="M226.8209,314.42555c0,4.46876-3.26945,8.092-7.3021,8.092h-.31762c-4.03268,0-7.30183-3.62326-7.30183-8.092v-3.978c0-4.527,3.31182-8.19774,7.39767-8.19774h.12621c4.085,0,7.39767,3.67075,7.39767,8.19774Z"/>
                  </g>
                  <g>
                    <rect class="cls-24" x="217.16745" y="322.22334" width="4.30689" height="4.30689"/>
                    <path class="cls-2" d="M219.32074,323.36847a6.23594,6.23594,0,0,1-2.15361-.38822v1.00831a6.16755,6.16755,0,0,0,4.30721,0v-1.00831A6.23655,6.23655,0,0,1,219.32074,323.36847Z"/>
                    <ellipse class="cls-25" cx="225.58175" cy="316.10489" rx="1.31424" ry="1.87994"/>
                    <ellipse class="cls-25" cx="212.66915" cy="316.10489" rx="1.31424" ry="1.87994"/>
                    <g>
                      <path class="cls-25" d="M225.58175,317.30156a6.261,6.261,0,1,1-12.522,0v-7.698h12.522Z"/>
                      <path class="cls-23" d="M225.58175,309.60359s-13.52571.24053-12.18692,5.81885c-2.8502-8.21929,3.034-7.97593,5.28667-7.56922A49.96079,49.96079,0,0,1,225.58175,309.60359Z"/>
                      <path class="cls-23" d="M225.58175,309.60359s-11.92945.44649-11.63766,4.90915c-1.47612-5.338,2.51819-8.18682,5.38018-7.72573A15.9448,15.9448,0,0,1,225.58175,309.60359Z"/>
                    </g>
                    <circle cx="222.78483" cy="313.01635" r="0.61583"/>
                    <circle cx="216.37726" cy="313.01635" r="0.61583"/>
                  </g>
                </g>
                <g>
                  <g>
                    <line class="cls-58" x1="216.15585" y1="358.17247" x2="216.15585" y2="388.0747"/>
                    <g>
                      <line class="cls-59" x1="216.15585" y1="384.01775" x2="216.15585" y2="391.39178"/>
                      <line class="cls-60" x1="216.15585" y1="380.55187" x2="216.15585" y2="387.9259"/>
                    </g>
                  </g>
                  <g>
                    <line class="cls-58" x1="223.34493" y1="358.17247" x2="223.34493" y2="388.0747"/>
                    <g>
                      <line class="cls-59" x1="223.34493" y1="384.01775" x2="223.34493" y2="391.39178"/>
                      <line class="cls-60" x1="223.34493" y1="380.55187" x2="223.34493" y2="387.9259"/>
                    </g>
                  </g>
                  <g>
                    <path class="cls-61" d="M207.576,358.15446V335.83329c0-4.30161,5.85591-7.93565,12.78807-7.93565"/>
                    <g>
                      <line class="cls-62" x1="207.57601" y1="359.72325" x2="207.57601" y2="355.55801"/>
                      <line class="cls-63" x1="207.57601" y1="357.63767" x2="207.57601" y2="340.42296"/>
                    </g>
                  </g>
                  <g>
                    <path class="cls-61" d="M231.98125,358.15484V335.83368c0-4.30162-5.85592-7.93565-12.78808-7.93565"/>
                    <g>
                      <line class="cls-62" x1="231.98125" y1="360.23746" x2="231.98125" y2="356.07222"/>
                      <line class="cls-64" x1="231.98125" y1="357.63805" x2="231.98125" y2="340.42335"/>
                    </g>
                  </g>
                  <path class="cls-12" d="M229.85205,353.689H209.64873V334.97544a10.10165,10.10165,0,0,1,10.10165-10.10165h0a10.10165,10.10165,0,0,1,10.10165,10.10165Z"/>
                </g>
              </g>
              <polygon class="cls-65" points="234.738 373.124 205.309 373.124 213.409 332.624 226.638 332.624 234.738 373.124"/>
            </g>
          </g>
          <g>
            <g>
              <path class="cls-66" d="M214.25287,325.13125a1.73746,1.73746,0,0,0-1.735,1.735v6.88359a1.735,1.735,0,0,0,3.46993,0v-6.88359A1.73745,1.73745,0,0,0,214.25287,325.13125Z"/>
              <circle class="cls-67" cx="214.25287" cy="333.0949" r="1.18899"/>
            </g>
            <g>
              <path class="cls-66" d="M225.79366,325.13125a1.73745,1.73745,0,0,0-1.735,1.735v6.88359a1.735,1.735,0,0,0,3.46992,0v-6.88359A1.73745,1.73745,0,0,0,225.79366,325.13125Z"/>
              <circle class="cls-67" cx="225.79366" cy="333.0949" r="1.18899"/>
            </g>
          </g>
        </g>
        <g id="frau-8" data-name="frau">
          <ellipse class="cls-34" cx="219.60426" cy="393.20951" rx="17.23821" ry="3.33874"/>
        </g>
      </g>
      <g id="frau-9" data-name="frau">
        <path class="cls-68" d="M178.1172,321.6315c.47028-2.51315,2.87338-5.35045-2.367-21.30691a18.04036,18.04036,0,0,0-2.12143,1.60195c-2.52647,2.47577-14.4903,5.55683-13.19779,6.8738,0,0-.94128,13.47585-3.71559,15.75409A27.52084,27.52084,0,0,0,178.1172,321.6315Z"/>
        <g id="nacken-2" data-name="nacken">
          <rect class="cls-39" x="173.71797" y="314.40694" width="4.72934" height="6.43934" transform="translate(352.16529 635.25322) rotate(-180)"/>
          <path class="cls-2" d="M176.08264,317.58755a10.57229,10.57229,0,0,0,2.37645-1.82761v1.43112a6.63591,6.63591,0,0,1-1.90852,1.4,8.59578,8.59578,0,0,1-2.8326.62968l.04124-1.02009A6.84815,6.84815,0,0,0,176.08264,317.58755Z"/>
        </g>
        <ellipse class="cls-34" cx="170.84604" cy="392.55779" rx="19.38005" ry="3.22438"/>
        <g>
          <line class="cls-58" x1="176.08264" y1="355.49725" x2="166.70383" y2="386.62851"/>
          <g>
            <line class="cls-69" x1="167.97629" y1="382.40481" x2="165.66343" y2="390.08192"/>
            <line class="cls-70" x1="169.06336" y1="378.79648" x2="166.7505" y2="386.47359"/>
          </g>
        </g>
        <g>
          <line class="cls-58" x1="176.08264" y1="355.49725" x2="176.08264" y2="388.01059"/>
          <g>
            <line class="cls-69" x1="176.08264" y1="383.59938" x2="176.08264" y2="391.61732"/>
            <line class="cls-70" x1="176.08264" y1="379.83086" x2="176.08264" y2="387.8488"/>
          </g>
        </g>
        <g class="cls-38">
          <polygon points="172.785 377.875 169.861 387.58 168.737 391.296 172.549 358.441 172.785 355.01 172.785 355.497 172.785 377.875"/>
        </g>
        <g>
          <path class="cls-67" d="M187.0664,371.86626H165.09889V330.77955a10.98374,10.98374,0,0,1,10.98374-10.98374h0a10.98374,10.98374,0,0,1,10.98375,10.98374Z"/>
          <rect class="cls-40" x="165.09889" y="347.29384" width="21.96762" height="3.56697"/>
        </g>
        <g>
          <path class="cls-2" d="M174.95077,360.13471a2.35561,2.35561,0,0,1-2.35547-2.35547v-32.8877a2.35547,2.35547,0,0,1,4.71094,0v32.8877A2.35561,2.35561,0,0,1,174.95077,360.13471Z"/>
          <line class="cls-71" x1="176.08264" y1="324.05561" x2="176.08264" y2="356.94298"/>
          <line class="cls-4" x1="176.08264" y1="350.42299" x2="176.08264" y2="356.94298"/>
          <line class="cls-5" x1="176.08264" y1="353.42299" x2="176.08264" y2="356.94298"/>
        </g>
        <g id="kopf-2" data-name="kopf">
          <g>
            <path class="cls-41" d="M179.40807,308.451a6.87513,6.87513,0,1,1-12.462,5.81111l-3.5724-7.661,12.462-5.81111Z"/>
            <circle cx="175.14851" cy="305.24529" r="0.67624"/>
          </g>
          <path class="cls-68" d="M156.7154,321.778a22.088,22.088,0,0,0,4.95412-16.12921l6.53944-4.23006-2.2789,18.72657S165.1374,323.11344,156.7154,321.778Z"/>
          <g>
            <path class="cls-68" d="M175.83567,300.78995s1.38978-.65932,4.21819,2.41223c0,0-2.45357-7.47007-8.21943-5.38934Z"/>
            <path class="cls-68" d="M176.0352,300.12155s-2.15863,6.84892-5.83439,7.35082c0,0,2.94928,11.5608-1.14965,14.77292l-4.23577,1.29177c-6.24219-.17162-4.98731.25357-8.13578-.25411l-1.59907-.27568a41.7195,41.7195,0,0,0,3.818-17.29538c.00675-2.38112,3.01755-10.5089,12.93587-7.899Z"/>
            <path class="cls-68" d="M170.01721,298.69393a8.46551,8.46551,0,0,1,6.46513-2.82384s-3.71559,1.189-3.567,2.89816Z"/>
            <path class="cls-68" d="M172.09794,298.24806c.14862-.22293,1.56055-2.49069,6.09357.13114,0,0-4.90458-.90923-4.97889,0Z"/>
          </g>
          <path class="cls-41" d="M171.88458,310.33229c-.70516.4942-1.90054.003-2.67265-1.09179-.767-1.09686-.82051-2.38836-.117-2.88231.70444-.49431,1.90112-.00688,2.66761,1.09383C172.5323,308.54649,172.585,309.833,171.88458,310.33229Z"/>
        </g>
      </g>
    </g>
  </g>
</svg>
