<svg xmlns="http://www.w3.org/2000/svg" xmlns:xlink="http://www.w3.org/1999/xlink" width="1280" height="564" viewBox="0 0 1280 564">
  <defs>
    <linearGradient id="a" x1="554.916" y1="236.957" x2="554.916" y2="186.828" gradientUnits="userSpaceOnUse">
      <stop offset="0.291" stop-color="#fff"/>
      <stop offset="0.31" stop-color="#eaeaea"/>
      <stop offset="0.359" stop-color="#bababa"/>
      <stop offset="0.412" stop-color="#8d8d8d"/>
      <stop offset="0.467" stop-color="#676767"/>
      <stop offset="0.526" stop-color="#474747"/>
      <stop offset="0.59" stop-color="#2d2d2d"/>
      <stop offset="0.66" stop-color="#191919"/>
      <stop offset="0.739" stop-color="#0b0b0b"/>
      <stop offset="0.836" stop-color="#020202"/>
      <stop offset="1"/>
    </linearGradient>
    <linearGradient id="b" x1="506.547" y1="231.518" x2="506.547" y2="187.995" xlink:href="#a"/>
    <linearGradient id="c" x1="603" y1="231.444" x2="603" y2="187.921" xlink:href="#a"/>
    <mask id="d" x="527.56" y="186.828" width="54.711" height="50.129" maskUnits="userSpaceOnUse">
      <rect x="527.56" y="186.828" width="54.711" height="50.129" fill="url(#a)"/>
    </mask>
    <mask id="e" x="482.796" y="187.995" width="47.501" height="43.523" maskUnits="userSpaceOnUse">
      <rect x="482.796" y="187.995" width="47.501" height="43.523" fill="url(#b)"/>
    </mask>
    <mask id="f" x="579.249" y="187.921" width="47.501" height="43.523" maskUnits="userSpaceOnUse">
      <rect x="579.249" y="187.921" width="47.501" height="43.523" fill="url(#c)"/>
    </mask>
    <clipPath id="g">
      <rect x="82.519" y="350.76" width="119.151" height="51.859" fill="none"/>
    </clipPath>
    <clipPath id="h">
      <rect x="649.127" y="460.994" width="199.367" height="86.772" fill="none"/>
    </clipPath>
    <symbol id="i" data-name="Hannelore" viewBox="0 0 23.693 97.512">
      <path d="M16.191,39.391" fill="#ffd800"/>
      <path d="M12.693,8.24H11.272A18.993,18.993,0,0,1,11.4.7c.083-.389.363-.7.614-.7h0c.25,0,.529.313.609.7A19.022,19.022,0,0,1,12.693,8.24Z" fill="#e0291b"/>
      <path d="M17.887,42.56a13.114,13.114,0,0,1-1.727-3.169C15.1,36.355,14.8,29.739,14.747,24.4a21.306,21.306,0,0,1,1.886-9.19,8.28,8.28,0,0,0,.761-3.371c-.05-3.87-2.769-6.99-5.412-6.988S6.62,7.969,6.57,11.839a8.291,8.291,0,0,0,.69,3.212A21.852,21.852,0,0,1,9,23.994c-.043,5.405-.329,12.283-1.416,15.4A13.118,13.118,0,0,1,5.852,42.56C2.544,46.97,1.883,56.782,1.883,57.774c0,4.19,2.536,13.341,8.93,13.341h2.113c6.4,0,8.931-9.151,8.931-13.341C21.857,56.782,21.2,46.97,17.887,42.56Z" fill="#ffd800"/>
      <path d="M6.57,11.839c.05-3.87,2.769-6.99,5.412-6.988s5.362,3.118,5.412,6.988c-.05,3.871-2.769,6.991-5.412,6.989S6.62,15.71,6.57,11.839Z" fill="none"/>
      <path d="M15.1,20.121a20.8,20.8,0,0,1,.615-2.523,7.985,7.985,0,0,1-3.733,1.23,7.106,7.106,0,0,1-3.841-1.323,21.316,21.316,0,0,1,.545,2.423h0a7.331,7.331,0,0,0,3.293.973h0a7.5,7.5,0,0,0,3.114-.779Z" fill="#e0c100"/>
      <path d="M21.857,57.774c0-.078,0-.217-.014-.4a9.01,9.01,0,0,0-7.622-3.5H9.638c-4.274-.127-6.566,1.752-7.733,3.351-.015.26-.022.449-.022.548,0,4.19,2.536,13.341,8.93,13.341h2.113C19.321,71.115,21.857,61.964,21.857,57.774Z" fill="#ffd800"/>
      <g>
        <path d="M9.265,45.481H9.157a5.034,5.034,0,0,1-4.972,4.271H1.651v.007a.625.625,0,0,0,.61.759H4.951a5.039,5.039,0,0,0,4.979-4.27A.671.671,0,0,0,9.265,45.481Z" fill="#c2a802"/>
        <path d="M8.391,44.715a4.983,4.983,0,0,1-.175.766,5.038,5.038,0,0,1-4.8,3.5H1.827c-.061.257-.12.512-.176.767H4.185a5.034,5.034,0,0,0,4.972-4.271v-.007a.667.667,0,0,0-.664-.759Z" fill="#e0c100"/>
        <path d="M4.334,43.949a1.241,1.241,0,0,0-1.143.758l0,.008c-.106.251-.208.507-.306.766a29.746,29.746,0,0,0-1.055,3.5H3.418a5.038,5.038,0,0,0,4.8-3.5,4.983,4.983,0,0,0,.175-.766v-.008a.666.666,0,0,0-.664-.758Z" fill="#e0c100"/>
      </g>
      <g>
        <path d="M14.511,45.481h.108a5.034,5.034,0,0,0,4.972,4.271h2.533l0,.007a.626.626,0,0,1-.611.759h-2.69a5.038,5.038,0,0,1-4.979-4.27A.67.67,0,0,1,14.511,45.481Z" fill="#c2a802"/>
        <path d="M15.385,44.715a4.983,4.983,0,0,0,.175.766,5.036,5.036,0,0,0,4.8,3.5h1.592c.061.257.119.512.175.767H19.591a5.034,5.034,0,0,1-4.972-4.271v-.007a.666.666,0,0,1,.664-.759Z" fill="#e0c100"/>
        <path d="M19.441,43.949a1.24,1.24,0,0,1,1.143.758l0,.008c.106.251.208.507.3.766a29.75,29.75,0,0,1,1.056,3.5H20.357a5.036,5.036,0,0,1-4.8-3.5,4.983,4.983,0,0,1-.175-.766v-.008a.666.666,0,0,1,.664-.758Z" fill="#e0c100"/>
      </g>
      <path d="M3.258,55.873" fill="#ffd800"/>
      <g>
        <g>
          <path d="M4.115,97.512a1.037,1.037,0,0,1-1.037-1.037V82.525a1.037,1.037,0,0,1,2.074,0v13.95A1.037,1.037,0,0,1,4.115,97.512Z" fill="#e74a19"/>
          <path d="M6.6,96.494a1.037,1.037,0,0,1-.912-.541L4.115,93.068,2.543,95.953a1.037,1.037,0,0,1-1.821-.992l2.483-4.556a1.037,1.037,0,0,1,1.821,0l2.482,4.556A1.037,1.037,0,0,1,6.6,96.494Z" fill="#e74a19"/>
        </g>
        <path d="M8.224,63.879c0-4.422-1.839-8.006-4.109-8.006S.006,59.457.006,63.879a39.116,39.116,0,0,0,1.627,11c.73,2.64,1.3,11.471,1.3,11.471H5.3s.566-8.831,1.3-11.471A39.088,39.088,0,0,0,8.224,63.879Z" fill="#e0c100"/>
      </g>
      <g>
        <g>
          <path d="M19.578,97.512a1.037,1.037,0,0,1-1.037-1.037V82.525a1.037,1.037,0,0,1,2.074,0v13.95A1.037,1.037,0,0,1,19.578,97.512Z" fill="#e74a19"/>
          <path d="M22.062,96.494a1.037,1.037,0,0,1-.912-.541l-1.572-2.885-1.572,2.885a1.037,1.037,0,0,1-1.821-.992l2.483-4.556a1.037,1.037,0,0,1,1.821,0l2.482,4.556a1.037,1.037,0,0,1-.909,1.533Z" fill="#e74a19"/>
        </g>
        <path d="M23.687,63.879c0-4.422-1.839-8.006-4.109-8.006s-4.109,3.584-4.109,8.006a39.07,39.07,0,0,0,1.627,11c.729,2.64,1.3,11.471,1.3,11.471h2.373s.566-8.831,1.3-11.471A39.088,39.088,0,0,0,23.687,63.879Z" fill="#e0c100"/>
      </g>
      <path d="M3.258,55.873" fill="#ffd800"/>
      <g>
        <path d="M15.466,36.288H8.274c-.042.28-.087.55-.134.812H15.6Q15.53,36.709,15.466,36.288Z" fill="#c9231c"/>
        <path d="M11.069,36.1a3.969,3.969,0,0,0-3.342-1.984,7.764,7.764,0,0,0,0,4.6,4.393,4.393,0,0,0,3.342-1.272Z" fill="#e0291b"/>
        <path d="M12.671,36.1a3.969,3.969,0,0,1,3.342-1.984,7.764,7.764,0,0,1,0,4.6,4.393,4.393,0,0,1-3.342-1.272Z" fill="#e0291b"/>
        <path d="M12.671,37.219a.543.543,0,0,1-.495.581h-.612a.543.543,0,0,1-.495-.581V36.1a.543.543,0,0,1,.495-.581h.612a.543.543,0,0,1,.495.581Z" fill="#c9231c"/>
      </g>
      <g>
        <circle cx="14.129" cy="6.488" r="0.628"/>
        <g>
          <ellipse cx="9.898" cy="6.488" rx="1.705" ry="2.783" fill="#ebdd5b"/>
          <g>
            <path d="M10.538,4.868a2,2,0,0,1,.817.174c-.3-.8-.839-1.337-1.457-1.337-.941,0-1.7,1.246-1.7,2.783a4.561,4.561,0,0,0,.043.627A2.491,2.491,0,0,1,10.538,4.868Z" fill="#ffd800"/>
            <path d="M9.9,8.24A1.773,1.773,0,0,0,11.6,6.488a4.146,4.146,0,0,0-.248-1.446,2,2,0,0,0-.817-.174,2.491,2.491,0,0,0-2.3,2.247C8.237,7.767,9.089,8.24,9.9,8.24Z" fill="#e3f0f4"/>
          </g>
          <circle cx="9.898" cy="6.488" r="0.628"/>
        </g>
        <g>
          <ellipse cx="14.097" cy="6.488" rx="1.705" ry="2.783" fill="#ebdd5b"/>
          <g>
            <path d="M13.458,4.868a2,2,0,0,0-.817.174c.3-.8.839-1.337,1.456-1.337.942,0,1.705,1.246,1.705,2.783a4.408,4.408,0,0,1-.044.627A2.489,2.489,0,0,0,13.458,4.868Z" fill="#ffd800"/>
            <path d="M14.1,8.24a1.773,1.773,0,0,1-1.7-1.752,4.146,4.146,0,0,1,.248-1.446,2,2,0,0,1,.817-.174,2.489,2.489,0,0,1,2.3,2.247C15.758,7.767,14.907,8.24,14.1,8.24Z" fill="#e3f0f4"/>
          </g>
          <circle cx="14.097" cy="6.488" r="0.628"/>
        </g>
        <g>
          <g>
            <path d="M8.35,15.335a1.753,1.753,0,1,0,1.862,2.151A4.847,4.847,0,0,1,8.35,15.335Z" fill="#e0291b"/>
            <path d="M16.681,15.827a1.734,1.734,0,0,0-1.067-.492,4.841,4.841,0,0,1-1.862,2.151,1.731,1.731,0,0,0,.472.839,1.752,1.752,0,1,0,2.457-2.5Z" fill="#e0291b"/>
          </g>
          <ellipse cx="11.982" cy="12.277" rx="3.206" ry="4.627" fill="#e0291b"/>
          <path d="M11.982,15.668c-1.064,0-2-1.584-2-3.391s.934-3.39,2-3.39,2,1.584,2,3.39S13.047,15.668,11.982,15.668Z" fill="#ffd800"/>
        </g>
      </g>
    </symbol>
    <symbol id="j" data-name="f_schuhe_sport_front" viewBox="0 0 10 11.856">
      <line x1="5" x2="5" y2="11.325" fill="none" stroke="#ef9e69" stroke-miterlimit="10" stroke-width="5"/>
      <g>
        <g>
          <rect x="1.25" y="8.27" width="7.5" height="2.828" fill="#c7d1db"/>
          <path d="M5,5.459c-2.761,0-5,2.517-5,5.621H10C10,7.976,7.762,5.459,5,5.459Z" fill="#c7d1db"/>
          <rect y="11.08" width="10" height="0.776" fill="#c7d1db"/>
        </g>
        <g>
          <rect x="1.25" y="8.27" width="7.5" height="2.828" fill="#ecf0f2"/>
          <path d="M5,5.459c-2.761,0-5,2.517-5,5.621H10C10,7.976,7.762,5.459,5,5.459Z" fill="#ecf0f2"/>
          <rect y="11.08" width="10" height="0.776" fill="#c7d1db"/>
        </g>
      </g>
      <polygon points="5 6.281 5.446 7.655 6.891 7.655 5.722 8.505 6.169 9.879 5 9.029 3.831 9.879 4.278 8.505 3.109 7.655 4.554 7.655 5 6.281" fill="#fff"/>
    </symbol>
    <symbol id="k" data-name="f_tshirt_black_front" viewBox="0 0 40 42.466">
      <path d="M16.028.038h7.944A16.028,16.028,0,0,1,40,16.066v5.972a0,0,0,0,1,0,0H0a0,0,0,0,1,0,0V16.066A16.028,16.028,0,0,1,16.028.038Z"/>
      <path d="M20,0h0A12,12,0,0,1,32,12V42.466a0,0,0,0,1,0,0H8a0,0,0,0,1,0,0V12A12,12,0,0,1,20,0Z"/>
      <polyline points="21.806 15.424 20 17.16 18.194 15.424" fill="none" stroke="#1db1bf" stroke-linecap="round" stroke-miterlimit="10" stroke-width="3.182"/>
    </symbol>
    <symbol id="l" data-name="f_huefte_front" viewBox="0 0 24 13">
      <path d="M0,0H24a0,0,0,0,1,0,0V1.4A11.6,11.6,0,0,1,12.4,13h-.8A11.6,11.6,0,0,1,0,1.4V0A0,0,0,0,1,0,0Z" fill="#2c5972"/>
      <g>
        <rect width="4.089" height="1.791" fill="#c1d44f"/>
        <rect x="4.978" width="4.089" height="1.791" fill="#c1d44f"/>
        <rect x="9.956" width="4.089" height="1.791" fill="#c1d44f"/>
        <rect x="14.934" width="4.089" height="1.791" fill="#c1d44f"/>
        <rect x="19.911" width="4.089" height="1.791" fill="#c1d44f"/>
      </g>
    </symbol>
    <symbol id="m" data-name="S_halbe_bein_jeans_front" viewBox="0 0 11 41.854">
      <g>
        <line x1="5.5" y1="4" x2="5.5" y2="37.354" fill="none" stroke="#2d5972" stroke-linecap="round" stroke-miterlimit="10" stroke-width="8"/>
        <line x1="5.5" y1="30.853" x2="5.5" y2="37.354" fill="none" stroke="#2d5972" stroke-linecap="square" stroke-miterlimit="10" stroke-width="8"/>
        <line x1="5.5" y1="39.684" x2="5.5" y2="41.854" fill="none" stroke="#537e8e" stroke-miterlimit="10" stroke-width="11"/>
      </g>
    </symbol>
    <symbol id="p" data-name="schuhe_sport_seite 3" viewBox="0 0 16 12.135">
      <line x1="12.681" x2="12.681" y2="11.325" fill="none" stroke="#ef9e69" stroke-miterlimit="10" stroke-width="6"/>
      <g>
        <path d="M6.014,5.325a6,6,0,0,0-6,6h12A6,6,0,0,0,6.014,5.325Z" fill="#c7d1db"/>
        <path d="M6.014,5.325a6,6,0,0,0-6,6h12A6,6,0,0,0,6.014,5.325Z"/>
      </g>
      <rect x="6.014" y="5.325" width="9.986" height="6"/>
      <rect y="11.306" width="16" height="0.828" fill="#c7d1db"/>
    </symbol>
    <symbol id="q" data-name="M_bein_greyjeans" viewBox="0 0 9 50.194">
      <line x1="4.5" x2="4.5" y2="24.34" fill="none" stroke="#585e61" stroke-miterlimit="10" stroke-width="9"/>
      <line x1="4.5" y1="24.34" x2="4.5" y2="45.694" fill="none" stroke="#585e61" stroke-linecap="round" stroke-miterlimit="10" stroke-width="9"/>
      <line x1="4.5" y1="40.102" x2="4.5" y2="45.694" fill="none" stroke="#585e61" stroke-linecap="square" stroke-miterlimit="10" stroke-width="9"/>
    </symbol>
    <symbol id="t" data-name="m_huefte_grayjeans_front" viewBox="0 0 26.986 15.649">
      <path d="M0,0H26.986a0,0,0,0,1,0,0V2.156A13.493,13.493,0,0,1,13.493,15.649h0A13.493,13.493,0,0,1,0,2.156V0A0,0,0,0,1,0,0Z" fill="#585e61"/>
      <polygon points="23.221 0 22.389 0 4.597 0 3.387 0 0 0 0 2.156 3.387 2.156 4.597 2.156 22.389 2.156 23.221 2.156 26.986 2.156 26.986 0 23.221 0" fill="#313638"/>
    </symbol>
    <symbol id="u" data-name="m_arm 2" viewBox="0 0 9 39.711">
      <g>
        <line x1="4.5" y1="26.801" x2="4.5" y2="36.711" fill="none" stroke="#ef9e69" stroke-linecap="round" stroke-miterlimit="10" stroke-width="6"/>
        <line x1="4.5" x2="4.5" y2="11.401" fill="#e89a66" stroke="#000" stroke-miterlimit="10" stroke-width="9"/>
        <line x1="4.5" y1="11.401" x2="4.5" y2="27.801" fill="none" stroke="#000" stroke-linecap="square" stroke-miterlimit="10" stroke-width="9"/>
      </g>
    </symbol>
    <symbol id="v" data-name="m_tshirt_black_front 2" viewBox="0 0 45 45.979">
      <g>
        <path d="M17.866.087h9.267A17.866,17.866,0,0,1,45,17.953v4.633a0,0,0,0,1,0,0H0a0,0,0,0,1,0,0V17.953A17.866,17.866,0,0,1,17.866.087Z"/>
        <path d="M22.376.044h.247A13.376,13.376,0,0,1,36,13.421V45.979a0,0,0,0,1,0,0H9a0,0,0,0,1,0,0V13.421A13.376,13.376,0,0,1,22.376.044Z" fill="#222831"/>
      </g>
      <path d="M22.443,0C19.956-.017,18.5.087,18.5.087l4,9.77L26.486.07S24.93-.017,22.443,0Z" fill="#dd9160"/>
    </symbol>
    <symbol id="y" data-name="L_Bein_jeans" viewBox="0 0 9 61.15">
      <line x1="4.5" x2="4.5" y2="24.34" fill="none" stroke="#2d5972" stroke-miterlimit="10" stroke-width="9"/>
      <line x1="4.5" y1="55.694" x2="4.5" y2="61.15" fill="none" stroke="#2d5972" stroke-miterlimit="10" stroke-width="9"/>
      <line x1="4.5" y1="24.34" x2="4.5" y2="55.694" fill="none" stroke="#2d5972" stroke-linecap="round" stroke-miterlimit="10" stroke-width="9"/>
    </symbol>
    <symbol id="aa" data-name="m_huefte_front" viewBox="0 0 26.986 15.649">
      <path d="M0,0H26.986a0,0,0,0,1,0,0V2.156A13.493,13.493,0,0,1,13.493,15.649h0A13.493,13.493,0,0,1,0,2.156V0A0,0,0,0,1,0,0Z" fill="#2c5972"/>
      <g>
        <rect width="4.597" height="2.156" fill="#1e1e1c"/>
        <rect x="5.597" width="4.597" height="2.156" fill="#1e1e1c"/>
        <rect x="11.194" width="4.597" height="2.156" fill="#1e1e1c"/>
        <rect x="16.792" width="4.597" height="2.156" fill="#1e1e1c"/>
        <rect x="22.389" width="4.597" height="2.156" fill="#1e1e1c"/>
      </g>
    </symbol>
    <symbol id="ac" data-name="schuhe_black_seite" viewBox="0 0 16 12.81">
      <g>
        <g>
          <rect x="7" width="9" height="12" fill="#c7d1db"/>
          <rect y="11.981" width="16" height="0.828" fill="#c7d1db"/>
        </g>
        <g>
          <rect x="7" width="9" height="12"/>
          <rect y="11.981" width="16" height="0.828" fill="#c7d1db"/>
        </g>
      </g>
      <rect x="6.014" y="6" width="9.986" height="6"/>
      <path d="M6.014,6a6,6,0,0,0-6,6h12A6,6,0,0,0,6.014,6Z"/>
    </symbol>
    <symbol id="ad" data-name="M_Bein_jeans 6" viewBox="0 0 11 50.194">
      <line x1="5.5" x2="5.5" y2="24.34" fill="none" stroke="#010202" stroke-miterlimit="10" stroke-width="9"/>
      <line x1="5.5" y1="24.34" x2="5.5" y2="47.803" fill="none" stroke="#010202" stroke-miterlimit="10" stroke-width="9"/>
      <line x1="5.5" y1="46.317" x2="5.5" y2="50.194" fill="none" stroke="#838383" stroke-miterlimit="10" stroke-width="11"/>
    </symbol>
    <symbol id="af" data-name="M_Bein_jeans 5" viewBox="0 0 11 50.194">
      <line x1="5.5" x2="5.5" y2="24.34" fill="none" stroke="#585e61" stroke-miterlimit="10" stroke-width="9"/>
      <line x1="5.5" y1="24.34" x2="5.5" y2="47.803" fill="none" stroke="#585e61" stroke-miterlimit="10" stroke-width="9"/>
      <line x1="5.5" y1="46.317" x2="5.5" y2="50.194" fill="none" stroke="#9b9b9a" stroke-miterlimit="10" stroke-width="11"/>
    </symbol>
    <symbol id="ah" data-name="shatten" viewBox="0 0 75.929 11.334">
      <ellipse cx="37.965" cy="5.667" rx="37.965" ry="5.667" opacity="0.3"/>
    </symbol>
    <symbol id="ab" data-name="kunde 3" viewBox="0 0 68.887 188.182">
      <g>
        <g>
          <g>
            <path d="M30.917,47.284a13.967,13.967,0,0,0,4.414-1.032v8.081h-10V46.547a14.431,14.431,0,0,0,4.626.768C30.275,47.315,30.594,47.306,30.917,47.284Z" fill="#dc9161"/>
            <path d="M30.756,44.789a11.471,11.471,0,0,0,4.575-1.284v2.747a13.967,13.967,0,0,1-4.414,1.032c-.323.022-.642.031-.96.031a14.431,14.431,0,0,1-4.626-.768v-2.67A11.983,11.983,0,0,0,30.756,44.789Z" fill="#c98559"/>
          </g>
          <path d="M15.643,106.165h33.75V66.678a16.72,16.72,0,0,0-16.72-16.72h-.309a16.72,16.72,0,0,0-16.721,16.72Z" fill="#9c6f84"/>
          <g>
            <g>
              <use width="16" height="12.81" transform="matrix(-1.25, 0, 0, 1.25, 51.757, 168.708)" xlink:href="#ac"/>
              <use width="11" height="50.194" transform="matrix(-1.25, 0, 0, 1.25, 44.466, 111.42)" xlink:href="#ad"/>
            </g>
            <g>
              <use width="16" height="12.81" transform="matrix(-1.25, 0, 0, 1.25, 43.068, 168.708)" xlink:href="#ac"/>
              <use width="11" height="50.194" transform="matrix(-1.25, 0, 0, 1.25, 35.847, 111.42)" xlink:href="#af"/>
            </g>
            <use width="26.986" height="15.649" transform="matrix(-1.25, 0, 0, 1.25, 49.466, 106.207)" xlink:href="#t"/>
          </g>
        </g>
        <g>
          <path d="M40.721,28.084A11.755,11.755,0,1,1,19.414,38.02l-6.108-13.1,21.307-9.935Z" fill="#ef9e69"/>
          <circle cx="34.454" cy="19.893" r="1.156"/>
          <path d="M28.572,21.086c-1.206,2.344,1.22,4.4.072,7.056a7.918,7.918,0,0,1-3.856,4.008,7.6,7.6,0,0,1-3.671.7c-1.334-.08,2.131-.392,1.281.861-1.535,2.262-2.08,6.436-.141,8.393a9.618,9.618,0,0,0-1.855-.859,19.419,19.419,0,0,1-2.14-1.321,20.363,20.363,0,0,1-3.613-3.3c-2.232-2.588-3.312-5.6-4.759-8.641-1-2.105-2.717-3.846-3.782-5.923a10.605,10.605,0,0,1-.083-9.535c2.054-4.064,6.069-4.386,9.52-6.559,2.746-1.728,4.853-4.758,8.1-5.585,8.419-2.143,20.969,5.073,15.716,13.2-.351.544-1.9,1.135-3.416,1.552a10.635,10.635,0,0,0-5.408,3.54Z" fill="#4f2b13"/>
        </g>
        <path d="M25.09,29.555A3.236,3.236,0,0,1,24.9,34.1a3.236,3.236,0,0,1-4.449-.933,3.238,3.238,0,0,1,.19-4.543A3.237,3.237,0,0,1,25.09,29.555Z" fill="#ef9e69"/>
        <g>
          <polyline points="31.297 59.994 34.721 92.08 62.096 120.516" fill="none" stroke="#ef9e69" stroke-linecap="round" stroke-linejoin="round" stroke-width="10.153"/>
          <line x1="31.297" y1="59.994" x2="34.721" y2="92.08" fill="none" stroke="#af7c95" stroke-linecap="round" stroke-linejoin="round" stroke-width="10.153"/>
          <polyline points="32.518 71.442 34.721 92.08 57.473 115.713" fill="none" stroke="#af7c95" stroke-linejoin="round" stroke-width="10.153"/>
        </g>
      </g>
      <use width="75.929" height="11.334" transform="translate(0 177.494) scale(0.907 0.943)" xlink:href="#ah"/>
      <path d="M36.1,27.714c.532,1.167,2.582,1.375,4.577.465.02-.009.037-.02.057-.03l-.963-2.11Z" fill="#ca875a"/>
    </symbol>
  </defs>
  <g style="isolation: isolate">
    <g>
      <g>
        <g>
          <path d="M399.357,330.546c-3.429-13.388-55.722-127.141-27.432-165.4S485.578,75.189,535.051,52.44,716.992-7.535,757.485,45.2s100.432,128.831,124.9,155.412,115.336,58.531,99.048,95.81-146.59,166.44-174.022,179.931-110.354,95.181-207.339,68.3S399.357,330.546,399.357,330.546Z" fill="#a7e4f2"/>
          <g opacity="0.8" class="cloud-1">
            <path d="M236.442,133.471a54.616,54.616,0,0,1,57.416-12.725,41.425,41.425,0,0,1,71.483.192,50.4,50.4,0,0,1,99.361,13.5H235.528C235.833,134.114,236.128,133.786,236.442,133.471Z" fill="#caeff7"/>
          </g>
          <path class="cloud-2" d="M1001.016,114.619a37.086,37.086,0,0,0-47.66-4.587A43.821,43.821,0,0,0,867.4,93.023a51.461,51.461,0,0,0-49.666-5.729,80.941,80.941,0,0,0-157.8,34.5H1006.49A37.178,37.178,0,0,0,1001.016,114.619Z" fill="#caeff7" opacity="0.8"/>
        </g>
        <g>
          <path d="M975.109,329.165q-10.2,1.516-20.411,3.134c-17.569,2.748-78.274-18.342-97.6-28.338a976.2,976.2,0,0,1-217.47-121.188q-26.068,23.8-52.132,51.77c-29.346-20.717-58.689-43.377-88.034-67.018,0-.232-27.182,26.557-55.578,54.735-28.394,27.705-58,56.8-62.856,50.237-25.524-48.519-51.049-97.781-76.572-144.465C244.11,220.35,183.765,317.007,123.418,372.905c0-.764,62.266,29.134,147.511,53.1,85.244,25.4,193.468,33.578,285.384,16.689,45.958-6.867,109.011-24.49,177.738-39.729,68.727-15.593,143.128-28.8,211.785-34.985,68.655-6.534,131.567-6.041,177.313-2.35,45.748,3.337,74.331,9.87,74.332,7.276-62.109-24.006-124.216-35.671-186.325-44.018A130.155,130.155,0,0,0,975.109,329.165Z" fill="#81b4c4"/>
          <g>
            <g>
              <polygon points="1023.272 344.029 1037.91 311.529 1052.547 344.029 1023.272 344.029" fill="#a7ced1"/>
              <polygon points="1012.825 350.908 1024.588 325.923 1036.352 350.908 1012.825 350.908" fill="#c0e1e3"/>
              <polygon points="230.558 240.685 242.321 215.701 254.085 240.685 230.558 240.685" fill="#c0e1e3"/>
              <polygon points="375.623 280.755 366.705 304.039 384.54 304.039 375.623 280.755" fill="#a7ced1"/>
              <polygon points="351.927 265.331 338.697 299.876 365.157 299.876 351.927 265.331" fill="#a7ced1"/>
              <polygon points="234.002 221.017 220.772 255.561 247.233 255.561 234.002 221.017" fill="#a7ced1"/>
              <polygon points="364.302 286.767 355.385 310.05 373.219 310.05 364.302 286.767" fill="#c0e1e3"/>
            </g>
            <g>
              <g>
                <circle cx="975.205" cy="313.206" r="17.783" fill="#b8c445"/>
                <g>
                  <line x1="975.04" y1="314.447" x2="966.495" y2="306.492" fill="none" stroke="#002f47" stroke-linecap="round" stroke-miterlimit="10" stroke-width="1.173"/>
                  <line x1="985.557" y1="309.362" x2="975.205" y2="321.921" fill="none" stroke="#002f47" stroke-linecap="round" stroke-miterlimit="10" stroke-width="1.173"/>
                  <line x1="975.205" y1="356.051" x2="975.205" y2="306.05" fill="none" stroke="#002f47" stroke-linecap="round" stroke-miterlimit="10" stroke-width="1.173"/>
                </g>
              </g>
              <g>
                <circle cx="995.495" cy="322.318" r="14.001" fill="#c2d64c"/>
                <g>
                  <line x1="995.625" y1="323.296" x2="1002.353" y2="317.032" fill="none" stroke="#002f47" stroke-linecap="round" stroke-miterlimit="10" stroke-width="1.173"/>
                  <line x1="987.344" y1="319.292" x2="995.495" y2="326.282" fill="none" stroke="#002f47" stroke-linecap="round" stroke-miterlimit="10" stroke-width="1.173"/>
                  <line x1="995.495" y1="356.051" x2="995.495" y2="316.685" fill="none" stroke="#002f47" stroke-linecap="round" stroke-miterlimit="10" stroke-width="1.173"/>
                </g>
              </g>
            </g>
          </g>
        </g>
      </g>
      <g>
        <rect x="509.355" y="7.187" width="200.984" height="134.29" fill="#81b4c4"/>
        <rect x="515.965" y="13.796" width="187.765" height="121.07" fill="#002f47"/>
        <polygon points="515.965 134.868 523.748 134.868 523.748 21.169 703.73 21.169 703.73 13.796 515.965 13.796 515.965 134.868" fill="#4a3144" opacity="0.5" style="mix-blend-mode: multiply"/>
      </g>
      <g opacity="0.6">
        <path d="M615.543,44.1a36.7,36.7,0,0,0-3.154-5.351l-12.927,4.7a24.14,24.14,0,0,1,3.8,5.118ZM558.4,58.4l-12.93,4.7a37.544,37.544,0,0,0,1.025,6.129l12.283-4.472A24.028,24.028,0,0,1,558.4,58.4" fill="none" stroke="#fff" stroke-miterlimit="10"/>
        <path d="M587.1,40.441a23.943,23.943,0,0,1,6.985,4.973l12.926-4.7a36.953,36.953,0,0,0-66.917,24.354l12.929-4.7A23.952,23.952,0,0,1,587.1,40.441" fill="none" stroke="#fff" stroke-miterlimit="10"/>
        <path d="M600.886,64.063a23.719,23.719,0,0,1-2.17,8.3,24.049,24.049,0,0,1-31.925,11.62,23.776,23.776,0,0,1-7-4.966l-12.9,4.695a36.936,36.936,0,0,0,66.895-24.344l-12.9,4.694Z" fill="none" stroke="#fff" stroke-miterlimit="10"/>
        <path d="M604.065,48.281l-12.283,4.47a24.1,24.1,0,0,1,3.006,13.528l12.9-4.692a37.258,37.258,0,0,0-3.624-13.306M547.3,68.938l-12.283,4.474a37.393,37.393,0,0,0,5.776,12.521l12.9-4.7a24.144,24.144,0,0,1-6.392-12.3" fill="none" stroke="#fff" stroke-miterlimit="10"/>
        <path d="M613.671,40.7c-.408-.661-.831-1.312-1.281-1.946l-12.927,4.7a23.177,23.177,0,0,1,1.592,1.834ZM558.353,61A22.726,22.726,0,0,1,558.4,58.4l-12.931,4.7c.067.828.172,1.651.295,2.471L558.353,61Z" fill="none" stroke="#fff" stroke-miterlimit="10"/>
        <path d="M613.786,59.369l-12.9,4.694a23.633,23.633,0,0,1-1.09,5.549l14.042-5.12a37.088,37.088,0,0,0-.051-5.123M546.893,83.715a36.743,36.743,0,0,0,3.287,3.992l14.044-5.122a23.871,23.871,0,0,1-4.432-3.567Z" fill="none" stroke="#fff" stroke-miterlimit="10"/>
        <path d="M613.121,111.069v1.165H616.5V122.55h1.279V112.234h3.38v-1.165Zm-7.757,1.164v3.8h3.148V117.2h-3.148v5.346h-1.279V111.07h6.741v1.163Zm-5.852-1.162h1.279v11.48h-1.279Zm-4.571,11.479v-5.413h-5.708v5.413h-1.279V111.069h1.279v4.905h5.708v-4.905h1.279V122.55Zm-13.642.18a5.471,5.471,0,0,1-3.854-1.59l.854-.952a4.357,4.357,0,0,0,3.049,1.379c1.525,0,2.478-.755,2.478-1.969,0-1.067-.64-1.673-2.739-2.428-2.477-.886-3.314-1.688-3.314-3.345,0-1.838,1.443-2.937,3.591-2.937a5.138,5.138,0,0,1,3.494,1.231l-.82,1a3.993,3.993,0,0,0-2.754-1.067c-1.576,0-2.232.787-2.232,1.69,0,.953.427,1.492,2.723,2.314,2.542.917,3.329,1.771,3.329,3.477,0,1.8-1.41,3.2-3.805,3.2m-9.037-.18-4.214-6.265c-.28-.427-.657-1-.8-1.3,0,.427.033,1.87.033,2.509v5.053h-2.264V111.069h2.2l4.068,6.068c.28.427.655,1,.8,1.3,0-.426-.031-1.869-.031-2.51v-4.854h2.262V122.55Zm-18.1,0V111.069h7.971v2.247h-5.675V115.3h3.3v2.229h-3.3V120.3h5.921v2.247Zm-6.524-4.067h-2.526v4.067h-2.3V111.069h5.019c2.165,0,3.953,1.2,3.953,3.64,0,2.658-1.771,3.774-4.149,3.774m.116-5.183h-2.643v2.952h2.674c1.067,0,1.641-.494,1.641-1.494s-.657-1.458-1.672-1.458m-12.511,9.43c-3,0-5.053-2.2-5.053-5.905s2.084-5.937,5.086-5.937c2.985,0,5.035,2.2,5.035,5.906s-2.084,5.936-5.068,5.936m-.016-9.562c-1.607,0-2.674,1.3-2.674,3.626s1.116,3.656,2.723,3.656,2.672-1.3,2.672-3.625-1.114-3.657-2.721-3.657" fill="none" stroke="#fff" stroke-miterlimit="10"/>
      </g>
      <g opacity="0.6">
        <path d="M659.028,72.308a3.017,3.017,0,0,1,.245-1.107c.018-.051-.061-.108-.089-.129-2.049-1.594-4.764-2.938-5.976-5.351-1.122-2.232-2.04-4.477-1.535-7.039,1.078-5.46,6.949-8.354,11.963-9.285A15.612,15.612,0,0,1,677.6,53.7c3.59,3.663,3.742,8.654,1.791,13.223a11,11,0,0,1-6.537,6.332,15.224,15.224,0,0,1-5.017.7c-.834-.012-1.2-.163-1.745.495-.149.181.5.33.648.149.558-.677,2.741-.312,3.616-.413a13.964,13.964,0,0,0,4.008-1.046,11.474,11.474,0,0,0,5.77-6.287c1.992-4.872,1.6-9.973-2.34-13.672a16.625,16.625,0,0,0-13.362-4.28c-5.047.625-11.282,3.289-13.085,8.433-1.071,3.055-.158,5.67,1.2,8.421a9.811,9.811,0,0,0,2.993,3.219c.669.51,1.366.982,2.048,1.474a3.821,3.821,0,0,1,.737.543c.273.487.015.749.026,1.258.006.247.686.287.681.061Z" fill="#fff"/>
        <path d="M658.314,71.9c-.062,1.906,2.087,3.152,3.616,3.7a4.484,4.484,0,0,0,2.031.381,4.561,4.561,0,0,0,2.657-1.341c.238-.194-.4-.362-.573-.224a3.806,3.806,0,0,1-4.362.7c-1.161-.473-2.735-1.715-2.689-3.146.008-.243-.673-.294-.68-.061Z" fill="#fff"/>
        <path d="M658.263,72.1a3.8,3.8,0,0,0-1.238,3.562,4.9,4.9,0,0,0,3.3,2.685c2.816.794,5.07-.777,5.98-3.39.068-.194-.6-.3-.68-.061-.857,2.458-3.076,4.19-5.814,2.83a3.59,3.59,0,0,1-2.184-2.5,4.112,4.112,0,0,1,1.207-2.9c.228-.215-.414-.374-.573-.225Z" fill="#fff"/>
        <path d="M657.871,72.817c-.566,1.545-1.659,3.109-.606,4.661a6.086,6.086,0,0,0,3.248,2.16c2.784.977,5.036-1.311,5.494-3.905.01-.053-.052-.106-.089-.129l-.073-.046c-.183-.114-.826,0-.5.2a6.683,6.683,0,0,1-.506,1.648,3.931,3.931,0,0,1-1.092,1.286,4.031,4.031,0,0,1-4.6-.088,2.91,2.91,0,0,1-1.559-3.11,23.215,23.215,0,0,1,.969-2.614c.07-.191-.592-.3-.68-.061Z" fill="#fff"/>
        <path d="M657.3,74.069c-.678,1.78-1.417,3.554-.564,5.423a4.841,4.841,0,0,0,3.215,2.564c3.381.742,5-3.692,5.909-6.179.07-.19-.592-.3-.68-.06-.723,1.974-2.024,5.863-4.555,5.939-1.634.049-3.123-1.583-3.492-3.06-.4-1.6.258-3.013.816-4.478.1-.254-.571-.352-.649-.149Z" fill="#fff"/>
        <path d="M657.957,80.69l.039-.074-.34.1.069.008-.325-.2c-.1.672-.421,1.311-.049,1.951a1.987,1.987,0,0,0,1.2.944,2.5,2.5,0,0,0,1.556-.381c.46-.2,1.248-.374,1.5-.865.1-.2-.292-.249-.4-.247a6.1,6.1,0,0,1-1.581-.047,3.169,3.169,0,0,0-.868-.227c-.487.02-.7.457-.761.893-.029.216.452.228.57.172.652-.31.335-1.451-.374-1.461-.99-.016-.473,1.339.115,1.59a.526.526,0,0,0,.472-.02.665.665,0,0,0-.41-1.131c-.113-.019-.358-.047-.429.082-.265.484-.335,1.093.379,1.206.666.105.709-.523,1.114-.861l-.626-.142c-.044.241-.337.432-.425.66-.107.276.478.267.61.187l.319-.193-.57-.173a1.192,1.192,0,0,1-.425.728l.61.186a1.474,1.474,0,0,1,.708-.749l-.57-.172c-.064.227-.23.366-.291.591s.471.2.57.172c.267-.078.908-.827,1.091-.784l-.235-.186a.769.769,0,0,1-.494.614l.5.193c.021-.358,1.037-.7,1.326-.84.347-.164-.262-.377-.46-.283-.389.183-1.517.549-1.547,1.062-.011.2.378.223.5.193a1.114,1.114,0,0,0,.858-.878c.008-.11-.155-.167-.235-.187-.831-.2-1.072.611-1.762.813l.571.172c.059-.218.228-.369.291-.591s-.47-.211-.57-.173a1.754,1.754,0,0,0-.9.884c-.121.241.489.306.61.187a1.709,1.709,0,0,0,.534-.891c.049-.217-.464-.217-.571-.172a3.211,3.211,0,0,0-.431.252l.61.187c.116-.3.4-.419.457-.748.042-.232-.517-.234-.626-.143-.2.165-.4.724-.641.76l.411.063a.631.631,0,0,1-.043-.795l-.429.081c.218.037.127.524.047.595l.471-.02a6.231,6.231,0,0,1-.558-.937c-.079.065.305.637-.013.788l.571.172c.1-.738.534-.41,1.041-.34a10.675,10.675,0,0,0,1.639,0l-.4-.247c-.166.32-.6.427-.906.557-.479.2-1.13.66-1.663.3-.861-.576-.436-1.5-.314-2.3.021-.14-.242-.191-.326-.2l-.068-.009c-.09-.01-.287,0-.339.1l-.039.074c-.122.23.542.349.648.149Z" fill="#fff"/>
        <path d="M657.258,80.091a2.642,2.642,0,0,0-.062,1.053,1.277,1.277,0,0,0,.211.927c.1.125.619.2.642-.029.028-.29-.178-.45-.283-.7a1.54,1.54,0,0,1,.053-1.155c.068-.19-.589-.3-.664-.1-.147.375-.635,1.14-.359,1.546a.642.642,0,0,0,.872.08c.431-.425.4-2.2-.547-1.741-.262.127-.329.538-.331.8a2.524,2.524,0,0,0,.791,1.549c.586.587,1.971.789,2.475.01.136-.211-.523-.344-.648-.15-.728,1.124-2.094-.824-1.893-1.661.008-.031.081-.248.082-.246l-.378.025.014.245a1.957,1.957,0,0,1-.048.652c-.046.162-.244.34.063.244.283-.089.09-.031.189-.224.152-.294.243-.665.366-.979l-.665-.105a1.756,1.756,0,0,0-.123.9c.049.311.382.662.353.959l.642-.029c-.2-.253-.129-.577-.136-.875a2.067,2.067,0,0,1,.032-.837c.1-.251-.566-.353-.648-.149Z" fill="#fff"/>
        <path d="M661.43,70.315a39.553,39.553,0,0,0,1.944-6.019c.308-1.188,1.187-3.6.572-4.776a.494.494,0,0,0-.619-.1c-1.106.8.21,3.045,1.058,3.531,1.569.9,3.608-.254,4.424-1.65.135-.232-.519-.318-.649-.149-.736.957-1.657,3.287-.251,4.126,1.265.755,2.385-.81,3.282-1.455.261-.188-.41-.314-.573-.224a10.207,10.207,0,0,0-1.834,1.567c-.705.639-1.445,1.225-2.112,1.907A12.543,12.543,0,0,0,663.7,71.9c-.068.2.594.3.681.061l.025-.07c.07-.191-.592-.3-.68-.061l-.026.07.681.061a12.393,12.393,0,0,1,3.1-4.9,19.775,19.775,0,0,1,3.706-3.241l-.573-.224c-.538.387-1.814,2.092-2.6,1-.627-.867.281-2.629.795-3.3l-.649-.149a2.784,2.784,0,0,1-1.048,1.157,1.281,1.281,0,0,1-1.4.139q-1.322.51-1.733-.739c-.239-.49-.645-1.658-.081-2.065l-.619-.1c.592,1.133-.292,3.541-.588,4.684a39.1,39.1,0,0,1-1.911,5.93c-.108.246.56.352.648.149Z" fill="#fff"/>
        <path d="M666.535,43.989a18.375,18.375,0,0,1,.142-4.6,32.308,32.308,0,0,1,.6-4.509c.052-.214-.622-.3-.681-.061a32.322,32.322,0,0,0-.6,4.51,18.376,18.376,0,0,0-.142,4.6c.043.251.716.263.681.06Z" fill="#fff"/>
        <path d="M676.093,45.273a26.652,26.652,0,0,1,2.557-4.887c.9-1.42,1.551-2.98,2.454-4.386.136-.211-.523-.344-.648-.149-.9,1.406-1.554,2.966-2.454,4.385a26.6,26.6,0,0,0-2.557,4.888c-.1.255.572.352.648.149Z" fill="#fff"/>
        <path d="M681.683,53.572c.3-.68,1.5-1.262,2.063-1.656a16.473,16.473,0,0,0,2.8-2.495c.151-.169-.492-.324-.649-.149a18.893,18.893,0,0,1-3.361,2.859c-.478.334-1.257.736-1.5,1.292-.107.246.56.353.649.149Z" fill="#fff"/>
      </g>
      <g>
        <ellipse cx="633.633" cy="439.783" rx="183.568" ry="7.678" fill="#002f47" opacity="0.5"/>
        <g>
          <g>
            <g>
              <g>
                <rect x="461.641" y="258.647" width="345.799" height="180.449" fill="gold"/>
                <g>
                  <g>
                    <rect x="476.417" y="273.423" width="316.247" height="150.898" fill="#ffd804"/>
                    <rect x="476.417" y="273.423" width="316.247" height="150.898" fill="#554c17" opacity="0.05"/>
                  </g>
                  <path d="M786.753,279.334V418.41H482.327V279.334H786.753m5.911-5.911H476.417v150.9H792.664v-150.9Z" fill="#585018" opacity="0.1"/>
                </g>
              </g>
              <g>
                <g>
                  <path d="M713.973,290.749a7.849,7.849,0,0,0-7.853,7.853V401.76a7.853,7.853,0,0,0,15.706,0V298.6a7.848,7.848,0,0,0-7.853-7.853Z" fill="#786418"/>
                  <path d="M674.846,290.749a7.849,7.849,0,0,0-7.853,7.853V401.76a7.853,7.853,0,1,0,15.706,0V298.6a7.849,7.849,0,0,0-7.853-7.853Z" fill="#786418"/>
                  <path d="M635.856,290.749A7.849,7.849,0,0,0,628,298.6V401.76a7.853,7.853,0,1,0,15.706,0V298.6a8.032,8.032,0,0,0-7.853-7.853Z" fill="#786418"/>
                  <path d="M596.729,290.749a7.849,7.849,0,0,0-7.854,7.853V401.76a7.854,7.854,0,0,0,15.707,0V298.6a7.94,7.94,0,0,0-7.853-7.853Z" fill="#786418"/>
                  <path d="M557.6,290.749a7.849,7.849,0,0,0-7.853,7.853V401.76a7.853,7.853,0,1,0,15.706,0V298.6a7.939,7.939,0,0,0-7.853-7.853Z" fill="#786418"/>
                  <path d="M518.473,290.749a7.849,7.849,0,0,0-7.853,7.853V401.76a7.853,7.853,0,0,0,15.706,0V298.6a7.849,7.849,0,0,0-7.853-7.853Z" fill="#786418"/>
                  <path d="M753.1,290.749a7.849,7.849,0,0,0-7.853,7.853V401.76a7.85,7.85,0,0,0,7.853,7.853,7.763,7.763,0,0,0,7.853-7.853V298.6a7.939,7.939,0,0,0-7.853-7.853Z" fill="#786418"/>
                </g>
                <g>
                  <path d="M712.6,289.371a7.849,7.849,0,0,0-7.853,7.853V400.383a7.853,7.853,0,0,0,15.706,0V297.224a7.849,7.849,0,0,0-7.853-7.853Z" fill="#fbe064"/>
                  <path d="M673.468,289.371a7.849,7.849,0,0,0-7.853,7.853V400.383a7.853,7.853,0,0,0,15.706,0V297.224a7.849,7.849,0,0,0-7.853-7.853Z" fill="#fbe064"/>
                  <path d="M634.478,289.371a7.849,7.849,0,0,0-7.853,7.853V400.383a7.853,7.853,0,0,0,15.706,0V297.224a8.032,8.032,0,0,0-7.853-7.853Z" fill="#fbe064"/>
                  <path d="M595.351,289.371a7.849,7.849,0,0,0-7.853,7.853V400.383a7.853,7.853,0,1,0,15.706,0V297.224a7.939,7.939,0,0,0-7.853-7.853Z" fill="#fbe064"/>
                  <path d="M556.223,289.371a7.849,7.849,0,0,0-7.853,7.853V400.383a7.853,7.853,0,0,0,15.706,0V297.224a7.939,7.939,0,0,0-7.853-7.853Z" fill="#fbe064"/>
                  <path d="M517.1,289.371a7.849,7.849,0,0,0-7.853,7.853V400.383a7.853,7.853,0,0,0,15.706,0V297.224a7.849,7.849,0,0,0-7.853-7.853Z" fill="#fbe064"/>
                  <path d="M751.724,289.371a7.848,7.848,0,0,0-7.853,7.853V400.383a7.849,7.849,0,0,0,7.853,7.853,7.764,7.764,0,0,0,7.853-7.853V297.224a7.94,7.94,0,0,0-7.853-7.853Z" fill="#fbe064"/>
                </g>
              </g>
            </g>
            <rect x="461.641" y="431.769" width="345.799" height="7.328" fill="#867319"/>
          </g>
          <polygon points="469.144 254.669 799.936 254.669 807.44 258.647 461.641 258.647 469.144 254.669" fill="#fbe064"/>
        </g>
      </g>
      <g>
        <g>
          <path d="M661.141,112.649s-.413.35-1.123.988" fill="none" stroke="#fff" stroke-miterlimit="10"/>
          <path d="M657.816,115.68c-7.29,6.963-23.343,24.224-14.393,33.67,11.39,12.023,26.01-5.344,12.089-6.61-13.556-1.232-35.391,35.1-17.1,67.155" fill="none" stroke="#fff" stroke-miterlimit="10" stroke-dasharray="3.005 3.005"/>
          <path d="M639.177,211.2q.389.639.8,1.275" fill="none" stroke="#fff" stroke-miterlimit="10"/>
        </g>
        <g>
          <g>
            <polygon points="660.749 101.391 663.075 109.707 690.692 96.293 660.749 101.391" fill="#e6e6e6" fill-rule="evenodd"/>
            <polygon points="660.749 101.391 653.545 100.263 690.692 96.293 660.749 101.391" fill="#fdfdfd" fill-rule="evenodd"/>
            <polyline points="664.545 103.265 663.075 109.707 690.692 96.293 664.545 103.265" fill="#ccc"/>
          </g>
          <polygon points="664.545 103.265 674.345 109.223 690.692 96.293 664.545 103.265" fill="#fdfdfd" fill-rule="evenodd"/>
        </g>
      </g>
      <g>
        <g>
          <path d="M658.539,236.171a.5.5,0,0,0,0-1H632.792a3.142,3.142,0,0,0,0,6.283h25.747a.5.5,0,1,0,0-.994h-4.184v-4.294Z" fill="#0b3046"/>
          <g>
            <path d="M658.539,236.171a.5.5,0,0,0,0-1H638.1a3.171,3.171,0,0,0,0,6.283h20.436a.5.5,0,1,0,0-.994h-4.184v-4.294Z" fill="#f69220"/>
            <path d="M658.539,236.171a.5.5,0,0,0,0-1H638.1a3.171,3.171,0,0,0,0,6.283h20.436a.5.5,0,1,0,0-.994h-4.184v-4.294Z" fill="#2c5871" style="mix-blend-mode: multiply"/>
          </g>
          <path d="M639.212,235.906a2.412,2.412,0,0,0,0,4.823h18.443c.057,0,.113-.005.169-.009v-4.805c-.056,0-.112-.009-.169-.009Z" fill="#fff"/>
          <g>
            <rect x="639.987" y="239.315" width="16.021" height="0.292" fill="#e7e6e6"/>
            <rect x="640.165" y="237.001" width="16.021" height="0.293" fill="#e7e6e6"/>
            <rect x="641.893" y="238.228" width="7.863" height="0.244" fill="#e7e6e6"/>
          </g>
        </g>
        <g>
          <path d="M652.937,242.484a.5.5,0,1,0,0-.994H627.19a3.141,3.141,0,0,0,0,6.282h25.747a.5.5,0,1,0,0-1h-4.184v-4.293Z" fill="#0b3046"/>
          <g style="mix-blend-mode: multiply">
            <path d="M652.937,242.484a.5.5,0,1,0,0-.994H632.5a3.17,3.17,0,0,0,0,6.282h20.436a.5.5,0,1,0,0-1h-4.184v-4.293Z" fill="#f69220"/>
            <path d="M652.937,242.484a.5.5,0,1,0,0-.994H632.5a3.17,3.17,0,0,0,0,6.282h20.436a.5.5,0,1,0,0-1h-4.184v-4.293Z" fill="#39728b" style="mix-blend-mode: multiply"/>
          </g>
          <path d="M633.609,242.22a2.411,2.411,0,0,0,0,4.822h18.444c.057,0,.113,0,.169-.009v-4.8c-.056,0-.112-.008-.169-.008Z" fill="#fff"/>
          <g>
            <rect x="634.385" y="245.627" width="16.021" height="0.292" fill="#e7e6e6"/>
            <rect x="634.564" y="243.314" width="16.02" height="0.293" fill="#e7e6e6"/>
            <rect x="636.29" y="244.541" width="7.864" height="0.245" fill="#e7e6e6"/>
            <polygon points="644.925 245.946 645.785 244.924 646.588 245.946 646.588 243.314 644.925 243.314 644.925 245.946" fill="#f69220"/>
          </g>
        </g>
        <g>
          <path d="M655.852,248.929a.506.506,0,1,0,0-1.011H629.657a3.2,3.2,0,0,0,0,6.391h26.195a.506.506,0,1,0,0-1.011H651.6v-4.369Z" fill="#0b3046"/>
          <g style="mix-blend-mode: multiply">
            <path d="M655.852,248.929a.506.506,0,1,0,0-1.011H635.06a3.225,3.225,0,0,0,0,6.391h20.792a.506.506,0,1,0,0-1.011H651.6v-4.369Z" fill="#d0d1d2"/>
            <path d="M655.852,248.929a.506.506,0,1,0,0-1.011H635.06a3.225,3.225,0,0,0,0,6.391h20.792a.506.506,0,1,0,0-1.011H651.6v-4.369Z" fill="#d0d1d2" style="mix-blend-mode: multiply"/>
          </g>
          <path d="M636.188,248.659a2.454,2.454,0,0,0,0,4.907h18.763c.059,0,.115,0,.173-.008v-4.889c-.058,0-.114-.01-.173-.01Z" fill="#fff"/>
          <g>
            <rect x="636.977" y="252.128" width="16.299" height="0.297" fill="#e7e6e6"/>
            <rect x="637.158" y="249.774" width="16.3" height="0.298" fill="#e7e6e6"/>
            <rect x="638.916" y="251.022" width="8" height="0.249" fill="#e7e6e6"/>
            <polygon points="647.7 252.452 648.575 251.411 649.391 252.452 649.391 249.774 647.7 249.774 647.7 252.452" fill="#ef4882"/>
          </g>
        </g>
      </g>
      <use width="23.693" height="97.512" transform="translate(636.17 183.089) scale(0.729)" xlink:href="#i"/>
      <g>
        <g>
          <g>
            <use width="10" height="11.856" transform="translate(545.197 271.705) scale(0.886)" xlink:href="#j"/>
            <g>
              <g>
                <path d="M538.766,182.2c0-.991,1.381-1.849,1.546-2.792.17-.97-.832-2.247-.5-3.152.335-.921,1.926-1.254,2.41-2.091s-.014-2.389.61-3.132,2.235-.516,2.98-1.142.8-2.249,1.641-2.738,2.269.279,3.19-.056c.905-.329,1.51-1.838,2.48-2.008.943-.165,2.026,1.044,3.017,1.044s2.074-1.209,3.017-1.044c.97.17,1.576,1.679,2.48,2.009.921.335,2.354-.429,3.191.056s.9,2.113,1.64,2.738,2.354.4,2.98,1.142.121,2.287.61,3.132,2.075,1.17,2.41,2.091c.33.905-.672,2.182-.5,3.151.165.944,1.546,1.8,1.546,2.792s-1.381,1.849-1.546,2.792c-.17.97.831,2.247.5,3.152-.335.921-1.926,1.254-2.411,2.091s.014,2.389-.61,3.133-2.235.516-2.98,1.141-.8,2.249-1.64,2.738-2.27-.279-3.19.056-1.511,1.838-2.481,2.008c-.943.165-2.026-1.043-3.016-1.043s-2.074,1.208-3.018,1.043c-.97-.17-1.575-1.679-2.48-2.008-.921-.336-2.353.428-3.191-.057s-.9-2.113-1.64-2.737-2.354-.4-2.979-1.143-.121-2.287-.61-3.132-2.076-1.17-2.411-2.091c-.329-.905.673-2.181.5-3.151C540.147,184.05,538.766,183.192,538.766,182.2Z" fill="#683721"/>
                <g>
                  <ellipse cx="564.493" cy="193.203" rx="1.787" ry="2.557" fill="#dc9161"/>
                  <ellipse cx="548.348" cy="193.203" rx="1.787" ry="2.557" fill="#dc9161"/>
                  <path d="M564.9,185.227a8.675,8.675,0,0,0-7.913-8.027,8.509,8.509,0,0,0-9.058,8.034l-.024.012v10.036l.023.012a8.506,8.506,0,0,0,6.264,7.747c.084.023.168.044.253.065.149.036.3.069.452.1s.282.046.425.065c.123.016.245.031.369.042.055,0,.107.015.162.018.1.006.186,0,.28,0s.19.015.287.015c.055,0,.109-.008.164-.009.144,0,.287-.011.43-.021s.295-.022.441-.039.273-.039.409-.063.293-.051.438-.084c.128-.029.254-.063.38-.1.148-.04.294-.082.438-.131.116-.038.23-.082.344-.125.15-.058.3-.117.444-.183.1-.045.2-.094.3-.143q.231-.114.453-.241c.084-.048.165-.1.246-.149.158-.1.312-.2.463-.307.064-.047.127-.095.19-.143.161-.122.318-.248.47-.382.046-.04.091-.082.137-.124q.243-.222.468-.462c.03-.032.059-.065.089-.1q.24-.264.457-.547l.047-.063c.154-.2.3-.415.433-.634l.016-.025a8.452,8.452,0,0,0,1.238-3.982l.024-.011v-.452l0-8.612Z" fill="#ef9e69"/>
                  <circle cx="562.308" cy="189.002" r="0.838" fill="#010100"/>
                  <circle cx="554.479" cy="189.002" r="0.838" fill="#010100"/>
                </g>
                <g>
                  <path d="M555.739,205.1a9.9,9.9,0,0,1-3.127-.731v5.725H559.7v-5.516a10.252,10.252,0,0,1-3.278.544C556.194,205.117,555.968,205.11,555.739,205.1Z" fill="#dc9161"/>
                  <path d="M555.853,203.327a8.118,8.118,0,0,1-3.241-.91v1.947a9.9,9.9,0,0,0,3.127.731c.229.015.455.022.681.022a10.252,10.252,0,0,0,3.278-.544v-1.892A8.5,8.5,0,0,1,555.853,203.327Z" fill="#c98559"/>
                </g>
                <path d="M547.331,179.9s2.285,6.81,12.572,6.81a10.721,10.721,0,0,0,10.484-7.264s-3.8,4.025-9.459-1.415C559.647,175.849,549.178,174.77,547.331,179.9Z" fill="#683721"/>
              </g>
              <line x1="570.407" y1="224.105" x2="572.847" y2="235.158" fill="#e89a66" stroke="#e89a66" stroke-miterlimit="10" stroke-width="4.429"/>
              <use width="40" height="42.466" transform="translate(538.44 206.325) scale(0.886)" xlink:href="#k"/>
              <g>
                <g>
                  <line x1="541.783" y1="225.845" x2="541.783" y2="235.472" fill="#e89a66" stroke="#e89a66" stroke-miterlimit="10" stroke-width="4.429"/>
                  <line x1="553.522" y1="216.373" x2="545.915" y2="228.749" fill="none" stroke="#ef9e69" stroke-linecap="round" stroke-miterlimit="10" stroke-width="4.429"/>
                  <line x1="546.379" y1="227.995" x2="541.783" y2="235.472" fill="none" stroke="#ef9e69" stroke-linecap="round" stroke-miterlimit="10" stroke-width="4.429"/>
                </g>
                <g>
                  <line x1="556.651" y1="219.658" x2="567.145" y2="229.702" fill="none" stroke="#ef9e69" stroke-linecap="round" stroke-miterlimit="10" stroke-width="4.429"/>
                  <line x1="566.506" y1="229.089" x2="572.847" y2="235.158" fill="none" stroke="#ef9e69" stroke-linecap="round" stroke-miterlimit="10" stroke-width="4.429"/>
                </g>
                <use width="24" height="13" transform="translate(545.509 243.949) scale(0.886)" xlink:href="#l"/>
              </g>
            </g>
            <use width="11" height="41.854" transform="translate(544.755 239.524) scale(0.886)" xlink:href="#m"/>
            <use width="10" height="11.856" transform="translate(558.277 271.705) scale(0.886)" xlink:href="#j"/>
            <use width="11" height="41.854" transform="translate(557.834 239.524) scale(0.886)" xlink:href="#m"/>
          </g>
          <rect x="566.034" y="180.461" width="1.583" height="4.379" transform="translate(908.315 670.54) rotate(-142.85)" fill="#1db1bf"/>
        </g>
        <g>
          <path d="M530.767,234.2h47.889a0,0,0,0,1,0,0v0a5,5,0,0,1-5,5h-37.9a5,5,0,0,1-5-5v0A0,0,0,0,1,530.767,234.2Z" fill="#c2c6c6"/>
          <g>
            <g mask="url(#d)">
              <polygon points="539.552 233.556 529.596 190.264 579.058 190.264 569.898 233.591 539.552 233.556" fill="#e4efef"/>
            </g>
            <path d="M573.251,216.084l-1.894,22.139a1.025,1.025,0,0,1-.949.974H539.159a1.025,1.025,0,0,1-.949-.974l-1.895-22.139a.878.878,0,0,1,.89-.973h35.156A.878.878,0,0,1,573.251,216.084Z" fill="#e6e6e6"/>
          </g>
        </g>
        <path d="M558.6,197.5c2,0,3.625-.656,3.625-1.464h-7.25C554.977,196.845,556.6,197.5,558.6,197.5Z" fill="#ca875a"/>
      </g>
      <g>
        <g>
          <g>
            <g>
              <g>
                <ellipse cx="515.237" cy="180.417" rx="1.987" ry="2.842" fill="#dc9161"/>
                <ellipse cx="496.31" cy="180.417" rx="1.987" ry="2.842" fill="#dc9161"/>
                <path d="M515.282,171.3a9.683,9.683,0,0,0-8.873-8.92,9.51,9.51,0,0,0-10.157,8.928l-.027.013v11.153l.026.014a9.473,9.473,0,0,0,7.024,8.61c.094.026.188.049.283.072.168.04.336.076.507.107s.317.051.478.072c.137.018.274.035.413.047.061,0,.12.016.182.02.106.007.208,0,.313,0s.214.017.323.017c.061,0,.121-.009.183-.01.162,0,.322-.013.482-.024s.331-.023.5-.043.306-.044.458-.069.329-.058.491-.094c.144-.032.286-.07.427-.109.165-.045.33-.092.491-.145.13-.043.258-.091.386-.14.168-.064.334-.13.5-.2.113-.05.223-.1.334-.159.172-.085.342-.173.508-.268.093-.053.184-.109.275-.166.177-.108.35-.221.519-.341.072-.051.143-.105.214-.158.18-.136.356-.277.526-.425.052-.045.1-.091.153-.137.182-.166.358-.336.526-.515.034-.035.066-.072.1-.108q.27-.292.513-.608c.018-.023.035-.047.053-.071q.258-.34.485-.7l.018-.029a9.34,9.34,0,0,0,1.389-4.425l.026-.013v-.5l0-9.571Z" fill="#ef9e69"/>
                <circle cx="512.592" cy="176.733" r="0.931" fill="#010100"/>
                <circle cx="503.892" cy="176.733" r="0.931" fill="#010100"/>
              </g>
              <g>
                <path d="M505.017,193.37a11,11,0,0,1-3.476-.813v6.364h7.875v-6.132a11.357,11.357,0,0,1-3.643.606C505.522,193.4,505.271,193.387,505.017,193.37Z" fill="#dc9161"/>
                <path d="M505.144,191.406a9.048,9.048,0,0,1-3.6-1.012v2.163a11,11,0,0,0,3.476.813c.254.017.5.025.756.025a11.357,11.357,0,0,0,3.643-.606v-2.1A9.456,9.456,0,0,1,505.144,191.406Z" fill="#c98559"/>
              </g>
              <path d="M515.191,177.37v2.395c0,2.714.343,3.962-1.974,4.707l-.3-.431a3.172,3.172,0,0,0-2.609-1.35h-4.949a3.169,3.169,0,0,0-2.608,1.35l-.3.431c-2.316-.745-6.019-2.13-6.019-4.844V177.37h-.191l.029.134v8.842a5.286,5.286,0,0,0,5.3,5.272h8.372a5.286,5.286,0,0,0,5.3-5.216c.03-2.8.06-5.758.06-6.192V177.5l.034-.134Zm-7.355,9.986a3.326,3.326,0,0,1-3.187-2.3h6.374A3.328,3.328,0,0,1,507.836,187.356Z"/>
            </g>
            <g>
              <line x1="523.552" y1="213.603" x2="526.521" y2="224.426" fill="#e89a66" stroke="#e89a66" stroke-linecap="round" stroke-miterlimit="10" stroke-width="5.906"/>
              <line x1="487.664" y1="213.603" x2="484.695" y2="224.426" fill="#e89a66" stroke="#e89a66" stroke-linecap="round" stroke-miterlimit="10" stroke-width="5.906"/>
              <g>
                <path d="M501.018,194.013h9.123A17.587,17.587,0,0,1,527.728,211.6v4.56a0,0,0,0,1,0,0h-44.3a0,0,0,0,1,0,0V211.6A17.587,17.587,0,0,1,501.018,194.013Z" fill="#2c5871"/>
                <path d="M505.458,193.971h.243a13.167,13.167,0,0,1,13.167,13.167v32.05a0,0,0,0,1,0,0H492.291a0,0,0,0,1,0,0v-32.05A13.167,13.167,0,0,1,505.458,193.971Z" fill="#2c5871"/>
              </g>
              <g>
                <line x1="526.521" y1="224.426" x2="510.883" y2="228.437" fill="none" stroke="#ef9e69" stroke-linecap="round" stroke-miterlimit="10" stroke-width="5.906"/>
                <line x1="511.837" y1="228.193" x2="502.388" y2="230.616" fill="none" stroke="#ef9e69" stroke-linecap="round" stroke-miterlimit="10" stroke-width="5.906"/>
              </g>
              <g>
                <line x1="484.695" y1="224.426" x2="500.333" y2="228.437" fill="none" stroke="#ef9e69" stroke-linecap="round" stroke-miterlimit="10" stroke-width="5.906"/>
                <line x1="499.379" y1="228.193" x2="508.828" y2="230.616" fill="none" stroke="#ef9e69" stroke-linecap="round" stroke-miterlimit="10" stroke-width="5.906"/>
              </g>
            </g>
            <g>
              <g>
                <line x1="497.739" y1="271.075" x2="497.739" y2="282.222" fill="none" stroke="#ef9e69" stroke-miterlimit="10" stroke-width="5.906"/>
                <g>
                  <g>
                    <rect x="493.275" y="279.344" width="8.859" height="2.971" fill="#c7d1db"/>
                    <path d="M497.705,276.39A5.907,5.907,0,0,0,491.8,282.3h11.812A5.907,5.907,0,0,0,497.705,276.39Z" fill="#c7d1db"/>
                    <rect x="491.798" y="282.297" width="11.813" height="0.815" fill="#c7d1db"/>
                  </g>
                  <g>
                    <rect x="493.275" y="279.344" width="8.859" height="2.971" fill="#ecf0f2"/>
                    <path d="M497.705,276.39A5.907,5.907,0,0,0,491.8,282.3h11.812A5.907,5.907,0,0,0,497.705,276.39Z"/>
                    <rect x="491.798" y="282.297" width="11.813" height="0.815" fill="#c7d1db"/>
                  </g>
                </g>
              </g>
              <g>
                <path d="M492.291,239.222h26.564a0,0,0,0,1,0,0v2.122a13.282,13.282,0,0,1-13.282,13.282h0a13.282,13.282,0,0,1-13.282-13.282v-2.122a0,0,0,0,1,0,0Z" fill="#1a1a1a"/>
                <g>
                  <rect x="492.291" y="239.222" width="4.525" height="2.122" fill="#1e1e1c"/>
                  <rect x="497.8" y="239.222" width="4.525" height="2.122" fill="#1e1e1c"/>
                  <rect x="503.31" y="239.222" width="4.525" height="2.122" fill="#1e1e1c"/>
                  <rect x="508.82" y="239.222" width="4.525" height="2.122" fill="#1e1e1c"/>
                  <rect x="514.33" y="239.222" width="4.525" height="2.122" fill="#1e1e1c"/>
                </g>
              </g>
            </g>
          </g>
          <g>
            <line x1="496.72" y1="238.363" x2="496.72" y2="271.196" fill="none" stroke="#333" stroke-linecap="round" stroke-miterlimit="10" stroke-width="8.859"/>
            <line x1="496.72" y1="270.537" x2="496.72" y2="275.626" fill="none" stroke="#4d4d4d" stroke-miterlimit="10" stroke-width="10.828"/>
          </g>
          <g>
            <g>
              <line x1="513.777" y1="271.075" x2="513.777" y2="282.222" fill="none" stroke="#ef9e69" stroke-miterlimit="10" stroke-width="5.906"/>
              <g>
                <g>
                  <rect x="509.313" y="279.344" width="8.859" height="2.971" fill="#c7d1db"/>
                  <path d="M513.742,276.39a5.907,5.907,0,0,0-5.906,5.907h11.813A5.907,5.907,0,0,0,513.742,276.39Z" fill="#c7d1db"/>
                  <rect x="507.836" y="282.297" width="11.813" height="0.815" fill="#c7d1db"/>
                </g>
                <g>
                  <rect x="509.313" y="279.344" width="8.859" height="2.971" fill="#ecf0f2"/>
                  <path d="M513.742,276.39a5.907,5.907,0,0,0-5.906,5.907h11.813A5.907,5.907,0,0,0,513.742,276.39Z"/>
                  <rect x="507.836" y="282.297" width="11.813" height="0.815" fill="#c7d1db"/>
                </g>
              </g>
            </g>
            <g>
              <line x1="514.727" y1="238.363" x2="514.727" y2="271.196" fill="none" stroke="#333" stroke-linecap="round" stroke-miterlimit="10" stroke-width="8.859"/>
              <line x1="514.727" y1="270.537" x2="514.727" y2="275.626" fill="none" stroke="#4d4d4d" stroke-miterlimit="10" stroke-width="10.828"/>
            </g>
          </g>
        </g>
        <g>
          <path d="M485.581,229.125h41.578a0,0,0,0,1,0,0v0a4.337,4.337,0,0,1-4.337,4.337h-32.9a4.337,4.337,0,0,1-4.337-4.337v0a0,0,0,0,1,0,0Z" fill="#c2c6c6"/>
          <g>
            <g mask="url(#e)">
              <polygon points="493.208 228.565 484.564 190.978 527.508 190.978 519.555 228.595 493.208 228.565" fill="#e4efef"/>
            </g>
            <path d="M522.466,213.4l-1.644,19.222a.89.89,0,0,1-.824.845H492.867a.89.89,0,0,1-.824-.845L490.4,213.4a.763.763,0,0,1,.773-.845h30.523A.763.763,0,0,1,522.466,213.4Z" fill="#e6e6e6"/>
          </g>
        </g>
        <g>
          <path d="M495.825,167.723l.185,8.92.349,1.007v-6.362a4.809,4.809,0,0,1,4.772-4.808l9.264-.069a4.808,4.808,0,0,1,4.844,4.808v6.207l.407-.783.148-9.165a5.244,5.244,0,0,0-5.362-5.337l-9.486.218A5.242,5.242,0,0,0,495.825,167.723Z"/>
          <path d="M510.725,160.9a8.9,8.9,0,0,0-3.105.776c.111-1.331,1.775-1.552,1.775-1.552-2.884.11-3.438,2.106-3.438,2.106-.111-1.774,3.77-2.994,3.77-2.994-3.011.274-4.37,1.061-4.977,1.788a5.807,5.807,0,0,1,1.572-1.925s-4.007.82-6.884,5.98c0,0,4.522-1.792,5.455-1.758,1.423,1.633,2.828.255,3.256-.254.333.291.79-.386.79-.386.064-.644,1.737-1.051,1.737-1.051a5.294,5.294,0,0,0-2.092.454A3.552,3.552,0,0,1,510.725,160.9Z"/>
          <ellipse cx="505.924" cy="166.311" rx="4.609" ry="0.699"/>
          <g>
            <path d="M497.406,168.31a2.863,2.863,0,0,0,2.139,1.466,2.145,2.145,0,0,1-2.551-1.219Z"/>
            <path d="M497.122,168.653a4.683,4.683,0,0,0,.981,2.122,3.582,3.582,0,0,1-1.588-1.785Z"/>
          </g>
          <g>
            <path d="M513.943,166.647a2.866,2.866,0,0,1-2.139,1.466,2.146,2.146,0,0,0,2.551-1.22Z"/>
            <path d="M513.943,167.539a2.366,2.366,0,0,1-.7,1.572,3.582,3.582,0,0,0,1.588-1.785Z"/>
          </g>
        </g>
      </g>
      <g>
        <g>
          <path d="M596.766,194.1h9.206a18.078,18.078,0,0,1,18.078,18.078v3.676a0,0,0,0,1,0,0H578.688a0,0,0,0,1,0,0v-3.676A18.078,18.078,0,0,1,596.766,194.1Z" fill="#cb636f"/>
          <path d="M600.609,194.059h1.52a13.535,13.535,0,0,1,13.535,13.535v28.987a1.892,1.892,0,0,1-1.892,1.892h-24.8a1.892,1.892,0,0,1-1.892-1.892V207.594a13.535,13.535,0,0,1,13.535-13.535Z" fill="#cb636f"/>
          <path d="M596.777,193.449h9.169a0,0,0,0,1,0,0v.291a3.693,3.693,0,0,1-3.693,3.693H600.47a3.693,3.693,0,0,1-3.693-3.693v-.291A0,0,0,0,1,596.777,193.449Z" fill="#002f47"/>
          <g>
            <path d="M605.957,191.591v-3.422a9.63,9.63,0,0,0,1.939-1.64l.305.029c1.966.268,2.746,3.111,4.372,4.835-1.157,2.771-4.551,4.288-8.912,5.264.1-.068.2-.136.292-.205a6.134,6.134,0,0,0,2-2.462h0Z" fill="#636270"/>
            <path d="M608.2,186.218c1.593.426,2.747,2.459,4,4.043a7.071,7.071,0,0,1,1.311,2.668h0a1.66,1.66,0,0,1-.148,1.187h0a1.66,1.66,0,0,1-.864.764l-5.55,2.145-3.328.816-2.231-.375a42.786,42.786,0,0,0,8.767-3.815,2.55,2.55,0,0,0,.5-3.861,13.881,13.881,0,0,0-3.124-2.893C607.581,186.847,608.2,186.218,608.2,186.218Z" fill="#677e97"/>
            <g>
              <path d="M604.769,196.78a.576.576,0,0,0,.658.5.627.627,0,0,0,.634-.575.574.574,0,0,0-.658-.5A.627.627,0,0,0,604.769,196.78Z" fill="#959495"/>
              <path d="M606.07,208.37l-1.111.055s.115-9.179.128-10.385.053-1.432.324-1.446.243.3.281,1.331S606.07,208.37,606.07,208.37Z" fill="#585e61"/>
            </g>
          </g>
          <g>
            <path d="M596.815,191.591v-3.926a9.618,9.618,0,0,1-1.821-1.77l-.306.009c-1.98.131-2.862,3.765-4.488,5.489,1.156,2.771,4.55,4.288,8.912,5.264-.1-.068-.2-.136-.293-.205a6.142,6.142,0,0,1-2-2.462h0Z" fill="#636270"/>
            <path d="M594.716,185.565c-1.618.315-2.886,3.112-4.139,4.7a7.056,7.056,0,0,0-1.311,2.668h0a1.66,1.66,0,0,0,.148,1.187h0a1.657,1.657,0,0,0,.864.764l5.55,2.145,3.327.816,2.231-.375a42.81,42.81,0,0,1-8.767-3.815,2.55,2.55,0,0,1-.5-3.861c1.17-1.283,2.378-3.19,3.215-3.5C595.286,186.235,594.716,185.565,594.716,185.565Z" fill="#677e97"/>
            <g>
              <path d="M598,196.78a.575.575,0,0,1-.658.5.626.626,0,0,1-.633-.575.573.573,0,0,1,.657-.5A.627.627,0,0,1,598,196.78Z" fill="#959495"/>
              <path d="M596.7,208.37l1.111.055s-.115-9.179-.128-10.385-.053-1.432-.324-1.446-.244.3-.281,1.331S596.7,208.37,596.7,208.37Z" fill="#585e61"/>
            </g>
          </g>
          <path d="M593.743,228.648v2.593a25.173,25.173,0,0,0,8.664,1.459,25.974,25.974,0,0,0,7.44-1.046V228.6a6.548,6.548,0,0,1-1.729-1.637,8.219,8.219,0,0,1-2.03-5.178h-8.28A8.243,8.243,0,0,1,593.743,228.648Z" fill="#68819a"/>
          <path d="M601.717,182.691a3.943,3.943,0,0,1-2.965-.939h5.931A3.944,3.944,0,0,1,601.717,182.691Z" fill="#e2a98d"/>
          <g>
            <path d="M600.869,191c-1.423-.078-2.777-1.4-4.04-1.84v4.386h9.153v-4.158c-1.331.379-2.752,1.636-4.233,1.636C601.457,191.025,601.165,191.017,600.869,191Z" fill="#f2b494"/>
            <path d="M601.017,189.074a12.445,12.445,0,0,1-4.188-1.409v2.122a15.287,15.287,0,0,0,4.04,1.214c.3.016.588.024.88.024a15.722,15.722,0,0,0,4.233-1.011v-2.061A12.98,12.98,0,0,1,601.017,189.074Z" fill="#e2a98d"/>
          </g>
          <path d="M608.389,176.964a2.6,2.6,0,0,1,2.356-2.786c1.3,0,2.173,1.248,1.948,2.786s-1.281,2.787-2.356,2.787S608.389,178.5,608.389,176.964Z" fill="#e2a98d"/>
          <path d="M595.046,176.964a2.6,2.6,0,0,0-2.356-2.786c-1.3,0-2.173,1.248-1.948,2.786s1.281,2.787,2.356,2.787S595.046,178.5,595.046,176.964Z" fill="#e2a98d"/>
          <path d="M600.418,160.432h2.689a7.867,7.867,0,0,1,7.867,7.867v12.328a9.211,9.211,0,0,1-9.211,9.211h0a9.211,9.211,0,0,1-9.211-9.211V168.3a7.867,7.867,0,0,1,7.867-7.867Z" fill="#f2b494"/>
          <circle cx="607.926" cy="174.309" r="0.913" fill="#010100"/>
          <circle cx="599.395" cy="174.309" r="0.913" fill="#010100"/>
          <path d="M609.846,162.54a3.394,3.394,0,0,0-3.43-3.356h-7.8a6.5,6.5,0,0,0-6.41,6.439l-.061,7.184.679,1.881v-6.736a2.888,2.888,0,0,1,2.866-2.888l11.969-.089a2.888,2.888,0,0,1,2.909,2.887v6.664l.382-.736.233-9.487a1.772,1.772,0,0,0-1.337-1.763Z" fill="#4c3a2d"/>
          <g>
            <line x1="620.04" y1="213.112" x2="622.53" y2="223.829" fill="none" stroke="#cb636f" stroke-miterlimit="10" stroke-width="7.721"/>
            <line x1="607.921" y1="226.565" x2="598.52" y2="228.325" fill="none" stroke="#f2b494" stroke-linecap="round" stroke-linejoin="round" stroke-width="5.791"/>
            <line x1="622.53" y1="223.829" x2="610.73" y2="226.039" fill="none" stroke="#cb636f" stroke-linecap="round" stroke-miterlimit="10" stroke-width="7.721"/>
            <line x1="614.289" y1="225.372" x2="602.489" y2="227.582" fill="none" stroke="#cb636f" stroke-miterlimit="10" stroke-width="7.721"/>
          </g>
          <g>
            <line x1="582.387" y1="213.182" x2="579.896" y2="223.899" fill="none" stroke="#cb636f" stroke-miterlimit="10" stroke-width="7.721"/>
            <line x1="594.506" y1="226.635" x2="603.907" y2="228.396" fill="none" stroke="#f2b494" stroke-linecap="round" stroke-linejoin="round" stroke-width="5.791"/>
            <line x1="579.896" y1="223.899" x2="591.696" y2="226.109" fill="none" stroke="#cb636f" stroke-linecap="round" stroke-miterlimit="10" stroke-width="7.721"/>
            <line x1="588.138" y1="225.442" x2="599.938" y2="227.652" fill="none" stroke="#cb636f" stroke-miterlimit="10" stroke-width="7.721"/>
          </g>
        </g>
        <g>
          <g>
            <g>
              <line x1="593.535" y1="271" x2="593.535" y2="282.148" fill="none" stroke="#ef9e69" stroke-miterlimit="10" stroke-width="5.906"/>
              <g>
                <g>
                  <rect x="589.071" y="279.269" width="8.859" height="2.971" fill="#c7d1db"/>
                  <path d="M593.5,276.316a5.907,5.907,0,0,0-5.907,5.907h11.813A5.907,5.907,0,0,0,593.5,276.316Z" fill="#c7d1db"/>
                  <rect x="587.594" y="282.223" width="11.813" height="0.815" fill="#c7d1db"/>
                </g>
                <g>
                  <rect x="589.071" y="279.269" width="8.859" height="2.971" fill="#ecf0f2"/>
                  <path d="M593.5,276.316a5.907,5.907,0,0,0-5.907,5.907h11.813A5.907,5.907,0,0,0,593.5,276.316Z" stroke="#0b3046" stroke-miterlimit="10"/>
                  <rect x="587.594" y="282.223" width="11.813" height="0.815" fill="#c7d1db"/>
                </g>
              </g>
            </g>
            <g>
              <path d="M588.087,239.148h26.564a0,0,0,0,1,0,0v2.122a13.282,13.282,0,0,1-13.282,13.282h0a13.282,13.282,0,0,1-13.282-13.282v-2.122a0,0,0,0,1,0,0Z" fill="#1a1a1a"/>
              <g>
                <rect x="588.087" y="239.148" width="4.525" height="2.122" fill="#1e1e1c"/>
                <rect x="593.596" y="239.148" width="4.525" height="2.122" fill="#1e1e1c"/>
                <rect x="599.106" y="239.148" width="4.525" height="2.122" fill="#1e1e1c"/>
                <rect x="604.616" y="239.148" width="4.525" height="2.122" fill="#1e1e1c"/>
                <rect x="610.126" y="239.148" width="4.525" height="2.122" fill="#1e1e1c"/>
              </g>
            </g>
          </g>
          <g>
            <line x1="592.516" y1="238.289" x2="592.516" y2="271.122" fill="none" stroke="#0c3148" stroke-linecap="round" stroke-miterlimit="10" stroke-width="8.859"/>
            <line x1="592.516" y1="270.463" x2="592.516" y2="275.551" fill="none" stroke="#4d4d4d" stroke-miterlimit="10" stroke-width="10.828"/>
          </g>
          <g>
            <line x1="609.573" y1="271" x2="609.573" y2="282.148" fill="none" stroke="#ef9e69" stroke-miterlimit="10" stroke-width="5.906"/>
            <g>
              <g>
                <rect x="605.109" y="279.269" width="8.859" height="2.971" fill="#c7d1db"/>
                <path d="M609.538,276.316a5.907,5.907,0,0,0-5.906,5.907h11.812A5.907,5.907,0,0,0,609.538,276.316Z" fill="#c7d1db"/>
                <rect x="603.632" y="282.223" width="11.813" height="0.815" fill="#c7d1db"/>
              </g>
              <g>
                <rect x="605.109" y="279.269" width="8.859" height="2.971" fill="#ecf0f2"/>
                <path d="M609.538,276.316a5.907,5.907,0,0,0-5.906,5.907h11.812A5.907,5.907,0,0,0,609.538,276.316Z" stroke="#0b3046" stroke-miterlimit="10"/>
                <rect x="603.632" y="282.223" width="11.813" height="0.815" fill="#c7d1db"/>
              </g>
            </g>
          </g>
          <g>
            <line x1="610.523" y1="238.289" x2="610.523" y2="271.122" fill="none" stroke="#0c3148" stroke-linecap="round" stroke-miterlimit="10" stroke-width="8.859"/>
            <line x1="610.523" y1="270.463" x2="610.523" y2="275.551" fill="none" stroke="#4d4d4d" stroke-miterlimit="10" stroke-width="10.828"/>
          </g>
        </g>
        <g>
          <path d="M582.034,229.051h41.578a0,0,0,0,1,0,0v0a4.337,4.337,0,0,1-4.337,4.337h-32.9a4.337,4.337,0,0,1-4.337-4.337v0a0,0,0,0,1,0,0Z" fill="#c2c6c6"/>
          <g>
            <g mask="url(#f)">
              <polygon points="589.661 228.49 581.017 190.904 623.961 190.904 616.007 228.521 589.661 228.49" fill="#e4efef"/>
            </g>
            <path d="M618.919,213.321l-1.644,19.222a.89.89,0,0,1-.824.845H589.32a.89.89,0,0,1-.824-.845l-1.646-19.222a.763.763,0,0,1,.773-.845h30.523A.763.763,0,0,1,618.919,213.321Z" fill="#e6e6e6"/>
          </g>
        </g>
        <path d="M603.935,182.818c2,0,3.626-.655,3.626-1.464H600.31C600.31,182.163,601.933,182.818,603.935,182.818Z" fill="#e2a98d"/>
      </g>
      <g>
        <g>
          <g>
            <line x1="713.659" y1="163.729" x2="713.659" y2="175.13" fill="#e89a66" stroke="#000" stroke-miterlimit="10" stroke-width="9"/>
            <line x1="756.13" y1="163.729" x2="756.13" y2="175.13" fill="#e89a66" stroke="#000" stroke-miterlimit="10" stroke-width="9"/>
          </g>
          <g>
            <g>
              <use width="16" height="12.135" transform="translate(714.815 242.452)" xlink:href="#p"/>
              <use width="9" height="50.194" transform="translate(722.394 195.947)" xlink:href="#q"/>
            </g>
            <g>
              <use width="16" height="12.135" transform="translate(730.503 242.452)" xlink:href="#p"/>
              <use width="9" height="50.194" transform="translate(738.082 195.947)" xlink:href="#q"/>
            </g>
            <use width="26.986" height="15.649" transform="translate(721.394 191.777)" xlink:href="#t"/>
          </g>
        </g>
        <g>
          <g>
            <path d="M734.338,144.5a15.322,15.322,0,0,1-4.186-.825v3.464h9.484v-3.228a16.037,16.037,0,0,1-4.387.614C734.947,144.525,734.644,144.518,734.338,144.5Z" fill="#dc9161"/>
            <path d="M734.491,142.505a12.479,12.479,0,0,1-4.339-1.028v2.2a15.322,15.322,0,0,0,4.186.825c.306.018.609.025.911.025a16.037,16.037,0,0,0,4.387-.614v-2.137A13.269,13.269,0,0,1,734.491,142.505Z" fill="#c98559"/>
          </g>
          <ellipse cx="744.808" cy="132.212" rx="2.018" ry="2.887" fill="#dc9161"/>
          <path d="M727.741,118.091h15.047a2.021,2.021,0,0,1,2.021,2.021v14.405a8.042,8.042,0,0,1-8.042,8.042h-3a8.042,8.042,0,0,1-8.042-8.042V120.112A2.021,2.021,0,0,1,727.741,118.091Z" fill="#ef9e69"/>
          <circle cx="737.513" cy="128.469" r="0.946" fill="#010100"/>
          <circle cx="728.674" cy="128.469" r="0.946" fill="#010100"/>
          <path d="M725.369,121.19l.123,8.676h.228v-8.158a3.08,3.08,0,0,1,3.1-3.08l12.927.095a3.08,3.08,0,0,1,3.058,3.08v8.063h.168s.518-6.678.518-8.676h0a4.715,4.715,0,0,0-4.715-4.715H730.086a4.716,4.716,0,0,0-4.714,4.591Z" fill="#9f908b"/>
          <path d="M737.065,118.71s-4.45,1.607-6.907,1.47a7.72,7.72,0,0,1-3.586-1.563,12.208,12.208,0,0,0,3.972.746,21.84,21.84,0,0,0,3.11-.678Z" fill="#9f908b"/>
          <path d="M727.27,118.615a4.552,4.552,0,0,0,2.5,1.2c1.574.14,4.437-1.123,4.437-1.123l-2.573-.022A5.212,5.212,0,0,1,727.27,118.615Z" fill="#c0b6b3"/>
        </g>
        <g>
          <g>
            <path d="M728.266,146.169h13.256a19.108,19.108,0,0,1,19.108,19.108v3.391a0,0,0,0,1,0,0H709.159a0,0,0,0,1,0,0v-3.391A19.108,19.108,0,0,1,728.266,146.169Z"/>
            <path d="M733.759,146.126h2.271a14.306,14.306,0,0,1,14.306,14.306v29.629a2,2,0,0,1-2,2H721.453a2,2,0,0,1-2-2V160.432A14.306,14.306,0,0,1,733.759,146.126Z"/>
          </g>
          <g>
            <path d="M730.152,143.675V141.7a8.1,8.1,0,0,1-1.805-1.243l-.257.03c-2.124.277-3.3,1.163-5.055,2.946,1.249,2.866,4.915,4.435,9.627,5.444a13.437,13.437,0,0,1-1.861-1.449l-.649-1.269Z" fill="#bbb6b2"/>
            <path d="M728.052,140.156a11.939,11.939,0,0,0-5.6,3.217l-.6,2.288.642,1.145,6.614,2.448,3.595.844,2.41-.388c-5.8-1.906-10.549-3.876-11.784-6.067a12.434,12.434,0,0,1,5.2-3.043c-.06-.051-.127-.094-.185-.147C728.243,140.359,728.15,140.255,728.052,140.156Z" fill="#272829"/>
            <g>
              <path d="M731.464,149a.615.615,0,0,1-.711.515.664.664,0,0,1-.684-.594.615.615,0,0,1,.71-.517A.667.667,0,0,1,731.464,149Z" fill="#959495"/>
              <path d="M730.059,160.987l1.2.057s-.124-9.493-.138-10.74-.057-1.482-.35-1.5-.263.311-.3,1.376S730.059,160.987,730.059,160.987Z" fill="#ffd405"/>
            </g>
          </g>
          <g>
            <g>
              <path d="M746.462,143.643a12.057,12.057,0,0,0-4.677-2.848,8.032,8.032,0,0,1-2.141,1.224v4.136L739,147.424a13.515,13.515,0,0,1-1.858,1.447C741.784,147.224,745.407,145.514,746.462,143.643Z" fill="#bbb6b2"/>
              <path d="M747.342,143.373a11.931,11.931,0,0,0-5.038-3.034c-.075.071-.153.14-.23.209-.095.084-.19.167-.289.247a12.057,12.057,0,0,1,4.677,2.848c-1.055,1.871-4.678,3.581-9.324,5.228q-1.191.421-2.46.839l2.41.388,3.594-.844,6.615-2.448.641-1.145Z" fill="#272829"/>
            </g>
            <g>
              <path d="M738.333,149a.614.614,0,0,0,.71.515.665.665,0,0,0,.685-.594.616.616,0,0,0-.711-.517A.666.666,0,0,0,738.333,149Z" fill="#959495"/>
              <path d="M739.737,160.987l-1.2.057s.124-9.493.139-10.74.057-1.482.35-1.5.262.311.3,1.376S739.737,160.987,739.737,160.987Z" fill="#ffd405"/>
            </g>
          </g>
          <path d="M736.874,146.043h-3.159c-.3,0-.568,0-.878.007l-2.685.106.2.395.447.873a13.441,13.441,0,0,0,1.857,1.447q1.086.384,2.238.765c.767-.254,1.519-.509,2.242-.765A13.515,13.515,0,0,0,739,147.424l.445-.871.2-.4Z" fill="#dc9161"/>
          <path d="M726.776,184.331v2.687a26.106,26.106,0,0,0,8.976,1.512,26.918,26.918,0,0,0,7.709-1.085v-3.166a6.763,6.763,0,0,1-1.791-1.7,8.5,8.5,0,0,1-2.1-5.365h-8.58A8.54,8.54,0,0,1,726.776,184.331Z" fill="#272829"/>
        </g>
        <rect x="726.481" y="166.717" width="17.901" height="22.926" rx="0.575" transform="translate(-21.275 176.315) rotate(-13.478)" fill="#ccc"/>
        <g>
          <line x1="741.168" y1="178.78" x2="731.541" y2="181.13" fill="none" stroke="#ef9e69" stroke-linecap="round" stroke-miterlimit="10" stroke-width="6"/>
          <line x1="756.13" y1="175.13" x2="740.196" y2="179.017" fill="none" stroke="#000" stroke-linecap="round" stroke-linejoin="round" stroke-width="9"/>
          <line x1="750.756" y1="176.411" x2="734.823" y2="180.299" fill="none" stroke="#000" stroke-miterlimit="10" stroke-width="9"/>
        </g>
        <g class="arm-pointer">
          <polygon class="pointer" points="690.824 110.364 690.454 110.512 690.085 110.66 706.26 152.08 706.999 151.784 707.738 151.488 690.824 110.364" fill="#ffd301"/>
          <g>
            <line x1="709.637" y1="160.263" x2="707.05" y2="150.697" fill="none" stroke="#ef9e69" stroke-linecap="round" stroke-miterlimit="10" stroke-width="6"/>
            <line x1="713.659" y1="175.13" x2="709.376" y2="159.298" fill="none" stroke="#000" stroke-linecap="round" stroke-linejoin="round" stroke-width="9"/>
            <line x1="712.296" y1="170.092" x2="708.194" y2="154.926" fill="none" stroke="#000" stroke-miterlimit="10" stroke-width="9"/>
          </g>
        </g>
        <path d="M733.455,137.271c2,0,3.625-.656,3.625-1.464h-7.251C729.829,136.615,731.452,137.271,733.455,137.271Z" fill="#ca875a"/>
      </g>
      <g>
        <g>
          <path d="M785.608,133.608a11.161,11.161,0,0,1-3.531-.826v6.465h8v-6.229a11.542,11.542,0,0,1-3.7.615C786.121,133.633,785.866,133.625,785.608,133.608Z" fill="#dc9161"/>
          <path d="M785.737,131.612a9.17,9.17,0,0,1-3.66-1.028v2.2a11.161,11.161,0,0,0,3.531.826c.258.017.513.025.768.025a11.542,11.542,0,0,0,3.7-.615v-2.136A9.6,9.6,0,0,1,785.737,131.612Z" fill="#c98559"/>
          <g>
            <ellipse cx="795.966" cy="120.795" rx="1.596" ry="3.165" fill="#dc9161"/>
            <path d="M778.985,106.857h14.8a1.99,1.99,0,0,1,1.99,1.99v15.138a7.755,7.755,0,0,1-7.755,7.755H784.75A7.755,7.755,0,0,1,777,123.986V108.847A1.99,1.99,0,0,1,778.985,106.857Z" fill="#ef9e69"/>
            <circle cx="788.696" cy="115.687" r="0.946" fill="#010100"/>
            <circle cx="779.857" cy="115.687" r="0.946" fill="#010100"/>
          </g>
          <path d="M792.876,108.231s-8.254,2.635-11.722,2.305l2.586-1.233h-3.6s2.339-1.109,1.843-1.259a21.626,21.626,0,0,1-2.807-2.958Z"/>
          <circle cx="793.042" cy="109.887" r="0.286" fill="#5e4a31"/>
          <path d="M796.3,106.311a1.317,1.317,0,0,0-1.322-.652,3.462,3.462,0,0,0-.285-1.38,3.578,3.578,0,0,0-1.313-1.56,3.663,3.663,0,0,0-2.026-.6h-10.9c-2.988,0-3.822,2.4-3.822,5.326h0l.015.7.052,2.534h0l.144,6.981H777v-6.284a3.048,3.048,0,0,1,3.028-3.05l12.847-.095a2.777,2.777,0,0,1,2.087.886,3.158,3.158,0,0,1,.817,2.165v6.378h.192l.385-8.074.074-1.573c.023-.175.039-.343.048-.5A2.421,2.421,0,0,0,796.3,106.311Z"/>
          <path d="M795.972,117.66l.324-6.8-.132.584-.034-2.276s-.14,4.422-.164,4.492-.046-3.233-.046-3.233l-.14,1.625v5.606Z" fill="#b2afae"/>
          <path d="M776.862,110.366l-.027,1.545-.129-1.232.144,6.981H777v-5.668a2.264,2.264,0,0,1-.071.444C776.906,112.366,776.862,110.366,776.862,110.366Z" fill="#b2afae"/>
        </g>
        <g>
          <g>
            <use width="9" height="39.711" transform="translate(763.577 155.334)" xlink:href="#u"/>
            <line x1="803.972" y1="155.334" x2="803.972" y2="166.735" fill="#e89a66" stroke="#000" stroke-miterlimit="10" stroke-width="9"/>
            <use width="45" height="45.979" transform="translate(763.577 135.34)" xlink:href="#v"/>
          </g>
          <g>
            <g>
              <use width="16" height="12.135" transform="translate(766.069 242.645)" xlink:href="#p"/>
              <use width="16" height="12.135" transform="translate(781.641 242.645)" xlink:href="#p"/>
              <use width="9" height="61.15" transform="translate(773.577 185.523)" xlink:href="#y"/>
            </g>
            <use width="9" height="61.15" transform="translate(789.472 185.523)" xlink:href="#y"/>
            <use width="26.986" height="15.649" transform="translate(772.577 181.354)" xlink:href="#aa"/>
          </g>
        </g>
        <g>
          <rect x="775.979" y="153.167" width="22.833" height="29.243" rx="0.734" transform="translate(-17.422 188.14) rotate(-13.478)" fill="#39728b"/>
          <path d="M792.362,155.008l-12.678,3.215a.685.685,0,0,0-.391.881l1.231,4.851a.7.7,0,0,0,.767.6l9.739-2.47.332,1.309.451-1.508,2.156-.546a.729.729,0,0,0,.428-.906l-1.23-4.851A.715.715,0,0,0,792.362,155.008Z" fill="#ffd804"/>
        </g>
        <g>
          <line x1="789.049" y1="170.539" x2="779.446" y2="172.986" fill="none" stroke="#ef9e69" stroke-linecap="round" stroke-miterlimit="10" stroke-width="6"/>
          <line x1="803.972" y1="166.735" x2="788.08" y2="170.786" fill="none" stroke="#000" stroke-linecap="round" stroke-linejoin="round" stroke-width="9"/>
          <line x1="799.837" y1="167.789" x2="782.771" y2="172.139" fill="none" stroke="#000" stroke-miterlimit="10" stroke-width="9"/>
        </g>
        <polygon points="762.286 233.98 762.681 234.027 763.077 234.074 768.736 189.969 767.945 189.875 767.155 189.781 762.286 233.98" fill="#ffd301"/>
        <path d="M784.248,125.424c2,0,3.625-.655,3.625-1.464h-7.25C780.623,124.769,782.246,125.424,784.248,125.424Z" fill="#ca875a"/>
      </g>
      <g>
        <g class="flower">
          <path d="M140.661,385.813s-1.572-19.312-22.233-38.321" fill="none" stroke="#c2d64c" stroke-miterlimit="10" stroke-width="1.528"/>
          <path d="M122.922,351.936s1.665-10.537-9.412-13.268C113.51,338.668,112.331,350.209,122.922,351.936Z" fill="#c2d64c"/>
          <path d="M127.885,357.51s-7.514-7.574-16.266-.257C111.619,357.253,120.229,365.029,127.885,357.51Z" fill="#c2d64c"/>
          <path d="M127.885,357.51s8.74-6.117,3.016-15.985C130.9,341.525,121.776,348.688,127.885,357.51Z" fill="#c2d64c"/>
          <path d="M133.864,366.958s-6.6-8.383-16.129-2.115C117.735,364.843,125.4,373.553,133.864,366.958Z" fill="#c2d64c"/>
          <path d="M133.864,366.958s9.382-5.077,4.825-15.535C138.689,351.423,128.8,357.5,133.864,366.958Z" fill="#c2d64c"/>
          <path d="M139.121,377.987s-5.3-9.258-15.647-4.45C123.474,373.537,129.781,383.273,139.121,377.987Z" fill="#c2d64c"/>
          <path d="M139.121,377.987s10.023-3.651,7.044-14.663C146.165,363.324,135.5,367.886,139.121,377.987Z" fill="#c2d64c"/>
        </g>
        <g>
          <path d="M182.951,402.619c0,2.722-18.292,4.928-40.856,4.928s-40.857-2.206-40.857-4.928,18.292-4.928,40.857-4.928,40.856,2.206,40.856,4.928" fill="#002f47" opacity="0.5"/>
          <g clip-path="url(#g)">
            <g>
              <g>
                <path d="M137.727,406.139l13.02-43.453C116.55,379.21,137.727,406.139,137.727,406.139Z" fill="#155263"/>
                <path d="M150.747,362.686l-13.02,43.453C170.122,389.219,150.747,362.686,150.747,362.686Z" fill="#1f7a89"/>
              </g>
              <g>
                <path d="M171.134,376.119l-30.011,34.016C179.1,409.439,171.134,376.119,171.134,376.119Z" fill="#1f7a89"/>
                <path d="M141.123,410.135l30.011-34.016C134.632,377.929,141.123,410.135,141.123,410.135Z" fill="#2996a8"/>
              </g>
              <g>
                <path d="M133.451,404.932l-20.865-40.278C99.506,400.311,133.451,404.932,133.451,404.932Z" fill="#1f7a89"/>
                <path d="M112.586,364.654l20.865,40.278C144.961,370.244,112.586,364.654,112.586,364.654Z" fill="#2996a8"/>
              </g>
            </g>
          </g>
        </g>
      </g>
      <g>
        <g>
          <path d="M755.833,525.96s-2.12-32.352,27.432-68.868" fill="none"/>
          <path d="M776.912,465.547s-5.331-17.036,12.335-24.263C789.247,441.284,794.021,460.1,776.912,465.547Z" fill="none"/>
          <path d="M770.061,475.986s10.585-14.374,26.86-4.4C796.921,471.585,784.572,486.561,770.061,475.986Z" fill="none"/>
          <path d="M770.061,475.986s-15.963-7.988-8.9-25.722C761.159,450.264,778.016,459.89,770.061,475.986Z" fill="none"/>
          <path d="M762.474,493.088s8.871-15.49,26.181-7.444C788.655,485.644,778.1,501.934,762.474,493.088Z" fill="none"/>
          <path d="M762.474,493.088s-16.772-6.111-11.785-24.535C750.689,468.553,768.536,476.187,762.474,493.088Z" fill="none"/>
          <path d="M756.469,512.628s6.511-16.62,24.811-11.192C781.28,501.436,773.22,519.1,756.469,512.628Z" fill="none"/>
          <path d="M756.469,512.628s-17.485-3.592-15.245-22.548C741.224,490.08,760,495.023,756.469,512.628Z" fill="none"/>
        </g>
        <g>
          <path d="M817.173,547.766c0,4.554-30.607,8.246-68.363,8.246s-68.362-3.692-68.362-8.246,30.607-8.245,68.362-8.245,68.363,3.691,68.363,8.245" fill="#01141c" opacity="0.5"/>
          <g clip-path="url(#h)">
            <g>
              <g>
                <path d="M746.5,554.076l-9.354-75.323C788.954,515.56,746.5,554.076,746.5,554.076Z" fill="#155263"/>
                <path d="M737.146,478.753l9.354,75.323C697.777,517.121,737.146,478.753,737.146,478.753Z" fill="#1f7a89"/>
              </g>
              <g>
                <path d="M699.763,495.226l40.019,64.5C677.327,547.975,699.763,495.226,699.763,495.226Z" fill="#1f7a89"/>
                <path d="M739.782,559.721l-40.019-64.495C759.48,508.4,739.782,559.721,739.782,559.721Z" fill="#2996a8"/>
              </g>
              <g>
                <path d="M753.891,553.279l45.665-60.628C811.183,555.129,753.891,553.279,753.891,553.279Z" fill="#1f7a89"/>
                <path d="M799.556,492.651l-45.665,60.628C744.584,492.839,799.556,492.651,799.556,492.651Z" fill="#2996a8"/>
              </g>
            </g>
          </g>
        </g>
      </g>
      <g>
        <path d="M476.76,237.945v-2.159a.641.641,0,0,0-.642-.642H475.3a.642.642,0,0,1-.642-.642v-.817a.643.643,0,0,1,.642-.642h2.626a3.267,3.267,0,0,0,3.268-3.267h0a3.268,3.268,0,0,0-3.268-3.268h-3.481a.641.641,0,0,1-.642-.642v-.291a3.385,3.385,0,0,0-3.385-3.384h0a3.384,3.384,0,0,0-3.384,3.384h0a3.656,3.656,0,0,0,3.657,3.656h6.126a.642.642,0,0,1,.642.642h0a.641.641,0,0,1-.642.642h-3.345a2.237,2.237,0,0,0-2.237,2.237v1.4a2.238,2.238,0,0,0,2.237,2.237h0a.641.641,0,0,1,.642.642v.914Z" fill="#fff" opacity="0.3"/>
        <g>
          <path d="M480.354,249.782h.99a4.454,4.454,0,1,0,0-8.908h-.99v1.595h.99a2.859,2.859,0,0,1,0,5.717h-.99Z" fill="#e6e6e6"/>
          <path d="M481.2,237.814v12.557a4.166,4.166,0,0,1-4.166,4.165h-5.275a4.166,4.166,0,0,1-4.166-4.165V237.814Z" fill="#fff"/>
        </g>
      </g>
    </g>
    <use width="68.887" height="188.182" transform="translate(-117.668 -1826.852) scale(0.653)" xlink:href="#ab"/>
  </g>
</svg>
