<svg xmlns="http://www.w3.org/2000/svg" viewBox="0 0 203.97 141.45"><defs><style>.cls-1{isolation:isolate;}.cls-2{mix-blend-mode:multiply;opacity:0.5;}.cls-3{fill:#c6c6c6;}.cls-4{fill:none;stroke:#e84a19;stroke-linecap:round;stroke-miterlimit:10;stroke-width:4.93px;}.cls-5{fill:#c2a805;}.cls-6{fill:#e1c100;}.cls-7{fill:#e0291b;}.cls-8{fill:#fed900;}.cls-9{fill:#f9d210;}.cls-10{fill:#ca241c;}.cls-11{fill:#ecde5b;}.cls-12{fill:#e4f1f4;}.cls-13{fill:#010101;}</style></defs><g class="cls-1"><g id="Ebene_2" data-name="Ebene 2"><g id="Partners"><g id="Hannelore"><g id="Schatten" class="cls-2"><path class="cls-3" d="M203.05,141.41Z"/><path class="cls-3" d="M201.36,138.17h0c.17-.65-1.32-1.36-3.19-2a44.52,44.52,0,0,0-6.21-1l-1-.11a.46.46,0,0,0,.18-.11c.21-.4-.77-.74-3.39-.83a23.49,23.49,0,0,0-3.25.07c-3.55-.53-6.77-1.12-9.29-1.73-4.59-1.12-8.93-2.35-13.14-3.52l2.16-.11c-1.27-.61-4.25-1.08-7.41-1.46a2.9,2.9,0,0,0,.79-.12c.76-.3,2.6-.66,3.14-1,2-1.15-3.39-1.48-9.27-1.86a20.39,20.39,0,0,0-3.15.08l-.15,0h0l-.3,0a17.61,17.61,0,0,0-2.82.06s-.18,0-.15,0-.16,0-.08,0H145l.39,0-.36,0h-.28a16.71,16.71,0,0,0-2.75,0c-.8.18-1.64.36-2.38.55-12.49-.74-32.66-.7-37.51-.61l-2.1,0c-4.14-.65-12.78-.63-19.61-.64-9,0-18.12.29-29.57.68-4,.14-16.91.4-24.47.45l-4.86-.48-6.73,0,8.43.58a.8.8,0,0,0-.23.21l-20.5-.49,5.6.59H22.92c0,.18.11.35.4.54,2.45,0,6,0,9.72.1l-.27.12c5.88.58,18,2.12,21.76,2.69,5.32.81,9,1.38,13,1.92.34.08.7.15,1.07.22,5.27,1.42,11.21,2.13,26.81,3,3.09.17,8.33.1,14.29-.24-.43.08-.93.2-.54.26a10.74,10.74,0,0,1,1.6.37,40.73,40.73,0,0,0,9.65.68c.72,0,1.44-.14,1.42-.27a0,0,0,0,0,0,0h.23c.44,0,1.42-.18,1.15-.3,0,0,0,0,0,0h.16c.63-.06,1.32-.15,1.19-.33a2.1,2.1,0,0,1-.44-1.23c0-.17-.48-.21-1.17-.21l.39-.05c6.14-.73,13.41-3.77,16.67-3.4l.86.1a25,25,0,0,0,5.53,1.31l1.52-.24c5.7,1,10.62,2.31,15.27,3.47a39.31,39.31,0,0,1,5.78,1.88,3.82,3.82,0,0,0-1.59.41c-.55.41,1,.69,3.36.83l.67,0c.13.09.26.17.37.26a7,7,0,0,0,3,1.23,87.31,87.31,0,0,0,10.2,1.29c.21.06.49.15.74.21l.89.17a24,24,0,0,0,5.63.43l.93,0c1.09-.08,1.42-.21,1.51-.35a.29.29,0,0,0,.12-.13c1.77.41,3.75.81,5.93,1.18a8.26,8.26,0,0,0,2.31.11c.84-.08.73-.22.33-.37a44.76,44.76,0,0,0-4.44-1.34l.82,0a13.94,13.94,0,0,0,2.66-.07l.65-.11c1.5-.26.89-.67-.14-1-.2-.07-.41-.14-.64-.2S201.64,138.22,201.36,138.17ZM50.84,126.56c6.08.2,10.63.36,15,.48-.54.15-1.06.32-1.55.5L61,127.35c-2.22-.13-7.29-.48-12.42-.86Zm62.32,7.3.14,0-.14,0-.16-.06Zm8.52.68h0l-1.49-.06Zm-9.73-.36-.12,0,.12,0a56.51,56.51,0,0,0,9.9.67h0A56.19,56.19,0,0,1,112,134.18Zm-1.35-.38h0l.31.06Zm42.82-7.06.13-.06.11-.06-.11.06-.13.06Zm-3.06-1.57c-1-.13-2.09-.25-3.28-.37l-.31,0,.29,0C148.26,124.92,149.38,125,150.36,125.17Zm1.83.28.09,0Zm-.68-.12.19,0Zm-.71-.1.26,0Zm3-.18c-1.63-.18-3.61-.34-5.63-.5h0C150.24,124.72,152.21,124.87,153.82,125.05Zm.21,0,.47.06Zm1.2.16-.41-.06Zm.74.12-.43-.08Zm1.17,1.15a1.78,1.78,0,0,1-.3.13,1.78,1.78,0,0,0,.3-.13c.77-.42.49-.74-.46-1C157.63,125.76,157.91,126.08,157.14,126.5Zm-.51-1-.47-.11Z"/></g><g id="Beine_L" data-name="Beine L"><path class="cls-4" d="M38.12,111.67,21.49,122.09l-6.73-.19"/><path class="cls-4" d="M21.64,122.33l-5.8-5.84"/><path class="cls-4" d="M21.64,122.33q1.37,3.89,2.72,7.77"/></g><g id="Beine_R" data-name="Beine R"><path class="cls-4" d="M27.67,116.12l-19.61.07L2.46,120"/><path class="cls-4" d="M8.06,115.91q-.9,4-1.79,8"/><path class="cls-4" d="M8.06,115.91l-1.86-8"/></g><g id="Fl端gel_L" data-name="Fl端gel L"><path class="cls-5" d="M160.66,120.13a.71.71,0,0,1-.22,0c4.21-5.08,7.18-9.66,2.1-15.24-1.28-1.4-3.81-2-5.22-3.44-.07,0-.15,0,.29-.32s1.86-1.6,2.82-.82c1.61,1.33,4.53,2.12,5.89,3.62,5.12,5.64,2.13,10.07-2.3,15.09A4.73,4.73,0,0,1,160.66,120.13Z"/><path class="cls-6" d="M157,121.38c.46-.62,1.25-1.32,1.63-1.94,3.14-5.08,4.57-9.08.14-13.73-.79-.83-2.18-1.27-3-2.08.51-.75,1-1.49,1.63-2.22,1.41,1.39,4,2,5.22,3.43,5.07,5.6,2.13,10.17-2.13,15.26,0,0,.09,0-.34.27s-2,1.42-2.9,1C157.11,121.39,156.9,121.45,157,121.38Z"/><path class="cls-6" d="M147.47,119.17c-1.06-.92-.47-2.08.07-3.11,0,0-.09.11.25-.27a16.62,16.62,0,0,0,1.5-1.91c2.12-3.26,4.16-6.94,6.4-10.24.86.79,2.24,1.25,3,2.07,4.43,4.63,3,8.65-.12,13.71a14.94,14.94,0,0,1-1.6,1.86c-.48.51.48-.33-.28.25s-1.83,1.61-2.9,1.16A23.54,23.54,0,0,1,147.47,119.17Z"/></g><g id="Korper"><path class="cls-7" d="M152.07,21.32h-3.68A70.89,70.89,0,0,1,148.72,2c.15-1,.53-1.83,1.55-1.83h0c1,0,1.4.81,1.56,1.82A71.77,71.77,0,0,1,152.07,21.32Z"/><path class="cls-8" d="M155.5,112.83c1.06-4.31,3.27-6,3.36-10.6.27-12.91-1.29-26.12-1.28-39.38,0-7.86,2-16,4.68-23.48.92-2.61,2.22-5.95,1.79-8.59-1.36-8.35-4.17-17.11-13.84-17.12s-12.42,8.87-13.8,17.12c-.42,2.48.85,5.87,1.64,8.2,2.3,6.81,4.59,15.94,4.36,22.6-.42,11.74,3,25.84-3.91,35.22-2.41,3.29-14-20.36-16.47-23.91A26.56,26.56,0,0,0,96.31,61.75C72.77,65,72.16,74,62.49,93.16a5.25,5.25,0,0,0,0,5.31c13.55,22.75,12.77,19.74,42.29,25C111.76,124.7,150.83,131.74,155.5,112.83Z"/><path class="cls-6" d="M158.33,52.07c.41-2.16,1-4.38,1.58-6.52-3,1.51-6.14,3-9.58,3-3.8,0-6.72-1.57-10-3.16A54.58,54.58,0,0,1,141.64,51c.14.88.05.51.09.53a27.21,27.21,0,0,0,8.62,2.52l.79,0a24.24,24.24,0,0,0,6.64-1.7C158.52,51.91,158.1,52.22,158.33,52.07Z"/><path class="cls-9" d="M98.58,122.69a12.68,12.68,0,0,1,1.29.2c7.23-6,9.86-9.55,8.53-19.42-.37-2.73-1.3-9-1.43-11.44-.49-9-4-14-8.77-20.93-.46,0-1-.28-1.41-.27-19.42.51-27.23,3.44-34.28,22.33a7.65,7.65,0,0,0,0,5.25C70.41,118.57,79,118.67,98.58,122.69Z"/><path class="cls-7" d="M140.84,39.69c-1,.33-2.07.46-2.69,1.36-1.44,2.06-1.83,4.28.06,6.19s4.1,1.51,6.2.15c.73-.48.91-1.39,1.28-2.12A18.82,18.82,0,0,1,140.84,39.69Z"/><path class="cls-7" d="M162.36,41c-.63-.89-1.74-1-2.69-1.35a18.85,18.85,0,0,1-4.84,5.6c.37.73.55,1.64,1.29,2.12,2.1,1.35,4.32,1.74,6.2-.18S163.8,43.07,162.36,41Z"/><g id="Krawatte"><path class="cls-10" d="M159,94.25c-5.88-.46-11.75-.44-17.61-1.24-.15.51-.29,1-.44,1.52,6,1.19,12,1.22,18,2.12Z"/><path class="cls-7" d="M148.11,93.28c-2.19-3.15-4.69-4.39-8.3-5.44a37.67,37.67,0,0,0-.15,9.19c3,1.34,5.41,1,8.27-.49A32.37,32.37,0,0,0,148.11,93.28Z"/><path class="cls-7" d="M152.1,93.44c2.32-3,5-4.31,8.64-5.16.85,4.65,0,8.66-1.86,13a17.85,17.85,0,0,1-7.11-4.37A24.59,24.59,0,0,0,152.1,93.44Z"/><path class="cls-10" d="M151.84,96.26a1.59,1.59,0,0,1-1.44,1.42,3.08,3.08,0,0,1-1.45-.23A1.27,1.27,0,0,1,148,96c0-.8.05-1.83.11-2.65s.36-1.31,1.19-1.43a4.11,4.11,0,0,1,1.48.07,1.48,1.48,0,0,1,1.26,1.53A10.24,10.24,0,0,1,151.84,96.26Z"/></g></g><g id="Bein_R" data-name="Bein R"><path class="cls-6" d="M87.69,92.89c7.67-4.92,16.4-9.11,12.85-18S84.27,70.78,78.28,74C68.5,80.9,63.5,85.69,53.94,94.69c-3.83,3.61-15.21,13-21,16.52a8.63,8.63,0,0,0,3.45,5.33c5.27-3.59,19.47-10,23.85-11.63C71.12,100.89,80,97.81,87.69,92.89Z"/></g><g id="Bein_L" data-name="Bein L"><path class="cls-6" d="M80,126.15c9.17.07,21.09,1.06,22.14-8.82S88.65,105.82,81.67,105c-12,.76-18.73,2.16-31.6,4.78-5.16,1-19.76,3-26.59,2.93a8.65,8.65,0,0,0,.11,6.35c6.39-.26,21.82,1.73,26.42,2.69C61.48,124.11,70.8,126.07,80,126.15Z"/></g><g id="Fl端gel_R" data-name="Fl端gel R"><path class="cls-5" d="M121,57.68s0,.16,0,.21c-3.76.45-6.92,1-9.46,4-.64.77-.71,1.92-1.57,2.55,0,.13,0,0-.23-.2s-1.33-1.56-.86-2a16.74,16.74,0,0,0,1.55-2.32c2.45-3.24,5.12-4.16,9.23-3.95A1.76,1.76,0,0,1,121,57.68Z"/><path class="cls-6" d="M122.25,60.27c-.43,0-1-.32-1.41-.24-3.17.66-6.17,1.24-8.15,4-.35.49-.38,1.5-.92,2A19.6,19.6,0,0,1,110,64.49c.84-.65.92-1.81,1.56-2.57,2.56-3,5.7-3.6,9.49-4,0,0-.08-.08.28.11s1.27,1.31,1,2C122.24,60.09,122.29,60.28,122.25,60.27Z"/><path class="cls-6" d="M122.91,71.09c0,1.49-.49,1.37-1.61,1.45,0,0,.1,0-.22-.12s-.85-.39-1.47-.73A48.56,48.56,0,0,1,111.79,66c.51-.47.55-1.47.9-2,2-2.78,5-3.38,8.14-4a2.86,2.86,0,0,1,1.36.27c.37.15-.41-.42.24.15s1.25,1,1.08,2.2A66.5,66.5,0,0,0,122.91,71.09Z"/></g><g id="Auge_R" data-name="Auge R"><path class="cls-11" d="M140.54,16.81c0-2.88.82-6.74,4.28-6.74s4.29,3.85,4.29,6.73-.81,6.73-4.27,6.74S140.55,19.68,140.54,16.81Z"/><path class="cls-12" d="M144.88,21.18c2.51-.22,3.88-2,4.27-4.32.23-1.39-.35-2.5-.53-3.83-.79-.08-1.36-.56-2.18-.36-3.28.79-4.81,2.63-5.91,5.78C141.44,20.3,142.72,21.37,144.88,21.18Z"/><path id="Pupil" class="cls-13" d="M142.87,16.81a2,2,0,1,1,2,2A1.88,1.88,0,0,1,142.87,16.81Z"/><path id="Augenlid_R" data-name="Augenlid R" class="cls-8" d="M148.6,13c-1-1.38-1.63-3.58-3.84-3.11-3.36.71-4,3.85-4.33,7a10.43,10.43,0,0,0,.1,1.57C142.2,14.47,144.18,12.62,148.6,13Z"/></g><g id="Auge_L" data-name="Auge L"><path class="cls-11" d="M160,16.78c0-2.88-.84-6.73-4.3-6.73s-4.27,3.87-4.27,6.74.83,6.74,4.29,6.73S160,19.66,160,16.78Z"/><path class="cls-12" d="M155.65,21.17c-2.51-.21-3.88-2-4.28-4.31-.23-1.39.34-2.51.52-3.83.79-.09,1.36-.57,2.18-.37,3.28.78,4.82,2.62,5.93,5.76C159.09,20.27,157.81,21.35,155.65,21.17Z"/><path id="Pupil-2" data-name="Pupil" class="cls-13" d="M157.65,16.78a2,2,0,1,0-3.91,0,2,2,0,0,0,3.91,0Z"/><path id="Augenlid_L" data-name="Augenlid L" class="cls-8" d="M151.91,13c1-1.39,1.62-3.59,3.83-3.13,3.36.71,4,3.84,4.35,6.94a10.62,10.62,0,0,1-.09,1.58C158.24,14.52,156.29,12.73,151.91,13Z"/></g><g id="Mund"><path class="cls-10" d="M159.78,31.34a16.18,16.18,0,0,1-19.06,0s0,0,0,0c.51-1,.72-1.69,2.33-.89a17.06,17.06,0,0,0,14.4,0c1.61-.8,1.82-.09,2.33.88C159.79,31.36,159.75,31.37,159.78,31.34Z"/><path class="cls-7" d="M157.46,35.88a15.55,15.55,0,0,1-14.41,0c-1.61-.88-1.81-2-2.33-3.7,0,0,0,0,0,0a16.26,16.26,0,0,0,19.06,0s0,0,0,0C159.27,33.83,159.07,35,157.46,35.88Z"/></g></g></g></g></g></svg>