<?xml version="1.0" encoding="UTF-8" standalone="no"?>
<svg width="124px" height="124px" viewBox="0 0 124 124" version="1.1" xmlns="http://www.w3.org/2000/svg" xmlns:xlink="http://www.w3.org/1999/xlink">
    <!-- Generator: Sketch 46.2 (44496) - http://www.bohemiancoding.com/sketch -->
    <title>Group 21</title>
    <desc>Created with Sketch.</desc>
    <defs></defs>
    <g id="Pages" stroke="none" stroke-width="1" fill="none" fill-rule="evenodd">
        <g id="Startseite-V1" transform="translate(-579.000000, -1853.000000)">
            <g id="Group-4" transform="translate(169.000000, 1658.000000)">
                <g id="Collaboration" transform="translate(330.000000, 150.000000)">
                    <g id="Group-Copy">
                        <g id="Group-21" transform="translate(80.000000, 45.000000)">
                            <path d="M62,0 C96.2416142,0 124,27.7583858 124,62 C124,96.2416142 96.2416142,124 62,124 C27.7583858,124 0,96.2416142 0,62 C0,27.7583858 27.7583858,0 62,0 Z" id="Fill-26-Copy" fill="#B2E6EC"></path>
                            <g id="Page-1" transform="translate(14.000000, 25.000000)">
                                <path d="M46.6298667,0.89982 C66.2654222,0.89982 82.1854222,17.01702 82.1854222,36.89982 C82.1854222,56.78262 66.2654222,72.89982 46.6298667,72.89982 C26.9925333,72.89982 11.0743111,56.78262 11.0743111,36.89982 C11.0743111,17.01702 26.9925333,0.89982 46.6298667,0.89982 Z" id="Stroke-1" stroke="#000000" stroke-width="2" stroke-linecap="round" stroke-linejoin="round"></path>
                                <path d="M15.1107556,12.77568 C20.0209778,12.77568 23.9996444,16.80408 23.9996444,21.77568 C23.9996444,26.74728 20.0209778,30.77568 15.1107556,30.77568 C10.2023111,30.77568 6.22186667,26.74728 6.22186667,21.77568 C6.22186667,16.80408 10.2023111,12.77568 15.1107556,12.77568" id="Fill-3" fill="#B2E6EC"></path>
                                <path d="M15.1107556,12.77568 C20.0209778,12.77568 23.9996444,16.80408 23.9996444,21.77568 C23.9996444,26.74728 20.0209778,30.77568 15.1107556,30.77568 C10.2023111,30.77568 6.22186667,26.74728 6.22186667,21.77568 C6.22186667,16.80408 10.2023111,12.77568 15.1107556,12.77568 Z" id="Stroke-5" stroke="#000000" stroke-width="2" stroke-linecap="round" stroke-linejoin="round"></path>
                                <path d="M29.3329778,45.17568 L0.888533333,45.17568 C0.888533333,37.22328 7.25297778,30.77568 15.1107556,30.77568 C22.9685333,30.77568 29.3329778,37.22328 29.3329778,45.17568" id="Fill-7" fill="#B2E6EC"></path>
                                <path d="M29.3329778,45.17568 L0.888533333,45.17568 C0.888533333,37.22328 7.25297778,30.77568 15.1107556,30.77568 C22.9685333,30.77568 29.3329778,37.22328 29.3329778,45.17568 Z" id="Stroke-9" stroke="#000000" stroke-width="2" stroke-linecap="round" stroke-linejoin="round"></path>
                                <path d="M80.9953778,12.77568 C85.9038222,12.77568 89.8842667,16.80408 89.8842667,21.77568 C89.8842667,26.74728 85.9038222,30.77568 80.9953778,30.77568 C76.0869333,30.77568 72.1064889,26.74728 72.1064889,21.77568 C72.1064889,16.80408 76.0869333,12.77568 80.9953778,12.77568" id="Fill-11" fill="#B2E6EC"></path>
                                <path d="M80.9953778,12.77568 C85.9038222,12.77568 89.8842667,16.80408 89.8842667,21.77568 C89.8842667,26.74728 85.9038222,30.77568 80.9953778,30.77568 C76.0869333,30.77568 72.1064889,26.74728 72.1064889,21.77568 C72.1064889,16.80408 76.0869333,12.77568 80.9953778,12.77568 Z" id="Stroke-13" stroke="#000000" stroke-width="2" stroke-linecap="round" stroke-linejoin="round"></path>
                                <path d="M95.2176,45.17568 L66.7731556,45.17568 C66.7731556,37.22328 73.1376,30.77568 80.9953778,30.77568 C88.8531556,30.77568 95.2176,37.22328 95.2176,45.17568" id="Fill-15" fill="#B2E6EC"></path>
                                <path d="M95.2176,45.17568 L66.7731556,45.17568 C66.7731556,37.22328 73.1376,30.77568 80.9953778,30.77568 C88.8531556,30.77568 95.2176,37.22328 95.2176,45.17568 Z" id="Stroke-17" stroke="#000000" stroke-width="2" stroke-linecap="round" stroke-linejoin="round"></path>
                                <path d="M46.6298667,48.38022 C51.5383111,48.38022 55.5187556,52.40862 55.5187556,57.38022 C55.5187556,62.35002 51.5383111,66.38022 46.6298667,66.38022 C41.7196444,66.38022 37.7409778,62.35002 37.7409778,57.38022 C37.7409778,52.40862 41.7196444,48.38022 46.6298667,48.38022" id="Fill-19" fill="#B2E6EC"></path>
                                <path d="M46.6298667,48.38022 C51.5383111,48.38022 55.5187556,52.40862 55.5187556,57.38022 C55.5187556,62.35002 51.5383111,66.38022 46.6298667,66.38022 C41.7196444,66.38022 37.7409778,62.35002 37.7409778,57.38022 C37.7409778,52.40862 41.7196444,48.38022 46.6298667,48.38022 Z" id="Stroke-21" stroke="#000000" stroke-width="2" stroke-linecap="round" stroke-linejoin="round"></path>
                                <path d="M60.8520889,80.78022 L32.4076444,80.78022 C32.4076444,72.82782 38.7720889,66.38022 46.6298667,66.38022 C54.4876444,66.38022 60.8520889,72.82782 60.8520889,80.78022" id="Fill-23" fill="#B2E6EC"></path>
                                <path d="M60.8520889,80.78022 L32.4076444,80.78022 C32.4076444,72.82782 38.7720889,66.38022 46.6298667,66.38022 C54.4876444,66.38022 60.8520889,72.82782 60.8520889,80.78022 Z" id="Stroke-25" stroke="#000000" stroke-width="2" stroke-linecap="round" stroke-linejoin="round"></path>
                            </g>
                        </g>
                    </g>
                </g>
            </g>
        </g>
    </g>
</svg>