<?xml version="1.0" encoding="UTF-8" standalone="no"?>
<svg width="124px" height="124px" viewBox="0 0 124 124" version="1.1" xmlns="http://www.w3.org/2000/svg" xmlns:xlink="http://www.w3.org/1999/xlink">
    <!-- Generator: Sketch 46.2 (44496) - http://www.bohemiancoding.com/sketch -->
    <title>Group 20</title>
    <desc>Created with Sketch.</desc>
    <defs></defs>
    <g id="Pages" stroke="none" stroke-width="1" fill="none" fill-rule="evenodd">
        <g id="Startseite-V1" transform="translate(-247.000000, -1853.000000)">
            <g id="Group-4" transform="translate(169.000000, 1658.000000)">
                <g id="Time-to-Market" transform="translate(0.000000, 150.000000)">
                    <g id="Group-20" transform="translate(78.000000, 45.000000)">
                        <path d="M62,0 C96.2416142,0 124,27.7583858 124,62 C124,96.2416142 96.2416142,124 62,124 C27.7583858,124 0,96.2416142 0,62 C0,27.7583858 27.7583858,0 62,0 Z" id="Fill-26" fill="#B2E6EC"></path>
                        <path d="M48.4983604,82.8326734 C50.6680211,84.9998428 49.7632812,88.0690464 47.4135301,90.4206253 C44.4234575,93.4097751 30.0819718,96.9650194 30.0819718,96.9650194 C30.0819718,96.9650194 33.5937348,82.5782168 36.5838074,79.5847784 C38.9635735,77.2060383 42.0036712,76.3325947 44.1690441,78.4997641 L48.4983604,82.8326734 Z M60.4129134,55.7516332 C58.2503992,55.7516332 49.490287,55.6587137 46.2429424,56.7408689 C44.1847662,57.4299029 41.3176125,59.6828442 39.831152,61.1652681 L29,72.001115 L46.2829625,69.8882678 L60.4129134,55.7516332 Z M71.246924,66.5860506 C71.246924,68.7517905 71.246924,77.4147499 70.1620936,80.665504 C69.4746056,82.7254585 67.3120914,85.6817292 65.8270601,87.1684417 L54.9959081,98 L57.0026299,80.8256115 L71.246924,66.5860506 Z M48.531234,67.6825011 L59.3309417,78.4997641 L48.531234,67.6825011 Z M44.2090641,72.0425714 C44.2090641,72.0425714 77.7416131,38.4142782 79.9112738,36.2471088 C83.1586184,32.9963547 96.1608604,30.8291853 96.1608604,30.8291853 C96.1608604,30.8291853 93.9940582,43.827913 90.7409965,47.0786671 C86.4088216,51.4144354 54.9959081,82.8326734 54.9959081,82.8326734 L44.2090641,72.0425714 Z" id="Page-1" stroke="#151B1C" stroke-width="2"></path>
                    </g>
                </g>
            </g>
        </g>
    </g>
</svg>