<?xml version="1.0" encoding="UTF-8" standalone="no"?>
<svg width="433px" height="204px" viewBox="0 0 433 204" version="1.1" xmlns="http://www.w3.org/2000/svg" xmlns:xlink="http://www.w3.org/1999/xlink">
    <!-- Generator: Sketch 39.1 (31720) - http://www.bohemiancoding.com/sketch -->
    <title>logo appuio</title>
    <desc>Created with Sketch.</desc>
    <defs>
        <path d="M399.447149,1.25286792 L11.4413277,1.25286792 C5.12282553,1.25286792 0,6.38015094 0,12.7041509 L2.51582979,141.200321 C2.51582979,147.524321 7.63865532,152.651604 13.9571574,152.651604 L304.827404,152.651604 L304.827404,184.245283 L328.767234,152.651604 L399.445396,152.651604 C405.763898,152.651604 410.886723,147.524321 410.886723,141.200321 L410.886723,12.7041509 C410.888477,6.38015094 405.765651,1.25286792 399.447149,1.25286792" id="path-1"></path>
        <filter x="-50%" y="-50%" width="200%" height="200%" filterUnits="objectBoundingBox" id="filter-2">
            <feOffset dx="0" dy="4" in="SourceAlpha" result="shadowOffsetOuter1"></feOffset>
            <feGaussianBlur stdDeviation="5.5" in="shadowOffsetOuter1" result="shadowBlurOuter1"></feGaussianBlur>
            <feColorMatrix values="0 0 0 0 0   0 0 0 0 0.184313725   0 0 0 0 0.278431373  0 0 0 0.6 0" type="matrix" in="shadowBlurOuter1"></feColorMatrix>
        </filter>
    </defs>
    <g id="Page-1" stroke="none" stroke-width="1" fill="none" fill-rule="evenodd">
        <g id="Startseite" transform="translate(-431.000000, -394.000000)">
            <g id="logo-appuio" transform="translate(442.000000, 400.000000)">
                <g id="Group-3" transform="translate(0.000000, 0.501849)">
                    <g id="Fill-1">
                        <use fill="black" fill-opacity="1" filter="url(#filter-2)" xlink:href="#path-1"></use>
                        <use fill="#FFD301" fill-rule="evenodd" xlink:href="#path-1"></use>
                    </g>
                </g>
                <path d="M48.2110128,74.2069811 L60.1572596,44.9347925 L72.1035064,74.2069811 L48.2110128,74.2069811 Z M54.6978213,27.3104151 L24.728766,99.150283 L38.3230128,99.150283 L44.1926979,84.8230189 L76.1183149,84.8230189 L81.988,99.150283 L95.5804936,99.150283 L65.6131915,27.3104151 L54.6978213,27.3104151 Z" id="Fill-4" fill="#002F47"></path>
                <path d="M129.676562,62.3538679 L115.773753,62.3538679 L115.773753,38.9582264 L129.676562,38.9582264 C134.825685,38.9582264 140.900494,42.5659245 140.900494,50.7078113 C140.900494,58.6443962 134.825685,62.3538679 129.676562,62.3538679 M130.293685,27.3104151 L102.901821,27.3104151 L102.901821,99.150283 L115.773753,99.150283 L115.773753,74.0016792 L130.293685,74.0016792 C142.239932,74.0016792 153.67074,64.4156604 153.67074,50.7078113 C153.672494,36.1752453 141.724494,27.3104151 130.293685,27.3104151" id="Fill-6" fill="#002F47"></path>
                <path d="M174.688,38.9582264 L188.590809,38.9582264 C193.739932,38.9582264 199.81474,42.5659245 199.81474,50.7078113 C199.81474,58.6443962 193.739932,62.3556226 188.590809,62.3556226 L174.688,62.3556226 L174.688,38.9582264 Z M174.688,74.0016792 L189.207932,74.0016792 C201.154179,74.0016792 212.584987,64.4156604 212.584987,50.7078113 C212.584987,36.1752453 200.63874,27.3104151 189.207932,27.3104151 L161.814315,27.3104151 L161.814315,99.150283 L174.686247,99.150283 L174.686247,74.0016792 L174.688,74.0016792 Z" id="Fill-8" fill="#002F47"></path>
                <path d="M278.315643,27.3104151 L265.443711,27.3104151 L265.443711,70.2904528 C265.443711,83.0700566 258.955149,88.6360189 249.275779,88.6360189 C239.491217,88.6360189 233.004409,83.0700566 233.004409,70.2904528 L233.004409,27.3104151 L220.132477,27.3104151 L220.132477,71.6310566 C220.132477,90.8013396 233.004409,100.28383 249.275779,100.28383 C265.443711,100.28383 278.315643,90.8013396 278.315643,71.6310566 L278.315643,27.3104151 Z" id="Fill-10" fill="#002F47"></path>
                <polygon id="Fill-12" fill="#002F47" points="289.742945 99.150283 302.099438 99.150283 302.099438 47.2036415 289.742945 47.2036415"></polygon>
                <path d="M295.921191,26.4856981 C291.90463,26.4856981 288.506945,29.6810377 288.506945,33.8028679 C288.506945,37.9264528 291.90463,41.1200377 295.921191,41.1200377 C299.834315,41.1200377 303.233753,37.9246981 303.233753,33.8028679 C303.233753,29.6810377 299.834315,26.4856981 295.921191,26.4856981" id="Fill-14" fill="#002F47"></path>
                <path d="M348.67823,37.7211509 C362.993038,37.7211509 373.908409,49.0583774 373.908409,63.3856415 C373.908409,77.8146792 362.991285,88.9483585 348.67823,88.9483585 C334.365174,88.9483585 323.448051,77.9199623 323.448051,63.3856415 C323.448051,48.9548491 334.363421,37.7211509 348.67823,37.7211509 M348.67823,100.594415 C369.790162,100.594415 386.678655,84.5159434 386.678655,63.3856415 C386.678655,42.2570943 369.790162,26.0750943 348.67823,26.0750943 C327.669736,26.0750943 310.781243,42.2570943 310.781243,63.3856415 C310.781243,84.5141887 327.669736,100.594415 348.67823,100.594415" id="Fill-15" fill="#002F47"></path>
                <path d="M25.8683404,123.560151 C26.6537702,125.109566 28.1036596,126.165906 30.1654128,126.165906 C32.548,126.165906 33.0634383,124.763887 33.0634383,123.928642 C33.0634383,122.380981 31.6626383,121.789642 29.5763404,121.003528 C26.825583,119.971755 24.6638979,118.841717 24.6638979,115.81834 C24.6638979,112.991491 27.0710298,111.196415 29.9690553,111.196415 C32.5725447,111.196415 34.241583,112.401906 35.2496681,113.974132 L33.0634383,115.47266 C32.4480681,114.514585 31.4925787,113.949566 30.0181447,113.949566 C28.666434,113.949566 27.6846468,114.711113 27.6846468,115.767453 C27.6846468,117.339679 29.0591489,117.61166 31.5644596,118.643434 C34.6833872,119.898057 36.1315234,121.226377 36.1315234,123.854943 C36.1315234,126.755491 34.1661957,128.919057 30.1408681,128.919057 C26.8746723,128.919057 24.6148085,127.369642 23.5593872,125.009547 L25.8683404,123.560151 Z" id="Fill-16" fill="#002F47"></path>
                <polygon id="Fill-17" fill="#002F47" points="37.3114213 111.491208 40.3076255 111.491208 43.7701787 122.995132 47.306366 111.491208 49.613566 111.491208 53.1497532 122.995132 56.6368511 111.491208 59.6085106 111.491208 54.4997106 128.624264 52.068034 128.624264 48.4582128 117.12034 44.8238468 128.624264 42.4167149 128.624264"></polygon>
                <polygon id="Fill-18" fill="#002F47" points="62.1225872 128.624264 65.1924255 128.624264 65.1924255 111.491208 62.1225872 111.491208"></polygon>
                <path d="M70.2363574,123.560151 C71.0217872,125.109566 72.4716766,126.165906 74.5334298,126.165906 C76.916017,126.165906 77.4314553,124.763887 77.4314553,123.928642 C77.4314553,122.380981 76.0306553,121.789642 73.9443574,121.003528 C71.1936,119.971755 69.0319149,118.841717 69.0319149,115.81834 C69.0319149,112.991491 71.4390468,111.196415 74.3370723,111.196415 C76.9405617,111.196415 78.6096,112.401906 79.6176851,113.974132 L77.4314553,115.47266 C76.8160851,114.514585 75.8605957,113.949566 74.3861617,113.949566 C73.0344511,113.949566 72.0526638,114.711113 72.0526638,115.767453 C72.0526638,117.339679 73.427166,117.61166 75.9324766,118.643434 C79.0514043,119.898057 80.4995404,121.226377 80.4995404,123.854943 C80.4995404,126.755491 78.5342128,128.919057 74.5088851,128.919057 C71.2426894,128.919057 68.9828255,127.369642 67.9274043,125.009547 L70.2363574,123.560151 Z" id="Fill-19" fill="#002F47"></path>
                <path d="M84.715966,123.560151 C85.5013957,125.109566 86.9512851,126.165906 89.0130383,126.165906 C91.3956255,126.165906 91.9110638,124.763887 91.9110638,123.928642 C91.9110638,122.380981 90.512017,121.789642 88.423966,121.003528 C85.6732085,119.971755 83.5115234,118.841717 83.5115234,115.81834 C83.5115234,112.991491 85.9186553,111.196415 88.8166809,111.196415 C91.4201702,111.196415 93.0909617,112.401906 94.0972936,113.974132 L91.9110638,115.47266 C91.2974468,114.514585 90.3402043,113.949566 88.8657702,113.949566 C87.5140596,113.949566 86.5322723,114.711113 86.5322723,115.767453 C86.5322723,117.339679 87.9067745,117.61166 90.4120851,118.643434 C93.5310128,119.898057 94.9791489,121.226377 94.9791489,123.854943 C94.9791489,126.755491 93.0138213,128.919057 88.9884936,128.919057 C85.7222979,128.919057 83.462434,127.369642 82.4070128,125.009547 L84.715966,123.560151 Z" id="Fill-20" fill="#002F47"></path>
                <path d="M116.529379,111.196415 C119.255591,111.196415 121.638179,112.37734 123.307217,114.268925 L121.219166,116.062245 C120.065566,114.760245 118.419319,113.974132 116.529379,113.974132 C113.09137,113.974132 110.487881,116.579887 110.487881,120.070019 C110.487881,123.560151 113.09137,126.14134 116.529379,126.14134 C118.421072,126.14134 120.114655,125.355226 121.270009,124.00234 L123.331762,125.79566 C121.687268,127.738132 119.255591,128.917302 116.529379,128.917302 C111.494213,128.917302 107.442587,125.181509 107.442587,120.068264 C107.442587,114.956774 111.495966,111.196415 116.529379,111.196415" id="Fill-21" fill="#002F47"></path>
                <path d="M133.770264,126.190472 C137.183728,126.190472 139.787217,123.535585 139.787217,120.094585 C139.787217,116.678151 137.183728,113.974132 133.770264,113.974132 C130.3568,113.974132 127.753311,116.653585 127.753311,120.094585 C127.753311,123.560151 130.355047,126.190472 133.770264,126.190472 M133.770264,111.196415 C138.803677,111.196415 142.830757,115.055038 142.830757,120.094585 C142.830757,125.132377 138.803677,128.968189 133.770264,128.968189 C128.759643,128.968189 124.732562,125.132377 124.732562,120.094585 C124.730809,115.055038 128.759643,111.196415 133.770264,111.196415" id="Fill-22" fill="#002F47"></path>
                <polygon id="Fill-23" fill="#002F47" points="146.011047 111.491208 148.712715 111.491208 157.773209 123.388189 157.773209 111.491208 160.744868 111.491208 160.744868 128.624264 158.239557 128.624264 148.980953 116.507943 148.980953 128.624264 146.009294 128.624264 146.009294 111.491208"></polygon>
                <polygon id="Fill-24" fill="#002F47" points="167.827762 114.268925 163.187064 114.268925 163.187064 111.491208 175.540051 111.491208 175.540051 114.268925 170.899353 114.268925 170.899353 128.624264 167.829515 128.624264 167.829515 114.268925"></polygon>
                <path d="M186.266077,122.675774 L183.41714,115.693755 L180.568204,122.675774 L186.266077,122.675774 Z M182.116272,111.491208 L184.719762,111.491208 L191.86577,128.624264 L188.624119,128.624264 L187.225072,125.20783 L179.612715,125.20783 L178.213668,128.624264 L174.972017,128.624264 L182.116272,111.491208 Z" id="Fill-25" fill="#002F47"></path>
                <polygon id="Fill-26" fill="#002F47" points="194.404391 128.624264 197.47423 128.624264 197.47423 111.491208 194.404391 111.491208"></polygon>
                <polygon id="Fill-27" fill="#002F47" points="201.673123 111.491208 204.374791 111.491208 213.437038 123.388189 213.437038 111.491208 216.408698 111.491208 216.408698 128.624264 213.901634 128.624264 204.64303 116.507943 204.64303 128.624264 201.67137 128.624264 201.67137 111.491208"></polygon>
                <polygon id="Fill-28" fill="#002F47" points="220.581294 111.491208 231.486145 111.491208 231.486145 114.268925 223.651132 114.268925 223.651132 118.348642 230.993498 118.348642 230.993498 121.126358 223.651132 121.126358 223.651132 125.844792 231.657957 125.844792 231.657957 128.622509 220.581294 128.622509"></polygon>
                <path d="M241.505634,119.773472 C243.176426,119.773472 244.330026,118.618868 244.330026,116.971189 C244.330026,115.398962 243.223762,114.26717 241.751081,114.26717 L238.237685,114.26717 L238.237685,119.773472 L241.505634,119.773472 Z M235.1696,111.491208 L241.826468,111.491208 C244.870009,111.491208 247.375319,113.826736 247.375319,116.923811 C247.375319,119.185642 246.097243,121.029849 244.258145,121.789642 L248.407949,128.624264 L244.943643,128.624264 L241.284732,122.528377 L241.235643,122.528377 L238.239438,122.528377 L238.239438,128.624264 L235.1696,128.624264 L235.1696,111.491208 L235.1696,111.491208 Z" id="Fill-29" fill="#002F47"></path>
                <path d="M267.792987,119.84717 C269.020221,119.84717 270.468357,118.962792 270.468357,117.069453 C270.468357,115.128736 269.020221,114.26717 267.792987,114.26717 L264.475949,114.26717 L264.475949,119.84717 L267.792987,119.84717 Z M261.407864,111.491208 L267.942009,111.491208 C270.668221,111.491208 273.517157,113.605642 273.517157,117.071208 C273.517157,120.340245 270.790945,122.626642 267.942009,122.626642 L264.477702,122.626642 L264.477702,128.624264 L261.407864,128.624264 L261.407864,111.491208 Z" id="Fill-30" fill="#002F47"></path>
                <polygon id="Fill-31" fill="#002F47" points="276.213566 111.491208 279.283404 111.491208 279.283404 125.846547 286.08754 125.846547 286.08754 128.624264 276.213566 128.624264"></polygon>
                <path d="M299.301345,122.675774 L296.452409,115.693755 L293.603472,122.675774 L299.301345,122.675774 Z M295.15154,111.491208 L297.753277,111.491208 L304.899285,128.624264 L301.657634,128.624264 L300.256834,125.20783 L292.644477,125.20783 L291.243677,128.624264 L288.002026,128.624264 L295.15154,111.491208 Z" id="Fill-32" fill="#002F47"></path>
                <polygon id="Fill-33" fill="#002F47" points="308.99474 114.268925 304.354043 114.268925 304.354043 111.491208 316.70703 111.491208 316.70703 114.268925 312.066332 114.268925 312.066332 128.624264 308.996494 128.624264 308.996494 114.268925"></polygon>
                <polygon id="Fill-34" fill="#002F47" points="319.136953 111.491208 329.501821 111.491208 329.501821 114.268925 322.206791 114.268925 322.206791 118.569736 328.86366 118.569736 328.86366 121.347453 322.206791 121.347453 322.206791 128.622509 319.136953 128.622509"></polygon>
                <path d="M340.478553,126.190472 C343.892017,126.190472 346.495506,123.535585 346.495506,120.094585 C346.495506,116.678151 343.89377,113.974132 340.478553,113.974132 C337.063336,113.974132 334.4616,116.653585 334.4616,120.094585 C334.4616,123.560151 337.063336,126.190472 340.478553,126.190472 M340.478553,111.196415 C345.513719,111.196415 349.5408,115.055038 349.5408,120.094585 C349.5408,125.132377 345.513719,128.968189 340.478553,128.968189 C335.469685,128.968189 331.442604,125.132377 331.442604,120.094585 C331.440851,115.055038 335.467932,111.196415 340.478553,111.196415" id="Fill-35" fill="#002F47"></path>
                <path d="M359.05537,119.773472 C360.726162,119.773472 361.879762,118.618868 361.879762,116.971189 C361.879762,115.398962 360.773498,114.26717 359.300817,114.26717 L355.787421,114.26717 L355.787421,119.773472 L359.05537,119.773472 Z M352.719336,111.491208 L359.376204,111.491208 C362.419745,111.491208 364.925055,113.826736 364.925055,116.923811 C364.925055,119.185642 363.646979,121.029849 361.807881,121.789642 L365.957685,128.624264 L362.493379,128.624264 L358.834468,122.528377 L358.785379,122.528377 L355.789174,122.528377 L355.789174,128.624264 L352.719336,128.624264 L352.719336,111.491208 L352.719336,111.491208 Z" id="Fill-36" fill="#002F47"></path>
                <polygon id="Fill-37" fill="#002F47" points="368.601498 111.491208 371.229532 111.491208 377.369209 121.103547 383.48434 111.491208 386.086077 111.491208 386.086077 128.624264 383.189804 128.624264 383.189804 117.02383 377.369209 126.067642 371.499523 117.046642 371.499523 128.624264 368.601498 128.624264"></polygon>
            </g>
        </g>
    </g>
</svg>