<svg width="448" height="192" viewBox="0 0 448 192" xmlns="http://www.w3.org/2000/svg"><title>appuio_logo</title><defs><filter x="-50%" y="-50%" width="200%" height="200%" filterUnits="objectBoundingBox" id="a"><feOffset dy="2" in="SourceAlpha" result="shadowOffsetOuter1"/><feGaussianBlur stdDeviation="3" in="shadowOffsetOuter1" result="shadowBlurOuter1"/><feColorMatrix values="0 0 0 0 0 0 0 0 0 0.184313725 0 0 0 0 0.278431373 0 0 0 0.42 0" in="shadowBlurOuter1" result="shadowMatrixOuter1"/><feMerge><feMergeNode in="shadowMatrixOuter1"/><feMergeNode in="SourceGraphic"/></feMerge></filter></defs><g fill="none" fill-rule="evenodd"><path d="M231.79 149.177h192.672c6.372 0 11.538-5.164 11.538-11.534V11.535C436 5.165 430.834 0 424.462 0H11.538C5.165 0 0 5.165 0 11.535v126.108c0 6.37 5.165 11.534 11.538 11.534h194.247L218.788 181l13.002-31.823z" fill="#FFD301" filter="url(#a)" transform="translate(6 4)"/><path d="M109.703 20.268h30.692c12.807 0 26.195 9.92 26.195 26.184 0 15.342-12.81 26.07-26.195 26.07h-16.27v28.145h-14.422v-80.4zm30 39.22c5.77 0 12.578-4.153 12.578-13.036 0-9.11-6.807-13.15-12.576-13.15h-15.578v26.185h15.578zm36.01-39.22h30.692c12.807 0 26.195 9.92 26.195 26.184 0 15.342-12.81 26.07-26.195 26.07h-16.27v28.145h-14.422v-80.4zm30 39.22c5.77 0 12.578-4.153 12.578-13.036 0-9.11-6.807-13.15-12.576-13.15h-15.578v26.185h15.578zm35.34-39.22h14.424v48.1c0 14.304 7.27 20.533 18.232 20.533 10.845 0 18.114-6.228 18.114-20.53V20.267h14.423v49.6c0 21.455-14.423 32.067-32.538 32.067-18.233 0-32.656-10.612-32.656-32.066V20.267zm78 22.263h13.845v58.137h-13.846V42.53zm-1.386-14.994c0-4.615 3.808-8.19 8.308-8.19 4.384 0 8.193 3.575 8.193 8.19 0 4.614-3.81 8.19-8.193 8.19-4.5 0-8.308-3.576-8.308-8.19zm67.42-8.65c23.653 0 42.577 18.108 42.577 41.754 0 23.648-18.924 41.642-42.578 41.642-23.538 0-42.46-17.994-42.46-41.642 0-23.646 18.922-41.755 42.46-41.755zM33.238 120.36a3.572 3.572 0 0 0-1.618-1.427 5.16 5.16 0 0 0-2.104-.447c-.54 0-1.067.068-1.588.202-.52.135-.983.336-1.397.605a3.01 3.01 0 0 0-.996 1.067c-.25.443-.376.962-.376 1.557 0 .46.073.87.217 1.225.145.356.38.678.707.967.327.287.77.557 1.327.806.56.25 1.24.5 2.05.75.788.25 1.552.52 2.294.808a7.766 7.766 0 0 1 1.96 1.095 4.88 4.88 0 0 1 1.357 1.66c.336.663.504 1.495.504 2.494 0 1.02-.202 1.903-.605 2.653a5.548 5.548 0 0 1-1.6 1.86 6.942 6.942 0 0 1-2.294 1.097c-.867.24-1.76.36-2.683.36a10.3 10.3 0 0 1-1.79-.16 8.52 8.52 0 0 1-1.716-.49 6.943 6.943 0 0 1-1.542-.865 5.253 5.253 0 0 1-1.242-1.312l2.08-1.702a4.26 4.26 0 0 0 1.845 1.702 5.658 5.658 0 0 0 4.08.345 4.788 4.788 0 0 0 1.428-.678c.424-.297.77-.667 1.038-1.108.27-.443.404-.953.404-1.53 0-.633-.105-1.15-.316-1.543-.212-.394-.538-.735-.98-1.024-.443-.287-1-.547-1.673-.778l-2.368-.808a14.89 14.89 0 0 1-2.018-.793 6.265 6.265 0 0 1-1.602-1.093 4.708 4.708 0 0 1-1.068-1.56c-.26-.603-.388-1.33-.388-2.176 0-.98.19-1.834.577-2.565.384-.73.903-1.34 1.558-1.83a7.066 7.066 0 0 1 2.22-1.112 8.953 8.953 0 0 1 2.598-.373c1.154 0 2.205.177 3.157.532.954.356 1.803.978 2.553 1.86l-1.99 1.73zm351.846-31.115c16.038 0 28.27-12.458 28.27-28.607 0-16.033-12.232-28.72-28.27-28.72s-28.27 12.572-28.27 28.72c0 16.264 12.232 28.607 28.27 28.607zm-344.18 27.51h2.682l4.645 16.957h.057l5.02-16.956h2.71l4.99 16.956h.058l4.732-16.956h2.54l-6.002 20.416h-2.625l-5.048-17.302h-.058l-5.078 17.302h-2.653l-5.97-20.416zm33.654 0h2.425v20.417H74.56v-20.416zm20.677 3.605a3.57 3.57 0 0 0-1.616-1.427 5.163 5.163 0 0 0-2.104-.447c-.54 0-1.066.068-1.588.202a4.71 4.71 0 0 0-1.397.605c-.414.27-.746.625-.995 1.067-.25.443-.377.962-.377 1.557 0 .46.074.87.218 1.225.143.356.38.678.707.967.327.287.77.557 1.327.806.558.25 1.24.5 2.048.75.79.25 1.552.52 2.293.808.74.288 1.396.653 1.963 1.095a4.884 4.884 0 0 1 1.357 1.66c.334.663.503 1.495.503 2.494 0 1.02-.203 1.903-.606 2.653a5.552 5.552 0 0 1-1.6 1.86 6.915 6.915 0 0 1-2.294 1.097c-.867.24-1.76.36-2.682.36a10.3 10.3 0 0 1-1.79-.16 8.508 8.508 0 0 1-1.714-.49 6.953 6.953 0 0 1-1.543-.865 5.248 5.248 0 0 1-1.24-1.312l2.076-1.702a4.268 4.268 0 0 0 1.845 1.702 5.658 5.658 0 0 0 4.082.345 4.77 4.77 0 0 0 1.426-.678c.424-.297.77-.667 1.04-1.108.27-.443.403-.953.403-1.53 0-.633-.104-1.15-.315-1.543-.212-.394-.538-.735-.98-1.024-.444-.287-1-.547-1.673-.778l-2.366-.808c-.73-.23-1.404-.494-2.02-.793a6.23 6.23 0 0 1-1.6-1.093 4.686 4.686 0 0 1-1.067-1.56c-.26-.603-.388-1.33-.388-2.176 0-.98.19-1.834.576-2.565a5.41 5.41 0 0 1 1.558-1.83 7.06 7.06 0 0 1 2.22-1.112 8.936 8.936 0 0 1 2.598-.373c1.153 0 2.206.177 3.158.532.954.356 1.803.978 2.553 1.86l-1.99 1.73zm19.347 0a3.57 3.57 0 0 0-1.616-1.427 5.163 5.163 0 0 0-2.106-.447c-.54 0-1.065.068-1.588.202a4.71 4.71 0 0 0-1.396.605c-.415.27-.747.625-.996 1.067-.25.443-.377.962-.377 1.557 0 .46.074.87.218 1.225.143.356.38.678.707.967.327.287.77.557 1.327.806.558.25 1.24.5 2.048.75.79.25 1.552.52 2.293.808.74.288 1.395.653 1.96 1.095a4.884 4.884 0 0 1 1.36 1.66c.333.663.502 1.495.502 2.494 0 1.02-.203 1.903-.606 2.653a5.552 5.552 0 0 1-1.6 1.86 6.915 6.915 0 0 1-2.294 1.097c-.867.24-1.76.36-2.683.36a10.3 10.3 0 0 1-1.79-.16 8.508 8.508 0 0 1-1.714-.49 6.953 6.953 0 0 1-1.544-.865 5.248 5.248 0 0 1-1.24-1.312l2.076-1.702a4.268 4.268 0 0 0 1.846 1.702 5.658 5.658 0 0 0 4.082.345 4.77 4.77 0 0 0 1.426-.678c.424-.297.77-.667 1.04-1.108.27-.443.402-.953.402-1.53 0-.633-.103-1.15-.314-1.543-.213-.394-.54-.735-.982-1.024-.443-.287-1-.547-1.672-.778l-2.367-.808c-.73-.23-1.404-.494-2.02-.793a6.23 6.23 0 0 1-1.6-1.093 4.686 4.686 0 0 1-1.067-1.56c-.26-.603-.388-1.33-.388-2.176 0-.98.19-1.834.576-2.565a5.41 5.41 0 0 1 1.557-1.83 7.06 7.06 0 0 1 2.22-1.112 8.936 8.936 0 0 1 2.597-.373c1.154 0 2.207.177 3.16.532.952.356 1.802.978 2.552 1.86l-1.99 1.73zm21.576-3.604h12.837v2.25h-10.414v6.4h9.72v2.25h-9.72v7.268h10.933v2.248H136.16v-20.416zm20.254 0h3.06l11.825 16.956h.058v-16.956h2.423v20.416h-3.057l-11.827-16.956h-.057v16.956h-2.426v-20.416zm39.6 2.25h-6.75v18.167h-2.424v-18.167h-6.75v-2.25h15.923v2.25zm6.292-2.25h12.836v2.25H204.73v6.4h9.72v2.25h-9.72v7.268h10.93v2.248h-13.354v-20.416zm20.253 0h5.222c.98 0 1.955.058 2.928.173.972.116 1.84.367 2.61.75a4.73 4.73 0 0 1 1.875 1.688c.48.74.72 1.744.72 3.013 0 1.5-.45 2.712-1.355 3.635-.904.922-2.154 1.51-3.75 1.76l5.8 9.4h-2.973l-5.538-9.17h-3.116v9.17h-2.425v-20.417zm2.424 8.997h2.163c.674 0 1.37-.02 2.09-.058a7.122 7.122 0 0 0 1.992-.374 3.456 3.456 0 0 0 1.5-.995c.394-.452.59-1.1.59-1.947 0-.73-.143-1.315-.434-1.76a2.93 2.93 0 0 0-1.138-1.023c-.472-.24-1-.398-1.587-.474a13.745 13.745 0 0 0-1.773-.116h-3.403v6.748zm18.6-8.997h6.06c.942 0 1.84.09 2.697.274a6.71 6.71 0 0 1 2.28.923 4.736 4.736 0 0 1 1.585 1.73c.395.72.59 1.61.59 2.667 0 1.115-.21 2.04-.632 2.77-.424.728-.968 1.306-1.63 1.73-.664.423-1.39.72-2.18.893a10.49 10.49 0 0 1-2.247.26h-4.097v9.17h-2.425v-20.417zm2.425 8.997h4.096c1.21 0 2.195-.274 2.956-.822.76-.548 1.14-1.398 1.14-2.552 0-1.152-.38-2.003-1.14-2.55-.76-.55-1.745-.823-2.956-.823h-4.097v6.748zm17.594-8.997h5.22c.982 0 1.958.058 2.93.173.97.116 1.84.367 2.61.75a4.73 4.73 0 0 1 1.874 1.688c.482.74.72 1.744.72 3.013 0 1.5-.45 2.712-1.353 3.635-.904.922-2.155 1.51-3.75 1.76l5.798 9.4h-2.97l-5.54-9.17h-3.115v9.17h-2.424v-20.417zm2.424 8.997h2.164c.672 0 1.37-.02 2.09-.058a7.122 7.122 0 0 0 1.99-.374 3.448 3.448 0 0 0 1.5-.995c.395-.452.59-1.1.59-1.947 0-.73-.14-1.315-.43-1.76a2.933 2.933 0 0 0-1.14-1.023c-.472-.24-1-.398-1.586-.474a13.75 13.75 0 0 0-1.775-.116h-3.402v6.748zm18.66-8.997h2.424v20.416h-2.424v-20.416zm20.678 3.604a3.576 3.576 0 0 0-1.615-1.427 5.168 5.168 0 0 0-2.105-.447c-.54 0-1.067.068-1.588.202a4.718 4.718 0 0 0-1.398.605 3.04 3.04 0 0 0-.997 1.067c-.25.443-.375.962-.375 1.557 0 .46.072.87.217 1.225.143.356.38.678.706.967.328.287.77.557 1.33.806.556.25 1.238.5 2.047.75.788.25 1.552.52 2.293.808a7.707 7.707 0 0 1 1.96 1.095c.57.444 1.02.996 1.358 1.66.336.663.503 1.495.503 2.494 0 1.02-.2 1.903-.605 2.653a5.532 5.532 0 0 1-1.6 1.86 6.928 6.928 0 0 1-2.292 1.097c-.867.24-1.762.36-2.683.36a10.3 10.3 0 0 1-1.79-.16 8.48 8.48 0 0 1-1.715-.49 6.89 6.89 0 0 1-1.543-.865 5.227 5.227 0 0 1-1.242-1.312l2.078-1.702a4.268 4.268 0 0 0 1.846 1.702 5.656 5.656 0 0 0 4.08.345 4.762 4.762 0 0 0 1.43-.678c.42-.297.77-.667 1.037-1.108.272-.443.405-.953.405-1.53 0-.633-.105-1.15-.316-1.543-.213-.394-.54-.735-.982-1.024-.444-.287-1-.547-1.673-.778l-2.367-.808c-.73-.23-1.403-.494-2.017-.793a6.265 6.265 0 0 1-1.602-1.093 4.73 4.73 0 0 1-1.067-1.56c-.26-.603-.387-1.33-.387-2.176 0-.98.19-1.834.577-2.565.384-.73.903-1.34 1.556-1.83a7.074 7.074 0 0 1 2.22-1.112 8.945 8.945 0 0 1 2.6-.373c1.153 0 2.204.177 3.156.532.953.356 1.803.978 2.554 1.86l-1.99 1.73zm9.783-3.604h12.836v2.25h-10.412v6.4h9.72v2.25h-9.72v7.268h10.93v2.248H315.15v-20.416zm32.335 0h6.06c.94 0 1.84.09 2.696.274a6.71 6.71 0 0 1 2.28.923 4.736 4.736 0 0 1 1.585 1.73c.395.72.59 1.61.59 2.667 0 1.115-.21 2.04-.632 2.77-.424.728-.968 1.306-1.63 1.73-.665.423-1.39.72-2.18.893a10.49 10.49 0 0 1-2.248.26h-4.096v9.17h-2.425v-20.417zm2.424 8.997h4.095c1.212 0 2.196-.274 2.957-.822.76-.548 1.14-1.398 1.14-2.552 0-1.152-.38-2.003-1.14-2.55-.76-.55-1.745-.823-2.957-.823h-4.096v6.748zm22.702-8.997h2.28l8.682 20.416h-2.827l-2.078-5.017h-10.21l-2.11 5.017h-2.737l9-20.416zm1.097 3.114h-.06l-4.24 10.035h8.337l-4.038-10.035zm23.92-3.114h2.28l8.68 20.416h-2.826l-2.078-5.017h-10.21l-2.107 5.017h-2.74l9-20.416zm1.096 3.114h-.058l-4.24 10.035h8.336l-4.038-10.035zm26.147.49a3.576 3.576 0 0 0-1.615-1.427 5.168 5.168 0 0 0-2.106-.447c-.54 0-1.067.068-1.588.202a4.718 4.718 0 0 0-1.398.605 3.04 3.04 0 0 0-.996 1.067c-.25.443-.375.962-.375 1.557 0 .46.072.87.218 1.225.142.356.38.678.705.967.327.287.77.557 1.328.806.557.25 1.24.5 2.048.75.788.25 1.552.52 2.294.808a7.707 7.707 0 0 1 1.96 1.095c.568.444 1.02.996 1.357 1.66.336.663.503 1.495.503 2.494 0 1.02-.202 1.903-.606 2.653a5.532 5.532 0 0 1-1.6 1.86 6.928 6.928 0 0 1-2.292 1.097c-.867.24-1.76.36-2.683.36a10.3 10.3 0 0 1-1.79-.16 8.48 8.48 0 0 1-1.715-.49 6.89 6.89 0 0 1-1.543-.865 5.227 5.227 0 0 1-1.243-1.312l2.08-1.702a4.268 4.268 0 0 0 1.845 1.702 5.656 5.656 0 0 0 4.08.345 4.762 4.762 0 0 0 1.428-.678c.422-.297.77-.667 1.038-1.108.27-.443.404-.953.404-1.53 0-.633-.105-1.15-.316-1.543-.212-.394-.538-.735-.98-1.024-.445-.287-1-.547-1.674-.778l-2.366-.808c-.732-.23-1.404-.494-2.018-.793a6.265 6.265 0 0 1-1.603-1.093 4.73 4.73 0 0 1-1.067-1.56c-.26-.603-.388-1.33-.388-2.176 0-.98.19-1.834.577-2.565.384-.73.903-1.34 1.556-1.83a7.074 7.074 0 0 1 2.22-1.112 8.945 8.945 0 0 1 2.6-.373c1.153 0 2.204.177 3.156.532.953.356 1.802.978 2.553 1.86l-1.99 1.73zM55.693 20.268h12.232l33.576 80.398H86.273l-6.578-16.033h-35.77l-6.577 16.033H22.115l33.578-80.398zm19.5 52.484L61.81 39.992l-13.386 32.76h26.77z" fill="#002F47"/></g></svg>