<svg width="436" height="181" viewBox="0 0 436 181" xmlns="http://www.w3.org/2000/svg"><title>appuio_logo</title><path d="M231.79 149.177h192.672c6.372 0 11.538-5.164 11.538-11.534V11.535C436 5.165 430.834 0 424.462 0H11.538C5.165 0 0 5.165 0 11.535v126.108c0 6.37 5.165 11.534 11.538 11.534h194.247L218.788 181l13.002-31.823zm-98.086-93.69c5.77 0 12.577-4.152 12.577-13.035 0-9.11-6.802-13.15-12.57-13.15h-15.58v26.185h15.577zm-30-39.22h30.69c12.808 0 26.196 9.92 26.196 26.185 0 15.342-12.81 26.07-26.195 26.07h-16.27v28.145h-14.422v-80.4zm96.01 39.22c5.77 0 12.577-4.152 12.577-13.035 0-9.11-6.802-13.15-12.57-13.15h-15.58v26.185h15.577zm-30-39.22h30.69c12.808 0 26.196 9.92 26.196 26.185 0 15.342-12.81 26.07-26.195 26.07h-16.27v28.145h-14.422v-80.4zm65.34 0h14.423V64.37c0 14.302 7.27 20.53 18.232 20.53 10.84 0 18.11-6.228 18.11-20.53V16.267h14.422v49.6c0 21.455-14.423 32.067-32.538 32.067-18.233 0-32.656-10.612-32.656-32.066v-49.6zm77.998 22.264h13.846v58.14h-13.846V38.53zm-1.385-14.99c0-4.614 3.808-8.19 8.308-8.19 4.384 0 8.193 3.576 8.193 8.19 0 4.615-3.81 8.19-8.193 8.19-4.5 0-8.308-3.575-8.308-8.19zm67.42 61.71c16.037 0 28.27-12.456 28.27-28.605 0-16.032-12.233-28.72-28.27-28.72-16.04 0-28.27 12.573-28.27 28.72 0 16.265 12.23 28.608 28.27 28.608zm0-70.36c23.653 0 42.577 18.11 42.577 41.755 0 23.65-18.924 41.643-42.578 41.643-23.538 0-42.46-17.994-42.46-41.642 0-23.645 18.922-41.754 42.46-41.754zM27.237 116.36a3.572 3.572 0 0 0-1.617-1.427 5.16 5.16 0 0 0-2.104-.447c-.54 0-1.067.068-1.588.202a4.72 4.72 0 0 0-1.397.605 3.01 3.01 0 0 0-.99 1.067c-.25.443-.377.962-.377 1.557 0 .46.073.87.217 1.225.144.356.38.678.706.967.327.282.77.552 1.327.8.56.25 1.24.5 2.05.75.79.25 1.553.52 2.295.81a7.766 7.766 0 0 1 1.96 1.095 4.88 4.88 0 0 1 1.357 1.66c.338.663.506 1.495.506 2.494 0 1.02-.2 1.903-.603 2.653a5.548 5.548 0 0 1-1.6 1.86 6.942 6.942 0 0 1-2.293 1.097c-.867.24-1.76.36-2.683.36a10.3 10.3 0 0 1-1.79-.16 8.52 8.52 0 0 1-1.715-.49 6.943 6.943 0 0 1-1.54-.862 5.253 5.253 0 0 1-1.243-1.312l2.08-1.702a4.26 4.26 0 0 0 1.846 1.702 5.658 5.658 0 0 0 4.08.345 4.788 4.788 0 0 0 1.427-.68 3.66 3.66 0 0 0 1.037-1.105c.27-.443.404-.953.404-1.53 0-.633-.105-1.15-.316-1.543-.212-.392-.538-.733-.98-1.022-.443-.287-1-.547-1.673-.778l-2.37-.81a14.89 14.89 0 0 1-2.016-.794 6.265 6.265 0 0 1-1.602-1.093 4.708 4.708 0 0 1-1.066-1.56c-.26-.603-.387-1.33-.387-2.176 0-.98.19-1.836.577-2.567.384-.73.903-1.34 1.558-1.83a7.066 7.066 0 0 1 2.22-1.11 8.953 8.953 0 0 1 2.6-.373c1.153 0 2.204.176 3.156.53.953.357 1.802.98 2.552 1.86l-1.99 1.73zm7.667-3.604h2.682l4.645 16.956h.06l5.02-16.956h2.71l4.99 16.956h.06l4.73-16.956h2.54l-6 20.416h-2.63l-5.047-17.302h-.058l-5.078 17.302h-2.653l-5.97-20.416zm33.654 0h2.425v20.416H68.56v-20.416zm20.677 3.604a3.57 3.57 0 0 0-1.616-1.427 5.163 5.163 0 0 0-2.11-.447c-.54 0-1.065.068-1.587.202a4.71 4.71 0 0 0-1.397.605 3.02 3.02 0 0 0-.996 1.067c-.25.443-.376.962-.376 1.557 0 .46.074.87.218 1.225.143.356.38.678.707.967.325.282.77.552 1.325.8.557.25 1.24.5 2.047.75.79.25 1.552.52 2.293.81a7.74 7.74 0 0 1 1.964 1.095 4.884 4.884 0 0 1 1.357 1.66c.336.663.505 1.495.505 2.494 0 1.02-.203 1.903-.606 2.653a5.552 5.552 0 0 1-1.6 1.86 6.915 6.915 0 0 1-2.295 1.097 10 10 0 0 1-2.68.36 10.3 10.3 0 0 1-1.79-.16 8.508 8.508 0 0 1-1.715-.49 6.953 6.953 0 0 1-1.544-.862 5.248 5.248 0 0 1-1.24-1.312l2.077-1.702a4.268 4.268 0 0 0 1.846 1.702 5.658 5.658 0 0 0 4.082.345 4.77 4.77 0 0 0 1.426-.68 3.69 3.69 0 0 0 1.04-1.105c.27-.443.404-.953.404-1.53 0-.633-.105-1.15-.316-1.543-.214-.392-.54-.733-.98-1.022-.446-.287-1-.547-1.675-.778l-2.366-.81c-.73-.23-1.405-.495-2.02-.794a6.23 6.23 0 0 1-1.6-1.093 4.686 4.686 0 0 1-1.068-1.56c-.26-.603-.39-1.33-.39-2.176 0-.98.19-1.836.576-2.567a5.41 5.41 0 0 1 1.557-1.83 7.06 7.06 0 0 1 2.22-1.11 8.936 8.936 0 0 1 2.598-.373c1.155 0 2.208.176 3.16.53.954.357 1.803.98 2.553 1.86l-1.99 1.73zm19.347 0a3.57 3.57 0 0 0-1.616-1.427 5.163 5.163 0 0 0-2.106-.447 6.35 6.35 0 0 0-1.588.202 4.71 4.71 0 0 0-1.396.605 3.02 3.02 0 0 0-.996 1.067c-.25.443-.377.962-.377 1.557 0 .46.074.87.218 1.225.148.356.38.678.71.967.33.282.77.552 1.33.8.557.25 1.24.5 2.047.75.79.25 1.552.52 2.293.81a7.68 7.68 0 0 1 1.96 1.095 4.884 4.884 0 0 1 1.36 1.66c.332.663.5 1.495.5 2.494 0 1.02-.203 1.903-.606 2.653a5.552 5.552 0 0 1-1.6 1.86 6.915 6.915 0 0 1-2.294 1.097c-.87.24-1.76.36-2.685.36a10.3 10.3 0 0 1-1.79-.16 8.508 8.508 0 0 1-1.714-.49 6.953 6.953 0 0 1-1.54-.862 5.248 5.248 0 0 1-1.24-1.312l2.075-1.702a4.268 4.268 0 0 0 1.846 1.702 5.658 5.658 0 0 0 4.08.345 4.77 4.77 0 0 0 1.428-.68 3.69 3.69 0 0 0 1.04-1.105c.27-.443.402-.953.402-1.53 0-.633-.106-1.15-.317-1.543-.213-.392-.54-.733-.982-1.022-.44-.287-1-.547-1.67-.778l-2.365-.81c-.73-.23-1.404-.495-2.02-.794a6.23 6.23 0 0 1-1.6-1.093 4.686 4.686 0 0 1-1.067-1.56c-.26-.603-.388-1.33-.388-2.176 0-.98.19-1.836.574-2.567a5.41 5.41 0 0 1 1.557-1.83 7.06 7.06 0 0 1 2.22-1.11 8.936 8.936 0 0 1 2.6-.373c1.15 0 2.203.176 3.16.53.95.357 1.8.98 2.55 1.86l-1.99 1.73zm21.576-3.604h12.837v2.25H132.58v6.4h9.72v2.25h-9.72v7.268h10.934v2.248H130.16v-20.416zm20.254 0h3.06l11.825 16.956h.058v-16.956h2.423v20.416h-3.057L152.9 116.216h-.057v16.956h-2.426v-20.416zm39.6 2.25h-6.75v18.167h-2.424v-18.167h-6.75v-2.25h15.923v2.25zm6.292-2.25h12.836v2.25h-10.41v6.4h9.72v2.25h-9.72v7.268h10.93v2.248h-13.354v-20.416zm22.678 8.997h2.163c.674 0 1.37-.02 2.09-.058a7.122 7.122 0 0 0 1.992-.374 3.456 3.456 0 0 0 1.5-.99c.394-.452.59-1.1.59-1.947 0-.73-.143-1.315-.434-1.76a2.93 2.93 0 0 0-1.138-1.023c-.472-.24-1-.4-1.587-.475a13.745 13.745 0 0 0-1.773-.116h-3.403v6.746zm-2.425-8.997h5.222c.98 0 1.95.058 2.923.173.972.11 1.84.362 2.61.75a4.73 4.73 0 0 1 1.875 1.683c.48.74.72 1.744.72 3.013 0 1.5-.45 2.71-1.355 3.634-.904.923-2.154 1.51-3.75 1.76l5.8 9.4h-2.973l-5.538-9.17h-3.116v9.17h-2.427v-20.416zm23.45 8.997h4.096c1.21 0 2.195-.274 2.956-.822.76-.543 1.14-1.393 1.14-2.55 0-1.15-.38-2-1.14-2.55-.76-.55-1.75-.82-2.96-.82H240v6.748zm-2.425-8.997h6.06c.94 0 1.84.09 2.696.274a6.71 6.71 0 0 1 2.28.923 4.736 4.736 0 0 1 1.585 1.73c.395.72.59 1.61.59 2.667 0 1.115-.21 2.04-.632 2.77a5.004 5.004 0 0 1-1.63 1.73 6.68 6.68 0 0 1-2.18.893 10.49 10.49 0 0 1-2.242.26h-4.097v9.17h-2.425v-20.417zm22.443 8.997h2.164c.67 0 1.37-.02 2.09-.058a7.122 7.122 0 0 0 1.99-.374 3.448 3.448 0 0 0 1.5-.99c.39-.452.59-1.1.59-1.947 0-.73-.14-1.315-.43-1.76a2.933 2.933 0 0 0-1.14-1.023 4.85 4.85 0 0 0-1.59-.475 13.75 13.75 0 0 0-1.776-.116h-3.402v6.746zm-2.424-8.997h5.22c.987 0 1.96.058 2.93.173.97.11 1.84.362 2.61.75a4.73 4.73 0 0 1 1.88 1.683c.48.74.72 1.744.72 3.013 0 1.5-.45 2.71-1.354 3.634-.904.923-2.155 1.51-3.75 1.76l5.798 9.4h-2.97l-5.54-9.17h-3.114v9.17h-2.43v-20.416zm21.09 0h2.423v20.416h-2.424v-20.416zm20.677 3.604a3.576 3.576 0 0 0-1.615-1.427 5.168 5.168 0 0 0-2.105-.447c-.54 0-1.067.068-1.588.202a4.718 4.718 0 0 0-1.4.605 3.04 3.04 0 0 0-.997 1.067c-.25.443-.373.962-.373 1.557 0 .46.07.87.216 1.225.143.356.38.678.706.967.327.282.77.552 1.33.8a18 18 0 0 0 2.046.75c.788.25 1.552.52 2.293.81a7.707 7.707 0 0 1 1.96 1.095 4.84 4.84 0 0 1 1.358 1.66c.336.663.503 1.495.503 2.494 0 1.02-.2 1.903-.606 2.653a5.532 5.532 0 0 1-1.6 1.86 6.928 6.928 0 0 1-2.292 1.097c-.865.24-1.76.36-2.68.36a10.3 10.3 0 0 1-1.79-.16 8.48 8.48 0 0 1-1.718-.49 6.89 6.89 0 0 1-1.542-.862 5.227 5.227 0 0 1-1.24-1.312l2.077-1.702a4.268 4.268 0 0 0 1.845 1.702 5.656 5.656 0 0 0 4.08.345 4.762 4.762 0 0 0 1.43-.68c.42-.294.77-.664 1.038-1.105.273-.443.406-.953.406-1.53 0-.633-.106-1.15-.317-1.543-.215-.392-.54-.733-.984-1.022-.445-.287-1-.547-1.674-.778l-2.367-.81c-.73-.23-1.404-.495-2.018-.794a6.265 6.265 0 0 1-1.604-1.093 4.73 4.73 0 0 1-1.067-1.56c-.26-.603-.386-1.33-.386-2.176 0-.98.19-1.836.577-2.567.387-.73.906-1.34 1.56-1.83a7.074 7.074 0 0 1 2.22-1.11 8.945 8.945 0 0 1 2.6-.373c1.152 0 2.203.176 3.155.53.954.357 1.804.98 2.555 1.86l-1.99 1.73zm9.783-3.604h12.835v2.25H311.57v6.4h9.72v2.25h-9.72v7.268h10.93v2.248h-13.35v-20.416zm34.76 8.997H348c1.213 0 2.197-.274 2.958-.822.76-.543 1.14-1.393 1.14-2.55 0-1.15-.38-2-1.14-2.55-.76-.55-1.745-.82-2.957-.82h-4.09v6.748zm-2.426-8.997h6.06c.94 0 1.84.09 2.697.274a6.71 6.71 0 0 1 2.28.923 4.736 4.736 0 0 1 1.586 1.73c.395.72.59 1.61.59 2.667 0 1.115-.21 2.04-.632 2.77a5.004 5.004 0 0 1-1.63 1.73 6.69 6.69 0 0 1-2.18.893 10.49 10.49 0 0 1-2.248.26h-4.096v9.17h-2.426v-20.417zm26.225 3.114h-.06l-4.24 10.035h8.335l-4.038-10.035zm-1.1-3.114h2.28l8.68 20.416h-2.827l-2.078-5.017h-10.21l-2.11 5.017h-2.737l9-20.416zm26.113 3.114h-.057l-4.24 10.035h8.336l-4.04-10.035zm-1.095-3.114h2.28l8.68 20.416h-2.827l-2.08-5.017h-10.21l-2.105 5.017h-2.74l9-20.416zm27.242 3.604a3.576 3.576 0 0 0-1.613-1.427 5.168 5.168 0 0 0-2.107-.447 6.33 6.33 0 0 0-1.587.202 4.718 4.718 0 0 0-1.4.605 3.04 3.04 0 0 0-.995 1.067c-.25.443-.374.962-.374 1.557 0 .46.072.87.218 1.225.143.356.38.678.706.967.327.282.77.552 1.328.8.558.25 1.24.5 2.05.75.787.25 1.55.52 2.293.81a7.707 7.707 0 0 1 1.96 1.095c.57.444 1.02.996 1.357 1.66.336.663.503 1.495.503 2.494 0 1.02-.2 1.903-.605 2.653a5.532 5.532 0 0 1-1.6 1.86 6.928 6.928 0 0 1-2.29 1.097c-.868.24-1.76.36-2.684.36a10.3 10.3 0 0 1-1.79-.16 8.48 8.48 0 0 1-1.713-.49 6.89 6.89 0 0 1-1.542-.862 5.227 5.227 0 0 1-1.243-1.312l2.08-1.702a4.268 4.268 0 0 0 1.847 1.702 5.656 5.656 0 0 0 4.08.345 4.762 4.762 0 0 0 1.43-.68 3.67 3.67 0 0 0 1.036-1.105c.27-.443.404-.953.404-1.53 0-.633-.104-1.15-.315-1.543-.212-.392-.538-.733-.98-1.022-.445-.287-1-.547-1.674-.778l-2.365-.81a14.602 14.602 0 0 1-2.018-.794 6.265 6.265 0 0 1-1.603-1.093 4.73 4.73 0 0 1-1.068-1.56c-.26-.603-.388-1.33-.388-2.176 0-.98.19-1.836.577-2.567.385-.73.904-1.34 1.557-1.83a7.074 7.074 0 0 1 2.22-1.11 8.945 8.945 0 0 1 2.6-.373c1.155 0 2.206.176 3.158.53.952.357 1.8.98 2.552 1.86l-1.99 1.73zM69.19 68.75L55.81 35.992l-13.386 32.76h26.77zm-19.5-52.484h12.23l33.58 80.4H80.273l-6.578-16.033h-35.77l-6.577 16.033H16.115l33.578-80.398z" fill="#FFD301" fill-rule="evenodd"/></svg>