<?xml version="1.0" encoding="UTF-8" standalone="no"?>
<svg width="340px" height="155px" viewBox="0 0 340 155" version="1.1" xmlns="http://www.w3.org/2000/svg" xmlns:xlink="http://www.w3.org/1999/xlink">
    <!-- Generator: Sketch 3.6.1 (26313) - http://www.bohemiancoding.com/sketch -->
    <title>appuio_logo</title>
    <desc>Created with Sketch.</desc>
    <defs></defs>
    <g id="Page-1" stroke="none" stroke-width="1" fill="none" fill-rule="evenodd">
        <g id="v3" transform="translate(-470.000000, -270.000000)">
            <g id="appuio_logo" transform="translate(469.000000, 270.000000)">
                <g id="Ebene_1" fill="#FFD900">
                    <path d="M331.276271,0 L10.5788136,0 C5.36186441,0 1.15932203,4.22803738 1.15932203,9.47663551 L1.15932203,119.114019 C1.15932203,124.362617 5.36186441,128.590654 10.5788136,128.590654 L250.99322,128.590654 L250.99322,154.833645 L272.875424,128.590654 L331.276271,128.590654 C336.49322,128.590654 340.695763,124.362617 340.695763,119.114019 L340.695763,9.47663551 C340.695763,4.22803738 336.49322,0 331.276271,0 L331.276271,0 Z" id="Shape"></path>
                </g>
                <g id="text" transform="translate(20.288136, 18.953271)" fill="#002F47">
                    <g id="Group">
                        <path d="M7.10084746,80.3327103 C5.0720339,79.7495327 3.33305085,79.3121495 3.33305085,77.7084112 C3.33305085,76.1046729 4.34745763,75.2299065 6.66610169,75.2299065 C8.55,75.2299065 9.85423729,75.6672897 9.85423729,75.6672897 C10.2889831,75.2299065 10.4338983,74.646729 10.4338983,73.917757 C10.4338983,73.917757 8.83983051,73.3345794 6.23135593,73.3345794 C2.75338983,73.3345794 1.01440678,75.0841121 1.01440678,77.7084112 C1.01440678,80.9158879 3.76779661,81.4990654 6.08644068,82.2280374 C7.53559322,82.6654206 8.69491525,83.2485981 8.69491525,84.7065421 C8.69491525,86.3102804 7.68050847,87.1850467 5.50677966,87.1850467 C3.4779661,87.1850467 1.5940678,86.4560748 1.5940678,86.4560748 C1.30423729,86.8934579 1.01440678,87.6224299 1.01440678,88.2056075 C1.01440678,88.2056075 2.75338983,89.0803738 5.65169492,89.0803738 C9.12966102,89.0803738 11.0135593,87.4766355 11.0135593,84.5607477 C11.1584746,81.9364486 9.12966102,81.0616822 7.10084746,80.3327103 L7.10084746,80.3327103 Z" id="Shape"></path>
                        <path d="M32.8957627,73.7719626 L30.1423729,83.8317757 C29.7076271,85.435514 29.5627119,86.6018692 29.5627119,86.6018692 L29.5627119,86.6018692 C29.5627119,86.6018692 29.4177966,85.2897196 29.1279661,83.8317757 L26.6644068,73.7719626 C26.6644068,73.7719626 26.3745763,73.6261682 25.5050847,73.6261682 C24.7805085,73.6261682 24.3457627,73.7719626 24.3457627,73.7719626 L21.7372881,83.8317757 C21.4474576,85.2897196 21.1576271,86.6018692 21.1576271,86.6018692 L21.0127119,86.6018692 C21.0127119,86.6018692 20.8677966,85.1439252 20.4330508,83.8317757 L17.679661,73.7719626 C17.679661,73.7719626 17.3898305,73.6261682 16.6652542,73.6261682 C15.940678,73.6261682 15.6508475,73.7719626 15.6508475,73.7719626 L19.8533898,88.788785 C20.1432203,88.788785 20.5779661,88.9345794 21.0127119,88.9345794 C21.5923729,88.9345794 22.0271186,88.788785 22.3169492,88.788785 L24.7805085,79.0205607 C25.2152542,76.9794393 25.3601695,75.9588785 25.3601695,75.9588785 L25.5050847,75.9588785 C25.5050847,75.9588785 25.5050847,77.1252336 25.9398305,79.0205607 L28.4033898,88.788785 C28.4033898,88.788785 28.9830508,88.9345794 29.7076271,88.9345794 C30.4322034,88.9345794 30.8669492,88.788785 30.8669492,88.788785 L34.9245763,73.7719626 C34.9245763,73.7719626 34.4898305,73.6261682 33.9101695,73.6261682 C33.1855932,73.6261682 32.8957627,73.7719626 32.8957627,73.7719626 L32.8957627,73.7719626 Z" id="Shape"></path>
                        <path d="M40.2864407,73.7719626 L40.2864407,88.9345794 C40.2864407,88.9345794 40.5762712,89.0803738 41.3008475,89.0803738 C42.0254237,89.0803738 42.3152542,88.9345794 42.3152542,88.9345794 L42.3152542,73.917757 C42.3152542,73.917757 42.0254237,73.7719626 41.1559322,73.7719626 C40.5762712,73.6261682 40.2864407,73.7719626 40.2864407,73.7719626 L40.2864407,73.7719626 Z" id="Shape"></path>
                        <path d="M54.3432203,80.3327103 C52.3144068,79.7495327 50.5754237,79.3121495 50.5754237,77.7084112 C50.5754237,76.1046729 51.5898305,75.2299065 53.9084746,75.2299065 C55.7923729,75.2299065 57.0966102,75.6672897 57.0966102,75.6672897 C57.5313559,75.2299065 57.6762712,74.646729 57.6762712,73.917757 C57.6762712,73.917757 56.0822034,73.3345794 53.4737288,73.3345794 C49.9957627,73.3345794 48.2567797,75.0841121 48.2567797,77.7084112 C48.2567797,80.9158879 51.0101695,81.4990654 53.3288136,82.2280374 C54.7779661,82.6654206 55.9372881,83.2485981 55.9372881,84.7065421 C55.9372881,86.3102804 54.9228814,87.1850467 52.7491525,87.1850467 C50.720339,87.1850467 48.8364407,86.4560748 48.8364407,86.4560748 C48.5466102,86.8934579 48.2567797,87.6224299 48.2567797,88.2056075 C48.2567797,88.2056075 49.9957627,89.0803738 52.8940678,89.0803738 C56.3720339,89.0803738 58.2559322,87.4766355 58.2559322,84.5607477 C58.2559322,81.9364486 56.2271186,81.0616822 54.3432203,80.3327103 L54.3432203,80.3327103 Z" id="Shape"></path>
                        <path d="M25.9398305,1.45794393 L1.15932203,61.2336449 L12.4627119,61.2336449 L17.2449153,49.2785047 L43.6194915,49.2785047 L48.4016949,61.2336449 L59.7050847,61.2336449 L35.0694915,1.45794393 L25.9398305,1.45794393 L25.9398305,1.45794393 Z M20.5779661,40.5308411 L30.4322034,16.1831776 L40.2864407,40.5308411 L20.5779661,40.5308411 L20.5779661,40.5308411 Z" id="Shape"></path>
                        <path d="M69.2694915,80.3327103 C67.240678,79.7495327 65.5016949,79.3121495 65.5016949,77.7084112 C65.5016949,76.1046729 66.5161017,75.2299065 68.8347458,75.2299065 C70.7186441,75.2299065 72.0228814,75.6672897 72.0228814,75.6672897 C72.4576271,75.2299065 72.6025424,74.646729 72.6025424,73.917757 C72.6025424,73.917757 71.0084746,73.3345794 68.4,73.3345794 C64.9220339,73.3345794 63.1830508,75.0841121 63.1830508,77.7084112 C63.1830508,80.9158879 65.9364407,81.4990654 68.2550847,82.2280374 C69.7042373,82.6654206 70.8635593,83.2485981 70.8635593,84.7065421 C70.8635593,86.3102804 69.8491525,87.1850467 67.6754237,87.1850467 C65.6466102,87.1850467 63.7627119,86.4560748 63.7627119,86.4560748 C63.4728814,86.8934579 63.1830508,87.6224299 63.1830508,88.2056075 C63.1830508,88.2056075 64.9220339,89.0803738 67.820339,89.0803738 C71.2983051,89.0803738 73.1822034,87.4766355 73.1822034,84.5607477 C73.3271186,81.9364486 71.2983051,81.0616822 69.2694915,80.3327103 L69.2694915,80.3327103 Z" id="Shape"></path>
                        <path d="M90.2822034,87.1850467 L90.2822034,82.082243 L95.6440678,82.082243 C95.7889831,81.7906542 95.7889831,81.4990654 95.7889831,81.2074766 C95.7889831,80.9158879 95.6440678,80.6242991 95.6440678,80.3327103 L90.2822034,80.3327103 L90.2822034,75.3757009 L96.6584746,75.3757009 C96.8033898,75.0841121 96.8033898,74.7925234 96.8033898,74.5009346 C96.8033898,74.2093458 96.6584746,73.917757 96.6584746,73.6261682 L88.1084746,73.6261682 L88.1084746,88.9345794 L96.9483051,88.9345794 C97.0932203,88.6429907 97.0932203,88.3514019 97.0932203,88.0598131 C97.0932203,87.7682243 96.9483051,87.4766355 96.9483051,87.1850467 L90.2822034,87.1850467 L90.2822034,87.1850467 Z" id="Shape"></path>
                        <path d="M88.5432203,1.45794393 L65.7915254,1.45794393 L65.7915254,61.2336449 L76.370339,61.2336449 L76.370339,40.3850467 L88.3983051,40.3850467 C98.2525424,40.3850467 107.672034,32.3663551 107.672034,20.9943925 C107.816949,8.89345794 97.9627119,1.45794393 88.5432203,1.45794393 L88.5432203,1.45794393 Z M87.9635593,30.6168224 L76.5152542,30.6168224 L76.5152542,11.2261682 L87.9635593,11.2261682 C92.1661017,11.2261682 97.2381356,14.2878505 97.2381356,20.9943925 C97.2381356,27.5551402 92.1661017,30.6168224 87.9635593,30.6168224 L87.9635593,30.6168224 Z" id="Shape"></path>
                        <path d="M111.874576,73.7719626 L111.874576,82.6654206 C111.874576,84.7065421 112.019492,86.164486 112.019492,86.164486 L112.019492,86.164486 C112.019492,86.164486 111.439831,84.7065421 110.715254,83.3943925 L105.498305,73.7719626 C105.498305,73.7719626 105.063559,73.6261682 104.194068,73.6261682 C103.324576,73.6261682 102.889831,73.7719626 102.889831,73.7719626 L102.889831,88.9345794 C102.889831,88.9345794 103.179661,89.0803738 103.904237,89.0803738 C104.628814,89.0803738 104.918644,88.9345794 104.918644,88.9345794 L104.918644,80.0411215 C104.918644,77.8542056 104.773729,76.3962617 104.773729,76.3962617 L104.918644,76.3962617 C104.918644,76.3962617 105.35339,77.7084112 106.222881,79.1663551 L111.584746,88.788785 C111.584746,88.788785 112.019492,88.9345794 112.888983,88.9345794 C113.758475,88.9345794 114.19322,88.788785 114.19322,88.788785 L114.19322,73.7719626 C114.19322,73.7719626 113.90339,73.6261682 113.178814,73.6261682 C112.164407,73.6261682 111.874576,73.7719626 111.874576,73.7719626 L111.874576,73.7719626 Z" id="Shape"></path>
                        <path d="M125.20678,40.3850467 L137.234746,40.3850467 C147.088983,40.3850467 156.508475,32.3663551 156.508475,20.9943925 C156.508475,8.89345794 146.654237,1.60373832 137.234746,1.60373832 L114.483051,1.60373832 L114.483051,61.2336449 L125.061864,61.2336449 L125.061864,40.3850467 L125.20678,40.3850467 Z M125.20678,11.2261682 L136.655085,11.2261682 C140.857627,11.2261682 145.929661,14.2878505 145.929661,20.9943925 C145.929661,27.5551402 140.857627,30.6168224 136.655085,30.6168224 L125.20678,30.6168224 L125.20678,11.2261682 L125.20678,11.2261682 Z" id="Shape"></path>
                        <path d="M119.410169,73.6261682 C119.410169,73.6261682 119.265254,74.0635514 119.265254,74.5009346 C119.265254,75.0841121 119.410169,75.3757009 119.410169,75.3757009 L123.467797,75.3757009 L123.467797,88.6429907 C123.467797,88.6429907 123.757627,88.788785 124.482203,88.788785 C125.20678,88.788785 125.49661,88.6429907 125.49661,88.6429907 L125.49661,75.3757009 L129.409322,75.3757009 C129.409322,75.3757009 129.554237,74.9383178 129.554237,74.3551402 C129.554237,73.7719626 129.409322,73.4803738 129.409322,73.4803738 L119.410169,73.4803738 L119.410169,73.6261682 Z" id="Shape"></path>
                        <path d="M137.234746,87.1850467 L137.234746,82.082243 L142.59661,82.082243 C142.741525,81.7906542 142.741525,81.4990654 142.741525,81.2074766 C142.741525,80.9158879 142.59661,80.6242991 142.59661,80.3327103 L137.234746,80.3327103 L137.234746,75.3757009 L143.611017,75.3757009 C143.755932,75.0841121 143.755932,74.7925234 143.755932,74.5009346 C143.755932,74.2093458 143.611017,73.917757 143.611017,73.6261682 L135.061017,73.6261682 L135.061017,88.9345794 L143.900847,88.9345794 C144.045763,88.6429907 144.045763,88.3514019 144.045763,88.0598131 C144.045763,87.7682243 143.900847,87.4766355 143.900847,87.1850467 L137.234746,87.1850467 L137.234746,87.1850467 Z" id="Shape"></path>
                        <path d="M159.841525,78.1457944 C159.841525,75.5214953 158.102542,73.6261682 155.349153,73.6261682 L149.987288,73.6261682 L149.987288,88.9345794 C149.987288,88.9345794 150.277119,89.0803738 151.14661,89.0803738 C151.871186,89.0803738 152.161017,88.9345794 152.161017,88.9345794 L152.161017,82.6654206 L154.624576,82.6654206 L158.102542,88.9345794 C158.102542,88.9345794 158.537288,89.0803738 159.261864,89.0803738 C160.131356,89.0803738 160.566102,88.9345794 160.566102,88.9345794 L156.94322,82.5196262 C158.682203,81.9364486 159.841525,80.3327103 159.841525,78.1457944 L159.841525,78.1457944 Z M152.016102,80.9158879 L152.016102,75.5214953 L155.059322,75.5214953 C156.65339,75.5214953 157.667797,76.5420561 157.667797,78.1457944 C157.667797,79.8953271 156.798305,80.7700935 155.059322,80.7700935 L152.016102,80.7700935 L152.016102,80.9158879 Z" id="Shape"></path>
                        <path d="M171.579661,73.6261682 L166.072881,73.6261682 L166.072881,88.9345794 C166.072881,88.9345794 166.362712,89.0803738 167.232203,89.0803738 C167.95678,89.0803738 168.24661,88.9345794 168.24661,88.9345794 L168.24661,83.1028037 L171.579661,83.1028037 C174.333051,83.1028037 176.072034,81.2074766 176.072034,78.4373832 C176.216949,75.5214953 174.333051,73.6261682 171.579661,73.6261682 L171.579661,73.6261682 Z M171.289831,81.2074766 L168.24661,81.2074766 L168.24661,75.5214953 L171.289831,75.5214953 C173.028814,75.5214953 173.898305,76.5420561 173.898305,78.4373832 C173.898305,80.1869159 173.028814,81.2074766 171.289831,81.2074766 L171.289831,81.2074766 Z" id="Shape"></path>
                        <path d="M191.867797,78.1457944 C191.867797,75.5214953 190.128814,73.6261682 187.375424,73.6261682 L182.013559,73.6261682 L182.013559,88.9345794 C182.013559,88.9345794 182.30339,89.0803738 183.172881,89.0803738 C183.897458,89.0803738 184.187288,88.9345794 184.187288,88.9345794 L184.187288,82.6654206 L186.650847,82.6654206 L190.128814,88.9345794 C190.128814,88.9345794 190.563559,89.0803738 191.288136,89.0803738 C192.157627,89.0803738 192.592373,88.9345794 192.592373,88.9345794 L188.969492,82.5196262 C190.708475,81.9364486 191.867797,80.3327103 191.867797,78.1457944 L191.867797,78.1457944 Z M184.042373,80.9158879 L184.042373,75.5214953 L187.085593,75.5214953 C188.679661,75.5214953 189.694068,76.5420561 189.694068,78.1457944 C189.694068,79.8953271 188.824576,80.7700935 187.085593,80.7700935 L184.042373,80.7700935 L184.042373,80.9158879 Z" id="Shape"></path>
                        <path d="M198.099153,73.7719626 L198.099153,88.9345794 C198.099153,88.9345794 198.388983,89.0803738 199.113559,89.0803738 C199.838136,89.0803738 200.127966,88.9345794 200.127966,88.9345794 L200.127966,73.917757 C200.127966,73.917757 199.838136,73.7719626 198.968644,73.7719626 C198.388983,73.6261682 198.099153,73.7719626 198.099153,73.7719626 L198.099153,73.7719626 Z" id="Shape"></path>
                        <path d="M210.851695,1.45794393 L200.272881,1.45794393 L200.272881,37.1775701 C200.272881,47.8205607 194.911017,52.4859813 186.940678,52.4859813 C178.825424,52.4859813 173.463559,47.8205607 173.463559,37.1775701 L173.463559,1.45794393 L162.884746,1.45794393 L162.884746,38.3439252 C162.884746,54.235514 173.463559,62.1084112 186.940678,62.1084112 C200.272881,62.1084112 210.99661,54.235514 210.99661,38.3439252 L210.99661,1.45794393 L210.851695,1.45794393 Z" id="Shape"></path>
                        <path d="M212.155932,80.3327103 C210.127119,79.7495327 208.388136,79.3121495 208.388136,77.7084112 C208.388136,76.1046729 209.402542,75.2299065 211.721186,75.2299065 C213.605085,75.2299065 214.909322,75.6672897 214.909322,75.6672897 C215.344068,75.2299065 215.488983,74.646729 215.488983,73.917757 C215.488983,73.917757 213.894915,73.3345794 211.286441,73.3345794 C207.808475,73.3345794 206.069492,75.0841121 206.069492,77.7084112 C206.069492,80.9158879 208.822881,81.4990654 211.141525,82.2280374 C212.590678,82.6654206 213.75,83.2485981 213.75,84.7065421 C213.75,86.3102804 212.735593,87.1850467 210.561864,87.1850467 C208.533051,87.1850467 206.649153,86.4560748 206.649153,86.4560748 C206.359322,86.8934579 206.069492,87.6224299 206.069492,88.2056075 C206.069492,88.2056075 207.808475,89.0803738 210.70678,89.0803738 C214.184746,89.0803738 216.068644,87.4766355 216.068644,84.5607477 C216.068644,81.9364486 214.184746,81.0616822 212.155932,80.3327103 L212.155932,80.3327103 Z" id="Shape"></path>
                        <path d="M224.038983,87.1850467 L224.038983,82.082243 L229.400847,82.082243 C229.545763,81.7906542 229.545763,81.4990654 229.545763,81.2074766 C229.545763,80.9158879 229.400847,80.6242991 229.400847,80.3327103 L224.038983,80.3327103 L224.038983,75.3757009 L230.415254,75.3757009 C230.560169,75.0841121 230.560169,74.7925234 230.560169,74.5009346 C230.560169,74.2093458 230.415254,73.917757 230.415254,73.6261682 L221.865254,73.6261682 L221.865254,88.9345794 L230.705085,88.9345794 C230.85,88.6429907 230.85,88.3514019 230.85,88.0598131 C230.85,87.7682243 230.705085,87.4766355 230.705085,87.1850467 L224.038983,87.1850467 L224.038983,87.1850467 Z" id="Shape"></path>
                        <rect id="Rectangle-path" x="220.271186" y="18.0785047" width="10.1440678" height="43.1551402"></rect>
                        <path d="M225.34322,0.874766355 C222.010169,0.874766355 219.25678,3.49906542 219.25678,6.99813084 C219.25678,10.3514019 222.010169,13.1214953 225.34322,13.1214953 C228.531356,13.1214953 231.429661,10.4971963 231.429661,6.99813084 C231.429661,3.49906542 228.676271,0.874766355 225.34322,0.874766355 L225.34322,0.874766355 Z" id="Shape"></path>
                        <path d="M268.962712,62.4 C286.352542,62.4 300.409322,48.9869159 300.409322,31.4915888 C300.409322,13.9962617 286.497458,0.437383178 268.962712,0.437383178 C251.572881,0.437383178 237.661017,13.8504673 237.661017,31.4915888 C237.661017,48.9869159 251.572881,62.4 268.962712,62.4 L268.962712,62.4 Z M268.962712,10.2056075 C280.845763,10.2056075 289.830508,19.682243 289.830508,31.4915888 C289.830508,43.446729 280.845763,52.7775701 268.962712,52.7775701 C257.079661,52.7775701 248.094915,43.5925234 248.094915,31.4915888 C248.094915,19.5364486 257.224576,10.2056075 268.962712,10.2056075 L268.962712,10.2056075 Z" id="Shape"></path>
                        <path d="M248.529661,73.6261682 L243.022881,73.6261682 L243.022881,88.9345794 C243.022881,88.9345794 243.312712,89.0803738 244.182203,89.0803738 C244.90678,89.0803738 245.19661,88.9345794 245.19661,88.9345794 L245.19661,83.1028037 L248.529661,83.1028037 C251.283051,83.1028037 253.022034,81.2074766 253.022034,78.4373832 C253.166949,75.5214953 251.427966,73.6261682 248.529661,73.6261682 L248.529661,73.6261682 Z M248.384746,81.2074766 L245.341525,81.2074766 L245.341525,75.5214953 L248.384746,75.5214953 C250.123729,75.5214953 250.99322,76.5420561 250.99322,78.4373832 C250.848305,80.1869159 249.978814,81.2074766 248.384746,81.2074766 L248.384746,81.2074766 Z" id="Shape"></path>
                        <path d="M262.731356,73.6261682 C262.00678,73.6261682 261.427119,73.7719626 261.427119,73.7719626 L256.065254,88.788785 C256.065254,88.788785 256.355085,88.9345794 257.079661,88.9345794 C257.804237,88.9345794 258.094068,88.788785 258.094068,88.788785 L259.398305,84.9981308 L265.629661,84.9981308 L266.933898,88.788785 C266.933898,88.788785 267.223729,88.9345794 267.948305,88.9345794 C268.672881,88.9345794 269.107627,88.788785 269.107627,88.788785 L263.745763,73.7719626 C264.035593,73.7719626 263.455932,73.6261682 262.731356,73.6261682 L262.731356,73.6261682 Z M260.122881,83.3943925 L262.00678,78 C262.29661,76.9794393 262.586441,76.1046729 262.586441,76.1046729 L262.586441,76.1046729 C262.586441,76.1046729 262.731356,76.9794393 263.166102,78 L265.05,83.3943925 L260.122881,83.3943925 L260.122881,83.3943925 Z" id="Shape"></path>
                        <path d="M279.541525,73.6261682 C278.816949,73.6261682 278.237288,73.7719626 278.237288,73.7719626 L272.875424,88.788785 C272.875424,88.788785 273.165254,88.9345794 273.889831,88.9345794 C274.614407,88.9345794 274.904237,88.788785 274.904237,88.788785 L276.208475,84.9981308 L282.439831,84.9981308 L283.744068,88.788785 C283.744068,88.788785 284.033898,88.9345794 284.758475,88.9345794 C285.483051,88.9345794 285.917797,88.788785 285.917797,88.788785 L280.555932,73.7719626 C280.700847,73.7719626 280.266102,73.6261682 279.541525,73.6261682 L279.541525,73.6261682 Z M276.933051,83.3943925 L278.816949,78 C279.10678,76.9794393 279.39661,76.1046729 279.39661,76.1046729 L279.39661,76.1046729 C279.39661,76.1046729 279.541525,76.9794393 279.976271,78 L281.860169,83.3943925 L276.933051,83.3943925 L276.933051,83.3943925 Z" id="Shape"></path>
                        <path d="M296.49661,80.3327103 C294.467797,79.7495327 292.728814,79.3121495 292.728814,77.7084112 C292.728814,76.1046729 293.74322,75.2299065 296.061864,75.2299065 C297.945763,75.2299065 299.25,75.6672897 299.25,75.6672897 C299.684746,75.2299065 299.829661,74.646729 299.829661,73.917757 C299.829661,73.917757 298.235593,73.3345794 295.627119,73.3345794 C292.149153,73.3345794 290.410169,75.0841121 290.410169,77.7084112 C290.410169,80.9158879 293.163559,81.4990654 295.482203,82.2280374 C296.931356,82.6654206 298.090678,83.2485981 298.090678,84.7065421 C298.090678,86.3102804 297.076271,87.1850467 294.902542,87.1850467 C292.873729,87.1850467 290.989831,86.4560748 290.989831,86.4560748 C290.7,86.8934579 290.410169,87.6224299 290.410169,88.2056075 C290.410169,88.2056075 292.149153,89.0803738 295.047458,89.0803738 C298.525424,89.0803738 300.409322,87.4766355 300.409322,84.5607477 C300.409322,81.9364486 298.380508,81.0616822 296.49661,80.3327103 L296.49661,80.3327103 Z" id="Shape"></path>
                    </g>
                </g>
            </g>
        </g>
    </g>
</svg>