<?xml version="1.0" encoding="UTF-8" standalone="no"?>
<svg width="180px" height="180px" viewBox="0 0 180 180" version="1.1" xmlns="http://www.w3.org/2000/svg" xmlns:xlink="http://www.w3.org/1999/xlink">
    <!-- Generator: Sketch 39.1 (31720) - http://www.bohemiancoding.com/sketch -->
    <title>backup</title>
    <desc>Created with Sketch.</desc>
    <defs></defs>
    <g id="Symbols" stroke="none" stroke-width="1" fill="none" fill-rule="evenodd">
        <g id="backup">
            <g id="Group">
                <g id="3" fill="#002F47">
                    <circle id="Oval-Copy-2" cx="90" cy="90" r="90"></circle>
                </g>
                <g id="data-backup" transform="translate(50.000000, 45.000000)" stroke-width="2" stroke="#FFFFFF">
                    <g id="Layer_1">
                        <polyline id="Shape" points="60 40.1033592 60 0 0 0 0 73.5228252 36.6666667 73.5228252"></polyline>
                        <path d="M0,23.3936262 L60,23.3936262" id="Shape"></path>
                        <path d="M0,50.129199 L36.6666667,50.129199" id="Shape"></path>
                        <path d="M77.6666667,73.5228252 C76.6666667,75.8621878 75,77.8673557 73,79.8725237 C64,88.8957795 49,88.8957795 40,79.8725237 C31,70.8492679 31,55.8105082 40,46.7872524 C49,37.7639966 64,37.7639966 73,46.7872524 C77,50.7975883 79.3333333,55.8105082 79.6666667,60.8234281" id="Shape"></path>
                        <polyline id="Shape" points="63.3333333 73.5228252 80 73.5228252 80 90.2325581"></polyline>
                    </g>
                </g>
            </g>
        </g>
    </g>
</svg>