<svg width="982" height="295" viewBox="0 0 982 295" xmlns="http://www.w3.org/2000/svg" xmlns:xlink="http://www.w3.org/1999/xlink"><title>clouds</title><defs><path id="a" d="M0 0h983v330H0z"/></defs><g transform="translate(-1)" fill="none" fill-rule="evenodd"><mask id="b" fill="#fff"><use xlink:href="#a"/></mask><use xlink:href="#a"/><path d="M774.574 195.17c4.748 23.083 16.07 45.082 33.962 62.992 48.713 48.765 127.695 48.765 176.41 0 48.714-48.764 48.714-127.826 0-176.59-35.426-35.46-86.858-45.134-131.015-29.02a94.752 94.752 0 0 0-14.604-18.844c-36.904-36.944-96.738-36.944-133.642 0a94.73 94.73 0 0 0-14.865 19.28c-4.8-19.885-14.955-38.74-30.463-54.264-44.918-44.965-117.744-44.965-162.662 0-44.92 44.964-44.92 117.864 0 162.828s117.745 44.964 162.663 0c9.42-9.43 16.867-20.092 22.336-31.465 4.47 13.674 12.132 26.53 22.99 37.4 18.98 18.998 44.024 28.226 68.895 27.683z" opacity=".287" fill="#FFF" mask="url(#b)"/><path d="M131.18 6.486c1.79-18.71-4.48-38.048-18.81-52.377-25.477-25.48-66.784-25.48-92.26 0-25.48 25.472-25.48 66.78 0 92.26 22.853 22.85 58.443 25.204 83.92 7.06A77.6 77.6 0 0 0 103 66.064c0 42.562 34.504 77.066 77.066 77.066 37.267 0 68.357-26.452 75.515-61.606 25.88 18.15 59.15 21.16 87.48 9.026 6.557 21.778 18.438 42.29 35.644 59.497 55.6 55.6 145.746 55.6 201.346 0 55.6-55.6 55.6-145.745 0-201.345-55.6-55.6-145.746-55.6-201.346 0-.456.458-.91.917-1.36 1.378a91.51 91.51 0 0 0-5.98-6.592c-35.312-35.312-92.564-35.312-127.875 0-15.42 15.42-24.11 35.026-26.06 55.16C206.356-7.5 193.62-11 180.063-11c-1.972 0-3.93.074-5.864.22-13.55-1.303-27.553 3.187-37.99 13.47a77.367 77.367 0 0 0-5.026 3.796z" opacity=".15" fill="#FFF" mask="url(#b)"/><path d="M503.694 58.657c4.7 10.356 11.31 20.057 19.827 28.573 38.03 38.028 99.687 38.028 137.71 0a97.32 97.32 0 0 0 17.698-24.172c18.526 12.568 43.946 10.644 60.362-5.772a47.747 47.747 0 0 0 6.885-8.698 90.858 90.858 0 0 0 11.312 13.77c35.31 35.313 92.563 35.313 127.875 0a90.38 90.38 0 0 0 16.3-22.2c6.88 15.183 16.56 29.405 29.04 41.887 55.6 55.6 145.746 55.6 201.346 0 55.6-55.6 55.6-145.745 0-201.345-55.6-55.6-145.745-55.6-201.345 0-18.286 18.287-30.56 40.312-36.816 63.615a91.18 91.18 0 0 0-8.524-9.83c-35.314-35.313-92.566-35.313-127.877 0-13.99 13.99-22.44 31.426-25.343 49.576-14.82-9.96-34.003-10.69-49.462-2.18-4.75-11.776-11.9-22.81-21.446-32.355-38.027-38.027-99.68-38.027-137.71 0a98.865 98.865 0 0 0-4.215 4.49C505.377-65.945 482.244-79 456.064-79 413.505-79 379-44.496 379-1.934c0 42.562 34.504 77.066 77.066 77.066 17.978 0 34.518-6.156 47.628-16.475z" fill="#002F47" mask="url(#b)"/></g></svg>