<?xml version="1.0" encoding="UTF-8" standalone="no"?>
<svg width="180px" height="180px" viewBox="0 0 180 180" version="1.1" xmlns="http://www.w3.org/2000/svg" xmlns:xlink="http://www.w3.org/1999/xlink">
    <!-- Generator: Sketch 39.1 (31720) - http://www.bohemiancoding.com/sketch -->
    <title>community</title>
    <desc>Created with Sketch.</desc>
    <defs></defs>
    <g id="Symbols" stroke="none" stroke-width="1" fill="none" fill-rule="evenodd">
        <g id="community">
            <g id="Group">
                <g id="2" fill="#B2E6EC">
                    <g id="Group-2">
                        <circle id="Oval-Copy" cx="90" cy="90" r="90"></circle>
                    </g>
                </g>
                <g id="helping-hand" transform="translate(50.000000, 50.000000)" stroke-width="2" stroke="#000000">
                    <g id="Layer_1">
                        <path d="M53.3333333,53.3333333 L70,53.3333333" id="Shape"></path>
                        <path d="M53.3333333,66.6666667 L66.6666667,66.6666667" id="Shape"></path>
                        <path d="M68.3966667,41.9166667 L72.4166667,29.6466667 L78.6966667,20.3666667 L56.9166667,1.4 C46.5633333,12.8133333 38.9566667,12.5366667 35.2333333,15.39 C31.51,18.2433333 26.08,23.3733333 26.6666667,36.6666667 L26.6666667,60 C26.6666667,60 38.7133333,59.8933333 40,50 L40,40 L61.22,39.9066667 C66.1633333,39.6433333 70.3833333,43.4733333 70.6,48.4166667 C70.6,48.4166667 68.4466667,64.86 67.4266667,70.0766667 C66.6933333,73.85 64.3533333,79.7666667 60,80 L26.6666667,80 L0,80 L0,50 L0,50 C6.02333333,47.6766667 9.04333333,43.18 11.77,40.0566667 C16.11,35.0833333 17.9733333,31.8533333 24.8933333,30.3366667" id="Shape"></path>
                    </g>
                </g>
            </g>
        </g>
    </g>
</svg>