<svg width="174" height="147" viewBox="0 0 174 147" xmlns="http://www.w3.org/2000/svg"><title>logo_docker</title><g fill="none" fill-rule="evenodd"><path d="M26.247 118.886V107.78c0-1.46.914-2.633 2.427-2.633h.42c1.51 0 2.42 1.174 2.42 2.632v23.38c0 5.7-2.82 10.24-7.736 13.13a14.54 14.54 0 0 1-7.44 2.025h-1.043c-5.71 0-10.25-2.82-13.147-7.727a14.455 14.455 0 0 1-2.03-7.43v-1.043c0-5.703 2.824-10.238 7.735-13.134a14.49 14.49 0 0 1 7.442-2.025h1.044c3.86 0 7.14 1.496 9.902 3.926zM5.387 130.64c0 4.12 1.998 7.217 5.612 9.192 1.46.8 3.042 1.228 4.71 1.228 4.05 0 7.05-1.907 9.12-5.334.964-1.594 1.41-3.337 1.41-5.19 0-3.572-1.69-6.36-4.57-8.428a9.836 9.836 0 0 0-5.858-1.884c-4.412 0-7.587 2.226-9.493 6.18-.644 1.338-.937 2.758-.937 4.237zm44.4-15.68h.73c6.1 0 10.742 2.956 13.683 8.277 1.176 2.128 1.805 4.45 1.805 6.884v1.048c0 5.702-2.815 10.246-7.738 13.13a14.58 14.58 0 0 1-7.438 2.027h-1.05c-5.71 0-10.25-2.82-13.147-7.725a14.456 14.456 0 0 1-2.03-7.43v-1.044c0-5.704 2.832-10.224 7.732-13.132 2.277-1.352 4.796-2.028 7.443-2.028zm-9.912 15.68c0 4 1.965 6.94 5.347 9.01 1.588.97 3.336 1.41 5.19 1.41 3.957 0 6.88-2.003 8.916-5.338.97-1.59 1.41-3.336 1.41-5.187 0-3.718-1.793-6.56-4.86-8.617a9.806 9.806 0 0 0-5.57-1.694c-4.413 0-7.59 2.226-9.494 6.18-.645 1.338-.94 2.758-.94 4.237zm48.025-9.996c-.795-.372-2.284-.496-3.143-.528-4.4-.166-7.584 2.31-9.452 6.186-.644 1.337-.94 2.753-.94 4.233 0 4.505 2.37 7.66 6.396 9.583 1.477.702 3.37.835 4.98.835 1.418 0 3.41-.865 4.67-1.46l.218-.103h.973l.108.02c1.198.25 2.102 1.01 2.102 2.296v.52c0 3.203-5.86 3.937-8.098 4.092-7.89.546-13.792-3.783-16.042-11.3a13.596 13.596 0 0 1-.566-3.963v-1.04c0-5.705 2.835-10.223 7.733-13.13a14.43 14.43 0 0 1 7.444-2.03h1.046c2.806 0 5.392.797 7.71 2.378l.19.132.12.198c.25.415.466.893.466 1.387v.52c0 1.343-1.006 2.065-2.22 2.3l-.1.017h-.312c-.786 0-2.572-.813-3.274-1.143zm17.083 3.562a563.49 563.49 0 0 1 6.175-6.1c.58-.56 2.77-2.937 3.632-2.937h.943l.108.02c1.207.25 2.107 1.01 2.107 2.3v.52c0 .88-1.03 1.9-1.6 2.5-1.21 1.28-2.484 2.52-3.723 3.773l-6.363 6.45c2.74 2.744 5.477 5.49 8.195 8.252a212.8 212.8 0 0 1 2.245 2.304c.26.275.646.617.866 1 .235.355.38.76.38 1.19v.542l-.03.125c-.296 1.2-1.06 2.17-2.39 2.17h-.42c-.87 0-1.855-.987-2.452-1.55-1.23-1.157-2.417-2.375-3.622-3.56l-4.043-3.963v6.336c0 1.46-.917 2.634-2.428 2.634h-.414c-1.513 0-2.426-1.173-2.426-2.632v-35.7c0-1.46.915-2.626 2.426-2.626h.416c1.51 0 2.427 1.167 2.427 2.627v16.33zm65.643-9.037h.522c1.58 0 2.634 1.06 2.634 2.63 0 2.173-2.084 2.73-3.888 2.73-2.365 0-4.623 1.43-6.254 3.035-2.033 2-2.923 4.565-2.923 7.383v12.734c0 1.46-.912 2.632-2.427 2.632h-.415c-1.513 0-2.426-1.17-2.426-2.633v-13.46c0-5.17 2.52-9.39 6.72-12.353 2.51-1.768 5.38-2.7 8.45-2.7zm-37.434 25.23c1.916.667 4.102.572 6.068.23 1.006-.427 3.578-1.547 4.524-1.383l.148.025.136.067c.577.28 1.13.674 1.424 1.26.69 1.378.358 2.76-.996 3.54l-.45.26c-4.997 2.88-10.31 2.483-15.29-.207-2.38-1.285-4.203-3.194-5.546-5.52l-.315-.544c-3.207-5.548-2.774-11.384.843-16.66 1.25-1.822 2.88-3.23 4.79-4.333l.72-.414c4.706-2.713 9.748-2.528 14.58-.147 2.598 1.28 4.704 3.19 6.154 5.7l.26.45c1.055 1.82-.31 3.41-1.72 4.5-1.635 1.26-3.286 2.772-4.853 4.123-3.5 3.012-6.99 6.032-10.48 9.05zm-4.523-3.174a5052.81 5052.81 0 0 0 11.71-10.057c1.33-1.15 2.792-2.34 4.114-3.546-1.062-1.336-2.833-2.298-4.338-2.87-3.038-1.158-6.034-.77-8.82.836-3.647 2.104-5.2 5.453-5.063 9.62.053 1.64.495 3.223 1.368 4.62.308.49.65.954 1.02 1.395z" fill="#E6E6E5"/><path d="M100.245 31.824h15.542v15.868h7.86c3.627 0 7.36-.646 10.797-1.81 1.688-.57 3.584-1.367 5.25-2.368-2.194-2.86-3.314-6.473-3.644-10.034-.448-4.843.53-11.146 3.812-14.937l1.634-1.887 1.947 1.563c4.9 3.93 9.023 9.422 9.75 15.69 5.902-1.737 12.83-1.326 18.033 1.672l2.134 1.23-1.123 2.19c-4.4 8.576-13.597 11.232-22.59 10.762-13.456 33.472-42.75 49.32-78.27 49.32-18.35 0-35.188-6.853-44.775-23.114l-.158-.264-1.396-2.838c-3.24-7.16-4.318-15-3.587-22.835l.22-2.348h13.29v-15.86h15.54V16.3H81.6V.78h18.65v31.044" fill="#364548"/><path d="M150.598 37.694c1.043-8.088-5.018-14.442-8.777-17.46-4.33 5.003-5 18.11 1.797 23.63-3.792 3.365-11.784 6.414-19.966 6.414H24.04c-.795 8.53.705 16.387 4.13 23.112l1.133 2.07c.717 1.216 1.5 2.39 2.348 3.52 4.1.262 7.877.352 11.33.276 6.79-.15 12.33-.95 16.527-2.403a1.196 1.196 0 1 1 .783 2.258 32.97 32.97 0 0 1-1.74.55h-.004c-3.305.944-6.85 1.58-11.423 1.86.27.005-.282.04-.284.04-.157.01-.35.034-.51.04-1.8.1-3.742.124-5.73.124-2.17 0-4.31-.04-6.7-.162l-.06.04c8.294 9.314 21.27 14.9 37.54 14.9 34.42 0 63.62-15.24 76.55-49.457 9.174.94 17.99-1.396 22-9.214-6.388-3.685-14.603-2.51-19.333-.137" fill="#22A0C8"/><path d="M150.598 37.694c1.043-8.088-5.018-14.442-8.777-17.46-4.33 5.003-5 18.11 1.797 23.63-3.792 3.365-11.784 6.414-19.966 6.414H29.94c-.408 13.065 4.447 22.983 13.036 28.978 6.79-.15 12.328-.95 16.526-2.403a1.196 1.196 0 1 1 .783 2.258 32.97 32.97 0 0 1-1.74.55h-.003c-3.305.944-7.154 1.66-11.727 1.94 0 0-.11-.104-.112-.103 11.715 6.002 28.703 5.98 48.18-1.492 21.838-8.38 42.16-24.342 56.34-42.6a15.81 15.81 0 0 0-.625.295" fill="#37B1D9"/><path d="M24.227 60.643c.62 4.57 1.957 8.85 3.942 12.747l1.13 2.07c.715 1.216 1.5 2.39 2.35 3.52 4.093.262 7.87.352 11.323.276 6.788-.15 12.327-.95 16.525-2.403a1.196 1.196 0 1 1 .783 2.258 32.97 32.97 0 0 1-1.74.55h-.002c-3.303.944-7.132 1.62-11.705 1.9-.157.01-.43.01-.59.02-1.798.1-3.72.164-5.707.164-2.172 0-4.393-.04-6.784-.162 8.3 9.314 21.356 14.92 37.622 14.92 29.472 0 55.112-11.17 69.994-35.856H24.228" fill="#1B81A5"/><path d="M30.835 60.643c1.762 8.024 5.996 14.323 12.142 18.613 6.788-.15 12.327-.95 16.525-2.403a1.196 1.196 0 1 1 .783 2.258 32.97 32.97 0 0 1-1.74.55h-.003c-3.305.944-7.215 1.62-11.788 1.9 11.716 6 28.654 5.915 48.128-1.56 11.782-4.52 23.12-11.25 33.294-19.355h-97.34" fill="#1D91B4"/><path d="M37.56 34.41h13.47v13.454H37.56V34.41zm1.122 1.122h1.063v11.212h-1.063V35.532zm1.998 0h1.106v11.212H40.68V35.532zm2.04 0h1.106v11.212H42.72V35.532zm2.042 0h1.106v11.212h-1.106V35.532zm2.04 0h1.107v11.212H46.8V35.532zm2.042 0h1.063v11.212h-1.063V35.532zM53.1 18.888h13.472V32.34h-13.47V18.89zm1.124 1.122h1.062v11.21h-1.062V20.01zm2 0h1.104v11.21h-1.105V20.01zm2.04 0h1.104v11.21h-1.105V20.01zm2.04 0h1.105v11.21H60.3V20.01zm2.04 0h1.107v11.21h-1.1V20.01zm2.04 0h1.066v11.21h-1.065V20.01z" fill="#23A3C2"/><path d="M53.1 34.41h13.472v13.454h-13.47V34.41zm1.124 1.122h1.062v11.212h-1.062V35.532zm2 0h1.104v11.212h-1.105V35.532zm2.04 0h1.104v11.212h-1.105V35.532zm2.04 0h1.105v11.212H60.3V35.532zm2.04 0h1.107v11.212h-1.1V35.532zm2.04 0h1.066v11.212h-1.065V35.532z" fill="#34BBDE"/><path d="M68.643 34.41h13.47v13.454h-13.47V34.41zm1.123 1.122h1.062v11.212h-1.062V35.532zm1.998 0h1.106v11.212h-1.106V35.532zm2.04 0h1.107v11.212h-1.1V35.532zm2.042 0h1.106v11.212h-1.106V35.532zm2.04 0h1.107v11.212h-1.106V35.532zm2.042 0h1.063v11.212h-1.06V35.532z" fill="#23A3C2"/><path d="M68.643 18.888h13.47V32.34h-13.47V18.89zm1.123 1.122h1.062v11.21h-1.062V20.01zm1.998 0h1.106v11.21h-1.106V20.01zm2.04 0h1.107v11.21h-1.1V20.01zm2.042 0h1.106v11.21h-1.106V20.01zm2.04 0h1.107v11.21h-1.106V20.01zm2.042 0h1.063v11.21h-1.06V20.01zm4.257 14.4h13.47v13.454h-13.47V34.41zm1.123 1.122h1.063v11.212h-1.06V35.532zm2 0h1.104v11.212h-1.105V35.532zm2.04 0h1.104v11.212h-1.105V35.532zm2.04 0h1.106v11.212h-1.106V35.532zm2.04 0h1.107v11.212H93.43V35.532zm2.042 0h1.063v11.212H95.47V35.532z" fill="#34BBDE"/><path d="M84.185 18.888h13.47V32.34h-13.47V18.89zm1.123 1.122h1.063v11.21h-1.06V20.01zm2 0h1.104v11.21h-1.105V20.01zm2.04 0h1.104v11.21h-1.105V20.01zm2.04 0h1.106v11.21h-1.106V20.01zm2.04 0h1.107v11.21H93.43V20.01zm2.042 0h1.063v11.21H95.47V20.01z" fill="#23A3C2"/><path d="M84.185 3.366h13.47V16.82h-13.47V3.365zm1.123 1.12h1.063v11.212h-1.06V4.486zm2 0h1.104v11.212h-1.105V4.486zm2.04 0h1.104v11.212h-1.105V4.486zm2.04 0h1.106v11.212h-1.106V4.486zm2.04 0h1.107v11.212H93.43V4.486zm2.042 0h1.063v11.212H95.47V4.486z" fill="#34BBDE"/><path d="M99.727 34.41h13.47v13.454h-13.47V34.41zm1.122 1.122h1.06v11.212h-1.066V35.532zm1.992 0h1.106v11.212h-1.106V35.532zm2.042 0h1.104v11.212h-1.105V35.532zm2.04 0h1.105v11.212h-1.106V35.532zm2.04 0h1.106v11.212h-1.104V35.532zm2.042 0h1.062v11.212h-1.064V35.532z" fill="#23A3C2"/><path d="M65.728 69.676a3.714 3.714 0 0 1 3.716 3.71 3.714 3.714 0 0 1-3.716 3.712 3.714 3.714 0 0 1-3.716-3.71 3.714 3.714 0 0 1 3.716-3.712" fill="#D3ECEC"/><path d="M65.728 70.73c.34 0 .665.063.964.18a1.085 1.085 0 1 0 1.495 1.458 2.66 2.66 0 0 1-2.46 3.677 2.66 2.66 0 0 1-2.66-2.658 2.66 2.66 0 0 1 2.66-2.658M0 61.98h172.863c-3.764-.954-11.91-2.242-10.565-7.168-6.844 7.91-23.35 5.55-27.515 1.648-4.64 6.72-31.642 4.166-33.526-1.07-5.815 6.817-23.835 6.817-29.65 0-1.884 5.236-28.888 7.79-33.527 1.07-4.165 3.9-20.67 6.26-27.514-1.648 1.344 4.927-6.8 6.214-10.566 7.17" fill="#364548"/><path d="M75.607 96.42c-9.203-4.36-14.255-10.29-17.065-16.763-3.418.975-7.528 1.598-12.302 1.866-1.8.1-3.69.152-5.676.152-2.29 0-4.7-.068-7.233-.202 8.44 8.424 18.828 14.91 38.05 15.028 1.42 0 2.83-.022 4.23-.08" fill="#BDD9D7"/><path d="M61.96 85.63c-1.273-1.726-2.508-3.896-3.416-5.974-3.42.975-7.53 1.6-12.304 1.867 3.28 1.777 7.97 3.425 15.72 4.107" fill="#D3ECEC"/></g></svg>