<svg xmlns="http://www.w3.org/2000/svg" viewBox="0 0 667 461"><g fill="none" fill-rule="evenodd"><g fill="#D1ECFB" opacity=".3"><path d="M633 34.63c-45.17-45.14-118.36-45.14-163.5 0-.4.37-.75.74-1.12 1.12-1.5-1.85-3.13-3.63-4.86-5.36-.9-.9-1.8-1.8-2.73-2.6C441.2 7.5 412.1-.5 384.9 7c-27.17 7.5-48.06 29.3-54.42 56.8-17.6 1.3-32.5 13.44-37.37 30.4-4.8 16.96 1.4 35.16 15.7 45.57 14.3 10.42 33.5 10.86 48.2 1.1 23.4 18.97 55.6 22.6 82.6 9.3l1.1-.43c13.98 46.07 55 78.7 103 81.9 48.1 3.2 93.1-23.73 113-67.58 19.9-43.86 10.54-95.45-23.5-129.5z"/><path d="M221.8 171.04c7.54 36.32 36.87 64.12 73.54 69.7 36.67 5.6 72.96-12.18 91-44.6 18.04-32.4 14.03-72.6-10.05-100.83-24.1-28.2-63.2-38.4-98-25.7C266.1 49 244 36.4 220.1 36.5c-23.87.04-45.93 12.75-57.96 33.4-9.42-38.7-45.3-64.98-85-62.3-39.7 2.6-71.74 33.43-75.9 73-4.18 39.58 20.73 76.43 59 87.3 38.3 10.9 78.86-7.34 96.13-43.2 9.24 28.15 35.8 46.96 65.42 46.32z"/></g><g transform="translate(180 136)"><path fill="#81D4DC" fill-rule="nonzero" d="M43.25 204.58h240.7v119.6H43.25z"/><path fill="#1D1D1B" fill-rule="nonzero" d="M50.33 211.67h226.53V317.1H50.33z" opacity=".05"/><path fill="#1D1D1B" fill-rule="nonzero" d="M274.03 214.5v99.75H53.17V214.5h220.86zm2.83-2.83H50.33V317.1h226.53V211.66z" opacity=".1"/><path fill="#7DADBA" fill-rule="nonzero" d="M164.26 219.98c-1 0-1.96.4-2.66 1.1-.7.7-1.1 1.67-1.1 2.66v82.53c0 1.35.7 2.6 1.87 3.27 1.17.67 2.6.67 3.77 0 1.17-.68 1.9-1.92 1.9-3.27v-82.53c0-1-.4-1.95-1.12-2.66-.7-.7-1.66-1.1-2.66-1.1zm-18.76 0c-1 0-1.96.4-2.67 1.1-.7.7-1.1 1.67-1.1 2.66v82.53c0 1.35.7 2.6 1.88 3.27 1.2.67 2.6.67 3.8 0 1.2-.68 1.9-1.92 1.9-3.27v-82.53c0-1-.4-1.95-1.1-2.66-.7-.7-1.6-1.1-2.6-1.1zm-18.7 0c-1 0-1.96.4-2.67 1.1-.7.7-1.1 1.67-1.1 2.66v82.53c0 1.35.72 2.6 1.88 3.27 1.2.67 2.7.67 3.8 0 1.2-.68 1.9-1.92 1.9-3.27v-82.53c0-2.06-1.7-3.72-3.7-3.76zm-18.77 0c-1 0-1.96.4-2.66 1.1-.7.7-1.1 1.67-1.1 2.66v82.53c0 1.35.7 2.6 1.88 3.27 1.16.67 2.6.67 3.77 0 1.16-.68 1.88-1.92 1.88-3.27v-82.53c-.02-2.07-1.7-3.74-3.77-3.76zm131.3 0c-1 0-1.97.4-2.67 1.1-.7.7-1.1 1.67-1.1 2.66v82.53c0 1.35.7 2.6 1.87 3.27 1.17.67 2.6.67 3.77 0 1.17-.68 1.9-1.92 1.88-3.27v-82.53c-.04-2.06-1.7-3.72-3.76-3.76zm18.7 0c-1 0-1.97.4-2.68 1.1-.7.7-1.1 1.67-1.1 2.66v82.53c0 1.35.72 2.6 1.88 3.27 1.17.67 2.6.67 3.77 0 1.17-.68 1.9-1.92 1.88-3.27v-82.53c0-1-.4-1.95-1.1-2.66-.7-.7-1.66-1.1-2.66-1.1zm-168.76 0c-1 0-1.96.4-2.67 1.1-.7.7-1.1 1.67-1.1 2.66v82.53c0 1.35.72 2.6 1.88 3.27 1.17.67 2.6.67 3.77 0 1.17-.68 1.9-1.92 1.88-3.27v-82.53c-.02-2.07-1.7-3.74-3.76-3.76zm-18.77 0c-1 0-1.95.4-2.66 1.1-.7.7-1.1 1.67-1.1 2.66v82.53c0 1.35.7 2.6 1.88 3.27 1.16.67 2.6.67 3.77 0 1.1-.68 1.8-1.92 1.8-3.27v-82.53c0-1-.4-1.95-1.1-2.66-.7-.7-1.7-1.1-2.7-1.1zm150.05 0c-1 0-1.95.4-2.66 1.1-.8.7-1.1 1.67-1.1 2.66v82.53c0 1.35.7 2.6 1.8 3.27 1.1.67 2.6.67 3.7 0 1.12-.68 1.9-1.92 1.9-3.27v-82.53c0-2.07-1.7-3.74-3.8-3.76zm-18.75 0c-1 0-1.97.4-2.67 1.1-.7.7-1.1 1.67-1.1 2.66v82.53c0 1.35.7 2.6 1.87 3.27 1.17.67 2.6.67 3.77 0 1.17-.68 1.9-1.92 1.9-3.27v-82.53c-.04-2.07-1.7-3.74-3.78-3.76zm-18.78 0c-1 0-1.95.4-2.66 1.1-.7.7-1.1 1.67-1.1 2.66v82.53c0 1 .4 1.96 1.1 2.66.7.7 1.67 1.1 2.66 1.1 1 .02 1.97-.38 2.68-1.08.7-.7 1.1-1.68 1.1-2.68v-82.53c-.03-2.07-1.7-3.74-3.78-3.76z"/><path fill="#91EAF3" fill-rule="nonzero" d="M163.6 219.32c-1 0-1.96.4-2.66 1.1-.7.7-1.1 1.66-1.1 2.66v82.53c0 1.4.7 2.6 1.87 3.3 1.2.7 2.7.7 3.8 0 1.2-.7 1.9-1.9 1.9-3.2v-82.6c0-1-.4-1.9-1.1-2.6-.7-.7-1.6-1.1-2.6-1.1zm-18.77 0c-1 0-1.95.4-2.66 1.1-.7.7-1.1 1.66-1.1 2.66v82.53c0 1.4.7 2.6 1.88 3.3 1.17.7 2.6.7 3.77 0s1.88-1.9 1.88-3.2v-82.6c0-1-.4-1.9-1.1-2.6-.7-.7-1.67-1.1-2.67-1.1zm-18.7 0c-1 0-1.95.4-2.66 1.1-.7.7-1.1 1.66-1.1 2.66v82.53c0 1.4.7 2.6 1.88 3.3 1.17.7 2.6.7 3.77 0s1.88-1.9 1.88-3.2v-82.6c-.04-2-1.7-3.7-3.76-3.7zm-18.76 0c-1 0-1.96.4-2.66 1.1-.7.7-1.1 1.66-1.1 2.66v82.53c0 1.4.8 2.6 1.9 3.3 1.2.7 2.6.7 3.8 0 1.2-.7 1.9-1.9 1.9-3.2v-82.6c0-2-1.7-3.7-3.7-3.7zm131.3 0c-1 0-1.97.4-2.68 1.1-.7.7-1.1 1.66-1.1 2.66v82.53c0 1.4.7 2.6 1.8 3.3 1.1.7 2.6.7 3.7 0s1.9-1.9 1.9-3.2v-82.6c-.1-2-1.7-3.7-3.8-3.7zm18.7 0c-1 0-1.97.4-2.68 1.1-.7.7-1.1 1.66-1.1 2.66v82.53c0 1.4.7 2.6 1.8 3.3 1.1.7 2.6.7 3.7 0s1.9-1.9 1.9-3.2v-82.6c0-1-.4-1.9-1.1-2.6-.7-.7-1.7-1.1-2.7-1.1zm-168.77 0c-1 0-1.95.4-2.66 1.1-.7.7-1.1 1.66-1.1 2.66v82.53c0 1.4.72 2.6 1.88 3.3 1.17.7 2.6.7 3.77 0 1.1-.7 1.8-1.9 1.8-3.2v-82.6c0-2-1.7-3.7-3.8-3.7zm-18.76 0c-1 0-1.96.4-2.66 1.1-.7.7-1.1 1.66-1.1 2.66v82.53c0 1.4.7 2.6 1.88 3.3 1.16.7 2.6.7 3.77 0 1.16-.7 1.88-1.9 1.88-3.2v-82.6c0-1-.4-1.9-1.1-2.6-.7-.7-1.6-1.1-2.6-1.1zm150.06 0c-1 0-1.96.4-2.67 1.1-.7.7-1.1 1.66-1.1 2.66v82.53c0 1.4.7 2.6 1.88 3.3 1.2.7 2.6.7 3.8 0 1.2-.7 1.9-1.9 1.9-3.2v-82.6c0-2-1.7-3.7-3.7-3.7zm-18.77 0c-1 0-1.96.4-2.67 1.1-.7.7-1.1 1.66-1.1 2.66v82.53c0 1.4.72 2.6 1.88 3.3 1.17.7 2.6.7 3.77 0 1.2-.7 1.9-1.9 1.9-3.2v-82.6c0-2-1.7-3.7-3.7-3.7zm-18.77 0c-1 0-1.95.4-2.66 1.1-.7.7-1.1 1.66-1.1 2.66v82.53c0 1 .4 2 1.1 2.7.7.7 1.66 1.1 2.66 1.1 1 0 1.97-.4 2.68-1.1.7-.7 1.1-1.6 1.1-2.6v-82.6c-.03-2-1.7-3.7-3.78-3.7z"/><path stroke="#000" stroke-width="1.27" d="M63.54 194.66c0-1.8 1.45-3.23 3.23-3.23 1.8 0 3.23 1.44 3.23 3.23 0 1.78-1.44 3.23-3.23 3.23v1.6" stroke-linecap="round" stroke-linejoin="round"/><circle cx="94.35" cy="44.72" r="30.81" fill="#C2D64C" fill-rule="nonzero"/><circle cx="83.34" cy="29.19" r="9.63" fill="#FFF" fill-rule="nonzero" opacity=".4"/><path fill="#C2D64C" fill-rule="nonzero" d="M101.08 82.52H86.23l4.95-9.16h4.95"/><path fill="#000" fill-rule="nonzero" d="M99.43 76.26c0 .6-.5 1.1-1.1 1.1H89.2c-.62 0-1.1-.5-1.1-1.1 0-.3.1-.58.3-.78.22-.2.5-.33.8-.33h9.13c.3 0 .57.12.78.33.3.2.4.5.4.78z"/><path stroke="#000" stroke-width="1.27" d="M93.66 77.37l-26.9 114.05" stroke-linecap="round" stroke-linejoin="round"/><circle cx="30.92" cy="31.17" r="30.81" fill="#002F47" fill-rule="nonzero"/><circle cx="19.92" cy="15.63" r="9.63" fill="#FFF" fill-rule="nonzero" opacity=".4"/><path fill="#002F47" fill-rule="nonzero" d="M37.66 68.96H22.8l4.96-9.16h4.95"/><path fill="#000" fill-rule="nonzero" d="M36 62.7c0 .62-.48 1.1-1.1 1.1h-9.12c-.62 0-1.1-.48-1.1-1.1 0-.3.1-.57.3-.78.22-.2.5-.32.8-.32h9.12c.3 0 .58.1.8.32.2.2.3.5.3.8z"/><path stroke="#000" stroke-width="1.27" d="M30.24 63.8l36.53 130.12" stroke-linecap="round" stroke-linejoin="round"/><circle cx="66.41" cy="107.04" r="33.89" fill="#FFD301" fill-rule="nonzero"/><circle cx="54.31" cy="89.95" r="10.59" fill="#FFF" fill-rule="nonzero" opacity=".4"/><path fill="#FFD301" fill-rule="nonzero" d="M73.83 148.62H57.5l5.43-10.08h5.45"/><path fill="#000" fill-rule="nonzero" d="M72 141.73c0 .68-.53 1.22-1.2 1.22H60.74c-.67 0-1.22-.54-1.22-1.22 0-.32.13-.63.36-.86.22-.23.53-.36.85-.36H70.8c.32 0 .63.2.86.4.22.3.35.6.35.9z"/><path stroke="#000" stroke-width="1.27" d="M65.66 142.95v48.47m179.42 3.24c0-1.8 1.45-3.23 3.23-3.23 1.8 0 3.3 1.44 3.3 3.23 0 1.78-1.4 3.23-3.2 3.23v1.6" stroke-linecap="round" stroke-linejoin="round"/><circle cx="247.84" cy="46.91" r="30.81" fill="#FFD301" fill-rule="nonzero"/><circle cx="236.83" cy="31.37" r="9.63" fill="#FFF" fill-rule="nonzero" opacity=".4"/><path fill="#FFD301" fill-rule="nonzero" d="M254.57 84.7h-14.85l4.95-9.16h4.95"/><path fill="#000" fill-rule="nonzero" d="M252.92 78.44c0 .6-.5 1.1-1.1 1.1h-9.13c-.7 0-1.2-.48-1.2-1.1 0-.3.1-.57.3-.78.2-.2.5-.33.8-.33h9.1c.3 0 .6.12.8.33.2.2.3.5.3.78z"/><path stroke="#000" stroke-width="1.27" d="M247.15 79.55v115.9" stroke-linecap="round" stroke-linejoin="round"/><circle cx="266.97" cy="98.64" r="30.81" fill="#15B0BF" fill-rule="nonzero"/><circle cx="255.97" cy="83.1" r="9.63" fill="#FFF" fill-rule="nonzero" opacity=".4"/><path fill="#15B0BF" fill-rule="nonzero" d="M273.7 136.43h-14.84l4.95-9.16h5"/><path fill="#000" fill-rule="nonzero" d="M272.06 130.18c0 .6-.5 1.1-1.1 1.1h-9.14c-.6 0-1.1-.5-1.1-1.1 0-.3.1-.58.32-.8.2-.2.5-.3.78-.3h9.13c.3 0 .58.1.8.3.2.22.3.5.3.8z"/><path stroke="#000" stroke-width="1.27" d="M266.28 131.3l-21.2 66.76" stroke-linecap="round" stroke-linejoin="round"/><circle cx="216.2" cy="83.39" r="30.81" fill="#FF931E" fill-rule="nonzero"/><circle cx="205.2" cy="67.85" r="9.63" fill="#FFF" fill-rule="nonzero" opacity=".4"/><path fill="#FF931E" fill-rule="nonzero" d="M222.94 121.18H208.1l4.94-9.16H218"/><path fill="#000" fill-rule="nonzero" d="M221.3 114.93c0 .6-.5 1.1-1.12 1.1h-9.13c-.6 0-1.1-.5-1.1-1.1 0-.3.1-.58.32-.8.2-.2.5-.32.78-.3h9.13c.3 0 .58.1.8.3.2.22.3.5.3.8z"/><path stroke="#000" stroke-width="1.27" d="M215.5 116.03l33.5 77.9" stroke-linecap="round" stroke-linejoin="round"/></g></g></svg>
