<svg width="560" height="550" viewBox="0 0 560 550" xmlns="http://www.w3.org/2000/svg"><title>feature_process</title><g fill="none" fill-rule="evenodd"><path d="M498.38 275.5c0 120.454-97.648 218.102-218.102 218.102-120.454 0-218.102-97.648-218.102-218.102 0-120.454 97.648-218.102 218.102-218.102 120.454 0 218.102 97.648 218.102 218.102z" stroke="#15B0BF" stroke-width="3" stroke-linecap="round" stroke-dasharray="0,10.003" opacity=".5"/><path d="M345.575 94.114c49.55 17.84 89.68 55.405 110.922 103.22" stroke="#002F47" stroke-linecap="round"/><path d="M453.018 196.652l6.886 8.862-1.532-11.12-5.354 2.258z" fill="#002F47"/><path d="M460.886 341.575c-17.84 49.55-55.405 89.68-103.22 110.922" stroke="#002F47" stroke-linecap="round"/><path d="M358.348 449.018l-8.862 6.886 11.12-1.532-2.258-5.354z" fill="#002F47"/><path d="M213.425 456.886c-49.55-17.84-89.68-55.405-110.922-103.22" stroke="#002F47" stroke-linecap="round"/><path d="M105.982 354.348l-6.886-8.862 1.532 11.12 5.354-2.258z" fill="#002F47"/><path d="M98.114 209.425c17.84-49.55 55.405-89.68 103.22-110.922" stroke="#002F47" stroke-linecap="round"/><path d="M200.652 101.982l8.862-6.886-11.12 1.532 2.258 5.354z" fill="#002F47"/><path d="M218.328 62.383c0-34.24 27.758-62 62-62 34.24 0 62 27.76 62 62 0 34.242-27.76 62-62 62-34.242 0-62-27.758-62-62" fill="#FFD301"/><g stroke="#000" stroke-width="1.25" stroke-linejoin="round"><path d="M299.125 26.732h-37.742v20.38l9.435 20.382h18.87l9.437-20.25v-20.51z"/><path d="M291.262 87.876c0 6.06-4.926 10.974-11.008 10.974-6.08 0-11.01-4.914-11.01-10.974 0-6.065 4.93-10.975 11.01-10.975V67.5" stroke-linecap="round"/><path d="M272.59 67.56l26.663-26.59m-32.927 17.15l31.487-31.39m-36.626 20.84l20.737-20.676"/></g><path d="M219 488c0-34.242 27.758-62 62-62 34.242 0 62 27.758 62 62 0 34.242-27.758 62-62 62-34.242 0-62-27.758-62-62" fill="#002F47"/><g stroke="#FFF" stroke-width="1.25" stroke-linejoin="round"><path d="M285.865 454.06l26.38 27.245V454.06h-26.38zm6.654 7.222l13.31 13.347-23.48 23.55-13.31-13.348 23.48-23.554z"/><path d="M279.255 516.843c-11.583-8.114-.017-20.7-.017-20.7l.525-.548m2.838 30.132l4.44-4.45m11.03 4.45l-4.44-4.45m-11.03-11.24l4.44 4.453m11.03-4.452l-4.44 4.452m-44.37 3.524l26.46-26.475" stroke-linecap="round"/></g><path d="M497.328 209.383c34.24 0 62 27.76 62 62 0 34.242-27.76 62-62 62-34.242 0-62-27.758-62-62 0-34.24 27.758-62 62-62z" fill="#15B0BF"/><g stroke="#000" stroke-width="1.25" stroke-linejoin="round"><path d="M499.208 260.393c6.04 0 10.938 4.898 10.938 10.938 0 6.04-4.898 10.94-10.938 10.94-6.04 0-10.937-4.895-10.937-10.935s4.9-10.937 10.94-10.937z"/><path d="M499.208 266.643a4.688 4.688 0 1 1 0 9.375 4.688 4.688 0 0 1 0-9.375z"/><path d="M499.208 244.768c14.67 0 26.563 11.893 26.563 26.563 0 14.67-11.89 26.567-26.56 26.567-14.67 0-26.56-11.892-26.56-26.562 0-14.67 11.89-26.562 26.56-26.562z"/><path d="M533.65 271.384h-23.492m-21.965 0h-23.36m58.706 24.362l-16.51-16.506m-15.658-15.652l-16.5-16.498m48.663 0l-16.453 16.448m-15.748 15.746l-16.463 16.462m24.333-58.737v23.38m0 21.875v23.555" stroke-linecap="round"/></g><g stroke="#000" stroke-linejoin="round"><path d="M499.167 262.515a8.75 8.75 0 1 1-.002 17.5 8.75 8.75 0 0 1 .002-17.5z"/><path d="M499.167 267.515a3.75 3.75 0 1 1 0 7.5 3.75 3.75 0 0 1 0-7.5z"/><path d="M499.167 250.015c11.736 0 21.25 9.514 21.25 21.25s-9.514 21.25-21.25 21.25-21.25-9.514-21.25-21.25 9.514-21.25 21.25-21.25z"/><path d="M526.72 271.307h-18.794m-17.572 0h-18.688m46.965 19.49l-13.202-13.205M492.9 265.07l-13.2-13.198m38.93 0l-13.16 13.158m-12.6 12.597l-13.17 13.17m19.467-46.99v18.708m0 17.5v18.845" stroke-linecap="round"/></g><path d="M.328 271.383c0-34.24 27.758-62 62-62 34.24 0 62 27.76 62 62 0 34.242-27.76 62-62 62-34.242 0-62-27.758-62-62" fill="#B2E6EC"/><path d="M26 271.053h18.783L54.173 240l9.392 59 9.392-43.474 6.26 15.527H98" stroke="#000" stroke-width="1.25" stroke-linecap="round" stroke-linejoin="round"/><path d="M245.176 171v-17.196h5.484c1.056 0 1.966.104 2.73.312.764.208 1.392.504 1.884.888s.856.854 1.092 1.41c.236.556.354 1.182.354 1.878 0 .424-.066.832-.198 1.224a3.568 3.568 0 0 1-.6 1.092 4.242 4.242 0 0 1-1.008.9c-.404.264-.878.48-1.422.648 1.256.248 2.204.7 2.844 1.356.64.656.96 1.52.96 2.592a4.83 4.83 0 0 1-.402 1.992c-.268.6-.66 1.116-1.176 1.548-.516.432-1.148.766-1.896 1.002s-1.602.354-2.562.354h-6.084zm2.328-7.836v5.988h3.72c.664 0 1.234-.076 1.71-.228.476-.152.868-.366 1.176-.642a2.49 2.49 0 0 0 .678-.984c.144-.38.216-.798.216-1.254 0-.888-.314-1.59-.942-2.106-.628-.516-1.578-.774-2.85-.774h-3.708zm0-1.656h3.072c.656 0 1.224-.072 1.704-.216.48-.144.878-.344 1.194-.6.316-.256.55-.566.702-.93.152-.364.228-.762.228-1.194 0-1.008-.304-1.748-.912-2.22-.608-.472-1.552-.708-2.832-.708h-3.156v5.868zm21.084 7.644c.712 0 1.348-.12 1.908-.36a4.002 4.002 0 0 0 1.422-1.008 4.41 4.41 0 0 0 .888-1.548c.204-.6.306-1.26.306-1.98v-10.452h2.316v10.452c0 .992-.158 1.912-.474 2.76a6.412 6.412 0 0 1-1.356 2.202 6.2 6.2 0 0 1-2.154 1.458c-.848.352-1.8.528-2.856.528-1.056 0-2.008-.176-2.856-.528a6.263 6.263 0 0 1-2.16-1.458 6.366 6.366 0 0 1-1.362-2.202 7.843 7.843 0 0 1-.474-2.76v-10.452h2.316v10.44c0 .72.102 1.38.306 1.98.204.6.5 1.116.888 1.548.388.432.864.77 1.428 1.014s1.202.366 1.914.366zM283.384 171h-2.328v-17.196h2.328V171zm8.136-1.956h7.44V171h-9.768v-17.196h2.328v15.24zm26.112-6.636c0 1.288-.204 2.46-.612 3.516-.408 1.056-.984 1.96-1.728 2.712a7.704 7.704 0 0 1-2.676 1.746c-1.04.412-2.192.618-3.456.618h-6.432v-17.196h6.432c1.264 0 2.416.206 3.456.618a7.662 7.662 0 0 1 2.676 1.752 7.86 7.86 0 0 1 1.728 2.718c.408 1.056.612 2.228.612 3.516zm-2.388 0c0-1.056-.144-2-.432-2.832-.288-.832-.696-1.536-1.224-2.112a5.22 5.22 0 0 0-1.92-1.32c-.752-.304-1.588-.456-2.508-.456h-4.092v13.428h4.092c.92 0 1.756-.152 2.508-.456a5.254 5.254 0 0 0 1.92-1.314c.528-.572.936-1.274 1.224-2.106.288-.832.432-1.776.432-2.832zm-157.912 110c0 1.288-.204 2.47-.612 3.546-.408 1.076-.984 2.002-1.728 2.778a7.723 7.723 0 0 1-2.682 1.806c-1.044.428-2.198.642-3.462.642-1.264 0-2.416-.214-3.456-.642a7.736 7.736 0 0 1-2.676-1.806c-.744-.776-1.32-1.702-1.728-2.778-.408-1.076-.612-2.258-.612-3.546 0-1.288.204-2.47.612-3.546a8.185 8.185 0 0 1 1.728-2.784 7.765 7.765 0 0 1 2.676-1.818c1.04-.432 2.192-.648 3.456-.648 1.264 0 2.418.216 3.462.648a7.752 7.752 0 0 1 2.682 1.818 8.185 8.185 0 0 1 1.728 2.784c.408 1.076.612 2.258.612 3.546zm-2.388 0c0-1.056-.144-2.004-.432-2.844-.288-.84-.696-1.55-1.224-2.13a5.31 5.31 0 0 0-1.92-1.338c-.752-.312-1.592-.468-2.52-.468-.92 0-1.756.156-2.508.468a5.37 5.37 0 0 0-1.926 1.338c-.532.58-.942 1.29-1.23 2.13-.288.84-.432 1.788-.432 2.844 0 1.056.144 2.002.432 2.838.288.836.698 1.544 1.23 2.124a5.305 5.305 0 0 0 1.926 1.332c.752.308 1.588.462 2.508.462.928 0 1.768-.154 2.52-.462a5.25 5.25 0 0 0 1.92-1.332c.528-.58.936-1.288 1.224-2.124.288-.836.432-1.782.432-2.838zm9.324 2.16V281h-2.316v-17.196h5.076c1.088 0 2.034.126 2.838.378.804.252 1.47.61 1.998 1.074a4.328 4.328 0 0 1 1.182 1.68c.26.656.39 1.388.39 2.196 0 .8-.14 1.532-.42 2.196a4.725 4.725 0 0 1-1.23 1.716c-.54.48-1.21.854-2.01 1.122-.8.268-1.716.402-2.748.402h-2.76zm0-1.848h2.76c.664 0 1.25-.088 1.758-.264a3.605 3.605 0 0 0 1.278-.738c.344-.316.604-.694.78-1.134.176-.44.264-.924.264-1.452 0-1.096-.338-1.952-1.014-2.568-.676-.616-1.698-.924-3.066-.924h-2.76v7.08zm23.904-8.916v1.896h-8.256v5.712h6.684v1.824h-6.684v5.868h8.256V281h-10.596v-17.196h10.596zm7.104 10.02V281h-2.316v-17.196h4.86c1.088 0 2.028.11 2.82.33.792.22 1.446.538 1.962.954a3.82 3.82 0 0 1 1.146 1.506c.248.588.372 1.246.372 1.974a4.95 4.95 0 0 1-.288 1.704 4.5 4.5 0 0 1-.834 1.422 4.99 4.99 0 0 1-1.332 1.074 6.594 6.594 0 0 1-1.782.672c.288.168.544.412.768.732l5.016 6.828h-2.064c-.424 0-.736-.164-.936-.492l-4.464-6.144a1.3 1.3 0 0 0-.444-.414c-.16-.084-.4-.126-.72-.126h-1.764zm0-1.692h2.436c.68 0 1.278-.082 1.794-.246.516-.164.948-.396 1.296-.696.348-.3.61-.658.786-1.074.176-.416.264-.876.264-1.38 0-1.024-.338-1.796-1.014-2.316-.676-.52-1.682-.78-3.018-.78h-2.544v6.492zM223.524 281h-1.8a.774.774 0 0 1-.504-.156.96.96 0 0 1-.288-.396l-1.608-4.152h-7.716L210 280.448a.938.938 0 0 1-.288.384.767.767 0 0 1-.504.168h-1.8l6.876-17.196h2.364L223.524 281zm-11.268-6.384h6.42l-2.7-6.996a13.075 13.075 0 0 1-.516-1.62c-.088.328-.174.63-.258.906a10.82 10.82 0 0 1-.246.726l-2.7 6.984zm24.768-10.812v1.956h-5.556V281h-2.328v-15.24h-5.58v-1.956h13.464zm14.244 0v1.896h-8.256v5.712h6.684v1.824h-6.684v5.868h8.256V281h-10.596v-17.196h10.596zm126.78 2.688a.93.93 0 0 1-.228.27.506.506 0 0 1-.312.09c-.136 0-.294-.068-.474-.204a7.555 7.555 0 0 0-.684-.45 5.55 5.55 0 0 0-.996-.45c-.388-.136-.858-.204-1.41-.204-.52 0-.98.07-1.38.21-.4.14-.734.33-1.002.57a2.34 2.34 0 0 0-.606.846 2.685 2.685 0 0 0-.204 1.05c0 .48.118.878.354 1.194.236.316.548.586.936.81a7.17 7.17 0 0 0 1.32.582c.492.164.996.334 1.512.51s1.02.374 1.512.594c.492.22.932.498 1.32.834.388.336.7.748.936 1.236.236.488.354 1.088.354 1.8 0 .752-.128 1.458-.384 2.118a4.883 4.883 0 0 1-1.122 1.722 5.25 5.25 0 0 1-1.812 1.152c-.716.28-1.53.42-2.442.42-1.112 0-2.126-.202-3.042-.606a7.135 7.135 0 0 1-2.346-1.638l.672-1.104a.884.884 0 0 1 .234-.222.548.548 0 0 1 .306-.09c.168 0 .36.09.576.27.216.18.486.378.81.594.324.216.716.414 1.176.594.46.18 1.022.27 1.686.27.552 0 1.044-.076 1.476-.228a3.135 3.135 0 0 0 1.098-.642c.3-.276.53-.606.69-.99.16-.384.24-.812.24-1.284 0-.52-.118-.946-.354-1.278a2.934 2.934 0 0 0-.93-.834 6.5 6.5 0 0 0-1.314-.57l-1.512-.48a15.247 15.247 0 0 1-1.512-.57 4.914 4.914 0 0 1-1.314-.84 3.86 3.86 0 0 1-.93-1.29c-.236-.516-.354-1.154-.354-1.914 0-.608.118-1.196.354-1.764a4.547 4.547 0 0 1 1.026-1.512c.448-.44 1.002-.792 1.662-1.056.66-.264 1.418-.396 2.274-.396.96 0 1.836.152 2.628.456a6.052 6.052 0 0 1 2.076 1.32l-.564 1.104zM397.104 281h-2.34v-7.824H385.5V281h-2.34v-17.196h2.34v7.668h9.264v-7.668h2.34V281zm8.16 0h-2.328v-17.196h2.328V281zm8.364-6.432V281h-2.316v-17.196h5.076c1.088 0 2.034.126 2.838.378.804.252 1.47.61 1.998 1.074a4.328 4.328 0 0 1 1.182 1.68c.26.656.39 1.388.39 2.196 0 .8-.14 1.532-.42 2.196a4.725 4.725 0 0 1-1.23 1.716c-.54.48-1.21.854-2.01 1.122-.8.268-1.716.402-2.748.402h-2.76zm0-1.848h2.76c.664 0 1.25-.088 1.758-.264a3.605 3.605 0 0 0 1.278-.738c.344-.316.604-.694.78-1.134.176-.44.264-.924.264-1.452 0-1.096-.338-1.952-1.014-2.568-.676-.616-1.698-.924-3.066-.924h-2.76v7.08zM259.036 401.824V409h-2.316v-17.196h4.86c1.088 0 2.028.11 2.82.33.792.22 1.446.538 1.962.954a3.82 3.82 0 0 1 1.146 1.506c.248.588.372 1.246.372 1.974a4.95 4.95 0 0 1-.288 1.704 4.5 4.5 0 0 1-.834 1.422 4.99 4.99 0 0 1-1.332 1.074 6.594 6.594 0 0 1-1.782.672c.288.168.544.412.768.732l5.016 6.828h-2.064c-.424 0-.736-.164-.936-.492l-4.464-6.144a1.3 1.3 0 0 0-.444-.414c-.16-.084-.4-.126-.72-.126h-1.764zm0-1.692h2.436c.68 0 1.278-.082 1.794-.246.516-.164.948-.396 1.296-.696.348-.3.61-.658.786-1.074.176-.416.264-.876.264-1.38 0-1.024-.338-1.796-1.014-2.316-.676-.52-1.682-.78-3.018-.78h-2.544v6.492zm20.28 7.02c.712 0 1.348-.12 1.908-.36a4.002 4.002 0 0 0 1.422-1.008 4.41 4.41 0 0 0 .888-1.548c.204-.6.306-1.26.306-1.98v-10.452h2.316v10.452c0 .992-.158 1.912-.474 2.76a6.412 6.412 0 0 1-1.356 2.202 6.2 6.2 0 0 1-2.154 1.458c-.848.352-1.8.528-2.856.528-1.056 0-2.008-.176-2.856-.528a6.263 6.263 0 0 1-2.16-1.458 6.366 6.366 0 0 1-1.362-2.202 7.843 7.843 0 0 1-.474-2.76v-10.452h2.316v10.44c0 .72.102 1.38.306 1.98.204.6.5 1.116.888 1.548.388.432.864.77 1.428 1.014s1.202.366 1.914.366zm13.236-15.348c.208 0 .362.026.462.078.1.052.214.158.342.318l9.96 12.96a8.21 8.21 0 0 1-.048-.606 13.986 13.986 0 0 1-.012-.57v-12.18h2.04V409h-1.176a1 1 0 0 1-.462-.096 1.167 1.167 0 0 1-.366-.324l-9.948-12.948a15.43 15.43 0 0 1 .048 1.116V409h-2.04v-17.196h1.2z" fill="#000"/></g></svg>