<svg xmlns="http://www.w3.org/2000/svg" width="890" height="770" viewBox="0 0 890 770"><defs><style>.cls-1,.cls-4{opacity:0.1;}.cls-2{fill:#81d4dc;}.cls-3,.cls-4{fill:#1d1d1b;}.cls-3{opacity:0.05;}.cls-5{fill:#7dadba;}.cls-6{fill:#91eaf3;}.cls-7{fill:#6aa0aa;}.cls-8{fill:#367089;}.cls-9{fill:#ffd800;}.cls-10{opacity:0.3;}.cls-11{fill:#402313;}.cls-12,.cls-13,.cls-14,.cls-17,.cls-18,.cls-19,.cls-24,.cls-25,.cls-26,.cls-28,.cls-29,.cls-30,.cls-32,.cls-33,.cls-34,.cls-35,.cls-36,.cls-37,.cls-40,.cls-41,.cls-42,.cls-44,.cls-45,.cls-46,.cls-47,.cls-48,.cls-49,.cls-50,.cls-51,.cls-52,.cls-54,.cls-55,.cls-56,.cls-57,.cls-58,.cls-59,.cls-60,.cls-61,.cls-62,.cls-63,.cls-64,.cls-65,.cls-66,.cls-67,.cls-68,.cls-69,.cls-70{fill:none;}.cls-12,.cls-18,.cls-19,.cls-29,.cls-30,.cls-36,.cls-37,.cls-45,.cls-46,.cls-47,.cls-51,.cls-52,.cls-53,.cls-59,.cls-62,.cls-67,.cls-70{stroke:#ef9f6a;}.cls-12,.cls-13,.cls-14,.cls-17,.cls-18,.cls-19,.cls-24,.cls-25,.cls-26,.cls-28,.cls-29,.cls-30,.cls-32,.cls-33,.cls-34,.cls-35,.cls-36,.cls-37,.cls-40,.cls-41,.cls-42,.cls-44,.cls-45,.cls-46,.cls-47,.cls-48,.cls-49,.cls-50,.cls-51,.cls-52,.cls-53,.cls-54,.cls-55,.cls-56,.cls-57,.cls-58,.cls-59,.cls-60,.cls-61,.cls-62,.cls-63,.cls-64,.cls-65,.cls-66,.cls-67,.cls-68,.cls-69,.cls-70{stroke-miterlimit:10;}.cls-12,.cls-13,.cls-14{stroke-width:11.54639px;}.cls-13,.cls-14,.cls-25,.cls-26,.cls-33,.cls-34,.cls-41,.cls-42,.cls-48,.cls-49,.cls-55,.cls-56,.cls-64,.cls-65{stroke:#1d1d1b;}.cls-13,.cls-17,.cls-18,.cls-25,.cls-28,.cls-30,.cls-33,.cls-35,.cls-36,.cls-41,.cls-44,.cls-46,.cls-48,.cls-50,.cls-51,.cls-55,.cls-59,.cls-60,.cls-64,.cls-67,.cls-68{stroke-linecap:round;}.cls-15{fill:#de9462;}.cls-16,.cls-21{opacity:0.2;}.cls-17{stroke:#c2d64c;}.cls-17,.cls-18,.cls-19{stroke-width:8.24742px;}.cls-20,.cls-53{fill:#ef9f6a;}.cls-21{fill:#232323;}.cls-22{fill:#423228;}.cls-23{fill:#c2d64c;}.cls-24,.cls-32,.cls-40{stroke:#666;}.cls-24,.cls-25,.cls-26{stroke-width:12.69626px;}.cls-27{fill:#2c5871;}.cls-28,.cls-44{stroke:#b3b3b3;}.cls-28,.cls-29,.cls-30{stroke-width:9.06875px;}.cls-31{fill:#7a5022;}.cls-32,.cls-33,.cls-34{stroke-width:5.66283px;}.cls-35,.cls-50,.cls-57,.cls-66{stroke:#2c5871;}.cls-35,.cls-36,.cls-37{stroke-width:4.04488px;}.cls-38{fill:#15b0bf;}.cls-39{fill:#ffd301;}.cls-40,.cls-41,.cls-42{stroke-width:6.33076px;}.cls-43{fill:#736357;}.cls-44,.cls-45,.cls-46{stroke-width:4.52197px;}.cls-47,.cls-48,.cls-49{stroke-width:4.57017px;}.cls-50,.cls-51,.cls-52,.cls-53{stroke-width:3.26441px;}.cls-54{stroke:#de9462;}.cls-54,.cls-55,.cls-56,.cls-57,.cls-58{stroke-width:4.51391px;}.cls-58{stroke:#efa47b;}.cls-59,.cls-60,.cls-61,.cls-62{stroke-width:3.22422px;}.cls-60,.cls-61,.cls-68,.cls-69{stroke:#fff;}.cls-63{stroke:#234959;}.cls-63,.cls-64,.cls-65,.cls-66{stroke-width:5.40674px;}.cls-67,.cls-68,.cls-69,.cls-70{stroke-width:3.86196px;}</style></defs><title>Infographics</title><g id="containers"><polygon class="cls-1" points="606.877 495.001 562.93 495.001 562.93 481.797 606.877 495.001"/></g><g id="community"><g id="container"><rect class="cls-2" x="397.72147" y="276.45281" width="219.61447" height="109.11374"/><rect class="cls-3" x="404.18665" y="282.91802" width="206.68391" height="96.1831"/><path class="cls-4" d="M608.28441,285.50418V376.515H406.77281V285.50418h201.5116m2.58615-2.58615H404.18665v96.1831H610.87056V282.918Z"/><path class="cls-5" d="M508.13155,290.499a3.4345,3.4345,0,0,0-3.43615,3.43619v75.2945a3.43615,3.43615,0,1,0,6.8723,0V293.93512a3.43436,3.43436,0,0,0-3.43615-3.43617Z"/><path class="cls-5" d="M491.011,290.499a3.4345,3.4345,0,0,0-3.43615,3.43619v75.2945a3.43615,3.43615,0,1,0,6.8723,0V293.93512A3.43455,3.43455,0,0,0,491.011,290.499Z"/><path class="cls-5" d="M473.95064,290.499a3.4345,3.4345,0,0,0-3.43615,3.43619v75.2945a3.43615,3.43615,0,1,0,6.8723,0V293.93512a3.51454,3.51454,0,0,0-3.43615-3.43617Z"/><path class="cls-5" d="M456.83009,290.499a3.4345,3.4345,0,0,0-3.43615,3.43619v75.2945a3.43615,3.43615,0,1,0,6.8723,0V293.93512a3.474,3.474,0,0,0-3.43615-3.43617Z"/><path class="cls-5" d="M576.614,290.499a3.4345,3.4345,0,0,0-3.43615,3.43619v75.2945a3.43615,3.43615,0,1,0,6.8723,0V293.93512A3.51454,3.51454,0,0,0,576.614,290.499Z"/><path class="cls-5" d="M593.67439,290.499a3.4345,3.4345,0,0,0-3.43615,3.43619v75.2945a3.43615,3.43615,0,1,0,6.8723,0V293.93512a3.43455,3.43455,0,0,0-3.43615-3.43617Z"/><path class="cls-5" d="M439.70939,290.499a3.4345,3.4345,0,0,0-3.43615,3.43619v75.2945a3.43615,3.43615,0,1,0,6.8723,0V293.93512a3.47376,3.47376,0,0,0-3.43615-3.43617Z"/><path class="cls-5" d="M422.58884,290.499a3.4345,3.4345,0,0,0-3.43615,3.43619v75.2945a3.43615,3.43615,0,1,0,6.8723,0V293.93512a3.43455,3.43455,0,0,0-3.43615-3.43617Z"/><path class="cls-5" d="M559.49349,290.499a3.4345,3.4345,0,0,0-3.43615,3.43619v75.2945a3.43615,3.43615,0,1,0,6.8723,0V293.93512a3.474,3.474,0,0,0-3.43615-3.43617Z"/><path class="cls-5" d="M542.37279,290.499a3.4345,3.4345,0,0,0-3.43615,3.43619v75.2945a3.43615,3.43615,0,1,0,6.8723,0V293.93512a3.47386,3.47386,0,0,0-3.43615-3.43617Z"/><path class="cls-5" d="M525.25224,290.499a3.4345,3.4345,0,0,0-3.43615,3.43619v75.2945a3.43456,3.43456,0,0,0,3.43615,3.43619,3.39684,3.39684,0,0,0,3.43615-3.43619V293.93512a3.474,3.474,0,0,0-3.43615-3.43617Z"/><path class="cls-6" d="M507.52871,289.89612a3.4345,3.4345,0,0,0-3.43615,3.43619v75.2945a3.43615,3.43615,0,1,0,6.8723,0V293.33228a3.43436,3.43436,0,0,0-3.43615-3.43617Z"/><path class="cls-6" d="M490.40816,289.89612a3.4345,3.4345,0,0,0-3.43615,3.43619v75.2945a3.43615,3.43615,0,1,0,6.8723,0V293.33228a3.43455,3.43455,0,0,0-3.43615-3.43617Z"/><path class="cls-6" d="M473.3478,289.89612a3.4345,3.4345,0,0,0-3.43615,3.43619v75.2945a3.43615,3.43615,0,1,0,6.8723,0V293.33228a3.51454,3.51454,0,0,0-3.43615-3.43617Z"/><path class="cls-6" d="M456.22725,289.89612a3.4345,3.4345,0,0,0-3.43615,3.43619v75.2945a3.43615,3.43615,0,1,0,6.8723,0V293.33228a3.474,3.474,0,0,0-3.43615-3.43617Z"/><path class="cls-6" d="M576.0112,289.89612a3.4345,3.4345,0,0,0-3.43615,3.43619v75.2945a3.43615,3.43615,0,1,0,6.8723,0V293.33228a3.51454,3.51454,0,0,0-3.43615-3.43617Z"/><path class="cls-6" d="M593.07156,289.89612a3.4345,3.4345,0,0,0-3.43615,3.43619v75.2945a3.43615,3.43615,0,1,0,6.8723,0V293.33228a3.43455,3.43455,0,0,0-3.43615-3.43617Z"/><path class="cls-6" d="M439.10656,289.89612a3.4345,3.4345,0,0,0-3.43615,3.43619v75.2945a3.43615,3.43615,0,1,0,6.8723,0V293.33228a3.47376,3.47376,0,0,0-3.43615-3.43617Z"/><path class="cls-6" d="M421.986,289.89612a3.4345,3.4345,0,0,0-3.43615,3.43619v75.2945a3.43615,3.43615,0,1,0,6.8723,0V293.33228a3.43455,3.43455,0,0,0-3.43615-3.43617Z"/><path class="cls-6" d="M558.89065,289.89612a3.4345,3.4345,0,0,0-3.43615,3.43619v75.2945a3.43615,3.43615,0,1,0,6.8723,0V293.33228a3.474,3.474,0,0,0-3.43615-3.43617Z"/><path class="cls-6" d="M541.77,289.89612a3.4345,3.4345,0,0,0-3.43615,3.43619v75.2945a3.43615,3.43615,0,1,0,6.8723,0V293.33228a3.47386,3.47386,0,0,0-3.43615-3.43617Z"/><path class="cls-6" d="M524.6494,289.89612a3.4345,3.4345,0,0,0-3.43615,3.43619v75.2945a3.43456,3.43456,0,0,0,3.43615,3.43619,3.39684,3.39684,0,0,0,3.43615-3.43619V293.33228a3.474,3.474,0,0,0-3.43615-3.43617Z"/><rect class="cls-7" x="397.72147" y="382.36028" width="219.61447" height="3.20627"/></g><g id="container_unten" data-name="container unten"><rect class="cls-2" x="341.9284" y="385.88708" width="219.61447" height="109.11374"/><rect class="cls-3" x="348.39358" y="392.35229" width="206.68391" height="96.1831"/><path class="cls-4" d="M552.49134,394.93845v91.01079H350.97974V394.93845h201.5116m2.58615-2.58615H348.39358v96.1831H555.07749V392.3523Z"/><path class="cls-5" d="M452.33847,399.93322a3.4345,3.4345,0,0,0-3.43615,3.43619v75.2945a3.43615,3.43615,0,1,0,6.8723,0V403.36939a3.43436,3.43436,0,0,0-3.43615-3.43617Z"/><path class="cls-5" d="M435.21792,399.93322a3.4345,3.4345,0,0,0-3.43615,3.43619v75.2945a3.43615,3.43615,0,1,0,6.8723,0V403.36939a3.43455,3.43455,0,0,0-3.43615-3.43617Z"/><path class="cls-5" d="M418.15757,399.93322a3.4345,3.4345,0,0,0-3.43615,3.43619v75.2945a3.43615,3.43615,0,1,0,6.8723,0V403.36939a3.51454,3.51454,0,0,0-3.43615-3.43617Z"/><path class="cls-5" d="M401.037,399.93322a3.4345,3.4345,0,0,0-3.43615,3.43619v75.2945a3.43615,3.43615,0,1,0,6.8723,0V403.36939a3.474,3.474,0,0,0-3.43615-3.43617Z"/><path class="cls-5" d="M520.821,399.93322a3.4345,3.4345,0,0,0-3.43615,3.43619v75.2945a3.43615,3.43615,0,1,0,6.8723,0V403.36939a3.51454,3.51454,0,0,0-3.43615-3.43617Z"/><path class="cls-5" d="M537.88132,399.93322a3.4345,3.4345,0,0,0-3.43615,3.43619v75.2945a3.43615,3.43615,0,1,0,6.8723,0V403.36939a3.43455,3.43455,0,0,0-3.43615-3.43617Z"/><path class="cls-5" d="M383.91632,399.93322a3.4345,3.4345,0,0,0-3.43615,3.43619v75.2945a3.43615,3.43615,0,1,0,6.8723,0V403.36939a3.47376,3.47376,0,0,0-3.43615-3.43617Z"/><path class="cls-5" d="M366.79577,399.93322a3.4345,3.4345,0,0,0-3.43615,3.43619v75.2945a3.43615,3.43615,0,1,0,6.8723,0V403.36939a3.43455,3.43455,0,0,0-3.43615-3.43617Z"/><path class="cls-5" d="M503.70042,399.93322a3.4345,3.4345,0,0,0-3.43615,3.43619v75.2945a3.43615,3.43615,0,1,0,6.8723,0V403.36939a3.474,3.474,0,0,0-3.43615-3.43617Z"/><path class="cls-5" d="M486.57972,399.93322a3.4345,3.4345,0,0,0-3.43615,3.43619v75.2945a3.43615,3.43615,0,1,0,6.8723,0V403.36939a3.47386,3.47386,0,0,0-3.43615-3.43617Z"/><path class="cls-5" d="M469.45917,399.93322a3.4345,3.4345,0,0,0-3.43615,3.43619v75.2945a3.43456,3.43456,0,0,0,3.43615,3.43619,3.39684,3.39684,0,0,0,3.43615-3.43619V403.36939a3.474,3.474,0,0,0-3.43615-3.43617Z"/><path class="cls-6" d="M451.73564,399.33039a3.4345,3.4345,0,0,0-3.43615,3.43619v75.2945a3.43615,3.43615,0,1,0,6.8723,0V402.76655a3.43436,3.43436,0,0,0-3.43615-3.43617Z"/><path class="cls-6" d="M434.61509,399.33039a3.4345,3.4345,0,0,0-3.43615,3.43619v75.2945a3.43615,3.43615,0,1,0,6.8723,0V402.76655a3.43455,3.43455,0,0,0-3.43615-3.43617Z"/><path class="cls-6" d="M417.55473,399.33039a3.4345,3.4345,0,0,0-3.43615,3.43619v75.2945a3.43615,3.43615,0,1,0,6.8723,0V402.76655a3.51454,3.51454,0,0,0-3.43615-3.43617Z"/><path class="cls-6" d="M400.43418,399.33039a3.4345,3.4345,0,0,0-3.43615,3.43619v75.2945a3.43615,3.43615,0,1,0,6.8723,0V402.76655a3.474,3.474,0,0,0-3.43615-3.43617Z"/><path class="cls-6" d="M520.21813,399.33039a3.4345,3.4345,0,0,0-3.43615,3.43619v75.2945a3.43615,3.43615,0,1,0,6.8723,0V402.76655a3.51454,3.51454,0,0,0-3.43615-3.43617Z"/><path class="cls-6" d="M537.27848,399.33039a3.4345,3.4345,0,0,0-3.43615,3.43619v75.2945a3.43615,3.43615,0,1,0,6.8723,0V402.76655a3.43455,3.43455,0,0,0-3.43615-3.43617Z"/><path class="cls-6" d="M383.31349,399.33039a3.4345,3.4345,0,0,0-3.43615,3.43619v75.2945a3.43615,3.43615,0,1,0,6.8723,0V402.76655a3.47376,3.47376,0,0,0-3.43615-3.43617Z"/><path class="cls-6" d="M366.19294,399.33039a3.4345,3.4345,0,0,0-3.43615,3.43619v75.2945a3.43615,3.43615,0,1,0,6.8723,0V402.76655a3.43455,3.43455,0,0,0-3.43615-3.43617Z"/><path class="cls-6" d="M503.09758,399.33039a3.4345,3.4345,0,0,0-3.43615,3.43619v75.2945a3.43615,3.43615,0,1,0,6.8723,0V402.76655a3.474,3.474,0,0,0-3.43615-3.43617Z"/><path class="cls-6" d="M485.97688,399.33039a3.4345,3.4345,0,0,0-3.43615,3.43619v75.2945a3.43615,3.43615,0,1,0,6.8723,0V402.76655a3.47386,3.47386,0,0,0-3.43615-3.43617Z"/><path class="cls-6" d="M468.85633,399.33039a3.4345,3.4345,0,0,0-3.43615,3.43619v75.2945a3.43456,3.43456,0,0,0,3.43615,3.43619,3.39684,3.39684,0,0,0,3.43615-3.43619V402.76655a3.474,3.474,0,0,0-3.43615-3.43617Z"/><rect class="cls-8" x="341.9284" y="491.79455" width="219.61447" height="3.20627"/><polygon class="cls-4" points="432.54 495.001 397.721 385.887 562.474 385.887 562.474 495.001 432.54 495.001"/></g><g id="paar1"><g id="frau"><path class="cls-9" d="M570.96254,405.718H482.5681a4.03519,4.03519,0,0,0-4.02564,4.12484V437.066a4.10247,4.10247,0,0,0,4.02564,4.20271h67.9025v7.34406l5.45793-7.34406h15.034a4.34766,4.34766,0,0,0,4.31087-4.20271V409.84282A4.281,4.281,0,0,0,570.96254,405.718Z"/><ellipse class="cls-10" cx="514.23824" cy="647.93741" rx="37.28963" ry="7.22235"/><path class="cls-11" d="M480.571,479.06712c0-1.91966,2.676-3.58228,2.99617-5.41025.32923-1.87987-1.61235-4.35447-.974-6.10791.64972-1.78462,3.73367-2.43058,4.67241-4.053.94751-1.63761-.02774-4.63063,1.182-6.07082,1.21321-1.44431,4.331-1.00031,5.77535-2.21348,1.44017-1.20965,1.54114-4.35829,3.17871-5.30573,1.62228-.93859,4.39891.54129,6.18331-.10834,1.75337-.63834,2.92694-3.56242,4.80673-3.89165,1.828-.32016,3.92684,2.022,5.84659,2.022s4.01839-2.34217,5.84636-2.022c1.87987.32923,3.05352,3.25333,4.807,3.89169,1.78462.64972,4.56149-.83,6.184.10871,1.63761.94751,1.73856,4.09619,3.17875,5.30593,1.44431,1.21321,4.56212.76929,5.77528,2.21364,1.20965,1.44017.23429,4.43311,1.18172,6.07068.93859,1.62228,4.02243,2.26805,4.67207,4.05245.63834,1.75337-1.30325,4.2279-.974,6.10769.32016,1.828,2.99621,3.49072,2.99621,5.41046s-2.676,3.58228-2.99617,5.41025c-.32923,1.87987,1.61235,4.35447.974,6.10791-.64972,1.78462-3.73367,2.43058-4.67241,4.053-.94751,1.63761.02774,4.63063-1.182,6.07082-1.21321,1.44431-4.331,1.00031-5.77535,2.21348-1.44017,1.20965-1.54114,4.35829-3.17871,5.30573-1.62228.93859-4.39891-.54129-6.18331.10834-1.75337.63834-2.92694,3.56242-4.80673,3.89165-1.828.32016-3.92684-2.022-5.84659-2.022s-4.01839,2.34217-5.84636,2.022c-1.87987-.32923-3.05352-3.25333-4.807-3.89169-1.78462-.64972-4.56149.83-6.184-.10871-1.63761-.94751-1.73856-4.09619-3.17875-5.30593-1.44431-1.21321-4.56212-.76929-5.77528-2.21364-1.20965-1.44017-.23429-4.43311-1.18172-6.07068-.93859-1.62228-4.02243-2.26805-4.67207-4.05245-.63834-1.75337,1.30325-4.2279.974-6.10769C483.247,482.64955,480.571,480.98686,480.571,479.06712Z"/><path class="cls-11" d="M532.33673,500.656l-36.29618-.32845a5.45639,5.45639,0,0,1-5.21816-6.8793l7.9464-29.41248,29.33386-3.56528,9.52842,33.22517A5.45639,5.45639,0,0,1,532.33673,500.656Z"/><line class="cls-12" x1="506.13877" y1="573.4912" x2="506.13877" y2="636.11202"/><line class="cls-13" x1="506.13877" y1="627.61602" x2="506.13877" y2="643.0586"/><line class="cls-14" x1="506.13877" y1="620.35783" x2="506.13877" y2="635.80041"/><line class="cls-12" x1="521.19404" y1="573.4912" x2="521.19404" y2="636.11202"/><line class="cls-13" x1="521.19404" y1="627.61602" x2="521.19404" y2="643.0586"/><line class="cls-14" x1="521.19404" y1="620.35783" x2="521.19404" y2="635.80041"/><rect class="cls-15" x="509.11239" y="497.64458" width="9.10872" height="9.10872"/><path class="cls-16" d="M513.6664,500.06645a13.18822,13.18822,0,0,1-4.55469-.82106v2.1325a13.04374,13.04374,0,0,0,9.10938,0v-2.1325A13.18942,13.18942,0,0,1,513.6664,500.06645Z"/><path class="cls-17" d="M488.171,584.85444v-59.938c0-9.00838,12.26337-16.61872,26.78061-16.61872"/><line class="cls-18" x1="488.17097" y1="589.21583" x2="488.17097" y2="580.49305"/><line class="cls-19" x1="488.17097" y1="583.77218" x2="488.17097" y2="534.52802"/><path class="cls-17" d="M590.22351,508.29768h-59.938c-9.00838,0-16.61872,12.26337-16.61872,26.78061"/><line class="cls-18" x1="594.5849" y1="508.29768" x2="585.86212" y2="508.29768"/><line class="cls-19" x1="589.14125" y1="508.29768" x2="539.89709" y2="508.29768"/><path id="_Pfad_" data-name="&lt;Pfad&gt;" class="cls-20" d="M526.90793,487.23544a13.24153,13.24153,0,1,1-26.48306,0V470.95486h26.48306Z"/><path class="cls-21" d="M498.40719,467.06754v4.84606c2.79607,2.21876,8.57515,3.74437,15.25967,3.74437,6.55606,0,12.243-1.46836,15.09665-3.619v-4.97142Z"/><ellipse class="cls-20" cx="526.90793" cy="484.70458" rx="2.77951" ry="3.97591"/><ellipse class="cls-20" cx="499.59884" cy="484.70458" rx="2.77951" ry="3.97591"/><circle id="_Pfad_2" data-name="&lt;Pfad&gt;" class="cls-22" cx="520.99267" cy="478.17256" r="1.30244"/><circle id="_Pfad_3" data-name="&lt;Pfad&gt;" class="cls-22" cx="507.44121" cy="478.17256" r="1.30244"/><path class="cls-11" d="M528.92546,470.34237v-.82867a3.84105,3.84105,0,0,0-3.3085-3.805l-11.95032-1.67288-11.95026,1.67288a3.84106,3.84106,0,0,0-3.309,3.805v.82867Z"/><path class="cls-11" d="M530.67873,462.32985s-3.54362,10.56025-19.49542,10.56025a16.6258,16.6258,0,0,1-16.25714-11.26487s5.89468,6.242,14.66854-2.194C511.58034,456.05263,527.814,454.37934,530.67873,462.32985Z"/><path class="cls-23" d="M534.82116,598.536H492.51165V524.91231a21.15473,21.15473,0,0,1,21.15473-21.15473h0a21.15473,21.15473,0,0,1,21.15473,21.15473Z"/></g><g id="mann"><ellipse cx="653.00287" cy="647.93741" rx="37.28963" ry="7.22235"/><line x1="645.52035" y1="567.27051" x2="665.38286" y2="633.20051"/><line x1="662.68804" y1="624.25554" x2="667.58623" y2="640.51418"/><line x1="660.38584" y1="616.61379" x2="665.28403" y2="632.87244"/><line x1="645.52035" y1="567.27051" x2="645.52035" y2="636.1275"/><line x1="645.52035" y1="626.78541" x2="645.52035" y2="643.76586"/><line x1="645.52035" y1="618.80441" x2="645.52035" y2="635.78485"/><polygon points="652.504 614.662 658.696 635.216 661.077 643.085 653.003 573.505 652.504 566.239 652.504 567.271 652.504 614.662"/><rect x="640.51244" y="483.87063" width="10.01582" height="10.01582"/><path d="M622.25888,514.9232a23.26145,23.26145,0,0,1,23.26145-23.26145h0a23.26145,23.26145,0,0,1,23.26145,23.26145v58.78107H622.25888Z"/><path id="_Pfad_4" data-name="&lt;Pfad&gt;" d="M630.96015,472.42487a14.5602,14.5602,0,0,0,29.1204,0V454.523h-29.1204Z"/><path d="M645.52035,486.98508a14.50158,14.50158,0,0,1-5.00827-.90282v2.34487a14.34271,14.34271,0,0,0,10.01654,0v-2.34487A14.5029,14.5029,0,0,1,645.52035,486.98508Z"/><circle id="_Pfad_5" data-name="&lt;Pfad&gt;" cx="636.26671" cy="462.45946" r="1.43214"/><ellipse id="_Pfad_6" data-name="&lt;Pfad&gt;" cx="647.99889" cy="466.48697" rx="4.29649" ry="3.64004" transform="translate(48.86535 994.26691) rotate(-77.12668)"/><path d="M648.01506,499.70413a4.98744,4.98744,0,0,0-4.98781,4.98781v26.68481a6.99141,6.99141,0,0,1-6.98294,6.98294H622.25864v9.97563H636.0443a16.97878,16.97878,0,0,0,16.95857-16.95857V504.69195A4.98744,4.98744,0,0,0,648.01506,499.70413Z"/><path d="M645.52035,500.68319V527.368a11.97075,11.97075,0,0,1-11.97075,11.97075H596.4847"/><line x1="601.72102" y1="539.33875" x2="594.5849" y2="539.33875"/><ellipse class="cls-10" cx="653.00287" cy="647.93741" rx="37.28963" ry="7.22235"/><line class="cls-24" x1="645.52035" y1="567.27051" x2="665.38286" y2="633.20051"/><line class="cls-25" x1="662.68804" y1="624.25554" x2="667.58623" y2="640.51418"/><line class="cls-26" x1="660.38584" y1="616.61379" x2="665.28403" y2="632.87244"/><line class="cls-24" x1="645.52035" y1="567.27051" x2="645.52035" y2="636.1275"/><line class="cls-25" x1="645.52035" y1="626.78541" x2="645.52035" y2="643.76586"/><line class="cls-26" x1="645.52035" y1="618.80441" x2="645.52035" y2="635.78485"/><g class="cls-16"><polygon points="652.504 614.662 658.696 635.216 661.077 643.085 653.003 573.505 652.504 566.239 652.504 567.271 652.504 614.662"/></g><rect class="cls-15" x="640.51244" y="483.87063" width="10.01582" height="10.01582"/><path class="cls-27" d="M622.25888,514.9232a23.26145,23.26145,0,0,1,23.26145-23.26145h0a23.26145,23.26145,0,0,1,23.26145,23.26145v58.78107H622.25888Z"/><path id="_Pfad_7" data-name="&lt;Pfad&gt;" class="cls-20" d="M630.96015,472.42487a14.5602,14.5602,0,0,0,29.1204,0V454.523h-29.1204Z"/><path class="cls-16" d="M645.52035,486.98508a14.50158,14.50158,0,0,1-5.00827-.90282v2.34487a14.34271,14.34271,0,0,0,10.01654,0v-2.34487A14.5029,14.5029,0,0,1,645.52035,486.98508Z"/><circle id="_Pfad_8" data-name="&lt;Pfad&gt;" cx="636.26671" cy="462.45946" r="1.43214"/><ellipse id="_Pfad_9" data-name="&lt;Pfad&gt;" class="cls-20" cx="647.99889" cy="466.48697" rx="4.29649" ry="3.64004" transform="translate(48.86535 994.26691) rotate(-77.12668)"/><g class="cls-16"><path d="M648.01506,499.70413a4.98744,4.98744,0,0,0-4.98781,4.98781v26.68481a6.99141,6.99141,0,0,1-6.98294,6.98294H622.25864v9.97563H636.0443a16.97878,16.97878,0,0,0,16.95857-16.95857V504.69195A4.98744,4.98744,0,0,0,648.01506,499.70413Z"/></g><path class="cls-28" d="M645.52035,500.68319V527.368a11.97075,11.97075,0,0,1-11.97075,11.97075H596.4847"/><line class="cls-29" x1="609.70203" y1="539.33875" x2="598.5754" y2="539.33875"/><line class="cls-30" x1="601.72102" y1="539.33875" x2="594.5849" y2="539.33875"/></g></g><g id="paar2"><path class="cls-9" d="M295.72152,392.02457h-64.669a2.95213,2.95213,0,0,0-2.94514,3.01772v19.91634a3.00135,3.00135,0,0,0,2.94514,3.07468H280.7297v5.37288l3.993-5.37288h10.99882a3.18073,3.18073,0,0,0,3.15382-3.07468V395.04229A3.132,3.132,0,0,0,295.72152,392.02457Z"/><g id="frau-2" data-name="frau"><ellipse class="cls-10" cx="299.92648" cy="518.25238" rx="18.60497" ry="3.09542"/><path class="cls-31" d="M306.80878,437.32346h-4.47661c0,2.32905,1.81458,4.35008,4.47661,5.36777Z"/><path class="cls-31" d="M306.88892,440.61619c0,2.97306-3.21338,5.38361-7.17687,5.38361h-.31217c-3.96352,0-7.17661-2.41055-7.17661-5.38361v-2.64655c0-3.0118,3.255-5.45395,7.2708-5.45395h.124c4.01493,0,7.2708,2.44215,7.2708,5.45395Z"/><ellipse class="cls-31" cx="299.9523" cy="446.73597" rx="8.04397" ry="7.11948"/><line class="cls-32" x1="296.34122" y1="486.06781" x2="296.34122" y2="513.98768"/><line class="cls-33" x1="296.34122" y1="510.19969" x2="296.34122" y2="517.08486"/><line class="cls-34" x1="296.34122" y1="506.96358" x2="296.34122" y2="513.84875"/><line class="cls-32" x1="303.0537" y1="486.06781" x2="303.0537" y2="513.98768"/><line class="cls-33" x1="303.0537" y1="510.19969" x2="303.0537" y2="517.08486"/><line class="cls-34" x1="303.0537" y1="506.96358" x2="303.0537" y2="513.84875"/><rect class="cls-15" x="297.66702" y="452.25113" width="4.06118" height="4.06118"/><path class="cls-16" d="M299.69746,453.33093a5.88,5.88,0,0,1-2.03074-.36607v.95079a5.81563,5.81563,0,0,0,4.06147,0v-.95079A5.88058,5.88058,0,0,1,299.69746,453.33093Z"/><path class="cls-35" d="M288.33017,491.10893V464.38519c0-4.01644,5.4677-7.40956,11.9403-7.40956"/><line class="cls-36" x1="288.33017" y1="493.05348" x2="288.33017" y2="489.16438"/><line class="cls-37" x1="288.33017" y1="490.6264" x2="288.33017" y2="468.67059"/><path class="cls-35" d="M311.11747,491.42319V464.69945c0-4.01644-5.4677-7.40956-11.9403-7.40956"/><line class="cls-36" x1="311.11747" y1="493.36774" x2="311.11747" y2="489.47863"/><line class="cls-37" x1="311.11747" y1="490.94066" x2="311.11747" y2="468.98485"/><path class="cls-38" d="M309.12943,481.88156h-18.864V464.40861a9.432,9.432,0,0,1,9.432-9.432h0a9.432,9.432,0,0,1,9.432,9.432Z"/><path id="_Pfad_10" data-name="&lt;Pfad&gt;" class="cls-20" d="M305.60128,447.61015a5.90382,5.90382,0,1,1-11.80763,0v-7.25879h11.80763Z"/><path class="cls-21" d="M292.894,438.61817v2.16064c1.24665.98925,3.82328,1.66945,6.80362,1.66945,2.92306,0,5.45861-.65468,6.73093-1.61356v-2.21654Z"/><ellipse class="cls-20" cx="305.60128" cy="446.48175" rx="1.23926" ry="1.77268"/><ellipse class="cls-20" cx="293.42535" cy="446.48175" rx="1.23926" ry="1.77268"/><circle id="_Pfad_11" data-name="&lt;Pfad&gt;" cx="302.96392" cy="443.56941" r="0.5807"/><circle id="_Pfad_12" data-name="&lt;Pfad&gt;" cx="296.92192" cy="443.56941" r="0.5807"/><path class="cls-31" d="M306.57575,438.18573s-9.33746-.6592-10.60819,5.42557c-3.26628-5.468,1.39153-7.42162,4.09024-6.98684A55.13436,55.13436,0,0,1,306.57575,438.18573Z"/><path class="cls-31" d="M305.34461,436.87228s-9.97664-.65086-11.24711,5.435c-2.86637-7.76632,2.03042-7.43125,4.72939-6.99649A55.16264,55.16264,0,0,1,305.34461,436.87228Z"/><rect class="cls-39" x="292.17286" y="481.88156" width="15.55876" height="8.64344"/></g><g id="mann-2" data-name="mann"><ellipse class="cls-10" cx="253.62028" cy="518.25238" rx="18.60497" ry="3.09542"/><line class="cls-40" x1="258.64745" y1="482.67402" x2="249.64373" y2="512.56023"/><line class="cls-41" x1="250.8653" y1="508.50545" x2="248.64494" y2="515.87553"/><line class="cls-42" x1="251.90889" y1="505.04143" x2="249.68853" y2="512.41151"/><line class="cls-40" x1="258.64745" y1="482.67402" x2="258.64745" y2="513.88704"/><line class="cls-41" x1="258.64745" y1="509.65225" x2="258.64745" y2="517.34952"/><line class="cls-42" x1="258.64745" y1="506.03444" x2="258.64745" y2="513.73171"/><g class="cls-16"><polygon points="255.482 504.157 252.675 513.474 251.596 517.041 255.256 485.5 255.482 482.206 255.482 482.674 255.482 504.157"/></g><rect class="cls-15" x="256.37735" y="444.86867" width="4.54019" height="4.54019" transform="translate(517.2949 894.27754) rotate(-180)"/><path class="cls-5" d="M269.19192,485.59045H248.103V458.94487a10.54446,10.54446,0,0,1,10.54446-10.54446h0a10.54446,10.54446,0,0,1,10.54446,10.54446Z"/><path id="_Pfad_13" data-name="&lt;Pfad&gt;" class="cls-20" d="M265.24762,439.68029a6.60017,6.60017,0,0,1-13.20034,0v-8.115h13.20034Z"/><path class="cls-16" d="M258.64745,446.28046a6.5736,6.5736,0,0,0,2.27026-.40925v1.06293a6.50158,6.50158,0,0,1-4.54052,0v-1.06293A6.5742,6.5742,0,0,0,258.64745,446.28046Z"/><circle id="_Pfad_14" data-name="&lt;Pfad&gt;" cx="262.84215" cy="435.16295" r="0.64919"/><path id="_Pfad_15" data-name="&lt;Pfad&gt;" class="cls-43" d="M267.39644,427.3895H252.11562a2.15934,2.15934,0,0,0-2.21716,2.09713v7.70091a2.15973,2.15973,0,0,0,2.21722,2.09713h.007a6.67651,6.67651,0,0,0,6.14449-3.87131,4.72617,4.72617,0,0,1,1.97981-2.22525,5.91052,5.91052,0,0,1,2.2207-.58313,5.36514,5.36514,0,0,0,4.92877-5.21154Z"/><ellipse id="_Pfad_16" data-name="&lt;Pfad&gt;" class="cls-20" cx="257.52392" cy="436.98862" rx="1.65004" ry="1.94761" transform="translate(-90.88655 68.35904) rotate(-12.87332)"/><g class="cls-16"><path d="M257.51659,452.046a2.26082,2.26082,0,0,1,2.261,2.261V466.4033a3.16922,3.16922,0,0,0,3.16538,3.16538H269.192v4.522H262.943a7.69652,7.69652,0,0,1-7.68736-7.68736V454.307A2.26082,2.26082,0,0,1,257.51659,452.046Z"/></g><path class="cls-44" d="M258.64745,452.48984v12.09628a5.42637,5.42637,0,0,0,5.42637,5.42637h16.8016"/><line class="cls-45" x1="274.88397" y1="470.01249" x2="279.92769" y2="470.01249"/><line class="cls-46" x1="278.50178" y1="470.01249" x2="281.7366" y2="470.01249"/></g></g><g id="paar3"><path class="cls-9" d="M616.08825,161.20039h-64.669a2.95213,2.95213,0,0,0-2.94514,3.01772v19.91634a3.00135,3.00135,0,0,0,2.94514,3.07468h49.67721V192.582l3.993-5.37288h10.99882a3.18073,3.18073,0,0,0,3.15382-3.07468V164.21811A3.132,3.132,0,0,0,616.08825,161.20039Z"/><g id="frau-3" data-name="frau"><path class="cls-31" d="M584.83259,210.30694h-3.61284c0,1.87966,1.46445,3.51072,3.61284,4.332Z"/><path class="cls-31" d="M584.89727,212.96433c0,2.3994-2.59335,4.34483-5.79207,4.34483h-.25193c-3.19875,0-5.79186-1.94543-5.79186-4.34483v-2.13589c0-2.43066,2.627-4.40159,5.86788-4.40159h.10011c3.24024,0,5.86788,1.97093,5.86788,4.40159Z"/><ellipse class="cls-31" cx="579.29908" cy="217.90328" rx="6.49186" ry="5.74576"/><path class="cls-31" d="M584.64452,211.00283s-7.53577-.532-8.56131,4.37869c-2.636-4.41294,1.123-5.9896,3.301-5.63871A44.496,44.496,0,0,1,584.64452,211.00283Z"/><path class="cls-31" d="M583.65093,209.94282s-8.05162-.52527-9.07695,4.38626c-2.31329-6.26779,1.63864-5.99737,3.81684-5.6465A44.51887,44.51887,0,0,1,583.65093,209.94282Z"/><line class="cls-47" x1="576.38477" y1="249.64593" x2="576.38477" y2="272.17859"/><line class="cls-48" x1="576.38477" y1="269.1215" x2="576.38477" y2="274.67816"/><line class="cls-49" x1="576.38477" y1="266.50981" x2="576.38477" y2="272.06647"/><line class="cls-47" x1="581.80206" y1="249.64593" x2="581.80206" y2="272.17859"/><line class="cls-48" x1="581.80206" y1="269.1215" x2="581.80206" y2="274.67816"/><line class="cls-49" x1="581.80206" y1="266.50981" x2="581.80206" y2="272.06647"/><rect class="cls-15" x="577.45476" y="222.35428" width="3.27756" height="3.27756"/><path class="cls-16" d="M579.09341,223.22573a4.74548,4.74548,0,0,1-1.6389-.29544v.76733a4.69349,4.69349,0,0,0,3.2778,0v-.76733A4.74591,4.74591,0,0,1,579.09341,223.22573Z"/><path class="cls-50" d="M569.91947,201.52314v21.56732c0,3.24146,4.41269,5.97986,9.63639,5.97986"/><line class="cls-51" x1="569.91947" y1="199.9538" x2="569.91947" y2="203.09249"/><line class="cls-52" x1="569.91947" y1="201.91257" x2="569.91947" y2="219.63194"/><path class="cls-50" d="M588.30991,201.13566V222.703c0,3.24146-4.41269,5.97986-9.63639,5.97986"/><line class="cls-51" x1="588.30991" y1="199.56632" x2="588.30991" y2="202.70501"/><line class="cls-53" x1="588.30991" y1="201.52509" x2="588.30991" y2="219.24446"/><path class="cls-38" d="M586.70546,246.26744h-15.2241v-14.1015a7.612,7.612,0,0,1,7.612-7.612h0a7.612,7.612,0,0,1,7.612,7.612Z"/><path id="_Pfad_17" data-name="&lt;Pfad&gt;" class="cls-20" d="M583.85807,218.60879a4.76466,4.76466,0,0,1-9.52932,0V212.7506h9.52932Z"/><path class="cls-21" d="M573.60274,211.35184v1.74374a9.59634,9.59634,0,0,0,5.49084,1.34733,9.773,9.773,0,0,0,5.43218-1.30222v-1.78885Z"/><ellipse class="cls-20" cx="583.85807" cy="217.69812" rx="1.00014" ry="1.43064"/><ellipse class="cls-20" cx="574.03153" cy="217.69812" rx="1.00014" ry="1.43064"/><circle id="_Pfad_18" data-name="&lt;Pfad&gt;" cx="581.7296" cy="215.34772" r="0.46865"/><circle id="_Pfad_19" data-name="&lt;Pfad&gt;" cx="576.85342" cy="215.34772" r="0.46865"/><polygon class="cls-39" points="590.387 260.912 568.211 260.912 573.021 246.267 585.577 246.267 590.387 260.912"/></g><g id="mann-3" data-name="mann"><path class="cls-54" d="M624.3565,289.325v-13.2593a3.063,3.063,0,0,0-3.063-3.063h-16.128"/><line class="cls-55" x1="624.3565" y1="286.3055" x2="624.3565" y2="291.79375"/><line class="cls-56" x1="624.3565" y1="283.72596" x2="624.3565" y2="289.21421"/><path class="cls-57" d="M625.69248,290.572v-13.2593a3.063,3.063,0,0,0-3.063-3.063h-16.128"/><line class="cls-55" x1="625.69248" y1="287.55256" x2="625.69248" y2="293.04081"/><line class="cls-56" x1="625.69248" y1="284.97302" x2="625.69248" y2="290.46127"/><path class="cls-58" d="M625.69248,290.572v-13.2593a3.063,3.063,0,0,0-3.063-3.063h-16.128"/><line class="cls-55" x1="625.69248" y1="287.55256" x2="625.69248" y2="293.04081"/><line class="cls-56" x1="625.69248" y1="284.97302" x2="625.69248" y2="290.46127"/><rect class="cls-15" x="605.5012" y="238.61518" width="3.23721" height="3.23721" transform="translate(1214.2396 480.46758) rotate(-180)"/><path class="cls-39" d="M614.63814,267.65029H599.60147V248.65168a7.51833,7.51833,0,0,1,7.51833-7.51833h0a7.51833,7.51833,0,0,1,7.51833,7.51833Z"/><path id="_Pfad_20" data-name="&lt;Pfad&gt;" class="cls-20" d="M611.8258,234.91581a4.706,4.706,0,0,1-9.412,0v-5.78607h9.412Z"/><path class="cls-16" d="M607.1198,239.62181a4.68705,4.68705,0,0,0,1.61872-.2918v.75788a4.63571,4.63571,0,0,1-3.23744,0V239.33A4.68748,4.68748,0,0,0,607.1198,239.62181Z"/><circle id="_Pfad_21" data-name="&lt;Pfad&gt;" cx="610.11067" cy="231.69489" r="0.46288"/><g class="cls-16"><path d="M606.31349,243.73273a1.612,1.612,0,0,1,1.61211,1.61211v8.62479a2.25969,2.25969,0,0,0,2.257,2.257h4.45566v3.22422h-4.45566a5.48771,5.48771,0,0,1-5.48117-5.48117v-8.62479A1.612,1.612,0,0,1,606.31349,243.73273Z"/></g><path class="cls-59" d="M607.1198,244.04917V252.674a3.86906,3.86906,0,0,0,3.86906,3.86906H622.9686"/><line class="cls-60" x1="607.1198" y1="244.04917" x2="607.1198" y2="247.51488"/><line class="cls-61" x1="607.1198" y1="246.86302" x2="607.1198" y2="250.32873"/><line class="cls-62" x1="618.69663" y1="256.54302" x2="622.29287" y2="256.54302"/><line class="cls-59" x1="621.27617" y1="256.54302" x2="623.58264" y2="256.54302"/><path class="cls-27" d="M599.60147,267.65029H609.409a5.22914,5.22914,0,0,1,5.22914,5.22914v3.69675a0,0,0,0,1,0,0H599.60147a0,0,0,0,1,0,0v-8.9259A0,0,0,0,1,599.60147,267.65029Z" transform="translate(1214.2396 544.22648) rotate(-180)"/><path class="cls-27" d="M613.06125,267.65029H615.865a6.67522,6.67522,0,0,1,6.67522,6.67522v2.25068a0,0,0,0,1,0,0h-9.47892a0,0,0,0,1,0,0v-8.9259A0,0,0,0,1,613.06125,267.65029Z"/></g></g><g id="mann-4" data-name="mann"><path class="cls-63" d="M358.42584,400.30624V384.42431a3.66886,3.66886,0,0,1,3.66886-3.66886h19.3181"/><line class="cls-64" x1="358.42584" y1="396.68955" x2="358.42584" y2="403.26335"/><line class="cls-65" x1="358.42584" y1="393.59979" x2="358.42584" y2="400.17359"/><path class="cls-66" d="M356.8256,401.8V385.918a3.66886,3.66886,0,0,1,3.66886-3.66886h19.3181"/><line class="cls-64" x1="356.8256" y1="398.18327" x2="356.8256" y2="404.75707"/><line class="cls-65" x1="356.8256" y1="395.09351" x2="356.8256" y2="401.66731"/><path class="cls-66" d="M356.8256,401.8V385.918a3.66886,3.66886,0,0,1,3.66886-3.66886h19.3181"/><line class="cls-64" x1="356.8256" y1="398.18327" x2="356.8256" y2="404.75707"/><line class="cls-65" x1="356.8256" y1="395.09351" x2="356.8256" y2="401.66731"/><rect class="cls-15" x="377.13312" y="339.5663" width="3.87752" height="3.87752"/><path class="cls-23" d="M370.06645,351.588a9.00542,9.00542,0,0,1,9.00542-9.00542h0a9.00542,9.00542,0,0,1,9.00542,9.00542v22.75646H370.06645Z"/><path id="_Pfad_22" data-name="&lt;Pfad&gt;" class="cls-20" d="M373.43505,335.1352a5.63683,5.63683,0,0,0,11.27365,0v-6.93052H373.43505Z"/><path class="cls-16" d="M379.07188,340.772a5.61413,5.61413,0,0,1-1.9389-.34952v.90779a5.55263,5.55263,0,0,0,3.8778,0v-.90779A5.61464,5.61464,0,0,1,379.07188,340.772Z"/><circle id="_Pfad_23" data-name="&lt;Pfad&gt;" cx="375.48943" cy="331.27719" r="0.55444"/><path id="_Pfad_24" data-name="&lt;Pfad&gt;" d="M371.59987,324.63834h13.05046a1.84417,1.84417,0,0,1,1.89355,1.791v6.5769a1.8445,1.8445,0,0,1-1.8936,1.791h-.006a5.702,5.702,0,0,1-5.24766-3.30626,4.03635,4.03635,0,0,0-1.69084-1.90046,5.04783,5.04783,0,0,0-1.89657-.498,4.58205,4.58205,0,0,1-4.20938-4.45088Z"/><ellipse id="_Pfad_25" data-name="&lt;Pfad&gt;" class="cls-20" cx="380.03142" cy="332.8364" rx="1.66334" ry="1.4092" transform="translate(-29.10871 629.16106) rotate(-77.12668)"/><g class="cls-16"><path d="M380.03768,345.69607a1.93083,1.93083,0,0,0-1.931,1.931v10.33074a2.70665,2.70665,0,0,1-2.70337,2.70337h-5.337v3.862h5.337a6.57315,6.57315,0,0,0,6.56533-6.56533V347.627A1.93083,1.93083,0,0,0,380.03768,345.69607Z"/></g><path class="cls-67" d="M379.07188,346.0751v10.33074a4.63435,4.63435,0,0,1-4.63435,4.63435H360.08825"/><line class="cls-68" x1="379.07188" y1="346.0751" x2="379.07188" y2="350.22631"/><line class="cls-69" x1="379.07188" y1="349.44552" x2="379.07188" y2="353.59673"/><line class="cls-70" x1="365.2052" y1="361.04018" x2="360.89765" y2="361.04018"/><line class="cls-67" x1="362.11544" y1="361.04018" x2="359.35277" y2="361.04018"/><path class="cls-27" d="M367.59257,372.72623h21.007a0,0,0,0,1,0,0v4.83561a7.63432,7.63432,0,0,1-7.63432,7.63432h-5.73834a7.63432,7.63432,0,0,1-7.63432-7.63432v-4.83561A0,0,0,0,1,367.59257,372.72623Z"/></g><path d="M659.92976,445.311H642.17315c-8.267.37026-10.74719-6.17976-10.74719-6.17976v4.19708c-3.87907-1.65333-5.4053-6.61352-5.4053-6.61352v5.78691c-.1272,4.70579.63581,6.11107.63581,6.11107l.07926.01712a12.0937,12.0937,0,0,0,10.35717,8.18662,13.03967,13.03967,0,0,1,4.89884,1.2864,10.42465,10.42465,0,0,1,4.36753,4.909,14.72883,14.72883,0,0,0,13.555,8.54014h.01546a4.76444,4.76444,0,0,0,4.89121-4.62633V449.93731A4.76357,4.76357,0,0,0,659.92976,445.311Z"/><polygon points="378.234 329.094 378.234 334.627 379.329 333.023 379.329 330.65 378.234 329.094"/><path d="M613.3441,226.15232c0-1.29492-2.78983-2.34472-6.23113-2.34472a11.2453,11.2453,0,0,0-4.47974,1.0994,3.00187,3.00187,0,0,0-1.75159,2.74063h0v5.49082a1.54,1.54,0,0,0,1.581,1.49531h.00489a4.7602,4.7602,0,0,0,4.381-2.76028,3.36943,3.36943,0,0,1,1.41175-1.5867,4.21386,4.21386,0,0,1,1.58337-.41575,3.82531,3.82531,0,0,0,3.5141-3.71586v-.00284Z"/><circle class="cls-43" cx="264.29096" cy="427.60723" r="3.10548"/></g></svg>