<svg xmlns="http://www.w3.org/2000/svg" width="890" height="770" viewBox="0 0 890 770"><defs><style>.cls-1{isolation:isolate;}.cls-2,.cls-48,.cls-51{opacity:0.3;}.cls-3{fill:#81d4dc;}.cls-4,.cls-5{fill:#1d1d1b;}.cls-4{opacity:0.05;}.cls-5{opacity:0.1;}.cls-6{fill:#7dadba;}.cls-7{fill:#91eaf3;}.cls-8{fill:#367089;}.cls-9{opacity:0.5;}.cls-10,.cls-15,.cls-21{font-size:14px;font-family:Lato-Bold, Lato;font-weight:700;}.cls-11{letter-spacing:-0.01193em;}.cls-12{letter-spacing:0.03167em;}.cls-13{letter-spacing:-0.00049em;}.cls-14{letter-spacing:0.00056em;}.cls-15{letter-spacing:0.00133em;}.cls-16{letter-spacing:0.00977em;}.cls-17{letter-spacing:-0.01074em;}.cls-18{letter-spacing:-0.0023em;}.cls-19{letter-spacing:-0.00495em;}.cls-20{letter-spacing:0.00007em;}.cls-21{letter-spacing:-0.0263em;}.cls-22{letter-spacing:-0.01835em;}.cls-23{letter-spacing:-0.01109em;}.cls-24,.cls-28,.cls-29,.cls-30,.cls-35,.cls-37,.cls-38,.cls-39,.cls-40,.cls-41{fill:none;}.cls-24{stroke:#4d4d4d;}.cls-24,.cls-28,.cls-29,.cls-30,.cls-37,.cls-38,.cls-39,.cls-40,.cls-41{stroke-miterlimit:10;}.cls-25{fill:#ffd301;}.cls-26{fill:#4d4d4d;}.cls-27{fill:#2c5871;}.cls-28{stroke:#666;}.cls-28,.cls-29,.cls-30,.cls-40{stroke-width:20.4669px;}.cls-29,.cls-30{stroke:#1d1d1b;}.cls-29,.cls-37,.cls-39,.cls-41{stroke-linecap:round;}.cls-31,.cls-43{opacity:0.2;}.cls-32{fill:#de9462;}.cls-33{fill:gray;}.cls-34{fill:#ef9f6a;}.cls-36{fill:#736357;}.cls-37{stroke:#999;}.cls-37,.cls-38,.cls-39,.cls-41{stroke-width:14.61921px;}.cls-38,.cls-39{stroke:#ef9f6a;}.cls-40,.cls-41{stroke:#2c5871;}.cls-42{fill:#15b0bf;}.cls-43{fill:#232323;}.cls-44{fill:#1a3842;}.cls-45{fill:#244959;}.cls-46{fill:#002f47;}.cls-47{mix-blend-mode:screen;}.cls-48{fill:#fff;}.cls-49{fill:#ffd800;}.cls-50{fill:#0c2f46;}.cls-51{fill:#d1ecfb;fill-rule:evenodd;}</style></defs><title>Infographics</title><g class="cls-1"><g id="containers"><g id="_3" data-name="3"><polygon class="cls-2" points="484.819 528.661 457.406 528.661 457.406 520.425 484.819 528.661"/><rect class="cls-3" x="320.12221" y="460.59857" width="136.99057" height="68.0627"/><rect class="cls-4" x="324.15504" y="464.63143" width="128.92477" height="59.99685"/><path class="cls-5" d="M451.46663,466.24461V523.0151H325.76823V466.24461h125.6984m1.61318-1.61318H324.155v59.99685H453.07982V464.63143Z"/><path class="cls-6" d="M388.99353,469.36024a2.14237,2.14237,0,0,0-2.14339,2.14342v46.967a2.14339,2.14339,0,1,0,4.28679,0v-46.967a2.14227,2.14227,0,0,0-2.14339-2.1434Z"/><path class="cls-6" d="M378.31411,469.36024a2.14237,2.14237,0,0,0-2.14339,2.14342v46.967a2.14339,2.14339,0,1,0,4.28678,0v-46.967a2.14239,2.14239,0,0,0-2.14339-2.1434Z"/><path class="cls-6" d="M367.67225,469.36024a2.14237,2.14237,0,0,0-2.14339,2.14342v46.967a2.14339,2.14339,0,1,0,4.28679,0v-46.967a2.19229,2.19229,0,0,0-2.14339-2.1434Z"/><path class="cls-6" d="M356.99284,469.36024a2.14237,2.14237,0,0,0-2.14339,2.14342v46.967a2.14339,2.14339,0,1,0,4.28678,0v-46.967a2.167,2.167,0,0,0-2.14339-2.1434Z"/><path class="cls-6" d="M431.71137,469.36024a2.14237,2.14237,0,0,0-2.14339,2.14342v46.967a2.14339,2.14339,0,1,0,4.28679,0v-46.967a2.19229,2.19229,0,0,0-2.14339-2.1434Z"/><path class="cls-6" d="M442.35323,469.36024a2.14237,2.14237,0,0,0-2.14339,2.14342v46.967a2.14339,2.14339,0,1,0,4.28678,0v-46.967a2.14239,2.14239,0,0,0-2.14339-2.1434Z"/><path class="cls-6" d="M346.31333,469.36024a2.14237,2.14237,0,0,0-2.14339,2.14342v46.967a2.14339,2.14339,0,1,0,4.28678,0v-46.967a2.16686,2.16686,0,0,0-2.14339-2.1434Z"/><path class="cls-6" d="M335.63392,469.36024a2.14237,2.14237,0,0,0-2.14339,2.14342v46.967a2.14339,2.14339,0,1,0,4.28679,0v-46.967a2.14239,2.14239,0,0,0-2.14339-2.1434Z"/><path class="cls-6" d="M421.032,469.36024a2.14237,2.14237,0,0,0-2.14339,2.14342v46.967a2.14339,2.14339,0,1,0,4.28679,0v-46.967a2.167,2.167,0,0,0-2.14339-2.1434Z"/><path class="cls-6" d="M410.35245,469.36024a2.14237,2.14237,0,0,0-2.14339,2.14342v46.967a2.14339,2.14339,0,1,0,4.28678,0v-46.967a2.16692,2.16692,0,0,0-2.14339-2.1434Z"/><path class="cls-6" d="M399.673,469.36024a2.14237,2.14237,0,0,0-2.14339,2.14342v46.967a2.1424,2.1424,0,0,0,2.14339,2.14342,2.11887,2.11887,0,0,0,2.14339-2.14342v-46.967a2.167,2.167,0,0,0-2.14339-2.1434Z"/><path class="cls-7" d="M388.61749,468.98421a2.14237,2.14237,0,0,0-2.14339,2.14342v46.967a2.14339,2.14339,0,1,0,4.28679,0v-46.967a2.14227,2.14227,0,0,0-2.14339-2.1434Z"/><path class="cls-7" d="M377.93808,468.98421a2.14237,2.14237,0,0,0-2.14339,2.14342v46.967a2.14339,2.14339,0,1,0,4.28679,0v-46.967a2.14239,2.14239,0,0,0-2.14339-2.1434Z"/><path class="cls-7" d="M367.29621,468.98421a2.14237,2.14237,0,0,0-2.14339,2.14342v46.967a2.14339,2.14339,0,1,0,4.28679,0v-46.967a2.19229,2.19229,0,0,0-2.14339-2.1434Z"/><path class="cls-7" d="M356.6168,468.98421a2.14237,2.14237,0,0,0-2.14339,2.14342v46.967a2.14339,2.14339,0,1,0,4.28678,0v-46.967a2.167,2.167,0,0,0-2.14339-2.1434Z"/><path class="cls-7" d="M431.33533,468.98421a2.14237,2.14237,0,0,0-2.14339,2.14342v46.967a2.14339,2.14339,0,1,0,4.28679,0v-46.967a2.19229,2.19229,0,0,0-2.14339-2.1434Z"/><path class="cls-7" d="M441.9772,468.98421a2.14237,2.14237,0,0,0-2.14339,2.14342v46.967a2.14339,2.14339,0,1,0,4.28678,0v-46.967a2.14239,2.14239,0,0,0-2.14339-2.1434Z"/><path class="cls-7" d="M345.93729,468.98421a2.14237,2.14237,0,0,0-2.14339,2.14342v46.967a2.14339,2.14339,0,1,0,4.28678,0v-46.967a2.16686,2.16686,0,0,0-2.14339-2.1434Z"/><path class="cls-7" d="M335.25788,468.98421a2.14237,2.14237,0,0,0-2.14339,2.14342v46.967a2.14339,2.14339,0,1,0,4.28679,0v-46.967a2.14239,2.14239,0,0,0-2.14339-2.1434Z"/><path class="cls-7" d="M420.65592,468.98421a2.14237,2.14237,0,0,0-2.14339,2.14342v46.967a2.14339,2.14339,0,1,0,4.28678,0v-46.967a2.167,2.167,0,0,0-2.14339-2.1434Z"/><path class="cls-7" d="M409.97641,468.98421a2.14237,2.14237,0,0,0-2.14339,2.14342v46.967a2.14339,2.14339,0,1,0,4.28678,0v-46.967a2.16692,2.16692,0,0,0-2.14339-2.1434Z"/><path class="cls-7" d="M399.297,468.98421a2.14237,2.14237,0,0,0-2.14339,2.14342v46.967a2.1424,2.1424,0,0,0,2.14339,2.14342,2.11887,2.11887,0,0,0,2.14339-2.14342v-46.967a2.167,2.167,0,0,0-2.14339-2.1434Z"/><rect class="cls-8" x="319.94229" y="526.66127" width="136.99057" height="2"/><g class="cls-9"><text class="cls-10" transform="translate(381.04293 519.84752)"><tspan class="cls-11">P</tspan><tspan class="cls-12" x="8.49902" y="0">L</tspan><tspan class="cls-13" x="16.21484" y="0">A</tspan><tspan class="cls-14" x="25.93066" y="0">N</tspan><tspan x="36.72559" y="0">UNG</tspan></text></g><polygon class="cls-5" points="384.166 528.661 362.447 460.599 457.129 460.599 457.129 528.661 384.166 528.661"/></g><g id="_2" data-name="2"><polygon class="cls-2" points="665.719 528.661 638.306 528.661 638.306 520.425 665.719 528.661"/><rect class="cls-3" x="500.98741" y="460.59857" width="136.99057" height="68.0627"/><rect class="cls-8" x="500.98741" y="526.66127" width="136.99057" height="2"/><rect class="cls-4" x="505.02025" y="464.63143" width="128.92477" height="59.99685"/><path class="cls-5" d="M632.33183,466.24461V523.0151H506.63343V466.24461h125.6984m1.61318-1.61318H505.02025v59.99685H633.945V464.63143Z"/><path class="cls-6" d="M569.85873,469.36024a2.14237,2.14237,0,0,0-2.14339,2.14342v46.967a2.14339,2.14339,0,1,0,4.28679,0v-46.967a2.14227,2.14227,0,0,0-2.14339-2.1434Z"/><path class="cls-6" d="M559.17932,469.36024a2.14237,2.14237,0,0,0-2.14339,2.14342v46.967a2.14339,2.14339,0,1,0,4.28678,0v-46.967a2.14239,2.14239,0,0,0-2.14339-2.1434Z"/><path class="cls-6" d="M548.53745,469.36024a2.14237,2.14237,0,0,0-2.14339,2.14342v46.967a2.14339,2.14339,0,1,0,4.28679,0v-46.967a2.19229,2.19229,0,0,0-2.14339-2.1434Z"/><path class="cls-6" d="M537.858,469.36024a2.14237,2.14237,0,0,0-2.14339,2.14342v46.967a2.14339,2.14339,0,1,0,4.28679,0v-46.967a2.167,2.167,0,0,0-2.14339-2.1434Z"/><path class="cls-6" d="M612.57657,469.36024a2.14237,2.14237,0,0,0-2.14339,2.14342v46.967a2.14339,2.14339,0,1,0,4.28678,0v-46.967a2.19229,2.19229,0,0,0-2.14339-2.1434Z"/><path class="cls-6" d="M623.21844,469.36024a2.14237,2.14237,0,0,0-2.14339,2.14342v46.967a2.14339,2.14339,0,1,0,4.28679,0v-46.967a2.14239,2.14239,0,0,0-2.14339-2.1434Z"/><path class="cls-6" d="M527.17853,469.36024a2.14237,2.14237,0,0,0-2.14339,2.14342v46.967a2.14339,2.14339,0,1,0,4.28679,0v-46.967a2.16686,2.16686,0,0,0-2.14339-2.1434Z"/><path class="cls-6" d="M516.49912,469.36024a2.14237,2.14237,0,0,0-2.14339,2.14342v46.967a2.14339,2.14339,0,1,0,4.28679,0v-46.967a2.14239,2.14239,0,0,0-2.14339-2.1434Z"/><path class="cls-6" d="M601.89716,469.36024a2.14237,2.14237,0,0,0-2.14339,2.14342v46.967a2.14339,2.14339,0,1,0,4.28679,0v-46.967a2.167,2.167,0,0,0-2.14339-2.1434Z"/><path class="cls-6" d="M591.21765,469.36024a2.14237,2.14237,0,0,0-2.14339,2.14342v46.967a2.14339,2.14339,0,1,0,4.28679,0v-46.967a2.16692,2.16692,0,0,0-2.14339-2.1434Z"/><path class="cls-6" d="M580.53824,469.36024a2.14237,2.14237,0,0,0-2.14339,2.14342v46.967a2.1424,2.1424,0,0,0,2.14339,2.14342,2.11887,2.11887,0,0,0,2.14339-2.14342v-46.967a2.167,2.167,0,0,0-2.14339-2.1434Z"/><path class="cls-7" d="M569.48269,468.98421a2.14237,2.14237,0,0,0-2.14339,2.14342v46.967a2.14339,2.14339,0,1,0,4.28679,0v-46.967a2.14227,2.14227,0,0,0-2.14339-2.1434Z"/><path class="cls-7" d="M558.80328,468.98421a2.14237,2.14237,0,0,0-2.14339,2.14342v46.967a2.14339,2.14339,0,1,0,4.28679,0v-46.967a2.14239,2.14239,0,0,0-2.14339-2.1434Z"/><path class="cls-7" d="M548.16141,468.98421a2.14237,2.14237,0,0,0-2.14339,2.14342v46.967a2.14339,2.14339,0,1,0,4.28679,0v-46.967a2.19229,2.19229,0,0,0-2.14339-2.1434Z"/><path class="cls-7" d="M537.482,468.98421a2.14237,2.14237,0,0,0-2.14339,2.14342v46.967a2.14339,2.14339,0,1,0,4.28679,0v-46.967a2.167,2.167,0,0,0-2.14339-2.1434Z"/><path class="cls-7" d="M612.20053,468.98421a2.14237,2.14237,0,0,0-2.14339,2.14342v46.967a2.14339,2.14339,0,1,0,4.28679,0v-46.967a2.19229,2.19229,0,0,0-2.14339-2.1434Z"/><path class="cls-7" d="M622.8424,468.98421a2.14237,2.14237,0,0,0-2.14339,2.14342v46.967a2.14339,2.14339,0,1,0,4.28679,0v-46.967a2.14239,2.14239,0,0,0-2.14339-2.1434Z"/><path class="cls-7" d="M526.8025,468.98421a2.14237,2.14237,0,0,0-2.14339,2.14342v46.967a2.14339,2.14339,0,1,0,4.28678,0v-46.967a2.16686,2.16686,0,0,0-2.14339-2.1434Z"/><path class="cls-7" d="M516.12308,468.98421a2.14237,2.14237,0,0,0-2.14339,2.14342v46.967a2.14339,2.14339,0,1,0,4.28679,0v-46.967a2.14239,2.14239,0,0,0-2.14339-2.1434Z"/><path class="cls-7" d="M601.52112,468.98421a2.14237,2.14237,0,0,0-2.14339,2.14342v46.967a2.14339,2.14339,0,1,0,4.28678,0v-46.967a2.167,2.167,0,0,0-2.14339-2.1434Z"/><path class="cls-7" d="M590.84161,468.98421a2.14237,2.14237,0,0,0-2.14339,2.14342v46.967a2.14339,2.14339,0,1,0,4.28679,0v-46.967a2.16692,2.16692,0,0,0-2.14339-2.1434Z"/><path class="cls-7" d="M580.1622,468.98421a2.14237,2.14237,0,0,0-2.14339,2.14342v46.967a2.1424,2.1424,0,0,0,2.14339,2.14342,2.11887,2.11887,0,0,0,2.14339-2.14342v-46.967a2.167,2.167,0,0,0-2.14339-2.1434Z"/><polygon class="cls-5" points="501.5 464.631 523.219 528.661 501.5 528.661 501.5 464.631"/><g class="cls-9"><text class="cls-15" transform="translate(573.39693 519.84752)">B<tspan class="cls-16" x="9.2373" y="0">E</tspan><tspan class="cls-17" x="17.42383" y="0">T</tspan><tspan class="cls-18" x="25.67285" y="0">RI</tspan><tspan class="cls-19" x="38.76172" y="0">E</tspan><tspan class="cls-20" x="46.74219" y="0">B</tspan></text></g></g><g id="_1" data-name="1"><rect class="cls-3" x="471.20287" y="376.98005" width="136.99057" height="68.0627"/><rect class="cls-4" x="475.23571" y="381.0129" width="128.92477" height="59.99685"/><path class="cls-5" d="M602.5473,382.62609v56.77049H476.8489V382.62609H602.5473m1.61318-1.61318H475.23571v59.99685H604.16048V381.01291Z"/><path class="cls-6" d="M540.0742,385.74172a2.14237,2.14237,0,0,0-2.14339,2.14342v46.967a2.14339,2.14339,0,1,0,4.28679,0v-46.967a2.14227,2.14227,0,0,0-2.14339-2.1434Z"/><path class="cls-6" d="M529.39478,385.74172a2.14237,2.14237,0,0,0-2.14339,2.14342v46.967a2.14339,2.14339,0,1,0,4.28678,0v-46.967a2.14239,2.14239,0,0,0-2.14339-2.1434Z"/><path class="cls-6" d="M518.75292,385.74172a2.14237,2.14237,0,0,0-2.14339,2.14342v46.967a2.14339,2.14339,0,1,0,4.28679,0v-46.967a2.19229,2.19229,0,0,0-2.14339-2.1434Z"/><path class="cls-6" d="M508.0735,385.74172a2.14237,2.14237,0,0,0-2.14339,2.14342v46.967a2.14339,2.14339,0,1,0,4.28679,0v-46.967a2.167,2.167,0,0,0-2.14339-2.1434Z"/><path class="cls-6" d="M582.792,385.74172a2.14237,2.14237,0,0,0-2.14339,2.14342v46.967a2.14339,2.14339,0,1,0,4.28679,0v-46.967a2.19229,2.19229,0,0,0-2.14339-2.1434Z"/><path class="cls-6" d="M593.4339,385.74172a2.14237,2.14237,0,0,0-2.14339,2.14342v46.967a2.14339,2.14339,0,1,0,4.28679,0v-46.967a2.14239,2.14239,0,0,0-2.14339-2.1434Z"/><path class="cls-6" d="M497.394,385.74172a2.14237,2.14237,0,0,0-2.14339,2.14342v46.967a2.14339,2.14339,0,1,0,4.28679,0v-46.967a2.16686,2.16686,0,0,0-2.14339-2.1434Z"/><path class="cls-6" d="M486.71458,385.74172a2.14237,2.14237,0,0,0-2.14339,2.14342v46.967a2.14339,2.14339,0,1,0,4.28679,0v-46.967a2.14239,2.14239,0,0,0-2.14339-2.1434Z"/><path class="cls-6" d="M572.11262,385.74172a2.14237,2.14237,0,0,0-2.14339,2.14342v46.967a2.14339,2.14339,0,1,0,4.28679,0v-46.967a2.167,2.167,0,0,0-2.14339-2.1434Z"/><path class="cls-6" d="M561.43311,385.74172a2.14237,2.14237,0,0,0-2.14339,2.14342v46.967a2.14339,2.14339,0,1,0,4.28679,0v-46.967a2.16692,2.16692,0,0,0-2.14339-2.1434Z"/><path class="cls-6" d="M550.7537,385.74172a2.14237,2.14237,0,0,0-2.14339,2.14342v46.967a2.1424,2.1424,0,0,0,2.14339,2.14342,2.11887,2.11887,0,0,0,2.14339-2.14342v-46.967a2.167,2.167,0,0,0-2.14339-2.1434Z"/><path class="cls-7" d="M539.69816,385.36568a2.14237,2.14237,0,0,0-2.14339,2.14342v46.967a2.14339,2.14339,0,1,0,4.28679,0v-46.967a2.14227,2.14227,0,0,0-2.14339-2.1434Z"/><path class="cls-7" d="M529.01874,385.36568a2.14237,2.14237,0,0,0-2.14339,2.14342v46.967a2.14339,2.14339,0,1,0,4.28678,0v-46.967a2.14239,2.14239,0,0,0-2.14339-2.1434Z"/><path class="cls-7" d="M518.37688,385.36568a2.14237,2.14237,0,0,0-2.14339,2.14342v46.967a2.14339,2.14339,0,1,0,4.28679,0v-46.967a2.19229,2.19229,0,0,0-2.14339-2.1434Z"/><path class="cls-7" d="M507.69747,385.36568a2.14237,2.14237,0,0,0-2.14339,2.14342v46.967a2.14339,2.14339,0,1,0,4.28679,0v-46.967a2.167,2.167,0,0,0-2.14339-2.1434Z"/><path class="cls-7" d="M582.416,385.36568a2.14237,2.14237,0,0,0-2.14339,2.14342v46.967a2.14339,2.14339,0,1,0,4.28679,0v-46.967a2.19229,2.19229,0,0,0-2.14339-2.1434Z"/><path class="cls-7" d="M593.05786,385.36568a2.14237,2.14237,0,0,0-2.14339,2.14342v46.967a2.14339,2.14339,0,1,0,4.28678,0v-46.967a2.14239,2.14239,0,0,0-2.14339-2.1434Z"/><path class="cls-7" d="M497.018,385.36568a2.14237,2.14237,0,0,0-2.14339,2.14342v46.967a2.14339,2.14339,0,1,0,4.28679,0v-46.967a2.16686,2.16686,0,0,0-2.14339-2.1434Z"/><path class="cls-7" d="M486.33855,385.36568a2.14237,2.14237,0,0,0-2.14339,2.14342v46.967a2.14339,2.14339,0,1,0,4.28679,0v-46.967a2.14239,2.14239,0,0,0-2.14339-2.1434Z"/><path class="cls-7" d="M571.73658,385.36568a2.14237,2.14237,0,0,0-2.14339,2.14342v46.967a2.14339,2.14339,0,1,0,4.28679,0v-46.967a2.167,2.167,0,0,0-2.14339-2.1434Z"/><path class="cls-7" d="M561.05708,385.36568a2.14237,2.14237,0,0,0-2.14339,2.14342v46.967a2.14339,2.14339,0,1,0,4.28679,0v-46.967a2.16692,2.16692,0,0,0-2.14339-2.1434Z"/><path class="cls-7" d="M550.37766,385.36568a2.14237,2.14237,0,0,0-2.14339,2.14342v46.967a2.1424,2.1424,0,0,0,2.14339,2.14342,2.11887,2.11887,0,0,0,2.14339-2.14342v-46.967a2.167,2.167,0,0,0-2.14339-2.1434Z"/><g class="cls-9"><text class="cls-21" transform="translate(544.61666 436.22887)">A<tspan class="cls-20" x="9.35449" y="0">U</tspan><tspan class="cls-22" x="19.75" y="0">F</tspan><tspan class="cls-23" x="27.41699" y="0">B</tspan><tspan x="36.48047" y="0">A</tspan><tspan class="cls-20" x="45.83496" y="0">U</tspan></text></g></g></g><g id="kran"><polygon class="cls-2" points="736.399 528.661 708.986 528.661 708.986 520.425 736.399 528.661"/><polyline class="cls-24" points="483.371 378.102 539.635 358.749 596.026 378.102"/><rect class="cls-24" x="535.60839" y="302.17895" width="8.93737" height="36.54346"/><polygon class="cls-25" points="533.593 337.98 546.565 337.98 540.084 347.873 533.593 337.98"/><path class="cls-24" d="M544.84736,355.00547a4.76795,4.76795,0,1,1-4.76931-4.77015v-2.36251"/><line class="cls-24" x1="703.48243" y1="326.41107" x2="703.48243" y2="491.96943"/><line class="cls-24" x1="681.19172" y1="326.41107" x2="681.19172" y2="491.96943"/><rect class="cls-24" x="681.19172" y="326.41107" width="22.29071" height="22.29071"/><rect class="cls-24" x="681.19172" y="348.70178" width="22.29071" height="22.29071"/><rect class="cls-24" x="681.19172" y="370.99249" width="22.29071" height="22.29088"/><rect class="cls-24" x="681.19172" y="393.28337" width="22.29071" height="22.2907"/><rect class="cls-24" x="681.19172" y="415.57407" width="22.29071" height="22.29072"/><rect class="cls-24" x="681.19172" y="437.8648" width="22.29071" height="22.29088"/><rect class="cls-24" x="681.19172" y="460.15567" width="22.29071" height="22.28907"/><rect class="cls-24" x="681.19172" y="482.44474" width="22.29071" height="22.29235"/><line class="cls-24" x1="681.19172" y1="326.41107" x2="703.48243" y2="348.70178"/><line class="cls-24" x1="703.48243" y1="348.70178" x2="681.19172" y2="370.99249"/><line class="cls-24" x1="681.19172" y1="370.99249" x2="703.48243" y2="393.28337"/><line class="cls-24" x1="703.48243" y1="393.28337" x2="681.19172" y2="415.57407"/><line class="cls-24" x1="681.19172" y1="415.57407" x2="703.48243" y2="437.8648"/><line class="cls-24" x1="703.48243" y1="437.8648" x2="681.19172" y2="460.15567"/><line class="cls-24" x1="681.19172" y1="460.15567" x2="703.48243" y2="482.44474"/><line class="cls-24" x1="703.48243" y1="482.44474" x2="681.19172" y2="504.7371"/><path class="cls-26" d="M718.17149,283.28707l16.99829,18.6342H718.17149v-18.6342m-1-2.58006v22.21426h20.26416L717.17149,280.707Z"/><line class="cls-27" x1="498.09817" y1="302.92129" x2="719.98007" y2="302.92129"/><polygon class="cls-8" points="498.098 280.631 498.098 302.921 688.166 302.921 718.233 302.921 718.233 280.631 498.098 280.631"/><rect class="cls-27" x="675.28681" y="302.86148" width="33.69949" height="24.58707"/><rect class="cls-27" x="675.28681" y="504.08081" width="33.69949" height="24.58707"/></g><g id="kunde"><ellipse class="cls-2" cx="332.67009" cy="695.5182" rx="29.25813" ry="5.66679"/><line class="cls-28" x1="321.80958" y1="611.47926" x2="342.30187" y2="679.49969"/><line class="cls-29" x1="339.52161" y1="670.27111" x2="344.5751" y2="687.04526"/><line class="cls-30" x1="337.14641" y1="660.5074" x2="342.1999" y2="679.16121"/><line class="cls-28" x1="321.80958" y1="611.47926" x2="321.80958" y2="682.51948"/><line class="cls-29" x1="321.80958" y1="672.88119" x2="321.80958" y2="690.40004"/><line class="cls-30" x1="321.80958" y1="662.64701" x2="321.80958" y2="682.16598"/><g class="cls-31"><polygon points="329.015 660.373 335.403 681.579 337.859 689.698 329.529 617.912 329.015 610.415 329.015 611.479 329.015 660.373"/></g><rect class="cls-32" x="316.64288" y="525.43503" width="10.33339" height="10.33339"/><path class="cls-33" d="M297.81056,557.47218a23.999,23.999,0,0,1,23.999-23.999h0a23.999,23.999,0,0,1,23.999,23.999V618.117h-47.998Z"/><path id="_Pfad_" data-name="&lt;Pfad&gt;" class="cls-34" d="M306.78772,513.62637a15.02186,15.02186,0,1,0,30.04372,0v-18.4695H306.78772Z"/><path id="_Pfad_2" data-name="&lt;Pfad&gt;" class="cls-34" d="M306.78772,513.62637a15.02186,15.02186,0,1,0,30.04372,0v-18.4695H306.78772Z"/><path class="cls-35" d="M310.785,523.6922a10.03436,10.03436,0,0,0,7.1085-2.94571"/><path class="cls-31" d="M321.80958,528.64824a14.96138,14.96138,0,0,1-5.16707-.93145V530.136a14.79748,14.79748,0,0,0,10.33414,0v-2.41922A14.96274,14.96274,0,0,1,321.80958,528.64824Z"/><circle id="_Pfad_3" data-name="&lt;Pfad&gt;" cx="312.26253" cy="503.34498" r="1.47755"/><path id="_Pfad_4" data-name="&lt;Pfad&gt;" class="cls-36" d="M301.89705,485.65276h34.77883a4.91462,4.91462,0,0,1,5.04622,4.773V507.9529a4.91549,4.91549,0,0,1-5.04635,4.773h-.01589a15.1956,15.1956,0,0,1-13.98475-8.811,10.75667,10.75667,0,0,0-4.506-5.06463,13.45222,13.45222,0,0,0-5.05427-1.32719,12.21094,12.21094,0,0,1-11.21778-11.86137Z"/><ellipse id="_Pfad_5" data-name="&lt;Pfad&gt;" class="cls-34" cx="324.3667" cy="507.50019" rx="4.43271" ry="3.75545" transform="translate(-242.64516 710.64484) rotate(-77.12668)"/><g class="cls-31"><path d="M324.38339,541.77057a5.14557,5.14557,0,0,0-5.146,5.146v27.5309a7.21309,7.21309,0,0,1-7.20435,7.20435H297.81032V591.9437h14.22276a17.51713,17.51713,0,0,0,17.49627-17.49627v-27.5309A5.14557,5.14557,0,0,0,324.38339,541.77057Z"/></g><path class="cls-37" d="M321.80958,542.78066v27.5309a12.35031,12.35031,0,0,1-12.35031,12.35031H271.21916"/><line class="cls-38" x1="284.85557" y1="582.66187" x2="273.37616" y2="582.66187"/><line class="cls-39" x1="276.62152" y1="582.66187" x2="269.25913" y2="582.66187"/></g><g id="berater"><ellipse class="cls-2" cx="218.80669" cy="695.5182" rx="29.25813" ry="5.66679"/><line class="cls-40" x1="207.1997" y1="611.47926" x2="207.1997" y2="682.51948"/><line class="cls-29" x1="207.1997" y1="672.88119" x2="207.1997" y2="690.40004"/><line class="cls-30" x1="207.1997" y1="662.64701" x2="207.1997" y2="682.16598"/><line class="cls-40" x1="230.27954" y1="611.47926" x2="230.27954" y2="682.51948"/><line class="cls-29" x1="230.27954" y1="672.88119" x2="230.27954" y2="690.40004"/><line class="cls-30" x1="230.27954" y1="662.64701" x2="230.27954" y2="682.16598"/><rect class="cls-32" x="213.57331" y="525.43503" width="10.33339" height="10.33339"/><path class="cls-31" d="M218.73962,528.18251a14.96138,14.96138,0,0,1-5.16707-.93145v2.41922a14.79748,14.79748,0,0,0,10.33414,0v-2.41922A14.96274,14.96274,0,0,1,218.73962,528.18251Z"/><path class="cls-41" d="M189.81632,624.37029V556.37356c0-10.21956,13.91219-18.85312,30.38128-18.85312"/><line class="cls-39" x1="189.81632" y1="629.31807" x2="189.81632" y2="619.42251"/><line class="cls-38" x1="189.81632" y1="623.14253" x2="189.81632" y2="567.27746"/><path class="cls-41" d="M247.79707,624.37029V556.37356c0-10.21956-13.91219-18.85312-30.38128-18.85312"/><line class="cls-39" x1="247.79707" y1="629.31807" x2="247.79707" y2="619.42251"/><line class="cls-38" x1="247.79707" y1="623.14253" x2="247.79707" y2="567.27746"/><path class="cls-42" d="M242.73864,617.01375h-47.998V556.36892a23.999,23.999,0,0,1,23.999-23.999h0a23.999,23.999,0,0,1,23.999,23.999Z"/><path d="M201.429,493.89111v16.9388a4.35788,4.35788,0,0,0,4.35773,4.35827h25.90585a4.35788,4.35788,0,0,0,4.35773-4.35827v-16.9388Z"/><path id="_Pfad_6" data-name="&lt;Pfad&gt;" class="cls-34" d="M233.76148,513.62637a15.02186,15.02186,0,1,1-30.04372,0v-18.4695h30.04372Z"/><path id="_Pfad_7" data-name="&lt;Pfad&gt;" class="cls-34" d="M233.76148,513.62637a15.02186,15.02186,0,1,1-30.04372,0v-18.4695h30.04372Z"/><path class="cls-35" d="M218.73952,523.6922a10.07715,10.07715,0,0,1-10.06575-10.06575"/><path class="cls-43" d="M201.4288,490.74689v5.49761c3.172,2.51707,9.72808,4.24781,17.31134,4.24781,7.43752,0,13.88907-1.66578,17.12641-4.10559v-5.63983Z"/><ellipse class="cls-34" cx="233.76148" cy="510.75524" rx="3.15322" ry="4.51047"/><ellipse class="cls-34" cx="202.78067" cy="510.75524" rx="3.15322" ry="4.51047"/><circle id="_Pfad_8" data-name="&lt;Pfad&gt;" cx="227.05091" cy="503.34498" r="1.47755"/><circle id="_Pfad_9" data-name="&lt;Pfad&gt;" cx="211.67744" cy="503.34498" r="1.47755"/><path d="M236.05027,494.462v-.94008a4.35748,4.35748,0,0,0-3.75333-4.31661l-13.557-1.8978-13.557,1.8978a4.35749,4.35749,0,0,0-3.75394,4.31661v.94008Z"/><path d="M218.53827,492.88872H201.429v4.13491s9.41918-2.47636,16.91-.06177v.06177c.03468-.0112.067-.02059.09994-.03058.03353.01.06526.01939.0994.03058v-.06177c7.49073-2.41459,17.512.65851,17.512.65851v-4.13551Z"/><rect class="cls-44" x="195.43005" y="488.5316" width="46.61914" height="5.25412"/><path class="cls-45" d="M218.7398,498.19764c10.68428,0,19.346-3.432,19.346-7.66712h-38.692C199.39382,494.76569,208.05516,498.19764,218.7398,498.19764Z"/><path class="cls-46" d="M218.7398,468.96361a22.35578,22.35578,0,0,0-22.35587,22.3548h44.71138A22.35548,22.35548,0,0,0,218.7398,468.96361Z"/><rect class="cls-27" x="195.43005" y="488.45299" width="46.61914" height="2.86542"/><g class="cls-47"><path class="cls-48" d="M201.16546,486.18959a1.12066,1.12066,0,0,1-.34837-.055,1.146,1.146,0,0,1-.7447-1.4393,19.08329,19.08329,0,0,1,11.792-12.14867,1.1462,1.1462,0,0,1,.76074,2.16248,16.78134,16.78134,0,0,0-10.368,10.68079A1.14663,1.14663,0,0,1,201.16546,486.18959Z"/></g><path class="cls-49" d="M229.19331,478.1594H210.233a.86553.86553,0,0,0-.86348.88476v5.83926a.88.88,0,0,0,.86348.90146h14.56483v1.57527l1.17071-1.57527h3.22474a.93256.93256,0,0,0,.92467-.90146v-5.83926A.91827.91827,0,0,0,229.19331,478.1594Z"/><path class="cls-50" d="M212.11228,479.40449l-1.51566,3.63018h.68752l.2969-.72395h1.61458l.2969.72395H214.18l-1.5156-3.63018Zm-.32811,2.36978.60417-1.47917.60416,1.47917Z"/><path class="cls-50" d="M215.93557,479.40449h-1.38539v3.63018h.651v-1.27083h.73437a1.17968,1.17968,0,1,0,0-2.35935Zm-.03122,1.77083h-.70316V479.993h.70316a.59163.59163,0,0,1,0,1.18229Z"/><path class="cls-50" d="M218.18077,481.76385h.73437a1.17968,1.17968,0,1,0,0-2.35935h-1.38539v3.63018h.651Zm0-1.77082h.70316a.59163.59163,0,0,1,0,1.18229h-.70316Z"/><path class="cls-50" d="M223.42181,479.40449h-.651v2.17187c0,.64581-.32812.92707-.81772.92707-.49481,0-.82294-.28126-.82294-.92707v-2.17187h-.651v2.23958a1.47154,1.47154,0,0,0,2.9427,0Z"/><rect class="cls-50" x="223.99978" y="480.4097" width="0.62495" height="2.62497"/><circle class="cls-50" cx="224.31097" cy="479.73262" r="0.3724"/><path class="cls-50" d="M226.98043,483.1076a1.88309,1.88309,0,1,0-1.91663-1.88021A1.879,1.879,0,0,0,226.98043,483.1076Zm0-3.17707a1.2944,1.2944,0,1,1-1.276,1.29686A1.2697,1.2697,0,0,1,226.98043,479.93053Z"/><path class="cls-50" d="M210.65416,484.26809a.23291.23291,0,0,0,.21734.1317c.12049,0,.1466-.07083.1466-.11309,0-.07819-.07083-.10806-.17638-.14781-.13911-.05213-.24843-.10928-.24843-.262a.24482.24482,0,0,1,.2683-.23353.29959.29959,0,0,1,.267.14036l-.11053.07577a.16858.16858,0,0,0-.154-.077c-.06832,0-.118.03845-.118.09187,0,.07949.06953.09317.19626.1453.15772.06338.231.13049.231.26332,0,.1466-.09936.25587-.303.25587a.34167.34167,0,0,1-.3329-.19751Z"/><path class="cls-50" d="M211.23293,483.65823h.15153l.17513.58128.17885-.58128h.11672l.17885.58128.17638-.58128h.15028l-.25834.86573h-.123l-.18258-.58128-.18383.58128h-.1217Z"/><path class="cls-50" d="M212.48776,483.65823h.15526v.86573h-.15526Z"/><path class="cls-50" d="M212.89815,484.26809a.23291.23291,0,0,0,.21734.1317c.12049,0,.1466-.07083.1466-.11309,0-.07819-.07083-.10806-.17638-.14781-.13911-.05213-.24843-.10928-.24843-.262a.24482.24482,0,0,1,.2683-.23353.29959.29959,0,0,1,.267.14036l-.11053.07577a.16858.16858,0,0,0-.154-.077c-.06832,0-.118.03845-.118.09187,0,.07949.06953.09317.19626.1453.15772.06338.231.13049.231.26332,0,.1466-.09936.25587-.303.25587a.34167.34167,0,0,1-.3329-.19751Z"/><path class="cls-50" d="M213.6304,484.26809a.23291.23291,0,0,0,.21734.1317c.12049,0,.14655-.07083.14655-.11309,0-.07819-.07079-.10806-.17634-.14781-.13911-.05213-.24843-.10928-.24843-.262a.24482.24482,0,0,1,.2683-.23353.29954.29954,0,0,1,.267.14036l-.11058.07577a.16851.16851,0,0,0-.154-.077c-.06832,0-.118.03845-.118.09187,0,.07949.06953.09317.19626.1453.15772.06338.231.13049.231.26332,0,.1466-.09936.25587-.303.25587a.34167.34167,0,0,1-.3329-.19751Z"/><path class="cls-50" d="M215.23942,483.64334a.453.453,0,0,1,.34281.15526l-.1056.09066a.31249.31249,0,0,0-.23721-.10555.3074.3074,0,0,0,0,.61479.31155.31155,0,0,0,.23973-.10806l.1043.09066a.45247.45247,0,1,1-.344-.73775Z"/><path class="cls-50" d="M216.11134,483.64334a.44909.44909,0,1,1-.45711.44966A.44912.44912,0,0,1,216.11134,483.64334Zm0,.75767a.30868.30868,0,1,0-.30432-.308A.301.301,0,0,0,216.11134,484.401Z"/><path class="cls-50" d="M216.73042,483.65823h.13664l.45828.6012v-.6012h.15028v.86573h-.12668l-.46824-.61228v.61228h-.15028Z"/><path class="cls-50" d="M217.83384,483.79859h-.23475v-.14036h.62475v.14036h-.23475v.72537h-.15526Z"/><path class="cls-50" d="M218.55648,483.65823h.13166l.36143.86573h-.164l-.07079-.17266h-.385l-.07079.17266h-.164Zm.20989.56517-.14409-.35277-.144.35277Z"/><path class="cls-50" d="M219.178,483.65823h.15526v.86573H219.178Z"/><path class="cls-50" d="M219.54556,483.65823h.13664l.45832.6012v-.6012h.15032v.86573h-.12677l-.46824-.61228v.61228h-.15028Z"/><path class="cls-50" d="M220.50186,483.65823h.55149v.14036h-.39624v.20617h.37139v.14036h-.37139v.23847h.405v.14036h-.56024Z"/><path class="cls-50" d="M221.2397,483.65823h.33666a.27517.27517,0,0,1,.28064.27449.26056.26056,0,0,1-.15768.24592l.20989.34532H221.734l-.185-.308h-.154v.308h-.15526Zm.32047.41858a.13595.13595,0,0,0,.14287-.14158.1297.1297,0,0,0-.1304-.13664H221.395v.27821Z"/><path class="cls-50" d="M222.56669,483.65823h.33043a.28133.28133,0,1,1,0,.56266h-.17517v.30307h-.15526Zm.323.4223a.14109.14109,0,0,0,0-.28194h-.16773v.28194Z"/><path class="cls-50" d="M223.31552,483.65823h.15526v.72537h.34411v.14036h-.49937Z"/><path class="cls-50" d="M224.2733,483.65823h.13162l.36143.86573h-.16392l-.07083-.17266h-.385l-.07083.17266h-.16392Zm.20989.56517-.14409-.35277-.14409.35277Z"/><path class="cls-50" d="M224.97347,483.79859h-.23475v-.14036h.62475v.14036h-.23475v.72537h-.15526Z"/><path class="cls-50" d="M225.48634,483.65823h.52422v.14036h-.369v.21734h.33666v.14036h-.33666v.36766h-.15526Z"/><path class="cls-50" d="M226.56569,483.64334a.44908.44908,0,1,1-.457.44966A.4491.4491,0,0,1,226.56569,483.64334Zm0,.75767a.30868.30868,0,1,0-.30428-.308A.30095.30095,0,0,0,226.56569,484.401Z"/><path class="cls-50" d="M227.18481,483.65823h.33666a.27517.27517,0,0,1,.28064.27449.26056.26056,0,0,1-.15768.24592l.20989.34532h-.17517l-.185-.308h-.154v.308h-.15526Zm.32047.41858a.13595.13595,0,0,0,.14287-.14158.1297.1297,0,0,0-.1304-.13664h-.17768v.27821Z"/><path class="cls-50" d="M227.988,483.65823h.13292l.31051.48568.3093-.48568h.13162v.86573h-.14651v-.58622l-.29441.457-.29683-.45581v.585h-.1466Z"/></g><g id="clouds"><path class="cls-51" d="M459.83486,221.29a45.98008,45.98008,0,0,0-65.01335,0q-.22117.22109-.43868.44441-.90407-1.09936-1.93169-2.12818-.53254-.53242-1.08533-1.03154a30.58568,30.58568,0,0,0-51.8184,14.32978,16.74566,16.74566,0,1,0,10.50678,30.64876,30.59206,30.59206,0,0,0,32.83145,3.70224c.14222-.05822.28515-.11417.42663-.17475A45.97119,45.97119,0,1,0,459.83486,221.29Z"/><path class="cls-51" d="M511.35846,209.21448a20.98929,20.98929,0,0,0-35.84865-21.67905,40.03133,40.03133,0,1,0,14.87647,32.83413A20.98869,20.98869,0,0,0,511.35846,209.21448Z"/></g></g></svg>