<svg xmlns="http://www.w3.org/2000/svg" viewBox="0 0 556 527"><g fill="none" fill-rule="evenodd"><path fill="#000" fill-rule="nonzero" d="M302.82 350.66h-27.4v-8.24" opacity=".1"/><path fill="#81D4DC" fill-rule="nonzero" d="M138.12 282.6h137v68.06h-137z"/><path fill="#1D1D1B" fill-rule="nonzero" d="M142.16 286.63h128.92v60H142.16z" opacity=".05"/><path fill="#1D1D1B" fill-rule="nonzero" d="M269.47 288.24v56.78h-125.7v-56.78h125.7zm1.6-1.6h-128.9v60h128.9v-60z" opacity=".1"/><path fill="#7DADBA" fill-rule="nonzero" d="M207 291.36c-.58 0-1.12.23-1.52.63-.4.4-.63.9-.63 1.5v46.9c0 1.2.96 2.1 2.14 2.1 1.1 0 2.1-1 2.1-2.2v-46.9c0-.6-.3-1.1-.7-1.5-.4-.4-1-.7-1.5-.7zm-10.7 0c-.55 0-1.1.23-1.5.63-.4.4-.63.9-.63 1.5v46.9c0 1.2.96 2.1 2.14 2.1 1.2 0 2.2-1 2.2-2.2v-46.9c0-.6-.2-1.1-.6-1.5-.4-.4-.9-.7-1.5-.7zm-10.63 0c-.57 0-1.1.23-1.5.63-.42.4-.64.9-.64 1.5v46.9c0 1.2.96 2.1 2.14 2.1 1.2 0 2.15-1 2.15-2.2v-46.9c-.03-1.2-.97-2.1-2.15-2.2zm-10.67 0c-.58 0-1.12.23-1.52.63-.4.4-.63.9-.63 1.5v46.9c0 1.2.96 2.1 2.14 2.1 1.1 0 2.1-1 2.1-2.2v-46.9c0-1.2-1-2.2-2.2-2.2zm74.7 0c-.56 0-1.1.23-1.5.63-.4.4-.63.9-.63 1.5v46.9c0 1.2.96 2.1 2.14 2.1 1.2 0 2.2-1 2.2-2.2v-46.9c0-1.2-.9-2.1-2.1-2.2zm10.65 0c-.57 0-1.1.23-1.5.63-.4.4-.64.9-.64 1.5v46.9c0 1.2 1 2.1 2.2 2.1 1.2 0 2.2-1 2.2-2.2v-46.9c0-.6-.2-1.1-.6-1.5-.4-.4-.9-.7-1.5-.7zm-96.05 0c-.56 0-1.1.23-1.5.63-.4.4-.63.9-.63 1.5v46.9c0 1.2.96 2.1 2.14 2.1 1.2 0 2.2-1 2.2-2.2v-46.9c0-1.2-.9-2.2-2.1-2.2zm-10.67 0c-.56 0-1.1.23-1.5.63-.4.4-.64.9-.64 1.5v46.9c0 1.2.9 2.1 2.1 2.1 1.2 0 2.1-1 2.1-2.2v-46.9c0-.6-.3-1.1-.7-1.5-.4-.4-1-.7-1.5-.7zm85.4 0c-.57 0-1.1.23-1.5.63-.42.4-.64.9-.64 1.5v46.9c0 1.2.9 2.1 2.1 2.1 1.2 0 2.1-1 2.1-2.2v-46.9c0-1.2-1-2.2-2.2-2.2zm-10.68 0c-.57 0-1.1.23-1.5.63-.42.4-.64.9-.64 1.5v46.9c0 1.2 1 2.1 2.2 2.1 1.2 0 2.2-1 2.2-2.2v-46.9c0-1.2-.9-2.2-2.1-2.2zm-10.68 0c-.57 0-1.1.23-1.5.63-.4.4-.64.9-.64 1.5v46.9c0 .5.23 1.1.63 1.5.4.4.94.6 1.5.6.58 0 1.13-.2 1.54-.6.4-.4.62-1 .62-1.6v-46.9c-.02-1.2-.97-2.2-2.15-2.2z"/><path fill="#91EAF3" fill-rule="nonzero" d="M206.62 290.98c-.57 0-1.12.23-1.52.63-.4.4-.63 1-.63 1.6v47c0 1.2.96 2.2 2.15 2.2 1.18 0 2.14-.9 2.14-2.1v-47c0-.5-.22-1.1-.63-1.5-.4-.4-.94-.6-1.5-.6zm-10.68 0c-.57 0-1.12.23-1.52.63-.4.4-.63 1-.63 1.6v47c0 1.2.9 2.2 2.1 2.2 1.2 0 2.1-.9 2.1-2.1v-47c0-.5-.2-1.1-.7-1.5-.4-.4-1-.6-1.5-.6zm-10.64 0c-.57 0-1.12.23-1.52.63-.4.4-.63 1-.63 1.6v47c0 1.2.96 2.2 2.15 2.2 1.18 0 2.14-.9 2.14-2.1v-47c-.03-1.2-.97-2.1-2.14-2.1zm-10.68 0c-.57 0-1.12.23-1.52.63-.4.4-.63 1-.63 1.6v47c0 1.2.96 2.2 2.15 2.2 1.18 0 2.14-.9 2.14-2.1v-47c0-1.2-.96-2.1-2.14-2.1zm74.72 0c-.57 0-1.12.23-1.52.63-.4.4-.63 1-.63 1.6v47c0 1.2.9 2.2 2.1 2.2 1.2 0 2.1-.9 2.1-2.1v-47c-.1-1.2-1-2.1-2.2-2.1zm10.64 0c-.57 0-1.12.23-1.52.63-.4.4-.63 1-.63 1.6v47c0 1.2.96 2.2 2.15 2.2 1.18 0 2.14-.9 2.14-2.1v-47c0-.5-.22-1.1-.63-1.5-.4-.4-1-.6-1.6-.6zm-96.04 0c-.57 0-1.12.23-1.52.63-.4.4-.63 1-.63 1.6v47c0 1.2.9 2.2 2.1 2.2 1.2 0 2.1-.9 2.1-2.1v-47c0-1.2-1-2.1-2.2-2.1zm-10.68 0c-.57 0-1.12.23-1.52.63-.4.4-.63 1-.63 1.6v47c0 1.2 1 2.2 2.2 2.2 1.2 0 2.2-.9 2.2-2.1v-47c0-.5-.2-1.1-.6-1.5-.4-.4-.9-.6-1.5-.6zm85.4 0c-.57 0-1.12.23-1.52.63-.4.4-.63 1-.63 1.6v47c0 1.2 1 2.2 2.2 2.2 1.2 0 2.2-.9 2.2-2.1v-47c0-1.2-.9-2.1-2.1-2.1zm-10.68 0c-.57 0-1.12.23-1.52.63-.4.4-.63 1-.63 1.6v47c0 1.2.96 2.2 2.15 2.2 1.18 0 2.14-.9 2.14-2.1v-47c0-1.2-.97-2.1-2.14-2.1zm-10.68 0c-.57 0-1.12.23-1.52.63-.4.4-.63 1-.63 1.6v47c0 .6.23 1.1.63 1.5.4.4.95.7 1.52.7.57 0 1.12-.2 1.52-.6.4-.4.63-.9.62-1.5v-47c0-1.1-.96-2.1-2.14-2.1z"/><path fill="#367089" fill-rule="nonzero" d="M137.94 348.66h137v2h-137z"/><text fill="#000" transform="translate(229.043 327.848)" opacity=".5" font-size="14" font-family="Lato-Black, Lato" font-weight="700"><tspan x="0" y="14">PLAN</tspan></text><path fill="#000" fill-rule="nonzero" d="M483.72 350.66h-27.4v-8.24" opacity=".1"/><path fill="#81D4DC" fill-rule="nonzero" d="M319 282.6h136.98v68.06h-137z"/><path fill="#367089" fill-rule="nonzero" d="M319 348.66h136.98v2h-137z"/><path fill="#1D1D1B" fill-rule="nonzero" d="M323.02 286.63h128.92v60H323.02z" opacity=".05"/><path fill="#1D1D1B" fill-rule="nonzero" d="M450.33 288.24v56.78h-125.7v-56.78h125.7zm1.62-1.6H323.02v60h128.92v-60z" opacity=".1"/><path fill="#7DADBA" fill-rule="nonzero" d="M387.86 291.36c-.57 0-1.12.23-1.52.63-.4.4-.62.9-.62 1.5v46.9c0 1.2.95 2.1 2.14 2.1 1.18 0 2.14-1 2.14-2.2v-46.9c0-.6-.22-1.1-.63-1.5-.4-.4-.94-.7-1.5-.7zm-10.68 0c-.57 0-1.1.23-1.52.63-.4.4-.62.9-.62 1.5v46.9c0 1.2.96 2.1 2.14 2.1 1.18 0 2.14-1 2.14-2.2v-46.9c0-.6-.22-1.1-.62-1.5-.4-.4-.95-.7-1.52-.7zm-10.64 0c-.57 0-1.12.23-1.52.63-.4.4-.63.9-.63 1.5v46.9c0 1.2.9 2.1 2.1 2.1 1.2 0 2.1-1 2.1-2.2v-46.9c-.1-1.2-1-2.1-2.2-2.2zm-10.68 0c-.57 0-1.12.23-1.52.63-.4.4-.63.9-.63 1.5v46.9c0 1.2 1 2.1 2.2 2.1 1.2 0 2.2-1 2.2-2.2v-46.9c0-1.2-.9-2.2-2.1-2.2zm74.72 0c-.57 0-1.12.23-1.52.63-.4.4-.63.9-.63 1.5v46.9c0 1.2.96 2.1 2.15 2.1 1.18 0 2.14-1 2.14-2.2v-46.9c-.03-1.2-.97-2.1-2.14-2.2zm10.64 0c-.57 0-1.12.23-1.52.63-.4.4-.63.9-.62 1.5v46.9c0 1.2.95 2.1 2.14 2.1 1.18 0 2.14-1 2.14-2.2v-46.9c0-.6-.22-1.1-.63-1.5-.4-.4-.94-.7-1.5-.7zm-96.04 0c-.57 0-1.12.23-1.52.63-.4.4-.63.9-.62 1.5v46.9c0 1.2.95 2.1 2.14 2.1 1.18 0 2.14-1 2.14-2.2v-46.9c0-1.2-.96-2.2-2.14-2.2zm-10.68 0c-.57 0-1.1.23-1.52.63-.4.4-.62.9-.62 1.5v46.9c0 1.2.96 2.1 2.14 2.1 1.18 0 2.14-1 2.14-2.2v-46.9c0-.6-.22-1.1-.62-1.5-.4-.4-.95-.7-1.52-.7zm85.4 0c-.57 0-1.12.23-1.52.63-.4.4-.63.9-.63 1.5v46.9c0 1.2.96 2.1 2.15 2.1 1.18 0 2.14-1 2.14-2.2v-46.9c0-1.2-.96-2.2-2.14-2.2zm-10.68 0c-.57 0-1.12.23-1.52.63-.4.4-.63.9-.63 1.5v46.9c0 1.2.96 2.1 2.15 2.1 1.18 0 2.14-1 2.14-2.2v-46.9c0-1.2-.96-2.2-2.14-2.2zm-10.68 0c-.57 0-1.12.23-1.52.63-.4.4-.63.9-.63 1.5v46.9c0 .5.2 1.1.6 1.5.4.4.9.6 1.5.6.5 0 1.1-.2 1.5-.6.4-.4.6-1 .6-1.6v-46.9c0-1.2-1-2.2-2.2-2.2z"/><path fill="#91EAF3" fill-rule="nonzero" d="M387.48 290.98c-.57 0-1.1.23-1.5.63-.42.4-.64 1-.64 1.6v47c0 1.2.96 2.2 2.14 2.2 1.2 0 2.15-.9 2.15-2.1v-47c0-.5-.23-1.1-.63-1.5-.4-.4-.95-.6-1.52-.6zm-10.68 0c-.57 0-1.1.23-1.5.63-.4.4-.64 1-.64 1.6v47c0 1.2.96 2.2 2.14 2.2 1.2 0 2.15-.9 2.15-2.1v-47c0-.5-.23-1.1-.63-1.5-.4-.4-.95-.6-1.52-.6zm-10.64 0c-.57 0-1.1.23-1.5.63-.42.4-.64 1-.64 1.6v47c0 .8.4 1.5 1.07 1.9.6.4 1.4.4 2.1 0 .6-.4 1-1.1 1-1.8v-47c-.1-1.2-1-2.1-2.2-2.1zm-10.68 0c-.57 0-1.1.23-1.5.63-.42.4-.64 1-.64 1.6v47c0 1.2.96 2.2 2.14 2.2 1.2 0 2.15-.9 2.15-2.1v-47c-.02-1.2-.97-2.1-2.15-2.1zm74.72 0c-.57 0-1.1.23-1.52.63-.4.4-.62 1-.62 1.6v47c0 1.2.96 2.2 2.14 2.2 1.18 0 2.14-.9 2.14-2.1v-47c-.02-1.2-.97-2.1-2.14-2.1zm10.64 0c-.57 0-1.1.23-1.5.63-.42.4-.64 1-.64 1.6v47c0 1.2.96 2.2 2.14 2.2 1.2 0 2.15-.9 2.15-2.1v-47c0-.5-.3-1.1-.7-1.5-.4-.4-1-.6-1.5-.6zm-96.04 0c-.57 0-1.1.23-1.5.63-.42.4-.64 1-.64 1.6v47c0 1.2.96 2.2 2.14 2.2 1.2 0 2.15-.9 2.15-2.1v-47c-.02-1.2-.97-2.1-2.15-2.1zm-10.68 0c-.57 0-1.1.23-1.5.63-.4.4-.64 1-.64 1.6v47c0 1.2.96 2.2 2.14 2.2 1.2 0 2.15-.9 2.15-2.1v-47c0-.5-.23-1.1-.63-1.5-.4-.4-.95-.6-1.52-.6zm85.4 0c-.57 0-1.1.23-1.5.63-.42.4-.64 1-.64 1.6v47c0 1.2.96 2.2 2.14 2.2 1.18 0 2.14-.9 2.14-2.1v-47c0-1.2-.96-2.1-2.14-2.1zm-10.68 0c-.57 0-1.1.23-1.5.63-.42.4-.64 1-.64 1.6v47c0 1.2.96 2.2 2.14 2.2 1.2 0 2.15-.9 2.15-2.1v-47c-.1-1.2-1-2.1-2.2-2.1zm-10.68 0c-.57 0-1.1.23-1.5.63-.42.4-.64 1-.64 1.6v47c0 .6.22 1.1.63 1.5.4.4.94.7 1.5.7.58 0 1.13-.2 1.54-.6.4-.4.6-.9.6-1.5v-47c0-1.1-1-2.1-2.2-2.1z"/><path fill="#1D1D1B" fill-rule="nonzero" d="M319.5 286.63l21.72 64.03H319.5" opacity=".1"/><text fill="#000" transform="translate(383 327)" opacity=".5" font-size="14" font-family="Lato-Black, Lato" font-weight="700"><tspan x=".4" y="14.85">OPERATE</tspan></text><path fill="#81D4DC" fill-rule="nonzero" d="M289.2 198.98h137v68.06h-137z"/><path fill="#1D1D1B" fill-rule="nonzero" d="M293.24 203h128.92v60H293.24z" opacity=".05"/><path fill="#1D1D1B" fill-rule="nonzero" d="M420.55 204.63v56.77h-125.7v-56.77h125.7zm1.6-1.62h-128.9v60h128.9v-60z" opacity=".1"/><path fill="#7DADBA" fill-rule="nonzero" d="M358.07 207.74c-.56 0-1.1.23-1.5.63-.4.4-.64.95-.64 1.52v46.9c0 1.2.96 2.1 2.14 2.1 1.2 0 2.15-1 2.15-2.2v-46.9c0-.6-.23-1.2-.63-1.6-.4-.4-1-.7-1.6-.7zm-10.67 0c-.57 0-1.12.23-1.52.63-.4.4-.63.95-.63 1.52v46.9c0 1.2.96 2.1 2.14 2.1 1.1 0 2.1-1 2.1-2.2v-46.9c0-.6-.3-1.2-.7-1.6-.4-.4-1-.7-1.5-.7zm-10.65 0c-.57 0-1.1.23-1.5.63-.42.4-.64.95-.64 1.52v46.9c0 1.2 1 2.1 2.2 2.1 1.2 0 2.2-1 2.2-2.2v-46.9c0-1.2-.9-2.2-2.1-2.2zm-10.68 0c-.57 0-1.1.23-1.5.63-.4.4-.64.95-.64 1.52v46.9c0 1.2.96 2.1 2.14 2.1 1.2 0 2.15-1 2.15-2.2v-46.9c-.02-1.2-.97-2.2-2.15-2.2zm74.73 0c-.58 0-1.12.23-1.52.63-.4.4-.63.95-.63 1.52v46.9c0 1.2.96 2.1 2.14 2.1 1.1 0 2.1-1 2.1-2.2v-46.9c-.1-1.2-1-2.2-2.2-2.2zm10.63 0c-.56 0-1.1.23-1.5.63-.4.4-.64.95-.64 1.52v46.9c0 1.2.9 2.1 2.1 2.1 1.2 0 2.1-1 2.1-2.2v-46.9c0-.6-.3-1.2-.7-1.6-.4-.4-1-.7-1.5-.7zm-96.03 0c-.57 0-1.12.23-1.52.63-.4.4-.63.95-.63 1.52v46.9c0 1.2.96 2.1 2.14 2.1 1.1 0 2.1-1 2.1-2.2v-46.9c0-1.2-1-2.2-2.2-2.2zm-10.7 0c-.55 0-1.1.23-1.5.63-.4.4-.63.95-.63 1.52v46.9c0 1.2.96 2.1 2.14 2.1 1.2 0 2.2-1 2.2-2.2v-46.9c0-.6-.2-1.2-.6-1.6-.4-.4-.9-.7-1.5-.7zm85.4 0c-.56 0-1.1.23-1.5.63-.4.4-.63.95-.63 1.52v46.9c0 1.2.96 2.1 2.14 2.1 1.2 0 2.2-1 2.2-2.2v-46.9c0-1.2-.9-2.2-2.1-2.2zm-10.67 0c-.57 0-1.1.23-1.5.63-.4.4-.64.95-.64 1.52v46.9c0 1.2.9 2.1 2.1 2.1 1.2 0 2.1-1 2.1-2.2v-46.9c0-1.2-1-2.2-2.2-2.2zm-10.68 0c-.56 0-1.1.23-1.5.63-.4.4-.64.95-.64 1.52v46.9c0 .5.3 1.1.7 1.5.4.4 1 .6 1.5.6.6 0 1.2-.3 1.6-.7.4-.4.6-1 .6-1.6v-46.9c0-1.2-.9-2.2-2.1-2.2z"/><path fill="#91EAF3" fill-rule="nonzero" d="M357.7 207.37c-.57 0-1.12.22-1.52.62-.4.4-.63.9-.63 1.5v46.9c0 1.2.96 2.1 2.15 2.1 1.18 0 2.14-1 2.14-2.2v-46.9c0-.6-.22-1.1-.63-1.5-.4-.4-.9-.7-1.5-.7zm-10.68 0c-.57 0-1.12.22-1.52.62-.4.4-.62.9-.62 1.5v46.9c0 1.2.95 2.1 2.14 2.1 1.18 0 2.14-1 2.14-2.2v-46.9c0-.6-.22-1.1-.63-1.5-.4-.4-.94-.7-1.5-.7zm-10.64 0c-.57 0-1.12.22-1.52.62-.4.4-.63.9-.63 1.5v46.9c0 1.2.96 2.1 2.15 2.1 1.18 0 2.14-1 2.14-2.2v-46.9c-.03-1.2-.97-2.1-2.14-2.2zm-10.68 0c-.57 0-1.12.22-1.52.62-.4.4-.63.9-.63 1.5v46.9c0 1.2.96 2.1 2.15 2.1 1.18 0 2.14-1 2.14-2.2v-46.9c0-1.2-.96-2.2-2.14-2.2zm74.72 0c-.57 0-1.12.22-1.52.62-.4.4-.63.9-.63 1.5v46.9c0 1.2.96 2.1 2.15 2.1 1.18 0 2.14-1 2.14-2.2v-46.9c-.03-1.2-.97-2.1-2.14-2.2zm10.64 0c-.57 0-1.12.22-1.52.62-.4.4-.63.9-.63 1.5v46.9c0 1.2 1 2.1 2.2 2.1 1.2 0 2.2-1 2.2-2.2v-46.9c0-.6-.2-1.1-.6-1.5-.4-.4-.9-.7-1.5-.7zm-96.04 0c-.57 0-1.12.22-1.52.62-.4.4-.63.9-.63 1.5v46.9c0 1.2.96 2.1 2.15 2.1 1.18 0 2.14-1 2.14-2.2v-46.9c0-1.2-.96-2.2-2.14-2.2zm-10.68 0c-.57 0-1.12.22-1.52.62-.4.4-.63.9-.62 1.5v46.9c0 1.2.95 2.1 2.14 2.1 1.18 0 2.14-1 2.14-2.2v-46.9c0-.6-.22-1.1-.63-1.5-.4-.4-.94-.7-1.5-.7zm85.4 0c-.57 0-1.12.22-1.52.62-.4.4-.63.9-.63 1.5v46.9c0 1.2.9 2.1 2.1 2.1 1.2 0 2.1-1 2.1-2.2v-46.9c0-1.2-1-2.2-2.2-2.2zm-10.68 0c-.57 0-1.12.22-1.52.62-.4.4-.63.9-.63 1.5v46.9c0 1.2 1 2.1 2.2 2.1 1.2 0 2.2-1 2.2-2.2v-46.9c0-1.2-.9-2.2-2.1-2.2zm-10.68 0c-.57 0-1.12.22-1.52.62-.4.4-.63.9-.63 1.5v46.9c0 .5.23 1.1.63 1.5.4.4.95.6 1.52.6.57 0 1.12-.2 1.52-.6.4-.4.63-1 .62-1.6v-46.9c0-1.2-.96-2.2-2.14-2.2z"/><text fill="#000" transform="translate(374 244)" opacity=".5" font-size="14" font-family="Lato-Black, Lato" font-weight="700"><tspan x=".62" y="14.23">BUILD</tspan></text><path fill="#000" fill-rule="nonzero" d="M554.4 350.66H527v-8.23" opacity=".1"/><path stroke="#4D4D4D" d="M301.37 200.1l56.26-19.35 56.4 19.35m-60.43-75.92h8.95v36.54h-8.94z"/><path fill="#FFD301" fill-rule="nonzero" d="M351.6 159.98h12.96l-6.48 9.9"/><path stroke="#4D4D4D" d="M362.85 177c0 2.64-2.14 4.77-4.77 4.77-2.63 0-4.77-2.13-4.77-4.77 0-2.63 2.2-4.76 4.8-4.76v-2.37m163.4-21.47v165.57M499.2 148.4v165.57m0-165.57h22.28v22.3h-22.3z"/><path stroke="#4D4D4D" d="M499.2 170.7h22.28V193h-22.3zm0 22.3h22.28v22.28h-22.3zm0 22.28h22.28v22.3h-22.3z"/><path stroke="#4D4D4D" d="M499.2 237.57h22.28v22.3h-22.3z"/><path stroke="#4D4D4D" d="M499.2 259.86h22.28v22.3h-22.3zm0 22.3h22.28v22.3h-22.3z"/><path stroke="#4D4D4D" d="M499.2 304.44h22.28v22.3h-22.3zm0-156.04l22.28 22.3m0 0l-22.3 22.3m.02 0l22.28 22.28m0 0l-22.3 22.3m.02 0l22.28 22.3m0-.02l-22.3 22.3m.02 0l22.28 22.28m0 0l-22.3 22.3"/><path fill="#4D4D4D" fill-rule="nonzero" d="M536.17 105.3l17 18.62h-17V105.3zm-1-2.6v22.22h20.27l-20.27-22.2z"/><path fill="#2C5871" fill-rule="nonzero" d="M316.1 124.92h221.88"/><path fill="#367089" fill-rule="nonzero" d="M316.1 102.63v22.3h220.13v-22.3"/><path fill="#2C5871" fill-rule="nonzero" d="M493.3 124.86H527v24.6h-33.7zm0 201.22H527v24.6h-33.7z"/><g transform="translate(87 307)"><ellipse cx="63.67" cy="213.52" fill="#000" fill-rule="nonzero" opacity=".1" rx="29.26" ry="5.67"/><path stroke="#666" stroke-width="20.47" d="M52.8 126.48l20.5 68.02"/><path stroke="#1D1D1B" stroke-width="20.47" d="M70.52 185.27l5.06 16.78" stroke-linecap="round"/><path stroke="#1D1D1B" stroke-width="20.47" d="M68.15 175.5l5.05 18.66"/><path stroke="#666" stroke-width="20.47" d="M52.8 126.48v71.04"/><path stroke="#1D1D1B" stroke-width="20.47" d="M52.8 187.88v17.52" stroke-linecap="round"/><path stroke="#1D1D1B" stroke-width="20.47" d="M52.8 177.65v19.52"/><path fill="#000" fill-rule="nonzero" d="M60 175.37l6.4 21.2 2.46 8.13-8.33-71.8-.52-7.5v1.08" opacity=".2"/><path fill="#DE9462" fill-rule="nonzero" d="M47.64 40.44h10.33v10.33H47.64z"/><path fill="gray" fill-rule="nonzero" d="M28.8 72.47c0-6.36 2.54-12.47 7.04-16.97 4.5-4.5 10.6-7.03 16.97-7.03 13.3 0 24 10.75 24 24v60.65h-48V72.47z"/><path fill="#EF9F6A" fill-rule="nonzero" d="M37.8 28.63c0 8.3 6.7 15.02 15 15.02s15.03-6.73 15.03-15.02V10.16H37.8v18.47z"/><path fill="#EF9F6A" fill-rule="nonzero" d="M37.8 28.63c0 8.3 6.7 15.02 15 15.02s15.03-6.73 15.03-15.02V10.16H37.8v18.47z"/><path d="M41.78 38.7c2.67 0 5.23-1.07 7.1-2.95"/><path fill="#000" fill-rule="nonzero" d="M52.8 43.65c-1.75 0-3.5-.32-5.16-.93v2.42c3.34 1.24 7 1.24 10.34 0v-2.42c-1.66.6-3.4.92-5.17.93z" opacity=".2"/><circle cx="43.26" cy="18.34" r="1.48" fill="#000" fill-rule="nonzero"/><path fill="#736357" fill-rule="nonzero" d="M32.9.65h34.78c2.7-.07 4.96 2.07 5.04 4.78v17.52c-.08 2.7-2.33 4.85-5.04 4.78h-.02c-6 .07-11.47-3.38-13.98-8.82-.92-2.1-2.5-3.9-4.5-5-1.6-.7-3.3-1.2-5.07-1.3-6.2-.5-11-5.6-11.2-11.8z"/><ellipse cx="55.37" cy="22.5" fill="#EF9F6A" fill-rule="nonzero" transform="rotate(-77.127 55.367 22.5)" rx="4.43" ry="3.76"/><path fill="#000" fill-rule="nonzero" d="M55.38 56.77c-1.36 0-2.67.54-3.64 1.5-.96.97-1.5 2.28-1.5 3.65v27.53c0 3.97-3.23 7.2-7.2 7.2H28.8v10.3h14.23c9.66-.02 17.5-7.84 17.5-17.5V61.92c0-1.37-.54-2.68-1.5-3.64-.97-.97-2.28-1.5-3.65-1.5z" opacity=".2"/><path stroke="#999" stroke-width="14.62" d="M52.8 57.78V85.3c0 6.83-5.52 12.36-12.34 12.36H2.22" stroke-linecap="round"/><path stroke="#EF9F6A" stroke-width="14.62" d="M15.86 97.66H4.38"/><path stroke="#EF9F6A" stroke-width="14.62" d="M7.62 97.66H.26" stroke-linecap="round"/></g><g transform="translate(7 290)"><ellipse cx="29.81" cy="230.52" fill="#000" fill-rule="nonzero" opacity=".1" rx="29.26" ry="5.67"/><path stroke="#2C5871" stroke-width="20.47" d="M18.2 143.48v71.04"/><path stroke="#1D1D1B" stroke-width="20.47" d="M18.2 204.88v17.52" stroke-linecap="round"/><path stroke="#1D1D1B" stroke-width="20.47" d="M18.2 194.65v19.52"/><path stroke="#2C5871" stroke-width="20.47" d="M41.28 143.48v71.04"/><path stroke="#1D1D1B" stroke-width="20.47" d="M41.28 204.88v17.52" stroke-linecap="round"/><path stroke="#1D1D1B" stroke-width="20.47" d="M41.28 194.65v19.52"/><path fill="#DE9462" fill-rule="nonzero" d="M24.57 57.44H34.9v10.33H24.57z"/><path fill="#000" fill-rule="nonzero" d="M29.74 60.18c-1.76 0-3.5-.32-5.17-.93v2.42c3.34 1.24 7 1.24 10.34 0v-2.42c-1.6.6-3.4.93-5.1.93z" opacity=".2"/><path stroke="#2C5871" stroke-width="14.62" d="M.82 156.37v-68c0-10.22 13.9-18.85 30.38-18.85" stroke-linecap="round"/><path stroke="#EF9F6A" stroke-width="14.62" d="M.82 161.32v-9.9" stroke-linecap="round"/><path stroke="#EF9F6A" stroke-width="14.62" d="M.82 155.14V99.28"/><path stroke="#2C5871" stroke-width="14.62" d="M58.8 156.37v-68c0-10.22-13.92-18.85-30.38-18.85" stroke-linecap="round"/><path stroke="#EF9F6A" stroke-width="14.62" d="M58.8 161.32v-9.9" stroke-linecap="round"/><path stroke="#EF9F6A" stroke-width="14.62" d="M58.8 155.14V99.28"/><path fill="#15B0BF" fill-rule="nonzero" d="M53.74 149h-48V88.38c0-13.26 10.75-24 24-24s24 10.74 24 24V149z"/><path fill="#000" fill-rule="nonzero" d="M12.43 25.9v16.93c0 1.16.46 2.26 1.28 3.08.9.9 2 1.3 3.1 1.3h25.9c1.2 0 2.3-.4 3.1-1.3.8-.8 1.3-1.9 1.3-3v-17H12.5z"/><path fill="#EF9F6A" fill-rule="nonzero" d="M44.76 45.63c0 8.3-6.72 15.02-15.02 15.02s-15.02-6.73-15.02-15.02V27.16h30.04v18.47z"/><path fill="#EF9F6A" fill-rule="nonzero" d="M44.76 45.63c0 8.3-6.72 15.02-15.02 15.02s-15.02-6.73-15.02-15.02V27.16h30.04v18.47z"/><path d="M29.74 55.7c-5.56 0-10.06-4.52-10.07-10.07"/><path fill="#232323" fill-rule="nonzero" d="M12.43 22.75v5.5c3.17 2.5 9.73 4.24 17.3 4.24 7.45 0 13.9-1.7 17.14-4.1v-5.7H12.43z" opacity=".2"/><ellipse cx="44.76" cy="42.76" fill="#EF9F6A" fill-rule="nonzero" rx="3.15" ry="4.51"/><ellipse cx="13.78" cy="42.76" fill="#EF9F6A" fill-rule="nonzero" rx="3.15" ry="4.51"/><circle cx="38.05" cy="35.34" r="1.48" fill="#000" fill-rule="nonzero"/><circle cx="22.68" cy="35.34" r="1.48" fill="#000" fill-rule="nonzero"/><path fill="#000" fill-rule="nonzero" d="M47.05 26.46v-.94c0-2.17-1.6-4-3.75-4.3l-13.56-1.9-13.56 1.9c-2.15.3-3.75 2.13-3.75 4.3v.94h34.62z"/><path fill="#000" fill-rule="nonzero" d="M29.54 24.9h-17.1V29s9.4-2.47 16.9-.06V29l.1-.03c.03 0 .06 0 .1.02v-.1c7.5-2.4 17.5.6 17.5.6v-4.1l-17.5-.6z"/><path fill="#1A3842" fill-rule="nonzero" d="M6.43 20.53h46.62v5.25H6.43z"/><path fill="#244959" fill-rule="nonzero" d="M29.74 30.2c10.68 0 19.35-3.43 19.35-7.67H10.4c0 4.24 8.66 7.67 19.34 7.67z"/><path fill="#002F47" fill-rule="nonzero" d="M29.74.96c-12.35 0-22.36 10-22.36 22.36H52.1C52.1 10.97 42.1.96 29.74.96z"/><path fill="#2C5871" fill-rule="nonzero" d="M6.43 20.45h46.62v2.87H6.43z"/><path fill="#FFF" fill-rule="nonzero" d="M12.17 18.2c-.12 0-.24-.03-.35-.07-.6-.2-.94-.83-.75-1.43 1.82-5.67 6.18-10.16 11.8-12.15.6-.2 1.24.1 1.45.7.2.6-.1 1.25-.7 1.46-4.93 1.8-8.76 5.7-10.36 10.7-.15.5-.6.8-1.1.8z" opacity=".3"/><path fill="#FFD800" fill-rule="nonzero" d="M40.2 10.16H21.22c-.23 0-.45.1-.6.26-.18.17-.27.4-.26.62v5.84c0 .24.08.46.24.63.18.2.4.3.63.3H35.8v1.6l1.17-1.6h3.22c.5 0 .9-.4.9-.9v-5.8c0-.5-.5-.8-1-.8z"/><path fill="#0C2F46" fill-rule="nonzero" d="M23.1 11.4l-1.5 3.63h.68l.3-.72h1.62l.3.8h.68l-1.52-3.6h-.55zm-.32 2.37l.6-1.47.6 1.47h-1.2zm4.16-2.37h-1.4v3.63h.66v-1.27h.74c.42 0 .8-.22 1.02-.6.2-.35.2-.8 0-1.17-.2-.4-.6-.6-1.02-.6zm-.04 1.78h-.7v-1.2h.7c.32.03.57.3.57.6 0 .32-.25.58-.57.6zm2.28.58h.74c.42 0 .8-.22 1.02-.58.2-.37.2-.82 0-1.2-.2-.35-.6-.58-1.02-.58h-1.4v3.63h.66v-1.27zm0-1.77h.7c.32 0 .57.2.57.5s-.25.6-.57.6h-.7v-1.2zm5.24-.6h-.65v2.1c0 .6-.33.9-.82.9-.5 0-.82-.3-.82-1v-2.1h-.65v2.2c0 .8.67 1.4 1.47 1.4.8 0 1.46-.7 1.47-1.5v-2.2zm.58 1h1V15h-1z"/><circle cx="35.31" cy="11.73" r="1" fill="#0C2F46" fill-rule="nonzero"/><path fill="#0C2F46" fill-rule="nonzero" d="M37.98 15.1c1.04 0 1.86-.86 1.85-1.9 0-1.03-.86-1.87-1.9-1.86-1.03 0-1.87.85-1.87 1.9 0 .5.2.98.57 1.33.36.35.85.55 1.35.54zm0-3.17c.53 0 1 .3 1.2.8.22.47.1 1.03-.26 1.4-.37.38-.92.5-1.4.3-.5-.2-.8-.68-.82-1.2 0-.35.13-.68.37-.92.24-.2.57-.3.9-.3zm-16.33 4.34c.04.08.13.13.22.13.12 0 .15-.07.15-.1 0-.1-.07-.12-.18-.16-.14-.05-.25-.1-.25-.26v-.18c0-.04.1-.06.2-.06s.2.05.2.14l-.1.08c-.1-.05-.1-.08-.2-.08s-.1.04-.1.1c0 .07 0 .1.2.14.1.06.2.13.2.26 0 .15-.1.26-.3.26-.2 0-.3-.07-.4-.2l.1-.07zm.58-.6h.15l.18.57.18-.58h.12l.17.58.18-.58h.2l-.2.86H23l-.2-.58-.2.58h-.1m1-.86h.14v.86h-.15m.4-.25c0 .08.1.13.2.13s.1-.07.1-.1c0-.1-.1-.12-.2-.16-.2-.05-.3-.1-.3-.26 0-.07 0-.13.1-.18 0-.04.1-.06.2-.06s.2.05.2.14l-.1.08c-.1-.05-.1-.08-.2-.08s-.1.04-.1.1c0 .07 0 .1.2.14.1.06.2.13.2.26 0 .15-.1.26-.3.26-.2 0-.3-.07-.4-.2l.1-.07zm.7 0c0 .08.1.13.2.13s.1-.07.1-.1c0-.1-.1-.12-.2-.16-.2-.05-.3-.1-.3-.26 0-.07 0-.13.1-.18 0-.04.1-.06.2-.06s.2.05.2.14l-.1.08c-.1-.05-.1-.08-.2-.08s-.2.04-.2.1c0 .07.1.1.2.14.1.06.2.13.2.26 0 .15-.1.26-.3.26-.1 0-.3-.07-.3-.2l.1-.07zm1.6-.63c.1 0 .2.06.3.16l-.1.1c-.1-.08-.2-.12-.3-.12-.2 0-.3.14-.3.3 0 .18.1.32.3.32.1 0 .2-.04.2-.1l.1.08c-.2.17-.4.22-.6.12-.2-.1-.3-.3-.3-.5 0-.22.2-.36.4-.36zm.8 0c.2 0 .4.2.4.46 0 .24-.2.44-.5.44s-.5-.2-.5-.45c0-.2 0-.3.1-.4 0-.1.2-.2.3-.2zm0 .76c.1 0 .2-.07.3-.2 0-.1 0-.24-.1-.32-.1-.1-.3-.12-.4-.07-.2.1-.2.2-.2.3 0 .1 0 .2.1.2 0 .1.1.1.2.1zm.6-.74h.1l.4.6v-.6h.1v.86h-.1l-.5-.6v.6h-.2m1.1-.72h-.3v-.14h.6v.86h-.2m.7-.86h.1l.3.86h-.2l-.1-.17H29l-.1.17.37-.86zm.2.56l-.2-.35-.18.35h.3zm.4-.56h.1v.86m.35-.86h.15l.48.6v-.6h.14v.86H31l-.5-.6v.6h-.2m.9-.86h.6v.14h-.4v.2h.4v.15h-.36v.23h.4v.14h-.57m.73-.86h.33c.07 0 .14.03.2.08.05.05.1.12.1.2 0 .1-.07.2-.17.24l.2.34h-.16l-.1-.3h-.14v.3h-.14v-.86zm.3.42c.05 0 .1-.02.1-.04.04-.03.05-.07.05-.1 0-.04 0-.08-.05-.1-.04-.03-.07-.04-.1-.04h-.18v.28h.2zm1-.42h.35c.13 0 .3.12.3.28 0 .15-.16.28-.3.28h-.2v.3h-.15v-.86zm.34.42c.05 0 .1-.06.1-.14 0-.08-.05-.14-.13-.14h-.1v.28h.2zm.4-.42h.1v.72h.3v.14H34m.95-.86h.14l.4.86h-.2l-.1-.17H35l-.1.17h-.16l.36-.86zm.2.56l-.12-.35-.12.35h.3zm.5-.42h-.22v-.14h.64v.14H36v.72h-.15m.54-.86h.5v.14h-.4v.22h.3v.14h-.3v.36h-.2m1-.88c.2 0 .4.2.4.46 0 .24-.2.44-.4.44-.3 0-.5-.2-.5-.45 0-.2 0-.3.1-.4.1-.1.2-.2.3-.2zm0 .76c.1 0 .2-.07.2-.2 0-.1 0-.24-.1-.32-.1-.1-.2-.12-.4-.07-.1.1-.2.2-.2.3 0 .1 0 .2.1.2.03.1.1.1.2.1zm.6-.74h.3l.2.08v.2c0 .1-.1.2-.2.24l.2.34h-.18l-.2-.3H38v.3-.86zm.3.42s.1-.02.1-.04v-.2c0-.03-.1-.04-.1-.04H38v.28h.2zm.5-.42h.1l.3.48.3-.48h.1v.86h-.2v-.58l-.3.45-.3-.5v.6"/></g><g fill="#D1ECFB" fill-rule="nonzero" opacity=".3"><path d="M277.83 43.3c-17.95-17.96-47.05-17.96-65 0l-.45.43c-.6-.73-1.24-1.44-1.93-2.12-.35-.3-.72-.7-1.08-1-7.8-8-19.37-11.2-30.18-8.2-10.9 3-19.2 11.7-21.7 22.6-7 .6-13 5.4-14.9 12.1-2 6.8.5 14 6.2 18.2 5.6 4.2 13.3 4.3 19.1.5 9.3 7.6 22.1 9 32.8 3.7l.4-.1c5.5 18.4 21.8 31.3 40.9 32.6 19.1 1.3 37-9.4 44.9-26.8 7.9-17.4 4.2-37.9-9.4-51.5z"/><path d="M329.36 31.2c5.12-9.8 1.72-21.9-7.75-27.65-9.4-5.73-21.7-3.1-28.1 6-14.4-11.65-34.9-11.85-49.6-.5-14.6 11.35-19.6 31.3-11.9 48.17 7.7 16.9 25.9 26.32 44.1 22.78 18.2-3.54 31.6-19.1 32.4-37.63 8.6.98 17-3.46 21-11.16z"/></g><path d="M0 0h556v526H0z"/></g></svg>
