<?xml version="1.0" encoding="UTF-8" standalone="no"?>
<svg width="463px" height="495px" viewBox="0 0 463 495" version="1.1" xmlns="http://www.w3.org/2000/svg" xmlns:xlink="http://www.w3.org/1999/xlink">
    <!-- Generator: Sketch 46.2 (44496) - http://www.bohemiancoding.com/sketch -->
    <title>feature_community</title>
    <desc>Created with Sketch.</desc>
    <defs></defs>
    <g id="Page-1" stroke="none" stroke-width="1" fill="none" fill-rule="evenodd">
        <g id="feature_community">
            <g id="containers" transform="translate(334.000000, 320.000000)" fill-rule="nonzero" fill="#000000" opacity="0.1">
                <polygon id="Shape" points="44.877 14.001 0.93 14.001 0.93 0.797"></polygon>
            </g>
            <g id="community">
                <g id="container" transform="translate(169.000000, 115.000000)" fill-rule="nonzero">
                    <rect id="Rectangle-path" fill="#81D4DC" x="0.72147" y="0.45281" width="219.61447" height="109.11374"></rect>
                    <rect id="Rectangle-path" fill="#1D1D1B" opacity="0.05" x="7.18665" y="6.91802" width="206.68391" height="96.1831"></rect>
                    <path d="M211.28441,9.50418 L211.28441,100.515 L9.77281,100.515 L9.77281,9.50418 L211.28441,9.50418 L211.28441,9.50418 Z M213.87056,6.91803 L7.18665,6.91803 L7.18665,103.10113 L213.87056,103.10113 L213.87056,6.918 L213.87056,6.91803 Z" id="Shape" fill="#1D1D1B" opacity="0.1"></path>
                    <path d="M111.13155,14.499 C110.220085,14.498562 109.345826,14.8604487 108.701327,15.5049555 C108.056828,16.1494622 107.694951,17.0237252 107.6954,17.93519 L107.6954,93.22969 C107.6954,95.1274232 109.233817,96.66584 111.13155,96.66584 C113.029283,96.66584 114.5677,95.1274232 114.5677,93.22969 L114.5677,17.93512 C114.56818,17.0236473 114.206314,16.1493678 113.561807,15.5048574 C112.9173,14.8603469 112.043023,14.4984748 111.13155,14.49895 L111.13155,14.499 Z" id="Shape" fill="#7DADBA"></path>
                    <path d="M94.011,14.499 C93.0995352,14.498562 92.2252765,14.8604487 91.5807772,15.5049555 C90.936278,16.1494622 90.5744014,17.0237252 90.57485,17.93519 L90.57485,93.22969 C90.57485,95.1274232 92.1132668,96.66584 94.011,96.66584 C95.9087332,96.66584 97.44715,95.1274232 97.44715,93.22969 L97.44715,17.93512 C97.4475667,17.0236714 97.0856777,16.1494342 96.4411834,15.5049454 C95.796689,14.8604567 94.9224486,14.4985753 94.011,14.499 L94.011,14.499 Z" id="Shape" fill="#7DADBA"></path>
                    <path d="M76.95064,14.499 C76.0391752,14.498562 75.1649165,14.8604487 74.5204172,15.5049555 C73.875918,16.1494622 73.5140414,17.0237252 73.51449,17.93519 L73.51449,93.22969 C73.51449,95.1274232 75.0529068,96.66584 76.95064,96.66584 C78.8483732,96.66584 80.38679,95.1274232 80.38679,93.22969 L80.38679,17.93512 C80.3453094,16.0548333 78.8309265,14.5404415 76.95064,14.49895 L76.95064,14.499 Z" id="Shape" fill="#7DADBA"></path>
                    <path d="M59.83009,14.499 C58.9186252,14.498562 58.0443665,14.8604487 57.3998672,15.5049555 C56.755368,16.1494622 56.3934914,17.0237252 56.39394,17.93519 L56.39394,93.22969 C56.39394,95.1274232 57.9323568,96.66584 59.83009,96.66584 C61.7278232,96.66584 63.26624,95.1274232 63.26624,93.22969 L63.26624,17.93512 C63.2457774,16.0459243 61.7192856,14.5194236 59.83009,14.49895 L59.83009,14.499 Z" id="Shape" fill="#7DADBA"></path>
                    <path d="M179.614,14.499 C178.702535,14.498562 177.828276,14.8604487 177.183777,15.5049555 C176.539278,16.1494622 176.177401,17.0237252 176.17785,17.93519 L176.17785,93.22969 C176.17785,95.1274232 177.716267,96.66584 179.614,96.66584 C181.511733,96.66584 183.05015,95.1274232 183.05015,93.22969 L183.05015,17.93512 C183.008643,16.0548528 181.494268,14.5404905 179.614,14.499 L179.614,14.499 Z" id="Shape" fill="#7DADBA"></path>
                    <path d="M196.67439,14.499 C195.762925,14.498562 194.888666,14.8604487 194.244167,15.5049555 C193.599668,16.1494622 193.237791,17.0237252 193.23824,17.93519 L193.23824,93.22969 C193.23824,95.1274232 194.776657,96.66584 196.67439,96.66584 C198.572123,96.66584 200.11054,95.1274232 200.11054,93.22969 L200.11054,17.93512 C200.11097,17.0236628 199.749087,16.1494126 199.104591,15.5049131 C198.460095,14.8604136 197.585847,14.4985253 196.67439,14.49895 L196.67439,14.499 Z" id="Shape" fill="#7DADBA"></path>
                    <path d="M42.70939,14.499 C41.7979252,14.498562 40.9236665,14.8604487 40.2791672,15.5049555 C39.634668,16.1494622 39.2727914,17.0237252 39.27324,17.93519 L39.27324,93.22969 C39.27324,95.1274232 40.8116568,96.66584 42.70939,96.66584 C44.6071232,96.66584 46.14554,95.1274232 46.14554,93.22969 L46.14554,17.93512 C46.1252046,16.0458708 44.5986391,14.5192964 42.70939,14.49895 L42.70939,14.499 Z" id="Shape" fill="#7DADBA"></path>
                    <path d="M25.58884,14.499 C24.6773752,14.498562 23.8031165,14.8604487 23.1586172,15.5049555 C22.514118,16.1494622 22.1522414,17.0237252 22.15269,17.93519 L22.15269,93.22969 C22.15269,95.1274232 23.6911068,96.66584 25.58884,96.66584 C27.4865732,96.66584 29.02499,95.1274232 29.02499,93.22969 L29.02499,17.93512 C29.02542,17.0236628 28.6635368,16.1494126 28.019041,15.5049131 C27.3745453,14.8604136 26.5002972,14.4985253 25.58884,14.49895 L25.58884,14.499 Z" id="Shape" fill="#7DADBA"></path>
                    <path d="M162.49349,14.499 C161.582025,14.498562 160.707766,14.8604487 160.063267,15.5049555 C159.418768,16.1494622 159.056891,17.0237252 159.05734,17.93519 L159.05734,93.22969 C159.05734,94.4573083 159.712266,95.5916745 160.775415,96.2054837 C161.838563,96.8192929 163.148417,96.8192929 164.211565,96.2054837 C165.274714,95.5916745 165.92964,94.4573083 165.92964,93.22969 L165.92964,17.93512 C165.909177,16.0459243 164.382686,14.5194236 162.49349,14.49895 L162.49349,14.499 Z" id="Shape" fill="#7DADBA"></path>
                    <path d="M145.37279,14.499 C144.461325,14.498562 143.587066,14.8604487 142.942567,15.5049555 C142.298068,16.1494622 141.936191,17.0237252 141.93664,17.93519 L141.93664,93.22969 C141.93664,95.1274232 143.475057,96.66584 145.37279,96.66584 C147.270523,96.66584 148.80894,95.1274232 148.80894,93.22969 L148.80894,17.93512 C148.788552,16.0458931 147.262017,14.5193494 145.37279,14.49895 L145.37279,14.499 Z" id="Shape" fill="#7DADBA"></path>
                    <path d="M128.25224,14.499 C127.340775,14.498562 126.466516,14.8604487 125.822017,15.5049555 C125.177518,16.1494622 124.815641,17.0237252 124.81609,17.93519 L124.81609,93.22969 C124.815657,94.1411499 125.177539,95.0154036 125.822035,95.6599069 C126.466531,96.3044102 127.34078,96.6663021 128.25224,96.66588 C129.166793,96.6765265 130.046997,96.3179189 130.693723,95.6711848 C131.34045,95.0244507 131.699047,94.1442427 131.68839,93.22969 L131.68839,17.93512 C131.667927,16.0459243 130.141436,14.5194236 128.25224,14.49895 L128.25224,14.499 Z" id="Shape" fill="#7DADBA"></path>
                    <path d="M110.52871,13.89612 C109.617245,13.895682 108.742986,14.2575687 108.098487,14.9020755 C107.453988,15.5465822 107.092111,16.4208452 107.09256,17.33231 L107.09256,92.62681 C107.09256,94.5245432 108.630977,96.06296 110.52871,96.06296 C112.426443,96.06296 113.96486,94.5245432 113.96486,92.62681 L113.96486,17.33228 C113.96534,16.4208073 113.603474,15.5465278 112.958967,14.9020174 C112.31446,14.2575069 111.440183,13.8956348 110.52871,13.89611 L110.52871,13.89612 Z" id="Shape" fill="#91EAF3"></path>
                    <path d="M93.40816,13.89612 C92.4966952,13.895682 91.6224365,14.2575687 90.9779372,14.9020755 C90.333438,15.5465822 89.9715614,16.4208452 89.97201,17.33231 L89.97201,92.62681 C89.97201,94.5245432 91.5104268,96.06296 93.40816,96.06296 C95.3058932,96.06296 96.84431,94.5245432 96.84431,92.62681 L96.84431,17.33228 C96.84474,16.4208228 96.4828568,15.5465726 95.838361,14.9020731 C95.1938653,14.2575736 94.3196172,13.8956853 93.40816,13.89611 L93.40816,13.89612 Z" id="Shape" fill="#91EAF3"></path>
                    <path d="M76.3478,13.89612 C75.4363352,13.895682 74.5620765,14.2575687 73.9175772,14.9020755 C73.273078,15.5465822 72.9112014,16.4208452 72.91165,17.33231 L72.91165,92.62681 C72.91165,94.5245432 74.4500668,96.06296 76.3478,96.06296 C78.2455332,96.06296 79.78395,94.5245432 79.78395,92.62681 L79.78395,17.33228 C79.7424694,15.4519933 78.2280865,13.9376015 76.3478,13.89611 L76.3478,13.89612 Z" id="Shape" fill="#91EAF3"></path>
                    <path d="M59.22725,13.89612 C58.3157852,13.895682 57.4415265,14.2575687 56.7970272,14.9020755 C56.152528,15.5465822 55.7906514,16.4208452 55.7911,17.33231 L55.7911,92.62681 C55.7910998,93.8544283 56.4460262,94.9887945 57.5091748,95.6026037 C58.5723234,96.2164129 59.8821766,96.2164129 60.9453252,95.6026037 C62.0084738,94.9887945 62.6634002,93.8544283 62.6634,92.62681 L62.6634,17.33228 C62.6429374,15.4430843 61.1164456,13.9165836 59.22725,13.89611 L59.22725,13.89612 Z" id="Shape" fill="#91EAF3"></path>
                    <path d="M179.0112,13.89612 C178.099735,13.895682 177.225476,14.2575687 176.580977,14.9020755 C175.936478,15.5465822 175.574601,16.4208452 175.57505,17.33231 L175.57505,92.62681 C175.57505,94.5245432 177.113467,96.06296 179.0112,96.06296 C180.908933,96.06296 182.44735,94.5245432 182.44735,92.62681 L182.44735,17.33228 C182.405869,15.4519933 180.891486,13.9376015 179.0112,13.89611 L179.0112,13.89612 Z" id="Shape" fill="#91EAF3"></path>
                    <path d="M196.07156,13.89612 C195.160095,13.895682 194.285836,14.2575687 193.641337,14.9020755 C192.996838,15.5465822 192.634961,16.4208452 192.63541,17.33231 L192.63541,92.62681 C192.63541,94.5245432 194.173827,96.06296 196.07156,96.06296 C197.969293,96.06296 199.50771,94.5245432 199.50771,92.62681 L199.50771,17.33228 C199.50814,16.4208228 199.146257,15.5465726 198.501761,14.9020731 C197.857265,14.2575736 196.983017,13.8956853 196.07156,13.89611 L196.07156,13.89612 Z" id="Shape" fill="#91EAF3"></path>
                    <path d="M42.10656,13.89612 C41.1950952,13.895682 40.3208365,14.2575687 39.6763372,14.9020755 C39.031838,15.5465822 38.6699614,16.4208452 38.67041,17.33231 L38.67041,92.62681 C38.67041,94.5245432 40.2088268,96.06296 42.10656,96.06296 C44.0042932,96.06296 45.54271,94.5245432 45.54271,92.62681 L45.54271,17.33228 C45.5223746,15.4430308 43.9958091,13.9164564 42.10656,13.89611 L42.10656,13.89612 Z" id="Shape" fill="#91EAF3"></path>
                    <path d="M24.986,13.89612 C24.0745352,13.895682 23.2002765,14.2575687 22.5557772,14.9020755 C21.911278,15.5465822 21.5494014,16.4208452 21.54985,17.33231 L21.54985,92.62681 C21.54985,94.5245432 23.0882668,96.06296 24.986,96.06296 C26.8837332,96.06296 28.42215,94.5245432 28.42215,92.62681 L28.42215,17.33228 C28.42258,16.4208228 28.0606968,15.5465726 27.416201,14.9020731 C26.7717053,14.2575736 25.8974572,13.8956853 24.986,13.89611 L24.986,13.89612 Z" id="Shape" fill="#91EAF3"></path>
                    <path d="M161.89065,13.89612 C160.979185,13.895682 160.104926,14.2575687 159.460427,14.9020755 C158.815928,15.5465822 158.454051,16.4208452 158.4545,17.33231 L158.4545,92.62681 C158.4545,94.5245432 159.992917,96.06296 161.89065,96.06296 C163.788383,96.06296 165.3268,94.5245432 165.3268,92.62681 L165.3268,17.33228 C165.306337,15.4430843 163.779846,13.9165836 161.89065,13.89611 L161.89065,13.89612 Z" id="Shape" fill="#91EAF3"></path>
                    <path d="M144.77,13.89612 C143.858535,13.895682 142.984276,14.2575687 142.339777,14.9020755 C141.695278,15.5465822 141.333401,16.4208452 141.33385,17.33231 L141.33385,92.62681 C141.33385,94.5245432 142.872267,96.06296 144.77,96.06296 C146.667733,96.06296 148.20615,94.5245432 148.20615,92.62681 L148.20615,17.33228 C148.185762,15.4430531 146.659227,13.9165094 144.77,13.89611 L144.77,13.89612 Z" id="Shape" fill="#91EAF3"></path>
                    <path d="M127.6494,13.89612 C126.737935,13.895682 125.863676,14.2575687 125.219177,14.9020755 C124.574678,15.5465822 124.212801,16.4208452 124.21325,17.33231 L124.21325,92.62681 C124.212817,93.5382699 124.574699,94.4125236 125.219195,95.0570269 C125.863691,95.7015302 126.73794,96.0634221 127.6494,96.063 C128.563953,96.0736465 129.444157,95.7150389 130.090883,95.0683048 C130.73761,94.4215707 131.096207,93.5413627 131.08555,92.62681 L131.08555,17.33228 C131.065087,15.4430843 129.538596,13.9165836 127.6494,13.89611 L127.6494,13.89612 Z" id="Shape" fill="#91EAF3"></path>
                    <rect id="Rectangle-path" fill="#6AA0AA" x="0.72147" y="106.36028" width="219.61447" height="3.20627"></rect>
                </g>
                <g id="container_unten" transform="translate(113.000000, 224.000000)" fill-rule="nonzero">
                    <rect id="Rectangle-path" fill="#81D4DC" x="0.9284" y="0.88708" width="219.61447" height="109.11374"></rect>
                    <rect id="Rectangle-path" fill="#1D1D1B" opacity="0.05" x="7.39358" y="7.35229" width="206.68391" height="96.1831"></rect>
                    <path d="M211.49134,9.93845 L211.49134,100.94924 L9.97974,100.94924 L9.97974,9.93845 L211.49134,9.93845 L211.49134,9.93845 Z M214.07749,7.3523 L7.39358,7.3523 L7.39358,103.5354 L214.07749,103.5354 L214.07749,7.3523 Z" id="Shape" fill="#1D1D1B" opacity="0.1"></path>
                    <path d="M111.33847,14.93322 C110.427005,14.932782 109.552746,15.2946687 108.908247,15.9391755 C108.263748,16.5836822 107.901871,17.4579452 107.90232,18.36941 L107.90232,93.66391 C107.90232,95.5616432 109.440737,97.10006 111.33847,97.10006 C113.236203,97.10006 114.77462,95.5616432 114.77462,93.66391 L114.77462,18.36939 C114.7751,17.4579173 114.413234,16.5836378 113.768727,15.9391274 C113.12422,15.2946169 112.249943,14.9327448 111.33847,14.93322 L111.33847,14.93322 Z" id="Shape" fill="#7DADBA"></path>
                    <path d="M94.21792,14.93322 C93.3064552,14.932782 92.4321965,15.2946687 91.7876972,15.9391755 C91.143198,16.5836822 90.7813214,17.4579452 90.78177,18.36941 L90.78177,93.66391 C90.78177,95.5616432 92.3201868,97.10006 94.21792,97.10006 C96.1156532,97.10006 97.65407,95.5616432 97.65407,93.66391 L97.65407,18.36939 C97.6545,17.4579328 97.2926168,16.5836826 96.648121,15.9391831 C96.0036253,15.2946836 95.1293772,14.9327953 94.21792,14.93322 L94.21792,14.93322 Z" id="Shape" fill="#7DADBA"></path>
                    <path d="M77.15757,14.93322 C76.2461052,14.932782 75.3718465,15.2946687 74.7273472,15.9391755 C74.082848,16.5836822 73.7209714,17.4579452 73.72142,18.36941 L73.72142,93.66391 C73.72142,95.5616432 75.2598368,97.10006 77.15757,97.10006 C79.0553032,97.10006 80.59372,95.5616432 80.59372,93.66391 L80.59372,18.36939 C80.5522394,16.4891033 79.0378565,14.9747115 77.15757,14.93322 Z" id="Shape" fill="#7DADBA"></path>
                    <path d="M60.037,14.93322 C59.1255352,14.932782 58.2512765,15.2946687 57.6067772,15.9391755 C56.962278,16.5836822 56.6004014,17.4579452 56.60085,18.36941 L56.60085,93.66391 C56.60085,95.5616432 58.1392668,97.10006 60.037,97.10006 C61.9347332,97.10006 63.47315,95.5616432 63.47315,93.66391 L63.47315,18.36939 C63.4526874,16.4801943 61.9261956,14.9536936 60.037,14.93322 L60.037,14.93322 Z" id="Shape" fill="#7DADBA"></path>
                    <path d="M179.821,14.93322 C178.909535,14.932782 178.035276,15.2946687 177.390777,15.9391755 C176.746278,16.5836822 176.384401,17.4579452 176.38485,18.36941 L176.38485,93.66391 C176.38485,95.5616432 177.923267,97.10006 179.821,97.10006 C181.718733,97.10006 183.25715,95.5616432 183.25715,93.66391 L183.25715,18.36939 C183.215669,16.4891033 181.701286,14.9747115 179.821,14.93322 Z" id="Shape" fill="#7DADBA"></path>
                    <path d="M196.88132,14.93322 C195.969855,14.932782 195.095596,15.2946687 194.451097,15.9391755 C193.806598,16.5836822 193.444721,17.4579452 193.44517,18.36941 L193.44517,93.66391 C193.44517,95.5616432 194.983587,97.10006 196.88132,97.10006 C198.779053,97.10006 200.31747,95.5616432 200.31747,93.66391 L200.31747,18.36939 C200.3179,17.4579328 199.956017,16.5836826 199.311521,15.9391831 C198.667025,15.2946836 197.792777,14.9327953 196.88132,14.93322 L196.88132,14.93322 Z" id="Shape" fill="#7DADBA"></path>
                    <path d="M42.91632,14.93322 C42.0048552,14.932782 41.1305965,15.2946687 40.4860972,15.9391755 C39.841598,16.5836822 39.4797214,17.4579452 39.48017,18.36941 L39.48017,93.66391 C39.48017,95.5616432 41.0185868,97.10006 42.91632,97.10006 C44.8140532,97.10006 46.35247,95.5616432 46.35247,93.66391 L46.35247,18.36939 C46.3321346,16.4801408 44.8055691,14.9535664 42.91632,14.93322 L42.91632,14.93322 Z" id="Shape" fill="#7DADBA"></path>
                    <path d="M25.79577,14.93322 C24.8843052,14.932782 24.0100465,15.2946687 23.3655472,15.9391755 C22.721048,16.5836822 22.3591714,17.4579452 22.35962,18.36941 L22.35962,93.66391 C22.35962,95.5616432 23.8980368,97.10006 25.79577,97.10006 C27.6935032,97.10006 29.23192,95.5616432 29.23192,93.66391 L29.23192,18.36939 C29.23235,17.4579328 28.8704668,16.5836826 28.225971,15.9391831 C27.5814753,15.2946836 26.7072272,14.9327953 25.79577,14.93322 L25.79577,14.93322 Z" id="Shape" fill="#7DADBA"></path>
                    <path d="M162.70042,14.93322 C161.788955,14.932782 160.914696,15.2946687 160.270197,15.9391755 C159.625698,16.5836822 159.263821,17.4579452 159.26427,18.36941 L159.26427,93.66391 C159.26427,95.5616432 160.802687,97.10006 162.70042,97.10006 C164.598153,97.10006 166.13657,95.5616432 166.13657,93.66391 L166.13657,18.36939 C166.116107,16.4801943 164.589616,14.9536936 162.70042,14.93322 L162.70042,14.93322 Z" id="Shape" fill="#7DADBA"></path>
                    <path d="M145.57972,14.93322 C144.668255,14.932782 143.793996,15.2946687 143.149497,15.9391755 C142.504998,16.5836822 142.143121,17.4579452 142.14357,18.36941 L142.14357,93.66391 C142.14357,95.5616432 143.681987,97.10006 145.57972,97.10006 C147.477453,97.10006 149.01587,95.5616432 149.01587,93.66391 L149.01587,18.36939 C148.995482,16.4801631 147.468947,14.9536194 145.57972,14.93322 L145.57972,14.93322 Z" id="Shape" fill="#7DADBA"></path>
                    <path d="M128.45917,14.93322 C127.547705,14.932782 126.673446,15.2946687 126.028947,15.9391755 C125.384448,16.5836822 125.022571,17.4579452 125.02302,18.36941 L125.02302,93.66391 C125.022587,94.5753699 125.384469,95.4496236 126.028965,96.0941269 C126.673461,96.7386302 127.54771,97.1005221 128.45917,97.1001 C129.373723,97.1107465 130.253927,96.7521389 130.900653,96.1054048 C131.54738,95.4586707 131.905977,94.5784627 131.89532,93.66391 L131.89532,18.36939 C131.874857,16.4801943 130.348366,14.9536936 128.45917,14.93322 L128.45917,14.93322 Z" id="Shape" fill="#7DADBA"></path>
                    <path d="M110.73564,14.33039 C109.824175,14.329952 108.949916,14.6918387 108.305417,15.3363455 C107.660918,15.9808522 107.299041,16.8551152 107.29949,17.76658 L107.29949,93.06108 C107.29949,94.9588132 108.837907,96.49723 110.73564,96.49723 C112.633373,96.49723 114.17179,94.9588132 114.17179,93.06108 L114.17179,17.76655 C114.17227,16.8550773 113.810404,15.9807978 113.165897,15.3362874 C112.52139,14.6917769 111.647113,14.3299048 110.73564,14.33038 L110.73564,14.33039 Z" id="Shape" fill="#91EAF3"></path>
                    <path d="M93.61509,14.33039 C92.7036252,14.329952 91.8293665,14.6918387 91.1848672,15.3363455 C90.540368,15.9808522 90.1784914,16.8551152 90.17894,17.76658 L90.17894,93.06108 C90.17894,94.9588132 91.7173568,96.49723 93.61509,96.49723 C95.5128232,96.49723 97.05124,94.9588132 97.05124,93.06108 L97.05124,17.76655 C97.05167,16.8550928 96.6897868,15.9808426 96.045291,15.3363431 C95.4007953,14.6918436 94.5265472,14.3299553 93.61509,14.33038 L93.61509,14.33039 Z" id="Shape" fill="#91EAF3"></path>
                    <path d="M76.55473,14.33039 C75.6432652,14.329952 74.7690065,14.6918387 74.1245072,15.3363455 C73.480008,15.9808522 73.1181314,16.8551152 73.11858,17.76658 L73.11858,93.06108 C73.11858,94.9588132 74.6569968,96.49723 76.55473,96.49723 C78.4524632,96.49723 79.99088,94.9588132 79.99088,93.06108 L79.99088,17.76655 C79.9493994,15.8862633 78.4350165,14.3718715 76.55473,14.33038 L76.55473,14.33039 Z" id="Shape" fill="#91EAF3"></path>
                    <path d="M59.43418,14.33039 C58.5227152,14.329952 57.6484565,14.6918387 57.0039572,15.3363455 C56.359458,15.9808522 55.9975814,16.8551152 55.99803,17.76658 L55.99803,93.06108 C55.99803,94.9588132 57.5364468,96.49723 59.43418,96.49723 C61.3319132,96.49723 62.87033,94.9588132 62.87033,93.06108 L62.87033,17.76655 C62.8498674,15.8773543 61.3233756,14.3508536 59.43418,14.33038 L59.43418,14.33039 Z" id="Shape" fill="#91EAF3"></path>
                    <path d="M179.21813,14.33039 C178.306665,14.329952 177.432406,14.6918387 176.787907,15.3363455 C176.143408,15.9808522 175.781531,16.8551152 175.78198,17.76658 L175.78198,93.06108 C175.78198,94.9588132 177.320397,96.49723 179.21813,96.49723 C181.115863,96.49723 182.65428,94.9588132 182.65428,93.06108 L182.65428,17.76655 C182.612799,15.8862633 181.098416,14.3718715 179.21813,14.33038 L179.21813,14.33039 Z" id="Shape" fill="#91EAF3"></path>
                    <path d="M196.27848,14.33039 C195.367015,14.329952 194.492756,14.6918387 193.848257,15.3363455 C193.203758,15.9808522 192.841881,16.8551152 192.84233,17.76658 L192.84233,93.06108 C192.84233,94.9588132 194.380747,96.49723 196.27848,96.49723 C198.176213,96.49723 199.71463,94.9588132 199.71463,93.06108 L199.71463,17.76655 C199.71506,16.8550928 199.353177,15.9808426 198.708681,15.3363431 C198.064185,14.6918436 197.189937,14.3299553 196.27848,14.33038 L196.27848,14.33039 Z" id="Shape" fill="#91EAF3"></path>
                    <path d="M42.31349,14.33039 C41.4020252,14.329952 40.5277665,14.6918387 39.8832672,15.3363455 C39.238768,15.9808522 38.8768914,16.8551152 38.87734,17.76658 L38.87734,93.06108 C38.87734,94.9588132 40.4157568,96.49723 42.31349,96.49723 C44.2112232,96.49723 45.74964,94.9588132 45.74964,93.06108 L45.74964,17.76655 C45.7293046,15.8773008 44.2027391,14.3507264 42.31349,14.33038 L42.31349,14.33039 Z" id="Shape" fill="#91EAF3"></path>
                    <path d="M25.19294,14.33039 C24.2814752,14.329952 23.4072165,14.6918387 22.7627172,15.3363455 C22.118218,15.9808522 21.7563414,16.8551152 21.75679,17.76658 L21.75679,93.06108 C21.75679,94.9588132 23.2952068,96.49723 25.19294,96.49723 C27.0906732,96.49723 28.62909,94.9588132 28.62909,93.06108 L28.62909,17.76655 C28.62952,16.8550928 28.2676368,15.9808426 27.623141,15.3363431 C26.9786453,14.6918436 26.1043972,14.3299553 25.19294,14.33038 L25.19294,14.33039 Z" id="Shape" fill="#91EAF3"></path>
                    <path d="M162.09758,14.33039 C161.186115,14.329952 160.311856,14.6918387 159.667357,15.3363455 C159.022858,15.9808522 158.660981,16.8551152 158.66143,17.76658 L158.66143,93.06108 C158.66143,94.9588132 160.199847,96.49723 162.09758,96.49723 C163.995313,96.49723 165.53373,94.9588132 165.53373,93.06108 L165.53373,17.76655 C165.513267,15.8773543 163.986776,14.3508536 162.09758,14.33038 L162.09758,14.33039 Z" id="Shape" fill="#91EAF3"></path>
                    <path d="M144.97688,14.33039 C144.065415,14.329952 143.191156,14.6918387 142.546657,15.3363455 C141.902158,15.9808522 141.540281,16.8551152 141.54073,17.76658 L141.54073,93.06108 C141.54073,94.9588132 143.079147,96.49723 144.97688,96.49723 C146.874613,96.49723 148.41303,94.9588132 148.41303,93.06108 L148.41303,17.76655 C148.392642,15.8773231 146.866107,14.3507794 144.97688,14.33038 L144.97688,14.33039 Z" id="Shape" fill="#91EAF3"></path>
                    <path d="M127.85633,14.33039 C126.944865,14.329952 126.070606,14.6918387 125.426107,15.3363455 C124.781608,15.9808522 124.419731,16.8551152 124.42018,17.76658 L124.42018,93.06108 C124.419747,93.9725399 124.781629,94.8467936 125.426125,95.4912969 C126.070621,96.1358002 126.94487,96.4976921 127.85633,96.49727 C128.770883,96.5079165 129.651087,96.1493089 130.297813,95.5025748 C130.94454,94.8558407 131.303137,93.9756327 131.29248,93.06108 L131.29248,17.76655 C131.272017,15.8773543 129.745526,14.3508536 127.85633,14.33038 L127.85633,14.33039 Z" id="Shape" fill="#91EAF3"></path>
                    <rect id="Rectangle-path" fill="#367089" x="0.9284" y="106.79455" width="219.61447" height="3.20627"></rect>
                    <polygon id="Shape" fill="#1D1D1B" opacity="0.1" points="91.54 110.001 56.721 0.887 221.474 0.887 221.474 110.001"></polygon>
                </g>
                <g id="paar1" transform="translate(248.000000, 244.000000)">
                    <g id="frau">
                        <path d="M94.96254,0.718 L6.5681,0.718 C5.48384279,0.720298414 4.44612951,1.158846 3.68882965,1.93480728 C2.9315298,2.71076855 2.51836852,3.75884804 2.54246,4.84284 L2.54246,32.066 C2.5155819,33.1581056 2.92539307,34.2158286 3.68106406,35.0047382 C4.43673505,35.7936478 5.47584918,36.2485818 6.5681,36.26871 L74.4706,36.26871 L74.4706,43.61277 L79.92853,36.26871 L94.96253,36.26871 C97.2939092,36.2502749 99.1957428,34.3961584 99.2734,32.066 L99.2734,4.84282 C99.1889644,2.52807038 97.2787615,0.700304396 94.96254,0.718 L94.96254,0.718 Z" id="Shape" fill="#FFD800" fill-rule="nonzero"></path>
                        <ellipse id="Oval" fill="#000000" fill-rule="nonzero" opacity="0.3" cx="38.23824" cy="242.93741" rx="37.28963" ry="7.22235"></ellipse>
                        <path d="M4.571,74.06712 C4.571,72.14746 7.247,70.48484 7.56717,68.65687 C7.8964,66.777 5.95482,64.3024 6.59317,62.54896 C7.24289,60.76434 10.32684,60.11838 11.26558,58.49596 C12.21309,56.85835 11.23784,53.86533 12.44758,52.42514 C13.66079,50.98083 16.77858,51.42483 18.22293,50.21166 C19.6631,49.00201 19.76407,45.85337 21.40164,44.90593 C23.02392,43.96734 25.80055,45.44722 27.58495,44.79759 C29.33832,44.15925 30.51189,41.23517 32.39168,40.90594 C34.21968,40.58578 36.31852,42.92794 38.23827,42.92794 C40.15802,42.92794 42.25666,40.58577 44.08463,40.90594 C45.9645,41.23517 47.13815,44.15927 48.89163,44.79763 C50.67625,45.44735 53.45312,43.96763 55.07563,44.90634 C56.71324,45.85385 56.81419,49.00253 58.25438,50.21227 C59.69869,51.42548 62.8165,50.98156 64.02966,52.42591 C65.23931,53.86608 64.26395,56.85902 65.21138,58.49659 C66.14997,60.11887 69.23381,60.76464 69.88345,62.54904 C70.52179,64.30241 68.5802,66.77694 68.90945,68.65673 C69.22961,70.48473 71.90566,72.14745 71.90566,74.06719 C71.90566,75.98693 69.22966,77.64947 68.90949,79.47744 C68.58026,81.35731 70.52184,83.83191 69.88349,85.58535 C69.23377,87.36997 66.14982,88.01593 65.21108,89.63835 C64.26357,91.27596 65.23882,94.26898 64.02908,95.70917 C62.81587,97.15348 59.69808,96.70948 58.25373,97.92265 C56.81356,99.1323 56.71259,102.28094 55.07502,103.22838 C53.45274,104.16697 50.67611,102.68709 48.89171,103.33672 C47.13834,103.97506 45.96477,106.89914 44.08498,107.22837 C42.25698,107.54853 40.15814,105.20637 38.23839,105.20637 C36.31864,105.20637 34.22,107.54854 32.39203,107.22837 C30.51216,106.89914 29.33851,103.97504 27.58503,103.33668 C25.80041,102.68696 23.02354,104.16668 21.40103,103.22797 C19.76342,102.28046 19.66247,99.13178 18.22228,97.92204 C16.77797,96.70883 13.66016,97.15275 12.447,95.7084 C11.23735,94.26823 12.21271,91.27529 11.26528,89.63772 C10.32669,88.01544 7.24285,87.36967 6.59321,85.58527 C5.95487,83.8319 7.89646,81.35737 7.56721,79.47758 C7.247,77.64955 4.571,75.98686 4.571,74.06712 Z" id="Shape" fill="#402313" fill-rule="nonzero"></path>
                        <path d="M56.33673,95.656 L20.04055,95.32755 C18.3509718,95.3122616 16.7637974,94.515089 15.7426743,93.1689033 C14.7215512,91.8227176 14.3816969,90.0794146 14.82239,88.44825 L22.76879,59.03577 L52.10265,55.47049 L61.63107,88.69566 C62.1057223,90.3507448 61.7713219,92.1327678 60.7289293,93.5031759 C59.6865368,94.873584 58.058461,95.6715807 56.33673,95.656 Z" id="Shape" fill="#402313" fill-rule="nonzero"></path>
                        <path d="M30.13877,168.4912 L30.13877,231.11202" id="Shape" stroke="#EF9F6A" stroke-width="11.54639"></path>
                        <path d="M30.13877,222.61602 L30.13877,238.0586" id="Shape" stroke="#1D1D1B" stroke-width="11.54639" stroke-linecap="round"></path>
                        <path d="M30.13877,215.35783 L30.13877,230.80041" id="Shape" stroke="#1D1D1B" stroke-width="11.54639"></path>
                        <path d="M45.19404,168.4912 L45.19404,231.11202" id="Shape" stroke="#EF9F6A" stroke-width="11.54639"></path>
                        <path d="M45.19404,222.61602 L45.19404,238.0586" id="Shape" stroke="#1D1D1B" stroke-width="11.54639" stroke-linecap="round"></path>
                        <path d="M45.19404,215.35783 L45.19404,230.80041" id="Shape" stroke="#1D1D1B" stroke-width="11.54639"></path>
                        <rect id="Rectangle-path" fill="#DE9462" fill-rule="nonzero" x="33.11239" y="92.64458" width="9.10872" height="9.10872"></rect>
                        <path d="M37.6664,95.06645 C36.1116416,95.0633795 34.5696735,94.7854137 33.11171,94.24539 L33.11171,96.37789 C36.0494971,97.4726342 39.2833029,97.4726342 42.22109,96.37789 L42.22109,94.24539 C40.7631198,94.7853892 39.2211561,95.0633543 37.6664,95.06645 L37.6664,95.06645 Z" id="Shape" fill="#000000" fill-rule="nonzero" opacity="0.2"></path>
                        <path d="M12.171,179.85444 L12.171,119.91644 C12.171,110.90806 24.43437,103.29772 38.95161,103.29772" id="Shape" stroke="#C2D64C" stroke-width="8.24742" stroke-linecap="round"></path>
                        <path d="M12.17097,184.21583 L12.17097,175.49305" id="Shape" stroke="#EF9F6A" stroke-width="8.24742" stroke-linecap="round"></path>
                        <path d="M12.17097,178.77218 L12.17097,129.52802" id="Shape" stroke="#EF9F6A" stroke-width="8.24742"></path>
                        <path d="M114.22351,103.29768 L54.28551,103.29768 C45.27713,103.29768 37.66679,115.56105 37.66679,130.07829" id="Shape" stroke="#C2D64C" stroke-width="8.24742" stroke-linecap="round"></path>
                        <path d="M118.5849,103.29768 L109.86212,103.29768" id="Shape" stroke="#EF9F6A" stroke-width="8.24742" stroke-linecap="round"></path>
                        <path d="M113.14125,103.29768 L63.89709,103.29768" id="Shape" stroke="#EF9F6A" stroke-width="8.24742"></path>
                        <path d="M50.90793,82.23544 C50.90793,89.5485351 44.9794951,95.47697 37.6664,95.47697 C30.3533049,95.47697 24.42487,89.5485351 24.42487,82.23544 L24.42487,65.95486 L50.90793,65.95486 L50.90793,82.23544 Z" id="_Pfad_" fill="#EF9F6A" fill-rule="nonzero"></path>
                        <path d="M22.40719,62.06754 L22.40719,66.9136 C25.20326,69.13236 30.98234,70.65797 37.66686,70.65797 C44.22292,70.65797 49.90986,69.18961 52.76351,67.03897 L52.76351,62.06755 L22.40719,62.06754 Z" id="Shape" fill="#232323" fill-rule="nonzero" opacity="0.2"></path>
                        <ellipse id="Oval" fill="#EF9F6A" fill-rule="nonzero" cx="50.90793" cy="79.70458" rx="2.77951" ry="3.97591"></ellipse>
                        <ellipse id="Oval" fill="#EF9F6A" fill-rule="nonzero" cx="23.59884" cy="79.70458" rx="2.77951" ry="3.97591"></ellipse>
                        <circle id="_Pfad_2" fill="#423228" fill-rule="nonzero" cx="44.99267" cy="73.17256" r="1.30244"></circle>
                        <circle id="_Pfad_3" fill="#423228" fill-rule="nonzero" cx="31.44121" cy="73.17256" r="1.30244"></circle>
                        <path d="M52.92546,65.34237 L52.92546,64.5137 C52.9259824,62.5977137 51.5144415,60.9743457 49.61696,60.7087 L37.66664,59.03582 L25.71638,60.7087 C23.8187021,60.9741232 22.4068968,62.5975501 22.40738,64.5137 L22.40738,65.34237 L52.92546,65.34237 Z" id="Shape" fill="#402313" fill-rule="nonzero"></path>
                        <path d="M54.67873,57.32985 C54.67873,57.32985 51.13511,67.8901 35.18331,67.8901 C27.877127,68.1172417 21.2796309,63.5457158 18.92617,56.62523 C18.92617,56.62523 24.82085,62.86723 33.59471,54.43123 C35.58034,51.05263 51.814,49.37934 54.67873,57.32985 Z" id="Shape" fill="#402313" fill-rule="nonzero"></path>
                        <path d="M58.82116,193.536 L16.51165,193.536 L16.51165,119.91231 C16.51165,108.228875 25.9829452,98.75758 37.66638,98.75758 L37.66638,98.75758 C49.3498148,98.75758 58.82111,108.228875 58.82111,119.91231 L58.82116,193.536 Z" id="Shape" fill="#C2D64C" fill-rule="nonzero"></path>
                    </g>
                    <g id="mann" transform="translate(118.000000, 49.000000)">
                        <ellipse id="Oval" fill="#000000" fill-rule="nonzero" cx="59.00287" cy="193.93741" rx="37.28963" ry="7.22235"></ellipse>
                        <path d="M51.52035,113.27051 L71.38286,179.20051" id="Shape" fill="#000000" fill-rule="nonzero"></path>
                        <path d="M68.68804,170.25554 L73.58623,186.51418" id="Shape" fill="#000000" fill-rule="nonzero"></path>
                        <path d="M66.38584,162.61379 L71.28403,178.87244" id="Shape" fill="#000000" fill-rule="nonzero"></path>
                        <path d="M51.52035,113.27051 L51.52035,182.1275" id="Shape" fill="#000000" fill-rule="nonzero"></path>
                        <path d="M51.52035,172.78541 L51.52035,189.76586" id="Shape" fill="#000000" fill-rule="nonzero"></path>
                        <path d="M51.52035,164.80441 L51.52035,181.78485" id="Shape" fill="#000000" fill-rule="nonzero"></path>
                        <polygon id="Shape" fill="#000000" fill-rule="nonzero" points="58.504 160.662 64.696 181.216 67.077 189.085 59.003 119.505 58.504 112.239 58.504 113.271"></polygon>
                        <rect id="Rectangle-path" fill="#000000" fill-rule="nonzero" x="46.51244" y="29.87063" width="10.01582" height="10.01582"></rect>
                        <path d="M28.25888,60.9232 C28.25888,48.0762559 38.6733859,37.66175 51.52033,37.66175 L51.52033,37.66175 C64.3672741,37.66175 74.78178,48.0762559 74.78178,60.9232 L74.78178,119.70427 L28.25888,119.70427 L28.25888,60.9232 Z" id="Shape" fill="#000000" fill-rule="nonzero"></path>
                        <path d="M36.96015,18.42487 C36.96015,26.4662464 43.4789736,32.98507 51.52035,32.98507 C59.5617264,32.98507 66.08055,26.4662464 66.08055,18.42487 L66.08055,0.523 L36.96015,0.523 L36.96015,18.42487 Z" id="_Pfad_4" fill="#000000" fill-rule="nonzero"></path>
                        <path d="M51.52035,32.98508 C49.8107609,32.9817053 48.1152356,32.67606 46.51208,32.08226 L46.51208,34.42713 C49.7424275,35.630894 53.2982725,35.630894 56.52862,34.42713 L56.52862,32.08226 C54.9254571,32.6760332 53.2299366,32.9816776 51.52035,32.98508 L51.52035,32.98508 Z" id="Shape" fill="#000000" fill-rule="nonzero"></path>
                        <circle id="_Pfad_5" fill="#000000" fill-rule="nonzero" cx="42.26671" cy="8.45946" r="1.43214"></circle>
                        <ellipse id="_Pfad_6" fill="#000000" fill-rule="nonzero" transform="translate(53.998876, 12.486962) rotate(-77.126680) translate(-53.998876, -12.486962) " cx="53.9988755" cy="12.4869623" rx="4.29649" ry="3.64004"></ellipse>
                        <path d="M54.01506,45.70413 C52.6921805,45.7040319 51.4234544,46.2295002 50.4880373,47.1649173 C49.5526202,48.1003344 49.0271519,49.3690605 49.02725,50.69194 L49.02725,77.37675 C49.022583,81.2313865 45.8989465,84.355023 42.04431,84.35969 L28.25864,84.35969 L28.25864,94.33532 L42.0443,94.33532 C51.4056429,94.3241837 58.9917337,86.7380929 59.00287,77.37675 L59.00287,50.69195 C59.0029708,49.3690687 58.4775036,48.1003401 57.5420862,47.1649209 C56.6066688,46.2295016 55.3379413,45.7040319 54.01506,45.70413 Z" id="Shape" fill="#000000" fill-rule="nonzero"></path>
                        <path d="M51.52035,46.68319 L51.52035,73.368 C51.52035,79.9792627 46.1608627,85.33875 39.5496,85.33875 L2.4847,85.33875" id="Shape" fill="#000000" fill-rule="nonzero"></path>
                        <path d="M7.72102,85.33875 L0.5849,85.33875" id="Shape" fill="#000000" fill-rule="nonzero"></path>
                        <ellipse id="Oval" fill="#000000" fill-rule="nonzero" opacity="0.3" cx="59.00287" cy="193.93741" rx="37.28963" ry="7.22235"></ellipse>
                        <path d="M51.52035,113.27051 L71.38286,179.20051" id="Shape" stroke="#666666" stroke-width="12.69626"></path>
                        <path d="M68.68804,170.25554 L73.58623,186.51418" id="Shape" stroke="#1D1D1B" stroke-width="12.69626" stroke-linecap="round"></path>
                        <path d="M66.38584,162.61379 L71.28403,178.87244" id="Shape" stroke="#1D1D1B" stroke-width="12.69626"></path>
                        <path d="M51.52035,113.27051 L51.52035,182.1275" id="Shape" stroke="#666666" stroke-width="12.69626"></path>
                        <path d="M51.52035,172.78541 L51.52035,189.76586" id="Shape" stroke="#1D1D1B" stroke-width="12.69626" stroke-linecap="round"></path>
                        <path d="M51.52035,164.80441 L51.52035,181.78485" id="Shape" stroke="#1D1D1B" stroke-width="12.69626"></path>
                        <g id="Group" opacity="0.2" transform="translate(58.000000, 112.000000)" fill-rule="nonzero" fill="#000000">
                            <polygon id="Shape" points="0.504 48.662 6.696 69.216 9.077 77.085 1.003 7.505 0.504 0.239 0.504 1.271"></polygon>
                        </g>
                        <rect id="Rectangle-path" fill="#DE9462" fill-rule="nonzero" x="46.51244" y="29.87063" width="10.01582" height="10.01582"></rect>
                        <path d="M28.25888,60.9232 C28.25888,48.0762559 38.6733859,37.66175 51.52033,37.66175 L51.52033,37.66175 C64.3672741,37.66175 74.78178,48.0762559 74.78178,60.9232 L74.78178,119.70427 L28.25888,119.70427 L28.25888,60.9232 Z" id="Shape" fill="#2C5871" fill-rule="nonzero"></path>
                        <path d="M36.96015,18.42487 C36.96015,26.4662464 43.4789736,32.98507 51.52035,32.98507 C59.5617264,32.98507 66.08055,26.4662464 66.08055,18.42487 L66.08055,0.523 L36.96015,0.523 L36.96015,18.42487 Z" id="_Pfad_7" fill="#EF9F6A" fill-rule="nonzero"></path>
                        <path d="M51.52035,32.98508 C49.8107609,32.9817053 48.1152356,32.67606 46.51208,32.08226 L46.51208,34.42713 C49.7424275,35.630894 53.2982725,35.630894 56.52862,34.42713 L56.52862,32.08226 C54.9254571,32.6760332 53.2299366,32.9816776 51.52035,32.98508 L51.52035,32.98508 Z" id="Shape" fill="#000000" fill-rule="nonzero" opacity="0.2"></path>
                        <circle id="_Pfad_8" fill="#000000" fill-rule="nonzero" cx="42.26671" cy="8.45946" r="1.43214"></circle>
                        <ellipse id="_Pfad_9" fill="#EF9F6A" fill-rule="nonzero" transform="translate(53.998876, 12.486962) rotate(-77.126680) translate(-53.998876, -12.486962) " cx="53.9988755" cy="12.4869623" rx="4.29649" ry="3.64004"></ellipse>
                        <g id="Group" opacity="0.2" transform="translate(28.000000, 45.000000)" fill-rule="nonzero" fill="#000000">
                            <path d="M26.01506,0.70413 C24.6921805,0.704031857 23.4234544,1.22950024 22.4880373,2.16491734 C21.5526202,3.10033444 21.0271519,4.36906046 21.02725,5.69194 L21.02725,32.37675 C21.022583,36.2313865 17.8989465,39.355023 14.04431,39.35969 L0.25864,39.35969 L0.25864,49.33532 L14.0443,49.33532 C23.4056429,49.3241837 30.9917337,41.7380929 31.00287,32.37675 L31.00287,5.69195 C31.0029708,4.36906872 30.4775036,3.10034014 29.5420862,2.16492088 C28.6066688,1.22950161 27.3379413,0.704031856 26.01506,0.70413 Z" id="Shape"></path>
                        </g>
                        <path d="M51.52035,46.68319 L51.52035,73.368 C51.52035,79.9792627 46.1608627,85.33875 39.5496,85.33875 L2.4847,85.33875" id="Shape" stroke="#B3B3B3" stroke-width="9.06875" stroke-linecap="round"></path>
                        <path d="M15.70203,85.33875 L4.5754,85.33875" id="Shape" stroke="#EF9F6A" stroke-width="9.06875"></path>
                        <path d="M7.72102,85.33875 L0.5849,85.33875" id="Shape" stroke="#EF9F6A" stroke-width="9.06875" stroke-linecap="round"></path>
                    </g>
                </g>
                <g id="paar2" transform="translate(0.000000, 231.000000)">
                    <path d="M67.72152,0.02457 L3.05252,0.02457 C2.2592816,0.0262523711 1.50009489,0.34709287 0.946057766,0.914783679 C0.392020641,1.48247449 0.0897541195,2.24924566 0.10738,3.04229 L0.10738,22.95863 C0.0877174903,23.7576088 0.387534055,24.531433 0.940379339,25.1085948 C1.49322462,25.6857566 2.25343502,26.0185839 3.05252,26.03331 L52.7297,26.03331 L52.7297,31.40619 L56.7227,26.03331 L67.72152,26.03331 C69.4271475,26.0198259 70.8185235,24.6633642 70.87534,22.95863 L70.87534,3.04229 C70.8135573,1.34882528 69.416062,0.0116374965 67.72152,0.02457 L67.72152,0.02457 Z" id="Shape" fill="#FFD800" fill-rule="nonzero"></path>
                    <g id="frau-2" transform="translate(53.000000, 40.000000)">
                        <ellipse id="Oval" fill="#000000" fill-rule="nonzero" opacity="0.3" cx="18.92648" cy="86.25238" rx="18.60497" ry="3.09542"></ellipse>
                        <path d="M25.80878,5.32346 L21.33217,5.32346 C21.33217,7.65251 23.14675,9.67354 25.80878,10.69123 L25.80878,5.32346 Z" id="Shape" fill="#7A5022" fill-rule="nonzero"></path>
                        <path d="M25.88892,8.61619 C25.88892,11.58925 22.67554,13.9998 18.71205,13.9998 L18.39988,13.9998 C14.43636,13.9998 11.22327,11.58925 11.22327,8.61619 L11.22327,5.96964 C11.22327,2.95784 14.47827,0.51569 18.49407,0.51569 L18.61807,0.51569 C22.633,0.51569 25.88887,2.95784 25.88887,5.96964 L25.88892,8.61619 Z" id="Shape" fill="#7A5022" fill-rule="nonzero"></path>
                        <ellipse id="Oval" fill="#7A5022" fill-rule="nonzero" cx="18.9523" cy="14.73597" rx="8.04397" ry="7.11948"></ellipse>
                        <path d="M15.34122,54.06781 L15.34122,81.98768" id="Shape" stroke="#666666" stroke-width="5.66283"></path>
                        <path d="M15.34122,78.19969 L15.34122,85.08486" id="Shape" stroke="#1D1D1B" stroke-width="5.66283" stroke-linecap="round"></path>
                        <path d="M15.34122,74.96358 L15.34122,81.84875" id="Shape" stroke="#1D1D1B" stroke-width="5.66283"></path>
                        <path d="M22.0537,54.06781 L22.0537,81.98768" id="Shape" stroke="#666666" stroke-width="5.66283"></path>
                        <path d="M22.0537,78.19969 L22.0537,85.08486" id="Shape" stroke="#1D1D1B" stroke-width="5.66283" stroke-linecap="round"></path>
                        <path d="M22.0537,74.96358 L22.0537,81.84875" id="Shape" stroke="#1D1D1B" stroke-width="5.66283"></path>
                        <rect id="Rectangle-path" fill="#DE9462" fill-rule="nonzero" x="16.66702" y="20.25113" width="4.06118" height="4.06118"></rect>
                        <path d="M18.69746,21.33093 C18.0042604,21.3295639 17.3167631,21.2056327 16.66672,20.96486 L16.66672,21.91565 C17.9765495,22.4037478 19.4183605,22.4037478 20.72819,21.91565 L20.72819,20.96486 C20.0781468,21.2056197 19.3906551,21.3295506 18.69746,21.33093 L18.69746,21.33093 Z" id="Shape" fill="#000000" fill-rule="nonzero" opacity="0.2"></path>
                        <path d="M7.33017,59.10893 L7.33017,32.38519 C7.33017,28.36875 12.79787,24.97563 19.27047,24.97563" id="Shape" stroke="#2C5871" stroke-width="4.04488" stroke-linecap="round"></path>
                        <path d="M7.33017,61.05348 L7.33017,57.16438" id="Shape" stroke="#EF9F6A" stroke-width="4.04488" stroke-linecap="round"></path>
                        <path d="M7.33017,58.6264 L7.33017,36.67059" id="Shape" stroke="#EF9F6A" stroke-width="4.04488"></path>
                        <path d="M30.11747,59.42319 L30.11747,32.69945 C30.11747,28.68301 24.64977,25.28989 18.17717,25.28989" id="Shape" stroke="#2C5871" stroke-width="4.04488" stroke-linecap="round"></path>
                        <path d="M30.11747,61.36774 L30.11747,57.47863" id="Shape" stroke="#EF9F6A" stroke-width="4.04488" stroke-linecap="round"></path>
                        <path d="M30.11747,58.94066 L30.11747,36.98485" id="Shape" stroke="#EF9F6A" stroke-width="4.04488"></path>
                        <path d="M28.12943,49.88156 L9.26543,49.88156 L9.26543,32.40861 C9.26543,29.9070881 10.2591557,27.508022 12.0279988,25.7391788 C13.796842,23.9703357 16.1959081,22.97661 18.69743,22.97661 L18.69743,22.97661 C21.1989519,22.97661 23.598018,23.9703357 25.3668612,25.7391788 C27.1357043,27.508022 28.12943,29.9070881 28.12943,32.40861 L28.12943,49.88156 Z" id="Shape" fill="#15B0BF" fill-rule="nonzero"></path>
                        <path d="M24.60128,15.61015 C24.6040275,17.7212101 23.479368,19.6730867 21.6515928,20.7294106 C19.8238176,21.7857346 17.5711124,21.7857346 15.7433372,20.7294106 C13.915562,19.6730867 12.7909025,17.7212101 12.79365,15.61015 L12.79365,8.35136 L24.60128,8.35136 L24.60128,15.61015 Z" id="_Pfad_10" fill="#EF9F6A" fill-rule="nonzero"></path>
                        <path d="M11.894,6.61817 L11.894,8.77881 C13.14065,9.76806 15.71728,10.44826 18.69762,10.44826 C21.62068,10.44826 24.15623,9.79358 25.42855,8.8347 L25.42855,6.61816 L11.894,6.61817 Z" id="Shape" fill="#232323" fill-rule="nonzero" opacity="0.2"></path>
                        <ellipse id="Oval" fill="#EF9F6A" fill-rule="nonzero" cx="24.60128" cy="14.48175" rx="1.23926" ry="1.77268"></ellipse>
                        <ellipse id="Oval" fill="#EF9F6A" fill-rule="nonzero" cx="12.42535" cy="14.48175" rx="1.23926" ry="1.77268"></ellipse>
                        <circle id="_Pfad_11" fill="#000000" fill-rule="nonzero" cx="21.96392" cy="11.56941" r="1"></circle>
                        <circle id="_Pfad_12" fill="#000000" fill-rule="nonzero" cx="15.92192" cy="11.56941" r="1"></circle>
                        <path d="M25.57575,6.18573 C25.57575,6.18573 16.23829,5.52653 14.96756,11.6113 C11.70128,6.1433 16.35909,4.18968 19.0578,4.62446 C21.2601011,5.01222202 23.4367719,5.53360846 25.57575,6.18573 Z" id="Shape" fill="#7A5022" fill-rule="nonzero"></path>
                        <path d="M24.34461,4.87228 C24.34461,4.87228 14.36797,4.22142 13.0975,10.30728 C10.23113,2.54096 15.12792,2.87603 17.82689,3.31079 C20.0291041,3.69870176 22.2056937,4.22016063 24.34461,4.87228 Z" id="Shape" fill="#7A5022" fill-rule="nonzero"></path>
                        <rect id="Rectangle-path" fill="#FFD301" fill-rule="nonzero" x="11.17286" y="49.88156" width="15.55876" height="8.64344"></rect>
                    </g>
                    <g id="mann-2" transform="translate(7.000000, 35.000000)">
                        <ellipse id="Oval" fill="#000000" fill-rule="nonzero" opacity="0.3" cx="18.62028" cy="91.25238" rx="18.60497" ry="3.09542"></ellipse>
                        <path d="M23.64745,55.67402 L14.64373,85.56023" id="Shape" stroke="#666666" stroke-width="6.33076"></path>
                        <path d="M15.8653,81.50545 L13.64494,88.87553" id="Shape" stroke="#1D1D1B" stroke-width="6.33076" stroke-linecap="round"></path>
                        <path d="M16.90889,78.04143 L14.68853,85.41151" id="Shape" stroke="#1D1D1B" stroke-width="6.33076"></path>
                        <path d="M23.64745,55.67402 L23.64745,86.88704" id="Shape" stroke="#666666" stroke-width="6.33076"></path>
                        <path d="M23.64745,82.65225 L23.64745,90.34952" id="Shape" stroke="#1D1D1B" stroke-width="6.33076" stroke-linecap="round"></path>
                        <path d="M23.64745,79.03444 L23.64745,86.73171" id="Shape" stroke="#1D1D1B" stroke-width="6.33076"></path>
                        <g id="Group" opacity="0.2" transform="translate(16.000000, 55.000000)" fill-rule="nonzero" fill="#000000">
                            <polygon id="Shape" points="4.482 22.157 1.675 31.474 0.596 35.041 4.256 3.5 4.482 0.206 4.482 0.674"></polygon>
                        </g>
                        <rect id="Rectangle-path" fill="#DE9462" fill-rule="nonzero" transform="translate(23.647455, 20.138775) rotate(-180.000000) translate(-23.647455, -20.138775) " x="21.37736" y="17.86868" width="4.54019" height="4.54019"></rect>
                        <path d="M34.19192,58.59045 L13.103,58.59045 L13.103,31.94487 C13.103,26.1213255 17.8239155,21.40041 23.64746,21.40041 L23.64746,21.40041 C29.4710045,21.40041 34.19192,26.1213255 34.19192,31.94487 L34.19192,58.59045 Z" id="Shape" fill="#7DADBA" fill-rule="nonzero"></path>
                        <path d="M30.24762,12.68029 C30.24762,16.3254632 27.2926232,19.28046 23.64745,19.28046 C20.0022768,19.28046 17.04728,16.3254632 17.04728,12.68029 L17.04728,4.56529 L30.24762,4.56529 L30.24762,12.68029 Z" id="_Pfad_13" fill="#EF9F6A" fill-rule="nonzero"></path>
                        <path d="M23.64745,19.28046 C24.4224105,19.2789303 25.190996,19.1403807 25.91771,18.87121 L25.91771,19.93414 C24.4533863,20.4798092 22.8415137,20.4798092 21.37719,19.93414 L21.37719,18.87121 C22.1039074,19.1403685 22.8724906,19.2789177 23.64745,19.28046 Z" id="Shape" fill="#000000" fill-rule="nonzero" opacity="0.2"></path>
                        <circle id="_Pfad_14" fill="#000000" fill-rule="nonzero" cx="27.84215" cy="8.16295" r="1"></circle>
                        <path d="M32.39644,0.3895 L17.11562,0.3895 C15.9245517,0.35711336 14.9323468,1.29560341 14.89846,2.48663 L14.89846,10.18754 C14.9325588,11.3784956 15.9246716,12.3168732 17.11568,12.28467 L17.12268,12.28467 C19.754943,12.3184351 22.1613249,10.8023044 23.26717,8.41336 C23.6700188,7.47761233 24.3644536,6.69708736 25.24698,6.18811 C25.9419807,5.85044522 26.6964464,5.65233131 27.46768,5.60498 C30.2011011,5.38280667 32.3269504,3.13499465 32.39645,0.39344 L32.39644,0.3895 Z" id="_Pfad_15" fill="#736357" fill-rule="nonzero"></path>
                        <ellipse id="_Pfad_16" fill="#EF9F6A" fill-rule="nonzero" transform="translate(22.523918, 9.988623) rotate(-12.873320) translate(-22.523918, -9.988623) " cx="22.5239179" cy="9.9886227" rx="1.65004" ry="1.94761"></ellipse>
                        <g id="Group" opacity="0.2" transform="translate(20.000000, 25.000000)" fill-rule="nonzero" fill="#000000">
                            <path d="M2.51659,0.046 C3.11625912,0.0459522542 3.69138106,0.284148738 4.11541116,0.70817884 C4.53944126,1.13220894 4.77763775,1.70733088 4.77759,2.307 L4.77759,14.4033 C4.77970586,16.1506139 6.19565607,17.5665641 7.94297,17.56868 L14.192,17.56868 L14.192,22.09068 L7.943,22.09068 C3.69948077,22.0856326 0.260687419,18.6468392 0.25564,14.40332 L0.25564,2.307 C0.255592256,1.70733954 0.493781876,1.13222518 0.917801163,0.70819652 C1.34182045,0.284167855 1.91692954,0.0459655169 2.51659,0.046 Z" id="Shape"></path>
                        </g>
                        <path d="M23.64745,25.48984 L23.64745,37.58612 C23.64745,40.5830214 26.0769186,43.01249 29.07382,43.01249 L45.87542,43.01249" id="Shape" stroke="#B3B3B3" stroke-width="4.52197" stroke-linecap="round"></path>
                        <path d="M39.88397,43.01249 L44.92769,43.01249" id="Shape" stroke="#EF9F6A" stroke-width="4.52197"></path>
                        <path d="M43.50178,43.01249 L46.7366,43.01249" id="Shape" stroke="#EF9F6A" stroke-width="4.52197" stroke-linecap="round"></path>
                    </g>
                </g>
                <g id="paar3" transform="translate(320.000000, 0.000000)">
                    <path d="M68.08825,0.20039 L3.41925,0.20039 C2.6260116,0.202072371 1.86682489,0.52291287 1.31278777,1.09060368 C0.758750641,1.65829449 0.45648412,2.42506566 0.47411,3.21811 L0.47411,23.13445 C0.45444749,23.9334288 0.754264055,24.707253 1.30710934,25.2844148 C1.85995462,25.8615766 2.62016502,26.1944039 3.41925,26.20913 L53.09646,26.20913 L53.09646,31.582 L57.08946,26.20912 L68.08828,26.20912 C69.7939075,26.1956359 71.1852835,24.8391742 71.2421,23.13444 L71.2421,3.21811 C71.180317,1.52463355 69.7828036,0.18744118 68.08825,0.20039 L68.08825,0.20039 Z" id="Shape" fill="#FFD800" fill-rule="nonzero"></path>
                    <g id="frau-3" transform="translate(20.000000, 38.000000)">
                        <path d="M16.83259,11.30694 L13.21975,11.30694 C13.21975,13.1866 14.6842,14.81766 16.83259,15.63894 L16.83259,11.30694 Z" id="Shape" fill="#7A5022" fill-rule="nonzero"></path>
                        <path d="M16.89727,13.96433 C16.89727,16.36373 14.30392,18.30916 11.1052,18.30916 L10.85327,18.30916 C7.65452,18.30916 5.06141,16.36373 5.06141,13.96433 L5.06141,11.82844 C5.06141,9.39778 7.68841,7.42685 10.92929,7.42685 L11.0294,7.42685 C14.26964,7.42685 16.89728,9.39778 16.89728,11.82844 L16.89727,13.96433 Z" id="Shape" fill="#7A5022" fill-rule="nonzero"></path>
                        <ellipse id="Oval" fill="#7A5022" fill-rule="nonzero" cx="11.29908" cy="18.90328" rx="6.49186" ry="5.74576"></ellipse>
                        <path d="M16.64452,12.00283 C16.64452,12.00283 9.10875,11.47083 8.08321,16.38152 C5.44721,11.96858 9.20621,10.39192 11.38421,10.74281 C13.1615766,11.055752 14.9182583,11.4765359 16.64452,12.00283 L16.64452,12.00283 Z" id="Shape" fill="#7A5022" fill-rule="nonzero"></path>
                        <path d="M15.65093,10.94282 C15.65093,10.94282 7.59931,10.41755 6.57398,15.32908 C4.26069,9.06129 8.21262,9.33171 10.39082,9.68258 C12.1681124,9.99565745 13.9247238,10.416514 15.65093,10.94282 L15.65093,10.94282 Z" id="Shape" fill="#7A5022" fill-rule="nonzero"></path>
                        <path d="M8.38477,50.64593 L8.38477,73.17859" id="Shape" stroke="#EF9F6A" stroke-width="4.57017"></path>
                        <path d="M8.38477,70.1215 L8.38477,75.67816" id="Shape" stroke="#1D1D1B" stroke-width="4.57017" stroke-linecap="round"></path>
                        <path d="M8.38477,67.50981 L8.38477,73.06647" id="Shape" stroke="#1D1D1B" stroke-width="4.57017"></path>
                        <path d="M13.80206,50.64593 L13.80206,73.17859" id="Shape" stroke="#EF9F6A" stroke-width="4.57017"></path>
                        <path d="M13.80206,70.1215 L13.80206,75.67816" id="Shape" stroke="#1D1D1B" stroke-width="4.57017" stroke-linecap="round"></path>
                        <path d="M13.80206,67.50981 L13.80206,73.06647" id="Shape" stroke="#1D1D1B" stroke-width="4.57017"></path>
                        <rect id="Rectangle-path" fill="#DE9462" fill-rule="nonzero" x="9.45476" y="23.35428" width="3.27756" height="3.27756"></rect>
                        <path d="M11.09341,24.22573 C10.5339661,24.2246249 9.97912449,24.1246051 9.45451,23.93029 L9.45451,24.69762 C10.5116049,25.0915383 11.6752151,25.0915383 12.73231,24.69762 L12.73231,23.93029 C12.2076931,24.1245964 11.6528531,24.2246159 11.09341,24.22573 L11.09341,24.22573 Z" id="Shape" fill="#000000" fill-rule="nonzero" opacity="0.2"></path>
                        <path d="M1.91947,2.52314 L1.91947,24.09046 C1.91947,27.33192 6.33216,30.07032 11.55586,30.07032" id="Shape" stroke="#2C5871" stroke-width="3.26441" stroke-linecap="round"></path>
                        <path d="M1.91947,0.9538 L1.91947,4.09249" id="Shape" stroke="#EF9F6A" stroke-width="3.26441" stroke-linecap="round"></path>
                        <path d="M1.91947,2.91257 L1.91947,20.63194" id="Shape" stroke="#EF9F6A" stroke-width="3.26441"></path>
                        <path d="M20.30991,2.13566 L20.30991,23.703 C20.30991,26.94446 15.89722,29.68286 10.67352,29.68286" id="Shape" stroke="#2C5871" stroke-width="3.26441" stroke-linecap="round"></path>
                        <path d="M20.30991,0.56632 L20.30991,3.70501" id="Shape" stroke="#EF9F6A" stroke-width="3.26441" stroke-linecap="round"></path>
                        <path d="M20.30991,2.52509 L20.30991,20.24446" id="Shape" stroke="#EF9F6A" stroke-width="3.26441" fill="#EF9F6A" fill-rule="nonzero"></path>
                        <path d="M18.70546,47.26744 L3.48136,47.26744 L3.48136,33.16594 C3.48136,28.9619485 6.88936848,25.55394 11.09336,25.55394 L11.09336,25.55394 C15.2973515,25.55394 18.70536,28.9619485 18.70536,33.16594 L18.70546,47.26744 Z" id="Shape" fill="#15B0BF" fill-rule="nonzero"></path>
                        <path d="M15.85807,19.60879 C15.85807,22.2402391 13.7248591,24.37345 11.09341,24.37345 C8.46196094,24.37345 6.32875,22.2402391 6.32875,19.60879 L6.32875,13.7506 L15.85807,13.7506 L15.85807,19.60879 Z" id="_Pfad_17" fill="#EF9F6A" fill-rule="nonzero"></path>
                        <path d="M5.60274,12.35184 L5.60274,14.09558 C7.25619241,15.085892 9.16952889,15.5553822 11.09358,15.44291 C12.992438,15.5465941 14.8802954,15.0940308 16.52576,14.14069 L16.52576,12.35184 L5.60274,12.35184 Z" id="Shape" fill="#232323" fill-rule="nonzero" opacity="0.2"></path>
                        <ellipse id="Oval" fill="#EF9F6A" fill-rule="nonzero" cx="15.85807" cy="18.69812" rx="1.00014" ry="1.43064"></ellipse>
                        <ellipse id="Oval" fill="#EF9F6A" fill-rule="nonzero" cx="6.03153" cy="18.69812" rx="1.00014" ry="1.43064"></ellipse>
                        <circle id="_Pfad_18" fill="#000000" fill-rule="nonzero" cx="13.7296" cy="16.34772" r="1"></circle>
                        <circle id="_Pfad_19" fill="#000000" fill-rule="nonzero" cx="8.85342" cy="16.34772" r="1"></circle>
                        <polygon id="Shape" fill="#FFD301" fill-rule="nonzero" points="22.387 61.912 0.211 61.912 5.021 47.267 17.577 47.267"></polygon>
                    </g>
                    <g id="mann-3" transform="translate(51.000000, 68.000000)">
                        <path d="M25.3565,60.325 L25.3565,47.0657 C25.3565,45.3740518 23.9851482,44.0027 22.2935,44.0027 L6.1655,44.0027" id="Shape" stroke="#DE9462" stroke-width="4.51391"></path>
                        <path d="M25.3565,57.3055 L25.3565,62.79375" id="Shape" stroke="#1D1D1B" stroke-width="4.51391" stroke-linecap="round"></path>
                        <path d="M25.3565,54.72596 L25.3565,60.21421" id="Shape" stroke="#1D1D1B" stroke-width="4.51391"></path>
                        <path d="M26.69248,61.572 L26.69248,48.3127 C26.69248,46.6210518 25.3211282,45.2497 23.62948,45.2497 L7.50148,45.2497" id="Shape" stroke="#2C5871" stroke-width="4.51391"></path>
                        <path d="M26.69248,58.55256 L26.69248,64.04081" id="Shape" stroke="#1D1D1B" stroke-width="4.51391" stroke-linecap="round"></path>
                        <path d="M26.69248,55.97302 L26.69248,61.46127" id="Shape" stroke="#1D1D1B" stroke-width="4.51391"></path>
                        <path d="M26.69248,61.572 L26.69248,48.3127 C26.69248,46.6210518 25.3211282,45.2497 23.62948,45.2497 L7.50148,45.2497" id="Shape" stroke="#EFA47B" stroke-width="4.51391"></path>
                        <path d="M26.69248,58.55256 L26.69248,64.04081" id="Shape" stroke="#1D1D1B" stroke-width="4.51391" stroke-linecap="round"></path>
                        <path d="M26.69248,55.97302 L26.69248,61.46127" id="Shape" stroke="#1D1D1B" stroke-width="4.51391"></path>
                        <rect id="Rectangle-path" fill="#DE9462" fill-rule="nonzero" transform="translate(8.119795, 11.233795) rotate(-180.000000) translate(-8.119795, -11.233795) " x="6.50119" y="9.61519" width="3.23721" height="3.23721"></rect>
                        <path d="M15.63814,38.65029 L0.60147,38.65029 L0.60147,19.65168 C0.60147,15.499421 3.967541,12.13335 8.1198,12.13335 L8.1198,12.13335 C12.272059,12.13335 15.63813,15.499421 15.63813,19.65168 L15.63814,38.65029 Z" id="Shape" fill="#FFD301" fill-rule="nonzero"></path>
                        <path d="M12.8258,5.91581 C12.8258,8.51486203 10.718852,10.62181 8.1198,10.62181 C5.52074797,10.62181 3.4138,8.51486203 3.4138,5.91581 L3.4138,0.12974 L12.8258,0.12974 L12.8258,5.91581 Z" id="_Pfad_20" fill="#EF9F6A" fill-rule="nonzero"></path>
                        <path d="M8.1198,10.62181 C8.67235529,10.6207192 9.22036502,10.5219317 9.73852,10.33001 L9.73852,11.08789 C8.69444109,11.4769569 7.54515891,11.4769569 6.50108,11.08789 L6.50108,10.33 C7.01923675,10.5219164 7.56724493,10.620707 8.1198,10.62181 L8.1198,10.62181 Z" id="Shape" fill="#000000" fill-rule="nonzero" opacity="0.2"></path>
                        <circle id="_Pfad_21" fill="#000000" fill-rule="nonzero" cx="11.11067" cy="2.69489" r="1"></circle>
                        <g id="Group" opacity="0.2" transform="translate(5.000000, 14.000000)" fill-rule="nonzero" fill="#000000">
                            <path d="M2.31349,0.73273 C2.7410571,0.732700823 3.15112054,0.902538269 3.45345614,1.20487386 C3.75579173,1.50720946 3.92562918,1.9172729 3.9256,2.34484 L3.9256,10.96963 C3.92708227,12.2155222 4.93670781,13.2251477 6.1826,13.22663 L10.63826,13.22663 L10.63826,16.45085 L6.1826,16.45085 C3.15692736,16.4472463 0.705033714,13.9953526 0.70143,10.96968 L0.70143,2.34489 C0.701387561,1.9173229 0.871212289,1.50725419 1.17353851,1.20490922 C1.47586473,0.902564248 1.8859229,0.732714083 2.31349,0.73273 L2.31349,0.73273 Z" id="Shape"></path>
                        </g>
                        <path d="M8.1198,15.04917 L8.1198,23.674 C8.1198,25.8108228 9.85203717,27.54306 11.98886,27.54306 L23.9686,27.54306" id="Shape" stroke="#EF9F6A" stroke-width="3.22422" stroke-linecap="round"></path>
                        <path d="M8.1198,15.04917 L8.1198,18.51488" id="Shape" stroke="#FFFFFF" stroke-width="3.22422" stroke-linecap="round"></path>
                        <path d="M8.1198,17.86302 L8.1198,21.32873" id="Shape" stroke="#FFFFFF" stroke-width="3.22422"></path>
                        <path d="M19.69663,27.54302 L23.29287,27.54302" id="Shape" stroke="#EF9F6A" stroke-width="3.22422"></path>
                        <path d="M22.27617,27.54302 L24.58264,27.54302" id="Shape" stroke="#EF9F6A" stroke-width="3.22422" stroke-linecap="round"></path>
                        <path d="M0.60146,38.65031 L10.40899,38.65031 C13.2969643,38.65031 15.63813,40.9914757 15.63813,43.87945 L15.63813,47.5762 L0.60146,47.5762 L0.60146,38.6503 L0.60146,38.65031 Z" id="Shape" fill="#2C5871" fill-rule="nonzero" transform="translate(8.119795, 43.113250) rotate(-180.000000) translate(-8.119795, -43.113250) "></path>
                        <path d="M14.06125,38.65029 L16.865,38.65029 C18.6353784,38.65029 20.3332467,39.3535701 21.5850933,40.6054167 C22.8369399,41.8572633 23.54022,43.5551316 23.54022,45.32551 L23.54022,47.57619 L14.0613,47.57619 L14.0613,38.65029 L14.06125,38.65029 Z" id="Shape" fill="#2C5871" fill-rule="nonzero"></path>
                    </g>
                </g>
                <g id="mann-4" transform="translate(128.000000, 163.000000)">
                    <path d="M2.42584,76.30624 L2.42584,60.42431 C2.42584,58.3980546 4.06844457,56.75545 6.0947,56.75545 L25.4128,56.75545" id="Shape" stroke="#234959" stroke-width="5.40674"></path>
                    <path d="M2.42584,72.68955 L2.42584,79.26335" id="Shape" stroke="#1D1D1B" stroke-width="5.40674" stroke-linecap="round"></path>
                    <path d="M2.42584,69.59979 L2.42584,76.17359" id="Shape" stroke="#1D1D1B" stroke-width="5.40674"></path>
                    <path d="M0.8256,77.8 L0.8256,61.918 C0.8256,59.8917446 2.46820457,58.24914 4.49446,58.24914 L23.81256,58.24914" id="Shape" stroke="#2C5871" stroke-width="5.40674"></path>
                    <path d="M0.8256,74.18327 L0.8256,80.75707" id="Shape" stroke="#1D1D1B" stroke-width="5.40674" stroke-linecap="round"></path>
                    <path d="M0.8256,71.09351 L0.8256,77.66731" id="Shape" stroke="#1D1D1B" stroke-width="5.40674"></path>
                    <path d="M0.8256,77.8 L0.8256,61.918 C0.8256,59.8917446 2.46820457,58.24914 4.49446,58.24914 L23.81256,58.24914" id="Shape" stroke="#2C5871" stroke-width="5.40674"></path>
                    <path d="M0.8256,74.18327 L0.8256,80.75707" id="Shape" stroke="#1D1D1B" stroke-width="5.40674" stroke-linecap="round"></path>
                    <path d="M0.8256,71.09351 L0.8256,77.66731" id="Shape" stroke="#1D1D1B" stroke-width="5.40674"></path>
                    <rect id="Rectangle-path" fill="#DE9462" fill-rule="nonzero" x="21.13312" y="15.5663" width="3.87752" height="3.87752"></rect>
                    <path d="M14.06645,27.588 C14.06645,25.1996141 15.0152326,22.9090503 16.7040765,21.2202065 C18.3929203,19.5313626 20.6834841,18.58258 23.07187,18.58258 L23.07187,18.58258 C28.0454261,18.58258 32.07729,22.6144439 32.07729,27.588 L32.07729,50.34446 L14.06645,50.34446 L14.06645,27.588 Z" id="Shape" fill="#C2D64C" fill-rule="nonzero"></path>
                    <path d="M17.43505,11.1352 C17.4391926,14.2454009 19.9616714,16.7645221 23.071875,16.7645221 C26.1820786,16.7645221 28.7045574,14.2454009 28.7087,11.1352 L28.7087,4.20468 L17.43505,4.20468 L17.43505,11.1352 Z" id="_Pfad_22" fill="#EF9F6A" fill-rule="nonzero"></path>
                    <path d="M23.07188,16.772 C22.4100301,16.7706929 21.7536249,16.6523646 21.13298,16.42248 L21.13298,17.33027 C22.3835756,17.796295 23.7601844,17.796295 25.01078,17.33027 L25.01078,16.42248 C24.3901322,16.6523542 23.733729,16.7706821 23.07188,16.772 L23.07188,16.772 Z" id="Shape" fill="#000000" fill-rule="nonzero" opacity="0.2"></path>
                    <circle id="_Pfad_23" fill="#000000" fill-rule="nonzero" cx="19.48943" cy="7.27719" r="1"></circle>
                    <path d="M15.59987,0.63834 L28.65033,0.63834 C29.6675385,0.610680633 30.5149176,1.41216774 30.54388,2.42934 L30.54388,9.00624 C30.5147382,10.0233519 29.6674375,10.8247437 28.65028,10.79724 L28.64428,10.79724 C26.396213,10.8260852 24.3410557,9.53124431 23.39662,7.49098 C23.0525709,6.69181129 22.4594947,6.02520911 21.70578,5.59052 C21.1122193,5.30214624 20.4678744,5.1329546 19.80921,5.09252 C17.474749,4.90277821 15.6591805,2.98304723 15.59983,0.64164 L15.59987,0.63834 Z" id="_Pfad_24" fill="#000000" fill-rule="nonzero"></path>
                    <ellipse id="_Pfad_25" fill="#EF9F6A" fill-rule="nonzero" transform="translate(24.031415, 8.836394) rotate(-77.126680) translate(-24.031415, -8.836394) " cx="24.031415" cy="8.83639433" rx="1.66334" ry="1.4092"></ellipse>
                    <g id="Group" opacity="0.2" transform="translate(14.000000, 21.000000)" fill-rule="nonzero" fill="#000000">
                        <path d="M10.03768,0.69607 C9.52553314,0.696024906 9.03434953,0.899454484 8.67220701,1.26159701 C8.31006448,1.62373953 8.10663491,2.11492314 8.10668,2.62707 L8.10668,12.95781 C8.1048727,14.4500908 6.89559078,15.6593727 5.40331,15.66118 L0.06631,15.66118 L0.06631,19.52318 L5.40331,19.52318 C9.02745527,19.518871 11.964331,16.5819953 11.96864,12.95785 L11.96864,2.627 C11.9686665,2.11487219 11.7652342,1.62371264 11.4031024,1.2615864 C11.0409705,0.899460172 10.5498078,0.696035518 10.03768,0.69607 L10.03768,0.69607 Z" id="Shape"></path>
                    </g>
                    <path d="M23.07188,22.0751 L23.07188,32.40584 C23.07188,34.9653208 20.9970108,37.04019 18.43753,37.04019 L4.08825,37.04019" id="Shape" stroke="#EF9F6A" stroke-width="3.86196" stroke-linecap="round"></path>
                    <path d="M23.07188,22.0751 L23.07188,26.22631" id="Shape" stroke="#FFFFFF" stroke-width="3.86196" stroke-linecap="round"></path>
                    <path d="M23.07188,25.44552 L23.07188,29.59673" id="Shape" stroke="#FFFFFF" stroke-width="3.86196"></path>
                    <path d="M9.2052,37.04018 L4.89765,37.04018" id="Shape" stroke="#EF9F6A" stroke-width="3.86196"></path>
                    <path d="M6.11544,37.04018 L3.35277,37.04018" id="Shape" stroke="#EF9F6A" stroke-width="3.86196" stroke-linecap="round"></path>
                    <path d="M11.59257,48.72623 L32.59957,48.72623 L32.59957,53.56184 C32.59957,57.7781585 29.1815685,61.19616 24.96525,61.19616 L19.22691,61.19616 C15.0105915,61.19616 11.59259,57.7781585 11.59259,53.56184 L11.59259,48.72623 L11.59257,48.72623 Z" id="Shape" fill="#2C5871" fill-rule="nonzero"></path>
                </g>
                <path d="M431.92976,284.311 L414.17315,284.311 C405.90615,284.68126 403.42596,278.13124 403.42596,278.13124 L403.42596,282.32832 C399.54689,280.67499 398.02066,275.7148 398.02066,275.7148 L398.02066,281.50171 C397.89346,286.2075 398.65647,287.61278 398.65647,287.61278 L398.73573,287.6299 C400.26279,292.168674 404.32416,295.378904 409.0929,295.81652 C410.79423,295.921012 412.458567,296.358055 413.99174,297.10292 C415.938694,298.225666 417.470664,299.947564 418.35927,302.01192 C420.798883,307.281949 426.107431,310.626527 431.91427,310.55206 L431.92973,310.55206 C434.55711,310.623071 436.74571,308.552993 436.82094,305.92573 L436.82094,288.93731 C436.746173,286.309855 434.557307,284.239522 431.92976,284.311 L431.92976,284.311 Z" id="Shape" fill="#000000" fill-rule="nonzero"></path>
                <polygon id="Shape" fill="#000000" fill-rule="nonzero" points="150.234 168.094 150.234 173.627 151.329 172.023 151.329 169.65"></polygon>
                <path d="M385.3441,65.15232 C385.3441,63.8574 382.55427,62.8076 379.11297,62.8076 C377.559798,62.8605846 376.034467,63.2349252 374.63323,63.907 C373.562156,64.3976783 372.877122,65.4695198 372.88164,66.64763 L372.88164,66.64763 L372.88164,72.13845 C372.905983,72.9876452 373.613406,73.6567266 374.46264,73.63376 L374.46753,73.63376 C376.344345,73.6578585 378.060107,72.5768309 378.84853,70.87348 C379.135761,70.2062216 379.630954,69.649663 380.26028,69.28678 C380.755817,69.0460228 381.293757,68.9047745 381.84365,68.87103 C383.792554,68.7125798 385.308234,67.1098776 385.35775,65.15517 L385.35775,65.15233 L385.3441,65.15232 Z" id="Shape" fill="#000000" fill-rule="nonzero"></path>
                <circle id="Oval" fill="#736357" fill-rule="nonzero" cx="36.29096" cy="266.60723" r="3.10548"></circle>
            </g>
        </g>
    </g>
</svg>