<svg width="486" height="250" viewBox="0 0 486 250" xmlns="http://www.w3.org/2000/svg" xmlns:xlink="http://www.w3.org/1999/xlink"><title>feature_secure</title><defs><filter x="-50%" y="-50%" width="200%" height="200%" filterUnits="objectBoundingBox" id="a"><feGaussianBlur stdDeviation="4.656" in="SourceGraphic" result="blur"/></filter><linearGradient x1="50%" y1="0%" x2="50%" y2="100%" id="c"><stop stop-color="#FFF" stop-opacity=".8" offset="0%"/><stop stop-color="#FFF" stop-opacity=".4" offset="5%"/><stop stop-color="#FFF" stop-opacity="0" offset="20%"/><stop stop-color="#FFF" stop-opacity="0" offset="100%"/></linearGradient><linearGradient x1="50%" y1="0%" x2="50%" y2="100%" id="e"><stop stop-opacity="0" offset="0%"/><stop stop-opacity="0" offset="80%"/><stop stop-opacity=".02" offset="95.026%"/><stop stop-opacity=".04" offset="100%"/></linearGradient><filter x="-50%" y="-50%" width="200%" height="200%" filterUnits="objectBoundingBox" id="b"><feOffset dy="2" in="SourceAlpha" result="shadowOffsetOuter1"/><feGaussianBlur stdDeviation="1" in="shadowOffsetOuter1" result="shadowBlurOuter1"/><feColorMatrix values="0 0 0 0 0 0 0 0 0 0 0 0 0 0 0 0 0 0 0.168 0" in="shadowBlurOuter1" result="shadowMatrixOuter1"/><feOffset in="SourceAlpha" result="shadowOffsetOuter2"/><feGaussianBlur stdDeviation="1" in="shadowOffsetOuter2" result="shadowBlurOuter2"/><feColorMatrix values="0 0 0 0 0 0 0 0 0 0 0 0 0 0 0 0 0 0 0.084 0" in="shadowBlurOuter2" result="shadowMatrixOuter2"/><feMerge><feMergeNode in="shadowMatrixOuter1"/><feMergeNode in="shadowMatrixOuter2"/><feMergeNode in="SourceGraphic"/></feMerge></filter><path id="d" d="M62 111c0-34.242 27.758-62 62-62 34.242 0 62 27.758 62 62 0 34.242-27.758 62-62 62-34.242 0-62-27.758-62-62"/><filter x="-50%" y="-50%" width="200%" height="200%" filterUnits="objectBoundingBox" id="f"><feGaussianBlur stdDeviation=".717" in="SourceGraphic" result="blur"/></filter></defs><g fill="none" fill-rule="evenodd"><path d="M321.316 164L0 199l141.7 38L470 199l-148.684-35z" opacity=".203" fill="#00273C" filter="url(#a)" transform="translate(8)"/><path d="M152 0L8 38v146l144 38" fill="#5EB9C3"/><path d="M115 35c-3.327.728-6 3.984-6 7v138c0 2.906 2.57 6.253 6 7 3.2.528 6-1.76 6-5V40c0-3.124-2.695-5.546-6-5zm-27 5c-2.77.622-5 3.613-5 7v127c0 3.28 2.145 6.356 5 7 2.758.475 5-1.698 5-5V45c0-3.198-2.242-5.477-5-5zm-24 5c-1.99.536-4 3.312-4 6v120c0 2.585 1.933 5.44 4 6 2.985.42 5-1.64 5-5V50c-.08-3.252-2.095-5.41-5-5zm-19 4c-2.21.47-4 3.057-4 6v112c0 2.85 1.72 5.514 4 6 2.14.363 4-1.58 4-5V54c0-3.33-1.86-5.365-4-5zm-19 4c-1.432.415-3 2.84-3 6v105c0 3.073 1.507 5.57 3 6 2.374.326 4-1.527 4-4V57c0-2.388-1.626-4.327-4-4z" fill="#65C9D4"/><path d="M152 0l326 38v146l-326 38" fill="#7EDBE5"/><path d="M327 43c-2.928-.208-5 2.112-5 5v126c0 2.788 1.992 5.216 5 5 1.967-.238 4-2.902 4-6V49c-.078-3.106-2.033-5.763-4-6zm-24-2c-2.697-.22-5 2.162-5 5v130c0 2.735 2.215 5.23 5 5 2.828-.26 5-3 5-6V47c0-3-2.26-5.748-5-6zm-26-2c-2.697-.236-5 2.227-5 6v133c0 3.667 2.215 6.244 5 6 2.83-.278 5-3.123 5-7V46c0-3.878-2.258-6.73-5-7zm-26-2c-3.465-.25-6 2.273-6 6v137c0 3.616 2.437 6.258 6 6 2.517-.288 5-3.225 5-7V44c0-3.776-2.388-6.704-5-7zm158 14c-2.39-.167-4 1.914-4 5v111c0 2.996 1.548 5.173 4 5 1.417-.188 3-2.542 3-5V56c0-2.46-1.583-4.813-3-5zm19 1c-2.39-.16-4 1.875-4 5v108c0 3.04 1.547 5.164 4 5 1.417-.178 3-2.47 3-5V57c0-2.53-1.583-4.823-3-5zm17 2c-2.39-.15-4 1.834-4 5v105c0 3.082 1.547 5.156 4 5 1.477-.174 3-2.4 3-5V59c0-2.6-1.523-4.826-3-5zm15 1c-1.62-.144-3 1.793-3 4v104c0 2.125 1.326 4.15 3 4 1.642-.16 3-2.33 3-5V60c0-2.67-1.305-4.835-3-5zM222 34c-3.234-.268-6 2.35-6 6v143c0 3.537 2.66 6.277 6 6 3.292-.31 6-3.373 6-7V41c0-3.628-2.604-6.68-6-7zm-30-3c-4.002-.285-7 2.408-7 6v148c0 3.474 2.883 6.295 7 6 3.068-.333 6-3.502 6-7V38c-.112-3.51-2.932-6.67-6-7zm198 18c-2.16-.177-4 1.97-4 5v115c0 2.94 1.77 5.183 4 5 2.26-.206 4-2.635 4-6V55c0-3.365-1.74-5.795-4-6zm-20-2c-2.16-.186-4 2.008-4 5v118c0 2.9 1.77 5.192 4 5 2.192-.21 4-2.71 4-6V53c0-3.292-1.74-5.784-4-6zm-20-2c-2.93-.197-5 2.06-5 5v122c0 2.843 1.992 5.204 5 5 1.966-.224 4-2.805 4-6V51c0-3.196-1.956-5.77-4-6z" fill="#91EBF3"/><g filter="url(#b)" stroke-width=".5" transform="translate(8)"><use stroke="url(#c)" fill="#FFF" xlink:href="#d"/><use stroke="url(#e)" xlink:href="#d"/></g><g transform="translate(104 72)"><ellipse fill="#4A4A4A" filter="url(#f)" cx="27.5" cy="76.5" rx="27.5" ry="1.5"/><path d="M5.235 32.99H50.31c.683 0 1.235.552 1.235 1.234v40.998c0 .68-.552 1.233-1.234 1.233H5.24A1.234 1.234 0 0 1 4 75.222V34.224c0-.682.553-1.233 1.235-1.233" fill="#BD0B27"/><path d="M24.34 45v7.34H17v8.32h7.34V68h8.32v-7.34H40v-8.32h-7.34V45h-8.32z" fill="#FEFEFE"/><path d="M41.17 5.275c-3.36-3.353-7.81-5.2-12.53-5.2h-1.733c-4.722 0-9.173 1.847-12.53 5.2-3.36 3.353-5.208 7.796-5.208 12.51v12.378c0 .5.41.91.91.91h5.34c.503 0 .914-.41.914-.91V17.786c0-5.82 4.74-10.554 10.57-10.554h1.732c5.827 0 10.57 4.734 10.57 10.554v12.377c0 .5.41.91.912.91h5.34c.503 0 .914-.41.914-.91V17.786c0-4.715-1.85-9.158-5.208-12.51" fill="#BD0B27"/></g></g></svg>