<?xml version="1.0" encoding="UTF-8" standalone="no"?>
<svg width="556px" height="527px" viewBox="0 0 556 527" version="1.1" xmlns="http://www.w3.org/2000/svg" xmlns:xlink="http://www.w3.org/1999/xlink">
    <!-- Generator: Sketch 46.2 (44496) - http://www.bohemiancoding.com/sketch -->
    <title>feature_beratung</title>
    <desc>Created with Sketch.</desc>
    <defs></defs>
    <g id="Page-1" stroke="none" stroke-width="1" fill="none" fill-rule="evenodd">
        <g id="feature_beratung">
            <g id="containers" transform="translate(137.000000, 198.000000)">
                <g id="_3" transform="translate(0.000000, 84.000000)">
                    <polygon id="Shape" fill="#000000" fill-rule="nonzero" opacity="0.1" points="165.819 68.661 138.406 68.661 138.406 60.425"></polygon>
                    <rect id="Rectangle-path" fill="#81D4DC" fill-rule="nonzero" x="1.12221" y="0.59857" width="136.99057" height="68.0627"></rect>
                    <rect id="Rectangle-path" fill="#1D1D1B" fill-rule="nonzero" opacity="0.05" x="5.15504" y="4.63143" width="128.92477" height="59.99685"></rect>
                    <path d="M132.46663,6.24461 L132.46663,63.0151 L6.76823,63.0151 L6.76823,6.24461 L132.46663,6.24461 L132.46663,6.24461 Z M134.07981,4.63143 L5.155,4.63143 L5.155,64.62828 L134.07982,64.62828 L134.07982,4.63143 L134.07981,4.63143 Z" id="Shape" fill="#1D1D1B" fill-rule="nonzero" opacity="0.1"></path>
                    <path d="M69.99353,9.36024 C69.4249795,9.35996924 68.879638,9.58570721 68.4776148,9.987736 C68.0755916,10.3897648 67.8498613,10.9351095 67.85014,11.50366 L67.85014,58.47066 C67.85014,59.6544244 68.8097706,60.614055 69.993535,60.614055 C71.1772994,60.614055 72.13693,59.6544244 72.13693,58.47066 L72.13693,11.50366 C72.13723,10.9351048 71.9115058,10.3897498 71.5094775,9.9877196 C71.1074491,9.58568937 70.5620952,9.35996267 69.99354,9.36026 L69.99353,9.36024 Z" id="Shape" fill="#7DADBA" fill-rule="nonzero"></path>
                    <path d="M59.31411,9.36024 C58.7455595,9.35996924 58.200218,9.58570721 57.7981948,9.987736 C57.3961716,10.3897648 57.1704413,10.9351095 57.17072,11.50366 L57.17072,58.47066 C57.17072,59.6544216 58.1303484,60.61405 59.31411,60.61405 C60.4978716,60.61405 61.4575,59.6544216 61.4575,58.47066 L61.4575,11.50366 C61.4577681,10.9351146 61.2320337,10.3897781 60.8300123,9.9877548 C60.4279908,9.58573149 59.8826554,9.35999456 59.31411,9.36026 L59.31411,9.36024 Z" id="Shape" fill="#7DADBA" fill-rule="nonzero"></path>
                    <path d="M48.67225,9.36024 C48.1036995,9.35996924 47.558358,9.58570721 47.1563348,9.987736 C46.7543116,10.3897648 46.5285813,10.9351095 46.52886,11.50366 L46.52886,58.47066 C46.52886,59.6544244 47.4884906,60.614055 48.672255,60.614055 C49.8560194,60.614055 50.81565,59.6544244 50.81565,58.47066 L50.81565,11.50366 C50.789773,10.3307825 49.8451373,9.38614249 48.67226,9.36026 L48.67225,9.36024 Z" id="Shape" fill="#7DADBA" fill-rule="nonzero"></path>
                    <path d="M37.99284,9.36024 C37.4242895,9.35996924 36.878948,9.58570721 36.4769248,9.987736 C36.0749016,10.3897648 35.8491713,10.9351095 35.84945,11.50366 L35.84945,58.47066 C35.84945,59.6544216 36.8090784,60.61405 37.99284,60.61405 C39.1766016,60.61405 40.13623,59.6544216 40.13623,58.47066 L40.13623,11.50366 C40.1234645,10.3252249 39.1712751,9.37303096 37.99284,9.36026 L37.99284,9.36024 Z" id="Shape" fill="#7DADBA" fill-rule="nonzero"></path>
                    <path d="M112.71137,9.36024 C112.142819,9.35996924 111.597478,9.58570721 111.195455,9.987736 C110.793432,10.3897648 110.567701,10.9351095 110.56798,11.50366 L110.56798,58.47066 C110.56798,59.6544244 111.527611,60.614055 112.711375,60.614055 C113.895139,60.614055 114.85477,59.6544244 114.85477,58.47066 L114.85477,11.50366 C114.828893,10.3307825 113.884257,9.38614249 112.71138,9.36026 L112.71137,9.36024 Z" id="Shape" fill="#7DADBA" fill-rule="nonzero"></path>
                    <path d="M123.35323,9.36024 C122.784679,9.35996924 122.239338,9.58570721 121.837315,9.987736 C121.435292,10.3897648 121.209561,10.9351095 121.20984,11.50366 L121.20984,58.47066 C121.20984,59.6544216 122.169468,60.61405 123.35323,60.61405 C124.536992,60.61405 125.49662,59.6544216 125.49662,58.47066 L125.49662,11.50366 C125.496888,10.9351146 125.271154,10.3897781 124.869132,9.9877548 C124.467111,9.58573149 123.921775,9.35999456 123.35323,9.36026 L123.35323,9.36024 Z" id="Shape" fill="#7DADBA" fill-rule="nonzero"></path>
                    <path d="M27.31333,9.36024 C26.7447795,9.35996924 26.199438,9.58570721 25.7974148,9.987736 C25.3953916,10.3897648 25.1696613,10.9351095 25.16994,11.50366 L25.16994,58.47066 C25.16994,59.6544216 26.1295684,60.61405 27.31333,60.61405 C28.4970916,60.61405 29.45672,59.6544216 29.45672,58.47066 L29.45672,11.50366 C29.4440287,10.3251937 28.4917963,9.37295677 27.31333,9.36026 L27.31333,9.36024 Z" id="Shape" fill="#7DADBA" fill-rule="nonzero"></path>
                    <path d="M16.63392,9.36024 C16.0653695,9.35996924 15.520028,9.58570721 15.1180048,9.987736 C14.7159816,10.3897648 14.4902513,10.9351095 14.49053,11.50366 L14.49053,58.47066 C14.49053,59.6544244 15.4501606,60.614055 16.633925,60.614055 C17.8176894,60.614055 18.77732,59.6544244 18.77732,58.47066 L18.77732,11.50366 C18.7775881,10.9351146 18.5518537,10.3897781 18.1498323,9.9877548 C17.7478108,9.58573149 17.2024754,9.35999456 16.63393,9.36026 L16.63392,9.36024 Z" id="Shape" fill="#7DADBA" fill-rule="nonzero"></path>
                    <path d="M102.032,9.36024 C101.463449,9.35996924 100.918108,9.58570721 100.516085,9.987736 C100.114062,10.3897648 99.8883313,10.9351095 99.88861,11.50366 L99.88861,58.47066 C99.88861,59.6544244 100.848241,60.614055 102.032005,60.614055 C103.215769,60.614055 104.1754,59.6544244 104.1754,58.47066 L104.1754,11.50366 C104.162635,10.3252249 103.210445,9.37303096 102.03201,9.36026 L102.032,9.36024 Z" id="Shape" fill="#7DADBA" fill-rule="nonzero"></path>
                    <path d="M91.35245,9.36024 C90.7838995,9.35996924 90.238558,9.58570721 89.8365348,9.987736 C89.4345116,10.3897648 89.2087813,10.9351095 89.20906,11.50366 L89.20906,58.47066 C89.20906,59.6544216 90.1686884,60.61405 91.35245,60.61405 C92.5362116,60.61405 93.49584,59.6544216 93.49584,58.47066 L93.49584,11.50366 C93.4831169,10.3252071 92.5309029,9.37298857 91.35245,9.36026 L91.35245,9.36024 Z" id="Shape" fill="#7DADBA" fill-rule="nonzero"></path>
                    <path d="M80.673,9.36024 C80.1044495,9.35996924 79.559108,9.58570721 79.1570848,9.987736 C78.7550616,10.3897648 78.5293313,10.9351095 78.52961,11.50366 L78.52961,58.47066 C78.5293393,59.0392081 78.7550721,59.5845481 79.1570936,59.9865752 C79.559115,60.3886023 80.1044519,60.6143428 80.673,60.61408 C81.2434775,60.6207209 81.7925287,60.3970291 82.1959417,59.9936104 C82.5993547,59.5901917 82.8230389,59.0411374 82.81639,58.47066 L82.81639,11.50366 C82.8036245,10.3252249 81.8514351,9.37303096 80.673,9.36026 L80.673,9.36024 Z" id="Shape" fill="#7DADBA" fill-rule="nonzero"></path>
                    <path d="M69.61749,8.98421 C69.0489395,8.98393924 68.503598,9.20967721 68.1015748,9.611706 C67.6995516,10.0137348 67.4738213,10.5590795 67.4741,11.12763 L67.4741,58.09463 C67.4741,59.2783944 68.4337306,60.238025 69.617495,60.238025 C70.8012594,60.238025 71.76089,59.2783944 71.76089,58.09463 L71.76089,11.12763 C71.76119,10.5590748 71.5354658,10.0137198 71.1334375,9.6116896 C70.7314091,9.20965937 70.1860552,8.98393267 69.6175,8.98423 L69.61749,8.98421 Z" id="Shape" fill="#91EAF3" fill-rule="nonzero"></path>
                    <path d="M58.93808,8.98421 C58.3695295,8.98393924 57.824188,9.20967721 57.4221648,9.611706 C57.0201416,10.0137348 56.7944113,10.5590795 56.79469,11.12763 L56.79469,58.09463 C56.79469,59.2783944 57.7543206,60.238025 58.938085,60.238025 C60.1218494,60.238025 61.08148,59.2783944 61.08148,58.09463 L61.08148,11.12763 C61.0817481,10.5590846 60.8560137,10.0137481 60.4539923,9.6117248 C60.0519708,9.20970149 59.5066354,8.98396456 58.93809,8.98423 L58.93808,8.98421 Z" id="Shape" fill="#91EAF3" fill-rule="nonzero"></path>
                    <path d="M48.29621,8.98421 C47.7276595,8.98393924 47.182318,9.20967721 46.7802948,9.611706 C46.3782716,10.0137348 46.1525413,10.5590795 46.15282,11.12763 L46.15282,58.09463 C46.15282,59.2783944 47.1124506,60.238025 48.296215,60.238025 C49.4799794,60.238025 50.43961,59.2783944 50.43961,58.09463 L50.43961,11.12763 C50.413733,9.95475255 49.4690973,9.01011249 48.29622,8.98423 L48.29621,8.98421 Z" id="Shape" fill="#91EAF3" fill-rule="nonzero"></path>
                    <path d="M37.6168,8.98421 C37.0482495,8.98393924 36.502908,9.20967721 36.1008848,9.611706 C35.6988616,10.0137348 35.4731313,10.5590795 35.47341,11.12763 L35.47341,58.09463 C35.47341,59.2783916 36.4330384,60.23802 37.6168,60.23802 C38.8005616,60.23802 39.76019,59.2783916 39.76019,58.09463 L39.76019,11.12763 C39.7474245,9.94919488 38.7952351,8.99700096 37.6168,8.98423 L37.6168,8.98421 Z" id="Shape" fill="#91EAF3" fill-rule="nonzero"></path>
                    <path d="M112.33533,8.98421 C111.766779,8.98393924 111.221438,9.20967721 110.819415,9.611706 C110.417392,10.0137348 110.191661,10.5590795 110.19194,11.12763 L110.19194,58.09463 C110.19194,59.2783944 111.151571,60.238025 112.335335,60.238025 C113.519099,60.238025 114.47873,59.2783944 114.47873,58.09463 L114.47873,11.12763 C114.452853,9.95475255 113.508217,9.01011249 112.33534,8.98423 L112.33533,8.98421 Z" id="Shape" fill="#91EAF3" fill-rule="nonzero"></path>
                    <path d="M122.9772,8.98421 C122.408649,8.98393924 121.863308,9.20967721 121.461285,9.611706 C121.059262,10.0137348 120.833531,10.5590795 120.83381,11.12763 L120.83381,58.09463 C120.83381,59.2783916 121.793438,60.23802 122.9772,60.23802 C124.160962,60.23802 125.12059,59.2783916 125.12059,58.09463 L125.12059,11.12763 C125.120858,10.5590846 124.895124,10.0137481 124.493102,9.6117248 C124.091081,9.20970149 123.545745,8.98396456 122.9772,8.98423 L122.9772,8.98421 Z" id="Shape" fill="#91EAF3" fill-rule="nonzero"></path>
                    <path d="M26.93729,8.98421 C26.3687395,8.98393924 25.823398,9.20967721 25.4213748,9.611706 C25.0193516,10.0137348 24.7936213,10.5590795 24.7939,11.12763 L24.7939,58.09463 C24.7939,59.2783916 25.7535284,60.23802 26.93729,60.23802 C28.1210516,60.23802 29.08068,59.2783916 29.08068,58.09463 L29.08068,11.12763 C29.0679887,9.94916368 28.1157563,8.99692677 26.93729,8.98423 L26.93729,8.98421 Z" id="Shape" fill="#91EAF3" fill-rule="nonzero"></path>
                    <path d="M16.25788,8.98421 C15.6893295,8.98393924 15.143988,9.20967721 14.7419648,9.611706 C14.3399416,10.0137348 14.1142113,10.5590795 14.11449,11.12763 L14.11449,58.09463 C14.11449,59.2783944 15.0741206,60.238025 16.257885,60.238025 C17.4416494,60.238025 18.40128,59.2783944 18.40128,58.09463 L18.40128,11.12763 C18.4015481,10.5590846 18.1758137,10.0137481 17.7737923,9.6117248 C17.3717708,9.20970149 16.8264354,8.98396456 16.25789,8.98423 L16.25788,8.98421 Z" id="Shape" fill="#91EAF3" fill-rule="nonzero"></path>
                    <path d="M101.65592,8.98421 C101.087369,8.98393924 100.542028,9.20967721 100.140005,9.611706 C99.7379816,10.0137348 99.5122513,10.5590795 99.51253,11.12763 L99.51253,58.09463 C99.51253,59.2783916 100.472158,60.23802 101.65592,60.23802 C102.839682,60.23802 103.79931,59.2783916 103.79931,58.09463 L103.79931,11.12763 C103.786545,9.94919488 102.834355,8.99700096 101.65592,8.98423 L101.65592,8.98421 Z" id="Shape" fill="#91EAF3" fill-rule="nonzero"></path>
                    <path d="M90.97641,8.98421 C90.4078595,8.98393924 89.862518,9.20967721 89.4604948,9.611706 C89.0584716,10.0137348 88.8327413,10.5590795 88.83302,11.12763 L88.83302,58.09463 C88.83302,59.2783916 89.7926484,60.23802 90.97641,60.23802 C92.1601716,60.23802 93.1198,59.2783916 93.1198,58.09463 L93.1198,11.12763 C93.1070769,9.94917706 92.1548629,8.99695857 90.97641,8.98423 L90.97641,8.98421 Z" id="Shape" fill="#91EAF3" fill-rule="nonzero"></path>
                    <path d="M80.297,8.98421 C79.7284495,8.98393924 79.183108,9.20967721 78.7810848,9.611706 C78.3790616,10.0137348 78.1533313,10.5590795 78.15361,11.12763 L78.15361,58.09463 C78.1533393,58.6631781 78.3790721,59.2085181 78.7810936,59.6105452 C79.183115,60.0125723 79.7284519,60.2383128 80.297,60.23805 C80.8674775,60.2446909 81.4165287,60.0209991 81.8199417,59.6175804 C82.2233547,59.2141617 82.4470389,58.6651074 82.44039,58.09463 L82.44039,11.12763 C82.4276245,9.94919488 81.4754351,8.99700096 80.297,8.98423 L80.297,8.98421 Z" id="Shape" fill="#91EAF3" fill-rule="nonzero"></path>
                    <rect id="Rectangle-path" fill="#367089" fill-rule="nonzero" x="0.94229" y="66.66127" width="136.99057" height="2"></rect>
                    <g id="Group" opacity="0.5" transform="translate(92.000000, 45.000000)" font-size="14" font-family="Lato-Black, Lato" fill="#000000" font-weight="700">
                        <g id="PLAN" transform="translate(0.042930, 0.847520)">
                            <g id="Group">
                                <text id="PLAN">
                                    <tspan x="0" y="14">PLAN</tspan>
                                </text>
                            </g>
                        </g>
                    </g>
                </g>
                <g id="_2" transform="translate(181.000000, 84.000000)">
                    <polygon id="Shape" fill="#000000" fill-rule="nonzero" opacity="0.1" points="165.719 68.661 138.306 68.661 138.306 60.425"></polygon>
                    <rect id="Rectangle-path" fill="#81D4DC" fill-rule="nonzero" x="0.98741" y="0.59857" width="136.99057" height="68.0627"></rect>
                    <rect id="Rectangle-path" fill="#367089" fill-rule="nonzero" x="0.98741" y="66.66127" width="136.99057" height="2"></rect>
                    <rect id="Rectangle-path" fill="#1D1D1B" fill-rule="nonzero" opacity="0.05" x="5.02025" y="4.63143" width="128.92477" height="59.99685"></rect>
                    <path d="M132.33183,6.24461 L132.33183,63.0151 L6.63343,63.0151 L6.63343,6.24461 L132.33183,6.24461 L132.33183,6.24461 Z M133.94501,4.63143 L5.02025,4.63143 L5.02025,64.62828 L133.945,64.62828 L133.945,4.63143 L133.94501,4.63143 Z" id="Shape" fill="#1D1D1B" fill-rule="nonzero" opacity="0.1"></path>
                    <path d="M69.85873,9.36024 C69.2901795,9.35996924 68.744838,9.58570721 68.3428148,9.987736 C67.9407916,10.3897648 67.7150613,10.9351095 67.71534,11.50366 L67.71534,58.47066 C67.71534,59.6544244 68.6749706,60.614055 69.858735,60.614055 C71.0424994,60.614055 72.00213,59.6544244 72.00213,58.47066 L72.00213,11.50366 C72.00243,10.9351048 71.7767058,10.3897498 71.3746775,9.9877196 C70.9726491,9.58568937 70.4272952,9.35996267 69.85874,9.36026 L69.85873,9.36024 Z" id="Shape" fill="#7DADBA" fill-rule="nonzero"></path>
                    <path d="M59.17932,9.36024 C58.6107695,9.35996924 58.065428,9.58570721 57.6634048,9.987736 C57.2613816,10.3897648 57.0356513,10.9351095 57.03593,11.50366 L57.03593,58.47066 C57.03593,59.6544216 57.9955584,60.61405 59.17932,60.61405 C60.3630816,60.61405 61.32271,59.6544216 61.32271,58.47066 L61.32271,11.50366 C61.3229781,10.9351146 61.0972437,10.3897781 60.6952223,9.9877548 C60.2932008,9.58573149 59.7478654,9.35999456 59.17932,9.36026 L59.17932,9.36024 Z" id="Shape" fill="#7DADBA" fill-rule="nonzero"></path>
                    <path d="M48.53745,9.36024 C47.9688995,9.35996924 47.423558,9.58570721 47.0215348,9.987736 C46.6195116,10.3897648 46.3937813,10.9351095 46.39406,11.50366 L46.39406,58.47066 C46.39406,59.6544244 47.3536906,60.614055 48.537455,60.614055 C49.7212194,60.614055 50.68085,59.6544244 50.68085,58.47066 L50.68085,11.50366 C50.654973,10.3307825 49.7103373,9.38614249 48.53746,9.36026 L48.53745,9.36024 Z" id="Shape" fill="#7DADBA" fill-rule="nonzero"></path>
                    <path d="M37.858,9.36024 C37.2894495,9.35996924 36.744108,9.58570721 36.3420848,9.987736 C35.9400616,10.3897648 35.7143313,10.9351095 35.71461,11.50366 L35.71461,58.47066 C35.71461,59.6544244 36.6742406,60.614055 37.858005,60.614055 C39.0417694,60.614055 40.0014,59.6544244 40.0014,58.47066 L40.0014,11.50366 C39.9886345,10.3252249 39.0364451,9.37303096 37.85801,9.36026 L37.858,9.36024 Z" id="Shape" fill="#7DADBA" fill-rule="nonzero"></path>
                    <path d="M112.57657,9.36024 C112.008019,9.35996924 111.462678,9.58570721 111.060655,9.987736 C110.658632,10.3897648 110.432901,10.9351095 110.43318,11.50366 L110.43318,58.47066 C110.43318,59.6544216 111.392808,60.61405 112.57657,60.61405 C113.760332,60.61405 114.71996,59.6544216 114.71996,58.47066 L114.71996,11.50366 C114.694083,10.3307825 113.749447,9.38614249 112.57657,9.36026 L112.57657,9.36024 Z" id="Shape" fill="#7DADBA" fill-rule="nonzero"></path>
                    <path d="M123.21844,9.36024 C122.649889,9.35996924 122.104548,9.58570721 121.702525,9.987736 C121.300502,10.3897648 121.074771,10.9351095 121.07505,11.50366 L121.07505,58.47066 C121.07505,59.6544244 122.034681,60.614055 123.218445,60.614055 C124.402209,60.614055 125.36184,59.6544244 125.36184,58.47066 L125.36184,11.50366 C125.362108,10.9351146 125.136374,10.3897781 124.734352,9.9877548 C124.332331,9.58573149 123.786995,9.35999456 123.21845,9.36026 L123.21844,9.36024 Z" id="Shape" fill="#7DADBA" fill-rule="nonzero"></path>
                    <path d="M27.17853,9.36024 C26.6099795,9.35996924 26.064638,9.58570721 25.6626148,9.987736 C25.2605916,10.3897648 25.0348613,10.9351095 25.03514,11.50366 L25.03514,58.47066 C25.03514,59.6544244 25.9947706,60.614055 27.178535,60.614055 C28.3622994,60.614055 29.32193,59.6544244 29.32193,58.47066 L29.32193,11.50366 C29.3092387,10.3251937 28.3570063,9.37295677 27.17854,9.36026 L27.17853,9.36024 Z" id="Shape" fill="#7DADBA" fill-rule="nonzero"></path>
                    <path d="M16.49912,9.36024 C15.9305695,9.35996924 15.385228,9.58570721 14.9832048,9.987736 C14.5811816,10.3897648 14.3554513,10.9351095 14.35573,11.50366 L14.35573,58.47066 C14.35573,59.6544244 15.3153606,60.614055 16.499125,60.614055 C17.6828894,60.614055 18.64252,59.6544244 18.64252,58.47066 L18.64252,11.50366 C18.6427881,10.9351146 18.4170537,10.3897781 18.0150323,9.9877548 C17.6130108,9.58573149 17.0676754,9.35999456 16.49913,9.36026 L16.49912,9.36024 Z" id="Shape" fill="#7DADBA" fill-rule="nonzero"></path>
                    <path d="M101.89716,9.36024 C101.328609,9.35996924 100.783268,9.58570721 100.381245,9.987736 C99.9792216,10.3897648 99.7534913,10.9351095 99.75377,11.50366 L99.75377,58.47066 C99.75377,59.6544244 100.713401,60.614055 101.897165,60.614055 C103.080929,60.614055 104.04056,59.6544244 104.04056,58.47066 L104.04056,11.50366 C104.027795,10.3252249 103.075605,9.37303096 101.89717,9.36026 L101.89716,9.36024 Z" id="Shape" fill="#7DADBA" fill-rule="nonzero"></path>
                    <path d="M91.21765,9.36024 C90.6490995,9.35996924 90.103758,9.58570721 89.7017348,9.987736 C89.2997116,10.3897648 89.0739813,10.9351095 89.07426,11.50366 L89.07426,58.47066 C89.07426,59.6544244 90.0338906,60.614055 91.217655,60.614055 C92.4014194,60.614055 93.36105,59.6544244 93.36105,58.47066 L93.36105,11.50366 C93.3483269,10.3252071 92.3961129,9.37298857 91.21766,9.36026 L91.21765,9.36024 Z" id="Shape" fill="#7DADBA" fill-rule="nonzero"></path>
                    <path d="M80.53824,9.36024 C79.9696895,9.35996924 79.424348,9.58570721 79.0223248,9.987736 C78.6203016,10.3897648 78.3945713,10.9351095 78.39485,11.50366 L78.39485,58.47066 C78.3945793,59.0392081 78.6203121,59.5845481 79.0223336,59.9865752 C79.424355,60.3886023 79.9696919,60.6143428 80.53824,60.61408 C81.1087175,60.6207209 81.6577687,60.3970291 82.0611817,59.9936104 C82.4645947,59.5901917 82.6882789,59.0411374 82.68163,58.47066 L82.68163,11.50366 C82.6688645,10.3252249 81.7166751,9.37303096 80.53824,9.36026 L80.53824,9.36024 Z" id="Shape" fill="#7DADBA" fill-rule="nonzero"></path>
                    <path d="M69.48269,8.98421 C68.9141395,8.98393924 68.368798,9.20967721 67.9667748,9.611706 C67.5647516,10.0137348 67.3390213,10.5590795 67.3393,11.12763 L67.3393,58.09463 C67.3393,59.2783944 68.2989306,60.238025 69.482695,60.238025 C70.6664594,60.238025 71.62609,59.2783944 71.62609,58.09463 L71.62609,11.12763 C71.62639,10.5590748 71.4006658,10.0137198 70.9986375,9.6116896 C70.5966091,9.20965937 70.0512552,8.98393267 69.4827,8.98423 L69.48269,8.98421 Z" id="Shape" fill="#91EAF3" fill-rule="nonzero"></path>
                    <path d="M58.80328,8.98421 C58.2347295,8.98393924 57.689388,9.20967721 57.2873648,9.611706 C56.8853416,10.0137348 56.6596113,10.5590795 56.65989,11.12763 L56.65989,58.09463 C56.65989,59.2783944 57.6195206,60.238025 58.803285,60.238025 C59.9870494,60.238025 60.94668,59.2783944 60.94668,58.09463 L60.94668,11.12763 C60.9469481,10.5590846 60.7212137,10.0137481 60.3191923,9.6117248 C59.9171708,9.20970149 59.3718354,8.98396456 58.80329,8.98423 L58.80328,8.98421 Z" id="Shape" fill="#91EAF3" fill-rule="nonzero"></path>
                    <path d="M48.16141,8.98421 C47.5928595,8.98393924 47.047518,9.20967721 46.6454948,9.611706 C46.2434716,10.0137348 46.0177413,10.5590795 46.01802,11.12763 L46.01802,58.09463 C46.0180199,58.8603914 46.4265486,59.5679841 47.0897174,59.9508648 C47.7528862,60.3337455 48.5699438,60.3337455 49.2331126,59.9508648 C49.8962814,59.5679841 50.3048101,58.8603914 50.30481,58.09463 L50.30481,11.12763 C50.278933,9.95475255 49.3342973,9.01011249 48.16142,8.98423 L48.16141,8.98421 Z" id="Shape" fill="#91EAF3" fill-rule="nonzero"></path>
                    <path d="M37.482,8.98421 C36.9134495,8.98393924 36.368108,9.20967721 35.9660848,9.611706 C35.5640616,10.0137348 35.3383313,10.5590795 35.33861,11.12763 L35.33861,58.09463 C35.33861,59.2783944 36.2982406,60.238025 37.482005,60.238025 C38.6657694,60.238025 39.6254,59.2783944 39.6254,58.09463 L39.6254,11.12763 C39.6126345,9.94919488 38.6604451,8.99700096 37.48201,8.98423 L37.482,8.98421 Z" id="Shape" fill="#91EAF3" fill-rule="nonzero"></path>
                    <path d="M112.20053,8.98421 C111.631979,8.98393924 111.086638,9.20967721 110.684615,9.611706 C110.282592,10.0137348 110.056861,10.5590795 110.05714,11.12763 L110.05714,58.09463 C110.05714,59.2783944 111.016771,60.238025 112.200535,60.238025 C113.384299,60.238025 114.34393,59.2783944 114.34393,58.09463 L114.34393,11.12763 C114.318053,9.95475255 113.373417,9.01011249 112.20054,8.98423 L112.20053,8.98421 Z" id="Shape" fill="#91EAF3" fill-rule="nonzero"></path>
                    <path d="M122.8424,8.98421 C122.273849,8.98393924 121.728508,9.20967721 121.326485,9.611706 C120.924462,10.0137348 120.698731,10.5590795 120.69901,11.12763 L120.69901,58.09463 C120.69901,59.2783944 121.658641,60.238025 122.842405,60.238025 C124.026169,60.238025 124.9858,59.2783944 124.9858,58.09463 L124.9858,11.12763 C124.986068,10.5590846 124.760334,10.0137481 124.358312,9.6117248 C123.956291,9.20970149 123.410955,8.98396456 122.84241,8.98423 L122.8424,8.98421 Z" id="Shape" fill="#91EAF3" fill-rule="nonzero"></path>
                    <path d="M26.8025,8.98421 C26.2339495,8.98393924 25.688608,9.20967721 25.2865848,9.611706 C24.8845616,10.0137348 24.6588313,10.5590795 24.65911,11.12763 L24.65911,58.09463 C24.65911,59.2783916 25.6187384,60.23802 26.8025,60.23802 C27.9862616,60.23802 28.94589,59.2783916 28.94589,58.09463 L28.94589,11.12763 C28.9331987,9.94916368 27.9809663,8.99692677 26.8025,8.98423 L26.8025,8.98421 Z" id="Shape" fill="#91EAF3" fill-rule="nonzero"></path>
                    <path d="M16.12308,8.98421 C15.5545295,8.98393924 15.009188,9.20967721 14.6071648,9.611706 C14.2051416,10.0137348 13.9794113,10.5590795 13.97969,11.12763 L13.97969,58.09463 C13.97969,59.2783944 14.9393206,60.238025 16.123085,60.238025 C17.3068494,60.238025 18.26648,59.2783944 18.26648,58.09463 L18.26648,11.12763 C18.2667481,10.5590846 18.0410137,10.0137481 17.6389923,9.6117248 C17.2369708,9.20970149 16.6916354,8.98396456 16.12309,8.98423 L16.12308,8.98421 Z" id="Shape" fill="#91EAF3" fill-rule="nonzero"></path>
                    <path d="M101.52112,8.98421 C100.952569,8.98393924 100.407228,9.20967721 100.005205,9.611706 C99.6031816,10.0137348 99.3774513,10.5590795 99.37773,11.12763 L99.37773,58.09463 C99.37773,59.2783916 100.337358,60.23802 101.52112,60.23802 C102.704882,60.23802 103.66451,59.2783916 103.66451,58.09463 L103.66451,11.12763 C103.651745,9.94919488 102.699555,8.99700096 101.52112,8.98423 L101.52112,8.98421 Z" id="Shape" fill="#91EAF3" fill-rule="nonzero"></path>
                    <path d="M90.84161,8.98421 C90.2730595,8.98393924 89.727718,9.20967721 89.3256948,9.611706 C88.9236716,10.0137348 88.6979413,10.5590795 88.69822,11.12763 L88.69822,58.09463 C88.69822,59.2783944 89.6578506,60.238025 90.841615,60.238025 C92.0253794,60.238025 92.98501,59.2783944 92.98501,58.09463 L92.98501,11.12763 C92.9722869,9.94917706 92.0200729,8.99695857 90.84162,8.98423 L90.84161,8.98421 Z" id="Shape" fill="#91EAF3" fill-rule="nonzero"></path>
                    <path d="M80.1622,8.98421 C79.5936495,8.98393924 79.048308,9.20967721 78.6462848,9.611706 C78.2442616,10.0137348 78.0185313,10.5590795 78.01881,11.12763 L78.01881,58.09463 C78.0185393,58.6631781 78.2442721,59.2085181 78.6462936,59.6105452 C79.048315,60.0125723 79.5936519,60.2383128 80.1622,60.23805 C80.7326775,60.2446909 81.2817287,60.0209991 81.6851417,59.6175804 C82.0885547,59.2141617 82.3122389,58.6651074 82.30559,58.09463 L82.30559,11.12763 C82.2928245,9.94919488 81.3406351,8.99700096 80.1622,8.98423 L80.1622,8.98421 Z" id="Shape" fill="#91EAF3" fill-rule="nonzero"></path>
                    <polygon id="Shape" fill="#1D1D1B" fill-rule="nonzero" opacity="0.1" points="1.5 4.631 23.219 68.661 1.5 68.661"></polygon>
                    <g id="Group" opacity="0.5" transform="translate(65.000000, 45.000000)" font-size="14" font-family="Lato-Black, Lato" fill="#000000" font-weight="700">
                        <g id="OPERATE">
                            <text>
                                <tspan x="0.39693" y="14.84752">OPERATE</tspan>
                            </text>
                        </g>
                    </g>
                </g>
                <g id="_1" transform="translate(152.000000, 0.000000)">
                    <rect id="Rectangle-path" fill="#81D4DC" fill-rule="nonzero" x="0.20287" y="0.98005" width="136.99057" height="68.0627"></rect>
                    <rect id="Rectangle-path" fill="#1D1D1B" fill-rule="nonzero" opacity="0.05" x="4.23571" y="5.0129" width="128.92477" height="59.99685"></rect>
                    <path d="M131.5473,6.62609 L131.5473,63.39658 L5.8489,63.39658 L5.8489,6.62609 L131.5473,6.62609 L131.5473,6.62609 Z M133.16048,5.01291 L4.23571,5.01291 L4.23571,65.00976 L133.16048,65.00976 L133.16048,5.01291 Z" id="Shape" fill="#1D1D1B" fill-rule="nonzero" opacity="0.1"></path>
                    <path d="M69.0742,9.74172 C68.5056495,9.74144924 67.960308,9.96718721 67.5582848,10.369216 C67.1562616,10.7712448 66.9305313,11.3165895 66.93081,11.88514 L66.93081,58.85214 C66.93081,60.0359044 67.8904406,60.995535 69.074205,60.995535 C70.2579694,60.995535 71.2176,60.0359044 71.2176,58.85214 L71.2176,11.88514 C71.2179,11.3165848 70.9921758,10.7712298 70.5901475,10.3691996 C70.1881191,9.96716937 69.6427652,9.74144267 69.07421,9.74174 L69.0742,9.74172 Z" id="Shape" fill="#7DADBA" fill-rule="nonzero"></path>
                    <path d="M58.39478,9.74172 C57.8262295,9.74144924 57.280888,9.96718721 56.8788648,10.369216 C56.4768416,10.7712448 56.2511113,11.3165895 56.25139,11.88514 L56.25139,58.85214 C56.25139,60.0359016 57.2110184,60.99553 58.39478,60.99553 C59.5785416,60.99553 60.53817,60.0359016 60.53817,58.85214 L60.53817,11.88514 C60.5384381,11.3165946 60.3127037,10.7712581 59.9106823,10.3692348 C59.5086608,9.96721149 58.9633254,9.74147456 58.39478,9.74174 L58.39478,9.74172 Z" id="Shape" fill="#7DADBA" fill-rule="nonzero"></path>
                    <path d="M47.75292,9.74172 C47.1843695,9.74144924 46.639028,9.96718721 46.2370048,10.369216 C45.8349816,10.7712448 45.6092513,11.3165895 45.60953,11.88514 L45.60953,58.85214 C45.60953,60.0359044 46.5691606,60.995535 47.752925,60.995535 C48.9366894,60.995535 49.89632,60.0359044 49.89632,58.85214 L49.89632,11.88514 C49.870443,10.7122625 48.9258073,9.76762249 47.75293,9.74174 L47.75292,9.74172 Z" id="Shape" fill="#7DADBA" fill-rule="nonzero"></path>
                    <path d="M37.0735,9.74172 C36.5049495,9.74144924 35.959608,9.96718721 35.5575848,10.369216 C35.1555616,10.7712448 34.9298313,11.3165895 34.93011,11.88514 L34.93011,58.85214 C34.93011,60.0359044 35.8897406,60.995535 37.073505,60.995535 C38.2572694,60.995535 39.2169,60.0359044 39.2169,58.85214 L39.2169,11.88514 C39.2041345,10.7067049 38.2519451,9.75451096 37.07351,9.74174 L37.0735,9.74172 Z" id="Shape" fill="#7DADBA" fill-rule="nonzero"></path>
                    <path d="M111.792,9.74172 C111.223449,9.74144924 110.678108,9.96718721 110.276085,10.369216 C109.874062,10.7712448 109.648331,11.3165895 109.64861,11.88514 L109.64861,58.85214 C109.64861,60.0359044 110.608241,60.995535 111.792005,60.995535 C112.975769,60.995535 113.9354,60.0359044 113.9354,58.85214 L113.9354,11.88514 C113.909523,10.7122625 112.964887,9.76762249 111.79201,9.74174 L111.792,9.74172 Z" id="Shape" fill="#7DADBA" fill-rule="nonzero"></path>
                    <path d="M122.4339,9.74172 C121.865349,9.74144924 121.320008,9.96718721 120.917985,10.369216 C120.515962,10.7712448 120.290231,11.3165895 120.29051,11.88514 L120.29051,58.85214 C120.29051,60.0359044 121.250141,60.995535 122.433905,60.995535 C123.617669,60.995535 124.5773,60.0359044 124.5773,58.85214 L124.5773,11.88514 C124.577568,11.3165946 124.351834,10.7712581 123.949812,10.3692348 C123.547791,9.96721149 123.002455,9.74147456 122.43391,9.74174 L122.4339,9.74172 Z" id="Shape" fill="#7DADBA" fill-rule="nonzero"></path>
                    <path d="M26.394,9.74172 C25.8254495,9.74144924 25.280108,9.96718721 24.8780848,10.369216 C24.4760616,10.7712448 24.2503313,11.3165895 24.25061,11.88514 L24.25061,58.85214 C24.25061,60.0359044 25.2102406,60.995535 26.394005,60.995535 C27.5777694,60.995535 28.5374,60.0359044 28.5374,58.85214 L28.5374,11.88514 C28.5247087,10.7066737 27.5724763,9.75443677 26.39401,9.74174 L26.394,9.74172 Z" id="Shape" fill="#7DADBA" fill-rule="nonzero"></path>
                    <path d="M15.71458,9.74172 C15.1460295,9.74144924 14.600688,9.96718721 14.1986648,10.369216 C13.7966416,10.7712448 13.5709113,11.3165895 13.57119,11.88514 L13.57119,58.85214 C13.57119,60.0359044 14.5308206,60.995535 15.714585,60.995535 C16.8983494,60.995535 17.85798,60.0359044 17.85798,58.85214 L17.85798,11.88514 C17.8582481,11.3165946 17.6325137,10.7712581 17.2304923,10.3692348 C16.8284708,9.96721149 16.2831354,9.74147456 15.71459,9.74174 L15.71458,9.74172 Z" id="Shape" fill="#7DADBA" fill-rule="nonzero"></path>
                    <path d="M101.11262,9.74172 C100.544069,9.74144924 99.998728,9.96718721 99.5967048,10.369216 C99.1946816,10.7712448 98.9689513,11.3165895 98.96923,11.88514 L98.96923,58.85214 C98.96923,60.0359044 99.9288606,60.995535 101.112625,60.995535 C102.296389,60.995535 103.25602,60.0359044 103.25602,58.85214 L103.25602,11.88514 C103.243255,10.7067049 102.291065,9.75451096 101.11263,9.74174 L101.11262,9.74172 Z" id="Shape" fill="#7DADBA" fill-rule="nonzero"></path>
                    <path d="M90.43311,9.74172 C89.8645595,9.74144924 89.319218,9.96718721 88.9171948,10.369216 C88.5151716,10.7712448 88.2894413,11.3165895 88.28972,11.88514 L88.28972,58.85214 C88.28972,60.0359044 89.2493506,60.995535 90.433115,60.995535 C91.6168794,60.995535 92.57651,60.0359044 92.57651,58.85214 L92.57651,11.88514 C92.5637869,10.7066871 91.6115729,9.75446857 90.43312,9.74174 L90.43311,9.74172 Z" id="Shape" fill="#7DADBA" fill-rule="nonzero"></path>
                    <path d="M79.7537,9.74172 C79.1851495,9.74144924 78.639808,9.96718721 78.2377848,10.369216 C77.8357616,10.7712448 77.6100313,11.3165895 77.61031,11.88514 L77.61031,58.85214 C77.6100393,59.4206881 77.8357721,59.9660281 78.2377936,60.3680552 C78.639815,60.7700823 79.1851519,60.9958228 79.7537,60.99556 C80.3241775,61.0022009 80.8732287,60.7785091 81.2766417,60.3750904 C81.6800547,59.9716717 81.9037389,59.4226174 81.89709,58.85214 L81.89709,11.88514 C81.8843245,10.7067049 80.9321351,9.75451096 79.7537,9.74174 L79.7537,9.74172 Z" id="Shape" fill="#7DADBA" fill-rule="nonzero"></path>
                    <path d="M68.69816,9.36568 C68.1296095,9.36540924 67.584268,9.59114721 67.1822448,9.993176 C66.7802216,10.3952048 66.5544913,10.9405495 66.55477,11.5091 L66.55477,58.4761 C66.55477,59.6598644 67.5144006,60.619495 68.698165,60.619495 C69.8819294,60.619495 70.84156,59.6598644 70.84156,58.4761 L70.84156,11.5091 C70.84186,10.9405448 70.6161358,10.3951898 70.2141075,9.9931596 C69.8120791,9.59112937 69.2667252,9.36540267 68.69817,9.3657 L68.69816,9.36568 Z" id="Shape" fill="#91EAF3" fill-rule="nonzero"></path>
                    <path d="M58.01874,9.36568 C57.4501895,9.36540924 56.904848,9.59114721 56.5028248,9.993176 C56.1008016,10.3952048 55.8750713,10.9405495 55.87535,11.5091 L55.87535,58.4761 C55.87535,59.6598616 56.8349784,60.61949 58.01874,60.61949 C59.2025016,60.61949 60.16213,59.6598616 60.16213,58.4761 L60.16213,11.5091 C60.1623981,10.9405546 59.9366637,10.3952181 59.5346423,9.9931948 C59.1326208,9.59117149 58.5872854,9.36543456 58.01874,9.3657 L58.01874,9.36568 Z" id="Shape" fill="#91EAF3" fill-rule="nonzero"></path>
                    <path d="M47.37688,9.36568 C46.8083295,9.36540924 46.262988,9.59114721 45.8609648,9.993176 C45.4589416,10.3952048 45.2332113,10.9405495 45.23349,11.5091 L45.23349,58.4761 C45.23349,59.6598644 46.1931206,60.619495 47.376885,60.619495 C48.5606494,60.619495 49.52028,59.6598644 49.52028,58.4761 L49.52028,11.5091 C49.494403,10.3362225 48.5497673,9.39158249 47.37689,9.3657 L47.37688,9.36568 Z" id="Shape" fill="#91EAF3" fill-rule="nonzero"></path>
                    <path d="M36.69747,9.36568 C36.1289195,9.36540924 35.583578,9.59114721 35.1815548,9.993176 C34.7795316,10.3952048 34.5538013,10.9405495 34.55408,11.5091 L34.55408,58.4761 C34.55408,59.6598644 35.5137106,60.619495 36.697475,60.619495 C37.8812394,60.619495 38.84087,59.6598644 38.84087,58.4761 L38.84087,11.5091 C38.8281045,10.3306649 37.8759151,9.37847096 36.69748,9.3657 L36.69747,9.36568 Z" id="Shape" fill="#91EAF3" fill-rule="nonzero"></path>
                    <path d="M111.416,9.36568 C110.847449,9.36540924 110.302108,9.59114721 109.900085,9.993176 C109.498062,10.3952048 109.272331,10.9405495 109.27261,11.5091 L109.27261,58.4761 C109.27261,59.6598644 110.232241,60.619495 111.416005,60.619495 C112.599769,60.619495 113.5594,59.6598644 113.5594,58.4761 L113.5594,11.5091 C113.533523,10.3362225 112.588887,9.39158249 111.41601,9.3657 L111.416,9.36568 Z" id="Shape" fill="#91EAF3" fill-rule="nonzero"></path>
                    <path d="M122.05786,9.36568 C121.489309,9.36540924 120.943968,9.59114721 120.541945,9.993176 C120.139922,10.3952048 119.914191,10.9405495 119.91447,11.5091 L119.91447,58.4761 C119.91447,59.6598616 120.874098,60.61949 122.05786,60.61949 C123.241622,60.61949 124.20125,59.6598616 124.20125,58.4761 L124.20125,11.5091 C124.201518,10.9405546 123.975784,10.3952181 123.573762,9.9931948 C123.171741,9.59117149 122.626405,9.36543456 122.05786,9.3657 L122.05786,9.36568 Z" id="Shape" fill="#91EAF3" fill-rule="nonzero"></path>
                    <path d="M26.018,9.36568 C25.4494495,9.36540924 24.904108,9.59114721 24.5020848,9.993176 C24.1000616,10.3952048 23.8743313,10.9405495 23.87461,11.5091 L23.87461,58.4761 C23.87461,59.6598644 24.8342406,60.619495 26.018005,60.619495 C27.2017694,60.619495 28.1614,59.6598644 28.1614,58.4761 L28.1614,11.5091 C28.1487087,10.3306337 27.1964763,9.37839677 26.01801,9.3657 L26.018,9.36568 Z" id="Shape" fill="#91EAF3" fill-rule="nonzero"></path>
                    <path d="M15.33855,9.36568 C14.7699995,9.36540924 14.224658,9.59114721 13.8226348,9.993176 C13.4206116,10.3952048 13.1948813,10.9405495 13.19516,11.5091 L13.19516,58.4761 C13.19516,59.6598644 14.1547906,60.619495 15.338555,60.619495 C16.5223194,60.619495 17.48195,59.6598644 17.48195,58.4761 L17.48195,11.5091 C17.4822181,10.9405546 17.2564837,10.3952181 16.8544623,9.9931948 C16.4524408,9.59117149 15.9071054,9.36543456 15.33856,9.3657 L15.33855,9.36568 Z" id="Shape" fill="#91EAF3" fill-rule="nonzero"></path>
                    <path d="M100.73658,9.36568 C100.168029,9.36540924 99.622688,9.59114721 99.2206648,9.993176 C98.8186416,10.3952048 98.5929113,10.9405495 98.59319,11.5091 L98.59319,58.4761 C98.59319,59.6598644 99.5528206,60.619495 100.736585,60.619495 C101.920349,60.619495 102.87998,59.6598644 102.87998,58.4761 L102.87998,11.5091 C102.867215,10.3306649 101.915025,9.37847096 100.73659,9.3657 L100.73658,9.36568 Z" id="Shape" fill="#91EAF3" fill-rule="nonzero"></path>
                    <path d="M90.05708,9.36568 C89.4885295,9.36540924 88.943188,9.59114721 88.5411648,9.993176 C88.1391416,10.3952048 87.9134113,10.9405495 87.91369,11.5091 L87.91369,58.4761 C87.91369,59.6598644 88.8733206,60.619495 90.057085,60.619495 C91.2408494,60.619495 92.20048,59.6598644 92.20048,58.4761 L92.20048,11.5091 C92.1877569,10.3306471 91.2355429,9.37842857 90.05709,9.3657 L90.05708,9.36568 Z" id="Shape" fill="#91EAF3" fill-rule="nonzero"></path>
                    <path d="M79.37766,9.36568 C78.8091095,9.36540924 78.263768,9.59114721 77.8617448,9.993176 C77.4597216,10.3952048 77.2339913,10.9405495 77.23427,11.5091 L77.23427,58.4761 C77.2339993,59.0446481 77.4597321,59.5899881 77.8617536,59.9920152 C78.263775,60.3940423 78.8091119,60.6197828 79.37766,60.61952 C79.9481375,60.6261609 80.4971887,60.4024691 80.9006017,59.9990504 C81.3040147,59.5956317 81.5276989,59.0465774 81.52105,58.4761 L81.52105,11.5091 C81.5082845,10.3306649 80.5560951,9.37847096 79.37766,9.3657 L79.37766,9.36568 Z" id="Shape" fill="#91EAF3" fill-rule="nonzero"></path>
                    <g id="Group" opacity="0.5" transform="translate(85.000000, 46.000000)" font-size="14" font-family="Lato-Black, Lato" fill="#000000" font-weight="700">
                        <g id="BUILD">
                            <text>
                                <tspan x="0.61666" y="14.22887">BUILD</tspan>
                            </text>
                        </g>
                    </g>
                </g>
            </g>
            <g id="kran" transform="translate(301.000000, 102.000000)">
                <polygon id="Shape" fill="#000000" fill-rule="nonzero" opacity="0.1" points="253.399 248.661 225.986 248.661 225.986 240.425"></polygon>
                <polyline id="Shape" stroke="#4D4D4D" points="0.371 98.102 56.635 78.749 113.026 98.102"></polyline>
                <rect id="Rectangle-path" stroke="#4D4D4D" x="52.60839" y="22.17895" width="8.93737" height="36.54346"></rect>
                <polygon id="Shape" fill="#FFD301" fill-rule="nonzero" points="50.593 57.98 63.565 57.98 57.084 67.873"></polygon>
                <path d="M61.84736,75.00547 C61.8461451,77.6382723 59.7111997,79.7717792 57.0783972,79.7712197 C54.4455947,79.7706602 52.3115564,77.636246 52.3114605,75.0034434 C52.3113646,72.3706408 54.4452475,70.2360713 57.07805,70.23532 L57.07805,67.87281" id="Shape" stroke="#4D4D4D"></path>
                <path d="M220.48243,46.41107 L220.48243,211.96943" id="Shape" stroke="#4D4D4D"></path>
                <path d="M198.19172,46.41107 L198.19172,211.96943" id="Shape" stroke="#4D4D4D"></path>
                <rect id="Rectangle-path" stroke="#4D4D4D" x="198.19172" y="46.41107" width="22.29071" height="22.29071"></rect>
                <rect id="Rectangle-path" stroke="#4D4D4D" x="198.19172" y="68.70178" width="22.29071" height="22.29071"></rect>
                <rect id="Rectangle-path" stroke="#4D4D4D" x="198.19172" y="90.99249" width="22.29071" height="22.29088"></rect>
                <rect id="Rectangle-path" stroke="#4D4D4D" x="198.19172" y="113.28337" width="22.29071" height="22.2907"></rect>
                <rect id="Rectangle-path" stroke="#4D4D4D" x="198.19172" y="135.57407" width="22.29071" height="22.29072"></rect>
                <rect id="Rectangle-path" stroke="#4D4D4D" x="198.19172" y="157.8648" width="22.29071" height="22.29088"></rect>
                <rect id="Rectangle-path" stroke="#4D4D4D" x="198.19172" y="180.15567" width="22.29071" height="22.28907"></rect>
                <rect id="Rectangle-path" stroke="#4D4D4D" x="198.19172" y="202.44474" width="22.29071" height="22.29235"></rect>
                <path d="M198.19172,46.41107 L220.48243,68.70178" id="Shape" stroke="#4D4D4D"></path>
                <path d="M220.48243,68.70178 L198.19172,90.99249" id="Shape" stroke="#4D4D4D"></path>
                <path d="M198.19172,90.99249 L220.48243,113.28337" id="Shape" stroke="#4D4D4D"></path>
                <path d="M220.48243,113.28337 L198.19172,135.57407" id="Shape" stroke="#4D4D4D"></path>
                <path d="M198.19172,135.57407 L220.48243,157.8648" id="Shape" stroke="#4D4D4D"></path>
                <path d="M220.48243,157.8648 L198.19172,180.15567" id="Shape" stroke="#4D4D4D"></path>
                <path d="M198.19172,180.15567 L220.48243,202.44474" id="Shape" stroke="#4D4D4D"></path>
                <path d="M220.48243,202.44474 L198.19172,224.7371" id="Shape" stroke="#4D4D4D"></path>
                <path d="M235.17149,3.28707 L252.16978,21.92127 L235.17149,21.92127 L235.17149,3.28707 L235.17149,3.28707 Z M234.17149,0.70701 L234.17149,22.92127 L254.43565,22.92127 L234.17149,0.707 L234.17149,0.70701 Z" id="Shape" fill="#4D4D4D" fill-rule="nonzero"></path>
                <path d="M15.09817,22.92129 L236.98007,22.92129" id="Shape" fill="#2C5871" fill-rule="nonzero"></path>
                <polygon id="Shape" fill="#367089" fill-rule="nonzero" points="15.098 0.631 15.098 22.921 205.166 22.921 235.233 22.921 235.233 0.631"></polygon>
                <rect id="Rectangle-path" fill="#2C5871" fill-rule="nonzero" x="192.28681" y="22.86148" width="33.69949" height="24.58707"></rect>
                <rect id="Rectangle-path" fill="#2C5871" fill-rule="nonzero" x="192.28681" y="224.08081" width="33.69949" height="24.58707"></rect>
            </g>
            <g id="kunde" transform="translate(87.000000, 307.000000)">
                <ellipse id="Oval" fill="#000000" fill-rule="nonzero" opacity="0.1" cx="63.67009" cy="213.5182" rx="29.25813" ry="5.66679"></ellipse>
                <path d="M52.80958,126.47926 L73.30187,194.49969" id="Shape" stroke="#666666" stroke-width="20.4669"></path>
                <path d="M70.52161,185.27111 L75.5751,202.04526" id="Shape" stroke="#1D1D1B" stroke-width="20.4669" stroke-linecap="round"></path>
                <path d="M68.14641,175.5074 L73.1999,194.16121" id="Shape" stroke="#1D1D1B" stroke-width="20.4669"></path>
                <path d="M52.80958,126.47926 L52.80958,197.51948" id="Shape" stroke="#666666" stroke-width="20.4669"></path>
                <path d="M52.80958,187.88119 L52.80958,205.40004" id="Shape" stroke="#1D1D1B" stroke-width="20.4669" stroke-linecap="round"></path>
                <path d="M52.80958,177.64701 L52.80958,197.16598" id="Shape" stroke="#1D1D1B" stroke-width="20.4669"></path>
                <g id="Group" opacity="0.2" transform="translate(60.000000, 125.000000)" fill-rule="nonzero" fill="#000000">
                    <polygon id="Shape" points="0.015 50.373 6.403 71.579 8.859 79.698 0.529 7.912 0.015 0.415 0.015 1.479"></polygon>
                </g>
                <rect id="Rectangle-path" fill="#DE9462" fill-rule="nonzero" x="47.64288" y="40.43503" width="10.33339" height="10.33339"></rect>
                <path d="M28.81056,72.47218 C28.81056,66.1072495 31.3390188,60.0030099 35.8397044,55.5023244 C40.3403899,51.0016388 46.4446295,48.47318 52.80956,48.47318 L52.80956,48.47318 C66.0638417,48.47318 76.80856,59.2178983 76.80856,72.47218 L76.80856,133.117 L28.81056,133.117 L28.81056,72.47218 Z" id="Shape" fill="#808080" fill-rule="nonzero"></path>
                <path d="M37.78772,28.62637 C37.78772,36.9227142 44.5132358,43.64823 52.80958,43.64823 C61.1059242,43.64823 67.83144,36.9227142 67.83144,28.62637 L67.83144,10.15687 L37.78772,10.15687 L37.78772,28.62637 Z" id="_Pfad_" fill="#EF9F6A" fill-rule="nonzero"></path>
                <path d="M37.78772,28.62637 C37.78772,36.9227142 44.5132358,43.64823 52.80958,43.64823 C61.1059242,43.64823 67.83144,36.9227142 67.83144,28.62637 L67.83144,10.15687 L37.78772,10.15687 L37.78772,28.62637 Z" id="_Pfad_2" fill="#EF9F6A" fill-rule="nonzero"></path>
                <path d="M41.785,38.6922 C44.4517942,38.6939079 47.0095763,37.6339818 48.8935,35.74649" id="Shape"></path>
                <path d="M52.80958,43.64824 C51.0457838,43.6447573 49.2964974,43.3294195 47.64251,42.71679 L47.64251,45.136 C50.9752839,46.3779327 54.6438761,46.3779327 57.97665,45.136 L57.97665,42.71678 C56.3226556,43.3293852 54.5733743,43.6447255 52.80958,43.64824 L52.80958,43.64824 Z" id="Shape" fill="#000000" fill-rule="nonzero" opacity="0.2"></path>
                <circle id="_Pfad_3" fill="#000000" fill-rule="nonzero" cx="43.26253" cy="18.34498" r="1.47755"></circle>
                <path d="M32.89705,0.65276 L67.67588,0.65276 C70.3867199,0.579046894 72.6449574,2.71501557 72.7221,5.42576 L72.7221,22.9529 C72.6444844,25.6634846 70.3864547,27.7992017 67.67575,27.7259 L67.65986,27.7259 C61.6688825,27.8027593 56.1919998,24.3520853 53.67511,18.9149 C52.7582373,16.7851562 51.1777203,15.0086951 49.16911,13.85027 C47.5873018,13.0817522 45.8701526,12.6308497 44.11484,12.52308 C37.8936231,12.0174216 33.0552298,6.90143854 32.89706,0.66171 L32.89705,0.65276 Z" id="_Pfad_4" fill="#736357" fill-rule="nonzero"></path>
                <ellipse id="_Pfad_5" fill="#EF9F6A" fill-rule="nonzero" transform="translate(55.366701, 22.500191) rotate(-77.126680) translate(-55.366701, -22.500191) " cx="55.3667012" cy="22.5001909" rx="4.43271" ry="3.75545"></ellipse>
                <g id="Group" opacity="0.2" transform="translate(28.000000, 56.000000)" fill-rule="nonzero" fill="#000000">
                    <path d="M27.38339,0.77057 C26.018551,0.77045594 24.7095795,1.31258561 23.7444925,2.27767254 C22.7794056,3.24275947 22.2372759,4.55173098 22.23739,5.91657 L22.23739,33.44747 C22.2325742,37.4243262 19.0098962,40.6470042 15.03304,40.65182 L0.81032,40.65182 L0.81032,50.9437 L15.03308,50.9437 C24.6912379,50.9322056 32.5178556,43.1055879 32.52935,33.44743 L32.52935,5.91653 C32.5294534,4.55170484 31.9873246,3.24274967 31.0222475,2.27767255 C30.0571703,1.31259542 28.7482152,0.770466551 27.38339,0.77057 Z" id="Shape"></path>
                </g>
                <path d="M52.80958,57.78066 L52.80958,85.31156 C52.80958,92.1324479 47.2801579,97.66187 40.45927,97.66187 L2.21916,97.66187" id="Shape" stroke="#999999" stroke-width="14.61921" stroke-linecap="round"></path>
                <path d="M15.85557,97.66187 L4.37616,97.66187" id="Shape" stroke="#EF9F6A" stroke-width="14.61921"></path>
                <path d="M7.62152,97.66187 L0.25913,97.66187" id="Shape" stroke="#EF9F6A" stroke-width="14.61921" stroke-linecap="round"></path>
            </g>
            <g id="berater" transform="translate(7.000000, 290.000000)">
                <ellipse id="Oval" fill="#000000" fill-rule="nonzero" opacity="0.1" cx="29.80669" cy="230.5182" rx="29.25813" ry="5.66679"></ellipse>
                <path d="M18.1997,143.47926 L18.1997,214.51948" id="Shape" stroke="#2C5871" stroke-width="20.4669"></path>
                <path d="M18.1997,204.88119 L18.1997,222.40004" id="Shape" stroke="#1D1D1B" stroke-width="20.4669" stroke-linecap="round"></path>
                <path d="M18.1997,194.64701 L18.1997,214.16598" id="Shape" stroke="#1D1D1B" stroke-width="20.4669"></path>
                <path d="M41.27954,143.47926 L41.27954,214.51948" id="Shape" stroke="#2C5871" stroke-width="20.4669"></path>
                <path d="M41.27954,204.88119 L41.27954,222.40004" id="Shape" stroke="#1D1D1B" stroke-width="20.4669" stroke-linecap="round"></path>
                <path d="M41.27954,194.64701 L41.27954,214.16598" id="Shape" stroke="#1D1D1B" stroke-width="20.4669"></path>
                <rect id="Rectangle-path" fill="#DE9462" fill-rule="nonzero" x="24.57331" y="57.43503" width="10.33339" height="10.33339"></rect>
                <path d="M29.73962,60.18251 C27.9758238,60.1790273 26.2265374,59.8636895 24.57255,59.25106 L24.57255,61.67028 C27.9053239,62.9122127 31.5739161,62.9122127 34.90669,61.67028 L34.90669,59.25106 C33.252695,59.8636618 31.5034137,60.1789987 29.73962,60.18251 L29.73962,60.18251 Z" id="Shape" fill="#000000" fill-rule="nonzero" opacity="0.2"></path>
                <path d="M0.81632,156.37029 L0.81632,88.37356 C0.81632,78.154 14.72851,69.52044 31.1976,69.52044" id="Shape" stroke="#2C5871" stroke-width="14.61921" stroke-linecap="round"></path>
                <path d="M0.81632,161.31807 L0.81632,151.42251" id="Shape" stroke="#EF9F6A" stroke-width="14.61921" stroke-linecap="round"></path>
                <path d="M0.81632,155.14253 L0.81632,99.27746" id="Shape" stroke="#EF9F6A" stroke-width="14.61921"></path>
                <path d="M58.79707,156.37029 L58.79707,88.37356 C58.79707,78.154 44.88488,69.52044 28.41579,69.52044" id="Shape" stroke="#2C5871" stroke-width="14.61921" stroke-linecap="round"></path>
                <path d="M58.79707,161.31807 L58.79707,151.42251" id="Shape" stroke="#EF9F6A" stroke-width="14.61921" stroke-linecap="round"></path>
                <path d="M58.79707,155.14253 L58.79707,99.27746" id="Shape" stroke="#EF9F6A" stroke-width="14.61921"></path>
                <path d="M53.73864,149.01375 L5.74064,149.01375 L5.74064,88.36892 C5.74064,75.1146383 16.4853583,64.36992 29.73964,64.36992 L29.73964,64.36992 C42.9939217,64.36992 53.73864,75.1146383 53.73864,88.36892 L53.73864,149.01375 Z" id="Shape" fill="#15B0BF" fill-rule="nonzero"></path>
                <path d="M12.429,25.89111 L12.429,42.82991 C12.4288966,43.9857332 12.8879628,45.0942545 13.7052026,45.9115956 C14.5224424,46.7289367 15.6309068,47.1881402 16.78673,47.18818 L42.69258,47.18818 C43.8484032,47.1881402 44.9568676,46.7289367 45.7741074,45.9115956 C46.5913472,45.0942545 47.0504134,43.9857332 47.05031,42.82991 L47.05031,25.89111 L12.429,25.89111 Z" id="Shape" fill="#000000" fill-rule="nonzero"></path>
                <path d="M44.76148,45.62637 C44.76148,53.9227142 38.0359642,60.64823 29.73962,60.64823 C21.4432758,60.64823 14.71776,53.9227142 14.71776,45.62637 L14.71776,27.15687 L44.76148,27.15687 L44.76148,45.62637 Z" id="_Pfad_6" fill="#EF9F6A" fill-rule="nonzero"></path>
                <path d="M44.76148,45.62637 C44.76148,53.9227142 38.0359642,60.64823 29.73962,60.64823 C21.4432758,60.64823 14.71776,53.9227142 14.71776,45.62637 L14.71776,27.15687 L44.76148,27.15687 L44.76148,45.62637 Z" id="_Pfad_7" fill="#EF9F6A" fill-rule="nonzero"></path>
                <path d="M29.73952,55.6922 C24.1829641,55.6859176 19.6800524,51.1830059 19.67377,45.62645" id="Shape"></path>
                <path d="M12.4288,22.74689 L12.4288,28.2445 C15.6008,30.76157 22.15688,32.49231 29.74014,32.49231 C37.17766,32.49231 43.62921,30.82653 46.86655,28.38672 L46.86655,22.74689 L12.4288,22.74689 Z" id="Shape" fill="#232323" fill-rule="nonzero" opacity="0.2"></path>
                <ellipse id="Oval" fill="#EF9F6A" fill-rule="nonzero" cx="44.76148" cy="42.75524" rx="3.15322" ry="4.51047"></ellipse>
                <ellipse id="Oval" fill="#EF9F6A" fill-rule="nonzero" cx="13.78067" cy="42.75524" rx="3.15322" ry="4.51047"></ellipse>
                <circle id="_Pfad_8" fill="#000000" fill-rule="nonzero" cx="38.05091" cy="35.34498" r="1.47755"></circle>
                <circle id="_Pfad_9" fill="#000000" fill-rule="nonzero" cx="22.67744" cy="35.34498" r="1.47755"></circle>
                <path d="M47.05027,26.462 L47.05027,25.52192 C47.050876,23.3483182 45.449549,21.5066725 43.29694,21.20531 L29.73994,19.30751 L16.18294,21.20531 C14.0300909,21.5064003 12.4284409,23.3481182 12.429,25.52192 L12.429,26.462 L47.05027,26.462 Z" id="Shape" fill="#000000" fill-rule="nonzero"></path>
                <path d="M29.53827,24.88872 L12.429,24.88872 L12.429,29.02363 C12.429,29.02363 21.84818,26.54727 29.339,28.96186 L29.339,29.02363 C29.37368,29.01243 29.406,29.00304 29.43894,28.99305 C29.47247,29.00305 29.5042,29.01244 29.53834,29.02363 L29.53834,28.96186 C37.02907,26.54727 47.05034,29.62037 47.05034,29.62037 L47.05034,25.48486 L29.53827,24.88872 Z" id="Shape" fill="#000000" fill-rule="nonzero"></path>
                <rect id="Rectangle-path" fill="#1A3842" fill-rule="nonzero" x="6.43005" y="20.5316" width="46.61914" height="5.25412"></rect>
                <path d="M29.7398,30.19764 C40.42408,30.19764 49.0858,26.76564 49.0858,22.53052 L10.3938,22.53052 C10.39382,26.76569 19.05516,30.19764 29.7398,30.19764 Z" id="Shape" fill="#244959" fill-rule="nonzero"></path>
                <path d="M29.7398,0.96361 C17.3933912,0.963560284 7.38447122,10.9720012 7.38393,23.31841 L52.09531,23.31841 C52.0949345,10.9720732 42.0861368,0.963593426 29.7398,0.96361 L29.7398,0.96361 Z" id="Shape" fill="#002F47" fill-rule="nonzero"></path>
                <rect id="Rectangle-path" fill="#2C5871" fill-rule="nonzero" x="6.43005" y="20.45299" width="46.61914" height="2.86542"></rect>
                <path d="M12.16546,18.18959 C12.0471616,18.1897588 11.9295825,18.1711956 11.81709,18.13459 C11.2140345,17.9427347 10.8806425,17.2983798 11.07239,16.69529 C12.8932794,11.0283048 17.2541633,6.53551819 22.86439,4.54662 C23.4608696,4.33890366 24.1129791,4.6528731 24.3225826,5.24869221 C24.5321861,5.84451131 24.2202826,6.49761139 23.62513,6.7091 C18.6927933,8.45799118 14.8586899,12.4077648 13.25713,17.38989 C13.1060999,17.8656605 12.6646267,18.1890605 12.16546,18.18959 L12.16546,18.18959 Z" id="Shape" fill="#FFFFFF" fill-rule="nonzero" opacity="0.3"></path>
                <path d="M40.19331,10.1594 L21.233,10.1594 C21.0004319,10.1598934 20.7778474,10.2539601 20.6154104,10.4204004 C20.4529733,10.5868406 20.3643524,10.8116488 20.36952,11.04416 L20.36952,16.88342 C20.3637658,17.1176681 20.451672,17.3445381 20.6137574,17.5137528 C20.7758428,17.6829675 20.9987212,17.7805519 21.233,17.78488 L35.79783,17.78488 L35.79783,19.36015 L36.96854,17.78488 L40.19328,17.78488 C40.6933511,17.7809266 41.1012882,17.3832291 41.11795,16.88342 L41.11795,11.04416 C41.099834,10.5476661 40.69012,10.1556232 40.19331,10.1594 Z" id="Shape" fill="#FFD800" fill-rule="nonzero"></path>
                <path d="M23.11228,11.40449 L21.59662,15.03467 L22.28414,15.03467 L22.58104,14.31072 L24.19562,14.31072 L24.49252,15.03467 L25.18,15.03467 L23.6644,11.40449 L23.11228,11.40449 Z M22.78417,13.77427 L23.38834,12.2951 L23.9925,13.77427 L22.78417,13.77427 Z" id="Shape" fill="#0C2F46" fill-rule="nonzero"></path>
                <path d="M26.93557,11.40449 L25.55018,11.40449 L25.55018,15.03467 L26.20118,15.03467 L26.20118,13.76384 L26.93555,13.76384 C27.3578254,13.7650695 27.7485511,13.5404939 27.9600446,13.1749962 C28.171538,12.8094985 28.171538,12.3588315 27.9600446,11.9933338 C27.7485511,11.6278361 27.3578254,11.4032605 26.93555,11.40449 L26.93557,11.40449 Z M26.90435,13.17532 L26.20119,13.17532 L26.20119,11.993 L26.90435,11.993 C27.2215208,12.0058505 27.4720291,12.266714 27.4720291,12.584145 C27.4720291,12.901576 27.2215208,13.1624395 26.90435,13.17529 L26.90435,13.17532 Z" id="Shape" fill="#0C2F46" fill-rule="nonzero"></path>
                <path d="M29.18077,13.76385 L29.91514,13.76385 C30.3374154,13.7650795 30.7281411,13.5405039 30.9396346,13.1750062 C31.151128,12.8095085 31.151128,12.3588415 30.9396346,11.9933438 C30.7281411,11.6278461 30.3374154,11.4032705 29.91514,11.4045 L28.52975,11.4045 L28.52975,15.03468 L29.18075,15.03468 L29.18077,13.76385 Z M29.18077,11.99303 L29.88393,11.99303 C30.2011008,12.0058805 30.4516091,12.266744 30.4516091,12.584175 C30.4516091,12.901606 30.2011008,13.1624695 29.88393,13.17532 L29.18077,13.17532 L29.18077,11.99303 Z" id="Shape" fill="#0C2F46" fill-rule="nonzero"></path>
                <path d="M34.42181,11.40449 L33.77081,11.40449 L33.77081,13.57636 C33.77081,14.22217 33.44269,14.50343 32.95309,14.50343 C32.45828,14.50343 32.13015,14.22217 32.13015,13.57636 L32.13015,11.40449 L31.47915,11.40449 L31.47915,13.64407 C31.4920614,14.4474558 32.1470105,15.0919637 32.9505,15.0919637 C33.7539895,15.0919637 34.4089386,14.4474558 34.42185,13.64407 L34.42181,11.40449 Z" id="Shape" fill="#0C2F46" fill-rule="nonzero"></path>
                <rect id="Rectangle-path" fill="#0C2F46" fill-rule="nonzero" x="34.99978" y="12.4097" width="1" height="2.62497"></rect>
                <circle id="Oval" fill="#0C2F46" fill-rule="nonzero" cx="35.31097" cy="11.73262" r="1"></circle>
                <path d="M37.98043,15.1076 C39.0162393,15.0891471 39.8426106,14.2374814 39.829835,13.2015866 C39.8170595,12.1656917 38.9699357,11.334665 37.9339863,11.3417629 C36.898037,11.3488609 36.0623799,12.1914173 36.0638,13.22739 C36.0633734,13.7325305 36.2663529,14.2165676 36.6269509,14.5703135 C36.9875489,14.9240594 37.4753907,15.1177164 37.98043,15.1076 Z M37.98043,11.93053 C38.5053517,11.9230685 38.9827949,12.2333973 39.1890944,12.7161384 C39.3953939,13.1988795 39.2896883,13.758417 38.9214969,14.1326276 C38.5533055,14.5068382 37.9955555,14.6216024 37.5095328,14.4231574 C37.0235101,14.2247123 36.7054807,13.7523637 36.70443,13.22739 C36.6970969,12.8848682 36.8284932,12.553919 37.0687762,12.3097079 C37.3090591,12.0654968 37.6378343,11.9287516 37.98043,11.93053 L37.98043,11.93053 Z" id="Shape" fill="#0C2F46" fill-rule="nonzero"></path>
                <path d="M21.65416,16.26809 C21.694165,16.3511279 21.7793759,16.4027625 21.8715,16.39979 C21.99199,16.39979 22.0181,16.32896 22.0181,16.2867 C22.0181,16.20851 21.94727,16.17864 21.84172,16.13889 C21.70261,16.08676 21.59329,16.02961 21.59329,15.87689 C21.5960772,15.8096607 21.6264118,15.7465421 21.6771658,15.7023655 C21.7279198,15.6581889 21.7946187,15.6368489 21.86159,15.64336 C21.9693701,15.6386606 22.0713536,15.6922726 22.12859,15.78372 L22.01806,15.85949 C21.9846925,15.8075677 21.9256183,15.7780306 21.86406,15.78249 C21.79574,15.78249 21.74606,15.82094 21.74606,15.87436 C21.74606,15.95385 21.81559,15.96753 21.94232,16.01966 C22.10004,16.08304 22.17332,16.15015 22.17332,16.28298 C22.17332,16.42958 22.07396,16.53885 21.87032,16.53885 C21.7291645,16.5482819 21.5967955,16.4697471 21.53742,16.34134 L21.65416,16.26809 Z" id="Shape" fill="#0C2F46" fill-rule="nonzero"></path>
                <polygon id="Shape" fill="#0C2F46" fill-rule="nonzero" points="22.23293 15.65823 22.38446 15.65823 22.55959 16.23951 22.73844 15.65823 22.85516 15.65823 23.03401 16.23951 23.21039 15.65823 23.36067 15.65823 23.10233 16.52396 22.97933 16.52396 22.79675 15.94268 22.61292 16.52396 22.49122 16.52396"></polygon>
                <polygon id="Shape" fill="#0C2F46" fill-rule="nonzero" points="23.48776 15.65823 23.64302 15.65823 23.64302 16.52396 23.48776 16.52396"></polygon>
                <path d="M23.89815,16.26809 C23.938155,16.3511279 24.0233659,16.4027625 24.11549,16.39979 C24.23598,16.39979 24.26209,16.32896 24.26209,16.2867 C24.26209,16.20851 24.19126,16.17864 24.08571,16.13889 C23.9466,16.08676 23.83728,16.02961 23.83728,15.87689 C23.8400672,15.8096607 23.8704018,15.7465421 23.9211558,15.7023655 C23.9719098,15.6581889 24.0386087,15.6368489 24.10558,15.64336 C24.2133601,15.6386606 24.3153436,15.6922726 24.37258,15.78372 L24.26205,15.85949 C24.2286825,15.8075677 24.1696083,15.7780306 24.10805,15.78249 C24.03973,15.78249 23.99005,15.82094 23.99005,15.87436 C23.99005,15.95385 24.05958,15.96753 24.18631,16.01966 C24.34403,16.08304 24.41731,16.15015 24.41731,16.28298 C24.41731,16.42958 24.31795,16.53885 24.11431,16.53885 C23.9731545,16.5482819 23.8407855,16.4697471 23.78141,16.34134 L23.89815,16.26809 Z" id="Shape" fill="#0C2F46" fill-rule="nonzero"></path>
                <path d="M24.6304,16.26809 C24.670405,16.3511279 24.7556159,16.4027625 24.84774,16.39979 C24.96823,16.39979 24.99429,16.32896 24.99429,16.2867 C24.99429,16.20851 24.9235,16.17864 24.81795,16.13889 C24.67884,16.08676 24.56952,16.02961 24.56952,15.87689 C24.5723072,15.8096607 24.6026418,15.7465421 24.6533958,15.7023655 C24.7041498,15.6581889 24.7708487,15.6368489 24.83782,15.64336 C24.9456025,15.63865 25.047591,15.6922646 25.10482,15.78372 L24.99424,15.85949 C24.9608831,15.8075559 24.9018014,15.7780151 24.84024,15.78249 C24.77192,15.78249 24.72224,15.82094 24.72224,15.87436 C24.72224,15.95385 24.79177,15.96753 24.9185,16.01966 C25.07622,16.08304 25.1495,16.15015 25.1495,16.28298 C25.1495,16.42958 25.05014,16.53885 24.8465,16.53885 C24.7053445,16.5482819 24.5729755,16.4697471 24.5136,16.34134 L24.6304,16.26809 Z" id="Shape" fill="#0C2F46" fill-rule="nonzero"></path>
                <path d="M26.23942,15.64334 C26.3707978,15.6429341 26.4958805,15.6995846 26.58223,15.7986 L26.47663,15.88926 C26.4166098,15.8213394 26.3300558,15.782826 26.23942,15.78371 C26.0703347,15.7846744 25.9337733,15.922017 25.9337733,16.091105 C25.9337733,16.260193 26.0703347,16.3975356 26.23942,16.3985 C26.3313607,16.3996204 26.419101,16.3600709 26.47915,16.29044 L26.58345,16.3811 C26.4500879,16.5452262 26.2208264,16.5950834 26.0313477,16.5011651 C25.8418689,16.4072468 25.7427185,16.1946068 25.792576,15.9890902 C25.8424335,15.7835735 26.0279987,15.6400043 26.23945,15.64335 L26.23942,15.64334 Z" id="Shape" fill="#0C2F46" fill-rule="nonzero"></path>
                <path d="M27.11134,15.64334 C27.3581993,15.6477495 27.5552023,15.8506091 27.5523802,16.0974916 C27.5495581,16.3443742 27.3479693,16.5426775 27.1010737,16.5414428 C26.8541781,16.540208 26.6545828,16.3398984 26.65423,16.093 C26.6540659,15.972395 26.7024152,15.8567919 26.7883936,15.7722147 C26.8743721,15.6876375 26.990754,15.6411943 27.11134,15.64334 L27.11134,15.64334 Z M27.11134,16.40101 C27.2366328,16.4027796 27.3505637,16.3286307 27.3996789,16.2133522 C27.4487941,16.0980738 27.423347,15.9645419 27.3352769,15.8754068 C27.2472067,15.7862716 27.1139904,15.7592214 26.9981299,15.8069475 C26.8822694,15.8546735 26.8067565,15.9677049 26.80702,16.09301 C26.805119,16.1746235 26.8364493,16.2535088 26.8938274,16.3115789 C26.9512055,16.3696489 27.0297096,16.4019226 27.11134,16.401 L27.11134,16.40101 Z" id="Shape" fill="#0C2F46" fill-rule="nonzero"></path>
                <polygon id="Shape" fill="#0C2F46" fill-rule="nonzero" points="27.73042 15.65823 27.86706 15.65823 28.32534 16.25943 28.32534 15.65823 28.47562 15.65823 28.47562 16.52396 28.34894 16.52396 27.8807 15.91168 27.8807 16.52396 27.73042 16.52396"></polygon>
                <polygon id="Shape" fill="#0C2F46" fill-rule="nonzero" points="28.83384 15.79859 28.59909 15.79859 28.59909 15.65823 29.22384 15.65823 29.22384 15.79859 28.98909 15.79859 28.98909 16.52396 28.83383 16.52396"></polygon>
                <path d="M29.55648,15.65823 L29.68814,15.65823 L30.04957,16.52396 L29.88557,16.52396 L29.81478,16.3513 L29.42978,16.3513 L29.35899,16.52396 L29.19499,16.52396 L29.55648,15.65823 Z M29.76637,16.2234 L29.62228,15.87063 L29.47828,16.2234 L29.76637,16.2234 Z" id="Shape" fill="#0C2F46" fill-rule="nonzero"></path>
                <polygon id="Shape" fill="#0C2F46" fill-rule="nonzero" points="30.178 15.65823 30.33326 15.65823 30.33326 16.52396 30.178 16.52396"></polygon>
                <polygon id="Shape" fill="#0C2F46" fill-rule="nonzero" points="30.54556 15.65823 30.6822 15.65823 31.14052 16.25943 31.14052 15.65823 31.29084 15.65823 31.29084 16.52396 31.16407 16.52396 30.69583 15.91168 30.69583 16.52396 30.54555 16.52396"></polygon>
                <polygon id="Shape" fill="#0C2F46" fill-rule="nonzero" points="31.50186 15.65823 32.05335 15.65823 32.05335 15.79859 31.65711 15.79859 31.65711 16.00476 32.0285 16.00476 32.0285 16.14512 31.65711 16.14512 31.65711 16.38359 32.06211 16.38359 32.06211 16.52395 31.50187 16.52395"></polygon>
                <path d="M32.2397,15.65823 L32.57636,15.65823 C32.6501649,15.6567624 32.7214646,15.6850107 32.7742379,15.7366275 C32.8270112,15.7882444 32.8568322,15.8589007 32.857,15.93272 C32.8596559,16.0392199 32.7972113,16.1366094 32.69932,16.17864 L32.90921,16.52396 L32.734,16.52396 L32.549,16.21596 L32.395,16.21596 L32.395,16.52396 L32.23974,16.52396 L32.2397,15.65823 Z M32.56017,16.07681 C32.5984086,16.078794 32.6357109,16.0645608 32.6629085,16.0376088 C32.6901062,16.0106567 32.7046771,15.973485 32.70304,15.93523 C32.7049542,15.8995236 32.6920421,15.864611 32.6673552,15.8387427 C32.6426682,15.8128745 32.6083968,15.7983457 32.57264,15.79859 L32.395,15.79859 L32.395,16.0768 L32.56017,16.07681 Z" id="Shape" fill="#0C2F46" fill-rule="nonzero"></path>
                <path d="M33.56669,15.65823 L33.89712,15.65823 C34.0524943,15.65823 34.17845,15.7841857 34.17845,15.93956 C34.17845,16.0949343 34.0524943,16.22089 33.89712,16.22089 L33.72195,16.22089 L33.72195,16.52396 L33.56669,16.52396 L33.56669,15.65823 Z M33.88969,16.08053 C33.9652844,16.0774102 34.0249622,16.0152188 34.0249622,15.93956 C34.0249622,15.8639012 33.9652844,15.8017098 33.88969,15.79859 L33.72196,15.79859 L33.72196,16.08053 L33.88969,16.08053 Z" id="Shape" fill="#0C2F46" fill-rule="nonzero"></path>
                <polygon id="Shape" fill="#0C2F46" fill-rule="nonzero" points="34.31552 15.65823 34.47078 15.65823 34.47078 16.3836 34.81489 16.3836 34.81489 16.52396 34.31552 16.52396"></polygon>
                <path d="M35.2733,15.65823 L35.40492,15.65823 L35.76635,16.52396 L35.60243,16.52396 L35.5316,16.3513 L35.1466,16.3513 L35.07577,16.52396 L34.91185,16.52396 L35.2733,15.65823 Z M35.48319,16.2234 L35.3391,15.87063 L35.19501,16.2234 L35.48319,16.2234 Z" id="Shape" fill="#0C2F46" fill-rule="nonzero"></path>
                <polygon id="Shape" fill="#0C2F46" fill-rule="nonzero" points="35.97347 15.79859 35.73872 15.79859 35.73872 15.65823 36.36347 15.65823 36.36347 15.79859 36.12872 15.79859 36.12872 16.52396 35.97346 16.52396"></polygon>
                <polygon id="Shape" fill="#0C2F46" fill-rule="nonzero" points="36.48634 15.65823 37.01056 15.65823 37.01056 15.79859 36.64156 15.79859 36.64156 16.01593 36.97822 16.01593 36.97822 16.15629 36.64156 16.15629 36.64156 16.52395 36.4863 16.52395"></polygon>
                <path d="M37.56569,15.64334 C37.8125567,15.6476947 38.0096051,15.8505246 38.006821,16.097414 C38.0040369,16.3443034 37.8024646,16.5426382 37.5555625,16.5414247 C37.3086604,16.5402113 37.1090473,16.3399048 37.10869,16.093 C37.108521,15.9724127 37.1568534,15.8568236 37.2428091,15.7722485 C37.3287647,15.6876734 37.4451213,15.6412187 37.56569,15.64334 Z M37.56569,16.40101 C37.6909862,16.4027959 37.8049292,16.3286575 37.8540571,16.2133805 C37.9031849,16.0981036 37.8777479,15.9645653 37.7896811,15.8754218 C37.7016143,15.7862783 37.5683949,15.7592205 37.4525295,15.806944 C37.3366641,15.8546676 37.2611467,15.9677013 37.26141,16.09301 C37.2594951,16.1746206 37.2908154,16.2535078 37.3481879,16.3115798 C37.4055603,16.3696518 37.4840622,16.4019257 37.56569,16.401 L37.56569,16.40101 Z" id="Shape" fill="#0C2F46" fill-rule="nonzero"></path>
                <path d="M38.18481,15.65823 L38.52147,15.65823 C38.5952749,15.6567624 38.6665746,15.6850107 38.7193479,15.7366275 C38.7721212,15.7882444 38.8019422,15.8589007 38.80211,15.93272 C38.8047659,16.0392199 38.7423213,16.1366094 38.64443,16.17864 L38.85432,16.52396 L38.67915,16.52396 L38.49415,16.21596 L38.34015,16.21596 L38.34015,16.52396 L38.18489,16.52396 L38.18481,15.65823 Z M38.50528,16.07681 C38.5435186,16.078794 38.5808209,16.0645608 38.6080185,16.0376088 C38.6352162,16.0106567 38.6497871,15.973485 38.64815,15.93523 C38.6500642,15.8995236 38.6371521,15.864611 38.6124652,15.8387427 C38.5877782,15.8128745 38.5535068,15.7983457 38.51775,15.79859 L38.34007,15.79859 L38.34007,16.0768 L38.50528,16.07681 Z" id="Shape" fill="#0C2F46" fill-rule="nonzero"></path>
                <polygon id="Shape" fill="#0C2F46" fill-rule="nonzero" points="38.988 15.65823 39.12092 15.65823 39.43143 16.14391 39.74073 15.65823 39.87235 15.65823 39.87235 16.52396 39.72584 16.52396 39.72584 15.93774 39.43143 16.39474 39.1346 15.93893 39.1346 16.52393 38.988 16.52393"></polygon>
            </g>
            <g id="clouds" opacity="0.3" transform="translate(142.000000, 0.000000)" fill-rule="nonzero" fill="#D1ECFB">
                <path d="M135.83486,43.29 C117.87993,25.3418621 88.7764401,25.3418621 70.82151,43.29 C70.6740633,43.4373933 70.5278367,43.58553 70.38283,43.73441 C69.7801167,43.0015033 69.13622,42.29211 68.45114,41.60623 C68.0961133,41.2512833 67.7343367,40.9074367 67.36581,40.57469 C59.5820239,32.4998826 48.0030312,29.3329726 37.1931453,32.3223217 C26.3832594,35.3116708 18.0765416,43.9777443 15.54741,54.90447 C8.5505172,55.4248475 2.61988601,60.2519457 0.689805025,66.9974693 C-1.24027596,73.7429929 1.23947266,80.9765336 6.90214976,85.1191644 C12.5648269,89.2617951 20.2096449,89.4350588 26.05419,85.55323 C35.3334184,93.0989726 48.1590131,94.5452513 58.88564,89.25547 C59.02786,89.19725 59.17079,89.1413 59.31227,89.08072 C64.8489439,107.410486 81.1672475,120.388957 100.272865,121.657996 C119.378482,122.927036 137.269975,112.22086 145.182325,94.7844091 C153.094674,77.3479587 149.370735,56.8330857 135.83486,43.29 Z" id="Shape"></path>
                <path d="M187.35846,31.21448 C192.476632,21.3930896 189.083255,9.28503861 179.606398,3.55402045 C170.12954,-2.1769977 157.830579,0.441296167 151.50981,9.53543 C137.074191,-2.09888606 116.538622,-2.29838672 101.879697,9.05327923 C87.2207718,20.4049452 82.2747951,40.3369981 89.9263208,57.2248208 C97.5778464,74.1126435 115.824437,83.5366203 134.024458,80.0005726 C152.224479,76.464525 165.614907,60.8938517 166.38628,42.36956 C175.01108,43.3454071 183.346821,38.9116358 187.35846,31.21448 Z" id="Shape"></path>
            </g>
            <rect id="Rectangle" x="0" y="0" width="556" height="526"></rect>
        </g>
    </g>
</svg>