<?xml version="1.0" encoding="utf-8"?>
<!-- Generator: Adobe Illustrator 22.0.1, SVG Export Plug-In . SVG Version: 6.00 Build 0)  -->
<svg version="1.1" id="Ebene_1" xmlns="http://www.w3.org/2000/svg" xmlns:xlink="http://www.w3.org/1999/xlink" x="0px" y="0px"
	 viewBox="0 0 890 770" style="enable-background:new 0 0 890 770;" xml:space="preserve">
<style type="text/css">
	.st0{opacity:0.1;enable-background:new    ;}
	.st1{fill:#81D4DC;}
	.st2{opacity:5.000000e-02;fill:#1D1D1B;enable-background:new    ;}
	.st3{opacity:0.1;fill:#1D1D1B;enable-background:new    ;}
	.st4{fill:#7DADBA;}
	.st5{fill:#91EAF3;}
	.st6{fill:#6AA0AA;}
	.st7{fill:#367089;}
	.st8{fill:#FFD800;}
	.st9{opacity:0.3;enable-background:new    ;}
	.st10{fill:#7A5022;}
	.st11{fill:none;stroke:#666666;stroke-width:5.6628;stroke-miterlimit:10;}
	.st12{fill:none;stroke:#1D1D1B;stroke-width:5.6628;stroke-linecap:round;stroke-miterlimit:10;}
	.st13{fill:none;stroke:#1D1D1B;stroke-width:5.6628;stroke-miterlimit:10;}
	.st14{fill:#DE9462;}
	.st15{opacity:0.2;enable-background:new    ;}
	.st16{fill:none;stroke:#2C5871;stroke-width:4.0449;stroke-linecap:round;stroke-miterlimit:10;}
	.st17{fill:none;stroke:#EF9F6A;stroke-width:4.0449;stroke-linecap:round;stroke-miterlimit:10;}
	.st18{fill:none;stroke:#EF9F6A;stroke-width:4.0449;stroke-miterlimit:10;}
	.st19{fill:#15B0BF;}
	.st20{fill:#EF9F6A;}
	.st21{opacity:0.2;fill:#232323;enable-background:new    ;}
	.st22{fill:#FFD301;}
	.st23{fill:none;stroke:#666666;stroke-width:6.3308;stroke-miterlimit:10;}
	.st24{fill:none;stroke:#1D1D1B;stroke-width:6.3308;stroke-linecap:round;stroke-miterlimit:10;}
	.st25{fill:none;stroke:#1D1D1B;stroke-width:6.3308;stroke-miterlimit:10;}
	.st26{opacity:0.2;}
	.st27{fill:#736357;}
	.st28{fill:none;stroke:#B3B3B3;stroke-width:4.522;stroke-linecap:round;stroke-miterlimit:10;}
	.st29{fill:none;stroke:#EF9F6A;stroke-width:4.522;stroke-miterlimit:10;}
	.st30{fill:none;stroke:#EF9F6A;stroke-width:4.522;stroke-linecap:round;stroke-miterlimit:10;}
	.st31{fill:none;stroke:#EF9F6A;stroke-width:4.5702;stroke-miterlimit:10;}
	.st32{fill:none;stroke:#1D1D1B;stroke-width:4.5702;stroke-linecap:round;stroke-miterlimit:10;}
	.st33{fill:none;stroke:#1D1D1B;stroke-width:4.5702;stroke-miterlimit:10;}
	.st34{fill:none;stroke:#2C5871;stroke-width:3.2644;stroke-linecap:round;stroke-miterlimit:10;}
	.st35{fill:none;stroke:#EF9F6A;stroke-width:3.2644;stroke-linecap:round;stroke-miterlimit:10;}
	.st36{fill:none;stroke:#EF9F6A;stroke-width:3.2644;stroke-miterlimit:10;}
	.st37{fill:none;stroke:#DE9462;stroke-width:4.5139;stroke-miterlimit:10;}
	.st38{fill:none;stroke:#1D1D1B;stroke-width:4.5139;stroke-linecap:round;stroke-miterlimit:10;}
	.st39{fill:none;stroke:#1D1D1B;stroke-width:4.5139;stroke-miterlimit:10;}
	.st40{fill:none;stroke:#2C5871;stroke-width:4.5139;stroke-miterlimit:10;}
	.st41{fill:none;stroke:#EFA47B;stroke-width:4.5139;stroke-miterlimit:10;}
	.st42{fill:none;stroke:#EF9F6A;stroke-width:3.2242;stroke-linecap:round;stroke-miterlimit:10;}
	.st43{fill:none;stroke:#FFFFFF;stroke-width:3.2242;stroke-linecap:round;stroke-miterlimit:10;}
	.st44{fill:none;stroke:#FFFFFF;stroke-width:3.2242;stroke-miterlimit:10;}
	.st45{fill:none;stroke:#EF9F6A;stroke-width:3.2242;stroke-miterlimit:10;}
	.st46{fill:#2C5871;}
	.st47{fill:none;stroke:#234959;stroke-width:5.4067;stroke-miterlimit:10;}
	.st48{fill:none;stroke:#1D1D1B;stroke-width:5.4067;stroke-linecap:round;stroke-miterlimit:10;}
	.st49{fill:none;stroke:#1D1D1B;stroke-width:5.4067;stroke-miterlimit:10;}
	.st50{fill:none;stroke:#2C5871;stroke-width:5.4067;stroke-miterlimit:10;}
	.st51{fill:#C2D64C;}
	.st52{fill:none;stroke:#EF9F6A;stroke-width:3.862;stroke-linecap:round;stroke-miterlimit:10;}
	.st53{fill:none;stroke:#FFFFFF;stroke-width:3.862;stroke-linecap:round;stroke-miterlimit:10;}
	.st54{fill:none;stroke:#FFFFFF;stroke-width:3.862;stroke-miterlimit:10;}
	.st55{fill:none;stroke:#EF9F6A;stroke-width:3.862;stroke-miterlimit:10;}
	.st56{fill:#402313;}
	.st57{fill:none;stroke:#EF9F6A;stroke-width:7.2024;stroke-miterlimit:10;}
	.st58{fill:none;stroke:#1D1D1B;stroke-width:7.2024;stroke-linecap:round;stroke-miterlimit:10;}
	.st59{fill:none;stroke:#1D1D1B;stroke-width:7.2024;stroke-miterlimit:10;}
	.st60{fill:none;stroke:#C2D64C;stroke-width:5.1446;stroke-linecap:round;stroke-miterlimit:10;}
	.st61{fill:none;stroke:#EF9F6A;stroke-width:5.1446;stroke-linecap:round;stroke-miterlimit:10;}
	.st62{fill:none;stroke:#EF9F6A;stroke-width:5.1446;stroke-miterlimit:10;}
	.st63{fill:#423228;}
	.st64{fill:none;stroke:#666666;stroke-width:7.9196;stroke-miterlimit:10;}
	.st65{fill:none;stroke:#1D1D1B;stroke-width:7.9196;stroke-linecap:round;stroke-miterlimit:10;}
	.st66{fill:none;stroke:#1D1D1B;stroke-width:7.9196;stroke-miterlimit:10;}
	.st67{fill:none;stroke:#B3B3B3;stroke-width:5.6569;stroke-linecap:round;stroke-miterlimit:10;}
	.st68{fill:none;stroke:#EF9F6A;stroke-width:5.6569;stroke-miterlimit:10;}
	.st69{fill:none;stroke:#EF9F6A;stroke-width:5.6569;stroke-linecap:round;stroke-miterlimit:10;}
</style>
<title>Infographic</title>
<g id="containers">
	<polygon class="st0" points="606.9,495 562.9,495 562.9,481.8 	"/>
</g>
<g id="community">
	<g id="container">
		<rect x="397.7" y="276.5" class="st1" width="219.6" height="109.1"/>
		<rect x="404.2" y="282.9" class="st2" width="206.7" height="96.2"/>
		<path class="st3" d="M608.3,285.5v91H406.8v-91H608.3 M610.9,282.9H404.2v96.2h206.7V282.9L610.9,282.9z"/>
		<path class="st4" d="M508.1,290.5c-1.9,0-3.4,1.5-3.4,3.4l0,0v75.3c0,1.9,1.5,3.4,3.4,3.4s3.4-1.5,3.4-3.4v-75.3
			C511.6,292,510,290.5,508.1,290.5L508.1,290.5L508.1,290.5z"/>
		<path class="st4" d="M491,290.5c-1.9,0-3.4,1.5-3.4,3.4l0,0v75.3c0,1.9,1.5,3.4,3.4,3.4s3.4-1.5,3.4-3.4v-75.3
			C494.4,292,492.9,290.5,491,290.5L491,290.5z"/>
		<path class="st4" d="M474,290.5c-1.9,0-3.4,1.5-3.4,3.4l0,0v75.3c0,1.9,1.5,3.4,3.4,3.4s3.4-1.5,3.4-3.4v-75.3
			C477.3,292.1,475.8,290.5,474,290.5L474,290.5z"/>
		<path class="st4" d="M456.8,290.5c-1.9,0-3.4,1.5-3.4,3.4l0,0v75.3c0,1.9,1.5,3.4,3.4,3.4s3.4-1.5,3.4-3.4v-75.3
			C460.2,292,458.7,290.5,456.8,290.5L456.8,290.5z"/>
		<path class="st4" d="M576.6,290.5c-1.9,0-3.4,1.5-3.4,3.4l0,0v75.3c0,1.9,1.5,3.4,3.4,3.4s3.4-1.5,3.4-3.4v-75.3
			C580,292.1,578.5,290.5,576.6,290.5z"/>
		<path class="st4" d="M593.7,290.5c-1.9,0-3.4,1.5-3.4,3.4l0,0v75.3c0,1.9,1.5,3.4,3.4,3.4s3.4-1.5,3.4-3.4v-75.3
			C597.1,292,595.6,290.5,593.7,290.5L593.7,290.5L593.7,290.5z"/>
		<path class="st4" d="M439.7,290.5c-1.9,0-3.4,1.5-3.4,3.4l0,0v75.3c0,1.9,1.5,3.4,3.4,3.4s3.4-1.5,3.4-3.4v-75.3
			C443.1,292,441.6,290.5,439.7,290.5L439.7,290.5z"/>
		<path class="st4" d="M422.6,290.5c-1.9,0-3.4,1.5-3.4,3.4l0,0v75.3c0,1.9,1.5,3.4,3.4,3.4s3.4-1.5,3.4-3.4v-75.3
			C426,292,424.5,290.5,422.6,290.5L422.6,290.5L422.6,290.5z"/>
		<path class="st4" d="M559.5,290.5c-1.9,0-3.4,1.5-3.4,3.4l0,0v75.3c0,1.9,1.5,3.4,3.4,3.4s3.4-1.5,3.4-3.4v-75.3
			C562.9,292,561.4,290.5,559.5,290.5L559.5,290.5z"/>
		<path class="st4" d="M542.4,290.5c-1.9,0-3.4,1.5-3.4,3.4l0,0v75.3c0,1.9,1.5,3.4,3.4,3.4s3.4-1.5,3.4-3.4v-75.3
			C545.8,292,544.3,290.5,542.4,290.5L542.4,290.5z"/>
		<path class="st4" d="M525.3,290.5c-1.9,0-3.4,1.5-3.4,3.4l0,0v75.3c0,1.9,1.5,3.4,3.4,3.4l0,0c1.9,0,3.4-1.5,3.4-3.4v-0.1v-75.3
			C528.7,292,527.1,290.5,525.3,290.5L525.3,290.5z"/>
		<path class="st5" d="M507.5,289.9c-1.9,0-3.4,1.5-3.4,3.4l0,0v75.3c0,1.9,1.5,3.4,3.4,3.4s3.4-1.5,3.4-3.4v-75.3
			C511,291.4,509.4,289.9,507.5,289.9L507.5,289.9z"/>
		<path class="st5" d="M490.4,289.9c-1.9,0-3.4,1.5-3.4,3.4l0,0v75.3c0,1.9,1.5,3.4,3.4,3.4s3.4-1.5,3.4-3.4v-75.3
			C493.8,291.4,492.3,289.9,490.4,289.9L490.4,289.9z"/>
		<path class="st5" d="M473.3,289.9c-1.9,0-3.4,1.5-3.4,3.4l0,0v75.3c0,1.9,1.5,3.4,3.4,3.4s3.4-1.5,3.4-3.4v-75.3
			C476.7,291.5,475.2,289.9,473.3,289.9z"/>
		<path class="st5" d="M456.2,289.9c-1.9,0-3.4,1.5-3.4,3.4l0,0v75.3c0,1.9,1.5,3.4,3.4,3.4s3.4-1.5,3.4-3.4v-75.3
			C459.6,291.4,458.1,289.9,456.2,289.9z"/>
		<path class="st5" d="M576,289.9c-1.9,0-3.4,1.5-3.4,3.4l0,0v75.3c0,1.9,1.5,3.4,3.4,3.4s3.4-1.5,3.4-3.4v-75.3
			C579.4,291.5,577.9,289.9,576,289.9z"/>
		<path class="st5" d="M593.1,289.9c-1.9,0-3.4,1.5-3.4,3.4l0,0v75.3c0,1.9,1.5,3.4,3.4,3.4s3.4-1.5,3.4-3.4v-75.3
			C596.5,291.4,595,289.9,593.1,289.9L593.1,289.9z"/>
		<path class="st5" d="M439.1,289.9c-1.9,0-3.4,1.5-3.4,3.4l0,0v75.3c0,1.9,1.5,3.4,3.4,3.4s3.4-1.5,3.4-3.4v-75.3
			C442.5,291.4,441,289.9,439.1,289.9z"/>
		<path class="st5" d="M422,289.9c-1.9,0-3.4,1.5-3.4,3.4l0,0v75.3c0,1.9,1.5,3.4,3.4,3.4s3.4-1.5,3.4-3.4v-75.3
			C425.4,291.4,423.9,289.9,422,289.9L422,289.9z"/>
		<path class="st5" d="M558.9,289.9c-1.9,0-3.4,1.5-3.4,3.4l0,0v75.3c0,1.9,1.5,3.4,3.4,3.4s3.4-1.5,3.4-3.4v-75.3
			C562.3,291.4,560.8,289.9,558.9,289.9z"/>
		<path class="st5" d="M541.8,289.9c-1.9,0-3.4,1.5-3.4,3.4l0,0v75.3c0,1.9,1.5,3.4,3.4,3.4s3.4-1.5,3.4-3.4v-75.3
			C545.2,291.4,543.7,289.9,541.8,289.9z"/>
		<path class="st5" d="M524.6,289.9c-1.9,0-3.4,1.5-3.4,3.4l0,0v75.3c0,1.9,1.5,3.4,3.4,3.4l0,0c1.9,0,3.4-1.5,3.4-3.4v-0.1v-75.3
			C528.1,291.4,526.5,289.9,524.6,289.9z"/>
		<rect x="397.7" y="382.4" class="st6" width="219.6" height="3.2"/>
	</g>
	<g id="container_unten">
		<rect x="341.9" y="385.9" class="st1" width="219.6" height="109.1"/>
		<rect x="348.4" y="392.4" class="st2" width="206.7" height="96.2"/>
		<path class="st3" d="M552.5,394.9v91H351v-91H552.5 M555.1,392.4H348.4v96.2h206.7V392.4L555.1,392.4z"/>
		<path class="st4" d="M452.3,399.9c-1.9,0-3.4,1.5-3.4,3.4l0,0v75.3c0,1.9,1.5,3.4,3.4,3.4s3.4-1.5,3.4-3.4l0,0v-75.3
			C455.8,401.5,454.2,399.9,452.3,399.9L452.3,399.9z"/>
		<path class="st4" d="M435.2,399.9c-1.9,0-3.4,1.5-3.4,3.4l0,0v75.3c0,1.9,1.5,3.4,3.4,3.4s3.4-1.5,3.4-3.4l0,0v-75.3
			C438.7,401.5,437.1,399.9,435.2,399.9L435.2,399.9z"/>
		<path class="st4" d="M418.2,399.9c-1.9,0-3.4,1.5-3.4,3.4l0,0v75.3c0,1.9,1.5,3.4,3.4,3.4s3.4-1.5,3.4-3.4l0,0v-75.3
			C421.6,401.5,420,400,418.2,399.9z"/>
		<path class="st4" d="M401,399.9c-1.9,0-3.4,1.5-3.4,3.4l0,0v75.3c0,1.9,1.5,3.4,3.4,3.4s3.4-1.5,3.4-3.4l0,0v-75.3
			C404.5,401.5,402.9,400,401,399.9z"/>
		<path class="st4" d="M520.8,399.9c-1.9,0-3.4,1.5-3.4,3.4l0,0v75.3c0,1.9,1.5,3.4,3.4,3.4s3.4-1.5,3.4-3.4l0,0v-75.3
			C524.2,401.5,522.7,400,520.8,399.9z"/>
		<path class="st4" d="M537.9,399.9c-1.9,0-3.4,1.5-3.4,3.4l0,0v75.3c0,1.9,1.5,3.4,3.4,3.4s3.4-1.5,3.4-3.4l0,0v-75.3
			C541.3,401.5,539.8,399.9,537.9,399.9L537.9,399.9z"/>
		<path class="st4" d="M383.9,399.9c-1.9,0-3.4,1.5-3.4,3.4l0,0v75.3c0,1.9,1.5,3.4,3.4,3.4s3.4-1.5,3.4-3.4l0,0v-75.3
			C387.3,401.5,385.8,400,383.9,399.9z"/>
		<path class="st4" d="M366.8,399.9c-1.9,0-3.4,1.5-3.4,3.4l0,0v75.3c0,1.9,1.5,3.4,3.4,3.4s3.4-1.5,3.4-3.4l0,0v-75.3
			C370.2,401.5,368.7,399.9,366.8,399.9L366.8,399.9z"/>
		<path class="st4" d="M503.7,399.9c-1.9,0-3.4,1.5-3.4,3.4l0,0v75.3c0,1.9,1.5,3.4,3.4,3.4s3.4-1.5,3.4-3.4l0,0v-75.3
			C507.1,401.5,505.6,400,503.7,399.9z"/>
		<path class="st4" d="M486.6,399.9c-1.9,0-3.4,1.5-3.4,3.4l0,0v75.3c0,1.9,1.5,3.4,3.4,3.4s3.4-1.5,3.4-3.4l0,0v-75.3
			C490,401.5,488.5,400,486.6,399.9z"/>
		<path class="st4" d="M469.5,399.9c-1.9,0-3.4,1.5-3.4,3.4l0,0v75.3c0,1.9,1.5,3.4,3.4,3.4l0,0c1.9,0,3.4-1.5,3.4-3.4v-0.1v-75.3
			C472.9,401.5,471.3,400,469.5,399.9z"/>
		<path class="st5" d="M451.7,399.3c-1.9,0-3.4,1.5-3.4,3.4l0,0V478c0,1.9,1.5,3.4,3.4,3.4s3.4-1.5,3.4-3.4v-75.3
			C455.2,400.9,453.6,399.3,451.7,399.3L451.7,399.3z"/>
		<path class="st5" d="M434.6,399.3c-1.9,0-3.4,1.5-3.4,3.4l0,0V478c0,1.9,1.5,3.4,3.4,3.4s3.4-1.5,3.4-3.4v-75.3
			C438.1,400.9,436.5,399.3,434.6,399.3L434.6,399.3z"/>
		<path class="st5" d="M417.6,399.3c-1.9,0-3.4,1.5-3.4,3.4l0,0V478c0,1.9,1.5,3.4,3.4,3.4s3.4-1.5,3.4-3.4v-75.3
			C420.9,400.9,419.4,399.4,417.6,399.3z"/>
		<path class="st5" d="M400.4,399.3c-1.9,0-3.4,1.5-3.4,3.4l0,0V478c0,1.9,1.5,3.4,3.4,3.4s3.4-1.5,3.4-3.4v-75.3
			C403.8,400.9,402.3,399.4,400.4,399.3z"/>
		<path class="st5" d="M520.2,399.3c-1.9,0-3.4,1.5-3.4,3.4l0,0V478c0,1.9,1.5,3.4,3.4,3.4s3.4-1.5,3.4-3.4v-75.3
			C523.6,400.9,522.1,399.4,520.2,399.3z"/>
		<path class="st5" d="M537.3,399.3c-1.9,0-3.4,1.5-3.4,3.4l0,0V478c0,1.9,1.5,3.4,3.4,3.4s3.4-1.5,3.4-3.4v-75.3
			C540.7,400.9,539.2,399.3,537.3,399.3L537.3,399.3z"/>
		<path class="st5" d="M383.3,399.3c-1.9,0-3.4,1.5-3.4,3.4l0,0V478c0,1.9,1.5,3.4,3.4,3.4s3.4-1.5,3.4-3.4v-75.3
			C386.7,400.9,385.2,399.4,383.3,399.3z"/>
		<path class="st5" d="M366.2,399.3c-1.9,0-3.4,1.5-3.4,3.4l0,0V478c0,1.9,1.5,3.4,3.4,3.4s3.4-1.5,3.4-3.4v-75.3
			C369.6,400.9,368.1,399.3,366.2,399.3L366.2,399.3z"/>
		<path class="st5" d="M503.1,399.3c-1.9,0-3.4,1.5-3.4,3.4l0,0V478c0,1.9,1.5,3.4,3.4,3.4s3.4-1.5,3.4-3.4v-75.3
			C506.5,400.9,505,399.4,503.1,399.3z"/>
		<path class="st5" d="M486,399.3c-1.9,0-3.4,1.5-3.4,3.4l0,0V478c0,1.9,1.5,3.4,3.4,3.4s3.4-1.5,3.4-3.4v-75.3
			C489.4,400.9,487.9,399.4,486,399.3z"/>
		<path class="st5" d="M468.9,399.3c-1.9,0-3.4,1.5-3.4,3.4l0,0V478c0,1.9,1.5,3.4,3.4,3.4l0,0c1.9,0,3.4-1.5,3.4-3.4v-0.1v-75.3
			C472.3,400.9,470.7,399.4,468.9,399.3z"/>
		<rect x="341.9" y="491.8" class="st7" width="219.6" height="3.2"/>
		<polygon class="st3" points="432.5,495 397.7,385.9 562.5,385.9 562.5,495 		"/>
	</g>
	<g id="paar2">
		<path class="st8" d="M295.7,392H231c-1.6,0-2.9,1.3-2.9,3c0,0,0,0,0,0.1V415c0,1.7,1.3,3,2.9,3.1l0,0h49.7v5.4l4-5.4h11
			c1.7,0,3.1-1.4,3.2-3.1v-20C298.8,393.3,297.4,392,295.7,392z"/>
		<g id="frau">
			<ellipse class="st9" cx="299.9" cy="518.3" rx="18.6" ry="3.1"/>
			<path class="st10" d="M306.8,437.3h-4.5c0,2.3,1.8,4.4,4.5,5.4V437.3z"/>
			<path class="st10" d="M306.9,440.6c0,3-3.2,5.4-7.2,5.4h-0.3c-4,0-7.2-2.4-7.2-5.4V438c0-3,3.3-5.5,7.3-5.5h0.1
				c4,0,7.3,2.4,7.3,5.5L306.9,440.6z"/>
			<ellipse class="st10" cx="300" cy="446.7" rx="8" ry="7.1"/>
			<line class="st11" x1="296.3" y1="486.1" x2="296.3" y2="514"/>
			<line class="st12" x1="296.3" y1="510.2" x2="296.3" y2="517.1"/>
			<line class="st13" x1="296.3" y1="507" x2="296.3" y2="513.8"/>
			<line class="st11" x1="303.1" y1="486.1" x2="303.1" y2="514"/>
			<line class="st12" x1="303.1" y1="510.2" x2="303.1" y2="517.1"/>
			<line class="st13" x1="303.1" y1="507" x2="303.1" y2="513.8"/>
			<rect x="297.7" y="452.3" class="st14" width="4.1" height="4.1"/>
			<path class="st15" d="M299.7,453.3c-0.7,0-1.4-0.1-2-0.4v1c1.3,0.5,2.8,0.5,4.1,0v-1C301.1,453.2,300.4,453.3,299.7,453.3z"/>
			<path class="st16" d="M288.3,491.1v-26.7c0-4,5.5-7.4,11.9-7.4"/>
			<line class="st17" x1="288.3" y1="493.1" x2="288.3" y2="489.2"/>
			<line class="st18" x1="288.3" y1="490.6" x2="288.3" y2="468.7"/>
			<path class="st16" d="M311.1,491.4v-26.7c0-4-5.5-7.4-11.9-7.4"/>
			<line class="st17" x1="311.1" y1="493.4" x2="311.1" y2="489.5"/>
			<line class="st18" x1="311.1" y1="490.9" x2="311.1" y2="469"/>
			<path class="st19" d="M309.1,481.9h-18.9v-17.5c0-5.2,4.2-9.4,9.4-9.4l0,0l0,0c5.2,0,9.4,4.2,9.4,9.4l0,0v17.5H309.1z"/>
			<path id="_Pfad_" class="st20" d="M305.6,447.6c0,3.3-2.6,5.9-5.9,5.9s-5.9-2.6-5.9-5.9l0,0v-7.3h11.8V447.6z"/>
			<path class="st21" d="M292.9,438.6v2.2c1.2,1,3.8,1.7,6.8,1.7c2.9,0,5.5-0.7,6.7-1.6v-2.2h-13.5V438.6z"/>
			<ellipse class="st20" cx="305.6" cy="446.5" rx="1.2" ry="1.8"/>
			<ellipse class="st20" cx="293.4" cy="446.5" rx="1.2" ry="1.8"/>
			<circle id="_Pfad_2" cx="303" cy="443.6" r="0.6"/>
			<circle id="_Pfad_3" cx="296.9" cy="443.6" r="0.6"/>
			<path class="st10" d="M306.6,438.2c0,0-9.3-0.7-10.6,5.4c-3.3-5.5,1.4-7.4,4.1-7C302.3,437,304.4,437.5,306.6,438.2z"/>
			<path class="st10" d="M305.3,436.9c0,0-10-0.7-11.2,5.4c-2.9-7.8,2-7.4,4.7-7C301,435.7,303.2,436.2,305.3,436.9z"/>
			<rect x="292.2" y="481.9" class="st22" width="15.6" height="8.6"/>
		</g>
		<g id="mann">
			<ellipse class="st9" cx="253.6" cy="518.3" rx="18.6" ry="3.1"/>
			<line class="st23" x1="258.6" y1="482.7" x2="249.6" y2="512.6"/>
			<line class="st24" x1="250.9" y1="508.5" x2="248.6" y2="515.9"/>
			<line class="st25" x1="251.9" y1="505" x2="249.7" y2="512.4"/>
			<line class="st23" x1="258.6" y1="482.7" x2="258.6" y2="513.9"/>
			<line class="st24" x1="258.6" y1="509.7" x2="258.6" y2="517.3"/>
			<line class="st25" x1="258.6" y1="506" x2="258.6" y2="513.7"/>
			<g class="st26">
				<polygon points="255.5,504.2 252.7,513.5 251.6,517 255.3,485.5 255.5,482.2 255.5,482.7 				"/>
			</g>
			<rect x="256.4" y="444.9" class="st14" width="4.5" height="4.5"/>
			<path class="st4" d="M269.2,485.6h-21.1V459c0-5.8,4.7-10.5,10.5-10.5l0,0l0,0c5.8,0,10.5,4.7,10.5,10.5l0,0v26.6H269.2z"/>
			<path id="_Pfad_4" class="st20" d="M265.2,439.7c0,3.6-3,6.6-6.6,6.6s-6.6-3-6.6-6.6v-8.1h13.2V439.7z"/>
			<path class="st15" d="M258.6,446.3c0.8,0,1.5-0.1,2.3-0.4v1.1c-1.5,0.5-3.1,0.5-4.5,0v-1.1C257.1,446.1,257.9,446.3,258.6,446.3z
				"/>
			<circle id="_Pfad_5" cx="262.8" cy="435.2" r="0.6"/>
			<path id="_Pfad_6" class="st27" d="M267.4,427.4h-15.3c-1.2,0-2.2,0.9-2.2,2.1v7.7c0,1.2,1,2.1,2.2,2.1l0,0c2.6,0,5-1.5,6.1-3.9
				c0.4-0.9,1.1-1.7,2-2.2c0.7-0.3,1.4-0.5,2.2-0.6C265.2,432.4,267.3,430.1,267.4,427.4L267.4,427.4z"/>
			
				<ellipse id="_Pfad_7" transform="matrix(0.9749 -0.2228 0.2228 0.9749 -90.8965 68.3591)" class="st20" cx="257.5" cy="437" rx="1.7" ry="1.9"/>
			<g class="st26">
				<path d="M257.5,452c1.2,0,2.3,1,2.3,2.3l0,0v12.1c0,1.7,1.4,3.2,3.2,3.2h6.2v4.5H263c-4.2,0-7.7-3.4-7.7-7.7v-12.1
					C255.3,453.1,256.3,452,257.5,452L257.5,452z"/>
			</g>
			<path class="st28" d="M258.6,452.5v12.1c0,3,2.4,5.4,5.4,5.4h16.8"/>
			<line class="st29" x1="274.9" y1="470" x2="279.9" y2="470"/>
			<line class="st30" x1="278.5" y1="470" x2="281.7" y2="470"/>
		</g>
	</g>
	<g id="paar3">
		<path class="st8" d="M616.1,161.2h-64.7c-1.6,0-2.9,1.3-2.9,3c0,0,0,0,0,0.1v19.9c0,1.7,1.3,3,2.9,3.1l0,0h49.7v5.4l4-5.4h11
			c1.7,0,3.1-1.4,3.2-3.1v-19.9C619.2,162.5,617.8,161.2,616.1,161.2z"/>
		<g id="frau-2">
			<path class="st10" d="M584.8,210.3h-3.6c0,1.9,1.5,3.5,3.6,4.3V210.3z"/>
			<path class="st10" d="M584.9,213c0,2.4-2.6,4.3-5.8,4.3h-0.3c-3.2,0-5.8-1.9-5.8-4.3v-2.1c0-2.4,2.6-4.4,5.9-4.4h0.1
				c3.2,0,5.9,2,5.9,4.4L584.9,213z"/>
			<ellipse class="st10" cx="579.3" cy="217.9" rx="6.5" ry="5.7"/>
			<path class="st10" d="M584.6,211c0,0-7.5-0.5-8.6,4.4c-2.6-4.4,1.1-6,3.3-5.6C581.2,210.1,582.9,210.5,584.6,211z"/>
			<path class="st10" d="M583.7,209.9c0,0-8.1-0.5-9.1,4.4c-2.3-6.3,1.6-6,3.8-5.6C580.2,209,581.9,209.4,583.7,209.9z"/>
			<line class="st31" x1="576.4" y1="249.6" x2="576.4" y2="272.2"/>
			<line class="st32" x1="576.4" y1="269.1" x2="576.4" y2="274.7"/>
			<line class="st33" x1="576.4" y1="266.5" x2="576.4" y2="272.1"/>
			<line class="st31" x1="581.8" y1="249.6" x2="581.8" y2="272.2"/>
			<line class="st32" x1="581.8" y1="269.1" x2="581.8" y2="274.7"/>
			<line class="st33" x1="581.8" y1="266.5" x2="581.8" y2="272.1"/>
			<rect x="577.5" y="222.4" class="st14" width="3.3" height="3.3"/>
			<path class="st15" d="M579.1,223.2c-0.6,0-1.1-0.1-1.6-0.3v0.8c1.1,0.4,2.2,0.4,3.3,0v-0.8C580.2,223.1,579.7,223.2,579.1,223.2z
				"/>
			<path class="st34" d="M569.9,201.5v21.6c0,3.2,4.4,6,9.6,6"/>
			<line class="st35" x1="569.9" y1="200" x2="569.9" y2="203.1"/>
			<line class="st36" x1="569.9" y1="201.9" x2="569.9" y2="219.6"/>
			<path class="st34" d="M588.3,201.1v21.6c0,3.2-4.4,6-9.6,6"/>
			<line class="st35" x1="588.3" y1="199.6" x2="588.3" y2="202.7"/>
			<line class="st36" x1="588.3" y1="201.5" x2="588.3" y2="219.2"/>
			<path class="st19" d="M586.7,246.3h-15.2v-14.1c0-4.2,3.4-7.6,7.6-7.6l0,0c4.2,0,7.6,3.4,7.6,7.6L586.7,246.3z"/>
			<path id="_Pfad_8" class="st20" d="M583.9,218.6c0,2.6-2.1,4.8-4.8,4.8c-2.6,0-4.7-2.1-4.8-4.8v-5.9h9.5L583.9,218.6L583.9,218.6
				z"/>
			<path class="st21" d="M573.6,211.4v1.7c1.7,1,3.6,1.5,5.5,1.3c1.9,0.1,3.8-0.3,5.4-1.3v-1.8L573.6,211.4z"/>
			<ellipse class="st20" cx="583.9" cy="217.7" rx="1" ry="1.4"/>
			<ellipse class="st20" cx="574" cy="217.7" rx="1" ry="1.4"/>
			<circle id="_Pfad_9" cx="581.7" cy="215.3" r="0.5"/>
			<circle id="_Pfad_10" cx="576.9" cy="215.3" r="0.5"/>
			<polygon class="st22" points="590.4,260.9 568.2,260.9 573,246.3 585.6,246.3 			"/>
		</g>
		<g id="mann-2">
			<path class="st37" d="M624.4,289.3V276c0-1.7-1.4-3.1-3.1-3.1h-16.1"/>
			<line class="st38" x1="624.4" y1="286.3" x2="624.4" y2="291.8"/>
			<line class="st39" x1="624.4" y1="283.7" x2="624.4" y2="289.2"/>
			<path class="st40" d="M625.7,290.6v-13.3c0-1.7-1.4-3.1-3.1-3.1h-16.1"/>
			<line class="st38" x1="625.7" y1="287.6" x2="625.7" y2="293"/>
			<line class="st39" x1="625.7" y1="285" x2="625.7" y2="290.5"/>
			<path class="st41" d="M625.7,290.6v-13.3c0-1.7-1.4-3.1-3.1-3.1h-16.1"/>
			<line class="st38" x1="625.7" y1="287.6" x2="625.7" y2="293"/>
			<line class="st39" x1="625.7" y1="285" x2="625.7" y2="290.5"/>
			<rect x="605.5" y="238.6" class="st14" width="3.2" height="3.2"/>
			<path class="st22" d="M614.6,267.7h-15v-19c0-4.2,3.4-7.5,7.5-7.5l0,0c4.2,0,7.5,3.4,7.5,7.5V267.7z"/>
			<path id="_Pfad_11" class="st20" d="M611.8,234.9c0,2.6-2.1,4.7-4.7,4.7c-2.6,0-4.7-2.1-4.7-4.7v-5.8h9.4V234.9z"/>
			<path class="st15" d="M607.1,239.6c0.6,0,1.1-0.1,1.6-0.3v0.8c-1,0.4-2.2,0.4-3.2,0v-0.8C606,239.5,606.6,239.6,607.1,239.6z"/>
			<circle id="_Pfad_12" cx="610.1" cy="231.7" r="0.5"/>
			<g class="st26">
				<path d="M606.3,243.7c0.9,0,1.6,0.7,1.6,1.6l0,0v8.6c0,1.2,1,2.3,2.3,2.3h4.5v3.2h-4.5c-3,0-5.5-2.5-5.5-5.5v-8.6
					C604.7,244.5,605.4,243.7,606.3,243.7L606.3,243.7z"/>
			</g>
			<path class="st42" d="M607.1,244v8.6c0,2.1,1.7,3.9,3.9,3.9l0,0h12"/>
			<line class="st43" x1="607.1" y1="244" x2="607.1" y2="247.5"/>
			<line class="st44" x1="607.1" y1="246.9" x2="607.1" y2="250.3"/>
			<line class="st45" x1="618.7" y1="256.5" x2="622.3" y2="256.5"/>
			<line class="st42" x1="621.3" y1="256.5" x2="623.6" y2="256.5"/>
			<path class="st46" d="M614.6,276.6h-9.8c-2.9,0-5.2-2.3-5.2-5.2v-3.7l0,0h15l0,0V276.6L614.6,276.6z"/>
			<path class="st46" d="M613.1,267.7h2.8c3.7,0,6.7,3,6.7,6.7l0,0v2.3l0,0h-9.5l0,0V267.7L613.1,267.7z"/>
		</g>
	</g>
	<g id="mann-3">
		<path class="st47" d="M358.4,400.3v-15.9c0-2,1.6-3.7,3.7-3.7h19.3"/>
		<line class="st48" x1="358.4" y1="396.7" x2="358.4" y2="403.3"/>
		<line class="st49" x1="358.4" y1="393.6" x2="358.4" y2="400.2"/>
		<path class="st50" d="M356.8,401.8v-15.9c0-2,1.6-3.7,3.7-3.7h19.3"/>
		<line class="st48" x1="356.8" y1="398.2" x2="356.8" y2="404.8"/>
		<line class="st49" x1="356.8" y1="395.1" x2="356.8" y2="401.7"/>
		<path class="st50" d="M356.8,401.8v-15.9c0-2,1.6-3.7,3.7-3.7h19.3"/>
		<line class="st48" x1="356.8" y1="398.2" x2="356.8" y2="404.8"/>
		<line class="st49" x1="356.8" y1="395.1" x2="356.8" y2="401.7"/>
		<rect x="377.1" y="339.6" class="st14" width="3.9" height="3.9"/>
		<path class="st51" d="M370.1,351.6c0-5,4-9,9-9l0,0l0,0c5,0,9,4,9,9l0,0v22.8h-18V351.6z"/>
		<path id="_Pfad_13" class="st20" d="M373.4,335.1c0,3.1,2.5,5.6,5.6,5.6s5.6-2.5,5.6-5.6v-6.9h-11.3L373.4,335.1L373.4,335.1z"/>
		<path class="st15" d="M379.1,340.8c-0.7,0-1.3-0.1-1.9-0.3v0.9c1.3,0.5,2.6,0.5,3.9,0v-0.9C380.4,340.7,379.7,340.8,379.1,340.8z"
			/>
		<circle id="_Pfad_14" cx="375.5" cy="331.3" r="0.6"/>
		<path id="_Pfad_15" d="M371.6,324.6h13.1c1,0,1.9,0.8,1.9,1.8v6.6c0,1-0.9,1.8-1.9,1.8l0,0c-2.2,0-4.3-1.3-5.2-3.3
			c-0.3-0.8-0.9-1.5-1.7-1.9c-0.6-0.3-1.2-0.5-1.9-0.5C373.5,328.9,371.7,327,371.6,324.6L371.6,324.6z"/>
		
			<ellipse id="_Pfad_16" transform="matrix(0.2228 -0.9749 0.9749 0.2228 -29.1406 629.1422)" class="st20" cx="380" cy="332.8" rx="1.7" ry="1.4"/>
		<g class="st26">
			<path d="M380,345.7c-1.1,0-1.9,0.9-1.9,1.9l0,0V358c0,1.5-1.2,2.7-2.7,2.7h-5.3v3.9h5.3c3.6,0,6.6-2.9,6.6-6.6v-10.3
				C382,346.6,381.1,345.7,380,345.7L380,345.7z"/>
		</g>
		<path class="st52" d="M379.1,346.1v10.3c0,2.6-2.1,4.6-4.6,4.6h-14.3"/>
		<line class="st53" x1="379.1" y1="346.1" x2="379.1" y2="350.2"/>
		<line class="st54" x1="379.1" y1="349.4" x2="379.1" y2="353.6"/>
		<line class="st55" x1="365.2" y1="361" x2="360.9" y2="361"/>
		<line class="st52" x1="362.1" y1="361" x2="359.4" y2="361"/>
		<path class="st46" d="M367.6,372.7h21l0,0v4.8c0,4.2-3.4,7.6-7.6,7.6h-5.7c-4.2,0-7.6-3.4-7.6-7.6L367.6,372.7L367.6,372.7z"/>
	</g>
	<polygon points="378.2,329.1 378.2,334.6 379.3,333 379.3,330.6 	"/>
	<path d="M613.3,226.2c0-1.3-2.8-2.3-6.2-2.3c-1.6,0.1-3.1,0.4-4.5,1.1c-1.1,0.5-1.8,1.6-1.8,2.7l0,0v5.5c0,0.8,0.7,1.5,1.6,1.5l0,0
		c1.9,0,3.6-1.1,4.4-2.8c0.3-0.7,0.8-1.2,1.4-1.6c0.5-0.2,1-0.4,1.6-0.4C611.8,229.7,613.3,228.1,613.3,226.2L613.3,226.2
		L613.3,226.2z"/>
	<circle class="st27" cx="264.3" cy="427.6" r="3.1"/>
	<g id="frau-3">
		<path class="st8" d="M582.2,407.5H496c-2.2,0-3.9,1.8-3.9,3.9v0.1V438c-0.1,2.2,1.7,4,3.9,4.1l0,0h66.2v7.2l5.3-7.2h14.7
			c2.3,0,4.1-1.8,4.2-4.1v-26.5C586.3,409.3,584.5,407.5,582.2,407.5z"/>
		<ellipse class="st9" cx="667" cy="643.6" rx="36.3" ry="7"/>
		<ellipse class="st9" cx="526.9" cy="643.6" rx="36.3" ry="7"/>
		<path class="st56" d="M494.5,479c0-1.9,1.7-3.6,2-5.3c0.3-1.8-0.7-4-0.1-5.7s2.8-2.7,3.8-4.3c0.9-1.6,0.7-4,1.9-5.4
			c1.2-1.4,3.6-1.6,5-2.8c1.4-1.2,2-3.5,3.6-4.4s3.9-0.3,5.7-0.9c1.7-0.6,3.1-2.6,4.9-2.9c1.8-0.3,3.8,1.1,5.6,1.1s3.8-1.4,5.6-1.1
			s3.2,2.3,4.9,2.9s4.1,0,5.7,0.9c1.6,0.9,2.2,3.3,3.6,4.4c1.4,1.2,3.8,1.4,5,2.8s1,3.8,1.9,5.4s3.1,2.6,3.8,4.3
			c0.6,1.7-0.4,3.9-0.1,5.7c0.3,1.8,2,3.5,2,5.3s-1.7,3.6-2,5.3c-0.3,1.8,0.7,4,0.1,5.7c-0.6,1.7-2.8,2.7-3.8,4.3
			c-0.9,1.6-0.7,4-1.9,5.4s-3.6,1.6-5,2.8c-1.4,1.2-2,3.5-3.6,4.4s-3.9,0.3-5.7,0.9c-1.7,0.6-3.1,2.6-4.9,2.9
			c-1.8,0.3-3.8-1.1-5.6-1.1s-3.8,1.4-5.6,1.1s-3.2-2.3-4.9-2.9s-4.1,0-5.7-0.9c-1.6-0.9-2.2-3.3-3.6-4.4c-1.4-1.2-3.8-1.4-5-2.8
			s-1-3.8-1.9-5.4s-3.1-2.6-3.8-4.3c-0.6-1.7,0.4-3.9,0.1-5.7C496.3,482.6,494.5,480.9,494.5,479z"/>
		<path class="st56" d="M544.6,500.1l-35.4-0.3c-2.9,0-5.3-2.4-5.3-5.4c0-0.5,0.1-0.9,0.2-1.3l7.7-28.7l28.6-3.5l9.3,32.4
			c0.8,2.8-0.8,5.8-3.6,6.6C545.6,500,545.1,500.1,544.6,500.1z"/>
		<line class="st57" x1="519" y1="571.1" x2="519" y2="632.1"/>
		<line class="st58" x1="519" y1="623.8" x2="519" y2="638.9"/>
		<line class="st59" x1="519" y1="616.7" x2="519" y2="631.8"/>
		<line class="st57" x1="533.7" y1="571.1" x2="533.7" y2="632.1"/>
		<line class="st58" x1="533.7" y1="623.8" x2="533.7" y2="638.9"/>
		<line class="st59" x1="533.7" y1="616.7" x2="533.7" y2="631.8"/>
		<rect x="521.9" y="497.1" class="st14" width="8.9" height="8.9"/>
		<path class="st15" d="M526.4,499.5c-1.5,0-3-0.3-4.4-0.8v2.1c2.9,1.1,6,1.1,8.9,0v-2.1C529.4,499.2,527.9,499.5,526.4,499.5z"/>
		<path class="st60" d="M501.5,582.1v-58.4c0-8.8,12-16.2,26.1-16.2"/>
		<line class="st61" x1="501.5" y1="586.4" x2="501.5" y2="577.9"/>
		<line class="st62" x1="501.5" y1="581.1" x2="501.5" y2="533.1"/>
		<path class="st60" d="M601,507.5h-58.4c-8.8,0-16.2,12-16.2,26.1"/>
		<line class="st61" x1="605.2" y1="507.5" x2="596.7" y2="507.5"/>
		<line class="st62" x1="599.9" y1="507.5" x2="551.9" y2="507.5"/>
		<path id="_Pfad_17" class="st20" d="M539.3,487c0,7.1-5.8,12.9-12.9,12.9s-12.9-5.8-12.9-12.9v-15.9h25.8L539.3,487L539.3,487z"/>
		<path class="st21" d="M511.5,467.3v4.7c2.7,2.2,8.4,3.6,14.9,3.6c6.4,0,11.9-1.4,14.7-3.5v-4.8L511.5,467.3L511.5,467.3z"/>
		<ellipse class="st20" cx="539.3" cy="484.5" rx="2.7" ry="3.9"/>
		<ellipse class="st20" cx="512.6" cy="484.5" rx="2.7" ry="3.9"/>
		<circle id="_Pfad_18" class="st63" cx="533.5" cy="478.2" r="1.3"/>
		<circle id="_Pfad_19" class="st63" cx="520.3" cy="478.2" r="1.3"/>
		<path class="st56" d="M541.2,470.5v-0.8c0-1.9-1.4-3.4-3.2-3.7l-11.6-1.6l-11.6,1.6c-1.8,0.3-3.2,1.8-3.2,3.7v0.8H541.2z"/>
		<path class="st56" d="M542.9,462.7c0,0-3.5,10.3-19,10.3c-7.1,0.2-13.6-4.2-15.8-11c0,0,5.7,6.1,14.3-2.1
			C524.3,456.6,540.1,455,542.9,462.7z"/>
		<path class="st51" d="M547,595.5h-41.2v-71.8c0-11.4,9.2-20.6,20.6-20.6l0,0l0,0c11.4,0,20.6,9.2,20.6,20.6l0,0L547,595.5
			L547,595.5z"/>
	</g>
	<line class="st64" x1="654.9" y1="565" x2="674.2" y2="629.3"/>
	<line class="st65" x1="671.6" y1="620.5" x2="676.4" y2="636.4"/>
	<line class="st66" x1="669.4" y1="613.1" x2="674.1" y2="628.9"/>
	<line class="st64" x1="654.9" y1="565" x2="654.9" y2="632.1"/>
	<line class="st65" x1="654.9" y1="623" x2="654.9" y2="639.6"/>
	<line class="st66" x1="654.9" y1="615.2" x2="654.9" y2="631.8"/>
	<g class="st26">
		<polygon points="658.6,591.5 664.6,611.6 672.4,636.6 660.9,571.3 658.6,571.3 658.6,571.3 		"/>
	</g>
	<rect x="650" y="483.7" class="st14" width="9.8" height="9.8"/>
	<path class="st46" d="M632.2,514c0-12.5,10.2-22.7,22.7-22.7l0,0l0,0c12.5,0,22.7,10.2,22.7,22.7l0,0v57.3h-45.3V514H632.2z"/>
	<path id="_Pfad_20" class="st20" d="M640.7,472.6c0,7.8,6.3,14.2,14.2,14.2c7.8,0,14.2-6.3,14.2-14.2l0,0v-17.4h-28.4V472.6z"/>
	<path class="st15" d="M654.9,486.8c-1.7,0-3.3-0.3-4.9-0.9v2.3c3.1,1.2,6.6,1.2,9.8,0v-2.3C658.2,486.5,656.5,486.8,654.9,486.8z"
		/>
	<circle id="_Pfad_21" cx="645.8" cy="462.9" r="1.4"/>
	
		<ellipse id="_Pfad_22" transform="matrix(0.2228 -0.9749 0.9749 0.2228 55.8697 1003.5593)" class="st20" cx="657.3" cy="466.7" rx="4.2" ry="3.5"/>
	<path d="M668.9,446.1h-17.3c-8.1,0.4-10.5-6-10.5-6v4.1c-3.8-1.6-5.3-6.4-5.3-6.4v5.6c-0.1,4.6,0.6,6,0.6,6h0.1
		c1.5,4.4,5.4,7.6,10.1,8c1.7,0.1,3.3,0.5,4.8,1.3c1.9,1.1,3.4,2.8,4.3,4.8c2.4,5.1,7.6,8.4,13.2,8.3l0,0c2.6,0.1,4.7-1.9,4.8-4.5
		v-16.6C673.6,448.1,671.5,446.1,668.9,446.1z"/>
	<g class="st26">
		<path d="M657.3,499.2c-2.7,0-4.9,2.2-4.9,4.9l0,0v26c0,3.8-3,6.8-6.8,6.8h-13.4v9.7h13.4c9.1,0,16.5-7.4,16.5-16.5v-26
			C662.2,501.3,660,499.2,657.3,499.2L657.3,499.2z"/>
	</g>
	<path class="st67" d="M654.9,500.1v26c0,6.4-5.2,11.7-11.7,11.7l0,0h-36.1"/>
	<line class="st68" x1="620" y1="537.8" x2="609.1" y2="537.8"/>
	<line class="st69" x1="612.2" y1="537.8" x2="605.2" y2="537.8"/>
</g>
</svg>
