<svg xmlns="http://www.w3.org/2000/svg" viewBox="0 0 463 495"><g fill="none" fill-rule="evenodd"><path fill="#000" fill-rule="nonzero" d="M378.88 334h-43.95v-13.2" opacity=".1"/><g fill-rule="nonzero"><path fill="#81D4DC" d="M169.72 115.45h219.6v109.1h-219.6z"/><path fill="#1D1D1B" d="M176.2 121.92h206.67v96.18H176.2z" opacity=".05"/><path fill="#1D1D1B" d="M380.28 124.5v91.02h-201.5V124.5h201.5zm2.6-2.58h-206.7v96.18h206.7v-96.18z" opacity=".1"/><path fill="#7DADBA" d="M280.13 129.5c-.9 0-1.78.36-2.43 1-.64.65-1 1.52-1 2.44v75.3c0 1.9 1.53 3.43 3.43 3.43 1.9 0 3.44-1.54 3.44-3.44v-75.3c0-.9-.36-1.78-1-2.43-.65-.64-1.53-1-2.44-1zm-17.13 0c-.9 0-1.77.36-2.42 1-.64.65-1 1.52-1 2.44v75.3c0 1.9 1.53 3.43 3.43 3.43 1.9 0 3.5-1.54 3.5-3.44v-75.3c0-.9-.3-1.78-1-2.43-.6-.64-1.5-1-2.4-1zm-17.05 0c-.9 0-1.8.36-2.43 1-.64.65-1 1.52-1 2.44v75.3c0 1.9 1.53 3.43 3.43 3.43 1.9 0 3.44-1.54 3.44-3.44v-75.3c-.1-1.88-1.6-3.4-3.5-3.43zm-17.12 0c-.9 0-1.8.36-2.43 1-.64.65-1 1.52-1 2.44v75.3c0 1.9 1.53 3.43 3.43 3.43 1.9 0 3.44-1.54 3.44-3.44v-75.3c-.02-1.88-1.55-3.4-3.44-3.43zm119.77 0c-.9 0-1.77.36-2.42 1-.64.65-1 1.52-1 2.44v75.3c0 1.9 1.54 3.43 3.43 3.43 1.9 0 3.5-1.54 3.5-3.44v-75.3c0-1.88-1.5-3.4-3.4-3.43zm17.07 0c-.9 0-1.78.36-2.43 1-.64.65-1 1.52-1 2.44v75.3c0 1.9 1.54 3.43 3.43 3.43 1.9 0 3.44-1.54 3.44-3.44v-75.3c0-.9-.3-1.78-1-2.43-.6-.64-1.5-1-2.4-1zm-153.97 0c-.9 0-1.78.36-2.42 1-.65.65-1 1.52-1 2.44v75.3c0 1.9 1.53 3.43 3.43 3.43 1.9 0 3.5-1.54 3.5-3.44v-75.3c0-1.88-1.5-3.4-3.4-3.43zm-17.1 0c-.92 0-1.8.36-2.44 1-.65.65-1 1.52-1 2.44v75.3c0 1.9 1.53 3.43 3.43 3.43 1.9 0 3.4-1.54 3.4-3.44v-75.3c0-.9-.4-1.78-1-2.43-.7-.64-1.5-1-2.5-1zm136.9 0c-.92 0-1.8.36-2.44 1-.64.65-1 1.52-1 2.44v75.3c0 1.22.65 2.35 1.72 2.97 1.06.7 2.37.7 3.43 0 1.1-.6 1.8-1.7 1.8-2.9V133c0-1.9-1.5-3.4-3.4-3.44zm-17.13 0c-.9 0-1.78.36-2.43 1-.64.65-1 1.52-1 2.44v75.3c0 1.9 1.54 3.43 3.43 3.43 1.9 0 3.44-1.54 3.44-3.44v-75.3c0-1.88-1.5-3.4-3.4-3.43zm-17.12 0c-.9 0-1.78.36-2.43 1-.64.65-1 1.52-1 2.44v75.3c0 .9.36 1.78 1 2.42.65.64 1.52 1 2.43 1 .92.02 1.8-.34 2.44-1 .6-.64 1-1.52 1-2.43v-75.3c-.1-1.88-1.6-3.4-3.5-3.43z"/><path fill="#91EAF3" d="M279.53 128.9c-.9 0-1.8.36-2.43 1-.65.65-1 1.52-1 2.43v75.3c0 1.9 1.53 3.43 3.43 3.43 1.9 0 3.43-1.54 3.43-3.43v-75.3c0-.9-.36-1.78-1-2.43-.65-.64-1.52-1-2.43-1zm-17.13 0c-.9 0-1.78.36-2.42 1-.65.65-1 1.52-1 2.43v75.3c0 1.9 1.53 3.43 3.43 3.43 1.9 0 3.5-1.54 3.5-3.43v-75.3c0-.9-.3-1.78-1-2.43-.6-.64-1.5-1-2.4-1zm-17.05 0c-.9 0-1.8.36-2.43 1-.65.65-1 1.52-1 2.43v75.3c0 1.9 1.53 3.43 3.43 3.43 1.9 0 3.43-1.54 3.43-3.43v-75.3c-.04-1.88-1.55-3.4-3.43-3.43zm-17.12 0c-.9 0-1.8.36-2.43 1-.65.65-1 1.52-1 2.43v75.3c0 1.22.65 2.36 1.7 2.97 1.07.62 2.38.62 3.45 0 1.06-.6 1.7-1.75 1.7-2.97v-75.3c0-1.9-1.53-3.4-3.42-3.43zm119.77 0c-.9 0-1.77.36-2.42 1-.64.65-1 1.52-1 2.43v75.3c0 1.9 1.53 3.43 3.43 3.43 1.9 0 3.5-1.54 3.5-3.43v-75.3c0-1.88-1.5-3.4-3.4-3.43zm17.07 0c-.9 0-1.78.36-2.43 1-.64.65-1 1.52-1 2.43v75.3c0 1.9 1.53 3.43 3.43 3.43 1.9 0 3.44-1.54 3.44-3.43v-75.3c0-.9-.3-1.78-1-2.43-.6-.64-1.5-1-2.4-1zm-153.97 0c-.9 0-1.78.36-2.42 1-.65.65-1 1.52-1 2.43v75.3c0 1.9 1.53 3.43 3.43 3.43 1.9 0 3.5-1.54 3.5-3.43v-75.3c0-1.9-1.5-3.4-3.4-3.43zm-17.1 0c-.93 0-1.8.36-2.44 1-.65.65-1 1.52-1 2.43v75.3c0 1.9 1.53 3.43 3.43 3.43 1.8 0 3.4-1.54 3.4-3.43v-75.3c0-.9-.4-1.78-1-2.43-.7-.64-1.5-1-2.5-1zm136.9 0c-.92 0-1.8.36-2.44 1-.64.65-1 1.52-1 2.43v75.3c0 1.9 1.53 3.43 3.43 3.43 1.9 0 3.4-1.54 3.4-3.43v-75.3c0-1.9-1.6-3.4-3.5-3.43zm-17.13 0c-.9 0-1.8.36-2.43 1-.64.65-1 1.52-1 2.43v75.3c0 1.9 1.53 3.43 3.43 3.43 1.9 0 3.44-1.54 3.44-3.43v-75.3c0-1.9-1.5-3.4-3.4-3.43zm-17.12 0c-.9 0-1.8.36-2.43 1-.65.65-1 1.52-1 2.43v75.3c0 .9.35 1.78 1 2.43.64.64 1.52 1 2.43 1 .9 0 1.8-.34 2.44-1 .6-.64 1-1.52 1-2.43v-75.3c-.1-1.9-1.6-3.4-3.5-3.43z"/><path fill="#6AA0AA" d="M169.72 221.36h219.6v3.2h-219.6z"/></g><g fill-rule="nonzero"><path fill="#81D4DC" d="M113.93 224.9h219.6V334h-219.6z"/><path fill="#1D1D1B" d="M120.4 231.35h206.67v96.18H120.4z" opacity=".05"/><path fill="#1D1D1B" d="M324.5 233.94v91H122.97v-91h201.5zm2.58-2.6h-206.7v96.2h206.7v-96.2z" opacity=".1"/><path fill="#7DADBA" d="M224.34 238.93c-.9 0-1.8.36-2.43 1-.6.65-1 1.53-1 2.44v75.3c0 1.9 1.6 3.43 3.5 3.43s3.5-1.54 3.5-3.44v-75.3c0-.9-.3-1.78-1-2.42-.6-.65-1.5-1-2.4-1zm-17.12 0c-.9 0-1.8.36-2.43 1-.7.65-1.1 1.53-1.1 2.44v75.3c0 1.9 1.5 3.43 3.4 3.43s3.4-1.54 3.4-3.44v-75.3c0-.9-.4-1.78-1-2.42-.7-.65-1.5-1-2.5-1zm-17.06 0c-.9 0-1.8.36-2.43 1-.65.65-1 1.53-1 2.44v75.3c0 1.9 1.53 3.43 3.43 3.43 1.9 0 3.43-1.54 3.43-3.44v-75.3c-.1-1.87-1.6-3.4-3.5-3.43zm-17.12 0c-.9 0-1.8.36-2.43 1-.6.65-1 1.53-1 2.44v75.3c0 1.9 1.6 3.43 3.5 3.43s3.5-1.54 3.5-3.44v-75.3c0-1.88-1.5-3.4-3.4-3.43zm119.78 0c-.9 0-1.78.36-2.43 1-.7.65-1.1 1.53-1.1 2.44v75.3c0 1.9 1.5 3.43 3.4 3.43s3.4-1.54 3.4-3.44v-75.3c-.1-1.87-1.6-3.4-3.5-3.43zm17.06 0c-.9 0-1.78.36-2.43 1-.64.65-1 1.53-1 2.44v75.3c0 1.9 1.53 3.43 3.43 3.43 1.9 0 3.44-1.54 3.44-3.44v-75.3c0-.9-.36-1.78-1-2.42-.65-.65-1.53-1-2.44-1zm-153.96 0c-.92 0-1.8.36-2.43 1-.7.65-1.1 1.53-1.1 2.44v75.3c0 1.9 1.5 3.43 3.4 3.43s3.4-1.54 3.4-3.44v-75.3c0-1.88-1.6-3.4-3.5-3.43zm-17.12 0c-.92 0-1.8.36-2.43 1-.65.65-1 1.53-1 2.44v75.3c0 1.9 1.53 3.43 3.43 3.43 1.9 0 3.43-1.54 3.43-3.44v-75.3c0-.9-.36-1.78-1-2.42-.65-.65-1.52-1-2.43-1zm136.9 0c-.9 0-1.8.36-2.43 1-.64.65-1 1.53-1 2.44v75.3c0 1.9 1.53 3.43 3.43 3.43 1.9 0 3.44-1.54 3.44-3.44v-75.3c-.02-1.88-1.55-3.4-3.44-3.43zm-17.12 0c-.9 0-1.8.36-2.43 1-.65.65-1 1.53-1 2.44v75.3c0 1.9 1.53 3.43 3.43 3.43 1.9 0 3.44-1.54 3.44-3.44v-75.3c-.02-1.88-1.55-3.4-3.44-3.43zm-17.12 0c-.9 0-1.8.36-2.43 1-.65.65-1 1.53-1 2.44v75.3c0 .9.35 1.78 1 2.42.64.6 1.52 1 2.43 1 .9 0 1.8-.4 2.44-1 .65-.7 1-1.6 1-2.5v-75.3c-.03-1.9-1.55-3.4-3.44-3.5z"/><path fill="#91EAF3" d="M223.74 238.33c-.92 0-1.8.36-2.43 1-.6.65-1 1.53-1 2.44v75.3c0 1.9 1.6 3.43 3.5 3.43s3.5-1.54 3.5-3.44v-75.3c0-.9-.3-1.78-1-2.42-.6-.65-1.5-1-2.4-1zm-17.12 0c-.92 0-1.8.36-2.44 1-.64.65-1 1.53-1 2.44v75.3c0 1.9 1.54 3.43 3.44 3.43s3.43-1.54 3.43-3.44v-75.3c0-.9-.36-1.78-1-2.42-.65-.65-1.52-1-2.43-1zm-17.07 0c-.9 0-1.78.36-2.43 1-.64.65-1 1.53-1 2.44v75.3c0 1.9 1.54 3.43 3.43 3.43 1.9 0 3.44-1.54 3.44-3.44v-75.3c-.1-1.87-1.6-3.4-3.5-3.43zm-17.12 0c-.9 0-1.78.36-2.43 1-.64.65-1 1.53-1 2.44v75.3c0 1.9 1.54 3.43 3.43 3.43 1.9 0 3.44-1.54 3.44-3.44v-75.3c-.02-1.88-1.55-3.4-3.44-3.43zm119.8 0c-.9 0-1.8.36-2.44 1-.7.65-1.1 1.53-1.1 2.44v75.3c0 1.9 1.5 3.43 3.4 3.43s3.4-1.54 3.4-3.44v-75.3c-.1-1.87-1.6-3.4-3.5-3.43zm17.05 0c-.9 0-1.8.36-2.43 1-.65.65-1 1.53-1 2.44v75.3c0 1.9 1.53 3.43 3.43 3.43 1.9 0 3.43-1.54 3.43-3.44v-75.3c.1-.9-.3-1.78-1-2.42-.6-.65-1.5-1-2.4-1zm-153.98 0c-.9 0-1.77.36-2.42 1-.64.65-1 1.53-1 2.44v75.3c0 1.9 1.54 3.43 3.43 3.43 1.9 0 3.5-1.54 3.5-3.44v-75.3c0-1.88-1.5-3.4-3.4-3.43zm-17.1 0c-.92 0-1.8.36-2.44 1-.64.65-1 1.53-1 2.44v75.3c0 1.9 1.54 3.43 3.43 3.43 1.9 0 3.4-1.54 3.4-3.44v-75.3c0-.9-.4-1.78-1-2.42-.7-.65-1.6-1-2.5-1zm136.9 0c-.9 0-1.8.36-2.43 1-.65.65-1 1.53-1 2.44v75.3c0 1.9 1.53 3.43 3.43 3.43 1.9 0 3.43-1.54 3.43-3.44v-75.3c-.02-1.88-1.54-3.4-3.43-3.43zm-17.12 0c-.9 0-1.8.36-2.43 1-.65.65-1 1.53-1 2.44v75.3c0 1.9 1.53 3.43 3.43 3.43 1.9 0 3.43-1.54 3.43-3.44v-75.3c0-1.88-1.5-3.4-3.4-3.43zm-17.12 0c-.92 0-1.8.36-2.43 1-.65.65-1 1.53-1 2.44v75.3c0 .9.35 1.78 1 2.42.64.6 1.5 1 2.43 1 .9 0 1.8-.4 2.44-1 .64-.7 1-1.6 1-2.5v-75.3c-.03-1.9-1.55-3.4-3.44-3.5z"/><path fill="#367089" d="M113.93 330.8h219.6v3.2h-219.6z"/><path fill="#1D1D1B" d="M204.54 334l-34.82-109.1h164.75V334" opacity=".1"/></g><g transform="translate(248 244)"><path fill="#FFD800" fill-rule="nonzero" d="M94.96.72H6.56c-1.08 0-2.1.44-2.87 1.2-.8.8-1.2 1.84-1.2 2.92v27.23c0 1.1.4 2.15 1.1 2.93.7.8 1.8 1.25 2.9 1.27h67.9v7.34l5.4-7.3h15.1c2.3 0 4.2-1.8 4.3-4.2V4.9c0-2.3-1.9-4.15-4.3-4.1z"/><ellipse cx="38.24" cy="242.94" fill="#000" fill-rule="nonzero" opacity=".3" rx="37.29" ry="7.22"/><path fill="#402313" fill-rule="nonzero" d="M4.57 74.07c0-1.92 2.68-3.6 3-5.4.33-1.9-1.62-4.37-.98-6.12.6-1.8 3.7-2.43 4.6-4.05.9-1.64-.1-4.63 1.2-6.07 1.2-1.45 4.3-1 5.7-2.22 1.4-1.2 1.5-4.3 3.2-5.3 1.6-.9 4.4.6 6.1-.1 1.7-.6 2.9-3.5 4.8-3.9C34 40.6 36.1 43 38 43s4-2.3 5.83-2c1.9.4 3.06 3.3 4.8 3.9 1.8.7 4.57-.8 6.2.1 1.63 1 1.73 4.1 3.17 5.3 1.5 1.3 4.6.8 5.8 2.3 1.2 1.5.26 4.5 1.2 6.1.96 1.6 4 2.3 4.7 4.08.63 1.76-1.3 4.24-.98 6.1.34 1.84 3 3.5 3 5.4s-2.66 3.6-3 5.4c-.3 1.9 1.63 4.38 1 6.1-.66 1.8-3.74 2.46-4.68 4.08-.96 1.65.02 4.64-1.2 6.08-1.2 1.44-4.32 1-5.77 2.2-1.47 1.2-1.57 4.36-3.2 5.3-1.6.95-4.4-.53-6.2.1-1.73.65-2.9 3.57-4.8 3.9-1.8.3-3.9-2.02-5.83-2.02s-4 2.38-5.83 2.06c-1.9-.33-3-3.25-4.8-3.9-1.8-.64-4.5.84-6.2-.1-1.6-.95-1.7-4.1-3.1-5.3-1.43-1.22-4.55-.8-5.76-2.22-1.2-1.42-.3-4.4-1.2-6.05-.98-1.6-4.07-2.3-4.7-4.03-.67-1.8 1.3-4.26.95-6.14-.34-1.8-3-3.5-3-5.4z"/><path fill="#402313" fill-rule="nonzero" d="M56.34 95.66l-36.3-.33c-1.7-.02-3.28-.8-4.3-2.16-1.02-1.35-1.36-3.1-.92-4.72l7.95-29.4 29.33-3.58 9.53 33.23c.48 1.65.14 3.43-.9 4.8-1.04 1.37-2.67 2.17-4.4 2.16z"/><path stroke="#EF9F6A" stroke-width="11.55" d="M30.14 168.5v62.6"/><path stroke="#1D1D1B" stroke-width="11.55" d="M30.14 222.62v15.44" stroke-linecap="round"/><path stroke="#1D1D1B" stroke-width="11.55" d="M30.14 215.36v15.44"/><path stroke="#EF9F6A" stroke-width="11.55" d="M45.2 168.5v62.6"/><path stroke="#1D1D1B" stroke-width="11.55" d="M45.2 222.62v15.44" stroke-linecap="round"/><path stroke="#1D1D1B" stroke-width="11.55" d="M45.2 215.36v15.44"/><path fill="#DE9462" fill-rule="nonzero" d="M33.1 92.64h9.12v9.1h-9.1z"/><path fill="#000" fill-rule="nonzero" d="M37.67 95.07c-1.56 0-3.1-.28-4.56-.82v2.13c3 1.1 6.2 1.1 9.2 0v-2.13c-1.4.54-3 .8-4.5.82z" opacity=".2"/><path stroke="#C2D64C" stroke-width="8.25" d="M12.17 179.85v-59.93c0-9 12.26-16.62 26.78-16.62" stroke-linecap="round"/><path stroke="#EF9F6A" stroke-width="8.25" d="M12.17 184.22v-8.73" stroke-linecap="round"/><path stroke="#EF9F6A" stroke-width="8.25" d="M12.17 178.77v-49.24"/><path stroke="#C2D64C" stroke-width="8.25" d="M114.22 103.3H54.3c-9.02 0-16.63 12.26-16.63 26.78" stroke-linecap="round"/><path stroke="#EF9F6A" stroke-width="8.25" d="M118.58 103.3h-8.72" stroke-linecap="round"/><path stroke="#EF9F6A" stroke-width="8.25" d="M113.14 103.3H63.9"/><path fill="#EF9F6A" fill-rule="nonzero" d="M50.9 82.24c0 7.3-5.92 13.24-13.23 13.24-7.32 0-13.25-5.93-13.25-13.24v-16.3h26.5v16.3z"/><path fill="#232323" fill-rule="nonzero" d="M22.4 62.07v4.84c2.8 2.3 8.58 3.8 15.27 3.8 6.55 0 12.24-1.4 15.1-3.6v-5H22.4z" opacity=".2"/><ellipse cx="50.91" cy="79.7" fill="#EF9F6A" fill-rule="nonzero" rx="2.78" ry="3.98"/><ellipse cx="23.6" cy="79.7" fill="#EF9F6A" fill-rule="nonzero" rx="2.78" ry="3.98"/><circle cx="44.99" cy="73.17" r="1.3" fill="#423228" fill-rule="nonzero"/><circle cx="31.44" cy="73.17" r="1.3" fill="#423228" fill-rule="nonzero"/><path fill="#402313" fill-rule="nonzero" d="M52.93 65.34v-.83c0-1.9-1.42-3.5-3.3-3.8l-11.96-1.6-11.95 1.7c-1.9.3-3.3 1.9-3.3 3.8v.9h30.5z"/><path fill="#402313" fill-rule="nonzero" d="M54.68 57.33S51.14 67.9 35.18 67.9c-7.3.22-13.9-4.35-16.25-11.27 0 0 5.9 6.24 14.66-2.2 1.9-3.38 18.2-5.05 21 2.9z"/><path fill="#C2D64C" fill-rule="nonzero" d="M58.82 193.54h-42.3V119.9c0-11.67 9.46-21.14 21.15-21.14 11.68 0 21.15 9.47 21.15 21.15v73.7z"/></g><g transform="translate(366 293)"><ellipse cx="59" cy="193.94" fill="#000" fill-rule="nonzero" rx="37.29" ry="7.22"/><path fill="#000" fill-rule="nonzero" d="M51.52 113.27l19.86 65.93m-2.68-8.94l4.9 16.25m-7.2-23.9l4.88 16.3m-19.76-65.6v68.9m0-9.3v17m0-24.9v17m6.98-21.1l6.2 20.6 2.38 7.88L59 119.5l-.5-7.26v1.03m-12-83.4h10.03V39.9H46.5z"/><path fill="#000" fill-rule="nonzero" d="M28.26 60.92c0-12.84 10.4-23.26 23.26-23.26 12.85 0 23.26 10.42 23.26 23.26v58.78H28.26V60.92zm8.7-42.5c0 8.05 6.52 14.57 14.56 14.57 8.04 0 14.56-6.6 14.56-14.6V.5H36.96v17.9z"/><path fill="#000" fill-rule="nonzero" d="M51.52 33c-1.7-.02-3.4-.32-5-.92v2.35c3.22 1.2 6.78 1.2 10 0v-2.35c-1.6.6-3.3.9-5 .9z"/><circle cx="42.27" cy="8.46" r="1.43" fill="#000" fill-rule="nonzero"/><ellipse cx="54" cy="12.49" fill="#000" fill-rule="nonzero" transform="rotate(-77.127 54 12.487)" rx="4.3" ry="3.64"/><path fill="#000" fill-rule="nonzero" d="M54.02 45.7c-1.33 0-2.6.53-3.53 1.46-1 .94-1.5 2.2-1.5 3.53v26.6c0 3.8-3.2 6.9-7 6.9H28.2v10H42c9.4 0 17-7.6 17-16.9V50.6c0-1.3-.5-2.6-1.45-3.52-.93-.93-2.2-1.46-3.52-1.46z"/><path fill="#000" fill-rule="nonzero" d="M51.52 46.68v26.7c0 6.6-5.36 11.96-11.97 11.96H2.48m5.24 0H.58"/><ellipse cx="59" cy="193.94" fill="#000" fill-rule="nonzero" opacity=".3" rx="37.29" ry="7.22"/><path stroke="#666" stroke-width="12.7" d="M51.52 113.27l19.86 65.93"/><path stroke="#1D1D1B" stroke-width="12.7" d="M68.7 170.26l4.9 16.25" stroke-linecap="round"/><path stroke="#1D1D1B" stroke-width="12.7" d="M66.4 162.6l4.88 16.27"/><path stroke="#666" stroke-width="12.7" d="M51.52 113.27v68.86"/><path stroke="#1D1D1B" stroke-width="12.7" d="M51.52 172.8v16.97" stroke-linecap="round"/><path stroke="#1D1D1B" stroke-width="12.7" d="M51.52 164.8v16.98"/><path fill="#000" fill-rule="nonzero" d="M58.5 160.66l6.2 20.56 2.38 7.86L59 119.5l-.5-7.26v1.03" opacity=".2"/><path fill="#DE9462" fill-rule="nonzero" d="M46.5 29.87h10.03V39.9H46.5z"/><path fill="#2C5871" fill-rule="nonzero" d="M28.26 60.92c0-12.84 10.4-23.26 23.26-23.26 12.85 0 23.26 10.42 23.26 23.26v58.78H28.26V60.92z"/><path fill="#EF9F6A" fill-rule="nonzero" d="M36.96 18.42c0 8.05 6.52 14.57 14.56 14.57 8.04 0 14.56-6.6 14.56-14.6V.5H36.96v17.9z"/><path fill="#000" fill-rule="nonzero" d="M51.52 33c-1.7-.02-3.4-.32-5-.92v2.35c3.22 1.2 6.78 1.2 10 0v-2.35c-1.6.6-3.3.9-5 .9z" opacity=".2"/><circle cx="42.27" cy="8.46" r="1.43" fill="#000" fill-rule="nonzero"/><ellipse cx="54" cy="12.49" fill="#EF9F6A" fill-rule="nonzero" transform="rotate(-77.127 54 12.487)" rx="4.3" ry="3.64"/><path fill="#000" fill-rule="nonzero" d="M54.02 45.7c-1.33 0-2.6.53-3.53 1.46-1 .94-1.5 2.2-1.5 3.53v26.6c0 3.8-3.2 6.9-7 6.9H28.2v10H42c9.4 0 17-7.6 17-16.9V50.6c0-1.3-.5-2.6-1.45-3.52-.93-.93-2.2-1.46-3.52-1.46z" opacity=".2"/><path stroke="#B3B3B3" stroke-width="9.07" d="M51.52 46.68v26.7c0 6.6-5.36 11.96-11.97 11.96H2.48" stroke-linecap="round"/><path stroke="#EF9F6A" stroke-width="9.07" d="M15.7 85.34H4.58"/><path stroke="#EF9F6A" stroke-width="9.07" d="M7.72 85.34H.58" stroke-linecap="round"/></g><path fill="#FFD800" fill-rule="nonzero" d="M67.72 231.02H3.05c-.8 0-1.55.33-2.1.9-.56.56-.86 1.33-.84 2.12v19.92c0 .8.3 1.57.9 2.15.6.6 1.3 1 2.1 1h49.7v5.4l4-5.3h11c1.7 0 3.1-1.3 3.2-3v-20c0-1.7-1.4-3-3.1-3z"/><g transform="translate(53 271)"><ellipse cx="18.93" cy="86.25" fill="#000" fill-rule="nonzero" opacity=".3" rx="18.6" ry="3.1"/><path fill="#7A5022" fill-rule="nonzero" d="M25.8 5.32h-4.47c0 2.33 1.82 4.35 4.48 5.37V5.3z"/><path fill="#7A5022" fill-rule="nonzero" d="M25.9 8.62c0 2.97-3.22 5.38-7.2 5.38h-.3c-3.96 0-7.18-2.4-7.18-5.38V5.97c0-3 3.26-5.45 7.27-5.45h.1c4 0 7.2 2.44 7.2 5.45v2.65z"/><ellipse cx="18.95" cy="14.74" fill="#7A5022" fill-rule="nonzero" rx="8.04" ry="7.12"/><path stroke="#666" stroke-width="5.66" d="M15.34 54.07V82"/><path stroke="#1D1D1B" stroke-width="5.66" d="M15.34 78.2v6.88" stroke-linecap="round"/><path stroke="#1D1D1B" stroke-width="5.66" d="M15.34 74.96v6.9"/><path stroke="#666" stroke-width="5.66" d="M22.05 54.07V82"/><path stroke="#1D1D1B" stroke-width="5.66" d="M22.05 78.2v6.88" stroke-linecap="round"/><path stroke="#1D1D1B" stroke-width="5.66" d="M22.05 74.96v6.9"/><path fill="#DE9462" fill-rule="nonzero" d="M16.67 20.25h4.06v4.06h-4.06z"/><path fill="#000" fill-rule="nonzero" d="M18.7 21.33c-.7 0-1.38-.12-2.03-.37v.96c1.3.48 2.75.48 4.06 0v-.96c-.65.25-1.34.37-2.03.37z" opacity=".2"/><path stroke="#2C5871" stroke-width="4.04" d="M7.33 59.1V32.4c0-4.03 5.47-7.42 11.94-7.42" stroke-linecap="round"/><path stroke="#EF9F6A" stroke-width="4.04" d="M7.33 61.05v-3.9" stroke-linecap="round"/><path stroke="#EF9F6A" stroke-width="4.04" d="M7.33 58.63V36.67"/><path stroke="#2C5871" stroke-width="4.04" d="M30.12 59.42V32.7c0-4.02-5.47-7.4-11.94-7.4" stroke-linecap="round"/><path stroke="#EF9F6A" stroke-width="4.04" d="M30.12 61.37v-3.9" stroke-linecap="round"/><path stroke="#EF9F6A" stroke-width="4.04" d="M30.12 58.94V36.98"/><path fill="#15B0BF" fill-rule="nonzero" d="M28.13 49.88H9.27V32.4c0-2.5 1-4.9 2.76-6.66 1.77-1.77 4.17-2.76 6.67-2.76s4.9 1 6.67 2.76c1.77 1.77 2.76 4.17 2.76 6.67v17.5z"/><path fill="#EF9F6A" fill-rule="nonzero" d="M24.6 15.6c0 2.12-1.12 4.07-2.95 5.13-1.83 1.06-4.08 1.06-5.9 0-1.83-1.06-2.96-3-2.96-5.12V8.4h11.8v7.26z"/><path fill="#232323" fill-rule="nonzero" d="M11.9 6.62v2.16c1.24 1 3.82 1.67 6.8 1.67 2.92 0 5.46-.66 6.73-1.62v-2.2H11.9z" opacity=".2"/><ellipse cx="24.6" cy="14.48" fill="#EF9F6A" fill-rule="nonzero" rx="1.24" ry="1.77"/><ellipse cx="12.43" cy="14.48" fill="#EF9F6A" fill-rule="nonzero" rx="1.24" ry="1.77"/><circle cx="21.96" cy="11.57" r="1" fill="#000" fill-rule="nonzero"/><circle cx="15.92" cy="11.57" r="1" fill="#000" fill-rule="nonzero"/><path fill="#7A5022" fill-rule="nonzero" d="M25.58 6.2s-9.34-.67-10.6 5.4c-3.28-5.46 1.38-7.4 4.08-6.98 2.2.4 4.38.9 6.52 1.57z"/><path fill="#7A5022" fill-rule="nonzero" d="M24.34 4.87s-9.97-.65-11.24 5.44c-2.87-7.7 2.03-7.4 4.73-7 2.2.4 4.38 1 6.5 1.6z"/><path fill="#FFD301" fill-rule="nonzero" d="M11.17 49.88h15.56v8.64H11.17z"/></g><g transform="translate(7 266)"><ellipse cx="18.62" cy="91.25" fill="#000" fill-rule="nonzero" opacity=".3" rx="18.6" ry="3.1"/><path stroke="#666" stroke-width="6.33" d="M23.65 55.67l-9 29.9"/><path stroke="#1D1D1B" stroke-width="6.33" d="M15.87 81.5l-2.23 7.38" stroke-linecap="round"/><path stroke="#1D1D1B" stroke-width="6.33" d="M16.9 78.04l-2.2 7.37"/><path stroke="#666" stroke-width="6.33" d="M23.65 55.67V86.9"/><path stroke="#1D1D1B" stroke-width="6.33" d="M23.65 82.65v7.7" stroke-linecap="round"/><path stroke="#1D1D1B" stroke-width="6.33" d="M23.65 79.03v7.7"/><path fill="#000" fill-rule="nonzero" d="M20.48 77.16l-2.8 9.3-1.08 3.58 3.66-31.54.22-3.3v.47" opacity=".2"/><path fill="#DE9462" fill-rule="nonzero" d="M25.9 22.4h-4.53v-4.53h4.54z"/><path fill="#7DADBA" fill-rule="nonzero" d="M34.2 58.6H13.1V31.93c0-5.82 4.72-10.54 10.55-10.54 5.82 0 10.54 4.7 10.54 10.5v26.7z"/><path fill="#EF9F6A" fill-rule="nonzero" d="M30.25 12.68c0 3.65-2.96 6.6-6.6 6.6-3.65 0-6.6-2.95-6.6-6.6v-8.1h13.2v8.1z"/><path fill="#000" fill-rule="nonzero" d="M23.65 19.28c.77 0 1.54-.14 2.27-.4v1.05c-1.47.55-3.08.55-4.54 0v-1.06c.72.27 1.5.4 2.27.4z" opacity=".2"/><circle cx="27.84" cy="8.16" r="1" fill="#000" fill-rule="nonzero"/><path fill="#736357" fill-rule="nonzero" d="M32.4.4H17.12c-1.2-.04-2.2.9-2.22 2.1v7.7c.03 1.18 1.02 2.12 2.22 2.08 2.63.04 5.04-1.48 6.15-3.87.4-.9 1.1-1.7 1.98-2.2.7-.3 1.45-.5 2.22-.6 2.73-.2 4.86-2.4 4.93-5.2z"/><ellipse cx="22.52" cy="9.99" fill="#EF9F6A" fill-rule="nonzero" transform="rotate(-12.873 22.524 9.99)" rx="1.65" ry="1.95"/><path fill="#000" fill-rule="nonzero" d="M22.52 25.05c.6 0 1.17.23 1.6.66.42.5.66 1 .66 1.6v12.1c0 1.8 1.42 3.2 3.16 3.2h6.25v4.5h-6.3c-4.3 0-7.7-3.4-7.7-7.7V27.3c0-.6.2-1.17.6-1.6.4-.42 1-.65 1.6-.65z" opacity=".2"/><path stroke="#B3B3B3" stroke-width="4.52" d="M23.65 25.5v12.1c0 2.98 2.43 5.4 5.42 5.4h16.8" stroke-linecap="round"/><path stroke="#EF9F6A" stroke-width="4.52" d="M39.88 43h5.05"/><path stroke="#EF9F6A" stroke-width="4.52" d="M43.5 43h3.24" stroke-linecap="round"/></g><path fill="#FFD800" fill-rule="nonzero" d="M388.1.2h-64.7c-.8 0-1.55.32-2.1.9-.56.56-.86 1.33-.85 2.12v19.9c-.02.8.28 1.6.84 2.16.5.58 1.3.9 2.1.93h49.7v5.4l4-5.3h11c1.7 0 3.1-1.3 3.1-3v-20c-.1-1.7-1.5-3-3.2-3z"/><g transform="translate(340 38)"><path fill="#7A5022" fill-rule="nonzero" d="M16.83 11.3h-3.6c0 1.9 1.45 3.52 3.6 4.34V11.3z"/><path fill="#7A5022" fill-rule="nonzero" d="M16.9 13.96c0 2.4-2.6 4.35-5.8 4.35h-.25c-3.2 0-5.8-1.9-5.8-4.3v-2.1c0-2.4 2.64-4.4 5.88-4.4h.1c3.24 0 5.87 2 5.87 4.4V14z"/><ellipse cx="11.3" cy="18.9" fill="#7A5022" fill-rule="nonzero" rx="6.49" ry="5.75"/><path fill="#7A5022" fill-rule="nonzero" d="M16.64 12s-7.53-.53-8.56 4.38c-2.63-4.4 1.13-6 3.3-5.64 1.78.32 3.54.74 5.26 1.26z"/><path fill="#7A5022" fill-rule="nonzero" d="M15.65 10.94s-8.05-.52-9.08 4.4c-2.3-6.28 1.64-6 3.82-5.66 1.7.32 3.5.74 5.2 1.26z"/><path stroke="#EF9F6A" stroke-width="4.57" d="M8.38 50.65v22.53"/><path stroke="#1D1D1B" stroke-width="4.57" d="M8.38 70.12v5.56" stroke-linecap="round"/><path stroke="#1D1D1B" stroke-width="4.57" d="M8.38 67.5v5.57"/><path stroke="#EF9F6A" stroke-width="4.57" d="M13.8 50.65v22.53"/><path stroke="#1D1D1B" stroke-width="4.57" d="M13.8 70.12v5.56" stroke-linecap="round"/><path stroke="#1D1D1B" stroke-width="4.57" d="M13.8 67.5v5.57"/><path fill="#DE9462" fill-rule="nonzero" d="M9.45 23.35h3.28v3.28H9.45z"/><path fill="#000" fill-rule="nonzero" d="M11.1 24.23c-.57 0-1.12-.1-1.65-.3v.77c1.06.4 2.23.4 3.28 0v-.77c-.52.2-1.08.3-1.64.3z" opacity=".2"/><path stroke="#2C5871" stroke-width="3.26" d="M1.92 2.52V24.1c0 3.23 4.4 5.97 9.64 5.97" stroke-linecap="round"/><path stroke="#EF9F6A" stroke-width="3.26" d="M1.92.95V4.1" stroke-linecap="round"/><path stroke="#EF9F6A" stroke-width="3.26" d="M1.92 2.9v17.73"/><path stroke="#2C5871" stroke-width="3.26" d="M20.3 2.14V23.7c0 3.24-4.4 5.98-9.63 5.98" stroke-linecap="round"/><path stroke="#EF9F6A" stroke-width="3.26" d="M20.3.57V3.7" stroke-linecap="round"/><path fill="#EF9F6A" fill-rule="nonzero" stroke="#EF9F6A" stroke-width="3.26" d="M20.3 2.53v17.7"/><path fill="#15B0BF" fill-rule="nonzero" d="M18.7 47.27H3.5v-14.1c0-4.2 3.4-7.62 7.6-7.62 4.22 0 7.63 3.4 7.63 7.62v14.1z"/><path fill="#EF9F6A" fill-rule="nonzero" d="M15.86 19.6c0 2.64-2.14 4.77-4.77 4.77-2.7 0-4.8-2.13-4.8-4.76v-5.8h9.5v5.9z"/><path fill="#232323" fill-rule="nonzero" d="M5.6 12.35v1.75c1.66 1 3.57 1.46 5.5 1.34 1.9.1 3.78-.35 5.43-1.3v-1.8H5.6z" opacity=".2"/><ellipse cx="15.86" cy="18.7" fill="#EF9F6A" fill-rule="nonzero" rx="1" ry="1.43"/><ellipse cx="6.03" cy="18.7" fill="#EF9F6A" fill-rule="nonzero" rx="1" ry="1.43"/><circle cx="13.73" cy="16.35" r="1" fill="#000" fill-rule="nonzero"/><circle cx="8.85" cy="16.35" r="1" fill="#000" fill-rule="nonzero"/><path fill="#FFD301" fill-rule="nonzero" d="M22.4 61.9H.2l4.82-14.63h12.56"/></g><g transform="translate(371 68)"><path stroke="#DE9462" stroke-width="4.51" d="M25.36 60.33V47.07c0-1.7-1.37-3.07-3.07-3.07H6.1"/><path stroke="#1D1D1B" stroke-width="4.51" d="M25.36 57.3v5.5" stroke-linecap="round"/><path stroke="#1D1D1B" stroke-width="4.51" d="M25.36 54.73v5.48"/><path stroke="#2C5871" stroke-width="4.51" d="M26.7 61.57V48.3c0-1.68-1.38-3.05-3.07-3.05H7.5"/><path stroke="#1D1D1B" stroke-width="4.51" d="M26.7 58.55v5.5" stroke-linecap="round"/><path stroke="#1D1D1B" stroke-width="4.51" d="M26.7 55.97v5.5"/><path stroke="#EFA47B" stroke-width="4.51" d="M26.7 61.57V48.3c0-1.68-1.38-3.05-3.07-3.05H7.5"/><path stroke="#1D1D1B" stroke-width="4.51" d="M26.7 58.55v5.5" stroke-linecap="round"/><path stroke="#1D1D1B" stroke-width="4.51" d="M26.7 55.97v5.5"/><path fill="#DE9462" fill-rule="nonzero" d="M9.74 12.85H6.5V9.6h3.24z"/><path fill="#FFD301" fill-rule="nonzero" d="M15.64 38.65H.6v-19c0-4.15 3.37-7.52 7.52-7.52 4.15 0 7.52 3.37 7.52 7.52v19z"/><path fill="#EF9F6A" fill-rule="nonzero" d="M12.83 5.92c0 2.6-2.1 4.7-4.7 4.7S3.4 8.52 3.4 5.92V.12h9.43v5.8z"/><path fill="#000" fill-rule="nonzero" d="M8.12 10.62c.55 0 1.1-.1 1.62-.3v.77c-1.05.3-2.2.3-3.24 0v-.8c.52.2 1.07.3 1.62.3z" opacity=".2"/><circle cx="11.11" cy="2.69" r="1" fill="#000" fill-rule="nonzero"/><path fill="#000" fill-rule="nonzero" d="M7.3 14.73c.44 0 .85.17 1.15.47.3.3.48.72.48 1.14v8.63c0 1.25 1 2.26 2.25 2.26h4.46v3.22h-4.46c-3.02 0-5.47-2.45-5.48-5.48v-8.63c0-.42.17-.83.47-1.14.3-.3.72-.47 1.14-.47z" opacity=".2"/><path stroke="#EF9F6A" stroke-width="3.22" d="M8.12 15.05v8.62c0 2.14 1.73 3.87 3.87 3.87h11.9" stroke-linecap="round"/><path stroke="#FFF" stroke-width="3.22" d="M8.12 15.05v3.46" stroke-linecap="round"/><path stroke="#FFF" stroke-width="3.22" d="M8.12 17.86v3.47"/><path stroke="#EF9F6A" stroke-width="3.22" d="M19.7 27.54h3.6"/><path stroke="#EF9F6A" stroke-width="3.22" d="M22.28 27.54h2.3" stroke-linecap="round"/><path fill="#2C5871" fill-rule="nonzero" d="M15.64 47.58h-9.8c-2.9 0-5.24-2.34-5.24-5.23v-3.7h15.04v8.93z"/><path fill="#2C5871" fill-rule="nonzero" d="M14.06 38.65h2.8c1.78 0 3.47.7 4.73 1.96 1.2 1.3 1.9 3 1.9 4.8v2.3H14v-9z"/></g><g transform="translate(128 163)"><path stroke="#234959" stroke-width="5.41" d="M2.43 76.3V60.43c0-2.02 1.64-3.66 3.66-3.66h19.3"/><path stroke="#1D1D1B" stroke-width="5.41" d="M2.43 72.7v6.56" stroke-linecap="round"/><path stroke="#1D1D1B" stroke-width="5.41" d="M2.43 69.6v6.57"/><path stroke="#2C5871" stroke-width="5.41" d="M.83 77.8V61.92c0-2.03 1.64-3.67 3.66-3.67h19.3"/><path stroke="#1D1D1B" stroke-width="5.41" d="M.83 74.18v6.58" stroke-linecap="round"/><path stroke="#1D1D1B" stroke-width="5.41" d="M.83 71.1v6.57"/><path stroke="#2C5871" stroke-width="5.41" d="M.83 77.8V61.92c0-2.03 1.64-3.67 3.66-3.67h19.3"/><path stroke="#1D1D1B" stroke-width="5.41" d="M.83 74.18v6.58" stroke-linecap="round"/><path stroke="#1D1D1B" stroke-width="5.41" d="M.83 71.1v6.57"/><path fill="#DE9462" fill-rule="nonzero" d="M21.13 15.57H25v3.88h-3.87z"/><path fill="#C2D64C" fill-rule="nonzero" d="M14.07 27.6c0-2.4.95-4.7 2.63-6.38 1.7-1.7 3.98-2.64 6.37-2.64 4.98 0 9 4.03 9 9v22.76h-18V27.6z"/><path fill="#EF9F6A" fill-rule="nonzero" d="M17.44 11.14c0 3.1 2.52 5.62 5.63 5.62 3.1 0 5.63-2.5 5.64-5.62V4.2H17.5v6.94z"/><path fill="#000" fill-rule="nonzero" d="M23.07 16.77c-.66 0-1.32-.12-1.94-.35v.9c1.25.48 2.63.48 3.88 0v-.9c-.6.23-1.2.35-1.9.35z" opacity=".2"/><circle cx="19.49" cy="7.28" r="1" fill="#000" fill-rule="nonzero"/><path fill="#000" fill-rule="nonzero" d="M15.6.64h13.05c1.02-.03 1.86.77 1.9 1.8V9c-.04 1.02-.88 1.82-1.9 1.8-2.25.03-4.3-1.27-5.25-3.3-.35-.8-.94-1.47-1.7-1.9-.6-.3-1.23-.47-1.9-.5-2.33-.2-4.14-2.12-4.2-4.46z"/><ellipse cx="24.03" cy="8.84" fill="#EF9F6A" fill-rule="nonzero" transform="rotate(-77.127 24.03 8.836)" rx="1.66" ry="1.41"/><path fill="#000" fill-rule="nonzero" d="M24.04 21.7c-.5 0-1 .2-1.37.56-.36.36-.56.85-.56 1.37v10.33c0 1.5-1.2 2.7-2.7 2.7h-5.3v3.86h5.4c3.7 0 6.6-2.94 6.6-6.56V23.63c0-.52-.2-1-.5-1.37-.3-.36-.8-.56-1.3-.56z" opacity=".2"/><path stroke="#EF9F6A" stroke-width="3.86" d="M23.07 22.08V32.4c0 2.57-2.07 4.64-4.63 4.64H4.1" stroke-linecap="round"/><path stroke="#FFF" stroke-width="3.86" d="M23.07 22.08v4.15" stroke-linecap="round"/><path stroke="#FFF" stroke-width="3.86" d="M23.07 25.45v4.15"/><path stroke="#EF9F6A" stroke-width="3.86" d="M9.2 37.04H4.9"/><path stroke="#EF9F6A" stroke-width="3.86" d="M6.12 37.04H3.35" stroke-linecap="round"/><path fill="#2C5871" fill-rule="nonzero" d="M11.6 48.73h21v4.83c0 4.22-3.42 7.64-7.63 7.64h-5.74c-4.22 0-7.64-3.42-7.64-7.64v-4.83z"/></g><path fill="#000" fill-rule="nonzero" d="M431.93 284.3h-17.76c-8.26.38-10.74-6.17-10.74-6.17v4.2c-3.88-1.66-5.4-6.62-5.4-6.62v5.8c-.14 4.7.63 6.1.63 6.1l.08.1c1.52 4.6 5.58 7.8 10.35 8.2 1.7.1 3.3.6 4.9 1.3 1.9 1.2 3.4 2.9 4.3 4.9 2.4 5.3 7.7 8.7 13.5 8.6 2.6.1 4.8-2 4.9-4.6v-17c-.1-2.6-2.3-4.7-4.9-4.6zm-281.7-116.2v5.53l1.1-1.6v-2.38m234-104.5c0-1.3-2.8-2.34-6.22-2.34-1.5.1-3 .5-4.4 1.1-1 .5-1.7 1.6-1.7 2.8v5.5c.1.9.8 1.5 1.6 1.5 1.9.1 3.6-1 4.4-2.7.3-.6.8-1.2 1.4-1.6.5-.2 1.1-.4 1.6-.4 2-.1 3.5-1.7 3.5-3.7z"/><circle cx="36.29" cy="266.61" r="3.11" fill="#736357" fill-rule="nonzero"/></g></svg>
