<svg xmlns="http://www.w3.org/2000/svg" width="890" height="770" viewBox="0 0 890 770"><defs><style>.cls-1{fill:#d1ecfb;fill-rule:evenodd;opacity:0.3;}.cls-2{fill:#81d4dc;}.cls-3,.cls-4{fill:#1d1d1b;}.cls-3{opacity:0.05;}.cls-4{opacity:0.1;}.cls-5{fill:#7dadba;}.cls-6{fill:#91eaf3;}.cls-7{fill:none;stroke:#000;stroke-linecap:round;stroke-linejoin:round;stroke-width:1.2651px;}.cls-8{fill:#c2d64c;}.cls-9{fill:#fff;opacity:0.4;}.cls-10{fill:#002f47;}.cls-11{fill:#ffd301;}.cls-12{fill:#15b0bf;}.cls-13{fill:#ff931e;}</style></defs><title>Infographics</title><g id="clouds"><path class="cls-1" d="M768.98538,185.62842a115.634,115.634,0,0,0-163.50023,0q-.55621.556-1.10322,1.11763-2.27361-2.76475-4.858-5.3521-1.33928-1.339-2.72948-2.5942a76.91906,76.91906,0,0,0-130.31662,36.03755A42.11319,42.11319,0,1,0,492.90109,291.915a76.93511,76.93511,0,0,0,82.56688,9.31067c.35766-.14643.71712-.28712,1.07292-.43948A115.61165,115.61165,0,1,0,768.98538,185.62842Z"/><path class="cls-1" d="M357.78832,322.04409a88.80933,88.80933,0,1,0,56.4983-101.50968,67.3197,67.3197,0,0,0-116.131.311,81.84794,81.84794,0,1,0-5.78525,54.87493,67.33953,67.33953,0,0,0,65.418,46.32375Z"/></g><g id="ad_ons" data-name="ad ons"><rect class="cls-2" x="359.24686" y="491.58341" width="240.70435" height="119.59208"/><rect class="cls-3" x="366.33291" y="498.66948" width="226.53205" height="105.41969"/><path class="cls-4" d="M590.03045,501.504v99.75068h-220.863V501.504h220.863m2.83451-2.83451h-226.532V604.08919H592.865V498.66949Z"/><path class="cls-5" d="M480.25977,506.97843a3.76432,3.76432,0,0,0-3.76613,3.76617v82.52514a3.76613,3.76613,0,1,0,7.53225,0V510.74458a3.76416,3.76416,0,0,0-3.76613-3.76615Z"/><path class="cls-5" d="M461.49511,506.97843a3.76432,3.76432,0,0,0-3.76613,3.76617v82.52514a3.76613,3.76613,0,1,0,7.53225,0V510.74458a3.76437,3.76437,0,0,0-3.76613-3.76615Z"/><path class="cls-5" d="M442.79642,506.97843a3.76432,3.76432,0,0,0-3.76613,3.76617v82.52514a3.76613,3.76613,0,1,0,7.53225,0V510.74458a3.852,3.852,0,0,0-3.76613-3.76615Z"/><path class="cls-5" d="M424.03176,506.97843a3.76432,3.76432,0,0,0-3.76613,3.76617v82.52514a3.76613,3.76613,0,1,0,7.53225,0V510.74458a3.80757,3.80757,0,0,0-3.76613-3.76615Z"/><path class="cls-5" d="M555.31873,506.97843a3.76432,3.76432,0,0,0-3.76613,3.76617v82.52514a3.76613,3.76613,0,1,0,7.53225,0V510.74458a3.852,3.852,0,0,0-3.76613-3.76615Z"/><path class="cls-5" d="M574.01741,506.97843a3.76432,3.76432,0,0,0-3.76613,3.76617v82.52514a3.76613,3.76613,0,1,0,7.53225,0V510.74458a3.76437,3.76437,0,0,0-3.76613-3.76615Z"/><path class="cls-5" d="M405.26694,506.97843a3.76432,3.76432,0,0,0-3.76613,3.76617v82.52514a3.76613,3.76613,0,1,0,7.53225,0V510.74458a3.80735,3.80735,0,0,0-3.76613-3.76615Z"/><path class="cls-5" d="M386.50228,506.97843a3.76432,3.76432,0,0,0-3.76613,3.76617v82.52514a3.76613,3.76613,0,1,0,7.53225,0V510.74458a3.76437,3.76437,0,0,0-3.76613-3.76615Z"/><path class="cls-5" d="M536.55407,506.97843a3.76432,3.76432,0,0,0-3.76613,3.76617v82.52514a3.76613,3.76613,0,1,0,7.53225,0V510.74458a3.80757,3.80757,0,0,0-3.76613-3.76615Z"/><path class="cls-5" d="M517.78925,506.97843a3.76432,3.76432,0,0,0-3.76613,3.76617v82.52514a3.76613,3.76613,0,1,0,7.53225,0V510.74458a3.80746,3.80746,0,0,0-3.76613-3.76615Z"/><path class="cls-5" d="M499.02459,506.97843a3.76432,3.76432,0,0,0-3.76613,3.76617v82.52514a3.76439,3.76439,0,0,0,3.76613,3.76617,3.723,3.723,0,0,0,3.76613-3.76617V510.74458a3.80757,3.80757,0,0,0-3.76613-3.76615Z"/><path class="cls-6" d="M479.599,506.3177a3.76432,3.76432,0,0,0-3.76613,3.76617V592.609a3.76613,3.76613,0,1,0,7.53225,0V510.08385a3.76416,3.76416,0,0,0-3.76613-3.76615Z"/><path class="cls-6" d="M460.83438,506.3177a3.76432,3.76432,0,0,0-3.76613,3.76617V592.609a3.76613,3.76613,0,1,0,7.53225,0V510.08385a3.76437,3.76437,0,0,0-3.76613-3.76615Z"/><path class="cls-6" d="M442.13569,506.3177a3.76432,3.76432,0,0,0-3.76613,3.76617V592.609a3.76613,3.76613,0,1,0,7.53225,0V510.08385a3.852,3.852,0,0,0-3.76613-3.76615Z"/><path class="cls-6" d="M423.371,506.3177a3.76432,3.76432,0,0,0-3.76613,3.76617V592.609a3.76613,3.76613,0,1,0,7.53225,0V510.08385a3.80757,3.80757,0,0,0-3.76613-3.76615Z"/><path class="cls-6" d="M554.658,506.3177a3.76432,3.76432,0,0,0-3.76613,3.76617V592.609a3.76613,3.76613,0,1,0,7.53225,0V510.08385a3.852,3.852,0,0,0-3.76613-3.76615Z"/><path class="cls-6" d="M573.35668,506.3177a3.76432,3.76432,0,0,0-3.76613,3.76617V592.609a3.76613,3.76613,0,1,0,7.53225,0V510.08385a3.76437,3.76437,0,0,0-3.76613-3.76615Z"/><path class="cls-6" d="M404.60621,506.3177a3.76432,3.76432,0,0,0-3.76613,3.76617V592.609a3.76613,3.76613,0,1,0,7.53225,0V510.08385a3.80735,3.80735,0,0,0-3.76613-3.76615Z"/><path class="cls-6" d="M385.84155,506.3177a3.76432,3.76432,0,0,0-3.76613,3.76617V592.609a3.76613,3.76613,0,1,0,7.53225,0V510.08385a3.76437,3.76437,0,0,0-3.76613-3.76615Z"/><path class="cls-6" d="M535.89334,506.3177a3.76432,3.76432,0,0,0-3.76613,3.76617V592.609a3.76613,3.76613,0,1,0,7.53225,0V510.08385a3.80757,3.80757,0,0,0-3.76613-3.76615Z"/><path class="cls-6" d="M517.12852,506.3177a3.76432,3.76432,0,0,0-3.76613,3.76617V592.609a3.76613,3.76613,0,1,0,7.53225,0V510.08385a3.80746,3.80746,0,0,0-3.76613-3.76615Z"/><path class="cls-6" d="M498.36386,506.3177a3.76432,3.76432,0,0,0-3.76613,3.76617V592.609a3.76439,3.76439,0,0,0,3.76613,3.76617A3.723,3.723,0,0,0,502.13,592.609V510.08385a3.80757,3.80757,0,0,0-3.76613-3.76615Z"/><path class="cls-7" d="M379.53925,481.65718a3.23253,3.23253,0,1,1,3.23346,3.234v1.60171"/><circle class="cls-8" cx="410.34543" cy="331.72451" r="30.80605"/><circle class="cls-9" cx="399.34282" cy="316.18514" r="9.62698"/><polygon class="cls-8" points="417.084 369.517 402.23 369.517 407.182 360.357 412.132 360.357 417.084 369.517"/><path d="M415.43449,363.26192a1.10987,1.10987,0,0,1-1.10907,1.108H405.197a1.11009,1.11009,0,0,1-1.1101-1.108h0a1.10921,1.10921,0,0,1,1.1101-1.1101h9.12846a1.109,1.109,0,0,1,1.10907,1.1101Z"/><line class="cls-7" x1="409.65677" y1="364.36996" x2="382.77271" y2="478.42447"/><circle class="cls-10" cx="346.92388" cy="318.16929" r="30.80605"/><circle class="cls-9" cx="335.92127" cy="302.62992" r="9.62698"/><polygon class="cls-10" points="353.662 355.962 338.808 355.962 343.761 346.802 348.711 346.802 353.662 355.962"/><path d="M352.01294,349.7067a1.10987,1.10987,0,0,1-1.10907,1.108h-9.12846a1.11009,1.11009,0,0,1-1.1101-1.108h0a1.10921,1.10921,0,0,1,1.1101-1.1101h9.12846a1.109,1.109,0,0,1,1.10907,1.1101Z"/><line class="cls-7" x1="346.23522" y1="350.81474" x2="382.77178" y2="480.91771"/><circle class="cls-11" cx="382.41391" cy="394.04356" r="33.88665"/><circle class="cls-9" cx="370.31105" cy="376.95025" r="10.58968"/><polygon class="cls-11" points="389.826 435.615 373.487 435.615 378.934 425.54 384.38 425.54 389.826 435.615"/><path d="M388.01188,428.73471a1.22085,1.22085,0,0,1-1.22,1.21884H376.7506a1.22109,1.22109,0,0,1-1.22111-1.21884h0a1.22013,1.22013,0,0,1,1.22111-1.22111h10.04131a1.21989,1.21989,0,0,1,1.22,1.22111Z"/><line class="cls-7" x1="381.65639" y1="429.95356" x2="381.65639" y2="478.42447"/><path class="cls-7" d="M561.08008,481.65718a3.23253,3.23253,0,1,1,3.23346,3.234v1.60171"/><circle class="cls-11" cx="563.83582" cy="333.90561" r="30.80605"/><circle class="cls-9" cx="552.83321" cy="318.36624" r="9.62698"/><polygon class="cls-11" points="570.574 371.698 555.72 371.698 560.673 362.538 565.623 362.538 570.574 371.698"/><path d="M568.92488,365.443a1.10987,1.10987,0,0,1-1.10907,1.108h-9.12846a1.11009,1.11009,0,0,1-1.1101-1.108h0a1.10921,1.10921,0,0,1,1.1101-1.1101h9.12846a1.109,1.109,0,0,1,1.10907,1.1101Z"/><line class="cls-7" x1="563.14716" y1="366.55106" x2="563.14716" y2="482.45869"/><circle class="cls-12" cx="582.97245" cy="385.64085" r="30.80605"/><circle class="cls-9" cx="571.96985" cy="370.10148" r="9.62698"/><polygon class="cls-12" points="589.711 423.433 574.857 423.433 579.809 414.274 584.759 414.274 589.711 423.433"/><path d="M588.06152,417.17826a1.10987,1.10987,0,0,1-1.10907,1.108H577.824a1.11009,1.11009,0,0,1-1.1101-1.108h0a1.10921,1.10921,0,0,1,1.1101-1.1101h9.12846a1.109,1.109,0,0,1,1.10907,1.1101Z"/><line class="cls-7" x1="582.2838" y1="418.2863" x2="561.08008" y2="485.05792"/><circle class="cls-13" cx="532.20175" cy="370.38775" r="30.80605"/><circle class="cls-9" cx="521.19915" cy="354.84838" r="9.62698"/><polygon class="cls-13" points="538.94 408.18 524.086 408.18 529.039 399.02 533.989 399.02 538.94 408.18"/><path d="M537.29082,401.92516a1.10987,1.10987,0,0,1-1.10907,1.108h-9.12846a1.11009,1.11009,0,0,1-1.1101-1.108h0a1.10921,1.10921,0,0,1,1.1101-1.1101h9.12846a1.109,1.109,0,0,1,1.10907,1.1101Z"/><line class="cls-7" x1="531.5131" y1="403.0332" x2="564.99821" y2="480.91771"/></g></svg>