<svg width="486" height="381" viewBox="0 0 486 381" xmlns="http://www.w3.org/2000/svg"><title>Group 9</title><defs><filter x="-50%" y="-50%" width="200%" height="200%" filterUnits="objectBoundingBox" id="a"><feGaussianBlur stdDeviation="4.656" in="SourceGraphic" result="blur"/></filter><radialGradient cx="30.038%" cy="17.558%" fx="30.038%" fy="17.558%" r="65.609%" id="b"><stop stop-color="#FFF" offset="0%"/><stop stop-color="#666" offset="50%"/><stop stop-color="#1D1D1D" offset="100%"/></radialGradient><linearGradient x1="84.703%" y1="111.359%" x2="58.202%" y2="64.571%" id="c"><stop stop-color="#AAA" offset="0%"/><stop stop-color="#AAA" offset="0%"/><stop stop-color="#717171" offset="41%"/><stop stop-color="#4A4A4A" offset="99%"/><stop stop-color="#4A4A4A" offset="100%"/></linearGradient><linearGradient x1="116.791%" y1="60.736%" x2="1.896%" y2="19.157%" id="d"><stop stop-color="#525252" offset="0%"/><stop stop-color="#525252" offset="0%"/><stop stop-color="#545454" offset="99%"/><stop stop-color="#545454" offset="100%"/></linearGradient><linearGradient x1="75.751%" y1="219.842%" x2="38.994%" y2="8.164%" id="e"><stop stop-color="#525252" offset="0%"/><stop stop-color="#525252" offset="0%"/><stop stop-color="#545454" offset="99%"/><stop stop-color="#545454" offset="100%"/></linearGradient><linearGradient x1="49.877%" y1="7.322%" x2="66.377%" y2="79.253%" id="f"><stop stop-color="#FFF" offset="0%"/><stop stop-color="#FFF" offset="0%"/><stop stop-color="#A3A3A3" offset="23%"/><stop stop-color="#7B7B7B" offset="46%"/><stop stop-color="#323232" offset="99%"/><stop stop-color="#323232" offset="100%"/></linearGradient><linearGradient x1="46.114%" y1="16.318%" x2="49.882%" y2="83.131%" id="g"><stop stop-color="#FFF" offset="0%"/><stop stop-color="#FFF" offset="0%"/><stop stop-color="#A1A1A1" offset="23%"/><stop stop-color="#606060" offset="56%"/><stop stop-color="#525252" offset="99%"/><stop stop-color="#525252" offset="100%"/></linearGradient><linearGradient x1="37.051%" y1="15.492%" x2="49.621%" y2="92.506%" id="h"><stop stop-color="#FFF" offset="0%"/><stop stop-color="#FFF" offset="0%"/><stop stop-color="#989898" offset="18%"/><stop stop-color="#676767" offset="40%"/><stop stop-color="#525252" offset="99%"/><stop stop-color="#525252" offset="100%"/></linearGradient><linearGradient x1="13.475%" y1="58.503%" x2="85.7%" y2="-46.284%" id="i"><stop stop-color="#FFF" offset="0%"/><stop stop-color="#FFF" offset="0%"/><stop stop-color="#646464" offset="54%"/><stop stop-color="#515151" offset="99%"/><stop stop-color="#515151" offset="100%"/></linearGradient><linearGradient x1="27.213%" y1="21.007%" x2="50.596%" y2="78.89%" id="j"><stop stop-color="#FFF" offset="0%"/><stop stop-color="#FFF" offset="0%"/><stop stop-color="#7F7F7F" offset="31%"/><stop stop-color="#5F5F5F" offset="99%"/><stop stop-color="#5F5F5F" offset="100%"/></linearGradient><linearGradient x1="-20.664%" y1="122.242%" x2="104.19%" y2="-6.319%" id="k"><stop stop-color="#3B3B3B" offset="0%"/><stop stop-color="#3B3B3B" offset="0%"/><stop stop-color="#FFF" offset="7%"/><stop stop-color="#FFF" offset="17%"/><stop stop-color="#6F6F6F" offset="27%"/><stop stop-color="#4D4D4D" offset="33%"/><stop stop-color="#585858" offset="46%"/><stop stop-color="#585858" offset="72%"/><stop stop-color="#6B6B6B" offset="99%"/><stop stop-color="#6B6B6B" offset="100%"/></linearGradient><linearGradient x1="58.546%" y1="65.306%" x2="11.848%" y2="50.238%" id="l"><stop stop-color="#4F4F4F" offset="0%"/><stop stop-color="#4F4F4F" offset="0%"/><stop stop-color="#505050" offset="54%"/><stop stop-color="#535353" offset="99%"/><stop stop-color="#535353" offset="100%"/></linearGradient><linearGradient x1="79.083%" y1="62.705%" x2="23.003%" y2="17.773%" id="m"><stop stop-color="#505050" offset="0%"/><stop stop-color="#505050" offset="0%"/><stop stop-color="#515151" offset="99%"/><stop stop-color="#515151" offset="100%"/></linearGradient><linearGradient x1="92.748%" y1="74.098%" x2="59.743%" y2="39.717%" id="n"><stop stop-color="#505050" offset="0%"/><stop stop-color="#505050" offset="0%"/><stop stop-color="#565656" offset="99%"/><stop stop-color="#565656" offset="100%"/></linearGradient><radialGradient cx="32.144%" cy="40.315%" fx="32.144%" fy="40.315%" r="69.609%" id="o"><stop stop-color="#525252" offset="0%"/><stop stop-color="#525252" offset="0%"/><stop stop-color="#4E4E4E" offset="99%"/><stop stop-color="#4E4E4E" offset="100%"/></radialGradient><radialGradient cx="13.643%" cy="41.011%" fx="13.643%" fy="41.011%" r="88.365%" id="p"><stop stop-color="#515151" offset="0%"/><stop stop-color="#515151" offset="0%"/><stop stop-color="#4F4F4F" offset="99%"/><stop stop-color="#4F4F4F" offset="100%"/></radialGradient><linearGradient x1="56.571%" y1="102.065%" x2="2.845%" y2="12.23%" id="q"><stop stop-color="#5B5B5B" offset="0%"/><stop stop-color="#5B5B5B" offset="0%"/><stop stop-color="#545454" offset="43%"/><stop stop-color="#575757" offset="99%"/><stop stop-color="#575757" offset="100%"/></linearGradient><linearGradient x1="30.979%" y1="36.673%" x2="92.434%" y2="101.513%" id="r"><stop stop-color="#565656" offset="0%"/><stop stop-color="#565656" offset="0%"/><stop stop-color="#525252" offset="44%"/><stop stop-color="#555" offset="99%"/><stop stop-color="#555" offset="100%"/></linearGradient></defs><g fill="none" fill-rule="evenodd"><path d="M321.316 295L0 330l141.7 38L470 330l-148.684-35z" opacity=".203" fill="#00273C" filter="url(#a)" transform="translate(8)"/><path d="M308.437 56.764c15.32-26.535 49.265-35.647 75.8-20.327 26.534 15.32 35.646 49.265 20.326 75.8-15.32 26.534-49.265 35.646-75.8 20.326-26.534-15.42-35.646-49.365-20.326-75.8" fill="#15B0BF"/><g transform="translate(311 60)"><ellipse fill="url(#b)" cx="46" cy="23.5" rx="45" ry="23.5"/><ellipse fill="gray" cx="45" cy="24" rx="43" ry="22"/><path d="M54.687 30.99l2.104-11.174c.506-2.54.1-4.368-1.2-5.587-1.2-1.12-3.304-1.73-6.41-1.73h-3.71l1.1-5.59c0-.203 0-.406-.1-.61a.55.55 0 0 0-.502-.3h-5.11c-.3 0-.602.202-.702.61L37.85 18.494c-.2-1.32-.7-2.54-1.502-3.454-1.504-1.722-3.91-2.64-7.116-2.64h-9.92c-.3 0-.602.207-.702.61L14 37.09c0 .203 0 .406.1.61.1.202.3.304.5.304h5.212c.3 0 .602-.202.702-.61l1.102-5.79h3.808c2.005 0 3.708-.202 5.01-.61 1.404-.405 2.607-1.22 3.71-2.233.9-.813 1.602-1.727 2.204-2.743l-.902 4.774c0 .204 0 .408.1.61s.3.306.5.306h5.112c.3 0 .6-.204.7-.61l2.507-13.206h3.507c1.503 0 1.904.303 2.105.405.1.102.3.508.1 1.83L48.073 30.79c0 .203 0 .407.1.61s.3.305.5.305h5.212c.4-.102.702-.305.802-.712zm-23.852-8.755c-.283 1.8-.85 2.965-1.7 3.706-.85.746-2.17 1.06-3.964 1.06H23l1.605-9h2.832c2.077 0 2.832.53 3.21.957.377.53.472 1.694.188 3.282zm45.62-6.655c-1.51-1.687-3.927-2.58-7.15-2.58h-9.968c-.302 0-.604.198-.705.595L54 37.107c0 .2 0 .397.1.595.1.2.303.298.504.298h5.236c.302 0 .605-.198.705-.595l1.108-5.655h3.826c2.01 0 3.72-.198 5.03-.595 1.41-.397 2.62-1.19 3.726-2.183.905-.793 1.71-1.785 2.214-2.778.605-.992 1.008-2.182 1.21-3.373.704-3.17.3-5.55-1.21-7.24zm-4.64 6.185c-.32 1.6-.956 2.635-1.912 3.294-.956.654-2.443.94-4.46.94H63l1.805-8h3.186c2.34 0 3.19.47 3.616.843.425.47.53 1.506.213 2.918z" fill="#FFF"/><path d="M26.467 17c1.99 0 3.28.404 3.877 1.11.696.708.796 2.02.497 3.738-.392 1.82-.99 3.132-2.082 3.94C27.76 26.596 26.17 27 24.082 27H21l1.89-10h3.577zM14 37h5.105l1.178-6.353h4.32c1.964 0 3.535-.202 4.713-.605 1.276-.403 2.356-1.11 3.338-2.118a10.05 10.05 0 0 0 2.062-2.62c.49-1.01.883-2.018 1.08-3.228.49-2.824.098-5.042-1.18-6.656-1.373-1.613-3.435-2.42-6.38-2.42h-9.72L14 37zM40.56 7h5.06l-1.19 6.38h4.56c2.876 0 4.86.506 5.85 1.52 1.09 1.01 1.39 2.632.992 4.96L53.75 31h-5.157l1.984-10.633c.198-1.215.1-2.025-.298-2.43-.4-.405-1.29-.71-2.58-.71h-4.07L41.057 31H36l4.56-24zm26.907 10c1.99 0 3.28.404 3.877 1.11.696.708.796 2.02.497 3.738-.392 1.82-.99 3.132-2.082 3.94C68.76 26.596 67.17 27 65.082 27H62l1.89-10h3.577zM55 37h5.105l1.178-6.353h4.32c1.964 0 3.535-.202 4.713-.605 1.276-.403 2.356-1.11 3.338-2.118a10.05 10.05 0 0 0 2.062-2.62c.49-1.01.883-2.018 1.08-3.228.49-2.824.098-5.042-1.18-6.656-1.373-1.613-3.435-2.42-6.38-2.42h-9.72L55 37z" fill="#020202"/></g><g transform="translate(311 60)"><ellipse fill="url(#b)" cx="46" cy="23.5" rx="45" ry="23.5"/><ellipse fill="gray" cx="45" cy="24" rx="43" ry="22"/><path d="M54.687 30.99l2.104-11.174c.506-2.54.1-4.368-1.2-5.587-1.2-1.12-3.304-1.73-6.41-1.73h-3.71l1.1-5.59c0-.203 0-.406-.1-.61a.55.55 0 0 0-.502-.3h-5.11c-.3 0-.602.202-.702.61L37.85 18.494c-.2-1.32-.7-2.54-1.502-3.454-1.504-1.722-3.91-2.64-7.116-2.64h-9.92c-.3 0-.602.207-.702.61L14 37.09c0 .203 0 .406.1.61.1.202.3.304.5.304h5.212c.3 0 .602-.202.702-.61l1.102-5.79h3.808c2.005 0 3.708-.202 5.01-.61 1.404-.405 2.607-1.22 3.71-2.233.9-.813 1.602-1.727 2.204-2.743l-.902 4.774c0 .204 0 .408.1.61s.3.306.5.306h5.112c.3 0 .6-.204.7-.61l2.507-13.206h3.507c1.503 0 1.904.303 2.105.405.1.102.3.508.1 1.83L48.073 30.79c0 .203 0 .407.1.61s.3.305.5.305h5.212c.4-.102.702-.305.802-.712zm-23.852-8.755c-.283 1.8-.85 2.965-1.7 3.706-.85.746-2.17 1.06-3.964 1.06H23l1.605-9h2.832c2.077 0 2.832.53 3.21.957.377.53.472 1.694.188 3.282zm45.62-6.655c-1.51-1.687-3.927-2.58-7.15-2.58h-9.968c-.302 0-.604.198-.705.595L54 37.107c0 .2 0 .397.1.595.1.2.303.298.504.298h5.236c.302 0 .605-.198.705-.595l1.108-5.655h3.826c2.01 0 3.72-.198 5.03-.595 1.41-.397 2.62-1.19 3.726-2.183.905-.793 1.71-1.785 2.214-2.778.605-.992 1.008-2.182 1.21-3.373.704-3.17.3-5.55-1.21-7.24zm-4.64 6.185c-.32 1.6-.956 2.635-1.912 3.294-.956.654-2.443.94-4.46.94H63l1.805-8h3.186c2.34 0 3.19.47 3.616.843.425.47.53 1.506.213 2.918z" fill="#FFF"/><path d="M26.467 17c1.99 0 3.28.404 3.877 1.11.696.708.796 2.02.497 3.738-.392 1.82-.99 3.132-2.082 3.94C27.76 26.596 26.17 27 24.082 27H21l1.89-10h3.577zM14 37h5.105l1.178-6.353h4.32c1.964 0 3.535-.202 4.713-.605 1.276-.403 2.356-1.11 3.338-2.118a10.05 10.05 0 0 0 2.062-2.62c.49-1.01.883-2.018 1.08-3.228.49-2.824.098-5.042-1.18-6.656-1.373-1.613-3.435-2.42-6.38-2.42h-9.72L14 37zM40.56 7h5.06l-1.19 6.38h4.56c2.876 0 4.86.506 5.85 1.52 1.09 1.01 1.39 2.632.992 4.96L53.75 31h-5.157l1.984-10.633c.198-1.215.1-2.025-.298-2.43-.4-.405-1.29-.71-2.58-.71h-4.07L41.057 31H36l4.56-24zm26.907 10c1.99 0 3.28.404 3.877 1.11.696.708.796 2.02.497 3.738-.392 1.82-.99 3.132-2.082 3.94C68.76 26.596 67.17 27 65.082 27H62l1.89-10h3.577zM55 37h5.105l1.178-6.353h4.32c1.964 0 3.535-.202 4.713-.605 1.276-.403 2.356-1.11 3.338-2.118a10.05 10.05 0 0 0 2.062-2.62c.49-1.01.883-2.018 1.08-3.228.49-2.824.098-5.042-1.18-6.656-1.373-1.613-3.435-2.42-6.38-2.42h-9.72L55 37z" fill="#020202"/></g><path d="M231.437 149.27c-15.32-26.546-6.208-60.504 20.327-75.83 26.534-15.326 60.48-6.21 75.8 20.335s6.207 60.503-20.328 75.83c-26.635 15.226-60.48 6.21-75.8-20.335" fill="#FFD301"/><path d="M231.862 132.095c1.19-.298 1.487-.695 1.388-1.39-.1-.596-.496-.994-1.09-.994-.694 0-1.09.4-1.19 1.59-2.676-2.78-4.064-6.054-3.965-9.83.297-6.155 4.46-11.02 10.507-12.213 4.164-.795 7.93.298 11.202 3.08.595.495.595.495.99-.1.3-.497.596-1.093.992-1.69.992 3.08 1.884 6.06 2.18 9.138.3 2.682.1 5.364-1.09 7.747-2.18 4.47-5.848 7.05-10.804 7.548-3.37.2-6.443-.794-9.12-2.88zm69.925-14.865c.865-1.066 1.73-1.648 2.884-1.842 2.98-.582 5.19 1.164 5.29 4.172.097 2.328 0 4.753 0 7.082 0 .873-.575 1.358-1.44 1.358-.77 0-1.346-.582-1.346-1.455v-5.53c0-.388 0-.68-.095-1.067-.29-1.455-1.155-2.232-2.69-2.232-1.348 0-2.405.97-2.5 2.33-.194 1.648 0 3.297-.098 4.85v1.552c0 .873-.575 1.358-1.44 1.358-.77 0-1.346-.582-1.346-1.358v-9.993c0-.776.578-1.358 1.347-1.455.77 0 1.346.485 1.44 1.26.098.486 0 .68 0 .97zM265.55 128c-1.863 0-3.432-.493-4.903-1.38-.687-.395-.785-1.085-.49-1.677.392-.59 1.078-.69 1.765-.295.882.493 1.765.986 2.844 1.084.294 0 .588.1.883 0 .88 0 1.564-.493 1.662-1.084.098-.69-.196-1.184-1.177-1.48-.786-.295-1.57-.492-2.355-.788-.39-.1-.783-.296-1.176-.493-1.177-.592-1.96-1.48-1.96-2.86-.1-1.48.587-2.662 1.862-3.352 1.373-.79 2.746-.79 4.218-.493.784.197 1.57.394 2.255.79.686.393.98 1.083.686 1.675-.294.592-.98.887-1.765.493-.784-.394-1.57-.69-2.45-.79-.59-.097-1.08 0-1.57.297-.685.394-.685 1.183-.097 1.676.393.395.98.592 1.47.69.786.296 1.67.493 2.453.888 1.864.89 2.452 1.977 2.256 3.85-.196 1.578-1.373 2.76-3.138 3.155-.49.1-.98.1-1.275.1zm23.658-11.268c.724-.988 1.655-1.48 2.794-1.68 1.345-.295 2.38.692 1.862 1.877-.207.49-.62.79-1.138.884-2.276.395-3.622 2.27-3.622 4.543v4.147c0 .988-.62 1.58-1.655 1.48-.83 0-1.45-.59-1.45-1.58v-9.676c0-1.185.72-1.876 1.86-1.68.723.1 1.14.594 1.344 1.68zm5.792 4.812v-4.858c0-.992.62-1.686 1.448-1.686.93 0 1.552.595 1.552 1.686v9.717c0 1.09-.62 1.685-1.552 1.586-.93 0-1.448-.6-1.448-1.69v-4.76zm3-9.95c0 .897-.62 1.495-1.552 1.395-.827 0-1.448-.6-1.448-1.5 0-.797.724-1.494 1.552-1.494.724.1 1.448.696 1.448 1.593z" fill="#919191"/><path d="M235.586 130.76c1.208-.398 2.517-.797 3.725-1.196 4.53-1.397 7.856-4.39 9.768-8.682.1-.2.202-.5.302-.7 0-.1 0-.1-.1-.2-.404.6-.706 1.1-1.11 1.698-2.516 3.393-5.94 5.49-10.065 6.487-1.41.3-2.82.698-4.228.998-.604.2-1.006-.1-1.41-.5-1.307-1.197-1.61-2.694-1.408-4.39.5-3.493 3.12-5.788 6.742-6.188 1.61-.2 3.323-.1 5.034-.4 3.523-.697 6.34-2.593 8.254-5.687.1.4.3.798.403 1.098.906 2.794 1.51 5.588 1.51 8.582 0 1.297-.2 2.694-.604 3.892-1.11 3.094-3.424 4.69-6.645 5.19-2.416.398-4.832.2-7.348.1h-2.215c-.302 0-.503.2-.604-.1z" fill="#FEFEFE"/><path fill="#F5F5F5" d="M235.545 130.464c.09-.02.273-.01.455-.01-.273-.02-.636-.01-1 0 .182 0 .364.01.545.01z"/><path d="M324.956 116.407c0-.904-.59-1.407-1.473-1.407-.786 0-1.376.603-1.376 1.508 0 .2.098.402-.098.704-.1-.1-.1-.2-.2-.2-2.26-3.118-7.075-2.414-8.84.903-1.28 2.413-1.28 4.926-.1 7.34 1.18 2.41 3.733 3.517 6.29 2.914 1.18-.307 2.06-.91 2.85-1.91-.1 1.804-1.18 3.01-2.755 3.212-1.67.3-3.242 0-4.716-.804-.786-.403-1.473-.2-1.866.502-.393.704-.098 1.307.786 1.71 2.065 1.004 4.128 1.306 6.388 1.004 3.143-.402 5.01-2.412 5.108-5.63.1-2.01 0-3.92 0-5.93v-3.92zm-3.842 8.26c-.97 1.185-2.33 1.58-3.688 1.185-1.358-.396-2.33-1.68-2.426-3.262v-.592c0-1.285.388-2.372 1.262-3.163 1.455-1.285 3.785-1.087 4.95.593 1.067 1.482 1.067 3.854-.098 5.238zm-40.757-9.51c-2.163-.5-3.933.2-5.31 2.004h-.196v-.6c-.093-.9-.683-1.5-1.47-1.4-.786 0-1.376.6-1.376 1.504v13.926c0 1 .69 1.502 1.574 1.4.786-.1 1.278-.7 1.278-1.6v-4.11s.1 0 .1-.1l.196.2c2.26 2.806 6.686 2.306 8.65-.7 1.28-2.003 1.477-4.207.887-6.41-.69-2.105-2.065-3.608-4.326-4.11zm1.142 8.975c-.577 1.18-1.626 1.868-2.96 1.868-2.098 0-3.72-1.966-3.53-4.227.097-1.082.478-2.065 1.24-2.85 1.717-1.574 4.196-1.083 5.245 1.08.667 1.278.667 2.753 0 4.13z" fill="#919191"/><path fill="#B8B8B8" d="M250.317 119.246c0-.01 0-.04.02-.03.02.01 0 .02 0 .03-.01.01-.02.01-.02 0z"/><path fill="#D8D8D8" d="M250.404 119.21h.01c-.01.01-.01.03-.02.04-.01-.02 0-.03.01-.04z"/><text fill="#737373" font-family="Helvetica" font-size="3.832" transform="translate(227 108)"><tspan x="73" y="31" fill="#000">by</tspan></text><g fill="#737373"><path d="M325.3 139v1-1h-.3.4-.1zm.2 1v-.8l-.2.8h-.1l-.2-.8v.8-1h.1l.2 1 .2-1h.1l-.1 1zm-15.8-5.3h-.7v-.7h.7v.7zm0 4.3h-.7v-4h.7v4zm5.3-3l-1.143 3.333c-.228.556-.57.667-.8.667-.457 0-.686-.222-.8-.667l-.914-2.777H311V136h1.03l1.027 3.11c0 .112.114.223.23.223.113 0 .113-.11.227-.222l1.03-3.11H315z"/><path d="M315.5 136c.844 0 1.5.686 1.5 1.714v.572c0 1.028-.656 1.714-1.5 1.714s-1.5-.686-1.5-1.714v-.572c0-1.028.656-1.714 1.5-1.714m.5 4c.667 0 1-.5 1-1.125v-.75c0-.625-.333-1.125-1-1.125s-1 .5-1 1.125v.625c0 .75.333 1.25 1 1.25m6.897-4.778c-.414-.11-.93-.222-1.345-.222-.93 0-1.552.667-1.552 1.778v.444c0 1.11.62 1.778 1.552 1.778h.31v-.667h-.31c-.518 0-.93-.444-.93-1.11v-.445c0-.667.31-1.11.93-1.11h.724v3.22H323v-3.555l-.103-.11M324 134h1v5h-1zm-17.784 0H305v5h.748v-4.255h.654c.655 0 .936.32.936.85v.107c0 .532-.28.85-.935.85h-.187v.64h.187c.935 0 1.59-.426 1.59-1.49v-.106c.093-1.17-.655-1.596-1.777-1.596"/><path d="M318.737 135v.667H320v.57h-1.263v1.906c0 .286.21.286.526.286H320v.57h-.947c-.737 0-1.053-.29-1.053-.86v-3.05l.737-.094z"/></g><path d="M231.862 132.095c1.19-.298 1.487-.695 1.388-1.39-.1-.596-.496-.994-1.09-.994-.694 0-1.09.4-1.19 1.59-2.676-2.78-4.064-6.054-3.965-9.83.297-6.155 4.46-11.02 10.507-12.213 4.164-.795 7.93.298 11.202 3.08.595.495.595.495.99-.1.3-.497.596-1.093.992-1.69.992 3.08 1.884 6.06 2.18 9.138.3 2.682.1 5.364-1.09 7.747-2.18 4.47-5.848 7.05-10.804 7.548-3.37.2-6.443-.794-9.12-2.88zm69.925-14.865c.865-1.066 1.73-1.648 2.884-1.842 2.98-.582 5.19 1.164 5.29 4.172.097 2.328 0 4.753 0 7.082 0 .873-.575 1.358-1.44 1.358-.77 0-1.346-.582-1.346-1.455v-5.53c0-.388 0-.68-.095-1.067-.29-1.455-1.155-2.232-2.69-2.232-1.348 0-2.405.97-2.5 2.33-.194 1.648 0 3.297-.098 4.85v1.552c0 .873-.575 1.358-1.44 1.358-.77 0-1.346-.582-1.346-1.358v-9.993c0-.776.578-1.358 1.347-1.455.77 0 1.346.485 1.44 1.26.098.486 0 .68 0 .97zM265.55 128c-1.863 0-3.432-.493-4.903-1.38-.687-.395-.785-1.085-.49-1.677.392-.59 1.078-.69 1.765-.295.882.493 1.765.986 2.844 1.084.294 0 .588.1.883 0 .88 0 1.564-.493 1.662-1.084.098-.69-.196-1.184-1.177-1.48-.786-.295-1.57-.492-2.355-.788-.39-.1-.783-.296-1.176-.493-1.177-.592-1.96-1.48-1.96-2.86-.1-1.48.587-2.662 1.862-3.352 1.373-.79 2.746-.79 4.218-.493.784.197 1.57.394 2.255.79.686.393.98 1.083.686 1.675-.294.592-.98.887-1.765.493-.784-.394-1.57-.69-2.45-.79-.59-.097-1.08 0-1.57.297-.685.394-.685 1.183-.097 1.676.393.395.98.592 1.47.69.786.296 1.67.493 2.453.888 1.864.89 2.452 1.977 2.256 3.85-.196 1.578-1.373 2.76-3.138 3.155-.49.1-.98.1-1.275.1zm23.658-11.268c.724-.988 1.655-1.48 2.794-1.68 1.345-.295 2.38.692 1.862 1.877-.207.49-.62.79-1.138.884-2.276.395-3.622 2.27-3.622 4.543v4.147c0 .988-.62 1.58-1.655 1.48-.83 0-1.45-.59-1.45-1.58v-9.676c0-1.185.72-1.876 1.86-1.68.723.1 1.14.594 1.344 1.68zm5.792 4.812v-4.858c0-.992.62-1.686 1.448-1.686.93 0 1.552.595 1.552 1.686v9.717c0 1.09-.62 1.685-1.552 1.586-.93 0-1.448-.6-1.448-1.69v-4.76zm3-9.95c0 .897-.62 1.495-1.552 1.395-.827 0-1.448-.6-1.448-1.5 0-.797.724-1.494 1.552-1.494.724.1 1.448.696 1.448 1.593z" fill="#919191"/><path d="M235.586 130.76c1.208-.398 2.517-.797 3.725-1.196 4.53-1.397 7.856-4.39 9.768-8.682.1-.2.202-.5.302-.7 0-.1 0-.1-.1-.2-.404.6-.706 1.1-1.11 1.698-2.516 3.393-5.94 5.49-10.065 6.487-1.41.3-2.82.698-4.228.998-.604.2-1.006-.1-1.41-.5-1.307-1.197-1.61-2.694-1.408-4.39.5-3.493 3.12-5.788 6.742-6.188 1.61-.2 3.323-.1 5.034-.4 3.523-.697 6.34-2.593 8.254-5.687.1.4.3.798.403 1.098.906 2.794 1.51 5.588 1.51 8.582 0 1.297-.2 2.694-.604 3.892-1.11 3.094-3.424 4.69-6.645 5.19-2.416.398-4.832.2-7.348.1h-2.215c-.302 0-.503.2-.604-.1z" fill="#FEFEFE"/><path fill="#F5F5F5" d="M235.545 130.464c.09-.02.273-.01.455-.01-.273-.02-.636-.01-1 0 .182 0 .364.01.545.01z"/><path d="M324.956 116.407c0-.904-.59-1.407-1.473-1.407-.786 0-1.376.603-1.376 1.508 0 .2.098.402-.098.704-.1-.1-.1-.2-.2-.2-2.26-3.118-7.075-2.414-8.84.903-1.28 2.413-1.28 4.926-.1 7.34 1.18 2.41 3.733 3.517 6.29 2.914 1.18-.307 2.06-.91 2.85-1.91-.1 1.804-1.18 3.01-2.755 3.212-1.67.3-3.242 0-4.716-.804-.786-.403-1.473-.2-1.866.502-.393.704-.098 1.307.786 1.71 2.065 1.004 4.128 1.306 6.388 1.004 3.143-.402 5.01-2.412 5.108-5.63.1-2.01 0-3.92 0-5.93v-3.92zm-3.842 8.26c-.97 1.185-2.33 1.58-3.688 1.185-1.358-.396-2.33-1.68-2.426-3.262v-.592c0-1.285.388-2.372 1.262-3.163 1.455-1.285 3.785-1.087 4.95.593 1.067 1.482 1.067 3.854-.098 5.238zm-40.757-9.51c-2.163-.5-3.933.2-5.31 2.004h-.196v-.6c-.093-.9-.683-1.5-1.47-1.4-.786 0-1.376.6-1.376 1.504v13.926c0 1 .69 1.502 1.574 1.4.786-.1 1.278-.7 1.278-1.6v-4.11s.1 0 .1-.1l.196.2c2.26 2.806 6.686 2.306 8.65-.7 1.28-2.003 1.477-4.207.887-6.41-.69-2.105-2.065-3.608-4.326-4.11zm1.142 8.975c-.577 1.18-1.626 1.868-2.96 1.868-2.098 0-3.72-1.966-3.53-4.227.097-1.082.478-2.065 1.24-2.85 1.717-1.574 4.196-1.083 5.245 1.08.667 1.278.667 2.753 0 4.13z" fill="#919191"/><path fill="#B8B8B8" d="M250.317 119.246c0-.01 0-.04.02-.03.02.01 0 .02 0 .03-.01.01-.02.01-.02 0z"/><path fill="#D8D8D8" d="M250.404 119.21h.01c-.01.01-.01.03-.02.04-.01-.02 0-.03.01-.04z"/><text fill="#737373" font-family="Helvetica" font-size="3.832" transform="translate(227 108)"><tspan x="73" y="31" fill="#000">by</tspan></text><g fill="#737373"><path d="M325.3 139v1-1h-.3.4-.1zm.2 1v-.8l-.2.8h-.1l-.2-.8v.8-1h.1l.2 1 .2-1h.1l-.1 1zm-15.8-5.3h-.7v-.7h.7v.7zm0 4.3h-.7v-4h.7v4zm5.3-3l-1.143 3.333c-.228.556-.57.667-.8.667-.457 0-.686-.222-.8-.667l-.914-2.777H311V136h1.03l1.027 3.11c0 .112.114.223.23.223.113 0 .113-.11.227-.222l1.03-3.11H315z"/><path d="M315.5 136c.844 0 1.5.686 1.5 1.714v.572c0 1.028-.656 1.714-1.5 1.714s-1.5-.686-1.5-1.714v-.572c0-1.028.656-1.714 1.5-1.714m.5 4c.667 0 1-.5 1-1.125v-.75c0-.625-.333-1.125-1-1.125s-1 .5-1 1.125v.625c0 .75.333 1.25 1 1.25m6.897-4.778c-.414-.11-.93-.222-1.345-.222-.93 0-1.552.667-1.552 1.778v.444c0 1.11.62 1.778 1.552 1.778h.31v-.667h-.31c-.518 0-.93-.444-.93-1.11v-.445c0-.667.31-1.11.93-1.11h.724v3.22H323v-3.555l-.103-.11M324 134h1v5h-1zm-17.784 0H305v5h.748v-4.255h.654c.655 0 .936.32.936.85v.107c0 .532-.28.85-.935.85h-.187v.64h.187c.935 0 1.59-.426 1.59-1.49v-.106c.093-1.17-.655-1.596-1.777-1.596"/><path d="M318.737 135v.667H320v.57h-1.263v1.906c0 .286.21.286.526.286H320v.57h-.947c-.737 0-1.053-.29-1.053-.86v-3.05l.737-.094z"/></g><path d="M357 138.5c0-30.655 24.845-55.5 55.5-55.5s55.5 24.845 55.5 55.5-24.845 55.5-55.5 55.5-55.5-24.845-55.5-55.5" fill="#002F47"/><path d="M387 178.26c1.452-.59 2.42-1.674 2.71-3.25.193-1.082.193-2.066.193-3.15V157c0-.69.097-1.083.968-.985 2.13.098 2.13 0 2.13 2.264v14.07c0 1.18 0 2.362-.383 3.543-.58 1.87-1.84 3.15-3.484 3.937-.58.296-.97.198-1.26-.294-.192-.297-.385-.69-.772-.79-.096-.196-.096-.294-.096-.49zM417.533 90c1.404 1.695 1.705 3.69 1.303 5.782-.5 2.692-2.105 4.886-3.91 6.78-1.304 1.396-2.808 2.592-4.312 3.888-1.204.997-2.307 2.094-3.21 3.39-1.503 2.293-1.604 4.686-.4 7.078.802 1.596 2.005 3.09 3.008 4.587.3.398.602.797.802 1.495-.902-.598-1.504-1.196-2.206-1.795-1.705-1.694-3.41-3.39-4.613-5.583-1.504-2.79-1.303-4.785.602-7.278 1.404-1.794 3.21-3.19 5.014-4.586 1.91-1.495 3.81-2.99 5.42-4.785 2.206-2.493 3.21-5.484 2.507-8.973zm-2.29 81.697c1.19-3.01 2.08-6.12 2.574-9.325.1-.97.396-1.457 1.584-1.36 1.787.097 1.787 0 1.39 1.75-.79 3.884-1.98 7.77-3.662 11.46-.297.584-.494.778-1.187.778-2.772 0-2.772 0-3.564-2.623-1.09-3.497-2.178-6.896-3.266-10.393-.2-.68-.2-.972.69-.972 2.177 0 2.177 0 2.87 2.04.792 2.914 1.782 5.73 2.574 8.645z" fill="#FFF"/><path d="M398.575 142.62c-1.594.312-3.19.52-4.584 1.243-.494.207-1.092.414-1.092 1.035 0 .62.698.62 1.196.828 2.294.828 4.685 1.14 7.077 1.242 6.678.518 13.455.414 20.13-.207 2.49-.202 4.984-.512 7.376-1.24 1.096-.31 2.392-.514 2.59-2.07 0-.31.3-.204.4-.1.498.414.398.93 0 1.345-.598.726-1.396 1.14-2.293 1.45-3.09 1.242-6.277 1.76-9.466 2.174-6.877.93-13.754.827-20.63.206-2.79-.31-5.58-.62-8.272-1.24-.796-.208-1.793-.312-1.992-1.347-.1-1.036.797-1.45 1.495-1.864 2.092-1.242 4.285-1.863 6.777-2.07.398.31.797.31 1.295.62z" fill="#B3B3B3"/><path d="M414.854 124.915c1.607-2.185 1.105-4.17-.603-6.058-1.2-1.29-2.004-2.88-2.21-4.668-.3-2.786 1.11-4.87 3.12-6.56 2.41-1.986 5.223-3.277 8.136-4.27.502-.2.904-.497 1.708-.298a65.648 65.648 0 0 0-2.812 1.787c-1.807 1.192-3.515 2.384-5.022 3.973-1.91 2.085-2.11 3.774-.703 6.058.503.796 1.106 1.59 1.608 2.385 1.206 1.787 1.206 3.476 0 5.263a8.383 8.383 0 0 1-2.31 2.284c-.302.1-.503.298-.904.1z" fill="#FFF"/><path d="M421 140.817c-5.946 2.283-11.79 2.905-17.838 1.245-.907-.207-1.713-.622-2.418-1.14-1.008-.83-1.008-1.66.1-2.387.404-.207.807-.415 1.21-.518.1 0 .403-.104.403.207-.202 1.037.705 1.037 1.21 1.14 3.123.52 6.247.727 9.472.416.7-.104 1.41-.207 2.212-.31 2.62-.416 2.62-.416 5.644 1.347zm-17.158-16.757c-1.688.556-3.178.834-4.47 1.482-.396.185-.992.277-.892.832.1.556.695.556 1.092.648 2.78.555 5.56.555 8.44.463 5.065-.093 10.13-.37 15.094-1.203.298 0 .596-.093.894.092-1.59 1.296-3.575 1.48-5.56 1.76a80.527 80.527 0 0 1-18.868.554c-1.59-.093-3.078-.278-4.568-.833-.397-.185-.993-.278-.993-.74-.094-.463.5-.74.9-.926 1.687-1.11 6.255-2.5 8.936-2.13zm-3.095 6.94c-.305 1.565-.1 1.982 1.424 2.19 4.58.627 9.157.627 13.73-.103.41-.105.816-.105 1.22-.21 2.54-.416 2.54-.416 4.88 1.15-1.73.625-3.453.938-5.182 1.25-4.88.835-9.864 1.044-14.745.105-1.12-.21-2.237-.522-3.254-1.148-1.017-.626-1.12-1.46-.1-2.19.2-.21.506-.314.81-.522.306-.105.713-.313 1.22-.522zM435 146c-.203 1.193-1.014 1.844-1.926 2.495-2.23 1.41-4.663 1.952-7.096 2.386-8.11 1.41-16.22 1.41-24.43.44-.912-.11-1.825-.435-2.737-.65-.3-.11-.502-.22-.81-.327 1.52-.217 2.94.216 4.36.216 9.228.65 18.25.325 27.27-2.06.914-.218 1.826-.65 2.738-.978 1.014-.325 1.825-.867 2.636-1.52zm-10-11.1c1.238-.695 2.38-1.39 3.333-2.185 1.047-.895 2-1.79 2.666-3.08.76-1.49.95-2.98-.19-4.273-1.05-1.292-2.386-1.79-4-1.39-.19.098-.386.098-.767.197.096-.2.19-.3.286-.4 2.57-1.69 7.047-.598 7.62 3.18.19 1.19-.19 2.283-.858 3.28-1.904 2.68-4.76 3.872-7.713 4.77 0-.1-.094-.1-.38-.1z" fill="#B3B3B3"/><path fill="#9A9A9A" d="M410.9 122.925h.1c0 .1 0 .1-.1 0 0 .1 0 .1 0 0z"/><g fill="#FFF"><path d="M433 174.875v-9.607c-.097-2.124-1.163-3.54-3.1-4.045-2.23-.506-4.36-.1-6.493.708-1.066.41-.29 1.117-.194 1.62 0 .71.58.2.775.2 1.55-.4 3.004-.804 4.555-.4.97.2 1.453.91 1.55 1.92.194 1.72.194 1.72-1.55 1.82-1.842.1-3.586.306-5.136 1.62-1.26 1.11-1.744 3.236-1.163 4.955.485 1.417 1.744 2.226 3.488 2.327 1.55.1 2.81-.404 4.07-1.314.194-.102.68-.607.68 0 0 1.213.677 1.112 1.452 1.213.97 0 1.066-.303 1.066-1.01zm-3.568-1.822c-1.032.64-1.97 1.17-3.19.852-.845-.213-1.22-.96-1.22-1.917-.094-1.065.094-1.917.938-2.45 1.126-.638 2.44-.53 3.66-.53.375 0 .375.318.375.638v1.384c-.094.532.282 1.384-.563 2.023zm-26.49-11.85c-2.262-.502-4.427 0-6.592.705-.492.2-.492.402-.394.804.295 1.208.295 1.208 1.476.906.197-.1.394-.1.69-.2 1.278-.203 2.558-.504 3.837 0 1.08.4 1.57 1.608 1.274 3.117-.196.905-1.082.402-1.673.503-1.67.2-3.246.302-4.722 1.308-1.575 1.106-2.165 3.017-1.673 5.03.49 1.61 1.77 2.514 3.64 2.614 1.77.1 3.248-.603 4.724-1.81.295 1.61.295 1.51 1.673 1.51.59 0 .787-.102.787-.806v-9.757c.1-2.113-.983-3.42-3.05-3.923zm-.095 11.424c-.093.213-.186.32-.464.426-1.02.64-1.95 1.17-3.155.852-.835-.213-1.206-.96-1.206-1.917-.093-1.065.093-1.917.928-2.45 1.113-.638 2.412-.53 3.618-.53.37 0 .37.318.37.638v1.277c0 .64.187 1.278-.09 1.704z"/><path d="M404.443 170.286V169v1.286c0 .535-.01 1.178.02 1.714-.03-.43-.01-1.07-.02-1.714z"/></g><path d="M169.437 27.764c15.32-26.535 49.265-35.647 75.8-20.327 26.534 15.32 35.646 49.265 20.326 75.8-15.32 26.534-49.265 35.646-75.8 20.326-26.534-15.42-35.646-49.365-20.326-75.8" fill="#595959"/><path d="M207.72 43.41c-2.288-2.788-5.074-4.58-8.557-5.176-.995-.2-1.89.1-2.487 1.095-.2.293-.398.293-.697.293-1.2-.2-2.29-.398-3.487-.398-4.876-.1-8.557 1.99-10.846 6.368-1.59 2.985-1.59 6.17-.796 9.454.797 3.283 2.49 6.17 4.48 8.855.2.3.2.498 0 .796-3.583 3.88-6.767 7.96-9.653 12.24-1.192 1.89-2.485 3.682-3.38 5.772-.2.398-.3.796-.3 1.294 0 .298.1.398.4.398h8.456c.3 0 .498 0 .398-.398-.297-1.194-.297-2.39-.1-3.583 1.096-5.173 4.28-8.457 9.255-9.95.398-.1.597 0 .896.2 3.384 3.284 7.065 6.17 10.846 8.857.2.1.3.2.496.2h6.268c.3 0 .4-.1.4-.3 0-1.394-.498-2.29-1.79-2.688-1.096-.4-2.09-.4-3.186-.1-.398.1-.597 0-.895-.3-1.296-1.69-1.89-3.68-2.09-5.77 0-.4.1-.4.396-.4 2.787.3 5.474.698 8.16 1.196 6.07 1.292 12.04 3.183 17.81 5.57 6.368 2.59 12.637 5.674 18.706 8.858.3.2.597.2.995.2h7.465c.995 0 1.194-.2 1.094-1.295 0-.3-.1-.598-.3-.896-.5-.994-1.194-1.79-2.19-2.487a10.55 10.55 0 0 0-4.18-1.492c-.695-.1-1.39.1-1.99-.2-.595-.297-.894-.994-1.39-1.49-3.484-3.783-7.066-7.564-10.648-11.346-.198-.2-.297-.3 0-.598 3.583-2.587 6.47-5.672 8.857-9.454.2-.2.298-.298.597-.298h4.08c.397 0 .497-.2.397-.498 0-.298.1-.597-.397-.597h-3.78l.596-1.194c.1-.2.2-.297.497-.297h2.787c.497 0 .398-.3.398-.498 0-.3.1-.597-.397-.597h-2.488c0-.2.1-.397.1-.497 1.89-4.377 2.885-8.955 3.084-13.73.1-2.587-.1-5.074-.4-7.66-.196-1.494-.395-2.987-.892-4.48-.1-.298-.2-.398-.597-.298-1.592.696-3.085 1.69-4.38 2.786-1.39 1.193-2.685 2.487-3.38 4.18-.1.297-.3.2-.398.1-4.975-.7-9.95-.6-14.826.197-.298 0-.398 0-.497-.298-.2-.897-.697-1.594-1.194-2.29-1.493-1.89-3.582-3.284-5.672-4.38-1.19-.596-1.19-.596-1.59.598-1.094 3.382-1.392 6.865-1.193 10.447a40.34 40.34 0 0 0 1.195 8.36c.1.298 0 .397-.3.397-.495.1-.993.2-1.49.4-10.25 3.183-19.403 8.36-27.164 15.92-.2.2-.297.3-.496 0a27.64 27.64 0 0 1-2.787-4.677c-1.294-2.886-2.19-5.87-1.592-8.956.697-3.58 2.588-6.27 6.07-7.76 2.488-1.096 5.075-.897 7.76-.5.3 0 .2.2.2.4 0 .995.3 1.79 1.194 2.19.3.1.696.297.994.397 1.094.398 2.29.497 3.482.497 2.19.4 4.08.2 6.07-.695z" fill="#FEFEFE"/><path d="M208.518 43.162c-1.99.795-3.88.994-5.87.994-1.194 0-2.388-.2-3.482-.497-.298-.1-.696-.2-.995-.4-.89-.4-1.29-1.195-1.19-2.19 0-.2.1-.297-.2-.397-2.584-.397-5.27-.596-7.76.497-3.48 1.49-5.37 4.176-6.07 7.754-.595 3.18.2 6.162 1.59 8.945.8 1.69 1.795 3.18 2.79 4.67.2.3.298.2.497 0 7.76-7.553 16.914-12.722 27.16-15.902.5-.1.996-.298 1.493-.398.3-.1.3-.2.3-.397a38.41 38.41 0 0 1-1.196-8.35c-.1-3.577.1-7.056 1.194-10.435.398-1.29.497-1.29 1.592-.594 2.19 1.094 4.177 2.485 5.67 4.374.497.694.995 1.39 1.194 2.285.1.298.2.298.497.298 4.978-.794 9.95-.894 14.827-.2.2 0 .3.1.398-.097.697-1.69 1.99-2.982 3.383-4.175 1.393-1.094 2.786-2.088 4.378-2.784.397-.2.497-.1.596.298.497 1.49.696 2.982.895 4.473.298 2.485.497 5.07.398 7.653-.2 4.77-1.095 9.343-3.084 13.716-.1.1-.2.298-.1.497h2.486c.498 0 .398.3.398.597s.1.493-.398.493h-2.785c-.3 0-.4.1-.5.3-.2.396-.396.694-.595 1.19h3.78c.498 0 .4.3.4.598s0 .498-.4.498h-4.078c-.3 0-.398.1-.597.3-2.29 3.675-5.274 6.856-8.856 9.44-.298.2-.2.3 0 .596 3.582 3.777 7.064 7.554 10.646 11.33.498.498.797 1.194 1.394 1.492.497.296 1.293.097 1.99.197 1.492.2 2.885.597 4.178 1.49.995.598 1.69 1.393 2.19 2.486.098.3.198.597.297.895.1 1.094 0 1.293-1.097 1.293h-7.462c-.397 0-.695-.1-.994-.2-6.17-3.18-12.34-6.26-18.706-8.846-5.77-2.286-11.64-4.274-17.81-5.566a57.674 57.674 0 0 0-8.156-1.192c-.3 0-.398 0-.398.398.2 2.086.795 4.074 2.09 5.764.197.297.496.397.894.297 1.095-.298 2.09-.298 3.184.1 1.294.497 1.79 1.39 1.79 2.683 0 .298-.098.298-.397.298h-6.267a.76.76 0 0 1-.497-.197c-3.78-2.683-7.462-5.565-10.845-8.845-.296-.3-.495-.3-.893-.2-4.975 1.59-8.158 4.773-9.253 9.94-.298 1.194-.2 2.386.1 3.58.1.397 0 .397-.398.397H173.4c-.3 0-.4-.1-.4-.398 0-.498.1-.895.3-1.293.895-2.086 2.09-3.875 3.382-5.764 2.886-4.374 6.17-8.45 9.652-12.226.298-.298.298-.397 0-.795-1.99-2.685-3.582-5.567-4.477-8.847-.796-3.18-.796-6.362.796-9.443 2.29-4.373 5.87-6.46 10.845-6.36 1.194 0 2.288.198 3.482.396.3.1.498 0 .697-.3.497-.992 1.393-1.19 2.487-1.09 3.284.397 6.07 2.187 8.358 4.87zm28.51 31.887c0-.2.198-.2.297-.3.894-.688 1.788-1.377 2.682-1.967.398-.295.298-.394 0-.69-.496-.49-.993-.982-1.49-1.572-.198-.294-.397-.294-.794-.1-.994.494-1.987.887-3.18 1.478.1-.197.2-.295.2-.394.596-.885 1.092-1.672 1.688-2.557.1-.197.2-.394 0-.59-.293-.295-.59-.59-.79-.886-.2-.195-.3-.195-.496-.097-.297.197-.694.393-.992.59a.64.64 0 0 1-.595 0c-4.767-2.852-8.74-6.393-11.82-11.016-.198-.292-.298-.292-.596-.292h-4.27c-.4 0-.5-.1-.5-.492 0-.394.1-.59.598-.59h3.974c-.2-.394-.496-.787-.595-1.18-.1-.296-.298-.296-.497-.296h-2.98c-.397 0-.497-.197-.397-.49 0-.298-.1-.593.398-.593h2.78c-.792-1.573-1.39-3.147-1.885-4.82-.1-.294-.3-.196-.497-.098-2.185.49-4.172 1.28-6.258 2.063-.397.097-.397.294-.298.59.397.983.695 2.065 1.092 3.05.297 1.08.794 2.064.992 3.146-.198 0-.298-.097-.397-.195-1.69-1.08-3.378-2.26-5.067-3.343-.5-.293-.994-.883-1.59-.883-.596 0-1.093.49-1.69.786h-.1c-.2.1-.297.198-.1.395.3.492.498.885.796 1.377.396.787.893 1.475 1.29 2.262-.298 0-.397-.098-.496-.196-1.39-.69-2.68-1.376-4.07-2.064-.3-.098-.498-.197-.796 0-.794.492-1.688 1.082-2.483 1.574-.3.194-.3.293-.2.59.3.785.498 1.67.697 2.46.1.292.198.59.198.98-.993-.69-1.986-1.38-2.98-2.066-.198-.197-.397-.197-.596 0a60.354 60.354 0 0 0-6.06 5.213c-.2.197-.2.295 0 .59 1.093 1.28 2.185 2.46 3.377 3.738.2.197.3.197.597.197a12.685 12.685 0 0 1 2.782-.294c1.687 0 3.376 0 5.065.097.3 0 .398 0 .398-.394.1-2.064.397-4.13.894-6.097.2-.885.2-.885 1.195-.688.497.098.497.295.397.688-.496 1.967-.894 4.033-.993 6.098 0 .396.1.59.497.59a79.63 79.63 0 0 1 6.753.888c6.755 1.28 13.31 3.342 19.668 5.8 6.358 2.557 12.517 5.507 18.576 8.655.3.197.698.295 1.095.295H256c-.497-1.575-3.08-3.247-5.066-3.247a6.072 6.072 0 0 0-1.887 0 .763.763 0 0 1-.497-.196c-2.086-2.165-4.073-4.328-6.16-6.59-.197-.198-.396-.296-.694-.198-.497.197-1.093.296-1.59.394-1.29.492-2.185.787-3.08.885zm8.142-21.188h-2.992c-.4 0-.5-.2-.4-.5 0-.3-.1-.6.4-.6h3.292c.3 0 .4-.098.498-.398.3-.6.5-1.298.798-1.898.1-.3.1-.4-.2-.5a27.51 27.51 0 0 0-1.595-.6c.8-.2 1.4-.4 2.1-.6.2 0 .3-.1.4-.3.198-.797.497-1.496.597-2.295-.798-.1-1.596-.3-2.494-.4.898-.4 1.696-.697 2.494-1.097.2-.1.4-.2.4-.4.298-1.597.398-3.195.498-4.693.1-2.895 0-5.792-.2-8.59-.097-.897-.197-1.895-.397-2.894-.1.5-.2.9-.3 1.297-.697 2.297-1.695 4.394-3.59 5.892-.2.2-.4.2-.698.1-2.595-.7-5.288-1-7.88-1.1-.4 0-.5.1-.6.4-.4 1.498-.898 3.096-1.297 4.594 0 .2 0 .3-.2.5-.1-.2-.1-.3-.2-.4-.697-1.6-1.395-3.098-2.093-4.696-.1-.2-.2-.398-.5-.298-2.692.2-5.286.6-7.88 1.298-.3.1-.498.1-.698-.1-1.696-.8-2.794-2.097-3.49-3.795-.5-1.198-.8-2.397-1.1-3.795-.4 1.498-.6 2.796-.7 4.194-.3 3.395-.1 6.69.4 9.986.1.4.2.7.6.8.997.5 1.894 1 2.892 1.5.2.1.4.2.7.4-1.097.1-2.095.1-3.092.2-.3 0-.5.1-.4.5.2.497.3.997.4 1.496.1.3.2.4.5.5.597.2 1.196.5 1.894.798-.598.2-.997.3-1.495.4-.3.1-.3.2-.2.4a43.4 43.4 0 0 0 1.298 3.197c.1.3.3.4.5.3h2.89c.5 0 .3.3.4.6 0 .297.1.497-.4.497h-2.692c.2.4.5.8.698 1.2.1.198.3.298.5.298h1.296c.5-.1.597.1.597.6 0 .3-.1.5-.498.5h-1.1c.1.1.1.2.2.3 2.693 3.894 5.985 6.99 10.174 9.187.3.2.5.2.798 0 3.392-1.998 6.185-4.595 8.58-7.69.398-.5.797-1.1 1.196-1.698h-1.597c-.4 0-.4-.1-.5-.5 0-.5.1-.7.6-.6h.7c1.496 0 1.496 0 2.194-1.396v-.1zM175 82h5.54c.3 0 .4-.097.3-.388-.1-.873 0-1.843.202-2.716 1.21-5.14 4.43-8.537 9.567-10.283.5-.194.5-.194.1-.582-.91-.87-1.817-1.84-2.52-2.81-.2-.29-.405-.29-.606 0-4.13 4.367-7.855 8.927-11.077 13.87-.504.97-1.007 1.847-1.51 2.91z" fill="#030303"/><path d="M249.934 81.66c1.987 0 4.57 1.72 5.066 3.34h-6.557c-.396 0-.694-.1-1.092-.304-6.054-3.238-12.213-6.273-18.57-8.904-6.357-2.63-12.913-4.756-19.67-5.97a72.45 72.45 0 0 0-6.753-.91c-.398 0-.596-.203-.497-.608.1-2.125.496-4.25.992-6.274.1-.405.1-.607-.395-.708-.894-.203-.894-.203-1.192.708-.496 2.024-.893 4.15-.893 6.274 0 .303-.1.405-.398.405-1.69-.107-3.378-.208-5.066-.107-.894 0-1.788.102-2.782.304-.198 0-.397 0-.596-.2-1.192-1.217-2.284-2.53-3.377-3.848-.2-.203-.2-.405 0-.608a60.864 60.864 0 0 1 6.06-5.363c.2-.203.398-.1.596 0l2.98 2.124c0-.405-.1-.708-.2-1.012-.2-.81-.497-1.72-.696-2.53-.1-.303 0-.404.2-.606.795-.507 1.69-1.013 2.483-1.62.298-.203.497-.203.795 0 1.39.71 2.682 1.416 4.073 2.124.2.103.3.204.497.204-.496-.81-.894-1.62-1.29-2.328-.3-.506-.498-.91-.796-1.417-.1-.205-.1-.306.1-.407h.1c.596-.305 1.093-.81 1.69-.81.595 0 .992.606 1.59.91 1.687 1.112 3.375 2.327 5.064 3.44.1.1.2.202.398.202-.197-1.113-.694-2.125-.992-3.238a39.224 39.224 0 0 0-1.093-3.137c-.1-.302-.1-.505.298-.606a76.007 76.007 0 0 1 6.26-2.124c.2 0 .4-.202.498.1.497 1.72 1.093 3.34 1.887 4.96h-2.78c-.497 0-.397.303-.397.607s0 .507.397.507h2.98c.298 0 .397 0 .497.3.2.406.4.71.598 1.215h-3.973c-.496 0-.596.1-.596.606 0 .404.1.506.497.506h4.27c.3 0 .5.1.598.302 3.08 4.756 7.054 8.4 11.82 11.333.2.1.4.1.598 0 .298-.2.695-.404.993-.606.2-.1.3-.1.497.1.298.305.496.608.794.91.2.204.2.306 0 .61-.594.91-1.09 1.72-1.686 2.63-.1.1-.1.202-.2.405a96.6 96.6 0 0 0 3.18-1.518c.3-.202.497-.1.795.1.496.507.893 1.114 1.49 1.62.297.304.297.405 0 .708-.895.71-1.79 1.316-2.683 2.024-.1.1-.297.1-.297.303h-.1c.1 0 .1 0 .1-.1.893-.103 1.787-.406 2.68-.61.596-.1 1.093-.302 1.59-.403.298-.1.496 0 .695.2 2.086 2.228 4.073 4.454 6.16 6.78.197.204.297.305.495.204.993-.202 1.688-.202 2.284-.202z" fill="#A1A1A1"/><path d="M245.17 53.866v.1c-.698 1.398-.698 1.398-2.194 1.398h-.698c-.5-.1-.6.1-.6.6 0 .3.1.5.5.5h1.596c-.4.598-.798 1.197-1.197 1.696a31.482 31.482 0 0 1-8.58 7.69c-.298.2-.497.2-.797 0-4.19-2.197-7.58-5.293-10.174-9.188 0-.1-.1-.1-.2-.3h1.098c.4 0 .4-.1.498-.5 0-.498-.1-.698-.598-.598-.4.1-.898 0-1.297 0-.2 0-.4-.1-.5-.3-.198-.4-.398-.798-.697-1.198h2.693c.4 0 .4-.2.4-.5 0-.2.2-.598-.4-.598h-2.892c-.3 0-.394-.1-.494-.3-.5-1-.898-2.097-1.297-3.196-.1-.3-.1-.4.2-.4.497-.1.896-.3 1.495-.4-.697-.298-1.296-.498-1.894-.798-.3-.1-.4-.2-.5-.5-.1-.498-.2-.998-.4-1.497-.1-.4 0-.4.4-.5.998-.1 1.996-.1 3.09-.2-.296-.2-.496-.3-.695-.4-.997-.498-1.894-.997-2.892-1.497-.4-.2-.5-.4-.597-.8-.5-3.294-.7-6.69-.4-9.986.1-1.398.3-2.796.7-4.194.298 1.398.597 2.597 1.096 3.795.7 1.698 1.896 2.996 3.49 3.795.2.1.5.1.7.1 2.594-.7 5.188-1.1 7.88-1.298.3 0 .4.1.5.3.698 1.597 1.396 3.095 2.094 4.693.1.1.1.3.2.4.198-.1.198-.3.198-.5.4-1.498.9-2.996 1.298-4.594.1-.294.2-.394.6-.394 2.692.1 5.285.4 7.88 1.098.298.1.498 0 .697-.1 1.894-1.497 2.992-3.594 3.59-5.89.1-.4.2-.8.3-1.3.3 1 .3 1.998.4 2.897.2 2.896.3 5.693.2 8.59 0 1.597-.2 3.195-.5 4.693 0 .298-.2.298-.4.398-.798.3-1.596.7-2.494 1.1.898.1 1.696.3 2.494.4-.2.8-.4 1.597-.598 2.296-.1.2-.3.2-.4.3-.698.2-1.296.4-2.094.6.6.2 1.098.398 1.597.598.3.1.4.2.2.5-.3.6-.6 1.2-.8 1.9-.1.3-.3.4-.497.4h-3.292c-.5 0-.4.3-.4.6 0 .297 0 .497.4.497.998-.1 1.996 0 2.993 0zm-6.256-7.8c.202-.1.302-.1.504-.1h3.628c.503 0 .403-.198.403-.497 0-.3-.106-.4-.408-.4h-3.326c-.303 0-.404 0-.303-.3.604-1.495 1.713-2.49 3.325-2.788.604-.1 1.21-.2 1.914-.2.504 0 .302-.398.302-.597.1-.3-.1-.3-.303-.3-.906 0-1.813.1-2.72.4-1.713.596-2.82 1.79-3.527 3.482-.1.2-.2.397-.505.397h-6.952c-.302 0-.403-.1-.302-.398.102-.498.202-.996.202-1.494.1-1.195.202-2.39-.2-3.584-.404-.996-1.01-1.593-2.117-1.693-1.813-.1-4.03 1.494-4.534 3.087v.2c.202.098.504.198.705.297.204.1.204-.2.305-.298.604-.996 1.31-1.892 2.52-2.19 1.41-.4 2.115 0 2.417 1.393.304 1.49 0 2.983-.2 4.476-.1.3-.302.2-.504.2h-3.63c-.503 0-.3.3-.402.5 0 .3 0 .397.4.397h3.226c.203 0 .303-.1.505.1-.403 1.493-1.008 2.886-1.814 4.28-.1.298-.1.398.1.497 1.21.696 2.42 1.492 3.628 2.29l1.513.894-2.72 1.79c-.303.2-.202.4-.102.598.203.2.203.497.606.2l2.72-1.793c.302-.2.504-.2.806 0 1.008.698 2.015 1.295 3.023 1.89.1.1.2.3.402.1.403-.496.403-.695-.1-.993-.605-.3-1.11-.697-1.714-.996-.405-.2-.808-.495-1.21-.694.2-.1.3-.2.402-.3 1.512-.994 3.023-1.99 4.636-2.985.2-.2.3-.297.1-.497-.705-1.393-1.007-2.786-.705-4.38z" fill="#D9D9D9"/><path d="M174 82.795c.5-1.028 1-1.952 1.6-2.876a97.708 97.708 0 0 1 11.01-14.69c.2-.31.4-.31.6 0 .8 1.024 1.7 2.05 2.5 2.98.402.41.402.41-.1.612-5.102 1.85-8.305 5.444-9.506 10.887-.2.925-.3 1.85-.2 2.876 0 .307-.1.41-.3.41-1.9-.205-3.703-.205-5.604-.205zm76-1.87h-2c.632.1 1.368.1 2 0z" fill="#A0A0A0"/><path fill="#030303" d="M236.9 75c0-.1 0-.1 0 0 .1-.1.1-.1.1 0h-.1zM212 57zm26.01-10c-.39 1.617 0 3.032.883 4.345.196.303.098.404-.098.505-1.47 1.01-3.037 2.02-4.506 3.032-.1.1-.3.202-.397.303.392.303.783.505 1.175.708a14.66 14.66 0 0 0 1.666 1.01c.49.303.49.505.098 1.01-.196.203-.294 0-.392-.1-.98-.607-1.96-1.314-2.94-1.92-.293-.203-.49-.203-.783 0l-2.645 1.818c-.392.31-.392 0-.588-.2-.196-.2-.294-.4.098-.603l2.645-1.82-1.466-.908c-1.175-.81-2.35-1.517-3.526-2.326-.294-.2-.294-.302-.098-.504.78-1.416 1.27-2.83 1.76-4.346h.884c-.294 1.416-.882 2.73-1.372 4.043h9.407c-.59-1.314-.98-2.627-.59-4.042h.783zM236 52h-7c1.197.674 2.303 1.263 3.408 1.937.184.084.276.084.46 0 1.014-.59 2.027-1.263 3.132-1.937z"/><path d="M238.822 46h-.907c-.1-.098-.202-.098-.303-.098h-6.957c-.1 0-.303 0-.403.098h-.908c-.1-.195-.302-.098-.504-.098h-3.227c-.403 0-.403-.097-.403-.39 0-.195-.1-.585.403-.487h3.63c.202 0 .404 0 .504-.195.303-1.463.605-2.925.202-4.388-.307-1.365-1.01-1.755-2.42-1.365-1.21.293-1.92 1.17-2.526 2.145-.1.098-.1.39-.302.293-.202-.098-.504-.195-.706-.293v-.195c.503-1.657 2.72-3.12 4.536-3.022 1.11.097 1.815.682 2.118 1.657.404 1.17.404 2.34.203 3.51-.1.488-.1.975-.202 1.463-.1.292 0 .39.304.39h6.958c.303 0 .404-.195.505-.39.604-1.658 1.814-2.828 3.528-3.413.908-.292 1.815-.39 2.723-.39.2 0 .403.098.302.293-.1.195.2.585-.303.585-.604 0-1.31.097-1.915.195-1.613.39-2.622 1.365-3.328 2.73-.1.292 0 .292.303.292h3.327c.303 0 .505.098.404.39 0 .293 0 .488-.402.488h-3.63c-.2.195-.403.097-.605.195z" fill="#080808"/><path d="M230.458 47.098c.104-.098.21-.098.417-.098h7.188c.104 0 .208 0 .312.098-.417 1.365-.104 2.634.625 3.902h-10c.52-1.268 1.146-2.537 1.458-3.902zM237 52c-1.247.674-2.39 1.263-3.636 1.937-.208.084-.312.084-.52 0-1.247-.674-2.493-1.263-3.844-1.937h8z" fill="#D9D9D9"/><path d="M25.437 167.236c-15.32-26.534-6.208-60.48 20.327-75.8 26.534-15.32 60.48-6.207 75.8 20.328 15.32 26.534 6.207 60.48-20.328 75.8-26.534 15.32-60.48 6.207-75.8-20.328" fill="#FFD301"/><path d="M13 64l47.285-3.213L64 13 49.543 42.315 13 64z" fill="url(#c)" transform="translate(40 104)"/><path d="M45 47.5L60 61l-3.974-28L45 47.5z" fill="url(#d)" transform="translate(40 104)"/><path d="M13 64l47-3.382L30.426 58 13 64z" fill="url(#e)" transform="translate(40 104)"/><path d="M4 43.457L12.736 64 20 40 4 43.457z" fill="url(#f)" transform="translate(40 104)"/><path d="M19 39.506L45 48l-6.722-27L19 39.506z" fill="url(#g)" transform="translate(40 104)"/><path d="M39 23l24-1.536L44.288 6 39 23z" fill="url(#h)" transform="translate(40 104)"/><path d="M36 0l18 .098L42.915 6 36 0z" fill="url(#i)" transform="translate(40 104)"/><path d="M.89 33L0 51l5-8.21L.89 33z" fill="url(#j)" transform="translate(40 104)"/><path d="M41 136.5l3.674 10.5 15.99-3.6 18.27-17.1L84 109.8l-8.143-5.8-13.804 5.2c-4.37 4.1-12.81 12.1-13.108 12.3-.2.2-5.462 10.2-7.945 15z" fill="#FFF"/><path d="M13.536 14.086C23.128 4.582 35.446-1.08 40.192 3.773c4.746 4.752-.303 16.38-9.895 25.884-9.592 9.505-21.71 15.47-26.455 10.617-4.746-4.752.1-16.683 9.694-26.188z" fill="url(#k)" transform="translate(40 104)"/><path d="M13 63l7.423-24L45 46.77C35.972 54.934 26.14 61.82 13 63z" fill="url(#l)" transform="translate(40 104)"/><path d="M39 22.477L45.407 47C52.932 39.318 59.644 31.144 63 21l-24 1.477z" fill="url(#m)" transform="translate(40 104)"/><path d="M62.524 22c2.503-7.785 3.104-18.95-8.812-21L44 6.532 62.524 22z" fill="url(#n)" transform="translate(40 104)"/><path d="M40 155.014c.295 12.682 9.258 12.885 13 12.986l-8.765-21L40 155.014z" fill="#3D3D3D"/><path d="M39 22.573c5.627 3.442 16.88 10.325 17.077 10.423.395.197 4.837-7.57 5.923-11.996l-23 1.573z" fill="url(#o)" transform="translate(40 104)"/><path d="M21 39l9.64 19c5.704-3.2 10.23-7 14.36-11.1L21 39z" fill="url(#p)" transform="translate(40 104)"/><path d="M4.4 43.002L3 59.365c2.6 3.548 6.3 3.844 10 3.548-2.7-6.702-8.2-20.108-8.6-19.91z" fill="url(#q)" transform="translate(40 104)"/><path d="M44 5.366L64 8c-1.02-4.293-4.286-7.122-9.898-8L44 5.366z" fill="url(#r)" transform="translate(40 104)"/><path d="M13 64l47.285-3.213L64 13 49.543 42.315 13 64z" fill="url(#c)" transform="translate(40 104)"/><path d="M45 47.5L60 61l-3.974-28L45 47.5z" fill="url(#d)" transform="translate(40 104)"/><path d="M13 64l47-3.382L30.426 58 13 64z" fill="url(#e)" transform="translate(40 104)"/><path d="M4 43.457L12.736 64 20 40 4 43.457z" fill="url(#f)" transform="translate(40 104)"/><path d="M19 39.506L45 48l-6.722-27L19 39.506z" fill="url(#g)" transform="translate(40 104)"/><path d="M39 23l24-1.536L44.288 6 39 23z" fill="url(#h)" transform="translate(40 104)"/><path d="M36 0l18 .098L42.915 6 36 0z" fill="url(#i)" transform="translate(40 104)"/><path d="M.89 33L0 51l5-8.21L.89 33z" fill="url(#j)" transform="translate(40 104)"/><path d="M41 136.5l3.674 10.5 15.99-3.6 18.27-17.1L84 109.8l-8.143-5.8-13.804 5.2c-4.37 4.1-12.81 12.1-13.108 12.3-.2.2-5.462 10.2-7.945 15z" fill="#FFF"/><path d="M13.536 14.086C23.128 4.582 35.446-1.08 40.192 3.773c4.746 4.752-.303 16.38-9.895 25.884-9.592 9.505-21.71 15.47-26.455 10.617-4.746-4.752.1-16.683 9.694-26.188z" fill="url(#k)" transform="translate(40 104)"/><path d="M13 63l7.423-24L45 46.77C35.972 54.934 26.14 61.82 13 63z" fill="url(#l)" transform="translate(40 104)"/><path d="M39 22.477L45.407 47C52.932 39.318 59.644 31.144 63 21l-24 1.477z" fill="url(#m)" transform="translate(40 104)"/><path d="M62.524 22c2.503-7.785 3.104-18.95-8.812-21L44 6.532 62.524 22z" fill="url(#n)" transform="translate(40 104)"/><path d="M40 155.014c.295 12.682 9.258 12.885 13 12.986l-8.765-21L40 155.014z" fill="#3D3D3D"/><path d="M39 22.573c5.627 3.442 16.88 10.325 17.077 10.423.395.197 4.837-7.57 5.923-11.996l-23 1.573z" fill="url(#o)" transform="translate(40 104)"/><path d="M21 39l9.64 19c5.704-3.2 10.23-7 14.36-11.1L21 39z" fill="url(#p)" transform="translate(40 104)"/><path d="M4.4 43.002L3 59.365c2.6 3.548 6.3 3.844 10 3.548-2.7-6.702-8.2-20.108-8.6-19.91z" fill="url(#q)" transform="translate(40 104)"/><path d="M44 5.366L64 8c-1.02-4.293-4.286-7.122-9.898-8L44 5.366z" fill="url(#r)" transform="translate(40 104)"/><g><path d="M133.714 72.437c26.55-15.32 60.515-6.208 75.845 20.327 15.324 26.534 6.21 60.48-20.34 75.8s-60.52 6.207-75.85-20.328c-15.23-26.534-6.11-60.48 20.34-75.8" fill="#002F47"/><path d="M175.546 139.6l1.33 2.4h-1.11l-1.328-2.4h-1.44v2.4H172v-6h2.88c1.11 0 2.106.6 2.106 1.8.11 1-.443 1.6-1.44 1.8zm-.666-2.6H173v2h1.88c.663 0 1.106-.316 1.106-1.053.11-.526-.443-.947-1.106-.947zm7.017 2.826h-3.076c.107.978.62 1.304 1.13 1.304.41 0 .72-.108 1.028-.434l.513.652c-.41.435-.923.652-1.54.652-1.025 0-1.95-.87-1.95-2.5s.82-2.5 2.05-2.5c1.337 0 1.95 1.087 1.95 2.39-.1.22-.1.327-.1.436zM179.952 138c-.57 0-.857.364-.952 1h2c-.095-.545-.38-1-1.048-1z" fill="#B3B3B3"/><path d="M185.053 141.906v-.375c-.316.286-.737.47-1.264.47-1.057 0-1.79-.652-1.79-2.25 0-1.402.84-2.152 1.89-2.152.527 0 .948.187 1.16.47v-1.595l.95-.47v5.813h-.948v.093zM185 138.6c-.2-.3-.6-.6-1-.6-.6 0-1 .5-1 1.4 0 1.1.4 1.6 1 1.6.4 0 .8-.3 1-.6v-1.8zm8.2 3.4v-2.7h-2.4v2.7h-.8v-6h.8v2.4h2.4V136h.8v6h-.8zm5.827-.106v-.426a1.8 1.8 0 0 1-1.297.532c-.757 0-1.73-.426-1.73-1.596 0-1.064.865-1.595 1.946-1.595.432 0 .757.1 1.08.21v-.32c0-.53-.323-.85-.864-.85-.54 0-.865.103-1.297.32l-.324-.748c.437-.32.978-.426 1.626-.426 1.08 0 1.838.53 1.838 1.595v3.3h-.972zm-.127-1.75c-.2-.073-.5-.144-1-.144-.6 0-.9.214-.9.5 0 .286.3.5.9.5.5 0 .9-.214 1.1-.43l-.1-.427z" fill="#B3B3B3"/><path d="M202.885 141.81c-.23.095-.577.19-1.04.19-.69 0-1.153-.38-1.153-1.143v-2.476H200v-.76h.692v-1.14l1.04-.476v1.62H203v.76h-1.27v2.288c0 .38.116.477.578.477.23 0 .577-.096.692-.19l-.115.856zm-41.882-27.48c1.477-.687 2.462-2.057 2.462-3.722 0-3.818-3.546-4.7-6.697-4.6h-13.593v12.335c0 1.762-.59 2.447-1.773 2.447-1.182 0-1.87-.685-1.87-1.86v-1.664H135v.783c0 4.11 1.576 6.95 6.5 6.95 4.04 0 6.107-1.766 6.403-5.29v4.894h8.865c3.94 0 7.19-1.37 7.19-5.776.295-2.25-.985-4.014-2.955-4.503zM153 110h3.93c1.036 0 2.07.556 2.07 2s-1.24 2-2.07 2H153v-4zm3.597 10H153v-4h3.597c1.383 0 2.397.558 2.397 2.047.092 1.395-.922 1.953-2.397 1.953zM155 139c0-3.31-2.69-6-6-6s-6 2.69-6 6 2.69 6 6 6c3.31-.103 6-2.69 6-6zm-16-2c0-2.745-2.255-5-5-5s-5 2.255-5 5 2.255 5 5 5 5-2.157 5-5zm-11-9.5c0-2.543-2.054-4.5-4.5-4.5a4.488 4.488 0 0 0-4.5 4.5c0 2.543 2.054 4.5 4.5 4.5 2.543 0 4.5-2.054 4.5-4.5zm-3-12.5c0-2.244-1.756-4-4-4-2.244 0-4 1.756-4 4 0 2.244 1.756 4 4 4 2.146 0 4-1.756 4-4zm6-11.5c0-1.9-1.6-3.5-3.5-3.5s-3.5 1.6-3.5 3.5 1.6 3.5 3.5 3.5 3.5-1.6 3.5-3.5zm10-5.5c0-1.645-1.355-3-3-3s-3 1.355-3 3 1.355 3 3 3 3-1.355 3-3zm10-1.503c0-1.44-1.154-2.497-2.5-2.497a2.48 2.48 0 0 0-2.5 2.497c0 1.44 1.154 2.497 2.5 2.497 1.346.096 2.5-1.056 2.5-2.497z" fill="#B3B3B3"/><path d="M199.688 117.062c-2.088-.41-5.17-.72-5.17-2.055 0-1.028 1.193-1.028 1.89-1.028.596 0 1.093.1 1.39.304.4.205.598.616.598 1.233h4.075c-.194-3.7-3.28-4.52-6.26-4.52-2.483 0-5.664.82-6.16 3.595-.597-2.877-3.48-3.596-6.164-3.596-2.684 0-6.362.924-6.362 4.314v.207c-.993-2.67-3.48-4.52-6.66-4.52-3.38 0-5.964 2.056-6.86 5.138.697.925.995 2.158.995 3.39 0 1.028-.2 1.952-.498 2.774 1.194 2.26 3.38 3.7 6.264 3.7 2.983 0 5.37-1.646 6.46-4.11.6 3.183 3.58 4.11 6.563 4.11 2.584 0 5.367-.824 6.262-3.29.894 2.57 3.677 3.29 6.36 3.29 3.083 0 6.56-1.235 6.56-5.036.2-1.233-.495-3.288-3.28-3.904zM170.5 123c-1.944 0-2.5-2.21-2.5-4s.556-4 2.5-4 2.5 2.21 2.5 4-.648 4-2.5 4zm13.476 0c-.578 0-1.157-.222-1.64-.556-.384-.333-.673-.888-.673-1.666H178c.193-.778.29-1.667.29-2.556 0-.444 0-.89-.097-1.222.964 2 3.566 2.222 5.687 2.89.77.22 2.12.443 2.12 1.666 0 1-1.253 1.444-2.024 1.444zm12.9 0c-.608 0-1.215-.207-1.72-.517-.406-.31-.71-.828-.71-1.552h-3.744c0-1.133-.708-3.202-3.54-3.823-2.126-.413-5.162-.724-5.162-2.07 0-1.033 1.315-1.033 2.125-1.033.607 0 1.113.104 1.417.31.404.208.607.62.607 1.243h4.042c.203 3.62 3.744 3.724 6.578 4.448.81.208 2.227.415 2.227 1.553 0 1.034-1.215 1.448-2.126 1.448zm7.477-14.87h.47l.706.87h.47l-.71-.87c.353 0 .706-.173.706-.52 0-.436-.354-.61-.94-.61H204v2h.353v-.87zm-.353-.43v-.7h.5c.2 0 .5.1.5.3 0 .4-.3.4-.6.4h-.4z" fill="#FFF"/><path d="M206 108.003c0 1.09-.91 1.997-2 1.997-1.09 0-2-.908-2-1.997 0-1.09.91-1.997 2-1.997 1.09-.09 2 .817 2 1.997zM203.497 106c-.832 0-1.497.667-1.497 1.5s.665 1.5 1.497 1.5c.83 0 1.497-.667 1.497-1.5.083-.833-.666-1.5-1.497-1.5zm-41.392 36c-.526 0-.947-.188-1.158-.47v.376H160v-5.437l.947-.47v2.06c.316-.28.737-.47 1.264-.47 1.057 0 1.79.656 1.79 2.25 0 1.406-.943 2.156-1.89 2.156zm-.105-4c-.4 0-.8.29-1 .58v1.84c.2.29.6.58 1 .58.6 0 1-.484 1-1.355 0-1.16-.4-1.645-1-1.645zm4.81 5h-.858l.572-1.672L165 137h.952l.667 2.164c.09.393.28 1.082.38 1.28.09-.296.282-.887.38-1.28l.76-2.164h.86l-2.19 6z" fill="#FFF"/><path d="M175.546 139.6l1.33 2.4h-1.11l-1.328-2.4h-1.44v2.4H172v-6h2.88c1.11 0 2.106.6 2.106 1.8.11 1-.443 1.6-1.44 1.8zm-.666-2.6H173v2h1.88c.663 0 1.106-.316 1.106-1.053.11-.526-.443-.947-1.106-.947zm7.017 2.826h-3.076c.107.978.62 1.304 1.13 1.304.41 0 .72-.108 1.028-.434l.513.652c-.41.435-.923.652-1.54.652-1.025 0-1.95-.87-1.95-2.5s.82-2.5 2.05-2.5c1.337 0 1.95 1.087 1.95 2.39-.1.22-.1.327-.1.436zM179.952 138c-.57 0-.857.364-.952 1h2c-.095-.545-.38-1-1.048-1z" fill="#B3B3B3"/><path d="M185.053 141.906v-.375c-.316.286-.737.47-1.264.47-1.057 0-1.79-.652-1.79-2.25 0-1.402.84-2.152 1.89-2.152.527 0 .948.187 1.16.47v-1.595l.95-.47v5.813h-.948v.093zM185 138.6c-.2-.3-.6-.6-1-.6-.6 0-1 .5-1 1.4 0 1.1.4 1.6 1 1.6.4 0 .8-.3 1-.6v-1.8zm8.2 3.4v-2.7h-2.4v2.7h-.8v-6h.8v2.4h2.4V136h.8v6h-.8zm5.827-.106v-.426a1.8 1.8 0 0 1-1.297.532c-.757 0-1.73-.426-1.73-1.596 0-1.064.865-1.595 1.946-1.595.432 0 .757.1 1.08.21v-.32c0-.53-.323-.85-.864-.85-.54 0-.865.103-1.297.32l-.324-.748c.437-.32.978-.426 1.626-.426 1.08 0 1.838.53 1.838 1.595v3.3h-.972zm-.127-1.75c-.2-.073-.5-.144-1-.144-.6 0-.9.214-.9.5 0 .286.3.5.9.5.5 0 .9-.214 1.1-.43l-.1-.427z" fill="#B3B3B3"/><path d="M202.885 141.81c-.23.095-.577.19-1.04.19-.69 0-1.153-.38-1.153-1.143v-2.476H200v-.76h.692v-1.14l1.04-.476v1.62H203v.76h-1.27v2.288c0 .38.116.477.578.477.23 0 .577-.096.692-.19l-.115.856zm-41.882-27.48c1.477-.687 2.462-2.057 2.462-3.722 0-3.818-3.546-4.7-6.697-4.6h-13.593v12.335c0 1.762-.59 2.447-1.773 2.447-1.182 0-1.87-.685-1.87-1.86v-1.664H135v.783c0 4.11 1.576 6.95 6.5 6.95 4.04 0 6.107-1.766 6.403-5.29v4.894h8.865c3.94 0 7.19-1.37 7.19-5.776.295-2.25-.985-4.014-2.955-4.503zM153 110h3.93c1.036 0 2.07.556 2.07 2s-1.24 2-2.07 2H153v-4zm3.597 10H153v-4h3.597c1.383 0 2.397.558 2.397 2.047.092 1.395-.922 1.953-2.397 1.953zM155 139c0-3.31-2.69-6-6-6s-6 2.69-6 6 2.69 6 6 6c3.31-.103 6-2.69 6-6zm-16-2c0-2.745-2.255-5-5-5s-5 2.255-5 5 2.255 5 5 5 5-2.157 5-5zm-11-9.5c0-2.543-2.054-4.5-4.5-4.5a4.488 4.488 0 0 0-4.5 4.5c0 2.543 2.054 4.5 4.5 4.5 2.543 0 4.5-2.054 4.5-4.5zm-3-12.5c0-2.244-1.756-4-4-4-2.244 0-4 1.756-4 4 0 2.244 1.756 4 4 4 2.146 0 4-1.756 4-4zm6-11.5c0-1.9-1.6-3.5-3.5-3.5s-3.5 1.6-3.5 3.5 1.6 3.5 3.5 3.5 3.5-1.6 3.5-3.5zm10-5.5c0-1.645-1.355-3-3-3s-3 1.355-3 3 1.355 3 3 3 3-1.355 3-3zm10-1.503c0-1.44-1.154-2.497-2.5-2.497a2.48 2.48 0 0 0-2.5 2.497c0 1.44 1.154 2.497 2.5 2.497 1.346.096 2.5-1.056 2.5-2.497z" fill="#B3B3B3"/><path d="M199.688 117.062c-2.088-.41-5.17-.72-5.17-2.055 0-1.028 1.193-1.028 1.89-1.028.596 0 1.093.1 1.39.304.4.205.598.616.598 1.233h4.075c-.194-3.7-3.28-4.52-6.26-4.52-2.483 0-5.664.82-6.16 3.595-.597-2.877-3.48-3.596-6.164-3.596-2.684 0-6.362.924-6.362 4.314v.207c-.993-2.67-3.48-4.52-6.66-4.52-3.38 0-5.964 2.056-6.86 5.138.697.925.995 2.158.995 3.39 0 1.028-.2 1.952-.498 2.774 1.194 2.26 3.38 3.7 6.264 3.7 2.983 0 5.37-1.646 6.46-4.11.6 3.183 3.58 4.11 6.563 4.11 2.584 0 5.367-.824 6.262-3.29.894 2.57 3.677 3.29 6.36 3.29 3.083 0 6.56-1.235 6.56-5.036.2-1.233-.495-3.288-3.28-3.904zM170.5 123c-1.944 0-2.5-2.21-2.5-4s.556-4 2.5-4 2.5 2.21 2.5 4-.648 4-2.5 4zm13.476 0c-.578 0-1.157-.222-1.64-.556-.384-.333-.673-.888-.673-1.666H178c.193-.778.29-1.667.29-2.556 0-.444 0-.89-.097-1.222.964 2 3.566 2.222 5.687 2.89.77.22 2.12.443 2.12 1.666 0 1-1.253 1.444-2.024 1.444zm12.9 0c-.608 0-1.215-.207-1.72-.517-.406-.31-.71-.828-.71-1.552h-3.744c0-1.133-.708-3.202-3.54-3.823-2.126-.413-5.162-.724-5.162-2.07 0-1.033 1.315-1.033 2.125-1.033.607 0 1.113.104 1.417.31.404.208.607.62.607 1.243h4.042c.203 3.62 3.744 3.724 6.578 4.448.81.208 2.227.415 2.227 1.553 0 1.034-1.215 1.448-2.126 1.448zm7.477-14.87h.47l.706.87h.47l-.71-.87c.353 0 .706-.173.706-.52 0-.436-.354-.61-.94-.61H204v2h.353v-.87zm-.353-.43v-.7h.5c.2 0 .5.1.5.3 0 .4-.3.4-.6.4h-.4z" fill="#FFF"/><path d="M206 108.003c0 1.09-.91 1.997-2 1.997-1.09 0-2-.908-2-1.997 0-1.09.91-1.997 2-1.997 1.09-.09 2 .817 2 1.997zM203.497 106c-.832 0-1.497.667-1.497 1.5s.665 1.5 1.497 1.5c.83 0 1.497-.667 1.497-1.5.083-.833-.666-1.5-1.497-1.5zm-41.392 36c-.526 0-.947-.188-1.158-.47v.376H160v-5.437l.947-.47v2.06c.316-.28.737-.47 1.264-.47 1.057 0 1.79.656 1.79 2.25 0 1.406-.943 2.156-1.89 2.156zm-.105-4c-.4 0-.8.29-1 .58v1.84c.2.29.6.58 1 .58.6 0 1-.484 1-1.355 0-1.16-.4-1.645-1-1.645zm4.81 5h-.858l.572-1.672L165 137h.952l.667 2.164c.09.393.28 1.082.38 1.28.09-.296.282-.887.38-1.28l.76-2.164h.86l-2.19 6z" fill="#FFF"/></g><g><path d="M152 131L8 169v146l144 38" fill="#5EB9C3"/><path d="M115 166c-3.327.728-6 3.984-6 7v138c0 2.906 2.57 6.253 6 7 3.2.528 6-1.76 6-5V171c0-3.124-2.695-5.546-6-5zm-27 5c-2.77.622-5 3.613-5 7v127c0 3.28 2.145 6.356 5 7 2.758.475 5-1.698 5-5V176c0-3.198-2.242-5.477-5-5zm-24 5c-1.99.536-4 3.312-4 6v120c0 2.585 1.933 5.44 4 6 2.985.42 5-1.64 5-5V181c-.08-3.252-2.095-5.41-5-5zm-19 4c-2.21.47-4 3.057-4 6v112c0 2.85 1.72 5.514 4 6 2.14.363 4-1.58 4-5V185c0-3.33-1.86-5.365-4-5zm-19 4c-1.432.415-3 2.84-3 6v105c0 3.073 1.507 5.57 3 6 2.374.326 4-1.527 4-4V188c0-2.388-1.626-4.327-4-4z" fill="#65C9D4"/><path d="M152 131l326 38v146l-326 38" fill="#7EDBE5"/><path d="M327 174c-2.928-.208-5 2.112-5 5v126c0 2.788 1.992 5.216 5 5 1.967-.238 4-2.902 4-6V180c-.078-3.106-2.033-5.763-4-6zm-24-2c-2.697-.22-5 2.162-5 5v130c0 2.735 2.215 5.23 5 5 2.828-.26 5-3 5-6V178c0-3-2.26-5.748-5-6zm-26-2c-2.697-.236-5 2.227-5 6v133c0 3.667 2.215 6.244 5 6 2.83-.278 5-3.123 5-7V177c0-3.878-2.258-6.73-5-7zm-26-2c-3.465-.25-6 2.273-6 6v137c0 3.616 2.437 6.258 6 6 2.517-.288 5-3.225 5-7V175c0-3.776-2.388-6.704-5-7zm158 14c-2.39-.167-4 1.914-4 5v111c0 2.996 1.548 5.173 4 5 1.417-.188 3-2.542 3-5V187c0-2.46-1.583-4.813-3-5zm19 1c-2.39-.16-4 1.875-4 5v108c0 3.04 1.547 5.164 4 5 1.417-.178 3-2.47 3-5V188c0-2.53-1.583-4.823-3-5zm17 2c-2.39-.15-4 1.834-4 5v105c0 3.082 1.547 5.156 4 5 1.477-.174 3-2.4 3-5V190c0-2.6-1.523-4.826-3-5zm15 1c-1.62-.144-3 1.793-3 4v104c0 2.125 1.326 4.15 3 4 1.642-.16 3-2.33 3-5V191c0-2.67-1.305-4.835-3-5zm-238-21c-3.234-.268-6 2.35-6 6v143c0 3.537 2.66 6.277 6 6 3.292-.31 6-3.373 6-7V172c0-3.628-2.604-6.68-6-7zm-30-3c-4.002-.285-7 2.408-7 6v148c0 3.474 2.883 6.295 7 6 3.068-.333 6-3.502 6-7V169c-.112-3.51-2.932-6.67-6-7zm198 18c-2.16-.177-4 1.97-4 5v115c0 2.94 1.77 5.183 4 5 2.26-.206 4-2.635 4-6V186c0-3.365-1.74-5.795-4-6zm-20-2c-2.16-.186-4 2.008-4 5v118c0 2.9 1.77 5.192 4 5 2.192-.21 4-2.71 4-6V184c0-3.292-1.74-5.784-4-6zm-20-2c-2.93-.197-5 2.06-5 5v122c0 2.843 1.992 5.204 5 5 1.966-.224 4-2.805 4-6V182c0-3.196-1.956-5.77-4-6z" fill="#91EBF3"/></g></g></svg>