<?xml version="1.0" encoding="UTF-8" standalone="no"?>
<svg width="667px" height="461px" viewBox="0 0 667 461" version="1.1" xmlns="http://www.w3.org/2000/svg" xmlns:xlink="http://www.w3.org/1999/xlink">
    <!-- Generator: Sketch 46.2 (44496) - http://www.bohemiancoding.com/sketch -->
    <title>feature_addons</title>
    <desc>Created with Sketch.</desc>
    <defs></defs>
    <g id="Page-1" stroke="none" stroke-width="1" fill="none" fill-rule="evenodd">
        <g id="feature_addons">
            <g id="clouds" fill="#D1ECFB" opacity="0.3">
                <path d="M632.98538,34.62842 C587.831035,-10.5088425 514.639495,-10.5088425 469.48515,34.62842 C469.114343,34.9990867 468.746603,35.37163 468.38193,35.74605 C466.86619,33.9028833 465.246857,32.11885 463.52393,30.39395 C462.631077,29.5012833 461.72125,28.63655 460.79445,27.79975 C441.219228,7.492649 412.09955,-0.471721944 384.914077,7.0461054 C357.728604,14.5639327 336.838275,36.357991 330.47783,63.8373 C312.881548,65.1460037 297.966789,77.2855482 293.112898,94.2496746 C288.259007,111.213801 294.495267,129.405218 308.736175,139.823394 C322.977082,150.24157 342.202813,150.6773 356.90109,140.915 C380.237156,159.891575 412.491878,163.528785 439.46797,150.22567 C439.82563,150.07924 440.18509,149.93855 440.54089,149.78619 C454.464897,195.883219 495.50334,228.522432 543.55153,231.713914 C591.599719,234.905396 636.594545,207.980729 656.49309,164.130279 C676.391635,120.279828 667.026391,68.6875403 632.98538,34.62842 L632.98538,34.62842 Z" id="Shape"></path>
                <path d="M221.78832,171.04409 C229.341692,207.36137 258.671549,235.158471 295.341612,240.75354 C332.011674,246.34861 368.296495,228.56291 386.336531,196.150638 C404.376567,163.738366 400.371242,123.52796 376.291996,95.3111541 C352.212749,67.094348 313.132462,56.8157022 278.28662,69.53441 C266.14618,48.9657868 244.016248,36.3697718 220.13206,36.4337339 C196.247871,36.497696 174.185721,49.2120578 162.15562,69.84541 C152.741958,31.1732712 116.873238,4.87919207 77.160794,7.53873466 C37.4483503,10.1982773 5.40603938,41.0403586 1.23305956,80.6223948 C-2.93992025,120.204431 21.966306,157.050375 60.2510666,167.932859 C98.5358273,178.815342 139.099195,160.5792 156.37037,124.72034 C165.610531,152.871954 192.16584,171.676281 221.78837,171.04409 L221.78832,171.04409 Z" id="Shape"></path>
            </g>
            <g id="ad_ons" transform="translate(180.000000, 136.000000)">
                <rect id="Rectangle-path" fill="#81D4DC" fill-rule="nonzero" x="43.24686" y="204.58341" width="240.70435" height="119.59208"></rect>
                <rect id="Rectangle-path" fill="#1D1D1B" fill-rule="nonzero" opacity="0.05" x="50.33291" y="211.66948" width="226.53205" height="105.41969"></rect>
                <path d="M274.03045,214.504 L274.03045,314.25468 L53.16745,314.25468 L53.16745,214.504 L274.03045,214.504 L274.03045,214.504 Z M276.86496,211.66949 L50.33296,211.66949 L50.33296,317.08919 L276.865,317.08919 L276.865,211.66949 L276.86496,211.66949 Z" id="Shape" fill="#1D1D1B" fill-rule="nonzero" opacity="0.1"></path>
                <path d="M164.25977,219.97843 C163.260776,219.97795 162.302561,220.374588 161.596169,221.080988 C160.889778,221.787387 160.493149,222.745606 160.49364,223.7446 L160.49364,306.26974 C160.491445,307.616709 161.208784,308.862299 162.374929,309.536418 C163.541073,310.210537 164.978457,310.210537 166.144601,309.536418 C167.310746,308.862299 168.028085,307.616709 168.02589,306.26974 L168.02589,223.74458 C168.026418,222.745577 167.629801,221.787338 166.923401,221.080933 C166.217,220.374529 165.258763,219.977907 164.25976,219.97843 L164.25977,219.97843 Z" id="Shape" fill="#7DADBA" fill-rule="nonzero"></path>
                <path d="M145.49511,219.97843 C144.496116,219.97795 143.537901,220.374588 142.831509,221.080988 C142.125118,221.787387 141.728489,222.745606 141.72898,223.7446 L141.72898,306.26974 C141.726785,307.616709 142.444124,308.862299 143.610269,309.536418 C144.776413,310.210537 146.213797,310.210537 147.379941,309.536418 C148.546086,308.862299 149.263425,307.616709 149.26123,306.26974 L149.26123,223.74458 C149.261702,222.745594 148.865067,221.787387 148.158679,221.080995 C147.452291,220.374603 146.494086,219.977963 145.4951,219.97843 L145.49511,219.97843 Z" id="Shape" fill="#7DADBA" fill-rule="nonzero"></path>
                <path d="M126.79642,219.97843 C125.797426,219.97795 124.839211,220.374588 124.132819,221.080988 C123.426428,221.787387 123.029799,222.745606 123.03029,223.7446 L123.03029,306.26974 C123.028095,307.616709 123.745434,308.862299 124.911579,309.536418 C126.077723,310.210537 127.515107,310.210537 128.681251,309.536418 C129.847396,308.862299 130.564735,307.616709 130.56254,306.26974 L130.56254,223.74458 C130.517099,221.683716 128.857274,220.023882 126.79641,219.97843 L126.79642,219.97843 Z" id="Shape" fill="#7DADBA" fill-rule="nonzero"></path>
                <path d="M108.03176,219.97843 C107.032766,219.97795 106.074551,220.374588 105.368159,221.080988 C104.661768,221.787387 104.265139,222.745606 104.26563,223.7446 L104.26563,306.26974 C104.263435,307.616709 104.980774,308.862299 106.146919,309.536418 C107.313063,310.210537 108.750447,310.210537 109.916591,309.536418 C111.082736,308.862299 111.800075,307.616709 111.79788,306.26974 L111.79788,223.74458 C111.775475,221.673952 110.102378,220.000846 108.03175,219.97843 L108.03176,219.97843 Z" id="Shape" fill="#7DADBA" fill-rule="nonzero"></path>
                <path d="M239.31873,219.97843 C238.319736,219.97795 237.361521,220.374588 236.655129,221.080988 C235.948738,221.787387 235.552109,222.745606 235.5526,223.7446 L235.5526,306.26974 C235.550405,307.616709 236.267744,308.862299 237.433889,309.536418 C238.600033,310.210537 240.037417,310.210537 241.203561,309.536418 C242.369706,308.862299 243.087045,307.616709 243.08485,306.26974 L243.08485,223.74458 C243.039409,221.683716 241.379584,220.023882 239.31872,219.97843 L239.31873,219.97843 Z" id="Shape" fill="#7DADBA" fill-rule="nonzero"></path>
                <path d="M258.01741,219.97843 C257.018416,219.97795 256.060201,220.374588 255.353809,221.080988 C254.647418,221.787387 254.250789,222.745606 254.25128,223.7446 L254.25128,306.26974 C254.249085,307.616709 254.966424,308.862299 256.132569,309.536418 C257.298713,310.210537 258.736097,310.210537 259.902241,309.536418 C261.068386,308.862299 261.785725,307.616709 261.78353,306.26974 L261.78353,223.74458 C261.784002,222.745594 261.387367,221.787387 260.680979,221.080995 C259.974591,220.374603 259.016386,219.977963 258.0174,219.97843 L258.01741,219.97843 Z" id="Shape" fill="#7DADBA" fill-rule="nonzero"></path>
                <path d="M89.26694,219.97843 C88.2679461,219.97795 87.3097309,220.374588 86.6033392,221.080988 C85.8969475,221.787387 85.5003189,222.745606 85.50081,223.7446 L85.50081,306.26974 C85.4986151,307.616709 86.2159541,308.862299 87.3820987,309.536418 C88.5482433,310.210537 89.9856267,310.210537 91.1517713,309.536418 C92.3179159,308.862299 93.0352549,307.616709 93.03306,306.26974 L93.03306,223.74458 C93.0107716,221.673903 91.3376069,220.000729 89.26693,219.97843 L89.26694,219.97843 Z" id="Shape" fill="#7DADBA" fill-rule="nonzero"></path>
                <path d="M70.50228,219.97843 C69.5032861,219.97795 68.5450709,220.374588 67.8386792,221.080988 C67.1322875,221.787387 66.7356589,222.745606 66.73615,223.7446 L66.73615,306.26974 C66.7339551,307.616709 67.4512941,308.862299 68.6174387,309.536418 C69.7835833,310.210537 71.2209667,310.210537 72.3871113,309.536418 C73.5532559,308.862299 74.2705949,307.616709 74.2684,306.26974 L74.2684,223.74458 C74.2688725,222.745594 73.8722373,221.787387 73.165849,221.080995 C72.4594608,220.374603 71.5012564,219.977963 70.50227,219.97843 L70.50228,219.97843 Z" id="Shape" fill="#7DADBA" fill-rule="nonzero"></path>
                <path d="M220.55407,219.97843 C219.555076,219.97795 218.596861,220.374588 217.890469,221.080988 C217.184078,221.787387 216.787449,222.745606 216.78794,223.7446 L216.78794,306.26974 C216.785745,307.616709 217.503084,308.862299 218.669229,309.536418 C219.835373,310.210537 221.272757,310.210537 222.438901,309.536418 C223.605046,308.862299 224.322385,307.616709 224.32019,306.26974 L224.32019,223.74458 C224.297785,221.673952 222.624688,220.000846 220.55406,219.97843 L220.55407,219.97843 Z" id="Shape" fill="#7DADBA" fill-rule="nonzero"></path>
                <path d="M201.78925,219.97843 C200.790256,219.97795 199.832041,220.374588 199.125649,221.080988 C198.419258,221.787387 198.022629,222.745606 198.02312,223.7446 L198.02312,306.26974 C198.020925,307.616709 198.738264,308.862299 199.904409,309.536418 C201.070553,310.210537 202.507937,310.210537 203.674081,309.536418 C204.840226,308.862299 205.557565,307.616709 205.55537,306.26974 L205.55537,223.74458 C205.533023,221.673927 203.859892,220.000788 201.78924,219.97843 L201.78925,219.97843 Z" id="Shape" fill="#7DADBA" fill-rule="nonzero"></path>
                <path d="M183.02459,219.97843 C182.025596,219.97795 181.067381,220.374588 180.360989,221.080988 C179.654598,221.787387 179.257969,222.745606 179.25846,223.7446 L179.25846,306.26974 C179.257988,307.268728 179.654622,308.226937 180.36101,308.933332 C181.067397,309.639727 182.025602,310.036372 183.02459,310.03591 C184.026972,310.047591 184.99171,309.65455 185.700546,308.945707 C186.409381,308.236864 186.802412,307.272122 186.79072,306.26974 L186.79072,223.74458 C186.768315,221.673952 185.095218,220.000846 183.02459,219.97843 L183.02459,219.97843 Z" id="Shape" fill="#7DADBA" fill-rule="nonzero"></path>
                <path d="M163.599,219.3177 C162.600006,219.31722 161.641791,219.713858 160.935399,220.420258 C160.229008,221.126657 159.832379,222.084876 159.83287,223.08387 L159.83287,305.609 C159.830675,306.955969 160.548014,308.201559 161.714159,308.875678 C162.880303,309.549797 164.317687,309.549797 165.483831,308.875678 C166.649976,308.201559 167.367315,306.955969 167.36512,305.609 L167.36512,223.08385 C167.365648,222.084847 166.969031,221.126608 166.262631,220.420203 C165.55623,219.713799 164.597993,219.317177 163.59899,219.3177 L163.599,219.3177 Z" id="Shape" fill="#91EAF3" fill-rule="nonzero"></path>
                <path d="M144.83438,219.3177 C143.835386,219.31722 142.877171,219.713858 142.170779,220.420258 C141.464388,221.126657 141.067759,222.084876 141.06825,223.08387 L141.06825,305.609 C141.066055,306.955969 141.783394,308.201559 142.949539,308.875678 C144.115683,309.549797 145.553067,309.549797 146.719211,308.875678 C147.885356,308.201559 148.602695,306.955969 148.6005,305.609 L148.6005,223.08385 C148.600972,222.084864 148.204337,221.126657 147.497949,220.420265 C146.791561,219.713873 145.833356,219.317233 144.83437,219.3177 L144.83438,219.3177 Z" id="Shape" fill="#91EAF3" fill-rule="nonzero"></path>
                <path d="M126.13569,219.3177 C125.136696,219.31722 124.178481,219.713858 123.472089,220.420258 C122.765698,221.126657 122.369069,222.084876 122.36956,223.08387 L122.36956,305.609 C122.367365,306.955969 123.084704,308.201559 124.250849,308.875678 C125.416993,309.549797 126.854377,309.549797 128.020521,308.875678 C129.186666,308.201559 129.904005,306.955969 129.90181,305.609 L129.90181,223.08385 C129.856369,221.022986 128.196544,219.363152 126.13568,219.3177 L126.13569,219.3177 Z" id="Shape" fill="#91EAF3" fill-rule="nonzero"></path>
                <path d="M107.371,219.3177 C106.372006,219.31722 105.413791,219.713858 104.707399,220.420258 C104.001008,221.126657 103.604379,222.084876 103.60487,223.08387 L103.60487,305.609 C103.602675,306.955969 104.320014,308.201559 105.486159,308.875678 C106.652303,309.549797 108.089687,309.549797 109.255831,308.875678 C110.421976,308.201559 111.139315,306.955969 111.13712,305.609 L111.13712,223.08385 C111.114715,221.013222 109.441618,219.340116 107.37099,219.3177 L107.371,219.3177 Z" id="Shape" fill="#91EAF3" fill-rule="nonzero"></path>
                <path d="M238.658,219.3177 C237.659006,219.31722 236.700791,219.713858 235.994399,220.420258 C235.288008,221.126657 234.891379,222.084876 234.89187,223.08387 L234.89187,305.609 C234.889675,306.955969 235.607014,308.201559 236.773159,308.875678 C237.939303,309.549797 239.376687,309.549797 240.542831,308.875678 C241.708976,308.201559 242.426315,306.955969 242.42412,305.609 L242.42412,223.08385 C242.378679,221.022986 240.718854,219.363152 238.65799,219.3177 L238.658,219.3177 Z" id="Shape" fill="#91EAF3" fill-rule="nonzero"></path>
                <path d="M257.35668,219.3177 C256.357686,219.31722 255.399471,219.713858 254.693079,220.420258 C253.986688,221.126657 253.590059,222.084876 253.59055,223.08387 L253.59055,305.609 C253.588355,306.955969 254.305694,308.201559 255.471839,308.875678 C256.637983,309.549797 258.075367,309.549797 259.241511,308.875678 C260.407656,308.201559 261.124995,306.955969 261.1228,305.609 L261.1228,223.08385 C261.123272,222.084864 260.726637,221.126657 260.020249,220.420265 C259.313861,219.713873 258.355656,219.317233 257.35667,219.3177 L257.35668,219.3177 Z" id="Shape" fill="#91EAF3" fill-rule="nonzero"></path>
                <path d="M88.60621,219.3177 C87.6072161,219.31722 86.6490009,219.713858 85.9426092,220.420258 C85.2362175,221.126657 84.8395889,222.084876 84.84008,223.08387 L84.84008,305.609 C84.8378851,306.955969 85.5552241,308.201559 86.7213687,308.875678 C87.8875133,309.549797 89.3248967,309.549797 90.4910413,308.875678 C91.6571859,308.201559 92.3745249,306.955969 92.37233,305.609 L92.37233,223.08385 C92.3500416,221.013173 90.6768769,219.339999 88.6062,219.3177 L88.60621,219.3177 Z" id="Shape" fill="#91EAF3" fill-rule="nonzero"></path>
                <path d="M69.84155,219.3177 C68.8425561,219.31722 67.8843409,219.713858 67.1779492,220.420258 C66.4715575,221.126657 66.0749289,222.084876 66.07542,223.08387 L66.07542,305.609 C66.0732251,306.955969 66.7905641,308.201559 67.9567087,308.875678 C69.1228533,309.549797 70.5602367,309.549797 71.7263813,308.875678 C72.8925259,308.201559 73.6098649,306.955969 73.60767,305.609 L73.60767,223.08385 C73.6081425,222.084864 73.2115073,221.126657 72.505119,220.420265 C71.7987308,219.713873 70.8405264,219.317233 69.84154,219.3177 L69.84155,219.3177 Z" id="Shape" fill="#91EAF3" fill-rule="nonzero"></path>
                <path d="M219.89334,219.3177 C218.894346,219.31722 217.936131,219.713858 217.229739,220.420258 C216.523348,221.126657 216.126719,222.084876 216.12721,223.08387 L216.12721,305.609 C216.125015,306.955969 216.842354,308.201559 218.008499,308.875678 C219.174643,309.549797 220.612027,309.549797 221.778171,308.875678 C222.944316,308.201559 223.661655,306.955969 223.65946,305.609 L223.65946,223.08385 C223.637055,221.013222 221.963958,219.340116 219.89333,219.3177 L219.89334,219.3177 Z" id="Shape" fill="#91EAF3" fill-rule="nonzero"></path>
                <path d="M201.12852,219.3177 C200.129526,219.31722 199.171311,219.713858 198.464919,220.420258 C197.758528,221.126657 197.361899,222.084876 197.36239,223.08387 L197.36239,305.609 C197.360195,306.955969 198.077534,308.201559 199.243679,308.875678 C200.409823,309.549797 201.847207,309.549797 203.013351,308.875678 C204.179496,308.201559 204.896835,306.955969 204.89464,305.609 L204.89464,223.08385 C204.872293,221.013197 203.199162,219.340058 201.12851,219.3177 L201.12852,219.3177 Z" id="Shape" fill="#91EAF3" fill-rule="nonzero"></path>
                <path d="M182.36386,219.3177 C181.364866,219.31722 180.406651,219.713858 179.700259,220.420258 C178.993868,221.126657 178.597239,222.084876 178.59773,223.08387 L178.59773,305.609 C178.597258,306.607988 178.993892,307.566197 179.70028,308.272592 C180.406667,308.978987 181.364872,309.375632 182.36386,309.37517 C183.366244,309.386854 184.330985,308.993814 185.039822,308.284971 C185.74866,307.576128 186.141692,306.611384 186.13,305.609 L186.13,223.08385 C186.107595,221.013222 184.434498,219.340116 182.36387,219.3177 L182.36386,219.3177 Z" id="Shape" fill="#91EAF3" fill-rule="nonzero"></path>
                <path d="M63.53925,194.65718 C63.5400618,192.872216 64.9874851,191.42575 66.7724496,191.42612 C68.5574142,191.42649 70.0042378,192.873555 70.0043097,194.65852 C70.0043815,196.443485 68.5576745,197.890666 66.77271,197.89118 L66.77271,199.49289" id="Shape" stroke="#000000" stroke-width="1.2651" stroke-linecap="round" stroke-linejoin="round"></path>
                <circle id="Oval" fill="#C2D64C" fill-rule="nonzero" cx="94.34543" cy="44.72451" r="30.80605"></circle>
                <circle id="Oval" fill="#FFFFFF" fill-rule="nonzero" opacity="0.4" cx="83.34282" cy="29.18514" r="9.62698"></circle>
                <polygon id="Shape" fill="#C2D64C" fill-rule="nonzero" points="101.084 82.517 86.23 82.517 91.182 73.357 96.132 73.357"></polygon>
                <path d="M99.43449,76.26192 C99.4334591,76.8738417 98.9373424,77.3694798 98.32542,77.36992 L89.197,77.36992 C88.5847256,77.3699266 88.0880527,76.8741933 88.0869,76.26192 L88.0869,76.26192 C88.0866636,75.9674308 88.2035443,75.6849351 88.4117797,75.4766997 C88.6200151,75.2684643 88.9025108,75.1515836 89.197,75.15182 L98.32546,75.15182 C98.6197879,75.1518013 98.9020512,75.2687848 99.1100758,75.4770026 C99.3181005,75.6852205 99.4348219,75.9675922 99.43453,76.26192 L99.43449,76.26192 Z" id="Shape" fill="#000000" fill-rule="nonzero"></path>
                <path d="M93.65677,77.36996 L66.77271,191.42447" id="Shape" stroke="#000000" stroke-width="1.2651" stroke-linecap="round" stroke-linejoin="round"></path>
                <circle id="Oval" fill="#002F47" fill-rule="nonzero" cx="30.92388" cy="31.16929" r="30.80605"></circle>
                <circle id="Oval" fill="#FFFFFF" fill-rule="nonzero" opacity="0.4" cx="19.92127" cy="15.62992" r="9.62698"></circle>
                <polygon id="Shape" fill="#002F47" fill-rule="nonzero" points="37.662 68.962 22.808 68.962 27.761 59.802 32.711 59.802"></polygon>
                <path d="M36.01294,62.7067 C36.0119091,63.3186217 35.5157924,63.8142598 34.90387,63.8147 L25.77541,63.8147 C25.1631356,63.8147066 24.6664627,63.3189733 24.66531,62.7067 L24.66531,62.7067 C24.6650736,62.4122108 24.7819543,62.1297151 24.9901897,61.9214797 C25.1984251,61.7132443 25.4809208,61.5963636 25.77541,61.5966 L34.90387,61.5966 C35.1981979,61.5965813 35.4804612,61.7135648 35.6884858,61.9217826 C35.8965105,62.1300005 36.0132319,62.4123722 36.01294,62.7067 L36.01294,62.7067 Z" id="Shape" fill="#000000" fill-rule="nonzero"></path>
                <path d="M30.23522,63.81474 L66.77178,193.91771" id="Shape" stroke="#000000" stroke-width="1.2651" stroke-linecap="round" stroke-linejoin="round"></path>
                <circle id="Oval" fill="#FFD301" fill-rule="nonzero" cx="66.41391" cy="107.04356" r="33.88665"></circle>
                <circle id="Oval" fill="#FFFFFF" fill-rule="nonzero" opacity="0.4" cx="54.31105" cy="89.95025" r="10.58968"></circle>
                <polygon id="Shape" fill="#FFD301" fill-rule="nonzero" points="73.826 148.615 57.487 148.615 62.934 138.54 68.38 138.54"></polygon>
                <path d="M72.01188,141.73471 C72.0107719,142.40785 71.4650208,142.953082 70.79188,142.95355 L60.7506,142.95355 C60.0770805,142.953562 59.530731,142.408228 59.52949,141.73471 L59.52949,141.73471 C59.5292297,141.410772 59.6577984,141.100026 59.8868574,140.870967 C60.1159164,140.641908 60.4266618,140.51334 60.7506,140.5136 L70.79191,140.5136 C71.1156755,140.513571 71.4261726,140.642249 71.6550052,140.87129 C71.8838379,141.100331 72.0122338,141.410945 72.01191,141.73471 L72.01188,141.73471 Z" id="Shape" fill="#000000" fill-rule="nonzero"></path>
                <path d="M65.65639,142.95356 L65.65639,191.42447" id="Shape" stroke="#000000" stroke-width="1.2651" stroke-linecap="round" stroke-linejoin="round"></path>
                <path d="M245.08008,194.65718 C245.080892,192.872216 246.528315,191.42575 248.31328,191.42612 C250.098244,191.42649 251.545068,192.873555 251.54514,194.65852 C251.545212,196.443485 250.098504,197.890666 248.31354,197.89118 L248.31354,199.49289" id="Shape" stroke="#000000" stroke-width="1.2651" stroke-linecap="round" stroke-linejoin="round"></path>
                <circle id="Oval" fill="#FFD301" fill-rule="nonzero" cx="247.83582" cy="46.90561" r="30.80605"></circle>
                <circle id="Oval" fill="#FFFFFF" fill-rule="nonzero" opacity="0.4" cx="236.83321" cy="31.36624" r="9.62698"></circle>
                <polygon id="Shape" fill="#FFD301" fill-rule="nonzero" points="254.574 84.698 239.72 84.698 244.673 75.538 249.623 75.538"></polygon>
                <path d="M252.92488,78.443 C252.923849,79.0549217 252.427732,79.5505598 251.81581,79.551 L242.68735,79.551 C242.075076,79.5510066 241.578403,79.0552733 241.57725,78.443 L241.57725,78.443 C241.577014,78.1485108 241.693894,77.8660151 241.90213,77.6577797 C242.110365,77.4495443 242.392861,77.3326636 242.68735,77.3329 L251.81581,77.3329 C252.110138,77.3328813 252.392401,77.4498648 252.600426,77.6580826 C252.80845,77.8663005 252.925172,78.1486722 252.92488,78.443 Z" id="Shape" fill="#000000" fill-rule="nonzero"></path>
                <path d="M247.14716,79.55106 L247.14716,195.45869" id="Shape" stroke="#000000" stroke-width="1.2651" stroke-linecap="round" stroke-linejoin="round"></path>
                <circle id="Oval" fill="#15B0BF" fill-rule="nonzero" cx="266.97245" cy="98.64085" r="30.80605"></circle>
                <circle id="Oval" fill="#FFFFFF" fill-rule="nonzero" opacity="0.4" cx="255.96985" cy="83.10148" r="9.62698"></circle>
                <polygon id="Shape" fill="#15B0BF" fill-rule="nonzero" points="273.711 136.433 258.857 136.433 263.809 127.274 268.759 127.274"></polygon>
                <path d="M272.06152,130.17826 C272.060489,130.790182 271.564372,131.28582 270.95245,131.28626 L261.824,131.28626 C261.211726,131.286267 260.715053,130.790533 260.7139,130.17826 L260.7139,130.17826 C260.713664,129.883771 260.830544,129.601275 261.03878,129.39304 C261.247015,129.184804 261.529511,129.067924 261.824,129.06816 L270.95246,129.06816 C271.246788,129.068141 271.529051,129.185125 271.737076,129.393343 C271.9451,129.60156 272.061822,129.883932 272.06153,130.17826 L272.06152,130.17826 Z" id="Shape" fill="#000000" fill-rule="nonzero"></path>
                <path d="M266.2838,131.2863 L245.08008,198.05792" id="Shape" stroke="#000000" stroke-width="1.2651" stroke-linecap="round" stroke-linejoin="round"></path>
                <circle id="Oval" fill="#FF931E" fill-rule="nonzero" cx="216.20175" cy="83.38775" r="30.80605"></circle>
                <circle id="Oval" fill="#FFFFFF" fill-rule="nonzero" opacity="0.4" cx="205.19915" cy="67.84838" r="9.62698"></circle>
                <polygon id="Shape" fill="#FF931E" fill-rule="nonzero" points="222.94 121.18 208.086 121.18 213.039 112.02 217.989 112.02"></polygon>
                <path d="M221.29082,114.92516 C221.289789,115.537082 220.793672,116.03272 220.18175,116.03316 L211.05329,116.03316 C210.441016,116.033167 209.944343,115.537433 209.94319,114.92516 L209.94319,114.92516 C209.942954,114.630671 210.059834,114.348175 210.26807,114.13994 C210.476305,113.931704 210.758801,113.814824 211.05329,113.81506 L220.18175,113.81506 C220.476078,113.815041 220.758341,113.932025 220.966366,114.140243 C221.17439,114.34846 221.291112,114.630832 221.29082,114.92516 L221.29082,114.92516 Z" id="Shape" fill="#000000" fill-rule="nonzero"></path>
                <path d="M215.5131,116.0332 L248.99821,193.91771" id="Shape" stroke="#000000" stroke-width="1.2651" stroke-linecap="round" stroke-linejoin="round"></path>
            </g>
        </g>
    </g>
</svg>