<svg id="icons" xmlns="http://www.w3.org/2000/svg" viewBox="0 0 302.75 275.51"><defs><style>.cls-1,.cls-3{opacity:.5}.cls-2,.cls-3,.cls-4,.cls-5,.cls-6,.cls-7,.cls-8{fill:none;stroke-miterlimit:10;stroke-width:.3px}.cls-2{stroke:#f7b433}.cls-3,.cls-5{stroke:#dee3eb}.cls-4{stroke:#d5d654}.cls-6{stroke:#f6b7d4}.cls-7{stroke:#ffd800}.cls-8{stroke:#f5b5cd}.cls-9{fill:#f7b433}</style></defs><title>icons</title><g class="cls-1"><path class="cls-2" d="M52.13 70.9a2.23 2.23 0 0 1 0-3.15l-1.77-1.77-1.43 1.43a2.22 2.22 0 1 0-3 3l-1.47 1.47 1.77 1.77a2.22 2.22 0 0 1 3.15 3.13l1.77 1.77 1.43-1.43a2.22 2.22 0 1 0 3.49-2.7 2.2 2.2 0 0 0-.44-.33l1.43-1.43-1.77-1.77a2.22 2.22 0 0 1-3.16.01z"/><path class="cls-3" d="M276.63 201.6l.84-1.45-.84-.48a2.75 2.75 0 0 0 0-1.21l.84-.48-.84-1.47-.81.49a4 4 0 0 0-1-.61v-1h-1.68v1a2 2 0 0 0-1.08.61l-.86-.49-.85 1.45.83.48a2.76 2.76 0 0 0 0 1.21l-.84.48.84 1.45.87-.49a2 2 0 0 0 1.08.61v1h1.68v-1a4 4 0 0 0 1-.61z"/><circle class="cls-3" cx="273.86" cy="199.05" r="1.12"/><path class="cls-3" d="M276.63 207.2l.8-1.42-.84-.48a2.75 2.75 0 0 0 0-1.21l.84-.48-.8-1.5-.81.49a4 4 0 0 0-1-.61v-1h-1.68v1a2 2 0 0 0-1.08.61l-.86-.49-.85 1.45.83.48a2.76 2.76 0 0 0 0 1.21l-.84.48.84 1.45.87-.49a2 2 0 0 0 1.08.61v1h1.68v-1a4 4 0 0 0 1-.61z"/><circle class="cls-3" cx="273.86" cy="204.65" r="1.12"/><path class="cls-2" d="M90.06 273.68zm0-1.12zm.56-9h9.5v5.59h-9.49v-5.59zm10.62 5.59a1.07 1.07 0 0 1-1 1.12h-9.71a1.07 1.07 0 0 1-1-1.12v-5.59a1.07 1.07 0 0 1 1-1.12h9.7a1.07 1.07 0 0 1 1 1.12v5.59zm-12.3 6.15v-3.02a.84.84 0 0 1 .84-.84h11.18a.84.84 0 0 1 .84.84v3.08H88.95z"/><path class="cls-2" d="M95.65 272.56h5.03v1.12h-5.03zM.36 268.65l3.35-3.36h6.15l3.35 3.36H.36zm12.86 2.24a1.12 1.12 0 0 1-1.12 1.12H1.48a1.12 1.12 0 0 1-1.12-1.12v-2.24h12.86v2.24z"/><circle class="cls-2" cx="7.91" cy="270.32" r=".28"/><circle class="cls-2" cx="9.59" cy="270.32" r=".28"/><circle class="cls-2" cx="11.26" cy="270.32" r=".28"/><circle class="cls-2" cx="2.04" cy="270.32" r=".56"/><path class="cls-2" d="M12.1 272v.56M1.48 272v.56"/><path class="cls-4" d="M222.81 273.68h12.86M222.81 272h12.86m-12.86-1.68h12.86m-8.39-1.68v1.68m5.59-1.68v1.68m-5.59 1.68v1.68m5.59-1.68v1.68m-7.82 0v1.68m5.59-1.68v1.68m-5.59-5.03v1.68m5.59-1.69V272m-7.83-3.36h12.86v6.71h-12.86z"/><path class="cls-4" d="M232.32 265.01c.28.84-.56.84-.84 1.68.28-2.8-2.24-2.24-1.12-4.2a3.33 3.33 0 0 0-2.81 4.43c-.54-1.08-1.94-1.08-1.66-2.19a2.57 2.57 0 0 0-.84 3.92h8.39a2.2 2.2 0 0 0-1.12-3.64z"/><path class="cls-4" d="M228.68 268.65c-.56-1.12.84-2.52.84-2.52-.28 1.4 1.4 1.4.84 2.52m1.96-1.12c.42.42-.56 1.12-.56 1.12m-5.49-1.12c-.42.42.56 1.12.56 1.12"/><path class="cls-2" d="M272.89 265.29zm0-1.68h1.68v6.71h-1.68v-6.71zm-1.12-1.12h4.19v12.87h-4.19v-12.87z"/><path class="cls-2" d="M273.03 265.29zm0-1.68h1.68v6.71h-1.68v-6.71zm-1.4-1.12h4.47v12.87h-4.47v-12.87z"/><path class="cls-2" d="M273.16 265.29zm0-1.68h1.68v6.71h-1.68v-6.71zm-1.4-1.12h4.19v12.87h-4.19v-12.87z"/><circle class="cls-2" cx="269.47" cy="272.84" r=".84"/><circle class="cls-2" cx="273.86" cy="272.84" r=".84"/><circle class="cls-2" cx="273.86" cy="272.84" r=".84"/><path class="cls-4" d="M34.87 232.22l-6.71 2.8v4.48l6.71-2.8v-4.48zm-6.71 2.8l-6.15-2.8v4.48l6.15 2.8v-4.48z"/><ellipse class="cls-4" cx="28.44" cy="232.5" rx="1.68" ry=".84"/><ellipse class="cls-4" cx="28.44" cy="229.42" rx="1.68" ry=".84"/><ellipse class="cls-4" cx="32.36" cy="231.1" rx="1.68" ry=".84"/><ellipse class="cls-4" cx="24.81" cy="231.1" rx="1.68" ry=".84"/><path class="cls-4" d="M34.87 232.22l-1.24-.56m-2.52-1.1l-1.36-.59m-2.53 0l-1.2.52m-2.52 1.1l-1.44.63"/><path class="cls-2" d="M124.12 236.56zm0-5zm0 2.24zm-8.95 6.71zm5 0zm-2.24 0zm-6.71-9zm0 5zm0-2.24zm8.95-6.71zm-5 0zm2.24 0zm4.47 10.07a.56.56 0 0 1-.56.56h-7.27a.56.56 0 0 1-.56-.56v-7.27a.56.56 0 0 1 .56-.56h7.27a.56.56 0 0 1 .56.56v7.27z"/><path class="cls-2" d="M117.97 235.44zm-1.68-1.66zm0-1.12zm4.47 3.36a1.12 1.12 0 0 1-1.12 1.12h-3.91a1.12 1.12 0 0 1-1.12-1.12v-3.94a1.12 1.12 0 0 1 1.12-1.12h3.9a1.12 1.12 0 0 1 1.12 1.12V236zm85.33-3.1s-.84-2-2.52-2a3.08 3.08 0 0 0 0 6.15c2.8 0 3.91-6.15 6.71-6.15a3.08 3.08 0 1 1-2.52 4.76"/><path class="cls-2" d="M204.15 232.55l1.94.37.37-1.95"/><ellipse class="cls-5" cx="161.19" cy="229.84" rx="5.31" ry="2.24"/><path class="cls-5" d="M166.5 229.84v2.52m-5.87 7c-2.67-.12-4.75-1.07-4.75-2.23v-7.27m4.47 7c-2.53-.17-4.47-1.09-4.47-2.21m5.31-.28c-2.93 0-5.31-1-5.31-2.24m8.39 3.87v-.56a1.68 1.68 0 1 1 3.35 0v.56h-3.35zm1.68 3.08zm-2.8-3.08h5.59v4.48h-5.59V236z"/><circle class="cls-5" cx="165.94" cy="237.67" r=".28"/><path class="cls-6" d="M249.23 236.36l1.65-2.89a5.76 5.76 0 0 0 0-5.68l-5.25 9.24zm8.75 2a2 2 0 0 1-2 2h-8.95a2 2 0 0 1 0-3.92h8.95a2 2 0 0 1 2 1.88zm-7.66-7.37l-1.54 2.7"/><circle class="cls-6" cx="247.64" cy="238.32" r=".84"/><circle class="cls-6" cx="255.47" cy="238.32" r=".84"/><path class="cls-6" d="M257.42 236.97v-5.64a1.12 1.12 0 1 0-2.24 0 1.4 1.4 0 0 1 0 2.74v2.27"/><rect class="cls-5" x="66.63" y="227.6" width="12.86" height="12.87" rx="1.12" ry="1.12"/><path class="cls-5" d="M66.63 230.4h12.86"/><circle class="cls-5" cx="68.59" cy="229" r=".28"/><circle class="cls-5" cx="70.27" cy="229" r=".28"/><circle class="cls-5" cx="71.95" cy="229" r=".28"/><path class="cls-5" d="M71.11 230.4v10.07m1.67-8.95h5.03v2.8h-5.03zm0 4.47h5.03v2.8h-5.03zm-5.02-4.47h1.11m.01 1.12h1.11m-1.11 1.12h1.11m-1.11 1.11h1.11m-2.23 1.12h1.11m.01 1.12h1.11m-1.11 1.12h1.11"/><path class="cls-7" d="M142.31 266.85c0-1.72-2.29-2.27-2.8-.17-.51-2.09-2.8-1.55-2.8.17 0 1.49 2.8 3.51 2.8 3.51 1.79-1.88 2.8-2.02 2.8-3.51zm2.27.07c0-2.81-2.66-4.42-5.07-4.42a5.26 5.26 0 0 0-5.31 5.35 4.65 4.65 0 0 0 2.24 4.3v3.22h5.59v-1.95a2.74 2.74 0 0 0 2.08-.47c.5-.5.45-2.62.45-2.62h.84a.42.42 0 0 0 .32-.17.66.66 0 0 0 .06-.35c.07-.9-1.15-2.45-1.15-2.89z"/><circle class="cls-2" cx="140.28" cy="133.71" r=".99"/><path class="cls-2" d="M141.77 131.89a1.29 1.29 0 0 0-.24.11 1.32 1.32 0 0 0 0-.27 1.27 1.27 0 1 0-2.54 0 1.32 1.32 0 0 0 0 .27 1.29 1.29 0 0 0-.24-.11 1.27 1.27 0 1 0-.52 2.48 1.23 1.23 0 0 0-.18.2 1.27 1.27 0 1 0 2.19 1.26 1.3 1.3 0 0 0 .13.23 1.274 1.274 0 1 0 2.06-1.5 1.25 1.25 0 0 0-.18-.2l.26-.06a1.27 1.27 0 0 0-.74-2.41zm.74 11.43h-5.03l-1.12-4.47h7.27l-1.12 4.47zm-2.82-4.47c2.2-.4-.15-1.35.59-3m-3.64 4.12h6.71"/><path class="cls-5" d="M178.19 131.72h12.86v3.36h-12.86z"/><circle class="cls-5" cx="185.74" cy="133.39" r=".28"/><circle class="cls-5" cx="187.41" cy="133.39" r=".28"/><circle class="cls-5" cx="189.09" cy="133.39" r=".28"/><circle class="cls-5" cx="179.87" cy="133.39" r=".56"/><path class="cls-5" d="M178.19 135.07v3.36h12.86v-3.36"/><circle class="cls-5" cx="185.74" cy="136.75" r=".28"/><circle class="cls-5" cx="187.41" cy="136.75" r=".28"/><circle class="cls-5" cx="189.09" cy="136.75" r=".28"/><circle class="cls-5" cx="179.87" cy="136.75" r=".56"/><path class="cls-5" d="M184.9 138.43v3.35m-3.91 0h7.27m2.23-.27a.28.28 0 1 0 .28.28.28.28 0 0 0-.28-.28zm-1.12 0a.28.28 0 1 0 .28.28.28.28 0 0 0-.28-.28zm-9.5 0a.28.28 0 1 0 .28.28.28.28 0 0 0-.28-.28zm-1.12 0a.28.28 0 1 0 .28.28.28.28 0 0 0-.28-.28z"/><ellipse class="cls-5" cx="50.75" cy="134.65" rx="3.07" ry="1.4"/><ellipse class="cls-5" cx="55.78" cy="131.3" rx="1.4" ry=".84"/><path class="cls-5" d="M57.18 131.3v1.68a1.58 1.58 0 0 1-2.8 0v-1.68"/><ellipse class="cls-5" cx="45.72" cy="131.3" rx="1.4" ry=".84"/><path class="cls-5" d="M47.12 131.3v1.68a1.58 1.58 0 0 1-2.8 0v-1.68"/><ellipse class="cls-5" cx="55.78" cy="140.81" rx="1.4" ry=".84"/><path class="cls-5" d="M57.18 140.78v1.68a1.58 1.58 0 0 1-2.8 0v-1.68"/><ellipse class="cls-5" cx="45.72" cy="140.81" rx="1.4" ry=".84"/><path class="cls-5" d="M55.77 139.95l-1.94-1.94m1.94-4.18l-1.95 1.95m-8.09 4.18l1.94-1.94m-1.94-4.18l1.95 1.94m0-1.12v4.48c0 .77 1.38 1.4 3.08 1.4s3.07-.63 3.07-1.4v-4.48m0 2.24c0 .77-1.38 1.4-3.07 1.4s-3.08-.63-3.08-1.4m-.56 3.88v1.68a1.58 1.58 0 0 1-2.8 0v-1.68"/><circle class="cls-4" cx="96.21" cy="136.05" r="2.24"/><circle class="cls-4" cx="89.78" cy="133.25" r=".84"/><circle class="cls-4" cx="100.97" cy="131.3" r=".84"/><circle class="cls-4" cx="89.78" cy="142.49" r=".84"/><circle class="cls-4" cx="96.21" cy="142.49" r=".84"/><path class="cls-4" d="M96.21 141.65v-3.36m3.95-.26l-2-.84m-7.6-3.57l3.62 1.55m3.64-.7l2.57-2.58m-10 10l4.24-4.25"/><circle class="cls-4" cx="100.97" cy="138.29" r=".84"/><path class="cls-4" d="M276.45 140.53zm1.11 1.12zm0-3.53a1.41 1.41 0 0 1-1.12.54 2 2 0 0 1-1.12-.42v3.32c.33.53.32 1.18 2.24 1.72a3 3 0 0 0 2.24-1.72v-3.32a1.94 1.94 0 0 1-1.12.42 1.4 1.4 0 0 1-1.12-.54zm-3.39-7.65a8.9 8.9 0 0 1 2.52 6.11m-8.4 3.38h5.59m-5.38-6.71h10.7"/><path class="cls-4" d="M273.47 130.47c-3.35 3.64-3.28 8.38.07 12.86h-.25a6.53 6.53 0 0 1-5.85-6.55 6.3 6.3 0 0 1 6.16-6.29h.28a6.4 6.4 0 0 1 6.41 5.86v.29h-12.85M4.85 134.82v-1.96l-.24.23m-1.7 4.49v-1.96l-.24.22m8.01-1.02v-1.96l-.24.23m.24 4.49v-1.96l-.24.22m-1.71-1.02v-1.96l-.23.23m-1.71 4.49v-1.96l-.23.22m-3.26-1.99c0 .55-.08 1-.51 1s-.51-.45-.51-1 .08-1 .51-1 .51.44.51 1zm3.89 0c0 .55-.08 1-.51 1s-.51-.45-.51-1 .08-1 .51-1 .51.44.51 1zm1.94 2.75c0 .55-.08 1-.51 1s-.51-.45-.51-1 .08-1 .51-1 .51.45.51 1zm-3.89 0c0 .55-.08 1-.51 1s-.51-.45-.51-1 .08-1 .51-1 .51.45.51 1z"/><path class="cls-4" d="M13.22 140.48a.86.86 0 0 1-.84.89H1.2a.86.86 0 0 1-.84-.89v-8.29a.86.86 0 0 1 .84-.89h11.18a.86.86 0 0 1 .84.89v8.29zm-10.34 2.01h7.83m-4.2-1.12v1.12"/><circle class="cls-4" cx="6.79" cy="140.25" r=".28"/><path class="cls-4" d="M.36 139.13h12.86m37.54 123.36a3.6 3.6 0 0 1-2.79 1.34 4.87 4.87 0 0 1-2.8-1v8.29c1.79 2.39.81 2.95 5.59 4.29 4.78-1.34 5.59-4.29 5.59-4.29v-8.34a4.87 4.87 0 0 1-2.8 1 3.56 3.56 0 0 1-2.79-1.29z"/><path class="cls-4" d="M53.48 271.47l.84-1.45-.84-.48a2.77 2.77 0 0 0 0-1.21l.84-.48-.84-1.45-.81.49a4 4 0 0 0-1-.61v-1h-1.69v1a2 2 0 0 0-1.08.61l-.86-.48-.85 1.45.83.48a2.76 2.76 0 0 0 0 1.21l-.84.48.84 1.45.87-.49a2 2 0 0 0 1.08.61v1h1.66v-1a4 4 0 0 0 1-.61z"/><circle class="cls-4" cx="50.75" cy="268.92" r="1.12"/><path class="cls-4" d="M235.63 5.21l-6.71 2.8v4.48l6.71-2.8V5.21zm-6.71 2.8l-6.15-2.8v4.48l6.15 2.8V8.01z"/><ellipse class="cls-4" cx="229.24" cy="5.49" rx="1.68" ry=".84"/><ellipse class="cls-4" cx="229.24" cy="2.41" rx="1.68" ry=".84"/><ellipse class="cls-4" cx="233.15" cy="4.09" rx="1.68" ry=".84"/><ellipse class="cls-4" cx="225.61" cy="4.09" rx="1.68" ry=".84"/><path class="cls-4" d="M235.63 5.21l-1.29-.56m-2.52-1.1l-1.36-.59m-2.53 0l-1.2.52m-2.52 1.1l-1.44.63"/><path class="cls-8" d="M100.76 6.34l.87-1.46-.84-.48a2.75 2.75 0 0 0 0-1.21l.84-.48-.84-1.45-.81.49a4 4 0 0 0-1-.61v-1H97.3v1a2 2 0 0 0-1.08.61l-.86-.49-.85 1.45.83.48a2.76 2.76 0 0 0 0 1.21l-.84.48.84 1.45.87-.49a2 2 0 0 0 1.08.61v1h1.68v-1a4 4 0 0 0 1-.61z"/><circle class="cls-8" cx="97.82" cy="3.79" r="1.12"/><path class="cls-8" d="M95.45 11.93l.84-1.45-.84-.48a2.75 2.75 0 0 0 0-1.21l.84-.48-.84-1.45-.82.46a4 4 0 0 0-1-.61v-.93h-1.68v1a2 2 0 0 0-1.08.61l-.86-.49-.85 1.45.84.43a2.76 2.76 0 0 0 0 1.21l-.84.48.84 1.45.87-.49a2 2 0 0 0 1.08.61v1h1.68v-1a4 4 0 0 0 1-.61z"/><circle class="cls-8" cx="92.51" cy="9.38" r="1.12"/><circle class="cls-7" cx="187.69" cy="10.1" r="3.35"/><path class="cls-7" d="M187.69 11.51v-2.8m-1.4 1.4h2.8"/><ellipse class="cls-7" cx="183.5" cy="2.83" rx="5.31" ry="2.24"/><path class="cls-7" d="M188.81 2.83v2.52m-5.87 7c-2.67-.12-4.75-1.07-4.75-2.23V2.83m4.44 6.95c-2.53-.17-4.47-1.09-4.47-2.21m5.31-.28c-2.93 0-5.31-1-5.31-2.24"/><circle class="cls-5" cx="136.36" cy="11.22" r=".84"/><circle class="cls-5" cx="142.51" cy="11.22" r=".84"/><path class="cls-5" d="M146.43.87h-1.68l-2.24 9.51h-6.15"/><path class="cls-5" d="M142.79 9.27h-7.27l-1.67-5.04h10.09"/><path class="cls-5" d="M139.44 4.23l2.23-2.24 2.28 2.24m-7.31 0L134.97.49l-1.4.66 1.4 3.08"/><path class="cls-5" d="M138.6 4.23V2.55h2.52"/><path class="cls-7" d="M55.23 7.15h1.4v1.4m-6.71 1.68l3.63-3.08 3.63 3.08m-5.55.27v2.8h3.91v-2.8m-8.95-2.8l1.04-1.11 1.12 1.12"/><path class="cls-7" d="M47.63 6.59v5.59h2.52m-.09-6.71h.57c-6.52-5.32 1.53-.2 1.53-1.7a1.7 1.7 0 0 0-1.76-1.7 2.38 2.38 0 0 0-4.53.88 1.28 1.28 0 0 0-1.54 1.25 1.29 1.29 0 0 0 1.36 1.28h4.42zm2.61 5.59h1.68v2.24h-1.64v-2.24z"/><path class="cls-5" d="M273.86 9.44s2.52-1.81 2.52-3.16c0-1.55-2.06-2-2.52-.15-.46-1.88-2.52-1.39-2.52.15.01 1.35 2.52 3.16 2.52 3.16z"/><path class="cls-5" d="M267.99 10.78v-7a.84.84 0 0 1 .84-.84h10.06a.84.84 0 0 1 .84.84v7"/><path class="cls-5" d="M275.26 10.78v.56h-2.8v-.56h-5v1.12a.56.56 0 0 0 .56.56h11.71a.56.56 0 0 0 .56-.56v-1.12h-5z"/><path class="cls-4" d="M6.8 1.72a3.6 3.6 0 0 1-2.79 1.34 4.87 4.87 0 0 1-2.8-1v8.29c1.79 2.39.81 2.95 5.59 4.29 4.78-1.34 5.59-4.29 5.59-4.29V2.01a4.87 4.87 0 0 1-2.8 1A3.56 3.56 0 0 1 6.8 1.72z"/><path class="cls-4" d="M9.52 10.69l.84-1.45-.84-.46a2.77 2.77 0 0 0 0-1.21l.84-.48-.84-1.45-.81.49a4 4 0 0 0-1-.61v-1H6.02v1a2 2 0 0 0-1.08.61l-.86-.48-.85 1.41.83.48a2.76 2.76 0 0 0 0 1.21l-.84.48.84 1.45.87-.49a2 2 0 0 0 1.09.59v1H7.7v-1a4 4 0 0 0 1-.61z"/><circle class="cls-4" cx="6.79" cy="8.15" r="1.12"/><ellipse class="cls-5" cx="184.62" cy="268.92" rx="6.43" ry="6.43"/><circle class="cls-5" cx="184.62" cy="268.92" r="1.4"/><path class="cls-5" d="M187.25 268.83a3.82 3.82 0 0 1-1.4 2.42l2.7.91a3 3 0 0 0 .84-1.45zm-3.87 2.42a3.83 3.83 0 0 1-1.4-2.42l-2.14 1.88a3 3 0 0 0 .84 1.45zm-.16-4.57a3.82 3.82 0 0 1 2.8 0l-.56-2.8a3 3 0 0 0-1.68 0zM24.13 40.9l-2.07 3.59 2.15-.36.75 2.05 1.83-3.09m5.99-2.14l2.05 3.54-2.16-.36-.74 2.05-1.84-3.07"/><circle class="cls-5" cx="28.49" cy="38.35" r="5.03"/><path class="cls-5" d="M28.49 35.55l.83 1.68H31l-1.39 1.4.55 1.96-1.67-1.05-1.68 1.05.56-1.96-1.4-1.4h1.68l.84-1.68z"/><circle class="cls-5" cx="254.63" cy="42.82" r="3.35"/><path class="cls-5" d="M254.63 44.23v-2.8m-1.4 1.35h2.8"/><ellipse class="cls-5" cx="250.43" cy="35.55" rx="5.31" ry="2.24"/><path class="cls-5" d="M255.75 35.55v2.52m-5.87 7c-2.67-.12-4.75-1.07-4.75-2.23v-7.29m4.47 7c-2.53-.17-4.47-1.09-4.47-2.21m5.31-.28c-2.93 0-5.31-1-5.31-2.24"/><rect class="cls-7" x="200.5" y="33.31" width="12.86" height="12.87" rx="1.12" ry="1.12"/><path class="cls-7" d="M200.5 36.11h12.86"/><circle class="cls-7" cx="202.46" cy="34.71" r=".28"/><circle class="cls-7" cx="204.13" cy="34.71" r=".28"/><circle class="cls-7" cx="205.81" cy="34.71" r=".28"/><path class="cls-7" d="M204.97 36.11v10.07m1.68-8.95h5.03v2.8h-5.03zm0 4.48h5.03v2.8h-5.03zm-5.02-4.48h1.11m.01 1.12h1.1m-1.1 1.12h1.1m-1.1 1.12h1.1m-2.22 1.12h1.11m.01 1.11h1.1m-1.1 1.12h1.1m-39.22-6.27c0-1.72-2.29-2.27-2.8-.17-.51-2.09-2.8-1.55-2.8.17 0 1.49 2.8 3.51 2.8 3.51 1.8-1.88 2.8-2.02 2.8-3.51zm2.27.11c0-2.81-2.66-4.42-5.07-4.42a5.26 5.26 0 0 0-5.31 5.35 4.65 4.65 0 0 0 2.24 4.3v3.17h5.59v-1.94a2.74 2.74 0 0 0 2.08-.46c.5-.5.45-2.62.45-2.62h.84a.42.42 0 0 0 .32-.17.66.66 0 0 0 .06-.35c.06-.91-1.2-2.45-1.2-2.86z"/><path class="cls-2" d="M116.29 39.47v1.12m-1.12-1.12v1.12m1.12-3.92v1.11m-3.35-1.12v1.12m1.11 4.49zm-1.12 0zm2.24 0h1.12v1.12h-1.12v-1.12zm-2.24-2.8h1.12v1.12h-1.12v-1.12zm1.12-2.8h1.12v1.11h-1.12v-1.11z"/><circle class="cls-2" cx="120.76" cy="42.82" r="3.35"/><path class="cls-2" d="M121.88 42.55l-1.12-1.12-1.13 1.12m1.12-1.12v2.8m-3.62.83h-5.88V33.31h6.16l2.79 2.8v2.52"/><path class="cls-2" d="M117.41 33.31v2.8h2.79"/><ellipse class="cls-6" cx="229.24" cy="136.75" rx="6.43" ry="6.43"/><circle class="cls-6" cx="229.24" cy="136.75" r="1.4"/><path class="cls-6" d="M231.88 136.66a3.82 3.82 0 0 1-1.4 2.42l2.7.91a3 3 0 0 0 .84-1.45zm-3.87 2.42a3.83 3.83 0 0 1-1.4-2.42l-2.14 1.88a3 3 0 0 0 .84 1.45zm-.16-4.57a3.82 3.82 0 0 1 2.8 0l-.56-2.8a3 3 0 0 0-1.68 0z"/><path class="cls-7" d="M158 170.43l-2.08 3.59 2.16-.37.74 2.06 1.84-3.09m5.98-2.14l2.05 3.54-2.15-.37-.75 2.06-1.83-3.07"/><circle class="cls-7" cx="162.35" cy="167.87" r="5.03"/><path class="cls-7" d="M162.35 165.08l.84 1.67h1.68l-1.4 1.4.56 1.96-1.68-1.05-1.67 1.05.55-1.96-1.39-1.4h1.67l.84-1.67z"/><path class="cls-5" d="M26.89 167.6l1.55 1.55-1.55 1.55m-1.94-3.1l-1.55 1.55 1.55 1.55"/><circle class="cls-5" cx="33.75" cy="170.67" r="1.12"/><circle class="cls-5" cx="33.75" cy="174.59" r="1.12"/><circle class="cls-5" cx="29.28" cy="172.91" r="1.12"/><path class="cls-5" d="M30.17 173.37l2.38.89m-2.43-1.79l2.51-1.24m-4.75 3.36h-5.87v-11.75h6.15l2.8 2.8v4.75"/><path class="cls-5" d="M28.16 162.84v2.8h2.8"/><ellipse class="cls-4" cx="117.69" cy="169.27" rx="6.43" ry="6.43"/><path class="cls-4" d="M117.69 165.07a4.48 4.48 0 0 0-1.41 8.72.21.21 0 0 0 .29-.21v-.8a1.14 1.14 0 0 1-1.5-.59 1.19 1.19 0 0 0-.5-.66c-.41-.28 0-.27 0-.27a.94.94 0 0 1 .69.46 1 1 0 0 0 1.3.37 1 1 0 0 1 .28-.6 2 2 0 0 1-2-2.21 1.74 1.74 0 0 1 .46-1.2 1.61 1.61 0 0 1 0-1.18 1.66 1.66 0 0 1 1.23.46 4.23 4.23 0 0 1 2.24 0 1.66 1.66 0 0 1 1.23-.46 1.6 1.6 0 0 1 0 1.18 1.73 1.73 0 0 1 .46 1.2 2 2 0 0 1-2 2.21 1.06 1.06 0 0 1 .31.82v1.24a.21.21 0 0 0 .3.21 4.48 4.48 0 0 0-1.38-8.69z"/><path class="cls-2" d="M72.23 168.16s-.84-2-2.52-2a3.08 3.08 0 0 0 0 6.15c2.8 0 3.91-6.15 6.71-6.15a3.08 3.08 0 1 1-2.52 4.76"/><path class="cls-2" d="M70.28 167.79l1.94.36.37-1.94"/><path class="cls-6" d="M256.03 169.42h1.4v1.36m-6.71 1.68l3.63-3.08 3.63 3.08m-5.59.28v2.8h3.91v-2.76m-8.95-2.8l1.12-1.12 1.16 1.12"/><path class="cls-6" d="M248.48 168.86v5.59H251m-.1-6.67h.52c-6.52-5.32 1.53-.2 1.53-1.7a1.7 1.7 0 0 0-1.76-1.7 2.38 2.38 0 0 0-4.53.88 1.28 1.28 0 0 0-1.54 1.25 1.29 1.29 0 0 0 1.36 1.28h4.42zm2.61 5.59h1.68v2.24h-1.68v-2.24z"/><path class="cls-5" d="M209.5 172.64a1 1 0 0 0 .2 1.39 11.76 11.76 0 0 0 3.16 1.2 11.74 11.74 0 0 0-1.19-3.17 1 1 0 0 0-1.38-.2zm-2.17-4.94a12.21 12.21 0 0 1 2.59.18 3.81 3.81 0 0 1 1.17.81l2 2-3.15-.39zm-2 2a12.16 12.16 0 0 0 .2 2.57 3.81 3.81 0 0 0 .79 1.19l2 2-.37-3.14zm4.15.2l-2 2zm.79.8c3.56-7.8-6.12-6.14-6.52-6.54-.59-.59-3-1-3-1s.4 2.37 1 3l6.52 6.53z"/><ellipse class="cls-5" cx="94.26" cy="197.46" rx="5.31" ry="2.24"/><path class="cls-5" d="M101.81 202.98l-.39 1.53-1.53-.39m-.37 3.86a2.8 2.8 0 1 1 1.9-3.47m-1.85-7v3.08m-5.31 6.43c-2.93 0-5.31-1-5.31-2.24v-7.27m5.31 7c-2.93 0-5.31-1-5.31-2.24m6.15-.31h-.84c-2.93 0-5.31-1-5.31-2.24"/><path class="cls-8" d="M136.92 202.5zm2.24 0zm3.91 0zm-2.24 0zm3.91-3.36l-3.34-3.36zm-9.5 0l3.39-3.36zm-1.68 1.12h12.87v1.12h-12.86v-1.12zm11.18 7.27h-9.5l-1.12-6.15h11.74z"/><path class="cls-7" d="M228.96 208.23v-3.08h-2.23v-3.37h1.68v-2.8h1.68v-3.9m2.52.56h2.52v11.75h-4.75"/><path class="cls-7" d="M228.4 196.76l1.68-1.68 1.66 1.68m.02 3.92v-2.8h1.68v1.4m1.68 1.4h-5v1.4m5 2h-1.4m1.4 1.68h-1.4m-1.4 1.68v-5h1.4m-8.67-.84v4.76h2.24v1.12h-3.91v-11.84h4.19m0 7.83h3.06v2.52m-7.27-5.87h3.35v-2.52m-1.68-2v3.08M12.4 203.11a2.24 2.24 0 0 0-.15-3.59 1.68 1.68 0 0 0-1.75-2.33 3.07 3.07 0 0 0-5.93.84 2.8 2.8 0 0 0-2.53 2.75m8.53 3.19a1.68 1.68 0 0 0-1.75-2.33 3.07 3.07 0 0 0-5.93.84 2.8 2.8 0 0 0 .27 5.58h6.15a2.24 2.24 0 0 0 1.26-4.06z"/><circle class="cls-2" cx="50.75" cy="201.08" r="1.12"/><path class="cls-2" d="M47.63 203.06a1.12 1.12 0 0 0-1.12-1.12H46a1.12 1.12 0 0 0-1.12 1.12v1.72h2.75v-1.68zm8.95 0a1.12 1.12 0 0 0-1.12-1.12h-.51a1.12 1.12 0 0 0-1.12 1.12v1.72h2.8v-1.68zm-8.95-4.48a1.12 1.12 0 0 0-1.12-1.12H46a1.12 1.12 0 0 0-1.12 1.12v1.68h2.75v-1.68zm8.95 0a1.12 1.12 0 0 0-1.12-1.12h-.51a1.12 1.12 0 0 0-1.12 1.12v1.68h2.8v-1.68zm-4.47-2.24a1.12 1.12 0 0 0-1.12-1.12h-.52a1.12 1.12 0 0 0-1.12 1.12v1.68h2.8v-1.68z"/><path class="cls-2" d="M49.34 196.54a4.75 4.75 0 0 0-2 1.23m-1.27 2.48a4.81 4.81 0 0 0 0 1.68m9.36 0a4.54 4.54 0 0 0 .07-.85 4.78 4.78 0 0 0-.07-.82m-1.26-2.48a4.77 4.77 0 0 0-2-1.27m-1.4 5.7l-2.8 5.89h5.59l-2.8-5.89m3.09 2.51a4.82 4.82 0 0 1-.78.54m-4.56 0a4.75 4.75 0 0 1-.92-.65"/><path class="cls-4" d="M182.63 199.63a1.12 1.12 0 0 0 0-1.58l-1.19-1.19a1.12 1.12 0 0 0-1.58 0l-.65.65a1.68 1.68 0 0 0-.21 2.11 26 26 0 0 0 7.27 7.27 1.68 1.68 0 0 0 2.11-.21l.65-.65a1.12 1.12 0 0 0 0-1.58l-1.19-1.19a1.12 1.12 0 0 0-1.58 0l-.4.4a26.53 26.53 0 0 1-3.63-3.64zm7.3-.29v-3.21l-1.75 2.14h2.31m-5.09-1.37a.8.8 0 1 1 1.45.5l-1.46 1.93h1.6"/><path class="cls-8" d="M71.1 37.72a1.12 1.12 0 0 0 0-1.58l-1.19-1.19a1.12 1.12 0 0 0-1.58 0l-.65.65a1.68 1.68 0 0 0-.21 2.11 26 26 0 0 0 7.27 7.27 1.68 1.68 0 0 0 2.11-.2l.65-.65a1.12 1.12 0 0 0 0-1.58l-1.19-1.19a1.12 1.12 0 0 0-1.58 0l-.4.4a26.53 26.53 0 0 1-3.63-3.64zm7.28-.29v-3.2l-1.76 2.13h2.31M73.85 35a.8.8 0 1 1 1.45.5l-1.46 1.93h1.6"/><path class="cls-7" d="M223.93 77.03zm0-1.12zm.56-9h9.5v5.59h-9.5v-5.54zm10.62 5.59a1.07 1.07 0 0 1-1 1.12h-9.7a1.07 1.07 0 0 1-1-1.12v-5.54a1.07 1.07 0 0 1 1-1.12h9.7a1.07 1.07 0 0 1 1 1.12v5.59zm-12.3 6.15v-3.02a.84.84 0 0 1 .82-.85h11.2a.84.84 0 0 1 .84.84v3.08h-12.86z"/><path class="cls-7" d="M229.52 75.91h5.03v1.12h-5.03z"/><circle class="cls-4" cx="184.9" cy="69.09" r=".99"/><path class="cls-4" d="M186.39 67.27a1.29 1.29 0 0 0-.24.11 1.32 1.32 0 0 0 0-.27 1.27 1.27 0 1 0-2.54 0 1.32 1.32 0 0 0 0 .27 1.29 1.29 0 0 0-.24-.11 1.273 1.273 0 0 0-.79 2.42l.31.09a1.23 1.23 0 0 0-.18.2 1.27 1.27 0 1 0 2.19 1.26 1.3 1.3 0 0 0 .13.23 1.274 1.274 0 1 0 2.06-1.5 1.26 1.26 0 0 0-.18-.2l.26-.06a1.28 1.28 0 0 0-.78-2.44zm.74 11.43h-5.03l-1.11-4.47h7.26l-1.12 4.47zm-2.81-4.47c2.2-.4-.15-1.35.59-3m-3.65 4.12h6.71"/><path class="cls-5" d="M137.63 74.6l1.65-2.89a5.76 5.76 0 0 0 0-5.68l-5.29 9.23zm8.75 2a2 2 0 0 1-2 2h-8.85a2 2 0 0 1 0-3.92h8.95a2 2 0 0 1 1.95 1.88zm-7.62-7.37l-1.53 2.69"/><circle class="cls-5" cx="136.08" cy="76.55" r=".84"/><circle class="cls-5" cx="143.91" cy="76.55" r=".84"/><path class="cls-5" d="M145.87 75.2v-5.64a1.12 1.12 0 1 0-2.24 0 1.4 1.4 0 0 1 0 2.74v2.27"/><circle class="cls-6" cx="278.19" cy="86.36" r="2.24" transform="rotate(-9 192.503 101.193)"/><circle class="cls-6" cx="279.95" cy="79.58" r=".84" transform="rotate(-9 194.255 94.363)"/><circle class="cls-6" cx="283.63" cy="90.31" r=".84" transform="rotate(-9 197.946 105.137)"/><circle class="cls-6" cx="270.83" cy="81.02" r=".84" transform="rotate(-9 185.128 95.818)"/><circle class="cls-6" cx="271.84" cy="87.37" r=".84" transform="rotate(-9 186.162 102.164)"/><path class="cls-6" d="M269.3 74.02l3.32-.53m.88 3.86l.51-2.13m2.34-8.07l-1 3.82m1.28 3.49l3 2.14m-11.44-8.31l4.87 3.54"/><circle class="cls-6" cx="276.73" cy="91.41" r=".84" transform="rotate(-9 191.023 106.19)"/><path class="cls-4" d="M.36 76.44a.54.54 0 0 1 .56-.54h5a.54.54 0 0 1 .56.54v1.14H.36v-1.14zm1.68-3.34h2.78v1.68H2.04z"/><path class="cls-4" d="M.92 75.9v-3.12a.82.82 0 0 1 .84-.82H5.1a.82.82 0 0 1 .84.82v3.1m1.13.56a.54.54 0 0 1 .56-.54h5a.54.54 0 0 1 .56.54v1.14H7.07v-1.14zm1.68-3.34h2.8v1.68h-2.8z"/><path class="cls-4" d="M7.63 75.9v-3.12a.82.82 0 0 1 .84-.82h3.35a.82.82 0 0 1 .81.82v3.1m-7.24-7.81h2.8v1.68h-2.8z"/><path class="cls-4" d="M4.27 70.87v-3.09a.82.82 0 0 1 .84-.82h3.35a.82.82 0 0 1 .84.82v3.07m-1.62 1.7H5.92"/><path class="cls-4" d="M3.71 71.99v-.58a.54.54 0 0 1 .56-.54h5a.54.54 0 0 1 .56.54v.51"/><path class="cls-8" d="M92.81 75.64a1 1 0 0 1-.2 1.39 11.76 11.76 0 0 1-3.16 1.2 11.74 11.74 0 0 1 1.18-3.19 1 1 0 0 1 1.38-.2zm2.17-4.94a12.21 12.21 0 0 0-2.59.18 3.81 3.81 0 0 0-1.17.81l-2 2 3.15-.39zm2 2a12.16 12.16 0 0 1-.2 2.57 3.81 3.81 0 0 1-.79 1.19l-2 2 .37-3.14zm-4.15.2l2 2zm-.79.8c-3.56-7.8 6.12-6.14 6.52-6.54.59-.59 3-1 3-1s-.4 2.37-1 3l-6.52 6.53z"/><path class="cls-9" d="M120.63 101.46l2.75 2.76h-11.4l2.75-2.76h5.9m3.18 3.36v1.96a.82.82 0 0 1-.82.82h-10.61a.82.82 0 0 1-.82-.82v-2h12.26m-3.05-3.66h-6.14l-3.35 3.36h12.86l-3.35-3.36zm3.35 3.36h-12.86v2.3a1.12 1.12 0 0 0 1.12 1.12H123a1.12 1.12 0 0 0 1.12-1.12v-2.24z"/><circle class="cls-2" cx="118.8" cy="106.19" r=".28"/><circle class="cls-2" cx="120.48" cy="106.19" r=".28"/><circle class="cls-2" cx="122.16" cy="106.19" r=".28"/><circle class="cls-2" cx="112.93" cy="106.19" r=".56"/><path class="cls-2" d="M123 107.88v.56m-10.62-.56v.56"/><path class="cls-7" d="M23.69 108.44h9.5v2.8h-9.5v-2.8zm0-2.8h9.5v2.8h-9.5v-2.8zm9.5-3.68a2 2 0 0 0-2.14-2 2.9 2.9 0 0 0-2.61-1.6 2.85 2.85 0 0 0-2.88 2.63 1.54 1.54 0 0 0-1.87 1.47 1.56 1.56 0 0 0 1.65 1.5h6c-9.96-5.87 1.86-.24 1.86-2z"/><circle class="cls-7" cx="25.65" cy="107.03" r=".56"/><circle class="cls-7" cx="31.24" cy="107.03" r=".28"/><circle class="cls-7" cx="29.56" cy="107.03" r=".28"/><circle class="cls-7" cx="25.65" cy="109.83" r=".56"/><circle class="cls-7" cx="31.24" cy="109.83" r=".28"/><circle class="cls-7" cx="29.56" cy="109.83" r=".28"/><path class="cls-6" d="M160.91 99.48zm5.59 10.07a1.68 1.68 0 0 1-1.68 1.68h-5a1.68 1.68 0 0 1-1.68-1.68v-9.51a1.68 1.68 0 0 1 1.68-1.68h5a1.68 1.68 0 0 1 1.68 1.68v9.51zm-1.12-2.24a.56.56 0 0 1-.56.56h-5a.56.56 0 0 1-.56-.56v-6.15a.56.56 0 0 1 .56-.56h5a.56.56 0 0 1 .56.56v6.15z"/><path class="cls-6" d="M164.55 109.28h-.56v.56h.56v-.56zm-3.91 0h-.56v.56h.55v-.56zm.83-.29h1.68v1.12h-1.68z"/><ellipse class="cls-5" cx="206.93" cy="102.56" rx="3.08" ry="1.4"/><ellipse class="cls-5" cx="211.96" cy="99.2" rx="1.4" ry=".84"/><path class="cls-5" d="M213.36 99.2v1.68a1.58 1.58 0 0 1-2.8 0V99.2"/><ellipse class="cls-5" cx="201.9" cy="99.2" rx="1.4" ry=".84"/><path class="cls-5" d="M203.3 99.2v1.68a1.58 1.58 0 0 1-2.8 0V99.2"/><ellipse class="cls-5" cx="211.96" cy="108.71" rx="1.4" ry=".84"/><path class="cls-5" d="M213.36 108.72v1.68a1.58 1.58 0 0 1-2.8 0v-1.68"/><ellipse class="cls-5" cx="201.9" cy="108.71" rx="1.4" ry=".84"/><path class="cls-5" d="M211.95 107.86l-1.94-1.94m1.94-4.18l-1.94 1.94m-8.09 4.18l1.94-1.94m-1.94-4.14l1.94 1.94m0-1.12v4.48c0 .77 1.38 1.4 3.08 1.4s3.07-.63 3.07-1.4v-4.48m0 2.24c0 .77-1.38 1.4-3.07 1.4s-3.08-.63-3.08-1.4m-.56 3.92v1.68a1.58 1.58 0 0 1-2.8 0v-1.68"/><path class="cls-4" d="M245.12 102h10.62"/><circle class="cls-4" cx="246.8" cy="100.88" r=".28"/><circle class="cls-4" cx="247.92" cy="100.88" r=".28"/><circle class="cls-4" cx="249.04" cy="100.88" r=".28"/><rect class="cls-4" x="245.12" y="99.76" width="10.62" height="7.83" rx="1.12" ry="1.12"/><path class="cls-4" d="M255.75 100.88a1.12 1.12 0 0 1 1.12 1.12v5.59a1.12 1.12 0 0 1-1.12 1.12h-8.39a1.12 1.12 0 0 1-1.12-1.12"/><path class="cls-4" d="M256.86 102a1.12 1.12 0 0 1 1.12 1.12v5.59a1.12 1.12 0 0 1-1.12 1.12h-8.39a1.12 1.12 0 0 1-1.12-1.12"/><circle class="cls-4" cx="73.06" cy="100.32" r="1.4"/><circle class="cls-4" cx="76.98" cy="100.88" r=".84"/><circle class="cls-4" cx="69.15" cy="100.88" r=".84"/><path class="cls-4" d="M75.86 108.55c2.15.18 3.63.57 3.63 1 0 .62-2.88 1.12-6.43 1.12s-6.43-.5-6.43-1.12c0-.44 1.47-.82 3.61-1m-.25-1.77h-1.68v-3.1a.84.84 0 1 1 1.68 0v3.1zm7.83 0h-1.68v-3.1a.84.84 0 1 1 1.68 0v3.1zm-3.35 1.12h-2.84v-3.64a1.4 1.4 0 1 1 2.8 0v3.64z"/><path class="cls-2" d="M295.34 232.92s-.84-2-2.52-2a3.08 3.08 0 0 0 0 6.15c2.8 0 3.91-6.15 6.71-6.15a3.08 3.08 0 1 1-2.52 4.76"/><path class="cls-2" d="M293.39 232.55l1.94.37.37-1.95"/><path class="cls-6" d="M294.78 99.48zm5.59 10.07a1.68 1.68 0 0 1-1.68 1.68h-5a1.68 1.68 0 0 1-1.68-1.68v-9.51a1.68 1.68 0 0 1 1.68-1.68h5a1.68 1.68 0 0 1 1.68 1.68v9.51zm-1.12-2.24a.56.56 0 0 1-.56.56h-5a.56.56 0 0 1-.56-.56v-6.15a.56.56 0 0 1 .56-.56h5a.56.56 0 0 1 .56.56v6.15z"/><path class="cls-6" d="M298.41 109.28h-.56v.56h.56v-.56zm-3.91 0h-.56v.56h.56v-.56zm.83-.29h1.68v1.12h-1.68z"/><circle class="cls-4" cx="296.46" cy="36.57" r=".99"/><path class="cls-4" d="M297.95 34.78a1.29 1.29 0 0 0-.24.11 1.32 1.32 0 0 0 0-.27 1.27 1.27 0 1 0-2.54 0 1.32 1.32 0 0 0 0 .27 1.29 1.29 0 0 0-.24-.11 1.273 1.273 0 0 0-.79 2.42l.26.06a1.23 1.23 0 0 0-.18.2 1.27 1.27 0 1 0 2.19 1.26 1.3 1.3 0 0 0 .13.23 1.274 1.274 0 1 0 2.06-1.5 1.26 1.26 0 0 0-.18-.2l.26-.06a1.27 1.27 0 0 0-.73-2.41zm.74 11.4h-5.03l-1.12-4.48h7.27l-1.12 4.48zm-2.82-4.47c2.2-.4-.15-1.35.59-3m-3.64 4.11h6.71"/><circle class="cls-4" cx="296.17" cy="164.8" r="1.4"/><circle class="cls-4" cx="300.09" cy="165.36" r=".84"/><circle class="cls-4" cx="292.26" cy="165.36" r=".84"/><path class="cls-4" d="M298.97 173.02c2.15.18 3.63.57 3.63 1 0 .62-2.88 1.12-6.43 1.12s-6.43-.5-6.43-1.12c0-.44 1.47-.82 3.61-1m-.25-1.79h-1.68v-3.08a.84.84 0 1 1 1.68 0v3.08zm7.83 0h-1.68v-3.08a.84.84 0 1 1 1.68 0v3.08zm-3.35 1.12h-2.8v-3.64a1.4 1.4 0 1 1 2.8 0v3.64z"/></g></svg>