<?xml version="1.0" encoding="UTF-8" standalone="no"?>
<svg width="234px" height="472px" viewBox="0 0 234 472" version="1.1" xmlns="http://www.w3.org/2000/svg" xmlns:xlink="http://www.w3.org/1999/xlink">
    <!-- Generator: sketchtool 39.1 (31720) - http://www.bohemiancoding.com/sketch -->
    <title>DF41EE5B-20C5-46B3-9037-85761E816C51</title>
    <desc>Created with sketchtool.</desc>
    <defs>
        <rect id="path-1" x="0" y="0" width="234" height="471.867188" rx="2"></rect>
        <linearGradient x1="50%" y1="0%" x2="50%" y2="100%" id="linearGradient-3">
            <stop stop-color="#050505" stop-opacity="0.5" offset="0%"></stop>
            <stop stop-color="#020202" stop-opacity="0.1" offset="100%"></stop>
        </linearGradient>
    </defs>
    <g id="Page-1" stroke="none" stroke-width="1" fill="none" fill-rule="evenodd">
        <g id="Assets" transform="translate(-145.000000, -2626.000000)">
            <g id="Angebot-1-Small" transform="translate(145.000000, 2626.000000)">
                <g id="icon-small-2">
                    <mask id="mask-2" fill="white">
                        <use xlink:href="#path-1"></use>
                    </mask>
                    <use id="Mask" fill="#002F47" xlink:href="#path-1"></use>
                    <g id="small" mask="url(#mask-2)">
                        <g transform="translate(81.000000, 37.000000)">
                            <path d="M65.6452,44 L61.3704681,52.219 C60.6595064,53.393 59.9933532,54.179 59.2515234,54.718 C58.4529362,55.299 57.451217,55.581 56.2503489,55.581 C55.1211745,55.582 53.9173191,55.189 52.6646723,54.424 C51.5813021,53.763 50.3057532,53.037 48.8678979,52.274 C47.4619064,51.525 45.809966,50.811 43.9588766,50.154 C42.1735064,49.524 40.0436085,49.204 37.6249447,49.203 C33.4109532,49.204 30.2395064,50.134 28.1982298,51.97 C26.153966,53.813 25.1651915,56.14 25.1641957,59.119 C25.1641957,60.958 25.6839745,62.429 26.7514128,63.615 C27.8905447,64.879 29.4239915,65.994 31.3059489,66.928 C33.2526298,67.897 35.498034,68.773 37.982417,69.534 C40.4897021,70.302 43.1353957,71.169 45.8458128,72.112 C48.5512511,73.054 51.2238298,74.175 53.7888681,75.44 C56.4156426,76.739 58.7944766,78.393 60.8596511,80.355 C62.9487234,82.341 64.6564255,84.798 65.9359574,87.656 C67.2174809,90.526 67.8667064,94.041 67.8667064,98.106 C67.8677021,102.501 67.1676936,106.756 65.6382298,110.605 C64.1227064,114.422 61.9848426,117.885 59.1350213,120.747 C59.1061447,120.775 59.0792596,120.803 59.0513787,120.83 C56.1756681,123.718 52.4824511,125.927 48.2525277,127.573 C44.0325617,129.215 39.1613787,130.008 33.8460936,130.007 C30.8200255,130.009 27.741183,129.676 24.7320426,129.058 C21.7348511,128.444 18.7048,127.657 15.9256766,126.558 C13.9082979,125.761 12.1537957,124.63 10,123.882 L179.691821,294.298 L179.7904,158.633 L65.6452,44 Z" id="shadow" stroke="none" fill="url(#linearGradient-3)" fill-rule="evenodd"></path>
                            <text id="S" stroke="#FF931E" stroke-width="1" fill="none" font-family="Lato-Heavy, Lato" font-size="129.9547" font-weight="600">
                                <tspan x="0" y="128" fill="#002F47">S</tspan>
                            </text>
                        </g>
                    </g>
                </g>
            </g>
        </g>
    </g>
</svg>