<svg width="165" height="160" viewBox="0 0 165 165" xmlns="http://www.w3.org/2000/svg"><path d="m83.025 0.013672a10.932 10.843 0 0 0 -5.2754 1.0605l-57.168 27.313a10.932 10.843 0 0 0 -5.9121 7.3574l-14.113 61.357a10.932 10.843 0 0 0 1.4883 8.3145 10.932 10.843 0 0 0 0.62305 0.85742l39.568 49.201a10.932 10.843 0 0 0 8.5469 4.0801l63.453-0.00586a10.932 10.843 0 0 0 8.5469 -4.082l39.559-49.209a10.932 10.843 0 0 0 2.1074 -9.1719l-14.125-61.357a10.932 10.843 0 0 0 -5.916 -7.3535l-57.172-27.301a10.932 10.843 0 0 0 -4.2109 -1.0605zm-0.029297 4.2051a10.355 10.271 0 0 1 3.9883 1.0059l54.16 25.861a10.355 10.271 0 0 1 5.6035 6.9668l13.381 58.123a10.355 10.271 0 0 1 -2.002 8.6914l-37.469 46.611a10.355 10.271 0 0 1 -8.0957 3.8574l-60.109 0.01367a10.355 10.271 0 0 1 -8.0977 -3.8652l-37.482-46.604a10.355 10.271 0 0 1 -0.58789 -0.81836 10.355 10.271 0 0 1 -1.4062 -7.873l13.359-58.123a10.355 10.271 0 0 1 5.6035 -6.9668l54.152-25.875a10.355 10.271 0 0 1 3.9688 -1.0039 10.355 10.271 0 0 1 1.0332 -0.0019531zm-0.49609 19.781c-1.7901 1.9e-4 -3.2424 1.6127-3.2422 3.6016 2e-6 0.0305 0.007113 0.059544 0.007813 0.089844-0.0026 0.27024-0.016603 0.59479-0.007813 0.83008 0.04269 1.1472 0.29285 2.0251 0.44336 3.082 0.27266 2.2621 0.50232 4.138 0.36133 5.8809-0.13712 0.65722-0.6212 1.258-1.0527 1.6758l-0.076172 1.3711c-1.9452 0.16116-3.9035 0.4563-5.8594 0.90039-8.4162 1.9109-15.663 6.2463-21.18 12.1-0.35798-0.24422-0.9837-0.69248-1.1699-0.83008-0.57871 0.0782-1.164 0.25621-1.9258-0.1875-1.4505-0.97641-2.7725-2.3237-4.3711-3.9473-0.73247-0.77663-1.2626-1.517-2.1328-2.2656-0.19763-0.17-0.49965-0.39931-0.7207-0.57422-0.68037-0.54245-1.4828-0.82503-2.2578-0.85156-0.99641-0.0341-1.9543 0.35527-2.582 1.1426-1.1159 1.3997-0.75825 3.5375 0.79688 4.7773 0.01578 0.0126 0.030975 0.022856 0.046875 0.035156 0.2137 0.17323 0.47545 0.39599 0.67188 0.54102 0.92349 0.68184 1.7673 1.031 2.6875 1.5723 1.9386 1.1972 3.5456 2.1898 4.8203 3.3867 0.49778 0.53061 0.5861 1.4648 0.65234 1.8691l1.0391 0.92773c-5.5614 8.3695-8.1363 18.709-6.6152 29.242l-1.3574 0.39453c-0.35777 0.462-0.8638 1.1893-1.3926 1.4062-1.6678 0.5253-3.5445 0.71752-5.8105 0.95508-1.0639 0.0885-1.9815 0.03637-3.1094 0.25-0.24824 0.047-0.59362 0.13746-0.86523 0.20117-0.0094 2e-3 -0.017904 0.003859-0.027344 0.005859-0.0148 3e-3 -0.034598 0.010372-0.048828 0.013672-1.9105 0.4616-3.1392 2.2171-2.7441 3.9473 0.3952 1.7305 2.2617 2.7834 4.1836 2.3691 0.01387-3e-3 0.034369-0.002859 0.048829-0.005859 0.021699-5e-3 0.040969-0.016184 0.0625-0.021484 0.26791-0.0588 0.60352-0.12475 0.83789-0.1875 1.1089-0.2969 1.9113-0.7333 2.9082-1.1152 2.1447-0.76921 3.9218-1.4117 5.6523-1.6621 0.72277-0.0566 1.4845 0.44619 1.8633 0.6582l1.4121-0.24219c3.2513 10.08 10.066 18.227 18.693 23.34l-0.58789 1.4141c0.21219 0.54862 0.44517 1.2902 0.28711 1.832-0.62913 1.6314-1.7065 3.3536-2.9336 5.2734-0.59415 0.88693-1.2021 1.5748-1.7383 2.5898-0.1283 0.24287-0.29217 0.61636-0.41602 0.87304-0.83306 1.7824-0.22133 3.8351 1.3789 4.6055 1.6103 0.77523 3.6096-0.0421 4.4746-1.8281 0.0013-3e-3 0.004659-0.00482 0.005859-0.00782 8.86e-4 -2e-3 -8.87e-4 -0.00386 0-0.00585 0.12321-0.25322 0.29841-0.58611 0.40234-0.82422 0.45924-1.0521 0.6126-1.9551 0.93555-2.9727 0.85761-2.1542 1.3272-4.4138 2.5078-5.8223 0.32328-0.38568 0.85004-0.53338 1.3965-0.67968l0.73438-1.3301c7.5216 2.8871 15.941 3.6615 24.352 1.752 1.9186-0.43563 3.7719-0.99914 5.5625-1.6758 0.20633 0.36598 0.5886 1.069 0.69141 1.2461 0.55531 0.18067 1.1624 0.27363 1.6562 1.0039 0.88327 1.5091 1.4868 3.2948 2.2227 5.4512 0.323 1.0175 0.4821 1.9187 0.9414 2.9707 0.10468 0.23979 0.27901 0.57823 0.40235 0.83203 0.86319 1.7918 2.8678 2.6109 4.4805 1.834 1.6-0.7708 2.2124-2.8233 1.3789-4.6055-0.12387-0.25668-0.29356-0.62822-0.42187-0.87109-0.53622-1.015-1.1441-1.6971-1.7383-2.584-1.2272-1.9197-2.2458-3.5151-2.875-5.1465-0.26309-0.84142 0.04507-1.3653 0.25-1.9121-0.12273-0.14069-0.38616-0.93489-0.54101-1.3086 8.9665-5.2943 15.58-13.745 18.686-23.506 0.41941 0.065899 1.148 0.19467 1.3848 0.24219 0.48748-0.32152 0.93753-0.74108 1.8164-0.67188 1.7305 0.2503 3.5057 0.89301 5.6504 1.6621 0.99691 0.38188 1.7993 0.82621 2.9082 1.123 0.23437 0.0627 0.57192 0.12089 0.83985 0.17969 0.0215 5e-3 0.03884 0.016484 0.06054 0.021484 0.0145 3e-3 0.03493 0.002859 0.04883 0.00586 1.922 0.41377 3.7888-0.6385 4.1836-2.3691 0.39467-1.7302-0.8316-3.4862-2.7422-3.9473-0.27791-0.0632-0.67152-0.16959-0.94141-0.2207-1.1279-0.2136-2.0474-0.16159-3.1113-0.25-2.266-0.23745-4.1428-0.42986-5.8105-0.95508-0.68001-0.2638-1.1632-1.0732-1.3984-1.4062l-1.3086-0.38086c0.67868-4.91 0.49474-10.02-0.67968-15.133-1.1854-5.1605-3.2804-9.8807-6.0742-14.039 0.33578-0.30525 0.97058-0.86606 1.1504-1.0312 0.0526-0.58158 0.00689-1.1919 0.60937-1.8359 1.2746-1.1969 2.8818-2.1894 4.8203-3.3867 0.92012-0.54133 1.7718-0.89036 2.6953-1.5723 0.20882-0.15419 0.49351-0.39777 0.71289-0.57422 1.5548-1.2403 1.9132-3.3799 0.79687-4.7793s-3.2811-1.5313-4.8359-0.29102c-0.22131 0.17527-0.52007 0.4033-0.71875 0.57422-0.87022 0.74865-1.4082 1.489-2.1406 2.2656-1.5985 1.6236-2.9206 2.9786-4.3711 3.9551-0.62854 0.36592-1.549 0.23749-1.9668 0.21289l-1.2324 0.88086c-7.0298-7.3714-16.6-12.084-26.906-13-0.02882-0.43189-0.066582-1.2123-0.076172-1.4473-0.42191-0.40372-0.93248-0.74884-1.0605-1.6211-0.14099-1.7428 0.094528-3.6188 0.36719-5.8809 0.15051-1.0569 0.40067-1.9349 0.44336-3.082 0.0097-0.26077-0.004859-0.63795-0.005859-0.91992-2.14e-4 -1.9889-1.4521-3.6017-3.2422-3.6016zm-4.0586 25.141l-0.96289 17.004-0.06836 0.033203c-0.06457 1.5211-1.3165 2.7363-2.8535 2.7363-0.6296 0-1.2113-0.20192-1.6836-0.54687l-0.027344 0.013671-13.941-9.8828c4.2849-4.2134 9.7657-7.3276 16.082-8.7617 1.1538-0.26197 2.3061-0.45643 3.4551-0.5957zm8.125 0c7.3743 0.90697 14.194 4.2457 19.42 9.3633l-13.852 9.8223-0.048828-0.021484c-1.2295 0.89797-2.9616 0.67419-3.9199-0.52734-0.39257-0.49223-0.59827-1.07-0.62305-1.6543l-0.015625-0.007813-0.96094-16.975zm-32.719 15.707l12.73 11.387-0.013672 0.070313c1.149 0.99887 1.3177 2.7319 0.35938 3.9336-0.39255 0.49225-0.91829 0.82242-1.4824 0.97656l-0.013672 0.054687-16.316 4.709c-0.8305-7.5941 0.95837-14.976 4.7363-21.131zm57.215 0.007813c1.8914 3.0657 3.3231 6.4891 4.1758 10.201 0.84241 3.6676 1.0544 7.3291 0.70703 10.867l-16.4-4.7227-0.013672-0.070313c-1.4686-0.40138-2.3712-1.8942-2.0293-3.3926 0.14008-0.61382 0.46487-1.1339 0.90625-1.5176l-0.005859-0.035156 12.66-11.33zm-31.174 12.258h5.2148l3.2422 4.0527-1.1641 5.0566-4.6816 2.25-4.6953-2.2578-1.1641-5.0566 3.248-4.0449zm16.719 13.867c0.22162-0.0112 0.44252 0.007375 0.6582 0.046875l0.027344-0.033203 16.879 2.8535c-2.4702 6.9398-7.1962 12.951-13.512 16.975l-6.5527-15.826 0.021484-0.027344c-0.60185-1.3985 3.9e-5 -3.0382 1.3848-3.7051 0.35453-0.17075 0.72438-0.26453 1.0938-0.2832zm-28.348 0.068359c1.288 0.0181 2.4449 0.91151 2.7441 2.2227 0.14011 0.61381 0.071058 1.2226-0.16016 1.7598l0.048828 0.0625-6.4824 15.666c-6.0609-3.8893-10.888-9.7125-13.471-16.857l16.732-2.8398 0.027344 0.035156c0.18717-0.0344 0.37654-0.051428 0.56055-0.048828zm14.137 6.8633c0.44867-0.0165 0.90319 0.076797 1.3359 0.28516 0.56726 0.27316 1.0054 0.70306 1.2812 1.2188h0.0625l8.248 14.904c-1.0705 0.35886-2.1693 0.66434-3.2949 0.91992-6.3085 1.4324-12.599 0.99887-18.293-0.9414l8.2285-14.877h0.013672c0.49371-0.92294 1.4309-1.4735 2.418-1.5098z" fill="#fff"/></svg>
