<svg width="165" height="160" viewBox="0 0 165 160" xmlns="http://www.w3.org/2000/svg"><title>Shape</title><path d="M81.733.815l-.07.004c2.27-.147 4.56.31 6.604 1.293l55.1 26.207c3.636 1.777 6.388 5.19 7.296 9.095l13.605 58.815c.914 3.94-.07 8.224-2.616 11.378l-38.124 47.265c-2.55 3.12-6.506 5.004-10.548 5.004l-61.1.028c-4.062.037-8.034-1.854-10.588-5.018L3.15 107.627a20.926 20.926 0 0 1-.683-.936l-.057-.08C.443 103.592-.24 99.81.562 96.32l13.58-58.906c.912-3.933 3.662-7.344 7.322-9.077l55.07-26.222a13.39 13.39 0 0 1 5.2-1.3zm.12 2.998c-1.41.056-2.79.42-4.03 1.01l-55.07 26.223c-2.845 1.347-4.986 4.014-5.69 7.047l-13.577 58.9c-.62 2.696-.085 5.644 1.436 7.974.197.28.395.56.592.814l38.113 47.225c1.97 2.443 5.07 3.93 8.225 3.903l61.127-.03c3.152 0 6.25-1.487 8.222-3.9l38.113-47.25c1.972-2.444 2.733-5.784 2.028-8.817L147.74 38.093c-.704-3.033-2.874-5.7-5.69-7.075L86.98 4.824a10.37 10.37 0 0 0-5.128-1.01zm.562 20.017c-1.83 0-3.295 1.63-3.295 3.65v.084c0 .28-.028.59 0 .843.056 1.15.31 2.05.45 3.116.282 2.302.507 4.183.367 5.952-.14.674-.62 1.263-1.07 1.712l-.085 1.376c-1.972.17-3.972.45-5.972.9-8.564 1.936-15.916 6.315-21.52 12.267-.368-.252-1.016-.702-1.185-.842-.59.084-1.183.253-1.97-.197-1.466-.98-2.818-2.355-4.452-3.983-.732-.786-1.296-1.544-2.17-2.302-.196-.17-.506-.393-.732-.59a3.925 3.925 0 0 0-2.28-.87c-1.012-.028-2 .365-2.62 1.15-1.125 1.405-.76 3.594.82 4.83.027 0 .027.028.055.028.226.17.48.394.676.534.93.702 1.803 1.04 2.733 1.6 1.972 1.208 3.605 2.218 4.9 3.426.508.533.593 1.488.65 1.91l1.07.925c-5.662 8.48-8.282 18.95-6.733 29.647l-1.38.393c-.368.478-.875 1.208-1.41 1.432-1.69.533-3.606.73-5.916.954-1.07.084-2.028.028-3.155.252-.256.057-.594.14-.875.197h-.084c-1.943.478-3.182 2.247-2.79 3.988.397 1.74 2.31 2.81 4.256 2.416h.056c.028 0 .028-.028.057-.028.28-.056.62-.112.844-.197 1.126-.307 1.943-.73 2.957-1.122 2.17-.786 4-1.43 5.748-1.684.73-.056 1.52.45 1.885.674l1.437-.253c3.296 10.22 10.225 18.474 19.014 23.64l-.59 1.432c.224.56.45 1.32.28 1.853-.648 1.655-1.746 3.396-2.986 5.333-.59.898-1.21 1.6-1.773 2.638-.14.255-.31.62-.423.87-.845 1.8-.225 3.877 1.41 4.66 1.632.79 3.66-.053 4.534-1.85.112-.253.31-.59.422-.842.48-1.067.62-1.994.958-3.004.873-2.19 1.352-4.464 2.563-5.896.34-.393.875-.533 1.41-.702l.76-1.347a42.736 42.736 0 0 0 24.76 1.767 42.598 42.598 0 0 0 5.663-1.712c.197.366.592 1.096.704 1.264.564.196 1.184.28 1.69 1.01.902 1.516 1.522 3.34 2.254 5.53.34 1.04.48 1.94.96 3.005.113.252.28.59.394.842.873 1.825 2.93 2.64 4.564 1.853 1.632-.787 2.252-2.865 1.407-4.66-.113-.254-.31-.647-.422-.87-.536-1.04-1.155-1.715-1.775-2.613-1.24-1.937-2.282-3.566-2.93-5.222-.253-.84.057-1.375.254-1.936-.113-.14-.395-.957-.535-1.32 9.125-5.364 15.83-13.927 18.985-23.81a22.7 22.7 0 0 1 1.408.254c.508-.337.96-.76 1.86-.674 1.747.253 3.578.9 5.747 1.685 1.014.393 1.83.842 2.957 1.15.226.057.592.114.846.17.028 0 .028.028.056.028h.055c1.945.42 3.86-.646 4.255-2.415.393-1.74-.846-3.537-2.79-3.986-.28-.056-.676-.17-.958-.225-1.156-.224-2.085-.168-3.156-.253-2.31-.253-4.224-.45-5.914-.955-.704-.28-1.183-1.097-1.41-1.434l-1.323-.393a42.79 42.79 0 0 0-.676-15.33c-1.21-5.22-3.323-10.022-6.17-14.233.34-.31.988-.87 1.157-1.04.057-.587 0-1.205.62-1.85 1.296-1.208 2.93-2.218 4.9-3.426.93-.56 1.804-.898 2.734-1.6.226-.168.508-.393.733-.59 1.58-1.263 1.945-3.425.818-4.828-1.128-1.432-3.325-1.545-4.902-.28-.226.167-.536.42-.733.588-.873.758-1.436 1.516-2.17 2.303-1.633 1.656-2.957 3.032-4.45 4.014-.647.367-1.577.255-2 .227l-1.24.898c-7.154-7.468-16.872-12.24-27.35-13.167-.03-.45-.058-1.235-.086-1.46-.424-.42-.96-.758-1.07-1.656-.143-1.77.082-3.677.364-5.95.14-1.068.395-1.966.45-3.117v-.928c-.083-1.965-1.576-3.622-3.38-3.622zm-.112 74.904c.45-.028.93.085 1.352.28a2.917 2.917 0 0 1 1.296 1.236h.06l8.393 15.105a32.722 32.722 0 0 1-3.35.926 34.083 34.083 0 0 1-18.592-.95l8.367-15.078h.028a3 3 0 0 1 2.45-1.515zM67.937 91.8a2.91 2.91 0 0 1 2.788 2.246 2.8 2.8 0 0 1-.17 1.797l.058.056-6.592 15.89a33.985 33.985 0 0 1-13.69-17.07l17.017-2.866.028.028c.17-.084.366-.084.564-.084zm28.817-.084c.225 0 .45 0 .676.056l.028-.028 17.155 2.89a33.813 33.813 0 0 1-13.747 17.21l-6.676-16.03.028-.028c-.62-1.403 0-3.088 1.41-3.762a2.83 2.83 0 0 1 1.126-.308zM79.768 77.678h5.295l3.296 4.1-1.186 5.11-4.76 2.273-4.76-2.27-1.184-5.11 3.297-4.1zm31.69-12.437a34.62 34.62 0 0 1 4.253 10.335c.85 3.705 1.074 7.44.708 11.005l-16.676-4.8-.03-.058a2.857 2.857 0 0 1-2.054-3.424c.14-.618.48-1.15.93-1.544v-.028l12.873-11.483zm-58.17 0l12.93 11.54-.028.058c1.155 1.01 1.352 2.78.366 3.987a2.75 2.75 0 0 1-1.493.982l-.028.056-16.592 4.774c-.816-7.664.986-15.16 4.846-21.393zm33.268-15.916a34.327 34.327 0 0 1 19.747 9.49L92.218 68.75l-.056-.028c-1.24.9-3.014.674-3.972-.533-.394-.51-.62-1.098-.62-1.688h-.028l-.986-17.182zm-8.28 0L77.29 66.56l-.06.03c-.055 1.544-1.35 2.78-2.9 2.78a2.8 2.8 0 0 1-1.72-.563l-.027.03-14.17-10.024C62.78 54.545 68.33 51.4 74.78 49.94a30.367 30.367 0 0 1 3.494-.617z" fill="#FFF" fill-rule="evenodd"/></svg>