<svg xmlns="http://www.w3.org/2000/svg" xmlns:xlink="http://www.w3.org/1999/xlink" width="1280" height="814.52679" viewBox="0 0 1280 814.52679"><defs><style>.cls-1{isolation:isolate;}.cls-2{fill:#a7e4f2;}.cls-3{fill:#002f47;}.cls-104,.cls-4{opacity:0.3;}.cls-5{fill:#81d4dc;}.cls-6,.cls-7{fill:#1d1d1b;}.cls-6{opacity:0.05;}.cls-26,.cls-7{opacity:0.1;}.cls-8{fill:#7dadba;}.cls-9{fill:#91eaf3;}.cls-10{fill:#367089;}.cls-11{opacity:0.5;}.cls-12,.cls-17,.cls-23{font-size:14px;font-family:Lato-Bold, Lato;font-weight:700;}.cls-13{letter-spacing:-0.01193em;}.cls-14{letter-spacing:0.03167em;}.cls-15{letter-spacing:-0.00049em;}.cls-16{letter-spacing:0.00056em;}.cls-17{letter-spacing:0.00133em;}.cls-18{letter-spacing:0.00977em;}.cls-19{letter-spacing:-0.01074em;}.cls-20{letter-spacing:-0.0023em;}.cls-21{letter-spacing:-0.00495em;}.cls-22{letter-spacing:0.00007em;}.cls-23{letter-spacing:-0.0263em;}.cls-24{letter-spacing:-0.01835em;}.cls-25{letter-spacing:-0.01109em;}.cls-100,.cls-107,.cls-27,.cls-34,.cls-35,.cls-36,.cls-39,.cls-40,.cls-41,.cls-46,.cls-47,.cls-48,.cls-49,.cls-50,.cls-51,.cls-53,.cls-54,.cls-55,.cls-56,.cls-57,.cls-58,.cls-60,.cls-61,.cls-62,.cls-64,.cls-65,.cls-66,.cls-67,.cls-68,.cls-69,.cls-70,.cls-71,.cls-72,.cls-74,.cls-75,.cls-76,.cls-77,.cls-78,.cls-79,.cls-80,.cls-81,.cls-82,.cls-83,.cls-84,.cls-85,.cls-86,.cls-87,.cls-88,.cls-89,.cls-90,.cls-91,.cls-92,.cls-93,.cls-95,.cls-96,.cls-97,.cls-98,.cls-99{fill:none;}.cls-27{stroke:#4d4d4d;}.cls-100,.cls-27,.cls-34,.cls-35,.cls-36,.cls-39,.cls-40,.cls-41,.cls-46,.cls-47,.cls-48,.cls-49,.cls-50,.cls-51,.cls-53,.cls-54,.cls-55,.cls-56,.cls-57,.cls-58,.cls-60,.cls-61,.cls-62,.cls-64,.cls-65,.cls-66,.cls-67,.cls-68,.cls-69,.cls-70,.cls-71,.cls-72,.cls-73,.cls-74,.cls-75,.cls-76,.cls-77,.cls-78,.cls-79,.cls-80,.cls-81,.cls-82,.cls-83,.cls-84,.cls-85,.cls-86,.cls-87,.cls-88,.cls-89,.cls-90,.cls-91,.cls-92,.cls-93,.cls-96,.cls-97,.cls-98,.cls-99{stroke-miterlimit:10;}.cls-28{fill:#ffd301;}.cls-29{fill:#4d4d4d;}.cls-30{fill:#2c5871;}.cls-31{fill:#6aa0aa;}.cls-32{fill:#ffd800;}.cls-33{fill:#402313;}.cls-34,.cls-40,.cls-41,.cls-50,.cls-51,.cls-57,.cls-58,.cls-65,.cls-66,.cls-67,.cls-71,.cls-72,.cls-73,.cls-79,.cls-82,.cls-87,.cls-90,.cls-97,.cls-98{stroke:#ef9f6a;}.cls-34,.cls-35,.cls-36{stroke-width:7.20238px;}.cls-35,.cls-36,.cls-47,.cls-48,.cls-54,.cls-55,.cls-61,.cls-62,.cls-68,.cls-69,.cls-75,.cls-76,.cls-84,.cls-85,.cls-92,.cls-93{stroke:#1d1d1b;}.cls-100,.cls-107,.cls-35,.cls-39,.cls-40,.cls-47,.cls-49,.cls-51,.cls-54,.cls-56,.cls-57,.cls-61,.cls-64,.cls-66,.cls-68,.cls-70,.cls-71,.cls-75,.cls-79,.cls-80,.cls-84,.cls-87,.cls-88,.cls-92,.cls-96,.cls-98{stroke-linecap:round;}.cls-37{fill:#de9462;}.cls-38,.cls-43{opacity:0.2;}.cls-39{stroke:#c2d64c;}.cls-39,.cls-40,.cls-41{stroke-width:5.14456px;}.cls-42,.cls-73{fill:#ef9f6a;}.cls-43{fill:#232323;}.cls-44{fill:#423228;}.cls-45{fill:#c2d64c;}.cls-46,.cls-53,.cls-60,.cls-91{stroke:#666;}.cls-46,.cls-47,.cls-48{stroke-width:7.91964px;}.cls-49,.cls-64{stroke:#b3b3b3;}.cls-49,.cls-50,.cls-51{stroke-width:5.65688px;}.cls-52{fill:#7a5022;}.cls-53,.cls-54,.cls-55{stroke-width:3.53235px;}.cls-100,.cls-56,.cls-70,.cls-77,.cls-86,.cls-99{stroke:#2c5871;}.cls-56,.cls-57,.cls-58{stroke-width:2.52311px;}.cls-59{fill:#15b0bf;}.cls-60,.cls-61,.cls-62{stroke-width:3.94899px;}.cls-63{fill:#736357;}.cls-64,.cls-65,.cls-66{stroke-width:2.82071px;}.cls-67,.cls-68,.cls-69{stroke-width:2.85077px;}.cls-70,.cls-71,.cls-72,.cls-73{stroke-width:2.03627px;}.cls-74{stroke:#de9462;}.cls-74,.cls-75,.cls-76,.cls-77,.cls-78{stroke-width:2.81567px;}.cls-78{stroke:#efa47b;}.cls-79,.cls-80,.cls-81,.cls-82{stroke-width:2.0112px;}.cls-80,.cls-81,.cls-88,.cls-89{stroke:#fff;}.cls-83{stroke:#234959;}.cls-83,.cls-84,.cls-85,.cls-86{stroke-width:3.3726px;}.cls-87,.cls-88,.cls-89,.cls-90{stroke-width:2.409px;}.cls-91,.cls-92,.cls-93,.cls-99{stroke-width:20.4669px;}.cls-94{fill:gray;}.cls-96{stroke:#999;}.cls-100,.cls-96,.cls-97,.cls-98{stroke-width:14.61921px;}.cls-101{fill:#1a3842;}.cls-102{fill:#244959;}.cls-103{mix-blend-mode:screen;}.cls-104,.cls-108,.cls-110{fill:#fff;}.cls-105{fill:#0c2f46;}.cls-106{fill:url(#Unbenannter_Verlauf_6);}.cls-107{stroke:#000;stroke-linejoin:round;stroke-width:0.63255px;}.cls-108{opacity:0.4;}.cls-109{fill:#ff931e;}.cls-111{fill:#f2f2f2;}.cls-112{fill:#ccc;}.cls-113{fill:#898989;}.cls-114{fill:#b3b3b3;}.cls-115{fill:#db242f;}.cls-116{fill:#251f21;}</style><linearGradient id="Unbenannter_Verlauf_6" x1="790.91452" y1="221.01504" x2="790.91452" y2="347.72366" gradientUnits="userSpaceOnUse"><stop offset="0.00439" stop-color="#fff" stop-opacity="0.2"/><stop offset="1" stop-color="#fff" stop-opacity="0"/></linearGradient></defs><title>Infographics</title><g class="cls-1"><g id="bg"><rect class="cls-2" y="0.52679" width="1280" height="814"/><rect class="cls-3" y="431.38206" width="1280" height="384.58291"/></g><g id="containers"><g id="_3" data-name="3"><polygon class="cls-4" points="969.941 457.46 942.528 457.46 942.528 449.224 969.941 457.46"/><rect class="cls-5" x="805.24474" y="389.39719" width="136.99057" height="68.0627"/><rect class="cls-6" x="809.27758" y="393.43004" width="128.92477" height="59.99685"/><path class="cls-7" d="M936.58917,395.04323v56.77049H810.89076V395.04323h125.6984m1.61318-1.61318H809.27758V453.4269H938.20235V393.43Z"/><path class="cls-8" d="M874.11606,398.15886a2.14237,2.14237,0,0,0-2.14339,2.14342v46.967a2.14339,2.14339,0,1,0,4.28678,0v-46.967a2.14227,2.14227,0,0,0-2.14339-2.1434Z"/><path class="cls-8" d="M863.43665,398.15886a2.14237,2.14237,0,0,0-2.14339,2.14342v46.967a2.14339,2.14339,0,1,0,4.28679,0v-46.967a2.14239,2.14239,0,0,0-2.14339-2.1434Z"/><path class="cls-8" d="M852.79478,398.15886a2.14237,2.14237,0,0,0-2.14339,2.14342v46.967a2.14339,2.14339,0,1,0,4.28679,0v-46.967a2.19229,2.19229,0,0,0-2.14339-2.1434Z"/><path class="cls-8" d="M842.11537,398.15886a2.14237,2.14237,0,0,0-2.14339,2.14342v46.967a2.14339,2.14339,0,1,0,4.28679,0v-46.967a2.167,2.167,0,0,0-2.14339-2.1434Z"/><path class="cls-8" d="M916.8339,398.15886a2.14237,2.14237,0,0,0-2.14339,2.14342v46.967a2.14339,2.14339,0,1,0,4.28679,0v-46.967a2.19229,2.19229,0,0,0-2.14339-2.1434Z"/><path class="cls-8" d="M927.47577,398.15886a2.14237,2.14237,0,0,0-2.14339,2.14342v46.967a2.14339,2.14339,0,1,0,4.28678,0v-46.967a2.14239,2.14239,0,0,0-2.14339-2.1434Z"/><path class="cls-8" d="M831.43586,398.15886a2.14237,2.14237,0,0,0-2.14339,2.14342v46.967a2.14339,2.14339,0,1,0,4.28679,0v-46.967a2.16686,2.16686,0,0,0-2.14339-2.1434Z"/><path class="cls-8" d="M820.75645,398.15886a2.14237,2.14237,0,0,0-2.14339,2.14342v46.967a2.14339,2.14339,0,1,0,4.28678,0v-46.967a2.14239,2.14239,0,0,0-2.14339-2.1434Z"/><path class="cls-8" d="M906.15449,398.15886a2.14237,2.14237,0,0,0-2.14339,2.14342v46.967a2.14339,2.14339,0,1,0,4.28679,0v-46.967a2.167,2.167,0,0,0-2.14339-2.1434Z"/><path class="cls-8" d="M895.475,398.15886a2.14237,2.14237,0,0,0-2.14339,2.14342v46.967a2.14339,2.14339,0,1,0,4.28679,0v-46.967a2.16692,2.16692,0,0,0-2.14339-2.1434Z"/><path class="cls-8" d="M884.79557,398.15886a2.14237,2.14237,0,0,0-2.14339,2.14342v46.967a2.1424,2.1424,0,0,0,2.14339,2.14342,2.11887,2.11887,0,0,0,2.14339-2.14342v-46.967a2.167,2.167,0,0,0-2.14339-2.1434Z"/><path class="cls-9" d="M873.74,397.78282a2.14237,2.14237,0,0,0-2.14339,2.14342v46.967a2.14339,2.14339,0,1,0,4.28678,0v-46.967a2.14227,2.14227,0,0,0-2.14339-2.1434Z"/><path class="cls-9" d="M863.06061,397.78282a2.14237,2.14237,0,0,0-2.14339,2.14342v46.967a2.14339,2.14339,0,1,0,4.28679,0v-46.967a2.14239,2.14239,0,0,0-2.14339-2.1434Z"/><path class="cls-9" d="M852.41875,397.78282a2.14237,2.14237,0,0,0-2.14339,2.14342v46.967a2.14339,2.14339,0,1,0,4.28679,0v-46.967a2.19229,2.19229,0,0,0-2.14339-2.1434Z"/><path class="cls-9" d="M841.73933,397.78282a2.14237,2.14237,0,0,0-2.14339,2.14342v46.967a2.14339,2.14339,0,1,0,4.28678,0v-46.967a2.167,2.167,0,0,0-2.14339-2.1434Z"/><path class="cls-9" d="M916.45786,397.78282a2.14237,2.14237,0,0,0-2.14339,2.14342v46.967a2.14339,2.14339,0,1,0,4.28679,0v-46.967a2.19229,2.19229,0,0,0-2.14339-2.1434Z"/><path class="cls-9" d="M927.09973,397.78282a2.14237,2.14237,0,0,0-2.14339,2.14342v46.967a2.14339,2.14339,0,1,0,4.28679,0v-46.967a2.14239,2.14239,0,0,0-2.14339-2.1434Z"/><path class="cls-9" d="M831.05983,397.78282a2.14237,2.14237,0,0,0-2.14339,2.14342v46.967a2.14339,2.14339,0,1,0,4.28679,0v-46.967a2.16686,2.16686,0,0,0-2.14339-2.1434Z"/><path class="cls-9" d="M820.38041,397.78282a2.14237,2.14237,0,0,0-2.14339,2.14342v46.967a2.14339,2.14339,0,1,0,4.28678,0v-46.967a2.14239,2.14239,0,0,0-2.14339-2.1434Z"/><path class="cls-9" d="M905.77845,397.78282a2.14237,2.14237,0,0,0-2.14339,2.14342v46.967a2.14339,2.14339,0,1,0,4.28679,0v-46.967a2.167,2.167,0,0,0-2.14339-2.1434Z"/><path class="cls-9" d="M895.09894,397.78282a2.14237,2.14237,0,0,0-2.14339,2.14342v46.967a2.14339,2.14339,0,1,0,4.28678,0v-46.967a2.16692,2.16692,0,0,0-2.14339-2.1434Z"/><path class="cls-9" d="M884.41953,397.78282a2.14237,2.14237,0,0,0-2.14339,2.14342v46.967a2.1424,2.1424,0,0,0,2.14339,2.14342,2.11887,2.11887,0,0,0,2.14339-2.14342v-46.967a2.167,2.167,0,0,0-2.14339-2.1434Z"/><rect class="cls-10" x="805.06482" y="455.45988" width="136.99057" height="2"/><g class="cls-11"><text class="cls-12" transform="translate(866.16545 448.64613)"><tspan class="cls-13">P</tspan><tspan class="cls-14" x="8.49902" y="0">L</tspan><tspan class="cls-15" x="16.21484" y="0">A</tspan><tspan class="cls-16" x="25.93066" y="0">N</tspan><tspan x="36.72559" y="0">UNG</tspan></text></g><polygon class="cls-7" points="869.288 457.46 847.569 389.397 942.252 389.397 942.252 457.46 869.288 457.46"/></g><g id="_2" data-name="2"><polygon class="cls-4" points="1150.842 457.46 1123.429 457.46 1123.429 449.224 1150.842 457.46"/><rect class="cls-5" x="986.10994" y="389.39719" width="136.99057" height="68.0627"/><rect class="cls-10" x="986.10994" y="455.45988" width="136.99057" height="2"/><rect class="cls-6" x="990.14278" y="393.43004" width="128.92477" height="59.99685"/><path class="cls-7" d="M1117.45437,395.04323v56.77049H991.756V395.04323h125.6984m1.61319-1.61318H990.14278V453.4269h128.92477V393.43Z"/><path class="cls-8" d="M1054.98126,398.15886a2.14237,2.14237,0,0,0-2.14339,2.14342v46.967a2.14339,2.14339,0,1,0,4.28679,0v-46.967a2.14227,2.14227,0,0,0-2.14339-2.1434Z"/><path class="cls-8" d="M1044.30185,398.15886a2.14237,2.14237,0,0,0-2.14339,2.14342v46.967a2.14339,2.14339,0,1,0,4.28679,0v-46.967a2.14239,2.14239,0,0,0-2.14339-2.1434Z"/><path class="cls-8" d="M1033.66,398.15886a2.14237,2.14237,0,0,0-2.14339,2.14342v46.967a2.14339,2.14339,0,1,0,4.28679,0v-46.967a2.19229,2.19229,0,0,0-2.14339-2.1434Z"/><path class="cls-8" d="M1022.98057,398.15886a2.14237,2.14237,0,0,0-2.14339,2.14342v46.967a2.14339,2.14339,0,1,0,4.28679,0v-46.967a2.167,2.167,0,0,0-2.14339-2.1434Z"/><path class="cls-8" d="M1097.6991,398.15886a2.14237,2.14237,0,0,0-2.14339,2.14342v46.967a2.14339,2.14339,0,1,0,4.28679,0v-46.967a2.19229,2.19229,0,0,0-2.14339-2.1434Z"/><path class="cls-8" d="M1108.341,398.15886a2.14237,2.14237,0,0,0-2.14339,2.14342v46.967a2.14339,2.14339,0,1,0,4.28679,0v-46.967a2.14239,2.14239,0,0,0-2.14339-2.1434Z"/><path class="cls-8" d="M1012.30107,398.15886a2.14237,2.14237,0,0,0-2.14339,2.14342v46.967a2.14339,2.14339,0,1,0,4.28679,0v-46.967a2.16686,2.16686,0,0,0-2.14339-2.1434Z"/><path class="cls-8" d="M1001.62165,398.15886a2.14237,2.14237,0,0,0-2.14339,2.14342v46.967a2.14339,2.14339,0,1,0,4.28678,0v-46.967a2.14239,2.14239,0,0,0-2.14339-2.1434Z"/><path class="cls-8" d="M1087.01969,398.15886a2.14237,2.14237,0,0,0-2.14339,2.14342v46.967a2.14339,2.14339,0,1,0,4.28679,0v-46.967a2.167,2.167,0,0,0-2.14339-2.1434Z"/><path class="cls-8" d="M1076.34018,398.15886a2.14237,2.14237,0,0,0-2.14339,2.14342v46.967a2.14339,2.14339,0,1,0,4.28679,0v-46.967a2.16692,2.16692,0,0,0-2.14339-2.1434Z"/><path class="cls-8" d="M1065.66077,398.15886a2.14237,2.14237,0,0,0-2.14339,2.14342v46.967a2.1424,2.1424,0,0,0,2.14339,2.14342,2.11887,2.11887,0,0,0,2.14339-2.14342v-46.967a2.167,2.167,0,0,0-2.14339-2.1434Z"/><path class="cls-9" d="M1054.60523,397.78282a2.14237,2.14237,0,0,0-2.14339,2.14342v46.967a2.14339,2.14339,0,1,0,4.28679,0v-46.967a2.14227,2.14227,0,0,0-2.14339-2.1434Z"/><path class="cls-9" d="M1043.92581,397.78282a2.14237,2.14237,0,0,0-2.14339,2.14342v46.967a2.14339,2.14339,0,1,0,4.28679,0v-46.967a2.14239,2.14239,0,0,0-2.14339-2.1434Z"/><path class="cls-9" d="M1033.28395,397.78282a2.14237,2.14237,0,0,0-2.14339,2.14342v46.967a2.14339,2.14339,0,1,0,4.28679,0v-46.967a2.19229,2.19229,0,0,0-2.14339-2.1434Z"/><path class="cls-9" d="M1022.60454,397.78282a2.14237,2.14237,0,0,0-2.14339,2.14342v46.967a2.14339,2.14339,0,1,0,4.28679,0v-46.967a2.167,2.167,0,0,0-2.14339-2.1434Z"/><path class="cls-9" d="M1097.32307,397.78282a2.14237,2.14237,0,0,0-2.14339,2.14342v46.967a2.14339,2.14339,0,1,0,4.28679,0v-46.967a2.19229,2.19229,0,0,0-2.14339-2.1434Z"/><path class="cls-9" d="M1107.96493,397.78282a2.14237,2.14237,0,0,0-2.14339,2.14342v46.967a2.14339,2.14339,0,1,0,4.28679,0v-46.967a2.14239,2.14239,0,0,0-2.14339-2.1434Z"/><path class="cls-9" d="M1011.925,397.78282a2.14237,2.14237,0,0,0-2.14339,2.14342v46.967a2.14339,2.14339,0,1,0,4.28679,0v-46.967a2.16686,2.16686,0,0,0-2.14339-2.1434Z"/><path class="cls-9" d="M1001.24562,397.78282a2.14237,2.14237,0,0,0-2.14339,2.14342v46.967a2.14339,2.14339,0,1,0,4.28678,0v-46.967a2.14239,2.14239,0,0,0-2.14339-2.1434Z"/><path class="cls-9" d="M1086.64365,397.78282a2.14237,2.14237,0,0,0-2.14339,2.14342v46.967a2.14339,2.14339,0,1,0,4.28679,0v-46.967a2.167,2.167,0,0,0-2.14339-2.1434Z"/><path class="cls-9" d="M1075.96415,397.78282a2.14237,2.14237,0,0,0-2.14339,2.14342v46.967a2.14339,2.14339,0,1,0,4.28679,0v-46.967a2.16692,2.16692,0,0,0-2.14339-2.1434Z"/><path class="cls-9" d="M1065.28473,397.78282a2.14237,2.14237,0,0,0-2.14339,2.14342v46.967a2.1424,2.1424,0,0,0,2.14339,2.14342,2.11887,2.11887,0,0,0,2.14339-2.14342v-46.967a2.167,2.167,0,0,0-2.14339-2.1434Z"/><polygon class="cls-7" points="986.623 393.43 1008.342 457.46 986.623 457.46 986.623 393.43"/><g class="cls-11"><text class="cls-17" transform="translate(1058.51946 448.64613)">B<tspan class="cls-18" x="9.2373" y="0">E</tspan><tspan class="cls-19" x="17.42383" y="0">T</tspan><tspan class="cls-20" x="25.67285" y="0">RI</tspan><tspan class="cls-21" x="38.76172" y="0">E</tspan><tspan class="cls-22" x="46.74219" y="0">B</tspan></text></g></g><g id="_1" data-name="1"><rect class="cls-5" x="956.32541" y="305.77866" width="136.99057" height="68.0627"/><rect class="cls-6" x="960.35824" y="309.81151" width="128.92477" height="59.99685"/><path class="cls-7" d="M1087.66983,311.4247v56.77049H961.97143V311.4247h125.6984m1.61318-1.61318H960.35824v59.99685H1089.283V309.81152Z"/><path class="cls-8" d="M1025.19673,314.54033a2.14237,2.14237,0,0,0-2.14339,2.14342v46.967a2.14339,2.14339,0,1,0,4.28679,0v-46.967a2.14227,2.14227,0,0,0-2.14339-2.1434Z"/><path class="cls-8" d="M1014.51732,314.54033a2.14237,2.14237,0,0,0-2.14339,2.14342v46.967a2.14339,2.14339,0,1,0,4.28679,0v-46.967a2.14239,2.14239,0,0,0-2.14339-2.1434Z"/><path class="cls-8" d="M1003.87545,314.54033a2.14237,2.14237,0,0,0-2.14339,2.14342v46.967a2.14339,2.14339,0,1,0,4.28678,0v-46.967a2.19229,2.19229,0,0,0-2.14339-2.1434Z"/><path class="cls-8" d="M993.196,314.54033a2.14237,2.14237,0,0,0-2.14339,2.14342v46.967a2.14339,2.14339,0,1,0,4.28678,0v-46.967a2.167,2.167,0,0,0-2.14339-2.1434Z"/><path class="cls-8" d="M1067.91457,314.54033a2.14237,2.14237,0,0,0-2.14339,2.14342v46.967a2.14339,2.14339,0,1,0,4.28679,0v-46.967a2.19229,2.19229,0,0,0-2.14339-2.1434Z"/><path class="cls-8" d="M1078.55643,314.54033a2.14237,2.14237,0,0,0-2.14339,2.14342v46.967a2.14339,2.14339,0,1,0,4.28679,0v-46.967a2.14239,2.14239,0,0,0-2.14339-2.1434Z"/><path class="cls-8" d="M982.51653,314.54033a2.14237,2.14237,0,0,0-2.14339,2.14342v46.967a2.14339,2.14339,0,1,0,4.28679,0v-46.967a2.16686,2.16686,0,0,0-2.14339-2.1434Z"/><path class="cls-8" d="M971.83712,314.54033a2.14237,2.14237,0,0,0-2.14339,2.14342v46.967a2.14339,2.14339,0,1,0,4.28679,0v-46.967a2.14239,2.14239,0,0,0-2.14339-2.1434Z"/><path class="cls-8" d="M1057.23515,314.54033a2.14237,2.14237,0,0,0-2.14339,2.14342v46.967a2.14339,2.14339,0,1,0,4.28679,0v-46.967a2.167,2.167,0,0,0-2.14339-2.1434Z"/><path class="cls-8" d="M1046.55565,314.54033a2.14237,2.14237,0,0,0-2.14339,2.14342v46.967a2.14339,2.14339,0,1,0,4.28679,0v-46.967a2.16692,2.16692,0,0,0-2.14339-2.1434Z"/><path class="cls-8" d="M1035.87624,314.54033a2.14237,2.14237,0,0,0-2.14339,2.14342v46.967a2.1424,2.1424,0,0,0,2.14339,2.14342,2.11887,2.11887,0,0,0,2.14339-2.14342v-46.967a2.167,2.167,0,0,0-2.14339-2.1434Z"/><path class="cls-9" d="M1024.82069,314.16429a2.14237,2.14237,0,0,0-2.14339,2.14342v46.967a2.14339,2.14339,0,1,0,4.28679,0v-46.967a2.14227,2.14227,0,0,0-2.14339-2.1434Z"/><path class="cls-9" d="M1014.14128,314.16429a2.14237,2.14237,0,0,0-2.14339,2.14342v46.967a2.14339,2.14339,0,1,0,4.28679,0v-46.967a2.14239,2.14239,0,0,0-2.14339-2.1434Z"/><path class="cls-9" d="M1003.49941,314.16429a2.14237,2.14237,0,0,0-2.14339,2.14342v46.967a2.14339,2.14339,0,1,0,4.28678,0v-46.967a2.19229,2.19229,0,0,0-2.14339-2.1434Z"/><path class="cls-9" d="M992.82,314.16429a2.14237,2.14237,0,0,0-2.14339,2.14342v46.967a2.14339,2.14339,0,1,0,4.28679,0v-46.967a2.167,2.167,0,0,0-2.14339-2.1434Z"/><path class="cls-9" d="M1067.53853,314.16429a2.14237,2.14237,0,0,0-2.14339,2.14342v46.967a2.14339,2.14339,0,1,0,4.28679,0v-46.967a2.19229,2.19229,0,0,0-2.14339-2.1434Z"/><path class="cls-9" d="M1078.1804,314.16429a2.14237,2.14237,0,0,0-2.14339,2.14342v46.967a2.14339,2.14339,0,1,0,4.28679,0v-46.967a2.14239,2.14239,0,0,0-2.14339-2.1434Z"/><path class="cls-9" d="M982.14049,314.16429a2.14237,2.14237,0,0,0-2.14339,2.14342v46.967a2.14339,2.14339,0,1,0,4.28679,0v-46.967a2.16686,2.16686,0,0,0-2.14339-2.1434Z"/><path class="cls-9" d="M971.46108,314.16429a2.14237,2.14237,0,0,0-2.14339,2.14342v46.967a2.14339,2.14339,0,1,0,4.28678,0v-46.967a2.14239,2.14239,0,0,0-2.14339-2.1434Z"/><path class="cls-9" d="M1056.85912,314.16429a2.14237,2.14237,0,0,0-2.14339,2.14342v46.967a2.14339,2.14339,0,1,0,4.28679,0v-46.967a2.167,2.167,0,0,0-2.14339-2.1434Z"/><path class="cls-9" d="M1046.17961,314.16429a2.14237,2.14237,0,0,0-2.14339,2.14342v46.967a2.14339,2.14339,0,1,0,4.28679,0v-46.967a2.16692,2.16692,0,0,0-2.14339-2.1434Z"/><path class="cls-9" d="M1035.5002,314.16429a2.14237,2.14237,0,0,0-2.14339,2.14342v46.967a2.1424,2.1424,0,0,0,2.14339,2.14342,2.11887,2.11887,0,0,0,2.14339-2.14342v-46.967a2.167,2.167,0,0,0-2.14339-2.1434Z"/><g class="cls-11"><text class="cls-23" transform="translate(1029.73918 365.02754)">A<tspan class="cls-22" x="9.35449" y="0">U</tspan><tspan class="cls-24" x="19.75" y="0">F</tspan><tspan class="cls-25" x="27.41699" y="0">B</tspan><tspan x="36.48047" y="0">A</tspan><tspan class="cls-22" x="45.83496" y="0">U</tspan></text></g></g><polygon class="cls-26" points="385.66 457.466 358.247 457.466 358.247 449.23 385.66 457.466"/></g><g id="kran"><polygon class="cls-4" points="1221.522 457.46 1194.109 457.46 1194.109 449.224 1221.522 457.46"/><polyline class="cls-27" points="968.493 306.901 1024.757 287.548 1081.148 306.901"/><rect class="cls-27" x="1020.73092" y="230.97756" width="8.93737" height="36.54346"/><polygon class="cls-28" points="1018.716 266.779 1031.688 266.779 1025.206 276.671 1018.716 266.779"/><path class="cls-27" d="M1029.96989,283.80408a4.76795,4.76795,0,1,1-4.76931-4.77015v-2.36251"/><line class="cls-27" x1="1188.60496" y1="255.20968" x2="1188.60496" y2="420.76804"/><line class="cls-27" x1="1166.31425" y1="255.20968" x2="1166.31425" y2="420.76804"/><rect class="cls-27" x="1166.31425" y="255.20968" width="22.29071" height="22.29071"/><rect class="cls-27" x="1166.31425" y="277.50039" width="22.29071" height="22.29071"/><rect class="cls-27" x="1166.31425" y="299.79111" width="22.29071" height="22.29088"/><rect class="cls-27" x="1166.31425" y="322.08198" width="22.29071" height="22.2907"/><rect class="cls-27" x="1166.31425" y="344.37268" width="22.29071" height="22.29072"/><rect class="cls-27" x="1166.31425" y="366.66341" width="22.29071" height="22.29088"/><rect class="cls-27" x="1166.31425" y="388.95428" width="22.29071" height="22.28907"/><rect class="cls-27" x="1166.31425" y="411.24336" width="22.29071" height="22.29235"/><line class="cls-27" x1="1166.31425" y1="255.20968" x2="1188.60496" y2="277.50039"/><line class="cls-27" x1="1188.60496" y1="277.50039" x2="1166.31425" y2="299.79111"/><line class="cls-27" x1="1166.31425" y1="299.79111" x2="1188.60496" y2="322.08198"/><line class="cls-27" x1="1188.60496" y1="322.08198" x2="1166.31425" y2="344.37268"/><line class="cls-27" x1="1166.31425" y1="344.37268" x2="1188.60496" y2="366.66341"/><line class="cls-27" x1="1188.60496" y1="366.66341" x2="1166.31425" y2="388.95428"/><line class="cls-27" x1="1166.31425" y1="388.95428" x2="1188.60496" y2="411.24336"/><line class="cls-27" x1="1188.60496" y1="411.24336" x2="1166.31425" y2="433.53571"/><path class="cls-29" d="M1203.29419,212.08573l16.998,18.63416h-16.998V212.08573m-1-2.58011v22.21426h20.26367l-20.26367-22.21426Z"/><line class="cls-30" x1="983.2207" y1="231.7199" x2="1205.10261" y2="231.7199"/><polygon class="cls-10" points="983.221 209.429 983.221 231.72 1173.289 231.72 1203.355 231.72 1203.355 209.429 983.221 209.429"/><rect class="cls-30" x="1160.40935" y="231.66009" width="33.69949" height="24.58707"/><rect class="cls-30" x="1160.40935" y="432.87942" width="33.69949" height="24.58707"/></g><g id="community"><g id="container"><rect class="cls-5" x="255.19347" y="321.14116" width="136.99057" height="68.0627"/><rect class="cls-6" x="259.22631" y="325.17401" width="128.92477" height="59.99685"/><path class="cls-7" d="M386.53789,326.7872v56.77049H260.83949V326.7872h125.6984m1.61318-1.61318H259.22631v59.99685H388.15108V325.174Z"/><path class="cls-8" d="M324.06479,329.90282a2.14237,2.14237,0,0,0-2.14339,2.14342v46.967a2.14339,2.14339,0,1,0,4.28679,0v-46.967a2.14227,2.14227,0,0,0-2.14339-2.1434Z"/><path class="cls-8" d="M313.38538,329.90282a2.14237,2.14237,0,0,0-2.14339,2.14342v46.967a2.14339,2.14339,0,1,0,4.28678,0v-46.967a2.14239,2.14239,0,0,0-2.14339-2.1434Z"/><path class="cls-8" d="M302.74351,329.90282a2.14237,2.14237,0,0,0-2.14339,2.14342v46.967a2.14339,2.14339,0,1,0,4.28678,0v-46.967a2.19229,2.19229,0,0,0-2.14339-2.1434Z"/><path class="cls-8" d="M292.0641,329.90282a2.14237,2.14237,0,0,0-2.14339,2.14342v46.967a2.14339,2.14339,0,1,0,4.28679,0v-46.967a2.167,2.167,0,0,0-2.14339-2.1434Z"/><path class="cls-8" d="M366.78263,329.90282a2.14237,2.14237,0,0,0-2.14339,2.14342v46.967a2.14339,2.14339,0,1,0,4.28679,0v-46.967a2.19229,2.19229,0,0,0-2.14339-2.1434Z"/><path class="cls-8" d="M377.42449,329.90282a2.14237,2.14237,0,0,0-2.14339,2.14342v46.967a2.14339,2.14339,0,1,0,4.28679,0v-46.967a2.14239,2.14239,0,0,0-2.14339-2.1434Z"/><path class="cls-8" d="M281.38459,329.90282a2.14237,2.14237,0,0,0-2.14339,2.14342v46.967a2.14339,2.14339,0,1,0,4.28678,0v-46.967a2.16686,2.16686,0,0,0-2.14339-2.1434Z"/><path class="cls-8" d="M270.70518,329.90282a2.14237,2.14237,0,0,0-2.14339,2.14342v46.967a2.14339,2.14339,0,1,0,4.28679,0v-46.967a2.14239,2.14239,0,0,0-2.14339-2.1434Z"/><path class="cls-8" d="M356.10322,329.90282a2.14237,2.14237,0,0,0-2.14339,2.14342v46.967a2.14339,2.14339,0,1,0,4.28678,0v-46.967a2.167,2.167,0,0,0-2.14339-2.1434Z"/><path class="cls-8" d="M345.42371,329.90282a2.14237,2.14237,0,0,0-2.14339,2.14342v46.967a2.14339,2.14339,0,1,0,4.28679,0v-46.967a2.16692,2.16692,0,0,0-2.14339-2.1434Z"/><path class="cls-8" d="M334.7443,329.90282a2.14237,2.14237,0,0,0-2.14339,2.14342v46.967a2.1424,2.1424,0,0,0,2.14339,2.14342,2.11887,2.11887,0,0,0,2.14339-2.14342v-46.967a2.167,2.167,0,0,0-2.14339-2.1434Z"/><path class="cls-9" d="M323.68875,329.52679a2.14237,2.14237,0,0,0-2.14339,2.14342v46.967a2.14339,2.14339,0,1,0,4.28679,0v-46.967a2.14227,2.14227,0,0,0-2.14339-2.1434Z"/><path class="cls-9" d="M313.00934,329.52679a2.14237,2.14237,0,0,0-2.14339,2.14342v46.967a2.14339,2.14339,0,1,0,4.28679,0v-46.967a2.14239,2.14239,0,0,0-2.14339-2.1434Z"/><path class="cls-9" d="M302.36747,329.52679a2.14237,2.14237,0,0,0-2.14339,2.14342v46.967a2.14339,2.14339,0,1,0,4.28678,0v-46.967a2.19229,2.19229,0,0,0-2.14339-2.1434Z"/><path class="cls-9" d="M291.68806,329.52679a2.14237,2.14237,0,0,0-2.14339,2.14342v46.967a2.14339,2.14339,0,1,0,4.28679,0v-46.967a2.167,2.167,0,0,0-2.14339-2.1434Z"/><path class="cls-9" d="M366.40659,329.52679a2.14237,2.14237,0,0,0-2.14339,2.14342v46.967a2.14339,2.14339,0,1,0,4.28679,0v-46.967a2.19229,2.19229,0,0,0-2.14339-2.1434Z"/><path class="cls-9" d="M377.04846,329.52679a2.14237,2.14237,0,0,0-2.14339,2.14342v46.967a2.14339,2.14339,0,1,0,4.28679,0v-46.967a2.14239,2.14239,0,0,0-2.14339-2.1434Z"/><path class="cls-9" d="M281.00855,329.52679a2.14237,2.14237,0,0,0-2.14339,2.14342v46.967a2.14339,2.14339,0,1,0,4.28679,0v-46.967a2.16686,2.16686,0,0,0-2.14339-2.1434Z"/><path class="cls-9" d="M270.32914,329.52679a2.14237,2.14237,0,0,0-2.14339,2.14342v46.967a2.14339,2.14339,0,1,0,4.28679,0v-46.967a2.14239,2.14239,0,0,0-2.14339-2.1434Z"/><path class="cls-9" d="M355.72718,329.52679a2.14237,2.14237,0,0,0-2.14339,2.14342v46.967a2.14339,2.14339,0,1,0,4.28679,0v-46.967a2.167,2.167,0,0,0-2.14339-2.1434Z"/><path class="cls-9" d="M345.04767,329.52679a2.14237,2.14237,0,0,0-2.14339,2.14342v46.967a2.14339,2.14339,0,1,0,4.28679,0v-46.967a2.16692,2.16692,0,0,0-2.14339-2.1434Z"/><path class="cls-9" d="M334.36826,329.52679a2.14237,2.14237,0,0,0-2.14339,2.14342v46.967a2.1424,2.1424,0,0,0,2.14339,2.14342,2.11887,2.11887,0,0,0,2.14339-2.14342v-46.967a2.167,2.167,0,0,0-2.14339-2.1434Z"/><rect class="cls-31" x="255.19347" y="387.20385" width="136.99057" height="2"/></g><g id="container_unten" data-name="container unten"><rect class="cls-5" x="220.39101" y="389.40379" width="136.99057" height="68.0627"/><rect class="cls-6" x="224.42384" y="393.43664" width="128.92477" height="59.99685"/><path class="cls-7" d="M351.73543,395.04983v56.77049H226.037V395.04983h125.6984m1.61318-1.61318H224.42384V453.4335H353.34862V393.43665Z"/><path class="cls-8" d="M289.26233,398.16546a2.14237,2.14237,0,0,0-2.14339,2.14342v46.967a2.14339,2.14339,0,1,0,4.28679,0v-46.967a2.14227,2.14227,0,0,0-2.14339-2.1434Z"/><path class="cls-8" d="M278.58291,398.16546a2.14237,2.14237,0,0,0-2.14339,2.14342v46.967a2.14339,2.14339,0,1,0,4.28679,0v-46.967a2.14239,2.14239,0,0,0-2.14339-2.1434Z"/><path class="cls-8" d="M267.941,398.16546a2.14237,2.14237,0,0,0-2.14339,2.14342v46.967a2.14339,2.14339,0,1,0,4.28679,0v-46.967a2.19229,2.19229,0,0,0-2.14339-2.1434Z"/><path class="cls-8" d="M257.26163,398.16546a2.14237,2.14237,0,0,0-2.14339,2.14342v46.967a2.14339,2.14339,0,1,0,4.28678,0v-46.967a2.167,2.167,0,0,0-2.14339-2.1434Z"/><path class="cls-8" d="M331.98017,398.16546a2.14237,2.14237,0,0,0-2.14339,2.14342v46.967a2.14339,2.14339,0,1,0,4.28679,0v-46.967a2.19229,2.19229,0,0,0-2.14339-2.1434Z"/><path class="cls-8" d="M342.622,398.16546a2.14237,2.14237,0,0,0-2.14339,2.14342v46.967a2.14339,2.14339,0,1,0,4.28679,0v-46.967a2.14239,2.14239,0,0,0-2.14339-2.1434Z"/><path class="cls-8" d="M246.58213,398.16546a2.14237,2.14237,0,0,0-2.14339,2.14342v46.967a2.14339,2.14339,0,1,0,4.28679,0v-46.967a2.16686,2.16686,0,0,0-2.14339-2.1434Z"/><path class="cls-8" d="M235.90272,398.16546a2.14237,2.14237,0,0,0-2.14339,2.14342v46.967a2.14339,2.14339,0,1,0,4.28679,0v-46.967a2.14239,2.14239,0,0,0-2.14339-2.1434Z"/><path class="cls-8" d="M321.30075,398.16546a2.14237,2.14237,0,0,0-2.14339,2.14342v46.967a2.14339,2.14339,0,1,0,4.28679,0v-46.967a2.167,2.167,0,0,0-2.14339-2.1434Z"/><path class="cls-8" d="M310.62125,398.16546a2.14237,2.14237,0,0,0-2.14339,2.14342v46.967a2.14339,2.14339,0,1,0,4.28678,0v-46.967a2.16692,2.16692,0,0,0-2.14339-2.1434Z"/><path class="cls-8" d="M299.94183,398.16546a2.14237,2.14237,0,0,0-2.14339,2.14342v46.967a2.1424,2.1424,0,0,0,2.14339,2.14342,2.11887,2.11887,0,0,0,2.14339-2.14342v-46.967a2.167,2.167,0,0,0-2.14339-2.1434Z"/><path class="cls-9" d="M288.88629,397.78942a2.14237,2.14237,0,0,0-2.14339,2.14342v46.967a2.14339,2.14339,0,1,0,4.28679,0v-46.967a2.14227,2.14227,0,0,0-2.14339-2.1434Z"/><path class="cls-9" d="M278.20688,397.78942a2.14237,2.14237,0,0,0-2.14339,2.14342v46.967a2.14339,2.14339,0,1,0,4.28679,0v-46.967a2.14239,2.14239,0,0,0-2.14339-2.1434Z"/><path class="cls-9" d="M267.565,397.78942a2.14237,2.14237,0,0,0-2.14339,2.14342v46.967a2.14339,2.14339,0,1,0,4.28679,0v-46.967a2.19229,2.19229,0,0,0-2.14339-2.1434Z"/><path class="cls-9" d="M256.8856,397.78942a2.14237,2.14237,0,0,0-2.14339,2.14342v46.967a2.14339,2.14339,0,1,0,4.28679,0v-46.967a2.167,2.167,0,0,0-2.14339-2.1434Z"/><path class="cls-9" d="M331.60413,397.78942a2.14237,2.14237,0,0,0-2.14339,2.14342v46.967a2.14339,2.14339,0,1,0,4.28678,0v-46.967a2.19229,2.19229,0,0,0-2.14339-2.1434Z"/><path class="cls-9" d="M342.246,397.78942a2.14237,2.14237,0,0,0-2.14339,2.14342v46.967a2.14339,2.14339,0,1,0,4.28679,0v-46.967a2.14239,2.14239,0,0,0-2.14339-2.1434Z"/><path class="cls-9" d="M246.20609,397.78942a2.14237,2.14237,0,0,0-2.14339,2.14342v46.967a2.14339,2.14339,0,1,0,4.28679,0v-46.967a2.16686,2.16686,0,0,0-2.14339-2.1434Z"/><path class="cls-9" d="M235.52668,397.78942a2.14237,2.14237,0,0,0-2.14339,2.14342v46.967a2.14339,2.14339,0,1,0,4.28679,0v-46.967a2.14239,2.14239,0,0,0-2.14339-2.1434Z"/><path class="cls-9" d="M320.92472,397.78942a2.14237,2.14237,0,0,0-2.14339,2.14342v46.967a2.14339,2.14339,0,1,0,4.28679,0v-46.967a2.167,2.167,0,0,0-2.14339-2.1434Z"/><path class="cls-9" d="M310.24521,397.78942a2.14237,2.14237,0,0,0-2.14339,2.14342v46.967a2.14339,2.14339,0,1,0,4.28678,0v-46.967a2.16692,2.16692,0,0,0-2.14339-2.1434Z"/><path class="cls-9" d="M299.5658,397.78942a2.14237,2.14237,0,0,0-2.14339,2.14342v46.967a2.1424,2.1424,0,0,0,2.14339,2.14342,2.11887,2.11887,0,0,0,2.14339-2.14342v-46.967a2.167,2.167,0,0,0-2.14339-2.1434Z"/><rect class="cls-10" x="220.39101" y="455.46649" width="136.99057" height="2"/><polygon class="cls-7" points="276.912 457.466 255.193 389.404 357.962 389.404 357.962 457.466 276.912 457.466"/></g><g id="paar1"><g id="frau"><path class="cls-32" d="M363.25735,401.77386H308.11889a2.51706,2.51706,0,0,0-2.5111,2.573V421.328a2.559,2.559,0,0,0,2.5111,2.62155h42.35605v4.58106l3.40454-4.58106h9.37787a2.712,2.712,0,0,0,2.689-2.62155V404.34685A2.67042,2.67042,0,0,0,363.25735,401.77386Z"/><ellipse class="cls-4" cx="327.87401" cy="552.86489" rx="23.26044" ry="4.50514"/><path class="cls-33" d="M306.87312,447.5274c0-1.19774,1.6693-2.2351,1.86909-3.37561.20541-1.17257-1.00565-2.71619-.60742-3.8099.40531-1.11316,2.329-1.516,2.9146-2.528.591-1.02145-.01725-2.88842.73736-3.78673.75676-.90086,2.70152-.62381,3.60244-1.3805.89833-.75452.96132-2.71855,1.98278-3.30951,1.01192-.58544,2.74389.33771,3.85693-.0675,1.09369-.39816,1.82571-2.22212,2.99825-2.42748,1.14026-.1997,2.44941,1.26129,3.64687,1.26129,1.19774,0,2.5072-1.46094,3.64771-1.26114,1.17257.20541,1.90456,2.02942,2.99827,2.42764,1.11316.40531,2.84531-.51768,3.85732.06791,1.02145.591,1.08433,2.55511,1.98264,3.30972.90086.75676,2.84564.47985,3.60233,1.38077.75452.89833.14606,2.76523.737,3.78669.58544,1.01192,2.50906,1.41474,2.91426,2.52778.39816,1.09369-.813,2.63721-.60762,3.80975.1997,1.14026,1.869,2.17737,1.869,3.37483,0,1.19774-1.6693,2.2351-1.86909,3.37561-.20541,1.17257,1.00565,2.71619.60742,3.8099-.40531,1.11316-2.329,1.516-2.9146,2.528-.591,1.02145.01725,2.88842-.73736,3.78673-.75676.90086-2.70152.62381-3.60244,1.3805-.89833.75452-.96132,2.71855-1.98278,3.30951-1.01192.58544-2.74389-.33771-3.85693.0675-1.09369.39816-1.82571,2.22212-2.99825,2.42748-1.14026.1997-2.44941-1.26129-3.64687-1.26129-1.19774,0-2.5072,1.46094-3.64771,1.26114-1.17257-.20541-1.90456-2.02942-2.99827-2.42764-1.11316-.40531-2.84531.51768-3.85732-.06791-1.02145-.591-1.08433-2.55511-1.98264-3.30972-.90086-.75676-2.84564-.47985-3.60233-1.38077-.75452-.89833-.14606-2.76523-.737-3.78669-.58544-1.01192-2.50906-1.41474-2.91426-2.52778-.39816-1.09369.813-2.63721.60762-3.80975C308.54237,449.762,306.87312,448.72486,306.87312,447.5274Z"/><path class="cls-33" d="M339.16344,460.99408l-22.64074-.20488a3.40357,3.40357,0,0,1-3.255-4.29115l4.95678-18.34684,18.2978-2.22394,5.94361,20.72511A3.40357,3.40357,0,0,1,339.16344,460.99408Z"/><line class="cls-34" x1="322.82174" y1="506.42702" x2="322.82174" y2="545.48848"/><line class="cls-35" x1="322.82174" y1="540.18887" x2="322.82174" y2="549.8216"/><line class="cls-36" x1="322.82174" y1="535.66137" x2="322.82174" y2="545.29411"/><line class="cls-34" x1="332.21288" y1="506.42702" x2="332.21288" y2="545.48848"/><line class="cls-35" x1="332.21288" y1="540.18887" x2="332.21288" y2="549.8216"/><line class="cls-36" x1="332.21288" y1="535.66137" x2="332.21288" y2="545.29411"/><rect class="cls-37" x="324.67662" y="459.11561" width="5.68182" height="5.68182"/><path class="cls-38" d="M327.51731,460.62631a8.22651,8.22651,0,0,1-2.84111-.51216v1.33021a8.13639,8.13639,0,0,0,5.68222,0v-1.33021A8.22726,8.22726,0,0,1,327.51731,460.62631Z"/><path class="cls-39" d="M311.61383,513.51515v-37.388c0-5.61922,7.64962-10.36639,16.70514-10.36639"/><line class="cls-40" x1="311.61383" y1="516.23569" x2="311.61383" y2="510.79462"/><line class="cls-41" x1="311.61383" y1="512.84007" x2="311.61383" y2="482.12267"/><path class="cls-39" d="M375.27191,465.76077h-37.388c-5.61922,0-10.36639,7.64962-10.36639,16.70514"/><line class="cls-40" x1="377.99245" y1="465.76077" x2="372.55137" y2="465.76077"/><line class="cls-41" x1="374.59682" y1="465.76077" x2="343.87942" y2="465.76077"/><path id="_Pfad_" data-name="&lt;Pfad&gt;" class="cls-42" d="M335.77708,452.62262a8.25977,8.25977,0,1,1-16.51954,0V442.46716h16.51954Z"/><path class="cls-43" d="M317.999,440.04234v3.02286c1.74413,1.384,5.349,2.33566,9.51864,2.33566,4.08952,0,7.63691-.91593,9.417-2.25746v-3.10106Z"/><ellipse class="cls-42" cx="335.77708" cy="451.04393" rx="1.7338" ry="2.48008"/><ellipse class="cls-42" cx="318.74228" cy="451.04393" rx="1.7338" ry="2.48008"/><circle id="_Pfad_2" data-name="&lt;Pfad&gt;" class="cls-44" cx="332.08727" cy="446.9694" r="0.81243"/><circle id="_Pfad_3" data-name="&lt;Pfad&gt;" class="cls-44" cx="323.63417" cy="446.9694" r="0.81243"/><path class="cls-33" d="M337.03557,442.0851v-.5169a2.396,2.396,0,0,0-2.06377-2.37349l-7.45434-1.04351-7.4543,1.04351a2.396,2.396,0,0,0-2.06411,2.37349v.5169Z"/><path class="cls-33" d="M338.12922,437.08707s-2.21043,6.58725-12.16081,6.58725a10.3708,10.3708,0,0,1-10.14084-7.02677s3.677,3.89362,9.14991-1.36854C326.21607,433.17148,336.34225,432.12772,338.12922,437.08707Z"/><path class="cls-45" d="M340.71317,522.04939H314.32145V476.1246a13.19585,13.19585,0,0,1,13.19585-13.19585h0a13.19585,13.19585,0,0,1,13.19585,13.19585Z"/></g><g id="mann"><ellipse cx="414.43226" cy="552.86489" rx="23.26044" ry="4.50514"/><line x1="409.76484" y1="502.54669" x2="422.15463" y2="543.67235"/><line x1="420.47366" y1="538.09268" x2="423.52903" y2="548.23445"/><line x1="419.03759" y1="533.32593" x2="422.09297" y2="543.4677"/><line x1="409.76484" y1="502.54669" x2="409.76484" y2="545.49813"/><line x1="409.76484" y1="539.67075" x2="409.76484" y2="550.26277"/><line x1="409.76484" y1="534.69238" x2="409.76484" y2="545.2844"/><polygon points="414.121 532.108 417.984 544.929 419.469 549.838 414.432 506.436 414.121 501.903 414.121 502.547 414.121 532.108"/><rect x="406.64101" y="450.52372" width="6.24765" height="6.24765"/><path d="M395.25485,469.89362a14.51,14.51,0,0,1,14.51-14.51h0a14.51,14.51,0,0,1,14.51,14.51v36.66631h-29.02Z"/><path id="_Pfad_4" data-name="&lt;Pfad&gt;" d="M400.68251,443.38412a9.08233,9.08233,0,0,0,18.16465,0v-11.1668H400.68251Z"/><path d="M409.76484,452.46645a9.04576,9.04576,0,0,1-3.124-.56316V453.366a8.94666,8.94666,0,0,0,6.2481,0v-1.46268A9.04658,9.04658,0,0,1,409.76484,452.46645Z"/><circle id="_Pfad_5" data-name="&lt;Pfad&gt;" cx="403.99262" cy="437.16792" r="0.89334"/><ellipse id="_Pfad_6" data-name="&lt;Pfad&gt;" cx="411.31089" cy="439.68019" rx="2.68005" ry="2.27057" transform="translate(-108.95646 742.69372) rotate(-77.12668)"/><path d="M411.321,460.40031a3.11105,3.11105,0,0,0-3.11129,3.11129V480.157a4.36108,4.36108,0,0,1-4.3558,4.3558h-8.59918v6.22257h8.59918A10.591,10.591,0,0,0,414.43226,480.157V463.5116A3.11105,3.11105,0,0,0,411.321,460.40031Z"/><path d="M409.76484,461.011V477.6564a7.46709,7.46709,0,0,1-7.46709,7.46709H379.1775"/><line x1="382.4438" y1="485.12349" x2="377.99245" y2="485.12349"/><ellipse class="cls-4" cx="414.43226" cy="552.86489" rx="23.26044" ry="4.50514"/><line class="cls-46" x1="409.76484" y1="502.54669" x2="422.15463" y2="543.67235"/><line class="cls-47" x1="420.47366" y1="538.09268" x2="423.52903" y2="548.23445"/><line class="cls-48" x1="419.03759" y1="533.32593" x2="422.09297" y2="543.4677"/><line class="cls-46" x1="409.76484" y1="502.54669" x2="409.76484" y2="545.49813"/><line class="cls-47" x1="409.76484" y1="539.67075" x2="409.76484" y2="550.26277"/><line class="cls-48" x1="409.76484" y1="534.69238" x2="409.76484" y2="545.2844"/><g class="cls-38"><polygon points="414.121 532.108 417.984 544.929 419.469 549.838 414.432 506.436 414.121 501.903 414.121 502.547 414.121 532.108"/></g><rect class="cls-37" x="406.64101" y="450.52372" width="6.24765" height="6.24765"/><path class="cls-30" d="M395.25485,469.89362a14.51,14.51,0,0,1,14.51-14.51h0a14.51,14.51,0,0,1,14.51,14.51v36.66631h-29.02Z"/><path id="_Pfad_7" data-name="&lt;Pfad&gt;" class="cls-42" d="M400.68251,443.38412a9.08233,9.08233,0,0,0,18.16465,0v-11.1668H400.68251Z"/><path class="cls-38" d="M409.76484,452.46645a9.04576,9.04576,0,0,1-3.124-.56316V453.366a8.94666,8.94666,0,0,0,6.2481,0v-1.46268A9.04658,9.04658,0,0,1,409.76484,452.46645Z"/><circle id="_Pfad_8" data-name="&lt;Pfad&gt;" cx="403.99262" cy="437.16792" r="0.89334"/><ellipse id="_Pfad_9" data-name="&lt;Pfad&gt;" class="cls-42" cx="411.31089" cy="439.68019" rx="2.68005" ry="2.27057" transform="translate(-108.95646 742.69372) rotate(-77.12668)"/><g class="cls-38"><path d="M411.321,460.40031a3.11105,3.11105,0,0,0-3.11129,3.11129V480.157a4.36108,4.36108,0,0,1-4.3558,4.3558h-8.59918v6.22257h8.59918A10.591,10.591,0,0,0,414.43226,480.157V463.5116A3.11105,3.11105,0,0,0,411.321,460.40031Z"/></g><path class="cls-49" d="M409.76484,461.011V477.6564a7.46709,7.46709,0,0,1-7.46709,7.46709H379.1775"/><line class="cls-50" x1="387.42217" y1="485.12349" x2="380.48163" y2="485.12349"/><line class="cls-51" x1="382.4438" y1="485.12349" x2="377.99245" y2="485.12349"/></g></g><g id="paar2"><path class="cls-32" d="M191.56819,393.23222H151.22911a1.84147,1.84147,0,0,0-1.83711,1.88239V407.538a1.87218,1.87218,0,0,0,1.83711,1.91792h30.98753v3.35148l2.49075-3.35148h6.86082a1.98407,1.98407,0,0,0,1.96728-1.91792V395.1146A1.95367,1.95367,0,0,0,191.56819,393.23222Z"/><g id="frau-2" data-name="frau"><ellipse class="cls-4" cx="194.19115" cy="471.97028" rx="11.60536" ry="1.93086"/><path class="cls-52" d="M198.48418,421.48865h-2.79241a3.84285,3.84285,0,0,0,2.79241,3.3483Z"/><path class="cls-52" d="M198.53417,423.54258c0,1.85453-2.00443,3.35817-4.47677,3.35817h-.19472c-2.47235,0-4.47661-1.50365-4.47661-3.35817v-1.65086c0-1.87869,2.03041-3.402,4.53536-3.402h.07738c2.50442,0,4.53536,1.52336,4.53536,3.402Z"/><ellipse class="cls-52" cx="194.20726" cy="427.35996" rx="5.01765" ry="4.44097"/><line class="cls-53" x1="191.95475" y1="451.89427" x2="191.95475" y2="469.31006"/><line class="cls-54" x1="191.95475" y1="466.9472" x2="191.95475" y2="471.24201"/><line class="cls-55" x1="191.95475" y1="464.92859" x2="191.95475" y2="469.2234"/><line class="cls-53" x1="196.14184" y1="451.89427" x2="196.14184" y2="469.31006"/><line class="cls-54" x1="196.14184" y1="466.9472" x2="196.14184" y2="471.24201"/><line class="cls-55" x1="196.14184" y1="464.92859" x2="196.14184" y2="469.2234"/><rect class="cls-37" x="192.78176" y="430.80019" width="2.53327" height="2.53327"/><path class="cls-38" d="M194.0483,431.47375a3.66784,3.66784,0,0,1-1.26673-.22835v.59308a3.62766,3.62766,0,0,0,2.53345,0v-.59308A3.66818,3.66818,0,0,1,194.0483,431.47375Z"/><path class="cls-56" d="M186.95763,455.03881V438.36915c0-2.50537,3.41063-4.62192,7.44809-4.62192"/><line class="cls-57" x1="186.95763" y1="456.25178" x2="186.95763" y2="453.82585"/><line class="cls-58" x1="186.95763" y1="454.73782" x2="186.95763" y2="441.04228"/><path class="cls-56" d="M201.17184,455.23484V438.56517c0-2.50537-3.41063-4.62192-7.44809-4.62192"/><line class="cls-57" x1="201.17184" y1="456.44781" x2="201.17184" y2="454.02187"/><line class="cls-58" x1="201.17184" y1="454.93385" x2="201.17184" y2="441.23831"/><path class="cls-59" d="M199.93175,449.283H188.16484V438.38376a5.88345,5.88345,0,0,1,5.88345-5.88345h0a5.88345,5.88345,0,0,1,5.88345,5.88345Z"/><path id="_Pfad_10" data-name="&lt;Pfad&gt;" class="cls-42" d="M197.731,427.90525a3.68267,3.68267,0,0,1-7.36534,0v-4.52787H197.731Z"/><path class="cls-43" d="M189.80448,422.29626V423.644a7.41714,7.41714,0,0,0,4.24394,1.04137,7.55367,7.55367,0,0,0,4.19861-1.0065v-1.38263Z"/><ellipse class="cls-42" cx="197.73096" cy="427.20139" rx="0.77302" ry="1.10576"/><ellipse class="cls-42" cx="190.1359" cy="427.20139" rx="0.77302" ry="1.10576"/><circle id="_Pfad_11" data-name="&lt;Pfad&gt;" cx="196.08584" cy="425.38473" r="0.36223"/><circle id="_Pfad_12" data-name="&lt;Pfad&gt;" cx="192.31698" cy="425.38473" r="0.36223"/><path class="cls-52" d="M198.33882,422.02651s-5.8245-.41119-6.61715,3.38435c-2.03743-3.41082.868-4.62944,2.5514-4.35823A34.39158,34.39158,0,0,1,198.33882,422.02651Z"/><path class="cls-52" d="M197.57086,421.20721s-6.2232-.406-7.01569,3.3902c-1.788-4.84446,1.26653-4.63544,2.95009-4.36425A34.40922,34.40922,0,0,1,197.57086,421.20721Z"/><rect class="cls-28" x="189.35462" y="449.28299" width="9.7052" height="5.39158"/></g><g id="mann-2" data-name="mann"><ellipse class="cls-4" cx="165.30639" cy="471.97028" rx="11.60536" ry="1.93086"/><line class="cls-60" x1="168.44222" y1="449.77731" x2="162.82591" y2="468.41965"/><line class="cls-61" x1="163.58789" y1="465.89037" x2="162.20288" y2="470.48766"/><line class="cls-62" x1="164.23886" y1="463.7296" x2="162.85385" y2="468.32688"/><line class="cls-60" x1="168.44222" y1="449.77731" x2="168.44222" y2="469.24728"/><line class="cls-61" x1="168.44222" y1="466.60572" x2="168.44222" y2="471.40711"/><line class="cls-62" x1="168.44222" y1="464.34901" x2="168.44222" y2="469.1504"/><g class="cls-38"><polygon points="166.467 463.178 164.717 468.99 164.043 471.215 166.326 451.54 166.467 449.486 166.467 449.777 166.467 463.178"/></g><rect class="cls-37" x="167.02619" y="426.19518" width="2.83207" height="2.83207" transform="translate(336.88445 855.22243) rotate(-180)"/><path class="cls-8" d="M175.01963,451.59651H161.86482V434.9756a6.5774,6.5774,0,0,1,6.5774-6.5774h0a6.5774,6.5774,0,0,1,6.5774,6.5774Z"/><path id="_Pfad_13" data-name="&lt;Pfad&gt;" class="cls-42" d="M172.55926,422.95878a4.117,4.117,0,1,1-8.23408,0v-5.06193h8.23408Z"/><path class="cls-38" d="M168.44222,427.07582a4.10046,4.10046,0,0,0,1.41614-.25528v.663a4.05554,4.05554,0,0,1-2.83227,0v-.663A4.10084,4.10084,0,0,0,168.44222,427.07582Z"/><circle id="_Pfad_14" data-name="&lt;Pfad&gt;" cx="171.05878" cy="420.14097" r="0.40495"/><path id="_Pfad_15" data-name="&lt;Pfad&gt;" class="cls-63" d="M173.89964,415.29206h-9.53183a1.347,1.347,0,0,0-1.383,1.30814v4.80365a1.34719,1.34719,0,0,0,1.38305,1.30814h.00436a4.16466,4.16466,0,0,0,3.8328-2.41483,2.94808,2.94808,0,0,1,1.235-1.38806,3.68685,3.68685,0,0,1,1.38522-.36374,3.34665,3.34665,0,0,0,3.07446-3.25084Z"/><ellipse id="_Pfad_16" data-name="&lt;Pfad&gt;" class="cls-42" cx="167.74139" cy="421.27979" rx="1.02926" ry="1.21487" transform="translate(-89.64336 47.96099) rotate(-12.87332)"/><g class="cls-38"><path d="M167.73682,430.67226a1.41025,1.41025,0,0,1,1.41035,1.41035V439.628a1.97689,1.97689,0,0,0,1.97449,1.97449h3.898v2.82071h-3.898a4.80091,4.80091,0,0,1-4.7952-4.7952v-7.54539A1.41025,1.41025,0,0,1,167.73682,430.67226Z"/></g><path class="cls-64" d="M168.44222,430.9491v7.54539a3.38485,3.38485,0,0,0,3.38485,3.38485h10.48046"/><line class="cls-65" x1="178.5702" y1="441.87933" x2="181.71636" y2="441.87933"/><line class="cls-66" x1="180.82691" y1="441.87933" x2="182.84471" y2="441.87933"/></g></g><g id="paar3"><path class="cls-32" d="M391.40575,249.24929H351.06667a1.84147,1.84147,0,0,0-1.83711,1.88239V263.555a1.87218,1.87218,0,0,0,1.83711,1.91792h30.98753v3.35148l2.49075-3.35148h6.86082A1.98407,1.98407,0,0,0,393.373,263.555V251.13168A1.95367,1.95367,0,0,0,391.40575,249.24929Z"/><g id="frau-3" data-name="frau"><path class="cls-52" d="M371.90917,279.88085h-2.25361a3.10136,3.10136,0,0,0,2.25361,2.70223Z"/><path class="cls-52" d="M371.94952,281.53847c0,1.49669-1.61767,2.7102-3.613,2.7102h-.15715c-1.99531,0-3.61283-1.21351-3.61283-2.7102v-1.33232c0-1.51619,1.63864-2.74561,3.66025-2.74561h.06245c2.02119,0,3.66025,1.22942,3.66025,2.74561Z"/><ellipse class="cls-52" cx="368.4575" cy="284.61928" rx="4.04948" ry="3.58407"/><path class="cls-52" d="M371.79186,280.31493s-4.70064-.33185-5.34035,2.73133c-1.64431-2.75269.70052-3.73618,2.0591-3.5173A27.75564,27.75564,0,0,1,371.79186,280.31493Z"/><path class="cls-52" d="M371.17208,279.65372s-5.02242-.32765-5.662,2.73605c-1.443-3.90971,1.02215-3.741,2.38086-3.52216A27.76987,27.76987,0,0,1,371.17208,279.65372Z"/><line class="cls-67" x1="366.63961" y1="304.41963" x2="366.63961" y2="318.475"/><line class="cls-68" x1="366.63961" y1="316.56805" x2="366.63961" y2="320.03417"/><line class="cls-69" x1="366.63961" y1="314.93894" x2="366.63961" y2="318.40505"/><line class="cls-67" x1="370.0188" y1="304.41963" x2="370.0188" y2="318.475"/><line class="cls-68" x1="370.0188" y1="316.56805" x2="370.0188" y2="320.03417"/><line class="cls-69" x1="370.0188" y1="314.93894" x2="370.0188" y2="318.40505"/><rect class="cls-37" x="367.30705" y="287.39571" width="2.04447" height="2.04447"/><path class="cls-38" d="M368.32921,287.9393a2.96012,2.96012,0,0,1-1.02231-.18429v.47864a2.92769,2.92769,0,0,0,2.04462,0V287.755A2.96039,2.96039,0,0,1,368.32921,287.9393Z"/><path class="cls-70" d="M362.60671,274.40172v13.45321c0,2.02195,2.75254,3.7301,6.011,3.7301"/><line class="cls-71" x1="362.60671" y1="273.42279" x2="362.60671" y2="275.38064"/><line class="cls-72" x1="362.60671" y1="274.64463" x2="362.60671" y2="285.69758"/><path class="cls-70" d="M374.07825,274.16v13.45321c0,2.02195-2.75254,3.7301-6.011,3.7301"/><line class="cls-71" x1="374.07825" y1="273.18109" x2="374.07825" y2="275.13894"/><line class="cls-73" x1="374.07825" y1="274.40293" x2="374.07825" y2="285.45588"/><path class="cls-59" d="M373.07743,302.3122H363.581V293.516a4.74822,4.74822,0,0,1,4.74822-4.74822h0a4.74822,4.74822,0,0,1,4.74822,4.74822Z"/><path id="_Pfad_17" data-name="&lt;Pfad&gt;" class="cls-42" d="M371.30129,285.05936a2.97209,2.97209,0,0,1-5.94417,0v-3.65421h5.94417Z"/><path class="cls-43" d="M364.90425,280.53263v1.08771a5.986,5.986,0,0,0,3.42506.84043,6.09617,6.09617,0,0,0,3.38847-.81229v-1.11584Z"/><ellipse class="cls-42" cx="371.30129" cy="284.4913" rx="0.62387" ry="0.8924"/><ellipse class="cls-42" cx="365.17172" cy="284.4913" rx="0.62387" ry="0.8924"/><circle id="_Pfad_18" data-name="&lt;Pfad&gt;" cx="369.9736" cy="283.02518" r="0.29233"/><circle id="_Pfad_19" data-name="&lt;Pfad&gt;" cx="366.93195" cy="283.02518" r="0.29233"/><polygon class="cls-28" points="375.374 311.447 361.541 311.447 364.541 302.312 372.374 302.312 375.374 311.447"/></g><g id="mann-3" data-name="mann"><path class="cls-74" d="M396.5633,329.17051v-8.27085a1.91064,1.91064,0,0,0-1.91064-1.91064H384.59235"/><line class="cls-75" x1="396.5633" y1="327.28704" x2="396.5633" y2="330.71049"/><line class="cls-76" x1="396.5633" y1="325.67799" x2="396.5633" y2="329.10143"/><path class="cls-77" d="M397.39666,329.9484v-8.27085a1.91064,1.91064,0,0,0-1.91064-1.91064H385.42571"/><line class="cls-75" x1="397.39666" y1="328.06493" x2="397.39666" y2="331.48837"/><line class="cls-76" x1="397.39666" y1="326.45587" x2="397.39666" y2="329.87932"/><path class="cls-78" d="M397.39666,329.9484v-8.27085a1.91064,1.91064,0,0,0-1.91064-1.91064H385.42571"/><line class="cls-75" x1="397.39666" y1="328.06493" x2="397.39666" y2="331.48837"/><line class="cls-76" x1="397.39666" y1="326.45587" x2="397.39666" y2="329.87932"/><rect class="cls-37" x="384.80179" y="297.5389" width="2.0193" height="2.0193" transform="translate(771.62288 597.09709) rotate(-180)"/><path class="cls-28" d="M390.50121,315.65034h-9.37954V303.79944a4.68976,4.68976,0,0,1,4.68976-4.68976h0a4.68976,4.68976,0,0,1,4.68976,4.68976Z"/><path id="_Pfad_20" data-name="&lt;Pfad&gt;" class="cls-42" d="M388.74693,295.23131a2.9355,2.9355,0,1,1-5.871,0v-3.60922h5.871Z"/><path class="cls-38" d="M385.81144,298.16681a2.92368,2.92368,0,0,0,1.00972-.182v.47275a2.89165,2.89165,0,0,1-2.01945,0v-.47275A2.92394,2.92394,0,0,0,385.81144,298.16681Z"/><circle id="_Pfad_21" data-name="&lt;Pfad&gt;" cx="387.67707" cy="293.22217" r="0.28874"/><g class="cls-38"><path d="M385.30848,300.7311a1.00552,1.00552,0,0,1,1.0056,1.0056v5.37995a1.40954,1.40954,0,0,0,1.40784,1.40784h2.77934v2.0112h-2.77934a3.42311,3.42311,0,0,1-3.419-3.419V301.7367A1.00552,1.00552,0,0,1,385.30848,300.7311Z"/></g><path class="cls-79" d="M385.81144,300.92849v5.37995a2.41344,2.41344,0,0,0,2.41344,2.41344h7.47269"/><line class="cls-80" x1="385.81144" y1="300.92849" x2="385.81144" y2="303.09033"/><line class="cls-81" x1="385.81144" y1="302.68371" x2="385.81144" y2="304.84554"/><line class="cls-82" x1="393.0328" y1="308.72188" x2="395.27605" y2="308.72188"/><line class="cls-79" x1="394.64186" y1="308.72188" x2="396.08058" y2="308.72188"/><path class="cls-30" d="M381.12167,315.65034h6.11771a3.26182,3.26182,0,0,1,3.26182,3.26182v2.306a0,0,0,0,1,0,0h-9.37954a0,0,0,0,1,0,0v-5.56777A0,0,0,0,1,381.12167,315.65034Z" transform="translate(771.62288 636.86846) rotate(-180)"/><path class="cls-30" d="M389.51758,315.65034h1.74889a4.16385,4.16385,0,0,1,4.16385,4.16385v1.40392a0,0,0,0,1,0,0h-5.91274a0,0,0,0,1,0,0v-5.56777A0,0,0,0,1,389.51758,315.65034Z"/></g></g><g id="mann-4" data-name="mann"><path class="cls-83" d="M230.68174,398.39814v-9.90679a2.28855,2.28855,0,0,1,2.28855-2.28855h12.05019"/><line class="cls-84" x1="230.68174" y1="396.14213" x2="230.68174" y2="400.24272"/><line class="cls-85" x1="230.68174" y1="394.21481" x2="230.68174" y2="398.3154"/><path class="cls-86" d="M229.68355,399.32989V389.4231a2.28855,2.28855,0,0,1,2.28855-2.28855H244.0223"/><line class="cls-84" x1="229.68355" y1="397.07388" x2="229.68355" y2="401.17447"/><line class="cls-85" x1="229.68355" y1="395.14656" x2="229.68355" y2="399.24715"/><path class="cls-86" d="M229.68355,399.32989V389.4231a2.28855,2.28855,0,0,1,2.28855-2.28855H244.0223"/><line class="cls-84" x1="229.68355" y1="397.07388" x2="229.68355" y2="401.17447"/><line class="cls-85" x1="229.68355" y1="395.14656" x2="229.68355" y2="399.24715"/><rect class="cls-37" x="242.35092" y="360.50993" width="2.41871" height="2.41871"/><path class="cls-45" d="M237.94289,368.00878a5.61738,5.61738,0,0,1,5.61738-5.61738h0a5.61738,5.61738,0,0,1,5.61738,5.61738v14.195H237.94289Z"/><path id="_Pfad_22" data-name="&lt;Pfad&gt;" class="cls-42" d="M240.04415,357.74591a3.51612,3.51612,0,0,0,7.03225,0V353.4228h-7.03225Z"/><path class="cls-38" d="M243.56027,361.262a3.502,3.502,0,0,1-1.20944-.218v.56626a3.4636,3.4636,0,0,0,2.41888,0V361.044A3.50229,3.50229,0,0,1,243.56027,361.262Z"/><circle id="_Pfad_23" data-name="&lt;Pfad&gt;" cx="241.32562" cy="355.33937" r="0.34585"/><path id="_Pfad_24" data-name="&lt;Pfad&gt;" d="M238.8994,351.1982H247.04a1.15035,1.15035,0,0,1,1.18115,1.11721v4.10252a1.15056,1.15056,0,0,1-1.18119,1.11721h-.00372a3.55679,3.55679,0,0,1-3.27337-2.06237,2.51778,2.51778,0,0,0-1.05471-1.18546,3.14872,3.14872,0,0,0-1.183-.31065,2.85818,2.85818,0,0,1-2.62572-2.77636Z"/><ellipse id="_Pfad_25" data-name="&lt;Pfad&gt;" class="cls-42" cx="244.15881" cy="356.31197" rx="1.03755" ry="0.87903" transform="translate(-157.59493 514.94891) rotate(-77.12668)"/><g class="cls-38"><path d="M244.16272,364.33354a1.20441,1.20441,0,0,0-1.2045,1.2045v6.44408a1.68835,1.68835,0,0,1-1.6863,1.6863h-3.32908v2.409h3.32908a4.10018,4.10018,0,0,0,4.0953-4.0953V365.538A1.20441,1.20441,0,0,0,244.16272,364.33354Z"/></g><path class="cls-87" d="M243.56027,364.57v6.44408a2.8908,2.8908,0,0,1-2.8908,2.8908h-8.95076"/><line class="cls-88" x1="243.56027" y1="364.56997" x2="243.56027" y2="367.15941"/><line class="cls-89" x1="243.56027" y1="366.67236" x2="243.56027" y2="369.2618"/><line class="cls-90" x1="234.91055" y1="373.90485" x2="232.2236" y2="373.90485"/><line class="cls-87" x1="232.98323" y1="373.90485" x2="231.25993" y2="373.90485"/><path class="cls-30" d="M236.39974,381.19435h13.10368a0,0,0,0,1,0,0v3.01634a4.76211,4.76211,0,0,1-4.76211,4.76211h-3.57945a4.76211,4.76211,0,0,1-4.76211-4.76211v-3.01634A0,0,0,0,1,236.39974,381.19435Z"/></g><path d="M418.7531,426.47108H407.67693a6.63444,6.63444,0,0,1-6.70386-3.8548v2.618c-2.41968-1.03131-3.3717-4.12537-3.3717-4.12537v3.60974c-.07935,2.93536.39661,3.812.39661,3.812l.04944.01068A7.54378,7.54378,0,0,0,404.508,433.648a8.13385,8.13385,0,0,1,3.05579.80243,6.50266,6.50266,0,0,1,2.72437,3.06213,9.18752,9.18752,0,0,0,8.45532,5.32715h.00964a2.972,2.972,0,0,0,3.051-2.8858v-10.597A2.97141,2.97141,0,0,0,418.7531,426.47108Z"/><polygon points="243.037 353.978 243.037 357.429 243.72 356.429 243.72 354.948 243.037 353.978"/><path d="M389.694,289.76484c0-.80774-1.74023-1.46259-3.88684-1.46259a7.01457,7.01457,0,0,0-2.79436.68578,1.8725,1.8725,0,0,0-1.0926,1.70954h0v3.425a.96062.96062,0,0,0,.98621.93274h.00305a2.9693,2.9693,0,0,0,2.73279-1.7218,2.10178,2.10178,0,0,1,.88062-.98975,2.62851,2.62851,0,0,1,.98767-.25934,2.38614,2.38614,0,0,0,2.192-2.31787v-.00177Z"/><circle class="cls-63" cx="171.96252" cy="415.42788" r="1.93713"/></g><g id="kunde"><ellipse class="cls-4" cx="690.52512" cy="627.02711" rx="29.25813" ry="5.66679"/><line class="cls-91" x1="679.66461" y1="542.98817" x2="700.15691" y2="611.00861"/><line class="cls-92" x1="697.37664" y1="601.78002" x2="702.43013" y2="618.55417"/><line class="cls-93" x1="695.00144" y1="592.01631" x2="700.05493" y2="610.67013"/><line class="cls-91" x1="679.66461" y1="542.98817" x2="679.66461" y2="614.0284"/><line class="cls-92" x1="679.66461" y1="604.3901" x2="679.66461" y2="621.90895"/><line class="cls-93" x1="679.66461" y1="594.15592" x2="679.66461" y2="613.67489"/><g class="cls-38"><polygon points="686.87 591.882 693.258 613.088 695.714 621.207 687.384 549.421 686.87 541.924 686.87 542.988 686.87 591.882"/></g><rect class="cls-37" x="674.49792" y="456.94394" width="10.33339" height="10.33339"/><path class="cls-94" d="M655.66559,488.9811a23.999,23.999,0,0,1,23.999-23.999h0a23.999,23.999,0,0,1,23.999,23.999v60.64483h-47.998Z"/><path id="_Pfad_26" data-name="&lt;Pfad&gt;" class="cls-42" d="M664.64275,445.13528a15.02186,15.02186,0,0,0,30.04372,0v-18.4695H664.64275Z"/><path id="_Pfad_27" data-name="&lt;Pfad&gt;" class="cls-42" d="M664.64275,445.13528a15.02186,15.02186,0,0,0,30.04372,0v-18.4695H664.64275Z"/><path class="cls-95" d="M668.64,455.20111a10.03436,10.03436,0,0,0,7.1085-2.94571"/><path class="cls-38" d="M679.66461,460.15715a14.96138,14.96138,0,0,1-5.16707-.93145v2.41922a14.79748,14.79748,0,0,0,10.33414,0V459.2257A14.96274,14.96274,0,0,1,679.66461,460.15715Z"/><circle id="_Pfad_28" data-name="&lt;Pfad&gt;" cx="670.11757" cy="434.8539" r="1.47755"/><path id="_Pfad_29" data-name="&lt;Pfad&gt;" class="cls-63" d="M659.75209,417.16168h34.77883a4.91462,4.91462,0,0,1,5.04622,4.773v17.52711a4.91549,4.91549,0,0,1-5.04635,4.773h-.01589a15.1956,15.1956,0,0,1-13.98475-8.811,10.75667,10.75667,0,0,0-4.506-5.06463,13.45222,13.45222,0,0,0-5.05427-1.32719,12.21094,12.21094,0,0,1-11.21779-11.86137Z"/><ellipse id="_Pfad_30" data-name="&lt;Pfad&gt;" class="cls-42" cx="682.22174" cy="439.00911" rx="4.43271" ry="3.75545" transform="translate(102.25069 1006.27367) rotate(-77.12668)"/><g class="cls-38"><path d="M682.23842,473.27948a5.14557,5.14557,0,0,0-5.146,5.146v27.5309a7.21309,7.21309,0,0,1-7.20435,7.20435H655.66535v10.29192h14.22276a17.51713,17.51713,0,0,0,17.49627-17.49627v-27.5309A5.14557,5.14557,0,0,0,682.23842,473.27948Z"/></g><path class="cls-96" d="M679.66461,474.28957v27.5309a12.35031,12.35031,0,0,1-12.35031,12.35031H629.0742"/><line class="cls-97" x1="642.71061" y1="514.17078" x2="631.23119" y2="514.17078"/><line class="cls-98" x1="634.47655" y1="514.17078" x2="627.11416" y2="514.17078"/></g><g id="berater"><ellipse class="cls-4" cx="576.66173" cy="627.02711" rx="29.25813" ry="5.66679"/><line class="cls-99" x1="565.05473" y1="542.98817" x2="565.05473" y2="614.0284"/><line class="cls-92" x1="565.05473" y1="604.3901" x2="565.05473" y2="621.90895"/><line class="cls-93" x1="565.05473" y1="594.15592" x2="565.05473" y2="613.67489"/><line class="cls-99" x1="588.13457" y1="542.98817" x2="588.13457" y2="614.0284"/><line class="cls-92" x1="588.13457" y1="604.3901" x2="588.13457" y2="621.90895"/><line class="cls-93" x1="588.13457" y1="594.15592" x2="588.13457" y2="613.67489"/><rect class="cls-37" x="571.42835" y="456.94394" width="10.33339" height="10.33339"/><path class="cls-38" d="M576.59465,459.69142a14.96138,14.96138,0,0,1-5.16707-.93145v2.41922a14.79747,14.79747,0,0,0,10.33414,0V458.76A14.96274,14.96274,0,0,1,576.59465,459.69142Z"/><path class="cls-100" d="M547.67135,555.8792V487.88247c0-10.21956,13.91219-18.85312,30.38128-18.85312"/><line class="cls-98" x1="547.67135" y1="560.82698" x2="547.67135" y2="550.93143"/><line class="cls-97" x1="547.67135" y1="554.65144" x2="547.67135" y2="498.78638"/><path class="cls-100" d="M605.6521,555.8792V487.88247c0-10.21956-13.91219-18.85312-30.38128-18.85312"/><line class="cls-98" x1="605.6521" y1="560.82698" x2="605.6521" y2="550.93143"/><line class="cls-97" x1="605.6521" y1="554.65144" x2="605.6521" y2="498.78638"/><path class="cls-59" d="M600.59367,548.52266h-47.998V487.87783a23.999,23.999,0,0,1,23.999-23.999h0a23.999,23.999,0,0,1,23.999,23.999Z"/><path d="M559.284,425.4v16.9388a4.35788,4.35788,0,0,0,4.35773,4.35827h25.90585a4.35788,4.35788,0,0,0,4.35773-4.35827V425.4Z"/><path id="_Pfad_31" data-name="&lt;Pfad&gt;" class="cls-42" d="M591.61651,445.13528a15.02186,15.02186,0,0,1-30.04372,0v-18.4695h30.04372Z"/><path id="_Pfad_32" data-name="&lt;Pfad&gt;" class="cls-42" d="M591.61651,445.13528a15.02186,15.02186,0,0,1-30.04372,0v-18.4695h30.04372Z"/><path class="cls-95" d="M576.59455,455.20111a10.07715,10.07715,0,0,1-10.06575-10.06575"/><path class="cls-43" d="M559.28383,422.2558v5.49761c3.172,2.51707,9.72808,4.24781,17.31134,4.24781,7.43752,0,13.88907-1.66578,17.12641-4.10559V422.2558Z"/><ellipse class="cls-42" cx="591.61651" cy="442.26415" rx="3.15322" ry="4.51047"/><ellipse class="cls-42" cx="560.6357" cy="442.26415" rx="3.15322" ry="4.51047"/><circle id="_Pfad_33" data-name="&lt;Pfad&gt;" cx="584.90594" cy="434.8539" r="1.47755"/><circle id="_Pfad_34" data-name="&lt;Pfad&gt;" cx="569.53247" cy="434.8539" r="1.47755"/><path d="M593.9053,425.97093v-.94008a4.35748,4.35748,0,0,0-3.75333-4.31661l-13.557-1.8978-13.557,1.8978a4.35749,4.35749,0,0,0-3.75394,4.31661v.94008Z"/><path d="M576.3933,424.39763H559.284v4.13491s9.41918-2.47636,16.91-.06177v.06177c.03468-.0112.067-.02059.09994-.03058.03353.01.06526.01939.0994.03058v-.06177c7.49073-2.41459,17.512.65851,17.512.65851v-4.13551Z"/><rect class="cls-101" x="553.28508" y="420.04051" width="46.61914" height="5.25412"/><path class="cls-102" d="M576.59483,429.70655c10.68428,0,19.346-3.432,19.346-7.66712h-38.692C557.24885,426.2746,565.91019,429.70655,576.59483,429.70655Z"/><path class="cls-3" d="M576.59483,400.47253a22.35578,22.35578,0,0,0-22.35587,22.3548h44.71138A22.35548,22.35548,0,0,0,576.59483,400.47253Z"/><rect class="cls-30" x="553.28508" y="419.9619" width="46.61914" height="2.86542"/><g class="cls-103"><path class="cls-104" d="M559.02049,417.6985a1.12066,1.12066,0,0,1-.34837-.055,1.146,1.146,0,0,1-.7447-1.4393,19.08329,19.08329,0,0,1,11.792-12.14867,1.1462,1.1462,0,0,1,.76074,2.16248,16.78134,16.78134,0,0,0-10.368,10.68079A1.14663,1.14663,0,0,1,559.02049,417.6985Z"/></g><path class="cls-32" d="M587.04834,409.66831H568.08807a.86553.86553,0,0,0-.86348.88476v5.83926a.88.88,0,0,0,.86348.90146H582.6529v1.57527l1.17071-1.57527h3.22474a.93256.93256,0,0,0,.92467-.90146v-5.83926A.91827.91827,0,0,0,587.04834,409.66831Z"/><path class="cls-105" d="M569.96731,410.91341l-1.51566,3.63018h.68752l.2969-.72395h1.61458l.2969.72395h.68746l-1.5156-3.63018Zm-.32811,2.36978.60417-1.47917.60416,1.47917Z"/><path class="cls-105" d="M573.7906,410.91341h-1.38539v3.63018h.651v-1.27083h.73437a1.17968,1.17968,0,1,0,0-2.35935Zm-.03122,1.77083h-.70316v-1.18229h.70316a.59163.59163,0,0,1,0,1.18229Z"/><path class="cls-105" d="M576.0358,413.27276h.73437a1.17968,1.17968,0,1,0,0-2.35935h-1.38539v3.63018h.651Zm0-1.77082h.70316a.59163.59163,0,0,1,0,1.18229h-.70316Z"/><path class="cls-105" d="M581.27684,410.91341h-.651v2.17187c0,.64581-.32812.92707-.81772.92707-.49481,0-.82294-.28126-.82294-.92707v-2.17187h-.651V413.153a1.47154,1.47154,0,0,0,2.9427,0Z"/><rect class="cls-105" x="581.85481" y="411.91862" width="0.62495" height="2.62497"/><circle class="cls-105" cx="582.166" cy="411.24153" r="0.3724"/><path class="cls-105" d="M584.83546,414.61651a1.88309,1.88309,0,1,0-1.91663-1.88021A1.879,1.879,0,0,0,584.83546,414.61651Zm0-3.17707a1.2944,1.2944,0,1,1-1.276,1.29686A1.2697,1.2697,0,0,1,584.83546,411.43944Z"/><path class="cls-105" d="M568.5092,415.777a.23291.23291,0,0,0,.21734.1317c.12049,0,.1466-.07083.1466-.11309,0-.07819-.07083-.10806-.17638-.14781-.13911-.05213-.24843-.10928-.24843-.262a.24482.24482,0,0,1,.2683-.23353.29959.29959,0,0,1,.267.14036l-.11053.07577a.16858.16858,0,0,0-.154-.077c-.06832,0-.118.03845-.118.09187,0,.07949.06953.09317.19626.1453.15772.06338.231.13049.231.26332,0,.1466-.09936.25587-.303.25587a.34167.34167,0,0,1-.3329-.19751Z"/><path class="cls-105" d="M569.088,415.16714h.15153l.17513.58128.17885-.58128h.11672l.17885.58128.17638-.58128h.15028l-.25834.86573h-.123l-.18258-.58128-.18383.58128h-.1217Z"/><path class="cls-105" d="M570.34279,415.16714h.15526v.86573h-.15526Z"/><path class="cls-105" d="M570.75318,415.777a.23291.23291,0,0,0,.21734.1317c.12049,0,.1466-.07083.1466-.11309,0-.07819-.07083-.10806-.17638-.14781-.13911-.05213-.24843-.10928-.24843-.262a.24482.24482,0,0,1,.2683-.23353.29959.29959,0,0,1,.267.14036l-.11053.07577a.16858.16858,0,0,0-.154-.077c-.06832,0-.118.03845-.118.09187,0,.07949.06953.09317.19626.1453.15772.06338.231.13049.231.26332,0,.1466-.09936.25587-.303.25587a.34167.34167,0,0,1-.3329-.19751Z"/><path class="cls-105" d="M571.48543,415.777a.23291.23291,0,0,0,.21734.1317c.12049,0,.14655-.07083.14655-.11309,0-.07819-.07079-.10806-.17634-.14781-.13911-.05213-.24843-.10928-.24843-.262a.24482.24482,0,0,1,.2683-.23353.29954.29954,0,0,1,.267.14036l-.11058.07577a.1685.1685,0,0,0-.154-.077c-.06832,0-.118.03845-.118.09187,0,.07949.06953.09317.19626.1453.15772.06338.231.13049.231.26332,0,.1466-.09936.25587-.303.25587a.34167.34167,0,0,1-.3329-.19751Z"/><path class="cls-105" d="M573.09445,415.15225a.453.453,0,0,1,.34281.15526l-.1056.09066a.31249.31249,0,0,0-.23721-.10555.3074.3074,0,0,0,0,.61479.31155.31155,0,0,0,.23973-.10806l.1043.09066a.45247.45247,0,1,1-.344-.73775Z"/><path class="cls-105" d="M573.96638,415.15225a.44909.44909,0,1,1-.45711.44966A.44912.44912,0,0,1,573.96638,415.15225Zm0,.75767a.30868.30868,0,1,0-.30432-.308A.301.301,0,0,0,573.96638,415.90991Z"/><path class="cls-105" d="M574.58545,415.16714h.13664l.45828.6012v-.6012h.15028v.86573H575.204l-.46824-.61228v.61228h-.15028Z"/><path class="cls-105" d="M575.68887,415.30751h-.23475v-.14036h.62475v.14036h-.23475v.72537h-.15526Z"/><path class="cls-105" d="M576.41151,415.16714h.13166l.36143.86573h-.164l-.07079-.17266h-.385l-.07079.17266h-.164Zm.20989.56517-.14409-.35277-.144.35277Z"/><path class="cls-105" d="M577.033,415.16714h.15526v.86573H577.033Z"/><path class="cls-105" d="M577.40059,415.16714h.13664l.45832.6012v-.6012h.15032v.86573h-.12677l-.46824-.61228v.61228h-.15028Z"/><path class="cls-105" d="M578.35689,415.16714h.55149v.14036h-.39624v.20617h.37139v.14036h-.37139v.23847h.405v.14036h-.56024Z"/><path class="cls-105" d="M579.09473,415.16714h.33666a.27517.27517,0,0,1,.28064.27449.26056.26056,0,0,1-.15768.24592l.20989.34532h-.17517l-.185-.308h-.154v.308h-.15526Zm.32047.41858a.13595.13595,0,0,0,.14287-.14158.1297.1297,0,0,0-.1304-.13664H579.25v.27821Z"/><path class="cls-105" d="M580.42172,415.16714h.33043a.28133.28133,0,1,1,0,.56266H580.577v.30307h-.15526Zm.323.4223a.14109.14109,0,0,0,0-.28194H580.577v.28194Z"/><path class="cls-105" d="M581.17056,415.16714h.15526v.72537h.34411v.14036h-.49937Z"/><path class="cls-105" d="M582.12833,415.16714h.13162l.36143.86573h-.16392l-.07083-.17266h-.385l-.07083.17266h-.16392Zm.20989.56517-.14409-.35277-.14409.35277Z"/><path class="cls-105" d="M582.8285,415.30751h-.23475v-.14036h.62475v.14036h-.23475v.72537h-.15526Z"/><path class="cls-105" d="M583.34138,415.16714h.52422v.14036h-.369v.21734h.33666v.14036h-.33666v.36766h-.15526Z"/><path class="cls-105" d="M584.42072,415.15225a.44908.44908,0,1,1-.457.44966A.4491.4491,0,0,1,584.42072,415.15225Zm0,.75767a.30868.30868,0,1,0-.30428-.308A.30095.30095,0,0,0,584.42072,415.90991Z"/><path class="cls-105" d="M585.03984,415.16714h.33666a.27517.27517,0,0,1,.28064.27449.26056.26056,0,0,1-.15768.24592l.20989.34532h-.17517l-.185-.308h-.154v.308h-.15526Zm.32047.41858a.13595.13595,0,0,0,.14287-.14158.1297.1297,0,0,0-.1304-.13664h-.17768v.27821Z"/><path class="cls-105" d="M585.84306,415.16714h.13292l.31051.48568.3093-.48568h.13162v.86573h-.14651v-.58622l-.29441.457-.29683-.45581v.585h-.1466Z"/></g><g id="ad_ons" data-name="ad ons"><rect class="cls-106" x="730.73844" y="238.00428" width="120.35218" height="96.35073"/><rect class="cls-5" x="730.73844" y="178.20823" width="120.35218" height="59.79604"/><rect class="cls-6" x="734.28146" y="181.75127" width="113.26602" height="52.70985"/><path class="cls-7" d="M846.13023,183.16853v49.87534H735.69871V183.16853H846.13023m1.41725-1.41725h-113.266v52.70985h113.266V181.75127Z"/><path class="cls-8" d="M791.24489,185.90574a1.88216,1.88216,0,0,0-1.88306,1.88308V229.0514a1.88306,1.88306,0,1,0,3.76613,0V187.78882a1.88208,1.88208,0,0,0-1.88306-1.88307Z"/><path class="cls-8" d="M781.86256,185.90574a1.88216,1.88216,0,0,0-1.88306,1.88308V229.0514a1.88306,1.88306,0,1,0,3.76613,0V187.78882a1.88219,1.88219,0,0,0-1.88306-1.88307Z"/><path class="cls-8" d="M772.51322,185.90574a1.88216,1.88216,0,0,0-1.88306,1.88308V229.0514a1.88306,1.88306,0,1,0,3.76613,0V187.78882a1.926,1.926,0,0,0-1.88306-1.88307Z"/><path class="cls-8" d="M763.13089,185.90574a1.88216,1.88216,0,0,0-1.88306,1.88308V229.0514a1.88306,1.88306,0,1,0,3.76613,0V187.78882a1.90378,1.90378,0,0,0-1.88306-1.88307Z"/><path class="cls-8" d="M828.77437,185.90574a1.88216,1.88216,0,0,0-1.88306,1.88308V229.0514a1.88306,1.88306,0,1,0,3.76613,0V187.78882a1.926,1.926,0,0,0-1.88306-1.88307Z"/><path class="cls-8" d="M838.12371,185.90574a1.88216,1.88216,0,0,0-1.88306,1.88308V229.0514a1.88306,1.88306,0,1,0,3.76613,0V187.78882a1.88219,1.88219,0,0,0-1.88306-1.88307Z"/><path class="cls-8" d="M753.74848,185.90574a1.88216,1.88216,0,0,0-1.88306,1.88308V229.0514a1.88306,1.88306,0,1,0,3.76613,0V187.78882a1.90368,1.90368,0,0,0-1.88306-1.88307Z"/><path class="cls-8" d="M744.36615,185.90574a1.88216,1.88216,0,0,0-1.88306,1.88308V229.0514a1.88306,1.88306,0,1,0,3.76613,0V187.78882a1.88219,1.88219,0,0,0-1.88306-1.88307Z"/><path class="cls-8" d="M819.392,185.90574a1.88216,1.88216,0,0,0-1.88306,1.88308V229.0514a1.88306,1.88306,0,1,0,3.76613,0V187.78882a1.90378,1.90378,0,0,0-1.88306-1.88307Z"/><path class="cls-8" d="M810.00963,185.90574a1.88216,1.88216,0,0,0-1.88306,1.88308V229.0514a1.88306,1.88306,0,1,0,3.76613,0V187.78882a1.90373,1.90373,0,0,0-1.88306-1.88307Z"/><path class="cls-8" d="M800.6273,185.90574a1.88216,1.88216,0,0,0-1.88306,1.88308V229.0514a1.88219,1.88219,0,0,0,1.88306,1.88308,1.86152,1.86152,0,0,0,1.88306-1.88308V187.78882a1.90378,1.90378,0,0,0-1.88306-1.88307Z"/><path class="cls-9" d="M790.91452,185.57538a1.88216,1.88216,0,0,0-1.88306,1.88308V228.721a1.88306,1.88306,0,1,0,3.76613,0V187.45845a1.88208,1.88208,0,0,0-1.88306-1.88307Z"/><path class="cls-9" d="M781.53219,185.57538a1.88216,1.88216,0,0,0-1.88306,1.88308V228.721a1.88306,1.88306,0,1,0,3.76613,0V187.45845a1.88219,1.88219,0,0,0-1.88306-1.88307Z"/><path class="cls-9" d="M772.18285,185.57538a1.88216,1.88216,0,0,0-1.88306,1.88308V228.721a1.88306,1.88306,0,1,0,3.76613,0V187.45845a1.926,1.926,0,0,0-1.88306-1.88307Z"/><path class="cls-9" d="M762.80052,185.57538a1.88216,1.88216,0,0,0-1.88306,1.88308V228.721a1.88306,1.88306,0,1,0,3.76613,0V187.45845a1.90378,1.90378,0,0,0-1.88306-1.88307Z"/><path class="cls-9" d="M828.444,185.57538a1.88216,1.88216,0,0,0-1.88306,1.88308V228.721a1.88306,1.88306,0,1,0,3.76613,0V187.45845a1.926,1.926,0,0,0-1.88306-1.88307Z"/><path class="cls-9" d="M837.79335,185.57538a1.88216,1.88216,0,0,0-1.88306,1.88308V228.721a1.88306,1.88306,0,1,0,3.76613,0V187.45845a1.88219,1.88219,0,0,0-1.88306-1.88307Z"/><path class="cls-9" d="M753.41811,185.57538a1.88216,1.88216,0,0,0-1.88306,1.88308V228.721a1.88306,1.88306,0,1,0,3.76613,0V187.45845a1.90368,1.90368,0,0,0-1.88306-1.88307Z"/><path class="cls-9" d="M744.03578,185.57538a1.88216,1.88216,0,0,0-1.88306,1.88308V228.721a1.88306,1.88306,0,1,0,3.76613,0V187.45845a1.88219,1.88219,0,0,0-1.88306-1.88307Z"/><path class="cls-9" d="M819.06167,185.57538a1.88216,1.88216,0,0,0-1.88306,1.88308V228.721a1.88306,1.88306,0,1,0,3.76613,0V187.45845a1.90378,1.90378,0,0,0-1.88306-1.88307Z"/><path class="cls-9" d="M809.67926,185.57538a1.88216,1.88216,0,0,0-1.88306,1.88308V228.721a1.88306,1.88306,0,1,0,3.76613,0V187.45845a1.90373,1.90373,0,0,0-1.88306-1.88307Z"/><path class="cls-9" d="M800.29693,185.57538a1.88216,1.88216,0,0,0-1.88306,1.88308V228.721a1.88219,1.88219,0,0,0,1.88306,1.88308A1.86152,1.86152,0,0,0,802.18,228.721V187.45845a1.90378,1.90378,0,0,0-1.88306-1.88307Z"/><path class="cls-107" d="M740.88463,173.24511a1.61626,1.61626,0,1,1,1.61673,1.617v.80086"/><circle class="cls-45" cx="756.28772" cy="98.27878" r="15.40302"/><circle class="cls-108" cx="750.78642" cy="90.5091" r="4.81349"/><polygon class="cls-45" points="759.657 117.175 752.23 117.175 754.706 112.595 757.181 112.595 759.657 117.175"/><path d="M758.83225,114.04749a.55493.55493,0,0,1-.55453.554h-4.56423a.555.555,0,0,1-.555-.554h0a.5546.5546,0,0,1,.555-.555h4.56423a.55449.55449,0,0,1,.55453.555Z"/><line class="cls-107" x1="755.94339" y1="114.60151" x2="742.50136" y2="171.62876"/><circle class="cls-3" cx="724.57694" cy="91.50117" r="15.40302"/><circle class="cls-108" cx="719.07564" cy="83.73149" r="4.81349"/><polygon class="cls-3" points="727.946 110.397 720.519 110.397 722.995 105.818 725.47 105.818 727.946 110.397"/><path d="M727.12148,107.26988a.55493.55493,0,0,1-.55453.554h-4.56423a.555.555,0,0,1-.555-.554h0a.5546.5546,0,0,1,.555-.555h4.56423a.55449.55449,0,0,1,.55453.555Z"/><line class="cls-107" x1="724.23261" y1="107.8239" x2="742.50089" y2="172.87538"/><circle class="cls-28" cx="742.32196" cy="129.43831" r="16.94333"/><circle class="cls-108" cx="736.27053" cy="120.89165" r="5.29484"/><polygon class="cls-28" points="746.028 150.224 737.858 150.224 740.582 145.186 743.305 145.186 746.028 150.224"/><path d="M745.12095,146.78388a.61043.61043,0,0,1-.61.60942H739.4903a.61055.61055,0,0,1-.61055-.60942h0a.61006.61006,0,0,1,.61055-.61055H744.511a.60994.60994,0,0,1,.61.61055Z"/><line class="cls-107" x1="741.9432" y1="147.39331" x2="741.9432" y2="171.62876"/><path class="cls-107" d="M831.655,173.24511a1.61626,1.61626,0,1,1,1.61673,1.617v.80086"/><circle class="cls-28" cx="833.03291" cy="99.36933" r="15.40302"/><circle class="cls-108" cx="827.53161" cy="91.59965" r="4.81349"/><polygon class="cls-28" points="836.402 118.265 828.975 118.265 831.451 113.686 833.926 113.686 836.402 118.265"/><path d="M835.57745,115.138a.55493.55493,0,0,1-.55453.554h-4.56423a.555.555,0,0,1-.555-.554h0a.5546.5546,0,0,1,.555-.555h4.56423a.55449.55449,0,0,1,.55453.555Z"/><line class="cls-107" x1="832.68858" y1="115.69206" x2="832.68858" y2="173.64587"/><circle class="cls-59" cx="842.60123" cy="125.23695" r="15.40302"/><circle class="cls-108" cx="837.09993" cy="117.46727" r="4.81349"/><polygon class="cls-59" points="845.97 144.133 838.544 144.133 841.02 139.553 843.495 139.553 845.97 144.133"/><path d="M845.14576,141.00566a.55493.55493,0,0,1-.55453.554H840.027a.555.555,0,0,1-.555-.554h0a.5546.5546,0,0,1,.555-.555h4.56423a.55449.55449,0,0,1,.55453.555Z"/><line class="cls-107" x1="842.2569" y1="141.55968" x2="831.65504" y2="174.94549"/><circle class="cls-109" cx="817.21588" cy="117.6104" r="15.40302"/><circle class="cls-108" cx="811.71458" cy="109.84072" r="4.81349"/><polygon class="cls-109" points="820.585 136.507 813.158 136.507 815.634 131.927 818.109 131.927 820.585 136.507"/><path d="M819.76041,133.37911a.55493.55493,0,0,1-.55453.554h-4.56423a.555.555,0,0,1-.555-.554h0a.5546.5546,0,0,1,.555-.555h4.56423a.55449.55449,0,0,1,.55453.555Z"/><line class="cls-107" x1="816.87155" y1="133.93313" x2="833.61411" y2="172.87538"/></g><g id="openshift"><rect class="cls-110" x="121.25143" y="314.61576" width="51.33027" height="51.33027"/><rect class="cls-111" x="121.25143" y="314.61576" width="11.26671" height="51.33027"/><polygon class="cls-4" points="159.603 535.295 119.799 535.295 119.799 523.336 159.603 535.295"/><rect class="cls-112" x="114.95143" y="308.78407" width="5.4" height="226.51072"/><rect class="cls-113" x="117.65143" y="308.78407" width="2.7" height="226.51072"/><rect class="cls-114" x="114.05143" y="311.24089" width="7.2" height="58.08"/><rect class="cls-94" x="117.65143" y="311.24089" width="3.6" height="58.08"/><path class="cls-115" d="M139.95005,334.80675l-5.215,1.89779a15.15755,15.15755,0,0,0,.41313,2.47128l4.95411-1.8038a9.69061,9.69061,0,0,1-.1522-2.56527"/><path class="cls-115" d="M162.99766,329.04a14.88777,14.88777,0,0,0-1.27177-2.15849l-5.21412,1.89757a9.72157,9.72157,0,0,1,1.53223,2.06427Z"/><path class="cls-115" d="M151.52482,327.563a9.64418,9.64418,0,0,1,2.81691,2.00651l5.21435-1.898a14.905,14.905,0,0,0-26.99132,9.82306l5.2148-1.89757a9.66264,9.66264,0,0,1,13.74526-8.034"/><path class="cls-115" d="M135.47294,339.05714l-4.95456,1.80448a15.1,15.1,0,0,0,2.32995,5.05014l5.20325-1.89372a9.741,9.741,0,0,1-2.57864-4.96091"/><path class="cls-115" d="M157.0857,337.09117a9.56351,9.56351,0,0,1-.87495,3.348,9.70045,9.70045,0,0,1-12.87711,4.68662,9.58908,9.58908,0,0,1-2.8228-2.00312l-5.20348,1.89417a14.89772,14.89772,0,0,0,26.98181-9.81943Z"/><path class="cls-115" d="M158.36789,330.7251l-4.95411,1.80335a9.73116,9.73116,0,0,1,1.21265,5.45647l5.20325-1.89281a15.02721,15.02721,0,0,0-1.46179-5.367"/><path class="cls-116" d="M130.6015,356.89719c-.64845,0-1.07834.523-1.07834,1.462,0,.9395.44959,1.47539,1.09827,1.47539.64823,0,1.07811-.52252,1.07811-1.462s-.44982-1.47539-1.098-1.47539m.00657,3.85674c-1.21084,0-2.03754-.886-2.03754-2.38136s.84007-2.395,2.05091-2.395c1.20382,0,2.031.887,2.031,2.38182-.00023,1.49509-.84029,2.3945-2.04434,2.3945"/><path class="cls-116" d="M135.65391,356.95041h-1.0652v1.19045H135.667c.42989,0,.66182-.19864.66182-.60157,0-.40361-.265-.58888-.675-.58888m-.04643,2.09054h-1.01877v1.64027h-.92614v-4.63068H135.687a1.43651,1.43651,0,0,1,1.59429,1.46859c0,1.072-.71436,1.52182-1.67379,1.52182"/><polygon class="cls-116" points="138.239 360.681 138.239 356.051 141.454 356.051 141.454 356.957 139.165 356.957 139.165 357.757 140.495 357.757 140.495 358.657 139.165 358.657 139.165 359.775 141.553 359.775 141.553 360.681 138.239 360.681"/><path class="cls-116" d="M145.54061,360.68123l-1.70029-2.52722c-.11234-.17168-.26455-.40339-.32389-.52252,0,.17213.01314.75423.01314,1.0122v2.03754h-.913V356.051h.8865l1.64073,2.44727c.11212.17213.26455.40384.32411.52252,0-.17213-.01336-.75377-.01336-1.0122V356.051h.913v4.63022h-.82693Z"/><path class="cls-116" d="M149.18558,360.75393a2.20524,2.20524,0,0,1-1.55466-.64143l.34427-.38391a1.75738,1.75738,0,0,0,1.23032.556c.61539,0,.99907-.30441.99907-.79409,0-.42989-.2582-.67473-1.10484-.97891-.99884-.35741-1.33632-.68129-1.33632-1.34968,0-.74064.58232-1.18434,1.44866-1.18434a2.07306,2.07306,0,0,1,1.40925.49625l-.33091.40339a1.61065,1.61065,0,0,0-1.11118-.42989c-.63509,0-.89986.31754-.89986.68129,0,.38391.17214.602,1.09827.93338,1.02534.37032,1.34311.71391,1.34311,1.40222-.00023.72773-.56941,1.28966-1.53518,1.28966"/><polygon class="cls-116" points="154.688 360.681 154.688 358.498 152.386 358.498 152.386 360.681 151.87 360.681 151.87 356.051 152.386 356.051 152.386 358.029 154.688 358.029 154.688 356.051 155.204 356.051 155.204 360.681 154.688 360.681"/><rect class="cls-116" x="156.53192" y="356.05101" width="0.51573" height="4.63022"/><polygon class="cls-116" points="158.892 356.52 158.892 358.055 160.162 358.055 160.162 358.525 158.892 358.525 158.892 360.681 158.376 360.681 158.376 356.051 161.095 356.051 161.095 356.52 158.892 356.52"/><polygon class="cls-116" points="162.021 356.051 162.021 356.52 163.384 356.52 163.384 360.681 163.9 360.681 163.9 356.52 165.263 356.52 165.263 356.051 162.021 356.051"/></g></g></svg>