<?xml version="1.0" encoding="UTF-8" standalone="no"?>
<svg width="270px" height="192px" viewBox="0 0 270 192" version="1.1" xmlns="http://www.w3.org/2000/svg" xmlns:xlink="http://www.w3.org/1999/xlink">
    <!-- Generator: sketchtool 39.1 (31720) - http://www.bohemiancoding.com/sketch -->
    <title>39B5B508-24C7-4B3D-AD0B-A1C5CED9DA35</title>
    <desc>Created with sketchtool.</desc>
    <defs>
        <linearGradient x1="-14.5019123%" y1="0%" x2="-14.5019129%" y2="39.8060967%" id="linearGradient-1">
            <stop stop-color="#050505" stop-opacity="0.5" offset="0%"></stop>
            <stop stop-color="#020202" stop-opacity="0" offset="100%"></stop>
        </linearGradient>
    </defs>
    <g id="Page-1" stroke="none" stroke-width="1" fill="none" fill-rule="evenodd">
        <g id="Angebot-1" transform="translate(-53.000000, -156.000000)">
            <g id="icon-angebot-1" transform="translate(55.000000, 158.000000)">
                <polygon id="shadow" fill="url(#linearGradient-1)" points="70.0657476 148.977211 291.764705 370.720249 291.994283 213.887203 148.581471 70.447377"></polygon>
                <path d="M122.156727,52.7187698 C114.777216,60.0997488 103.491875,60.0997488 96.1138634,52.7187698 C88.7343517,45.3377909 88.7343517,34.0502059 96.1138634,26.6707278 L100.45334,22.3288871 L78.7514539,0.621184871 L52.7085899,26.6707278 L48.3676124,22.3288871 C40.9881007,14.9479082 29.7027596,14.9479082 22.3247485,22.3288871 C14.9452368,29.7098661 14.9452368,40.9974511 22.3247485,48.3769292 L26.6642254,52.7187698 L0.621361487,78.7668119 L22.3247485,100.474514 L17.983771,104.816355 C10.6042593,112.195833 10.6042593,123.483418 17.983771,130.864397 C25.3632827,138.243875 36.6486237,138.243875 44.0266349,130.864397 L48.3676124,126.522556 L70.0694989,148.230258 L96.1138634,122.180716 L100.45334,126.522556 C107.832852,133.903535 119.118193,133.903535 126.497705,126.522556 C133.875716,119.141577 133.875716,107.853992 126.497705,100.474514 L122.156727,96.1326735 L148.199591,70.0846315 L126.497705,48.3769292 L122.156727,52.7187698 Z" id="Fill-2" fill="#002F47"></path>
                <path d="M122.156727,52.7187698 C114.777216,60.0997488 103.491875,60.0997488 96.1138634,52.7187698 C88.7343517,45.3377909 88.7343517,34.0502059 96.1138634,26.6707278 L100.45334,22.3288871 L78.7514539,0.621184871 L52.7085899,26.6707278 L48.3676124,22.3288871 C40.9881007,14.9479082 29.7027596,14.9479082 22.3247485,22.3288871 C14.9452368,29.7098661 14.9452368,40.9974511 22.3247485,48.3769292 L26.6642254,52.7187698 L0.621361487,78.7668119 L22.3247485,100.474514 L17.983771,104.816355 C10.6042593,112.195833 10.6042593,123.483418 17.983771,130.864397 C25.3632827,138.243875 36.6486237,138.243875 44.0266349,130.864397 L48.3676124,126.522556 L70.0694989,148.230258 L96.1138634,122.180716 L100.45334,126.522556 C107.832852,133.903535 119.118193,133.903535 126.497705,126.522556 C133.875716,119.141577 133.875716,107.853992 126.497705,100.474514 L122.156727,96.1326735 L148.199591,70.0846315 L126.497705,48.3769292 L122.156727,52.7187698 L122.156727,52.7187698 Z" id="Stroke-4" stroke="#BDCCD4" stroke-width="3"></path>
            </g>
        </g>
    </g>
</svg>