<?xml version="1.0" encoding="UTF-8" standalone="no"?>
<svg width="200px" height="296px" viewBox="0 0 200 296" version="1.1" xmlns="http://www.w3.org/2000/svg" xmlns:xlink="http://www.w3.org/1999/xlink">
    <!-- Generator: sketchtool 39.1 (31720) - http://www.bohemiancoding.com/sketch -->
    <title>1CF008C4-19F0-4CA5-83E6-6B498B504F98</title>
    <desc>Created with sketchtool.</desc>
    <defs>
        <linearGradient x1="50%" y1="0%" x2="50%" y2="100%" id="linearGradient-1">
            <stop stop-color="#050505" stop-opacity="0.5" offset="0%"></stop>
            <stop stop-color="#020202" stop-opacity="0.1" offset="100%"></stop>
        </linearGradient>
    </defs>
    <g id="Page-1" stroke="none" stroke-width="1" fill="none" fill-rule="evenodd">
        <g id="Angebot-1" transform="translate(-585.000000, -1963.000000)">
            <g id="Features" transform="translate(0.000000, 1672.000000)">
                <g id="Angebot-1-Medium" transform="translate(495.000000, 222.000000)">
                    <g id="icon-medium-1" transform="translate(82.000000, 37.000000)">
                        <path d="M114.957,33 L114.928,129.31 L95.696,129.325 L95.688,70.437 C95.689,69.384 95.709,68.26 95.758,67.082 L71.057,113.696 C69.404,116.851 66.812,118.226 63.349,118.226 L60.619,118.226 C58.921,118.226 57.39,118.044 56.069,117.236 C54.74,116.423 53.674,115.34 52.902,113.792 L28.044,66.759 C28.118,68.059 28.156,69.307 28.155,70.416 L28.187,129.293 L9,129.268 L207.095,327.367 L207.088,125.13 L114.957,33 Z" id="shadow" fill="url(#linearGradient-1)"></path>
                        <text id="M" stroke="#7092A6" font-family="Lato-Heavy, Lato" font-size="129.9547" font-weight="600" fill="#002F47">
                            <tspan x="0" y="128">M</tspan>
                        </text>
                    </g>
                </g>
            </g>
        </g>
    </g>
</svg>