<?xml version="1.0" encoding="UTF-8" standalone="no"?>
<svg width="181px" height="264px" viewBox="0 0 181 264" version="1.1" xmlns="http://www.w3.org/2000/svg" xmlns:xlink="http://www.w3.org/1999/xlink">
    <!-- Generator: sketchtool 39.1 (31720) - http://www.bohemiancoding.com/sketch -->
    <title>11505F6F-81A2-46B7-83B8-772F284BF226</title>
    <desc>Created with sketchtool.</desc>
    <defs>
        <linearGradient x1="50%" y1="0%" x2="50%" y2="100%" id="linearGradient-1">
            <stop stop-color="#050505" stop-opacity="0.5" offset="0%"></stop>
            <stop stop-color="#020202" stop-opacity="0.1" offset="100%"></stop>
        </linearGradient>
    </defs>
    <g id="Page-1" stroke="none" stroke-width="1" fill="none" fill-rule="evenodd">
        <g id="Angebot-1" transform="translate(-254.000000, -1962.000000)">
            <g id="Features" transform="translate(0.000000, 1672.000000)">
                <g id="Angebot-1-Small" transform="translate(145.000000, 222.000000)">
                    <g id="icon-small-1" transform="translate(109.000000, 37.000000)">
                        <path d="M66.0852,44.188 L61.7922,52.407 C61.0782,53.581 60.4092,54.367 59.6642,54.906 C58.8622,55.487 57.8562,55.769 56.6502,55.769 C55.5162,55.77 54.3072,55.377 53.0492,54.612 C51.9612,53.951 50.6802,53.225 49.2362,52.462 C47.8242,51.713 46.1652,50.999 44.3062,50.342 C42.5132,49.712 40.3742,49.392 37.9452,49.391 C33.7132,49.392 30.5282,50.322 28.4782,52.158 C26.4252,54.001 25.4322,56.328 25.4312,59.307 C25.4312,61.146 25.9532,62.617 27.0252,63.803 C28.1692,65.067 29.7092,66.182 31.5992,67.116 C33.5542,68.085 35.8092,68.961 38.3042,69.722 C40.8222,70.49 43.4792,71.357 46.2012,72.3 C48.9182,73.242 51.6022,74.363 54.1782,75.628 C56.8162,76.927 59.2052,78.581 61.2792,80.543 C63.3772,82.529 65.0922,84.986 66.3772,87.844 C67.6642,90.714 68.3162,94.229 68.3162,98.294 C68.3172,102.689 67.6142,106.944 66.0782,110.793 C64.5562,114.61 62.4092,118.073 59.5472,120.935 C59.5182,120.963 59.4912,120.991 59.4632,121.018 C56.5752,123.906 52.8662,126.115 48.6182,127.761 C44.3802,129.403 39.4882,130.196 34.1502,130.195 C31.1112,130.197 28.0192,129.864 24.9972,129.246 C21.9872,128.632 18.9442,127.845 16.1532,126.746 C14.1272,125.949 12.3652,124.818 10.2022,124.07 L180.6192,294.486 L180.7182,158.821 L66.0852,44.188 Z" id="shadow" fill="url(#linearGradient-1)"></path>
                        <text id="S" stroke="#7092A6" font-family="Lato-Heavy, Lato" font-size="129.9547" font-weight="600" fill="#002F47">
                            <tspan x="0.0005" y="128.173557">S</tspan>
                        </text>
                    </g>
                </g>
            </g>
        </g>
    </g>
</svg>