<?xml version="1.0" encoding="UTF-8" standalone="no"?>
<svg width="296px" height="203px" viewBox="0 0 296 203" version="1.1" xmlns="http://www.w3.org/2000/svg" xmlns:xlink="http://www.w3.org/1999/xlink">
    <!-- Generator: sketchtool 39.1 (31720) - http://www.bohemiancoding.com/sketch -->
    <title>941C21ED-7103-45E5-B4B0-10003AEA032F</title>
    <desc>Created with sketchtool.</desc>
    <defs>
        <linearGradient x1="-14.5019123%" y1="0%" x2="-10.131987%" y2="51.4879808%" id="linearGradient-1">
            <stop stop-color="#050505" stop-opacity="0.5" offset="0%"></stop>
            <stop stop-color="#020202" stop-opacity="0" offset="100%"></stop>
        </linearGradient>
    </defs>
    <g id="Page-1" stroke="none" stroke-width="1" fill="none" fill-rule="evenodd">
        <g id="Angebot-3" transform="translate(-310.000000, -148.000000)">
            <g id="icon-angebot-3" transform="translate(311.000000, 148.000000)">
                <polygon id="shadow" fill="url(#linearGradient-1)" points="55.0893821 53.9018491 1.83093231 115.494679 294.827766 408.742667 294.16305 183.804805 111.109753 0.595402516"></polygon>
                <g id="icon" transform="translate(0.000000, 1.032233)">
                    <path d="M41.4067926,16.8334528 L96.6155917,16.8334528 L41.4067926,16.8334528 Z M41.4067926,27.8841132 L96.6155917,27.8841132 L41.4067926,27.8841132 Z M115.938736,33.4100881 C115.938736,36.455434 113.470526,38.9360629 110.417469,38.9360629 L5.52113755,38.9360629 C2.46808079,38.9360629 -0.000128820961,36.455434 -0.000128820961,33.4100881 L-0.000128820961,5.78279245 C-0.000128820961,2.72713208 2.46808079,0.25681761 5.52113755,0.25681761 L110.417469,0.25681761 C113.470526,0.25681761 115.938736,2.72713208 115.938736,5.78279245 L115.938736,33.4100881 Z" id="Fill-2" fill="#002F47"></path>
                    <path d="M41.4067926,16.8334528 L96.6155917,16.8334528 L41.4067926,16.8334528 Z M41.4067926,27.8841132 L96.6155917,27.8841132 L41.4067926,27.8841132 Z M115.938736,33.4100881 C115.938736,36.455434 113.470526,38.9360629 110.417469,38.9360629 L5.52113755,38.9360629 C2.46808079,38.9360629 -0.000128820961,36.455434 -0.000128820961,33.4100881 L-0.000128820961,5.78279245 C-0.000128820961,2.72713208 2.46808079,0.25681761 5.52113755,0.25681761 L110.417469,0.25681761 C113.470526,0.25681761 115.938736,2.72713208 115.938736,5.78279245 L115.938736,33.4100881 L115.938736,33.4100881 Z" id="Stroke-4" stroke="#929031" stroke-width="2" stroke-linejoin="round"></path>
                    <path d="M19.3231441,14.0707233 C22.3723362,14.0707233 24.8444105,16.5449057 24.8444105,19.5966981 C24.8444105,22.6484906 22.3723362,25.1213836 19.3231441,25.1213836 C16.273952,25.1213836 13.8018777,22.6484906 13.8018777,19.5966981 C13.8018777,16.5449057 16.273952,14.0707233 19.3231441,14.0707233" id="Fill-6" fill="#002F47"></path>
                    <path d="M19.3231441,14.0707233 C22.3723362,14.0707233 24.8444105,16.5449057 24.8444105,19.5966981 C24.8444105,22.6484906 22.3723362,25.1213836 19.3231441,25.1213836 C16.273952,25.1213836 13.8018777,22.6484906 13.8018777,19.5966981 C13.8018777,16.5449057 16.273952,14.0707233 19.3231441,14.0707233 L19.3231441,14.0707233 Z" id="Stroke-8" stroke="#929031" stroke-width="2" stroke-linejoin="round"></path>
                    <path d="M41.4067926,55.5126981 L96.6155917,55.5126981 L41.4067926,55.5126981 Z M41.4067926,66.5633585 L96.6155917,66.5633585 L41.4067926,66.5633585 Z M115.938736,72.0893333 C115.938736,75.1346792 113.470526,77.6153082 110.417469,77.6153082 L5.52113755,77.6153082 C2.46808079,77.6153082 -0.000128820961,75.1346792 -0.000128820961,72.0893333 L-0.000128820961,44.4620377 C-0.000128820961,41.4063774 2.46808079,38.9360629 5.52113755,38.9360629 L110.417469,38.9360629 C113.470526,38.9360629 115.938736,41.4063774 115.938736,44.4620377 L115.938736,72.0893333 Z" id="Fill-10" fill="#002F47"></path>
                    <path d="M41.4067926,55.5126981 L96.6155917,55.5126981 L41.4067926,55.5126981 Z M41.4067926,66.5633585 L96.6155917,66.5633585 L41.4067926,66.5633585 Z M115.938736,72.0893333 C115.938736,75.1346792 113.470526,77.6153082 110.417469,77.6153082 L5.52113755,77.6153082 C2.46808079,77.6153082 -0.000128820961,75.1346792 -0.000128820961,72.0893333 L-0.000128820961,44.4620377 C-0.000128820961,41.4063774 2.46808079,38.9360629 5.52113755,38.9360629 L110.417469,38.9360629 C113.470526,38.9360629 115.938736,41.4063774 115.938736,44.4620377 L115.938736,72.0893333 L115.938736,72.0893333 Z" id="Stroke-12" stroke="#929031" stroke-width="2" stroke-linejoin="round"></path>
                    <path d="M19.3231441,52.7499686 C22.3723362,52.7499686 24.8444105,55.2241509 24.8444105,58.2759434 C24.8444105,61.3277358 22.3723362,63.8006289 19.3231441,63.8006289 C16.273952,63.8006289 13.8018777,61.3277358 13.8018777,58.2759434 C13.8018777,55.2241509 16.273952,52.7499686 19.3231441,52.7499686" id="Fill-14" fill="#002F47"></path>
                    <path d="M19.3231441,52.7499686 C22.3723362,52.7499686 24.8444105,55.2241509 24.8444105,58.2759434 C24.8444105,61.3277358 22.3723362,63.8006289 19.3231441,63.8006289 C16.273952,63.8006289 13.8018777,61.3277358 13.8018777,58.2759434 C13.8018777,55.2241509 16.273952,52.7499686 19.3231441,52.7499686 L19.3231441,52.7499686 Z" id="Stroke-16" stroke="#929031" stroke-width="2" stroke-linejoin="round"></path>
                    <path d="M41.4067926,94.1919434 L96.6155917,94.1919434 L41.4067926,94.1919434 Z M41.4067926,105.242604 L96.6155917,105.242604 L41.4067926,105.242604 Z M115.938736,110.768579 C115.938736,113.813925 113.470526,116.294553 110.417469,116.294553 L5.52113755,116.294553 C2.46808079,116.294553 -0.000128820961,113.813925 -0.000128820961,110.768579 L-0.000128820961,83.141283 C-0.000128820961,80.0856226 2.46808079,77.6153082 5.52113755,77.6153082 L110.417469,77.6153082 C113.470526,77.6153082 115.938736,80.0856226 115.938736,83.141283 L115.938736,110.768579 Z" id="Fill-18" fill="#002F47"></path>
                    <path d="M41.4067926,94.1919434 L96.6155917,94.1919434 L41.4067926,94.1919434 Z M41.4067926,105.242604 L96.6155917,105.242604 L41.4067926,105.242604 Z M115.938736,110.768579 C115.938736,113.813925 113.470526,116.294553 110.417469,116.294553 L5.52113755,116.294553 C2.46808079,116.294553 -0.000128820961,113.813925 -0.000128820961,110.768579 L-0.000128820961,83.141283 C-0.000128820961,80.0856226 2.46808079,77.6153082 5.52113755,77.6153082 L110.417469,77.6153082 C113.470526,77.6153082 115.938736,80.0856226 115.938736,83.141283 L115.938736,110.768579 L115.938736,110.768579 Z" id="Stroke-20" stroke="#929031" stroke-width="2" stroke-linejoin="round"></path>
                    <path d="M19.3231441,91.4290849 C22.3723362,91.4290849 24.8444105,93.9032673 24.8444105,96.9550597 C24.8444105,100.006852 22.3723362,102.479745 19.3231441,102.479745 C16.273952,102.479745 13.8018777,100.006852 13.8018777,96.9550597 C13.8018777,93.9032673 16.273952,91.4290849 19.3231441,91.4290849" id="Fill-22" fill="#002F47"></path>
                    <path d="M19.3231441,91.4290849 C22.3723362,91.4290849 24.8444105,93.9032673 24.8444105,96.9550597 C24.8444105,100.006852 22.3723362,102.479745 19.3231441,102.479745 C16.273952,102.479745 13.8018777,100.006852 13.8018777,96.9550597 C13.8018777,93.9032673 16.273952,91.4290849 19.3231441,91.4290849 L19.3231441,91.4290849 Z" id="Stroke-24" stroke="#929031" stroke-width="2" stroke-linejoin="round"></path>
                </g>
            </g>
        </g>
    </g>
</svg>