<?xml version="1.0" encoding="UTF-8" standalone="no"?>
<svg width="197px" height="246px" viewBox="0 0 197 246" version="1.1" xmlns="http://www.w3.org/2000/svg" xmlns:xlink="http://www.w3.org/1999/xlink">
    <!-- Generator: sketchtool 39.1 (31720) - http://www.bohemiancoding.com/sketch -->
    <title>3ABF0665-2448-441E-B5F8-3CB3152EB569</title>
    <desc>Created with sketchtool.</desc>
    <defs>
        <linearGradient x1="50%" y1="0%" x2="50%" y2="100%" id="linearGradient-1">
            <stop stop-color="#050505" stop-opacity="0.5" offset="0%"></stop>
            <stop stop-color="#020202" stop-opacity="0.1" offset="100%"></stop>
        </linearGradient>
    </defs>
    <g id="Page-1" stroke="none" stroke-width="1" fill="none" fill-rule="evenodd">
        <g id="Startseite" transform="translate(-588.000000, -1960.000000)">
            <g id="angebot" transform="translate(0.000000, 1449.000000)">
                <g id="Angebot-2" transform="translate(495.000000, 384.000000)">
                    <g id="icon-angebot-2" transform="translate(94.000000, 127.000000)">
                        <polygon id="shadow" fill="url(#linearGradient-1)" points="1.6847 51.3092 195.5107 245.1352 195.3627 130.4352 86.5747 21.6482"></polygon>
                        <g id="icon" transform="translate(0.000000, 0.135000)">
                            <path d="M94.5,37.8435 C94.5,26.3515 85.009,16.8975 73.217,17.3365 C68.607,7.6115 58.726,0.8655 47.25,0.8655 C31.941,0.8655 19.467,12.8215 18.575,27.8965 C8.99,25.8995 0,33.1965 0,42.9795 C0,58.6335 16.435,58.3865 16.435,58.3865 L76.011,58.3865 C76.011,58.3865 94.5,55.9795 94.5,37.8435" id="Fill-2" fill="#002F47"></path>
                            <path d="M94.5,37.8435 C94.5,26.3515 85.009,16.8975 73.217,17.3365 C68.607,7.6115 58.726,0.8655 47.25,0.8655 C31.941,0.8655 19.467,12.8215 18.575,27.8965 C8.99,25.8995 0,33.1965 0,42.9795 C0,58.6335 16.435,58.3865 16.435,58.3865 L76.011,58.3865 C76.011,58.3865 94.5,55.9795 94.5,37.8435 L94.5,37.8435 Z" id="Stroke-4" stroke="#FF931E" stroke-width="2" stroke-linejoin="round"></path>
                        </g>
                    </g>
                </g>
            </g>
        </g>
    </g>
</svg>