<?xml version="1.0" encoding="UTF-8" standalone="no"?>
<svg width="584px" height="951px" viewBox="0 0 584 951" version="1.1" xmlns="http://www.w3.org/2000/svg" xmlns:xlink="http://www.w3.org/1999/xlink">
    <!-- Generator: sketchtool 39.1 (31720) - http://www.bohemiancoding.com/sketch -->
    <title>4F5A905D-BD7E-4E89-BAC9-6C2FFFBFEBF4</title>
    <desc>Created with sketchtool.</desc>
    <defs>
        <rect id="path-1" x="0" y="0" width="584" height="950.732405" rx="4.02758621"></rect>
        <linearGradient x1="50%" y1="0%" x2="50%" y2="100%" id="linearGradient-3">
            <stop stop-color="#050505" stop-opacity="0.5" offset="0%"></stop>
            <stop stop-color="#020202" stop-opacity="0.1" offset="100%"></stop>
        </linearGradient>
    </defs>
    <g id="Page-1" stroke="none" stroke-width="1" fill="none" fill-rule="evenodd">
        <g id="Assets" transform="translate(-34.000000, -1919.000000)">
            <g id="icon-angebot-1" transform="translate(34.000000, 1919.000000)">
                <mask id="mask-2" fill="white">
                    <use xlink:href="#path-1"></use>
                </mask>
                <g></g>
                <g transform="translate(193.324138, 255.883475)">
                    <polygon id="shadow" fill="url(#linearGradient-3)" points="94.0332634 200.001344 391.569181 497.690537 391.877291 287.142764 199.407001 94.5753381"></polygon>
                    <g id="icon" transform="translate(0.000000, 0.028208)">
                        <path d="M163.943098,70.7465422 C154.039263,80.6554786 138.893526,80.6554786 128.991705,70.7465422 C119.08787,60.8376057 119.08787,45.6840655 128.991705,35.7771439 L134.815594,29.9482392 L105.690105,0.80573072 L70.7387117,35.7771439 L64.9128083,29.9482392 C55.0089738,20.0393028 39.8632359,20.0393028 29.9614152,29.9482392 C20.0575807,39.8571756 20.0575807,55.0107159 29.9614152,64.9176375 L35.7853048,70.7465422 L0.833911724,105.71594 L29.9614152,134.858449 L24.1355117,140.687354 C14.2316772,150.594275 14.2316772,165.747815 24.1355117,175.656752 C34.0393462,185.563674 49.1850841,185.563674 59.0869048,175.656752 L64.9128083,169.827847 L94.0382979,198.970356 L128.991705,163.998943 L134.815594,169.827847 C144.719429,179.736784 159.865167,179.736784 169.769001,169.827847 C179.670822,159.918911 179.670822,144.765371 169.769001,134.858449 L163.943098,129.029544 L198.894491,94.060146 L169.769001,64.9176375 L163.943098,70.7465422 Z" id="Fill-2" fill="#002F47"></path>
                        <path d="M163.943098,70.7465422 C154.039263,80.6554786 138.893526,80.6554786 128.991705,70.7465422 C119.08787,60.8376057 119.08787,45.6840655 128.991705,35.7771439 L134.815594,29.9482392 L105.690105,0.80573072 L70.7387117,35.7771439 L64.9128083,29.9482392 C55.0089738,20.0393028 39.8632359,20.0393028 29.9614152,29.9482392 C20.0575807,39.8571756 20.0575807,55.0107159 29.9614152,64.9176375 L35.7853048,70.7465422 L0.833911724,105.71594 L29.9614152,134.858449 L24.1355117,140.687354 C14.2316772,150.594275 14.2316772,165.747815 24.1355117,175.656752 C34.0393462,185.563674 49.1850841,185.563674 59.0869048,175.656752 L64.9128083,169.827847 L94.0382979,198.970356 L128.991705,163.998943 L134.815594,169.827847 C144.719429,179.736784 159.865167,179.736784 169.769001,169.827847 C179.670822,159.918911 179.670822,144.765371 169.769001,134.858449 L163.943098,129.029544 L198.894491,94.060146 L169.769001,64.9176375 L163.943098,70.7465422 L163.943098,70.7465422 Z" id="Stroke-4" stroke="#7092A6" stroke-width="4.02758621"></path>
                    </g>
                </g>
            </g>
        </g>
    </g>
</svg>