<?xml version="1.0" encoding="UTF-8" standalone="no"?>
<svg width="468px" height="762px" viewBox="0 0 468 762" version="1.1" xmlns="http://www.w3.org/2000/svg" xmlns:xlink="http://www.w3.org/1999/xlink">
    <!-- Generator: sketchtool 39.1 (31720) - http://www.bohemiancoding.com/sketch -->
    <title>A8EBE299-247E-4819-9887-3CEB64CFC01D</title>
    <desc>Created with sketchtool.</desc>
    <defs>
        <rect id="path-1" x="0" y="0" width="468" height="761.785587" rx="3.22758621"></rect>
        <linearGradient x1="50%" y1="0%" x2="50%" y2="100%" id="linearGradient-3">
            <stop stop-color="#050505" stop-opacity="0.5" offset="0%"></stop>
            <stop stop-color="#020202" stop-opacity="0.1" offset="100%"></stop>
        </linearGradient>
    </defs>
    <g id="Page-1" stroke="none" stroke-width="1" fill="none" fill-rule="evenodd">
        <g id="Assets" transform="translate(-37.000000, -1065.000000)">
            <g id="icon-S-468" transform="translate(37.000000, 1065.000000)">
                <mask id="mask-2" fill="white">
                    <use xlink:href="#path-1"></use>
                </mask>
                <g id="card"></g>
                <path d="M282.551288,131.070458 L275.623274,144.339267 C274.471026,146.234581 273.391399,147.503504 272.189123,148.373669 C270.894861,149.31164 269.271385,149.766903 267.32515,149.766903 C265.495109,149.768517 263.544033,149.134055 261.513881,147.899034 C259.758074,146.831911 257.690806,145.659852 255.360488,144.428059 C253.081812,143.218869 250.40453,142.066182 247.404488,141.005517 C244.510957,139.988441 241.059054,139.471831 237.13915,139.470216 C230.309578,139.471831 225.169647,140.973229 221.861371,143.93728 C218.548254,146.912631 216.945757,150.669356 216.944143,155.478674 C216.944143,158.447568 217.786543,160.82236 219.51653,162.737047 C221.362709,164.777657 223.84795,166.57772 226.898019,168.085576 C230.052985,169.649936 233.692088,171.064157 237.718502,172.29272 C241.782033,173.532585 246.069881,174.932275 250.462626,176.454661 C254.847302,177.975432 259.178723,179.785182 263.335854,181.827407 C267.59304,183.924521 271.448392,186.59475 274.795399,189.762216 C278.181137,192.968428 280.948792,196.935025 283.022516,201.549 C285.099468,206.182347 286.151661,211.856987 286.151661,218.419551 C286.153274,225.514869 285.018778,232.384169 282.539992,238.598021 C280.083799,244.760212 276.618985,250.350903 272.000309,254.971335 C271.953509,255.016538 271.909937,255.061742 271.86475,255.105331 C267.204116,259.767737 261.218557,263.333962 254.363164,265.991275 C247.523909,268.642131 239.629233,269.922356 231.014806,269.920742 C226.110488,269.92397 221.12064,269.386373 216.243757,268.388669 C211.38624,267.397424 206.475468,266.126886 201.971371,264.352653 C198.701826,263.06597 195.858323,261.240076 192.367688,260.0325 L467.385468,535.153246 L467.545233,316.13475 L282.551288,131.070458 Z" id="shadow" fill="url(#linearGradient-3)" mask="url(#mask-2)"></path>
                <text id="S" stroke="#7092A6" stroke-width="1.6137931" mask="url(#mask-2)" font-family="Lato-Heavy, Lato" font-size="209.719999" font-weight="600" fill="#002F47">
                    <tspan x="175.904255" y="267.013242">S</tspan>
                </text>
            </g>
        </g>
    </g>
</svg>