<?xml version="1.0" encoding="UTF-8"?>
<svg width="124px" height="124px" viewBox="0 0 124 124" version="1.1" xmlns="http://www.w3.org/2000/svg" xmlns:xlink="http://www.w3.org/1999/xlink">
    <!-- Generator: Sketch 47.1 (45422) - http://www.bohemiancoding.com/sketch -->
    <title>icon sicherheit</title>
    <desc>Created with Sketch.</desc>
    <defs></defs>
    <g id="Pages" stroke="none" stroke-width="1" fill="none" fill-rule="evenodd">
        <g id="16:9-copy-5" transform="translate(-348.000000, -366.000000)">
            <g id="icon-sicherheit" transform="translate(348.000000, 366.000000)">
                <g>
                    <path d="M62,0 C96.2416142,0 124,27.7583858 124,62 C124,96.2416142 96.2416142,124 62,124 C27.7583858,124 0,96.2416142 0,62 C0,27.7583858 27.7583858,0 62,0 Z" id="circle" fill="#002F47"></path>
                    <g id="icon" transform="translate(32.000000, 25.000000)" stroke-width="2" stroke="#FFFFFF">
                        <polyline id="Stroke-1" points="47.5198 21.7932 23.7618 43.9672 15.8418 36.0472"></polyline>
                        <path d="M0.000200000002,9.2034 L30.0942,0.0454 L60.1862,9.2034 L60.1862,26.2134 C60.1862,47.1294 48.5962,66.3214 30.0942,76.0614 C11.5822,66.3214 0.000200000002,47.1294 0.000200000002,26.2134 L0.000200000002,9.2034 Z" id="Stroke-2"></path>
                    </g>
                </g>
            </g>
        </g>
    </g>
</svg>