<?xml version="1.0" encoding="UTF-8" standalone="no"?>
<svg width="195px" height="282px" viewBox="0 0 195 282" version="1.1" xmlns="http://www.w3.org/2000/svg" xmlns:xlink="http://www.w3.org/1999/xlink">
    <!-- Generator: sketchtool 39.1 (31720) - http://www.bohemiancoding.com/sketch -->
    <title>36180EEC-70F5-4A17-9D66-351F300B26B9</title>
    <desc>Created with sketchtool.</desc>
    <defs>
        <linearGradient x1="50%" y1="0%" x2="50%" y2="100%" id="linearGradient-1">
            <stop stop-color="#050505" stop-opacity="0.5" offset="0%"></stop>
            <stop stop-color="#020202" stop-opacity="0.1" offset="100%"></stop>
        </linearGradient>
    </defs>
    <g id="Page-1" stroke="none" stroke-width="1" fill="none" fill-rule="evenodd">
        <g id="Startseite" transform="translate(-940.000000, -1961.000000)">
            <g id="angebot" transform="translate(0.000000, 1449.000000)">
                <g id="Angebot-3" transform="translate(845.000000, 384.000000)">
                    <g id="icon-angebot-3" transform="translate(96.000000, 128.000000)">
                        <polygon id="shadow" fill="url(#linearGradient-1)" points="52.5833 37.455 1.4213 89.579 193.5103 281.67 192.9953 107.206 87.3233 1.534"></polygon>
                        <g id="icon" transform="translate(0.000000, 0.670000)">
                            <path d="M32.1429,13.1872 L74.9999,13.1872 L32.1429,13.1872 Z M32.1429,21.7582 L74.9999,21.7582 L32.1429,21.7582 Z M89.9999,26.0442 C89.9999,28.4062 88.0839,30.3302 85.7139,30.3302 L4.2859,30.3302 C1.9159,30.3302 -0.0001,28.4062 -0.0001,26.0442 L-0.0001,4.6162 C-0.0001,2.2462 1.9159,0.3302 4.2859,0.3302 L85.7139,0.3302 C88.0839,0.3302 89.9999,2.2462 89.9999,4.6162 L89.9999,26.0442 Z" id="Fill-2" fill="#002F47"></path>
                            <path d="M32.1429,13.1872 L74.9999,13.1872 L32.1429,13.1872 Z M32.1429,21.7582 L74.9999,21.7582 L32.1429,21.7582 Z M89.9999,26.0442 C89.9999,28.4062 88.0839,30.3302 85.7139,30.3302 L4.2859,30.3302 C1.9159,30.3302 -0.0001,28.4062 -0.0001,26.0442 L-0.0001,4.6162 C-0.0001,2.2462 1.9159,0.3302 4.2859,0.3302 L85.7139,0.3302 C88.0839,0.3302 89.9999,2.2462 89.9999,4.6162 L89.9999,26.0442 L89.9999,26.0442 Z" id="Stroke-4" stroke="#929031" stroke-width="2" stroke-linejoin="round"></path>
                            <path d="M15,11.0443 C17.367,11.0443 19.286,12.9633 19.286,15.3303 C19.286,17.6973 17.367,19.6153 15,19.6153 C12.633,19.6153 10.714,17.6973 10.714,15.3303 C10.714,12.9633 12.633,11.0443 15,11.0443" id="Fill-6" fill="#002F47"></path>
                            <path d="M15,11.0443 C17.367,11.0443 19.286,12.9633 19.286,15.3303 C19.286,17.6973 17.367,19.6153 15,19.6153 C12.633,19.6153 10.714,17.6973 10.714,15.3303 C10.714,12.9633 12.633,11.0443 15,11.0443 L15,11.0443 Z" id="Stroke-8" stroke="#929031" stroke-width="2" stroke-linejoin="round"></path>
                            <path d="M32.1429,43.1871 L74.9999,43.1871 L32.1429,43.1871 Z M32.1429,51.7581 L74.9999,51.7581 L32.1429,51.7581 Z M89.9999,56.0441 C89.9999,58.4061 88.0839,60.3301 85.7139,60.3301 L4.2859,60.3301 C1.9159,60.3301 -0.0001,58.4061 -0.0001,56.0441 L-0.0001,34.6161 C-0.0001,32.2461 1.9159,30.3301 4.2859,30.3301 L85.7139,30.3301 C88.0839,30.3301 89.9999,32.2461 89.9999,34.6161 L89.9999,56.0441 Z" id="Fill-10" fill="#002F47"></path>
                            <path d="M32.1429,43.1871 L74.9999,43.1871 L32.1429,43.1871 Z M32.1429,51.7581 L74.9999,51.7581 L32.1429,51.7581 Z M89.9999,56.0441 C89.9999,58.4061 88.0839,60.3301 85.7139,60.3301 L4.2859,60.3301 C1.9159,60.3301 -0.0001,58.4061 -0.0001,56.0441 L-0.0001,34.6161 C-0.0001,32.2461 1.9159,30.3301 4.2859,30.3301 L85.7139,30.3301 C88.0839,30.3301 89.9999,32.2461 89.9999,34.6161 L89.9999,56.0441 L89.9999,56.0441 Z" id="Stroke-12" stroke="#929031" stroke-width="2" stroke-linejoin="round"></path>
                            <path d="M15,41.0443 C17.367,41.0443 19.286,42.9633 19.286,45.3303 C19.286,47.6973 17.367,49.6153 15,49.6153 C12.633,49.6153 10.714,47.6973 10.714,45.3303 C10.714,42.9633 12.633,41.0443 15,41.0443" id="Fill-14" fill="#002F47"></path>
                            <path d="M15,41.0443 C17.367,41.0443 19.286,42.9633 19.286,45.3303 C19.286,47.6973 17.367,49.6153 15,49.6153 C12.633,49.6153 10.714,47.6973 10.714,45.3303 C10.714,42.9633 12.633,41.0443 15,41.0443 L15,41.0443 Z" id="Stroke-16" stroke="#929031" stroke-width="2" stroke-linejoin="round"></path>
                            <path d="M32.1429,73.1871 L74.9999,73.1871 L32.1429,73.1871 Z M32.1429,81.7581 L74.9999,81.7581 L32.1429,81.7581 Z M89.9999,86.0441 C89.9999,88.4061 88.0839,90.3301 85.7139,90.3301 L4.2859,90.3301 C1.9159,90.3301 -0.0001,88.4061 -0.0001,86.0441 L-0.0001,64.6161 C-0.0001,62.2461 1.9159,60.3301 4.2859,60.3301 L85.7139,60.3301 C88.0839,60.3301 89.9999,62.2461 89.9999,64.6161 L89.9999,86.0441 Z" id="Fill-18" fill="#002F47"></path>
                            <path d="M32.1429,73.1871 L74.9999,73.1871 L32.1429,73.1871 Z M32.1429,81.7581 L74.9999,81.7581 L32.1429,81.7581 Z M89.9999,86.0441 C89.9999,88.4061 88.0839,90.3301 85.7139,90.3301 L4.2859,90.3301 C1.9159,90.3301 -0.0001,88.4061 -0.0001,86.0441 L-0.0001,64.6161 C-0.0001,62.2461 1.9159,60.3301 4.2859,60.3301 L85.7139,60.3301 C88.0839,60.3301 89.9999,62.2461 89.9999,64.6161 L89.9999,86.0441 L89.9999,86.0441 Z" id="Stroke-20" stroke="#929031" stroke-width="2" stroke-linejoin="round"></path>
                            <path d="M15,71.0443 C17.367,71.0443 19.286,72.9633 19.286,75.3303 C19.286,77.6973 17.367,79.6153 15,79.6153 C12.633,79.6153 10.714,77.6973 10.714,75.3303 C10.714,72.9633 12.633,71.0443 15,71.0443" id="Fill-22" fill="#002F47"></path>
                            <path d="M15,71.0443 C17.367,71.0443 19.286,72.9633 19.286,75.3303 C19.286,77.6973 17.367,79.6153 15,79.6153 C12.633,79.6153 10.714,77.6973 10.714,75.3303 C10.714,72.9633 12.633,71.0443 15,71.0443 L15,71.0443 Z" id="Stroke-24" stroke="#929031" stroke-width="2" stroke-linejoin="round"></path>
                        </g>
                    </g>
                </g>
            </g>
        </g>
    </g>
</svg>