<?xml version="1.0" encoding="UTF-8" standalone="no"?>
<svg width="74px" height="74px" viewBox="0 0 74 74" version="1.1" xmlns="http://www.w3.org/2000/svg" xmlns:xlink="http://www.w3.org/1999/xlink">
    <!-- Generator: Sketch 39.1 (31720) - http://www.bohemiancoding.com/sketch -->
    <title>offer_server</title>
    <desc>Created with Sketch.</desc>
    <defs></defs>
    <g id="Page-1" stroke="none" stroke-width="1" fill="none" fill-rule="evenodd">
        <g id="V1" transform="translate(-953.000000, -1941.000000)">
            <g id="offer_server" transform="translate(942.000000, 1930.000000)">
                <g id="Outline_Icons_1_" transform="translate(12.000000, 12.000000)" stroke-width="2" stroke="#FFFFFF">
                    <g id="Outline_Icons">
                        <g id="Group">
                            <path d="M72,20.5714286 C72,22.4605714 70.4674286,24 68.5714286,24 L3.42857143,24 C1.53257143,24 0,22.4605714 0,20.5714286 L0,3.42857143 C0,1.536 1.53257143,0 3.42857143,0 L68.5714286,0 C70.4674286,0 72,1.536 72,3.42857143 L72,20.5714286 L72,20.5714286 Z" id="Shape"></path>
                            <path d="M25.7142857,17.1428571 L60,17.1428571" id="Shape"></path>
                            <path d="M25.7142857,10.2857143 L60,10.2857143" id="Shape"></path>
                            <circle id="Oval" cx="12" cy="12" r="3.42857143"></circle>
                            <path d="M72,44.5714286 C72,46.4605714 70.4674286,48 68.5714286,48 L3.42857143,48 C1.53257143,48 0,46.4605714 0,44.5714286 L0,27.4285714 C0,25.536 1.53257143,24 3.42857143,24 L68.5714286,24 C70.4674286,24 72,25.536 72,27.4285714 L72,44.5714286 L72,44.5714286 Z" id="Shape"></path>
                            <path d="M25.7142857,41.1428571 L60,41.1428571" id="Shape"></path>
                            <path d="M25.7142857,34.2857143 L60,34.2857143" id="Shape"></path>
                            <ellipse id="Oval" cx="12" cy="36" rx="3.42857143" ry="3.42857143"></ellipse>
                            <path d="M72,68.5714286 C72,70.4605714 70.4674286,72 68.5714286,72 L3.42857143,72 C1.53257143,72 0,70.4605714 0,68.5714286 L0,51.4285714 C0,49.536 1.53257143,48 3.42857143,48 L68.5714286,48 C70.4674286,48 72,49.536 72,51.4285714 L72,68.5714286 L72,68.5714286 Z" id="Shape"></path>
                            <path d="M25.7142857,65.1428571 L60,65.1428571" id="Shape"></path>
                            <path d="M25.7142857,58.2857143 L60,58.2857143" id="Shape"></path>
                            <ellipse id="Oval" cx="12" cy="60" rx="3.42857143" ry="3.42857143"></ellipse>
                        </g>
                    </g>
                </g>
                <g id="Invisible_Shape">
                    <rect id="Rectangle-path" x="0" y="0" width="96" height="96"></rect>
                </g>
            </g>
        </g>
    </g>
</svg>