<?xml version="1.0" encoding="UTF-8" standalone="no"?>
<svg width="196px" height="248px" viewBox="0 0 196 248" version="1.1" xmlns="http://www.w3.org/2000/svg" xmlns:xlink="http://www.w3.org/1999/xlink">
    <!-- Generator: sketchtool 39.1 (31720) - http://www.bohemiancoding.com/sketch -->
    <title>237D01DB-0C20-4F21-97FF-3AC01CF9379B</title>
    <desc>Created with sketchtool.</desc>
    <defs>
        <linearGradient x1="50%" y1="0%" x2="50%" y2="100%" id="linearGradient-1">
            <stop stop-color="#050505" stop-opacity="0.5" offset="0%"></stop>
            <stop stop-color="#020202" stop-opacity="0.1" offset="100%"></stop>
        </linearGradient>
    </defs>
    <g id="Page-1" stroke="none" stroke-width="1" fill="none" fill-rule="evenodd">
        <g id="Startseite" transform="translate(-240.000000, -1959.000000)">
            <g id="angebot" transform="translate(0.000000, 1449.000000)">
                <g id="Angebot-1" transform="translate(145.000000, 384.000000)">
                    <g id="icon-angebot-1" transform="translate(96.000000, 127.000000)">
                        <polygon id="shadow" fill="url(#linearGradient-1)" points="46.6946 99.2646 194.4436 247.0136 194.5966 142.5146 99.0206 46.9396"></polygon>
                        <g id="icon" transform="translate(0.000000, 0.014000)">
                            <path d="M81.4101,35.1129 C76.4921,40.0309 68.9711,40.0309 64.0541,35.1129 C59.1361,30.1949 59.1361,22.6739 64.0541,17.7569 L66.9461,14.8639 L52.4831,0.3999 L35.1271,17.7569 L32.2341,14.8639 C27.3161,9.9459 19.7951,9.9459 14.8781,14.8639 C9.9601,19.7819 9.9601,27.3029 14.8781,32.2199 L17.7701,35.1129 L0.4141,52.4689 L14.8781,66.9329 L11.9851,69.8259 C7.0671,74.7429 7.0671,82.2639 11.9851,87.1819 C16.9031,92.0989 24.4241,92.0989 29.3411,87.1819 L32.2341,84.2889 L46.6971,98.7529 L64.0541,81.3959 L66.9461,84.2889 C71.8641,89.2069 79.3851,89.2069 84.3031,84.2889 C89.2201,79.3709 89.2201,71.8499 84.3031,66.9329 L81.4101,64.0399 L98.7661,46.6839 L84.3031,32.2199 L81.4101,35.1129 Z" id="Fill-2" fill="#002F47"></path>
                            <path d="M81.4101,35.1129 C76.4921,40.0309 68.9711,40.0309 64.0541,35.1129 C59.1361,30.1949 59.1361,22.6739 64.0541,17.7569 L66.9461,14.8639 L52.4831,0.3999 L35.1271,17.7569 L32.2341,14.8639 C27.3161,9.9459 19.7951,9.9459 14.8781,14.8639 C9.9601,19.7819 9.9601,27.3029 14.8781,32.2199 L17.7701,35.1129 L0.4141,52.4689 L14.8781,66.9329 L11.9851,69.8259 C7.0671,74.7429 7.0671,82.2639 11.9851,87.1819 C16.9031,92.0989 24.4241,92.0989 29.3411,87.1819 L32.2341,84.2889 L46.6971,98.7529 L64.0541,81.3959 L66.9461,84.2889 C71.8641,89.2069 79.3851,89.2069 84.3031,84.2889 C89.2201,79.3709 89.2201,71.8499 84.3031,66.9329 L81.4101,64.0399 L98.7661,46.6839 L84.3031,32.2199 L81.4101,35.1129 L81.4101,35.1129 Z" id="Stroke-4" stroke="#7092A6" stroke-width="2"></path>
                        </g>
                    </g>
                </g>
            </g>
        </g>
    </g>
</svg>