<?xml version="1.0" encoding="UTF-8" standalone="no"?>
<svg width="252px" height="147px" viewBox="0 0 252 147" version="1.1" xmlns="http://www.w3.org/2000/svg" xmlns:xlink="http://www.w3.org/1999/xlink">
    <!-- Generator: sketchtool 39.1 (31720) - http://www.bohemiancoding.com/sketch -->
    <title>D26A23A6-0851-4D33-836F-D2622930D2A4</title>
    <desc>Created with sketchtool.</desc>
    <defs>
        <linearGradient x1="-14.5019123%" y1="0%" x2="-14.5019129%" y2="39.8060967%" id="linearGradient-1">
            <stop stop-color="#050505" stop-opacity="0.5" offset="0%"></stop>
            <stop stop-color="#020202" stop-opacity="0" offset="100%"></stop>
        </linearGradient>
    </defs>
    <g id="Page-1" stroke="none" stroke-width="1" fill="none" fill-rule="evenodd">
        <g id="Angebot-3" transform="translate(-291.000000, -178.000000)">
            <g id="icon-angebot-3" transform="translate(292.000000, 178.000000)">
                <polygon id="shadow" fill="url(#linearGradient-1)" points="68.2464106 48.6118085 1.84466596 116.262106 251.151666 365.571702 250.483262 139.139702 113.334496 1.99093617"></polygon>
                <g id="icon" transform="translate(0.000000, 0.869574)">
                    <path d="M41.7173809,17.1153021 L97.3402957,17.1153021 L41.7173809,17.1153021 Z M41.7173809,28.239366 L97.3402957,28.239366 L41.7173809,28.239366 Z M116.808381,33.8020468 C116.808381,36.8676213 114.321657,39.3647277 111.2457,39.3647277 L5.56255106,39.3647277 C2.48659362,39.3647277 -0.000129787234,36.8676213 -0.000129787234,33.8020468 L-0.000129787234,5.9912383 C-0.000129787234,2.91528085 2.48659362,0.428557447 5.56255106,0.428557447 L111.2457,0.428557447 C114.321657,0.428557447 116.808381,2.91528085 116.808381,5.9912383 L116.808381,33.8020468 Z" id="Fill-2" fill="#002F47"></path>
                    <path d="M41.7173809,17.1153021 L97.3402957,17.1153021 L41.7173809,17.1153021 Z M41.7173809,28.239366 L97.3402957,28.239366 L41.7173809,28.239366 Z M116.808381,33.8020468 C116.808381,36.8676213 114.321657,39.3647277 111.2457,39.3647277 L5.56255106,39.3647277 C2.48659362,39.3647277 -0.000129787234,36.8676213 -0.000129787234,33.8020468 L-0.000129787234,5.9912383 C-0.000129787234,2.91528085 2.48659362,0.428557447 5.56255106,0.428557447 L111.2457,0.428557447 C114.321657,0.428557447 116.808381,2.91528085 116.808381,5.9912383 L116.808381,33.8020468 L116.808381,33.8020468 Z" id="Stroke-4" stroke="#929031" stroke-width="2" stroke-linejoin="round"></path>
                    <path d="M19.4680851,14.3340915 C22.5401489,14.3340915 25.030766,16.8247085 25.030766,19.8967723 C25.030766,22.9688362 22.5401489,25.4581553 19.4680851,25.4581553 C16.3960213,25.4581553 13.9054043,22.9688362 13.9054043,19.8967723 C13.9054043,16.8247085 16.3960213,14.3340915 19.4680851,14.3340915" id="Fill-6" fill="#002F47"></path>
                    <path d="M19.4680851,14.3340915 C22.5401489,14.3340915 25.030766,16.8247085 25.030766,19.8967723 C25.030766,22.9688362 22.5401489,25.4581553 19.4680851,25.4581553 C16.3960213,25.4581553 13.9054043,22.9688362 13.9054043,19.8967723 C13.9054043,16.8247085 16.3960213,14.3340915 19.4680851,14.3340915 L19.4680851,14.3340915 Z" id="Stroke-8" stroke="#929031" stroke-width="2" stroke-linejoin="round"></path>
                    <path d="M41.7173809,56.0513426 L97.3402957,56.0513426 L41.7173809,56.0513426 Z M41.7173809,67.1754064 L97.3402957,67.1754064 L41.7173809,67.1754064 Z M116.808381,72.7380872 C116.808381,75.8036617 114.321657,78.3007681 111.2457,78.3007681 L5.56255106,78.3007681 C2.48659362,78.3007681 -0.000129787234,75.8036617 -0.000129787234,72.7380872 L-0.000129787234,44.9272787 C-0.000129787234,41.8513213 2.48659362,39.3645979 5.56255106,39.3645979 L111.2457,39.3645979 C114.321657,39.3645979 116.808381,41.8513213 116.808381,44.9272787 L116.808381,72.7380872 Z" id="Fill-10" fill="#002F47"></path>
                    <path d="M41.7173809,56.0513426 L97.3402957,56.0513426 L41.7173809,56.0513426 Z M41.7173809,67.1754064 L97.3402957,67.1754064 L41.7173809,67.1754064 Z M116.808381,72.7380872 C116.808381,75.8036617 114.321657,78.3007681 111.2457,78.3007681 L5.56255106,78.3007681 C2.48659362,78.3007681 -0.000129787234,75.8036617 -0.000129787234,72.7380872 L-0.000129787234,44.9272787 C-0.000129787234,41.8513213 2.48659362,39.3645979 5.56255106,39.3645979 L111.2457,39.3645979 C114.321657,39.3645979 116.808381,41.8513213 116.808381,44.9272787 L116.808381,72.7380872 L116.808381,72.7380872 Z" id="Stroke-12" stroke="#929031" stroke-width="2" stroke-linejoin="round"></path>
                    <path d="M19.4680851,53.2702617 C22.5401489,53.2702617 25.030766,55.7608787 25.030766,58.8329426 C25.030766,61.9050064 22.5401489,64.3943255 19.4680851,64.3943255 C16.3960213,64.3943255 13.9054043,61.9050064 13.9054043,58.8329426 C13.9054043,55.7608787 16.3960213,53.2702617 19.4680851,53.2702617" id="Fill-14" fill="#002F47"></path>
                    <path d="M19.4680851,53.2702617 C22.5401489,53.2702617 25.030766,55.7608787 25.030766,58.8329426 C25.030766,61.9050064 22.5401489,64.3943255 19.4680851,64.3943255 C16.3960213,64.3943255 13.9054043,61.9050064 13.9054043,58.8329426 C13.9054043,55.7608787 16.3960213,53.2702617 19.4680851,53.2702617 L19.4680851,53.2702617 Z" id="Stroke-16" stroke="#929031" stroke-width="2" stroke-linejoin="round"></path>
                    <path d="M41.7173809,94.9875128 L97.3402957,94.9875128 L41.7173809,94.9875128 Z M41.7173809,106.111577 L97.3402957,106.111577 L41.7173809,106.111577 Z M116.808381,111.674257 C116.808381,114.739832 114.321657,117.236938 111.2457,117.236938 L5.56255106,117.236938 C2.48659362,117.236938 -0.000129787234,114.739832 -0.000129787234,111.674257 L-0.000129787234,83.8634489 C-0.000129787234,80.7874915 2.48659362,78.3007681 5.56255106,78.3007681 L111.2457,78.3007681 C114.321657,78.3007681 116.808381,80.7874915 116.808381,83.8634489 L116.808381,111.674257 Z" id="Fill-18" fill="#002F47"></path>
                    <path d="M41.7173809,94.9875128 L97.3402957,94.9875128 L41.7173809,94.9875128 Z M41.7173809,106.111577 L97.3402957,106.111577 L41.7173809,106.111577 Z M116.808381,111.674257 C116.808381,114.739832 114.321657,117.236938 111.2457,117.236938 L5.56255106,117.236938 C2.48659362,117.236938 -0.000129787234,114.739832 -0.000129787234,111.674257 L-0.000129787234,83.8634489 C-0.000129787234,80.7874915 2.48659362,78.3007681 5.56255106,78.3007681 L111.2457,78.3007681 C114.321657,78.3007681 116.808381,80.7874915 116.808381,83.8634489 L116.808381,111.674257 L116.808381,111.674257 Z" id="Stroke-20" stroke="#929031" stroke-width="2" stroke-linejoin="round"></path>
                    <path d="M19.4680851,92.2064319 C22.5401489,92.2064319 25.030766,94.6970489 25.030766,97.7691128 C25.030766,100.841177 22.5401489,103.330496 19.4680851,103.330496 C16.3960213,103.330496 13.9054043,100.841177 13.9054043,97.7691128 C13.9054043,94.6970489 16.3960213,92.2064319 19.4680851,92.2064319" id="Fill-22" fill="#002F47"></path>
                    <path d="M19.4680851,92.2064319 C22.5401489,92.2064319 25.030766,94.6970489 25.030766,97.7691128 C25.030766,100.841177 22.5401489,103.330496 19.4680851,103.330496 C16.3960213,103.330496 13.9054043,100.841177 13.9054043,97.7691128 C13.9054043,94.6970489 16.3960213,92.2064319 19.4680851,92.2064319 L19.4680851,92.2064319 Z" id="Stroke-24" stroke="#929031" stroke-width="2" stroke-linejoin="round"></path>
                </g>
            </g>
        </g>
    </g>
</svg>