<?xml version="1.0" encoding="UTF-8" standalone="no"?>
<svg width="347px" height="700px" viewBox="0 0 347 700" version="1.1" xmlns="http://www.w3.org/2000/svg" xmlns:xlink="http://www.w3.org/1999/xlink">
    <!-- Generator: sketchtool 39.1 (31720) - http://www.bohemiancoding.com/sketch -->
    <title>A56A9C5A-C46A-441F-8A2B-9994C277DADC</title>
    <desc>Created with sketchtool.</desc>
    <defs>
        <rect id="path-1" x="0" y="0" width="347" height="699.803032" rx="2.96581197"></rect>
        <linearGradient x1="50%" y1="0%" x2="50%" y2="100%" id="linearGradient-3">
            <stop stop-color="#050505" stop-opacity="0.5" offset="0%"></stop>
            <stop stop-color="#020202" stop-opacity="0.1" offset="100%"></stop>
        </linearGradient>
    </defs>
    <g id="Page-1" stroke="none" stroke-width="1" fill="none" fill-rule="evenodd">
        <g id="Assets" transform="translate(-37.000000, -346.000000)">
            <g id="icon-S-347" transform="translate(37.000000, 346.000000)">
                <mask id="mask-2" fill="white">
                    <use xlink:href="#path-1"></use>
                </mask>
                <g id="Mask"></g>
                <path d="M217.461044,120.127119 L211.122019,132.316314 C210.06773,134.057415 209.079887,135.223093 207.979823,136.022458 C206.795593,136.88411 205.310138,137.302331 203.529364,137.302331 C201.854904,137.303814 200.0697,136.720975 198.212142,135.586441 C196.605606,134.606144 194.714087,133.529449 192.581883,132.397881 C190.49693,131.287076 188.047257,130.228178 185.302266,129.253814 C182.65473,128.319492 179.496291,127.844915 175.90964,127.843432 C169.660687,127.844915 164.95773,129.224153 161.930708,131.947034 C158.899257,134.680297 157.432998,138.131356 157.431521,142.549364 C157.431521,145.276695 158.202304,147.458263 159.785215,149.217161 C161.47444,151.091737 163.748398,152.745339 166.539164,154.130508 C169.425908,155.567585 172.755632,156.866737 176.439738,157.995339 C180.157806,159.134322 184.081121,160.420127 188.100415,161.818644 C192.112325,163.215678 196.075508,164.878178 199.879219,166.754237 C203.774478,168.68072 207.302066,171.133686 210.364525,174.043432 C213.462423,176.988771 215.994785,180.632627 217.89221,184.871186 C219.792589,189.127542 220.75533,194.340466 220.75533,200.369068 C220.756806,206.887076 219.718759,213.197458 217.450708,218.90572 C215.20333,224.566525 212.033078,229.702331 207.807061,233.946822 C207.76424,233.988347 207.724372,234.029873 207.683027,234.069915 C203.418619,238.352966 197.941925,241.629025 191.669347,244.070127 C185.411534,246.505297 178.188027,247.681356 170.305959,247.679873 C165.818585,247.682839 161.252951,247.188983 156.790678,246.272458 C152.346125,245.361864 147.852844,244.194703 143.731666,242.564831 C140.740083,241.382839 138.138321,239.705508 134.944444,238.596186 L386.581461,491.33178 L386.727644,290.133686 L217.461044,120.127119 Z" id="shadow" fill="url(#linearGradient-3)" mask="url(#mask-2)"></path>
                <text id="S" stroke="#FF931E" stroke-width="1.48290598" mask="url(#mask-2)" font-family="Lato-Heavy, Lato" font-size="192.710602" font-weight="600" fill="#002F47">
                    <tspan x="120.115385" y="244.872881">S</tspan>
                </text>
            </g>
        </g>
    </g>
</svg>