<?xml version="1.0" encoding="UTF-8"?>
<svg width="124px" height="124px" viewBox="0 0 124 124" version="1.1" xmlns="http://www.w3.org/2000/svg" xmlns:xlink="http://www.w3.org/1999/xlink">
    <!-- Generator: Sketch 47.1 (45422) - http://www.bohemiancoding.com/sketch -->
    <title>icons swissness</title>
    <desc>Created with Sketch.</desc>
    <defs></defs>
    <g id="Pages" stroke="none" stroke-width="1" fill="none" fill-rule="evenodd">
        <g id="16:9-copy-5" transform="translate(-131.000000, -366.000000)">
            <g id="icons-swissness" transform="translate(131.000000, 366.000000)">
                <g>
                    <path d="M62,0 C96.2416142,0 124,27.7583858 124,62 C124,96.2416142 96.2416142,124 62,124 C27.7583858,124 0,96.2416142 0,62 C0,27.7583858 27.7583858,0 62,0 Z" id="circle" fill="#002F47"></path>
                    <g id="icon" transform="translate(32.000000, 25.000000)" stroke="#FFFFFF" stroke-width="2">
                        <path d="M0.974748718,8.94099487 L30.295159,0.0178153846 L59.6175179,8.94099487 L59.6175179,25.514841 C59.6175179,45.8964821 48.3246974,64.5944308 30.295159,74.0846872 C12.2597744,64.5944308 0.974748718,45.8964821 0.974748718,25.514841 L0.974748718,8.94099487 Z" id="Stroke-1"></path>
                        <polygon id="Stroke-3" points="43.9369641 32.818441 34.5305026 32.818441 34.5305026 23.4100308 26.0633231 23.4100308 26.0633231 32.818441 16.6549128 32.818441 16.6549128 41.2856205 26.0633231 41.2856205 26.0633231 50.6920821 34.5305026 50.6920821 34.5305026 41.2856205 43.9369641 41.2856205"></polygon>
                    </g>
                </g>
            </g>
        </g>
    </g>
</svg>