<?xml version="1.0" encoding="UTF-8" standalone="no"?>
<svg width="322px" height="250px" viewBox="0 0 322 250" version="1.1" xmlns="http://www.w3.org/2000/svg" xmlns:xlink="http://www.w3.org/1999/xlink">
    <!-- Generator: sketchtool 39.1 (31720) - http://www.bohemiancoding.com/sketch -->
    <title>05D53D90-40E5-4C99-82FE-D0F04BFFAE49</title>
    <desc>Created with sketchtool.</desc>
    <defs>
        <linearGradient x1="-14.5019123%" y1="0%" x2="-10.131987%" y2="51.4879808%" id="linearGradient-1">
            <stop stop-color="#050505" stop-opacity="0.5" offset="0%"></stop>
            <stop stop-color="#020202" stop-opacity="0" offset="100%"></stop>
        </linearGradient>
    </defs>
    <g id="Page-1" stroke="none" stroke-width="1" fill="none" fill-rule="evenodd">
        <g id="Angebot-1" transform="translate(-53.000000, -127.000000)">
            <g id="icon-angebot-1" transform="translate(55.000000, 128.000000)">
                <polygon id="Fill-1" fill="url(#linearGradient-1)" points="70.934639 151.340997 352.06734 432.02751 352.300275 272.140347 151.122535 71.2803682"></polygon>
                <g id="Group-6" transform="translate(0.000000, 0.556933)">
                    <path d="M124.207195,53.6366127 C116.670519,61.1613265 105.144831,61.1613265 97.6096883,53.6366127 C90.073013,46.1118989 90.073013,34.6045032 97.6096883,27.0813194 L102.041584,22.6549272 L79.8775065,0.526026148 L53.28,27.0813194 L48.8465714,22.6549272 C41.3098961,15.1302134 29.7842078,15.1302134 22.2490649,22.6549272 C14.7123896,30.179641 14.7123896,41.6870367 22.2490649,49.2102205 L26.680961,53.6366127 L0.0834545455,80.191906 L22.2490649,102.322337 L17.8156364,106.748729 C10.278961,114.271913 10.278961,125.779309 17.8156364,133.304023 C25.3523117,140.827206 36.878,140.827206 44.4131429,133.304023 L48.8465714,128.87763 L71.0106494,151.008061 L97.6096883,124.451238 L102.041584,128.87763 C109.57826,136.402344 121.103948,136.402344 128.640623,128.87763 C136.175766,121.352917 136.175766,109.845521 128.640623,102.322337 L124.207195,97.8959449 L150.804701,71.3406516 L128.640623,49.2102205 L124.207195,53.6366127 Z" id="Fill-2" fill="#002F47"></path>
                    <path d="M124.207195,53.6366127 C116.670519,61.1613265 105.144831,61.1613265 97.6096883,53.6366127 C90.073013,46.1118989 90.073013,34.6045032 97.6096883,27.0813194 L102.041584,22.6549272 L79.8775065,0.526026148 L53.28,27.0813194 L48.8465714,22.6549272 C41.3098961,15.1302134 29.7842078,15.1302134 22.2490649,22.6549272 C14.7123896,30.179641 14.7123896,41.6870367 22.2490649,49.2102205 L26.680961,53.6366127 L0.0834545455,80.191906 L22.2490649,102.322337 L17.8156364,106.748729 C10.278961,114.271913 10.278961,125.779309 17.8156364,133.304023 C25.3523117,140.827206 36.878,140.827206 44.4131429,133.304023 L48.8465714,128.87763 L71.0106494,151.008061 L97.6096883,124.451238 L102.041584,128.87763 C109.57826,136.402344 121.103948,136.402344 128.640623,128.87763 C136.175766,121.352917 136.175766,109.845521 128.640623,102.322337 L124.207195,97.8959449 L150.804701,71.3406516 L128.640623,49.2102205 L124.207195,53.6366127 L124.207195,53.6366127 Z" id="Stroke-4" stroke="#BDCCD4" stroke-width="2"></path>
                </g>
            </g>
        </g>
    </g>
</svg>