<?xml version="1.0" encoding="UTF-8" standalone="no"?>
<svg width="127px" height="139px" viewBox="0 0 127 139" version="1.1" xmlns="http://www.w3.org/2000/svg" xmlns:xlink="http://www.w3.org/1999/xlink">
    <!-- Generator: Sketch 46.2 (44496) - http://www.bohemiancoding.com/sketch -->
    <title>openshift_schild</title>
    <desc>Created with Sketch.</desc>
    <defs>
        <rect id="path-1" x="0" y="0" width="127" height="139"></rect>
    </defs>
    <g id="Pages" stroke="none" stroke-width="1" fill="none" fill-rule="evenodd">
        <g id="16:9-copy-4" transform="translate(-577.000000, -128.000000)">
            <g id="openshift_schild" transform="translate(577.000000, 128.000000)">
                <mask id="mask-2" fill="white">
                    <use xlink:href="#path-1"></use>
                </mask>
                <g id="Mask"></g>
                <g mask="url(#mask-2)" id="Infographic_Big-picture" fill-rule="nonzero">
                    <g>
                        <g id="openshift">
                            <rect id="Rectangle-path" fill="#F6F5F5" x="15.4608696" y="12.1098655" width="111.53913" height="111.190583"></rect>
                            <rect id="Rectangle-path" fill="#F2F2F2" x="15.4608696" y="12.1098655" width="24.2956522" height="111.190583"></rect>
                            <rect id="Rectangle-path" fill="#CCCCCC" x="2" y="0" width="12" height="491"></rect>
                            <rect id="Rectangle-path" fill="#898989" x="8" y="0" width="6" height="491"></rect>
                            <rect id="Rectangle-path" fill="#B3B3B3" x="0" y="4.40358744" width="15.4608696" height="125.502242"></rect>
                            <rect id="Rectangle-path" fill="#808080" x="7.73043478" y="4.40358744" width="7.73043478" height="125.502242"></rect>
                            <path d="M57.0815179,56.1457399 L45.2782609,60.4495024 C45.4350478,62.34026 45.747799,64.2147656 46.2133097,66.0538117 L57.426087,61.9631975 C57.0540216,60.047966 56.9381771,58.0916164 57.0816084,56.1457399" id="Shape" fill="#DB242F"></path>
                            <path d="M107.121739,43.3297159 C106.31929,41.6536827 105.377602,40.0485591 104.306675,38.5313901 L92.7652174,42.7496904 C94.093035,44.1217878 95.2335352,45.6649015 96.1568095,47.338565 L107.121739,43.3297159 Z" id="Shape" fill="#DB242F"></path>
                            <path d="M80.9007839,39.8786113 C83.1786082,40.9607424 85.2445137,42.4508966 86.9988661,44.2772068 L98.2869565,40.1164828 C89.8659016,28.1688685 74.6104308,23.3742892 60.9889406,28.3942426 C47.3674505,33.414196 38.7236691,47.0164117 39.8558075,61.6502242 L51.1448721,57.4904429 C51.6518909,50.5368315 55.5058091,44.2812572 61.4504008,40.7627917 C67.3949924,37.2443263 74.6687762,36.9136728 80.9007839,39.8786113" id="Shape" fill="#DB242F"></path>
                            <path d="M46.2340175,64.9529357 L35.3391304,68.7204771 C36.3446301,72.506064 38.0819166,76.0813976 40.462601,79.264574 L51.9043478,75.3107099 C48.9888622,72.4583889 47.0175358,68.8574357 46.2340175,64.9529148" id="Shape" fill="#DB242F"></path>
                            <path d="M93.5442809,61.3982589 C93.3588285,63.9411084 92.7167423,66.4283843 91.6495494,68.7379594 C86.7423837,79.3603637 74.2673852,83.9566842 63.7637675,79.0122684 C61.4798896,77.9359734 59.408531,76.447947 57.6509064,74.6209002 L46.3826087,78.7734212 C54.7999354,90.724695 70.0589511,95.5232084 83.6837755,90.5035452 C97.3085998,85.4838821 105.951879,71.8792758 104.812557,57.2466368 L93.5442809,61.3982589 Z" id="Shape" fill="#DB242F"></path>
                            <path d="M96.1203338,47.338565 L85.0347826,51.1670667 C87.1138407,54.6935645 88.057261,58.7210938 87.7482657,62.7511211 L99.3913043,58.7326963 C99.0578459,54.7746275 97.9485209,50.9104012 96.1203338,47.3385863" id="Shape" fill="#DB242F"></path>
                            <path d="M36.4217804,103.190169 C35.0182917,103.190169 34.0878486,104.275079 34.0878486,106.222939 C34.0878486,108.171836 35.0609298,109.283485 36.4649164,109.283485 C37.867929,109.283485 38.7983504,108.199571 38.7983504,106.250715 C38.7983504,104.30186 37.8247714,103.190169 36.421867,103.190169 M36.4360869,111.190583 C33.8153755,111.190583 32.026087,109.352666 32.026087,106.250694 C32.026087,103.148723 33.8443132,101.282511 36.4650246,101.282511 C39.0705421,101.282511 40.8608696,103.122502 40.8608696,106.223354 C40.8603718,109.324766 39.0421672,111.1905 36.4361519,111.1905" id="Shape" fill="#251F21"></path>
                            <path d="M47.3229376,104.3239 L45.0478427,104.3239 L45.0478427,106.866245 L47.3508957,106.866245 C48.2690712,106.866245 48.7644362,106.442026 48.7644362,105.581522 C48.7644362,104.719566 48.198439,104.3239 47.3227454,104.3239 M47.2235784,108.788492 L45.0476505,108.788492 L45.0476505,112.29148 L43.0695652,112.29148 L43.0695652,102.402123 L47.3936125,102.402123 C48.2760247,102.304259 49.15757,102.593391 49.8105706,103.194844 C50.4635711,103.796298 50.8239961,104.651095 50.798758,105.538468 C50.798758,107.827849 49.2730006,108.788492 47.2238133,108.788492" id="Shape" fill="#251F21"></path>
                            <polygon id="Shape" fill="#251F21" points="53.0086957 112.29148 53.0086957 102.383408 60.5081971 102.383408 60.5081971 104.322223 55.1687387 104.322223 55.1687387 106.034201 58.2711763 106.034201 58.2711763 107.960176 55.1687387 107.960176 55.1687387 110.352665 60.7391304 110.352665 60.7391304 112.29148"></polygon>
                            <path d="M67.8696636,112.29148 L64.3655177,106.883568 C64.133995,106.516195 63.8203038,106.020367 63.6980094,105.765445 C63.6980094,106.13378 63.7250897,107.379396 63.7250897,107.931417 L63.7250897,112.29148 L61.8434783,112.29148 L61.8434783,102.383408 L63.6704756,102.383408 L67.0518736,107.620238 C67.2829429,107.988573 67.5970875,108.484401 67.7198353,108.738361 C67.7198353,108.370026 67.6923016,107.125394 67.6923016,106.572388 L67.6923016,102.383408 L69.573913,102.383408 L69.573913,112.291458 L67.8696842,112.291458 L67.8696636,112.29148 Z" id="Shape" fill="#251F21"></path>
                            <path d="M76.2208872,111.190583 C74.9715064,111.190475 73.7729345,110.712215 72.8869565,109.860263 L73.6252352,109.064037 C74.3108576,109.77284 75.2604858,110.187886 76.2636266,110.217176 C77.5833155,110.217176 78.406108,109.585833 78.406108,108.570241 C78.406108,107.678653 77.8524043,107.170857 76.0368054,106.539991 C73.8948172,105.798726 73.1710996,105.127001 73.1710996,103.740767 C73.1710996,102.204686 74.4198707,101.284457 76.2777158,101.284457 C77.3823398,101.252323 78.4597392,101.619246 79.2998183,102.313674 L78.5901898,103.150302 C77.9429244,102.56946 77.0902276,102.250414 76.2072912,102.258714 C74.8453561,102.258714 74.2775633,102.917289 74.2775633,103.671703 C74.2775633,104.467929 74.6467133,104.920245 76.6327767,105.607524 C78.8315934,106.375565 79.5130435,107.088167 79.5130435,108.515716 C79.5125502,110.025021 78.2919575,111.190459 76.2208872,111.190459" id="Shape" fill="#251F21"></path>
                            <polygon id="Shape" fill="#251F21" points="88.2557419 112.29148 88.2557419 107.61992 82.9181711 107.61992 82.9181711 112.29148 81.7217391 112.29148 81.7217391 102.383408 82.9181711 102.383408 82.9181711 106.616273 88.2557419 106.616273 88.2557419 102.383408 89.4521739 102.383408 89.4521739 112.29148"></polygon>
                            <rect id="Rectangle-path" fill="#251F21" x="92.7652174" y="102.383408" width="1.13909061" height="9.90807175"></rect>
                            <polygon id="Shape" fill="#251F21" points="97.1261525 103.387055 97.1261525 106.671913 99.7052657 106.671913 99.7052657 107.6777 97.1261525 107.6777 97.1261525 112.29148 96.0782609 112.29148 96.0782609 102.383408 101.6 102.383408 101.6 103.387055"></polygon>
                            <polygon id="Shape" fill="#251F21" points="103.808696 102.383408 103.808696 103.387055 106.594432 103.387055 106.594432 112.29148 107.649046 112.29148 107.649046 103.387055 110.434783 103.387055 110.434783 102.383408"></polygon>
                        </g>
                    </g>
                </g>
            </g>
        </g>
    </g>
</svg>