<svg width="132" height="142" viewBox="0 0 132 142" xmlns="http://www.w3.org/2000/svg"><title>openshift_logo</title><g fill="none" fill-rule="evenodd"><path d="M106.74 33.966l16.458-6.04c-1.293-2.69-2.79-5.29-4.52-7.737l-7.716 2.83A52.84 52.84 0 0 0 90.265 5.653C63.765-6.8 32.15 4.8 19.793 31.51a53.49 53.49 0 0 0-4.788 26.717l7.716-2.83a54.97 54.97 0 0 0 1.47 8.855L7.73 70.295a54.325 54.325 0 0 0 8.283 18.1l13.2-4.842-4.458 1.635a52.676 52.676 0 0 0 20.684 17.37c26.5 12.455 58.11.854 70.465-25.86a53.295 53.295 0 0 0 4.772-26.704l-18.5 6.788a34.5 34.5 0 0 1-3.11 12C91.04 86.14 70.504 93.67 53.29 85.578a34.095 34.095 0 0 1-10.036-7.18l-8.743 3.208c-4.745-4.916-7.903-11.135-9.164-17.78l16.458-6.04a35.01 35.01 0 0 1-.54-9.194l-7.717 2.83c.307-4.048 1.29-8.105 3.084-11.996C44.658 22.07 65.194 14.54 82.41 22.632c3.857 1.814 7.197 4.29 10.015 7.19l7.716-2.83c2.16 2.224 3.97 4.723 5.448 7.396l-16.46 6.04c3.27 5.91 4.816 12.714 4.31 19.557l18.5-6.784a54.2 54.2 0 0 0-5.197-19.232z" fill="#DB242F"/><path d="M.805 133.057c0-5.36 2.987-8.584 7.29-8.584 4.28 0 7.222 3.18 7.222 8.537 0 5.358-2.988 8.582-7.268 8.582-4.308 0-7.247-3.176-7.247-8.535zm7.22-5.288c-2.305 0-3.833 1.87-3.833 5.24 0 3.364 1.598 5.285 3.904 5.285 2.305 0 3.833-1.873 3.833-5.24 0-3.368-1.6-5.288-3.906-5.288zm17.797 7.68h-3.62v5.88h-3.294V124.73h7.197c3.104 0 5.668 1.732 5.668 5.264 0 3.842-2.54 5.454-5.95 5.454zm9.355 5.88v-16.596h11.43v3.247H38.47v2.87h4.727v3.225H38.47v4.006h8.49v3.25H35.177zm25.96 0l-6.046-9.06c-.396-.614-.94-1.445-1.15-1.87 0 .615.048 2.702.048 3.626v7.303H50.74v-16.595h3.152l5.833 8.77c.4.618.94 1.45 1.152 1.874 0-.618-.047-2.703-.047-3.63v-7.015h3.246v16.595h-2.94zm12.957.26c-2.234 0-4.234-.97-5.527-2.3l1.224-1.375c1.25 1.21 2.68 1.993 4.377 1.993 2.188 0 3.552-1.09 3.552-2.847 0-1.54-.92-2.42-3.93-3.51-3.55-1.28-4.75-2.44-4.75-4.835 0-2.655 2.07-4.245 5.15-4.245 2.21 0 3.62.664 5.01 1.778l-1.177 1.447c-1.2-.996-2.304-1.54-3.95-1.54-2.258 0-3.2 1.138-3.2 2.44 0 1.377.613 2.16 3.905 3.347 3.645 1.327 4.775 2.558 4.775 5.025 0 2.607-2.024 4.62-5.458 4.62zm19.56-.26v-7.825H85.47v7.824h-1.83v-16.595h1.834v7.088h8.185v-7.088h1.834v16.595H93.66zm6.557-16.596h1.837v16.595h-1.834v-16.595zm8.394 1.68v5.503h4.515v1.682h-4.516v7.73h-1.834v-16.597h9.665v1.68h-7.832zm11.123-1.682v1.684h4.845v14.913h1.835v-14.91h4.846v-1.685H119.73zm-93.738 3.225H22.2v4.266h3.834c1.528 0 2.353-.712 2.353-2.156 0-1.447-.942-2.11-2.4-2.11z" fill="#251F21"/></g></svg>