<svg width="281" height="73" viewBox="0 0 281 73" xmlns="http://www.w3.org/2000/svg"><title>logo_puzzle_tagline_rvb</title><g fill="none" fill-rule="evenodd"><path d="M93.196 33.15h4.59c1.336 0 2.353-.366 3.05-1.1.7-.73 1.047-1.672 1.047-2.823 0-1.176-.348-2.136-1.047-2.888-.697-.75-1.714-1.126-3.05-1.126h-4.59v7.935zm0 4.72v9.062h-6.173v-26.44h10.764c3.144 0 5.64.802 7.484 2.406 1.848 1.605 2.77 3.702 2.77 6.292 0 2.604-.922 4.702-2.77 6.294-1.844 1.59-4.34 2.387-7.483 2.387h-4.59zm39.195-17.378v17.324c0 3.016-1.004 5.352-3.013 7.012-2.01 1.657-4.64 2.486-7.894 2.486-3.29 0-5.943-.83-7.96-2.486-2.014-1.66-3.023-3.996-3.023-7.012V20.492h6.174v17.324c0 1.624.42 2.825 1.257 3.606.838.78 2.023 1.17 3.553 1.17 1.517 0 2.685-.387 3.505-1.16.82-.776 1.23-1.98 1.23-3.616V20.492h6.173zm10.004 21.72h12.076v4.72h-19.652v-2.76l11.856-18.958h-11.91v-4.722h19.543v2.652l-11.913 19.068zm21.578 0h12.076v4.72h-19.65v-2.76l11.855-18.958H156.34v-4.722h19.544v2.652l-11.912 19.068zm20.56 0h11.418v4.72h-17.594v-26.44h6.175v21.72zm30.13-6.593h-10.4v6.592h12.257v4.72h-18.43v-26.44h18.465v4.722h-12.293v5.684h10.4v4.72zm20.487 11.313h-6.138v-26.44h6.137v26.44zm22.405-21.72h-6.994v21.72h-6.173v-21.72h-6.94v-4.72h20.108v4.72zm22.47 12.44l.036.11c-.12 3.1-1.042 5.465-2.758 7.1-1.72 1.634-4.21 2.45-7.477 2.45-3.278 0-5.943-1.004-7.995-3.014-2.052-2.01-3.078-4.62-3.078-7.827v-5.52c0-3.197.986-5.802 2.96-7.818 1.973-2.016 4.536-3.024 7.695-3.024 3.35 0 5.91.843 7.683 2.525 1.775 1.683 2.775 4.073 3.006 7.173l-.035.11h-5.992c-.085-1.72-.47-2.998-1.156-3.832-.686-.836-1.856-1.253-3.505-1.253-1.398 0-2.496.56-3.298 1.68-.8 1.12-1.202 2.587-1.202 4.403v5.557c0 1.828.437 3.306 1.31 4.43.875 1.127 2.077 1.69 3.607 1.69 1.48 0 2.532-.394 3.15-1.18.62-.787.972-2.04 1.056-3.76h5.995zM10.59 62.197c-14.12-14.08-14.12-36.904 0-50.983 14.118-14.076 37.01-14.075 51.13 0 14.12 14.08 14.118 36.903 0 50.982-14.12 14.08-37.01 14.08-51.13 0zm79.34.105c.428 0 .804-.13 1.13-.394.323-.263.486-.585.486-.97h1.158l.012.04c.022.61-.25 1.15-.814 1.625a2.974 2.974 0 0 1-1.97.71c-1.03 0-1.817-.333-2.362-1.002-.545-.67-.817-1.51-.817-2.524v-.274c0-1.004.273-1.842.82-2.514.548-.67 1.333-1.007 2.358-1.007.83 0 1.506.242 2.032.73a2.27 2.27 0 0 1 .76 1.792l-.012.04h-1.164c0-.43-.152-.797-.458-1.1-.305-.3-.69-.453-1.157-.453-.675 0-1.157.242-1.447.726-.29.483-.435 1.077-.435 1.78v.274c0 .72.143 1.32.43 1.8.29.48.773.72 1.453.72zm5.563-5.235a2.61 2.61 0 0 1 .9-.792c.354-.19.748-.284 1.18-.284.753 0 1.34.225 1.76.677.422.452.633 1.148.633 2.086v4.42h-1.29v-4.432c0-.582-.124-1.012-.375-1.29-.25-.28-.623-.418-1.12-.418-.358 0-.682.084-.97.25-.29.17-.53.396-.717.682v5.21h-1.29v-10.17h1.29v4.06zm8.43 5.164c.466 0 .888-.12 1.262-.36.375-.237.62-.51.733-.818v-1.144h-1.446c-.518 0-.933.13-1.245.39-.31.26-.467.566-.467.916 0 .313.098.56.294.742.196.182.485.273.87.273zm2.14.944a10.47 10.47 0 0 1-.103-.563 4.245 4.245 0 0 1-.042-.492 2.99 2.99 0 0 1-.94.85c-.384.23-.8.343-1.244.343-.737 0-1.298-.187-1.684-.563-.386-.375-.58-.894-.58-1.555 0-.673.275-1.2.822-1.58.547-.382 1.29-.572 2.227-.572h1.398v-.697c0-.413-.126-.74-.38-.98-.252-.242-.61-.364-1.07-.364-.416 0-.753.105-1.012.316-.26.21-.39.464-.39.76h-1.23l-.012-.04c-.026-.512.217-.982.73-1.408.51-.426 1.173-.64 1.985-.64.8 0 1.445.204 1.934.61.488.407.732.993.732 1.757v3.398c0 .252.013.495.04.73.025.235.073.465.144.69h-1.328zm4.13-7.055l.09 1.05c.236-.375.532-.665.887-.87a2.37 2.37 0 0 1 1.213-.31c.763 0 1.353.222 1.772.667.418.446.627 1.134.627 2.064v4.454h-1.287v-4.427c0-.62-.124-1.063-.37-1.323s-.623-.39-1.128-.39c-.37 0-.7.088-.984.266a1.96 1.96 0 0 0-.683.73v5.144h-1.288V56.12h1.15zm7.424 3.794c0 .71.15 1.278.45 1.71.302.43.76.644 1.374.644.39 0 .714-.088.976-.264.26-.176.477-.425.647-.747V58.01a1.99 1.99 0 0 0-.647-.714c-.266-.176-.586-.264-.96-.264-.616 0-1.077.257-1.38.77-.307.512-.46 1.172-.46 1.975v.137zm-1.288-.137c0-1.135.247-2.05.744-2.745.497-.695 1.184-1.043 2.06-1.043.45 0 .844.09 1.183.27.34.18.624.44.85.78l.157-.92h1.027v7.093c0 .904-.262 1.6-.79 2.084s-1.288.726-2.282.726c-.34 0-.707-.046-1.102-.14a4.34 4.34 0 0 1-1.043-.38l.327-.998c.23.13.51.235.837.316.327.08.65.12.968.12.627 0 1.084-.14 1.37-.426.286-.285.428-.718.428-1.3v-.796a2.25 2.25 0 0 1-.83.668c-.323.15-.693.225-1.112.225-.867 0-1.55-.312-2.046-.938-.497-.626-.745-1.445-.745-2.458v-.137zm9.217 3.398h-1.288V56.12h1.287v7.055zm0-8.862h-1.288v-1.31h1.287v1.31zm3.06 1.806l.092 1.05c.234-.375.53-.665.884-.87a2.37 2.37 0 0 1 1.214-.31c.763 0 1.353.222 1.772.667.418.446.627 1.134.627 2.064v4.454h-1.287v-4.427c0-.62-.124-1.063-.37-1.323s-.623-.39-1.128-.39c-.37 0-.7.088-.984.266a1.96 1.96 0 0 0-.683.73v5.144h-1.29V56.12h1.152zm7.425 3.794c0 .71.15 1.278.452 1.71.3.43.758.644 1.373.644.388 0 .713-.088.974-.264.263-.176.48-.425.648-.747V58.01a1.99 1.99 0 0 0-.647-.714c-.265-.176-.585-.264-.96-.264-.615 0-1.075.257-1.38.77-.305.512-.458 1.172-.458 1.975v.137zm-1.288-.137c0-1.135.25-2.05.746-2.745.497-.695 1.184-1.043 2.06-1.043.448 0 .843.09 1.183.27.34.18.624.44.85.78l.157-.92h1.027v7.093c0 .904-.264 1.6-.79 2.084-.53.484-1.29.726-2.283.726-.34 0-.708-.046-1.102-.14a4.34 4.34 0 0 1-1.043-.38l.325-.998c.23.13.51.235.837.316.328.08.65.12.968.12.628 0 1.085-.14 1.37-.426.286-.285.428-.718.428-1.3v-.796a2.25 2.25 0 0 1-.83.668c-.323.15-.692.225-1.11.225-.87 0-1.55-.312-2.048-.938-.497-.626-.746-1.445-.746-2.458v-.137zm12.823 3.398h-1.295V53.68h1.295v9.495zm8.84-8.483h-3.06v8.482h-1.288v-8.482h-3.054v-1.01h7.402v1.01zm5.022 8.482V57.07h-1.106v-.95h1.105v-.894c0-.752.197-1.334.59-1.744.396-.41.946-.616 1.653-.616.147 0 .297.012.447.036.15.024.317.058.5.1l-.157.98a2.728 2.728 0 0 0-.283-.046 2.818 2.818 0 0 0-.35-.02c-.376 0-.655.11-.838.336-.183.223-.274.55-.274.974v.893h1.47v.95h-1.47v6.104h-1.29zm4.835-3.452c0 .747.16 1.364.474 1.85.316.486.786.73 1.41.73.613 0 1.08-.244 1.398-.73.318-.486.478-1.103.478-1.85v-.144c0-.738-.16-1.352-.48-1.842-.32-.49-.79-.736-1.41-.736-.615 0-1.08.245-1.397.736-.316.49-.475 1.104-.475 1.842v.144zm-1.288-.14c0-1.044.283-1.903.85-2.58.567-.675 1.336-1.013 2.31-1.013.98 0 1.755.336 2.323 1.01.57.674.854 1.535.854 2.58v.146c0 1.05-.283 1.912-.85 2.58-.567.67-1.34 1.005-2.315 1.005-.978 0-1.75-.335-2.32-1.006-.568-.672-.853-1.53-.853-2.578v-.145zm11.245-2.328l-.66-.04c-.34 0-.628.08-.86.242a1.55 1.55 0 0 0-.54.68v5.04h-1.288V56.12h1.15l.125 1.03c.2-.365.446-.65.74-.855a1.743 1.743 0 0 1 1.018-.306 1.867 1.867 0 0 1 .49.07l-.176 1.194zm6.27-2.837v1.703h1.342v.952h-1.34v4.283c0 .33.067.563.205.698.136.135.318.202.545.202a1.502 1.502 0 0 0 .484-.092l.17.88a1.142 1.142 0 0 1-.423.192c-.185.05-.372.075-.56.075-.522 0-.94-.156-1.248-.472-.31-.315-.466-.81-.466-1.483v-4.283h-1.124v-.952h1.124v-1.703h1.29zm4.05 2.648a2.61 2.61 0 0 1 .9-.792c.355-.19.75-.284 1.18-.284.754 0 1.342.225 1.763.677.42.452.63 1.148.63 2.086v4.42h-1.287v-4.432c0-.582-.126-1.012-.376-1.29-.25-.28-.625-.418-1.122-.418-.357 0-.68.084-.97.25-.29.17-.53.396-.717.682v5.21h-1.288v-10.17h1.288v4.06zM195.57 57c-.432 0-.8.18-1.105.542-.305.362-.493.816-.562 1.362l.012.032h3.264v-.17c0-.5-.136-.922-.406-1.26-.27-.337-.672-.507-1.204-.507zm.197 6.31c-.986 0-1.77-.326-2.352-.98-.58-.654-.872-1.503-.872-2.546v-.287c0-1.004.3-1.84.898-2.507.602-.667 1.31-1 2.13-1 .955 0 1.676.286 2.165.86.487.574.732 1.338.732 2.295v.802h-4.59l-.02.033c.013.676.185 1.23.517 1.668.33.435.795.653 1.393.653a3.26 3.26 0 0 0 1.147-.185 2.64 2.64 0 0 0 .853-.512l.504.836c-.252.248-.586.455-1 .622-.414.166-.915.25-1.503.25zm12.228-3.532c0-.81-.15-1.47-.448-1.98-.3-.51-.754-.765-1.364-.765-.397 0-.73.096-1.003.29-.273.193-.49.453-.65.778v3.06a2.1 2.1 0 0 0 .65.815c.267.195.606.293 1.017.293.605 0 1.056-.215 1.353-.646.297-.43.445-1 .445-1.708v-.136zm1.288.136c0 1.017-.245 1.837-.736 2.462-.49.623-1.165.935-2.024.935-.467 0-.872-.09-1.216-.27a2.255 2.255 0 0 1-.857-.798l-.157.932h-1.052v-10.17h1.29v3.95c.22-.313.497-.552.826-.717.33-.165.713-.248 1.155-.248.872 0 1.55.347 2.04 1.043.488.695.733 1.61.733 2.745v.136zm4.29-2.915c-.433 0-.8.18-1.106.542-.306.362-.493.816-.562 1.362l.012.032h3.263v-.17c0-.5-.134-.922-.405-1.26-.27-.337-.67-.507-1.203-.507zm.196 6.31c-.987 0-1.77-.326-2.353-.98-.58-.654-.872-1.503-.872-2.546v-.287c0-1.004.3-1.84.898-2.507.6-.667 1.31-1 2.13-1 .954 0 1.675.286 2.164.86.487.574.732 1.338.732 2.295v.802h-4.59l-.02.033c.012.676.184 1.23.516 1.668.33.435.795.653 1.393.653a3.26 3.26 0 0 0 1.146-.185 2.64 2.64 0 0 0 .853-.512l.503.836c-.253.248-.587.455-1 .622-.415.166-.916.25-1.504.25zm5.867-8.893v1.703h1.34v.952h-1.34v4.283c0 .33.07.563.206.698.137.135.32.202.546.202a1.502 1.502 0 0 0 .484-.092l.17.88a1.142 1.142 0 0 1-.423.192c-.184.05-.37.075-.558.075-.523 0-.94-.156-1.25-.472-.31-.315-.463-.81-.463-1.483v-4.283h-1.126v-.952h1.125v-1.703h1.287zm4.79 0v1.703h1.34v.952h-1.34v4.283c0 .33.068.563.205.698.138.135.32.202.546.202a1.502 1.502 0 0 0 .484-.092l.17.88a1.142 1.142 0 0 1-.422.192c-.185.05-.37.075-.56.075-.522 0-.94-.156-1.248-.472-.31-.315-.464-.81-.464-1.483v-4.283h-1.125v-.952h1.125v-1.703h1.288zM229.71 57c-.43 0-.8.18-1.104.542-.306.362-.493.816-.562 1.362l.012.032h3.263v-.17c0-.5-.135-.922-.406-1.26-.27-.337-.67-.507-1.203-.507zm.197 6.31c-.985 0-1.77-.326-2.35-.98-.583-.654-.874-1.503-.874-2.546v-.287c0-1.004.3-1.84.9-2.507.6-.667 1.308-1 2.128-1 .955 0 1.677.286 2.165.86.488.574.732 1.338.732 2.295v.802h-4.59l-.02.033c.014.676.186 1.23.517 1.668.33.435.796.653 1.393.653a3.26 3.26 0 0 0 1.147-.185 2.64 2.64 0 0 0 .854-.512l.503.836c-.252.248-.585.455-1 .622-.413.166-.915.25-1.503.25zm7.542-6.056l-.66-.04c-.34 0-.628.08-.862.242a1.55 1.55 0 0 0-.54.68v5.04h-1.287V56.12h1.152l.124 1.03c.2-.365.448-.65.742-.855a1.743 1.743 0 0 1 1.018-.306 1.867 1.867 0 0 1 .49.07l-.178 1.194z" fill="#1E5A96"/><path d="M53.963 37.7c-1.268 3.43-8.685 3.4-18.756 3.43 0 0 6.507-.917 8.387-4.54 1.88-3.62 4.097-10.958 4.097-10.958-10.018 0-10.91 3.5-10.91 3.5S30.445 46.785 28.187 53.3c-17.546 0-14.742-8.64-14.742-8.64l8.777-24.55h17.78l-1.187 3.535s1.45-3.534 11.25-3.534c0 0 10.046.044 8.865 3.554-1.177 3.508-4.967 14.035-4.967 14.035" fill="#FFF"/></g></svg>