<?xml version="1.0" encoding="UTF-8" standalone="no"?>
<svg width="180px" height="180px" viewBox="0 0 180 180" version="1.1" xmlns="http://www.w3.org/2000/svg" xmlns:xlink="http://www.w3.org/1999/xlink">
    <!-- Generator: Sketch 39.1 (31720) - http://www.bohemiancoding.com/sketch -->
    <title>2</title>
    <desc>Created with Sketch.</desc>
    <defs></defs>
    <g id="Symbols" stroke="none" stroke-width="1" fill="none" fill-rule="evenodd">
        <g id="2">
            <g id="Group-2">
                <circle id="Oval-Copy" fill="#15B0BF" cx="90" cy="90" r="90"></circle>
                <g id="cloud-checked" transform="translate(29.000000, 53.000000)" stroke-width="2" stroke="#000000">
                    <g id="Layer_1">
                        <path d="M98.6135957,28.125 C98.2003578,28.125 97.8199911,28.2234375 97.411449,28.246875 C93.2790698,12.01875 78.5903399,0 61.0465116,0 C49.0015653,0 38.309034,5.68125 31.4342576,14.4796875 C30.3823792,14.23125 29.3023256,14.0625 28.1753131,14.0625 C20.3942308,14.0625 14.0876565,20.3578125 14.0876565,28.125 C14.0876565,28.7671875 14.1956619,29.38125 14.2754919,30 C5.88394454,33.5765625 0,41.878125 0,51.5625 C0,64.5046875 10.5140877,75 23.4794275,75 L98.6135957,75 C111.578936,75 122.093023,64.5046875 122.093023,51.5625 C122.093023,38.6203125 111.578936,28.125 98.6135957,28.125 L98.6135957,28.125 Z" id="Shape"></path>
                        <polyline id="Shape" points="42.2629696 37.5 56.3506261 51.5625 79.8300537 28.125"></polyline>
                    </g>
                </g>
            </g>
        </g>
    </g>
</svg>