<svg width="173" height="122" viewBox="0 0 173 122" xmlns="http://www.w3.org/2000/svg"><title>Logo_VSHN</title><g fill="none" fill-rule="evenodd"><path d="M88.51 121.587c.92-1.79 1.857-3.887 2.806-6.287.95-2.4 1.85-5.015 2.7-7.846h-4.168c-.18.7-.394 1.456-.64 2.27-.243.816-.496 1.64-.758 2.473a96.43 96.43 0 0 1-.8 2.43c-.272.79-.526 1.506-.76 2.15a43.435 43.435 0 0 1-.775-2.15 163.12 163.12 0 0 1-1.548-4.902 60.172 60.172 0 0 1-.638-2.27h-4.275a97.78 97.78 0 0 0 2.7 7.845c.95 2.4 1.887 4.496 2.81 6.287h3.343zm9.587-3.103a13.278 13.278 0 0 1-2.11-.63l-.675 3.25c.325.143.906.322 1.744.537.838.217 1.888.324 3.15.324 1.93 0 3.42-.357 4.475-1.072 1.057-.714 1.585-1.768 1.585-3.162 0-.59-.068-1.108-.204-1.555a3.163 3.163 0 0 0-.7-1.22c-.335-.366-.79-.708-1.367-1.024-.577-.315-1.307-.636-2.19-.96a12.68 12.68 0 0 1-1.07-.448 4.458 4.458 0 0 1-.66-.377.916.916 0 0 1-.325-.363 1.078 1.078 0 0 1-.08-.43c0-.698.63-1.048 1.892-1.048a8.38 8.38 0 0 1 1.85.19c.55.124 1.06.267 1.53.428l.702-3.116c-.47-.18-1.1-.344-1.893-.497a13.188 13.188 0 0 0-2.49-.23c-1.73 0-3.09.385-4.083 1.155-.992.77-1.487 1.818-1.487 3.143 0 .68.1 1.264.298 1.747.198.484.478.9.838 1.25a5.1 5.1 0 0 0 1.312.9c.514.25 1.085.492 1.717.725.81.303 1.415.576 1.812.818.396.242.595.524.595.847 0 .412-.154.69-.46.832-.307.144-.83.215-1.568.215-.704 0-1.416-.076-2.137-.228zm15.197 3.103V110.84c.252-.07.536-.14.85-.202a5.23 5.23 0 0 1 1.016-.094c.9 0 1.518.27 1.852.807.333.54.5 1.45.5 2.74v7.498h4.03v-7.98c0-.966-.095-1.844-.285-2.633-.19-.788-.513-1.468-.973-2.04-.46-.575-1.073-1.018-1.84-1.33-.765-.315-1.726-.472-2.88-.472-.396 0-.806.04-1.23.122a8.4 8.4 0 0 0-1.04.254v-6.77l-4.03.644v20.204h4.03zm11.897 0h4.03V110.68c.253-.036.54-.068.867-.095.324-.027.63-.04.92-.04.936 0 1.576.268 1.92.806.34.54.513 1.45.513 2.74v7.498h4.028v-7.98c0-.966-.1-1.844-.298-2.633-.198-.788-.53-1.468-1-2.04-.47-.575-1.105-1.018-1.906-1.33-.803-.315-1.808-.472-3.016-.472-1.19 0-2.325.085-3.407.255-1.08.17-1.963.354-2.65.55v13.65zm19.106-3.963a2.684 2.684 0 0 0-1.744-.63c-.648 0-1.23.21-1.743.63-.515.42-.77 1.034-.77 1.84s.255 1.42.77 1.84a2.68 2.68 0 0 0 1.743.632c.65 0 1.23-.21 1.745-.63.514-.422.77-1.036.77-1.84 0-.808-.256-1.42-.77-1.842zm2.407-.16c.28.903.72 1.687 1.324 2.35.604.663 1.375 1.187 2.312 1.572.936.384 2.054.577 3.352.577.85 0 1.624-.072 2.327-.215.702-.143 1.287-.313 1.757-.51l-.57-3.278c-.467.197-.98.34-1.54.43-.56.09-1.08.134-1.568.134-1.37 0-2.33-.35-2.88-1.048-.55-.698-.826-1.683-.826-2.955 0-1.2.293-2.165.88-2.9.585-.734 1.473-1.1 2.662-1.1.56 0 1.064.052 1.515.16.45.11.865.233 1.244.376l.838-3.197a10.2 10.2 0 0 0-1.838-.58 10.02 10.02 0 0 0-2.082-.2c-1.154 0-2.18.197-3.083.59a6.91 6.91 0 0 0-2.3 1.6 6.902 6.902 0 0 0-1.446 2.363 8.27 8.27 0 0 0-.5 2.89c0 1.056.14 2.037.42 2.94zm17.806 4.123V110.84c.25-.07.535-.14.85-.202a5.212 5.212 0 0 1 1.014-.094c.902 0 1.518.27 1.852.807.334.54.5 1.45.5 2.74v7.498h4.03v-7.98c0-.966-.095-1.844-.284-2.633-.188-.788-.513-1.468-.973-2.04-.46-.575-1.074-1.018-1.84-1.33-.767-.315-1.727-.472-2.88-.472-.397 0-.807.04-1.23.122a8.39 8.39 0 0 0-1.04.254v-6.77l-4.03.644v20.204h4.03z" fill="#231F20"/><path d="M86.354 76.594c17.13 0 31.014-13.762 31.014-30.738S103.483 15.12 86.354 15.12c-17.128 0-31.014 13.76-31.014 30.736s13.886 30.738 31.014 30.738" fill="#2384C6"/><path d="M93.374 31.983c17.16 12.634 18.37 31.53 18.37 31.53 3.47-4.713 5.624-11.085 5.624-17.657 0-16.976-13.885-30.738-31.014-30.738-7.843 0-15.99 3.224-20.468 7.645 0 0 13.725-.912 27.488 9.22" fill="#135887"/><path d="M.27 39.864V52.42l51.014 29.297-.014-12.865-40.236-22.477 39.74-22.925-.014-12.852L.27 39.864zm121.167-28.997l51.015 29.297V52.72l-50.51 29.547-.005-13.14 39.75-22.918-40.262-22.478.012-12.866z" fill="#231F20"/><path d="M113.967 8.535v12.05s-12.677-9.207-28.026-9.207c-16.602 0-35.155 12.08-35.155 12.08l-.024-12.86C63.594 3.774 75.005.148 86.08.148c13.535 0 27.887 8.386 27.887 8.386M58.773 84.11l-.04-12.09s12.677 9.276 28.025 9.276c16.604 0 35.294-12.25 35.294-12.25v13.19c-12.833 6.822-24.357 10.29-35.434 10.29-13.534 0-27.845-8.416-27.845-8.416" fill="#2384C6"/></g></svg>