<svg width="301" height="84" viewBox="0 0 301 84" fill="none" xmlns="http://www.w3.org/2000/svg">
<path d="M88.3325 79.1539C87.647 79.158 86.9679 79.0218 86.3375 78.7537C85.7309 78.4944 85.1781 78.125 84.7072 77.6643C84.2407 77.1917 83.8715 76.6328 83.6204 76.0191C83.0946 74.7084 83.0946 73.2466 83.6204 71.9358C83.8697 71.3235 84.2392 70.7667 84.7072 70.2981C85.1777 69.8351 85.7305 69.4632 86.3375 69.2013C87.611 68.6681 89.0466 68.6681 90.3201 69.2013C90.9291 69.4595 91.4826 69.8319 91.9504 70.2981C92.4184 70.7667 92.7879 71.3235 93.0372 71.9358C93.3021 72.5853 93.4361 73.2803 93.4319 73.9812V74.663H85.2878C85.3547 75.0532 85.4881 75.4292 85.6824 75.7746C85.856 76.0918 86.0884 76.3735 86.3673 76.6046C86.6391 76.8303 86.9491 77.006 87.2829 77.1233C87.6195 77.2435 87.9749 77.3038 88.3325 77.3012C88.7783 77.3125 89.2224 77.2422 89.6427 77.0937C89.9614 76.9835 90.2605 76.8234 90.5285 76.6194C90.7833 76.4292 91.0025 76.196 91.1762 75.9302H93.335C93.0924 76.5312 92.7389 77.0817 92.2928 77.5532C92.0827 77.7628 91.8589 77.9584 91.6228 78.1386C91.3587 78.3479 91.0684 78.5222 90.7593 78.6574C90.4082 78.8159 90.0415 78.9376 89.665 79.0205C89.227 79.1126 88.7802 79.1573 88.3325 79.1539ZM91.3102 73.003C91.2548 72.7032 91.1544 72.4134 91.0124 72.1433C90.872 71.8572 90.6714 71.6045 90.4243 71.4023C89.5723 70.7046 88.4221 70.4868 87.3722 70.8242C87.0557 70.9274 86.7587 71.0827 86.4938 71.2837C86.2235 71.4864 85.9937 71.7378 85.8164 72.0248C85.6281 72.3279 85.4946 72.6615 85.4218 73.0104L91.3102 73.003Z" fill="#800D4B"/>
<path d="M97.4442 73.9812L94.4665 69.0012H96.8263L99.0596 73.003H99.5435L101.777 69.0012H104.218L101.241 73.9812L104.278 78.9612H101.985L99.5956 74.8483H99.1117L96.7742 78.9612H94.4219L97.4442 73.9812Z" fill="#800D4B"/>
<path d="M106.087 69.0012H108.149V70.2684H108.246C108.482 69.9895 108.752 69.7406 109.05 69.5274C109.356 69.3252 109.683 69.1563 110.025 69.0234C110.459 68.8581 110.922 68.7776 111.387 68.7863C112.024 68.7809 112.655 68.9071 113.241 69.1568C113.801 69.4042 114.307 69.7593 114.73 70.2017C115.168 70.675 115.509 71.2288 115.735 71.8321C116.221 73.2112 116.221 74.7141 115.735 76.0932C115.511 76.6974 115.169 77.2515 114.73 77.7236C113.867 78.6455 112.652 79.1599 111.387 79.1391C110.923 79.1486 110.461 79.0733 110.025 78.9167C109.682 78.7892 109.354 78.6226 109.05 78.4202C108.749 78.2104 108.479 77.9612 108.246 77.6791H108.149V82.6591H106.087V69.0012ZM110.993 77.3012C111.795 77.3382 112.574 77.0273 113.129 76.449C114.21 74.9771 114.21 72.9779 113.129 71.506C112.571 70.9328 111.793 70.6252 110.993 70.6612C110.22 70.6356 109.473 70.9436 108.945 71.506C107.883 72.9839 107.883 74.9711 108.945 76.449C109.47 77.0166 110.218 77.3279 110.993 77.3012Z" fill="#800D4B"/>
<path d="M122.933 79.1539C122.248 79.158 121.569 79.0218 120.938 78.7537C120.331 78.4944 119.779 78.125 119.308 77.6643C118.841 77.1917 118.472 76.6328 118.221 76.0191C117.695 74.7084 117.695 73.2466 118.221 71.9358C118.47 71.3235 118.84 70.7667 119.308 70.2981C119.778 69.8351 120.331 69.4632 120.938 69.2013C122.212 68.6681 123.647 68.6681 124.921 69.2013C125.529 69.4615 126.082 69.8336 126.551 70.2981C127.019 70.7667 127.388 71.3235 127.638 71.9358C127.903 72.5853 128.037 73.2803 128.032 73.9812V74.663H119.888C119.955 75.0532 120.089 75.4292 120.283 75.7746C120.457 76.0918 120.689 76.3735 120.968 76.6046C121.237 76.8296 121.545 77.0052 121.876 77.1233C122.215 77.2429 122.573 77.3031 122.933 77.3012C123.379 77.3125 123.823 77.2422 124.243 77.0937C124.562 76.9835 124.861 76.8234 125.129 76.6194C125.384 76.4292 125.603 76.196 125.777 75.9302H127.936C127.693 76.5312 127.34 77.0817 126.893 77.5532C126.683 77.7628 126.459 77.9584 126.223 78.1386C125.959 78.3479 125.669 78.5222 125.36 78.6574C125.009 78.8159 124.642 78.9376 124.266 79.0205C123.828 79.1126 123.381 79.1573 122.933 79.1539ZM125.911 73.003C125.855 72.7032 125.755 72.4134 125.613 72.1433C125.473 71.8572 125.272 71.6045 125.025 71.4023C124.173 70.7046 123.023 70.4868 121.973 70.8242C121.656 70.9274 121.359 71.0827 121.094 71.2837C120.824 71.4864 120.594 71.7378 120.417 72.0248C120.229 72.3279 120.095 72.6615 120.022 73.0104L125.911 73.003Z" fill="#800D4B"/>
<path d="M130.333 69.0012H132.387V70.4833H132.506C132.673 70.1915 132.887 69.9287 133.139 69.7052C133.4 69.4802 133.684 69.2839 133.988 69.1198C134.376 68.912 134.812 68.8097 135.253 68.8233H136.437V70.7798H135.156C134.785 70.7768 134.416 70.8447 134.069 70.9799C133.744 71.1009 133.448 71.2876 133.199 71.5283C132.94 71.7716 132.742 72.0708 132.618 72.4027C132.477 72.7667 132.406 73.1539 132.409 73.544V78.9834H130.355L130.333 69.0012Z" fill="#800D4B"/>
<path d="M139.347 67.5339C139.024 67.5393 138.712 67.4136 138.484 67.1855C138.251 66.9574 138.124 66.6433 138.134 66.3185C138.128 65.9943 138.254 65.6816 138.484 65.4514C138.709 65.2165 139.021 65.085 139.347 65.0883C140.028 65.0924 140.579 65.6408 140.583 66.3185C140.59 66.6459 140.458 66.961 140.218 67.1855C139.987 67.414 139.673 67.5396 139.347 67.5339ZM138.327 69.016H140.389V78.976H138.327V69.016Z" fill="#800D4B"/>
<path d="M147.745 79.1538C147.059 79.1579 146.38 79.0217 145.75 78.7536C145.143 78.4943 144.59 78.1249 144.119 77.6642C143.653 77.1916 143.284 76.6327 143.032 76.0191C142.507 74.7083 142.507 73.2466 143.032 71.9358C143.282 71.3234 143.651 70.7666 144.119 70.298C144.59 69.835 145.143 69.4631 145.75 69.2012C146.38 68.9331 147.059 68.7969 147.745 68.801C148.428 68.7962 149.105 68.9325 149.732 69.2012C150.341 69.4595 150.895 69.8318 151.362 70.298C151.83 70.7666 152.2 71.3234 152.449 71.9358C152.714 72.5852 152.848 73.2802 152.844 73.9811V74.6629H144.7C144.77 75.0523 144.903 75.4277 145.094 75.7745C145.268 76.0917 145.5 76.3734 145.779 76.6045C146.051 76.8302 146.361 77.0059 146.695 77.1233C147.032 77.2421 147.387 77.3023 147.745 77.3011C148.19 77.3124 148.635 77.2421 149.055 77.0936C149.374 76.9834 149.673 76.8233 149.941 76.6193C150.195 76.4292 150.415 76.1959 150.588 75.9301H152.747C152.505 76.5311 152.151 77.0816 151.705 77.5531C151.496 77.7609 151.275 77.9564 151.042 78.1385C150.776 78.3446 150.486 78.5187 150.179 78.6573C149.825 78.8158 149.456 78.9375 149.077 79.0204C148.639 79.1125 148.192 79.1572 147.745 79.1538ZM150.685 73.0029C150.629 72.7043 150.531 72.415 150.395 72.1433C150.25 71.86 150.05 71.6082 149.807 71.4022C149.542 71.1786 149.243 70.9985 148.921 70.8686C148.545 70.7296 148.146 70.6618 147.745 70.6685C147.408 70.6677 147.074 70.7202 146.755 70.8242C146.436 70.9277 146.137 71.083 145.869 71.2836C145.598 71.4864 145.369 71.7377 145.191 72.0247C145.003 72.3278 144.869 72.6614 144.797 73.0103L150.685 73.0029Z" fill="#800D4B"/>
<path d="M155.144 69.0012H157.206V70.4018H157.303C157.506 70.1142 157.758 69.8636 158.047 69.6608C158.348 69.4401 158.676 69.2583 159.022 69.1198C159.48 68.9448 159.969 68.8617 160.459 68.8752C161.529 68.8132 162.577 69.2002 163.347 69.9424C164.097 70.8095 164.471 71.9362 164.39 73.0771V79.0057H162.283V73.2401C162.341 72.5444 162.131 71.8526 161.695 71.3059C161.214 70.874 160.576 70.6571 159.931 70.7057C159.555 70.6994 159.182 70.7727 158.836 70.9206C158.51 71.0595 158.214 71.2609 157.965 71.5134C157.713 71.7786 157.515 72.0909 157.385 72.4324C157.246 72.8173 157.178 73.2239 157.184 73.6329V79.0057H155.122L155.144 69.0012Z" fill="#800D4B"/>
<path d="M171.595 79.1538C170.915 79.1584 170.239 79.03 169.608 78.7759C169.011 78.5303 168.471 78.1645 168.022 77.7013C167.568 77.2291 167.212 76.6726 166.973 76.0636C166.456 74.7229 166.456 73.2395 166.973 71.8988C167.212 71.2897 167.568 70.7333 168.022 70.261C168.469 69.7955 169.009 69.4293 169.608 69.1864C170.238 68.926 170.914 68.795 171.595 68.8011C172.049 68.7963 172.502 68.8486 172.943 68.9567C173.323 69.0506 173.691 69.1899 174.037 69.3717C174.34 69.5294 174.62 69.7263 174.871 69.9571C175.091 70.1656 175.3 70.3858 175.496 70.6167C175.92 71.1475 176.227 71.7611 176.397 72.4175H174.246C174.138 72.0911 173.963 71.7907 173.732 71.5356C173.186 70.9423 172.403 70.6218 171.595 70.6612C170.824 70.6535 170.087 70.9809 169.578 71.5579C169.314 71.8733 169.112 72.2353 168.983 72.625C168.825 73.0675 168.747 73.534 168.752 74.0034C168.748 74.4727 168.827 74.939 168.983 75.3818C169.117 75.7642 169.321 76.1185 169.586 76.4267C169.834 76.6987 170.136 76.918 170.471 77.0714C170.82 77.2293 171.198 77.3102 171.581 77.3086C172.053 77.3283 172.523 77.2343 172.95 77.0344C173.263 76.8809 173.548 76.6754 173.792 76.4267C174.031 76.177 174.214 75.8787 174.328 75.5522H176.427C176.26 76.2144 175.953 76.8334 175.526 77.3679C175.333 77.5997 175.124 77.8176 174.901 78.02C174.648 78.2461 174.368 78.4402 174.067 78.598C173.72 78.7773 173.353 78.9142 172.973 79.0056C172.522 79.1137 172.059 79.1635 171.595 79.1538Z" fill="#800D4B"/>
<path d="M183.126 79.1539C182.441 79.158 181.762 79.0218 181.131 78.7537C180.525 78.4944 179.972 78.125 179.501 77.6643C179.035 77.1917 178.665 76.6328 178.414 76.0191C177.889 74.7084 177.889 73.2466 178.414 71.9358C178.664 71.3235 179.033 70.7667 179.501 70.2981C179.972 69.8351 180.524 69.4632 181.131 69.2013C182.405 68.6681 183.841 68.6681 185.114 69.2013C185.723 69.4595 186.276 69.8319 186.744 70.2981C187.212 70.7667 187.582 71.3235 187.831 71.9358C188.096 72.5853 188.23 73.2803 188.226 73.9812V74.663H180.074C180.145 75.0523 180.278 75.4278 180.469 75.7746C180.642 76.0918 180.875 76.3735 181.154 76.6046C181.426 76.8303 181.736 77.006 182.069 77.1233C182.406 77.2435 182.761 77.3038 183.119 77.3012C183.565 77.3125 184.009 77.2422 184.429 77.0937C184.748 76.9835 185.047 76.8234 185.315 76.6194C185.57 76.4292 185.789 76.196 185.963 75.9302H188.121C187.879 76.5312 187.525 77.0817 187.079 77.5532C186.869 77.7628 186.645 77.9584 186.409 78.1386C186.145 78.3479 185.855 78.5222 185.546 78.6574C185.195 78.8159 184.828 78.9376 184.452 79.0205C184.016 79.1121 183.572 79.1568 183.126 79.1539ZM186.067 73.003C186.012 72.7032 185.911 72.4134 185.769 72.1433C185.629 71.8572 185.428 71.6045 185.181 71.4023C184.329 70.7046 183.179 70.4868 182.129 70.8242C181.812 70.9274 181.515 71.0827 181.251 71.2837C180.98 71.4864 180.75 71.7378 180.573 72.0248C180.385 72.3279 180.251 72.6615 180.179 73.0104L186.067 73.003Z" fill="#800D4B"/>
<path d="M196.653 65.2885H198.715V72.9067H200.204L203.241 69.0012H205.601L201.968 73.5885L205.891 78.9612H203.345L200.3 74.7593H198.73V78.9612H196.668L196.653 65.2885Z" fill="#800D4B"/>
<path d="M207.61 69.0012H209.672V70.4018H209.769C209.973 70.1142 210.225 69.8636 210.514 69.6608C210.814 69.4401 211.142 69.2583 211.489 69.1198C211.947 68.9448 212.435 68.8617 212.925 68.8752C213.996 68.8132 215.043 69.2002 215.814 69.9424C216.563 70.8095 216.938 71.9362 216.856 73.0771V79.0057H214.794V73.2401C214.856 72.5441 214.645 71.8512 214.206 71.3059C213.725 70.874 213.087 70.6571 212.442 70.7057C212.066 70.6994 211.693 70.7727 211.347 70.9206C211.021 71.0595 210.725 71.2609 210.476 71.5134C210.224 71.7786 210.027 72.0909 209.896 72.4324C209.757 72.8173 209.689 73.2239 209.695 73.6329V79.0057H207.633L207.61 69.0012Z" fill="#800D4B"/>
<path d="M224.218 79.1539C222.469 79.1535 220.837 78.2798 219.873 76.8275C218.908 75.3752 218.74 73.538 219.424 71.9359C219.679 71.3245 220.05 70.7683 220.518 70.2981C221.511 69.3297 222.851 68.7961 224.24 68.816C224.945 68.8096 225.644 68.9458 226.295 69.2161C227.537 69.7312 228.525 70.7141 229.042 71.9507C229.871 73.9064 229.436 76.1665 227.94 77.6792C227.468 78.145 226.909 78.515 226.295 78.7686C225.636 79.0368 224.93 79.168 224.218 79.1539ZM224.218 77.3012C224.639 77.305 225.057 77.2243 225.446 77.0641C225.809 76.9136 226.137 76.6889 226.407 76.4045C226.683 76.1014 226.896 75.7461 227.032 75.3596C227.192 74.9177 227.27 74.4508 227.263 73.9812C227.273 73.5199 227.2 73.0605 227.047 72.6251C226.911 72.2386 226.698 71.8833 226.422 71.5802C226.154 71.2912 225.826 71.0636 225.461 70.9132C224.671 70.6072 223.795 70.6072 223.005 70.9132C222.64 71.0636 222.312 71.2912 222.044 71.5802C221.768 71.8833 221.555 72.2386 221.419 72.6251C221.264 73.068 221.189 73.5345 221.196 74.0035C221.19 74.4723 221.266 74.9386 221.419 75.3819C221.555 75.7683 221.768 76.1236 222.044 76.4268C222.315 76.7112 222.642 76.9359 223.005 77.0863C223.391 77.2363 223.803 77.3093 224.218 77.3012Z" fill="#800D4B"/>
<path d="M230.717 69.0012H232.876L234.544 77.0715H234.841L236.509 68.9716H239.487L241.117 77.0715H241.415L243.082 68.9716H245.241L243.082 78.9316H239.554L238.065 71.3133H237.864L236.375 78.9316H232.839L230.717 69.0012Z" fill="#800D4B"/>
<path d="M247.258 65.2885H249.32V77.0715H251.553V78.9316H247.236L247.258 65.2885Z" fill="#800D4B"/>
<path d="M257.807 79.1539C257.121 79.1579 256.442 79.0217 255.812 78.7536C255.206 78.4958 254.656 78.1261 254.189 77.6642C253.717 77.194 253.345 76.6346 253.095 76.0191C252.579 74.7064 252.579 73.2484 253.095 71.9358C253.344 71.3215 253.716 70.7642 254.189 70.298C254.655 69.8334 255.206 69.4612 255.812 69.2012C256.442 68.9331 257.121 68.7969 257.807 68.801C258.49 68.7962 259.167 68.9325 259.794 69.2012C260.403 69.4595 260.957 69.8318 261.425 70.298C261.895 70.7647 262.265 71.3219 262.511 71.9358C262.78 72.584 262.915 73.2798 262.906 73.9811V74.6629H254.762C254.832 75.0523 254.965 75.4277 255.157 75.7745C255.332 76.0904 255.564 76.3717 255.841 76.6045C256.113 76.8302 256.423 77.0059 256.757 77.1233C257.094 77.2421 257.449 77.3023 257.807 77.3011C258.252 77.3124 258.697 77.2421 259.117 77.0936C259.436 76.9851 259.736 76.8249 260.003 76.6193C260.257 76.4292 260.477 76.1959 260.65 75.9301H262.779C262.54 76.533 262.186 77.0841 261.737 77.5531C261.528 77.7609 261.307 77.9564 261.075 78.1385C260.809 78.3462 260.519 78.5204 260.211 78.6573C259.858 78.8169 259.489 78.9386 259.109 79.0204C258.681 79.1108 258.244 79.1555 257.807 79.1539ZM260.747 73.0029C260.691 72.7043 260.593 72.415 260.457 72.1433C260.312 71.86 260.112 71.6082 259.869 71.4022C259.604 71.1786 259.305 70.9985 258.983 70.8686C258.285 70.6181 257.524 70.6025 256.817 70.8242C256.498 70.9277 256.199 71.083 255.931 71.2836C255.66 71.4864 255.431 71.7377 255.253 72.0247C255.068 72.3293 254.935 72.6624 254.859 73.0103L260.747 73.0029Z" fill="#800D4B"/>
<path d="M269.382 79.1539C268.745 79.1635 268.113 79.0371 267.528 78.7834C266.964 78.543 266.457 78.187 266.04 77.7385C265.597 77.2683 265.255 76.7137 265.035 76.1081C264.548 74.729 264.548 73.2261 265.035 71.8469C265.257 71.2422 265.599 70.6879 266.04 70.2166C266.902 69.2947 268.117 68.7803 269.382 68.8011C269.845 68.7943 270.304 68.8747 270.737 69.0383C271.081 69.1728 271.41 69.3416 271.72 69.5422C272.017 69.7554 272.287 70.0043 272.523 70.2833H272.62V65.2885H274.69V78.9612H272.628V77.694H272.531C272.298 77.976 272.027 78.2253 271.727 78.4351C271.419 78.6359 271.089 78.8024 270.744 78.9316C270.307 79.0871 269.846 79.1625 269.382 79.1539ZM269.777 77.3012C270.551 77.3279 271.299 77.0166 271.824 76.449C272.886 74.9711 272.886 72.9839 271.824 71.506C271.296 70.9436 270.549 70.6356 269.777 70.6612C268.974 70.625 268.193 70.9325 267.633 71.506C266.561 72.981 266.561 74.9741 267.633 76.449C268.19 77.0277 268.972 77.3384 269.777 77.3012Z" fill="#800D4B"/>
<path d="M278.479 80.8139H284.956V77.694H284.859C284.626 77.976 284.355 78.2253 284.055 78.4351C283.748 78.6389 283.418 78.8056 283.072 78.9316C282.638 79.0875 282.179 79.1629 281.717 79.1539C281.08 79.1615 280.449 79.0352 279.864 78.7834C279.301 78.5406 278.794 78.1849 278.375 77.7385C277.935 77.2679 277.596 76.7133 277.377 76.1081C276.891 74.729 276.891 73.2261 277.377 71.8469C277.597 71.2427 277.937 70.6884 278.375 70.2166C279.237 69.2947 280.452 68.7803 281.717 68.8011C282.18 68.793 282.64 68.8735 283.072 69.0383C283.417 69.1696 283.747 69.3386 284.055 69.5422C284.355 69.7523 284.625 70.0015 284.859 70.2833H284.956V68.9938H287.018V82.6666H278.479V80.8139ZM282.112 77.3012C282.887 77.3289 283.635 77.0175 284.159 76.449C285.222 74.9711 285.222 72.9839 284.159 71.5061C283.632 70.942 282.885 70.6337 282.112 70.6612C281.311 70.6262 280.534 70.9337 279.975 71.5061C278.904 72.981 278.904 74.9741 279.975 76.449C280.536 77.0326 281.324 77.3438 282.134 77.3012H282.112Z" fill="#800D4B"/>
<path d="M294.417 79.1538C293.732 79.1579 293.052 79.0217 292.422 78.7536C291.817 78.4958 291.266 78.1262 290.799 77.6643C290.33 77.192 289.959 76.6332 289.705 76.0191C289.189 74.7064 289.189 73.2484 289.705 71.9358C289.957 71.323 290.329 70.7662 290.799 70.298C291.265 69.8334 291.816 69.4613 292.422 69.2012C293.698 68.6676 295.136 68.6676 296.412 69.2012C297.018 69.4613 297.569 69.8334 298.035 70.298C298.505 70.7662 298.877 71.323 299.129 71.9358C299.392 72.5857 299.523 73.2807 299.516 73.9811V74.6629H291.38C291.448 75.0519 291.578 75.4273 291.767 75.7745C291.943 76.0904 292.175 76.3717 292.452 76.6045C292.724 76.8303 293.034 77.0059 293.367 77.1233C293.704 77.2422 294.059 77.3023 294.417 77.3011C294.865 77.3125 295.312 77.2422 295.735 77.0936C296.051 76.9836 296.348 76.8234 296.613 76.6194C296.868 76.4292 297.087 76.1959 297.261 75.9302H299.42C299.181 76.533 298.827 77.0841 298.377 77.5531C298.168 77.761 297.947 77.9565 297.715 78.1385C297.45 78.3462 297.159 78.5205 296.851 78.6573C296.498 78.8169 296.129 78.9387 295.75 79.0204C295.312 79.1129 294.865 79.1577 294.417 79.1538ZM297.357 73.0029C297.301 72.7043 297.204 72.415 297.067 72.1433C296.925 71.8585 296.724 71.6062 296.479 71.4022C296.214 71.1786 295.915 70.9985 295.593 70.8686C294.895 70.6181 294.134 70.6025 293.427 70.8242C293.108 70.9277 292.809 71.083 292.541 71.2836C292.271 71.4864 292.041 71.7377 291.864 72.0247C291.678 72.3282 291.547 72.6618 291.477 73.0103L297.357 73.0029Z" fill="#800D4B"/>
<path d="M155.278 17.8449C154.003 16.4928 152.427 15.4572 150.678 14.8214C148.769 14.1338 146.752 13.7924 144.722 13.8135C142.832 13.7626 140.95 14.072 139.176 14.725C137.849 15.2314 136.597 15.9144 135.454 16.7556C134.358 17.6396 133.399 18.6811 132.611 19.8458H132.462V14.5472H124.779V50.8597H132.439V31.5325C132.412 29.9957 132.664 28.4667 133.184 27.0194C133.662 25.7414 134.394 24.5721 135.335 23.5808C136.258 22.629 137.364 21.8728 138.588 21.3576C139.868 20.824 141.243 20.5567 142.63 20.5721C145.033 20.4515 147.385 21.2889 149.166 22.899C150.789 24.4504 151.603 26.849 151.608 30.0949V50.8448H159.305V29.2574C159.345 27.0238 158.987 24.8009 158.248 22.6915C157.593 20.8933 156.58 19.2449 155.271 17.8449" fill="#800D4B"/>
<path d="M195.551 37.6761C195.007 39.0746 194.204 40.359 193.184 41.4629C192.194 42.5237 190.985 43.3581 189.64 43.9085C188.225 44.49 186.705 44.7799 185.174 44.7607C183.681 44.7754 182.202 44.4853 180.826 43.9085C179.498 43.3515 178.305 42.5176 177.328 41.4629C176.307 40.3652 175.513 39.0786 174.99 37.6761C173.878 34.4559 173.878 30.9585 174.99 27.7383C175.514 26.3344 176.308 25.0457 177.328 23.944C179.347 21.7681 182.198 20.5456 185.174 20.5796C186.708 20.5628 188.229 20.8631 189.64 21.4614C190.973 22.0332 192.178 22.8647 193.184 23.907C194.213 25.009 195.017 26.3004 195.551 27.7087C196.153 29.3048 196.451 30.9987 196.429 32.7035C196.454 34.4013 196.156 36.0884 195.551 37.6761ZM211.601 7.57375V0H196.429V20.0682H196.213C195.428 18.8677 194.453 17.8016 193.325 16.9112C192.119 16.0537 190.808 15.3515 189.424 14.8214C187.609 14.1257 185.674 13.7908 183.73 13.8358C181.425 13.8206 179.143 14.285 177.03 15.1994C174.94 16.1039 173.054 17.4169 171.484 19.0604C169.843 20.7818 168.565 22.8127 167.725 25.0334C166.806 27.4528 166.347 30.0209 166.37 32.6071C166.337 35.2442 166.794 37.8645 167.717 40.3365C168.552 42.5468 169.831 44.5642 171.476 46.2651C173.059 47.8968 174.942 49.2102 177.022 50.1335C179.132 51.0644 181.415 51.5392 183.722 51.5267C187.159 51.6007 190.527 50.5603 193.318 48.5624C194.445 47.6721 195.421 46.606 196.206 45.4054H196.422V50.7782H211.593V43.2193H204.015V7.57375H211.601Z" fill="#800D4B"/>
<path d="M53.4342 23.9441C54.4446 22.9057 55.648 22.0726 56.9776 21.4911C59.9913 20.2571 63.3835 20.3188 66.3498 21.6616C67.5144 22.2509 68.5753 23.0242 69.4913 23.9515C70.0643 24.5879 70.5637 25.2864 70.9801 26.0339L76.2804 20.75C76.2282 20.6759 76.1836 20.5944 76.124 20.5203C75.3995 19.6479 74.608 18.8327 73.7568 18.0822C72.791 17.2427 71.7261 16.5235 70.5856 15.9405C69.2823 15.298 67.9117 14.801 66.4987 14.4583C64.7939 14.0428 63.0427 13.8461 61.2878 13.8729C58.7364 13.8609 56.2073 14.3468 53.8436 15.3032C51.5796 16.2107 49.5216 17.5615 47.7915 19.2753C46.0675 20.9944 44.7036 23.0373 43.7791 25.2854C41.834 30.0797 41.834 35.4385 43.7791 40.2328C44.7055 42.4799 46.0691 44.5224 47.7915 46.2429C49.5216 47.9567 51.5796 49.3075 53.8436 50.215C56.2073 51.1714 58.7364 51.6573 61.2878 51.6453C63.0572 51.6667 64.8225 51.47 66.5434 51.0599C67.9987 50.7125 69.4061 50.1899 70.7345 49.5036C71.8953 48.8989 72.9757 48.152 73.9503 47.2804C74.7881 46.5136 75.5372 45.6561 76.1836 44.7237L70.9727 39.5362C70.6042 40.182 70.1728 40.7901 69.6848 41.3518C68.7387 42.3176 67.6428 43.1257 66.4392 43.7455C64.8437 44.533 63.0746 44.9076 61.2952 44.8349C59.8266 44.8463 58.3724 44.5456 57.0297 43.953C55.7039 43.3681 54.5016 42.5383 53.4863 41.5075C52.4386 40.4192 51.6098 39.1413 51.0446 37.7428C50.4123 36.1644 50.101 34.4767 50.129 32.7776C50.1113 31.0948 50.4092 29.4235 51.0074 27.8495C51.5523 26.4295 52.3689 25.1284 53.4119 24.0182" fill="#800D4B"/>
<path d="M89.1512 29.1389C90.2678 24.2404 94.1388 20.5795 99.3944 20.5795C104.65 20.5795 108 24.2404 109.116 29.1389H89.1512ZM99.5731 13.8209C88.6376 13.8209 80.918 22.0839 80.918 32.3477C80.918 32.4737 80.918 32.5923 80.918 32.7108C80.918 33.3111 80.918 33.8965 80.9924 34.482C80.9924 34.5413 80.9924 34.608 80.9924 34.6747C81.0296 35.1045 81.0892 35.5343 81.1562 35.9567C81.1562 36.0605 81.1934 36.1642 81.2083 36.2606C81.3581 37.093 81.562 37.9148 81.8187 38.7209C81.8559 38.8173 81.8857 38.9136 81.9155 39.0174C82.0569 39.4101 82.1984 39.8029 82.3621 40.1882C84.2186 44.7365 87.851 48.3392 92.4267 50.1705C94.7903 51.1268 97.3194 51.6127 99.8708 51.6007C101.64 51.6221 103.405 51.4255 105.126 51.0153C106.582 50.6679 107.989 50.1453 109.317 49.459C110.48 48.8569 111.561 48.1098 112.533 47.2358C113.369 46.4668 114.118 45.6096 114.767 44.6791L109.556 39.4916C109.188 40.1356 108.757 40.7413 108.268 41.2999C107.32 42.2635 106.224 43.0714 105.022 43.6935C103.425 44.4774 101.657 44.8519 99.8783 44.7829C98.4096 44.7943 96.9554 44.4936 95.6128 43.901C94.287 43.3161 93.0846 42.4863 92.0693 41.4555C91.0233 40.3687 90.1946 39.0936 89.6276 37.6982C89.5011 37.3944 89.3969 37.0832 89.3001 36.7645C89.2554 36.6237 89.2108 36.4755 89.1736 36.3273L89.0842 35.9641C88.9949 35.5491 88.913 35.1267 88.8535 34.6895H117.365V32.5404C117.365 21.3428 109.92 13.8432 99.5731 13.8432" fill="#800D4B"/>
<path d="M25.7121 33.0518C25.7121 40.3514 20.0694 44.7385 14.9106 44.7385C11.5235 44.7385 8.85105 42.8932 8.85105 39.551C8.85105 34.823 16.1761 32.0069 25.7121 32.0069V33.0518ZM33.3721 43.3082V14.525H3.01482V22.084H25.7121V25.9375C7.84608 25.9375 0.870899 31.0583 0.595465 39.7733C0.357252 47.1099 6.15626 51.5934 13.2506 51.5934C17.8213 51.5934 22.7716 49.8 25.5111 45.5018H25.7493V50.882H39.0595V43.3231L33.3721 43.3082Z" fill="#800D4B"/>
</svg>
