<svg xmlns="http://www.w3.org/2000/svg" xmlns:xlink="http://www.w3.org/1999/xlink" viewBox="0 0 1280 564">
  <defs>
    <linearGradient id="a" x1="13336.845" y1="190.421" x2="13336.845" y2="157.779" gradientTransform="matrix(-1, 0, 0, 1, 13995.541, 0)" gradientUnits="userSpaceOnUse">
      <stop offset="0.291" stop-color="#fff"/>
      <stop offset="0.31" stop-color="#eaeaea"/>
      <stop offset="0.359" stop-color="#bababa"/>
      <stop offset="0.412" stop-color="#8d8d8d"/>
      <stop offset="0.467" stop-color="#676767"/>
      <stop offset="0.526" stop-color="#474747"/>
      <stop offset="0.59" stop-color="#2d2d2d"/>
      <stop offset="0.66" stop-color="#191919"/>
      <stop offset="0.739" stop-color="#0b0b0b"/>
      <stop offset="0.836" stop-color="#020202"/>
      <stop offset="1"/>
    </linearGradient>
    <linearGradient id="b" x1="2003.791" y1="192.991" x2="2003.791" y2="155.394" gradientTransform="matrix(-1, 0, 0, 1, 2698.498, 0)" xlink:href="#a"/>
    <clipPath id="c">
      <rect x="1045.129" y="412.121" width="119.151" height="51.859" fill="none"/>
    </clipPath>
    <clipPath id="d">
      <rect x="413.163" y="457.94" width="199.367" height="86.772" fill="none"/>
    </clipPath>
    <mask id="e" x="640.882" y="157.779" width="35.626" height="32.642" maskUnits="userSpaceOnUse">
      <rect x="640.882" y="157.779" width="35.626" height="32.642" fill="url(#a)"/>
    </mask>
    <mask id="f" x="674.19" y="155.394" width="41.034" height="37.597" maskUnits="userSpaceOnUse">
      <rect x="674.19" y="155.394" width="41.034" height="37.597" fill="url(#b)"/>
    </mask>
    <symbol id="g" data-name="m_Kopf_Felix_Krohn_front 2" viewBox="0 0 22.134 35.657">
      <g>
        <path d="M10.18,30.018a11.167,11.167,0,0,1-3.531-.825v6.464h8V29.428a11.542,11.542,0,0,1-3.7.615C10.693,30.043,10.438,30.036,10.18,30.018Z" fill="#dd9261"/>
        <path d="M10.309,28.023A9.191,9.191,0,0,1,6.649,27v2.2a11.167,11.167,0,0,0,3.531.825c.258.018.513.025.768.025a11.542,11.542,0,0,0,3.7-.615V27.292A9.6,9.6,0,0,1,10.309,28.023Z" fill="#ca875a"/>
        <g>
          <ellipse cx="20.538" cy="17.205" rx="1.596" ry="3.165" fill="#dd9261"/>
          <ellipse cx="1.596" cy="17.205" rx="1.596" ry="3.165" fill="#dd9261"/>
          <path d="M3.558,3.267h14.8a1.99,1.99,0,0,1,1.99,1.99v13.5a9.392,9.392,0,0,1-9.392,9.392h0a9.392,9.392,0,0,1-9.392-9.392V5.258a1.99,1.99,0,0,1,1.99-1.99Z" fill="#f09f6a"/>
          <circle cx="16.268" cy="12.097" r="0.946" fill="#010101"/>
          <circle cx="7.429" cy="12.097" r="0.946" fill="#010101"/>
        </g>
        <path d="M.968,4.677V14.2l.642,1.871V9.379A6.026,6.026,0,0,1,7.8,3.384h6.161a6.025,6.025,0,0,1,6.186,5.995v6.8l.642-1.981V4.677A4.677,4.677,0,0,0,16.108,0H5.645A4.677,4.677,0,0,0,.968,4.677Z" fill="#5b4f4b"/>
        <g>
          <path d="M9.8,11.129" fill="none" stroke="#1d1d1b" stroke-width="0.5"/>
          <path d="M11.805,11.129" fill="none" stroke="#1d1d1b" stroke-width="0.5"/>
        </g>
      </g>
      <g>
        <path d="M1.466,12.794l-.181-.729.162,8.5c.31,4.048,3.322,7.59,6.935,7.59h4.836c3.613,0,6.625-3.542,6.935-7.59l.162-6.492-.181.742c0,3.284-.485,5.258-1.132,6.5a1.717,1.717,0,0,1-3.229-.816v0A1.739,1.739,0,0,0,14.631,18.8l-1.871-.569a6.746,6.746,0,0,0-3.92,0L6.969,18.8a1.739,1.739,0,0,0-1.142,1.692v.225a1.876,1.876,0,0,1-3.574.807C1.725,20.276,1.466,17.924,1.466,12.794Zm9.392,11.724a6.633,6.633,0,0,1-2.784-.533,2.249,2.249,0,0,1-1.637-2.5v-.123A1.685,1.685,0,0,1,7.9,19.6l2.758-.209h.294l2.758.209a1.685,1.685,0,0,1,1.458,1.753h0c0,1.787-.741,2.2-1.94,2.674a6.888,6.888,0,0,1-2.365.487Z" fill="#5b4f4b"/>
        <path d="M10.877,22.048c1.611,0,2.917-.5,2.917-1.125H7.959C7.959,21.544,9.265,22.048,10.877,22.048Z" fill="#dd9261"/>
      </g>
    </symbol>
    <symbol id="h" data-name="schuhe_sport_seite 6" viewBox="0 0 16 12.135">
      <line x1="12.681" x2="12.681" y2="11.325" fill="none" stroke="#989898" stroke-miterlimit="10" stroke-width="6"/>
      <g>
        <path d="M6.014,5.325a6,6,0,0,0-6,6h12A6,6,0,0,0,6.014,5.325Z" fill="#5a0f32"/>
        <path d="M6.014,5.325a6,6,0,0,0-6,6h12A6,6,0,0,0,6.014,5.325Z" fill="#5a0f32"/>
      </g>
      <rect x="6.014" y="5.325" width="9.986" height="6" fill="#5a0f32"/>
      <rect y="11.306" width="16" height="0.828" fill="#c6d0da"/>
    </symbol>
    <symbol id="i" data-name="bein" viewBox="0 0 9 51.106">
      <g>
        <line x1="4.5" x2="4.5" y2="24.34" fill="none" stroke="#0b3046" stroke-miterlimit="10" stroke-width="9"/>
        <line x1="4.5" y1="24.34" x2="4.5" y2="51.106" fill="none" stroke="#0b3046" stroke-miterlimit="10" stroke-width="9"/>
      </g>
    </symbol>
    <symbol id="l" data-name="m_huefte_front dunkel jeans 2" viewBox="0 0 26.986 15.649">
      <path d="M0,0H26.986a0,0,0,0,1,0,0V2.156A13.493,13.493,0,0,1,13.493,15.649h0A13.493,13.493,0,0,1,0,2.156V0A0,0,0,0,1,0,0Z" fill="#0b3046"/>
      <polygon points="23.221 0 22.389 0 4.597 0 3.387 0 0 0 0 2.156 3.387 2.156 4.597 2.156 22.389 2.156 23.221 2.156 26.986 2.156 26.986 0 23.221 0" fill="#091720"/>
    </symbol>
    <symbol id="m" data-name="L_hoodie_black_front3 2" viewBox="0 0 45.354 45.935">
      <g>
        <path d="M18.574.042h8.207A18.574,18.574,0,0,1,45.354,18.616v3.925a0,0,0,0,1,0,0H0a0,0,0,0,1,0,0V18.616A18.574,18.574,0,0,1,18.574.042Z" fill="#42001f"/>
        <path d="M21.487,0h2.38A11.566,11.566,0,0,1,35.433,11.566V45.935a0,0,0,0,1,0,0H9.921a0,0,0,0,1,0,0V11.566A11.566,11.566,0,0,1,21.487,0Z" fill="#42001f"/>
      </g>
    </symbol>
    <symbol id="n" data-name="f_schuhe_sport_front 4" viewBox="0 0 10 11.856">
      <line x1="5" x2="5" y2="11.325" fill="none" stroke="#f09f6a" stroke-miterlimit="10" stroke-width="5"/>
      <g>
        <g>
          <rect x="1.25" y="8.27" width="7.5" height="2.828" fill="#c8d2dc"/>
          <path d="M5,5.459c-2.761,0-5,2.517-5,5.621H10C10,7.976,7.762,5.459,5,5.459Z" fill="#c8d2dc"/>
          <rect y="11.08" width="10" height="0.776" fill="#c8d2dc"/>
        </g>
        <g>
          <rect x="1.25" y="8.27" width="7.5" height="2.828" fill="#ecf0f2"/>
          <path d="M5,5.459c-2.761,0-5,2.517-5,5.621H10C10,7.976,7.762,5.459,5,5.459Z" fill="#736357"/>
          <rect y="11.08" width="10" height="0.776" fill="#c8d2dc"/>
        </g>
      </g>
    </symbol>
    <symbol id="o" data-name="f_tshirt_black_front" viewBox="0 0 40 42.466">
      <path d="M16.028.038h7.944A16.028,16.028,0,0,1,40,16.066v5.972a0,0,0,0,1,0,0H0a0,0,0,0,1,0,0V16.066A16.028,16.028,0,0,1,16.028.038Z"/>
      <path d="M20,0h0A12,12,0,0,1,32,12V42.466a0,0,0,0,1,0,0H8a0,0,0,0,1,0,0V12A12,12,0,0,1,20,0Z"/>
      <polyline points="21.806 15.424 20 17.16 18.194 15.424" fill="none" stroke="#1db1bf" stroke-linecap="round" stroke-miterlimit="10" stroke-width="3.182"/>
    </symbol>
    <symbol id="p" data-name="f_huefte_front" viewBox="0 0 24 13">
      <path d="M0,0H24a0,0,0,0,1,0,0V1.4A11.6,11.6,0,0,1,12.4,13h-.8A11.6,11.6,0,0,1,0,1.4V0A0,0,0,0,1,0,0Z" fill="#2c5972"/>
      <g>
        <rect width="4.089" height="1.791" fill="#c1d44f"/>
        <rect x="4.978" width="4.089" height="1.791" fill="#c1d44f"/>
        <rect x="9.956" width="4.089" height="1.791" fill="#c1d44f"/>
        <rect x="14.934" width="4.089" height="1.791" fill="#c1d44f"/>
        <rect x="19.911" width="4.089" height="1.791" fill="#c1d44f"/>
      </g>
    </symbol>
    <symbol id="q" data-name="S_halbe_bein_jeans_front" viewBox="0 0 11 41.854">
      <g>
        <line x1="5.5" y1="4" x2="5.5" y2="37.354" fill="none" stroke="#2d5972" stroke-linecap="round" stroke-miterlimit="10" stroke-width="8"/>
        <line x1="5.5" y1="30.853" x2="5.5" y2="37.354" fill="none" stroke="#2d5972" stroke-linecap="square" stroke-miterlimit="10" stroke-width="8"/>
        <line x1="5.5" y1="39.684" x2="5.5" y2="41.854" fill="none" stroke="#537e8e" stroke-miterlimit="10" stroke-width="11"/>
      </g>
    </symbol>
  </defs>
  <g style="isolation: isolate">
    <g>
      <g>
        <path d="M487.419,345.238c-6.046-10.692-80.614-97.745-59.737-134.529s96.307-94.21,141.43-121.426S739.674,9.1,790.523,46.8,916.255,138.65,945.948,156.988s126.952,30.323,117.907,64.322S949.469,385.191,924.62,401.019s-91.984,98.059-194.382,91.332S487.419,345.238,487.419,345.238Z" fill="#a7e4f2"/>
        <g opacity="0.8">
          <path d="M238.558,120.826A54.615,54.615,0,0,1,295.973,108.1a41.426,41.426,0,0,1,71.484.192,50.4,50.4,0,0,1,99.36,13.5H237.643C237.949,121.469,238.243,121.141,238.558,120.826Z" fill="#caeff7"/>
        </g>
        <path d="M1224.477,301.561a37.086,37.086,0,0,0-47.66-4.587,43.821,43.821,0,0,0-85.961-17.01,51.463,51.463,0,0,0-49.666-5.729,80.941,80.941,0,0,0-157.8,34.5h346.563A37.178,37.178,0,0,0,1224.477,301.561Z" fill="#caeff7" opacity="0.8"/>
      </g>
      <g>
        <g>
          <rect x="473.833" y="32.995" width="175.908" height="117.536" fill="#72a1ae"/>
          <rect x="479.618" y="38.78" width="164.339" height="105.965" fill="#7d104b"/>
          <polygon points="479.618 144.746 486.429 144.746 486.429 45.233 643.956 45.233 643.956 38.779 479.618 38.779 479.618 144.746" fill="#4a3144" opacity="0.5" style="mix-blend-mode: multiply"/>
        </g>
        <g opacity="0.6">
          <path d="M590.312,87.114a6.906,6.906,0,0,0-2.669-1.761,9.818,9.818,0,0,0-3.453-.587,8.6,8.6,0,0,0-3.217.53,9.17,9.17,0,0,0-2.158,1.183,8.283,8.283,0,0,0-1.65,1.8h-.086V85.193h-4.456v21.155h4.443V95.088a7.425,7.425,0,0,1,.431-2.629,5.916,5.916,0,0,1,1.249-2,5.722,5.722,0,0,1,1.886-1.3,5.912,5.912,0,0,1,2.345-.457,5.246,5.246,0,0,1,3.79,1.355,5.587,5.587,0,0,1,1.416,4.193V106.34h4.464V93.763a10.991,10.991,0,0,0-.613-3.825,8.291,8.291,0,0,0-1.726-2.824" fill="none" stroke="#fff" stroke-miterlimit="10" stroke-width="1.147"/>
          <path d="M622.977,81.131V76.718h-8.8V88.409h-.125a7.737,7.737,0,0,0-1.675-1.839,10.182,10.182,0,0,0-2.263-1.217,8.6,8.6,0,0,0-3.3-.574,9.6,9.6,0,0,0-3.885.793,9.882,9.882,0,0,0-3.216,2.25,10.352,10.352,0,0,0-2.181,3.48,12.176,12.176,0,0,0-.786,4.412,12.482,12.482,0,0,0,.782,4.5,10.135,10.135,0,0,0,2.18,3.455,10.311,10.311,0,0,0,3.217,2.253,9.468,9.468,0,0,0,3.886.812,9.193,9.193,0,0,0,5.565-1.727,7.763,7.763,0,0,0,1.675-1.84h.125V106.3h8.8v-4.4h-4.4V81.131Zm-9.308,17.536a7.015,7.015,0,0,1-1.373,2.207,5.832,5.832,0,0,1-2.055,1.424,6.574,6.574,0,0,1-2.591.5,6.325,6.325,0,0,1-2.521-.5,5.843,5.843,0,0,1-2.03-1.424,6.667,6.667,0,0,1-1.355-2.207,8.9,8.9,0,0,1,0-5.789,6.738,6.738,0,0,1,1.355-2.211,6.1,6.1,0,0,1,4.551-1.959,6.423,6.423,0,0,1,2.591.513,6.337,6.337,0,0,1,2.055,1.424,6.744,6.744,0,0,1,1.373,2.216,7.979,7.979,0,0,1,.509,2.91,7.847,7.847,0,0,1-.509,2.9" fill="none" stroke="#fff" stroke-miterlimit="10" stroke-width="1.147"/>
          <path d="M531.246,90.667a6.5,6.5,0,0,1,2.055-1.428,6.838,6.838,0,0,1,5.435.1,7.036,7.036,0,0,1,1.823,1.333,6.8,6.8,0,0,1,.863,1.213l3.073-3.078c-.029-.043-.056-.09-.09-.134a12.781,12.781,0,0,0-1.373-1.419,9.139,9.139,0,0,0-1.839-1.248,11.361,11.361,0,0,0-2.37-.864A11.928,11.928,0,0,0,535.8,84.8a11.312,11.312,0,0,0-4.318.834,10.554,10.554,0,0,0-3.51,2.314,10.7,10.7,0,0,0-2.327,3.5,11.627,11.627,0,0,0,0,8.708,10.739,10.739,0,0,0,2.327,3.5,10.585,10.585,0,0,0,3.51,2.314,11.331,11.331,0,0,0,4.318.834,12.4,12.4,0,0,0,3.047-.342,10.627,10.627,0,0,0,2.431-.907,9.022,9.022,0,0,0,1.865-1.294,8.834,8.834,0,0,0,1.295-1.49l-3.022-3.022a6.564,6.564,0,0,1-.746,1.057,7.361,7.361,0,0,1-1.883,1.4,6.147,6.147,0,0,1-2.983.634,5.988,5.988,0,0,1-2.474-.514,6.665,6.665,0,0,1-2.055-1.424,6.88,6.88,0,0,1-1.416-2.194,7.476,7.476,0,0,1-.531-2.893,7.86,7.86,0,0,1,.51-2.87,6.844,6.844,0,0,1,1.394-2.232" fill="none" stroke="#fff" stroke-miterlimit="10" stroke-width="1.147"/>
          <path d="M558,84.77a10.567,10.567,0,0,0-10.818,10.794v.21a8.392,8.392,0,0,0,.042,1.032v.113c.022.251.056.5.1.747a1.128,1.128,0,0,0,.03.177,11.4,11.4,0,0,0,.354,1.433c.021.056.039.112.056.173.081.229.164.457.259.682a10.551,10.551,0,0,0,5.837,5.816,11.345,11.345,0,0,0,4.318.833,12.4,12.4,0,0,0,3.047-.342,10.59,10.59,0,0,0,2.431-.906,8.936,8.936,0,0,0,1.865-1.3,9.087,9.087,0,0,0,1.3-1.489l-3.022-3.023a6.477,6.477,0,0,1-.746,1.054,7.483,7.483,0,0,1-1.883,1.394,6.2,6.2,0,0,1-2.983.635,5.972,5.972,0,0,1-2.474-.514,6.651,6.651,0,0,1-2.055-1.425,6.892,6.892,0,0,1-1.416-2.189,5.623,5.623,0,0,1-.19-.543c-.027-.083-.052-.169-.074-.255l-.051-.212c-.052-.241-.1-.487-.134-.743h16.536V95.676c0-6.524-4.318-10.893-10.32-10.893m-6.044,8.911a6.077,6.077,0,0,1,5.941-4.987c3.048,0,4.991,2.133,5.639,4.987Z" fill="none" stroke="#fff" stroke-miterlimit="10" stroke-width="1.147"/>
          <path d="M519.611,101.948V85.18H502v4.4h13.164v2.245c-10.362,0-14.407,2.984-14.567,8.06-.138,4.275,3.225,6.886,7.339,6.886a8.266,8.266,0,0,0,7.112-3.549h.137v3.135h7.72v-4.4Zm-4.443-5.975a6.537,6.537,0,0,1-6.265,6.809c-1.964,0-3.514-1.075-3.514-3.023,0-2.754,4.248-4.394,9.779-4.394Z" fill="none" stroke="#fff" stroke-miterlimit="10" stroke-width="1.147"/>
        </g>
      </g>
      <g>
        <g>
          <use width="22.134" height="35.657" transform="translate(572.983 103.439) scale(0.75)" xlink:href="#g"/>
          <g>
            <g>
              <use width="16" height="12.135" transform="matrix(-0.75, 0, 0, 0.75, 583.47, 197.56)" xlink:href="#h"/>
              <use width="9" height="51.106" transform="translate(571.662 162.333) scale(0.75)" xlink:href="#i"/>
            </g>
            <g>
              <use width="16" height="12.135" transform="matrix(-0.75, 0, 0, 0.75, 595.328, 197.56)" xlink:href="#h"/>
              <use width="9" height="51.106" transform="translate(583.428 162.333) scale(0.75)" xlink:href="#i"/>
            </g>
            <use width="26.986" height="15.649" transform="translate(571.764 161.926) scale(0.687 0.75)" xlink:href="#l"/>
          </g>
          <use width="45.354" height="45.935" transform="translate(564.029 128.36) scale(0.75)" xlink:href="#m"/>
          <g>
            <line x1="601.579" y1="142.489" x2="606.024" y2="136.533" fill="none" stroke="#f19e6a" stroke-linecap="round" stroke-miterlimit="10" stroke-width="4.5"/>
            <line x1="594.67" y1="143.195" x2="594.67" y2="151.745" fill="none" stroke="#42001f" stroke-miterlimit="10" stroke-width="6.75"/>
            <line x1="594.67" y1="151.745" x2="602.027" y2="141.888" fill="none" stroke="#42001f" stroke-linecap="round" stroke-miterlimit="10" stroke-width="6.75"/>
            <line x1="596.53" y1="149.253" x2="602.027" y2="141.888" fill="none" stroke="#42001f" stroke-linecap="square" stroke-miterlimit="10" stroke-width="6.75"/>
          </g>
          <rect x="572.58" y="150.795" width="17.194" height="13.425" rx="0.431" transform="translate(292.552 685.968) rotate(-76.522)" fill="#cccbcb"/>
          <g>
            <line x1="577.609" y1="157.156" x2="584.175" y2="160.638" fill="none" stroke="#f19e6a" stroke-linecap="round" stroke-miterlimit="10" stroke-width="4.5"/>
            <line x1="567.404" y1="143.195" x2="567.404" y2="151.745" fill="#e99a67" stroke="#42001f" stroke-miterlimit="10" stroke-width="6.75"/>
            <line x1="567.404" y1="151.745" x2="578.271" y2="157.508" fill="none" stroke="#42001f" stroke-linecap="round" stroke-miterlimit="10" stroke-width="6.75"/>
            <line x1="572.625" y1="154.514" x2="578.271" y2="157.508" fill="none" stroke="#42001f" stroke-linecap="square" stroke-miterlimit="10" stroke-width="6.75"/>
          </g>
        </g>
        <polygon points="619.156 103.339 619.459 103.46 619.762 103.581 606.509 137.517 605.904 137.275 605.298 137.032 619.156 103.339" fill="#ffd301"/>
      </g>
      <g>
        <path d="M273.842,437.507q10.15,2.626,20.3,5.108c17.472,4.445,77.851-35.359,97.067-50.743C463.3,343.359,535.4,302.253,607.491,274.622q25.925,26.5,51.847,49.252c29.185-12.791,58.37-23.739,87.555-33.623,0,2.107,86.813,62.013,96.464,54.207,41.478-34.945,82.956-66.529,124.434-106.581,51.032,53.7,102.063,108.506,153.095,204.146,0,.794-61.926-8.918-146.706-9.314-84.78-2.262-192.413,15.723-283.828,34.463-45.708,7.064-108.416,20.741-176.768,28.631-68.351,8.3-142.346,10.819-210.628,5.116-68.282-5.287-130.85-18.793-176.348-32.988-45.5-13.78-73.925-28.251-73.925-25.908,61.769,8.707,123.539,3.608,185.308-6.206A87.764,87.764,0,0,1,273.842,437.507Z" fill="#81b4c4"/>
        <g>
          <g>
            <polygon points="489.419 373.443 474.781 340.943 460.144 373.443 489.419 373.443" fill="#a7ced1"/>
            <polygon points="499.866 380.321 488.103 355.337 476.339 380.321 499.866 380.321" fill="#c0e1e3"/>
            <polygon points="996.811 349.32 985.047 324.335 973.283 349.32 996.811 349.32" fill="#c0e1e3"/>
            <polygon points="866.573 388.724 875.491 412.008 857.656 412.008 866.573 388.724" fill="#a7ced1"/>
            <polygon points="890.269 373.3 903.499 407.844 877.039 407.844 890.269 373.3" fill="#a7ced1"/>
            <polygon points="993.366 329.651 1006.596 364.196 980.136 364.196 993.366 329.651" fill="#a7ced1"/>
            <polygon points="877.894 394.735 886.812 418.019 868.977 418.019 877.894 394.735" fill="#c0e1e3"/>
          </g>
          <g>
            <g>
              <circle cx="412.8" cy="381.25" r="17.783" fill="#b8c445"/>
              <g>
                <line x1="412.964" y1="382.491" x2="421.509" y2="374.536" fill="none" stroke="#002f47" stroke-linecap="round" stroke-miterlimit="10" stroke-width="1.173"/>
                <line x1="402.447" y1="377.406" x2="412.8" y2="389.965" fill="none" stroke="#002f47" stroke-linecap="round" stroke-miterlimit="10" stroke-width="1.173"/>
                <line x1="412.8" y1="424.095" x2="412.8" y2="374.094" fill="none" stroke="#002f47" stroke-linecap="round" stroke-miterlimit="10" stroke-width="1.173"/>
              </g>
            </g>
            <g>
              <circle cx="392.509" cy="390.362" r="14.001" fill="#c2d64c"/>
              <g>
                <line x1="392.38" y1="391.34" x2="385.652" y2="385.076" fill="none" stroke="#002f47" stroke-linecap="round" stroke-miterlimit="10" stroke-width="1.173"/>
                <line x1="400.66" y1="387.336" x2="392.509" y2="394.326" fill="none" stroke="#002f47" stroke-linecap="round" stroke-miterlimit="10" stroke-width="1.173"/>
                <line x1="392.509" y1="424.095" x2="392.509" y2="384.728" fill="none" stroke="#002f47" stroke-linecap="round" stroke-miterlimit="10" stroke-width="1.173"/>
              </g>
            </g>
          </g>
        </g>
      </g>
      <g>
        <ellipse cx="651.207" cy="534.664" rx="110.141" ry="4.607" fill="#002f47" opacity="0.5"/>
        <g>
          <g>
            <g>
              <g>
                <rect x="548.011" y="425.982" width="207.479" height="108.27" fill="gold"/>
                <g>
                  <g>
                    <rect x="556.876" y="434.847" width="189.748" height="90.539" fill="#ffd804"/>
                    <rect x="556.876" y="434.847" width="189.748" height="90.539" fill="#554c17" opacity="0.05"/>
                  </g>
                  <path d="M743.078,438.394V521.84H560.423V438.394H743.078m3.547-3.547H556.876v90.539H746.625V434.847Z" fill="#585018" opacity="0.1"/>
                </g>
              </g>
              <g>
                <g>
                  <path d="M699.411,445.243a4.709,4.709,0,0,0-4.712,4.712v61.9a4.712,4.712,0,1,0,9.423,0v-61.9a4.708,4.708,0,0,0-4.711-4.712Z" fill="#786418"/>
                  <path d="M675.934,445.243a4.709,4.709,0,0,0-4.712,4.712v61.9a4.712,4.712,0,1,0,9.424,0v-61.9a4.71,4.71,0,0,0-4.712-4.712Z" fill="#786418"/>
                  <path d="M652.54,445.243a4.709,4.709,0,0,0-4.712,4.712v61.9a4.712,4.712,0,0,0,9.424,0v-61.9a4.819,4.819,0,0,0-4.712-4.712Z" fill="#786418"/>
                  <path d="M629.064,445.243a4.709,4.709,0,0,0-4.712,4.712v61.9a4.712,4.712,0,1,0,9.423,0v-61.9a4.763,4.763,0,0,0-4.711-4.712Z" fill="#786418"/>
                  <path d="M605.587,445.243a4.709,4.709,0,0,0-4.712,4.712v61.9a4.712,4.712,0,0,0,9.424,0v-61.9a4.763,4.763,0,0,0-4.712-4.712Z" fill="#786418"/>
                  <path d="M582.11,445.243a4.709,4.709,0,0,0-4.711,4.712v61.9a4.712,4.712,0,1,0,9.423,0v-61.9a4.709,4.709,0,0,0-4.712-4.712Z" fill="#786418"/>
                  <path d="M722.887,445.243a4.709,4.709,0,0,0-4.711,4.712v61.9a4.71,4.71,0,0,0,4.711,4.712,4.658,4.658,0,0,0,4.712-4.712v-61.9a4.763,4.763,0,0,0-4.712-4.712Z" fill="#786418"/>
                </g>
                <g>
                  <path d="M698.584,444.416a4.71,4.71,0,0,0-4.712,4.712v61.9a4.712,4.712,0,1,0,9.424,0v-61.9a4.71,4.71,0,0,0-4.712-4.712Z" fill="#fbe064"/>
                  <path d="M675.107,444.416a4.71,4.71,0,0,0-4.711,4.712v61.9a4.712,4.712,0,1,0,9.423,0v-61.9a4.709,4.709,0,0,0-4.712-4.712Z" fill="#fbe064"/>
                  <path d="M651.713,444.416A4.71,4.71,0,0,0,647,449.128v61.9a4.712,4.712,0,1,0,9.423,0v-61.9a4.819,4.819,0,0,0-4.712-4.712Z" fill="#fbe064"/>
                  <path d="M628.237,444.416a4.71,4.71,0,0,0-4.712,4.712v61.9a4.712,4.712,0,0,0,9.424,0v-61.9a4.764,4.764,0,0,0-4.712-4.712Z" fill="#fbe064"/>
                  <path d="M604.76,444.416a4.71,4.71,0,0,0-4.712,4.712v61.9a4.712,4.712,0,0,0,9.424,0v-61.9a4.763,4.763,0,0,0-4.712-4.712Z" fill="#fbe064"/>
                  <path d="M581.284,444.416a4.71,4.71,0,0,0-4.712,4.712v61.9a4.712,4.712,0,0,0,9.424,0v-61.9a4.71,4.71,0,0,0-4.712-4.712Z" fill="#fbe064"/>
                  <path d="M722.061,444.416a4.71,4.71,0,0,0-4.712,4.712v61.9a4.709,4.709,0,0,0,4.712,4.712,4.658,4.658,0,0,0,4.711-4.712v-61.9a4.763,4.763,0,0,0-4.711-4.712Z" fill="#fbe064"/>
                </g>
              </g>
            </g>
            <rect x="548.011" y="529.855" width="207.479" height="4.397" fill="#867319"/>
          </g>
          <polygon points="552.513 423.595 750.988 423.595 755.49 425.982 548.011 425.982 552.513 423.595" fill="#fbe064"/>
        </g>
      </g>
      <g>
        <g>
          <g>
            <g>
              <rect x="548.011" y="317.523" width="207.479" height="108.27" fill="gold"/>
              <g>
                <g>
                  <rect x="556.876" y="326.389" width="189.748" height="90.539" fill="#ffd804"/>
                  <rect x="556.876" y="326.389" width="189.748" height="90.539" fill="#554c17" opacity="0.05"/>
                </g>
                <path d="M743.078,329.935v83.446H560.423V329.935H743.078m3.547-3.546H556.876v90.538H746.625V326.389Z" fill="#585018" opacity="0.1"/>
              </g>
            </g>
            <g>
              <g>
                <path d="M699.411,336.784A4.71,4.71,0,0,0,694.7,341.5v61.9a4.712,4.712,0,1,0,9.423,0V341.5a4.708,4.708,0,0,0-4.711-4.712Z" fill="#786418"/>
                <path d="M675.934,336.784a4.71,4.71,0,0,0-4.712,4.712v61.9a4.712,4.712,0,1,0,9.424,0V341.5a4.71,4.71,0,0,0-4.712-4.712Z" fill="#786418"/>
                <path d="M652.54,336.784a4.71,4.71,0,0,0-4.712,4.712v61.9a4.712,4.712,0,1,0,9.424,0V341.5a4.819,4.819,0,0,0-4.712-4.712Z" fill="#786418"/>
                <path d="M629.064,336.784a4.71,4.71,0,0,0-4.712,4.712v61.9a4.712,4.712,0,1,0,9.423,0V341.5a4.763,4.763,0,0,0-4.711-4.712Z" fill="#786418"/>
                <path d="M605.587,336.784a4.71,4.71,0,0,0-4.712,4.712v61.9a4.712,4.712,0,1,0,9.424,0V341.5a4.763,4.763,0,0,0-4.712-4.712Z" fill="#786418"/>
                <path d="M582.11,336.784A4.71,4.71,0,0,0,577.4,341.5v61.9a4.712,4.712,0,1,0,9.423,0V341.5a4.709,4.709,0,0,0-4.712-4.712Z" fill="#786418"/>
                <path d="M722.887,336.784a4.71,4.71,0,0,0-4.711,4.712v61.9a4.709,4.709,0,0,0,4.711,4.712,4.658,4.658,0,0,0,4.712-4.712V341.5a4.763,4.763,0,0,0-4.712-4.712Z" fill="#786418"/>
              </g>
              <g>
                <path d="M698.584,335.958a4.709,4.709,0,0,0-4.712,4.711v61.9a4.712,4.712,0,0,0,9.424,0v-61.9a4.71,4.71,0,0,0-4.712-4.711Z" fill="#fbe064"/>
                <path d="M675.107,335.958a4.709,4.709,0,0,0-4.711,4.711v61.9a4.712,4.712,0,1,0,9.423,0v-61.9a4.709,4.709,0,0,0-4.712-4.711Z" fill="#fbe064"/>
                <path d="M651.713,335.958A4.709,4.709,0,0,0,647,340.669v61.9a4.712,4.712,0,1,0,9.423,0v-61.9a4.819,4.819,0,0,0-4.712-4.711Z" fill="#fbe064"/>
                <path d="M628.237,335.958a4.709,4.709,0,0,0-4.712,4.711v61.9a4.712,4.712,0,0,0,9.424,0v-61.9a4.764,4.764,0,0,0-4.712-4.711Z" fill="#fbe064"/>
                <path d="M604.76,335.958a4.71,4.71,0,0,0-4.712,4.711v61.9a4.712,4.712,0,1,0,9.424,0v-61.9a4.763,4.763,0,0,0-4.712-4.711Z" fill="#fbe064"/>
                <path d="M581.284,335.958a4.709,4.709,0,0,0-4.712,4.711v61.9a4.712,4.712,0,0,0,9.424,0v-61.9a4.71,4.71,0,0,0-4.712-4.711Z" fill="#fbe064"/>
                <path d="M722.061,335.958a4.709,4.709,0,0,0-4.712,4.711v61.9a4.709,4.709,0,0,0,4.712,4.712,4.657,4.657,0,0,0,4.711-4.712v-61.9a4.763,4.763,0,0,0-4.711-4.711Z" fill="#fbe064"/>
              </g>
            </g>
          </g>
          <rect x="548.011" y="421.396" width="207.479" height="4.397" fill="#867319"/>
        </g>
        <polygon points="552.513 315.136 750.988 315.136 755.49 317.523 548.011 317.523 552.513 315.136" fill="#fbe064"/>
      </g>
      <g>
        <g>
          <g>
            <g>
              <rect x="548.011" y="209.319" width="207.479" height="108.27" fill="gold"/>
              <g>
                <g>
                  <rect x="556.876" y="218.184" width="189.748" height="90.539" fill="#ffd804"/>
                  <rect x="556.876" y="218.184" width="189.748" height="90.539" fill="#554c17" opacity="0.05"/>
                </g>
                <path d="M743.078,221.731v83.446H560.423V221.731H743.078m3.547-3.547H556.876v90.539H746.625V218.184Z" fill="#585018" opacity="0.1"/>
              </g>
            </g>
            <g>
              <g>
                <path d="M699.411,228.58a4.709,4.709,0,0,0-4.712,4.712v61.9a4.712,4.712,0,1,0,9.423,0v-61.9a4.708,4.708,0,0,0-4.711-4.712Z" fill="#786418"/>
                <path d="M675.934,228.58a4.709,4.709,0,0,0-4.712,4.712v61.9a4.712,4.712,0,0,0,9.424,0v-61.9a4.71,4.71,0,0,0-4.712-4.712Z" fill="#786418"/>
                <path d="M652.54,228.58a4.709,4.709,0,0,0-4.712,4.712v61.9a4.712,4.712,0,0,0,9.424,0v-61.9a4.819,4.819,0,0,0-4.712-4.712Z" fill="#786418"/>
                <path d="M629.064,228.58a4.709,4.709,0,0,0-4.712,4.712v61.9a4.712,4.712,0,1,0,9.423,0v-61.9a4.763,4.763,0,0,0-4.711-4.712Z" fill="#786418"/>
                <path d="M605.587,228.58a4.709,4.709,0,0,0-4.712,4.712v61.9a4.712,4.712,0,0,0,9.424,0v-61.9a4.763,4.763,0,0,0-4.712-4.712Z" fill="#786418"/>
                <path d="M582.11,228.58a4.709,4.709,0,0,0-4.711,4.712v61.9a4.712,4.712,0,1,0,9.423,0v-61.9a4.709,4.709,0,0,0-4.712-4.712Z" fill="#786418"/>
                <path d="M722.887,228.58a4.709,4.709,0,0,0-4.711,4.712v61.9a4.71,4.71,0,0,0,4.711,4.712,4.658,4.658,0,0,0,4.712-4.712v-61.9a4.763,4.763,0,0,0-4.712-4.712Z" fill="#786418"/>
              </g>
              <g>
                <path d="M698.584,227.753a4.71,4.71,0,0,0-4.712,4.712v61.9a4.712,4.712,0,0,0,9.424,0v-61.9a4.71,4.71,0,0,0-4.712-4.712Z" fill="#fbe064"/>
                <path d="M675.107,227.753a4.71,4.71,0,0,0-4.711,4.712v61.9a4.712,4.712,0,1,0,9.423,0v-61.9a4.709,4.709,0,0,0-4.712-4.712Z" fill="#fbe064"/>
                <path d="M651.713,227.753A4.71,4.71,0,0,0,647,232.465v61.9a4.712,4.712,0,1,0,9.423,0v-61.9a4.819,4.819,0,0,0-4.712-4.712Z" fill="#fbe064"/>
                <path d="M628.237,227.753a4.71,4.71,0,0,0-4.712,4.712v61.9a4.712,4.712,0,0,0,9.424,0v-61.9a4.764,4.764,0,0,0-4.712-4.712Z" fill="#fbe064"/>
                <path d="M604.76,227.753a4.71,4.71,0,0,0-4.712,4.712v61.9a4.712,4.712,0,0,0,9.424,0v-61.9a4.763,4.763,0,0,0-4.712-4.712Z" fill="#fbe064"/>
                <path d="M581.284,227.753a4.71,4.71,0,0,0-4.712,4.712v61.9a4.712,4.712,0,0,0,9.424,0v-61.9a4.71,4.71,0,0,0-4.712-4.712Z" fill="#fbe064"/>
                <path d="M722.061,227.753a4.71,4.71,0,0,0-4.712,4.712v61.9a4.709,4.709,0,0,0,4.712,4.712,4.658,4.658,0,0,0,4.711-4.712v-61.9a4.763,4.763,0,0,0-4.711-4.712Z" fill="#fbe064"/>
              </g>
            </g>
          </g>
          <rect x="548.011" y="313.192" width="207.479" height="4.397" fill="#867319"/>
        </g>
        <polygon points="552.513 206.932 750.988 206.932 755.49 209.319 548.011 209.319 552.513 206.932" fill="#fbe064"/>
      </g>
      <g>
        <g>
          <path d="M726.707,193.112a.373.373,0,1,0,0-.746H707.4a2.356,2.356,0,0,0,0,4.712h19.311a.373.373,0,1,0,0-.745h-3.138v-3.221Z" fill="#0b3046"/>
          <g>
            <path d="M726.707,193.112a.373.373,0,1,0,0-.746H711.38a2.378,2.378,0,0,0,0,4.712h15.327a.373.373,0,1,0,0-.745h-3.138v-3.221Z" fill="#f69220"/>
            <path d="M726.707,193.112a.373.373,0,1,0,0-.746H711.38a2.378,2.378,0,0,0,0,4.712h15.327a.373.373,0,1,0,0-.745h-3.138v-3.221Z" fill="#2c5871" style="mix-blend-mode: multiply"/>
          </g>
          <path d="M712.211,192.914a1.809,1.809,0,0,0,0,3.617h13.832c.043,0,.085,0,.127-.006v-3.6c-.042,0-.084-.007-.127-.007Z" fill="#fff"/>
          <g>
            <rect x="712.792" y="195.471" width="12.016" height="0.219" fill="#e7e6e6"/>
            <rect x="712.926" y="193.735" width="12.015" height="0.22" fill="#e7e6e6"/>
            <rect x="714.222" y="194.655" width="5.897" height="0.183" fill="#e7e6e6"/>
          </g>
        </g>
        <g>
          <path d="M722.505,197.847a.373.373,0,1,0,0-.745H703.2a2.356,2.356,0,0,0,0,4.711h19.31a.373.373,0,1,0,0-.746h-3.138v-3.22Z" fill="#0b3046"/>
          <g style="mix-blend-mode: multiply">
            <path d="M722.505,197.847a.373.373,0,1,0,0-.745H707.178a2.377,2.377,0,0,0,0,4.711h15.327a.373.373,0,1,0,0-.746h-3.138v-3.22Z" fill="#f69220"/>
            <path d="M722.505,197.847a.373.373,0,1,0,0-.745H707.178a2.377,2.377,0,0,0,0,4.711h15.327a.373.373,0,1,0,0-.746h-3.138v-3.22Z" fill="#39728b" style="mix-blend-mode: multiply"/>
          </g>
          <path d="M708.009,197.649a1.808,1.808,0,1,0,0,3.616h13.833c.043,0,.085,0,.127-.006v-3.6c-.042,0-.084-.006-.127-.006Z" fill="#fff"/>
          <g>
            <rect x="708.591" y="200.205" width="12.016" height="0.219" fill="#e7e6e6"/>
            <rect x="708.725" y="198.47" width="12.015" height="0.22" fill="#e7e6e6"/>
            <rect x="710.02" y="199.39" width="5.898" height="0.184" fill="#e7e6e6"/>
            <polygon points="716.496 200.444 717.141 199.678 717.743 200.444 717.743 198.47 716.496 198.47 716.496 200.444" fill="#f69220"/>
          </g>
        </g>
        <g>
          <path d="M724.691,202.681a.379.379,0,1,0,0-.758H705.045a2.4,2.4,0,0,0,0,4.793h19.646a.379.379,0,1,0,0-.758H721.5v-3.277Z" fill="#0b3046"/>
          <g style="mix-blend-mode: multiply">
            <path d="M724.691,202.681a.379.379,0,1,0,0-.758H709.1a2.419,2.419,0,0,0,0,4.793h15.593a.379.379,0,1,0,0-.758H721.5v-3.277Z" fill="#d0d1d2"/>
            <path d="M724.691,202.681a.379.379,0,1,0,0-.758H709.1a2.419,2.419,0,0,0,0,4.793h15.593a.379.379,0,1,0,0-.758H721.5v-3.277Z" fill="#d0d1d2" style="mix-blend-mode: multiply"/>
          </g>
          <path d="M709.943,202.479a1.84,1.84,0,1,0,0,3.68h14.073c.044,0,.086,0,.129-.006v-3.667c-.043,0-.085-.007-.129-.007Z" fill="#fff"/>
          <g>
            <rect x="710.535" y="205.08" width="12.225" height="0.222" fill="#e7e6e6"/>
            <rect x="710.671" y="203.315" width="12.225" height="0.223" fill="#e7e6e6"/>
            <rect x="711.99" y="204.251" width="6" height="0.187" fill="#e7e6e6"/>
            <polygon points="718.577 205.323 719.234 204.543 719.846 205.323 719.846 203.315 718.577 203.315 718.577 205.323" fill="#ef4882"/>
          </g>
        </g>
      </g>
      <g>
        <g opacity="0.15">
          <g>
            <path d="M744.226,543.948a1.8,1.8,0,0,0,1.951,1.609h0a1.805,1.805,0,0,0,1.952-1.609V204.28a1.806,1.806,0,0,0-1.952-1.61h0a1.805,1.805,0,0,0-1.951,1.61Z" fill="#303030"/>
            <rect x="714.439" y="272.024" width="31.738" height="3.299" fill="#303030"/>
            <rect x="714.439" y="286.998" width="31.738" height="3.299" fill="#303030"/>
            <rect x="714.439" y="235.551" width="31.738" height="3.299" fill="#303030"/>
            <rect x="714.439" y="219.002" width="31.738" height="3.299" fill="#303030"/>
            <rect x="714.439" y="250.526" width="31.738" height="3.299" fill="#303030"/>
            <rect x="714.439" y="303.42" width="31.738" height="3.299" fill="#303030"/>
            <rect x="714.439" y="318.395" width="31.738" height="3.299" fill="#303030"/>
            <rect x="714.439" y="334.817" width="31.738" height="3.299" fill="#303030"/>
            <rect x="714.439" y="349.792" width="31.738" height="3.299" fill="#303030"/>
            <rect x="714.439" y="366.213" width="31.738" height="3.299" fill="#303030"/>
            <rect x="714.439" y="381.188" width="31.738" height="3.299" fill="#303030"/>
            <rect x="714.439" y="397.609" width="31.738" height="3.299" fill="#303030"/>
            <rect x="714.439" y="412.585" width="31.738" height="3.299" fill="#303030"/>
            <rect x="714.439" y="429.006" width="31.738" height="3.299" fill="#303030"/>
            <rect x="714.439" y="443.981" width="31.738" height="3.299" fill="#303030"/>
            <rect x="714.439" y="460.402" width="31.738" height="3.299" fill="#303030"/>
            <rect x="714.439" y="475.378" width="31.738" height="3.299" fill="#303030"/>
            <rect x="714.439" y="491.799" width="31.738" height="3.299" fill="#303030"/>
            <rect x="714.439" y="506.774" width="31.738" height="3.299" fill="#303030"/>
            <rect x="714.439" y="524.958" width="31.738" height="3.299" fill="#303030"/>
            <path d="M712.218,543.948a1.8,1.8,0,0,0,1.951,1.609h0a1.805,1.805,0,0,0,1.952-1.609V204.28a1.806,1.806,0,0,0-1.952-1.61h0a1.805,1.805,0,0,0-1.951,1.61Z" fill="#303030"/>
          </g>
        </g>
        <g>
          <path d="M748.447,543.48A2.367,2.367,0,0,0,751,545.557h0a2.29,2.29,0,0,0,2.491-2.077l-5.2-339.563c-.01-.689-.893-1.247-1.971-1.247h0c-1.077,0-1.944.558-1.936,1.247Z" fill="#66580e"/>
          <polygon points="713.78 261.706 747.118 261.706 747.079 258.897 713.818 258.897 713.78 261.706" fill="#66580e"/>
          <polygon points="713.607 274.622 747.294 274.622 747.255 271.753 713.645 271.753 713.607 274.622" fill="#66580e"/>
          <polygon points="714.188 231.344 746.703 231.344 746.666 228.671 714.224 228.671 714.188 231.344" fill="#66580e"/>
          <polygon points="714.366 218.056 746.521 218.056 746.486 215.442 714.401 215.442 714.366 218.056" fill="#66580e"/>
          <polygon points="714.023 243.627 746.871 243.627 746.833 240.899 714.06 240.899 714.023 243.627" fill="#66580e"/>
          <polygon points="713.412 289.101 747.492 289.101 747.452 286.165 713.452 286.165 713.412 289.101" fill="#66580e"/>
          <polygon points="713.231 302.6 747.676 302.6 747.635 299.601 713.271 299.601 713.231 302.6" fill="#66580e"/>
          <polygon points="713.028 317.742 747.883 317.742 747.841 314.671 713.069 314.671 713.028 317.742" fill="#66580e"/>
          <polygon points="712.838 331.867 748.076 331.867 748.033 328.729 712.88 328.729 712.838 331.867" fill="#66580e"/>
          <polygon points="712.625 347.718 748.293 347.718 748.249 344.503 712.668 344.503 712.625 347.718" fill="#66580e"/>
          <polygon points="712.426 362.513 748.495 362.513 748.45 359.225 712.471 359.225 712.426 362.513" fill="#66580e"/>
          <polygon points="712.203 379.124 748.721 379.124 748.675 375.754 712.249 375.754 712.203 379.124" fill="#66580e"/>
          <polygon points="711.995 394.637 748.933 394.637 748.886 391.189 712.041 391.189 711.995 394.637" fill="#66580e"/>
          <polygon points="711.761 412.065 749.171 412.065 749.123 408.528 711.808 408.528 711.761 412.065" fill="#66580e"/>
          <polygon points="711.542 428.35 749.394 428.35 749.344 424.73 711.591 424.73 711.542 428.35" fill="#66580e"/>
          <polygon points="711.296 446.656 749.644 446.656 749.593 442.94 711.346 442.94 711.296 446.656" fill="#66580e"/>
          <polygon points="711.067 463.772 749.878 463.772 749.826 459.966 711.118 459.966 711.067 463.772" fill="#66580e"/>
          <polygon points="710.808 483.024 750.141 483.024 750.087 479.115 710.861 479.115 710.808 483.024" fill="#66580e"/>
          <polygon points="710.566 501.036 750.387 501.036 750.332 497.03 710.62 497.03 710.566 501.036" fill="#66580e"/>
          <polygon points="710.264 523.52 750.694 523.52 750.637 519.39 710.32 519.39 710.264 523.52" fill="#66580e"/>
          <path d="M707.129,543.48a2.291,2.291,0,0,0,2.491,2.077h0a2.367,2.367,0,0,0,2.548-2.077l4.073-339.563c.008-.689-.86-1.247-1.937-1.247h0c-1.078,0-1.96.558-1.971,1.247Z" fill="#66580e"/>
        </g>
      </g>
      <g>
        <g>
          <path d="M647.935,78.045s.367.176,1,.507" fill="none" stroke="#fff" stroke-miterlimit="10" stroke-width="0.75"/>
          <path d="M650.9,79.623c6.176,3.5,19.536,12.3,15.729,21.156-4.906,11.412-19.692,2.971-10.22-1.523,9.228-4.379,39.666,35.115,35.344,63.441" fill="none" stroke="#fff" stroke-miterlimit="10" stroke-width="0.75" stroke-dasharray="2.244 2.244"/>
          <path d="M691.566,163.811q-.1.554-.226,1.1" fill="none" stroke="#fff" stroke-miterlimit="10" stroke-width="0.75"/>
        </g>
        <g>
          <g>
            <polygon points="647.229 69.255 643.704 74.689 626.932 58.913 647.229 69.255" fill="#e6e6e6" fill-rule="evenodd"/>
            <polygon points="647.229 69.255 652.638 70.058 626.932 58.913 647.229 69.255" fill="#fdfdfd" fill-rule="evenodd"/>
            <polyline points="644.092 69.749 643.704 74.689 626.932 58.913 644.092 69.749" fill="#ccc"/>
          </g>
          <polygon points="644.092 69.749 635.744 71.824 626.932 58.913 644.092 69.749" fill="#fdfdfd" fill-rule="evenodd"/>
        </g>
      </g>
      <g>
        <g>
          <path d="M1103.27,447.175s-1.572-19.313-22.233-38.322" fill="none" stroke="#c2d64c" stroke-miterlimit="10" stroke-width="1.528"/>
          <path d="M1085.532,413.3s1.664-10.538-9.412-13.268C1076.12,400.03,1074.941,411.57,1085.532,413.3Z" fill="#c2d64c"/>
          <path d="M1090.494,418.871s-7.513-7.574-16.265-.256C1074.229,418.615,1082.838,426.39,1090.494,418.871Z" fill="#c2d64c"/>
          <path d="M1090.494,418.871s8.741-6.117,3.017-15.985C1093.511,402.886,1084.385,410.049,1090.494,418.871Z" fill="#c2d64c"/>
          <path d="M1096.473,428.319s-6.6-8.383-16.129-2.114C1080.344,426.205,1088.008,434.914,1096.473,428.319Z" fill="#c2d64c"/>
          <path d="M1096.473,428.319s9.383-5.077,4.825-15.534C1101.3,412.785,1091.413,418.857,1096.473,428.319Z" fill="#c2d64c"/>
          <path d="M1101.73,439.348s-5.3-9.258-15.646-4.45C1086.084,434.9,1092.391,444.634,1101.73,439.348Z" fill="#c2d64c"/>
          <path d="M1101.73,439.348s10.024-3.651,7.044-14.662C1108.774,424.686,1098.108,429.247,1101.73,439.348Z" fill="#c2d64c"/>
        </g>
        <g>
          <path d="M1145.561,463.98c0,2.722-18.292,4.928-40.857,4.928s-40.856-2.206-40.856-4.928,18.292-4.928,40.856-4.928,40.857,2.207,40.857,4.928" fill="#002f47" opacity="0.5"/>
          <g clip-path="url(#c)">
            <g>
              <g>
                <path d="M1100.337,467.5l13.02-43.453C1079.159,440.572,1100.337,467.5,1100.337,467.5Z" fill="#155263"/>
                <path d="M1113.357,424.047l-13.02,43.453C1132.732,450.581,1113.357,424.047,1113.357,424.047Z" fill="#1f7a89"/>
              </g>
              <g>
                <path d="M1133.744,437.481,1103.732,471.5C1141.707,470.8,1133.744,437.481,1133.744,437.481Z" fill="#1f7a89"/>
                <path d="M1103.732,471.5l30.012-34.015C1097.241,439.29,1103.732,471.5,1103.732,471.5Z" fill="#2996a8"/>
              </g>
              <g>
                <path d="M1096.061,466.294,1075.2,426.015C1062.116,461.673,1096.061,466.294,1096.061,466.294Z" fill="#1f7a89"/>
                <path d="M1075.2,426.015l20.866,40.279C1107.57,431.606,1075.2,426.015,1075.2,426.015Z" fill="#2996a8"/>
              </g>
            </g>
          </g>
        </g>
      </g>
      <g>
        <g>
          <path d="M519.869,522.905s-2.12-32.351,27.432-68.868" fill="none"/>
          <path d="M540.948,462.493s-5.331-17.036,12.335-24.263C553.283,438.23,558.057,457.044,540.948,462.493Z" fill="none"/>
          <path d="M534.1,472.932s10.585-14.374,26.86-4.4C560.957,468.53,548.607,483.506,534.1,472.932Z" fill="none"/>
          <path d="M534.1,472.932s-15.964-7.989-8.9-25.723C525.2,447.209,542.052,456.835,534.1,472.932Z" fill="none"/>
          <path d="M526.51,490.033s8.871-15.49,26.181-7.444C552.691,482.589,542.135,498.88,526.51,490.033Z" fill="none"/>
          <path d="M526.51,490.033s-16.772-6.11-11.785-24.535C514.725,465.5,532.572,473.133,526.51,490.033Z" fill="none"/>
          <path d="M520.5,509.574s6.512-16.621,24.812-11.192C545.316,498.382,537.256,516.041,520.5,509.574Z" fill="none"/>
          <path d="M520.5,509.574s-17.484-3.593-15.244-22.549C505.26,487.025,524.031,491.968,520.5,509.574Z" fill="none"/>
        </g>
        <g>
          <path d="M581.209,544.712c0,4.554-30.607,8.245-68.363,8.245s-68.362-3.691-68.362-8.245,30.607-8.246,68.362-8.246,68.363,3.692,68.363,8.246" fill="#01141c" opacity="0.5"/>
          <g clip-path="url(#d)">
            <g>
              <g>
                <path d="M510.536,551.022,501.182,475.7C552.989,512.505,510.536,551.022,510.536,551.022Z" fill="#155263"/>
                <path d="M501.182,475.7l9.354,75.323C461.813,514.066,501.182,475.7,501.182,475.7Z" fill="#1f7a89"/>
              </g>
              <g>
                <path d="M463.8,492.172l40.019,64.494C441.363,544.92,463.8,492.172,463.8,492.172Z" fill="#1f7a89"/>
                <path d="M503.818,556.666,463.8,492.172C523.516,505.344,503.818,556.666,503.818,556.666Z" fill="#2996a8"/>
              </g>
              <g>
                <path d="M517.927,550.224,563.592,489.6C575.219,552.074,517.927,550.224,517.927,550.224Z" fill="#1f7a89"/>
                <path d="M563.592,489.6l-45.665,60.628C508.62,489.784,563.592,489.6,563.592,489.6Z" fill="#2996a8"/>
              </g>
            </g>
          </g>
        </g>
      </g>
      <g>
        <g>
          <path d="M642.908,162.413h34.021a0,0,0,0,1,0,0v2.757a13.558,13.558,0,0,1-13.558,13.558h-6.9a13.558,13.558,0,0,1-13.558-13.558v-2.757A0,0,0,0,1,642.908,162.413Z" transform="translate(1319.837 341.142) rotate(-180)" fill="#0c3148"/>
          <path d="M650.617,162.382h18.6a1.419,1.419,0,0,1,1.419,1.419v21.74a10.151,10.151,0,0,1-10.151,10.151h-1.14A10.151,10.151,0,0,1,649.2,185.542V163.8A1.419,1.419,0,0,1,650.617,162.382Z" transform="translate(1319.837 358.075) rotate(-180)" fill="#0c3148"/>
          <path d="M659.256,161.925h1.337a2.77,2.77,0,0,1,2.77,2.77v.218a0,0,0,0,1,0,0h-6.876a0,0,0,0,1,0,0v-.218A2.77,2.77,0,0,1,659.256,161.925Z" transform="translate(1319.849 326.837) rotate(180)" fill="#002f47"/>
          <g>
            <path d="M656.477,160.531v-2.566a7.244,7.244,0,0,1-1.454-1.231l-.229.023c-1.474.2-2.059,2.333-3.278,3.626.867,2.078,3.413,3.216,6.684,3.947-.075-.05-.148-.1-.22-.153a4.611,4.611,0,0,1-1.5-1.847h0Z" fill="#736357"/>
            <path d="M654.8,156.5c-1.2.319-2.06,1.844-3,3.032a5.307,5.307,0,0,0-.983,2h0a1.246,1.246,0,0,0,.111.89h0a1.252,1.252,0,0,0,.648.573l4.163,1.609,2.5.612,1.673-.282a32.116,32.116,0,0,1-6.575-2.86,1.912,1.912,0,0,1-.372-2.9,10.391,10.391,0,0,1,2.343-2.17C655.259,156.973,654.8,156.5,654.8,156.5Z" fill="#677e97"/>
            <g>
              <path d="M657.368,164.423a.43.43,0,0,1-.493.374.469.469,0,0,1-.475-.431.43.43,0,0,1,.493-.375A.472.472,0,0,1,657.368,164.423Z" fill="#959495"/>
              <path d="M656.393,173.115l.833.041s-.086-6.884-.1-7.788-.04-1.074-.243-1.084-.182.225-.21,1S656.393,173.115,656.393,173.115Z" fill="#585e61"/>
            </g>
          </g>
          <g>
            <path d="M663.334,160.531v-2.944a7.209,7.209,0,0,0,1.366-1.328l.229.007c1.485.1,2.147,2.824,3.366,4.117-.867,2.078-3.413,3.216-6.684,3.947.075-.05.148-.1.22-.153a4.611,4.611,0,0,0,1.5-1.847h0Z" fill="#736357"/>
            <path d="M664.908,156.012c1.214.236,2.165,2.334,3.1,3.522a5.294,5.294,0,0,1,.984,2h0a1.246,1.246,0,0,1-.111.89h0a1.252,1.252,0,0,1-.648.573l-4.163,1.609-2.5.612-1.674-.282a32.1,32.1,0,0,0,6.576-2.86,1.912,1.912,0,0,0,.372-2.9c-.878-.962-1.784-2.393-2.411-2.627C664.481,156.514,664.908,156.012,664.908,156.012Z" fill="#677e97"/>
            <g>
              <path d="M662.443,164.423a.43.43,0,0,0,.493.374.469.469,0,0,0,.475-.431.431.431,0,0,0-.493-.375A.472.472,0,0,0,662.443,164.423Z" fill="#959495"/>
              <path d="M663.418,173.115l-.833.041s.086-6.884.1-7.788.04-1.074.243-1.084.182.225.21,1Z" fill="#585e61"/>
            </g>
          </g>
          <path d="M665.638,188.324v1.945a18.9,18.9,0,0,1-6.5,1.094,19.5,19.5,0,0,1-5.58-.785v-2.291a4.92,4.92,0,0,0,1.3-1.228,6.163,6.163,0,0,0,1.522-3.884h6.21A6.18,6.18,0,0,0,665.638,188.324Z" fill="#68819a"/>
          <path d="M659.657,153.856a2.957,2.957,0,0,0,2.224-.7h-4.448A2.959,2.959,0,0,0,659.657,153.856Z" fill="#e2a98d"/>
          <g>
            <path d="M660.293,160.088c1.067-.058,2.083-1.051,3.03-1.379V162h-6.865V158.88c1,.284,2.065,1.226,3.176,1.226C659.853,160.106,660.072,160.1,660.293,160.088Z" fill="#f2b494"/>
            <path d="M660.183,158.644a9.34,9.34,0,0,0,3.14-1.057v1.591a11.437,11.437,0,0,1-3.03.91c-.221.013-.44.018-.659.018a11.813,11.813,0,0,1-3.176-.757V157.8A9.748,9.748,0,0,0,660.183,158.644Z" fill="#e2a98d"/>
          </g>
          <path d="M654.653,149.561a1.948,1.948,0,0,0-1.767-2.089,1.647,1.647,0,0,0-1.46,2.089c.169,1.154.96,2.09,1.767,2.09S654.653,150.715,654.653,149.561Z" fill="#e2a98d"/>
          <path d="M664.661,149.561a1.948,1.948,0,0,1,1.767-2.089,1.648,1.648,0,0,1,1.461,2.089c-.17,1.154-.961,2.09-1.767,2.09S664.661,150.715,664.661,149.561Z" fill="#e2a98d"/>
          <path d="M659.623,137.162h0a6.909,6.909,0,0,1,6.909,6.909v9.246a5.9,5.9,0,0,1-5.9,5.9h-2.017a5.9,5.9,0,0,1-5.9-5.9V144.07a6.909,6.909,0,0,1,6.909-6.909Z" transform="translate(1319.246 296.378) rotate(180)" fill="#f2b494"/>
          <circle cx="655" cy="147.569" r="0.685" fill="#010100"/>
          <circle cx="661.399" cy="147.569" r="0.685" fill="#010100"/>
          <path d="M653.56,138.743a2.546,2.546,0,0,1,2.574-2.517h5.849a4.873,4.873,0,0,1,4.807,4.829l.046,5.388-.509,1.411V142.8a2.166,2.166,0,0,0-2.15-2.166l-8.976-.067a2.167,2.167,0,0,0-2.182,2.166v5l-.287-.552-.174-7.115a1.328,1.328,0,0,1,1-1.322Z" fill="#683721"/>
          <g>
            <line x1="645.915" y1="176.672" x2="644.047" y2="184.71" fill="none" stroke="#0c3148" stroke-miterlimit="10" stroke-width="5.791"/>
            <line x1="655.005" y1="186.762" x2="662.055" y2="188.082" fill="none" stroke="#f2b494" stroke-linecap="round" stroke-linejoin="round" stroke-width="4.343"/>
            <line x1="644.047" y1="184.71" x2="652.897" y2="186.367" fill="none" stroke="#0c3148" stroke-linecap="round" stroke-miterlimit="10" stroke-width="5.791"/>
            <line x1="650.228" y1="185.867" x2="659.078" y2="187.524" fill="none" stroke="#cb636f" stroke-miterlimit="10" stroke-width="5.791"/>
          </g>
          <g>
            <line x1="674.155" y1="176.724" x2="676.023" y2="184.763" fill="none" stroke="#0c3148" stroke-miterlimit="10" stroke-width="5.791"/>
            <line x1="665.066" y1="186.814" x2="658.015" y2="188.135" fill="none" stroke="#f2b494" stroke-linecap="round" stroke-linejoin="round" stroke-width="4.343"/>
            <line x1="676.023" y1="184.763" x2="667.173" y2="186.42" fill="none" stroke="#0c3148" stroke-linecap="round" stroke-miterlimit="10" stroke-width="5.791"/>
            <line x1="669.842" y1="185.92" x2="660.992" y2="187.577" fill="#0c3148" stroke="#cb636f" stroke-miterlimit="10" stroke-width="5.791"/>
          </g>
        </g>
        <g>
          <g>
            <g>
              <line x1="665.794" y1="219.552" x2="665.794" y2="227.913" fill="none" stroke="#ef9e69" stroke-miterlimit="10" stroke-width="4.43"/>
              <g>
                <g>
                  <rect x="662.497" y="225.753" width="6.645" height="2.229" fill="#c7d1db"/>
                  <path d="M665.82,223.539a4.429,4.429,0,0,1,4.429,4.429H661.39A4.429,4.429,0,0,1,665.82,223.539Z" fill="#c7d1db"/>
                  <rect x="661.39" y="227.968" width="8.86" height="0.612" fill="#c7d1db"/>
                </g>
                <g>
                  <rect x="662.497" y="225.753" width="6.645" height="2.229" fill="#ecf0f2"/>
                  <path d="M665.82,223.539a4.429,4.429,0,0,1,4.429,4.429H661.39A4.429,4.429,0,0,1,665.82,223.539Z" stroke="#0b3046" stroke-miterlimit="10" stroke-width="0.75"/>
                  <rect x="661.39" y="227.968" width="8.86" height="0.612" fill="#c7d1db"/>
                </g>
              </g>
            </g>
            <g>
              <path d="M659.919,195.662h0a9.962,9.962,0,0,1,9.962,9.962v1.592a0,0,0,0,1,0,0H649.957a0,0,0,0,1,0,0v-1.592A9.962,9.962,0,0,1,659.919,195.662Z" transform="translate(1319.837 402.878) rotate(-180)" fill="#8c6239"/>
              <g>
                <rect x="666.486" y="195.662" width="3.394" height="1.592" fill="#1e1e1c"/>
                <rect x="662.354" y="195.662" width="3.394" height="1.592" fill="#1e1e1c"/>
                <rect x="658.222" y="195.662" width="3.394" height="1.592" fill="#1e1e1c"/>
                <rect x="654.089" y="195.662" width="3.394" height="1.592" fill="#1e1e1c"/>
                <rect x="649.957" y="195.662" width="3.394" height="1.592" fill="#1e1e1c"/>
              </g>
            </g>
          </g>
          <g>
            <line x1="666.558" y1="195.018" x2="666.558" y2="219.643" fill="none" stroke="#a67c52" stroke-linecap="round" stroke-miterlimit="10" stroke-width="6.645"/>
            <line x1="666.558" y1="219.148" x2="666.558" y2="222.965" fill="none" stroke="#c69c6d" stroke-miterlimit="10" stroke-width="8.121"/>
          </g>
          <g>
            <line x1="653.766" y1="219.552" x2="653.766" y2="227.913" fill="none" stroke="#ef9e69" stroke-miterlimit="10" stroke-width="4.43"/>
            <g>
              <g>
                <rect x="650.469" y="225.753" width="6.645" height="2.229" fill="#c7d1db"/>
                <path d="M653.792,223.539a4.429,4.429,0,0,1,4.429,4.429h-8.859A4.429,4.429,0,0,1,653.792,223.539Z" fill="#c7d1db"/>
                <rect x="649.362" y="227.968" width="8.86" height="0.612" fill="#c7d1db"/>
              </g>
              <g>
                <rect x="650.469" y="225.753" width="6.645" height="2.229" fill="#ecf0f2"/>
                <path d="M653.792,223.539a4.429,4.429,0,0,1,4.429,4.429h-8.859A4.429,4.429,0,0,1,653.792,223.539Z" stroke="#0b3046" stroke-miterlimit="10" stroke-width="0.75"/>
                <rect x="649.362" y="227.968" width="8.86" height="0.612" fill="#c7d1db"/>
              </g>
            </g>
          </g>
          <g>
            <line x1="653.053" y1="195.018" x2="653.053" y2="219.643" fill="none" stroke="#a67c52" stroke-linecap="round" stroke-miterlimit="10" stroke-width="6.645"/>
            <line x1="653.053" y1="219.148" x2="653.053" y2="222.965" fill="none" stroke="#c69c6d" stroke-miterlimit="10" stroke-width="8.121"/>
          </g>
        </g>
        <g>
          <path d="M646.489,188.626h24.678a3.253,3.253,0,0,1,3.253,3.253v0a0,0,0,0,1,0,0H643.236a0,0,0,0,1,0,0v0A3.253,3.253,0,0,1,646.489,188.626Z" transform="translate(1317.656 380.505) rotate(-180)" fill="#c2c6c6"/>
          <g>
            <g mask="url(#e)">
              <polygon points="668.7 188.206 675.183 160.016 642.974 160.016 648.94 188.229 668.7 188.206" fill="#e4efef"/>
            </g>
            <path d="M646.756,176.829l1.234,14.416a.667.667,0,0,0,.618.634h20.348a.667.667,0,0,0,.618-.634l1.234-14.416a.572.572,0,0,0-.58-.634H647.336A.572.572,0,0,0,646.756,176.829Z" fill="#e6e6e6"/>
          </g>
        </g>
        <path d="M657.994,153.952c-1.5,0-2.719-.492-2.719-1.1h5.438C660.713,153.46,659.5,153.952,657.994,153.952Z" fill="#e2a98d"/>
      </g>
      <g>
        <g>
          <use width="10" height="11.856" transform="matrix(-0.664, 0, 0, 0.664, 701.996, 219.052)" xlink:href="#n"/>
          <g>
            <g>
              <path d="M693.638,189.415h-.146a7.181,7.181,0,0,1-7.181-7.181l-.073-24.8,14.68-.05-.1,24.851A7.181,7.181,0,0,1,693.638,189.415Z" fill="#683721"/>
              <g>
                <ellipse cx="687.524" cy="160.175" rx="1.341" ry="1.918" fill="#dc9161"/>
                <ellipse cx="699.633" cy="160.175" rx="1.341" ry="1.918" fill="#dc9161"/>
                <path d="M687.219,154.193a6.506,6.506,0,0,1,5.934-6.02,6.382,6.382,0,0,1,6.794,6.026l.018.009v7.526l-.018.01a6.377,6.377,0,0,1-4.7,5.81q-.093.025-.189.048c-.112.027-.225.052-.339.073s-.212.034-.319.048-.184.024-.277.032c-.041,0-.08.011-.122.014-.07,0-.139,0-.209,0s-.143.011-.216.011c-.041,0-.081-.005-.122-.006-.109,0-.216-.009-.323-.016s-.221-.016-.331-.029-.205-.03-.306-.047-.22-.039-.329-.063-.191-.048-.285-.074c-.111-.03-.221-.062-.329-.1-.087-.029-.172-.061-.258-.094-.112-.043-.223-.088-.332-.137-.076-.034-.15-.071-.223-.108-.116-.057-.229-.116-.34-.18-.063-.036-.123-.074-.184-.112-.119-.074-.235-.15-.347-.23-.049-.035-.1-.071-.143-.107-.121-.092-.239-.187-.353-.287q-.051-.045-.1-.093c-.122-.111-.239-.226-.352-.347l-.066-.073c-.12-.132-.234-.268-.343-.41l-.036-.048q-.173-.23-.324-.475l-.012-.019a6.346,6.346,0,0,1-.929-2.986l-.017-.009V161.4l0-6.459Z" fill="#ef9e69"/>
                <circle cx="689.163" cy="157.025" r="0.628" fill="#010100"/>
                <circle cx="695.035" cy="157.025" r="0.628" fill="#010100"/>
              </g>
              <g>
                <path d="M694.089,169.094a7.414,7.414,0,0,0,2.346-.548v4.294H691.12V168.7a7.672,7.672,0,0,0,2.459.409C693.748,169.111,693.918,169.106,694.089,169.094Z" fill="#dc9161"/>
                <path d="M694,167.769a6.108,6.108,0,0,0,2.432-.683v1.46a7.414,7.414,0,0,1-2.346.548c-.171.012-.341.017-.51.017a7.672,7.672,0,0,1-2.459-.409v-1.419A6.381,6.381,0,0,0,694,167.769Z" fill="#c98559"/>
              </g>
            </g>
            <line x1="683.088" y1="183.352" x2="681.259" y2="191.641" fill="#e89a66" stroke="#e89a66" stroke-miterlimit="10" stroke-width="3.322"/>
            <use width="40" height="42.466" transform="matrix(-0.664, 0, 0, 0.664, 707.064, 170.017)" xlink:href="#o"/>
            <g>
              <g>
                <line x1="704.556" y1="184.657" x2="704.556" y2="191.877" fill="#e89a66" stroke="#e89a66" stroke-miterlimit="10" stroke-width="3.322"/>
                <line x1="695.752" y1="177.553" x2="701.457" y2="186.835" fill="none" stroke="#ef9e69" stroke-linecap="round" stroke-miterlimit="10" stroke-width="3.322"/>
                <line x1="701.109" y1="186.269" x2="704.556" y2="191.877" fill="none" stroke="#ef9e69" stroke-linecap="round" stroke-miterlimit="10" stroke-width="3.322"/>
              </g>
              <g>
                <line x1="693.406" y1="180.016" x2="685.534" y2="187.549" fill="none" stroke="#ef9e69" stroke-linecap="round" stroke-miterlimit="10" stroke-width="3.322"/>
                <line x1="686.014" y1="187.09" x2="681.259" y2="191.641" fill="none" stroke="#ef9e69" stroke-linecap="round" stroke-miterlimit="10" stroke-width="3.322"/>
              </g>
              <use width="24" height="13" transform="matrix(-0.664, 0, 0, 0.664, 701.762, 198.235)" xlink:href="#p"/>
            </g>
          </g>
          <use width="11" height="41.854" transform="matrix(-0.664, 0, 0, 0.664, 702.328, 194.916)" xlink:href="#q"/>
          <use width="10" height="11.856" transform="matrix(-0.664, 0, 0, 0.664, 692.186, 219.052)" xlink:href="#n"/>
          <use width="11" height="41.854" transform="matrix(-0.664, 0, 0, 0.664, 692.518, 194.916)" xlink:href="#q"/>
        </g>
        <g>
          <path d="M680.648,190.924h28.424a3.746,3.746,0,0,1,3.746,3.746v0a0,0,0,0,1,0,0H676.9a0,0,0,0,1,0,0v0A3.746,3.746,0,0,1,680.648,190.924Z" transform="translate(1389.72 385.595) rotate(-180)" fill="#c2c6c6"/>
          <g>
            <g mask="url(#f)">
              <polygon points="706.23 190.44 713.697 157.971 676.6 157.971 683.47 190.466 706.23 190.44" fill="#e4efef"/>
            </g>
            <path d="M680.955,177.336l1.422,16.6a.77.77,0,0,0,.711.73h23.438a.769.769,0,0,0,.711-.73l1.421-16.6a.659.659,0,0,0-.668-.73H681.623A.659.659,0,0,0,680.955,177.336Z" fill="#e6e6e6"/>
          </g>
        </g>
        <path d="M691.942,163.4c-1.5,0-2.719-.492-2.719-1.1h5.438C694.661,162.907,693.444,163.4,691.942,163.4Z" fill="#ca875a"/>
        <path d="M699.8,149.312a5.83,5.83,0,0,0-5.923-2.074l-.3.064-.3-.064a5.83,5.83,0,0,0-5.923,2.074,5.64,5.64,0,0,0-1.121,3.38v4.741l.954.318-.017-3.784c0-1.029.834-2.27,1.863-2.27h9.08c1.029,0,1.863,2.514,1.863,3.542l-.017,3.069.954-.875v-4.741A5.64,5.64,0,0,0,699.8,149.312Z" fill="#683721"/>
        <g>
          <path d="M686.646,155.565s5.57-2.52,6.932-3.881h-6.932Z" fill="#683721"/>
          <path d="M700.51,155.565s-5.57-2.52-6.932-3.881h6.932Z" fill="#683721"/>
        </g>
      </g>
      <g style="mix-blend-mode: multiply">
        <path d="M665.971,259.943a3.427,3.427,0,0,0-1.33-.878,4.907,4.907,0,0,0-1.722-.293,4.277,4.277,0,0,0-1.6.265,4.539,4.539,0,0,0-1.076.589,4.155,4.155,0,0,0-.823.9h-.043v-1.539h-2.221v10.546h2.215v-5.613a3.708,3.708,0,0,1,.215-1.311,2.954,2.954,0,0,1,.622-1,2.865,2.865,0,0,1,.941-.646,2.929,2.929,0,0,1,1.169-.228,2.613,2.613,0,0,1,1.889.676,2.786,2.786,0,0,1,.706,2.09v6.026h2.226v-6.27a5.494,5.494,0,0,0-.306-1.906,4.126,4.126,0,0,0-.861-1.408" fill="#867319"/>
        <path d="M682.256,256.96v-2.2h-4.387v5.829h-.062a3.838,3.838,0,0,0-.835-.917,5.093,5.093,0,0,0-1.128-.607,4.288,4.288,0,0,0-1.647-.286,4.783,4.783,0,0,0-1.937.395,4.917,4.917,0,0,0-1.6,1.122,5.159,5.159,0,0,0-1.087,1.735,6.069,6.069,0,0,0-.392,2.2,6.227,6.227,0,0,0,.39,2.245,5.029,5.029,0,0,0,1.087,1.722,5.147,5.147,0,0,0,1.6,1.124,4.716,4.716,0,0,0,1.937.4,4.576,4.576,0,0,0,2.775-.861,3.838,3.838,0,0,0,.835-.917h.062v1.561h4.387v-2.195h-2.192V256.96Zm-4.641,8.743a3.481,3.481,0,0,1-.684,1.1,2.91,2.91,0,0,1-1.024.709,3.273,3.273,0,0,1-1.292.248,3.157,3.157,0,0,1-1.257-.248,2.913,2.913,0,0,1-1.012-.709,3.305,3.305,0,0,1-.675-1.1,4.435,4.435,0,0,1,0-2.887,3.357,3.357,0,0,1,.675-1.1,3.042,3.042,0,0,1,2.269-.977,3.208,3.208,0,0,1,1.292.256,3.162,3.162,0,0,1,1.024.71,3.347,3.347,0,0,1,.684,1.105,3.944,3.944,0,0,1,.254,1.45,3.9,3.9,0,0,1-.254,1.445" fill="#867319"/>
        <path d="M636.525,261.714A3.246,3.246,0,0,1,637.55,261a3.407,3.407,0,0,1,2.709.05,3.474,3.474,0,0,1,.909.664,3.336,3.336,0,0,1,.43.605l1.533-1.534a.725.725,0,0,0-.046-.067,6.267,6.267,0,0,0-.684-.708,4.529,4.529,0,0,0-.917-.622,5.7,5.7,0,0,0-1.181-.431,5.978,5.978,0,0,0-1.507-.17,5.646,5.646,0,0,0-2.152.416,5.268,5.268,0,0,0-1.75,1.153,5.323,5.323,0,0,0-1.16,1.746,5.79,5.79,0,0,0,0,4.341,5.354,5.354,0,0,0,1.16,1.746,5.268,5.268,0,0,0,1.75,1.153,5.646,5.646,0,0,0,2.152.416,6.209,6.209,0,0,0,1.519-.17,5.3,5.3,0,0,0,1.212-.453,4.519,4.519,0,0,0,.93-.645,4.44,4.44,0,0,0,.646-.743l-1.507-1.506a3.277,3.277,0,0,1-.372.527,3.657,3.657,0,0,1-.939.695,3.063,3.063,0,0,1-1.487.317,2.974,2.974,0,0,1-1.233-.257,3.316,3.316,0,0,1-1.025-.709,3.452,3.452,0,0,1-.7-1.094,3.727,3.727,0,0,1-.266-1.442,3.928,3.928,0,0,1,.255-1.431,3.385,3.385,0,0,1,.7-1.113" fill="#867319"/>
        <path d="M649.865,258.774a5.268,5.268,0,0,0-5.393,5.381v.105a4.184,4.184,0,0,0,.021.515v.056c.011.125.028.25.048.372a.517.517,0,0,0,.015.089,5.679,5.679,0,0,0,.176.714.786.786,0,0,1,.028.086c.041.114.082.228.129.34a5.26,5.26,0,0,0,2.91,2.9,5.67,5.67,0,0,0,2.153.415,6.215,6.215,0,0,0,1.519-.17,5.344,5.344,0,0,0,1.212-.452,4.274,4.274,0,0,0,1.575-1.388l-1.506-1.507a3.222,3.222,0,0,1-.373.525,3.716,3.716,0,0,1-.938.695,3.09,3.09,0,0,1-1.488.317,2.98,2.98,0,0,1-1.233-.257,3.286,3.286,0,0,1-1.024-.71,3.448,3.448,0,0,1-.706-1.091,2.8,2.8,0,0,1-.1-.271c-.013-.041-.026-.084-.037-.127l-.025-.106c-.026-.12-.05-.243-.067-.37h8.244v-.624c0-3.252-2.153-5.43-5.145-5.43m-3.013,4.442a3.03,3.03,0,0,1,2.962-2.486,2.875,2.875,0,0,1,2.811,2.486Z" fill="#867319"/>
        <path d="M630.725,267.338v-8.36h-8.778v2.2h6.563v1.119c-5.166,0-7.182,1.488-7.262,4.019a3.356,3.356,0,0,0,3.659,3.433,4.119,4.119,0,0,0,3.545-1.77h.069v1.563h3.848v-2.195Zm-2.215-2.978a3.259,3.259,0,0,1-3.123,3.394,1.552,1.552,0,0,1-1.752-1.507c0-1.373,2.118-2.191,4.875-2.191Z" fill="#867319"/>
      </g>
      <g style="mix-blend-mode: multiply">
        <path d="M640.27,374.694l-.775-2.548h-3.9l-.776,2.548h-2.446l3.779-10.752h2.775l3.795,10.752Zm-1.318-4.453q-1.075-3.463-1.212-3.918c-.09-.3-.156-.543-.2-.719q-.24.939-1.383,4.637Z" fill="#867319"/>
        <path d="M648.781,374.694l-2.578-8.4h-.066q.14,2.563.14,3.42v4.98h-2.029V363.986h3.09l2.535,8.189h.044l2.688-8.189h3.09v10.708h-2.116v-5.068c0-.239,0-.515.01-.828s.041-1.143.1-2.49h-.066l-2.762,8.386Z" fill="#867319"/>
        <path d="M662.872,374.694l-2.579-8.4h-.065q.14,2.563.14,3.42v4.98h-2.03V363.986h3.091l2.534,8.189h.044l2.689-8.189h3.09v10.708h-2.117v-5.068q0-.358.011-.828t.1-2.49h-.067l-2.761,8.386Z" fill="#867319"/>
      </g>
      <g style="mix-blend-mode: multiply">
        <path d="M620.37,480.292a5.813,5.813,0,0,1-1.318,4.088,5.716,5.716,0,0,1-7.559,0,5.834,5.834,0,0,1-1.318-4.1,5.76,5.76,0,0,1,1.322-4.084,4.949,4.949,0,0,1,3.791-1.41,4.876,4.876,0,0,1,3.775,1.422A5.823,5.823,0,0,1,620.37,480.292Zm-7.814,0a4.466,4.466,0,0,0,.681,2.7,2.379,2.379,0,0,0,2.035.908q2.718,0,2.718-3.611t-2.7-3.617a2.4,2.4,0,0,0-2.044.911A4.456,4.456,0,0,0,612.556,480.292Z" fill="#867319"/>
        <path d="M629.95,478.293a3.273,3.273,0,0,1-1.08,2.644,4.62,4.62,0,0,1-3.073.916h-.974v3.808h-2.27V474.953h3.42a4.546,4.546,0,0,1,2.963.839A3.058,3.058,0,0,1,629.95,478.293Zm-5.127,1.7h.747a2.488,2.488,0,0,0,1.568-.414,1.448,1.448,0,0,0,.52-1.2,1.486,1.486,0,0,0-.436-1.18,2.042,2.042,0,0,0-1.367-.381h-1.032Z" fill="#867319"/>
        <path d="M637.99,485.661h-6.167V474.953h6.167v1.86h-3.9v2.352h3.626v1.859h-3.626v2.762h3.9Z" fill="#867319"/>
        <path d="M649.769,485.661h-2.887l-4.658-8.1h-.066q.139,2.145.14,3.061v5.039h-2.029V474.953h2.863l4.651,8.021h.052q-.111-2.089-.11-2.953v-5.068h2.044Z" fill="#867319"/>
        <path d="M658.892,482.687a2.772,2.772,0,0,1-1.043,2.286,4.541,4.541,0,0,1-2.905.835,6.817,6.817,0,0,1-3.032-.645v-2.109a12.537,12.537,0,0,0,1.835.681,5.463,5.463,0,0,0,1.373.2,1.96,1.96,0,0,0,1.147-.286.978.978,0,0,0,.4-.849.94.94,0,0,0-.176-.561,1.959,1.959,0,0,0-.515-.472,13.334,13.334,0,0,0-1.389-.725,6.6,6.6,0,0,1-1.472-.887,3.319,3.319,0,0,1-.784-.988,2.824,2.824,0,0,1-.293-1.318,2.767,2.767,0,0,1,.964-2.235,4,4,0,0,1,2.662-.812,6.275,6.275,0,0,1,1.593.2,10.872,10.872,0,0,1,1.586.557l-.733,1.765a10.824,10.824,0,0,0-1.417-.491,4.555,4.555,0,0,0-1.1-.14,1.455,1.455,0,0,0-.988.3.985.985,0,0,0-.345.783.963.963,0,0,0,.14.525,1.52,1.52,0,0,0,.442.432,13.837,13.837,0,0,0,1.439.75,5.718,5.718,0,0,1,2.058,1.44A2.806,2.806,0,0,1,658.892,482.687Z" fill="#867319"/>
        <path d="M669.66,485.661H667.4V481.04h-4.241v4.621h-2.27V474.953h2.27v4.2H667.4v-4.2h2.263Z" fill="#867319"/>
        <path d="M672.3,485.661V474.953h2.27v10.708Z" fill="#867319"/>
        <path d="M679.437,485.661H677.2V474.953h6.138v1.86h-3.9v2.762h3.632v1.853h-3.632Z" fill="#867319"/>
        <path d="M689.9,485.661h-2.27v-8.818h-2.907v-1.89h8.086v1.89H689.9Z" fill="#867319"/>
      </g>
      <path d="M652.54,451.14a9,9,0,1,0,9,9A9,9,0,0,0,652.54,451.14Zm1.475,13.412h-1.743V459.78l.017-.784.028-.858c-.289.289-.491.48-.6.57l-.948.761-.841-1.049,2.657-2.115h1.433Z" fill="#867319" style="mix-blend-mode: multiply"/>
      <g>
        <g>
          <path d="M717.2,179.886v-1.619a.481.481,0,0,0-.481-.482h-.613a.481.481,0,0,1-.481-.481v-.613a.481.481,0,0,1,.481-.481h1.969a2.451,2.451,0,0,0,2.451-2.451h0a2.45,2.45,0,0,0-2.451-2.45h-2.611a.481.481,0,0,1-.481-.482v-.219a2.539,2.539,0,0,0-2.538-2.538h0a2.539,2.539,0,0,0-2.539,2.538h0a2.743,2.743,0,0,0,2.743,2.743h4.595a.481.481,0,0,1,.481.481h0a.481.481,0,0,1-.481.482h-2.509a1.677,1.677,0,0,0-1.678,1.677v1.05a1.678,1.678,0,0,0,1.678,1.678h0a.481.481,0,0,1,.481.481v.686Z" fill="#fff" opacity="0.3"/>
          <path d="M720.529,179.788v9.417a3.124,3.124,0,0,1-3.124,3.124h-3.957a3.124,3.124,0,0,1-3.124-3.124v-9.417Z" fill="#7d104b"/>
        </g>
        <polygon points="716.806 183.374 716.806 182.325 714.708 182.325 714.708 189.383 716.806 189.383 716.806 188.335 715.758 188.335 715.758 183.374 716.806 183.374" fill="#fff"/>
      </g>
      <path d="M652.567,340.11a9,9,0,1,0,9,9A9,9,0,0,0,652.567,340.11Zm2.931,13.413h-5.766V352.31l2.071-2.093q.92-.942,1.2-1.306a2.886,2.886,0,0,0,.406-.674,1.715,1.715,0,0,0,.125-.643.939.939,0,0,0-.274-.739,1.061,1.061,0,0,0-.731-.243,2.106,2.106,0,0,0-.93.22,4.842,4.842,0,0,0-.942.626l-.948-1.122a6.115,6.115,0,0,1,1.01-.733,3.722,3.722,0,0,1,.874-.331,4.545,4.545,0,0,1,1.061-.115,3.144,3.144,0,0,1,1.365.282,2.172,2.172,0,0,1,.919.79,2.09,2.09,0,0,1,.327,1.162,2.858,2.858,0,0,1-.2,1.069,4.087,4.087,0,0,1-.621,1.024,15.122,15.122,0,0,1-1.48,1.494l-1.061,1v.079H655.5Z" fill="#867319" style="mix-blend-mode: multiply"/>
      <path d="M652.567,234.771a9,9,0,1,0,9,9A9,9,0,0,0,652.567,234.771Zm1.989,12.862a3.982,3.982,0,0,1-2.466.663,5.985,5.985,0,0,1-2.38-.446v-1.484a5.328,5.328,0,0,0,1.055.395,4.413,4.413,0,0,0,1.139.153,2.212,2.212,0,0,0,1.275-.294,1.075,1.075,0,0,0,.412-.942.851.851,0,0,0-.474-.823,3.5,3.5,0,0,0-1.512-.243h-.626v-1.337h.638a2.973,2.973,0,0,0,1.4-.251.906.906,0,0,0,.442-.86q0-.937-1.173-.937a2.685,2.685,0,0,0-.826.136,4,4,0,0,0-.934.468l-.807-1.2a4.485,4.485,0,0,1,2.691-.812,3.474,3.474,0,0,1,2.022.519,1.664,1.664,0,0,1,.742,1.444,1.943,1.943,0,0,1-.468,1.315,2.423,2.423,0,0,1-1.314.744v.034a2.63,2.63,0,0,1,1.511.606,1.7,1.7,0,0,1,.514,1.3A2.2,2.2,0,0,1,654.556,247.633Z" fill="#867319" style="mix-blend-mode: multiply"/>
    </g>
  </g>
</svg>
