<svg width="1280" height="564" viewBox="0 0 1280 564" fill="none" xmlns="http://www.w3.org/2000/svg" id="acendtechlab_image">
    <path d="M381.382 324.978C377.835 311.129 323.742 193.46 353.006 153.883C382.27 114.307 470.572 60.8291 521.748 37.2969C572.925 13.7646 709.954 -24.7431 751.841 29.8076C793.728 84.3583 855.731 163.074 881.041 190.57C906.352 218.067 1000.35 251.117 983.5 289.679C966.651 328.242 831.862 461.85 803.486 475.805C775.109 489.761 689.332 574.263 589.008 546.457C488.684 518.65 381.382 324.978 381.382 324.978Z" fill="#A7E4F2"/>
    <g class="clouds">
        <path opacity="0.8" d="M212.859 121.118C220.471 113.486 230.108 108.192 240.632 105.86C251.156 103.527 262.127 104.254 272.251 107.955C276.048 101.515 281.463 96.1806 287.959 92.4811C294.454 88.7816 301.805 86.8457 309.28 86.8658C316.756 86.8859 324.096 88.8612 330.572 92.5956C337.048 96.3299 342.434 101.693 346.196 108.153C349.229 95.6087 356.807 84.6351 367.465 77.3557C378.122 70.0763 391.101 67.0086 403.889 68.7462C416.678 70.4838 428.368 76.9031 436.697 86.7621C445.025 96.6211 449.401 109.219 448.978 122.118H211.913C212.229 121.783 212.534 121.444 212.859 121.118Z" fill="#CAEFF7"/>
        <path opacity="0.8" d="M1003.76 101.617C997.425 95.1276 988.999 91.0907 979.974 90.2222C970.95 89.3536 961.909 91.7094 954.456 96.8718C956.513 85.1941 953.912 73.1752 947.212 63.3923C940.511 53.6095 930.244 46.8415 918.612 44.5398C906.98 42.238 894.91 44.5858 884.988 51.0795C875.067 57.5733 868.085 67.696 865.54 79.2772C858.186 74.0041 849.609 70.6927 840.62 69.6558C831.631 68.6189 822.525 69.8906 814.164 73.3509C808.263 52.9398 794.822 35.5356 776.566 24.6654C758.31 13.7953 736.604 10.2723 715.847 14.8104C695.091 19.3485 676.835 31.6082 664.781 49.1051C652.727 66.6019 647.776 88.0272 650.931 109.039H1009.42C1007.84 106.344 1005.94 103.852 1003.76 101.617V101.617Z" fill="#CAEFF7"/>
    </g>
    <path d="M976.959 323.55C969.925 324.595 962.887 325.676 955.845 326.792C937.671 329.634 874.876 307.818 854.885 297.478C774.856 265.463 699.255 223.334 629.927 172.117C611.95 188.53 593.974 206.381 576 225.67C545.644 204.24 515.29 180.799 484.935 156.344C484.935 156.104 456.817 183.816 427.443 212.964C398.072 241.623 367.446 271.72 362.423 264.931C336.02 214.741 309.617 163.783 283.215 115.492C220.791 210.988 158.368 310.973 95.9436 368.796C95.9436 368.005 160.353 398.933 248.533 423.724C336.712 449.998 448.663 458.458 543.743 440.987C591.284 433.884 656.508 415.654 727.601 399.891C798.694 383.761 875.657 370.099 946.678 363.701C1017.7 356.942 1082.77 357.452 1130.1 361.27C1177.42 364.722 1206.99 371.48 1206.99 368.797C1142.74 343.964 1078.49 331.898 1014.25 323.263C1001.86 321.629 989.315 321.725 976.959 323.55V323.55Z" fill="#81B4C4"/>
    <path d="M1026.78 338.925L1041.92 305.306L1057.06 338.925H1026.78Z" fill="#A7CED1"/>
    <path d="M1015.97 346.041L1028.14 320.196L1040.31 346.041H1015.97Z" fill="#C0E1E3"/>
    <path d="M206.772 232.023L218.94 206.179L231.109 232.023H206.772Z" fill="#C0E1E3"/>
    <path d="M356.832 273.473L347.607 297.559H366.057L356.832 273.473Z" fill="#A7CED1"/>
    <path d="M332.32 257.518L318.635 293.252H346.006L332.32 257.518Z" fill="#A7CED1"/>
    <path d="M210.335 211.678L196.649 247.411H224.021L210.335 211.678Z" fill="#A7CED1"/>
    <path d="M345.121 279.692L335.897 303.776H354.345L345.121 279.692Z" fill="#C0E1E3"/>
    <path d="M977.058 325.436C987.217 325.436 995.453 317.2 995.453 307.041C995.453 296.882 987.217 288.646 977.058 288.646C966.898 288.646 958.663 296.882 958.663 307.041C958.663 317.2 966.898 325.436 977.058 325.436Z" fill="#B8C445"/>
    <path d="M976.887 308.326L968.048 300.097" stroke="#002F47" stroke-width="1.21339" stroke-miterlimit="10" stroke-linecap="round"/>
    <path d="M987.766 303.065L977.058 316.056" stroke="#002F47" stroke-width="1.21339" stroke-miterlimit="10" stroke-linecap="round"/>
    <path d="M977.058 351.361V299.639" stroke="#002F47" stroke-width="1.21339" stroke-miterlimit="10" stroke-linecap="round"/>
    <path d="M998.047 330.95C1006.05 330.95 1012.53 324.466 1012.53 316.467C1012.53 308.468 1006.05 301.984 998.047 301.984C990.048 301.984 983.563 308.468 983.563 316.467C983.563 324.466 990.048 330.95 998.047 330.95Z" fill="#C2D64C"/>
    <path d="M998.18 317.478L1005.14 310.999" stroke="#002F47" stroke-width="1.21339" stroke-miterlimit="10" stroke-linecap="round"/>
    <path d="M989.614 313.337L998.046 320.567" stroke="#002F47" stroke-width="1.21339" stroke-miterlimit="10" stroke-linecap="round"/>
    <path d="M998.045 351.361V310.64" stroke="#002F47" stroke-width="1.21339" stroke-miterlimit="10" stroke-linecap="round"/>
    <g class="flower">
        <path d="M113.781 382.148C113.781 382.148 112.155 362.171 90.7822 342.508" stroke="#C2D64C" stroke-width="1.58061" stroke-miterlimit="10"/>
        <path d="M95.4305 347.105C95.4305 347.105 97.1529 336.205 85.6945 333.38C85.6945 333.38 84.4749 345.318 95.4305 347.105Z" fill="#C2D64C"/>
        <path d="M100.565 352.871C100.565 352.871 92.7919 345.036 83.7385 352.605C83.7385 352.605 92.645 360.649 100.565 352.871Z" fill="#C2D64C"/>
        <path d="M100.565 352.871C100.565 352.871 109.606 346.543 103.685 336.335C103.684 336.335 94.2456 343.745 100.565 352.871Z" fill="#C2D64C"/>
        <path d="M106.75 362.644C106.75 362.644 99.9223 353.972 90.0652 360.456C90.0652 360.456 97.9941 369.466 106.75 362.644Z" fill="#C2D64C"/>
        <path d="M106.749 362.644C106.749 362.644 116.454 357.392 111.74 346.574C111.74 346.574 101.511 352.86 106.749 362.644Z" fill="#C2D64C"/>
        <path d="M112.187 374.053C112.187 374.053 106.705 364.476 96.0015 369.449C96.0015 369.449 102.526 379.521 112.187 374.053Z" fill="#C2D64C"/>
        <path d="M112.188 374.053C112.188 374.053 122.556 370.276 119.474 358.885C119.474 358.885 108.442 363.604 112.188 374.053Z" fill="#C2D64C"/>
    </g>
    <path opacity="0.5" d="M157.526 399.533C157.526 402.348 138.605 404.63 115.264 404.63C91.9228 404.63 73 402.348 73 399.533C73 396.717 91.9218 394.435 115.264 394.435C138.606 394.435 157.526 396.717 157.526 399.533Z" fill="#002F47"/>
    <path d="M110.745 403.174L124.214 358.225C88.8392 375.318 110.745 403.174 110.745 403.174Z" fill="#155263"/>
    <path d="M124.213 358.225L110.745 403.174C144.255 385.671 124.213 358.225 124.213 358.225Z" fill="#1F7A89"/>
    <path d="M145.305 372.12L114.26 407.308C153.545 406.588 145.305 372.12 145.305 372.12Z" fill="#1F7A89"/>
    <path d="M114.258 407.308L145.302 372.12C107.544 373.993 114.258 407.308 114.258 407.308Z" fill="#2996A8"/>
    <path d="M106.322 401.925L84.7387 360.261C71.2084 397.145 106.322 401.925 106.322 401.925Z" fill="#1F7A89"/>
    <path d="M84.7388 360.261L106.322 401.925C118.228 366.043 84.7388 360.261 84.7388 360.261Z" fill="#2996A8"/>
    <path opacity="0.5" d="M813.584 549.677C813.584 554.388 781.923 558.207 742.867 558.207C703.811 558.207 672.151 554.388 672.151 549.677C672.151 544.966 703.812 541.148 742.867 541.148C781.922 541.148 813.584 544.966 813.584 549.677Z" fill="#01141C"/>
    <path d="M740.478 556.205L730.802 478.288C784.394 516.362 740.478 556.205 740.478 556.205Z" fill="#155263"/>
    <path d="M730.801 478.288L740.477 556.205C690.077 517.977 730.801 478.288 730.801 478.288Z" fill="#1F7A89"/>
    <path d="M692.131 495.328L733.528 562.049C668.923 549.893 692.131 495.328 692.131 495.328Z" fill="#1F7A89"/>
    <path d="M733.529 562.044L692.132 495.328C753.905 508.956 733.529 562.044 733.529 562.044Z" fill="#2996A8"/>
    <path d="M748.124 555.38L795.361 492.665C807.388 557.294 748.124 555.38 748.124 555.38Z" fill="#1F7A89"/>
    <path d="M795.36 492.665L748.123 555.38C738.496 492.859 795.36 492.665 795.36 492.665Z" fill="#2996A8"/>
    <path d="M345.864 168.222C345.155 168.227 344.452 168.086 343.8 167.808C343.173 167.54 342.601 167.158 342.114 166.681C341.631 166.193 341.249 165.614 340.989 164.98C340.446 163.624 340.446 162.112 340.989 160.756C341.247 160.122 341.63 159.546 342.114 159.062C342.6 158.583 343.172 158.198 343.8 157.927C345.117 157.375 346.602 157.375 347.92 157.927C348.55 158.194 349.122 158.579 349.606 159.062C350.09 159.546 350.473 160.122 350.73 160.756C351.004 161.428 351.143 162.146 351.139 162.872V163.577H342.714C342.783 163.98 342.921 164.369 343.122 164.727C343.302 165.055 343.542 165.346 343.831 165.585C344.112 165.819 344.433 166 344.778 166.122C345.126 166.246 345.494 166.308 345.864 166.306C346.325 166.318 346.784 166.245 347.219 166.091C347.549 165.977 347.858 165.812 348.135 165.601C348.399 165.404 348.626 165.163 348.805 164.888H351.039C350.788 165.509 350.422 166.079 349.96 166.566C349.743 166.783 349.512 166.986 349.267 167.172C348.994 167.389 348.694 167.569 348.374 167.709C348.011 167.873 347.632 167.999 347.242 168.084C346.789 168.18 346.327 168.226 345.864 168.222ZM348.944 161.86C348.887 161.55 348.783 161.25 348.636 160.97C348.491 160.674 348.283 160.413 348.028 160.204C347.146 159.482 345.956 159.257 344.87 159.606C344.543 159.713 344.236 159.873 343.962 160.081C343.682 160.291 343.444 160.551 343.261 160.848C343.066 161.161 342.928 161.506 342.853 161.867L348.944 161.86Z" fill="#800D4B"/>
    <path d="M355.289 162.871L352.209 157.72H354.65L356.96 161.86H357.461L359.771 157.72H362.296L359.216 162.871L362.358 168.023H359.986L357.514 163.768H357.014L354.596 168.023H352.163L355.289 162.871Z" fill="#800D4B"/>
    <path d="M364.229 157.72H366.362V159.031H366.462C366.707 158.742 366.986 158.485 367.294 158.264C367.61 158.055 367.949 157.88 368.303 157.743C368.752 157.572 369.231 157.489 369.712 157.498C370.371 157.492 371.024 157.623 371.629 157.881C372.209 158.137 372.732 158.504 373.169 158.962C373.623 159.451 373.976 160.024 374.209 160.648C374.712 162.075 374.712 163.63 374.209 165.056C373.978 165.681 373.624 166.254 373.169 166.743C372.277 167.696 371.021 168.228 369.712 168.207C369.232 168.217 368.754 168.139 368.303 167.977C367.948 167.845 367.609 167.673 367.294 167.463C366.983 167.246 366.703 166.988 366.462 166.697H366.362V171.848H364.229V157.72ZM369.304 166.306C370.134 166.344 370.94 166.022 371.514 165.424C372.632 163.902 372.632 161.834 371.514 160.311C370.937 159.718 370.132 159.4 369.304 159.437C368.504 159.411 367.732 159.729 367.186 160.311C366.087 161.84 366.087 163.895 367.186 165.424C367.729 166.011 368.502 166.333 369.304 166.306Z" fill="#800D4B"/>
    <path d="M381.655 168.222C380.946 168.227 380.244 168.086 379.592 167.808C378.964 167.54 378.392 167.158 377.905 166.681C377.423 166.193 377.041 165.614 376.781 164.98C376.237 163.624 376.237 162.112 376.781 160.756C377.039 160.122 377.421 159.546 377.905 159.062C378.392 158.583 378.964 158.198 379.592 157.927C380.909 157.375 382.394 157.375 383.711 157.927C384.34 158.196 384.912 158.581 385.398 159.062C385.882 159.546 386.264 160.122 386.522 160.756C386.796 161.428 386.935 162.146 386.93 162.872V163.577H378.506C378.575 163.98 378.713 164.369 378.914 164.727C379.094 165.055 379.334 165.346 379.622 165.585C379.901 165.818 380.219 166 380.562 166.122C380.913 166.246 381.283 166.308 381.655 166.306C382.116 166.318 382.576 166.245 383.011 166.091C383.34 165.977 383.65 165.812 383.927 165.601C384.19 165.404 384.417 165.163 384.597 164.888H386.83C386.579 165.509 386.213 166.079 385.752 166.566C385.535 166.783 385.303 166.986 385.059 167.172C384.786 167.389 384.485 167.569 384.166 167.709C383.802 167.873 383.423 167.999 383.034 168.084C382.581 168.18 382.118 168.226 381.655 168.222ZM384.735 161.86C384.678 161.55 384.574 161.25 384.427 160.97C384.282 160.674 384.075 160.413 383.819 160.204C382.938 159.482 381.748 159.257 380.662 159.606C380.334 159.713 380.027 159.873 379.753 160.081C379.474 160.291 379.236 160.551 379.053 160.848C378.858 161.161 378.72 161.506 378.644 161.867L384.735 161.86Z" fill="#800D4B"/>
    <path d="M389.31 157.72H391.435V159.253H391.558C391.731 158.951 391.952 158.679 392.213 158.448C392.483 158.216 392.777 158.012 393.091 157.843C393.492 157.628 393.944 157.522 394.4 157.536H395.624V159.56H394.299C393.915 159.557 393.533 159.627 393.175 159.767C392.839 159.892 392.532 160.085 392.274 160.334C392.007 160.586 391.802 160.895 391.674 161.239C391.528 161.615 391.455 162.016 391.458 162.419V168.046H389.333L389.31 157.72Z" fill="#800D4B"/>
    <path d="M398.635 156.202C398.3 156.208 397.978 156.078 397.741 155.842C397.501 155.606 397.37 155.281 397.379 154.945C397.373 154.61 397.504 154.286 397.741 154.048C397.974 153.805 398.297 153.669 398.635 153.672C399.339 153.677 399.909 154.244 399.913 154.945C399.92 155.284 399.783 155.61 399.536 155.842C399.296 156.078 398.971 156.208 398.635 156.202ZM397.58 157.735H399.713V168.038H397.58V157.735Z" fill="#800D4B"/>
    <path d="M407.321 168.222C406.612 168.226 405.91 168.086 405.258 167.808C404.63 167.54 404.058 167.158 403.571 166.681C403.089 166.192 402.707 165.614 402.447 164.98C401.903 163.624 401.903 162.112 402.447 160.756C402.705 160.122 403.087 159.546 403.571 159.062C404.058 158.583 404.63 158.198 405.258 157.927C405.91 157.65 406.612 157.509 407.321 157.513C408.028 157.508 408.728 157.649 409.377 157.927C410.007 158.194 410.58 158.579 411.064 159.062C411.548 159.546 411.93 160.122 412.188 160.756C412.462 161.428 412.601 162.146 412.596 162.871V163.577H404.172C404.244 163.979 404.382 164.368 404.58 164.727C404.76 165.055 405 165.346 405.288 165.585C405.57 165.819 405.89 166 406.236 166.122C406.584 166.245 406.951 166.307 407.321 166.306C407.782 166.317 408.242 166.245 408.677 166.091C409.006 165.977 409.316 165.812 409.593 165.6C409.857 165.404 410.083 165.162 410.263 164.888H412.496C412.245 165.509 411.879 166.079 411.418 166.566C411.202 166.781 410.973 166.984 410.733 167.172C410.457 167.385 410.157 167.565 409.839 167.709C409.473 167.873 409.092 167.998 408.7 168.084C408.247 168.18 407.784 168.226 407.321 168.222ZM410.363 161.86C410.305 161.551 410.204 161.251 410.063 160.97C409.913 160.677 409.706 160.417 409.454 160.204C409.18 159.972 408.871 159.786 408.538 159.652C408.149 159.508 407.736 159.438 407.321 159.445C406.974 159.444 406.628 159.498 406.297 159.606C405.967 159.713 405.658 159.874 405.381 160.081C405.101 160.291 404.863 160.551 404.68 160.848C404.485 161.161 404.347 161.506 404.272 161.867L410.363 161.86Z" fill="#800D4B"/>
    <path d="M414.975 157.72H417.108V159.169H417.208C417.419 158.871 417.68 158.612 417.978 158.402C418.29 158.174 418.629 157.986 418.987 157.843C419.461 157.662 419.966 157.576 420.473 157.59C421.581 157.526 422.664 157.926 423.461 158.694C424.236 159.591 424.624 160.756 424.539 161.936V168.069H422.36V162.105C422.421 161.385 422.203 160.67 421.752 160.104C421.254 159.657 420.595 159.433 419.927 159.483C419.538 159.477 419.152 159.552 418.795 159.705C418.457 159.849 418.151 160.058 417.894 160.319C417.633 160.593 417.428 160.916 417.293 161.269C417.149 161.667 417.079 162.088 417.085 162.511V168.069H414.952L414.975 157.72Z" fill="#800D4B"/>
    <path d="M431.993 168.222C431.289 168.227 430.59 168.094 429.937 167.831C429.319 167.577 428.761 167.199 428.297 166.72C427.827 166.231 427.458 165.656 427.211 165.026C426.677 163.639 426.677 162.104 427.211 160.717C427.458 160.087 427.827 159.512 428.297 159.023C428.759 158.542 429.318 158.163 429.937 157.912C430.588 157.642 431.288 157.507 431.993 157.513C432.463 157.508 432.931 157.562 433.387 157.674C433.78 157.771 434.16 157.915 434.519 158.103C434.832 158.266 435.122 158.47 435.381 158.709C435.609 158.925 435.825 159.152 436.028 159.391C436.466 159.94 436.784 160.575 436.96 161.254H434.734C434.623 160.916 434.442 160.606 434.203 160.342C433.638 159.728 432.828 159.396 431.993 159.437C431.195 159.429 430.433 159.768 429.906 160.365C429.633 160.691 429.424 161.065 429.29 161.469C429.127 161.926 429.047 162.409 429.052 162.894C429.048 163.38 429.129 163.862 429.29 164.32C429.429 164.716 429.641 165.082 429.914 165.401C430.171 165.683 430.483 165.909 430.83 166.068C431.191 166.231 431.582 166.315 431.978 166.313C432.466 166.334 432.952 166.237 433.395 166.03C433.718 165.871 434.013 165.658 434.265 165.401C434.513 165.143 434.702 164.834 434.819 164.497H436.991C436.818 165.182 436.5 165.822 436.059 166.375C435.86 166.615 435.643 166.84 435.412 167.049C435.15 167.283 434.861 167.484 434.55 167.647C434.191 167.833 433.811 167.974 433.418 168.069C432.951 168.181 432.473 168.232 431.993 168.222Z" fill="#800D4B"/>
    <path d="M443.921 168.222C443.212 168.227 442.51 168.086 441.858 167.808C441.23 167.54 440.658 167.158 440.171 166.681C439.689 166.193 439.307 165.614 439.047 164.98C438.503 163.624 438.503 162.112 439.047 160.756C439.305 160.122 439.687 159.546 440.171 159.062C440.658 158.583 441.23 158.198 441.858 157.927C443.175 157.375 444.66 157.375 445.977 157.927C446.607 158.194 447.18 158.579 447.664 159.062C448.148 159.546 448.53 160.122 448.788 160.756C449.062 161.428 449.201 162.146 449.196 162.872V163.577H440.764C440.837 163.98 440.975 164.368 441.172 164.727C441.352 165.055 441.592 165.346 441.881 165.585C442.162 165.819 442.483 166 442.828 166.122C443.176 166.246 443.544 166.308 443.914 166.306C444.375 166.318 444.834 166.245 445.269 166.091C445.599 165.977 445.908 165.812 446.185 165.601C446.449 165.404 446.676 165.163 446.855 164.888H449.088C448.838 165.509 448.472 166.079 448.01 166.566C447.793 166.783 447.561 166.986 447.317 167.172C447.044 167.389 446.744 167.569 446.424 167.709C446.061 167.873 445.681 167.999 445.292 168.084C444.841 168.179 444.382 168.225 443.921 168.222ZM446.963 161.86C446.906 161.55 446.802 161.25 446.655 160.97C446.51 160.674 446.302 160.413 446.047 160.204C445.165 159.482 443.976 159.257 442.89 159.606C442.562 159.713 442.255 159.873 441.981 160.081C441.701 160.291 441.464 160.551 441.28 160.848C441.085 161.161 440.947 161.506 440.872 161.867L446.963 161.86Z" fill="#800D4B"/>
    <path d="M457.914 153.879H460.047V161.76H461.587L464.728 157.72H467.17L463.412 162.465L467.47 168.023H464.836L461.687 163.676H460.062V168.023H457.929L457.914 153.879Z" fill="#800D4B"/>
    <path d="M469.249 157.72H471.382V159.169H471.482C471.692 158.871 471.953 158.612 472.252 158.402C472.563 158.174 472.902 157.986 473.26 157.843C473.734 157.662 474.239 157.576 474.747 157.59C475.854 157.526 476.937 157.926 477.734 158.694C478.509 159.591 478.897 160.756 478.813 161.936V168.069H476.679V162.105C476.743 161.385 476.525 160.668 476.071 160.104C475.574 159.657 474.914 159.433 474.246 159.483C473.857 159.477 473.471 159.552 473.114 159.705C472.776 159.849 472.47 160.058 472.213 160.319C471.952 160.593 471.748 160.916 471.613 161.269C471.469 161.667 471.398 162.088 471.405 162.511V168.069H469.272L469.249 157.72Z" fill="#800D4B"/>
    <path d="M486.428 168.222C484.619 168.222 482.931 167.318 481.933 165.816C480.935 164.314 480.761 162.413 481.469 160.756C481.733 160.123 482.117 159.548 482.601 159.062C483.628 158.06 485.014 157.508 486.451 157.528C487.181 157.522 487.904 157.663 488.577 157.942C489.862 158.475 490.883 159.492 491.418 160.771C492.276 162.794 491.826 165.132 490.279 166.697C489.79 167.179 489.212 167.561 488.577 167.824C487.895 168.101 487.164 168.237 486.428 168.222ZM486.428 166.306C486.864 166.31 487.296 166.226 487.699 166.061C488.074 165.905 488.413 165.672 488.692 165.378C488.978 165.065 489.198 164.697 489.339 164.297C489.504 163.84 489.585 163.357 489.578 162.872C489.589 162.394 489.513 161.919 489.354 161.469C489.214 161.069 488.994 160.701 488.708 160.388C488.431 160.089 488.092 159.853 487.714 159.698C486.897 159.381 485.99 159.381 485.173 159.698C484.796 159.853 484.457 160.089 484.18 160.388C483.894 160.701 483.674 161.069 483.533 161.469C483.373 161.927 483.295 162.409 483.302 162.895C483.296 163.38 483.374 163.862 483.533 164.32C483.674 164.72 483.894 165.088 484.18 165.401C484.459 165.695 484.798 165.928 485.173 166.084C485.573 166.239 485.999 166.314 486.428 166.306Z" fill="#800D4B"/>
    <path d="M493.151 157.72H495.384L497.109 166.068H497.417L499.142 157.689H502.222L503.908 166.068H504.216L505.941 157.689H508.174L505.941 167.992H502.291L500.751 160.112H500.543L499.003 167.992H495.346L493.151 157.72Z" fill="#800D4B"/>
    <path d="M510.261 153.879H512.394V166.068H514.704V167.992H510.238L510.261 153.879Z" fill="#800D4B"/>
    <path d="M521.173 168.222C520.464 168.226 519.761 168.086 519.109 167.808C518.483 167.542 517.913 167.159 517.43 166.681C516.943 166.195 516.558 165.616 516.298 164.98C515.765 163.622 515.765 162.113 516.298 160.756C516.556 160.12 516.941 159.544 517.43 159.062C517.913 158.581 518.482 158.196 519.109 157.927C519.761 157.65 520.464 157.509 521.173 157.513C521.879 157.508 522.579 157.649 523.229 157.927C523.859 158.194 524.431 158.579 524.915 159.062C525.402 159.544 525.784 160.121 526.039 160.756C526.318 161.426 526.457 162.146 526.447 162.871V163.577H518.023C518.096 163.979 518.234 164.368 518.431 164.727C518.613 165.053 518.853 165.344 519.14 165.585C519.421 165.819 519.742 166 520.087 166.122C520.436 166.245 520.803 166.307 521.173 166.306C521.634 166.317 522.093 166.245 522.528 166.091C522.858 165.979 523.168 165.813 523.444 165.6C523.708 165.404 523.935 165.162 524.114 164.888H526.317C526.069 165.511 525.703 166.081 525.239 166.566C525.022 166.781 524.793 166.984 524.553 167.172C524.279 167.387 523.979 167.567 523.66 167.709C523.294 167.874 522.912 168 522.52 168.084C522.077 168.178 521.626 168.224 521.173 168.222ZM524.214 161.86C524.156 161.551 524.055 161.251 523.914 160.97C523.764 160.677 523.557 160.417 523.306 160.204C523.032 159.972 522.722 159.786 522.389 159.652C521.668 159.393 520.88 159.376 520.148 159.606C519.819 159.713 519.509 159.874 519.232 160.081C518.953 160.291 518.715 160.551 518.531 160.848C518.34 161.163 518.202 161.507 518.123 161.867L524.214 161.86Z" fill="#800D4B"/>
    <path d="M533.146 168.222C532.487 168.232 531.833 168.101 531.229 167.839C530.645 167.59 530.12 167.222 529.689 166.758C529.231 166.272 528.878 165.698 528.649 165.072C528.146 163.645 528.146 162.09 528.649 160.664C528.879 160.038 529.233 159.465 529.689 158.977C530.581 158.024 531.838 157.491 533.146 157.513C533.625 157.506 534.1 157.589 534.548 157.758C534.903 157.897 535.244 158.072 535.564 158.28C535.872 158.5 536.151 158.758 536.396 159.046H536.496V153.879H538.637V168.023H536.504V166.712H536.404C536.162 167.004 535.883 167.262 535.572 167.479C535.253 167.686 534.912 167.859 534.556 167.992C534.104 168.153 533.626 168.231 533.146 168.222ZM533.554 166.306C534.356 166.333 535.129 166.011 535.672 165.424C536.771 163.895 536.771 161.84 535.672 160.311C535.126 159.729 534.354 159.411 533.554 159.437C532.724 159.4 531.917 159.718 531.337 160.311C530.228 161.837 530.228 163.898 531.337 165.424C531.914 166.023 532.722 166.344 533.554 166.306Z" fill="#800D4B"/>
    <path d="M542.557 169.939H549.256V166.712H549.156C548.915 167.004 548.635 167.262 548.324 167.479C548.007 167.69 547.666 167.862 547.308 167.992C546.859 168.154 546.384 168.232 545.906 168.222C545.247 168.23 544.594 168.099 543.989 167.839C543.406 167.588 542.882 167.22 542.449 166.758C541.993 166.271 541.642 165.698 541.417 165.072C540.914 163.645 540.914 162.09 541.417 160.664C541.644 160.039 541.995 159.465 542.449 158.977C543.341 158.024 544.597 157.492 545.906 157.513C546.385 157.505 546.861 157.588 547.308 157.758C547.665 157.894 548.006 158.069 548.324 158.28C548.635 158.497 548.914 158.755 549.156 159.046H549.256V157.712H551.389V171.856H542.557V169.939ZM546.314 166.306C547.116 166.334 547.89 166.012 548.432 165.424C549.531 163.895 549.531 161.84 548.432 160.311C547.887 159.728 547.114 159.409 546.314 159.437C545.486 159.401 544.682 159.719 544.104 160.311C542.996 161.837 542.996 163.899 544.104 165.424C544.684 166.028 545.5 166.35 546.337 166.306H546.314Z" fill="#800D4B"/>
    <path d="M559.044 168.222C558.335 168.227 557.632 168.086 556.98 167.808C556.354 167.542 555.784 167.159 555.301 166.681C554.816 166.193 554.432 165.615 554.169 164.98C553.636 163.622 553.636 162.114 554.169 160.756C554.43 160.122 554.815 159.546 555.301 159.062C555.784 158.581 556.353 158.196 556.98 157.927C558.3 157.375 559.788 157.375 561.107 157.927C561.734 158.196 562.304 158.581 562.786 159.062C563.273 159.546 563.658 160.122 563.918 160.756C564.19 161.428 564.326 162.147 564.319 162.872V163.577H555.902C555.972 163.979 556.107 164.367 556.302 164.727C556.484 165.053 556.724 165.344 557.011 165.585C557.292 165.819 557.613 166 557.958 166.122C558.307 166.245 558.674 166.307 559.044 166.306C559.507 166.318 559.969 166.245 560.407 166.091C560.734 165.977 561.041 165.812 561.315 165.601C561.579 165.404 561.806 165.163 561.985 164.888H564.218C563.971 165.511 563.605 166.081 563.14 166.566C562.924 166.781 562.695 166.984 562.455 167.172C562.181 167.387 561.881 167.567 561.562 167.709C561.196 167.874 560.814 168 560.422 168.084C559.969 168.18 559.507 168.226 559.044 168.222ZM562.085 161.86C562.027 161.551 561.926 161.251 561.785 160.97C561.638 160.676 561.431 160.415 561.177 160.204C560.903 159.973 560.593 159.786 560.26 159.652C559.539 159.393 558.751 159.377 558.02 159.606C557.69 159.713 557.38 159.874 557.103 160.081C556.824 160.291 556.586 160.551 556.403 160.848C556.21 161.162 556.075 161.507 556.002 161.867L562.085 161.86Z" fill="#800D4B"/>
    <path d="M415.114 104.803C413.795 103.404 412.165 102.333 410.355 101.675C408.381 100.964 406.294 100.61 404.195 100.632C402.239 100.58 400.292 100.9 398.458 101.575C397.085 102.099 395.79 102.806 394.607 103.676C393.473 104.59 392.482 105.667 391.666 106.872H391.512V101.391H383.565V138.954H391.489V118.961C391.46 117.372 391.721 115.79 392.259 114.293C392.754 112.971 393.511 111.761 394.484 110.736C395.439 109.751 396.583 108.969 397.849 108.436C399.173 107.884 400.596 107.608 402.031 107.624C404.516 107.499 406.949 108.365 408.792 110.031C410.47 111.635 411.312 114.117 411.317 117.474V138.939H419.28V116.608C419.321 114.297 418.951 111.998 418.186 109.816C417.508 107.956 416.461 106.251 415.106 104.803" fill="#800D4B"/>
    <path d="M456.773 125.316C456.21 126.763 455.379 128.092 454.324 129.234C453.301 130.331 452.05 131.194 450.659 131.763C449.194 132.365 447.623 132.665 446.039 132.645C444.495 132.66 442.964 132.36 441.541 131.763C440.167 131.187 438.933 130.325 437.922 129.234C436.866 128.098 436.045 126.767 435.504 125.316C434.354 121.985 434.354 118.368 435.504 115.036C436.047 113.584 436.868 112.251 437.922 111.112C440.011 108.861 442.96 107.596 446.039 107.631C447.625 107.614 449.199 107.925 450.659 108.543C452.038 109.135 453.284 109.995 454.324 111.073C455.389 112.213 456.221 113.549 456.773 115.006C457.396 116.657 457.704 118.409 457.682 120.173C457.707 121.929 457.398 123.674 456.773 125.316ZM473.375 94.1777V86.3431H457.682V107.102H457.458C456.646 105.86 455.637 104.758 454.471 103.837C453.222 102.95 451.867 102.223 450.435 101.675C448.558 100.955 446.556 100.609 444.545 100.655C442.161 100.64 439.8 101.12 437.614 102.066C435.453 103.002 433.502 104.36 431.877 106.06C430.18 107.84 428.858 109.941 427.989 112.238C427.039 114.741 426.563 117.398 426.587 120.073C426.554 122.801 427.026 125.511 427.981 128.068C428.844 130.355 430.168 132.442 431.87 134.201C433.506 135.889 435.454 137.248 437.607 138.203C439.788 139.166 442.15 139.657 444.537 139.644C448.092 139.72 451.576 138.644 454.463 136.578C455.629 135.657 456.638 134.554 457.451 133.312H457.674V138.87H473.367V131.05H465.528V94.1777H473.375Z" fill="#800D4B"/>
    <path d="M309.763 111.112C310.808 110.037 312.053 109.176 313.429 108.574C316.546 107.298 320.055 107.361 323.123 108.75C324.328 109.36 325.426 110.16 326.373 111.119C326.966 111.778 327.482 112.5 327.913 113.273L333.396 107.808C333.342 107.731 333.296 107.647 333.234 107.57C332.485 106.667 331.666 105.824 330.785 105.048C329.786 104.179 328.685 103.435 327.505 102.832C326.157 102.168 324.739 101.654 323.277 101.299C321.514 100.869 319.703 100.666 317.887 100.694C315.248 100.681 312.632 101.184 310.187 102.173C307.845 103.112 305.716 104.509 303.926 106.282C302.143 108.06 300.732 110.174 299.776 112.499C297.764 117.458 297.764 123.002 299.776 127.961C300.734 130.286 302.145 132.398 303.926 134.178C305.716 135.951 307.845 137.348 310.187 138.287C312.632 139.276 315.248 139.779 317.887 139.767C319.717 139.789 321.544 139.585 323.324 139.161C324.829 138.802 326.285 138.261 327.659 137.551C328.86 136.926 329.977 136.153 330.986 135.251C331.852 134.458 332.627 133.571 333.296 132.607L327.905 127.24C327.524 127.908 327.078 128.538 326.573 129.119C325.595 130.118 324.461 130.954 323.216 131.595C321.565 132.409 319.735 132.797 317.895 132.722C316.376 132.733 314.871 132.422 313.482 131.809C312.111 131.204 310.867 130.346 309.817 129.28C308.733 128.154 307.876 126.832 307.291 125.385C306.637 123.753 306.315 122.007 306.344 120.249C306.326 118.508 306.634 116.78 307.253 115.151C307.816 113.683 308.661 112.337 309.74 111.188" fill="#800D4B"/>
    <path d="M346.71 116.485C347.865 111.418 351.869 107.631 357.306 107.631C362.742 107.631 366.208 111.418 367.363 116.485H346.71ZM357.491 100.64C346.179 100.64 338.193 109.187 338.193 119.805C338.193 119.935 338.193 120.058 338.193 120.18C338.193 120.801 338.193 121.407 338.27 122.012C338.27 122.074 338.27 122.143 338.27 122.212C338.309 122.656 338.37 123.101 338.44 123.538C338.44 123.645 338.478 123.753 338.494 123.852C338.649 124.713 338.86 125.563 339.125 126.397C339.164 126.497 339.194 126.597 339.225 126.704C339.372 127.11 339.518 127.516 339.687 127.915C341.608 132.62 345.365 136.347 350.098 138.241C352.543 139.23 355.159 139.733 357.799 139.721C359.629 139.743 361.455 139.539 363.235 139.115C364.741 138.756 366.197 138.215 367.571 137.505C368.773 136.882 369.891 136.109 370.897 135.205C371.761 134.41 372.536 133.523 373.207 132.561L367.817 127.195C367.437 127.861 366.99 128.487 366.485 129.065C365.504 130.062 364.371 130.898 363.127 131.541C361.476 132.352 359.647 132.739 357.806 132.668C356.287 132.68 354.783 132.369 353.394 131.756C352.023 131.151 350.779 130.292 349.729 129.226C348.647 128.102 347.789 126.783 347.203 125.339C347.072 125.025 346.964 124.703 346.864 124.373C346.818 124.228 346.772 124.075 346.733 123.921L346.641 123.546C346.548 123.116 346.464 122.679 346.402 122.227H375.895V120.004C375.895 108.421 368.194 100.663 357.491 100.663" fill="#800D4B"/>
    <path d="M281.087 120.533C281.087 128.084 275.25 132.622 269.913 132.622C266.41 132.622 263.645 130.713 263.645 127.256C263.645 122.365 271.223 119.452 281.087 119.452V120.533ZM289.011 131.142V101.368H257.608V109.187H281.087V113.174C262.606 113.174 255.39 118.471 255.105 127.486C254.859 135.075 260.858 139.713 268.196 139.713C272.924 139.713 278.045 137.858 280.879 133.412H281.125V138.977H294.894V131.158L289.011 131.142Z" fill="#800D4B"/>
    <path opacity="0.5" d="M429.431 457.834C534.303 457.834 619.319 454.278 619.319 449.892C619.319 445.505 534.303 441.95 429.431 441.95C324.559 441.95 239.543 445.505 239.543 449.892C239.543 454.278 324.559 457.834 429.431 457.834Z" fill="#002F47"/>
    <path d="M609.223 262.519H251.518V449.181H609.223V262.519Z" fill="#FFD700"/>
    <path d="M593.937 277.803H266.801V433.896H593.937V277.803Z" fill="#FFD804"/>
    <path opacity="0.05" d="M593.937 277.803H266.801V433.896H593.937V277.803Z" fill="#554C17"/>
    <path opacity="0.1" d="M587.822 283.915V427.783H272.915V283.915H587.822ZM593.937 277.801H266.801V433.897H593.937V277.801V277.801Z" fill="#585018"/>
    <path d="M512.538 295.726C511.471 295.725 510.414 295.935 509.428 296.343C508.443 296.751 507.547 297.349 506.792 298.103C506.038 298.858 505.44 299.754 505.032 300.739C504.624 301.725 504.414 302.782 504.415 303.849V410.56C504.415 412.714 505.27 414.78 506.794 416.304C508.317 417.827 510.384 418.683 512.538 418.683C514.692 418.683 516.759 417.827 518.282 416.304C519.805 414.78 520.661 412.714 520.661 410.56V303.849C520.662 302.782 520.452 301.725 520.044 300.74C519.636 299.754 519.038 298.858 518.283 298.104C517.529 297.349 516.633 296.751 515.647 296.343C514.661 295.935 513.605 295.725 512.538 295.726V295.726Z" fill="#786418"/>
    <path d="M472.063 295.726C470.996 295.725 469.939 295.935 468.954 296.343C467.968 296.751 467.072 297.349 466.318 298.104C465.563 298.858 464.965 299.754 464.557 300.74C464.149 301.725 463.939 302.782 463.939 303.849V410.56C463.939 412.714 464.795 414.78 466.319 416.304C467.842 417.827 469.908 418.683 472.063 418.683C474.217 418.683 476.284 417.827 477.807 416.304C479.33 414.78 480.186 412.714 480.186 410.56V303.849C480.187 302.782 479.977 301.725 479.569 300.74C479.161 299.754 478.563 298.858 477.808 298.104C477.054 297.349 476.158 296.751 475.172 296.343C474.186 295.935 473.13 295.725 472.063 295.726V295.726Z" fill="#786418"/>
    <path d="M431.73 295.726C430.663 295.725 429.606 295.934 428.62 296.342C427.634 296.75 426.737 297.348 425.983 298.103C425.228 298.857 424.629 299.753 424.221 300.739C423.813 301.725 423.603 302.782 423.604 303.849V410.56C423.604 412.714 424.459 414.78 425.983 416.304C427.506 417.827 429.572 418.683 431.727 418.683C433.881 418.683 435.948 417.827 437.471 416.304C438.994 414.78 439.85 412.714 439.85 410.56V303.849C439.803 301.709 438.932 299.67 437.419 298.157C435.905 296.644 433.867 295.773 431.727 295.726H431.73Z" fill="#786418"/>
    <path d="M391.256 295.726C390.189 295.725 389.133 295.935 388.147 296.343C387.161 296.751 386.265 297.349 385.511 298.103C384.756 298.858 384.158 299.754 383.75 300.739C383.342 301.725 383.132 302.782 383.133 303.849V410.56C383.133 412.714 383.989 414.78 385.512 416.304C387.036 417.827 389.102 418.683 391.256 418.683C393.411 418.683 395.477 417.827 397 416.304C398.524 414.78 399.38 412.714 399.38 410.56V303.849C399.356 301.702 398.493 299.649 396.974 298.131C395.456 296.612 393.403 295.749 391.256 295.726Z" fill="#786418"/>
    <path d="M350.78 295.726C349.713 295.725 348.656 295.935 347.67 296.343C346.684 296.751 345.789 297.349 345.034 298.104C344.28 298.858 343.682 299.754 343.273 300.74C342.865 301.725 342.656 302.782 342.656 303.849V410.56C342.656 412.714 343.512 414.78 345.036 416.304C346.559 417.827 348.625 418.683 350.78 418.683C352.934 418.683 355 417.827 356.524 416.304C358.047 414.78 358.903 412.714 358.903 410.56V303.849C358.88 301.702 358.017 299.649 356.498 298.13C354.98 296.612 352.927 295.749 350.78 295.726V295.726Z" fill="#786418"/>
    <path d="M310.306 295.726C309.239 295.725 308.182 295.935 307.196 296.343C306.21 296.751 305.315 297.349 304.56 298.104C303.806 298.858 303.207 299.754 302.799 300.74C302.391 301.725 302.182 302.782 302.182 303.849V410.56C302.182 412.714 303.038 414.78 304.561 416.304C306.085 417.827 308.151 418.683 310.306 418.683C312.46 418.683 314.526 417.827 316.05 416.304C317.573 414.78 318.429 412.714 318.429 410.56V303.849C318.429 302.782 318.22 301.725 317.812 300.74C317.404 299.754 316.805 298.858 316.051 298.104C315.296 297.349 314.401 296.751 313.415 296.343C312.429 295.935 311.372 295.725 310.306 295.726V295.726Z" fill="#786418"/>
    <path d="M553.011 295.726C551.944 295.725 550.888 295.935 549.902 296.343C548.916 296.751 548.02 297.349 547.266 298.104C546.511 298.858 545.913 299.754 545.505 300.74C545.097 301.725 544.887 302.782 544.888 303.849V410.56C544.887 411.627 545.097 412.683 545.505 413.669C545.913 414.655 546.512 415.55 547.266 416.305C548.02 417.059 548.916 417.658 549.902 418.066C550.888 418.474 551.944 418.684 553.011 418.683C554.081 418.696 555.143 418.494 556.134 418.09C557.126 417.686 558.026 417.089 558.783 416.332C559.54 415.575 560.138 414.674 560.542 413.683C560.945 412.692 561.147 411.63 561.134 410.56V303.849C561.111 301.702 560.248 299.649 558.73 298.13C557.211 296.612 555.158 295.749 553.011 295.726Z" fill="#786418"/>
    <path d="M511.117 294.3C510.05 294.3 508.993 294.51 508.007 294.918C507.022 295.326 506.126 295.924 505.372 296.679C504.617 297.433 504.019 298.329 503.611 299.314C503.203 300.3 502.993 301.357 502.993 302.424V409.134C502.993 411.289 503.849 413.355 505.372 414.878C506.896 416.402 508.962 417.258 511.117 417.258C513.271 417.258 515.337 416.402 516.861 414.878C518.384 413.355 519.24 411.289 519.24 409.134V302.424C519.24 301.357 519.031 300.3 518.623 299.314C518.215 298.328 517.616 297.433 516.862 296.678C516.107 295.924 515.212 295.325 514.226 294.917C513.24 294.509 512.183 294.3 511.117 294.3V294.3Z" fill="#FBE064"/>
    <path d="M470.638 294.3C469.571 294.3 468.514 294.51 467.528 294.918C466.543 295.326 465.647 295.924 464.893 296.679C464.138 297.433 463.54 298.329 463.132 299.314C462.724 300.3 462.514 301.357 462.514 302.424V409.134C462.514 411.289 463.37 413.355 464.893 414.878C466.417 416.402 468.483 417.258 470.638 417.258C472.792 417.258 474.858 416.402 476.382 414.878C477.905 413.355 478.761 411.289 478.761 409.134V302.424C478.761 301.357 478.552 300.3 478.144 299.314C477.736 298.328 477.137 297.433 476.383 296.678C475.628 295.924 474.733 295.325 473.747 294.917C472.761 294.509 471.705 294.3 470.638 294.3V294.3Z" fill="#FBE064"/>
    <path d="M430.304 294.3C429.237 294.3 428.181 294.51 427.195 294.918C426.209 295.326 425.313 295.924 424.559 296.679C423.805 297.433 423.206 298.329 422.798 299.314C422.39 300.3 422.18 301.357 422.181 302.424V409.134C422.181 411.289 423.037 413.355 424.56 414.878C426.083 416.402 428.15 417.258 430.304 417.258C432.459 417.258 434.525 416.402 436.048 414.878C437.572 413.355 438.427 411.289 438.427 409.134V302.424C438.38 300.284 437.509 298.245 435.996 296.732C434.483 295.218 432.444 294.347 430.304 294.3V294.3Z" fill="#FBE064"/>
    <path d="M389.831 294.3C388.764 294.3 387.708 294.51 386.722 294.918C385.736 295.326 384.84 295.924 384.086 296.679C383.332 297.433 382.733 298.329 382.325 299.314C381.917 300.3 381.707 301.357 381.708 302.424V409.134C381.708 411.289 382.563 413.355 384.087 414.878C385.61 416.402 387.676 417.258 389.831 417.258C391.985 417.258 394.052 416.402 395.575 414.878C397.098 413.355 397.954 411.289 397.954 409.134V302.424C397.931 300.276 397.068 298.223 395.549 296.705C394.031 295.187 391.978 294.323 389.831 294.3V294.3Z" fill="#FBE064"/>
    <path d="M349.355 294.3C348.288 294.3 347.232 294.51 346.246 294.918C345.26 295.326 344.365 295.924 343.61 296.679C342.856 297.433 342.258 298.329 341.849 299.314C341.441 300.3 341.232 301.357 341.232 302.424V409.134C341.232 411.289 342.088 413.355 343.611 414.878C345.135 416.402 347.201 417.258 349.355 417.258C351.51 417.258 353.576 416.402 355.099 414.878C356.623 413.355 357.479 411.289 357.479 409.134V302.424C357.456 300.276 356.592 298.223 355.074 296.705C353.555 295.187 351.503 294.323 349.355 294.3V294.3Z" fill="#FBE064"/>
    <path d="M308.885 294.3C307.818 294.3 306.762 294.51 305.776 294.918C304.79 295.326 303.894 295.924 303.14 296.679C302.386 297.433 301.787 298.329 301.379 299.314C300.971 300.3 300.761 301.357 300.762 302.424V409.134C300.786 411.273 301.652 413.316 303.173 414.82C304.694 416.324 306.747 417.167 308.886 417.167C311.024 417.167 313.077 416.324 314.598 414.82C316.119 413.316 316.985 411.273 317.009 409.134V302.424C317.01 301.357 316.8 300.3 316.392 299.314C315.984 298.328 315.385 297.433 314.631 296.678C313.876 295.924 312.98 295.325 311.995 294.917C311.009 294.509 309.952 294.3 308.885 294.3V294.3Z" fill="#FBE064"/>
    <path d="M551.588 294.3C550.521 294.3 549.464 294.51 548.479 294.918C547.493 295.326 546.597 295.924 545.843 296.679C545.088 297.433 544.49 298.329 544.082 299.314C543.674 300.3 543.464 301.357 543.464 302.424V409.134C543.464 410.201 543.674 411.258 544.082 412.244C544.49 413.23 545.088 414.125 545.842 414.88C546.597 415.634 547.493 416.232 548.478 416.64C549.464 417.049 550.521 417.258 551.588 417.258C552.658 417.27 553.72 417.069 554.711 416.665C555.702 416.261 556.603 415.663 557.36 414.906C558.116 414.149 558.714 413.249 559.118 412.258C559.522 411.267 559.724 410.205 559.711 409.134V302.424C559.688 300.276 558.824 298.224 557.306 296.705C555.788 295.187 553.735 294.324 551.588 294.3V294.3Z" fill="#FBE064"/>
    <path d="M609.222 441.602H251.517V449.182H609.222V441.602Z" fill="#867319"/>
    <path d="M259.278 258.403H601.459L609.222 262.519H251.517L259.278 258.403Z" fill="#FBE064"/>
    <path opacity="0.5" d="M850.586 461.972C955.458 461.972 1040.47 458.416 1040.47 454.03C1040.47 449.643 955.458 446.087 850.586 446.087C745.713 446.087 660.697 449.643 660.697 454.03C660.697 458.416 745.713 461.972 850.586 461.972Z" fill="#002F47"/>
    <path d="M1030.38 266.657H672.672V453.319H1030.38V266.657Z" fill="#FFD700"/>
    <path d="M1015.09 281.94H687.956V438.034H1015.09V281.94Z" fill="#FFD804"/>
    <path opacity="0.05" d="M1015.09 281.94H687.956V438.034H1015.09V281.94Z" fill="#554C17"/>
    <path opacity="0.1" d="M1008.98 288.053V431.921H694.069V288.053H1008.98ZM1015.09 281.939H687.956V438.034H1015.09V281.939V281.939Z" fill="#585018"/>
    <path d="M933.69 299.863C932.623 299.863 931.567 300.072 930.581 300.48C929.595 300.888 928.699 301.487 927.945 302.241C927.19 302.996 926.592 303.891 926.184 304.877C925.776 305.863 925.566 306.92 925.567 307.987V414.698C925.567 416.852 926.423 418.918 927.946 420.442C929.47 421.965 931.536 422.821 933.69 422.821C935.845 422.821 937.911 421.965 939.434 420.442C940.958 418.918 941.814 416.852 941.814 414.698V307.987C941.814 306.92 941.604 305.863 941.196 304.877C940.788 303.892 940.19 302.996 939.436 302.241C938.681 301.487 937.785 300.889 936.8 300.481C935.814 300.073 934.757 299.863 933.69 299.863V299.863Z" fill="#786418"/>
    <path d="M893.216 299.863C892.149 299.863 891.092 300.073 890.106 300.481C889.121 300.889 888.225 301.487 887.47 302.241C886.716 302.996 886.118 303.892 885.71 304.877C885.302 305.863 885.092 306.92 885.092 307.987V414.698C885.092 416.852 885.948 418.918 887.472 420.442C888.995 421.965 891.061 422.821 893.216 422.821C895.37 422.821 897.436 421.965 898.96 420.442C900.483 418.918 901.339 416.852 901.339 414.698V307.987C901.34 306.92 901.13 305.863 900.722 304.877C900.314 303.892 899.715 302.996 898.961 302.241C898.207 301.487 897.311 300.889 896.325 300.481C895.339 300.073 894.283 299.863 893.216 299.863V299.863Z" fill="#786418"/>
    <path d="M852.883 299.863C851.816 299.862 850.759 300.072 849.773 300.48C848.786 300.888 847.89 301.486 847.136 302.24C846.381 302.995 845.782 303.891 845.374 304.877C844.966 305.863 844.756 306.92 844.756 307.987V414.698C844.756 416.852 845.612 418.918 847.136 420.442C848.659 421.965 850.725 422.821 852.88 422.821C855.034 422.821 857.1 421.965 858.624 420.442C860.147 418.918 861.003 416.852 861.003 414.698V307.987C860.956 305.847 860.085 303.808 858.572 302.295C857.058 300.782 855.019 299.911 852.88 299.863H852.883Z" fill="#786418"/>
    <path d="M812.408 299.863C811.341 299.863 810.284 300.072 809.299 300.48C808.313 300.888 807.417 301.487 806.662 302.241C805.908 302.996 805.31 303.891 804.902 304.877C804.494 305.863 804.284 306.92 804.285 307.987V414.698C804.285 416.852 805.141 418.918 806.664 420.442C808.187 421.965 810.254 422.821 812.408 422.821C814.563 422.821 816.629 421.965 818.152 420.442C819.676 418.918 820.531 416.852 820.531 414.698V307.987C820.508 305.84 819.645 303.787 818.126 302.269C816.608 300.75 814.555 299.887 812.408 299.863Z" fill="#786418"/>
    <path d="M771.932 299.863C770.865 299.863 769.809 300.073 768.823 300.481C767.837 300.889 766.942 301.487 766.187 302.241C765.433 302.996 764.834 303.892 764.426 304.877C764.018 305.863 763.809 306.92 763.809 307.987V414.698C763.809 416.852 764.665 418.918 766.188 420.442C767.712 421.965 769.778 422.821 771.932 422.821C774.087 422.821 776.153 421.965 777.677 420.442C779.2 418.918 780.056 416.852 780.056 414.698V307.987C780.033 305.839 779.169 303.787 777.651 302.268C776.133 300.75 774.08 299.886 771.932 299.863V299.863Z" fill="#786418"/>
    <path d="M731.459 299.864C730.392 299.864 729.336 300.073 728.35 300.481C727.364 300.89 726.468 301.488 725.714 302.242C724.96 302.997 724.361 303.892 723.953 304.878C723.545 305.864 723.335 306.921 723.336 307.988V414.698C723.336 416.853 724.192 418.919 725.715 420.442C727.239 421.966 729.305 422.822 731.459 422.822C733.614 422.822 735.68 421.966 737.203 420.442C738.727 418.919 739.583 416.853 739.583 414.698V307.988C739.583 306.921 739.374 305.864 738.965 304.878C738.557 303.892 737.959 302.997 737.205 302.242C736.45 301.488 735.554 300.89 734.569 300.481C733.583 300.073 732.526 299.864 731.459 299.864V299.864Z" fill="#786418"/>
    <path d="M974.163 299.863C973.096 299.863 972.039 300.073 971.054 300.481C970.068 300.889 969.172 301.487 968.418 302.241C967.663 302.996 967.065 303.892 966.657 304.877C966.249 305.863 966.039 306.92 966.04 307.987V414.698C966.039 415.764 966.249 416.821 966.657 417.807C967.065 418.792 967.664 419.688 968.418 420.443C969.172 421.197 970.068 421.795 971.054 422.203C972.039 422.611 973.096 422.821 974.163 422.821C975.233 422.833 976.295 422.632 977.286 422.228C978.278 421.824 979.178 421.226 979.935 420.469C980.692 419.713 981.29 418.812 981.693 417.821C982.097 416.83 982.299 415.768 982.286 414.698V307.987C982.263 305.839 981.4 303.787 979.881 302.268C978.363 300.75 976.31 299.886 974.163 299.863Z" fill="#786418"/>
    <path d="M932.27 298.438C931.203 298.437 930.146 298.647 929.161 299.055C928.175 299.464 927.279 300.062 926.525 300.816C925.77 301.571 925.172 302.466 924.764 303.452C924.356 304.438 924.146 305.494 924.146 306.561V413.272C924.146 415.427 925.002 417.493 926.526 419.016C928.049 420.54 930.115 421.395 932.27 421.395C934.424 421.395 936.491 420.54 938.014 419.016C939.537 417.493 940.393 415.427 940.393 413.272V306.561C940.394 305.494 940.184 304.438 939.776 303.452C939.368 302.466 938.77 301.57 938.015 300.816C937.261 300.062 936.365 299.463 935.379 299.055C934.393 298.647 933.337 298.437 932.27 298.438V298.438Z" fill="#FBE064"/>
    <path d="M891.791 298.438C890.724 298.437 889.668 298.647 888.682 299.055C887.696 299.464 886.801 300.062 886.046 300.816C885.292 301.571 884.694 302.466 884.286 303.452C883.877 304.438 883.668 305.494 883.668 306.561V413.272C883.668 415.427 884.524 417.493 886.047 419.016C887.571 420.54 889.637 421.395 891.791 421.395C893.946 421.395 896.012 420.54 897.535 419.016C899.059 417.493 899.915 415.427 899.915 413.272V306.561C899.915 305.494 899.706 304.438 899.298 303.452C898.889 302.466 898.291 301.57 897.537 300.816C896.782 300.062 895.886 299.463 894.901 299.055C893.915 298.647 892.858 298.437 891.791 298.438V298.438Z" fill="#FBE064"/>
    <path d="M851.459 298.438C850.392 298.437 849.335 298.647 848.35 299.055C847.364 299.464 846.468 300.062 845.714 300.816C844.959 301.571 844.361 302.466 843.953 303.452C843.545 304.438 843.335 305.494 843.335 306.561V413.272C843.335 415.427 844.191 417.493 845.715 419.016C847.238 420.54 849.304 421.395 851.459 421.395C853.613 421.395 855.679 420.54 857.203 419.016C858.726 417.493 859.582 415.427 859.582 413.272V306.561C859.535 304.422 858.664 302.383 857.151 300.869C855.637 299.356 853.599 298.485 851.459 298.438V298.438Z" fill="#FBE064"/>
    <path d="M810.985 298.438C809.918 298.437 808.861 298.647 807.876 299.055C806.89 299.464 805.994 300.062 805.24 300.816C804.485 301.571 803.887 302.466 803.479 303.452C803.071 304.438 802.861 305.494 802.861 306.561V413.272C802.861 415.427 803.717 417.493 805.241 419.016C806.764 420.54 808.83 421.395 810.985 421.395C813.139 421.395 815.205 420.54 816.729 419.016C818.252 417.493 819.108 415.427 819.108 413.272V306.561C819.085 304.414 818.222 302.361 816.703 300.843C815.185 299.324 813.132 298.461 810.985 298.438V298.438Z" fill="#FBE064"/>
    <path d="M770.51 298.438C769.443 298.437 768.386 298.647 767.4 299.055C766.415 299.464 765.519 300.062 764.765 300.816C764.01 301.571 763.412 302.466 763.004 303.452C762.596 304.438 762.386 305.494 762.386 306.561V413.272C762.386 415.427 763.242 417.493 764.766 419.016C766.289 420.54 768.355 421.395 770.51 421.395C772.664 421.395 774.73 420.54 776.254 419.016C777.777 417.493 778.633 415.427 778.633 413.272V306.561C778.61 304.414 777.747 302.361 776.228 300.843C774.71 299.324 772.657 298.461 770.51 298.438V298.438Z" fill="#FBE064"/>
    <path d="M730.039 298.438C728.972 298.437 727.916 298.647 726.93 299.055C725.944 299.464 725.049 300.062 724.294 300.816C723.54 301.571 722.942 302.466 722.534 303.452C722.125 304.438 721.916 305.494 721.916 306.561V413.272C721.94 415.411 722.807 417.454 724.328 418.958C725.848 420.461 727.901 421.305 730.04 421.305C732.179 421.305 734.231 420.461 735.752 418.958C737.273 417.454 738.14 415.411 738.164 413.272V306.561C738.164 305.494 737.954 304.438 737.546 303.452C737.138 302.466 736.54 301.57 735.785 300.816C735.031 300.061 734.135 299.463 733.149 299.055C732.163 298.647 731.106 298.437 730.039 298.438V298.438Z" fill="#FBE064"/>
    <path d="M972.742 298.438C971.675 298.437 970.619 298.647 969.633 299.055C968.647 299.464 967.751 300.062 966.997 300.816C966.243 301.571 965.644 302.466 965.236 303.452C964.828 304.438 964.618 305.494 964.619 306.561V413.272C964.618 414.339 964.828 415.396 965.236 416.381C965.644 417.367 966.242 418.263 966.997 419.017C967.751 419.772 968.647 420.37 969.633 420.778C970.619 421.186 971.675 421.396 972.742 421.395C973.812 421.408 974.874 421.206 975.865 420.803C976.857 420.399 977.757 419.801 978.514 419.044C979.271 418.287 979.869 417.387 980.272 416.395C980.676 415.404 980.878 414.342 980.865 413.272V306.561C980.842 304.414 979.979 302.361 978.46 300.843C976.942 299.325 974.889 298.461 972.742 298.438V298.438Z" fill="#FBE064"/>
    <path d="M1030.38 445.74H672.671V453.32H1030.38V445.74Z" fill="#867319"/>
    <path d="M680.433 262.541H1022.61L1030.38 266.657H672.672L680.433 262.541Z" fill="#FBE064"/>
    <g filter="url(#filter0_d)">
    <path d="M534.338 292.54H326.435V431.453H534.338V292.54Z" fill="#81B4C4"/>
    <path d="M527.015 299.342H332.785V424.58H527.015V299.342Z" fill="#002F47"/>
    <g style="mix-blend-mode:multiply" opacity="0.5">
    <path d="M332.785 424.582H340.836V306.97H527.016V299.342H332.785V424.582Z" fill="#4A3144"/>
    </g>
    <g opacity="0.6">
    <path opacity="0.6" d="M398.157 378.04H366.689C362.246 378.035 357.987 376.268 354.845 373.127C351.703 369.985 349.936 365.725 349.931 361.283V308.172H370.878V357.093H398.159L398.157 378.04Z" stroke="white" stroke-width="1.03443" stroke-miterlimit="10"/>
    <path opacity="0.6" d="M509.362 424.235H488.415V378.04H460.847V357.093H492.604C497.047 357.098 501.306 358.865 504.448 362.007C507.59 365.149 509.357 369.408 509.362 373.851V424.235Z" stroke="white" stroke-width="1.03443" stroke-miterlimit="10"/>
    <path opacity="0.6" d="M450.259 357.093H408.747V378.04H450.259V357.093Z" stroke="white" stroke-width="1.03443" stroke-miterlimit="10"/>
    <path opacity="0.6" d="M408.747 352.904H398.157V382.23H408.747V352.904Z" stroke="white" stroke-width="1.03443" stroke-miterlimit="10"/>
    <path opacity="0.6" d="M460.847 353.454H450.258V382.78H460.847V353.454Z" stroke="white" stroke-width="1.03443" stroke-miterlimit="10"/>
    <path opacity="0.6" d="M430.67 349.201H428.623V357.093H430.67V349.201Z" stroke="white" stroke-width="1.03443" stroke-miterlimit="10"/>
    <path opacity="0.6" d="M430.67 377.99H428.623V393.775H430.67V377.99Z" stroke="white" stroke-width="1.03443" stroke-miterlimit="10"/>
    <path opacity="0.6" d="M464.33 308.174H394.127C388.292 308.174 383.562 312.904 383.562 318.739V337.794C383.562 343.629 388.292 348.359 394.127 348.359H464.33C470.165 348.359 474.896 343.629 474.896 337.794V318.739C474.896 312.904 470.165 308.174 464.33 308.174Z" stroke="white" stroke-width="1.03443" stroke-miterlimit="10"/>
    <g opacity="0.6">
    <path opacity="0.6" d="M411.997 339.634H407.963C407.573 339.653 407.189 339.541 406.869 339.317C406.592 339.108 406.375 338.829 406.238 338.509L404.914 334.599H396.385L395.062 338.509C394.933 338.819 394.723 339.087 394.454 339.287C394.143 339.524 393.76 339.647 393.369 339.634H389.305L397.987 317.204H403.308L411.997 339.634ZM403.731 331.058L401.652 324.916C401.499 324.526 401.333 324.067 401.159 323.538C400.985 323.01 400.811 322.438 400.636 321.822C400.481 322.448 400.317 323.028 400.143 323.562C399.97 324.096 399.805 324.557 399.651 324.947L397.582 331.058H403.731Z" stroke="white" stroke-width="1.03443" stroke-miterlimit="10"/>
    <path opacity="0.6" d="M438.981 317.204V339.634H434.394V326.732C434.394 326.436 434.401 326.112 434.416 325.763C434.432 325.415 434.46 325.061 434.501 324.701L428.548 336.231C428.383 336.569 428.124 336.852 427.801 337.047C427.477 337.235 427.107 337.331 426.732 337.324H426.023C425.648 337.331 425.278 337.235 424.954 337.047C424.631 336.852 424.372 336.569 424.207 336.231L418.245 324.67C418.275 325.039 418.3 325.402 418.322 325.756C418.342 326.109 418.353 326.436 418.353 326.732V339.634H413.765V317.204H417.737C417.963 317.204 418.16 317.204 418.33 317.219C418.485 317.227 418.638 317.258 418.784 317.312C418.92 317.365 419.044 317.446 419.146 317.55C419.273 317.685 419.379 317.838 419.462 318.004L425.235 329.383C425.442 329.773 425.639 330.179 425.827 330.599C426.014 331.02 426.197 331.451 426.374 331.892C426.548 331.441 426.73 330.999 426.92 330.568C427.109 330.137 427.313 329.726 427.528 329.337L433.285 318.006C433.368 317.84 433.474 317.687 433.601 317.552C433.704 317.448 433.827 317.367 433.963 317.314C434.109 317.26 434.262 317.229 434.416 317.221C434.586 317.212 434.784 317.206 435.01 317.206L438.981 317.204Z" stroke="white" stroke-width="1.03443" stroke-miterlimit="10"/>
    <path opacity="0.6" d="M468.538 317.204V339.634H463.951V326.732C463.951 326.436 463.959 326.112 463.974 325.763C463.99 325.415 464.018 325.061 464.059 324.701L458.102 336.231C457.936 336.569 457.677 336.852 457.355 337.047C457.03 337.235 456.66 337.33 456.284 337.324H455.577C455.201 337.33 454.831 337.235 454.506 337.047C454.184 336.852 453.925 336.569 453.759 336.231L447.802 324.67C447.833 325.039 447.859 325.402 447.879 325.756C447.899 326.109 447.909 326.436 447.909 326.732V339.634H443.323V317.204H447.294C447.52 317.204 447.717 317.204 447.887 317.219C448.042 317.227 448.195 317.258 448.341 317.312C448.477 317.365 448.6 317.446 448.703 317.55C448.83 317.685 448.936 317.838 449.018 318.004L454.791 329.383C454.998 329.773 455.196 330.179 455.384 330.599C455.573 331.02 455.755 331.451 455.93 331.892C456.105 331.441 456.287 330.999 456.477 330.568C456.666 330.137 456.869 329.727 457.085 329.337L462.842 318.006C462.923 317.84 463.028 317.687 463.153 317.552C463.255 317.448 463.379 317.367 463.515 317.314C463.661 317.26 463.814 317.229 463.969 317.221C464.139 317.212 464.336 317.206 464.562 317.206L468.538 317.204Z" stroke="white" stroke-width="1.03443" stroke-miterlimit="10"/>
    </g>
    <path opacity="0.6" d="M438.466 405.189C438.466 404.921 438.453 404.657 438.429 404.395L440.195 403.933L439.403 400.909L437.603 401.38C437.225 400.595 436.733 399.869 436.143 399.227L437.298 397.731L434.824 395.821L433.655 397.337C432.887 396.944 432.065 396.668 431.216 396.516V394.589H428.09V396.512C427.283 396.656 426.5 396.912 425.764 397.274L424.617 395.747L422.115 397.62L423.253 399.135C422.821 399.593 422.44 400.095 422.115 400.633L420.356 399.987L419.271 402.926L420.994 403.56C420.891 404.098 420.839 404.646 420.838 405.194C420.838 405.387 420.848 405.579 420.86 405.769L419.111 406.226L419.903 409.251L421.612 408.802C421.981 409.622 422.473 410.381 423.071 411.052L422.007 412.429L424.482 414.339L425.528 412.983C426.331 413.409 427.195 413.707 428.09 413.867V415.57H431.216V413.867C432.067 413.713 432.891 413.434 433.661 413.039L434.688 414.411L437.191 412.536L436.149 411.146C436.592 410.663 436.979 410.132 437.304 409.562L438.954 410.17L440.034 407.237L438.35 406.616C438.427 406.144 438.466 405.667 438.466 405.189V405.189ZM429.653 411.079C428.466 411.079 427.306 410.727 426.319 410.068C425.333 409.409 424.564 408.472 424.11 407.375C423.656 406.279 423.537 405.073 423.768 403.909C424 402.745 424.571 401.676 425.41 400.837C426.249 399.998 427.318 399.426 428.482 399.195C429.646 398.963 430.852 399.082 431.949 399.536C433.045 399.99 433.982 400.759 434.641 401.746C435.301 402.733 435.652 403.893 435.652 405.079C435.652 406.67 435.02 408.197 433.895 409.322C432.77 410.447 431.244 411.079 429.653 411.079V411.079Z" stroke="white" stroke-width="1.03443" stroke-miterlimit="10"/>
    </g>
    </g>
    <g filter="url(#filter1_d)">
    <path d="M957.421 292.54H749.517V431.453H957.421V292.54Z" fill="#81B4C4"/>
    <path d="M950.584 299.376H756.354V424.615H950.584V299.376Z" fill="#002F47"/>
    <g style="mix-blend-mode:multiply" opacity="0.5">
    <path d="M756.354 424.617H764.405V307.003H950.584V299.376H756.354V424.617Z" fill="#4A3144"/>
    </g>
    <g opacity="0.6">
    <path opacity="0.6" d="M800.25 345.516L786.875 350.378C787.052 352.517 787.407 354.637 787.935 356.718L800.641 352.092C800.219 349.927 800.088 347.716 800.25 345.516M859.36 330.724C858.431 328.79 857.34 326.938 856.098 325.188L842.725 330.05C844.264 331.633 845.586 333.414 846.656 335.344L859.36 330.724Z" stroke="white" stroke-width="1.03443" stroke-miterlimit="10"/>
    <path opacity="0.6" d="M829.938 326.939C832.636 328.205 835.084 329.947 837.163 332.083L850.534 327.221C845.68 320.42 838.732 315.398 830.752 312.921C822.772 310.445 814.201 310.651 806.349 313.509C798.498 316.366 791.799 321.717 787.277 328.743C782.756 335.77 780.661 344.084 781.314 352.413L794.688 347.552C794.981 343.543 796.246 339.666 798.372 336.256C800.498 332.845 803.422 330.002 806.891 327.973C810.361 325.945 814.272 324.79 818.287 324.61C822.302 324.43 826.301 325.229 829.938 326.939Z" stroke="white" stroke-width="1.03443" stroke-miterlimit="10"/>
    <path opacity="0.6" d="M844.198 351.374C843.978 354.348 843.217 357.258 841.954 359.96C839.163 365.928 834.118 370.545 827.927 372.799C821.736 375.052 814.904 374.758 808.929 371.98C806.224 370.721 803.77 368.98 801.688 366.843L788.344 371.699C793.195 378.501 800.141 383.526 808.119 386.004C816.097 388.482 824.668 388.277 832.519 385.42C840.369 382.563 847.067 377.212 851.587 370.186C856.106 363.16 858.198 354.846 857.542 346.517L844.198 351.373V351.374Z" stroke="white" stroke-width="1.03443" stroke-miterlimit="10"/>
    <path opacity="0.6" d="M788.767 356.417L776.062 361.045C777.233 365.695 779.259 370.087 782.036 373.997L795.381 369.135C791.98 365.631 789.681 361.208 788.768 356.412M847.487 335.048L834.781 339.672C837.165 343.932 838.246 348.798 837.89 353.666L851.235 348.813C850.852 344.031 849.581 339.363 847.486 335.048H847.487Z" stroke="white" stroke-width="1.03443" stroke-miterlimit="10"/>
    <path opacity="0.6" d="M857.424 327.206C857.002 326.523 856.564 325.849 856.099 325.193L842.727 330.055C843.308 330.658 843.858 331.292 844.373 331.952L857.424 327.206ZM800.201 348.205C800.166 347.309 800.182 346.411 800.25 345.516L786.874 350.378C786.943 351.234 787.051 352.086 787.179 352.934L800.201 348.205Z" stroke="white" stroke-width="1.03443" stroke-miterlimit="10"/>
    <path opacity="0.6" d="M857.543 346.518L844.199 351.374C844.054 353.325 843.675 355.253 843.071 357.114L857.597 351.818C857.701 350.052 857.684 348.281 857.544 346.518H857.543ZM788.347 371.702C789.382 373.157 790.518 374.537 791.747 375.832L806.274 370.534C804.605 369.491 803.065 368.252 801.69 366.844L788.347 371.702Z" stroke="white" stroke-width="1.03443" stroke-miterlimit="10"/>
    <path opacity="0.6" d="M776.276 402.169C774.614 402.169 773.51 403.514 773.51 405.92C773.51 408.326 774.664 409.702 776.327 409.702C777.989 409.702 779.091 408.357 779.091 405.952C779.091 403.547 777.938 402.169 776.276 402.169M856.855 399.998V401.203H860.35V411.875H861.673V401.203H865.17V399.998H856.855ZM848.831 401.202V405.133H852.087V406.34H848.831V411.87H847.508V399.999H854.481V401.202H848.831ZM842.777 400H844.1V411.876H842.777V400ZM838.049 411.875V406.275H832.144V411.875H830.821V399.998H832.144V405.072H838.049V399.998H839.372V411.875H838.049ZM823.937 412.061C822.443 412.06 821.01 411.469 819.951 410.416L820.834 409.431C821.24 409.865 821.727 410.214 822.269 410.459C822.81 410.704 823.394 410.84 823.988 410.858C825.565 410.858 826.551 410.077 826.551 408.821C826.551 407.717 825.889 407.09 823.718 406.309C821.156 405.393 820.29 404.563 820.29 402.849C820.29 400.948 821.783 399.811 824.004 399.811C825.326 399.771 826.614 400.225 827.619 401.084L826.771 402.119C825.997 401.4 824.977 401.005 823.922 401.015C822.291 401.015 821.613 401.829 821.613 402.763C821.613 403.749 822.055 404.307 824.43 405.157C827.059 406.106 827.873 406.989 827.873 408.754C827.873 410.616 826.415 412.064 823.937 412.064V412.061ZM814.589 411.878L810.23 405.397C809.94 404.955 809.55 404.362 809.402 404.052C809.402 404.494 809.437 405.987 809.437 406.648V411.875H807.095V399.998H809.37L813.578 406.275C813.868 406.717 814.256 407.31 814.406 407.62C814.406 407.179 814.374 405.687 814.374 405.023V400.002H816.714V411.875L814.589 411.878ZM795.866 411.878V399.998H804.111V402.323H798.241V404.375H801.655V406.681H798.241V409.547H804.366V411.871L795.866 411.878ZM789.117 407.671H786.504V411.878H784.125V399.998H789.317C791.556 399.998 793.406 401.24 793.406 403.764C793.406 406.513 791.574 407.667 789.114 407.667L789.117 407.671ZM789.234 402.306H786.5V405.36H789.266C790.37 405.36 790.964 404.849 790.964 403.814C790.964 402.78 790.284 402.306 789.234 402.306V402.306ZM776.292 412.061C773.189 412.061 771.065 409.785 771.065 405.952C771.065 402.12 773.221 399.811 776.327 399.811C779.414 399.811 781.535 402.087 781.535 405.92C781.535 409.754 779.379 412.061 776.292 412.061Z" stroke="white" stroke-width="1.03443" stroke-miterlimit="10"/>
    </g>
    <g opacity="0.6">
    <path opacity="0.6" d="M904.343 359.903C904.355 359.508 904.441 359.12 904.597 358.758C904.615 358.705 904.534 358.646 904.505 358.624C902.385 356.975 899.577 355.585 898.323 353.089C897.162 350.78 896.213 348.458 896.735 345.808C897.85 340.16 903.923 337.166 909.11 336.203C911.698 335.71 914.367 335.858 916.885 336.634C919.403 337.41 921.693 338.79 923.555 340.654C927.268 344.443 927.425 349.606 925.407 354.332C924.813 355.843 923.902 357.21 922.735 358.34C921.569 359.469 920.174 360.336 918.645 360.882C916.968 361.412 915.214 361.657 913.455 361.606C912.593 361.594 912.214 361.438 911.65 362.119C911.496 362.306 912.168 362.46 912.321 362.273C912.898 361.572 915.156 361.95 916.061 361.845C917.489 361.693 918.887 361.328 920.207 360.763C922.959 359.444 925.096 357.115 926.176 354.26C928.236 349.22 927.831 343.944 923.755 340.117C921.913 338.416 919.722 337.139 917.334 336.374C914.947 335.609 912.421 335.376 909.933 335.69C904.713 336.336 898.263 339.092 896.398 344.413C895.29 347.573 896.234 350.278 897.639 353.124C898.406 354.454 899.465 355.592 900.735 356.454C901.427 356.982 902.148 357.47 902.854 357.979C903.129 358.135 903.385 358.323 903.616 358.54C903.898 359.044 903.632 359.315 903.643 359.842C903.649 360.097 904.353 360.139 904.347 359.905L904.343 359.903Z" fill="white"/>
    <path opacity="0.6" d="M903.604 359.481C903.54 361.452 905.763 362.741 907.344 363.308C908.004 363.601 908.724 363.736 909.445 363.702C910.491 363.56 911.458 363.072 912.194 362.315C912.44 362.114 911.78 361.941 911.601 362.083C911.018 362.658 910.27 363.037 909.461 363.167C908.652 363.297 907.823 363.171 907.089 362.807C905.888 362.318 904.26 361.033 904.307 359.553C904.316 359.302 903.611 359.249 903.604 359.49V359.481Z" fill="white"/>
    <path opacity="0.6" d="M903.552 359.688C903.036 360.137 902.647 360.714 902.422 361.36C902.198 362.006 902.146 362.7 902.271 363.372C902.595 364.062 903.07 364.67 903.661 365.151C904.252 365.632 904.944 365.973 905.685 366.15C908.598 366.971 910.93 365.346 911.871 362.643C911.941 362.442 911.25 362.333 911.168 362.58C910.281 365.122 907.986 366.914 905.153 365.507C904.596 365.29 904.1 364.941 903.707 364.491C903.314 364.041 903.035 363.502 902.894 362.921C902.897 361.795 903.346 360.717 904.143 359.921C904.379 359.699 903.714 359.534 903.55 359.689L903.552 359.688Z" fill="white"/>
    <path opacity="0.6" d="M903.146 360.429C902.561 362.028 901.43 363.645 902.52 365.251C903.364 366.344 904.545 367.129 905.879 367.485C908.759 368.496 911.089 366.129 911.563 363.446C911.573 363.391 911.509 363.336 911.471 363.312L911.395 363.265C911.206 363.147 910.541 363.265 910.878 363.472C910.778 364.06 910.602 364.633 910.354 365.176C910.079 365.696 909.693 366.15 909.225 366.507C908.517 366.979 907.682 367.223 906.831 367.207C905.981 367.19 905.156 366.914 904.466 366.416C903.887 366.125 903.417 365.654 903.126 365.075C902.836 364.495 902.74 363.837 902.854 363.198C903.133 362.278 903.468 361.375 903.856 360.494C903.928 360.297 903.244 360.184 903.153 360.431L903.146 360.429Z" fill="white"/>
    <path opacity="0.6" d="M902.556 361.724C901.854 363.566 901.09 365.401 901.972 367.334C902.298 367.993 902.765 368.573 903.34 369.031C903.914 369.489 904.583 369.816 905.298 369.986C908.795 370.754 910.47 366.167 911.411 363.595C911.483 363.398 910.798 363.284 910.707 363.533C909.959 365.575 908.613 369.597 905.995 369.676C904.305 369.727 902.765 368.039 902.383 366.511C901.969 364.856 902.65 363.394 903.227 361.879C903.331 361.616 902.636 361.514 902.556 361.724V361.724Z" fill="white"/>
    <path opacity="0.6" d="M903.235 368.573L903.276 368.497L902.924 368.6L902.995 368.609L902.659 368.402C902.556 369.097 902.224 369.758 902.608 370.42C902.741 370.656 902.918 370.864 903.131 371.032C903.345 371.2 903.589 371.323 903.85 371.396C904.415 371.445 904.98 371.307 905.459 371.002C905.935 370.795 906.75 370.615 907.011 370.107C907.114 369.901 906.709 369.85 906.597 369.852C906.052 369.907 905.502 369.89 904.962 369.803C904.675 369.683 904.373 369.604 904.064 369.568C903.56 369.589 903.34 370.041 903.277 370.492C903.247 370.716 903.744 370.728 903.866 370.67C904.541 370.349 904.213 369.169 903.479 369.159C902.455 369.142 902.99 370.544 903.598 370.804C903.676 370.838 903.76 370.855 903.845 370.851C903.93 370.848 904.012 370.824 904.087 370.783C904.179 370.69 904.242 370.574 904.27 370.446C904.299 370.319 904.29 370.186 904.245 370.063C904.201 369.941 904.123 369.833 904.019 369.754C903.916 369.674 903.792 369.625 903.662 369.613C903.546 369.593 903.292 369.564 903.219 369.698C902.945 370.198 902.872 370.828 903.611 370.945C904.3 371.054 904.344 370.404 904.763 370.055L904.116 369.908C904.07 370.157 903.767 370.355 903.676 370.591C903.565 370.876 904.17 370.867 904.307 370.784L904.637 370.584L904.047 370.405C903.997 370.702 903.841 370.969 903.608 371.158L904.239 371.351C904.382 371.013 904.642 370.738 904.971 370.576L904.381 370.398C904.315 370.633 904.143 370.777 904.08 371.009C904.017 371.242 904.568 371.216 904.67 371.187C904.946 371.107 905.609 370.332 905.799 370.376L905.555 370.184C905.536 370.326 905.477 370.46 905.388 370.572C905.298 370.684 905.179 370.769 905.044 370.819L905.562 371.019C905.583 370.648 906.634 370.295 906.933 370.15C907.292 369.98 906.662 369.76 906.458 369.857C906.055 370.046 904.888 370.425 904.857 370.956C904.846 371.163 905.248 371.186 905.374 371.155C905.595 371.107 905.797 370.996 905.955 370.834C906.112 370.673 906.219 370.469 906.262 370.247C906.27 370.133 906.102 370.074 906.019 370.054C905.159 369.847 904.91 370.686 904.196 370.895L904.787 371.073C904.848 370.847 905.023 370.691 905.088 370.461C905.153 370.232 904.602 370.243 904.498 370.282C904.085 370.461 903.753 370.787 903.567 371.197C903.442 371.446 904.073 371.513 904.198 371.39C904.474 371.148 904.667 370.826 904.751 370.468C904.801 370.244 904.271 370.244 904.16 370.291C904.005 370.366 903.856 370.453 903.714 370.551L904.345 370.745C904.465 370.434 904.759 370.311 904.818 369.971C904.861 369.731 904.283 369.729 904.17 369.823C903.963 369.994 903.757 370.572 903.507 370.609L903.932 370.674C903.832 370.563 903.772 370.421 903.764 370.271C903.756 370.121 903.8 369.973 903.888 369.852L903.444 369.936C903.67 369.974 903.576 370.478 903.493 370.551L903.98 370.531C903.76 370.225 903.567 369.901 903.403 369.561C903.321 369.628 903.718 370.22 903.389 370.376L903.98 370.554C904.083 369.791 904.532 370.13 905.057 370.203C905.621 370.246 906.188 370.246 906.752 370.203L906.338 369.947C906.167 370.278 905.718 370.389 905.401 370.523C904.906 370.73 904.232 371.206 903.681 370.834C902.79 370.238 903.23 369.282 903.356 368.454C903.378 368.31 903.106 368.257 903.019 368.248L902.949 368.238C902.856 368.228 902.652 368.238 902.598 368.342L902.558 368.418C902.431 368.656 903.118 368.779 903.228 368.572L903.235 368.573Z" fill="white"/>
    <path opacity="0.6" d="M902.513 367.954C902.418 368.309 902.396 368.679 902.448 369.043C902.395 369.379 902.473 369.722 902.667 370.002C902.77 370.131 903.307 370.209 903.331 369.972C903.36 369.672 903.147 369.506 903.038 369.248C902.9 368.858 902.92 368.429 903.093 368.053C903.163 367.856 902.484 367.743 902.406 367.95C902.254 368.337 901.749 369.129 902.035 369.549C902.147 369.674 902.302 369.752 902.469 369.768C902.637 369.783 902.804 369.734 902.937 369.632C903.383 369.192 903.35 367.356 902.371 367.831C902.1 367.962 902.03 368.387 902.028 368.658C902.103 369.272 902.393 369.84 902.847 370.26C903.453 370.868 904.886 371.077 905.407 370.271C905.548 370.053 904.866 369.915 904.737 370.116C903.984 371.278 902.57 369.263 902.778 368.397C902.787 368.365 902.862 368.141 902.863 368.143L902.472 368.169L902.487 368.422C902.508 368.648 902.491 368.876 902.437 369.097C902.389 369.264 902.185 369.448 902.502 369.349C902.795 369.257 902.595 369.317 902.698 369.117C902.855 368.813 902.949 368.43 903.076 368.105L902.388 367.996C902.265 368.29 902.221 368.611 902.261 368.927C902.312 369.249 902.656 369.612 902.626 369.919L903.29 369.889C903.084 369.627 903.157 369.292 903.15 368.984C903.102 368.696 903.113 368.402 903.183 368.118C903.286 367.859 902.597 367.753 902.513 367.964V367.954Z" fill="white"/>
    <path opacity="0.6" d="M906.828 357.841C907.663 355.823 908.336 353.741 908.839 351.615C909.157 350.386 910.066 347.891 909.43 346.674C909.352 346.586 909.245 346.527 909.129 346.508C909.012 346.489 908.892 346.512 908.79 346.571C907.646 347.399 909.007 349.721 909.884 350.224C911.507 351.155 913.617 349.961 914.461 348.517C914.6 348.277 913.924 348.188 913.789 348.363C913.028 349.353 912.075 351.763 913.53 352.631C914.838 353.412 915.997 351.793 916.925 351.126C917.195 350.931 916.501 350.801 916.332 350.894C915.638 351.357 915.001 351.901 914.435 352.515C913.706 353.176 912.94 353.782 912.25 354.488C910.858 355.896 909.806 357.604 909.176 359.481C909.105 359.688 909.79 359.791 909.88 359.544L909.906 359.471C909.978 359.274 909.294 359.161 909.203 359.408L909.176 359.481L909.88 359.544C910.533 357.624 911.632 355.887 913.087 354.475C914.22 353.202 915.508 352.076 916.921 351.123L916.328 350.891C915.771 351.291 914.451 353.055 913.638 351.925C912.99 351.028 913.929 349.206 914.461 348.512L913.789 348.358C913.549 348.852 913.173 349.267 912.705 349.554C912.504 349.717 912.26 349.817 912.003 349.843C911.745 349.868 911.486 349.818 911.257 349.698C910.345 350.05 909.748 349.795 909.464 348.934C909.217 348.427 908.797 347.219 909.381 346.798L908.74 346.694C909.353 347.866 908.438 350.357 908.132 351.539C907.637 353.633 906.976 355.685 906.155 357.674C906.044 357.928 906.734 358.038 906.826 357.828L906.828 357.841Z" fill="white"/>
    <path opacity="0.6" d="M912.108 330.609C911.958 329.023 912.007 327.424 912.255 325.85C912.352 324.283 912.56 322.724 912.876 321.186C912.93 320.965 912.233 320.876 912.172 321.123C911.855 322.662 911.648 324.221 911.551 325.788C911.303 327.362 911.253 328.961 911.404 330.547C911.448 330.806 912.145 330.819 912.108 330.609Z" fill="white"/>
    <path opacity="0.6" d="M921.996 331.937C922.701 330.165 923.587 328.471 924.641 326.882C925.572 325.413 926.246 323.799 927.18 322.345C927.32 322.126 926.639 321.989 926.509 322.191C925.578 323.645 924.902 325.259 923.971 326.727C922.916 328.316 922.03 330.01 921.326 331.783C921.222 332.047 921.918 332.147 921.996 331.937V331.937Z" fill="white"/>
    <path opacity="0.6" d="M927.778 340.522C928.089 339.818 929.33 339.216 929.912 338.809C930.973 338.061 931.945 337.196 932.809 336.228C932.965 336.053 932.3 335.893 932.137 336.074C931.098 337.192 929.931 338.184 928.661 339.031C928.166 339.377 927.361 339.792 927.109 340.368C926.998 340.622 927.688 340.733 927.78 340.522H927.778Z" fill="white"/>
    </g>
    </g>
    <defs>
    <filter id="filter0_d" x="323.331" y="290.471" width="216.179" height="147.189" filterUnits="userSpaceOnUse" color-interpolation-filters="sRGB">
    <feFlood flood-opacity="0" result="BackgroundImageFix"/>
    <feColorMatrix in="SourceAlpha" type="matrix" values="0 0 0 0 0 0 0 0 0 0 0 0 0 0 0 0 0 0 127 0" result="hardAlpha"/>
    <feOffset dx="1.03443" dy="2.06886"/>
    <feGaussianBlur stdDeviation="2.06886"/>
    <feComposite in2="hardAlpha" operator="out"/>
    <feColorMatrix type="matrix" values="0 0 0 0 0 0 0 0 0 0 0 0 0 0 0 0 0 0 0.25 0"/>
    <feBlend mode="normal" in2="BackgroundImageFix" result="effect1_dropShadow"/>
    <feBlend mode="normal" in="SourceGraphic" in2="effect1_dropShadow" result="shape"/>
    </filter>
    <filter id="filter1_d" x="746.413" y="290.471" width="216.179" height="147.189" filterUnits="userSpaceOnUse" color-interpolation-filters="sRGB">
    <feFlood flood-opacity="0" result="BackgroundImageFix"/>
    <feColorMatrix in="SourceAlpha" type="matrix" values="0 0 0 0 0 0 0 0 0 0 0 0 0 0 0 0 0 0 127 0" result="hardAlpha"/>
    <feOffset dx="1.03443" dy="2.06886"/>
    <feGaussianBlur stdDeviation="2.06886"/>
    <feComposite in2="hardAlpha" operator="out"/>
    <feColorMatrix type="matrix" values="0 0 0 0 0 0 0 0 0 0 0 0 0 0 0 0 0 0 0.25 0"/>
    <feBlend mode="normal" in2="BackgroundImageFix" result="effect1_dropShadow"/>
    <feBlend mode="normal" in="SourceGraphic" in2="effect1_dropShadow" result="shape"/>
    </filter>
    </defs>
    </svg>
