<?xml version="1.0" encoding="UTF-8"?>
<svg viewBox="0 0 1400 600" version="1.1" xmlns="http://www.w3.org/2000/svg" xmlns:xlink="http://www.w3.org/1999/xlink">
    <title>Artboard</title>
    <defs>
        <filter color-interpolation-filters="auto" id="filter-1">
            <feColorMatrix in="SourceGraphic" type="matrix" values="0 0 0 0 1.000000 0 0 0 0 1.000000 0 0 0 0 1.000000 0 0 0 1.000000 0"></feColorMatrix>
        </filter>
    </defs>
    <g id="Artboard" stroke="none" stroke-width="1" fill="none" fill-rule="evenodd">
        <rect fill="#7D104A" x="0" y="0" width="1400" height="600"></rect>
        <g filter="url(#filter-1)" id="Group">
            <g transform="translate(551.000000, 259.000000)">
                <g id="claim" transform="translate(82.637622, 65.088243)" fill="#07475B" fill-rule="nonzero">
                    <path d="M5.10643679,14.0655967 C4.42090529,14.0696994 3.74184271,13.9334882 3.11139956,13.6654181 C2.50481519,13.406082 1.95198622,13.0366727 1.48112661,12.5760431 C1.01460313,12.1034042 0.645395959,11.5445299 0.394277976,10.9308646 C-0.131425992,9.62006937 -0.131425992,8.15835617 0.394277976,6.84756098 C0.643651455,6.23517134 1.01313163,5.67840315 1.48112661,5.20979312 C1.95157814,4.74677969 2.50439415,4.37486608 3.11139956,4.11300741 C4.38491925,3.57980689 5.82051016,3.57980689 7.09402984,4.11300741 C7.7030172,4.37125489 8.25647783,4.74360217 8.72430279,5.20979312 C9.19229778,5.67840315 9.56177795,6.23517134 9.81115143,6.84756098 C10.0759758,7.49703774 10.2100287,8.191987 10.2058916,8.89291812 L10.2058916,9.57470384 L2.06177177,9.57470384 C2.12859531,9.96493959 2.26203651,10.3409061 2.45631272,10.686311 C2.62990639,11.0035464 2.86229023,11.2851771 3.14117624,11.516311 C3.412989,11.7420311 3.72305198,11.9176967 4.05680899,12.035061 C4.39347529,12.1552604 4.74878292,12.2154665 5.10643679,12.2129181 C5.55224201,12.2242275 5.99634022,12.153893 6.41661048,12.0054181 C6.73536131,11.8952453 7.03440743,11.7351365 7.30246656,11.5311324 C7.55724866,11.3409565 7.77646552,11.1076744 7.95010924,10.841936 L10.1089182,10.841936 C9.86634733,11.4429448 9.51285999,11.993415 9.06673455,12.4648824 C8.85662354,12.6745268 8.63280969,12.8701027 8.39675937,13.0503288 C8.13258527,13.2595805 7.84233699,13.4339432 7.53323579,13.5690788 C7.1821222,13.7276069 6.8153801,13.8493049 6.43894299,13.9322038 C6.00089606,14.0243109 5.55413498,14.0690347 5.10643679,14.0655967 Z M8.08410428,7.91470384 C8.02872636,7.61490915 7.92834692,7.325117 7.78633753,7.05506098 C7.64588301,6.76895989 7.44532875,6.51623463 7.1982482,6.31398955 C6.34621279,5.61631351 5.19599534,5.39847505 4.14613902,5.73595384 C3.8295816,5.83912075 3.53265572,5.99443153 3.26772711,6.19541812 C2.99741236,6.39815858 2.76764283,6.64951784 2.59030775,6.93648955 C2.40202022,7.2395911 2.26849085,7.57316834 2.19576681,7.92211455 L8.08410428,7.91470384 Z" id="Shape"></path>
                    <polygon id="Path" points="14.2180993 8.89291812 11.2404318 3.91291812 13.6002333 3.91291812 15.8334839 7.91470384 16.3173549 7.91470384 18.5506055 3.91291812 20.9922929 3.91291812 18.0146254 8.89291812 21.0518462 13.8729181 18.7590422 13.8729181 16.3694641 9.75997169 15.8855931 9.75997169 13.5481241 13.8729181 11.1957668 13.8729181"></polygon>
                    <path d="M22.8607792,3.91291812 L24.922814,3.91291812 L24.922814,5.18015027 L25.0195882,5.18015027 C25.2560116,4.90121577 25.5260329,4.65231969 25.8235584,4.43907884 C26.1296156,4.23692471 26.4565422,4.06798503 26.7987445,3.93515027 C27.2333463,3.76981334 27.6958544,3.68930107 28.1610274,3.69800741 C28.7979781,3.69265248 29.4291265,3.81881954 30.0146254,4.06854312 C30.5751207,4.3159523 31.0810634,4.67103892 31.5034591,5.11345384 C31.9417342,5.5866957 32.2830933,6.14048466 32.5084219,6.74381098 C32.9947334,8.1229454 32.9947334,9.62583727 32.5084219,11.0049717 C32.2848427,11.6091445 31.9432846,12.1632563 31.5034591,12.6353288 C30.641033,13.5571943 29.426281,14.0716151 28.1610274,14.0507753 C27.697089,14.0603358 27.2353328,13.9849783 26.7987445,13.8284538 C26.455535,13.7009421 26.1282973,13.5343284 25.8235584,13.331936 C25.5231975,13.1221684 25.2527508,12.8728801 25.0195882,12.5908646 L24.922814,12.5908646 L24.922814,17.5708646 L22.8607792,17.5708646 L22.8607792,3.91291812 Z M27.7664864,12.2129181 C28.5689523,12.2498805 29.3481707,11.9390533 29.9029628,11.360686 C30.9841223,9.88880629 30.9841223,7.88961924 29.9029628,6.41773955 C29.3451878,5.84455572 28.5673117,5.53696218 27.7664864,5.57291812 C26.9936262,5.54731047 26.2473257,5.85529559 25.71934,6.41773955 C24.6567807,7.89561505 24.6567807,9.88281048 25.71934,11.360686 C26.2442472,11.9283376 26.9919196,12.2395955 27.7664864,12.2129181 L27.7664864,12.2129181 Z" id="Shape"></path>
                    <path d="M39.7069331,14.0655967 C39.0214016,14.0696994 38.342339,13.9334882 37.7118958,13.6654181 C37.1053115,13.406082 36.5524825,13.0366727 36.0816229,12.5760431 C35.6150994,12.1034042 35.2458922,11.5445299 34.9947743,10.9308646 C34.4690703,9.62006937 34.4690703,8.15835617 34.9947743,6.84756098 C35.2441477,6.23517134 35.6136279,5.67840315 36.0816229,5.20979312 C36.5520744,4.74677969 37.1048904,4.37486608 37.7118958,4.11300741 C38.9854155,3.57980689 40.4210064,3.57980689 41.6945261,4.11300741 C42.3024642,4.37317004 42.8555805,4.74528564 43.3247991,5.20979312 C43.7927941,5.67840315 44.1622742,6.23517134 44.4116477,6.84756098 C44.6764721,7.49703774 44.8105249,8.191987 44.8063879,8.89291812 L44.8063879,9.57470384 L36.6622681,9.57470384 C36.7290916,9.96493959 36.8625328,10.3409061 37.056809,10.686311 C37.2304027,11.0035464 37.4627865,11.2851771 37.7416725,11.516311 C38.0112465,11.7412728 38.3187289,11.9169042 38.6498611,12.035061 C38.9892665,12.1546361 39.3469053,12.2148105 39.7069331,12.2129181 C40.1527383,12.2242275 40.5968365,12.153893 41.0171068,12.0054181 C41.3358576,11.8952453 41.6349037,11.7351365 41.9029628,11.5311324 C42.1577449,11.3409565 42.3769618,11.1076744 42.5506055,10.841936 L44.7094145,10.841936 C44.4668436,11.4429448 44.1133563,11.993415 43.6672308,12.4648824 C43.4571198,12.6745268 43.233306,12.8701027 42.9972556,13.0503288 C42.7330816,13.2595805 42.4428333,13.4339432 42.1337321,13.5690788 C41.7826185,13.7276069 41.4158764,13.8493049 41.0394393,13.9322038 C40.6013923,14.0243109 40.1546313,14.0690347 39.7069331,14.0655967 L39.7069331,14.0655967 Z M42.6846006,7.91470384 C42.6292226,7.61490915 42.5288432,7.325117 42.3868338,7.05506098 C42.2463793,6.76895989 42.045825,6.51623463 41.7987445,6.31398955 C40.9467091,5.61631351 39.7964916,5.39847505 38.7466353,5.73595384 C38.4300779,5.83912075 38.133152,5.99443153 37.8682234,6.19541812 C37.5979086,6.39815858 37.3681391,6.64951784 37.190804,6.93648955 C37.0025165,7.2395911 36.8689871,7.57316834 36.7962631,7.92211455 L42.6846006,7.91470384 Z" id="Shape"></path>
                    <path d="M47.1064368,3.91291812 L49.1610274,3.91291812 L49.1610274,5.39506098 L49.2801341,5.39506098 C49.4472758,5.10324733 49.6609843,4.8404409 49.9128884,4.61693598 C50.1737711,4.39194309 50.4582992,4.1956562 50.7615236,4.03148955 C51.1498659,3.82369401 51.5863595,3.7214512 52.0270323,3.73506098 L53.2106551,3.73506098 L53.2106551,5.69148955 L51.9302581,5.69148955 C51.5584631,5.68846905 51.1895298,5.75638982 50.8434095,5.89157884 C50.5181896,6.01259685 50.221648,6.19931017 49.9724417,6.43997169 C49.714197,6.6833631 49.5155439,6.98253905 49.3917966,7.31443598 C49.2507521,7.67839335 49.1800335,8.06559732 49.1833599,8.45568598 L49.1833599,13.8951503 L47.1287693,13.8951503 L47.1064368,3.91291812 Z" id="Path"></path>
                    <path d="M56.1213251,2.44559669 C55.7979173,2.45103693 55.4861948,2.32530317 55.2578015,2.09729312 C55.0253685,1.86912993 54.8986374,1.55506811 54.9079256,1.23023955 C54.9021483,0.906044992 55.0283443,0.593309295 55.2578015,0.363185981 C55.4826612,0.128252484 55.7953742,-0.00324818743 56.1213251,6.09805785e-05 C56.8021104,0.00410721262 57.3529926,0.552513767 57.3570571,1.23023955 C57.3643181,1.55764377 57.2317537,1.87275247 56.9922929,2.09729312 C56.7611307,2.32571915 56.4469832,2.45134802 56.1213251,2.44559669 L56.1213251,2.44559669 Z M55.101474,3.92773955 L57.1635087,3.92773955 L57.1635087,13.8877396 L55.101474,13.8877396 L55.101474,3.92773955 Z" id="Shape"></path>
                    <path d="M64.5183475,14.0655967 C63.832816,14.0696994 63.1537534,13.9334882 62.5233102,13.6654181 C61.9167259,13.406082 61.3638969,13.0366727 60.8930373,12.5760431 C60.4265138,12.1034042 60.0573066,11.5445299 59.8061886,10.9308646 C59.2804847,9.62006937 59.2804847,8.15835617 59.8061886,6.84756098 C60.0555621,6.23517134 60.4250423,5.67840315 60.8930373,5.20979312 C61.3634888,4.74677969 61.9163048,4.37486608 62.5233102,4.11300741 C63.1537534,3.84493732 63.832816,3.70872618 64.5183475,3.71282884 C65.2015398,3.70804342 65.8783104,3.84430325 66.5059405,4.11300741 C67.1149279,4.37125489 67.6683885,4.74360217 68.1362135,5.20979312 C68.6042084,5.67840315 68.9736886,6.23517134 69.2230621,6.84756098 C69.4878865,7.49703774 69.6219393,8.191987 69.6178023,8.89291812 L69.6178023,9.57470384 L61.4736824,9.57470384 C61.5438782,9.96405937 61.6771263,10.339482 61.8682234,10.686311 C62.0418171,11.0035464 62.2742009,11.2851771 62.5530869,11.516311 C62.8248997,11.7420311 63.1349626,11.9176967 63.4687197,12.035061 C63.8057327,12.1539388 64.1608055,12.2141052 64.5183475,12.2129181 C64.9641527,12.2242275 65.4082509,12.153893 65.8285212,12.0054181 C66.147272,11.8952453 66.4463181,11.7351365 66.7143772,11.5311324 C66.9691593,11.3409565 67.1883762,11.1076744 67.3620199,10.841936 L69.5208288,10.841936 C69.278258,11.4429448 68.9247707,11.993415 68.4786452,12.4648824 C68.2694816,12.6727503 68.0482585,12.8682343 67.8161142,13.0503288 C67.5497353,13.2564041 67.2598966,13.4305208 66.9525906,13.5690788 C66.5988966,13.7275939 66.2296883,13.8492824 65.8508537,13.9322038 C65.4128067,14.0243109 64.9660457,14.0690347 64.5183475,14.0655967 Z M67.4587941,7.91470384 C67.4026233,7.61611647 67.3049085,7.32678359 67.1684715,7.05506098 C67.02349,6.77182167 66.8236183,6.51995653 66.5803822,6.31398955 C66.3154548,6.09039986 66.0164172,5.91028265 65.6945261,5.78041812 C65.3183921,5.6414321 64.9194991,5.57357318 64.5183475,5.58032884 C64.1821124,5.57949964 63.8478941,5.63203379 63.528273,5.73595384 C63.2095926,5.83951519 62.9102801,5.99475872 62.6424169,6.19541812 C62.3721022,6.39815858 62.1423327,6.64951784 61.9649976,6.93648955 C61.77671,7.2395911 61.6431807,7.57316834 61.5704566,7.92211455 L67.4587941,7.91470384 Z" id="Shape"></path>
                    <path d="M71.9178512,3.91291812 L73.9798859,3.91291812 L73.9798859,5.31354312 L74.0766601,5.31354312 C74.2803804,5.02593902 74.5321745,4.77527642 74.821077,4.57247169 C75.121832,4.35178752 75.4495137,4.17000688 75.7962631,4.03148955 C76.254301,3.85650682 76.7425697,3.77339565 77.2329877,3.78693598 C78.3033022,3.7249488 79.350789,4.11195969 80.1213251,4.85407884 C80.8704936,5.72122103 81.2450903,6.84795171 81.1635087,7.98881098 L81.1635087,13.9173824 L79.056809,13.9173824 L79.056809,8.15184669 C79.1152924,7.45609215 78.904964,6.76433262 78.4687197,6.21765027 C77.9878756,5.78572705 77.3502645,5.56878865 76.7044517,5.61738241 C76.3285232,5.6111529 75.9555455,5.68440287 75.6101589,5.83229312 C75.283619,5.97119014 74.9876873,6.17262726 74.7391911,6.42515027 C74.4866858,6.69036077 74.2893527,7.00266004 74.158546,7.34407884 C74.0195914,7.72897365 73.9515042,8.13566105 73.9575534,8.54461455 L73.9575534,13.9173824 L71.8955187,13.9173824 L71.9178512,3.91291812 Z" id="Path"></path>
                    <path d="M88.3694641,14.0655967 C87.6884903,14.0701155 87.0132299,13.9417128 86.381871,13.6876503 C85.7846143,13.4420401 85.2447892,13.0762051 84.7962631,12.6130967 C84.3420852,12.140824 83.9854651,11.5843781 83.7466353,10.9753288 C83.230337,9.63462731 83.230337,8.15120894 83.7466353,6.81050741 C83.9854651,6.20145813 84.3420852,5.64501229 84.7962631,5.17273955 C85.242796,4.70728417 85.7831518,4.34108946 86.381871,4.09818598 C87.0115686,3.83777948 87.6876237,3.70670503 88.3694641,3.71282884 C88.8233827,3.70808738 89.2760887,3.76037524 89.7168586,3.86845384 C90.0971104,3.96231481 90.4645483,4.10166207 90.8111514,4.28345384 C91.1137516,4.44120135 91.3940923,4.63805308 91.6448983,4.86890027 C91.8651187,5.07737621 92.0738599,5.2975485 92.2702085,5.52845384 C92.6938575,6.05928063 93.0007356,6.67280333 93.1709529,7.32925741 L91.0195882,7.32925741 C90.9120933,7.00282492 90.7371223,6.70241956 90.5059405,6.44738241 C89.9598984,5.85403586 89.1768315,5.53352494 88.3694641,5.57291812 C87.5979484,5.56521811 86.8613682,5.89261906 86.3520944,6.46961455 C86.0881635,6.78503506 85.8861446,7.14703504 85.7565609,7.53675741 C85.599176,7.97923057 85.5210667,8.44578025 85.5257916,8.91515027 C85.5224327,9.38441361 85.600503,9.85072984 85.7565609,10.2935431 C85.890911,10.6759721 86.0953628,11.0302703 86.3595385,11.3384538 C86.6082585,11.6104911 86.909555,11.8297768 87.2453946,11.983186 C87.593592,12.1410117 87.9719881,12.2219128 88.3545757,12.2203288 C88.8266724,12.2401018 89.2965793,12.1460343 89.7243028,11.9461324 C90.0373853,11.7926889 90.3218661,11.5871792 90.5654939,11.3384538 C90.8052621,11.0887418 90.9880824,10.7904662 91.101474,10.4639896 L93.2007296,10.4639896 C93.0337466,11.1261338 92.7266506,11.7451453 92.2999852,12.2796146 C92.1073112,12.5114508 91.8983494,12.7293795 91.674675,12.9317574 C91.421707,13.1578504 91.1416744,13.3519966 90.8409281,13.5097931 C90.4940107,13.6890929 90.1265767,13.8259503 89.7466353,13.9173824 C89.2958791,14.0254714 88.8330106,14.0752864 88.3694641,14.0655967 Z" id="Path"></path>
                    <path d="M99.9004815,14.0655967 C99.21495,14.0696994 98.5358874,13.9334882 97.9054442,13.6654181 C97.2988599,13.406082 96.7460309,13.0366727 96.2751713,12.5760431 C95.8086478,12.1034042 95.4394406,11.5445299 95.1883226,10.9308646 C94.6626187,9.62006937 94.6626187,8.15835617 95.1883226,6.84756098 C95.4376961,6.23517134 95.8071763,5.67840315 96.2751713,5.20979312 C96.7456228,4.74677969 97.2984388,4.37486608 97.9054442,4.11300741 C99.1789639,3.57980689 100.614555,3.57980689 101.888075,4.11300741 C102.497062,4.37125489 103.050522,4.74360217 103.518347,5.20979312 C103.986342,5.67840315 104.355823,6.23517134 104.605196,6.84756098 C104.87002,7.49703774 105.004073,8.191987 104.999936,8.89291812 L104.999936,9.57470384 L96.8483723,9.57470384 C96.918568,9.96405937 97.0518161,10.339482 97.2429132,10.686311 C97.4165069,11.0035464 97.6488907,11.2851771 97.9277767,11.516311 C98.1995895,11.7420311 98.5096525,11.9176967 98.8434095,12.035061 C99.1800758,12.1552604 99.5353834,12.2154665 99.8930373,12.2129181 C100.338843,12.2242275 100.782941,12.153893 101.203211,12.0054181 C101.521962,11.8952453 101.821008,11.7351365 102.089067,11.5311324 C102.343849,11.3409565 102.563066,11.1076744 102.73671,10.841936 L104.895519,10.841936 C104.652948,11.4429448 104.29946,11.993415 103.853335,12.4648824 C103.643224,12.6745268 103.41941,12.8701027 103.18336,13.0503288 C102.919186,13.2595805 102.628937,13.4339432 102.319836,13.5690788 C101.968723,13.7276069 101.601981,13.8493049 101.225543,13.9322038 C100.78993,14.0237812 100.345693,14.0685022 99.9004815,14.0655967 L99.9004815,14.0655967 Z M102.840928,7.91470384 C102.78555,7.61490915 102.685171,7.325117 102.543161,7.05506098 C102.402707,6.76895989 102.202153,6.51623463 101.955072,6.31398955 C101.103037,5.61631351 99.9528192,5.39847505 98.9029628,5.73595384 C98.5864054,5.83912075 98.2894795,5.99443153 98.0245509,6.19541812 C97.7542362,6.39815858 97.5244667,6.64951784 97.3471316,6.93648955 C97.158844,7.2395911 97.0253147,7.57316834 96.9525906,7.92211455 L102.840928,7.91470384 Z" id="Shape"></path>
                    <polygon id="Path" points="113.426536 0.200150266 115.488571 0.200150266 115.488571 7.81836455 116.977405 7.81836455 120.014625 3.91291812 122.374427 3.91291812 118.741673 8.50015027 122.664749 13.8729181 120.118844 13.8729181 117.074179 9.67104312 115.503459 9.67104312 115.503459 13.8729181 113.441424 13.8729181"></polygon>
                    <path d="M124.384352,3.91291812 L126.446387,3.91291812 L126.446387,5.31354312 L126.543161,5.31354312 C126.746882,5.02593902 126.998676,4.77527642 127.287578,4.57247169 C127.588333,4.35178752 127.916015,4.17000688 128.262764,4.03148955 C128.720802,3.85650682 129.209071,3.77339565 129.699489,3.78693598 C130.769803,3.7249488 131.81729,4.11195969 132.587826,4.85407884 C133.336995,5.72122103 133.711592,6.84795171 133.63001,7.98881098 L133.63001,13.9173824 L131.567975,13.9173824 L131.567975,8.15184669 C131.62954,7.45577159 131.418873,6.76289839 130.979886,6.21765027 C130.499042,5.78572705 129.861431,5.56878865 129.215618,5.61738241 C128.839689,5.6111529 128.466712,5.68440287 128.121325,5.83229312 C127.794785,5.97119014 127.498854,6.17262726 127.250357,6.42515027 C126.997852,6.69036077 126.800519,7.00266004 126.669712,7.34407884 C126.530758,7.72897365 126.46267,8.13566105 126.46872,8.54461455 L126.46872,13.9173824 L124.406685,13.9173824 L124.384352,3.91291812 Z" id="Path"></path>
                    <path d="M140.992293,14.0655967 C139.243373,14.0652337 137.611268,13.1914892 136.646679,11.7391796 C135.682091,10.2868699 135.513671,8.44969948 136.198248,6.84756098 C136.452939,6.23619349 136.824598,5.67995147 137.292541,5.20979312 C138.285064,4.24140955 139.625036,3.70782938 141.014625,3.72765027 C141.719631,3.7213017 142.418599,3.85744167 143.069216,4.12782884 C144.311417,4.64283736 145.298781,5.62576375 145.816114,6.86238241 C146.644945,8.81812022 146.210268,11.078222 144.714377,12.5908646 C144.242096,13.0567045 143.683343,13.4266936 143.069216,13.6802396 C142.410602,13.9485222 141.70377,14.0796696 140.992293,14.0655967 Z M140.992293,12.2129181 C141.413553,12.2166586 141.831266,12.1360118 142.220581,11.9757753 C142.583556,11.8253179 142.910724,11.6006121 143.180878,11.3162217 C143.457436,11.0130707 143.670071,10.6577522 143.806189,10.271311 C143.965888,9.82943586 144.044067,9.36246957 144.036958,8.89291812 C144.047455,8.43162231 143.974325,7.97222115 143.821077,7.53675741 C143.684959,7.15031615 143.472324,6.7949977 143.195767,6.49184669 C142.928006,6.20286936 142.600341,5.97529319 142.235469,5.82488241 C141.445462,5.51885253 140.5689,5.51885253 139.778893,5.82488241 C139.414022,5.97529319 139.086357,6.20286936 138.818596,6.49184669 C138.542038,6.7949977 138.329403,7.15031615 138.193285,7.53675741 C138.038582,7.9797195 137.962999,8.44623036 137.96996,8.91515027 C137.964209,9.38398181 138.039759,9.85028611 138.193285,10.2935431 C138.329403,10.6799844 138.542038,11.0353028 138.818596,11.3384538 C139.08875,11.6228442 139.415918,11.8475501 139.778893,11.9980074 C140.16535,12.1479501 140.577601,12.2209657 140.992293,12.2129181 L140.992293,12.2129181 Z" id="Shape"></path>
                    <polygon id="Path" points="147.491052 3.91291812 149.649861 3.91291812 151.317355 11.983186 151.615122 11.983186 153.282615 3.88327527 156.260283 3.88327527 157.890556 11.983186 158.188323 11.983186 159.855816 3.88327527 162.014625 3.88327527 159.855816 13.8432753 156.32728 13.8432753 154.838447 6.22506098 154.637454 6.22506098 153.14862 13.8432753 149.61264 13.8432753"></polygon>
                    <polygon id="Path" points="164.031995 0.200150266 166.09403 0.200150266 166.09403 11.983186 168.32728 11.983186 168.32728 13.8432753 164.009663 13.8432753"></polygon>
                    <path d="M174.580382,14.0657728 C173.894851,14.0696994 173.215788,13.9334882 172.585345,13.6654181 C171.980137,13.4075978 171.429482,13.0379532 170.962516,12.5760431 C170.491179,12.1057973 170.119113,11.5464266 169.868223,10.9308646 C169.352234,9.6182274 169.352234,8.16019814 169.868223,6.84756098 C170.117448,6.23330704 170.489786,5.6760489 170.962516,5.20979312 C171.42884,4.74522777 171.979537,4.37304011 172.585345,4.11300741 C173.215788,3.84493732 173.894851,3.70872618 174.580382,3.71282884 C175.263575,3.70804342 175.940345,3.84430325 176.567975,4.11300741 C177.176963,4.37125489 177.730423,4.74360217 178.198248,5.20979312 C178.668625,5.67646907 179.038445,6.23374946 179.285097,6.84756098 C179.554155,7.49578369 179.688373,8.19159084 179.679638,8.89291812 L179.679638,9.57470384 L171.535717,9.57470384 C171.605913,9.96405937 171.739161,10.339482 171.930258,10.686311 C172.105869,11.0021873 172.337967,11.2834709 172.615122,11.516311 C172.886934,11.7420311 173.196997,11.9176967 173.530754,12.035061 C173.867767,12.1539388 174.22284,12.2141052 174.580382,12.2129181 C175.026187,12.2242275 175.470286,12.153893 175.890556,12.0054181 C176.210048,11.8969315 176.509357,11.7366817 176.776412,11.5311324 C177.031194,11.3409565 177.250411,11.1076744 177.424055,10.841936 L179.553087,10.841936 C179.314085,11.4447668 178.960188,11.9958745 178.510903,12.4648824 C178.30174,12.6727503 178.080517,12.8682343 177.848372,13.0503288 C177.583107,13.2580129 177.293065,13.4322512 176.984849,13.5690788 C176.631594,13.7287133 176.262265,13.8504415 175.883112,13.9322038 C175.454859,14.0225963 175.018152,14.0673129 174.580382,14.0657728 L174.580382,14.0657728 Z M177.520829,7.91470384 C177.464658,7.61611647 177.366943,7.32678359 177.230506,7.05506098 C177.085525,6.77182167 176.885653,6.51995653 176.642417,6.31398955 C176.37749,6.09039986 176.078452,5.91028265 175.756561,5.78041812 C175.058845,5.52987518 174.297805,5.51425416 173.590308,5.73595384 C173.271627,5.83951519 172.972315,5.99475872 172.704452,6.19541812 C172.434137,6.39815858 172.204367,6.64951784 172.027032,6.93648955 C171.841861,7.24114403 171.708551,7.57417473 171.632491,7.92211455 L177.520829,7.91470384 Z" id="Shape"></path>
                    <path d="M186.156065,14.0655967 C185.518718,14.0751699 184.886695,13.948828 184.302467,13.695061 C183.737962,13.4547467 183.230663,13.0987079 182.813633,12.6501503 C182.371226,12.1800323 182.02933,11.6253713 181.80867,11.0197931 C181.322359,9.6406587 181.322359,8.13776683 181.80867,6.75863241 C182.031172,6.1539401 182.372854,5.59962723 182.813633,5.12827527 C183.676059,4.20640977 184.890811,3.69198897 186.156065,3.71282884 C186.61867,3.70597892 187.07839,3.78644558 187.510903,3.94997169 C187.854716,4.08444967 188.183943,4.25328957 188.493534,4.45390027 C188.791059,4.66714111 189.06108,4.9160372 189.297504,5.19497169 L189.394278,5.19497169 L189.394278,0.200150266 L191.463757,0.200150266 L191.463757,13.8729181 L189.401722,13.8729181 L189.401722,12.605686 L189.304948,12.605686 C189.071785,12.8877015 188.801339,13.1369898 188.500978,13.3467574 C188.19271,13.5476254 187.863185,13.7141324 187.518347,13.8432753 C187.081507,13.9988308 186.619931,14.0741589 186.156065,14.0655967 L186.156065,14.0655967 Z M186.550606,12.2129181 C187.325172,12.2395955 188.072845,11.9283376 188.597752,11.360686 C189.660311,9.88281048 189.660311,7.89561505 188.597752,6.41773955 C188.069766,5.85529559 187.323466,5.54731047 186.550606,5.57291812 C185.747553,5.53673591 184.967299,5.84419875 184.406685,6.41773955 C183.334916,7.89265921 183.334916,9.88576632 184.406685,11.360686 C184.964334,11.9393984 185.745921,12.2500879 186.550606,12.2129181 Z" id="Shape"></path>
                    <path d="M195.252839,15.7255967 L201.729266,15.7255967 L201.729266,12.605686 L201.632491,12.605686 C201.399329,12.8877015 201.128882,13.1369898 200.828521,13.3467574 C200.521964,13.5505516 200.192092,13.7172339 199.845891,13.8432753 C199.411733,13.9992303 198.952521,14.0745843 198.491052,14.0655967 C197.853894,14.0731375 197.222296,13.9468805 196.637454,13.695061 C196.074341,13.4522724 195.567524,13.0965723 195.14862,12.6501503 C194.708553,12.1796185 194.369174,11.6249324 194.151102,11.0197931 C193.66479,9.6406587 193.66479,8.13776683 194.151102,6.75863241 C194.371023,6.15437471 194.710189,5.60003856 195.14862,5.12827527 C196.011047,4.20640977 197.225799,3.69198897 198.491052,3.71282884 C198.953758,3.70470562 199.413719,3.7852143 199.845891,3.94997169 C200.191128,4.08129704 200.520682,4.25030469 200.828521,4.45390027 C201.128653,4.66394953 201.399064,4.91320474 201.632491,5.19497169 L201.729266,5.19497169 L201.729266,3.90550741 L203.7913,3.90550741 L203.7913,17.5782753 L195.252839,17.5782753 L195.252839,15.7255967 Z M198.885593,12.2129181 C199.660344,12.2405987 200.408421,11.9291725 200.93274,11.360686 C201.995299,9.88281048 201.995299,7.89561505 200.93274,6.41773955 C200.405899,5.85365251 199.658812,5.54534242 198.885593,5.57291812 C198.08493,5.53792332 197.307436,5.84536595 196.749117,6.41773955 C195.677347,7.89265921 195.677347,9.88576632 196.749117,11.360686 C197.30967,11.9442423 198.097978,12.2554424 198.907926,12.2129181 L198.885593,12.2129181 Z" id="Shape"></path>
                    <path d="M211.190804,14.0655967 C210.505273,14.0696994 209.82621,13.9334882 209.195767,13.6654181 C208.590559,13.4075978 208.039904,13.0379532 207.572938,12.5760431 C207.104043,12.1038174 206.732319,11.5449611 206.478645,10.9308646 C205.962655,9.6182274 205.962655,8.16019814 206.478645,6.84756098 C206.730581,6.23473494 207.102579,5.67798647 207.572938,5.20979312 C208.039262,4.74522777 208.589959,4.37304011 209.195767,4.11300741 C210.471787,3.57940501 211.909821,3.57940501 213.185841,4.11300741 C213.791649,4.37304011 214.342346,4.74522777 214.80867,5.20979312 C215.279029,5.67798647 215.651027,6.23473494 215.902963,6.84756098 C216.165427,7.49749491 216.296954,8.19246354 216.29006,8.89291812 L216.29006,9.57470384 L208.153583,9.57470384 C208.221317,9.9636574 208.352051,10.3390795 208.54068,10.686311 C208.716291,11.0021873 208.948388,11.2834709 209.225543,11.516311 C209.497356,11.7420311 209.807419,11.9176967 210.141176,12.035061 C210.478189,12.1539388 210.833262,12.2141052 211.190804,12.2129181 C211.639044,12.2242971 212.085596,12.1539737 212.508422,12.0054181 C212.824928,11.895347 213.121538,11.7351969 213.386834,11.5311324 C213.641616,11.3409565 213.860833,11.1076744 214.034476,10.841936 L216.193285,10.841936 C215.954283,11.4447668 215.600386,11.9958745 215.151102,12.4648824 C214.941938,12.6727503 214.720715,12.8682343 214.488571,13.0503288 C214.223305,13.2580129 213.933264,13.4322512 213.625047,13.5690788 C213.271792,13.7287133 212.902464,13.8504415 212.52331,13.9322038 C212.085326,14.024715 211.638521,14.0694432 211.190804,14.0655967 L211.190804,14.0655967 Z M214.131251,7.91470384 C214.07508,7.61611647 213.977365,7.32678359 213.840928,7.05506098 C213.698386,6.77027324 213.498153,6.51795276 213.252839,6.31398955 C212.987911,6.09039986 212.688874,5.91028265 212.366983,5.78041812 C211.669266,5.52987518 210.908227,5.51425416 210.20073,5.73595384 C209.882049,5.83951519 209.582737,5.99475872 209.314874,6.19541812 C209.044559,6.39815858 208.814789,6.64951784 208.637454,6.93648955 C208.451499,7.23995927 208.320479,7.57356007 208.250357,7.92211455 L214.131251,7.91470384 Z" id="Shape"></path>
                </g>
                <path d="M154.689469,17.845 C153.414581,16.4928676 151.838882,15.4572755 150.088972,14.8214286 C148.180327,14.133831 146.163304,13.792478 144.133637,13.8135714 C142.243533,13.7626458 140.361085,14.0720426 138.587732,14.7250893 C137.260584,15.2314237 136.008494,15.9144857 134.865647,16.755625 C133.769126,17.6396974 132.810755,18.6811759 132.021975,19.8458929 L131.873091,19.8458929 L131.873091,14.5472321 L124.190709,14.5472321 L124.190709,50.8597321 L131.850759,50.8597321 L131.850759,31.5325893 C131.823047,29.9958027 132.075259,28.4667323 132.595176,27.0194643 C133.073897,25.7414874 133.805473,24.5721935 134.746541,23.5808929 C135.669284,22.6291002 136.775823,21.8728761 137.999642,21.3576786 C139.27911,20.8241001 140.654714,20.5567729 142.041826,20.5721429 C144.444658,20.4515464 146.796741,21.2889438 148.577806,22.8991071 C150.200635,24.4504167 151.014531,26.8490179 151.019493,30.0949107 L151.019493,50.8449107 L158.716764,50.8449107 L158.716764,29.2575 C158.756557,27.0239061 158.398673,24.8009472 157.659692,22.6916071 C157.004323,20.8933151 155.991604,19.244961 154.682024,17.845" id="Path" fill="#07475B" fill-rule="nonzero"></path>
                <path d="M194.962421,37.6760714 C194.418037,39.0745636 193.615083,40.3590464 192.595176,41.4629464 C191.605675,42.5237344 190.396712,43.3581141 189.051752,43.9084821 C187.63602,44.4899611 186.116623,44.7798701 184.58525,44.7607143 C183.092845,44.7753577 181.613264,44.4853111 180.237856,43.9084821 C178.909479,43.3515254 177.716435,42.5176204 176.739096,41.4629464 C175.718325,40.3652382 174.924129,39.0785815 174.401627,37.6760714 C173.289959,34.4559116 173.289959,30.9584634 174.401627,27.7383036 C174.925862,26.334422 175.719806,25.0456553 176.739096,23.9440179 C178.758643,21.7681015 181.609538,20.5456255 184.58525,20.5795536 C186.119326,20.5628439 187.640203,20.863129 189.051752,21.4614286 C190.384901,22.0332032 191.589681,22.8646964 192.595176,23.9069643 C193.624879,25.009049 194.42895,26.300353 194.962421,27.7086607 C195.564492,29.3047883 195.862385,30.998665 195.840833,32.7034821 C195.865057,34.4012791 195.567033,36.0883625 194.962421,37.6760714 M211.012049,7.57375 L211.012049,0 L195.840833,0 L195.840833,20.0682143 L195.624953,20.0682143 C194.839538,18.8676799 193.864153,17.8015795 192.736615,16.91125 C191.530106,16.053658 190.21945,15.3514751 188.835871,14.8214286 C187.020515,14.1256866 185.085796,13.7908354 183.141082,13.8358036 C180.83678,13.8205711 178.554725,14.2850278 176.44133,15.199375 C174.351782,16.1039432 172.465893,17.4168723 170.895424,19.0603571 C169.254595,20.7817656 167.976397,22.8126526 167.136119,25.0333929 C166.217779,27.452809 165.758389,30.0208635 165.78128,32.6071429 C165.748879,35.2441843 166.205661,37.8645318 167.128675,40.3365179 C167.96342,42.5468081 169.24264,44.5641871 170.88798,46.2650893 C172.470185,47.896826 174.353063,49.2101752 176.433886,50.1334821 C178.543018,51.0643823 180.82654,51.5392409 183.133637,51.5266964 C186.570435,51.6007188 189.938235,50.5603263 192.729171,48.5624107 C193.856708,47.6720812 194.832094,46.6059809 195.617508,45.4054464 L195.833389,45.4054464 L195.833389,50.7782143 L211.004605,50.7782143 L211.004605,43.2192857 L203.426441,43.2192857 L203.426441,7.57375 L211.012049,7.57375 Z" id="Shape" fill="#07475B" fill-rule="nonzero"></path>
                <path d="M52.845796,23.9440179 C53.856199,22.9056167 55.059637,22.072533 56.3892203,21.4910714 C59.402895,20.2570567 62.7950405,20.3187475 65.7614287,21.6615179 C66.9259799,22.2508381 67.9868823,23.024169 68.9028679,23.9514286 C69.4759089,24.5878762 69.9753181,25.2863929 70.3917017,26.0338393 L75.6919498,20.75 C75.6398406,20.6758929 75.5951756,20.594375 75.5356223,20.5202679 C74.8110939,19.6478123 74.0196352,18.8326559 73.1683766,18.0821429 C72.2026181,17.2426577 71.1376973,16.5234582 69.9971607,15.9404464 C68.6938976,15.2979987 67.3232918,14.8009327 65.9103121,14.4583036 C64.2055172,14.0427806 62.454336,13.8460355 60.699394,13.8728571 C58.1479688,13.8608581 55.6189148,14.346772 53.2552253,15.303125 C50.9911959,16.2106991 48.933182,17.5614225 47.2031161,19.2752679 C45.4790515,20.9943517 44.1151894,23.0372484 43.1907091,25.2853571 C41.2456331,30.0796982 41.2456331,35.4384268 43.1907091,40.2327679 C44.1171122,42.479861 45.4807366,44.5224017 47.2031161,46.2428571 C48.933182,47.9567025 50.9911959,49.3074259 53.2552253,50.215 C55.6189148,51.171353 58.1479688,51.6572669 60.699394,51.6452679 C62.4688041,51.6666328 64.2340728,51.4699905 65.9549771,51.0598214 C67.4103057,50.7124484 68.8176978,50.1898479 70.1460441,49.5035714 C71.3069104,48.8988555 72.3872536,48.1519888 73.361925,47.2803571 C74.1996843,46.5136 74.9487492,45.6560465 75.5951756,44.7236607 L70.3842575,39.5361607 C70.0157843,40.1819217 69.5844292,40.790055 69.0964163,41.3517857 C68.1502437,42.3175184 67.0544021,43.1256976 65.8507588,43.7454464 C64.2552572,44.5329436 62.4861764,44.907598 60.7068382,44.8348214 C59.2381798,44.8462221 57.7839779,44.5455723 56.4413295,43.9529464 C55.1155332,43.3680572 53.9131573,42.5382234 52.8979052,41.5074107 C51.8501786,40.419115 51.0213726,39.1412451 50.4562178,37.7427679 C49.8238554,36.1643655 49.5126261,34.4766701 49.5405851,32.7775893 C49.5228442,31.094782 49.8207485,29.4234594 50.418997,27.8494643 C50.9639085,26.4294994 51.7804978,25.1283248 52.8234635,24.018125" id="Path" fill="#07475B" fill-rule="nonzero"></path>
                <path d="M88.5629176,29.1389286 C89.6795429,24.2404464 93.5505106,20.5795536 98.8060937,20.5795536 C104.061677,20.5795536 107.411553,24.2404464 108.528178,29.1389286 L88.5629176,29.1389286 Z M98.9847538,13.8209821 C88.0492699,13.8209821 80.3296669,22.0839286 80.3296669,32.3477679 C80.3296669,32.47375 80.3296669,32.5923214 80.3296669,32.7108929 C80.3296669,33.3111607 80.3296669,33.8966071 80.4041086,34.4820536 C80.4041086,34.5413393 80.4041086,34.6080357 80.4041086,34.6747321 C80.4413295,35.1045536 80.5008828,35.534375 80.5678803,35.9567857 C80.5678803,36.0605357 80.6051012,36.1642857 80.6199895,36.260625 C80.7697951,37.093024 80.9736974,37.9148695 81.2304114,38.7209821 C81.2676322,38.8173214 81.2974089,38.9136607 81.3271856,39.0174107 C81.4686248,39.4101786 81.610064,39.8029464 81.7738357,40.1883036 C83.6303423,44.7365607 87.2627152,48.3392366 91.8383518,50.1705357 C94.2020414,51.1268887 96.7310953,51.6128026 99.2825205,51.6008036 C101.051931,51.6221685 102.8172,51.4255262 104.538104,51.0153571 C105.993432,50.6679841 107.400825,50.1453836 108.729171,49.4591071 C109.891601,48.8569654 110.972257,48.1098826 111.945052,47.2358929 C112.780504,46.466905 113.529337,45.6096177 114.178302,44.6791964 L108.967384,39.4916964 C108.599692,40.1356435 108.168268,40.7413923 107.679543,41.2999107 C106.731525,42.2635374 105.636043,43.071452 104.433886,43.6935714 C102.837124,44.4774587 101.068978,44.8519151 99.2899647,44.7829464 C97.8213064,44.7943471 96.3671045,44.4936973 95.024456,43.9010714 C93.6986597,43.3161822 92.4962838,42.4863484 91.4810317,41.4555357 C90.4349613,40.3687572 89.6063108,39.093642 89.0393444,37.6983036 C88.9127935,37.3944643 88.8085751,37.0832143 88.7118009,36.7645536 C88.6671359,36.62375 88.6224709,36.4755357 88.5852501,36.3273214 L88.49592,35.9641964 C88.40659,35.5491964 88.3247042,35.1267857 88.2651508,34.6895536 L116.776317,34.6895536 L116.776317,32.5404464 C116.776317,21.3428571 109.332149,13.8432143 98.9847538,13.8432143" id="Shape" fill="#07475B" fill-rule="nonzero"></path>
                <path d="M25.1237116,33.0517857 C25.1237116,40.3513393 19.4810317,44.7384821 14.3222228,44.7384821 C10.935126,44.7384821 8.26266945,42.8932143 8.26266945,39.5509821 C8.26266945,34.8229464 15.5877315,32.006875 25.1237116,32.006875 L25.1237116,33.0517857 Z M32.7837612,43.3082143 L32.7837612,14.525 L2.42644116,14.525 L2.42644116,22.0839286 L25.1237116,22.0839286 L25.1237116,25.9375 C7.25770667,25.9375 0.282520557,31.0583036 0.00708631436,39.7733036 C-0.231127086,47.1099107 5.56788036,51.5933929 12.6621731,51.5933929 C17.2328928,51.5933929 22.183265,49.8 24.9227191,45.5017857 L25.1609325,45.5017857 L25.1609325,50.8819643 L38.4711061,50.8819643 L38.4711061,43.3230357 L32.7837612,43.3082143 Z" id="Shape" fill="#07475B" fill-rule="nonzero"></path>
            </g>
        </g>
    </g>
</svg>