<svg width="1531" height="656" viewBox="0 0 1531 656" fill="none" xmlns="http://www.w3.org/2000/svg" id="acendtechlab_image">
    <path d="M515.119 375.359C511.69 361.971 459.397 248.218 487.687 209.959C515.977 171.7 601.34 120.002 650.813 97.2529C700.286 74.5039 832.754 37.2779 873.247 90.0129C913.74 142.748 973.679 218.844 998.147 245.425C1022.61 272.006 1113.48 303.956 1097.19 341.235C1080.91 378.514 950.605 507.675 923.173 521.166C895.741 534.657 812.819 616.347 715.834 589.466C618.849 562.585 515.119 375.359 515.119 375.359Z" fill="#A7E4F2"/>
    <g class="clouds">
        <g opacity="0.8">
        <path opacity="0.8" d="M352.204 178.284C359.563 170.907 368.88 165.788 379.053 163.534C389.227 161.279 399.833 161.982 409.62 165.559C413.29 159.334 418.525 154.177 424.804 150.6C431.084 147.024 438.19 145.153 445.417 145.172C452.643 145.191 459.739 147.101 465.999 150.711C472.259 154.321 477.466 159.506 481.103 165.751C484.035 153.624 491.362 143.016 501.664 135.978C511.967 128.941 524.514 125.976 536.877 127.656C549.24 129.335 560.54 135.541 568.592 145.072C576.643 154.603 580.874 166.781 580.464 179.251H351.29C351.595 178.927 351.89 178.599 352.204 178.284Z" fill="#CAEFF7"/>
        </g>
        <path opacity="0.8" d="M1116.78 159.432C1110.66 153.159 1102.51 149.256 1093.79 148.417C1085.06 147.577 1076.32 149.854 1069.12 154.845C1071.11 143.556 1068.59 131.937 1062.12 122.48C1055.64 113.023 1045.71 106.48 1034.47 104.255C1023.22 102.03 1011.55 104.299 1001.96 110.577C992.372 116.854 985.622 126.64 983.162 137.836C976.053 132.738 967.762 129.537 959.071 128.535C950.381 127.532 941.579 128.762 933.496 132.107C927.791 112.375 914.798 95.5502 897.149 85.0419C879.501 74.5335 858.518 71.1278 838.452 75.5148C818.386 79.9019 800.738 91.7536 789.085 108.668C777.432 125.583 772.646 146.295 775.696 166.607H1122.25C1120.73 164.002 1118.89 161.592 1116.78 159.432V159.432Z" fill="#CAEFF7"/>
    </g>
    <path d="M1090.87 373.978C1084.07 374.989 1077.27 376.033 1070.46 377.112C1052.89 379.86 992.186 358.77 972.86 348.774C895.495 317.825 822.411 277.098 755.39 227.586C738.011 243.453 720.634 260.709 703.258 279.356C673.912 258.639 644.569 235.979 615.224 212.338C615.224 212.106 588.042 238.895 559.646 267.073C531.252 294.778 501.646 323.873 496.79 317.31C471.266 268.791 445.741 219.529 420.218 172.845C359.872 265.163 299.527 361.82 239.18 417.718C239.18 416.954 301.446 446.852 386.691 470.818C471.935 496.218 580.159 504.396 672.075 487.507C718.033 480.64 781.086 463.017 849.813 447.778C918.54 432.185 992.941 418.978 1061.6 412.793C1130.25 406.259 1193.17 406.752 1238.91 410.443C1284.66 413.78 1313.24 420.313 1313.24 417.719C1251.13 393.713 1189.03 382.048 1126.92 373.701C1114.95 372.121 1102.82 372.214 1090.87 373.978V373.978Z" fill="#81B4C4"/>
    <path d="M1139.03 388.842L1153.67 356.342L1168.31 388.842H1139.03Z" fill="#A7CED1"/>
    <path d="M1128.59 395.721L1140.35 370.736L1152.11 395.721H1128.59Z" fill="#C0E1E3"/>
    <path d="M346.32 285.498L358.083 260.514L369.847 285.498H346.32Z" fill="#C0E1E3"/>
    <path d="M491.385 325.568L482.467 348.852H500.302L491.385 325.568Z" fill="#A7CED1"/>
    <path d="M467.689 310.144L454.459 344.689H480.919L467.689 310.144Z" fill="#A7CED1"/>
    <path d="M349.764 265.83L336.534 300.374H362.995L349.764 265.83Z" fill="#A7CED1"/>
    <path d="M480.064 331.58L471.147 354.863H488.981L480.064 331.58Z" fill="#C0E1E3"/>
    <path d="M1090.97 375.802C1100.79 375.802 1108.75 367.84 1108.75 358.019C1108.75 348.198 1100.79 340.236 1090.97 340.236C1081.15 340.236 1073.18 348.198 1073.18 358.019C1073.18 367.84 1081.15 375.802 1090.97 375.802Z" fill="#B8C445"/>
    <path d="M1090.8 359.26L1082.26 351.305" stroke="#002F47" stroke-width="1.173" stroke-miterlimit="10" stroke-linecap="round"/>
    <path d="M1101.32 354.175L1090.97 366.734" stroke="#002F47" stroke-width="1.173" stroke-miterlimit="10" stroke-linecap="round"/>
    <path d="M1090.97 400.864V350.863" stroke="#002F47" stroke-width="1.173" stroke-miterlimit="10" stroke-linecap="round"/>
    <path d="M1111.26 381.132C1118.99 381.132 1125.26 374.863 1125.26 367.131C1125.26 359.398 1118.99 353.13 1111.26 353.13C1103.52 353.13 1097.26 359.398 1097.26 367.131C1097.26 374.863 1103.52 381.132 1111.26 381.132Z" fill="#C2D64C"/>
    <path d="M1111.39 368.109L1118.11 361.845" stroke="#002F47" stroke-width="1.173" stroke-miterlimit="10" stroke-linecap="round"/>
    <path d="M1103.11 364.105L1111.26 371.095" stroke="#002F47" stroke-width="1.173" stroke-miterlimit="10" stroke-linecap="round"/>
    <path d="M1111.26 400.864V361.498" stroke="#002F47" stroke-width="1.173" stroke-miterlimit="10" stroke-linecap="round"/>
    <g class="flower">
        <path d="M256.423 430.626C256.423 430.626 254.851 411.314 234.19 392.305" stroke="#C2D64C" stroke-width="1.528" stroke-miterlimit="10"/>
        <path d="M238.684 396.749C238.684 396.749 240.349 386.212 229.272 383.481C229.272 383.481 228.093 395.022 238.684 396.749Z" fill="#C2D64C"/>
        <path d="M243.647 402.323C243.647 402.323 236.133 394.749 227.381 402.066C227.381 402.066 235.991 409.842 243.647 402.323Z" fill="#C2D64C"/>
        <path d="M243.647 402.323C243.647 402.323 252.387 396.206 246.663 386.338C246.662 386.338 237.538 393.501 243.647 402.323Z" fill="#C2D64C"/>
        <path d="M249.626 411.771C249.626 411.771 243.026 403.388 233.497 409.656C233.497 409.656 241.162 418.366 249.626 411.771Z" fill="#C2D64C"/>
        <path d="M249.626 411.771C249.626 411.771 259.008 406.694 254.451 396.236C254.451 396.236 244.562 402.313 249.626 411.771Z" fill="#C2D64C"/>
        <path d="M254.883 422.8C254.883 422.8 249.583 413.542 239.236 418.35C239.236 418.35 245.543 428.086 254.883 422.8Z" fill="#C2D64C"/>
        <path d="M254.883 422.8C254.883 422.8 264.906 419.149 261.927 408.137C261.927 408.137 251.262 412.699 254.883 422.8Z" fill="#C2D64C"/>
    </g>
    <path opacity="0.5" d="M298.713 447.432C298.713 450.154 280.421 452.36 257.857 452.36C235.293 452.36 217 450.154 217 447.432C217 444.71 235.292 442.504 257.857 442.504C280.422 442.504 298.713 444.71 298.713 447.432Z" fill="#002F47"/>
    <path d="M253.489 450.952L266.509 407.499C232.312 424.023 253.489 450.952 253.489 450.952Z" fill="#155263"/>
    <path d="M266.509 407.499L253.489 450.952C285.884 434.032 266.509 407.499 266.509 407.499Z" fill="#1F7A89"/>
    <path d="M286.896 420.932L256.885 454.948C294.862 454.252 286.896 420.932 286.896 420.932Z" fill="#1F7A89"/>
    <path d="M256.885 454.948L286.896 420.932C250.394 422.742 256.885 454.948 256.885 454.948Z" fill="#2996A8"/>
    <path d="M249.213 449.745L228.348 409.467C215.268 445.124 249.213 449.745 249.213 449.745Z" fill="#1F7A89"/>
    <path d="M228.348 409.467L249.213 449.745C260.723 415.057 228.348 409.467 228.348 409.467Z" fill="#2996A8"/>
    <path opacity="0.5" d="M932.935 592.579C932.935 597.133 902.328 600.825 864.572 600.825C826.816 600.825 796.21 597.133 796.21 592.579C796.21 588.025 826.817 584.334 864.572 584.334C902.327 584.334 932.935 588.025 932.935 592.579Z" fill="#01141C"/>
    <path d="M862.262 598.889L852.908 523.566C904.716 560.373 862.262 598.889 862.262 598.889Z" fill="#155263"/>
    <path d="M852.908 523.566L862.262 598.889C813.539 561.934 852.908 523.566 852.908 523.566Z" fill="#1F7A89"/>
    <path d="M815.525 540.039L855.544 604.539C793.089 592.788 815.525 540.039 815.525 540.039Z" fill="#1F7A89"/>
    <path d="M855.544 604.534L815.525 540.039C875.242 553.213 855.544 604.534 855.544 604.534Z" fill="#2996A8"/>
    <path d="M869.653 598.092L915.318 537.464C926.945 599.942 869.653 598.092 869.653 598.092Z" fill="#1F7A89"/>
    <path d="M915.318 537.464L869.653 598.092C860.346 537.652 915.318 537.464 915.318 537.464Z" fill="#2996A8"/>
    <path d="M742.78 223.821C742.095 223.825 741.416 223.689 740.785 223.42C740.179 223.161 739.626 222.792 739.155 222.331C738.688 221.858 738.319 221.3 738.068 220.686C737.542 219.375 737.542 217.913 738.068 216.603C738.317 215.99 738.687 215.433 739.155 214.965C739.625 214.502 740.178 214.13 740.785 213.868C742.059 213.335 743.494 213.335 744.768 213.868C745.377 214.126 745.93 214.499 746.398 214.965C746.866 215.433 747.236 215.99 747.485 216.603C747.75 217.252 747.884 217.947 747.88 218.648V219.33H739.736C739.802 219.72 739.936 220.096 740.13 220.441C740.304 220.759 740.536 221.04 740.815 221.271C741.087 221.497 741.397 221.673 741.731 221.79C742.067 221.91 742.423 221.97 742.78 221.968C743.226 221.979 743.67 221.909 744.09 221.76C744.409 221.65 744.708 221.49 744.976 221.286C745.231 221.096 745.45 220.863 745.624 220.597H747.783C747.54 221.198 747.187 221.748 746.741 222.22C746.53 222.43 746.307 222.625 746.071 222.805C745.806 223.015 745.516 223.189 745.207 223.324C744.856 223.483 744.489 223.604 744.113 223.687C743.675 223.779 743.228 223.824 742.78 223.821ZM745.758 217.67C745.703 217.37 745.602 217.08 745.46 216.81C745.32 216.524 745.119 216.271 744.872 216.069C744.02 215.371 742.87 215.154 741.82 215.491C741.503 215.594 741.206 215.749 740.942 215.95C740.671 216.153 740.441 216.405 740.264 216.692C740.076 216.995 739.942 217.328 739.87 217.677L745.758 217.67Z" fill="#800D4B"/>
    <path d="M751.892 218.648L748.914 213.668H751.274L753.507 217.67H753.991L756.224 213.668H758.666L755.688 218.648L758.726 223.628H756.433L754.043 219.515H753.559L751.222 223.628H748.87L751.892 218.648Z" fill="#800D4B"/>
    <path d="M760.535 213.668H762.597V214.935H762.693C762.93 214.656 763.2 214.407 763.497 214.194C763.804 213.992 764.13 213.823 764.473 213.69C764.907 213.525 765.37 213.444 765.835 213.453C766.472 213.448 767.103 213.574 767.689 213.824C768.249 214.071 768.755 214.426 769.177 214.868C769.616 215.342 769.957 215.896 770.182 216.499C770.669 217.878 770.669 219.381 770.182 220.76C769.959 221.364 769.617 221.918 769.177 222.39C768.315 223.312 767.1 223.827 765.835 223.806C765.371 223.815 764.909 223.74 764.473 223.583C764.129 223.456 763.802 223.289 763.497 223.087C763.197 222.877 762.927 222.628 762.693 222.346H762.597V227.326H760.535V213.668ZM765.44 221.968C766.243 222.005 767.022 221.694 767.577 221.116C768.658 219.644 768.658 217.645 767.577 216.173C767.019 215.6 766.241 215.292 765.44 215.328C764.668 215.302 763.921 215.61 763.393 216.173C762.331 217.651 762.331 219.638 763.393 221.116C763.918 221.683 764.666 221.995 765.44 221.968Z" fill="#800D4B"/>
    <path d="M777.381 223.821C776.695 223.825 776.016 223.689 775.386 223.42C774.779 223.161 774.226 222.792 773.756 222.331C773.289 221.858 772.92 221.3 772.669 220.686C772.143 219.375 772.143 217.913 772.669 216.603C772.918 215.99 773.288 215.433 773.756 214.965C774.226 214.502 774.779 214.13 775.386 213.868C776.659 213.335 778.095 213.335 779.368 213.868C779.976 214.128 780.529 214.5 780.999 214.965C781.467 215.433 781.836 215.99 782.086 216.603C782.35 217.252 782.484 217.947 782.48 218.648V219.33H774.336C774.403 219.72 774.536 220.096 774.731 220.441C774.904 220.759 775.137 221.04 775.416 221.271C775.685 221.496 775.993 221.672 776.324 221.79C776.663 221.91 777.021 221.97 777.381 221.968C777.827 221.979 778.271 221.909 778.691 221.76C779.01 221.65 779.309 221.49 779.577 221.286C779.832 221.096 780.051 220.863 780.225 220.597H782.383C782.141 221.198 781.787 221.748 781.341 222.22C781.131 222.43 780.907 222.625 780.671 222.805C780.407 223.015 780.117 223.189 779.808 223.324C779.457 223.483 779.09 223.604 778.713 223.687C778.275 223.779 777.829 223.824 777.381 223.821ZM780.359 217.67C780.303 217.37 780.203 217.08 780.061 216.81C779.92 216.524 779.72 216.271 779.473 216.069C778.621 215.371 777.47 215.154 776.421 215.491C776.104 215.594 775.807 215.749 775.542 215.95C775.272 216.153 775.042 216.405 774.865 216.692C774.676 216.995 774.543 217.328 774.47 217.677L780.359 217.67Z" fill="#800D4B"/>
    <path d="M784.78 213.668H786.835V215.15H786.954C787.121 214.858 787.335 214.595 787.587 214.372C787.848 214.147 788.132 213.951 788.435 213.787C788.824 213.579 789.26 213.476 789.701 213.49H790.884V215.447H789.604C789.232 215.444 788.863 215.511 788.517 215.647C788.192 215.768 787.895 215.954 787.646 216.195C787.388 216.438 787.189 216.738 787.066 217.069C786.925 217.433 786.854 217.821 786.857 218.211V223.65H784.803L784.78 213.668Z" fill="#800D4B"/>
    <path d="M793.795 212.201C793.472 212.206 793.16 212.08 792.931 211.852C792.699 211.624 792.572 211.31 792.582 210.985C792.576 210.661 792.702 210.348 792.931 210.118C793.156 209.883 793.469 209.752 793.795 209.755C794.476 209.759 795.027 210.308 795.031 210.985C795.038 211.313 794.905 211.628 794.666 211.852C794.435 212.081 794.121 212.206 793.795 212.201ZM792.775 213.683H794.837V223.643H792.775V213.683Z" fill="#800D4B"/>
    <path d="M802.192 223.821C801.507 223.825 800.828 223.688 800.197 223.42C799.591 223.161 799.038 222.792 798.567 222.331C798.101 221.858 797.731 221.3 797.48 220.686C796.955 219.375 796.955 217.913 797.48 216.603C797.73 215.99 798.099 215.433 798.567 214.965C799.038 214.502 799.59 214.13 800.197 213.868C800.828 213.6 801.507 213.464 802.192 213.468C802.876 213.463 803.552 213.599 804.18 213.868C804.789 214.126 805.342 214.499 805.81 214.965C806.278 215.433 806.648 215.99 806.897 216.603C807.162 217.252 807.296 217.947 807.292 218.648V219.33H799.148C799.218 219.719 799.351 220.094 799.542 220.441C799.716 220.759 799.948 221.04 800.227 221.271C800.499 221.497 800.809 221.673 801.143 221.79C801.48 221.909 801.835 221.969 802.192 221.968C802.638 221.979 803.082 221.909 803.503 221.76C803.821 221.65 804.12 221.49 804.388 221.286C804.643 221.096 804.862 220.863 805.036 220.597H807.195C806.952 221.198 806.599 221.748 806.153 222.22C805.944 222.428 805.722 222.623 805.49 222.805C805.224 223.011 804.934 223.186 804.627 223.324C804.273 223.483 803.904 223.604 803.525 223.687C803.087 223.779 802.64 223.824 802.192 223.821ZM805.133 217.67C805.077 217.371 804.979 217.082 804.842 216.81C804.698 216.527 804.498 216.275 804.254 216.069C803.989 215.845 803.69 215.665 803.369 215.535C802.992 215.396 802.594 215.329 802.192 215.335C801.856 215.335 801.522 215.387 801.202 215.491C800.884 215.595 800.584 215.75 800.316 215.95C800.046 216.153 799.816 216.405 799.639 216.691C799.451 216.995 799.317 217.328 799.244 217.677L805.133 217.67Z" fill="#800D4B"/>
    <path d="M809.592 213.668H811.654V215.069H811.75C811.954 214.781 812.206 214.53 812.495 214.327C812.796 214.107 813.123 213.925 813.47 213.786C813.928 213.611 814.416 213.528 814.907 213.542C815.977 213.48 817.025 213.867 817.795 214.609C818.544 215.476 818.919 216.603 818.837 217.744V223.672H816.731V217.907C816.789 217.211 816.579 216.519 816.143 215.973C815.662 215.541 815.024 215.324 814.378 215.372C814.002 215.366 813.629 215.439 813.284 215.587C812.957 215.726 812.662 215.928 812.413 216.18C812.161 216.445 811.963 216.758 811.832 217.099C811.693 217.484 811.625 217.891 811.631 218.3V223.672H809.569L809.592 213.668Z" fill="#800D4B"/>
    <path d="M826.043 223.821C825.362 223.825 824.687 223.697 824.056 223.443C823.458 223.197 822.919 222.831 822.47 222.368C822.016 221.896 821.659 221.339 821.42 220.73C820.904 219.39 820.904 217.906 821.42 216.566C821.659 215.956 822.016 215.4 822.47 214.928C822.917 214.462 823.457 214.096 824.056 213.853C824.685 213.593 825.361 213.462 826.043 213.468C826.497 213.463 826.95 213.515 827.391 213.623C827.771 213.717 828.138 213.857 828.485 214.038C828.788 214.196 829.068 214.393 829.319 214.624C829.539 214.832 829.748 215.053 829.944 215.283C830.368 215.814 830.675 216.428 830.845 217.084H828.693C828.586 216.758 828.411 216.457 828.18 216.202C827.634 215.609 826.851 215.289 826.043 215.328C825.272 215.32 824.535 215.648 824.026 216.225C823.762 216.54 823.56 216.902 823.43 217.292C823.273 217.734 823.195 218.201 823.2 218.67C823.196 219.139 823.274 219.606 823.43 220.049C823.565 220.431 823.769 220.785 824.033 221.093C824.282 221.365 824.583 221.585 824.919 221.738C825.267 221.896 825.646 221.977 826.028 221.975C826.5 221.995 826.97 221.901 827.398 221.701C827.711 221.548 827.996 221.342 828.239 221.093C828.479 220.844 828.662 220.545 828.775 220.219H830.875C830.708 220.881 830.4 221.5 829.974 222.035C829.781 222.266 829.572 222.484 829.348 222.687C829.095 222.913 828.815 223.107 828.515 223.265C828.168 223.444 827.8 223.581 827.42 223.672C826.97 223.78 826.507 223.83 826.043 223.821Z" fill="#800D4B"/>
    <path d="M837.574 223.821C836.889 223.825 836.21 223.689 835.579 223.42C834.973 223.161 834.42 222.792 833.949 222.331C833.482 221.858 833.113 221.3 832.862 220.686C832.336 219.375 832.336 217.913 832.862 216.603C833.111 215.99 833.481 215.433 833.949 214.965C834.419 214.502 834.972 214.13 835.579 213.868C836.853 213.335 838.288 213.335 839.562 213.868C840.171 214.126 840.724 214.499 841.192 214.965C841.66 215.433 842.03 215.99 842.279 216.603C842.544 217.252 842.678 217.947 842.674 218.648V219.33H834.522C834.592 219.719 834.726 220.095 834.917 220.441C835.09 220.759 835.323 221.04 835.602 221.271C835.873 221.497 836.183 221.673 836.517 221.79C836.854 221.91 837.209 221.97 837.567 221.968C838.013 221.979 838.457 221.909 838.877 221.76C839.196 221.65 839.495 221.49 839.763 221.286C840.018 221.096 840.237 220.863 840.41 220.597H842.569C842.327 221.198 841.973 221.748 841.527 222.22C841.317 222.43 841.093 222.625 840.857 222.805C840.593 223.015 840.303 223.189 839.994 223.324C839.642 223.483 839.276 223.604 838.899 223.687C838.464 223.779 838.019 223.824 837.574 223.821ZM840.515 217.67C840.459 217.37 840.359 217.08 840.217 216.81C840.076 216.524 839.876 216.271 839.629 216.069C838.777 215.371 837.627 215.154 836.577 215.491C836.26 215.594 835.963 215.749 835.698 215.95C835.428 216.153 835.198 216.405 835.021 216.692C834.833 216.995 834.699 217.328 834.626 217.677L840.515 217.67Z" fill="#800D4B"/>
    <path d="M851.101 209.955H853.163V217.573H854.651L857.689 213.668H860.048L856.416 218.255L860.339 223.628H857.793L854.748 219.426H853.178V223.628H851.115L851.101 209.955Z" fill="#800D4B"/>
    <path d="M862.058 213.668H864.12V215.069H864.217C864.421 214.781 864.672 214.53 864.961 214.327C865.262 214.107 865.59 213.925 865.937 213.786C866.395 213.611 866.883 213.528 867.373 213.542C868.444 213.48 869.491 213.867 870.262 214.609C871.011 215.476 871.385 216.603 871.304 217.744V223.672H869.242V217.907C869.303 217.211 869.093 216.518 868.654 215.973C868.173 215.541 867.535 215.324 866.889 215.372C866.513 215.366 866.14 215.439 865.795 215.587C865.469 215.726 865.173 215.928 864.924 216.18C864.672 216.445 864.474 216.758 864.343 217.099C864.205 217.484 864.136 217.891 864.142 218.3V223.672H862.08L862.058 213.668Z" fill="#800D4B"/>
    <path d="M878.666 223.821C876.917 223.82 875.285 222.946 874.32 221.494C873.356 220.042 873.187 218.205 873.872 216.603C874.127 215.991 874.498 215.435 874.966 214.965C875.959 213.996 877.299 213.463 878.688 213.483C879.393 213.476 880.092 213.612 880.743 213.883C881.985 214.398 882.972 215.381 883.49 216.617C884.319 218.573 883.884 220.833 882.388 222.346C881.916 222.812 881.357 223.182 880.743 223.435C880.084 223.704 879.377 223.835 878.666 223.821ZM878.666 221.968C879.087 221.972 879.505 221.891 879.894 221.731C880.257 221.58 880.584 221.356 880.854 221.071C881.131 220.768 881.344 220.413 881.48 220.026C881.639 219.584 881.718 219.117 881.711 218.648C881.721 218.187 881.648 217.727 881.495 217.292C881.359 216.905 881.146 216.55 880.869 216.247C880.602 215.958 880.274 215.73 879.909 215.58C879.119 215.274 878.243 215.274 877.453 215.58C877.088 215.73 876.76 215.958 876.492 216.247C876.216 216.55 876.003 216.905 875.867 217.292C875.712 217.735 875.637 218.201 875.644 218.67C875.638 219.139 875.713 219.605 875.867 220.049C876.003 220.435 876.216 220.79 876.492 221.093C876.762 221.378 877.09 221.603 877.453 221.753C877.839 221.903 878.251 221.976 878.666 221.968Z" fill="#800D4B"/>
    <path d="M885.165 213.668H887.324L888.991 221.738H889.289L890.957 213.638H893.934L895.565 221.738H895.862L897.53 213.638H899.689L897.53 223.598H894.001L892.512 215.98H892.311L890.823 223.598H887.287L885.165 213.668Z" fill="#800D4B"/>
    <path d="M901.706 209.955H903.768V221.738H906.001V223.598H901.684L901.706 209.955Z" fill="#800D4B"/>
    <path d="M912.254 223.821C911.569 223.825 910.89 223.688 910.259 223.42C909.654 223.163 909.104 222.793 908.637 222.331C908.165 221.861 907.793 221.301 907.542 220.686C907.026 219.373 907.026 217.915 907.542 216.603C907.791 215.988 908.164 215.431 908.637 214.965C909.103 214.5 909.654 214.128 910.259 213.868C910.89 213.6 911.569 213.464 912.254 213.468C912.938 213.463 913.614 213.599 914.242 213.868C914.851 214.126 915.404 214.499 915.872 214.965C916.343 215.431 916.712 215.989 916.959 216.603C917.228 217.251 917.362 217.947 917.354 218.648V219.33H909.21C909.28 219.719 909.413 220.094 909.604 220.441C909.78 220.757 910.012 221.038 910.289 221.271C910.561 221.497 910.871 221.673 911.205 221.79C911.542 221.909 911.897 221.969 912.254 221.968C912.7 221.979 913.144 221.909 913.565 221.76C913.884 221.652 914.183 221.492 914.45 221.286C914.705 221.096 914.924 220.863 915.098 220.597H917.227C916.988 221.2 916.634 221.751 916.185 222.22C915.976 222.428 915.755 222.623 915.522 222.805C915.257 223.013 914.967 223.187 914.659 223.324C914.306 223.484 913.936 223.605 913.557 223.687C913.129 223.778 912.692 223.822 912.254 223.821ZM915.195 217.67C915.139 217.371 915.041 217.082 914.905 216.81C914.76 216.527 914.56 216.275 914.316 216.069C914.052 215.845 913.752 215.665 913.431 215.535C912.733 215.285 911.972 215.269 911.264 215.491C910.946 215.595 910.646 215.75 910.378 215.95C910.108 216.153 909.878 216.405 909.701 216.691C909.516 216.996 909.383 217.329 909.307 217.677L915.195 217.67Z" fill="#800D4B"/>
    <path d="M923.83 223.821C923.192 223.83 922.56 223.704 921.976 223.45C921.412 223.21 920.904 222.854 920.487 222.405C920.045 221.935 919.703 221.38 919.482 220.775C918.996 219.396 918.996 217.893 919.482 216.514C919.705 215.909 920.047 215.355 920.487 214.883C921.35 213.961 922.565 213.447 923.83 213.468C924.292 213.461 924.752 213.541 925.185 213.705C925.528 213.839 925.858 214.008 926.167 214.209C926.465 214.422 926.735 214.671 926.971 214.95H927.068V209.955H929.137V223.628H927.075V222.361H926.979C926.746 222.643 926.475 222.892 926.175 223.102C925.866 223.303 925.537 223.469 925.192 223.598C924.755 223.754 924.294 223.829 923.83 223.821ZM924.224 221.968C924.999 221.995 925.747 221.683 926.271 221.116C927.334 219.638 927.334 217.651 926.271 216.173C925.744 215.61 924.997 215.302 924.224 215.328C923.421 215.292 922.641 215.599 922.08 216.173C921.009 217.648 921.009 219.641 922.08 221.116C922.638 221.694 923.42 222.005 924.224 221.968Z" fill="#800D4B"/>
    <path d="M932.926 225.481H939.403V222.361H939.306C939.073 222.643 938.802 222.892 938.502 223.102C938.196 223.306 937.866 223.472 937.519 223.598C937.085 223.754 936.626 223.83 936.165 223.821C935.527 223.828 934.896 223.702 934.311 223.45C933.748 223.207 933.241 222.852 932.822 222.405C932.382 221.935 932.043 221.38 931.825 220.775C931.338 219.396 931.338 217.893 931.825 216.514C932.045 215.909 932.384 215.355 932.822 214.883C933.685 213.961 934.899 213.447 936.165 213.468C936.627 213.46 937.087 213.54 937.519 213.705C937.865 213.836 938.194 214.005 938.502 214.209C938.802 214.419 939.073 214.668 939.306 214.95H939.403V213.661H941.465V227.333H932.926V225.481ZM936.559 221.968C937.334 221.996 938.082 221.684 938.606 221.116C939.669 219.638 939.669 217.651 938.606 216.173C938.079 215.609 937.332 215.3 936.559 215.328C935.759 215.293 934.981 215.6 934.423 216.173C933.351 217.648 933.351 219.641 934.423 221.116C934.983 221.699 935.772 222.01 936.582 221.968H936.559Z" fill="#800D4B"/>
    <path d="M948.865 223.821C948.179 223.825 947.5 223.689 946.87 223.42C946.265 223.163 945.714 222.793 945.247 222.331C944.778 221.859 944.406 221.3 944.153 220.686C943.637 219.373 943.637 217.915 944.153 216.603C944.405 215.99 944.777 215.433 945.247 214.965C945.713 214.5 946.264 214.128 946.87 213.868C948.146 213.334 949.584 213.334 950.86 213.868C951.466 214.128 952.016 214.5 952.483 214.965C952.953 215.433 953.325 215.99 953.577 216.603C953.839 217.253 953.971 217.947 953.964 218.648V219.33H945.828C945.895 219.719 946.026 220.094 946.215 220.441C946.39 220.757 946.622 221.038 946.9 221.271C947.171 221.497 947.481 221.673 947.815 221.79C948.152 221.909 948.507 221.969 948.865 221.968C949.313 221.979 949.76 221.909 950.182 221.76C950.499 221.65 950.796 221.49 951.061 221.286C951.316 221.096 951.535 220.863 951.708 220.597H953.867C953.628 221.2 953.274 221.751 952.825 222.22C952.616 222.428 952.395 222.623 952.163 222.805C951.897 223.013 951.607 223.187 951.299 223.324C950.946 223.484 950.576 223.605 950.197 223.687C949.759 223.78 949.313 223.824 948.865 223.821ZM951.805 217.67C951.749 217.371 951.651 217.082 951.515 216.81C951.372 216.525 951.172 216.273 950.927 216.069C950.662 215.845 950.363 215.665 950.041 215.535C949.343 215.285 948.582 215.269 947.875 215.491C947.556 215.595 947.257 215.75 946.989 215.95C946.719 216.153 946.489 216.405 946.311 216.692C946.125 216.995 945.994 217.329 945.924 217.677L951.805 217.67Z" fill="#800D4B"/>
    <path d="M809.726 162.512C808.451 161.16 806.875 160.124 805.125 159.488C803.217 158.801 801.2 158.459 799.17 158.48C797.28 158.429 795.397 158.739 793.624 159.392C792.297 159.898 791.045 160.581 789.902 161.422C788.805 162.306 787.847 163.348 787.058 164.513H786.909V159.214H779.227V195.526H786.887V176.199C786.859 174.663 787.112 173.133 787.632 171.686C788.11 170.408 788.842 169.239 789.783 168.248C790.706 167.296 791.812 166.54 793.036 166.024C794.315 165.491 795.691 165.224 797.078 165.239C799.481 165.118 801.833 165.956 803.614 167.566C805.237 169.117 806.051 171.516 806.056 174.762V195.512H813.753V173.924C813.793 171.691 813.435 169.468 812.696 167.358C812.041 165.56 811.028 163.912 809.718 162.512" fill="#800D4B"/>
    <path d="M849.999 182.343C849.454 183.741 848.651 185.026 847.631 186.13C846.642 187.19 845.433 188.025 844.088 188.575C842.672 189.157 841.153 189.447 839.621 189.427C838.129 189.442 836.65 189.152 835.274 188.575C833.946 188.018 832.753 187.184 831.775 186.13C830.755 185.032 829.96 183.745 829.438 182.343C828.326 179.123 828.326 175.625 829.438 172.405C829.962 171.001 830.756 169.712 831.775 168.611C833.795 166.435 836.646 165.212 839.621 165.246C841.156 165.23 842.676 165.53 844.088 166.128C845.421 166.7 846.626 167.531 847.631 168.574C848.661 169.676 849.465 170.967 849.999 172.375C850.601 173.972 850.899 175.665 850.877 177.37C850.901 179.068 850.603 180.755 849.999 182.343ZM866.048 152.24V144.667H850.877V164.735H850.661C849.876 163.534 848.9 162.468 847.773 161.578C846.566 160.72 845.256 160.018 843.872 159.488C842.057 158.792 840.122 158.458 838.177 158.503C835.873 158.487 833.591 158.952 831.478 159.866C829.388 160.771 827.502 162.084 825.932 163.727C824.291 165.449 823.013 167.479 822.172 169.7C821.254 172.12 820.795 174.688 820.818 177.274C820.785 179.911 821.242 182.531 822.165 185.003C823 187.214 824.279 189.231 825.924 190.932C827.506 192.564 829.389 193.877 831.47 194.8C833.579 195.731 835.863 196.206 838.17 196.193C841.607 196.267 844.974 195.227 847.765 193.229C848.893 192.339 849.868 191.273 850.654 190.072H850.87V195.445H866.041V187.886H858.463V152.24H866.048Z" fill="#800D4B"/>
    <path d="M707.882 168.611C708.892 167.572 710.096 166.739 711.425 166.158C714.439 164.924 717.831 164.985 720.798 166.328C721.962 166.918 723.023 167.691 723.939 168.618C724.512 169.255 725.011 169.953 725.428 170.701L730.728 165.417C730.676 165.343 730.631 165.261 730.572 165.187C729.847 164.315 729.056 163.499 728.205 162.749C727.239 161.909 726.174 161.19 725.033 160.607C723.73 159.965 722.359 159.468 720.946 159.125C719.242 158.71 717.491 158.513 715.736 158.54C713.184 158.528 710.655 159.014 708.291 159.97C706.027 160.877 703.969 162.228 702.239 163.942C700.515 165.661 699.151 167.704 698.227 169.952C696.282 174.746 696.282 180.105 698.227 184.899C699.153 187.147 700.517 189.189 702.239 190.91C703.969 192.623 706.027 193.974 708.291 194.882C710.655 195.838 713.184 196.324 715.736 196.312C717.505 196.333 719.27 196.137 720.991 195.727C722.446 195.379 723.854 194.857 725.182 194.17C726.343 193.566 727.423 192.819 728.398 191.947C729.236 191.18 729.985 190.323 730.631 189.39L725.42 184.203C725.052 184.849 724.621 185.457 724.133 186.019C723.186 186.984 722.091 187.792 720.887 188.412C719.291 189.2 717.522 189.574 715.743 189.502C714.274 189.513 712.82 189.212 711.477 188.62C710.152 188.035 708.949 187.205 707.934 186.174C706.886 185.086 706.058 183.808 705.492 182.409C704.86 180.831 704.549 179.143 704.577 177.444C704.559 175.762 704.857 174.09 705.455 172.516C706 171.096 706.817 169.795 707.86 168.685" fill="#800D4B"/>
    <path d="M743.599 173.806C744.716 168.907 748.587 165.246 753.842 165.246C759.098 165.246 762.448 168.907 763.564 173.806H743.599ZM754.021 158.488C743.085 158.488 735.366 166.751 735.366 177.015C735.366 177.14 735.366 177.259 735.366 177.378C735.366 177.978 735.366 178.563 735.44 179.149C735.44 179.208 735.44 179.275 735.44 179.341C735.477 179.771 735.537 180.201 735.604 180.624C735.604 180.727 735.641 180.831 735.656 180.927C735.806 181.76 736.01 182.582 736.266 183.388C736.304 183.484 736.333 183.58 736.363 183.684C736.505 184.077 736.646 184.47 736.81 184.855C738.666 189.403 742.299 193.006 746.874 194.837C749.238 195.794 751.767 196.28 754.319 196.268C756.088 196.289 757.853 196.092 759.574 195.682C761.029 195.335 762.437 194.812 763.765 194.126C764.928 193.524 766.008 192.777 766.981 191.903C767.817 191.134 768.565 190.276 769.214 189.346L764.003 184.158C763.636 184.802 763.204 185.408 762.716 185.967C761.768 186.93 760.672 187.738 759.47 188.36C757.873 189.144 756.105 189.519 754.326 189.45C752.857 189.461 751.403 189.16 750.061 188.568C748.735 187.983 747.532 187.153 746.517 186.122C745.471 185.036 744.642 183.76 744.075 182.365C743.949 182.061 743.845 181.75 743.748 181.431C743.703 181.29 743.659 181.142 743.621 180.994L743.532 180.631C743.443 180.216 743.361 179.794 743.301 179.356H771.812V177.207C771.812 166.01 764.368 158.51 754.021 158.51" fill="#800D4B"/>
    <path d="M680.16 177.719C680.16 185.018 674.517 189.405 669.358 189.405C665.971 189.405 663.299 187.56 663.299 184.218C663.299 179.49 670.624 176.674 680.16 176.674V177.719ZM687.82 187.975V159.192H657.463V166.751H680.16V170.604C662.294 170.604 655.319 175.725 655.043 184.44C654.805 191.777 660.604 196.26 667.698 196.26C672.269 196.26 677.219 194.467 679.959 190.169H680.197V195.549H693.507V187.99L687.82 187.975Z" fill="#800D4B"/>
    <path opacity="0.5" d="M561.568 503.793C662.95 503.793 745.136 500.355 745.136 496.115C745.136 491.875 662.95 488.437 561.568 488.437C460.186 488.437 378 491.875 378 496.115C378 500.355 460.186 503.793 561.568 503.793Z" fill="#002F47"/>
    <path d="M735.374 314.979H389.575V495.428H735.374V314.979Z" fill="#FFD700"/>
    <path d="M720.598 329.754H404.351V480.652H720.598V329.754Z" fill="#FFD804"/>
    <path opacity="0.05" d="M720.598 329.754H404.351V480.652H720.598V329.754Z" fill="#554C17"/>
    <path opacity="0.1" d="M714.687 335.663V474.742H410.261V335.663H714.687ZM720.598 329.752H404.351V480.652H720.598V329.752V329.752Z" fill="#585018"/>
    <path d="M641.908 347.08C640.877 347.079 639.855 347.282 638.902 347.676C637.949 348.071 637.083 348.649 636.354 349.379C635.624 350.108 635.046 350.974 634.652 351.927C634.257 352.88 634.055 353.902 634.055 354.933V458.092C634.055 460.175 634.883 462.172 636.355 463.645C637.828 465.118 639.825 465.945 641.908 465.945C643.991 465.945 645.988 465.118 647.461 463.645C648.934 462.172 649.761 460.175 649.761 458.092V354.933C649.762 353.902 649.559 352.88 649.164 351.927C648.77 350.974 648.192 350.108 647.462 349.379C646.733 348.65 645.867 348.071 644.914 347.677C643.961 347.282 642.94 347.079 641.908 347.08V347.08Z" fill="#786418"/>
    <path d="M602.78 347.08C601.749 347.079 600.727 347.282 599.774 347.677C598.821 348.071 597.956 348.65 597.226 349.379C596.497 350.108 595.918 350.974 595.524 351.927C595.13 352.88 594.927 353.902 594.927 354.933V458.092C594.927 460.175 595.755 462.172 597.227 463.645C598.7 465.118 600.698 465.945 602.78 465.945C604.863 465.945 606.86 465.118 608.333 463.645C609.806 462.172 610.633 460.175 610.633 458.092V354.933C610.634 353.902 610.431 352.88 610.037 351.927C609.642 350.974 609.064 350.108 608.334 349.379C607.605 348.65 606.739 348.071 605.786 347.677C604.833 347.282 603.812 347.079 602.78 347.08V347.08Z" fill="#786418"/>
    <path d="M563.79 347.08C562.758 347.079 561.737 347.282 560.783 347.676C559.83 348.07 558.964 348.649 558.234 349.378C557.504 350.107 556.926 350.973 556.531 351.926C556.136 352.88 555.934 353.901 555.934 354.933V458.092C555.934 460.175 556.761 462.172 558.234 463.645C559.707 465.118 561.704 465.945 563.787 465.945C565.87 465.945 567.867 465.118 569.34 463.645C570.813 462.172 571.64 460.175 571.64 458.092V354.933C571.594 352.865 570.752 350.894 569.289 349.431C567.827 347.968 565.856 347.126 563.787 347.08H563.79Z" fill="#786418"/>
    <path d="M524.663 347.08C523.632 347.079 522.61 347.282 521.657 347.676C520.704 348.071 519.838 348.649 519.109 349.379C518.379 350.108 517.801 350.974 517.406 351.927C517.012 352.88 516.809 353.902 516.81 354.933V458.092C516.81 460.175 517.637 462.172 519.11 463.645C520.583 465.118 522.58 465.945 524.663 465.945C526.746 465.945 528.743 465.118 530.216 463.645C531.689 462.172 532.516 460.175 532.516 458.092V354.933C532.493 352.857 531.659 350.873 530.191 349.405C528.723 347.937 526.739 347.103 524.663 347.08Z" fill="#786418"/>
    <path d="M485.534 347.08C484.503 347.079 483.481 347.282 482.528 347.677C481.575 348.071 480.709 348.65 479.98 349.379C479.251 350.108 478.672 350.974 478.278 351.927C477.883 352.88 477.681 353.902 477.681 354.933V458.092C477.681 460.175 478.509 462.172 479.981 463.645C481.454 465.118 483.451 465.945 485.534 465.945C487.617 465.945 489.614 465.118 491.087 463.645C492.56 462.172 493.387 460.175 493.387 458.092V354.933C493.365 352.857 492.53 350.873 491.062 349.405C489.594 347.937 487.61 347.102 485.534 347.08V347.08Z" fill="#786418"/>
    <path d="M446.407 347.08C445.376 347.079 444.354 347.282 443.401 347.677C442.448 348.071 441.582 348.65 440.853 349.379C440.124 350.108 439.545 350.974 439.151 351.927C438.756 352.88 438.554 353.902 438.554 354.933V458.092C438.554 460.175 439.382 462.172 440.854 463.645C442.327 465.118 444.324 465.945 446.407 465.945C448.49 465.945 450.487 465.118 451.96 463.645C453.433 462.172 454.26 460.175 454.26 458.092V354.933C454.261 353.902 454.058 352.88 453.664 351.927C453.269 350.974 452.691 350.108 451.961 349.379C451.232 348.65 450.366 348.071 449.413 347.677C448.46 347.282 447.439 347.079 446.407 347.08V347.08Z" fill="#786418"/>
    <path d="M681.034 347.08C680.003 347.079 678.981 347.282 678.028 347.677C677.075 348.071 676.209 348.65 675.48 349.379C674.751 350.108 674.172 350.974 673.778 351.927C673.383 352.88 673.181 353.902 673.181 354.933V458.092C673.181 459.123 673.384 460.145 673.778 461.098C674.173 462.051 674.751 462.916 675.48 463.646C676.21 464.375 677.075 464.954 678.028 465.348C678.981 465.743 680.003 465.945 681.034 465.945C682.069 465.957 683.095 465.762 684.054 465.372C685.012 464.981 685.882 464.403 686.614 463.672C687.346 462.94 687.924 462.07 688.314 461.111C688.704 460.153 688.899 459.127 688.887 458.092V354.933C688.865 352.857 688.03 350.873 686.562 349.405C685.094 347.937 683.11 347.102 681.034 347.08Z" fill="#786418"/>
    <path d="M640.534 345.702C639.503 345.702 638.481 345.904 637.528 346.299C636.575 346.693 635.71 347.272 634.98 348.001C634.251 348.731 633.673 349.596 633.278 350.549C632.884 351.502 632.681 352.524 632.681 353.555V456.714C632.681 458.797 633.509 460.794 634.981 462.267C636.454 463.74 638.451 464.567 640.534 464.567C642.617 464.567 644.614 463.74 646.087 462.267C647.56 460.794 648.387 458.797 648.387 456.714V353.555C648.388 352.524 648.185 351.502 647.79 350.549C647.396 349.596 646.818 348.73 646.088 348.001C645.359 347.272 644.493 346.693 643.54 346.299C642.587 345.904 641.566 345.701 640.534 345.702V345.702Z" fill="#FBE064"/>
    <path d="M601.402 345.702C600.371 345.702 599.35 345.904 598.397 346.299C597.444 346.693 596.578 347.272 595.849 348.001C595.119 348.731 594.541 349.596 594.146 350.549C593.752 351.502 593.549 352.524 593.549 353.555V456.714C593.549 458.797 594.377 460.794 595.849 462.267C597.322 463.74 599.32 464.567 601.402 464.567C603.485 464.567 605.483 463.74 606.955 462.267C608.428 460.794 609.255 458.797 609.255 456.714V353.555C609.256 352.524 609.053 351.502 608.659 350.549C608.264 349.596 607.686 348.73 606.956 348.001C606.227 347.272 605.361 346.693 604.408 346.299C603.455 345.904 602.434 345.701 601.402 345.702V345.702Z" fill="#FBE064"/>
    <path d="M562.412 345.702C561.381 345.702 560.359 345.904 559.406 346.299C558.453 346.693 557.588 347.272 556.858 348.001C556.129 348.731 555.551 349.596 555.156 350.549C554.762 351.502 554.559 352.524 554.559 353.555V456.714C554.559 458.797 555.386 460.794 556.859 462.267C558.332 463.74 560.329 464.567 562.412 464.567C564.495 464.567 566.492 463.74 567.965 462.267C569.438 460.794 570.265 458.797 570.265 456.714V353.555C570.219 351.487 569.377 349.516 567.914 348.053C566.452 346.59 564.481 345.748 562.412 345.702V345.702Z" fill="#FBE064"/>
    <path d="M523.285 345.702C522.254 345.702 521.232 345.904 520.279 346.299C519.327 346.693 518.461 347.272 517.731 348.001C517.002 348.731 516.424 349.596 516.029 350.549C515.635 351.502 515.432 352.524 515.432 353.555V456.714C515.432 458.797 516.26 460.794 517.732 462.267C519.205 463.74 521.202 464.567 523.285 464.567C525.368 464.567 527.365 463.74 528.838 462.267C530.311 460.794 531.138 458.797 531.138 456.714V353.555C531.116 351.479 530.281 349.495 528.813 348.027C527.345 346.559 525.361 345.724 523.285 345.702V345.702Z" fill="#FBE064"/>
    <path d="M484.157 345.702C483.126 345.702 482.104 345.904 481.152 346.299C480.199 346.693 479.333 347.272 478.603 348.001C477.874 348.731 477.296 349.596 476.901 350.549C476.507 351.502 476.304 352.524 476.304 353.555V456.714C476.304 458.797 477.132 460.794 478.604 462.267C480.077 463.74 482.074 464.567 484.157 464.567C486.24 464.567 488.237 463.74 489.71 462.267C491.183 460.794 492.01 458.797 492.01 456.714V353.555C491.988 351.479 491.153 349.495 489.685 348.027C488.217 346.559 486.233 345.724 484.157 345.702V345.702Z" fill="#FBE064"/>
    <path d="M445.034 345.702C444.003 345.702 442.981 345.904 442.028 346.299C441.075 346.693 440.21 347.272 439.48 348.001C438.751 348.731 438.173 349.596 437.778 350.549C437.384 351.502 437.181 352.524 437.181 353.555V456.714C437.204 458.782 438.042 460.756 439.512 462.21C440.983 463.664 442.967 464.479 445.035 464.479C447.102 464.479 449.087 463.664 450.557 462.21C452.027 460.756 452.865 458.782 452.888 456.714V353.555C452.889 352.524 452.686 351.502 452.291 350.549C451.897 349.596 451.318 348.73 450.589 348.001C449.859 347.272 448.993 346.693 448.04 346.299C447.087 345.904 446.066 345.701 445.034 345.702V345.702Z" fill="#FBE064"/>
    <path d="M679.658 345.702C678.627 345.702 677.605 345.904 676.653 346.299C675.7 346.693 674.834 347.272 674.104 348.001C673.375 348.731 672.797 349.596 672.402 350.549C672.008 351.502 671.805 352.524 671.805 353.555V456.714C671.805 457.745 672.007 458.767 672.402 459.72C672.796 460.673 673.375 461.539 674.104 462.268C674.833 462.997 675.699 463.576 676.652 463.97C677.605 464.365 678.627 464.568 679.658 464.567C680.693 464.579 681.719 464.384 682.678 463.994C683.636 463.603 684.506 463.025 685.238 462.294C685.97 461.562 686.548 460.692 686.938 459.733C687.328 458.775 687.523 457.749 687.511 456.714V353.555C687.489 351.479 686.654 349.495 685.186 348.027C683.718 346.559 681.734 345.725 679.658 345.702V345.702Z" fill="#FBE064"/>
    <path d="M735.374 488.101H389.575V495.429H735.374V488.101Z" fill="#867319"/>
    <path d="M397.078 311H727.87L735.374 314.979H389.575L397.078 311Z" fill="#FBE064"/>
    <path opacity="0.5" d="M968.704 507.793C1070.09 507.793 1152.27 504.355 1152.27 500.115C1152.27 495.875 1070.09 492.437 968.704 492.437C867.322 492.437 785.136 495.875 785.136 500.115C785.136 504.355 867.322 507.793 968.704 507.793Z" fill="#002F47"/>
    <path d="M1142.51 318.979H796.711V499.428H1142.51V318.979Z" fill="#FFD700"/>
    <path d="M1127.73 333.754H811.487V484.652H1127.73V333.754Z" fill="#FFD804"/>
    <path opacity="0.05" d="M1127.73 333.754H811.487V484.652H1127.73V333.754Z" fill="#554C17"/>
    <path opacity="0.1" d="M1121.82 339.663V478.742H817.397V339.663H1121.82ZM1127.73 333.752H811.487V484.652H1127.73V333.752V333.752Z" fill="#585018"/>
    <path d="M1049.04 351.08C1048.01 351.079 1046.99 351.282 1046.04 351.676C1045.09 352.071 1044.22 352.649 1043.49 353.379C1042.76 354.108 1042.18 354.974 1041.79 355.927C1041.39 356.88 1041.19 357.902 1041.19 358.933V462.092C1041.19 464.175 1042.02 466.172 1043.49 467.645C1044.96 469.118 1046.96 469.945 1049.04 469.945C1051.13 469.945 1053.12 469.118 1054.6 467.645C1056.07 466.172 1056.9 464.175 1056.9 462.092V358.933C1056.9 357.902 1056.7 356.88 1056.3 355.927C1055.91 354.974 1055.33 354.108 1054.6 353.379C1053.87 352.65 1053 352.071 1052.05 351.677C1051.1 351.282 1050.08 351.079 1049.04 351.08V351.08Z" fill="#786418"/>
    <path d="M1009.92 351.08C1008.89 351.079 1007.86 351.282 1006.91 351.677C1005.96 352.071 1005.09 352.65 1004.36 353.379C1003.63 354.108 1003.05 354.974 1002.66 355.927C1002.27 356.88 1002.06 357.902 1002.06 358.933V462.092C1002.06 464.175 1002.89 466.172 1004.36 467.645C1005.84 469.118 1007.83 469.945 1009.92 469.945C1012 469.945 1014 469.118 1015.47 467.645C1016.94 466.172 1017.77 464.175 1017.77 462.092V358.933C1017.77 357.902 1017.57 356.88 1017.17 355.927C1016.78 354.974 1016.2 354.108 1015.47 353.379C1014.74 352.65 1013.88 352.071 1012.92 351.677C1011.97 351.282 1010.95 351.079 1009.92 351.08V351.08Z" fill="#786418"/>
    <path d="M970.926 351.08C969.895 351.079 968.873 351.282 967.92 351.676C966.966 352.07 966.1 352.649 965.37 353.378C964.641 354.107 964.062 354.973 963.667 355.926C963.273 356.88 963.07 357.901 963.07 358.933V462.092C963.07 464.175 963.898 466.172 965.37 467.645C966.843 469.118 968.841 469.945 970.923 469.945C973.006 469.945 975.003 469.118 976.476 467.645C977.949 466.172 978.776 464.175 978.776 462.092V358.933C978.731 356.865 977.889 354.894 976.426 353.431C974.963 351.968 972.992 351.126 970.923 351.08H970.926Z" fill="#786418"/>
    <path d="M931.799 351.08C930.768 351.079 929.746 351.282 928.793 351.676C927.84 352.071 926.974 352.649 926.245 353.379C925.516 354.108 924.937 354.974 924.543 355.927C924.148 356.88 923.946 357.902 923.946 358.933V462.092C923.946 464.175 924.774 466.172 926.246 467.645C927.719 469.118 929.717 469.945 931.799 469.945C933.882 469.945 935.88 469.118 937.352 467.645C938.825 466.172 939.652 464.175 939.652 462.092V358.933C939.63 356.857 938.795 354.873 937.327 353.405C935.859 351.937 933.875 351.103 931.799 351.08Z" fill="#786418"/>
    <path d="M892.67 351.08C891.639 351.079 890.618 351.282 889.665 351.677C888.712 352.071 887.846 352.65 887.116 353.379C886.387 354.108 885.809 354.974 885.414 355.927C885.02 356.88 884.817 357.902 884.817 358.933V462.092C884.817 464.175 885.645 466.172 887.117 467.645C888.59 469.118 890.588 469.945 892.67 469.945C894.753 469.945 896.751 469.118 898.223 467.645C899.696 466.172 900.523 464.175 900.523 462.092V358.933C900.501 356.857 899.666 354.873 898.199 353.405C896.731 351.937 894.746 351.102 892.67 351.08V351.08Z" fill="#786418"/>
    <path d="M853.543 351.08C852.512 351.079 851.491 351.282 850.538 351.677C849.585 352.071 848.719 352.65 847.989 353.379C847.26 354.108 846.682 354.974 846.287 355.927C845.893 356.88 845.69 357.902 845.69 358.933V462.092C845.69 464.175 846.518 466.172 847.991 467.645C849.463 469.118 851.461 469.945 853.543 469.945C855.626 469.945 857.624 469.118 859.096 467.645C860.569 466.172 861.396 464.175 861.396 462.092V358.933C861.397 357.902 861.194 356.88 860.8 355.927C860.405 354.974 859.827 354.108 859.098 353.379C858.368 352.65 857.502 352.071 856.549 351.677C855.596 351.282 854.575 351.079 853.543 351.08V351.08Z" fill="#786418"/>
    <path d="M1088.17 351.08C1087.14 351.079 1086.12 351.282 1085.16 351.677C1084.21 352.071 1083.35 352.65 1082.62 353.379C1081.89 354.108 1081.31 354.974 1080.91 355.927C1080.52 356.88 1080.32 357.902 1080.32 358.933V462.092C1080.32 463.123 1080.52 464.145 1080.91 465.098C1081.31 466.051 1081.89 466.916 1082.62 467.646C1083.35 468.375 1084.21 468.954 1085.16 469.348C1086.12 469.743 1087.14 469.945 1088.17 469.945C1089.2 469.957 1090.23 469.762 1091.19 469.372C1092.15 468.981 1093.02 468.403 1093.75 467.672C1094.48 466.94 1095.06 466.07 1095.45 465.111C1095.84 464.153 1096.04 463.127 1096.02 462.092V358.933C1096 356.857 1095.17 354.873 1093.7 353.405C1092.23 351.937 1090.25 351.102 1088.17 351.08Z" fill="#786418"/>
    <path d="M1047.67 349.702C1046.64 349.702 1045.62 349.904 1044.66 350.299C1043.71 350.693 1042.85 351.272 1042.12 352.001C1041.39 352.731 1040.81 353.596 1040.41 354.549C1040.02 355.502 1039.82 356.524 1039.82 357.555V460.714C1039.82 462.797 1040.64 464.794 1042.12 466.267C1043.59 467.74 1045.59 468.567 1047.67 468.567C1049.75 468.567 1051.75 467.74 1053.22 466.267C1054.7 464.794 1055.52 462.797 1055.52 460.714V357.555C1055.52 356.524 1055.32 355.502 1054.93 354.549C1054.53 353.596 1053.95 352.73 1053.22 352.001C1052.5 351.272 1051.63 350.693 1050.68 350.299C1049.72 349.904 1048.7 349.701 1047.67 349.702V349.702Z" fill="#FBE064"/>
    <path d="M1008.54 349.702C1007.51 349.702 1006.49 349.904 1005.53 350.299C1004.58 350.693 1003.71 351.272 1002.98 352.001C1002.26 352.731 1001.68 353.596 1001.28 354.549C1000.89 355.502 1000.69 356.524 1000.69 357.555V460.714C1000.69 462.797 1001.51 464.794 1002.99 466.267C1004.46 467.74 1006.46 468.567 1008.54 468.567C1010.62 468.567 1012.62 467.74 1014.09 466.267C1015.56 464.794 1016.39 462.797 1016.39 460.714V357.555C1016.39 356.524 1016.19 355.502 1015.79 354.549C1015.4 353.596 1014.82 352.73 1014.09 352.001C1013.36 351.272 1012.5 350.693 1011.54 350.299C1010.59 349.904 1009.57 349.701 1008.54 349.702V349.702Z" fill="#FBE064"/>
    <path d="M969.548 349.702C968.517 349.702 967.496 349.904 966.543 350.299C965.59 350.693 964.724 351.272 963.995 352.001C963.265 352.731 962.687 353.596 962.292 354.549C961.898 355.502 961.695 356.524 961.695 357.555V460.714C961.695 462.797 962.523 464.794 963.995 466.267C965.468 467.74 967.466 468.567 969.548 468.567C971.631 468.567 973.628 467.74 975.101 466.267C976.574 464.794 977.401 462.797 977.401 460.714V357.555C977.356 355.487 976.514 353.516 975.051 352.053C973.588 350.59 971.617 349.748 969.548 349.702V349.702Z" fill="#FBE064"/>
    <path d="M930.421 349.702C929.39 349.702 928.369 349.904 927.416 350.299C926.463 350.693 925.597 351.272 924.868 352.001C924.138 352.731 923.56 353.596 923.165 354.549C922.771 355.502 922.568 356.524 922.568 357.555V460.714C922.568 462.797 923.396 464.794 924.868 466.267C926.341 467.74 928.339 468.567 930.421 468.567C932.504 468.567 934.502 467.74 935.974 466.267C937.447 464.794 938.274 462.797 938.274 460.714V357.555C938.252 355.479 937.417 353.495 935.95 352.027C934.482 350.559 932.497 349.724 930.421 349.702V349.702Z" fill="#FBE064"/>
    <path d="M891.293 349.702C890.262 349.702 889.241 349.904 888.288 350.299C887.335 350.693 886.469 351.272 885.74 352.001C885.01 352.731 884.432 353.596 884.037 354.549C883.643 355.502 883.44 356.524 883.44 357.555V460.714C883.44 462.797 884.268 464.794 885.741 466.267C887.213 467.74 889.211 468.567 891.293 468.567C893.376 468.567 895.374 467.74 896.846 466.267C898.319 464.794 899.146 462.797 899.146 460.714V357.555C899.124 355.479 898.289 353.495 896.822 352.027C895.354 350.559 893.369 349.724 891.293 349.702V349.702Z" fill="#FBE064"/>
    <path d="M852.17 349.702C851.139 349.702 850.118 349.904 849.165 350.299C848.212 350.693 847.346 351.272 846.617 352.001C845.887 352.731 845.309 353.596 844.914 354.549C844.52 355.502 844.317 356.524 844.317 357.555V460.714C844.341 462.782 845.178 464.756 846.649 466.21C848.119 467.664 850.103 468.479 852.171 468.479C854.239 468.479 856.223 467.664 857.693 466.21C859.163 464.756 860.001 462.782 860.024 460.714V357.555C860.025 356.524 859.822 355.502 859.427 354.549C859.033 353.596 858.454 352.73 857.725 352.001C856.995 351.272 856.129 350.693 855.176 350.299C854.223 349.904 853.202 349.701 852.17 349.702V349.702Z" fill="#FBE064"/>
    <path d="M1086.79 349.702C1085.76 349.702 1084.74 349.904 1083.79 350.299C1082.84 350.693 1081.97 351.272 1081.24 352.001C1080.51 352.731 1079.93 353.596 1079.54 354.549C1079.14 355.502 1078.94 356.524 1078.94 357.555V460.714C1078.94 461.745 1079.14 462.767 1079.54 463.72C1079.93 464.673 1080.51 465.539 1081.24 466.268C1081.97 466.997 1082.84 467.576 1083.79 467.97C1084.74 468.365 1085.76 468.568 1086.79 468.567C1087.83 468.579 1088.86 468.384 1089.81 467.994C1090.77 467.603 1091.64 467.025 1092.37 466.294C1093.11 465.562 1093.68 464.692 1094.07 463.733C1094.46 462.775 1094.66 461.749 1094.65 460.714V357.555C1094.62 355.479 1093.79 353.495 1092.32 352.027C1090.85 350.559 1088.87 349.725 1086.79 349.702V349.702Z" fill="#FBE064"/>
    <path d="M1142.51 492.101H796.711V499.429H1142.51V492.101Z" fill="#867319"/>
    <path d="M804.214 315H1135.01L1142.51 318.979H796.711L804.214 315Z" fill="#FBE064"/>
    <g filter="url(#filter0_d)">
    <path d="M662.984 344H462V478.29H662.984V344Z" fill="#81B4C4"/>
    <path d="M655.904 350.576H468.139V471.646H655.904V350.576Z" fill="#002F47"/>
    <g style="mix-blend-mode:multiply" opacity="0.5">
    <path d="M468.139 471.648H475.922V357.95H655.905V350.576H468.139V471.648Z" fill="#4A3144"/>
    </g>
    <g opacity="0.6">
    <path opacity="0.6" d="M531.335 426.655H500.914C496.619 426.65 492.502 424.942 489.465 421.905C486.427 418.868 484.719 414.75 484.714 410.455V359.112H504.964V406.405H531.337L531.335 426.655Z" stroke="white" stroke-miterlimit="10"/>
    <path opacity="0.6" d="M638.839 471.312H618.589V426.655H591.938V406.405H622.638C626.933 406.41 631.051 408.118 634.088 411.155C637.125 414.192 638.833 418.31 638.839 422.605V471.312Z" stroke="white" stroke-miterlimit="10"/>
    <path opacity="0.6" d="M581.702 406.405H541.572V426.655H581.702V406.405Z" stroke="white" stroke-miterlimit="10"/>
    <path opacity="0.6" d="M541.572 402.355H531.335V430.705H541.572V402.355Z" stroke="white" stroke-miterlimit="10"/>
    <path opacity="0.6" d="M591.938 402.887H581.702V431.237H591.938V402.887Z" stroke="white" stroke-miterlimit="10"/>
    <path opacity="0.6" d="M562.765 398.776H560.786V406.405H562.765V398.776Z" stroke="white" stroke-miterlimit="10"/>
    <path opacity="0.6" d="M562.765 426.606H560.786V441.866H562.765V426.606Z" stroke="white" stroke-miterlimit="10"/>
    <path opacity="0.6" d="M595.305 359.114H527.439C521.798 359.114 517.225 363.687 517.225 369.328V387.748C517.225 393.389 521.798 397.962 527.439 397.962H595.305C600.946 397.962 605.519 393.389 605.519 387.748V369.328C605.519 363.687 600.946 359.114 595.305 359.114Z" stroke="white" stroke-miterlimit="10"/>
    <g opacity="0.6">
    <path opacity="0.6" d="M544.714 389.527H540.814C540.438 389.545 540.066 389.437 539.757 389.221C539.489 389.018 539.279 388.749 539.147 388.44L537.867 384.66H529.622L528.343 388.44C528.218 388.739 528.015 388.998 527.755 389.192C527.455 389.421 527.084 389.539 526.706 389.527H522.777L531.17 367.844H536.314L544.714 389.527ZM536.723 381.237L534.713 375.299C534.565 374.922 534.405 374.478 534.237 373.967C534.069 373.456 533.9 372.903 533.731 372.308C533.582 372.913 533.423 373.474 533.255 373.99C533.087 374.506 532.929 374.952 532.779 375.329L530.779 381.237H536.723Z" stroke="white" stroke-miterlimit="10"/>
    <path opacity="0.6" d="M570.8 367.844V389.527H566.365V377.055C566.365 376.768 566.372 376.455 566.387 376.118C566.402 375.781 566.429 375.439 566.469 375.091L560.714 386.237C560.555 386.564 560.304 386.838 559.992 387.026C559.678 387.208 559.321 387.3 558.958 387.294H558.273C557.911 387.3 557.553 387.208 557.239 387.026C556.928 386.838 556.677 386.564 556.517 386.237L550.754 375.061C550.783 375.418 550.808 375.768 550.828 376.111C550.848 376.452 550.858 376.768 550.858 377.055V389.527H546.423V367.844H550.263C550.481 367.844 550.672 367.844 550.836 367.858C550.986 367.865 551.134 367.896 551.275 367.948C551.407 367.999 551.526 368.077 551.625 368.178C551.748 368.309 551.85 368.457 551.93 368.617L557.511 379.617C557.711 379.994 557.902 380.386 558.083 380.793C558.265 381.2 558.441 381.616 558.612 382.043C558.78 381.606 558.956 381.18 559.14 380.763C559.323 380.346 559.52 379.949 559.728 379.573L565.293 368.619C565.374 368.458 565.477 368.311 565.599 368.18C565.698 368.079 565.818 368.001 565.949 367.95C566.09 367.898 566.238 367.867 566.387 367.86C566.551 367.851 566.742 367.846 566.961 367.846L570.8 367.844Z" stroke="white" stroke-miterlimit="10"/>
    <path opacity="0.6" d="M599.373 367.844V389.527H594.939V377.055C594.939 376.768 594.946 376.455 594.961 376.118C594.976 375.781 595.003 375.439 595.043 375.091L589.284 386.237C589.124 386.564 588.874 386.838 588.562 387.026C588.248 387.207 587.89 387.3 587.527 387.294H586.843C586.48 387.3 586.122 387.207 585.808 387.026C585.497 386.837 585.246 386.564 585.086 386.237L579.327 375.061C579.357 375.418 579.382 375.768 579.402 376.111C579.421 376.452 579.431 376.768 579.431 377.055V389.527H574.997V367.844H578.836C579.055 367.844 579.245 367.844 579.409 367.858C579.559 367.865 579.707 367.896 579.848 367.948C579.98 367.999 580.099 368.077 580.198 368.178C580.321 368.308 580.423 368.456 580.503 368.617L586.084 379.617C586.284 379.994 586.475 380.386 586.657 380.793C586.839 381.2 587.015 381.616 587.185 382.043C587.354 381.606 587.53 381.18 587.713 380.763C587.896 380.346 588.092 379.95 588.301 379.573L593.867 368.619C593.945 368.459 594.046 368.311 594.167 368.18C594.266 368.079 594.385 368.001 594.517 367.95C594.658 367.898 594.806 367.867 594.956 367.86C595.12 367.851 595.311 367.846 595.529 367.846L599.373 367.844Z" stroke="white" stroke-miterlimit="10"/>
    </g>
    <path opacity="0.6" d="M570.302 452.9C570.302 452.641 570.289 452.386 570.266 452.133L571.973 451.686L571.208 448.763L569.468 449.218C569.103 448.458 568.627 447.757 568.056 447.137L569.173 445.69L566.781 443.844L565.651 445.309C564.909 444.929 564.114 444.662 563.293 444.516V442.653H560.271V444.512C559.491 444.651 558.734 444.899 558.023 445.249L556.914 443.772L554.495 445.583L555.595 447.048C555.178 447.49 554.809 447.975 554.495 448.496L552.795 447.871L551.746 450.712L553.411 451.325C553.312 451.846 553.262 452.375 553.261 452.905C553.261 453.092 553.27 453.277 553.282 453.461L551.591 453.903L552.357 456.827L554.009 456.393C554.366 457.185 554.841 457.919 555.419 458.568L554.391 459.899L556.783 461.746L557.795 460.435C558.572 460.846 559.407 461.134 560.271 461.289V462.936H563.293V461.289C564.116 461.14 564.913 460.87 565.657 460.489L566.65 461.815L569.069 460.003L568.062 458.659C568.49 458.191 568.865 457.678 569.179 457.128L570.774 457.715L571.818 454.88L570.19 454.28C570.265 453.824 570.302 453.362 570.302 452.9V452.9ZM561.782 458.594C560.635 458.594 559.514 458.254 558.56 457.616C557.606 456.979 556.863 456.073 556.424 455.013C555.985 453.954 555.87 452.787 556.094 451.662C556.318 450.537 556.87 449.504 557.681 448.693C558.492 447.881 559.526 447.329 560.651 447.105C561.776 446.881 562.942 446.996 564.002 447.435C565.062 447.874 565.968 448.618 566.605 449.572C567.242 450.525 567.582 451.647 567.582 452.794C567.582 454.332 566.971 455.807 565.884 456.895C564.796 457.983 563.321 458.594 561.782 458.594V458.594Z" stroke="white" stroke-miterlimit="10"/>
    </g>
    </g>
    <g filter="url(#filter1_d)">
    <path d="M1071.98 344H871V478.29H1071.98V344Z" fill="#81B4C4"/>
    <path d="M1065.37 350.609H877.61V471.679H1065.37V350.609Z" fill="#002F47"/>
    <g style="mix-blend-mode:multiply" opacity="0.5">
    <path d="M877.61 471.681H885.393V357.982H1065.37V350.609H877.61V471.681Z" fill="#4A3144"/>
    </g>
    <g opacity="0.6">
    <path opacity="0.6" d="M920.044 395.213L907.114 399.913C907.286 401.981 907.629 404.031 908.139 406.042L920.422 401.57C920.015 399.477 919.888 397.339 920.044 395.213M977.187 380.913C976.289 379.043 975.234 377.253 974.033 375.562L961.106 380.262C962.594 381.793 963.871 383.514 964.906 385.38L977.187 380.913Z" stroke="white" stroke-miterlimit="10"/>
    <path opacity="0.6" d="M948.744 377.254C951.353 378.478 953.719 380.163 955.729 382.227L968.655 377.527C963.963 370.953 957.245 366.097 949.531 363.703C941.817 361.309 933.531 361.509 925.941 364.271C918.351 367.033 911.875 372.207 907.504 378.999C903.133 385.791 901.108 393.829 901.738 401.881L914.667 397.181C914.951 393.306 916.173 389.558 918.229 386.261C920.284 382.964 923.11 380.216 926.465 378.254C929.819 376.293 933.599 375.177 937.481 375.003C941.362 374.829 945.228 375.601 948.744 377.254Z" stroke="white" stroke-miterlimit="10"/>
    <path opacity="0.6" d="M962.531 400.876C962.318 403.752 961.582 406.564 960.361 409.176C957.663 414.946 952.786 419.409 946.801 421.588C940.816 423.766 934.211 423.482 928.436 420.796C925.82 419.579 923.448 417.896 921.436 415.83L908.536 420.525C913.225 427.101 919.94 431.958 927.652 434.354C935.365 436.749 943.65 436.551 951.24 433.789C958.829 431.027 965.304 425.854 969.673 419.062C974.042 412.269 976.065 404.232 975.431 396.181L962.531 400.875V400.876Z" stroke="white" stroke-miterlimit="10"/>
    <path opacity="0.6" d="M908.945 405.751L896.662 410.225C897.794 414.721 899.753 418.967 902.438 422.746L915.338 418.046C912.05 414.659 909.828 410.383 908.946 405.746M965.71 385.094L953.427 389.564C955.731 393.682 956.777 398.386 956.433 403.092L969.333 398.4C968.963 393.778 967.734 389.265 965.709 385.094H965.71Z" stroke="white" stroke-miterlimit="10"/>
    <path opacity="0.6" d="M975.315 377.513C974.907 376.852 974.484 376.201 974.034 375.567L961.107 380.267C961.67 380.85 962.201 381.462 962.699 382.101L975.315 377.513ZM919.997 397.813C919.963 396.946 919.979 396.078 920.044 395.213L907.113 399.913C907.18 400.741 907.285 401.564 907.408 402.384L919.997 397.813Z" stroke="white" stroke-miterlimit="10"/>
    <path opacity="0.6" d="M975.431 396.182L962.531 400.876C962.391 402.763 962.025 404.626 961.441 406.425L975.483 401.305C975.584 399.598 975.567 397.886 975.432 396.182H975.431ZM908.538 420.528C909.538 421.934 910.637 423.268 911.825 424.52L925.869 419.398C924.254 418.39 922.766 417.192 921.437 415.831L908.538 420.528Z" stroke="white" stroke-miterlimit="10"/>
    <path opacity="0.6" d="M896.869 449.981C895.262 449.981 894.195 451.281 894.195 453.607C894.195 455.933 895.311 457.263 896.918 457.263C898.525 457.263 899.59 455.963 899.59 453.638C899.59 451.313 898.476 449.981 896.869 449.981M974.766 447.882V449.047H978.145V459.363H979.424V449.047H982.804V447.882H974.766ZM967.009 449.046V452.846H970.157V454.013H967.009V459.359H965.73V447.883H972.471V449.046H967.009ZM961.157 447.884H962.436V459.364H961.157V447.884ZM956.586 459.363V453.95H950.878V459.363H949.599V447.882H950.878V452.787H956.586V447.882H957.865V459.363H956.586ZM942.944 459.543C941.499 459.542 940.114 458.971 939.09 457.953L939.944 457.001C940.336 457.42 940.807 457.758 941.33 457.995C941.854 458.232 942.419 458.362 942.993 458.38C944.518 458.38 945.471 457.625 945.471 456.411C945.471 455.344 944.831 454.738 942.732 453.983C940.255 453.097 939.418 452.295 939.418 450.638C939.418 448.8 940.861 447.701 943.009 447.701C944.286 447.663 945.531 448.101 946.503 448.932L945.683 449.932C944.935 449.237 943.949 448.856 942.929 448.865C941.353 448.865 940.697 449.652 940.697 450.555C940.697 451.508 941.124 452.047 943.42 452.869C945.962 453.786 946.749 454.64 946.749 456.346C946.749 458.146 945.339 459.546 942.944 459.546V459.543ZM933.907 459.366L929.693 453.101C929.413 452.674 929.036 452.101 928.893 451.801C928.893 452.228 928.926 453.671 928.926 454.31V459.363H926.662V447.882H928.862L932.93 453.95C933.21 454.377 933.585 454.95 933.73 455.25C933.73 454.824 933.699 453.381 933.699 452.74V447.886H935.961V459.363L933.907 459.366ZM915.807 459.366V447.882H923.778V450.129H918.103V452.113H921.403V454.342H918.103V457.113H924.024V459.36L915.807 459.366ZM909.283 455.299H906.757V459.366H904.457V447.882H909.476C911.641 447.882 913.429 449.082 913.429 451.522C913.429 454.18 911.658 455.296 909.28 455.296L909.283 455.299ZM909.396 450.113H906.753V453.065H909.427C910.494 453.065 911.068 452.571 911.068 451.571C911.068 450.571 910.411 450.113 909.396 450.113V450.113ZM896.885 459.543C893.885 459.543 891.832 457.343 891.832 453.638C891.832 449.933 893.916 447.701 896.918 447.701C899.903 447.701 901.953 449.901 901.953 453.607C901.953 457.313 899.869 459.543 896.885 459.543Z" stroke="white" stroke-miterlimit="10"/>
    </g>
    <g opacity="0.6">
    <path opacity="0.6" d="M1020.67 409.121C1020.68 408.74 1020.77 408.364 1020.92 408.014C1020.94 407.963 1020.86 407.906 1020.83 407.885C1018.78 406.291 1016.06 404.947 1014.85 402.534C1013.73 400.302 1012.81 398.057 1013.32 395.495C1014.4 390.035 1020.27 387.141 1025.28 386.21C1027.78 385.734 1030.36 385.877 1032.8 386.627C1035.23 387.377 1037.44 388.711 1039.24 390.513C1042.83 394.176 1042.99 399.167 1041.04 403.736C1040.46 405.197 1039.58 406.518 1038.45 407.61C1037.33 408.702 1035.98 409.54 1034.5 410.068C1032.88 410.58 1031.18 410.817 1029.48 410.768C1028.65 410.756 1028.28 410.605 1027.74 411.263C1027.59 411.444 1028.24 411.593 1028.38 411.412C1028.94 410.735 1031.13 411.1 1032 410.999C1033.38 410.852 1034.73 410.499 1036.01 409.953C1038.67 408.677 1040.74 406.426 1041.78 403.666C1043.77 398.794 1043.38 393.693 1039.44 389.994C1037.66 388.35 1035.54 387.115 1033.23 386.375C1030.92 385.636 1028.48 385.41 1026.08 385.714C1021.03 386.339 1014.79 389.003 1012.99 394.147C1011.92 397.202 1012.83 399.817 1014.19 402.568C1014.93 403.854 1015.96 404.954 1017.18 405.787C1017.85 406.297 1018.55 406.769 1019.23 407.261C1019.5 407.412 1019.75 407.594 1019.97 407.804C1020.24 408.291 1019.98 408.553 1020 409.062C1020 409.309 1020.68 409.349 1020.68 409.123L1020.67 409.121Z" fill="white"/>
    <path opacity="0.6" d="M1019.96 408.713C1019.9 410.619 1022.05 411.865 1023.57 412.413C1024.21 412.696 1024.91 412.827 1025.61 412.794C1026.62 412.657 1027.55 412.185 1028.26 411.453C1028.5 411.259 1027.86 411.091 1027.69 411.229C1027.13 411.785 1026.4 412.151 1025.62 412.277C1024.84 412.402 1024.04 412.281 1023.33 411.929C1022.17 411.456 1020.59 410.214 1020.64 408.783C1020.65 408.54 1019.97 408.489 1019.96 408.722V408.713Z" fill="white"/>
    <path opacity="0.6" d="M1019.91 408.913C1019.41 409.348 1019.03 409.905 1018.82 410.53C1018.6 411.154 1018.55 411.825 1018.67 412.475C1018.98 413.142 1019.44 413.729 1020.01 414.194C1020.58 414.659 1021.25 414.989 1021.97 415.16C1024.79 415.954 1027.04 414.383 1027.95 411.77C1028.02 411.576 1027.35 411.47 1027.27 411.709C1026.41 414.167 1024.19 415.899 1021.46 414.539C1020.92 414.329 1020.44 413.992 1020.06 413.557C1019.68 413.121 1019.41 412.601 1019.27 412.039C1019.27 410.951 1019.71 409.908 1020.48 409.139C1020.71 408.924 1020.07 408.765 1019.91 408.914L1019.91 408.913Z" fill="white"/>
    <path opacity="0.6" d="M1019.52 409.63C1018.95 411.175 1017.86 412.739 1018.91 414.291C1019.73 415.348 1020.87 416.107 1022.16 416.451C1024.94 417.428 1027.19 415.14 1027.65 412.546C1027.66 412.493 1027.6 412.44 1027.56 412.417L1027.49 412.371C1027.31 412.257 1026.66 412.371 1026.99 412.571C1026.89 413.14 1026.72 413.694 1026.48 414.219C1026.22 414.722 1025.84 415.16 1025.39 415.505C1024.71 415.961 1023.9 416.197 1023.08 416.182C1022.26 416.166 1021.46 415.899 1020.79 415.417C1020.23 415.136 1019.78 414.681 1019.5 414.121C1019.22 413.56 1019.12 412.924 1019.23 412.307C1019.5 411.417 1019.83 410.544 1020.2 409.693C1020.27 409.502 1019.61 409.393 1019.52 409.632L1019.52 409.63Z" fill="white"/>
    <path opacity="0.6" d="M1018.95 410.882C1018.27 412.662 1017.53 414.436 1018.38 416.305C1018.7 416.942 1019.15 417.502 1019.7 417.945C1020.26 418.389 1020.9 418.704 1021.6 418.869C1024.98 419.611 1026.6 415.177 1027.51 412.69C1027.58 412.5 1026.91 412.39 1026.83 412.63C1026.1 414.604 1024.8 418.493 1022.27 418.569C1020.64 418.618 1019.15 416.986 1018.78 415.509C1018.38 413.909 1019.04 412.496 1019.59 411.031C1019.69 410.777 1019.02 410.679 1018.95 410.882V410.882Z" fill="white"/>
    <path opacity="0.6" d="M1019.6 417.503L1019.64 417.429L1019.3 417.529L1019.37 417.537L1019.04 417.337C1018.94 418.009 1018.62 418.648 1019 419.288C1019.12 419.517 1019.3 419.718 1019.5 419.88C1019.71 420.042 1019.94 420.162 1020.2 420.232C1020.74 420.279 1021.29 420.145 1021.75 419.851C1022.21 419.651 1023 419.477 1023.25 418.986C1023.35 418.786 1022.96 418.737 1022.85 418.739C1022.33 418.792 1021.79 418.776 1021.27 418.692C1020.99 418.576 1020.7 418.499 1020.4 418.465C1019.92 418.485 1019.7 418.922 1019.64 419.358C1019.61 419.574 1020.09 419.586 1020.21 419.53C1020.86 419.22 1020.55 418.079 1019.84 418.069C1018.85 418.053 1019.36 419.408 1019.95 419.659C1020.03 419.693 1020.11 419.708 1020.19 419.705C1020.27 419.702 1020.35 419.679 1020.42 419.639C1020.51 419.55 1020.58 419.437 1020.6 419.314C1020.63 419.19 1020.62 419.062 1020.58 418.944C1020.54 418.825 1020.46 418.721 1020.36 418.644C1020.26 418.567 1020.14 418.52 1020.01 418.508C1019.9 418.489 1019.66 418.461 1019.59 418.59C1019.32 419.074 1019.25 419.683 1019.96 419.796C1020.63 419.901 1020.67 419.273 1021.08 418.935L1020.45 418.793C1020.41 419.034 1020.12 419.225 1020.03 419.453C1019.92 419.729 1020.51 419.72 1020.64 419.64L1020.96 419.447L1020.39 419.274C1020.34 419.56 1020.19 419.819 1019.96 420.002L1020.57 420.188C1020.71 419.861 1020.96 419.595 1021.28 419.439L1020.71 419.267C1020.65 419.494 1020.48 419.633 1020.42 419.858C1020.36 420.083 1020.89 420.058 1020.99 420.03C1021.26 419.952 1021.9 419.203 1022.08 419.246L1021.84 419.06C1021.83 419.197 1021.77 419.327 1021.68 419.435C1021.6 419.543 1021.48 419.626 1021.35 419.674L1021.85 419.867C1021.87 419.509 1022.89 419.167 1023.18 419.027C1023.52 418.863 1022.91 418.65 1022.72 418.744C1022.33 418.927 1021.2 419.293 1021.17 419.806C1021.16 420.006 1021.55 420.029 1021.67 419.999C1021.88 419.953 1022.08 419.845 1022.23 419.689C1022.38 419.533 1022.49 419.335 1022.53 419.121C1022.54 419.011 1022.37 418.954 1022.29 418.934C1021.46 418.734 1021.22 419.545 1020.53 419.747L1021.1 419.919C1021.16 419.701 1021.33 419.55 1021.39 419.328C1021.46 419.106 1020.92 419.117 1020.82 419.155C1020.42 419.328 1020.1 419.643 1019.92 420.039C1019.8 420.28 1020.41 420.345 1020.53 420.226C1020.8 419.992 1020.99 419.68 1021.07 419.335C1021.12 419.118 1020.6 419.118 1020.5 419.163C1020.35 419.236 1020.2 419.32 1020.06 419.415L1020.67 419.602C1020.79 419.302 1021.07 419.183 1021.13 418.854C1021.17 418.622 1020.61 418.62 1020.51 418.711C1020.31 418.876 1020.11 419.435 1019.86 419.471L1020.28 419.534C1020.18 419.427 1020.12 419.289 1020.11 419.144C1020.11 418.999 1020.15 418.856 1020.23 418.739L1019.8 418.82C1020.02 418.857 1019.93 419.344 1019.85 419.415L1020.32 419.395C1020.11 419.1 1019.92 418.786 1019.76 418.458C1019.68 418.523 1020.07 419.095 1019.75 419.246L1020.32 419.418C1020.42 418.68 1020.86 419.008 1021.36 419.078C1021.91 419.12 1022.46 419.12 1023 419.078L1022.6 418.831C1022.44 419.151 1022 419.258 1021.7 419.388C1021.22 419.588 1020.57 420.048 1020.03 419.688C1019.17 419.112 1019.6 418.188 1019.72 417.388C1019.74 417.248 1019.48 417.197 1019.39 417.188L1019.32 417.179C1019.23 417.169 1019.04 417.179 1018.99 417.279L1018.95 417.353C1018.82 417.583 1019.49 417.702 1019.59 417.502L1019.6 417.503Z" fill="white"/>
    <path opacity="0.6" d="M1018.9 416.904C1018.81 417.247 1018.79 417.605 1018.84 417.957C1018.79 418.282 1018.86 418.614 1019.05 418.884C1019.15 419.009 1019.67 419.084 1019.69 418.855C1019.72 418.565 1019.52 418.405 1019.41 418.155C1019.28 417.778 1019.3 417.364 1019.46 417C1019.53 416.81 1018.87 416.7 1018.8 416.9C1018.65 417.275 1018.16 418.04 1018.44 418.446C1018.55 418.567 1018.7 418.643 1018.86 418.658C1019.02 418.673 1019.18 418.626 1019.31 418.526C1019.74 418.101 1019.71 416.326 1018.77 416.785C1018.5 416.912 1018.44 417.323 1018.43 417.585C1018.51 418.179 1018.79 418.728 1019.23 419.134C1019.81 419.721 1021.2 419.923 1021.7 419.144C1021.84 418.933 1021.18 418.8 1021.05 418.994C1020.32 420.118 1018.96 418.17 1019.16 417.333C1019.17 417.302 1019.24 417.085 1019.24 417.087L1018.86 417.112L1018.88 417.357C1018.9 417.576 1018.88 417.796 1018.83 418.009C1018.78 418.171 1018.59 418.349 1018.89 418.253C1019.18 418.164 1018.98 418.222 1019.08 418.029C1019.23 417.735 1019.32 417.364 1019.45 417.05L1018.78 416.945C1018.66 417.229 1018.62 417.539 1018.66 417.845C1018.71 418.156 1019.04 418.507 1019.01 418.804L1019.65 418.775C1019.45 418.522 1019.53 418.198 1019.52 417.9C1019.47 417.622 1019.48 417.337 1019.55 417.063C1019.65 416.812 1018.98 416.71 1018.9 416.914V416.904Z" fill="white"/>
    <path opacity="0.6" d="M1023.07 407.128C1023.88 405.177 1024.53 403.164 1025.02 401.109C1025.33 399.921 1026.21 397.509 1025.59 396.333C1025.52 396.247 1025.41 396.19 1025.3 396.172C1025.19 396.154 1025.07 396.175 1024.97 396.233C1023.87 397.033 1025.18 399.278 1026.03 399.764C1027.6 400.664 1029.64 399.51 1030.45 398.114C1030.59 397.882 1029.93 397.796 1029.8 397.965C1029.07 398.922 1028.15 401.252 1029.55 402.091C1030.82 402.846 1031.94 401.281 1032.84 400.636C1033.1 400.448 1032.43 400.322 1032.26 400.412C1031.59 400.86 1030.98 401.386 1030.43 401.979C1029.72 402.618 1028.98 403.204 1028.32 403.886C1026.97 405.247 1025.95 406.898 1025.34 408.713C1025.28 408.913 1025.94 409.013 1026.03 408.774L1026.05 408.704C1026.12 408.513 1025.46 408.404 1025.37 408.643L1025.34 408.713L1026.03 408.774C1026.66 406.919 1027.72 405.239 1029.13 403.874C1030.22 402.644 1031.47 401.555 1032.83 400.633L1032.26 400.409C1031.72 400.796 1030.44 402.501 1029.66 401.409C1029.03 400.542 1029.94 398.78 1030.45 398.109L1029.8 397.96C1029.57 398.438 1029.21 398.839 1028.76 399.117C1028.56 399.274 1028.33 399.371 1028.08 399.396C1027.83 399.421 1027.58 399.372 1027.36 399.256C1026.48 399.596 1025.9 399.35 1025.62 398.517C1025.38 398.027 1024.98 396.859 1025.54 396.452L1024.92 396.352C1025.52 397.485 1024.63 399.893 1024.34 401.036C1023.86 403.06 1023.22 405.043 1022.42 406.966C1022.32 407.212 1022.98 407.318 1023.07 407.115L1023.07 407.128Z" fill="white"/>
    <path opacity="0.6" d="M1028.18 380.802C1028.03 379.269 1028.08 377.723 1028.32 376.202C1028.42 374.687 1028.62 373.18 1028.92 371.693C1028.97 371.479 1028.3 371.393 1028.24 371.632C1027.94 373.119 1027.73 374.626 1027.64 376.142C1027.4 377.663 1027.35 379.209 1027.5 380.742C1027.54 380.993 1028.21 381.005 1028.18 380.802Z" fill="white"/>
    <path opacity="0.6" d="M1037.74 382.086C1038.42 380.373 1039.28 378.735 1040.3 377.199C1041.2 375.779 1041.85 374.219 1042.75 372.813C1042.89 372.602 1042.23 372.469 1042.1 372.664C1041.2 374.07 1040.55 375.63 1039.65 377.049C1038.63 378.585 1037.77 380.223 1037.09 381.937C1036.99 382.192 1037.66 382.289 1037.74 382.086V382.086Z" fill="white"/>
    <path opacity="0.6" d="M1043.33 390.385C1043.63 389.705 1044.83 389.123 1045.39 388.729C1046.42 388.007 1047.36 387.17 1048.19 386.234C1048.34 386.065 1047.7 385.91 1047.54 386.085C1046.54 387.166 1045.41 388.126 1044.18 388.944C1043.7 389.278 1042.92 389.68 1042.68 390.236C1042.57 390.482 1043.24 390.589 1043.33 390.385H1043.33Z" fill="white"/>
    </g>
    </g>
    <defs>
    <filter id="filter0_d" x="459" y="342" width="208.984" height="142.29" filterUnits="userSpaceOnUse" color-interpolation-filters="sRGB">
    <feFlood flood-opacity="0" result="BackgroundImageFix"/>
    <feColorMatrix in="SourceAlpha" type="matrix" values="0 0 0 0 0 0 0 0 0 0 0 0 0 0 0 0 0 0 127 0" result="hardAlpha"/>
    <feOffset dx="1" dy="2"/>
    <feGaussianBlur stdDeviation="2"/>
    <feComposite in2="hardAlpha" operator="out"/>
    <feColorMatrix type="matrix" values="0 0 0 0 0 0 0 0 0 0 0 0 0 0 0 0 0 0 0.25 0"/>
    <feBlend mode="normal" in2="BackgroundImageFix" result="effect1_dropShadow"/>
    <feBlend mode="normal" in="SourceGraphic" in2="effect1_dropShadow" result="shape"/>
    </filter>
    <filter id="filter1_d" x="868" y="342" width="208.984" height="142.29" filterUnits="userSpaceOnUse" color-interpolation-filters="sRGB">
    <feFlood flood-opacity="0" result="BackgroundImageFix"/>
    <feColorMatrix in="SourceAlpha" type="matrix" values="0 0 0 0 0 0 0 0 0 0 0 0 0 0 0 0 0 0 127 0" result="hardAlpha"/>
    <feOffset dx="1" dy="2"/>
    <feGaussianBlur stdDeviation="2"/>
    <feComposite in2="hardAlpha" operator="out"/>
    <feColorMatrix type="matrix" values="0 0 0 0 0 0 0 0 0 0 0 0 0 0 0 0 0 0 0.25 0"/>
    <feBlend mode="normal" in2="BackgroundImageFix" result="effect1_dropShadow"/>
    <feBlend mode="normal" in="SourceGraphic" in2="effect1_dropShadow" result="shape"/>
    </filter>
    </defs>
    </svg>
