<?xml version="1.0" encoding="UTF-8" standalone="no"?>
<svg width="124px" height="124px" viewBox="0 0 124 124" version="1.1" xmlns="http://www.w3.org/2000/svg" xmlns:xlink="http://www.w3.org/1999/xlink">
    <!-- Generator: Sketch 46.2 (44496) - http://www.bohemiancoding.com/sketch -->
    <title>icon kosten</title>
    <desc>Created with Sketch.</desc>
    <defs></defs>
    <g id="Pages" stroke="none" stroke-width="1" fill="none" fill-rule="evenodd">
        <g id="Startseite-V2-Copy-5" transform="translate(-907.000000, -1860.000000)">
            <g id="Group-4" transform="translate(169.000000, 1105.000000)">
                <g id="Monitoring" transform="translate(660.000000, 702.000000)">
                    <g id="icon-kosten" transform="translate(78.000000, 53.000000)">
                        <path d="M62,0 C96.2416142,0 124,27.7583858 124,62 C124,96.2416142 96.2416142,124 62,124 C27.7583858,124 0,96.2416142 0,62 C0,27.7583858 27.7583858,0 62,0 Z" id="Fill-26" fill="#FFFFFF"></path>
                        <g id="Page-1" transform="translate(17.000000, 23.000000)" stroke="#002F47" stroke-width="2" stroke-linecap="round" stroke-linejoin="round">
                            <path d="M44.2392433,6.42832967 C40.9810035,6.42832967 37.8348137,6.82763107 34.8292358,7.49898396 C32.5245199,3.43356923 28.1655531,0.684532714 23.1496653,0.684532714 C20.7021406,0.684532714 18.4171983,1.35369164 16.4398444,2.49016484 C19.9287755,4.50861144 22.4290297,8.04747488 23.0156447,12.2028421 C14.9809966,17.0580838 9.38288801,24.5767974 8.09321384,33.2319842 L0.142054062,33.2319842 L0.142054062,48.5480447 L10.483615,48.5480447 C15.8905794,59.772363 28.9542976,67.6947659 44.2392433,67.6947659 C64.3599179,67.6947659 80.6686936,53.9824928 80.6686936,37.0626448 C80.6686936,20.1471847 64.3599179,6.42832967 44.2392433,6.42832967 Z" id="Stroke-1"></path>
                            <path d="M21.2322912,29.4026399 C22.291274,29.4026399 23.1503245,30.2604797 23.1503245,31.3179702 C23.1503245,32.3732668 22.291274,33.2311066 21.2322912,33.2311066 C20.1733083,33.2311066 19.3142579,32.3732668 19.3142579,31.3179702 C19.3142579,30.2604797 20.1733083,29.4026399 21.2322912,29.4026399 Z" id="Stroke-3"></path>
                            <path d="M61.4949518,64.7612171 L61.4949518,72.863525 M26.9835349,64.886273 L26.9835349,72.863525" id="Stroke-5"></path>
                            <path d="M42.3220889,16.0653152 C49.148354,15.6133587 55.9306779,17.5725683 61.4958306,21.7454872" id="Stroke-7"></path>
                            <path d="M80.6686936,34.4849568 C82.0462501,34.4849568 82.0462501,38.888242 83.4238067,38.888242 C84.7991662,38.888242 84.7991662,34.4849568 86.1745257,34.4849568 C87.5520822,34.4849568 87.5520822,38.888242 88.9296388,38.888242 C90.3115895,38.888242 90.3115895,34.4849568 91.6935401,34.4849568 C93.0732938,34.4849568 93.0732938,38.888242 94.4552444,38.888242" id="Stroke-9"></path>
                        </g>
                    </g>
                </g>
            </g>
        </g>
    </g>
</svg>