<svg xmlns="http://www.w3.org/2000/svg" width="666.172" height="380.361"><defs><style>.cls-1{fill:#d1ecfb;fill-rule:evenodd;opacity:.3}.cls-7{fill:none;stroke:#000;stroke-linecap:round;stroke-linejoin:round;stroke-width:1.2651px}.cls-8{fill:#c2d64c}.cls-9{fill:#fff;opacity:.4}.cls-10{fill:#002f47}.cls-11{fill:#ffd301}.cls-12{fill:#15b0bf}.cls-13{fill:#ff931e}</style></defs><g id="clouds"><path d="M632.31 33.853a115.634 115.634 0 0 0-163.5 0q-.556.556-1.103 1.118-2.274-2.765-4.858-5.353-1.34-1.339-2.73-2.594a76.92 76.92 0 0 0-130.316 36.038 42.113 42.113 0 1 0 26.423 77.078 76.935 76.935 0 0 0 82.567 9.31c.357-.146.717-.287 1.073-.44A115.612 115.612 0 1 0 632.31 33.854z" class="cls-1"/><path d="M221.113 170.269a88.81 88.81 0 1 0 56.498-101.51 67.32 67.32 0 0 0-116.13.31 81.848 81.848 0 1 0-5.786 54.876 67.34 67.34 0 0 0 65.418 46.324z" class="cls-1"/></g><g id="ad_ons" data-name="ad ons"><path fill="#81d4dc" d="M230.838 260.769h240.704v119.592H230.838z"/><path fill="#1d1d1b" d="M237.924 267.855h226.532v105.42H237.924z" opacity=".05"/><path fill="#1d1d1b" d="M461.621 270.69v99.75H240.758v-99.75h220.863m2.835-2.835H237.924v105.42h226.532v-105.42z" opacity=".1"/><path d="M351.85 276.164a3.764 3.764 0 0 0-3.765 3.766v82.525a3.766 3.766 0 1 0 7.532 0V279.93a3.764 3.764 0 0 0-3.766-3.766zm-18.764 0a3.764 3.764 0 0 0-3.766 3.766v82.525a3.766 3.766 0 1 0 7.532 0V279.93a3.764 3.764 0 0 0-3.766-3.766zm-18.699 0a3.764 3.764 0 0 0-3.766 3.766v82.525a3.766 3.766 0 1 0 7.533 0V279.93a3.852 3.852 0 0 0-3.767-3.766zm-18.764 0a3.764 3.764 0 0 0-3.766 3.766v82.525a3.766 3.766 0 1 0 7.532 0V279.93a3.808 3.808 0 0 0-3.766-3.766zm131.287 0a3.764 3.764 0 0 0-3.766 3.766v82.525a3.766 3.766 0 1 0 7.532 0V279.93a3.852 3.852 0 0 0-3.766-3.766zm18.698 0a3.764 3.764 0 0 0-3.766 3.766v82.525a3.766 3.766 0 1 0 7.533 0V279.93a3.764 3.764 0 0 0-3.767-3.766zm-168.75 0a3.764 3.764 0 0 0-3.766 3.766v82.525a3.766 3.766 0 1 0 7.532 0V279.93a3.807 3.807 0 0 0-3.766-3.766zm-18.765 0a3.764 3.764 0 0 0-3.766 3.766v82.525a3.766 3.766 0 1 0 7.532 0V279.93a3.764 3.764 0 0 0-3.766-3.766zm150.052 0a3.764 3.764 0 0 0-3.766 3.766v82.525a3.766 3.766 0 1 0 7.532 0V279.93a3.808 3.808 0 0 0-3.766-3.766zm-18.765 0a3.764 3.764 0 0 0-3.766 3.766v82.525a3.766 3.766 0 1 0 7.532 0V279.93a3.807 3.807 0 0 0-3.766-3.766zm-18.764 0a3.764 3.764 0 0 0-3.767 3.766v82.525a3.764 3.764 0 0 0 3.767 3.767 3.723 3.723 0 0 0 3.766-3.767V279.93a3.808 3.808 0 0 0-3.766-3.766z" fill="#7dadba"/><path d="M351.19 275.503a3.764 3.764 0 0 0-3.766 3.767v82.525a3.766 3.766 0 1 0 7.532 0V279.27a3.764 3.764 0 0 0-3.766-3.767zm-18.765 0a3.764 3.764 0 0 0-3.766 3.767v82.525a3.766 3.766 0 1 0 7.532 0V279.27a3.764 3.764 0 0 0-3.766-3.767zm-18.698 0a3.764 3.764 0 0 0-3.766 3.767v82.525a3.766 3.766 0 1 0 7.532 0V279.27a3.852 3.852 0 0 0-3.766-3.767zm-18.765 0a3.764 3.764 0 0 0-3.766 3.767v82.525a3.766 3.766 0 1 0 7.532 0V279.27a3.808 3.808 0 0 0-3.766-3.767zm131.287 0a3.764 3.764 0 0 0-3.766 3.767v82.525a3.766 3.766 0 1 0 7.532 0V279.27a3.852 3.852 0 0 0-3.766-3.767zm18.699 0a3.764 3.764 0 0 0-3.766 3.767v82.525a3.766 3.766 0 1 0 7.532 0V279.27a3.764 3.764 0 0 0-3.766-3.767zm-168.751 0a3.764 3.764 0 0 0-3.766 3.767v82.525a3.766 3.766 0 1 0 7.532 0V279.27a3.807 3.807 0 0 0-3.766-3.767zm-18.764 0a3.764 3.764 0 0 0-3.767 3.767v82.525a3.766 3.766 0 1 0 7.533 0V279.27a3.764 3.764 0 0 0-3.766-3.767zm150.051 0a3.764 3.764 0 0 0-3.766 3.767v82.525a3.766 3.766 0 1 0 7.532 0V279.27a3.808 3.808 0 0 0-3.766-3.767zm-18.764 0a3.764 3.764 0 0 0-3.767 3.767v82.525a3.766 3.766 0 1 0 7.533 0V279.27a3.807 3.807 0 0 0-3.767-3.767zm-18.765 0a3.764 3.764 0 0 0-3.766 3.767v82.525a3.764 3.764 0 0 0 3.766 3.766 3.723 3.723 0 0 0 3.766-3.766V279.27a3.808 3.808 0 0 0-3.766-3.767z" fill="#91eaf3"/><path d="M251.13 250.843a3.233 3.233 0 1 1 3.234 3.234v1.602" class="cls-7"/><path d="M312.742 100.91a30.806 30.806 0 1 1-30.805-30.806 30.805 30.805 0 0 1 30.805 30.806z" class="cls-8"/><path d="M280.56 85.37a9.627 9.627 0 1 1-9.627-9.626 9.628 9.628 0 0 1 9.628 9.627z" class="cls-9"/><path d="M288.675 138.703h-14.854l4.952-9.16h4.95l4.952 9.16z" class="cls-8"/><path d="M287.025 132.448a1.11 1.11 0 0 1-1.109 1.108h-9.128a1.11 1.11 0 0 1-1.11-1.108 1.11 1.11 0 0 1 1.11-1.11h9.128a1.109 1.109 0 0 1 1.11 1.11z"/><path d="M281.248 133.556L254.364 247.61" class="cls-7"/><path d="M249.32 87.355a30.806 30.806 0 1 1-30.805-30.806 30.805 30.805 0 0 1 30.805 30.806z" class="cls-10"/><path d="M217.14 71.816a9.627 9.627 0 1 1-9.628-9.628 9.628 9.628 0 0 1 9.627 9.628z" class="cls-9"/><path d="M225.253 125.147h-14.854l4.953-9.159h4.95l4.951 9.159z" class="cls-10"/><path d="M223.604 118.892a1.11 1.11 0 0 1-1.11 1.108h-9.128a1.11 1.11 0 0 1-1.11-1.108 1.11 1.11 0 0 1 1.11-1.11h9.129a1.109 1.109 0 0 1 1.109 1.11z"/><path d="M217.826 120.001l36.537 130.102" class="cls-7"/><path d="M287.89 163.229a33.886 33.886 0 1 1-33.885-33.886 33.886 33.886 0 0 1 33.886 33.886z" class="cls-11"/><path d="M252.492 146.136a10.59 10.59 0 1 1-10.59-10.59 10.59 10.59 0 0 1 10.59 10.59z" class="cls-9"/><path d="M261.417 204.801h-16.339l5.447-10.076h5.446l5.446 10.076z" class="cls-11"/><path d="M259.603 197.92a1.22 1.22 0 0 1-1.22 1.22h-10.041a1.221 1.221 0 0 1-1.222-1.22 1.22 1.22 0 0 1 1.222-1.22h10.04a1.22 1.22 0 0 1 1.22 1.22z"/><path d="M253.247 199.139v48.471m179.424 3.233a3.233 3.233 0 1 1 3.233 3.234v1.602" class="cls-7"/><path d="M466.232 103.091a30.806 30.806 0 1 1-30.805-30.806 30.805 30.805 0 0 1 30.805 30.806z" class="cls-11"/><path d="M434.051 87.552a9.627 9.627 0 1 1-9.627-9.627 9.628 9.628 0 0 1 9.627 9.627z" class="cls-9"/><path d="M442.165 140.884h-14.854l4.953-9.16h4.95l4.951 9.16z" class="cls-11"/><path d="M440.516 134.629a1.11 1.11 0 0 1-1.11 1.108h-9.128a1.11 1.11 0 0 1-1.11-1.108 1.11 1.11 0 0 1 1.11-1.11h9.129a1.109 1.109 0 0 1 1.109 1.11z"/><path d="M434.738 135.737v115.907" class="cls-7"/><path d="M485.369 154.826a30.806 30.806 0 1 1-30.805-30.805 30.805 30.805 0 0 1 30.805 30.805z" class="cls-12"/><path d="M453.188 139.287a9.627 9.627 0 1 1-9.628-9.627 9.628 9.628 0 0 1 9.628 9.627z" class="cls-9"/><path d="M461.302 192.619h-14.854l4.952-9.16h4.95l4.952 9.16z" class="cls-12"/><path d="M459.652 186.364a1.11 1.11 0 0 1-1.109 1.108h-9.128a1.11 1.11 0 0 1-1.11-1.108 1.11 1.11 0 0 1 1.11-1.11h9.128a1.109 1.109 0 0 1 1.11 1.11z"/><path d="M453.875 187.472l-21.204 66.772" class="cls-7"/><path d="M434.598 139.573a30.806 30.806 0 1 1-30.805-30.805 30.805 30.805 0 0 1 30.805 30.805z" class="cls-13"/><path d="M402.417 124.034a9.627 9.627 0 1 1-9.627-9.627 9.628 9.628 0 0 1 9.627 9.627z" class="cls-9"/><path d="M410.531 177.366h-14.854l4.952-9.16h4.951l4.951 9.16z" class="cls-13"/><path d="M408.882 171.11a1.11 1.11 0 0 1-1.11 1.109h-9.128a1.11 1.11 0 0 1-1.11-1.108 1.11 1.11 0 0 1 1.11-1.11h9.129a1.109 1.109 0 0 1 1.109 1.11z"/><path d="M403.104 172.219l33.485 77.884" class="cls-7"/></g></svg>