<svg xmlns="http://www.w3.org/2000/svg" width="474.252" height="433.663" viewBox="0 0 474.252 433.663"><defs><style>.cls-4{opacity:.1}.cls-2{fill:#81d4dc}.cls-3,.cls-4{fill:#1d1d1b}.cls-3{opacity:.05}.cls-5{fill:#7dadba}.cls-6{fill:#91eaf3}.cls-9{fill:#ffd800}.cls-10{opacity:.3}.cls-11{fill:#7a5022}.cls-12,.cls-13,.cls-14,.cls-17,.cls-18,.cls-19,.cls-24,.cls-25,.cls-26,.cls-31,.cls-32,.cls-33,.cls-34,.cls-35,.cls-39,.cls-40,.cls-43,.cls-49,.cls-50,.cls-51,.cls-53,.cls-58,.cls-59,.cls-60,.cls-61,.cls-62,.cls-63,.cls-65,.cls-66,.cls-67{fill:none}.cls-12,.cls-24,.cls-65{stroke:#666}.cls-12,.cls-13,.cls-14,.cls-17,.cls-18,.cls-19,.cls-24,.cls-25,.cls-26,.cls-31,.cls-32,.cls-33,.cls-34,.cls-35,.cls-39,.cls-40,.cls-43,.cls-49,.cls-50,.cls-51,.cls-53,.cls-58,.cls-59,.cls-60,.cls-61,.cls-62,.cls-63,.cls-65,.cls-66,.cls-67{stroke-miterlimit:10}.cls-12,.cls-13,.cls-14{stroke-width:5.66283px}.cls-13,.cls-14,.cls-25,.cls-26,.cls-32,.cls-33,.cls-39,.cls-40,.cls-49,.cls-50,.cls-59,.cls-60,.cls-66,.cls-67{stroke:#1d1d1b}.cls-13,.cls-17,.cls-18,.cls-25,.cls-32,.cls-34,.cls-35,.cls-39,.cls-43,.cls-49,.cls-53,.cls-59,.cls-61,.cls-62,.cls-66{stroke-linecap:round}.cls-15{fill:#de9462}.cls-16,.cls-22{opacity:.2}.cls-17,.cls-34,.cls-51{stroke:#2c5871}.cls-17,.cls-18,.cls-19{stroke-width:4.04488px}.cls-18,.cls-19,.cls-31,.cls-35,.cls-43,.cls-53,.cls-58,.cls-62,.cls-63{stroke:#ef9f6a}.cls-20{fill:#15b0bf}.cls-21{fill:#ef9f6a}.cls-22{fill:#232323}.cls-23{fill:#ffd301}.cls-24,.cls-25,.cls-26{stroke-width:6.33076px}.cls-27{fill:#736357}.cls-31,.cls-32,.cls-33{stroke-width:4.57017px}.cls-34,.cls-35{stroke-width:3.26441px}.cls-39,.cls-40{stroke-width:4.51391px}.cls-43{stroke-width:3.22422px}.cls-47{fill:#2c5871}.cls-49,.cls-50,.cls-51{stroke-width:5.40674px}.cls-52{fill:#c2d64c}.cls-53{stroke-width:3.86196px}.cls-57{fill:#402313}.cls-58,.cls-59,.cls-60{stroke-width:5.76191px}.cls-61{stroke:#c2d64c}.cls-61,.cls-62,.cls-63{stroke-width:4.11565px}.cls-64{fill:#423228}.cls-65,.cls-66,.cls-67{stroke-width:6.33571px}</style></defs><g id="containers"><path opacity=".1" d="M378.769 333.8h-43.947v-13.203l43.947 13.203z"/></g><g id="community"><g id="container"><path class="cls-2" d="M169.614 115.252h219.614v109.114H169.614z"/><path class="cls-3" d="M176.079 121.718h206.684v96.183H176.079z"/><path class="cls-4" d="M380.177 124.304v91.01H178.665v-91.01h201.512m2.586-2.586H176.08V217.9h206.684v-96.183z"/><path class="cls-5" d="M280.024 129.299a3.435 3.435 0 0 0-3.436 3.436v75.294a3.436 3.436 0 1 0 6.872 0v-75.294a3.434 3.434 0 0 0-3.436-3.436zM262.904 129.299a3.435 3.435 0 0 0-3.436 3.436v75.294a3.436 3.436 0 1 0 6.872 0v-75.294a3.435 3.435 0 0 0-3.436-3.436zM245.843 129.299a3.435 3.435 0 0 0-3.436 3.436v75.294a3.436 3.436 0 1 0 6.872 0v-75.294a3.515 3.515 0 0 0-3.436-3.436zM228.723 129.299a3.435 3.435 0 0 0-3.436 3.436v75.294a3.436 3.436 0 1 0 6.872 0v-75.294a3.474 3.474 0 0 0-3.436-3.436zM348.507 129.299a3.435 3.435 0 0 0-3.436 3.436v75.294a3.436 3.436 0 1 0 6.872 0v-75.294a3.515 3.515 0 0 0-3.436-3.436zM365.567 129.299a3.435 3.435 0 0 0-3.436 3.436v75.294a3.436 3.436 0 1 0 6.872 0v-75.294a3.435 3.435 0 0 0-3.436-3.436zM211.602 129.299a3.435 3.435 0 0 0-3.436 3.436v75.294a3.436 3.436 0 1 0 6.872 0v-75.294a3.474 3.474 0 0 0-3.436-3.436zM194.482 129.299a3.435 3.435 0 0 0-3.437 3.436v75.294a3.436 3.436 0 1 0 6.873 0v-75.294a3.435 3.435 0 0 0-3.436-3.436zM331.386 129.299a3.435 3.435 0 0 0-3.436 3.436v75.294a3.436 3.436 0 1 0 6.872 0v-75.294a3.474 3.474 0 0 0-3.436-3.436zM314.265 129.299a3.435 3.435 0 0 0-3.436 3.436v75.294a3.436 3.436 0 1 0 6.873 0v-75.294a3.474 3.474 0 0 0-3.437-3.436zM297.145 129.299a3.435 3.435 0 0 0-3.436 3.436v75.294a3.435 3.435 0 0 0 3.436 3.436 3.397 3.397 0 0 0 3.436-3.436v-75.294a3.474 3.474 0 0 0-3.436-3.436z"/><path class="cls-6" d="M279.421 128.696a3.434 3.434 0 0 0-3.436 3.436v75.294a3.436 3.436 0 1 0 6.873 0v-75.294a3.434 3.434 0 0 0-3.437-3.436zM262.3 128.696a3.434 3.434 0 0 0-3.435 3.436v75.294a3.436 3.436 0 1 0 6.872 0v-75.294a3.435 3.435 0 0 0-3.436-3.436zM245.24 128.696a3.434 3.434 0 0 0-3.436 3.436v75.294a3.436 3.436 0 1 0 6.873 0v-75.294a3.515 3.515 0 0 0-3.437-3.436zM228.12 128.696a3.434 3.434 0 0 0-3.436 3.436v75.294a3.436 3.436 0 1 0 6.872 0v-75.294a3.474 3.474 0 0 0-3.436-3.436zM347.904 128.696a3.434 3.434 0 0 0-3.436 3.436v75.294a3.436 3.436 0 1 0 6.872 0v-75.294a3.515 3.515 0 0 0-3.436-3.436zM364.964 128.696a3.434 3.434 0 0 0-3.436 3.436v75.294a3.436 3.436 0 1 0 6.872 0v-75.294a3.435 3.435 0 0 0-3.436-3.436zM211 128.696a3.434 3.434 0 0 0-3.437 3.436v75.294a3.436 3.436 0 1 0 6.872 0v-75.294a3.474 3.474 0 0 0-3.436-3.436zM193.879 128.696a3.434 3.434 0 0 0-3.436 3.436v75.294a3.436 3.436 0 1 0 6.872 0v-75.294a3.435 3.435 0 0 0-3.436-3.436zM330.783 128.696a3.434 3.434 0 0 0-3.436 3.436v75.294a3.436 3.436 0 1 0 6.872 0v-75.294a3.474 3.474 0 0 0-3.436-3.436zM313.663 128.696a3.434 3.434 0 0 0-3.437 3.436v75.294a3.436 3.436 0 1 0 6.873 0v-75.294a3.474 3.474 0 0 0-3.436-3.436zM296.542 128.696a3.434 3.434 0 0 0-3.436 3.436v75.294a3.435 3.435 0 0 0 3.436 3.437 3.397 3.397 0 0 0 3.436-3.437v-75.294a3.474 3.474 0 0 0-3.436-3.436z"/><path fill="#6aa0aa" d="M169.614 221.16h219.614v3.206H169.614z"/></g><g id="container_unten" data-name="container unten"><path class="cls-2" d="M113.821 224.687h219.614v109.114H113.821z"/><path class="cls-3" d="M120.286 231.152H326.97v96.183H120.286z"/><path class="cls-4" d="M324.384 233.738v91.01H122.872v-91.01h201.512m2.586-2.586H120.286v96.183H326.97v-96.183z"/><path class="cls-5" d="M224.231 238.733a3.435 3.435 0 0 0-3.436 3.436v75.294a3.436 3.436 0 1 0 6.872 0V242.17a3.434 3.434 0 0 0-3.436-3.436zM207.11 238.733a3.435 3.435 0 0 0-3.436 3.436v75.295a3.436 3.436 0 1 0 6.873 0v-75.295a3.435 3.435 0 0 0-3.436-3.436zM190.05 238.733a3.435 3.435 0 0 0-3.436 3.436v75.295a3.436 3.436 0 1 0 6.872 0v-75.295a3.515 3.515 0 0 0-3.436-3.436zM172.93 238.733a3.435 3.435 0 0 0-3.436 3.436v75.295a3.436 3.436 0 1 0 6.872 0v-75.295a3.474 3.474 0 0 0-3.436-3.436zM292.714 238.733a3.434 3.434 0 0 0-3.437 3.436v75.295a3.436 3.436 0 1 0 6.873 0v-75.295a3.515 3.515 0 0 0-3.436-3.436zM309.774 238.733a3.435 3.435 0 0 0-3.436 3.436v75.295a3.436 3.436 0 1 0 6.872 0v-75.295a3.435 3.435 0 0 0-3.436-3.436zM155.809 238.733a3.435 3.435 0 0 0-3.436 3.436v75.295a3.436 3.436 0 1 0 6.872 0v-75.295a3.474 3.474 0 0 0-3.436-3.436zM138.688 238.733a3.435 3.435 0 0 0-3.436 3.436v75.295a3.436 3.436 0 1 0 6.873 0v-75.295a3.435 3.435 0 0 0-3.437-3.436zM275.593 238.733a3.434 3.434 0 0 0-3.436 3.436v75.295a3.436 3.436 0 1 0 6.872 0v-75.295a3.474 3.474 0 0 0-3.436-3.436zM258.472 238.733a3.435 3.435 0 0 0-3.436 3.436v75.295a3.436 3.436 0 1 0 6.873 0v-75.295a3.474 3.474 0 0 0-3.437-3.436zM241.352 238.733a3.435 3.435 0 0 0-3.436 3.436v75.295a3.435 3.435 0 0 0 3.436 3.436 3.397 3.397 0 0 0 3.436-3.436v-75.295a3.474 3.474 0 0 0-3.436-3.436z"/><path class="cls-6" d="M223.628 238.13a3.434 3.434 0 0 0-3.436 3.436v75.295a3.436 3.436 0 1 0 6.872 0v-75.295a3.434 3.434 0 0 0-3.436-3.436zM206.508 238.13a3.434 3.434 0 0 0-3.436 3.436v75.295a3.436 3.436 0 1 0 6.872 0v-75.295a3.435 3.435 0 0 0-3.436-3.436zM189.447 238.13a3.434 3.434 0 0 0-3.436 3.436v75.295a3.436 3.436 0 1 0 6.873 0v-75.295a3.515 3.515 0 0 0-3.437-3.436zM172.327 238.13a3.434 3.434 0 0 0-3.436 3.436v75.295a3.436 3.436 0 1 0 6.872 0v-75.295a3.474 3.474 0 0 0-3.436-3.436zM292.11 238.13a3.434 3.434 0 0 0-3.435 3.436v75.295a3.436 3.436 0 1 0 6.872 0v-75.295a3.515 3.515 0 0 0-3.436-3.436zM309.171 238.13a3.434 3.434 0 0 0-3.436 3.436v75.295a3.436 3.436 0 1 0 6.872 0v-75.295a3.435 3.435 0 0 0-3.436-3.436zM155.206 238.13a3.434 3.434 0 0 0-3.436 3.436v75.295a3.436 3.436 0 1 0 6.872 0v-75.295a3.474 3.474 0 0 0-3.436-3.436zM138.086 238.13a3.434 3.434 0 0 0-3.437 3.436v75.295a3.436 3.436 0 1 0 6.873 0v-75.295a3.435 3.435 0 0 0-3.436-3.436zM274.99 238.13a3.434 3.434 0 0 0-3.436 3.436v75.295a3.436 3.436 0 1 0 6.872 0v-75.295a3.474 3.474 0 0 0-3.436-3.436zM257.87 238.13a3.434 3.434 0 0 0-3.437 3.436v75.295a3.436 3.436 0 1 0 6.873 0v-75.295a3.474 3.474 0 0 0-3.436-3.436zM240.749 238.13a3.434 3.434 0 0 0-3.436 3.436v75.295a3.435 3.435 0 0 0 3.436 3.436 3.397 3.397 0 0 0 3.436-3.436v-75.295a3.474 3.474 0 0 0-3.436-3.436z"/><path fill="#367089" d="M113.821 330.594h219.614v3.206H113.821z"/><path class="cls-4" d="M204.432 333.8l-34.818-109.113h164.753V333.8H204.432z"/></g><g id="paar2"><path class="cls-9" d="M67.614 230.824H2.945A2.952 2.952 0 0 0 0 233.842v19.916a3.001 3.001 0 0 0 2.945 3.075h49.677v5.373l3.993-5.373h11a3.18 3.18 0 0 0 3.153-3.075v-19.916a3.132 3.132 0 0 0-3.154-3.018z"/><g id="frau"><ellipse class="cls-10" cx="71.819" cy="357.052" rx="18.605" ry="3.095"/><path class="cls-11" d="M78.701 276.123h-4.476c0 2.33 1.814 4.35 4.476 5.368z"/><path class="cls-11" d="M78.782 279.416c0 2.973-3.214 5.383-7.177 5.383h-.312c-3.964 0-7.177-2.41-7.177-5.383v-2.647c0-3.012 3.255-5.454 7.27-5.454h.125c4.015 0 7.27 2.442 7.27 5.454z"/><path class="cls-11" d="M79.889 285.536c0 3.932-3.602 7.12-8.044 7.12s-8.044-3.189-8.044-7.12c0-3.933 3.602-7.12 8.044-7.12s8.044 3.187 8.044 7.12z"/><path class="cls-12" d="M68.234 324.867v27.92"/><path class="cls-13" d="M68.234 348.999v6.885"/><path class="cls-14" d="M68.234 345.763v6.885"/><path class="cls-12" d="M74.946 324.867v27.92"/><path class="cls-13" d="M74.946 348.999v6.885"/><path class="cls-14" d="M74.946 345.763v6.885"/><path class="cls-15" d="M69.56 291.051h4.061v4.061H69.56z"/><path class="cls-16" d="M71.59 292.13a5.88 5.88 0 0 1-2.03-.366v.951a5.816 5.816 0 0 0 4.06 0v-.95a5.88 5.88 0 0 1-2.03.366z"/><path class="cls-17" d="M60.223 329.909v-26.724c0-4.017 5.468-7.41 11.94-7.41"/><path class="cls-18" d="M60.223 331.853v-3.889"/><path class="cls-19" d="M60.223 329.426V307.47"/><path class="cls-17" d="M83.01 330.223v-26.724c0-4.016-5.468-7.41-11.94-7.41"/><path class="cls-18" d="M83.01 332.167v-3.889"/><path class="cls-19" d="M83.01 329.74v-21.956"/><path class="cls-20" d="M81.022 320.681H62.158v-17.473a9.432 9.432 0 0 1 9.432-9.432 9.432 9.432 0 0 1 9.432 9.432z"/><path id="_Pfad_" data-name="&lt;Pfad&gt;" class="cls-21" d="M77.494 286.41a5.904 5.904 0 1 1-11.808 0v-7.259h11.808z"/><path class="cls-22" d="M64.787 277.418v2.16c1.246.99 3.823 1.67 6.803 1.67 2.923 0 5.459-.655 6.731-1.614v-2.216z"/><ellipse class="cls-21" cx="77.494" cy="285.281" rx="1.239" ry="1.773"/><ellipse class="cls-21" cx="65.318" cy="285.281" rx="1.239" ry="1.773"/><circle id="_Pfad_2" data-name="&lt;Pfad&gt;" cx="74.857" cy="282.369" r=".581"/><circle id="_Pfad_3" data-name="&lt;Pfad&gt;" cx="68.815" cy="282.369" r=".581"/><path class="cls-11" d="M78.468 276.985s-9.337-.659-10.608 5.426c-3.266-5.468 1.392-7.422 4.09-6.987a55.136 55.136 0 0 1 6.518 1.561z"/><path class="cls-11" d="M77.237 275.672s-9.976-.651-11.247 5.435c-2.866-7.766 2.03-7.431 4.73-6.997a55.162 55.162 0 0 1 6.517 1.562z"/><path class="cls-23" d="M64.066 320.681h15.559v8.643H64.066z"/></g><g id="mann"><ellipse class="cls-10" cx="25.513" cy="357.052" rx="18.605" ry="3.095"/><path class="cls-24" d="M30.54 321.474l-9.004 29.886"/><path class="cls-25" d="M22.758 347.305l-2.22 7.37"/><path class="cls-26" d="M23.802 343.841l-2.221 7.37"/><path class="cls-24" d="M30.54 321.474v31.213"/><path class="cls-25" d="M30.54 348.452v7.697"/><path class="cls-26" d="M30.54 344.834v7.697"/><g class="cls-16"><path d="M27.374 342.956l-2.806 9.317-1.08 3.568 3.66-31.541.226-3.294v21.95z"/></g><path class="cls-15" transform="rotate(-180 30.54 285.938)" d="M28.27 283.668h4.54v4.54h-4.54z"/><path class="cls-5" d="M41.085 324.39h-21.09v-26.646A10.544 10.544 0 0 1 30.54 287.2a10.544 10.544 0 0 1 10.545 10.544z"/><path id="_Pfad_4" data-name="&lt;Pfad&gt;" class="cls-21" d="M37.14 278.48a6.6 6.6 0 0 1-13.2 0v-8.115h13.2z"/><path class="cls-16" d="M30.54 285.08a6.574 6.574 0 0 0 2.27-.41v1.064a6.501 6.501 0 0 1-4.54 0v-1.063a6.574 6.574 0 0 0 2.27.41z"/><circle id="_Pfad_5" data-name="&lt;Pfad&gt;" cx="34.735" cy="273.963" r=".649"/><path id="_Pfad_6" data-name="&lt;Pfad&gt;" class="cls-27" d="M39.29 266.19H24.007a2.16 2.16 0 0 0-2.217 2.096v7.701a2.16 2.16 0 0 0 2.217 2.097h.007a6.677 6.677 0 0 0 6.145-3.871 4.726 4.726 0 0 1 1.98-2.225 5.91 5.91 0 0 1 2.22-.583 5.365 5.365 0 0 0 4.93-5.212z"/><path id="_Pfad_7" data-name="&lt;Pfad&gt;" class="cls-21" d="M31.025 275.42a1.817 1.817 0 0 1-1.174 2.267 1.974 1.974 0 0 1-.868-3.797 1.817 1.817 0 0 1 2.042 1.53z"/><g class="cls-16"><path d="M29.41 290.846a2.26 2.26 0 0 1 2.26 2.26v12.097a3.17 3.17 0 0 0 3.166 3.165h6.249v4.522h-6.25a7.697 7.697 0 0 1-7.687-7.687v-12.096a2.26 2.26 0 0 1 2.261-2.261z"/></g><path d="M30.54 291.29v12.096a5.426 5.426 0 0 0 5.426 5.426h16.802" stroke-width="4.522" stroke="#b3b3b3" stroke-linecap="round" stroke-miterlimit="10" fill="none"/><path stroke-width="4.522" stroke="#ef9f6a" stroke-miterlimit="10" fill="none" d="M46.777 308.812h5.043"/><path stroke-width="4.522" stroke="#ef9f6a" stroke-linecap="round" stroke-miterlimit="10" fill="none" d="M50.394 308.812h3.235"/></g></g><g id="paar3"><path class="cls-9" d="M387.98 0h-64.668a2.952 2.952 0 0 0-2.945 3.018v19.916a3.001 3.001 0 0 0 2.945 3.075h49.677v5.373l3.993-5.373h10.999a3.18 3.18 0 0 0 3.154-3.075V3.018A3.132 3.132 0 0 0 387.98 0z"/><g id="frau-2" data-name="frau"><path class="cls-11" d="M356.725 49.107h-3.613c0 1.88 1.465 3.51 3.613 4.332z"/><path class="cls-11" d="M356.79 51.764c0 2.4-2.593 4.345-5.792 4.345h-.252c-3.199 0-5.792-1.946-5.792-4.345v-2.136c0-2.43 2.627-4.402 5.868-4.402h.1c3.24 0 5.868 1.971 5.868 4.402z"/><path class="cls-11" d="M357.684 56.703c0 3.173-2.907 5.746-6.492 5.746-3.586 0-6.492-2.573-6.492-5.746 0-3.174 2.906-5.746 6.492-5.746 3.585 0 6.492 2.572 6.492 5.746z"/><path class="cls-11" d="M356.537 49.802s-7.536-.532-8.561 4.38c-2.636-4.414 1.123-5.99 3.3-5.64a44.498 44.498 0 0 1 5.261 1.26z"/><path class="cls-11" d="M355.544 48.742s-8.052-.525-9.077 4.387c-2.314-6.268 1.638-5.998 3.816-5.647a44.52 44.52 0 0 1 5.26 1.26z"/><path class="cls-31" d="M348.277 88.446v22.532"/><path class="cls-32" d="M348.277 107.921v5.557"/><path class="cls-33" d="M348.277 105.309v5.557"/><path class="cls-31" d="M353.695 88.446v22.532"/><path class="cls-32" d="M353.695 107.921v5.557"/><path class="cls-33" d="M353.695 105.309v5.557"/><path class="cls-15" d="M349.347 61.154h3.278v3.278h-3.278z"/><path class="cls-16" d="M350.986 62.025a4.745 4.745 0 0 1-1.639-.295v.767a4.693 4.693 0 0 0 3.278 0v-.767a4.746 4.746 0 0 1-1.639.295z"/><path class="cls-34" d="M341.812 40.323V61.89c0 3.242 4.413 5.98 9.637 5.98"/><path class="cls-35" d="M341.812 38.753v3.139"/><path stroke-width="3.264" stroke="#ef9f6a" stroke-miterlimit="10" fill="none" d="M341.812 40.712v17.72"/><path class="cls-34" d="M360.203 39.935v21.568c0 3.241-4.413 5.98-9.637 5.98"/><path class="cls-35" d="M360.203 38.366v3.139"/><path stroke-width="3.264" fill="#ef9f6a" stroke="#ef9f6a" stroke-miterlimit="10" d="M360.203 40.325v17.719"/><path class="cls-20" d="M358.598 85.067h-15.224V70.966a7.612 7.612 0 0 1 7.612-7.612 7.612 7.612 0 0 1 7.612 7.612z"/><path id="_Pfad_8" data-name="&lt;Pfad&gt;" class="cls-21" d="M355.75 57.408a4.765 4.765 0 1 1-9.529 0V51.55h9.53z"/><path class="cls-22" d="M345.495 50.151v1.744a9.596 9.596 0 0 0 5.491 1.348 9.773 9.773 0 0 0 5.432-1.303v-1.789z"/><ellipse class="cls-21" cx="355.751" cy="56.498" rx="1" ry="1.431"/><ellipse class="cls-21" cx="345.924" cy="56.498" rx="1" ry="1.431"/><circle id="_Pfad_9" data-name="&lt;Pfad&gt;" cx="353.622" cy="54.147" r=".469"/><circle id="_Pfad_10" data-name="&lt;Pfad&gt;" cx="348.746" cy="54.147" r=".469"/><path class="cls-23" d="M362.28 99.712h-22.176l4.809-14.645h12.557l4.81 14.645z"/></g><g id="mann-2" data-name="mann"><path d="M396.25 128.125v-13.26a3.063 3.063 0 0 0-3.064-3.063h-16.128" stroke-width="4.514" stroke="#de9462" stroke-miterlimit="10" fill="none"/><path class="cls-39" d="M396.249 125.105v5.488"/><path class="cls-40" d="M396.249 122.526v5.488"/><path d="M397.585 129.372v-13.26a3.063 3.063 0 0 0-3.063-3.063h-16.128" stroke-width="4.514" stroke="#2c5871" stroke-miterlimit="10" fill="none"/><path class="cls-39" d="M397.585 126.352v5.488"/><path class="cls-40" d="M397.585 123.773v5.488"/><path d="M397.585 129.372v-13.26a3.063 3.063 0 0 0-3.063-3.063h-16.128" stroke="#efa47b" stroke-width="4.514" stroke-miterlimit="10" fill="none"/><path class="cls-39" d="M397.585 126.352v5.488"/><path class="cls-40" d="M397.585 123.773v5.488"/><path class="cls-15" transform="rotate(-180 379.012 79.033)" d="M377.394 77.415h3.237v3.237h-3.237z"/><path class="cls-23" d="M386.53 106.45h-15.036V87.45a7.518 7.518 0 0 1 7.518-7.518 7.518 7.518 0 0 1 7.519 7.518z"/><path id="_Pfad_11" data-name="&lt;Pfad&gt;" class="cls-21" d="M383.718 73.715a4.706 4.706 0 0 1-9.412 0V67.93h9.412z"/><path class="cls-16" d="M379.012 78.421a4.687 4.687 0 0 0 1.62-.291v.758a4.636 4.636 0 0 1-3.238 0v-.758a4.688 4.688 0 0 0 1.618.291z"/><circle id="_Pfad_12" data-name="&lt;Pfad&gt;" cx="382.003" cy="70.495" r=".463"/><g class="cls-16"><path d="M378.206 82.532a1.612 1.612 0 0 1 1.612 1.612v8.625a2.26 2.26 0 0 0 2.257 2.257h4.456v3.224h-4.456a5.488 5.488 0 0 1-5.48-5.48v-8.626a1.612 1.612 0 0 1 1.611-1.612z"/></g><path class="cls-43" d="M379.012 82.849v8.625a3.87 3.87 0 0 0 3.87 3.869h11.98"/><path stroke="#fff" stroke-width="3.224" stroke-linecap="round" stroke-miterlimit="10" fill="none" d="M379.012 82.849v3.465"/><path stroke="#fff" stroke-width="3.224" stroke-miterlimit="10" fill="none" d="M379.012 85.663v3.465"/><path stroke-width="3.224" stroke="#ef9f6a" stroke-miterlimit="10" fill="none" d="M390.589 95.343h3.597"/><path class="cls-43" d="M393.169 95.343h2.306"/><path class="cls-47" d="M371.494 106.45h9.808a5.23 5.23 0 0 1 5.229 5.229v3.697h-15.037v-8.926z" transform="rotate(-180 379.012 110.913)"/><path class="cls-47" d="M384.954 106.45h2.804a6.675 6.675 0 0 1 6.675 6.675v2.25h-9.48v-8.925z"/></g></g><g id="mann-3" data-name="mann"><path d="M130.318 239.106v-15.882a3.669 3.669 0 0 1 3.67-3.669h19.317" stroke-width="5.407" stroke="#234959" stroke-miterlimit="10" fill="none"/><path class="cls-49" d="M130.318 235.489v6.574"/><path class="cls-50" d="M130.318 232.399v6.574"/><path class="cls-51" d="M128.718 240.6v-15.882a3.669 3.669 0 0 1 3.67-3.67h19.317"/><path class="cls-49" d="M128.718 236.983v6.574"/><path class="cls-50" d="M128.718 233.893v6.574"/><path class="cls-51" d="M128.718 240.6v-15.882a3.669 3.669 0 0 1 3.67-3.67h19.317"/><path class="cls-49" d="M128.718 236.983v6.574"/><path class="cls-50" d="M128.718 233.893v6.574"/><path class="cls-15" d="M149.026 178.366h3.878v3.878h-3.878z"/><path class="cls-52" d="M141.96 190.388a9.005 9.005 0 0 1 9.005-9.006 9.005 9.005 0 0 1 9.005 9.006v22.756h-18.01z"/><path id="_Pfad_13" data-name="&lt;Pfad&gt;" class="cls-21" d="M145.328 173.935a5.637 5.637 0 1 0 11.273 0v-6.93h-11.273z"/><path class="cls-16" d="M150.965 179.572a5.614 5.614 0 0 1-1.94-.35v.908a5.553 5.553 0 0 0 3.878 0v-.908a5.615 5.615 0 0 1-1.938.35z"/><circle id="_Pfad_14" data-name="&lt;Pfad&gt;" cx="147.382" cy="170.077" r=".554"/><path id="_Pfad_15" data-name="&lt;Pfad&gt;" d="M143.493 163.438h13.05a1.844 1.844 0 0 1 1.894 1.791v6.577a1.845 1.845 0 0 1-1.894 1.79h-.006a5.702 5.702 0 0 1-5.248-3.305 4.036 4.036 0 0 0-1.69-1.9 5.048 5.048 0 0 0-1.897-.499 4.582 4.582 0 0 1-4.21-4.45z"/><path id="_Pfad_16" data-name="&lt;Pfad&gt;" class="cls-21" d="M150.55 171.322a1.429 1.429 0 1 0 1.745-1.308 1.552 1.552 0 0 0-1.745 1.308z"/><g class="cls-16"><path d="M151.93 184.496a1.93 1.93 0 0 0-1.93 1.93v10.331a2.707 2.707 0 0 1-2.704 2.704h-5.337v3.862h5.337a6.573 6.573 0 0 0 6.565-6.566v-10.33a1.93 1.93 0 0 0-1.93-1.931z"/></g><path class="cls-53" d="M150.965 184.875v10.33a4.634 4.634 0 0 1-4.635 4.635h-14.35"/><path stroke-width="3.862" stroke="#fff" stroke-linecap="round" stroke-miterlimit="10" fill="none" d="M150.965 184.875v4.151"/><path stroke-width="3.862" stroke="#fff" stroke-miterlimit="10" fill="none" d="M150.965 188.245v4.151"/><path stroke-width="3.862" stroke="#ef9f6a" stroke-miterlimit="10" fill="none" d="M137.098 199.84h-4.308"/><path class="cls-53" d="M134.008 199.84h-2.763"/><path class="cls-47" d="M139.485 211.526h21.007v4.835a7.634 7.634 0 0 1-7.634 7.635h-5.738a7.634 7.634 0 0 1-7.635-7.635v-4.835z"/></g><path d="M150.126 167.894v5.532l1.095-1.603v-2.373l-1.095-1.556zM385.237 64.952c0-1.295-2.79-2.345-6.231-2.345a11.245 11.245 0 0 0-4.48 1.1 3.002 3.002 0 0 0-1.752 2.74v5.491a1.54 1.54 0 0 0 1.581 1.495h.005a4.76 4.76 0 0 0 4.381-2.76 3.37 3.37 0 0 1 1.412-1.587 4.214 4.214 0 0 1 1.583-.415 3.825 3.825 0 0 0 3.514-3.716v-.003z"/><circle class="cls-27" cx="36.184" cy="266.407" r="3.105"/><g id="frau-3" data-name="frau"><path class="cls-9" d="M348.8 236.554h-68.922a3.146 3.146 0 0 0-3.14 3.216v21.227a3.199 3.199 0 0 0 3.14 3.277h52.944V270l4.255-5.726H348.8a3.39 3.39 0 0 0 3.36-3.277V239.77a3.338 3.338 0 0 0-3.36-3.216z"/><ellipse class="cls-10" cx="304.571" cy="425.415" rx="29.075" ry="5.631"/><path class="cls-57" d="M278.675 293.745c0-1.496 1.382-2.854 1.632-4.28.257-1.465-.574-3.212-.077-4.58.507-1.39 2.271-2.193 3.003-3.458.739-1.277.557-3.205 1.5-4.328.946-1.126 2.877-1.28 4.004-2.226 1.122-.943 1.607-2.82 2.884-3.558 1.265-.732 3.13-.218 4.522-.725 1.367-.498 2.465-2.095 3.93-2.351 1.426-.25 3.001.872 4.498.872s3.072-1.122 4.497-.872c1.466.256 2.564 1.853 3.93 2.351 1.392.507 3.258-.007 4.524.725 1.276.74 1.761 2.615 2.884 3.559 1.126.946 3.057 1.1 4.003 2.226.943 1.122.761 3.05 1.5 4.327.732 1.265 2.496 2.068 3.003 3.459.497 1.367-.334 3.114-.077 4.58.25 1.425 1.632 2.783 1.632 4.28s-1.382 2.854-1.632 4.279c-.257 1.466.574 3.213.077 4.58-.507 1.391-2.271 2.194-3.003 3.459-.739 1.277-.557 3.205-1.5 4.328-.946 1.126-2.877 1.28-4.004 2.225-1.123.944-1.607 2.82-2.884 3.559-1.265.731-3.13.218-4.522.725-1.367.497-2.465 2.094-3.93 2.351-1.426.25-3.001-.872-4.498-.872s-3.072 1.122-4.497.872c-1.466-.257-2.564-1.854-3.93-2.351-1.392-.507-3.258.006-4.524-.726-1.276-.739-1.761-2.615-2.884-3.558-1.126-.946-3.057-1.1-4.003-2.226-.943-1.123-.761-3.05-1.5-4.327-.732-1.265-2.496-2.068-3.003-3.46-.497-1.366.334-3.113.077-4.579-.25-1.425-1.632-2.783-1.632-4.28z"/><path class="cls-57" d="M318.683 310.578l-28.3-.256a4.254 4.254 0 0 1-4.07-5.364l6.196-22.933 22.872-2.78 7.43 25.906a4.254 4.254 0 0 1-4.128 5.427z"/><path class="cls-58" d="M298.256 367.369v48.826"/><path class="cls-59" d="M298.256 409.57v12.041"/><path class="cls-60" d="M298.256 403.911v12.041"/><path class="cls-58" d="M309.995 367.369v48.826"/><path class="cls-59" d="M309.995 409.57v12.041"/><path class="cls-60" d="M309.995 403.911v12.041"/><path class="cls-15" d="M300.574 308.23h7.102v7.102h-7.102z"/><path class="cls-16" d="M304.125 310.119a10.283 10.283 0 0 1-3.551-.64v1.662a10.17 10.17 0 0 0 7.102 0v-1.662a10.284 10.284 0 0 1-3.55.64z"/><path class="cls-61" d="M284.246 376.229v-46.734c0-7.024 9.562-12.958 20.881-12.958"/><path class="cls-62" d="M284.246 379.629v-6.801"/><path class="cls-63" d="M284.246 375.385v-38.396"/><path class="cls-61" d="M363.817 316.537h-46.734c-7.024 0-12.958 9.562-12.958 20.88"/><path class="cls-62" d="M367.218 316.537h-6.801"/><path class="cls-63" d="M362.974 316.537h-38.397"/><path id="_Pfad_17" data-name="&lt;Pfad&gt;" class="cls-21" d="M314.45 300.114a10.325 10.325 0 1 1-20.65 0V287.42h20.65z"/><path class="cls-22" d="M292.227 284.39v3.778c2.18 1.73 6.687 2.92 11.898 2.92 5.112 0 9.546-1.146 11.771-2.823v-3.876z"/><ellipse class="cls-21" cx="314.45" cy="298.141" rx="2.167" ry="3.1"/><ellipse class="cls-21" cx="293.157" cy="298.141" rx="2.167" ry="3.1"/><circle id="_Pfad_18" data-name="&lt;Pfad&gt;" class="cls-64" cx="309.837" cy="293.048" r="1.016"/><circle id="_Pfad_19" data-name="&lt;Pfad&gt;" class="cls-64" cx="299.271" cy="293.048" r="1.016"/><path class="cls-57" d="M316.023 286.943v-.647a2.995 2.995 0 0 0-2.58-2.966l-9.318-1.305-9.317 1.305a2.995 2.995 0 0 0-2.58 2.966v.647z"/><path class="cls-57" d="M317.39 280.695s-2.763 8.234-15.201 8.234a12.963 12.963 0 0 1-12.676-8.783s4.596 4.867 11.437-1.71c1.549-2.635 14.206-3.94 16.44 2.26z"/><path class="cls-52" d="M320.62 386.896h-32.99v-57.405a16.495 16.495 0 0 1 16.495-16.494 16.495 16.495 0 0 1 16.495 16.494z"/></g><ellipse class="cls-10" cx="445.177" cy="428.032" rx="29.075" ry="5.631"/><path class="cls-65" d="M434.489 365.135l15.487 51.406"/><path class="cls-66" d="M447.875 409.567l3.819 12.677"/><path class="cls-67" d="M446.08 403.608l3.819 12.677"/><path class="cls-65" d="M434.489 365.135v53.688"/><path class="cls-66" d="M434.489 411.539v13.24"/><path class="cls-67" d="M434.489 405.316v13.24"/><g class="cls-16"><path d="M439.935 402.086l4.828 16.026 1.856 6.136-6.295-54.252-.389-5.666v37.756z"/></g><path class="cls-15" d="M430.585 300.107h7.809v7.809h-7.809z"/><path class="cls-47" d="M416.352 324.319a18.137 18.137 0 0 1 18.137-18.137 18.137 18.137 0 0 1 18.138 18.137v45.832h-36.275z"/><path id="_Pfad_20" data-name="&lt;Pfad&gt;" class="cls-21" d="M423.137 291.183a11.353 11.353 0 1 0 22.705 0v-13.959h-22.705z"/><path class="cls-16" d="M434.49 302.535a11.307 11.307 0 0 1-3.906-.704v1.829a11.183 11.183 0 0 0 7.81 0v-1.829a11.308 11.308 0 0 1-3.905.704z"/><circle id="_Pfad_21" data-name="&lt;Pfad&gt;" cx="427.274" cy="283.412" r="1.117"/><path id="_Pfad_22" data-name="&lt;Pfad&gt;" class="cls-21" d="M433.655 285.92a2.877 2.877 0 1 0 3.513-2.633 3.126 3.126 0 0 0-3.513 2.633z"/><path d="M445.725 270.042H431.88a8.293 8.293 0 0 1-8.38-4.819v3.273c-3.025-1.29-4.215-5.157-4.215-5.157v4.512c-.099 3.67.496 4.765.496 4.765l.062.013a9.43 9.43 0 0 0 8.075 6.384 10.167 10.167 0 0 1 3.82 1.003 8.128 8.128 0 0 1 3.406 3.827 11.484 11.484 0 0 0 10.569 6.66h.012a3.715 3.715 0 0 0 3.813-3.608v-13.246a3.714 3.714 0 0 0-3.813-3.607z"/><g class="cls-16"><path d="M436.435 312.453a3.889 3.889 0 0 0-3.89 3.889v20.806a5.451 5.451 0 0 1-5.444 5.445h-10.749v7.778h10.749a13.239 13.239 0 0 0 13.223-13.223v-20.806a3.889 3.889 0 0 0-3.89-3.89z"/></g><path d="M434.49 313.216v20.806a9.334 9.334 0 0 1-9.334 9.334h-28.9" stroke-width="4.526" stroke="#b3b3b3" stroke-linecap="round" stroke-miterlimit="10" fill="none"/><path stroke-width="4.526" stroke="#ef9f6a" stroke-miterlimit="10" fill="none" d="M406.562 343.356h-8.676"/><path stroke-width="4.526" stroke="#ef9f6a" stroke-linecap="round" stroke-miterlimit="10" fill="none" d="M400.339 343.356h-5.564"/></g></svg>