<?xml version="1.0" encoding="utf-8"?>
<!-- Generator: Adobe Illustrator 20.1.0, SVG Export Plug-In . SVG Version: 6.00 Build 0)  -->
<svg version="1.1" id="icons" xmlns="http://www.w3.org/2000/svg" xmlns:xlink="http://www.w3.org/1999/xlink" x="0px" y="0px"
	 viewBox="0 0 302.8 290.5" style="enable-background:new 0 0 302.8 290.5;" xml:space="preserve">
<style type="text/css">
	.st0{opacity:0.4;}
	.st1{fill:none;stroke:#F7B433;stroke-width:0.3;stroke-miterlimit:10;}
	.st2{opacity:0.5;fill:none;stroke:#DEE3EB;stroke-width:0.3;stroke-miterlimit:10;enable-background:new    ;}
	.st3{fill:none;stroke:#D5D654;stroke-width:0.3;stroke-miterlimit:10;}
	.st4{fill:none;stroke:#DEE3EB;stroke-width:0.3;stroke-miterlimit:10;}
	.st5{fill:none;stroke:#F6B7D4;stroke-width:0.3;stroke-miterlimit:10;}
	.st6{fill:none;stroke:#FFD800;stroke-width:0.3;stroke-miterlimit:10;}
	.st7{fill:none;stroke:#F5B5CD;stroke-width:0.3;stroke-miterlimit:10;}
	.st8{fill:#F7B433;}
</style>
<title>icons</title>
<g class="st0">
	<path class="st1" d="M52.1,78.4c-0.9-0.9-0.9-2.3,0-3.2l-1.8-1.8l-1.4,1.4c-0.6-1.1-1.9-1.5-3-0.9s-1.5,1.9-0.9,3
		c0.2,0.4,0.5,0.7,0.9,0.9l-1.5,1.5l1.8,1.8c0.9-0.9,2.3-0.9,3.1,0s0.9,2.3,0,3.1l0,0l1.8,1.8l1.4-1.4c0.6,1,2,1.4,3.1,0.7
		c1-0.6,1.4-2,0.7-3.1c-0.1-0.1-0.2-0.3-0.3-0.4c-0.1-0.1-0.3-0.2-0.4-0.3l1.4-1.4l-1.8-1.8C54.4,79.3,53,79.3,52.1,78.4
		C52.1,78.4,52.1,78.4,52.1,78.4z"/>
	<path class="st2" d="M276.6,209.1l0.8-1.4l-0.8-0.5c0.1-0.4,0.1-0.8,0-1.2l0.8-0.5l-0.8-1.5l-0.8,0.5c-0.3-0.3-0.6-0.5-1-0.6v-1
		h-1.7v1c-0.4,0.1-0.8,0.3-1.1,0.6l-0.9-0.5l-0.9,1.4l0.8,0.5c-0.1,0.4-0.1,0.8,0,1.2l-0.8,0.5l0.8,1.4l0.9-0.5
		c0.3,0.3,0.7,0.5,1.1,0.6v1h1.7v-1c0.4-0.2,0.7-0.4,1-0.6L276.6,209.1z"/>
	<circle class="st2" cx="273.9" cy="206.6" r="1.1"/>
	<path class="st2" d="M276.6,214.7l0.8-1.4l-0.8-0.5c0.1-0.4,0.1-0.8,0-1.2l0.8-0.5l-0.8-1.5l-0.8,0.5c-0.3-0.3-0.6-0.5-1-0.6v-1
		h-1.7v1c-0.4,0.1-0.8,0.3-1.1,0.6l-0.9-0.5l-0.9,1.4l0.8,0.5c-0.1,0.4-0.1,0.8,0,1.2l-0.8,0.5l0.8,1.4l0.9-0.5
		c0.3,0.3,0.7,0.5,1.1,0.6v1h1.7v-1c0.4-0.2,0.7-0.4,1-0.6L276.6,214.7z"/>
	<circle class="st2" cx="273.9" cy="212.1" r="1.1"/>
	<path class="st1" d="M90.6,271.1h9.5v5.6h-9.5L90.6,271.1L90.6,271.1z M101.2,276.6c0,0.6-0.4,1.1-1,1.1h-9.7c-0.6,0-1-0.5-1-1.1
		v-5.6c0-0.6,0.4-1.1,1-1.1h9.7c0.6,0,1,0.5,1,1.1L101.2,276.6L101.2,276.6z M88.9,282.8v-3c0-0.5,0.4-0.8,0.8-0.8H101
		c0.5,0,0.8,0.4,0.8,0.8v3.1L88.9,282.8L88.9,282.8z"/>
	<path class="st1" d="M95.7,280.1h5v1.1h-5V280.1z M0.4,276.1l3.3-3.4h6.2l3.4,3.4H0.4z M13.2,278.4c0,0.6-0.5,1.1-1.1,1.1H1.5
		c-0.6,0-1.1-0.5-1.1-1.1v-2.2h12.9V278.4z"/>
	<circle class="st1" cx="7.9" cy="277.8" r="0.3"/>
	<circle class="st1" cx="9.6" cy="277.8" r="0.3"/>
	<circle class="st1" cx="11.3" cy="277.8" r="0.3"/>
	<circle class="st1" cx="2" cy="277.8" r="0.6"/>
	<path class="st1" d="M12.1,279.5v0.6 M1.5,279.5v0.6"/>
	<path class="st3" d="M222.8,281.2h12.9 M222.8,279.5h12.9 M222.8,277.8h12.9 M227.3,276.1v1.7 M232.9,276.1v1.7 M227.3,279.5v1.7
		 M232.9,279.5v1.7 M225,281.2v1.7 M230.6,281.2v1.7 M225,277.8v1.7 M230.6,277.8v1.7 M222.8,276.1h12.9v6.7h-12.9V276.1z"/>
	<path class="st3" d="M232.3,272.5c0.3,0.8-0.6,0.8-0.8,1.7c0.3-2.8-2.2-2.2-1.1-4.2c-1.8,0.2-3.2,1.8-3,3.6c0,0.3,0.1,0.5,0.2,0.8
		c-0.5-1.1-1.9-1.1-1.7-2.2c-1.3,0.6-1.8,2.2-1.1,3.4c0.1,0.2,0.2,0.3,0.3,0.5h8.4c0.8-0.9,0.8-2.3-0.1-3.1
		C233,272.8,232.7,272.6,232.3,272.5L232.3,272.5z"/>
	<path class="st3" d="M228.7,276.1c-0.6-1.1,0.8-2.5,0.8-2.5c-0.3,1.4,1.4,1.4,0.8,2.5 M232.3,275c0.4,0.4-0.6,1.1-0.6,1.1
		 M226.3,275c-0.4,0.4,0.6,1.1,0.6,1.1"/>
	<path class="st1" d="M272.9,271.1h1.7v6.7h-1.7V271.1z M271.8,270h4.2v12.9h-4.2V270z"/>
	<path class="st1" d="M273,271.1h1.7v6.7H273V271.1z M271.6,270h4.5v12.9h-4.5V270z"/>
	<path class="st1" d="M273.2,271.1h1.7v6.7h-1.7V271.1z M271.8,270h4.2v12.9h-4.2V270z"/>
	<circle class="st1" cx="269.5" cy="280.3" r="0.8"/>
	<circle class="st1" cx="273.9" cy="280.3" r="0.8"/>
	<circle class="st1" cx="273.9" cy="280.3" r="0.8"/>
	<path class="st3" d="M34.9,239.7l-6.7,2.8v4.5l6.7-2.8V239.7z M28.2,242.5l-6.1-2.8v4.5l6.1,2.8V242.5z"/>
	<ellipse class="st3" cx="28.4" cy="240" rx="1.7" ry="0.8"/>
	<ellipse class="st3" cx="28.4" cy="236.9" rx="1.7" ry="0.8"/>
	<ellipse class="st3" cx="32.4" cy="238.6" rx="1.7" ry="0.8"/>
	<ellipse class="st3" cx="24.8" cy="238.6" rx="1.7" ry="0.8"/>
	<path class="st3" d="M34.9,239.7l-1.2-0.6 M31.1,238.1l-1.4-0.6 M27.2,237.5L26,238 M23.5,239.1l-1.4,0.6"/>
	<path class="st1" d="M121.9,245.1c0,0.3-0.3,0.6-0.6,0.6h-7.3c-0.3,0-0.6-0.3-0.6-0.6v-7.3c0-0.3,0.3-0.6,0.6-0.6h7.3
		c0.3,0,0.6,0.3,0.6,0.6V245.1z"/>
	<path class="st1" d="M120.8,243.5c0,0.6-0.5,1.1-1.1,1.1h-3.9c-0.6,0-1.1-0.5-1.1-1.1v-3.9c0-0.6,0.5-1.1,1.1-1.1h3.9
		c0.6,0,1.1,0.5,1.1,1.1L120.8,243.5L120.8,243.5z M206.1,240.4c0,0-0.8-2-2.5-2c-1.7,0.1-3,1.6-2.9,3.3c0.1,1.6,1.3,2.8,2.9,2.9
		c2.8,0,3.9-6.1,6.7-6.1c1.7,0,3.1,1.3,3.1,3c0,1.7-1.3,3.1-3,3.1c-1.1,0-2.1-0.5-2.6-1.4"/>
	<path class="st1" d="M204.1,240.1l1.9,0.4l0.4-1.9"/>
	<ellipse class="st4" cx="161.2" cy="237.3" rx="5.3" ry="2.2"/>
	<path class="st4" d="M166.5,237.3v2.5 M160.6,246.9c-2.7-0.1-4.8-1.1-4.8-2.2v-7.3 M160.4,244.4c-2.5-0.2-4.5-1.1-4.5-2.2
		 M161.2,241.9c-2.9,0-5.3-1-5.3-2.2 M164.3,243.5v-0.6c-0.1-0.9,0.6-1.7,1.5-1.8c0.9-0.1,1.7,0.6,1.8,1.5c0,0.1,0,0.2,0,0.3v0.6
		H164.3z M163.1,243.5h5.6v4.5h-5.6V243.5L163.1,243.5z"/>
	<circle class="st4" cx="165.9" cy="245.2" r="0.3"/>
	<path class="st5" d="M249.2,243.9l1.6-2.9c1-1.8,1-3.9,0-5.7l-5.2,9.2L249.2,243.9z M258,245.9c0,1.1-0.9,2-2,2H247
		c-1.1-0.2-1.8-1.3-1.6-2.4c0.2-0.8,0.8-1.4,1.6-1.6h8.9C257,243.9,257.9,244.8,258,245.9L258,245.9z M250.3,238.5l-1.5,2.7"/>
	<circle class="st5" cx="247.6" cy="245.8" r="0.8"/>
	<circle class="st5" cx="255.5" cy="245.8" r="0.8"/>
	<path class="st5" d="M257.4,244.5v-5.6c0-0.6-0.5-1.1-1.1-1.1s-1.1,0.5-1.1,1.1c0.8,0.2,1.2,0.9,1.1,1.7c-0.1,0.5-0.5,1-1.1,1.1
		v2.3"/>
	<path class="st4" d="M67.8,235.1h10.6c0.6,0,1.1,0.5,1.1,1.1v10.6c0,0.6-0.5,1.1-1.1,1.1H67.8c-0.6,0-1.1-0.5-1.1-1.1v-10.6
		C66.6,235.6,67.1,235.1,67.8,235.1z"/>
	<path class="st4" d="M66.6,237.9h12.9"/>
	<circle class="st4" cx="68.6" cy="236.5" r="0.3"/>
	<circle class="st4" cx="70.3" cy="236.5" r="0.3"/>
	<circle class="st4" cx="71.9" cy="236.5" r="0.3"/>
	<path class="st4" d="M71.1,237.9V248 M72.8,239h5v2.8h-5V239z M72.8,243.5h5v2.8h-5V243.5z M67.8,239h1.1 M68.9,240.1H70
		 M68.9,241.3H70 M68.9,242.4H70 M67.8,243.5h1.1 M68.9,244.6H70 M68.9,245.7H70"/>
	<path class="st6" d="M142.3,274.4c0-1.7-2.3-2.3-2.8-0.2c-0.5-2.1-2.8-1.5-2.8,0.2c0,1.5,2.8,3.5,2.8,3.5
		C141.3,276,142.3,275.8,142.3,274.4z M144.6,274.4c0-2.8-2.7-4.4-5.1-4.4c-2.9,0-5.3,2.3-5.3,5.2c0,0,0,0.1,0,0.1
		c-0.1,1.7,0.7,3.4,2.2,4.3v3.2h5.6v-2c0.7,0.1,1.5,0,2.1-0.5c0.5-0.5,0.4-2.6,0.4-2.6h0.8c0.1,0,0.2-0.1,0.3-0.2
		c0.1-0.1,0.1-0.2,0.1-0.4C145.9,276.4,144.6,274.9,144.6,274.4L144.6,274.4z"/>
	<circle class="st1" cx="140.3" cy="141.2" r="1"/>
	<path class="st1" d="M141.8,139.4c-0.1,0-0.2,0.1-0.2,0.1c0-0.1,0-0.2,0-0.3c0-0.7-0.6-1.3-1.3-1.3s-1.3,0.6-1.3,1.3c0,0,0,0,0,0
		c0,0.1,0,0.2,0,0.3c-0.1,0-0.2-0.1-0.2-0.1c-0.7-0.2-1.4,0.2-1.6,0.9c-0.2,0.7,0.2,1.4,0.9,1.6c0.1,0,0.1,0,0.2,0
		c-0.1,0.1-0.1,0.1-0.2,0.2c-0.4,0.6-0.3,1.4,0.3,1.8c0.6,0.4,1.4,0.3,1.8-0.3c0.1-0.1,0.1-0.1,0.1-0.2c0,0.1,0.1,0.2,0.1,0.2
		c0.4,0.6,1.2,0.7,1.8,0.3s0.7-1.2,0.3-1.8l0,0c-0.1-0.1-0.1-0.1-0.2-0.2l0.3-0.1c0.6-0.3,0.9-1,0.6-1.7
		C142.9,139.6,142.3,139.3,141.8,139.4L141.8,139.4z M142.5,150.8h-5l-1.1-4.5h7.3L142.5,150.8L142.5,150.8z M139.7,146.4
		c2.2-0.4-0.1-1.4,0.6-3 M136.6,147.5h6.7"/>
	<path class="st4" d="M178.2,139.2h12.9v3.4h-12.9V139.2z"/>
	<circle class="st4" cx="185.7" cy="140.9" r="0.3"/>
	<circle class="st4" cx="187.4" cy="140.9" r="0.3"/>
	<circle class="st4" cx="189.1" cy="140.9" r="0.3"/>
	<circle class="st4" cx="179.9" cy="140.9" r="0.6"/>
	<path class="st4" d="M178.2,142.6v3.4h12.9v-3.4"/>
	<circle class="st4" cx="185.7" cy="144.2" r="0.3"/>
	<circle class="st4" cx="187.4" cy="144.2" r="0.3"/>
	<circle class="st4" cx="189.1" cy="144.2" r="0.3"/>
	<circle class="st4" cx="179.9" cy="144.2" r="0.6"/>
	<path class="st4" d="M184.9,145.9v3.4 M181,149.3h7.3 M190.5,149c-0.2,0-0.3,0.1-0.3,0.3s0.1,0.3,0.3,0.3c0.2,0,0.3-0.1,0.3-0.3
		l0,0C190.8,149.1,190.6,149,190.5,149z M189.4,149c-0.2,0-0.3,0.1-0.3,0.3s0.1,0.3,0.3,0.3c0.2,0,0.3-0.1,0.3-0.3l0,0
		C189.6,149.1,189.5,149,189.4,149z M179.9,149c-0.2,0-0.3,0.1-0.3,0.3s0.1,0.3,0.3,0.3c0.2,0,0.3-0.1,0.3-0.3l0,0
		C180.1,149.1,180,149,179.9,149z M178.8,149c-0.2,0-0.3,0.1-0.3,0.3s0.1,0.3,0.3,0.3c0.2,0,0.3-0.1,0.3-0.3l0,0
		C179,149.1,178.9,149,178.8,149z"/>
	<ellipse class="st4" cx="50.8" cy="142.1" rx="3.1" ry="1.4"/>
	<ellipse class="st4" cx="55.8" cy="138.8" rx="1.4" ry="0.8"/>
	<path class="st4" d="M57.2,138.8v1.7c-0.4,0.8-1.4,1.1-2.1,0.7c-0.3-0.1-0.5-0.4-0.7-0.7v-1.7"/>
	<ellipse class="st4" cx="45.7" cy="138.8" rx="1.4" ry="0.8"/>
	<path class="st4" d="M47.1,138.8v1.7c-0.4,0.8-1.4,1.1-2.1,0.7c-0.3-0.1-0.5-0.4-0.7-0.7v-1.7"/>
	<ellipse class="st4" cx="55.8" cy="148.3" rx="1.4" ry="0.8"/>
	<path class="st4" d="M57.2,148.3v1.7c-0.4,0.8-1.4,1.1-2.1,0.7c-0.3-0.1-0.5-0.4-0.7-0.7v-1.7"/>
	<ellipse class="st4" cx="45.7" cy="148.3" rx="1.4" ry="0.8"/>
	<path class="st4" d="M55.8,147.4l-1.9-1.9 M55.8,141.3l-2,1.9 M45.7,147.5l1.9-1.9 M45.7,141.3l2,1.9 M47.7,142.2v4.5
		c0,0.8,1.4,1.4,3.1,1.4s3.1-0.6,3.1-1.4v-4.5 M53.8,144.4c0,0.8-1.4,1.4-3.1,1.4s-3.1-0.6-3.1-1.4 M47.1,148.3v1.7
		c-0.4,0.8-1.4,1.1-2.1,0.7c-0.3-0.1-0.5-0.4-0.7-0.7v-1.7"/>
	<circle class="st3" cx="96.2" cy="143.6" r="2.2"/>
	<circle class="st3" cx="89.8" cy="140.8" r="0.8"/>
	<circle class="st3" cx="101" cy="138.8" r="0.8"/>
	<circle class="st3" cx="89.8" cy="150" r="0.8"/>
	<circle class="st3" cx="96.2" cy="150" r="0.8"/>
	<path class="st3" d="M96.2,149.1v-3.4 M100.2,145.5l-2-0.8 M90.6,141.1l3.6,1.6 M97.8,142l2.6-2.6 M90.4,149.4l4.2-4.2"/>
	<circle class="st3" cx="101" cy="145.8" r="0.8"/>
	<path class="st3" d="M277.6,145.6c-0.3,0.3-0.7,0.5-1.1,0.5c-0.4,0-0.8-0.2-1.1-0.4v3.3c0.3,0.5,0.3,1.2,2.2,1.7
		c1-0.2,1.8-0.8,2.2-1.7v-3.3c-0.3,0.3-0.7,0.4-1.1,0.4C278.2,146.2,277.8,146,277.6,145.6z M274.2,138c1.6,1.6,2.5,3.8,2.5,6.1
		 M268.3,147.5h5.6 M268.5,140.8h10.7"/>
	<path class="st3" d="M273.5,138c-3.4,3.6-3.3,8.4,0.1,12.9h-0.2c-3.3-0.4-5.9-3.2-5.9-6.6c0-3.4,2.7-6.2,6.2-6.3h0.3
		c3.3,0,6.1,2.5,6.4,5.9v0.3h-12.9 M4.8,142.3v-2l-0.2,0.2 M2.9,145.1v-2l-0.2,0.2 M10.7,142.3v-2l-0.2,0.2 M10.7,145.1v-2l-0.2,0.2
		 M8.7,142.3v-2l-0.2,0.2 M6.8,145.1v-2l-0.2,0.2 M3.3,141.3c0,0.6-0.1,1-0.5,1s-0.5-0.4-0.5-1s0.1-1,0.5-1S3.3,140.8,3.3,141.3z
		 M7.2,141.3c0,0.6-0.1,1-0.5,1s-0.5-0.4-0.5-1s0.1-1,0.5-1S7.2,140.8,7.2,141.3z M9.1,144.1c0,0.6-0.1,1-0.5,1s-0.5-0.4-0.5-1
		s0.1-1,0.5-1S9.1,143.5,9.1,144.1z M5.2,144.1c0,0.6-0.1,1-0.5,1s-0.5-0.4-0.5-1s0.1-1,0.5-1S5.2,143.5,5.2,144.1z"/>
	<path class="st3" d="M13.2,148c0,0.5-0.4,0.9-0.8,0.9c0,0,0,0,0,0H1.2c-0.5,0-0.9-0.4-0.8-0.9c0,0,0,0,0,0v-8.3
		c0-0.5,0.4-0.9,0.8-0.9c0,0,0,0,0,0h11.2c0.5,0,0.9,0.4,0.8,0.9c0,0,0,0,0,0V148z M2.9,150h7.8 M6.5,148.9v1.1"/>
	<circle class="st3" cx="6.8" cy="147.8" r="0.3"/>
	<path class="st3" d="M0.4,146.6h12.9 M50.8,270c-0.7,0.8-1.7,1.3-2.8,1.3c-1,0-2-0.4-2.8-1v8.3c1.8,2.4,0.8,3,5.6,4.3
		c4.8-1.3,5.6-4.3,5.6-4.3v-8.3c-0.8,0.6-1.8,1-2.8,1C52.5,271.3,51.4,270.8,50.8,270z"/>
	<path class="st3" d="M53.5,279l0.8-1.5l-0.8-0.5c0.1-0.4,0.1-0.8,0-1.2l0.8-0.5l-0.8-1.5l-0.8,0.5c-0.3-0.3-0.6-0.5-1-0.6v-1H50v1
		c-0.4,0.1-0.8,0.3-1.1,0.6l-0.9-0.5l-0.8,1.5l0.8,0.5c-0.1,0.4-0.1,0.8,0,1.2l-0.8,0.5L48,279l0.9-0.5c0.3,0.3,0.7,0.5,1.1,0.6v1
		h1.7v-1c0.4-0.2,0.7-0.4,1-0.6L53.5,279z"/>
	<circle class="st3" cx="50.8" cy="276.4" r="1.1"/>
	<path class="st3" d="M235.6,12.7l-6.7,2.8V20l6.7-2.8V12.7z M228.9,15.5l-6.1-2.8v4.5l6.1,2.8V15.5z"/>
	<ellipse class="st3" cx="229.2" cy="13" rx="1.7" ry="0.8"/>
	<ellipse class="st3" cx="229.2" cy="9.9" rx="1.7" ry="0.8"/>
	<ellipse class="st3" cx="233.1" cy="11.6" rx="1.7" ry="0.8"/>
	<ellipse class="st3" cx="225.6" cy="11.6" rx="1.7" ry="0.8"/>
	<path class="st3" d="M235.6,12.7l-1.3-0.6 M231.8,11l-1.4-0.6 M227.9,10.5l-1.2,0.5 M224.2,12.1l-1.4,0.6"/>
	<path class="st7" d="M100.8,13.8l0.9-1.5l-0.8-0.5c0.1-0.4,0.1-0.8,0-1.2l0.8-0.5l-0.8-1.4L100,9.2c-0.3-0.3-0.6-0.5-1-0.6v-1h-1.7
		v1c-0.4,0.1-0.8,0.3-1.1,0.6l-0.9-0.5l-0.8,1.4l0.8,0.5c-0.1,0.4-0.1,0.8,0,1.2l-0.8,0.5l0.8,1.4l0.9-0.5c0.3,0.3,0.7,0.5,1.1,0.6
		v1H99v-1c0.4-0.2,0.7-0.4,1-0.6L100.8,13.8z"/>
	<circle class="st7" cx="97.8" cy="11.3" r="1.1"/>
	<path class="st7" d="M95.4,19.4l0.8-1.4l-0.8-0.5c0.1-0.4,0.1-0.8,0-1.2l0.8-0.5l-0.8-1.4l-0.8,0.5c-0.3-0.3-0.6-0.5-1-0.6v-0.9
		h-1.7v1c-0.4,0.1-0.8,0.3-1.1,0.6L90,14.4l-0.8,1.4l0.8,0.4c-0.1,0.4-0.1,0.8,0,1.2L89.2,18l0.8,1.5l0.9-0.5
		c0.3,0.3,0.7,0.5,1.1,0.6v1h1.7v-1c0.4-0.2,0.7-0.4,1-0.6L95.4,19.4z"/>
	<circle class="st7" cx="92.5" cy="16.9" r="1.1"/>
	<circle class="st6" cx="187.7" cy="17.6" r="3.4"/>
	<path class="st6" d="M187.7,19v-2.8 M186.3,17.6h2.8"/>
	<ellipse class="st6" cx="183.5" cy="10.3" rx="5.3" ry="2.2"/>
	<path class="st6" d="M188.8,10.3v2.5 M182.9,19.8c-2.7-0.1-4.8-1.1-4.8-2.2v-7.3 M182.6,17.3c-2.5-0.2-4.5-1.1-4.5-2.2 M183.5,14.8
		c-2.9,0-5.3-1-5.3-2.2"/>
	<circle class="st4" cx="136.4" cy="18.7" r="0.8"/>
	<circle class="st4" cx="142.5" cy="18.7" r="0.8"/>
	<path class="st4" d="M146.4,8.4h-1.7l-2.2,9.5h-6.1"/>
	<path class="st4" d="M142.8,16.8h-7.3l-1.7-5h10.1"/>
	<path class="st4" d="M139.4,11.7l2.2-2.2l2.3,2.2 M136.6,11.7L135,8l-1.4,0.7l1.4,3.1"/>
	<path class="st4" d="M138.6,11.7V10h2.5"/>
	<path class="st6" d="M55.2,14.6h1.4V16 M49.9,17.7l3.6-3.1l3.6,3.1 M51.6,18v2.8h3.9V18 M46.6,15.2l1-1.1l1.1,1.1"/>
	<path class="st6" d="M47.6,14.1v5.6h2.5 M50.1,13h0.6c-6.5-5.3,1.5-0.2,1.5-1.7c0-0.9-0.8-1.7-1.7-1.7c0,0,0,0-0.1,0
		c-0.6-1.2-2-1.7-3.2-1.1c-0.8,0.4-1.3,1.1-1.4,2c-0.7-0.1-1.4,0.3-1.5,1c0,0.1,0,0.2,0,0.3c0,0.7,0.6,1.3,1.3,1.3c0,0,0,0,0.1,0
		L50.1,13L50.1,13z M52.7,18.6h1.7v2.2h-1.6L52.7,18.6L52.7,18.6z"/>
	<path class="st4" d="M273.9,16.9c0,0,2.5-1.8,2.5-3.2c0-1.6-2.1-2-2.5-0.2c-0.5-1.9-2.5-1.4-2.5,0.2
		C271.4,15.1,273.9,16.9,273.9,16.9z"/>
	<path class="st4" d="M268,18.3v-7c0-0.5,0.4-0.8,0.8-0.8h10.1c0.5,0,0.8,0.4,0.8,0.8v7"/>
	<path class="st4" d="M275.3,18.3v0.6h-2.8v-0.6h-5v1.1c0,0.3,0.3,0.6,0.6,0.6h11.7c0.3,0,0.6-0.3,0.6-0.6v-1.1H275.3L275.3,18.3z"
		/>
	<path class="st3" d="M6.8,9.2c-0.7,0.8-1.7,1.3-2.8,1.3c-1,0-2-0.4-2.8-1v8.3c1.8,2.4,0.8,3,5.6,4.3c4.8-1.3,5.6-4.3,5.6-4.3V9.5
		c-0.8,0.6-1.8,1-2.8,1C8.5,10.5,7.5,10.1,6.8,9.2z"/>
	<path class="st3" d="M9.5,18.2l0.8-1.5l-0.8-0.5c0.1-0.4,0.1-0.8,0-1.2l0.8-0.5l-0.8-1.4l-0.8,0.5c-0.3-0.3-0.6-0.5-1-0.6v-1H6v1
		c-0.4,0.1-0.8,0.3-1.1,0.6l-0.9-0.5l-0.8,1.4L4.1,15c-0.1,0.4-0.1,0.8,0,1.2l-0.8,0.5l0.8,1.4l0.9-0.5C5.2,18,5.6,18.2,6,18.3v1
		h1.7v-1c0.4-0.2,0.7-0.4,1-0.6L9.5,18.2z"/>
	<circle class="st3" cx="6.8" cy="15.6" r="1.1"/>
	<ellipse class="st4" cx="184.6" cy="276.4" rx="6.4" ry="6.4"/>
	<circle class="st4" cx="184.6" cy="276.4" r="1.4"/>
	<path class="st4" d="M187.2,276.3c-0.1,1-0.6,1.8-1.4,2.4l2.7,0.9c0.4-0.4,0.7-0.9,0.8-1.5L187.2,276.3z M183.4,278.8
		c-0.8-0.6-1.3-1.5-1.4-2.4l-2.1,1.9c0.1,0.6,0.4,1.1,0.8,1.5L183.4,278.8z M183.2,274.2c0.9-0.4,1.9-0.4,2.8,0l-0.6-2.8
		c-0.5-0.2-1.1-0.2-1.7,0L183.2,274.2z M24.1,48.4L22.1,52l2.1-0.4l0.8,2l1.8-3.1 M32.8,48.4l2,3.5l-2.2-0.4l-0.7,2l-1.8-3.1"/>
	<circle class="st4" cx="28.5" cy="45.8" r="5"/>
	<path class="st4" d="M28.5,43l0.8,1.7H31l-1.4,1.4l0.5,2l-1.7-1l-1.7,1l0.6-2L26,44.7h1.7L28.5,43z"/>
	<circle class="st4" cx="254.6" cy="50.3" r="3.4"/>
	<path class="st4" d="M254.6,51.7v-2.8 M253.2,50.3h2.8"/>
	<ellipse class="st4" cx="250.4" cy="43" rx="5.3" ry="2.2"/>
	<path class="st4" d="M255.8,43v2.5 M249.9,52.6c-2.7-0.1-4.8-1.1-4.8-2.2V43 M249.6,50c-2.5-0.2-4.5-1.1-4.5-2.2 M250.4,47.6
		c-2.9,0-5.3-1-5.3-2.2"/>
	<path class="st6" d="M201.6,40.8h10.6c0.6,0,1.1,0.5,1.1,1.1v10.6c0,0.6-0.5,1.1-1.1,1.1h-10.6c-0.6,0-1.1-0.5-1.1-1.1V41.9
		C200.5,41.3,201,40.8,201.6,40.8z"/>
	<path class="st6" d="M200.5,43.6h12.9"/>
	<circle class="st6" cx="202.5" cy="42.2" r="0.3"/>
	<circle class="st6" cx="204.1" cy="42.2" r="0.3"/>
	<circle class="st6" cx="205.8" cy="42.2" r="0.3"/>
	<path class="st6" d="M205,43.6v10.1 M206.6,44.7h5v2.8h-5V44.7z M206.6,49.2h5V52h-5V49.2z M201.6,44.7h1.1 M202.7,45.8h1.1
		 M202.7,47h1.1 M202.7,48.1h1.1 M201.6,49.2h1.1 M202.7,50.3h1.1 M202.7,51.4h1.1 M164.6,45.2c0-1.7-2.3-2.3-2.8-0.2
		c-0.5-2.1-2.8-1.5-2.8,0.2c0,1.5,2.8,3.5,2.8,3.5C163.6,46.8,164.6,46.7,164.6,45.2z M166.9,45.3c0-2.8-2.7-4.4-5.1-4.4
		c-2.9,0-5.3,2.3-5.3,5.2c0,0,0,0.1,0,0.1c-0.1,1.7,0.7,3.4,2.2,4.3v3.2h5.6v-1.9c0.7,0.1,1.5,0,2.1-0.5c0.5-0.5,0.4-2.6,0.4-2.6
		h0.8c0.1,0,0.2-0.1,0.3-0.2c0.1-0.1,0.1-0.2,0.1-0.3C168.2,47.2,166.9,45.7,166.9,45.3z"/>
	<path class="st1" d="M116.3,47v1.1 M115.2,47v1.1 M116.3,44.2v1.1 M112.9,44.2v1.1V44.2z M115.2,49.8h1.1v1.1h-1.1V49.8z M112.9,47
		h1.1v1.1h-1.1V47z M114.1,44.2h1.1v1.1h-1.1V44.2z"/>
	<circle class="st1" cx="120.8" cy="50.3" r="3.3"/>
	<path class="st1" d="M121.9,50l-1.1-1.1l-1.1,1.1 M120.8,48.9v2.8 M117.1,52.6h-5.9V40.8h6.2l2.8,2.8v2.5"/>
	<path class="st1" d="M117.4,40.8v2.8h2.8"/>
	<ellipse class="st5" cx="229.2" cy="144.2" rx="6.4" ry="6.4"/>
	<circle class="st5" cx="229.2" cy="144.2" r="1.4"/>
	<path class="st5" d="M231.9,144.2c-0.1,1-0.6,1.8-1.4,2.4l2.7,0.9c0.4-0.4,0.7-0.9,0.8-1.4L231.9,144.2z M228,146.6
		c-0.8-0.6-1.3-1.5-1.4-2.4l-2.1,1.9c0.1,0.6,0.4,1.1,0.8,1.4L228,146.6z M227.9,142c0.9-0.4,1.9-0.4,2.8,0l-0.6-2.8
		c-0.5-0.2-1.1-0.2-1.7,0L227.9,142z"/>
	<path class="st6" d="M158,177.9l-2.1,3.6l2.2-0.4l0.7,2.1l1.8-3.1 M166.6,178l2.1,3.5l-2.1-0.4l-0.8,2.1l-1.8-3.1"/>
	<circle class="st6" cx="162.4" cy="175.4" r="5"/>
	<path class="st6" d="M162.4,172.6l0.8,1.7h1.7l-1.4,1.4l0.6,2l-1.7-1.1l-1.7,1.1l0.6-2l-1.4-1.4h1.7L162.4,172.6z"/>
	<path class="st4" d="M26.9,175.1l1.5,1.6l-1.5,1.6 M24.9,175.1l-1.5,1.6l1.5,1.6"/>
	<circle class="st4" cx="33.8" cy="178.2" r="1.1"/>
	<circle class="st4" cx="33.8" cy="182.1" r="1.1"/>
	<circle class="st4" cx="29.3" cy="180.4" r="1.1"/>
	<path class="st4" d="M30.2,180.9l2.4,0.9 M30.1,180l2.5-1.2 M27.9,182.1H22v-11.8h6.1l2.8,2.8v4.8"/>
	<path class="st4" d="M28.2,170.3v2.8H31"/>
	<ellipse class="st3" cx="117.7" cy="176.8" rx="6.4" ry="6.4"/>
	<path class="st3" d="M117.7,172.6c-2.5,0-4.5,2-4.4,4.5c0,1.9,1.2,3.6,3,4.2c0.1,0,0.2,0,0.3-0.1c0,0,0-0.1,0-0.1v-0.8
		c-0.6,0.3-1.2,0-1.5-0.6c-0.1-0.3-0.3-0.5-0.5-0.7c-0.4-0.3,0-0.3,0-0.3c0.3,0,0.5,0.2,0.7,0.5c0.3,0.4,0.8,0.6,1.3,0.4
		c0-0.2,0.1-0.4,0.3-0.6c-1.1,0-2-0.9-2-2c0-0.1,0-0.1,0-0.2c0-0.4,0.2-0.9,0.5-1.2c-0.1-0.4-0.1-0.8,0-1.2c0.5,0,0.9,0.1,1.2,0.5
		c0.7-0.2,1.5-0.2,2.2,0c0.3-0.3,0.8-0.5,1.2-0.5c0.2,0.4,0.2,0.8,0,1.2c0.3,0.3,0.5,0.8,0.5,1.2c0.1,1.1-0.7,2.1-1.8,2.2
		c-0.1,0-0.1,0-0.2,0c0.2,0.2,0.3,0.5,0.3,0.8v1.2c0,0.1,0.1,0.2,0.2,0.2c0,0,0.1,0,0.1,0c2.3-0.8,3.5-3.4,2.7-5.7
		C121.1,173.8,119.5,172.6,117.7,172.6z"/>
	<path class="st1" d="M72.2,175.7c0,0-0.8-2-2.5-2c-1.7,0.1-3,1.6-2.9,3.3c0.1,1.6,1.3,2.8,2.9,2.9c2.8,0,3.9-6.1,6.7-6.1
		c1.7,0,3.1,1.3,3.1,3s-1.3,3.1-3,3.1c-1.1,0-2.1-0.5-2.6-1.4"/>
	<path class="st1" d="M70.3,175.3l1.9,0.4l0.4-1.9"/>
	<path class="st5" d="M256,176.9h1.4v1.4 M250.7,180l3.6-3.1l3.6,3.1 M252.4,180.2v2.8h3.9v-2.8 M247.3,177.5l1.1-1.1l1.2,1.1"/>
	<path class="st5" d="M248.5,176.4v5.6h2.5 M250.9,175.3h0.5c-6.5-5.3,1.5-0.2,1.5-1.7c0-0.9-0.8-1.7-1.7-1.7c0,0,0,0-0.1,0
		c-0.6-1.2-2-1.7-3.2-1.1c-0.8,0.4-1.3,1.1-1.4,2c-0.7-0.1-1.4,0.3-1.5,1c0,0.1,0,0.2,0,0.3c0,0.7,0.6,1.3,1.3,1.3c0,0,0,0,0.1,0
		L250.9,175.3L250.9,175.3z M253.5,180.9h1.7v2.2h-1.7V180.9z"/>
	<path class="st4" d="M209.5,180.1c-0.3,0.4-0.2,1.1,0.2,1.4c1,0.6,2.1,1,3.2,1.2c-0.2-1.1-0.6-2.2-1.2-3.2
		c-0.3-0.4-0.9-0.5-1.4-0.2L209.5,180.1z M207.3,175.2c0.9,0,1.7,0,2.6,0.2c0.4,0.2,0.8,0.5,1.2,0.8l2,2l-3.1-0.4L207.3,175.2z
		 M205.3,177.2c0,0.9,0,1.7,0.2,2.6c0.2,0.4,0.5,0.8,0.8,1.2l2,2l-0.4-3.1L205.3,177.2z M209.5,177.4l-2,2L209.5,177.4z
		 M210.3,178.2c3.6-7.8-6.1-6.1-6.5-6.5c-0.6-0.6-3-1-3-1s0.4,2.4,1,3l6.5,6.5L210.3,178.2z"/>
	<ellipse class="st4" cx="94.3" cy="205" rx="5.3" ry="2.2"/>
	<path class="st4" d="M101.8,210.5l-0.4,1.5l-1.5-0.4 M99.5,215.5c-1.5,0.4-3-0.4-3.5-1.9c-0.4-1.5,0.4-3,1.9-3.5
		c1.5-0.4,3,0.4,3.5,1.9c0,0,0,0,0,0 M99.6,205v3.1 M94.3,214.5c-2.9,0-5.3-1-5.3-2.2V205 M94.3,212c-2.9,0-5.3-1-5.3-2.2
		 M95.1,209.5h-0.8c-2.9,0-5.3-1-5.3-2.2"/>
	<path class="st7" d="M144.7,206.6l-3.3-3.4L144.7,206.6z M135.2,206.6l3.4-3.4L135.2,206.6z M133.6,207.8h12.9v1.1h-12.9
		L133.6,207.8L133.6,207.8z M144.7,215h-9.5l-1.1-6.1h11.7L144.7,215z"/>
	<path class="st6" d="M229,215.7v-3.1h-2.2v-3.4h1.7v-2.8h1.7v-3.9 M232.6,203.1h2.5v11.8h-4.8"/>
	<path class="st6" d="M228.4,204.3l1.7-1.7l1.7,1.7 M231.8,208.2v-2.8h1.7v1.4 M235.1,208.2h-5v1.4 M235.1,211.6h-1.4 M235.1,213.3
		h-1.4 M232.3,214.9v-5h1.4 M225,209.1v4.8h2.2v1.1h-3.9v-11.8h4.2 M227.6,211h3.1v2.5 M223.4,207.6h3.4v-2.5 M225,203.1v3.1
		 M12.4,210.6c1-0.8,1.1-2.2,0.3-3.2c-0.1-0.2-0.3-0.3-0.5-0.4c0.4-0.9,0-1.8-0.9-2.2c-0.3-0.1-0.6-0.2-0.9-0.1
		c-0.6-1.6-2.4-2.4-4-1.8c-1.1,0.4-1.9,1.4-2,2.6c-1.4,0.1-2.5,1.3-2.5,2.8 M10.6,211.5c0.4-0.9,0-1.8-0.9-2.2
		c-0.3-0.1-0.6-0.2-0.9-0.1c-0.6-1.6-2.4-2.4-4-1.8c-1.1,0.4-1.9,1.4-2,2.6c-1.5,0.2-2.6,1.6-2.5,3.1c0.2,1.4,1.3,2.4,2.7,2.5h6.1
		c1.2,0,2.2-1,2.2-2.3C11.5,212.6,11.1,211.9,10.6,211.5L10.6,211.5z"/>
	<circle class="st1" cx="50.8" cy="208.6" r="1.1"/>
	<path class="st1" d="M47.6,210.6c0-0.6-0.5-1.1-1.1-1.1H46c-0.6,0-1.1,0.5-1.1,1.1v1.7h2.8V210.6L47.6,210.6z M56.6,210.6
		c0-0.6-0.5-1.1-1.1-1.1H55c-0.6,0-1.1,0.5-1.1,1.1v1.7h2.8L56.6,210.6L56.6,210.6z M47.6,206.1c0-0.6-0.5-1.1-1.1-1.1H46
		c-0.6,0-1.1,0.5-1.1,1.1v1.7h2.8V206.1z M56.6,206.1c0-0.6-0.5-1.1-1.1-1.1H55c-0.6,0-1.1,0.5-1.1,1.1v1.7h2.8L56.6,206.1
		L56.6,206.1z M52.1,203.8c0-0.6-0.5-1.1-1.1-1.1h-0.5c-0.6,0-1.1,0.5-1.1,1.1v1.7h2.8L52.1,203.8L52.1,203.8z"/>
	<path class="st1" d="M49.3,204c-0.8,0.2-1.4,0.7-2,1.2 M46.1,207.7c-0.1,0.6-0.1,1.1,0,1.7 M55.4,209.4c0-0.3,0.1-0.6,0.1-0.9
		c0-0.3,0-0.5-0.1-0.8 M54.2,205.3c-0.5-0.6-1.2-1-2-1.3 M50.8,209.7l-2.8,5.9h5.6L50.8,209.7 M53.9,212.2c-0.2,0.2-0.5,0.4-0.8,0.5
		 M48.5,212.8c-0.3-0.2-0.6-0.4-0.9-0.6"/>
	<path class="st3" d="M182.6,207.1c0.4-0.4,0.4-1.1,0-1.6l-1.2-1.2c-0.4-0.4-1.1-0.4-1.6,0l-0.6,0.6c-0.6,0.6-0.6,1.4-0.2,2.1
		c1.9,2.9,4.4,5.4,7.3,7.3c0.7,0.4,1.5,0.4,2.1-0.2l0.6-0.6c0.4-0.4,0.4-1.1,0-1.6l-1.2-1.2c-0.4-0.4-1.1-0.4-1.6,0l-0.4,0.4
		c-1.3-1.1-2.5-2.3-3.6-3.6L182.6,207.1z M189.9,206.8v-3.2l-1.8,2.1h2.3 M185.4,204.4c0-0.4,0.4-0.8,0.8-0.8s0.8,0.4,0.8,0.8
		c0,0.2-0.1,0.3-0.1,0.4l-1.5,1.9h1.6"/>
	<path class="st7" d="M71.1,45.2c0.4-0.4,0.4-1.1,0-1.6l-1.2-1.2c-0.4-0.4-1.1-0.4-1.6,0l-0.7,0.7c-0.6,0.6-0.6,1.4-0.2,2.1
		c1.9,2.9,4.4,5.4,7.3,7.3c0.7,0.4,1.5,0.4,2.1-0.2l0.7-0.7c0.4-0.4,0.4-1.1,0-1.6l-1.2-1.2c-0.4-0.4-1.1-0.4-1.6,0l-0.4,0.4
		c-1.3-1.1-2.5-2.3-3.6-3.6L71.1,45.2z M78.4,44.9v-3.2l-1.8,2.1h2.3 M73.8,42.5c0-0.4,0.4-0.8,0.8-0.8c0.4,0,0.8,0.4,0.8,0.8
		c0,0.2-0.1,0.3-0.1,0.4l-1.5,1.9h1.6"/>
	<path class="st6" d="M224.5,74.4h9.5V80h-9.5V74.4L224.5,74.4z M235.1,80c0,0.6-0.4,1.1-1,1.1h-9.7c-0.6,0-1-0.5-1-1.1v-5.5
		c0-0.6,0.4-1.1,1-1.1h9.7c0.6,0,1,0.5,1,1.1V80L235.1,80z M222.8,86.1v-3c0-0.5,0.4-0.8,0.8-0.8h11.2c0.5,0,0.8,0.4,0.8,0.8v3.1
		L222.8,86.1L222.8,86.1z"/>
	<path class="st6" d="M229.5,83.4h5v1.1h-5V83.4z"/>
	<circle class="st3" cx="184.9" cy="76.6" r="1"/>
	<path class="st3" d="M186.4,74.8c-0.1,0-0.2,0.1-0.2,0.1c0-0.1,0-0.2,0-0.3c0-0.7-0.6-1.3-1.3-1.3c-0.7,0-1.3,0.6-1.3,1.3
		c0,0,0,0,0,0c0,0.1,0,0.2,0,0.3c-0.1,0-0.2-0.1-0.2-0.1c-0.7-0.2-1.4,0.2-1.6,0.8c-0.2,0.7,0.2,1.4,0.8,1.6l0.3,0.1
		c-0.1,0.1-0.1,0.1-0.2,0.2c-0.4,0.6-0.3,1.4,0.3,1.8c0.6,0.4,1.4,0.3,1.8-0.3c0.1-0.1,0.1-0.1,0.1-0.2c0,0.1,0.1,0.2,0.1,0.2
		c0.4,0.6,1.2,0.7,1.8,0.3s0.7-1.2,0.3-1.8c-0.1-0.1-0.1-0.1-0.2-0.2l0.3-0.1c0.7-0.2,1-0.9,0.8-1.6S187.1,74.6,186.4,74.8
		L186.4,74.8z M187.1,86.2h-5l-1.1-4.5h7.3L187.1,86.2z M184.3,81.7c2.2-0.4-0.1-1.3,0.6-3 M181.3,82.8h6.7"/>
	<path class="st4" d="M137.6,82.1l1.6-2.9c1-1.8,1-3.9,0-5.7l-5.3,9.2L137.6,82.1z M146.4,84.1c0,1.1-0.9,2-2,2h-8.9
		c-1.1-0.2-1.8-1.3-1.6-2.4c0.2-0.8,0.8-1.4,1.6-1.6h8.9C145.5,82.2,146.4,83,146.4,84.1L146.4,84.1z M138.8,76.7l-1.5,2.7"/>
	<circle class="st4" cx="136.1" cy="84" r="0.8"/>
	<circle class="st4" cx="143.9" cy="84" r="0.8"/>
	<path class="st4" d="M145.9,82.7v-5.6c0-0.6-0.5-1.1-1.1-1.1c-0.6,0-1.1,0.5-1.1,1.1l0,0c0.8,0.2,1.2,0.9,1.1,1.7
		c-0.1,0.5-0.5,1-1.1,1.1v2.3"/>
	<ellipse transform="matrix(0.9877 -0.1564 0.1564 0.9877 -9.2312 43.9833)" class="st5" cx="274.8" cy="80.6" rx="2.2" ry="2.2"/>
	<ellipse transform="matrix(0.9877 -0.1564 0.1564 0.9877 -8.1485 44.1763)" class="st5" cx="276.6" cy="73.9" rx="0.8" ry="0.8"/>
	<ellipse transform="matrix(0.9877 -0.1564 0.1564 0.9877 -9.7822 44.8831)" class="st5" cx="280.3" cy="84.6" rx="0.8" ry="0.8"/>
	<ellipse transform="matrix(0.9877 -0.1564 0.1564 0.9877 -8.4859 42.767)" class="st5" cx="267.5" cy="75.3" rx="0.8" ry="0.8"/>
	<ellipse transform="matrix(0.9877 -0.1564 0.1564 0.9877 -9.4674 43.0033)" class="st5" cx="268.5" cy="81.6" rx="0.8" ry="0.8"/>
	<path class="st5" d="M269.3,81.5l3.3-0.5 M273.5,84.8l0.5-2.1 M276.4,74.6l-1,3.8 M276.6,82l3,2.1 M268.2,75.8l4.9,3.5"/>
	<ellipse transform="matrix(0.9877 -0.1564 0.1564 0.9877 -10.0385 43.8183)" class="st5" cx="273.4" cy="85.7" rx="0.8" ry="0.8"/>
	<path class="st3" d="M0.4,83.9c0-0.3,0.2-0.5,0.5-0.5c0,0,0,0,0,0h5c0.3,0,0.5,0.2,0.6,0.5c0,0,0,0,0,0v1.1H0.4V83.9z M2,80.6h2.8
		v1.7H2V80.6z"/>
	<path class="st3" d="M0.9,83.4v-3.1c0-0.5,0.4-0.8,0.8-0.8c0,0,0,0,0,0h3.3c0.5,0,0.8,0.3,0.8,0.8c0,0,0,0,0,0v3.1 M7.1,83.9
		c0-0.3,0.2-0.5,0.5-0.5c0,0,0,0,0,0h5c0.3,0,0.5,0.2,0.6,0.5c0,0,0,0,0,0v1.1H7.1V83.9z M8.8,80.6h2.8v1.7H8.8V80.6z"/>
	<path class="st3" d="M7.6,83.4v-3.1c0-0.5,0.4-0.8,0.8-0.8c0,0,0,0,0,0h3.3c0.4,0,0.8,0.4,0.8,0.8v3.1 M5.4,75.6h2.8v1.7H5.4V75.6z
		"/>
	<path class="st3" d="M4.3,78.4v-3.1c0-0.5,0.4-0.8,0.8-0.8c0,0,0,0,0,0h3.3c0.5,0,0.8,0.3,0.8,0.8c0,0,0,0,0,0v3.1 M7.7,80H5.9"/>
	<path class="st3" d="M3.7,79.5v-0.6c0-0.3,0.2-0.5,0.5-0.5c0,0,0,0,0,0h5c0.3,0,0.5,0.2,0.6,0.5c0,0,0,0,0,0v0.5"/>
	<path class="st7" d="M92.8,83.1c0.3,0.4,0.2,1.1-0.2,1.4c-1,0.6-2.1,1-3.2,1.2c0.2-1.1,0.6-2.2,1.2-3.2c0.3-0.4,0.9-0.5,1.4-0.2
		L92.8,83.1z M95,78.2c-0.9,0-1.7,0-2.6,0.2c-0.4,0.2-0.8,0.5-1.2,0.8l-2,2l3.2-0.4L95,78.2z M97,80.2c0,0.9,0,1.7-0.2,2.6
		c-0.2,0.4-0.5,0.8-0.8,1.2l-2,2l0.4-3.1L97,80.2z M92.8,80.4l2,2L92.8,80.4z M92,81.2c-3.6-7.8,6.1-6.1,6.5-6.5c0.6-0.6,3-1,3-1
		s-0.4,2.4-1,3L94,83.2L92,81.2z"/>
	<path class="st8" d="M120.6,109l2.8,2.8H112l2.8-2.8H120.6 M123.8,112.3v2c0,0.5-0.4,0.8-0.8,0.8h-10.6c-0.5,0-0.8-0.4-0.8-0.8v-2
		L123.8,112.3 M120.8,108.6h-6.1l-3.3,3.4h12.9L120.8,108.6L120.8,108.6z M124.1,112h-12.9v2.3c0,0.6,0.5,1.1,1.1,1.1c0,0,0,0,0,0
		H123c0.6,0,1.1-0.5,1.1-1.1c0,0,0,0,0,0L124.1,112L124.1,112z"/>
	<circle class="st1" cx="118.8" cy="113.7" r="0.3"/>
	<circle class="st1" cx="120.5" cy="113.7" r="0.3"/>
	<circle class="st1" cx="122.2" cy="113.7" r="0.3"/>
	<circle class="st1" cx="112.9" cy="113.7" r="0.6"/>
	<path class="st1" d="M123,115.4v0.6 M112.4,115.4v0.6"/>
	<path class="st6" d="M23.7,115.9h9.5v2.8h-9.5C23.7,118.7,23.7,115.9,23.7,115.9z M23.7,113.1h9.5v2.8h-9.5
		C23.7,115.9,23.7,113.1,23.7,113.1z M33.2,109.5c0-1.1-0.9-2-2-2c0,0-0.1,0-0.1,0c-0.5-1-1.5-1.6-2.6-1.6c-1.5,0-2.8,1.1-2.9,2.6
		c-0.8-0.2-1.7,0.3-1.8,1.2c0,0.1,0,0.2,0,0.3c0,0.9,0.8,1.5,1.6,1.5c0,0,0,0,0,0h6C21.4,105.6,33.2,111.2,33.2,109.5L33.2,109.5z"
		/>
	<circle class="st6" cx="25.6" cy="114.5" r="0.6"/>
	<circle class="st6" cx="31.2" cy="114.5" r="0.3"/>
	<circle class="st6" cx="29.6" cy="114.5" r="0.3"/>
	<circle class="st6" cx="25.6" cy="117.3" r="0.6"/>
	<circle class="st6" cx="31.2" cy="117.3" r="0.3"/>
	<circle class="st6" cx="29.6" cy="117.3" r="0.3"/>
	<path class="st5" d="M166.5,117c0,0.9-0.8,1.7-1.7,1.7h-5c-0.9,0-1.7-0.8-1.7-1.7v-9.5c0-0.9,0.8-1.7,1.7-1.7h5
		c0.9,0,1.7,0.8,1.7,1.7V117z M165.4,114.8c0,0.3-0.3,0.6-0.6,0.6h-5c-0.3,0-0.6-0.3-0.6-0.6v-6.2c0-0.3,0.3-0.6,0.6-0.6h5
		c0.3,0,0.6,0.3,0.6,0.6V114.8z"/>
	<path class="st5" d="M164.6,116.8H164v0.6h0.6V116.8z M160.6,116.8h-0.6v0.6h0.6L160.6,116.8L160.6,116.8z M161.5,116.5h1.7v1.1
		h-1.7V116.5z"/>
	<ellipse class="st4" cx="206.9" cy="110.1" rx="3.1" ry="1.4"/>
	<ellipse class="st4" cx="212" cy="106.7" rx="1.4" ry="0.8"/>
	<path class="st4" d="M213.4,106.7v1.7c-0.4,0.8-1.4,1.1-2.1,0.7c-0.3-0.1-0.5-0.4-0.7-0.7v-1.7"/>
	<ellipse class="st4" cx="201.9" cy="106.7" rx="1.4" ry="0.8"/>
	<path class="st4" d="M203.3,106.7v1.7c-0.4,0.8-1.4,1.1-2.1,0.7c-0.3-0.1-0.5-0.4-0.7-0.7v-1.7"/>
	<ellipse class="st4" cx="212" cy="116.2" rx="1.4" ry="0.8"/>
	<path class="st4" d="M213.4,116.2v1.7c-0.4,0.8-1.4,1.1-2.1,0.7c-0.3-0.1-0.5-0.4-0.7-0.7v-1.7"/>
	<ellipse class="st4" cx="201.9" cy="116.2" rx="1.4" ry="0.8"/>
	<path class="st4" d="M211.9,115.4l-1.9-1.9 M211.9,109.2l-1.9,1.9 M201.9,115.4l1.9-1.9 M201.9,109.3l1.9,1.9 M203.9,110.1v4.5
		c0,0.8,1.4,1.4,3.1,1.4s3.1-0.6,3.1-1.4v-4.5 M210,112.3c0,0.8-1.4,1.4-3.1,1.4s-3.1-0.6-3.1-1.4 M203.3,116.3v1.7
		c-0.4,0.8-1.4,1.1-2.1,0.7c-0.3-0.1-0.5-0.4-0.7-0.7v-1.7"/>
	<path class="st3" d="M245.1,109.5h10.6"/>
	<circle class="st3" cx="246.8" cy="108.4" r="0.3"/>
	<circle class="st3" cx="247.9" cy="108.4" r="0.3"/>
	<circle class="st3" cx="249" cy="108.4" r="0.3"/>
	<path class="st3" d="M246.2,107.3h8.4c0.6,0,1.1,0.5,1.1,1.1v5.6c0,0.6-0.5,1.1-1.1,1.1h-8.4c-0.6,0-1.1-0.5-1.1-1.1v-5.6
		C245.1,107.8,245.6,107.3,246.2,107.3z"/>
	<path class="st3" d="M255.8,108.4c0.6,0,1.1,0.5,1.1,1.1v5.6c0,0.6-0.5,1.1-1.1,1.1h-8.4c-0.6,0-1.1-0.5-1.1-1.1"/>
	<path class="st3" d="M256.9,109.5c0.6,0,1.1,0.5,1.1,1.1v5.6c0,0.6-0.5,1.1-1.1,1.1h-8.4c-0.6,0-1.1-0.5-1.1-1.1"/>
	<circle class="st3" cx="73.1" cy="107.8" r="1.4"/>
	<circle class="st3" cx="77" cy="108.4" r="0.8"/>
	<circle class="st3" cx="69.2" cy="108.4" r="0.8"/>
	<path class="st3" d="M75.9,116c2.2,0.2,3.6,0.6,3.6,1c0,0.6-2.9,1.1-6.4,1.1s-6.4-0.5-6.4-1.1c0-0.4,1.5-0.8,3.6-1 M70,114.3h-1.7
		v-3.1c0-0.5,0.4-0.8,0.8-0.8c0.5,0,0.8,0.4,0.8,0.8l0,0V114.3z M77.8,114.3h-1.7v-3.1c0-0.5,0.4-0.8,0.8-0.8c0.5,0,0.8,0.4,0.8,0.8
		l0,0V114.3z M74.5,115.4h-2.8v-3.6c0-0.8,0.6-1.4,1.4-1.4s1.4,0.6,1.4,1.4L74.5,115.4L74.5,115.4z"/>
	<path class="st1" d="M295.3,240.4c0,0-0.8-2-2.5-2c-1.7,0.1-3,1.6-2.9,3.3c0.1,1.6,1.3,2.8,2.9,2.9c2.8,0,3.9-6.1,6.7-6.1
		c1.7,0,3.1,1.3,3.1,3c0,1.7-1.3,3.1-3,3.1c-1.1,0-2.1-0.5-2.6-1.4"/>
	<path class="st1" d="M293.4,240.1l1.9,0.4l0.4-1.9"/>
	<path class="st5" d="M300.4,117c0,0.9-0.8,1.7-1.7,1.7h-5c-0.9,0-1.7-0.8-1.7-1.7v-9.5c0-0.9,0.8-1.7,1.7-1.7h5
		c0.9,0,1.7,0.8,1.7,1.7V117z M299.2,114.8c0,0.3-0.3,0.6-0.6,0.6h-5c-0.3,0-0.6-0.3-0.6-0.6v-6.2c0-0.3,0.3-0.6,0.6-0.6h5
		c0.3,0,0.6,0.3,0.6,0.6V114.8z"/>
	<path class="st5" d="M298.4,116.8h-0.6v0.6h0.6V116.8z M294.5,116.8h-0.6v0.6h0.6V116.8z M295.3,116.5h1.7v1.1h-1.7V116.5z"/>
	<circle class="st3" cx="296.5" cy="44.1" r="1"/>
	<path class="st3" d="M298,42.3c-0.1,0-0.2,0.1-0.2,0.1c0-0.1,0-0.2,0-0.3c0-0.7-0.6-1.3-1.3-1.3c-0.7,0-1.3,0.6-1.3,1.3
		c0,0.1,0,0.2,0,0.3c-0.1,0-0.2-0.1-0.2-0.1c-0.7-0.2-1.4,0.2-1.6,0.8c-0.2,0.7,0.2,1.4,0.8,1.6l0.3,0.1c-0.1,0.1-0.1,0.1-0.2,0.2
		c-0.4,0.6-0.3,1.4,0.3,1.8c0.6,0.4,1.4,0.3,1.8-0.3c0.1-0.1,0.1-0.1,0.1-0.2c0,0.1,0.1,0.2,0.1,0.2c0.4,0.6,1.2,0.7,1.8,0.3
		s0.7-1.2,0.3-1.8c-0.1-0.1-0.1-0.1-0.2-0.2l0.3-0.1c0.6-0.3,0.9-1,0.6-1.7C299.1,42.5,298.5,42.2,298,42.3L298,42.3z M298.7,53.7
		h-5l-1.1-4.5h7.3L298.7,53.7z M295.9,49.2c2.2-0.4-0.1-1.3,0.6-3 M292.8,50.3h6.7"/>
	<circle class="st3" cx="296.2" cy="172.3" r="1.4"/>
	<circle class="st3" cx="300.1" cy="172.9" r="0.8"/>
	<circle class="st3" cx="292.3" cy="172.9" r="0.8"/>
	<path class="st3" d="M299,180.5c2.1,0.2,3.6,0.6,3.6,1c0,0.6-2.9,1.1-6.4,1.1s-6.4-0.5-6.4-1.1c0-0.4,1.5-0.8,3.6-1 M293.1,178.7
		h-1.7v-3.1c0-0.5,0.4-0.8,0.8-0.8c0.5,0,0.8,0.4,0.8,0.8c0,0,0,0,0,0V178.7z M300.9,178.7h-1.7v-3.1c0-0.5,0.4-0.8,0.8-0.8
		c0.5,0,0.8,0.4,0.8,0.8c0,0,0,0,0,0V178.7z M297.6,179.9h-2.8v-3.6c0-0.8,0.6-1.4,1.4-1.4c0.8,0,1.4,0.6,1.4,1.4c0,0,0,0,0,0V179.9
		z"/>
</g>
</svg>
