<?xml version="1.0" encoding="UTF-8"?>
<svg width="468px" height="762px" viewBox="0 0 468 762" version="1.1" xmlns="http://www.w3.org/2000/svg" xmlns:xlink="http://www.w3.org/1999/xlink">
    <!-- Generator: Sketch 40.1 (33804) - http://www.bohemiancoding.com/sketch -->
    <title>offer1_medium</title>
    <desc>Created with Sketch.</desc>
    <defs>
        <rect id="path-1" x="0" y="0" width="468" height="761.785587" rx="3.22758621"></rect>
        <linearGradient x1="50%" y1="0%" x2="50%" y2="100%" id="linearGradient-3">
            <stop stop-color="#050505" stop-opacity="0.5" offset="0%"></stop>
            <stop stop-color="#020202" stop-opacity="0.1" offset="100%"></stop>
        </linearGradient>
    </defs>
    <g id="Assets" stroke="none" stroke-width="1" fill="none" fill-rule="evenodd">
        <g id="card-bg-icons" transform="translate(-936.000000, -194.000000)">
            <g id="offer1_medium" transform="translate(936.000000, 194.000000)">
                <mask id="mask-2" fill="white">
                    <use xlink:href="#path-1"></use>
                </mask>
                <g id="card"></g>
                <path d="M317.847848,113.008475 L317.801048,268.491992 L286.764579,268.516208 L286.751669,173.447021 C286.753283,171.747051 286.785559,169.932458 286.864634,168.030686 L247.002331,243.284644 C244.334731,248.378097 240.151779,250.597907 234.563214,250.597907 L230.157559,250.597907 C227.417338,250.597907 224.946621,250.304085 222.8148,248.999644 C220.670069,247.687131 218.949766,245.938729 217.703917,243.439627 L177.588248,167.509233 C177.707669,169.607962 177.768993,171.622742 177.767379,173.413119 L177.819021,268.464547 L146.855172,268.424186 L466.539517,588.236555 L466.528221,261.743771 L317.847848,113.008475 Z" id="shadow" fill="url(#linearGradient-3)" mask="url(#mask-2)"></path>
                <path d="M316.045753,114.581192 L316.045753,266.733051 L288.257853,266.733051 L288.257853,173.302791 C288.257853,171.345395 288.310283,169.248216 288.415143,167.011192 C288.520004,164.774167 288.712245,162.502223 288.991873,160.195292 L245.474974,242.720111 C243.098135,247.264067 239.428072,249.536011 234.464674,249.536011 L230.060554,249.536011 C227.613808,249.536011 225.446723,248.959287 223.559234,247.805821 C221.671744,246.652355 220.168766,244.957136 219.050254,242.720111 L175.323634,159.880712 C175.533355,162.327457 175.70812,164.686783 175.847934,166.958762 C175.987748,169.23074 176.057654,171.345395 176.057654,173.302791 L176.057654,266.733051 L148.269754,266.733051 L148.269754,114.581192 L172.177834,114.581192 C173.506068,114.581192 174.694469,114.616145 175.743074,114.686052 C176.791679,114.755959 177.717933,114.9482 178.521864,115.262782 C179.325795,115.577363 180.059808,116.066705 180.723924,116.730822 C181.388041,117.394938 182.034671,118.321193 182.663834,119.509612 L225.236994,200.671251 C226.565227,203.117997 227.806058,205.634612 228.959524,208.221171 C230.11299,210.807731 231.214009,213.464158 232.262614,216.190531 C233.311219,213.394251 234.412238,210.667918 235.565704,208.011451 C236.71917,205.354985 237.96,202.803417 239.288234,200.356671 L281.546814,119.509612 C282.175977,118.321193 282.840083,117.394938 283.539153,116.730822 C284.238224,116.066705 284.989713,115.577363 285.793643,115.262782 C286.597574,114.9482 287.506352,114.755959 288.520003,114.686052 C289.533655,114.616145 290.739533,114.581192 292.137673,114.581192 L316.045753,114.581192 Z" id="M" stroke="#7092A6" stroke-width="3.61400008" fill="#002F47" mask="url(#mask-2)"></path>
            </g>
        </g>
    </g>
</svg>