<?xml version="1.0" encoding="UTF-8"?>
<svg width="124px" height="124px" viewBox="0 0 124 124" version="1.1" xmlns="http://www.w3.org/2000/svg" xmlns:xlink="http://www.w3.org/1999/xlink">
    <!-- Generator: Sketch 47.1 (45422) - http://www.bohemiancoding.com/sketch -->
    <title>icon costs</title>
    <desc>Created with Sketch.</desc>
    <defs></defs>
    <g id="Pages" stroke="none" stroke-width="1" fill="none" fill-rule="evenodd">
        <g id="16:9-copy-5" transform="translate(-782.000000, -366.000000)">
            <g id="icon-costs" transform="translate(782.000000, 366.000000)">
                <g>
                    <g id="circle">
                        <path d="M62,0 C96.2416142,0 124,27.7583858 124,62 C124,96.2416142 96.2416142,124 62,124 C27.7583858,124 0,96.2416142 0,62 C0,27.7583858 27.7583858,0 62,0 Z" id="Fill-26" fill="#002F47"></path>
                        <g id="Page-1" transform="translate(32.000000, 25.000000)"></g>
                    </g>
                    <g id="icon" transform="translate(28.000000, 28.000000)" stroke="#FFFFFF" stroke-width="1.84615385">
                        <path d="M23.8949538,0.923815385 C36.5817231,0.923815385 46.8666462,3.66535385 46.8666462,7.04750769 C46.8666462,10.4315077 36.5817231,13.1748923 23.8949538,13.1748923 C11.2081846,13.1748923 0.923261538,10.4315077 0.923261538,7.04750769 C0.923261538,3.66535385 11.2081846,0.923815385 23.8949538,0.923815385 Z" id="Stroke-1"></path>
                        <path d="M46.8662769,16.2374769 L46.8662769,25.4276308 C46.8662769,28.8116308 36.5850462,31.5513231 23.8945846,31.5513231 C11.2078154,31.5513231 0.922892308,28.8116308 0.922892308,25.4276308 L0.922892308,16.2374769 M46.8662769,7.04732308 L46.8662769,16.2374769 C46.8662769,19.6214769 36.5850462,22.3630154 23.8945846,22.3630154 C11.2078154,22.3630154 0.922892308,19.6214769 0.922892308,16.2374769 L0.922892308,7.04732308" id="Stroke-3"></path>
                        <path d="M48.3978462,40.7405538 C61.0846154,40.7405538 71.3695385,43.4820923 71.3695385,46.8660923 C71.3695385,50.2482462 61.0846154,52.9934769 48.3978462,52.9934769 C35.7110769,52.9934769 25.4261538,50.2482462 25.4261538,46.8660923 C25.4261538,43.4820923 35.7110769,40.7405538 48.3978462,40.7405538 Z" id="Stroke-5"></path>
                        <path d="M46.8662769,34.6142769 L46.8662769,40.7398154 M0.922892308,43.8044308 L0.922892308,52.9927385 C0.922892308,56.3767385 11.2078154,59.1164308 23.8945846,59.1164308 L25.4268923,59.1164308 M0.922892308,34.6142769 L0.922892308,43.8044308 C0.922892308,47.1884308 11.2078154,49.9299692 23.8945846,49.9299692 L25.4268923,49.9299692 M46.8662769,25.4259692 L46.8662769,34.6142769 C46.8662769,38.0001231 36.5850462,40.7398154 23.8945846,40.7398154 C11.2078154,40.7398154 0.922892308,38.0001231 0.922892308,34.6142769 L0.922892308,25.4259692 M71.3702769,56.0536615 L71.3702769,65.2438154 C71.3702769,68.6278154 61.0872,71.3693538 48.3985846,71.3693538 C35.7118154,71.3693538 25.4268923,68.6278154 25.4268923,65.2438154 L25.4268923,56.0536615 M71.3702769,46.8672 L71.3702769,56.0536615 C71.3702769,59.4395077 61.0872,62.1810462 48.3985846,62.1810462 C35.7118154,62.1810462 25.4268923,59.4395077 25.4268923,56.0536615 L25.4268923,46.8672" id="Stroke-7"></path>
                    </g>
                </g>
            </g>
        </g>
    </g>
</svg>