<?xml version="1.0" encoding="UTF-8"?>
<svg width="347px" height="700px" viewBox="0 0 347 700" version="1.1" xmlns="http://www.w3.org/2000/svg" xmlns:xlink="http://www.w3.org/1999/xlink">
    <!-- Generator: Sketch 40.1 (33804) - http://www.bohemiancoding.com/sketch -->
    <title>offer2_xlarge</title>
    <desc>Created with Sketch.</desc>
    <defs>
        <rect id="path-1" x="0" y="0" width="347" height="699.803032" rx="2.96581197"></rect>
        <rect id="path-3" x="0" y="0" width="290.649573" height="699.803032" rx="2.96581197"></rect>
        <linearGradient x1="50%" y1="0%" x2="50%" y2="100%" id="linearGradient-5">
            <stop stop-color="#050505" stop-opacity="0.5" offset="0%"></stop>
            <stop stop-color="#020202" stop-opacity="0.1" offset="100%"></stop>
        </linearGradient>
    </defs>
    <g id="Assets" stroke="none" stroke-width="1" fill="none" fill-rule="evenodd">
        <g id="card-bg-icons" transform="translate(-1644.000000, -1164.000000)">
            <g id="offer2_xlarge" transform="translate(1644.000000, 1164.000000)">
                <g id="Angebot-1-Small-Copy-3">
                    <mask id="mask-2" fill="white">
                        <use xlink:href="#path-1"></use>
                    </mask>
                    <g id="card"></g>
                    <g id="icon-xl-2" transform="translate(56.350427, 0.000000)">
                        <mask id="mask-4" fill="white">
                            <use xlink:href="#path-3"></use>
                        </mask>
                        <g id="Mask"></g>
                        <g id="small" mask="url(#mask-4)">
                            <g transform="translate(0.000000, 102.872881)" id="icon-xl">
                                <g>
                                    <path d="M179.897108,0.201822034 L179.613873,116.762203 L233.527886,116.885297 L233.456706,143.425975 L147.494129,143.629153 L147.473369,1.03529661 L136.106894,1.03529661 L90.6810355,68.9249153 L137.158275,143.408178 L105.582758,143.408178 C103.316877,143.408178 101.430621,142.850551 99.978856,141.673008 C98.6442406,140.591864 97.5632021,139.329788 96.7683645,137.880847 L67.9955397,88.955 C67.7330654,89.4977966 67.43945,90.0183475 67.1206252,90.4973729 L38.4397406,137.952034 C37.4966124,139.33572 36.4289201,140.547373 35.2173859,141.619619 C33.8204885,142.857966 32.014309,143.519407 29.9130312,143.52089 L0.274189316,143.552034 L332.600835,475.839958 L332.600835,152.847797 L179.897108,0.201822034 L179.897108,0.201822034 Z" id="shadow" fill="url(#linearGradient-5)"></path>
                                    <path d="M134.639201,142.252184 L105.732611,142.252184 C103.805495,142.252184 102.247767,141.770412 101.059379,140.806854 C99.8709907,139.843296 98.9235064,138.719163 98.2168973,137.434419 L67.9613328,85.980688 C67.6401469,86.6872971 67.3350248,87.3778365 67.0459575,88.052327 C66.7568901,88.7268174 66.4196499,89.3531206 66.0342268,89.9312553 L37.3203471,137.434419 C36.4852636,138.654925 35.5056612,139.763 34.3815104,140.758677 C33.2573596,141.754353 31.8281036,142.252184 30.0936995,142.252184 L3.11421519,142.252184 L48.8829832,70.2747739 L4.84861061,2.44064197 L33.7552009,2.44064197 C35.6823166,2.44064197 37.0955135,2.69758687 37.9948342,3.21148438 C38.8941548,3.72538188 39.6971076,4.56045281 40.4037167,5.7167222 L70.4665706,55.1469917 C70.7877566,54.3761454 71.1410558,53.5892516 71.526479,52.7862868 C71.9119021,51.9833219 72.3615557,51.16431 72.8754532,50.3292266 L99.8549375,6.19849871 C100.625784,4.91375494 101.476914,3.96627062 102.408353,3.35601733 C103.339792,2.74576404 104.479985,2.44064197 105.828966,2.44064197 L133.482938,2.44064197 L89.0631437,69.022155 L134.639201,142.252184 Z M232.054411,118.74149 L232.054411,142.252184 L149.092496,142.252184 L149.092496,2.44064197 L177.999087,2.44064197 L177.999087,118.74149 L232.054411,118.74149 Z" id="XL" stroke="#FF931E" stroke-width="3.48300004" fill="#002F47"></path>
                                </g>
                            </g>
                        </g>
                    </g>
                </g>
            </g>
        </g>
    </g>
</svg>