<?xml version="1.0" encoding="UTF-8"?>
<svg width="124px" height="124px" viewBox="0 0 124 124" version="1.1" xmlns="http://www.w3.org/2000/svg" xmlns:xlink="http://www.w3.org/1999/xlink">
    <!-- Generator: Sketch 47.1 (45422) - http://www.bohemiancoding.com/sketch -->
    <title>icon support</title>
    <desc>Created with Sketch.</desc>
    <defs></defs>
    <g id="Pages" stroke="none" stroke-width="1" fill="none" fill-rule="evenodd">
        <g id="16:9-copy-5" transform="translate(-565.000000, -366.000000)">
            <g id="icon-support" transform="translate(565.000000, 366.000000)">
                <g>
                    <path d="M62,0 C96.2416142,0 124,27.7583858 124,62 C124,96.2416142 96.2416142,124 62,124 C27.7583858,124 0,96.2416142 0,62 C0,27.7583858 27.7583858,0 62,0 Z" id="circle" fill="#002F47"></path>
                    <g id="icon" transform="translate(61.500000, 63.500000) scale(-1, 1) translate(-61.500000, -63.500000) translate(30.000000, 28.000000)" stroke="#FFFFFF" stroke-width="2">
                        <path d="M28.2168348,26.3068615 C32.8276174,26.3068615 36.5646609,30.0287077 36.5646609,34.6145538 C36.5646609,39.2031692 32.8276174,42.9222462 28.2168348,42.9222462 C23.6060522,42.9222462 19.8690087,39.2031692 19.8690087,34.6145538 C19.8690087,30.0287077 23.6060522,26.3068615 28.2168348,26.3068615 Z" id="Stroke-1"></path>
                        <path d="M43.5211826,42.9222462 C45.8279652,42.9222462 47.6950957,44.7831692 47.6950957,47.0760923 C47.6950957,49.3717846 45.8279652,51.2299385 43.5211826,51.2299385 C41.2171826,51.2299385 39.3472696,49.3717846 39.3472696,47.0760923 C39.3472696,44.7831692 41.2171826,42.9222462 43.5211826,42.9222462 Z" id="Stroke-3"></path>
                        <path d="M28.2168348,26.3068615 L28.2168348,0.553015385" id="Stroke-5"></path>
                        <path d="M34.3391304,40.7074154 L40.5721739,44.9720308" id="Stroke-7"></path>
                        <path d="M42.1298783,70.6145538 L42.1298783,59.5376308 L44.912487,59.5376308 C50.4777043,59.5376308 56.0429217,53.9991692 56.0429217,48.4607077 L56.0429217,42.3711692 C56.0429217,42.3711692 59.1037913,41.5376308 60.7733565,40.9865538 C62.9994435,40.4327077 63.2777043,38.2173231 62.4429217,36.2788615 L54.9298783,21.3222462 C54.9298783,21.3222462 51.0342261,1.38378462 28.2168348,1.38378462 C12.912487,1.38378462 0.390747826,13.8453231 0.390747826,29.0760923 C0.390747826,39.6019385 8.73857391,47.3557846 8.73857391,57.0480923 L8.73857391,70.6145538" id="Stroke-9"></path>
                    </g>
                </g>
            </g>
        </g>
    </g>
</svg>