<?xml version="1.0" encoding="UTF-8"?>
<svg width="468px" height="762px" viewBox="0 0 468 762" version="1.1" xmlns="http://www.w3.org/2000/svg" xmlns:xlink="http://www.w3.org/1999/xlink">
    <!-- Generator: Sketch 40.1 (33804) - http://www.bohemiancoding.com/sketch -->
    <title>offer1_small</title>
    <desc>Created with Sketch.</desc>
    <defs>
        <rect id="path-1" x="0" y="0" width="468" height="761.785587" rx="3.22758621"></rect>
        <linearGradient x1="50%" y1="0%" x2="50%" y2="100%" id="linearGradient-3">
            <stop stop-color="#050505" stop-opacity="0.5" offset="0%"></stop>
            <stop stop-color="#020202" stop-opacity="0.1" offset="100%"></stop>
        </linearGradient>
    </defs>
    <g id="Assets" stroke="none" stroke-width="1" fill="none" fill-rule="evenodd">
        <g id="card-bg-icons" transform="translate(-354.000000, -194.000000)">
            <g id="offer1_small" transform="translate(354.000000, 194.000000)">
                <mask id="mask-2" fill="white">
                    <use xlink:href="#path-1"></use>
                </mask>
                <g id="card"></g>
                <path d="M282.551288,132.070458 L275.623274,145.339267 C274.471026,147.234581 273.391399,148.503504 272.189123,149.373669 C270.894861,150.31164 269.271385,150.766903 267.32515,150.766903 C265.495109,150.768517 263.544033,150.134055 261.513881,148.899034 C259.758074,147.831911 257.690806,146.659852 255.360488,145.428059 C253.081812,144.218869 250.40453,143.066182 247.404488,142.005517 C244.510957,140.988441 241.059054,140.471831 237.13915,140.470216 C230.309578,140.471831 225.169647,141.973229 221.861371,144.93728 C218.548254,147.912631 216.945757,151.669356 216.944143,156.478674 C216.944143,159.447568 217.786543,161.82236 219.51653,163.737047 C221.362709,165.777657 223.84795,167.57772 226.898019,169.085576 C230.052985,170.649936 233.692088,172.064157 237.718502,173.29272 C241.782033,174.532585 246.069881,175.932275 250.462626,177.454661 C254.847302,178.975432 259.178723,180.785182 263.335854,182.827407 C267.59304,184.924521 271.448392,187.59475 274.795399,190.762216 C278.181137,193.968428 280.948792,197.935025 283.022516,202.549 C285.099468,207.182347 286.151661,212.856987 286.151661,219.419551 C286.153274,226.514869 285.018778,233.384169 282.539992,239.598021 C280.083799,245.760212 276.618985,251.350903 272.000309,255.971335 C271.953509,256.016538 271.909937,256.061742 271.86475,256.105331 C267.204116,260.767737 261.218557,264.333962 254.363164,266.991275 C247.523909,269.642131 239.629233,270.922356 231.014806,270.920742 C226.110488,270.92397 221.12064,270.386373 216.243757,269.388669 C211.38624,268.397424 206.475468,267.126886 201.971371,265.352653 C198.701826,264.06597 195.858323,262.240076 192.367688,261.0325 L467.385468,536.153246 L467.545233,317.13475 L282.551288,132.070458 Z" id="shadow" fill="url(#linearGradient-3)" mask="url(#mask-2)"></path>
                <path d="M274.262935,144.012463 C273.284236,145.620324 272.288076,146.791249 271.274425,147.525273 C270.260773,148.259296 268.950036,148.626303 267.342175,148.626303 C265.80422,148.626303 264.143954,148.084531 262.361325,147.000973 C260.578696,145.917414 258.498993,144.746489 256.122155,143.488163 C253.745316,142.229836 251.018983,141.058911 247.943075,139.975353 C244.867166,138.891794 241.267009,138.350023 237.142495,138.350023 C229.872165,138.350023 224.4195,139.975336 220.784335,143.226013 C217.14917,146.476689 215.331615,150.723476 215.331615,155.966503 C215.331615,159.322039 216.327775,162.100801 218.320125,164.302872 C220.312475,166.504943 222.933949,168.409881 226.184625,170.017742 C229.435301,171.625604 233.122841,173.058676 237.247355,174.317002 C241.371869,175.575329 245.60118,176.955972 249.935415,178.458972 C254.26965,179.961973 258.498961,181.727099 262.623475,183.754402 C266.747989,185.781706 270.435528,188.333274 273.686205,191.409182 C276.936881,194.485091 279.558355,198.242537 281.550704,202.681632 C283.543054,207.120728 284.539214,212.520964 284.539214,218.882502 C284.539214,225.803297 283.333337,232.287075 280.921544,238.334032 C278.509752,244.380989 275.031931,249.658889 270.487975,254.167892 C265.944019,258.676894 260.334065,262.224622 253.657945,264.811182 C246.981825,267.397741 239.414504,268.691002 230.955755,268.691002 C226.132171,268.691002 221.326135,268.20166 216.537505,267.222962 C211.748874,266.244264 207.13508,264.881097 202.695985,263.133422 C198.256889,261.385746 194.080008,259.288567 190.165215,256.841822 C186.250422,254.395076 182.82503,251.668744 179.888935,248.662742 L189.116615,233.772622 C189.885592,232.65411 190.899229,231.727856 192.157555,230.993832 C193.415881,230.259808 194.744095,229.892802 196.142235,229.892802 C198.029724,229.892802 200.022045,230.591862 202.119255,231.990002 C204.216465,233.388142 206.628221,234.926074 209.354595,236.603842 C212.080969,238.28161 215.244214,239.819542 218.844425,241.217682 C222.444636,242.615822 226.76133,243.314882 231.794635,243.314882 C239.134871,243.314882 244.814731,241.637139 248.834385,238.281602 C252.854038,234.926065 254.863835,229.927789 254.863835,223.286622 C254.863835,219.441736 253.867675,216.330921 251.875325,213.954082 C249.882975,211.577244 247.278977,209.584924 244.063255,207.977062 C240.847532,206.369201 237.177469,204.988558 233.052955,203.835092 C228.928441,202.681626 224.69913,201.405843 220.364895,200.007702 C216.03066,198.609562 211.801349,196.931819 207.676835,194.974422 C203.552321,193.017026 199.882258,190.430505 196.666535,187.214782 C193.450812,183.99906 190.846815,180.014419 188.854465,175.260742 C186.862115,170.507065 185.865955,164.600011 185.865955,157.539403 C185.865955,151.876934 186.984451,146.389316 189.221475,141.076383 C191.4585,135.763449 194.74408,131.044797 199.078315,126.920283 C203.41255,122.795769 208.74288,119.475235 215.069465,116.958583 C221.39605,114.44193 228.648794,113.183623 236.827915,113.183623 C245.985734,113.183623 254.461832,114.599219 262.256465,117.430453 C270.051097,120.261687 276.639734,124.193898 282.022574,129.227203 L274.262935,144.012463 Z" id="S" stroke="#7092A6" stroke-width="3.61400008" fill="#002F47" mask="url(#mask-2)"></path>
            </g>
        </g>
    </g>
</svg>