<?xml version="1.0" encoding="UTF-8"?>
<svg width="124px" height="124px" viewBox="0 0 124 124" version="1.1" xmlns="http://www.w3.org/2000/svg" xmlns:xlink="http://www.w3.org/1999/xlink">
    <!-- Generator: Sketch 47.1 (45422) - http://www.bohemiancoding.com/sketch -->
    <title>icon self service</title>
    <desc>Created with Sketch.</desc>
    <defs></defs>
    <g id="Pages" stroke="none" stroke-width="1" fill="none" fill-rule="evenodd">
        <g id="16:9-copy-5" transform="translate(-782.000000, -186.000000)">
            <g id="icon-self-service" transform="translate(782.000000, 186.000000)">
                <g>
                    <path d="M62,0 C96.2416142,0 124,27.7583858 124,62 C124,96.2416142 96.2416142,124 62,124 C27.7583858,124 0,96.2416142 0,62 C0,27.7583858 27.7583858,0 62,0 Z" id="circle" fill="#002F47"></path>
                    <g id="icon" transform="translate(36.000000, 18.000000)" stroke-linecap="round" stroke-width="2" stroke="#FFFFFF" stroke-linejoin="round">
                        <g id="Group-2">
                            <path d="M27.4237007,87.2533198 C25.752766,87.2533198 24.2917916,86.5438913 23.5149382,85.3533763 L9.12040417,64.3406995 C8.40303952,63.2983452 8.17558244,62.2281019 8.42053622,61.0689621 C8.60425156,60.2444912 9.09415912,59.047004 10.3416737,58.192901 C11.055539,57.7065852 11.8936309,57.4486112 12.7649665,57.4486112 C14.2591846,57.4486112 15.6571708,58.1841856 16.5057607,59.4147912 L22.7450835,68.4857136 L22.7450835,33.6104222 C22.7450835,31.147468 24.7554542,29.1429406 27.2277377,29.1429406 C29.7000212,29.1429406 31.7103919,31.147468 31.7103919,33.6104222 L31.7103919,53.6800996 L33.9184753,54.0879774 C45.8932159,56.2894714 52.4334819,62.8573492 52.3355004,72.5801788 L52.3355004,82.3814465 C52.3355004,85.0675133 50.143164,87.2533198 47.4469228,87.2533198 L27.4237007,87.2533198 Z" id="Stroke-1"></path>
                            <path d="M15.8501594,29.9824018 C15.8501594,23.9252428 20.7789794,19.0150221 26.8590822,19.0150221 C32.9391851,19.0150221 37.8680051,23.9252428 37.8680051,29.9824018" id="Stroke-3"></path>
                            <path d="M27.1930942,12.0359547 L27.1930942,0.0994295416" id="Stroke-5"></path>
                            <path d="M35.632102,14.6455008 L41.6229716,4.30736842" id="Stroke-7"></path>
                            <path d="M41.6311951,21.1070515 L52.0067374,15.1387889" id="Stroke-9"></path>
                            <path d="M17.6962361,14.0361245 L11.7053664,3.69973514" id="Stroke-11"></path>
                            <path d="M10.4763983,20.4994182 L0.0991063007,14.5311556" id="Stroke-13"></path>
                        </g>
                    </g>
                </g>
            </g>
        </g>
    </g>
</svg>