<?xml version="1.0" encoding="UTF-8" standalone="no"?>
<svg width="96px" height="88px" viewBox="0 0 96 88" version="1.1" xmlns="http://www.w3.org/2000/svg" xmlns:xlink="http://www.w3.org/1999/xlink">
    <!-- Generator: Sketch 39.1 (31720) - http://www.bohemiancoding.com/sketch -->
    <title>offer_puzzle</title>
    <desc>Created with Sketch.</desc>
    <defs>
        <path d="M85.5747123,62.5235938 C87.753266,61.2577047 88.5098748,58.4946945 87.3143641,56.2930587 L80.0052179,43.4952804 C78.5688233,40.5443686 79.6123567,36.9501145 82.4961204,35.2851727 C83.7476415,34.5626067 86.4074113,34.4108165 86.4074113,34.4108165 C88.0348528,34.4095159 89.6829644,34.0020591 91.1926876,33.13042 C95.7907111,30.4757499 97.3650088,24.5971967 94.7097541,19.9981606 C92.055084,15.4001372 86.1775433,13.8252549 81.5795198,16.479925 C80.0697966,17.3515641 78.8928728,18.5751422 78.0780258,19.9838976 C78.0780258,19.9838976 76.6253717,22.2077665 75.3809386,22.9262403 C72.4981875,24.5905974 68.8637054,23.6971968 67.026766,20.9761896 L58.4987229,6.29404479 C57.1909944,4.09914472 54.3609874,3.34341438 52.1455117,4.6225199 C52.0867834,4.65642672 38.3937813,12.5850364 38.3937813,12.5850364 C37.1663855,13.351727 36.7336789,14.9570273 37.4579987,16.211586 C37.5901184,16.440424 37.7607879,16.6308042 37.9454347,16.8009641 C39.1651859,17.7046817 40.2268357,18.8630384 41.0335842,20.2603677 C44.1863338,25.7210901 42.3157331,32.7022669 36.8570358,35.8538473 C31.3973259,39.0060122 24.4171617,37.134827 21.2644121,31.6741045 C20.4792939,30.3142398 20.0064211,28.859155 19.8225274,27.3924868 C19.7707438,27.0970156 19.6777893,26.8050633 19.518778,26.5296476 C18.7944582,25.2750889 17.1935215,24.8452633 15.9359251,25.5713369 C15.8073303,25.6455811 2.38134964,33.3538723 2.3226213,33.3877791 C0.104107883,34.6686384 -0.660265547,37.5117359 0.622347575,39.733287 C0.68606901,39.8436558 0.769571666,39.9345034 0.841236918,40.0375856 L8.55328446,53.3952438 C9.27818886,54.6508151 10.884773,55.0787302 12.1393317,54.3544104 C12.3904459,54.2094296 14.5044605,52.2261094 15.4684152,51.6695699 C20.9291376,48.5168203 27.9077047,50.3875776 31.0598696,55.8472875 C34.21145,61.3059848 32.3428745,68.2859924 26.882152,71.438742 C25.9171847,71.9958661 23.2104971,72.8146807 22.8945792,72.997076 C21.6400205,73.7213958 21.2099235,75.3265394 21.934828,76.5821106 C21.9424278,76.5952739 29.4393004,89.5708846 29.4393004,89.5708846 C30.7125599,91.7762348 33.5250401,92.5366839 35.7419676,91.2904921 L48.9709163,83.6595054 C49.984679,82.8244451 50.305996,81.3793111 49.6372133,80.2209454 C49.0328685,79.4641512 48.3996489,78.671375 47.8793546,77.7701988 C44.7271897,72.3104889 46.5967778,65.3298968 52.0564877,62.1777318 C57.515185,59.0261514 64.4963617,60.8967521 67.6485267,66.356462 C68.168821,67.2576381 68.5397882,68.2018259 68.791763,69.1620609 C69.4899796,70.1562747 70.6612112,70.6181784 71.7550116,70.366044 L72.4278227,70.1166542 C72.4964053,70.0811082 85.5747123,62.5235938 85.5747123,62.5235938 Z" id="path-1"></path>
        <mask id="mask-2" maskContentUnits="userSpaceOnUse" maskUnits="objectBoundingBox" x="0" y="0" width="96" height="87.8889588" fill="white">
            <use xlink:href="#path-1"></use>
        </mask>
    </defs>
    <g id="Page-1" stroke="none" stroke-width="1" fill="none" fill-rule="evenodd">
        <g id="V1" transform="translate(-242.000000, -1934.000000)">
            <g id="offer_puzzle" transform="translate(242.000000, 1930.000000)">
                <use id="Shape" stroke="#FFFFFF" mask="url(#mask-2)" stroke-width="4" xlink:href="#path-1"></use>
                <rect id="Rectangle-path" x="0" y="0" width="96" height="96"></rect>
            </g>
        </g>
    </g>
</svg>