<?xml version="1.0" encoding="UTF-8"?>
<svg width="347px" height="700px" viewBox="0 0 347 700" version="1.1" xmlns="http://www.w3.org/2000/svg" xmlns:xlink="http://www.w3.org/1999/xlink">
    <!-- Generator: Sketch 40.1 (33804) - http://www.bohemiancoding.com/sketch -->
    <title>offer2_medium</title>
    <desc>Created with Sketch.</desc>
    <defs>
        <rect id="path-1" x="0" y="0" width="347" height="699.803032" rx="2.96581197"></rect>
        <linearGradient x1="50%" y1="0%" x2="50%" y2="100%" id="linearGradient-3">
            <stop stop-color="#050505" stop-opacity="0.5" offset="0%"></stop>
            <stop stop-color="#020202" stop-opacity="0.1" offset="100%"></stop>
        </linearGradient>
    </defs>
    <g id="Assets" stroke="none" stroke-width="1" fill="none" fill-rule="evenodd">
        <g id="card-bg-icons" transform="translate(-788.000000, -1164.000000)">
            <g id="offer2_medium" transform="translate(788.000000, 1164.000000)">
                <mask id="mask-2" fill="white">
                    <use xlink:href="#path-1"></use>
                </mask>
                <g id="Mask"></g>
                <path d="M252.030252,103.813559 L251.987248,246.646186 L223.468,246.668432 L223.456137,159.334534 C223.45762,157.772881 223.487278,156.105932 223.55994,154.358898 L186.930679,223.489831 C184.479436,228.168856 180.635744,230.208051 175.50044,230.208051 L171.452107,230.208051 C168.934132,230.208051 166.663803,229.938136 164.704885,228.739831 C162.734103,227.53411 161.153325,225.927966 160.008521,223.632203 L123.146444,153.879873 C123.256179,155.807839 123.31253,157.658686 123.311047,159.30339 L123.3585,246.620975 L94.9059829,246.583898 L388.662244,540.374788 L388.651863,240.447034 L252.030252,103.813559 Z" id="shadow" fill="url(#linearGradient-3)" mask="url(#mask-2)"></path>
                <path d="M250.374317,105.06134 L250.374317,244.872881 L224.840162,244.872881 L224.840162,159.020308 C224.840162,157.221667 224.888339,155.29458 224.984695,153.23899 C225.08105,151.1834 225.2577,149.095723 225.514649,146.975895 L185.527199,222.807517 C183.343135,226.982935 179.970733,229.070612 175.409892,229.070612 L171.36297,229.070612 C169.114668,229.070612 167.123345,228.540663 165.388941,227.48075 C163.654537,226.420836 162.273458,224.863107 161.245663,222.807517 L121.065502,146.68683 C121.258214,148.935131 121.418805,151.103104 121.547279,153.190812 C121.675753,155.278521 121.73999,157.221667 121.73999,159.020308 L121.73999,244.872881 L96.2058348,244.872881 L96.2058348,105.06134 L118.174843,105.06134 C119.39535,105.06134 120.487366,105.093458 121.450924,105.157695 C122.414482,105.221932 123.265612,105.398582 124.004339,105.687649 C124.743067,105.976716 125.417547,106.42637 126.027801,107.036623 C126.638054,107.646876 127.232239,108.498006 127.810374,109.590039 L166.930626,184.169042 C168.151132,186.417343 169.291325,188.729847 170.351239,191.106623 C171.411153,193.483399 172.422873,195.924376 173.386431,198.429626 C174.349989,195.860139 175.361709,193.354926 176.421623,190.913913 C177.481537,188.4729 178.62173,186.128277 179.842236,183.879976 L218.673422,109.590039 C219.251557,108.498006 219.861801,107.646876 220.504173,107.036623 C221.146545,106.42637 221.837085,105.976716 222.575812,105.687649 C223.31454,105.398582 224.149611,105.221932 225.08105,105.157695 C226.012489,105.093458 227.120564,105.06134 228.405308,105.06134 L250.374317,105.06134 Z" id="M" stroke="#FF931E" stroke-width="3.48300004" fill="#002F47" mask="url(#mask-2)"></path>
            </g>
        </g>
    </g>
</svg>