<?xml version="1.0" encoding="UTF-8"?>
<svg width="347px" height="700px" viewBox="0 0 347 700" version="1.1" xmlns="http://www.w3.org/2000/svg" xmlns:xlink="http://www.w3.org/1999/xlink">
    <!-- Generator: Sketch 40.1 (33804) - http://www.bohemiancoding.com/sketch -->
    <title>offer2_micro</title>
    <desc>Created with Sketch.</desc>
    <defs>
        <rect id="path-1" x="0" y="0" width="347" height="699.803032" rx="2.96581197"></rect>
        <linearGradient x1="50%" y1="0%" x2="50%" y2="100%" id="linearGradient-3">
            <stop stop-color="#050505" stop-opacity="0.5" offset="0%"></stop>
            <stop stop-color="#020202" stop-opacity="0.1" offset="100%"></stop>
        </linearGradient>
    </defs>
    <g id="Assets" stroke="none" stroke-width="1" fill="none" fill-rule="evenodd">
        <g id="card-bg-icons" transform="translate(-360.000000, -1164.000000)">
            <g id="offer2_micro" transform="translate(360.000000, 1164.000000)">
                <mask id="mask-2" fill="white">
                    <use xlink:href="#path-1"></use>
                </mask>
                <g id="Mask"></g>
                <path d="M217.461044,120.127119 L211.122019,132.316314 C210.06773,134.057415 209.079887,135.223093 207.979823,136.022458 C206.795593,136.88411 205.310138,137.302331 203.529364,137.302331 C201.854904,137.303814 200.0697,136.720975 198.212142,135.586441 C196.605606,134.606144 194.714087,133.529449 192.581883,132.397881 C190.49693,131.287076 188.047257,130.228178 185.302266,129.253814 C182.65473,128.319492 179.496291,127.844915 175.90964,127.843432 C169.660687,127.844915 164.95773,129.224153 161.930708,131.947034 C158.899257,134.680297 157.432998,138.131356 157.431521,142.549364 C157.431521,145.276695 158.202304,147.458263 159.785215,149.217161 C161.47444,151.091737 163.748398,152.745339 166.539164,154.130508 C169.425908,155.567585 172.755632,156.866737 176.439738,157.995339 C180.157806,159.134322 184.081121,160.420127 188.100415,161.818644 C192.112325,163.215678 196.075508,164.878178 199.879219,166.754237 C203.774478,168.68072 207.302066,171.133686 210.364525,174.043432 C213.462423,176.988771 215.994785,180.632627 217.89221,184.871186 C219.792589,189.127542 220.75533,194.340466 220.75533,200.369068 C220.756806,206.887076 219.718759,213.197458 217.450708,218.90572 C215.20333,224.566525 212.033078,229.702331 207.807061,233.946822 C207.76424,233.988347 207.724372,234.029873 207.683027,234.069915 C203.418619,238.352966 197.941925,241.629025 191.669347,244.070127 C185.411534,246.505297 178.188027,247.681356 170.305959,247.679873 C165.818585,247.682839 161.252951,247.188983 156.790678,246.272458 C152.346125,245.361864 147.852844,244.194703 143.731666,242.564831 C140.740083,241.382839 138.138321,239.705508 134.944444,238.596186 L386.581461,491.33178 L386.727644,290.133686 L217.461044,120.127119 Z" id="shadow" fill="url(#linearGradient-3)" mask="url(#mask-2)"></path>
                <path d="M210.496657,131.848113 C209.597336,133.325569 208.68197,134.401525 207.750531,135.076016 C206.819092,135.750506 205.614662,136.087746 204.137207,136.087746 C202.723989,136.087746 201.198379,135.589916 199.56033,134.594239 C197.922282,133.598563 196.011254,132.522606 193.82719,131.366337 C191.643126,130.210067 189.137913,129.134111 186.311476,128.138434 C183.48504,127.142758 180.176875,126.644927 176.38688,126.644927 C169.706213,126.644927 164.695787,128.138419 161.355453,131.125448 C158.01512,134.112478 156.344978,138.014828 156.344978,142.832618 C156.344978,145.916003 157.260344,148.469393 159.091104,150.492864 C160.921864,152.516335 163.330722,154.266773 166.317751,155.744228 C169.304781,157.221683 172.693242,158.538526 176.483236,159.694795 C180.27323,160.851065 184.159521,162.11973 188.142227,163.50083 C192.124933,164.881929 196.011224,166.503894 199.801219,168.366772 C203.591213,170.229651 206.979674,172.574273 209.966703,175.400709 C212.953732,178.227146 215.362591,181.679843 217.19335,185.758904 C219.02411,189.837966 219.939477,194.800214 219.939477,200.645798 C219.939477,207.00528 218.831402,212.96319 216.615219,218.519707 C214.399036,224.076223 211.203283,228.926058 207.027866,233.069357 C202.852449,237.212656 197.697492,240.472644 191.56284,242.84942 C185.428189,245.226196 178.474617,246.414566 170.701918,246.414566 C166.269552,246.414566 161.853311,245.964913 157.453064,245.065592 C153.052816,244.166271 148.813226,242.913665 144.734164,241.307735 C140.655103,239.701806 136.816988,237.774719 133.219706,235.526417 C129.622423,233.278116 126.474848,230.772903 123.776886,228.010704 L132.256153,214.328251 C132.962762,213.300456 133.894187,212.449326 135.050456,211.774835 C136.206726,211.100345 137.427214,210.763105 138.711958,210.763105 C140.446362,210.763105 142.277094,211.405467 144.20421,212.690211 C146.131326,213.974955 148.347475,215.388152 150.852726,216.929844 C153.357976,218.471537 156.264665,219.884734 159.57288,221.169477 C162.881096,222.454221 166.847683,223.096583 171.47276,223.096583 C178.217665,223.096583 183.436858,221.554914 187.130497,218.471529 C190.824135,215.388144 192.670926,210.795254 192.670926,204.692721 C192.670926,201.159675 191.75556,198.301163 189.9248,196.117099 C188.09404,193.933035 185.701241,192.102302 182.74633,190.624847 C179.79142,189.147392 176.419018,187.878726 172.629024,186.818812 C168.83903,185.758899 164.952738,184.586588 160.970032,183.301844 C156.987327,182.0171 153.101035,180.475431 149.311041,178.67679 C145.521047,176.878148 142.148645,174.501408 139.193734,171.546497 C136.238824,168.591587 133.846024,164.930122 132.015264,160.561993 C130.184504,156.193864 129.269138,150.765903 129.269138,144.277947 C129.269138,139.074735 130.296918,134.032191 132.352508,129.150165 C134.408098,124.268138 137.4272,119.932193 141.409906,116.142199 C145.392612,112.352205 150.290624,109.300984 156.10409,106.988446 C161.917555,104.675907 168.582063,103.519655 176.097815,103.519655 C184.512886,103.519655 192.301529,104.820438 199.463975,107.422044 C206.626422,110.023651 212.680686,113.636938 217.626949,118.262016 L210.496657,131.848113 Z" id="S" stroke="#FF931E" stroke-width="3.48300004" fill="#002F47" mask="url(#mask-2)"></path>
            </g>
        </g>
    </g>
</svg>