<svg width="127" height="139" xmlns="http://www.w3.org/2000/svg" xmlns:xlink="http://www.w3.org/1999/xlink"><defs><path id="a" d="M0 0h127v139H0z"/></defs><g fill="none" fill-rule="evenodd"><mask id="b" fill="#fff"><use xlink:href="#a"/></mask><g mask="url(#b)" fill-rule="nonzero"><path fill="#F6F5F5" d="M15 12h111.53913v111.190583H15z"/><path fill="#F2F2F2" d="M15.4608696 12.1098655h24.2956522v111.190583H15.4608696z"/><path fill="#CCC" d="M2 0h12v491H2z"/><path fill="#898989" d="M8 0h6v491H8z"/><path fill="#B3B3B3" d="M0 4.40358744h15.4608696v125.502242H0z"/><path fill="gray" d="M7.73043478 4.40358744h7.73043478v125.502242H7.73043478z"/></g><g fill-rule="nonzero"><path d="M82.645152 55.889376c-.517206.3980302-.828416 1.0072149-.847808 1.65956-.013232 1.253488-.012592 2.507104.00192 3.760848.0319982 1.1080685.9198047 2.000404 2.027696 2.03804 1.150176.014288 2.30048.014128 3.450912-.00048.30268-.003792.404728.083576.402528.393888-.012152 1.705904.000232 3.41196-.0064 5.11792-.004 1.021088-.473664 1.487392-1.501976 1.490184-2.22312.006032-4.4462533.006168-6.6694.000408-.3987191.0504268-.7981414-.0880153-1.0801271-.3743785-.2819858-.2863631-.4142592-.6878704-.3576969-1.0857655.001032-1.654272.005536-3.308544.0032-4.962808.0374023-.3925831-.1033257-.7812327-.3834065-1.0588568-.2800809-.2776241-.6699551-.4149227-1.0621935-.3740632-5.79048.000384-11.58096.0014507-17.37144.0032-.3726252-.0392721-.7430486.0918952-1.0079261.356908-.2648776.2650127-.3958561.6355028-.3563939 1.008108a9108.07143346 9108.07143346 0 00-.001992 4.962872c.0487312.4192183-.0973358.8376504-.3963718 1.1354694-.2990359.2978191-.7180601.4421788-1.1370762.3917386-2.210208-.002768-4.420424.000608-6.630624-.00336-.4133677.0484013-.825953-.0965675-1.1181939-.3928964s-.4314647-.7108881-.3773261-1.1235436a304043.3333411 304043.3333411 0 00-.0046-14.46212c-.000088-.120384.073064-.291784-.061088-.352-.1202-.053952-.23232.086352-.328152.161136-.874016.682032-1.739472 1.375048-2.613208 2.057448-.330704.25828-.478088.2272-.742064-.098704a9.1422651 9.1422651 0 00-.652072-.764632c-.0927863-.0716375-.1517328-.1785266-.162809-.2952251-.0110761-.1166985.0267087-.2327686.104361-.3205829a2094.1265352 2094.1265352 0 002.895272-4.391248c.607928-.92732 1.204368-1.86216 1.80888-2.79172.2644303-.36260634.692847-.56873589 1.1412-.54908.2832-.018144.568456-.00536.8528-.005392a621244.58242715 621244.58242715 0 0123.381744-.001992c.116312 0 .232688.001064.34892.00492.4363809-.04198354.8644378.1393148 1.1379175.48195124.2734797.34263644.3553666.8002349.2176825 1.21644876-.174816.93856-.3366827 1.87950133-.4856 2.822824-.0646174.36931499.0340064.74850807.2703729 1.03954052.2363664.29103245.5872703.46533244.9619871.47783548 1.718648.024384 3.438008.020424 5.1568.001072.4829684.00340572.9176053-.29253158 1.09144-.743144.060464-.1376.0872-.310688-.158904-.266496a18.8983364 18.8983364 0 01-3.05508.077904c-.591762.0591205-1.1888577.03610237-1.774312-.0684-.9038166-.24055942-1.4532428-1.15539489-1.240944-2.066264.209496-1.18072.374448-2.36944.5912-3.548728.0665107-.61817043.2674594-1.214305.588752-1.746592.103688-.14788.191096-.33288.403912-.314824.2056.017456.289496.203616.36944.363336.1876459.49543168.27725 1.02260108.263832 1.552208a1.42652503 1.42652503 0 01-.000656.309728c-.042912.31424.064616.417744.400672.416608 3.825824-.01296 7.6516907-.01557067 11.4776-.007832.7364393-.04484966 1.445219.28753018 1.881664.8824.2537931.34611739.3873273.7659742.37904 1.195096.007288 3.721928.014448 7.443896-.000392 11.165776.0086793.5641015-.2133401 1.1072908-.6148181 1.5036526-.4014781.3963617-.9474711.611478-1.5114139.5954834-1.9387413.0085067-3.877512.0089867-5.816312.00144-1.1665264-.0492084-2.0799099-1.0215746-2.05612-2.188896-.008656-1.344-.001408-2.688072-.001976-4.03212-.000032-.050272-.009472-.100536-.024872-.253808z" fill="#1A79A9"/><path d="M26.196152 83.609344c.000096-2.429328.004944-4.858696-.00588-7.288-.001392-.31332.082624-.434104.410952-.42956 2.27392.031424 4.551272-.081488 6.821288.05772 1.48353313-.0123278 2.86421.7565188 3.634968 2.024176.6192045 1.0822095.7432346 2.3784029.340496 3.5584-.3883425 1.2397312-1.3226557 2.2335855-2.536064 2.69768-.164616.072664-.399448.112048-.1536.353736.55907262.6436675.99752716 1.3828513 1.294328 2.182088.2246844.5795805.5825965 1.0981584 1.0448 1.513808.3844348.2715735.8649405.3699622 1.325176.271344.14676-.01608.208288-.122616.253248-.257032.547984-1.638304 1.09872-3.275688 1.652208-4.912152a1214.56141138 1214.56141138 0 011.056448-3.116384c.460048-1.355416.92596-2.708896 1.375544-4.067776.0382072-.1957941.222124-.3280904.419904-.302048 1.05964.0062 2.119344.001784 3.179024.003928.197744.0004.361488.016752.444.268944.497232 1.519632 1.014856 3.032592 1.524672 4.548112a36740.52955724 36740.52955724 0 011.948544 5.793896c.483384 1.428384.975616 2.853784 1.464584 4.280288.165768.48364.143296.512224-.373016.511008-.930456-.002184-1.861712-.022504-2.791008.01048-.1561064.029141-.3173213-.0073676-.4456427-.1009198-.1283215-.0935522-.212396-.2358708-.2324053-.3934082-.201312-.706448-.454896-1.397872-.664064-2.10228-.0348348-.2105287-.2330113-.3535102-.443784-.320184-1.511952.0075307-3.0239253.0067733-4.53592-.002272-.1003118-.0167385-.2031581.0071956-.2857725.066504-.0826144.0593084-.1381825.1490992-.1544035.249496-.224568.753312-.484 1.496288-.704728 2.250648-.07348.251152-.170008.353056-.4496.352288-1.226792-.003384-2.4536-.044312-3.68068.041768-1.40345469.1560633-2.7583163-.5673472-3.409392-1.8204a22.76071168 22.76071168 0 01-1.204496-2.591296c-.1831539-.4693618-.42778818-.9123409-.727496-1.317336-.34185387-.4070062-.88749545-.5808173-1.401776-.446528-.226664.067656-.190608.247136-.190752.410272a2751.08602162 2751.08602162 0 00.00008 4.884408c.001424.825688.005248.826056-.828.826928-.852912.000888-1.706032-.009384-2.558648.0068-.308728.005856-.423528-.070584-.42142899-.409176.01534099-2.429272.00820499-4.85864.00829299-7.287968zm3.798536-3.058544c0 .5164.0184 1.033704-.007016 1.548856-.0148.3002.105016.393872.377248.386112.464432-.013248.9312.007104 1.39328-.031424 1.581448-.131856 2.346192-1.183912 1.943384-2.652704-.14447093-.6253033-.68097808-1.0825071-1.32128-1.125976-.693872-.091-1.393096-.024672-2.089384-.04968-.248248-.008912-.302448.117848-.2984.33696.009792.529128.003176 1.058552.002168 1.587856zm14.429056 5.000552c.439336 0 .879568-.017336 1.31772.005432.355616.01848.375768-.103784.277432-.40764-.681937-1.687095-1.159301-3.4498122-1.421888-5.250472-.005696-.07512-.0208-.177328-.113336-.176961-.12764.000521-.10452.123025-.115288.205825A14.65493001 14.65493001 0 0143.652 82.8528c-.274992.7912-.515496 1.594344-.782568 2.388392-.08268.245832-.019952.323344.236432.3148.438856-.014608.878544-.003992 1.31788-.00464zM61.402032 86.246208c0-.41188.016-.720272-.00248-1.026584-.180584-2.996-.04328-5.995-.092488-8.992112-.00428-.26028.0944-.33544.340864-.33236.775384.009696 1.551472.01812 2.326264-.005928.339528-.010544.4425579.089224.440232.4344-.014776 2.235784-.00832 4.471712-.008 6.707592.000408 2.59776-.00508 5.195552.0103259 7.793224.0021301.3664-.0879419.494104-.4723259.484976-1.072192-.025448-2.145432-.014968-3.21812-.0046-.1938146.0214084-.3789306-.0860836-.456408-.265024a1283.50667472 1283.50667472 0 00-3.675152-6.6752 17.22645547 17.22645547 0 01-1.376456-2.9344 1.80969485 1.80969485 0 00-.153664-.261696c-.06493.3044006-.065554.6190083-.001832.923664a17.38098392 17.38098392 0 01.112752 2.0872 1025.07987415 1025.07987415 0 00.006632 6.74636c.00184.310544-.079816.393952-.393152.3832-.774608-.026536-1.551088-.022112-2.326072-.00196-.315696.008208-.4216-.077976-.4201823-.408376.0122943-2.765672.0067343-5.531424.0067023-8.297152 0-2.0808.006888-4.1616-.0064-6.242336-.002216-.346992.08236-.478136.455032-.469824 1.085184.0242 2.171384.018232 3.25688.002736.2467701-.0219497.4782865.1220332.56772.353072 1.229352 2.341464 2.47288 4.675488 3.706168 7.014888a19.1109004 19.1109004 0 01.980072 2.231472c.0853198.2728738.2184151.5284299.393088.754768zM91.349688 83.605016c.000152 2.429448-.005392 4.85892.006872 7.288304.0016.31808-.078456.42272-.4088.415552-.994648-.0216-1.990176-.015664-2.985128-.002656-.279448.003656-.376896-.0672-.37468-.3688.014136-1.925296.000736-3.850776.01144-5.776128.0016-.294072-.0648-.415264-.384856-.41152-1.318048.015408-2.636504.017912-3.954488.000584-.345048-.004536-.406832.135608-.40528.438056.009736 1.899568-.002488 3.799256.011376 5.698768.002312.316288-.070728.42868-.405848.4216-.994624-.021056-1.990152-.01644-2.984976-.000432-.306784.004928-.431856-.063744-.4310915-.40472.0110062-4.8588907.0118062-9.7177973.0024035-14.57672-.000656-.346512.10808-.440224.445168-.433448.981736.019744 1.964352.01536 2.946232-.001992.31644-.0056.430768.086208.428.416176-.013864 1.653976.004264 3.30824-.013904 4.962136-.00412.374656.104616.489856.4824.483576 1.292-.021488 2.584736-.018184 3.87688-.001016.32204.00428.394576-.11936.392416-.4088-.012488-1.6798-.0048-3.359784-.022608-5.039504-.003488-.328376.102496-.41736.424112-.410808.955936.019472 1.912936.019936 2.86872-.003864.361192-.009.487936.075744.4849647.46612-.0188047 2.416384-.0094687 4.833-.0093247 7.249536zM104.135848 83.59144c.000384-2.416688.008656-4.833424-.0083786-7.249992-.0025734-.372.1149546-.452608.4649946-.448088 2.2612.029232 4.525296-.076672 6.783248.057872 1.257941.0246387 2.4449838.5872967 3.26044 1.545448.6719025.8363734.9811394 1.9068592.858736 2.972688-.0684545 1.7160231-1.1799987 3.2153757-2.80204 3.779648-.202944.083888-.244592.174864-.085408.332.6541113.7990878 1.1773691 1.6968468 1.55028 2.659832.451888.866096 1.013664 1.502592 2.109672 1.307128.194152-.034632.240624.048336.21844.242072-.082296.71852-.146768 1.439088-.216072 2.159072.004838.1300167-.0837783.2449761-.210744.273392-1.4990537.4829143-3.1421491.0553709-4.215704-1.096952-.5808237-.7600218-1.0314331-1.6112028-1.333448-2.518824a10.15497205 10.15497205 0 00-.923824-1.86912c-.333687-.4826064-.9325689-.7064254-1.500984-.56096-.225104.070712-.179744.259024-.18.41856-.002712 1.744648-.011776 3.489424.007432 5.233872.004.368392-.08472.491648-.469256.4806-.968504-.02784-1.938664-.023568-2.907472-.001736-.340104.007664-.407152-.120376-.405888-.42772.010064-2.42956.005592-4.859184.005976-7.288792zm3.755016-3.04564h.005136c0 .541712.0056 1.083512-.003088 1.625088-.002968.184976.043328.310312.246488.308912.6955483.0438419 1.3938301.0077743 2.08116-.107496.5896679-.1332723 1.0851097-.5306687 1.3431696-1.0773632.2580598-.5466945.2499826-1.1817703-.0218976-1.7217248-.2244121-.5076097-.7065791-.8534859-1.259336-.903368-.696216-.080608-1.39088-.01132-2.08544-.038544-.24012-.009408-.31336.10216-.309264.328.0096.528696.003072 1.057656.003072 1.586496zM65.24212 83.472856c-.0154454-1.4303523.2400735-2.8506956.753056-4.185984.749888-1.8613227 2.4258428-3.1891707 4.409336-3.493488 1.4869602-.312749 3.0280605-.2544673 4.487152.169696 1.8577914.4250886 3.1947866 2.0502083 3.25388 3.955096.023944.3856-.005352.7744-.00968 1.161792-.002136.19132-.06376.31156-.2864.33096-.97744.085192-1.954496.176104-2.930064.280224-.270144.0288-.341656-.047776-.305672-.316232.0868233-.5640929.0435894-1.1405673-.1264-1.6854-.1449967-.5618657-.5624224-1.0133857-1.1112-1.20196-1.0942796-.4595774-2.3596723-.1728912-3.149024.71344-.4235838.5583312-.7020614 1.2130124-.810488 1.9054-.320302 1.6534764-.3090715 3.354098.03304 5.0032.1237242.7847476.4952698 1.5093283 1.060304 2.067784.598114.4920369 1.3689266.7229612 2.1390533.6408294.7701267-.0821319 1.4749016-.4704234 1.9557947-1.0775334.2953267-.4759465.4231194-1.0369403.363072-1.59384-.014944-.25908.062456-.313024.301024-.286008.910736.103136 1.822216.2018 2.735256.28108.221744.019256.275592.098896.286232.3056.0912 1.9289518-1.0275887 3.7109293-2.804536 4.466992-2.1487751.9367264-4.5940946.9177485-6.728072-.052216-1.2296267-.5778899-2.1909324-1.6051731-2.686048-2.8704-.5720245-1.4368429-.8539817-2.9727022-.829616-4.519032zM92.937512 83.61404c0-2.416336.007816-4.83272-.0081019-7.248952-.0024581-.380496.1180379-.476232.4859259-.474636 3.049688.013388 6.099448.007364 9.149192.007548.558488 0 .5584.0008.558696.538696.000344.60732-.017136 1.215392.008432 1.821664.014112.334528-.076728.448296-.42836.44496-1.834848-.017464-3.67008.002-5.504856-.019368-.388888-.004528-.51956.092-.5048.492856.029896.812952.024544 1.628248.000864 2.4416-.010608.364184.112608.455344.467504.451144 1.511624-.017896 3.023688.003288 4.53544-.009016.3032-.002464.409464.077064.399128.390864-.022096.6712-.02072 1.344-.000664 2.015352.009368.313424-.102696.393184-.404072.390536-1.524736-.013424-3.049776.004224-4.5744-.01332-.332288-.003824-.422912.105528-.418336.419512.013952.955968.0132587 1.9120907-.00208 2.868368-.0052.311712.1104.39476.408512.393056 1.925408-.011056 3.851072.006904 5.776248-.017088.408656-.005096.507712.120984.490584.503784-.028848.644752-.022792 1.292248-.001064 1.9376.010088.299536-.088936.359024-.376.358104-3.24352-.0104053-6.4870747-.01028-9.730664.0003831-.222904.0005129-.323064-.0267991-.321968-.2900391.010312-2.467832.00612-4.935728.00612-7.4036l-.01128-.000008z" fill="#5E5D5F"/><path d="M95.600424 52.160208c-.580952 0-1.161928-.003528-1.742824.001848-.213408.001968-.335744-.0456-.330048-.302344.014872-.670992.012744-1.342632.00184-2.013768-.00352-.2168.066688-.308176.286168-.30048.2708.009488.5422.00364.81332.001936.5826689.02561523 1.1495043-.19358359 1.5633426-.60455452.4138383-.41097092.6369729-.97626852.6154094-1.55910148-.0376981-.72166276.0097894-1.44525381.14148-2.1558.03432-.137456.078848-.272424.120288-.408048.0624-.204168.148352-.413832.3856-.433192.2368-.019312.36764.186608.462504.362104.2322979.43268844.3927868.90022992.4752 1.384368.227816 1.307768.466152 2.61396.67208 3.925216.1069439.5494669-.0527839 1.11710948-.4305736 1.53017817-.3777898.4130687-.9289557.62270468-1.4857624.56510983-.515296-.020056-1.032-.003328-1.548096-.003328l.000072.009856z" fill="#1A79A9"/></g></g></svg>