<svg xmlns="http://www.w3.org/2000/svg" xmlns:xlink="http://www.w3.org/1999/xlink" viewBox="0 0 275.35639 564">
  <defs>
    <style>
      .cls-1, .cls-12, .cls-17, .cls-18, .cls-2, .cls-4, .cls-5, .cls-6, .cls-7 {
        fill: none;
      }

      .cls-2, .cls-3 {
        opacity: 0.3;
      }

      .cls-17, .cls-18, .cls-4 {
        stroke: #2c5871;
      }

      .cls-12, .cls-17, .cls-18, .cls-4, .cls-5, .cls-6, .cls-7 {
        stroke-miterlimit: 10;
      }

      .cls-4, .cls-5, .cls-6 {
        stroke-width: 12px;
      }

      .cls-5, .cls-6 {
        stroke: #1d1e1c;
      }

      .cls-12, .cls-17, .cls-5 {
        stroke-linecap: round;
      }

      .cls-7 {
        stroke: #ffd301;
      }

      .cls-8 {
        fill: #e0b50a;
      }

      .cls-9 {
        fill: #ffd301;
      }

      .cls-10 {
        fill: #be9b07;
      }

      .cls-11 {
        fill: #15b0bf;
      }

      .cls-12 {
        stroke: #ef9e69;
      }

      .cls-12, .cls-17, .cls-18 {
        stroke-width: 10px;
      }

      .cls-13, .cls-16 {
        opacity: 0.2;
      }

      .cls-14 {
        fill: #dc9161;
      }

      .cls-15 {
        fill: #ef9e69;
      }

      .cls-18 {
        stroke-linecap: square;
      }

      .cls-19 {
        fill: #2c5871;
      }

      .cls-20 {
        fill: #002f47;
      }

      .cls-21 {
        fill: #bf292e;
      }

      .cls-22 {
        clip-path: url(#clip-path);
      }

      .cls-23 {
        fill: gold;
      }

      .cls-24 {
        fill: #0b2f46;
      }
    </style>
    <clipPath id="clip-path">
      <path class="cls-1" d="M143.9698,278.56939c-3.7129-6.4256-12.82138-8.13555-19.3867-4.34152-.35948.20764-.70411.4362-1.04219.67226,6.35651-2.64365.91093,5.40361,4.31457,11.29468l1.93718,3.35225,16.11432-7.62542Z"/>
    </clipPath>
    <symbol id="karte_angebot_managed_people" data-name="karte angebot managed people" viewBox="0 0 275.356 564">
      <g id="karte_Managed" data-name="karte Managed">
        <polygon class="cls-2" points="275.356 564 0.356 564 0.356 447.178 0.356 0 275.356 0 275.356 564"/>
      </g>
      <g id="appuio_manager" data-name="appuio manager">
        <g>
          <ellipse class="cls-3" cx="139.07455" cy="437.97575" rx="32.30997" ry="5.37561"/>
          <g>
            <g>
              <line class="cls-4" x1="147.80488" y1="376.18927" x2="132.16875" y2="428.09059"/>
              <g>
                <line class="cls-5" x1="134.29016" y1="421.04894" x2="130.43422" y2="433.84804"/>
                <line class="cls-6" x1="136.1025" y1="415.03321" x2="132.24655" y2="427.83232"/>
              </g>
            </g>
            <g>
              <line class="cls-4" x1="147.80488" y1="376.18927" x2="147.80488" y2="430.39476"/>
              <g>
                <line class="cls-5" x1="147.80488" y1="423.0405" x2="147.80488" y2="436.40782"/>
                <line class="cls-6" x1="147.80488" y1="416.7577" x2="147.80488" y2="430.12503"/>
              </g>
            </g>
            <g>
              <path id="kabel" class="cls-7" d="M182.44916,355.19546s4.32189,91.13-41.77828,92.57066H0"/>
              <g>
                <polygon class="cls-8" points="213.963 337.479 194.174 355.992 189.188 350.384 208.977 331.872 213.963 337.479"/>
                <polygon class="cls-9" points="191.443 333.339 171.654 351.852 189.188 350.384 208.977 331.872 191.443 333.339"/>
                <polygon class="cls-10" points="176.64 357.459 171.654 351.852 189.188 350.384 194.174 355.992 176.64 357.459"/>
                <g>
                  <path class="cls-11" d="M189.37477,338.07845a6.99754,6.99754,0,0,1,3.74485-2.35757c1.05036-.0954,1.09877.81416.07329,2.05985a6.93694,6.93694,0,0,1-3.87443,2.46072C188.26088,340.30938,188.30251,339.32815,189.37477,338.07845Z"/>
                  <path class="cls-11" d="M194.29859,338.12774a6.84026,6.84026,0,0,1,3.8371-2.4477c1.12457-.09932,1.25543.84489.25577,2.1395a6.77567,6.77567,0,0,1-3.97323,2.559C193.28313,340.44824,193.24686,339.42666,194.29859,338.12774Z"/>
                  <path class="cls-11" d="M183.42255,343.43205a7.33617,7.33617,0,0,1,3.96035-2.50964c1.055-.064,1.01446.96712-.12966,2.33488-1.17388,1.40334-3.03074,2.594-4.10553,2.62571C182.088,345.91421,182.22947,344.80248,183.42255,343.43205Z"/>
                </g>
              </g>
            </g>
            <g>
              <line class="cls-12" x1="188.3854" y1="335.3274" x2="178.40852" y2="333.37227"/>
              <path class="cls-12" d="M143.38609,325.9127l11.41423,11.70691a10.6621,10.6621,0,0,0,12.92395,1.81408l8.24891-4.71367"/>
            </g>
            <g class="cls-13">
              <polygon points="142.307 413.497 137.433 429.677 135.558 435.872 141.915 381.097 142.307 375.377 142.307 376.189 142.307 413.497"/>
            </g>
            <g id="kopf">
              <g>
                <polygon class="cls-14" points="142.872 321.062 150.756 321.062 150.756 310.327 142.872 310.327 142.872 321.062"/>
                <path class="cls-15" d="M152.35814,300.39705a11.46206,11.46206,0,1,1-20.77631,9.68815L125.626,297.31288l20.77631-9.68815Z"/>
                <path class="cls-16" d="M146.85179,315.37927a17.625,17.625,0,0,0,3.96194-3.047v2.38593a11.06306,11.06306,0,0,1-3.18182,2.334,14.33073,14.33073,0,0,1-4.72245,1.04978l.06875-1.70067A11.417,11.417,0,0,0,146.85179,315.37927Z"/>
                <circle cx="146.24751" cy="292.41037" r="1.12741"/>
                <path d="M145.28085,281.28074l-2.09863-2.23645-11.60036,6.97305-1.36816.63794-6.02295,2.80859a3.75029,3.75029,0,0,0-1.95069,4.928c1.46778,3.14759,3.73243,8.0044,5.65186,12.12085a3.7509,3.7509,0,0,0,5.02881,1.67334l.01123-.00512a11.59477,11.59477,0,0,0,6.82959-10.60279c-.001-.05163.00195-.10449.00195-.15625a3.785,3.785,0,0,1,2.95069,2.82886l1.20223-2.56121s-2.72811-1.8697-3.30917-3.97895a8.46636,8.46636,0,0,1,.63721-1.088,10.25958,10.25958,0,0,1,3.06738-2.54761C148.5052,287.5442,147.23935,285.48142,145.28085,281.28074Z"/>
              </g>
            </g>
            <path class="cls-11" d="M166.11675,381.254H129.493V334.9805a18.31184,18.31184,0,0,1,18.31185-18.31185h0a18.31185,18.31185,0,0,1,18.31185,18.31185Z"/>
            <g id="arm">
              <g class="cls-13">
                <path d="M145.841,322.99976a3.9262,3.9262,0,0,1,3.92649,3.9265V347.933a5.50377,5.50377,0,0,0,5.4971,5.4971h10.85233v7.853H155.2646a13.366,13.366,0,0,1-13.35009-13.3501V326.92626A3.92621,3.92621,0,0,1,145.841,322.99976Z"/>
              </g>
              <path class="cls-12" d="M147.80488,323.77049v21.00678a9.4236,9.4236,0,0,0,9.4236,9.4236h29.17818"/>
              <line class="cls-17" x1="147.80488" y1="323.77049" x2="147.80488" y2="337.77727"/>
              <line class="cls-18" x1="147.80488" y1="333.77049" x2="147.80488" y2="341.77727"/>
            </g>
          </g>
        </g>
        <path class="cls-15" d="M140.48809,300.07007a2.905,2.905,0,1,1-4.3384-.91067A3.15625,3.15625,0,0,1,140.48809,300.07007Z"/>
        <g id="helm">
          <g>
            <path class="cls-19" d="M143.99628,278.6795c-3.636-6.46943-12.72342-8.28791-19.33353-4.57247-6.60983,3.71505-9.802,12.38568-6.16615,18.85492l1.56562,2.78488,25.83112-13.69222Z"/>
            <path class="cls-20" d="M143.99628,278.6795c-3.636-6.46943-12.72342-8.28791-19.33353-4.57247-.36193.20334-.70926.42777-1.05014.65978,6.3876-2.56764,14.29867-.55989,17.63179,5.37137l1.89706,3.37511,2.75188-1.45868Z"/>
            <polygon class="cls-21" points="145.893 282.055 146.7 283.489 145.929 282.036 145.893 282.055"/>
            <polygon class="cls-21" points="120.057 295.75 120.827 297.203 120.869 297.182 120.062 295.747 120.057 295.75"/>
            <polygon class="cls-20" points="119.648 294.965 118.524 298.424 146.7 283.489 145.479 281.273 119.648 294.965"/>
          </g>
          <path class="cls-20" d="M143.42226,278.38529l3.27754,5.10409,6.89148-3.65294S148.54819,275.864,143.42226,278.38529Z"/>
          <g id="helm-2" data-name="helm">
            <g class="cls-22">
              <g>
                <path class="cls-23" d="M151.75,265.40563a66.50045,66.50045,0,0,0-17.05468,9.07129.74017.74017,0,0,0-.127,1.11475q1.78125,2.02294,3.3711,4.13672a.80739.80739,0,0,0,1.11865.19531,59.54215,59.54215,0,0,1,12.01074-6.604q.34058.64891.6665,1.30078c.13184-.57715.26758-1.15332.40332-1.72852q1.48315-.57642,3.02295-1.0874a.78671.78671,0,0,0,.52588-1.05566q-1.18432-2.48951-2.57373-4.93457A1.17483,1.17483,0,0,0,151.75,265.40563Z"/>
                <g>
                  <path class="cls-24" d="M136.93308,274.28942q.46436,1.71534.90283,3.439.26074-.18531.52539-.37061l-.1748-.68457q.62475-.43432,1.26855-.856.31715.1897.63135.38184c.18262-.11816.36523-.23437.54931-.35059q-1.582-.97119-3.25878-1.8623C137.22849,274.08679,137.081,274.18737,136.93308,274.28942Zm1.10986,1.88477q-.18237-.69873-.36865-1.396c.44629.24512.88672.49707,1.32226.752Q138.51609,275.84949,138.04294,276.17419Z"/>
                  <path class="cls-24" d="M140.08347,272.2489q-.58667.35521-1.1626.72168,1.04517,1.3308,2.01318,2.69042c.17383-.10986.35157-.21826.52832-.32568q-.3369-.48046-.68261-.95459.30249-.1853.60888-.36865a1.01466,1.01466,0,0,0,.3584-1.47412A1.26689,1.26689,0,0,0,140.08347,272.2489Zm.95947,1.33691c-.19482.1167-.39111.23584-.585.35547-.2168-.29346-.4375-.58643-.65918-.87744q.29223-.18239.59033-.36182a.59356.59356,0,0,1,.8086.15772A.48177.48177,0,0,1,141.04294,273.58581Z"/>
                  <path class="cls-24" d="M143.28806,272.92028c.21094-.11523.42187-.23047.63476-.34472a1.00775,1.00775,0,0,0,.42286-1.45948,1.30649,1.30649,0,0,0-1.68262-.35254q-.6123.334-1.21289.67823,1.01074,1.36743,1.94433,2.76367c.18213-.10205.36573-.20459.55127-.30567Q143.622,273.40978,143.28806,272.92028Zm-.94776-1.35254q.30688-.17138.61524-.33935a.61535.61535,0,0,1,.81836.188.47794.47794,0,0,1-.187.71972c-.2041.10987-.40723.22217-.60987.333C142.768,272.16735,142.55417,271.86657,142.3403,271.56774Z"/>
                  <path class="cls-24" d="M146.76413,268.70788q-.30468.13916-.60742.28174.56763.85693,1.10742,1.72412a.66838.66838,0,0,1-.2832,1.08545.86627.86627,0,0,1-1.20117-.37647q-.55226-.854-1.13086-1.69922c-.19629.09913-.39453.19874-.58985.29932q.60132.86646,1.1753,1.74414a1.50408,1.50408,0,0,0,2.03369.501,1.16275,1.16275,0,0,0,.62744-1.773Q147.3447,269.59776,146.76413,268.70788Z"/>
                  <path class="cls-24" d="M148.40573,269.00768c-.1958.08545-.39306.17139-.5874.25733q.65919,1.051,1.27783,2.11621.28711-.126.57618-.24707Q149.05784,270.067,148.40573,269.00768Z"/>
                  <path class="cls-24" d="M147.581,268.29724a.306.306,0,0,0-.16407.45214.44244.44244,0,0,0,.54.14014.30911.30911,0,0,0,.1626-.44971A.43562.43562,0,0,0,147.581,268.29724Z"/>
                  <path class="cls-24" d="M151.91452,270.308a1.57127,1.57127,0,0,0,1.00489-2.2461,2.25949,2.25949,0,0,0-2.78272-.85449,1.54913,1.54913,0,0,0-.915,2.28467A2.23428,2.23428,0,0,0,151.91452,270.308Zm-1.48828-2.61914a1.519,1.519,0,0,1,1.86035.60058,1.05342,1.05342,0,0,1-.63867,1.53076,1.49072,1.49072,0,0,1-1.82031-.57959A1.04357,1.04357,0,0,1,150.42624,267.68884Z"/>
                </g>
                <g>
                  <path class="cls-24" d="M138.55905,278.59216a.21462.21462,0,0,0,.23487-.019c.09131-.06933.07763-.13086.0498-.16015-.03955-.05957-.11181-.041-.21386-.01465-.13379.03809-.2461.05273-.33057-.05811a.21334.21334,0,0,1,.07471-.313.28235.28235,0,0,1,.28027-.04053c-.01465.03808-.0293.07617-.043.11426a.17259.17259,0,0,0-.15869.02588.09023.09023,0,0,0-.03955.12988c.04346.05517.10693.02881.228.00146.14892-.03906.24755-.02832.31787.06983.07715.10644.06054.2373-.09131.34765a.32767.32767,0,0,1-.35694.03223C138.52683,278.66882,138.54245,278.63073,138.55905,278.59216Z"/>
                  <path class="cls-24" d="M138.66452,277.83972c.03955-.02686.07764-.05323.11621-.08057.14942.11035.29981.22168.44922.3335-.05908-.17334-.11865-.34522-.17724-.52l.08935-.062c.15137.11133.30176.22168.45166.33448-.05859-.17383-.11816-.34766-.17724-.52051.03808-.02539.07714-.05274.11621-.07813.08886.25684.17773.51563.26513.773-.03173.02246-.063.043-.09423.06348-.15039-.11035-.30176-.22168-.45264-.33252.05713.17432.11377.34912.17139.52393-.03028.02-.06153.04248-.0918.06347C139.11081,278.17126,138.88913,278.00427,138.66452,277.83972Z"/>
                  <path class="cls-24" d="M139.6323,277.18005c.04052-.02588.08056-.05322.12109-.08057.15576.21289.30908.42774.46143.6416-.04.02686-.08008.05323-.12012.07959Q139.86472,277.49988,139.6323,277.18005Z"/>
                  <path class="cls-24" d="M140.2778,277.42077a.24085.24085,0,0,0,.23975-.01367.10923.10923,0,0,0,.05469-.15869c-.04346-.061-.10987-.04248-.21631-.02-.13232.03418-.24756.04492-.3335-.06739a.21559.21559,0,0,1,.085-.31152.28782.28782,0,0,1,.28565-.03174c-.01563.03662-.03125.07471-.04736.11231a.16349.16349,0,0,0-.16163.02148c-.05468.0376-.06933.09033-.04345.12891.03906.062.10742.03174.23144.00781.15772-.03857.25244-.01514.32032.07861.08007.10987.05371.24268-.103.34473a.32831.32831,0,0,1-.36328.02295C140.24314,277.49645,140.26169,277.45837,140.2778,277.42077Z"/>
                  <path class="cls-24" d="M140.85251,277.04821a.23531.23531,0,0,0,.24072-.01074c.09571-.06152.07715-.12891.05664-.1582-.0371-.06153-.11425-.04786-.21728-.023-.13867.03467-.25293.04052-.335-.06983a.21273.21273,0,0,1,.08887-.31054.30829.30829,0,0,1,.28711-.02979c-.01563.0376-.03223.07471-.04786.11231a.16883.16883,0,0,0-.16308.02c-.05322.03564-.07569.0913-.04492.1289.04541.06006.10107.03174.23193.00928.1582-.03125.25488-.0166.32178.082.07568.10889.05517.24365-.10694.34375a.34317.34317,0,0,1-.36572.019C140.81638,277.12438,140.833,277.08532,140.85251,277.04821Z"/>
                  <path class="cls-24" d="M141.81345,275.77526a.46012.46012,0,0,1,.36035-.05029c-.01367.04-.02637.08008-.03955.12061a.32305.32305,0,0,0-.24756.03613.26235.26235,0,0,0-.08642.3833.30244.30244,0,0,0,.543-.11621c.04395.00586.08692.01269.13086.01855a.40408.40408,0,0,1-.19775.28662.4497.4497,0,0,1-.60059-.11279A.38874.38874,0,0,1,141.81345,275.77526Z"/>
                  <path class="cls-24" d="M142.52634,275.34948a.455.455,0,0,1,.6084.124.38808.38808,0,0,1-.14893.5625.44844.44844,0,0,1-.60156-.12207A.39151.39151,0,0,1,142.52634,275.34948Zm.38818.57861a.26165.26165,0,0,0,.09327-.38085.30547.30547,0,0,0-.40918-.09034.26236.26236,0,0,0-.09034.38233A.2956.2956,0,0,0,142.91452,275.92809Z"/>
                  <path class="cls-24" d="M143.04587,275.06384c.03858-.022.07568-.04346.11377-.06494.23047.08007.458.16308.686.24609-.10157-.1543-.20215-.30859-.30372-.46338.04249-.02441.0835-.04687.126-.0708.14649.22266.29.44531.43457.66894-.03515.019-.07129.03956-.10547.0586q-.34716-.12818-.69677-.252c.104.15673.20556.314.30859.47119-.04248.02295-.08252.04638-.124.0708Q143.26657,275.3944,143.04587,275.06384Z"/>
                  <path class="cls-24" d="M144.03952,274.65222c-.06591.03711-.13134.07226-.19677.10937-.02442-.03711-.04688-.07226-.07129-.1084.17529-.09717.35009-.19385.52734-.29053.023.03711.04639.07325.06982.10889-.06542.03662-.13183.07276-.19775.1084.12158.1875.24268.375.36133.563-.04443.02392-.08643.04639-.13037.07129Q144.22238,274.93372,144.03952,274.65222Z"/>
                  <path class="cls-24" d="M144.58152,274.20983c.03662-.021.0747-.04052.11181-.05957.24756.16895.49268.34082.73584.51319-.04638.02343-.09326.04785-.14013.07324-.04883-.03516-.09571-.06934-.14454-.10352-.10937.0586-.21777.11621-.32617.17432.00879.05566.01758.11133.02539.167-.0459.02442-.09179.04981-.13818.07471C144.6655,274.76989,144.62351,274.48962,144.58152,274.20983Zm.459.34522c-.09961-.06983-.19922-.14014-.29736-.21.01806.11328.03564.22754.05322.34082C144.87693,274.64294,144.958,274.599,145.0405,274.55505Z"/>
                  <path class="cls-24" d="M145.11277,273.92712c.04443-.02295.08935-.04639.1333-.06934q.21385.33984.4248.6792c-.04394.02246-.08789.0459-.13281.06934Q145.32859,274.26575,145.11277,273.92712Z"/>
                  <path class="cls-24" d="M145.42917,273.76306c.03906-.02051.07813-.041.11817-.061.23046.08887.46093.17969.68945.27148-.09619-.15917-.19385-.3164-.2915-.4746.04345-.021.08642-.04346.13037-.06592q.21167.342.41894.68408c-.03662.01807-.07275.03662-.10937.05518q-.34937-.14062-.70166-.27735.15087.24169.29785.48242c-.04248.022-.08545.04346-.12842.06592C145.71237,274.2152,145.57175,273.98864,145.42917,273.76306Z"/>
                  <path class="cls-24" d="M146.25974,273.3402c.16162-.0791.32178-.16015.48437-.23828.02246.0376.04493.07471.06787.11182-.11718.05615-.23242.11279-.34765.16992.03369.05469.06592.10938.09961.16358.10888-.05469.21728-.10743.32519-.15918.023.03759.04541.07373.06739.11132-.1084.05323-.2168.106-.3252.15918.03857.063.07666.12549.11475.18946q.17577-.08717.354-.17334c.022.03857.04443.07568.06641.11181-.16358.08008-.32569.15918-.48828.23975Q146.47092,273.682,146.25974,273.3402Z"/>
                  <path class="cls-24" d="M146.90818,273.02233c.09912-.04883.19873-.0957.29785-.14355a.289.289,0,0,1,.38037.10107.21548.21548,0,0,1-.02344.2627c.11621.0625.2334.125.34863.189-.05127.02393-.103.04834-.15478.07227-.10254-.05567-.20606-.11133-.3086-.16846l-.00244.001c-.04492.022-.08886.04345-.1333.06445.04883.08106.09766.16309.146.24512l-.13672.06543Q147.11741,273.36707,146.90818,273.02233Zm.48339.19727a.118.118,0,0,0,.05909-.17285.13815.13815,0,0,0-.18067-.05469c-.05176.02441-.10449.0498-.15674.07568.04444.07373.08838.14795.13282.22168C147.29392,273.26647,147.34372,273.24206,147.39157,273.2196Z"/>
                  <path class="cls-24" d="M148.0903,272.46472q.14869-.0674.29639-.13526a.30936.30936,0,0,1,.38721.11328.23853.23853,0,0,1-.12354.34034c-.05273.02294-.10449.04736-.15722.07128.04687.08155.09472.1626.14111.24414-.04639.02051-.09229.042-.13916.063Q148.29514,272.81359,148.0903,272.46472Zm.48829.208a.11385.11385,0,0,0,.05615-.168.14132.14132,0,0,0-.188-.05957c-.0498.02344-.10059.0459-.15137.06885.04444.0752.08838.15039.13233.22705C148.477,272.71765,148.5278,272.69616,148.57859,272.67272Z"/>
                  <path class="cls-24" d="M148.76462,272.15954c.04736-.01953.09424-.041.1416-.0625.11377.1958.22412.39209.33594.58789.104-.04492.20654-.09082.31152-.13623.022.0376.04346.07568.064.11426q-.22632.09888-.45117.19726Q148.968,272.51086,148.76462,272.15954Z"/>
                  <path class="cls-24" d="M149.63864,271.77868c.04-.0166.08008-.03418.12061-.05078q.36474.28125.7251.56836c-.0503.01953-.1001.041-.15039.0625-.04785-.03955-.09375-.07568-.14258-.11475q-.17505.074-.35108.14893c.0044.05566.00928.1123.01368.16846-.04981.02148-.09864.043-.14844.064C149.68357,272.34411,149.66111,272.06286,149.63864,271.77868Zm.45069.37988c-.09815-.07715-.19483-.15429-.293-.23242.00928.11475.02.228.0293.34375C149.914,272.23181,150.001,272.1947,150.08933,272.15856Z"/>
                  <path class="cls-24" d="M150.34714,271.62292c-.07227.0293-.14453.05957-.21631.08935-.022-.03808-.04248-.07617-.06445-.11425.19189-.08008.3833-.16016.57812-.23877.02149.04.042.07715.06348.11523-.07324.02979-.14551.05811-.21728.08887.10937.19873.21875.397.32617.5957-.04688.01856-.09473.03906-.14307.05811Q150.51047,271.91979,150.34714,271.62292Z"/>
                  <path class="cls-24" d="M150.75827,271.31335c.16358-.06592.32569-.13135.48926-.1958.02.03857.04248.07763.063.11572-.11572.04492-.23.0918-.34375.13672.03223.06006.06445.11963.09717.1792.105-.042.20947-.083.314-.125.022.03857.04151.07764.0625.11572-.105.042-.20947.083-.314.12451.05517.10059.10986.20313.16357.30323-.04785.01953-.0957.03906-.14306.05761C151.01853,271.788,150.8906,271.55065,150.75827,271.31335Z"/>
                  <path class="cls-24" d="M151.76267,270.90173a.50539.50539,0,0,1,.63037.209.37966.37966,0,0,1-.23486.53565.50392.50392,0,0,1-.62452-.20606A.37476.37476,0,0,1,151.76267,270.90173Zm.334.62793a.25255.25255,0,0,0,.15088-.36475.34331.34331,0,0,0-.42285-.147.25423.25423,0,0,0-.14844.36621A.33152.33152,0,0,0,152.09665,271.52966Z"/>
                  <path class="cls-24" d="M152.354,270.69128c.106-.04.21435-.0791.31982-.11817a.3098.3098,0,0,1,.38721.13086.2066.2066,0,0,1-.04346.26026c.11475.07226.23193.14453.34766.21777-.05567.02051-.11133.03906-.16651.05957-.103-.06445-.20459-.12988-.30761-.19336l-.00245.001c-.04736.01709-.09619.03467-.14355.05224.04492.08643.08984.17237.13281.25684-.04883.01807-.09668.03662-.14551.05469Q152.54417,271.05114,152.354,270.69128Zm.4873.23633a.11456.11456,0,0,0,.07471-.16748.14165.14165,0,0,0-.18408-.06885c-.05567.021-.11231.0415-.16846.0625.0415.07715.08154.1543.12109.23193C152.73728,270.96618,152.79,270.94763,152.84128,270.92761Z"/>
                  <path class="cls-24" d="M153.1196,270.411c.043-.01464.085-.03027.127-.04589.16944.10058.33936.20117.50684.30224.02979-.1709.06006-.34179.08936-.5122.042-.01563.08593-.03028.12744-.04395.124.24365.24609.48584.3667.73-.0459.01611-.09278.03174-.14014.04736-.08105-.16455-.16406-.32959-.24854-.49316-.02978.16016-.05908.32227-.08837.48291-.1587-.0957-.31885-.18945-.479-.28271.085.16406.168.32617.251.49072-.04639.0166-.09326.0332-.13965.05029C153.3696,270.8944,153.24558,270.65124,153.1196,270.411Z"/>
                </g>
              </g>
            </g>
          </g>
        </g>
      </g>
    </symbol>
  </defs>
  <title>karte angebot managed people</title>
  <g id="Ebene_2" data-name="Ebene 2">
    <g id="Karte_V1" data-name="Karte V1">
      <use width="275.35639" height="564" xlink:href="#karte_angebot_managed_people"/>
    </g>
  </g>
</svg>
