<svg xmlns="http://www.w3.org/2000/svg" xmlns:xlink="http://www.w3.org/1999/xlink" width="1280" height="564" viewBox="0 0 1280 564" id="ammtechlab_image">
  <defs>
    <linearGradient id="a" x1="12877.511" y1="227.086" x2="12877.511" y2="183.563" gradientTransform="matrix(-1, 0, 0, 1, 13539.541, 0)" gradientUnits="userSpaceOnUse">
      <stop offset="0.291" stop-color="#fff"/>
      <stop offset="0.31" stop-color="#eaeaea"/>
      <stop offset="0.359" stop-color="#bababa"/>
      <stop offset="0.412" stop-color="#8d8d8d"/>
      <stop offset="0.467" stop-color="#676767"/>
      <stop offset="0.526" stop-color="#474747"/>
      <stop offset="0.59" stop-color="#2d2d2d"/>
      <stop offset="0.66" stop-color="#191919"/>
      <stop offset="0.739" stop-color="#0b0b0b"/>
      <stop offset="0.836" stop-color="#020202"/>
      <stop offset="1"/>
    </linearGradient>
    <clipPath id="b">
      <rect x="82.519" y="247.672" width="119.151" height="51.859" fill="none"/>
    </clipPath>
    <clipPath id="c">
      <rect x="649.127" y="457.063" width="199.367" height="86.772" fill="none"/>
    </clipPath>
    <mask id="d" x="638.279" y="183.563" width="47.501" height="43.523" maskUnits="userSpaceOnUse">
      <rect x="638.279" y="183.563" width="47.501" height="43.523" fill="url(#a)"/>
    </mask>
    <clipPath id="e">
      <rect x="1300" y="63.486" width="456.034" height="339.469" fill="none"/>
    </clipPath>
    <symbol id="f" data-name="Hannelore" viewBox="0 0 23.693 97.512">
      <path d="M16.191,39.391" fill="#ffd800"/>
      <path d="M12.693,8.24H11.272A18.993,18.993,0,0,1,11.4.7c.083-.389.363-.7.614-.7h0c.25,0,.529.313.609.7A19.022,19.022,0,0,1,12.693,8.24Z" fill="#e0291b"/>
      <path d="M17.887,42.56a13.114,13.114,0,0,1-1.727-3.169C15.1,36.355,14.8,29.739,14.747,24.4a21.306,21.306,0,0,1,1.886-9.19,8.28,8.28,0,0,0,.761-3.371c-.05-3.87-2.769-6.99-5.412-6.988S6.62,7.969,6.57,11.839a8.291,8.291,0,0,0,.69,3.212A21.852,21.852,0,0,1,9,23.994c-.043,5.405-.329,12.283-1.416,15.4A13.118,13.118,0,0,1,5.852,42.56C2.544,46.97,1.883,56.782,1.883,57.774c0,4.19,2.536,13.341,8.93,13.341h2.113c6.4,0,8.931-9.151,8.931-13.341C21.857,56.782,21.2,46.97,17.887,42.56Z" fill="#ffd800"/>
      <path d="M6.57,11.839c.05-3.87,2.769-6.99,5.412-6.988s5.362,3.118,5.412,6.988c-.05,3.871-2.769,6.991-5.412,6.989S6.62,15.71,6.57,11.839Z" fill="none"/>
      <path d="M15.1,20.121a20.8,20.8,0,0,1,.615-2.523,7.985,7.985,0,0,1-3.733,1.23,7.106,7.106,0,0,1-3.841-1.323,21.316,21.316,0,0,1,.545,2.423h0a7.331,7.331,0,0,0,3.293.973h0a7.5,7.5,0,0,0,3.114-.779Z" fill="#e0c100"/>
      <path d="M21.857,57.774c0-.078,0-.217-.014-.4a9.01,9.01,0,0,0-7.622-3.5H9.638c-4.274-.127-6.566,1.752-7.733,3.351-.015.26-.022.449-.022.548,0,4.19,2.536,13.341,8.93,13.341h2.113C19.321,71.115,21.857,61.964,21.857,57.774Z" fill="#ffd800"/>
      <g>
        <path d="M9.265,45.481H9.157a5.034,5.034,0,0,1-4.972,4.271H1.651v.007a.625.625,0,0,0,.61.759H4.951a5.039,5.039,0,0,0,4.979-4.27A.671.671,0,0,0,9.265,45.481Z" fill="#c2a802"/>
        <path d="M8.391,44.715a4.983,4.983,0,0,1-.175.766,5.038,5.038,0,0,1-4.8,3.5H1.827c-.061.257-.12.512-.176.767H4.185a5.034,5.034,0,0,0,4.972-4.271v-.007a.667.667,0,0,0-.664-.759Z" fill="#e0c100"/>
        <path d="M4.334,43.949a1.241,1.241,0,0,0-1.143.758l0,.008c-.106.251-.208.507-.306.766a29.746,29.746,0,0,0-1.055,3.5H3.418a5.038,5.038,0,0,0,4.8-3.5,4.983,4.983,0,0,0,.175-.766v-.008a.666.666,0,0,0-.664-.758Z" fill="#e0c100"/>
      </g>
      <g>
        <path d="M14.511,45.481h.108a5.034,5.034,0,0,0,4.972,4.271h2.533l0,.007a.626.626,0,0,1-.611.759h-2.69a5.038,5.038,0,0,1-4.979-4.27A.67.67,0,0,1,14.511,45.481Z" fill="#c2a802"/>
        <path d="M15.385,44.715a4.983,4.983,0,0,0,.175.766,5.036,5.036,0,0,0,4.8,3.5h1.592c.061.257.119.512.175.767H19.591a5.034,5.034,0,0,1-4.972-4.271v-.007a.666.666,0,0,1,.664-.759Z" fill="#e0c100"/>
        <path d="M19.441,43.949a1.24,1.24,0,0,1,1.143.758l0,.008c.106.251.208.507.3.766a29.75,29.75,0,0,1,1.056,3.5H20.357a5.036,5.036,0,0,1-4.8-3.5,4.983,4.983,0,0,1-.175-.766v-.008a.666.666,0,0,1,.664-.758Z" fill="#e0c100"/>
      </g>
      <path d="M3.258,55.873" fill="#ffd800"/>
      <g>
        <g>
          <path d="M4.115,97.512a1.037,1.037,0,0,1-1.037-1.037V82.525a1.037,1.037,0,0,1,2.074,0v13.95A1.037,1.037,0,0,1,4.115,97.512Z" fill="#e74a19"/>
          <path d="M6.6,96.494a1.037,1.037,0,0,1-.912-.541L4.115,93.068,2.543,95.953a1.037,1.037,0,0,1-1.821-.992l2.483-4.556a1.037,1.037,0,0,1,1.821,0l2.482,4.556A1.037,1.037,0,0,1,6.6,96.494Z" fill="#e74a19"/>
        </g>
        <path d="M8.224,63.879c0-4.422-1.839-8.006-4.109-8.006S.006,59.457.006,63.879a39.116,39.116,0,0,0,1.627,11c.73,2.64,1.3,11.471,1.3,11.471H5.3s.566-8.831,1.3-11.471A39.088,39.088,0,0,0,8.224,63.879Z" fill="#e0c100"/>
      </g>
      <g>
        <g>
          <path d="M19.578,97.512a1.037,1.037,0,0,1-1.037-1.037V82.525a1.037,1.037,0,0,1,2.074,0v13.95A1.037,1.037,0,0,1,19.578,97.512Z" fill="#e74a19"/>
          <path d="M22.062,96.494a1.037,1.037,0,0,1-.912-.541l-1.572-2.885-1.572,2.885a1.037,1.037,0,0,1-1.821-.992l2.483-4.556a1.037,1.037,0,0,1,1.821,0l2.482,4.556a1.037,1.037,0,0,1-.909,1.533Z" fill="#e74a19"/>
        </g>
        <path d="M23.687,63.879c0-4.422-1.839-8.006-4.109-8.006s-4.109,3.584-4.109,8.006a39.07,39.07,0,0,0,1.627,11c.729,2.64,1.3,11.471,1.3,11.471h2.373s.566-8.831,1.3-11.471A39.088,39.088,0,0,0,23.687,63.879Z" fill="#e0c100"/>
      </g>
      <path d="M3.258,55.873" fill="#ffd800"/>
      <g>
        <path d="M15.466,36.288H8.274c-.042.28-.087.55-.134.812H15.6Q15.53,36.709,15.466,36.288Z" fill="#c9231c"/>
        <path d="M11.069,36.1a3.969,3.969,0,0,0-3.342-1.984,7.764,7.764,0,0,0,0,4.6,4.393,4.393,0,0,0,3.342-1.272Z" fill="#e0291b"/>
        <path d="M12.671,36.1a3.969,3.969,0,0,1,3.342-1.984,7.764,7.764,0,0,1,0,4.6,4.393,4.393,0,0,1-3.342-1.272Z" fill="#e0291b"/>
        <path d="M12.671,37.219a.543.543,0,0,1-.495.581h-.612a.543.543,0,0,1-.495-.581V36.1a.543.543,0,0,1,.495-.581h.612a.543.543,0,0,1,.495.581Z" fill="#c9231c"/>
      </g>
      <g>
        <circle cx="14.129" cy="6.488" r="0.628"/>
        <g>
          <ellipse cx="9.898" cy="6.488" rx="1.705" ry="2.783" fill="#ebdd5b"/>
          <g>
            <path d="M10.538,4.868a2,2,0,0,1,.817.174c-.3-.8-.839-1.337-1.457-1.337-.941,0-1.7,1.246-1.7,2.783a4.561,4.561,0,0,0,.043.627A2.491,2.491,0,0,1,10.538,4.868Z" fill="#ffd800"/>
            <path d="M9.9,8.24A1.773,1.773,0,0,0,11.6,6.488a4.146,4.146,0,0,0-.248-1.446,2,2,0,0,0-.817-.174,2.491,2.491,0,0,0-2.3,2.247C8.237,7.767,9.089,8.24,9.9,8.24Z" fill="#e3f0f4"/>
          </g>
          <circle cx="9.898" cy="6.488" r="0.628"/>
        </g>
        <g>
          <ellipse cx="14.097" cy="6.488" rx="1.705" ry="2.783" fill="#ebdd5b"/>
          <g>
            <path d="M13.458,4.868a2,2,0,0,0-.817.174c.3-.8.839-1.337,1.456-1.337.942,0,1.705,1.246,1.705,2.783a4.408,4.408,0,0,1-.044.627A2.489,2.489,0,0,0,13.458,4.868Z" fill="#ffd800"/>
            <path d="M14.1,8.24a1.773,1.773,0,0,1-1.7-1.752,4.146,4.146,0,0,1,.248-1.446,2,2,0,0,1,.817-.174,2.489,2.489,0,0,1,2.3,2.247C15.758,7.767,14.907,8.24,14.1,8.24Z" fill="#e3f0f4"/>
          </g>
          <circle cx="14.097" cy="6.488" r="0.628"/>
        </g>
        <g>
          <g>
            <path d="M8.35,15.335a1.753,1.753,0,1,0,1.862,2.151A4.847,4.847,0,0,1,8.35,15.335Z" fill="#e0291b"/>
            <path d="M16.681,15.827a1.734,1.734,0,0,0-1.067-.492,4.841,4.841,0,0,1-1.862,2.151,1.731,1.731,0,0,0,.472.839,1.752,1.752,0,1,0,2.457-2.5Z" fill="#e0291b"/>
          </g>
          <ellipse cx="11.982" cy="12.277" rx="3.206" ry="4.627" fill="#e0291b"/>
          <path d="M11.982,15.668c-1.064,0-2-1.584-2-3.391s.934-3.39,2-3.39,2,1.584,2,3.39S13.047,15.668,11.982,15.668Z" fill="#ffd800"/>
        </g>
      </g>
    </symbol>
    <symbol id="h" data-name="m_kopf_seite_Christian_Schlatter" viewBox="0 0 22.441 33.209">
      <g>
        <g>
          <path d="M10.652,30.571a13.2,13.2,0,0,1-3.86-.826v3.464h8.747V29.981a13.729,13.729,0,0,1-4.047.615C11.214,30.6,10.935,30.588,10.652,30.571Z" fill="#dc9160"/>
          <path d="M10.793,28.575a10.768,10.768,0,0,1-4-1.028v2.2a13.2,13.2,0,0,0,3.86.826c.283.017.562.025.84.025a13.729,13.729,0,0,0,4.047-.615V27.845A11.386,11.386,0,0,1,10.793,28.575Z" fill="#ca865b"/>
        </g>
        <g>
          <ellipse cx="17.079" cy="18.915" rx="2.018" ry="3.563" fill="#dc9160"/>
          <path d="M17.949,19.963a.709.709,0,1,0,.706.711A.709.709,0,0,0,17.949,19.963Zm0,1.062a.351.351,0,1,1,.351-.351A.353.353,0,0,1,17.949,21.025Z" fill="#010101" fill-rule="evenodd"/>
        </g>
        <g>
          <ellipse cx="2.018" cy="18.691" rx="2.018" ry="3.563" fill="#dc9160"/>
          <path d="M1.2,19.963a.709.709,0,1,0,.706.711A.709.709,0,0,0,1.2,19.963Zm0,1.062a.351.351,0,1,1,.351-.351A.352.352,0,0,1,1.2,21.025Z" fill="#010101" fill-rule="evenodd"/>
        </g>
        <path d="M5.514,4.795H17.556a3.523,3.523,0,0,1,3.523,3.523v11.4a9.544,9.544,0,0,1-9.544,9.544h0a9.544,9.544,0,0,1-9.544-9.544V8.317A3.523,3.523,0,0,1,5.514,4.795Z" fill="#f19e6a"/>
        <circle cx="17.784" cy="15.173" r="0.946" fill="#010101"/>
        <circle cx="8.945" cy="15.173" r="0.946" fill="#010101"/>
        <g>
          <path d="M1.181,6.076,1.116,14.6l.892,2.875.173-9.5a3.05,3.05,0,0,1,3.028-3.05l12.643-.094a3.049,3.049,0,0,1,3.072,3.049l.142,10.061.922-3.154-.067-8.767A4.792,4.792,0,0,0,17.11,1.273L5.952,1.321A4.792,4.792,0,0,0,1.181,6.076Z" fill="#6c544a"/>
          <path d="M4.293,3.4,2.644,2.677A10.619,10.619,0,0,0,.464,6.063s.247-.938.888-.938A4.867,4.867,0,0,0,.336,7.293s.845-1.277,1-1.23a3.5,3.5,0,0,0-.3,1.424s.494-1.589,1.2-1.943A10.67,10.67,0,0,0,4.293,3.4Z" fill="#6c544a"/>
          <path d="M19.3,1.893l2.664,1.9s-.978-.664-1.407-.521c0,0,1.386.976,1.884,1.454,0,0-.6-.386-.832-.3S20.927,5.8,20.8,5.659L18.389,3.008Z" fill="#6c544a"/>
        </g>
        <path d="M13,25.153h.876a.624.624,0,0,1,.549.328l.339.63h0a3.491,3.491,0,0,0-2.625-.011l-.027.011.339-.63A.624.624,0,0,1,13,25.153Z" fill="#dc9160"/>
        <path d="M7.574.218,8.33.683,6.792.356l.437.483L6,.528l.61.517L5.091.839l.861.482L4.081,2.08l9.217.487,4.778-1.2A19.549,19.549,0,0,0,12,.011,21.88,21.88,0,0,0,7.229.287" fill="#6c544a"/>
        <rect x="12.933" y="24.84" width="0.927" height="1.584" rx="0.271" fill="#cc8641"/>
      </g>
      <path d="M13.236,24.139c2.21,0,4-.428,4-.955h-8C9.234,23.711,11.026,24.139,13.236,24.139Z" fill="#ca875a"/>
    </symbol>
    <symbol id="i" data-name="schuhe_sport_seite 5" viewBox="0 0 16 12.135">
      <line x1="12.681" x2="12.681" y2="11.325" fill="none" stroke="#989898" stroke-miterlimit="10" stroke-width="6"/>
      <g>
        <path d="M6.014,5.325a6,6,0,0,0-6,6h12A6,6,0,0,0,6.014,5.325Z" fill="#c6d0da"/>
        <path d="M6.014,5.325a6,6,0,0,0-6,6h12A6,6,0,0,0,6.014,5.325Z"/>
      </g>
      <rect x="6.014" y="5.325" width="9.986" height="6"/>
      <rect y="11.306" width="16" height="0.828" fill="#c6d0da"/>
    </symbol>
    <symbol id="j" data-name="bein" viewBox="0 0 9 51.106">
      <g>
        <line x1="4.5" x2="4.5" y2="24.34" fill="none" stroke="#0b3046" stroke-miterlimit="10" stroke-width="9"/>
        <line x1="4.5" y1="24.34" x2="4.5" y2="51.106" fill="none" stroke="#0b3046" stroke-miterlimit="10" stroke-width="9"/>
      </g>
    </symbol>
    <symbol id="m" data-name="m_huefte_front dunkel jeans 2" viewBox="0 0 26.986 15.649">
      <path d="M0,0H26.986a0,0,0,0,1,0,0V2.156A13.493,13.493,0,0,1,13.493,15.649h0A13.493,13.493,0,0,1,0,2.156V0A0,0,0,0,1,0,0Z" fill="#0b3046"/>
      <polygon points="23.221 0 22.389 0 4.597 0 3.387 0 0 0 0 2.156 3.387 2.156 4.597 2.156 22.389 2.156 23.221 2.156 26.986 2.156 26.986 0 23.221 0" fill="#091720"/>
    </symbol>
    <symbol id="n" data-name="L_hoodie_black_front3" viewBox="0 0 45.354 45.935">
      <g>
        <path d="M18.574.042h8.207A18.574,18.574,0,0,1,45.354,18.616v3.925a0,0,0,0,1,0,0H0a0,0,0,0,1,0,0V18.616A18.574,18.574,0,0,1,18.574.042Z" fill="#010101"/>
        <path d="M21.487,0h2.38A11.566,11.566,0,0,1,35.433,11.566V45.935a0,0,0,0,1,0,0H9.921a0,0,0,0,1,0,0V11.566A11.566,11.566,0,0,1,21.487,0Z" fill="#010101"/>
      </g>
    </symbol>
    <symbol id="g" data-name="Christian_Schlatter_Seite" viewBox="0 0 74.31 137.764">
      <g>
        <use width="22.441" height="33.209" transform="translate(11.785 0.532)" xlink:href="#h"/>
        <g>
          <g>
            <use width="16" height="12.135" transform="matrix(-1, 0, 0, 1, 25.921, 125.629)" xlink:href="#i"/>
            <use width="9" height="51.106" transform="translate(10.177 78.659)" xlink:href="#j"/>
          </g>
          <g>
            <use width="16" height="12.135" transform="matrix(-1, 0, 0, 1, 41.732, 125.629)" xlink:href="#i"/>
            <use width="9" height="51.106" transform="translate(25.865 78.659)" xlink:href="#j"/>
          </g>
          <use width="26.986" height="15.649" transform="translate(10.313 78.117) scale(0.916 1)" xlink:href="#m"/>
        </g>
        <use width="45.354" height="45.935" transform="translate(0 33.362)" xlink:href="#n"/>
        <g>
          <line x1="50.066" y1="52.2" x2="55.994" y2="44.259" fill="none" stroke="#f19e6a" stroke-linecap="round" stroke-miterlimit="10" stroke-width="6"/>
          <line x1="40.854" y1="53.141" x2="40.854" y2="64.542" fill="#e99a67" stroke="#010101" stroke-miterlimit="10" stroke-width="9"/>
          <line x1="40.854" y1="64.542" x2="50.664" y2="51.399" fill="none" stroke="#010101" stroke-linecap="round" stroke-miterlimit="10" stroke-width="9"/>
          <line x1="43.334" y1="61.219" x2="50.664" y2="51.399" fill="none" stroke="#010101" stroke-linecap="square" stroke-miterlimit="10" stroke-width="9"/>
        </g>
        <path d="M17.391,59.126l16.289,3.9a.575.575,0,0,1,.425.693L29.03,84.9a.576.576,0,0,1-.694.426l-16.289-3.9a.576.576,0,0,1-.425-.694L16.7,59.551A.576.576,0,0,1,17.391,59.126Z" fill="#cccbcb"/>
        <g>
          <line x1="18.106" y1="71.757" x2="26.861" y2="76.399" fill="none" stroke="#f19e6a" stroke-linecap="round" stroke-miterlimit="10" stroke-width="6"/>
          <line x1="4.5" y1="53.141" x2="4.5" y2="64.542" fill="#e99a67" stroke="#010101" stroke-miterlimit="10" stroke-width="9"/>
          <line x1="4.5" y1="64.542" x2="18.99" y2="72.225" fill="none" stroke="#010101" stroke-linecap="round" stroke-miterlimit="10" stroke-width="9"/>
          <line x1="11.461" y1="68.233" x2="18.99" y2="72.225" fill="none" stroke="#010101" stroke-linecap="square" stroke-miterlimit="10" stroke-width="9"/>
        </g>
      </g>
      <polygon points="73.503 0 73.906 0.162 74.31 0.324 56.64 45.572 55.833 45.248 55.025 44.924 73.503 0" fill="#ffd301"/>
    </symbol>
    <symbol id="p" data-name="m_Kopf_Christoph_side" viewBox="0 0 20.712 36.362">
      <g>
        <path d="M17.021,27.705l0,0a8.46,8.46,0,0,0-1.064-3.5c-1.98-3.369-6.434-4.425-6.434-4.425s-1.246,4.405.733,7.774,6.434,4.425,6.434,4.425a5.452,5.452,0,0,0,1.791.239A12.455,12.455,0,0,1,16.9,30.979a3.406,3.406,0,0,0,1.159.519A8.051,8.051,0,0,1,16.99,30.27c0-.033.007-.067.01-.1l.542.263a9.484,9.484,0,0,1-.481-2.072c-.007-.183-.019-.368-.035-.556C17.025,27.771,17.021,27.738,17.021,27.705Z" fill="#010101"/>
        <path d="M8.758,30.723A11.168,11.168,0,0,1,5.227,29.9v6.465h8V30.133a11.542,11.542,0,0,1-3.7.615Q9.145,30.748,8.758,30.723Z" fill="#dc9161"/>
        <path d="M8.887,28.727A9.175,9.175,0,0,1,5.227,27.7v2.2a11.168,11.168,0,0,0,3.531.826q.387.026.768.025a11.542,11.542,0,0,0,3.7-.615V28A9.592,9.592,0,0,1,8.887,28.727Z" fill="#c98559"/>
        <g>
          <ellipse cx="19.116" cy="17.91" rx="1.596" ry="3.165" fill="#dc9161"/>
          <path d="M2.136,3.972h14.8a1.99,1.99,0,0,1,1.99,1.99V21.1a7.755,7.755,0,0,1-7.755,7.755H7.9A7.755,7.755,0,0,1,.145,21.1V5.962a1.99,1.99,0,0,1,1.99-1.99Z" fill="#ef9e69"/>
          <circle cx="11.846" cy="12.802" r="0.946" fill="#010100"/>
          <circle cx="3.007" cy="12.802" r="0.946" fill="#010100"/>
        </g>
        <path d="M5.89,0A5.89,5.89,0,0,0,0,5.89V20.914H.152V7.345A3.048,3.048,0,0,1,3.179,4.3L16.027,4.2a2.775,2.775,0,0,1,2.086.885,3.158,3.158,0,0,1,.817,2.165V20.914h.193V5.89A5.889,5.889,0,0,0,13.233,0Z" fill="#0a0a0a"/>
      </g>
      <g>
        <path d="M.152,20.914,0,20.892.163,22.76a6.953,6.953,0,0,0,6.969,6.3h4.86a6.952,6.952,0,0,0,6.969-6.3l.163-1.868-.194.022c0,3.458-5.192,5.71-5.192,5.71a.474.474,0,0,1-.841-.293V22.7a1.55,1.55,0,0,0-1.148-1.489l-1.88-.5a7.668,7.668,0,0,0-3.939,0l-1.88.5A1.55,1.55,0,0,0,2.9,22.7L3.007,26a.475.475,0,0,1-.841.293A7.645,7.645,0,0,1,.152,20.914Zm12.132,4.332a1.626,1.626,0,0,1-1.243,1.572l-2.514.8a1.213,1.213,0,0,1-.673.017l-3.1-.821a1.626,1.626,0,0,1-1.243-1.572V23.461A1.557,1.557,0,0,1,4.98,21.918l2.772-.184h.3l2.772.184a1.556,1.556,0,0,1,1.465,1.543Z" fill="#0a0a0a"/>
        <path d="M7.328,23.9H8.637a.933.933,0,0,1,.821.49l.506.941-1.343-.3a2.927,2.927,0,0,0-1.277,0L6,25.33l.507-.941A.931.931,0,0,1,7.328,23.9Z" fill="#0a0a0a"/>
        <rect x="19.444" y="19.672" width="0.504" height="1.701" rx="0.252" fill="#a67452"/>
      </g>
      <path d="M7.655,23.439c1.549,0,2.8-.507,2.8-1.133H4.851C4.851,22.932,6.106,23.439,7.655,23.439Z" fill="#ca875a"/>
    </symbol>
    <symbol id="q" data-name="m_arm 2" viewBox="0 0 9 39.711">
      <g>
        <line x1="4.5" y1="26.801" x2="4.5" y2="36.711" fill="none" stroke="#ef9e69" stroke-linecap="round" stroke-miterlimit="10" stroke-width="6"/>
        <line x1="4.5" x2="4.5" y2="11.401" fill="#e89a66" stroke="#000" stroke-miterlimit="10" stroke-width="9"/>
        <line x1="4.5" y1="11.401" x2="4.5" y2="27.801" fill="none" stroke="#000" stroke-linecap="square" stroke-miterlimit="10" stroke-width="9"/>
      </g>
    </symbol>
    <symbol id="r" data-name="schuhe_sport_seite 4" viewBox="0 0 16 12.135">
      <line x1="12.681" x2="12.681" y2="11.325" fill="none" stroke="#999" stroke-miterlimit="10" stroke-width="6"/>
      <g>
        <path d="M6.014,5.325a6,6,0,0,0-6,6h12A6,6,0,0,0,6.014,5.325Z" fill="#c7d1db"/>
        <path d="M6.014,5.325a6,6,0,0,0-6,6h12A6,6,0,0,0,6.014,5.325Z"/>
      </g>
      <rect x="6.014" y="5.325" width="9.986" height="6"/>
      <rect y="11.306" width="16" height="0.828" fill="#c7d1db"/>
    </symbol>
    <symbol id="s" data-name="L_Bein_jeans" viewBox="0 0 9 61.15">
      <line x1="4.5" x2="4.5" y2="24.34" fill="none" stroke="#2d5972" stroke-miterlimit="10" stroke-width="9"/>
      <line x1="4.5" y1="55.694" x2="4.5" y2="61.15" fill="none" stroke="#2d5972" stroke-miterlimit="10" stroke-width="9"/>
      <line x1="4.5" y1="24.34" x2="4.5" y2="55.694" fill="none" stroke="#2d5972" stroke-linecap="round" stroke-miterlimit="10" stroke-width="9"/>
    </symbol>
    <symbol id="v" data-name="m_huefte_front" viewBox="0 0 26.986 15.649">
      <path d="M0,0H26.986a0,0,0,0,1,0,0V2.156A13.493,13.493,0,0,1,13.493,15.649h0A13.493,13.493,0,0,1,0,2.156V0A0,0,0,0,1,0,0Z" fill="#2c5972"/>
      <g>
        <rect width="4.597" height="2.156" fill="#1e1e1c"/>
        <rect x="5.597" width="4.597" height="2.156" fill="#1e1e1c"/>
        <rect x="11.194" width="4.597" height="2.156" fill="#1e1e1c"/>
        <rect x="16.792" width="4.597" height="2.156" fill="#1e1e1c"/>
        <rect x="22.389" width="4.597" height="2.156" fill="#1e1e1c"/>
      </g>
    </symbol>
    <symbol id="w" data-name="Deleted Symbol" viewBox="0 0 44.888 46.593">
      <path d="M17.866.7h9.267A17.754,17.754,0,0,1,44.888,18.455V23.2a0,0,0,0,1,0,0H0a0,0,0,0,1,0,0V18.567A17.866,17.866,0,0,1,17.866.7Z"/>
      <path d="M22.376.658h.247A13.376,13.376,0,0,1,36,14.034V46.593a0,0,0,0,1,0,0H9a0,0,0,0,1,0,0V14.034A13.376,13.376,0,0,1,22.376.658Z" fill="#222831"/>
      <path d="M22.376.658h.247A13.376,13.376,0,0,1,36,14.034V46.593a0,0,0,0,1,0,0H9a0,0,0,0,1,0,0V14.034A13.376,13.376,0,0,1,22.376.658Z"/>
      <path d="M22.468,8.063h0A3.926,3.926,0,0,1,18.5,4.094V.062L26.5,0V4.032A4.032,4.032,0,0,1,22.468,8.063Z" fill="#505761"/>
    </symbol>
    <symbol id="x" data-name="untearm_gebeugt" viewBox="0 0 33.927 33.458">
      <g>
        <path d="M21.34.02.563,5a.735.735,0,0,0-.543.885L6.494,32.9a.735.735,0,0,0,.885.543l20.777-4.98a.732.732,0,0,0,.542-.884L22.225.563A.735.735,0,0,0,21.34.02Z" fill="#39728b"/>
        <path d="M19.326,3.948,6.648,7.163a.686.686,0,0,0-.391.882L7.487,12.9a.7.7,0,0,0,.768.6l9.739-2.47.332,1.309.451-1.507,2.156-.547a.731.731,0,0,0,.428-.906l-1.23-4.851A.715.715,0,0,0,19.326,3.948Z" fill="#ffd804"/>
      </g>
      <line x1="14.879" y1="20.236" x2="5.71" y2="23.996" fill="none" stroke="#ef9e69" stroke-linecap="round" stroke-miterlimit="10" stroke-width="6"/>
      <line x1="29.427" y1="14.343" x2="13.953" y2="20.615" fill="none" stroke="#000" stroke-linecap="round" stroke-miterlimit="10" stroke-width="9"/>
    </symbol>
    <symbol id="o" data-name="Christoph Raaflaub seite" viewBox="0 0 46.093 151.126">
      <use width="20.712" height="36.362" transform="translate(14.47)" xlink:href="#p"/>
      <g>
        <use width="9" height="39.711" transform="translate(1.197 53.842)" xlink:href="#q"/>
        <g>
          <line x1="41.593" y1="53.842" x2="41.593" y2="65.243" fill="#e89a66" stroke="#000" stroke-miterlimit="10" stroke-width="9"/>
          <path d="M41.593,65.243" fill="none" stroke="#000" stroke-linecap="square" stroke-miterlimit="10" stroke-width="9"/>
        </g>
      </g>
      <g>
        <g>
          <use width="16" height="12.135" transform="translate(3.267 138.992)" xlink:href="#r"/>
          <use width="9" height="61.15" transform="translate(11.197 82.032)" xlink:href="#s"/>
        </g>
        <g>
          <use width="16" height="12.135" transform="translate(19.155 138.992)" xlink:href="#r"/>
          <use width="9" height="61.15" transform="translate(27.093 82.032)" xlink:href="#s"/>
        </g>
        <use width="26.986" height="15.649" transform="translate(10.197 77.862)" xlink:href="#v"/>
      </g>
      <use width="44.888" height="46.593" transform="translate(1.197 31.235)" xlink:href="#w"/>
      <polygon points="0 135.011 0.395 135.059 0.791 135.106 6.45 91.001 5.659 90.907 4.869 90.813 0 135.011" fill="#ffd301"/>
      <use width="33.927" height="33.458" transform="translate(12.166 50.9)" xlink:href="#x"/>
      <path d="M23.666,36.051h0A3.978,3.978,0,0,1,19.7,32.02v-.785h8v.785A4.031,4.031,0,0,1,23.666,36.051Z" fill="#dd9160"/>
    </symbol>
    <symbol id="z" data-name="schuhe_black_seite" viewBox="0 0 16 12.81">
      <g>
        <g>
          <rect x="7" width="9" height="12" fill="#c7d1db"/>
          <rect y="11.981" width="16" height="0.828" fill="#c7d1db"/>
        </g>
        <g>
          <rect x="7" width="9" height="12"/>
          <rect y="11.981" width="16" height="0.828" fill="#c7d1db"/>
        </g>
      </g>
      <rect x="6.014" y="6" width="9.986" height="6"/>
      <path d="M6.014,6a6,6,0,0,0-6,6h12A6,6,0,0,0,6.014,6Z"/>
    </symbol>
    <symbol id="aa" data-name="M_Bein_jeans 6" viewBox="0 0 11 50.194">
      <line x1="5.5" x2="5.5" y2="24.34" fill="none" stroke="#010202" stroke-miterlimit="10" stroke-width="9"/>
      <line x1="5.5" y1="24.34" x2="5.5" y2="47.803" fill="none" stroke="#010202" stroke-miterlimit="10" stroke-width="9"/>
      <line x1="5.5" y1="46.317" x2="5.5" y2="50.194" fill="none" stroke="#838383" stroke-miterlimit="10" stroke-width="11"/>
    </symbol>
    <symbol id="ac" data-name="M_Bein_jeans 5" viewBox="0 0 11 50.194">
      <line x1="5.5" x2="5.5" y2="24.34" fill="none" stroke="#585e61" stroke-miterlimit="10" stroke-width="9"/>
      <line x1="5.5" y1="24.34" x2="5.5" y2="47.803" fill="none" stroke="#585e61" stroke-miterlimit="10" stroke-width="9"/>
      <line x1="5.5" y1="46.317" x2="5.5" y2="50.194" fill="none" stroke="#9b9b9a" stroke-miterlimit="10" stroke-width="11"/>
    </symbol>
    <symbol id="ad" data-name="m_huefte_grayjeans_front" viewBox="0 0 26.986 15.649">
      <path d="M0,0H26.986a0,0,0,0,1,0,0V2.156A13.493,13.493,0,0,1,13.493,15.649h0A13.493,13.493,0,0,1,0,2.156V0A0,0,0,0,1,0,0Z" fill="#585e61"/>
      <polygon points="23.221 0 22.389 0 4.597 0 3.387 0 0 0 0 2.156 3.387 2.156 4.597 2.156 22.389 2.156 23.221 2.156 26.986 2.156 26.986 0 23.221 0" fill="#313638"/>
    </symbol>
    <symbol id="ae" data-name="shatten" viewBox="0 0 75.929 11.334">
      <ellipse cx="37.965" cy="5.667" rx="37.965" ry="5.667" opacity="0.3"/>
    </symbol>
    <symbol id="y" data-name="kunde 3" viewBox="0 0 68.887 188.182">
      <g>
        <g>
          <g>
            <path d="M30.917,47.284a13.967,13.967,0,0,0,4.414-1.032v8.081h-10V46.547a14.431,14.431,0,0,0,4.626.768C30.275,47.315,30.594,47.306,30.917,47.284Z" fill="#dc9161"/>
            <path d="M30.756,44.789a11.471,11.471,0,0,0,4.575-1.284v2.747a13.967,13.967,0,0,1-4.414,1.032c-.323.022-.642.031-.96.031a14.431,14.431,0,0,1-4.626-.768v-2.67A11.983,11.983,0,0,0,30.756,44.789Z" fill="#c98559"/>
          </g>
          <path d="M15.643,106.165h33.75V66.678a16.72,16.72,0,0,0-16.72-16.72h-.309a16.72,16.72,0,0,0-16.721,16.72Z" fill="#9c6f84"/>
          <g>
            <g>
              <use width="16" height="12.81" transform="matrix(-1.25, 0, 0, 1.25, 51.757, 168.708)" xlink:href="#z"/>
              <use width="11" height="50.194" transform="matrix(-1.25, 0, 0, 1.25, 44.466, 111.42)" xlink:href="#aa"/>
            </g>
            <g>
              <use width="16" height="12.81" transform="matrix(-1.25, 0, 0, 1.25, 43.068, 168.708)" xlink:href="#z"/>
              <use width="11" height="50.194" transform="matrix(-1.25, 0, 0, 1.25, 35.847, 111.42)" xlink:href="#ac"/>
            </g>
            <use width="26.986" height="15.649" transform="matrix(-1.25, 0, 0, 1.25, 49.466, 106.207)" xlink:href="#ad"/>
          </g>
        </g>
        <g>
          <path d="M40.721,28.084A11.755,11.755,0,1,1,19.414,38.02l-6.108-13.1,21.307-9.935Z" fill="#ef9e69"/>
          <circle cx="34.454" cy="19.893" r="1.156"/>
          <path d="M28.572,21.086c-1.206,2.344,1.22,4.4.072,7.056a7.918,7.918,0,0,1-3.856,4.008,7.6,7.6,0,0,1-3.671.7c-1.334-.08,2.131-.392,1.281.861-1.535,2.262-2.08,6.436-.141,8.393a9.618,9.618,0,0,0-1.855-.859,19.419,19.419,0,0,1-2.14-1.321,20.363,20.363,0,0,1-3.613-3.3c-2.232-2.588-3.312-5.6-4.759-8.641-1-2.105-2.717-3.846-3.782-5.923a10.605,10.605,0,0,1-.083-9.535c2.054-4.064,6.069-4.386,9.52-6.559,2.746-1.728,4.853-4.758,8.1-5.585,8.419-2.143,20.969,5.073,15.716,13.2-.351.544-1.9,1.135-3.416,1.552a10.635,10.635,0,0,0-5.408,3.54Z" fill="#4f2b13"/>
        </g>
        <path d="M25.09,29.555A3.236,3.236,0,0,1,24.9,34.1a3.236,3.236,0,0,1-4.449-.933,3.238,3.238,0,0,1,.19-4.543A3.237,3.237,0,0,1,25.09,29.555Z" fill="#ef9e69"/>
        <g>
          <polyline points="31.297 59.994 34.721 92.08 62.096 120.516" fill="none" stroke="#ef9e69" stroke-linecap="round" stroke-linejoin="round" stroke-width="10.153"/>
          <line x1="31.297" y1="59.994" x2="34.721" y2="92.08" fill="none" stroke="#af7c95" stroke-linecap="round" stroke-linejoin="round" stroke-width="10.153"/>
          <polyline points="32.518 71.442 34.721 92.08 57.473 115.713" fill="none" stroke="#af7c95" stroke-linejoin="round" stroke-width="10.153"/>
        </g>
      </g>
      <use width="75.929" height="11.334" transform="translate(0 177.494) scale(0.907 0.943)" xlink:href="#ae"/>
      <path d="M36.1,27.714c.532,1.167,2.582,1.375,4.577.465.02-.009.037-.02.057-.03l-.963-2.11Z" fill="#ca875a"/>
    </symbol>
  </defs>
  <g style="isolation: isolate">
    <g>
      <g>
        <g>
          <path d="M395.93,388.446C390.006,375.96,316.939,274.3,337.4,231.339s94.368-110.021,138.581-141.8S643.1-4.1,692.93,39.922s123.2,107.264,152.3,128.68,124.395,35.412,115.531,75.117-112.082,191.386-136.43,209.87S734.194,568.1,633.858,560.248,395.93,388.446,395.93,388.446Z" fill="#a7e4f2"/>
          <g opacity="0.8" class="clouds">
            <path d="M229.537,140.378a54.612,54.612,0,0,1,57.415-12.724,41.427,41.427,0,0,1,71.484.191,50.4,50.4,0,0,1,99.36,13.5H228.622C228.927,141.021,229.222,140.694,229.537,140.378Z" fill="#caeff7"/>
          </g>
          <path class="clouds" d="M1083.074,150.315a37.085,37.085,0,0,0-47.659-4.586,44.3,44.3,0,0,0,.672-7.179,43.816,43.816,0,0,0-86.633-9.831,51.461,51.461,0,0,0-49.666-5.729,80.941,80.941,0,0,0-157.8,34.5h346.563A37.168,37.168,0,0,0,1083.074,150.315Z" fill="#caeff7" opacity="0.8"/>
        </g>
        <g>
          <path d="M975.108,325.233q-10.2,1.517-20.411,3.134c-17.566,2.747-78.273-18.339-97.6-28.337A976.148,976.148,0,0,1,639.629,178.842q-26.066,23.8-52.131,51.77c-29.345-20.717-58.69-43.377-88.035-67.019,0-.233-27.182,26.556-55.576,54.735-28.395,27.7-58,56.8-62.858,50.237-25.524-48.518-51.048-97.781-76.571-144.465-60.347,92.318-120.694,188.976-181.04,244.873,0-.761,62.265,29.135,147.509,53.1,85.246,25.4,193.47,33.58,285.387,16.69,45.959-6.867,109.012-24.489,177.737-39.729,68.725-15.593,143.128-28.8,211.782-34.984,68.655-6.535,131.567-6.042,177.315-2.351,45.747,3.336,74.331,9.871,74.332,7.276-62.107-24.006-124.216-35.671-186.325-44.018A130.115,130.115,0,0,0,975.108,325.233Z" fill="#81b4c4"/>
          <g>
            <g>
              <polygon points="1023.272 340.098 1037.91 307.598 1052.547 340.098 1023.272 340.098" fill="#a7ced1"/>
              <polygon points="1012.825 346.976 1024.588 321.992 1036.352 346.976 1012.825 346.976" fill="#c0e1e3"/>
              <polygon points="230.558 236.753 242.321 211.769 254.085 236.753 230.558 236.753" fill="#c0e1e3"/>
              <polygon points="375.623 276.823 366.705 300.107 384.54 300.107 375.623 276.823" fill="#a7ced1"/>
              <polygon points="351.927 261.399 338.697 295.944 365.157 295.944 351.927 261.399" fill="#a7ced1"/>
              <polygon points="234.002 217.085 220.772 251.63 247.233 251.63 234.002 217.085" fill="#a7ced1"/>
              <polygon points="364.302 282.835 355.385 306.119 373.22 306.119 364.302 282.835" fill="#c0e1e3"/>
            </g>
            <g>
              <g>
                <circle cx="975.205" cy="309.274" r="17.783" fill="#b8c445"/>
                <g>
                  <line x1="975.04" y1="310.516" x2="966.495" y2="302.56" fill="none" stroke="#002f47" stroke-linecap="round" stroke-miterlimit="10" stroke-width="1.173"/>
                  <line x1="985.558" y1="305.43" x2="975.205" y2="317.989" fill="none" stroke="#002f47" stroke-linecap="round" stroke-miterlimit="10" stroke-width="1.173"/>
                  <line x1="975.205" y1="352.119" x2="975.205" y2="302.119" fill="none" stroke="#002f47" stroke-linecap="round" stroke-miterlimit="10" stroke-width="1.173"/>
                </g>
              </g>
              <g>
                <circle cx="995.495" cy="318.386" r="14.001" fill="#c2d64c"/>
                <g>
                  <line x1="995.625" y1="319.364" x2="1002.353" y2="313.1" fill="none" stroke="#002f47" stroke-linecap="round" stroke-miterlimit="10" stroke-width="1.173"/>
                  <line x1="987.344" y1="315.36" x2="995.495" y2="322.351" fill="none" stroke="#002f47" stroke-linecap="round" stroke-miterlimit="10" stroke-width="1.173"/>
                  <line x1="995.495" y1="352.119" x2="995.495" y2="312.753" fill="none" stroke="#002f47" stroke-linecap="round" stroke-miterlimit="10" stroke-width="1.173"/>
                </g>
              </g>
            </g>
          </g>
        </g>
      </g>
      <g>
        <rect x="503.415" y="3.255" width="200.984" height="134.29" fill="#81b4c4"/>
        <rect x="510.024" y="9.864" width="187.765" height="121.07" fill="#002f47"/>
        <polygon points="510.024 130.936 517.807 130.936 517.807 17.238 697.79 17.238 697.79 9.864 510.024 9.864 510.024 130.936" fill="#4a3144" opacity="0.5" style="mix-blend-mode: multiply"/>
      </g>
      <g opacity="0.6">
        <path d="M573.221,85.943H542.8a16.218,16.218,0,0,1-16.2-16.2V18.4h20.25V65.693h26.373Z" fill="none" stroke="#fff" stroke-miterlimit="10"/>
        <path d="M680.724,130.6h-20.25V85.943h-26.65V65.693h30.7a16.219,16.219,0,0,1,16.2,16.2Z" fill="none" stroke="#fff" stroke-miterlimit="10"/>
        <rect x="583.458" y="65.693" width="40.13" height="20.25" fill="none" stroke="#fff" stroke-miterlimit="10"/>
        <rect x="573.221" y="61.643" width="10.237" height="28.35" fill="none" stroke="#fff" stroke-miterlimit="10"/>
        <rect x="623.588" y="62.175" width="10.236" height="28.35" fill="none" stroke="#fff" stroke-miterlimit="10"/>
        <rect x="602.672" y="58.064" width="1.979" height="7.629" fill="none" stroke="#fff" stroke-miterlimit="10"/>
        <rect x="602.672" y="85.894" width="1.979" height="15.26" fill="none" stroke="#fff" stroke-miterlimit="10"/>
        <rect x="559.11" y="18.402" width="88.294" height="38.848" rx="10.214" fill="none" stroke="#fff" stroke-miterlimit="10"/>
        <g>
          <path d="M586.6,48.815h-3.9a1.7,1.7,0,0,1-1.057-.306,1.93,1.93,0,0,1-.61-.781l-1.28-3.78h-8.245l-1.279,3.78a1.811,1.811,0,0,1-.588.752,1.641,1.641,0,0,1-1.049.335h-3.929l8.393-21.683H578.2Zm-7.991-8.29-2.01-5.938c-.148-.377-.308-.821-.476-1.332s-.337-1.064-.506-1.659q-.224.908-.476,1.682t-.476,1.339l-2,5.908Z" fill="none" stroke="#fff" stroke-miterlimit="10"/>
          <path d="M612.686,27.132V48.815h-4.435V36.343c0-.287.007-.6.022-.937s.042-.679.082-1.027L602.6,45.525a1.892,1.892,0,0,1-.722.789,1.992,1.992,0,0,1-1.034.268h-.685a1.992,1.992,0,0,1-1.034-.268,1.886,1.886,0,0,1-.722-.789L592.64,34.349q.043.536.074,1.05c.02.341.03.657.03.944V48.815h-4.435V27.132h3.84c.218,0,.409,0,.573.014a1.485,1.485,0,0,1,.439.09,1,1,0,0,1,.35.23,1.853,1.853,0,0,1,.305.439l5.581,11q.3.566.572,1.176t.529,1.25q.252-.655.528-1.28c.183-.417.38-.814.588-1.19l5.565-10.954a1.854,1.854,0,0,1,.306-.439,1,1,0,0,1,.35-.23,1.479,1.479,0,0,1,.438-.09c.164-.009.355-.014.574-.014Z" fill="none" stroke="#fff" stroke-miterlimit="10"/>
          <path d="M641.259,27.132V48.815h-4.434V36.343c0-.287.007-.6.022-.937s.042-.679.082-1.027L631.17,45.525a1.892,1.892,0,0,1-.722.789,2,2,0,0,1-1.035.268h-.684a2,2,0,0,1-1.035-.268,1.9,1.9,0,0,1-.722-.789l-5.759-11.176q.045.536.075,1.05c.019.341.029.657.029.944V48.815h-4.434V27.132h3.839c.219,0,.409,0,.573.014a1.485,1.485,0,0,1,.439.09,1,1,0,0,1,.35.23,1.825,1.825,0,0,1,.305.439l5.581,11q.3.566.573,1.176t.528,1.25q.253-.655.528-1.28t.588-1.19l5.566-10.954a1.825,1.825,0,0,1,.3-.439,1,1,0,0,1,.35-.23,1.479,1.479,0,0,1,.439-.09c.164-.009.355-.014.573-.014Z" fill="none" stroke="#fff" stroke-miterlimit="10"/>
        </g>
        <path d="M612.188,112.188c0-.259-.013-.514-.036-.767l1.707-.447-.765-2.923-1.74.455a8.565,8.565,0,0,0-1.412-2.081l1.117-1.447-2.392-1.846-1.13,1.465a8.429,8.429,0,0,0-2.358-.793v-1.863h-3.022V103.8a8.425,8.425,0,0,0-2.248.737L598.8,103.06l-2.419,1.811,1.1,1.465a8.529,8.529,0,0,0-1.1,1.448l-1.7-.625L593.632,110l1.665.613a8.473,8.473,0,0,0-.15,1.58c0,.187.009.372.021.556l-1.691.442.766,2.924,1.652-.434a8.544,8.544,0,0,0,1.41,2.175l-1.028,1.331,2.392,1.847,1.012-1.311a8.488,8.488,0,0,0,2.476.854v1.647h3.022v-1.647a8.5,8.5,0,0,0,2.364-.8l.993,1.326,2.419-1.812-1.007-1.344a8.556,8.556,0,0,0,1.117-1.531l1.595.587,1.044-2.835-1.628-.6A8.579,8.579,0,0,0,612.188,112.188Zm-8.52,5.694a5.8,5.8,0,1,1,5.8-5.8A5.8,5.8,0,0,1,603.668,117.882Z" fill="none" stroke="#fff" stroke-miterlimit="10"/>
      </g>
      <g>
        <ellipse cx="633.634" cy="435.852" rx="183.568" ry="7.678" fill="#002f47" opacity="0.5"/>
        <g>
          <g>
            <g>
              <g>
                <rect x="461.641" y="254.716" width="345.799" height="180.449" fill="gold"/>
                <g>
                  <g>
                    <rect x="476.417" y="269.491" width="316.247" height="150.898" fill="#ffd804"/>
                    <rect x="476.417" y="269.491" width="316.247" height="150.898" fill="#554c17" opacity="0.05"/>
                  </g>
                  <path d="M786.753,275.4V414.479H482.327V275.4H786.753m5.911-5.911H476.417v150.9H792.664v-150.9Z" fill="#585018" opacity="0.1"/>
                </g>
              </g>
              <g>
                <g>
                  <path d="M713.974,286.817a7.848,7.848,0,0,0-7.853,7.853V397.829a7.853,7.853,0,1,0,15.706,0V294.67a7.849,7.849,0,0,0-7.853-7.853Z" fill="#786418"/>
                  <path d="M674.846,286.817a7.849,7.849,0,0,0-7.853,7.853V397.829a7.853,7.853,0,0,0,15.706,0V294.67a7.849,7.849,0,0,0-7.853-7.853Z" fill="#786418"/>
                  <path d="M635.856,286.817A7.849,7.849,0,0,0,628,294.67V397.829a7.853,7.853,0,0,0,15.706,0V294.67a8.032,8.032,0,0,0-7.853-7.853Z" fill="#786418"/>
                  <path d="M596.729,286.817a7.848,7.848,0,0,0-7.853,7.853V397.829a7.853,7.853,0,1,0,15.706,0V294.67a7.94,7.94,0,0,0-7.853-7.853Z" fill="#786418"/>
                  <path d="M557.6,286.817a7.849,7.849,0,0,0-7.853,7.853V397.829a7.853,7.853,0,1,0,15.706,0V294.67a7.939,7.939,0,0,0-7.853-7.853Z" fill="#786418"/>
                  <path d="M518.473,286.817a7.849,7.849,0,0,0-7.853,7.853V397.829a7.853,7.853,0,0,0,15.706,0V294.67a7.849,7.849,0,0,0-7.853-7.853Z" fill="#786418"/>
                  <path d="M753.1,286.817a7.849,7.849,0,0,0-7.853,7.853V397.829a7.85,7.85,0,0,0,7.853,7.853,7.763,7.763,0,0,0,7.853-7.853V294.67a7.939,7.939,0,0,0-7.853-7.853Z" fill="#786418"/>
                </g>
                <g>
                  <path d="M712.6,285.439a7.85,7.85,0,0,0-7.853,7.853V396.451a7.853,7.853,0,0,0,15.706,0V293.292a7.849,7.849,0,0,0-7.853-7.853Z" fill="#fbe064"/>
                  <path d="M673.468,285.439a7.85,7.85,0,0,0-7.853,7.853V396.451a7.853,7.853,0,0,0,15.706,0V293.292a7.849,7.849,0,0,0-7.853-7.853Z" fill="#fbe064"/>
                  <path d="M634.478,285.439a7.85,7.85,0,0,0-7.853,7.853V396.451a7.853,7.853,0,1,0,15.706,0V293.292a8.032,8.032,0,0,0-7.853-7.853Z" fill="#fbe064"/>
                  <path d="M595.351,285.439a7.85,7.85,0,0,0-7.853,7.853V396.451a7.853,7.853,0,1,0,15.706,0V293.292a7.939,7.939,0,0,0-7.853-7.853Z" fill="#fbe064"/>
                  <path d="M556.223,285.439a7.85,7.85,0,0,0-7.853,7.853V396.451a7.853,7.853,0,1,0,15.706,0V293.292a7.939,7.939,0,0,0-7.853-7.853Z" fill="#fbe064"/>
                  <path d="M517.1,285.439a7.85,7.85,0,0,0-7.853,7.853V396.451a7.854,7.854,0,0,0,15.707,0V293.292a7.85,7.85,0,0,0-7.854-7.853Z" fill="#fbe064"/>
                  <path d="M751.724,285.439a7.85,7.85,0,0,0-7.853,7.853V396.451a7.849,7.849,0,0,0,7.853,7.853,7.763,7.763,0,0,0,7.853-7.853V293.292a7.94,7.94,0,0,0-7.853-7.853Z" fill="#fbe064"/>
                </g>
              </g>
            </g>
            <rect x="461.641" y="427.838" width="345.799" height="7.328" fill="#867319"/>
          </g>
          <polygon points="469.144 250.737 799.936 250.737 807.44 254.716 461.641 254.716 469.144 250.737" fill="#fbe064"/>
        </g>
      </g>
      <g>
        <g>
          <path d="M625.4,105.269s.378.39,1.019,1.095" fill="none" stroke="#fff" stroke-miterlimit="10"/>
          <path d="M628.37,108.594c6.113,7.212,18.806,24.393,9.961,33.729-11.391,12.023-26.01-5.344-12.089-6.61,13.558-1.233,35.4,35.111,17.094,67.171" fill="none" stroke="#fff" stroke-miterlimit="10" stroke-dasharray="2.967 2.967"/>
          <path d="M642.576,204.174q-.389.639-.8,1.274" fill="none" stroke="#fff" stroke-miterlimit="10"/>
        </g>
        <g>
          <g>
            <polygon points="621.004 94.363 618.678 102.68 591.061 89.266 621.004 94.363" fill="#e6e6e6" fill-rule="evenodd"/>
            <polygon points="621.004 94.363 628.208 93.236 591.061 89.266 621.004 94.363" fill="#fdfdfd" fill-rule="evenodd"/>
            <polyline points="617.208 96.238 618.678 102.68 591.061 89.266 617.208 96.238" fill="#ccc"/>
          </g>
          <polygon points="617.208 96.238 607.408 102.196 591.061 89.266 617.208 96.238" fill="#fdfdfd" fill-rule="evenodd"/>
        </g>
      </g>
      <g>
        <g>
          <path d="M641.7,232.239a.5.5,0,0,0,0-1H615.948a3.142,3.142,0,0,0,0,6.283H641.7a.5.5,0,1,0,0-.994h-4.184v-4.294Z" fill="#0b3046"/>
          <g>
            <path d="M641.7,232.239a.5.5,0,0,0,0-1H621.259a3.171,3.171,0,0,0,0,6.283H641.7a.5.5,0,1,0,0-.994h-4.184v-4.294Z" fill="#f69220"/>
            <path d="M641.7,232.239a.5.5,0,0,0,0-1H621.259a3.171,3.171,0,0,0,0,6.283H641.7a.5.5,0,1,0,0-.994h-4.184v-4.294Z" fill="#2c5871" style="mix-blend-mode: multiply"/>
          </g>
          <path d="M622.368,231.975a2.412,2.412,0,0,0,0,4.823h18.443c.057,0,.113-.006.169-.009v-4.8c-.056,0-.112-.009-.169-.009Z" fill="#fff"/>
          <g>
            <rect x="623.143" y="235.383" width="16.021" height="0.292" fill="#e7e6e6"/>
            <rect x="623.321" y="233.069" width="16.021" height="0.293" fill="#e7e6e6"/>
            <rect x="625.049" y="234.297" width="7.863" height="0.244" fill="#e7e6e6"/>
          </g>
        </g>
        <g>
          <path d="M636.093,238.552a.5.5,0,1,0,0-.993H610.346a3.141,3.141,0,0,0,0,6.281h25.747a.5.5,0,1,0,0-.994h-4.184v-4.294Z" fill="#0b3046"/>
          <g style="mix-blend-mode: multiply">
            <path d="M636.093,238.552a.5.5,0,1,0,0-.993H615.657a3.17,3.17,0,0,0,0,6.281h20.436a.5.5,0,1,0,0-.994h-4.184v-4.294Z" fill="#f69220"/>
            <path d="M636.093,238.552a.5.5,0,1,0,0-.993H615.657a3.17,3.17,0,0,0,0,6.281h20.436a.5.5,0,1,0,0-.994h-4.184v-4.294Z" fill="#39728b" style="mix-blend-mode: multiply"/>
          </g>
          <path d="M616.765,238.288a2.411,2.411,0,1,0,0,4.822h18.444c.057,0,.113,0,.169-.009V238.3c-.056,0-.112-.008-.169-.008Z" fill="#fff"/>
          <g>
            <rect x="617.541" y="241.696" width="16.021" height="0.292" fill="#e7e6e6"/>
            <rect x="617.72" y="239.383" width="16.02" height="0.293" fill="#e7e6e6"/>
            <rect x="619.446" y="240.609" width="7.864" height="0.245" fill="#e7e6e6"/>
            <polygon points="628.081 242.014 628.941 240.993 629.743 242.014 629.743 239.383 628.081 239.383 628.081 242.014" fill="#f69220"/>
          </g>
        </g>
        <g>
          <path d="M639.008,245a.506.506,0,1,0,0-1.011h-26.2a3.2,3.2,0,0,0,0,6.391h26.2a.506.506,0,1,0,0-1.011h-4.257V245Z" fill="#0b3046"/>
          <g style="mix-blend-mode: multiply">
            <path d="M639.008,245a.506.506,0,1,0,0-1.011H618.216a3.225,3.225,0,0,0,0,6.391h20.792a.506.506,0,1,0,0-1.011h-4.257V245Z" fill="#d0d1d2"/>
            <path d="M639.008,245a.506.506,0,1,0,0-1.011H618.216a3.225,3.225,0,0,0,0,6.391h20.792a.506.506,0,1,0,0-1.011h-4.257V245Z" fill="#d0d1d2" style="mix-blend-mode: multiply"/>
          </g>
          <path d="M619.344,244.728a2.454,2.454,0,1,0,0,4.907h18.763c.059,0,.115,0,.173-.009v-4.889c-.058,0-.114-.009-.173-.009Z" fill="#fff"/>
          <g>
            <rect x="620.133" y="248.196" width="16.299" height="0.297" fill="#e7e6e6"/>
            <rect x="620.314" y="245.843" width="16.3" height="0.298" fill="#e7e6e6"/>
            <rect x="622.072" y="247.09" width="8" height="0.249" fill="#e7e6e6"/>
            <polygon points="630.856 248.52 631.731 247.48 632.547 248.52 632.547 245.843 630.856 245.843 630.856 248.52" fill="#ef4882"/>
          </g>
        </g>
      </g>
      <use width="23.693" height="97.512" transform="translate(619.326 179.158) scale(0.729)" xlink:href="#f"/>
      <use width="74.31" height="137.764" transform="translate(516.981 112.541)" xlink:href="#g"/>
      <use width="46.093" height="151.126" transform="matrix(-1, 0, 0, 1, 510.63, 99.312)" xlink:href="#o"/>
      <g>
        <g class="flower">
          <path d="M140.661,282.726s-1.572-19.313-22.233-38.321" fill="none" stroke="#c2d64c" stroke-miterlimit="10" stroke-width="1.528"/>
          <path d="M122.922,248.849s1.665-10.538-9.411-13.268C113.511,235.581,112.331,247.121,122.922,248.849Z" fill="#c2d64c"/>
          <path d="M127.885,254.422s-7.514-7.574-16.266-.256C111.619,254.166,120.229,261.942,127.885,254.422Z" fill="#c2d64c"/>
          <path d="M127.885,254.422s8.74-6.117,3.016-15.985C130.9,238.437,121.776,245.6,127.885,254.422Z" fill="#c2d64c"/>
          <path d="M133.864,263.871s-6.6-8.383-16.129-2.115C117.735,261.756,125.4,270.466,133.864,263.871Z" fill="#c2d64c"/>
          <path d="M133.864,263.871s9.382-5.077,4.825-15.535C138.689,248.336,128.8,254.408,133.864,263.871Z" fill="#c2d64c"/>
          <path d="M139.121,274.9s-5.3-9.257-15.647-4.45C123.474,270.449,129.782,280.186,139.121,274.9Z" fill="#c2d64c"/>
          <path d="M139.121,274.9s10.024-3.65,7.044-14.662C146.165,260.237,135.5,264.8,139.121,274.9Z" fill="#c2d64c"/>
        </g>
        <g>
          <path d="M182.951,299.532c0,2.721-18.292,4.927-40.856,4.927s-40.857-2.206-40.857-4.927S119.53,294.6,142.1,294.6s40.856,2.206,40.856,4.928" fill="#002f47" opacity="0.5"/>
          <g clip-path="url(#b)">
            <g>
              <g>
                <path d="M137.727,303.052,150.748,259.6C116.55,276.123,137.727,303.052,137.727,303.052Z" fill="#155263"/>
                <path d="M150.748,259.6l-13.021,43.454C170.122,286.132,150.748,259.6,150.748,259.6Z" fill="#1f7a89"/>
              </g>
              <g>
                <path d="M171.135,273.032l-30.012,34.016C179.1,306.352,171.135,273.032,171.135,273.032Z" fill="#1f7a89"/>
                <path d="M141.123,307.048l30.012-34.016C134.632,274.841,141.123,307.048,141.123,307.048Z" fill="#2996a8"/>
              </g>
              <g>
                <path d="M133.451,301.845l-20.865-40.279C99.506,297.224,133.451,301.845,133.451,301.845Z" fill="#1f7a89"/>
                <path d="M112.586,261.566l20.865,40.279C144.961,267.157,112.586,261.566,112.586,261.566Z" fill="#2996a8"/>
              </g>
            </g>
          </g>
        </g>
      </g>
      <g>
        <g>
          <path d="M755.833,522.028s-2.12-32.351,27.432-68.868" fill="none"/>
          <path d="M776.912,461.616s-5.331-17.036,12.336-24.263C789.248,437.353,794.021,456.167,776.912,461.616Z" fill="none"/>
          <path d="M770.061,472.055s10.585-14.374,26.86-4.4C796.921,467.653,784.572,482.629,770.061,472.055Z" fill="none"/>
          <path d="M770.061,472.055s-15.963-7.989-8.9-25.723C761.159,446.332,778.016,455.958,770.061,472.055Z" fill="none"/>
          <path d="M762.474,489.156s8.871-15.49,26.181-7.444C788.655,481.712,778.1,498,762.474,489.156Z" fill="none"/>
          <path d="M762.474,489.156s-16.772-6.11-11.785-24.535C750.689,464.621,768.536,472.256,762.474,489.156Z" fill="none"/>
          <path d="M756.469,508.7s6.511-16.621,24.811-11.192C781.28,497.505,773.22,515.164,756.469,508.7Z" fill="none"/>
          <path d="M756.469,508.7s-17.485-3.593-15.245-22.549C741.224,486.148,760,491.091,756.469,508.7Z" fill="none"/>
        </g>
        <g>
          <path d="M817.173,543.835c0,4.554-30.607,8.245-68.362,8.245s-68.363-3.691-68.363-8.245,30.607-8.246,68.363-8.246,68.362,3.692,68.362,8.246" fill="#01141c" opacity="0.5"/>
          <g clip-path="url(#c)">
            <g>
              <g>
                <path d="M746.5,550.145l-9.354-75.323C788.954,511.628,746.5,550.145,746.5,550.145Z" fill="#155263"/>
                <path d="M737.146,474.822l9.354,75.323C697.777,513.189,737.146,474.822,737.146,474.822Z" fill="#1f7a89"/>
              </g>
              <g>
                <path d="M699.763,491.3l40.019,64.494C677.327,544.043,699.763,491.3,699.763,491.3Z" fill="#1f7a89"/>
                <path d="M739.782,555.789,699.763,491.3C759.48,504.467,739.782,555.789,739.782,555.789Z" fill="#2996a8"/>
              </g>
              <g>
                <path d="M753.891,549.347l45.665-60.628C811.183,551.2,753.891,549.347,753.891,549.347Z" fill="#1f7a89"/>
                <path d="M799.556,488.719l-45.665,60.628C744.584,488.907,799.556,488.719,799.556,488.719Z" fill="#2996a8"/>
              </g>
            </g>
          </g>
        </g>
      </g>
      <g>
        <path d="M796.286,234.013v-2.159a.643.643,0,0,0-.642-.642h-.817a.642.642,0,0,1-.642-.641v-.817a.642.642,0,0,1,.642-.642h2.626a3.268,3.268,0,0,0,3.267-3.268h0a3.267,3.267,0,0,0-3.267-3.267h-3.482a.643.643,0,0,1-.642-.642v-.292a3.384,3.384,0,0,0-3.384-3.384h0a3.384,3.384,0,0,0-3.384,3.384h0a3.657,3.657,0,0,0,3.657,3.657h6.126a.641.641,0,0,1,.642.641h0a.641.641,0,0,1-.642.642H793a2.238,2.238,0,0,0-2.237,2.237v1.4A2.237,2.237,0,0,0,793,232.457h0a.642.642,0,0,1,.642.642v.914Z" fill="#fff" opacity="0.3"/>
        <g>
          <path d="M799.88,245.85h.99a4.454,4.454,0,0,0,0-8.908h-.99v1.6h.99a2.859,2.859,0,0,1,0,5.717h-.99Z" fill="#e6e6e6"/>
          <path d="M800.72,233.882v12.557a4.165,4.165,0,0,1-4.165,4.165h-5.276a4.165,4.165,0,0,1-4.165-4.165V233.882Z" fill="#fff"/>
        </g>
      </g>
      <g>
        <g>
          <path d="M640.98,189.743h45.361a0,0,0,0,1,0,0v3.676A18.078,18.078,0,0,1,668.263,211.5h-9.206a18.078,18.078,0,0,1-18.078-18.078v-3.676A0,0,0,0,1,640.98,189.743Z" transform="translate(1327.321 401.239) rotate(-180)" fill="#cb636f"/>
          <path d="M651.258,189.7h24.8a1.892,1.892,0,0,1,1.892,1.892v28.987a13.535,13.535,0,0,1-13.535,13.535H662.9a13.535,13.535,0,0,1-13.535-13.535V191.594A1.892,1.892,0,0,1,651.258,189.7Z" transform="translate(1327.321 423.818) rotate(-180)" fill="#cb636f"/>
          <path d="M662.777,189.091h1.782a3.693,3.693,0,0,1,3.693,3.693v.291a0,0,0,0,1,0,0h-9.169a0,0,0,0,1,0,0v-.291A3.693,3.693,0,0,1,662.777,189.091Z" transform="translate(1327.336 382.167) rotate(180)" fill="#002f47"/>
          <g>
            <path d="M659.072,187.234v-3.423a9.6,9.6,0,0,1-1.939-1.64l-.305.03c-1.966.267-2.745,3.11-4.372,4.834,1.157,2.772,4.551,4.289,8.912,5.264-.1-.067-.2-.136-.292-.2a6.145,6.145,0,0,1-2-2.463h0Z" fill="#636270"/>
            <path d="M656.833,181.861c-1.593.426-2.747,2.458-4,4.042a7.046,7.046,0,0,0-1.311,2.669h0a1.66,1.66,0,0,0,.147,1.187h0a1.663,1.663,0,0,0,.864.763l5.55,2.146,3.328.815,2.231-.375a42.735,42.735,0,0,1-8.767-3.814,2.549,2.549,0,0,1-.5-3.861,13.86,13.86,0,0,1,3.123-2.893C657.448,182.49,656.833,181.861,656.833,181.861Z" fill="#677e97"/>
            <g>
              <path d="M660.26,192.423a.575.575,0,0,1-.658.5.626.626,0,0,1-.634-.574.575.575,0,0,1,.658-.5A.629.629,0,0,1,660.26,192.423Z" fill="#959495"/>
              <path d="M658.959,204.013l1.111.054s-.115-9.178-.128-10.384-.053-1.433-.324-1.446-.243.3-.28,1.33S658.959,204.013,658.959,204.013Z" fill="#585e61"/>
            </g>
          </g>
          <g>
            <path d="M668.214,187.234v-3.926a9.618,9.618,0,0,0,1.821-1.77l.306.008c1.98.132,2.862,3.765,4.488,5.489-1.156,2.772-4.55,4.289-8.912,5.264.1-.067.2-.136.293-.2a6.145,6.145,0,0,0,2-2.463h0Z" fill="#636270"/>
            <path d="M670.313,181.207c1.619.316,2.887,3.112,4.139,4.7a7.046,7.046,0,0,1,1.311,2.669h0a1.66,1.66,0,0,1-.147,1.187h0a1.663,1.663,0,0,1-.864.763l-5.551,2.146-3.327.815-2.231-.375a42.76,42.76,0,0,0,8.767-3.814,2.55,2.55,0,0,0,.5-3.861c-1.17-1.283-2.378-3.19-3.215-3.5C669.743,181.877,670.313,181.207,670.313,181.207Z" fill="#677e97"/>
            <g>
              <path d="M667.026,192.423a.574.574,0,0,0,.658.5.627.627,0,0,0,.634-.574.575.575,0,0,0-.658-.5A.628.628,0,0,0,667.026,192.423Z" fill="#959495"/>
              <path d="M668.327,204.013l-1.111.054s.115-9.178.128-10.384.053-1.433.324-1.446.243.3.28,1.33S668.327,204.013,668.327,204.013Z" fill="#585e61"/>
            </g>
          </g>
          <path d="M671.286,224.291v2.593a25.2,25.2,0,0,1-8.664,1.459,25.978,25.978,0,0,1-7.44-1.047v-3.055a6.536,6.536,0,0,0,1.729-1.638,8.214,8.214,0,0,0,2.03-5.177h8.28A8.243,8.243,0,0,0,671.286,224.291Z" fill="#68819a"/>
          <path d="M663.312,178.334a3.947,3.947,0,0,0,2.965-.939h-5.93A3.944,3.944,0,0,0,663.312,178.334Z" fill="#e2a98d"/>
          <g>
            <path d="M664.16,186.643c1.423-.077,2.777-1.4,4.04-1.839v4.386h-9.153v-4.159c1.332.379,2.752,1.636,4.234,1.636C663.572,186.667,663.864,186.66,664.16,186.643Z" fill="#f2b494"/>
            <path d="M664.012,184.717a12.445,12.445,0,0,0,4.188-1.409v2.121a15.25,15.25,0,0,1-4.04,1.214c-.3.017-.588.024-.879.024a15.728,15.728,0,0,1-4.234-1.01V183.6A12.967,12.967,0,0,0,664.012,184.717Z" fill="#e2a98d"/>
          </g>
          <path d="M656.64,172.607a2.6,2.6,0,0,0-2.356-2.786c-1.3,0-2.173,1.247-1.948,2.786s1.281,2.786,2.357,2.786S656.64,174.146,656.64,172.607Z" fill="#e2a98d"/>
          <path d="M669.983,172.607a2.6,2.6,0,0,1,2.356-2.786c1.3,0,2.174,1.247,1.948,2.786s-1.28,2.786-2.356,2.786S669.983,174.146,669.983,172.607Z" fill="#e2a98d"/>
          <path d="M663.266,156.074h0a9.211,9.211,0,0,1,9.211,9.211v12.328a7.867,7.867,0,0,1-7.867,7.867h-2.689a7.867,7.867,0,0,1-7.867-7.867V165.286a9.211,9.211,0,0,1,9.211-9.211Z" transform="translate(1326.533 341.554) rotate(180)" fill="#f2b494"/>
          <circle cx="657.103" cy="169.951" r="0.913" fill="#010100"/>
          <circle cx="665.634" cy="169.951" r="0.913" fill="#010100"/>
          <path d="M655.183,158.183a3.4,3.4,0,0,1,3.431-3.357h7.8a6.5,6.5,0,0,1,6.41,6.439l.061,7.184-.679,1.882v-6.737a2.888,2.888,0,0,0-2.866-2.887l-11.969-.089a2.887,2.887,0,0,0-2.909,2.887v6.663l-.382-.736-.233-9.486a1.772,1.772,0,0,1,1.337-1.763Z" fill="#4c3a2d"/>
          <g>
            <line x1="644.989" y1="208.754" x2="642.499" y2="219.472" fill="none" stroke="#cb636f" stroke-miterlimit="10" stroke-width="7.721"/>
            <line x1="657.109" y1="222.208" x2="666.509" y2="223.968" fill="none" stroke="#f2b494" stroke-linecap="round" stroke-linejoin="round" stroke-width="5.791"/>
            <line x1="642.499" y1="219.472" x2="654.299" y2="221.681" fill="none" stroke="#cb636f" stroke-linecap="round" stroke-miterlimit="10" stroke-width="7.721"/>
            <line x1="650.74" y1="221.014" x2="662.54" y2="223.224" fill="none" stroke="#cb636f" stroke-miterlimit="10" stroke-width="7.721"/>
          </g>
          <g>
            <line x1="682.643" y1="208.824" x2="685.133" y2="219.542" fill="none" stroke="#cb636f" stroke-miterlimit="10" stroke-width="7.721"/>
            <line x1="670.523" y1="222.278" x2="661.123" y2="224.038" fill="none" stroke="#f2b494" stroke-linecap="round" stroke-linejoin="round" stroke-width="5.791"/>
            <line x1="685.133" y1="219.542" x2="673.333" y2="221.752" fill="none" stroke="#cb636f" stroke-linecap="round" stroke-miterlimit="10" stroke-width="7.721"/>
            <line x1="676.892" y1="221.085" x2="665.092" y2="223.294" fill="none" stroke="#cb636f" stroke-miterlimit="10" stroke-width="7.721"/>
          </g>
        </g>
        <g>
          <g>
            <g>
              <line x1="671.494" y1="266.643" x2="671.494" y2="277.791" fill="none" stroke="#ef9e69" stroke-miterlimit="10" stroke-width="5.906"/>
              <g>
                <g>
                  <rect x="667.099" y="274.912" width="8.859" height="2.971" fill="#c7d1db"/>
                  <path d="M671.529,271.959a5.906,5.906,0,0,1,5.906,5.906H665.622A5.907,5.907,0,0,1,671.529,271.959Z" fill="#c7d1db"/>
                  <rect x="665.622" y="277.865" width="11.813" height="0.815" fill="#c7d1db"/>
                </g>
                <g>
                  <rect x="667.099" y="274.912" width="8.859" height="2.971" fill="#ecf0f2"/>
                  <path d="M671.529,271.959a5.906,5.906,0,0,1,5.906,5.906H665.622A5.907,5.907,0,0,1,671.529,271.959Z" stroke="#0b3046" stroke-miterlimit="10"/>
                  <rect x="665.622" y="277.865" width="11.813" height="0.815" fill="#c7d1db"/>
                </g>
              </g>
            </g>
            <g>
              <path d="M663.66,234.79h0a13.282,13.282,0,0,1,13.282,13.282v2.122a0,0,0,0,1,0,0H650.378a0,0,0,0,1,0,0v-2.122A13.282,13.282,0,0,1,663.66,234.79Z" transform="translate(1327.321 484.985) rotate(180)" fill="#1a1a1a"/>
              <g>
                <rect x="672.417" y="234.79" width="4.525" height="2.122" fill="#1e1e1c"/>
                <rect x="666.907" y="234.79" width="4.525" height="2.122" fill="#1e1e1c"/>
                <rect x="661.398" y="234.79" width="4.525" height="2.122" fill="#1e1e1c"/>
                <rect x="655.888" y="234.79" width="4.525" height="2.122" fill="#1e1e1c"/>
                <rect x="650.378" y="234.79" width="4.525" height="2.122" fill="#1e1e1c"/>
              </g>
            </g>
          </g>
          <g>
            <line x1="672.513" y1="233.932" x2="672.513" y2="266.764" fill="none" stroke="#0c3148" stroke-linecap="round" stroke-miterlimit="10" stroke-width="8.859"/>
            <line x1="672.513" y1="266.105" x2="672.513" y2="271.194" fill="none" stroke="#4d4d4d" stroke-miterlimit="10" stroke-width="10.828"/>
          </g>
          <g>
            <line x1="655.456" y1="266.643" x2="655.456" y2="277.791" fill="none" stroke="#ef9e69" stroke-miterlimit="10" stroke-width="5.906"/>
            <g>
              <g>
                <rect x="651.061" y="274.912" width="8.859" height="2.971" fill="#c7d1db"/>
                <path d="M655.491,271.959a5.906,5.906,0,0,1,5.906,5.906H649.585A5.906,5.906,0,0,1,655.491,271.959Z" fill="#c7d1db"/>
                <rect x="649.585" y="277.865" width="11.813" height="0.815" fill="#c7d1db"/>
              </g>
              <g>
                <rect x="651.061" y="274.912" width="8.859" height="2.971" fill="#ecf0f2"/>
                <path d="M655.491,271.959a5.906,5.906,0,0,1,5.906,5.906H649.585A5.906,5.906,0,0,1,655.491,271.959Z" stroke="#0b3046" stroke-miterlimit="10"/>
                <rect x="649.585" y="277.865" width="11.813" height="0.815" fill="#c7d1db"/>
              </g>
            </g>
          </g>
          <g>
            <line x1="654.507" y1="233.932" x2="654.507" y2="266.764" fill="none" stroke="#0c3148" stroke-linecap="round" stroke-miterlimit="10" stroke-width="8.859"/>
            <line x1="654.507" y1="266.105" x2="654.507" y2="271.194" fill="none" stroke="#4d4d4d" stroke-miterlimit="10" stroke-width="10.828"/>
          </g>
        </g>
        <g>
          <path d="M645.754,224.694h32.9A4.337,4.337,0,0,1,683,229.031v0a0,0,0,0,1,0,0H641.417a0,0,0,0,1,0,0v0A4.337,4.337,0,0,1,645.754,224.694Z" transform="translate(1324.413 453.724) rotate(180)" fill="#c2c6c6"/>
          <g>
            <g mask="url(#d)">
              <polygon points="675.368 224.133 684.012 186.546 641.068 186.546 649.022 224.163 675.368 224.133" fill="#e4efef"/>
            </g>
            <path d="M646.11,208.964l1.646,19.221a.891.891,0,0,0,.824.846h27.131a.891.891,0,0,0,.824-.846l1.644-19.221a.763.763,0,0,0-.773-.846H646.883A.763.763,0,0,0,646.11,208.964Z" fill="#e6e6e6"/>
          </g>
        </g>
        <path d="M661.094,178.461c-2,0-3.625-.656-3.625-1.465h7.25C664.719,177.805,663.1,178.461,661.094,178.461Z" fill="#e2a98d"/>
      </g>
    </g>
    <use width="68.887" height="188.182" transform="translate(44.226 -2410.852) scale(0.653)" xlink:href="#y"/>
    <g clip-path="url(#e)">
      <path d="M1418.529,276.345a71.207,71.207,0,1,0,45.3-81.393,53.972,53.972,0,0,0-93.114.251,65.625,65.625,0,1,0-4.639,44,53.99,53.99,0,0,0,52.452,37.144" fill="#fff" fill-rule="evenodd" opacity="0.3"/>
    </g>
  </g>
</svg>
